<svg id="my-svg" width="100%" xmlns="http://www.w3.org/2000/svg" xmlns:xlink="http://www.w3.org/1999/xlink" class="flowchart" style="max-width: 355.73px; background-color: rgb(30, 30, 46);" viewBox="4 4 355.72998046875 159" role="graphics-document document" aria-roledescription="flowchart-v2"><style>#my-svg{font-family:JetBrains Mono,Fira Code,DejaVu Sans Mono,monospace;font-size:16px;fill:#cdd6f4;}@keyframes edge-animation-frame{from{stroke-dashoffset:0;}}@keyframes dash{to{stroke-dashoffset:0;}}#my-svg .edge-animation-slow{stroke-dasharray:9,5!important;stroke-dashoffset:900;animation:dash 50s linear infinite;stroke-linecap:round;}#my-svg .edge-animation-fast{stroke-dasharray:9,5!important;stroke-dashoffset:900;animation:dash 20s linear infinite;stroke-linecap:round;}#my-svg .error-icon{fill:#313244;}#my-svg .error-text{fill:#cdd6f4;stroke:#cdd6f4;}#my-svg .edge-thickness-normal{stroke-width:1px;}#my-svg .edge-thickness-thick{stroke-width:3.5px;}#my-svg .edge-pattern-solid{stroke-dasharray:0;}#my-svg .edge-thickness-invisible{stroke-width:0;fill:none;}#my-svg .edge-pattern-dashed{stroke-dasharray:3;}#my-svg .edge-pattern-dotted{stroke-dasharray:2;}#my-svg .marker{fill:#a6adc8;stroke:#a6adc8;}#my-svg .marker.cross{stroke:#a6adc8;}#my-svg svg{font-family:JetBrains Mono,Fira Code,DejaVu Sans Mono,monospace;font-size:16px;}#my-svg p{margin:0;}#my-svg .label{font-family:JetBrains Mono,Fira Code,DejaVu Sans Mono,monospace;color:#cdd6f4;}#my-svg .cluster-label text{fill:#cdd6f4;}#my-svg .cluster-label span{color:#cdd6f4;}#my-svg .cluster-label span p{background-color:transparent;}#my-svg .label text,#my-svg span{fill:#cdd6f4;color:#cdd6f4;}#my-svg .node rect,#my-svg .node circle,#my-svg .node ellipse,#my-svg .node polygon,#my-svg .node path{fill:#313244;stroke:#a6adc8;stroke-width:1px;}#my-svg .rough-node .label text,#my-svg .node .label text,#my-svg .image-shape .label,#my-svg .icon-shape .label{text-anchor:middle;}#my-svg .node .katex path{fill:#000;stroke:#000;stroke-width:1px;}#my-svg .rough-node .label,#my-svg .node .label,#my-svg .image-shape .label,#my-svg .icon-shape .label{text-align:center;}#my-svg .node.clickable{cursor:pointer;}#my-svg .root .anchor path{fill:#a6adc8!important;stroke-width:0;stroke:#a6adc8;}#my-svg .arrowheadPath{fill:#e1e1d1;}#my-svg .edgePath .path{stroke:#a6adc8;stroke-width:1px;}#my-svg .flowchart-link{stroke:#a6adc8;fill:none;}#my-svg .edgeLabel{background-color:#1e1e2e;text-align:center;}#my-svg .edgeLabel p{background-color:#1e1e2e;}#my-svg .edgeLabel rect{opacity:0.5;background-color:#1e1e2e;fill:#1e1e2e;}#my-svg .labelBkg{background-color:rgba(30, 30, 46, 0.5);}#my-svg .cluster rect{fill:#313244;stroke:#6c7086;stroke-width:1px;}#my-svg .cluster text{fill:#cdd6f4;}#my-svg .cluster span{color:#cdd6f4;}#my-svg div.mermaidTooltip{position:absolute;text-align:center;max-width:200px;padding:2px;font-family:JetBrains Mono,Fira Code,DejaVu Sans Mono,monospace;font-size:12px;background:#313244;border:1px solid #6c7086;border-radius:2px;pointer-events:none;z-index:100;}#my-svg .flowchartTitleText{text-anchor:middle;font-size:18px;fill:#cdd6f4;}#my-svg rect.text{fill:none;stroke-width:0;}#my-svg .icon-shape,#my-svg .image-shape{background-color:#1e1e2e;text-align:center;}#my-svg .icon-shape p,#my-svg .image-shape p{background-color:#1e1e2e;padding:2px;}#my-svg .icon-shape .label rect,#my-svg .image-shape .label rect{opacity:0.5;background-color:#1e1e2e;fill:#1e1e2e;}#my-svg .label-icon{display:inline-block;height:1em;overflow:visible;vertical-align:-0.125em;}#my-svg .node .label-icon path{fill:currentColor;stroke:revert;stroke-width:revert;}#my-svg .node .neo-node{stroke:#a6adc8;}#my-svg [data-look="neo"].node rect,#my-svg [data-look="neo"].cluster rect,#my-svg [data-look="neo"].node polygon{stroke:url(#my-svg-gradient);filter:drop-shadow( 1px 2px 2px rgba(185,185,185,1));}#my-svg [data-look="neo"].node path{stroke:url(#my-svg-gradient);stroke-width:1px;}#my-svg [data-look="neo"].node .outer-path{filter:drop-shadow( 1px 2px 2px rgba(185,185,185,1));}#my-svg [data-look="neo"].node .neo-line path{stroke:#a6adc8;filter:none;}#my-svg [data-look="neo"].node circle{stroke:url(#my-svg-gradient);filter:drop-shadow( 1px 2px 2px rgba(185,185,185,1));}#my-svg [data-look="neo"].node circle .state-start{fill:#000000;}#my-svg [data-look="neo"].icon-shape .icon{fill:url(#my-svg-gradient);filter:drop-shadow( 1px 2px 2px rgba(185,185,185,1));}#my-svg [data-look="neo"].icon-shape .icon-neo path{stroke:url(#my-svg-gradient);filter:drop-shadow( 1px 2px 2px rgba(185,185,185,1));}#my-svg :root{--mermaid-font-family:JetBrains Mono,Fira Code,DejaVu Sans Mono,monospace;}#my-svg .root&gt;*{fill:#89b4fa!important;stroke:#89b4fa!important;color:#1e1e2e!important;font-weight:bold!important;}#my-svg .root span{fill:#89b4fa!important;stroke:#89b4fa!important;color:#1e1e2e!important;font-weight:bold!important;}#my-svg .root tspan{fill:#1e1e2e!important;}#my-svg .ctx_user_c&gt;*{fill:#f38ba8!important;stroke:#f38ba8!important;color:#1e1e2e!important;stroke-width:2px!important;}#my-svg .ctx_user_c span{fill:#f38ba8!important;stroke:#f38ba8!important;color:#1e1e2e!important;stroke-width:2px!important;}#my-svg .ctx_user_c tspan{fill:#1e1e2e!important;}#my-svg .ctx_default_c&gt;*{fill:#f38ba8!important;stroke:#f38ba8!important;color:#1e1e2e!important;stroke-width:2px!important;}#my-svg .ctx_default_c span{fill:#f38ba8!important;stroke:#f38ba8!important;color:#1e1e2e!important;stroke-width:2px!important;}#my-svg .ctx_default_c tspan{fill:#1e1e2e!important;}</style><g><marker id="my-svg_flowchart-v2-pointEnd" class="marker flowchart-v2" viewBox="0 0 10 10" refX="5" refY="5" markerUnits="userSpaceOnUse" markerWidth="8" markerHeight="8" orient="auto"><path d="M 0 0 L 10 5 L 0 10 z" class="arrowMarkerPath" style="stroke-width: 1; stroke-dasharray: 1, 0;"/></marker><marker id="my-svg_flowchart-v2-pointStart" class="marker flowchart-v2" viewBox="0 0 10 10" refX="4.5" refY="5" markerUnits="userSpaceOnUse" markerWidth="8" markerHeight="8" orient="auto"><path d="M 0 5 L 10 10 L 10 0 z" class="arrowMarkerPath" style="stroke-width: 1; stroke-dasharray: 1, 0;"/></marker><marker id="my-svg_flowchart-v2-pointEnd-margin" class="marker flowchart-v2" viewBox="0 0 11.5 14" refX="11.5" refY="7" markerUnits="userSpaceOnUse" markerWidth="10.5" markerHeight="14" orient="auto"><path d="M 0 0 L 11.5 7 L 0 14 z" class="arrowMarkerPath" style="stroke-width: 0; stroke-dasharray: 1, 0;"/></marker><marker id="my-svg_flowchart-v2-pointStart-margin" class="marker flowchart-v2" viewBox="0 0 11.5 14" refX="1" refY="7" markerUnits="userSpaceOnUse" markerWidth="11.5" markerHeight="14" orient="auto"><polygon points="0,7 11.5,14 11.5,0" class="arrowMarkerPath" style="stroke-width: 0; stroke-dasharray: 1, 0;"/></marker><marker id="my-svg_flowchart-v2-circleEnd" class="marker flowchart-v2" viewBox="0 0 10 10" refX="11" refY="5" markerUnits="userSpaceOnUse" markerWidth="11" markerHeight="11" orient="auto"><circle cx="5" cy="5" r="5" class="arrowMarkerPath" style="stroke-width: 1; stroke-dasharray: 1, 0;"/></marker><marker id="my-svg_flowchart-v2-circleStart" class="marker flowchart-v2" viewBox="0 0 10 10" refX="-1" refY="5" markerUnits="userSpaceOnUse" markerWidth="11" markerHeight="11" orient="auto"><circle cx="5" cy="5" r="5" class="arrowMarkerPath" style="stroke-width: 1; stroke-dasharray: 1, 0;"/></marker><marker id="my-svg_flowchart-v2-circleEnd-margin" class="marker flowchart-v2" viewBox="0 0 10 10" refY="5" refX="12.25" markerUnits="userSpaceOnUse" markerWidth="14" markerHeight="14" orient="auto"><circle cx="5" cy="5" r="5" class="arrowMarkerPath" style="stroke-width: 0; stroke-dasharray: 1, 0;"/></marker><marker id="my-svg_flowchart-v2-circleStart-margin" class="marker flowchart-v2" viewBox="0 0 10 10" refX="-2" refY="5" markerUnits="userSpaceOnUse" markerWidth="14" markerHeight="14" orient="auto"><circle cx="5" cy="5" r="5" class="arrowMarkerPath" style="stroke-width: 0; stroke-dasharray: 1, 0;"/></marker><marker id="my-svg_flowchart-v2-crossEnd" class="marker cross flowchart-v2" viewBox="0 0 11 11" refX="12" refY="5.2" markerUnits="userSpaceOnUse" markerWidth="11" markerHeight="11" orient="auto"><path d="M 1,1 l 9,9 M 10,1 l -9,9" class="arrowMarkerPath" style="stroke-width: 2; stroke-dasharray: 1, 0;"/></marker><marker id="my-svg_flowchart-v2-crossStart" class="marker cross flowchart-v2" viewBox="0 0 11 11" refX="-1" refY="5.2" markerUnits="userSpaceOnUse" markerWidth="11" markerHeight="11" orient="auto"><path d="M 1,1 l 9,9 M 10,1 l -9,9" class="arrowMarkerPath" style="stroke-width: 2; stroke-dasharray: 1, 0;"/></marker><marker id="my-svg_flowchart-v2-crossEnd-margin" class="marker cross flowchart-v2" viewBox="0 0 15 15" refX="17.7" refY="7.5" markerUnits="userSpaceOnUse" markerWidth="12" markerHeight="12" orient="auto"><path d="M 1,1 L 14,14 M 1,14 L 14,1" class="arrowMarkerPath" style="stroke-width: 2.5;"/></marker><marker id="my-svg_flowchart-v2-crossStart-margin" class="marker cross flowchart-v2" viewBox="0 0 15 15" refX="-3.5" refY="7.5" markerUnits="userSpaceOnUse" markerWidth="12" markerHeight="12" orient="auto"><path d="M 1,1 L 14,14 M 1,14 L 14,1" class="arrowMarkerPath" style="stroke-width: 2.5; stroke-dasharray: 1, 0;"/></marker></g><defs><filter id="my-svg-drop-shadow" height="130%" width="130%"><feDropShadow dx="4" dy="4" stdDeviation="0" flood-opacity="0.06" flood-color="#000000"/></filter></defs><defs><filter id="my-svg-drop-shadow-small" height="150%" width="150%"><feDropShadow dx="2" dy="2" stdDeviation="0" flood-opacity="0.06" flood-color="#000000"/></filter></defs><linearGradient id="my-svg-gradient" gradientUnits="objectBoundingBox" x1="0%" y1="0%" x2="100%" y2="0%"><stop offset="0%" stop-color="#a6adc8" stop-opacity="1"/><stop offset="100%" stop-color="#6c7086" stop-opacity="1"/></linearGradient><g class="subgraphs"/><g class="nodes"><g class="node default root " id="my-svg-flowchart-alice-0" data-look="classic" transform="translate(49.36498260498047, 39)"><g class="basic label-container outer-path"><path d="M-17.875 -19.5 C-10.009641347946953 -19.5, -2.1442826958939065 -19.5, 17.875 -19.5 C17.875 -19.5, 17.875 -19.5, 17.875 -19.5 C18.162455893691384 -19.490781848988274, 18.449911787382767 -19.481563697976544, 19.1243692896239 -19.45993515863156 C19.429246352288622 -19.430524035064607, 19.734123414953345 -19.401112911497652, 20.368604652847864 -19.3399052695533 C20.777885647642954 -19.273735892336347, 21.187166642438044 -19.2075665151194, 21.60259325967676 -19.140403561325776 C21.869347006358733 -19.07951875937649, 22.136100753040708 -19.01863395742721, 22.82126438623539 -18.862249829261074 C23.217048831793594 -18.74478308333435, 23.612833277351797 -18.627316337407624, 24.019610251460602 -18.50658706670804 C24.431177829364415 -18.355126393550453, 24.84274540726823 -18.203665720392863, 25.192706595147794 -18.074876768247425 C25.479428205625965 -17.94795361658312, 25.766149816104132 -17.821030464918817, 26.33573291279238 -17.568892924097174 C26.77368591051373 -17.340413125708228, 27.21163890823508 -17.111933327319285, 27.443992264076783 -16.990714730406097 C27.797274135037007 -16.77655318411529, 28.150556005997228 -16.562391637824483, 28.512930573605697 -16.342718045390892 C28.830532228868837 -16.12117287943339, 29.148133884131976 -15.899627713475892, 29.538155344578712 -15.627565626425154 C29.881170664722397 -15.354020036631587, 30.22418598486608 -15.08047444683802, 30.51545370850187 -14.848196188198123 C30.76308663149446 -14.623302519544357, 31.01071955448705 -14.398408850890592, 31.440809736767985 -14.007812326905688 C31.696880744801945 -13.743397987289876, 31.9529517528359 -13.478983647674063, 32.31042094296865 -13.10986736009568 C32.55679648032028 -12.820460634757236, 32.80317201767191 -12.531053909418791, 33.12071390812658 -12.158051136245305 C33.34525569316091 -11.857185600476745, 33.56979747819524 -11.556320064708183, 33.868358964640635 -11.156274872382312 C34.04399770475082 -10.886446601967542, 34.219636444861 -10.616618331552774, 34.55028387860425 -10.108655082055241 C34.77236677088809 -9.714324418473888, 34.994449663171935 -9.319993754892533, 35.163686474273504 -9.019496659696287 C35.294242874173335 -8.748393501844825, 35.42479927407317 -8.477290343993364, 35.70604614880834 -7.893275190886684 C35.80604626034748 -7.646272982014389, 35.90604637188661 -7.399270773142093, 36.175134229970325 -6.734618561215508 C36.31071026232904 -6.326285152858334, 36.44628629468775 -5.917951744501162, 36.56902313421488 -5.548287939305138 C36.68148624960528 -5.119417338499007, 36.79394936499568 -4.690546737692877, 36.88609428754556 -4.339158212148133 C36.95268010867615 -3.9972540935608585, 37.01926592980673 -3.6553499749735834, 37.125044776581774 -3.1121979531509023 C37.169582846134034 -2.7667694807401877, 37.214120915686294 -2.421341008329473, 37.28489270250937 -1.872449005199798 C37.311853873913186 -1.4525069979194125, 37.33881504531701 -1.032564990639027, 37.36498121591342 -0.6250057626472757 C37.36498121591342 -0.22337311338110205, 37.36498121591342 0.1782595358850716, 37.36498121591342 0.625005762647271 C37.341644881686726 0.9884880049779738, 37.31830854746003 1.3519702473086768, 37.28489270250937 1.8724490051997846 C37.25236614003114 2.124718600684602, 37.219839577552925 2.37698819616942, 37.125044776581774 3.1121979531508885 C37.044540892936375 3.525568381168205, 36.96403700929097 3.938938809185521, 36.88609428754556 4.339158212148129 C36.765850965077384 4.797698114504909, 36.64560764260921 5.25623801686169, 36.56902313421489 5.548287939305125 C36.488184229303094 5.791761840969074, 36.4073453243913 6.035235742633023, 36.175134229970325 6.734618561215495 C36.05497741630809 7.03140821403517, 35.93482060264586 7.328197866854845, 35.70604614880834 7.893275190886679 C35.51725683333109 8.285300243919437, 35.32846751785384 8.677325296952194, 35.163686474273504 9.019496659696284 C34.978546901212496 9.348230719080771, 34.79340732815149 9.676964778465257, 34.55028387860425 10.108655082055236 C34.28181340912817 10.521097817585712, 34.0133429396521 10.933540553116188, 33.86835896464064 11.156274872382301 C33.61799041137949 11.491745924707818, 33.36762185811833 11.827216977033334, 33.12071390812658 12.158051136245302 C32.8758911209194 12.445633912910099, 32.63106833371221 12.733216689574895, 32.31042094296866 13.10986736009567 C32.13089574353506 13.29524186780385, 31.951370544101458 13.48061637551203, 31.44080973676799 14.007812326905684 C31.21126085370723 14.21628254897084, 30.98171197064647 14.424752771035996, 30.515453708501887 14.848196188198111 C30.233543094753358 15.07301240070607, 29.95163248100483 15.297828613214026, 29.538155344578715 15.627565626425152 C29.19080635998044 15.869861241585713, 28.84345737538216 16.112156856746275, 28.512930573605708 16.34271804539089 C28.25933762072104 16.496447583707184, 28.005744667836375 16.65017712202348, 27.443992264076787 16.990714730406093 C27.055177608422934 17.193559087213035, 26.666362952769084 17.396403444019978, 26.335732912792388 17.56889292409717 C25.971345000324632 17.730196643763275, 25.606957087856873 17.891500363429376, 25.192706595147804 18.07487676824742 C24.87468508644734 18.191911623207794, 24.55666357774687 18.308946478168163, 24.019610251460616 18.506587066708033 C23.742865484274976 18.588723460945804, 23.466120717089336 18.67085985518358, 22.821264386235413 18.86224982926107 C22.361853809991313 18.967107295354605, 21.902443233747213 19.071964761448136, 21.602593259676766 19.140403561325773 C21.23723993011586 19.199471054291795, 20.87188660055495 19.258538547257814, 20.36860465284788 19.3399052695533 C19.890247606525705 19.38605179850348, 19.411890560203528 19.432198327453662, 19.1243692896239 19.45993515863156 C18.811963222205062 19.469953413152158, 18.499557154786224 19.47997166767276, 17.875000000000004 19.5 C17.875000000000004 19.5, 17.875 19.5, 17.875 19.5 C7.27957783856327 19.5, -3.3158443228734598 19.5, -17.874999999999996 19.5 C-18.315974162757108 19.485858816904518, -18.75694832551422 19.471717633809035, -19.124369289623893 19.45993515863156 C-19.47702016073992 19.42591535321972, -19.829671031855945 19.39189554780788, -20.36860465284787 19.3399052695533 C-20.65699496853077 19.293280559813986, -20.945385284213668 19.246655850074678, -21.60259325967676 19.140403561325773 C-21.94620204794415 19.061977097660634, -22.28981083621154 18.983550633995495, -22.821264386235388 18.862249829261074 C-23.247061844240992 18.73587537878148, -23.672859302246597 18.60950092830188, -24.01961025146059 18.506587066708043 C-24.406898830573144 18.364061289538245, -24.794187409685694 18.221535512368444, -25.192706595147797 18.074876768247425 C-25.485715319238242 17.945170497887567, -25.778724043328683 17.815464227527706, -26.33573291279238 17.568892924097174 C-26.619340260684794 17.42093515236088, -26.902947608577207 17.27297738062458, -27.44399226407678 16.990714730406097 C-27.795198649291187 16.777811355771313, -28.14640503450559 16.56490798113653, -28.512930573605686 16.3427180453909 C-28.844115127937886 16.111698037037048, -29.175299682270087 15.880678028683196, -29.538155344578712 15.627565626425156 C-29.775579118601453 15.43822648475399, -30.013002892624193 15.248887343082826, -30.51545370850187 14.848196188198125 C-30.820957253231832 14.570745952055223, -31.12646079796179 14.293295715912322, -31.440809736767974 14.007812326905697 C-31.736785460446622 13.702193092148661, -32.03276118412527 13.396573857391624, -32.310420942968655 13.109867360095677 C-32.574911029207456 12.799182254887324, -32.839401115446265 12.48849714967897, -33.120713908126575 12.158051136245307 C-33.28280722154494 11.940860863269336, -33.44490053496331 11.723670590293365, -33.868358964640635 11.156274872382316 C-34.130256646067565 10.753929704336045, -34.3921543274945 10.351584536289774, -34.55028387860425 10.108655082055249 C-34.75649816532304 9.7425007345252, -34.96271245204183 9.376346386995152, -35.163686474273504 9.019496659696289 C-35.351181415796475 8.630159401874765, -35.53867635731944 8.240822144053244, -35.70604614880834 7.893275190886686 C-35.80320553780833 7.6532896216077155, -35.90036492680832 7.413304052328744, -36.175134229970325 6.73461856121551 C-36.31069190621654 6.326340438544534, -36.44624958246275 5.918062315873559, -36.56902313421488 5.5482879393051325 C-36.66156745815675 5.195376323151072, -36.75411178209862 4.84246470699701, -36.88609428754556 4.339158212148136 C-36.93668964690736 4.079361735158259, -36.98728500626917 3.8195652581683825, -37.125044776581774 3.112197953150904 C-37.17075299893753 2.7576940066690945, -37.21646122129329 2.403190060187285, -37.28489270250937 1.872449005199809 C-37.305110631058426 1.557538448429976, -37.32532855960749 1.242627891660143, -37.36498121591342 0.6250057626472781 C-37.36498121591342 0.22026298734910005, -37.36498121591342 -0.18447978794907804, -37.36498121591342 -0.6250057626472687 C-37.34714970266554 -0.9027459748214218, -37.329318189417656 -1.180486186995575, -37.28489270250937 -1.8724490051997822 C-37.25010613732039 -2.142246735421252, -37.2153195721314 -2.4120444656427216, -37.125044776581774 -3.112197953150895 C-37.03427215926492 -3.578296158273482, -36.943499541948064 -4.044394363396068, -36.88609428754556 -4.339158212148126 C-36.77325216212977 -4.769474142445054, -36.660410036713984 -5.199790072741982, -36.56902313421489 -5.548287939305123 C-36.48686863320661 -5.795724206799917, -36.40471413219833 -6.043160474294711, -36.17513422997033 -6.734618561215485 C-35.98813618212832 -7.196507354746561, -35.801138134286305 -7.658396148277637, -35.70604614880834 -7.893275190886676 C-35.49352818799439 -8.33457328367277, -35.28101022718044 -8.775871376458863, -35.163686474273504 -9.019496659696282 C-35.00000154648244 -9.310135823885583, -34.83631661869137 -9.600774988074884, -34.55028387860425 -10.108655082055243 C-34.37374417045899 -10.379867481315676, -34.197204462313735 -10.651079880576109, -33.86835896464064 -11.156274872382308 C-33.657480278664 -11.438833100147491, -33.44660159268737 -11.721391327912675, -33.12071390812659 -12.158051136245302 C-32.88611186644327 -12.433628043640867, -32.65150982475995 -12.709204951036433, -32.31042094296866 -13.10986736009567 C-32.017579583120224 -13.412250106861958, -31.72473822327179 -13.714632853628245, -31.440809736767996 -14.007812326905677 C-31.134310178596866 -14.286167116102774, -30.82781062042574 -14.564521905299873, -30.515453708501887 -14.848196188198107 C-30.226739304968124 -15.07843824200334, -29.93802490143436 -15.308680295808575, -29.53815534457872 -15.627565626425149 C-29.17596734277142 -15.880212297620023, -28.813779340964118 -16.132858968814897, -28.51293057360571 -16.342718045390885 C-28.142612569274423 -16.567206995846664, -27.772294564943135 -16.791695946302443, -27.44399226407679 -16.99071473040609 C-27.045252853548458 -17.19873682547394, -26.646513443020122 -17.40675892054179, -26.335732912792388 -17.56889292409717 C-26.056411440247217 -17.692540254215828, -25.777089967702047 -17.816187584334486, -25.192706595147804 -18.07487676824742 C-24.930608617407998 -18.171331246862817, -24.668510639668188 -18.267785725478213, -24.01961025146062 -18.506587066708033 C-23.582266774943044 -18.636388314875695, -23.144923298425468 -18.76618956304336, -22.821264386235413 -18.862249829261067 C-22.439309026436415 -18.94942864764353, -22.057353666637418 -19.036607466025995, -21.602593259676766 -19.140403561325773 C-21.168372656315125 -19.210604981046213, -20.73415205295348 -19.28080640076665, -20.368604652847882 -19.3399052695533 C-20.03515888546575 -19.372072381705443, -19.701713118083624 -19.40423949385759, -19.124369289623903 -19.45993515863156 C-18.77359266826413 -19.471183882133293, -18.42281604690435 -19.482432605635026, -17.875000000000007 -19.5 C-17.875000000000004 -19.5, -17.875000000000004 -19.5, -17.875 -19.5" stroke="none" stroke-width="0" fill="#89b4fa" style="fill:#89b4fa !important;stroke:#89b4fa !important"/><path d="M-17.875 -19.5 C-8.979595200762157 -19.5, -0.08419040152431378 -19.5, 17.875 -19.5 M-17.875 -19.5 C-6.306433372306259 -19.5, 5.262133255387482 -19.5, 17.875 -19.5 M17.875 -19.5 C17.875 -19.5, 17.875 -19.5, 17.875 -19.5 M17.875 -19.5 C17.875 -19.5, 17.875 -19.5, 17.875 -19.5 M17.875 -19.5 C18.29992698188793 -19.48637341876105, 18.724853963775853 -19.4727468375221, 19.1243692896239 -19.45993515863156 M17.875 -19.5 C18.1413604425314 -19.491458339047167, 18.407720885062805 -19.482916678094334, 19.1243692896239 -19.45993515863156 M19.1243692896239 -19.45993515863156 C19.463158647666674 -19.427252556714986, 19.801948005709452 -19.394569954798417, 20.368604652847864 -19.3399052695533 M19.1243692896239 -19.45993515863156 C19.584645531655514 -19.41553286312594, 20.044921773687125 -19.37113056762032, 20.368604652847864 -19.3399052695533 M20.368604652847864 -19.3399052695533 C20.84996850837941 -19.262082094423413, 21.331332363910956 -19.184258919293526, 21.60259325967676 -19.140403561325776 M20.368604652847864 -19.3399052695533 C20.641732226521434 -19.295748121577724, 20.914859800195 -19.251590973602152, 21.60259325967676 -19.140403561325776 M21.60259325967676 -19.140403561325776 C21.908954004209775 -19.07047872057681, 22.21531474874279 -19.000553879827837, 22.82126438623539 -18.862249829261074 M21.60259325967676 -19.140403561325776 C21.893604879594047 -19.073982058107948, 22.184616499511336 -19.00756055489012, 22.82126438623539 -18.862249829261074 M22.82126438623539 -18.862249829261074 C23.065529127548526 -18.789753336211128, 23.309793868861664 -18.71725684316118, 24.019610251460602 -18.50658706670804 M22.82126438623539 -18.862249829261074 C23.08460492227192 -18.784091740468114, 23.34794545830845 -18.705933651675153, 24.019610251460602 -18.50658706670804 M24.019610251460602 -18.50658706670804 C24.456984013450004 -18.345629479257205, 24.894357775439406 -18.184671891806367, 25.192706595147794 -18.074876768247425 M24.019610251460602 -18.50658706670804 C24.273270892858672 -18.413237605860285, 24.526931534256743 -18.31988814501253, 25.192706595147794 -18.074876768247425 M25.192706595147794 -18.074876768247425 C25.503056446234005 -17.937494095372795, 25.813406297320217 -17.800111422498166, 26.33573291279238 -17.568892924097174 M25.192706595147794 -18.074876768247425 C25.47978003401804 -17.947797872590566, 25.76685347288829 -17.82071897693371, 26.33573291279238 -17.568892924097174 M26.33573291279238 -17.568892924097174 C26.622375633822134 -17.41935160013938, 26.909018354851888 -17.26981027618158, 27.443992264076783 -16.990714730406097 M26.33573291279238 -17.568892924097174 C26.595445368718266 -17.433401102194406, 26.855157824644152 -17.29790928029164, 27.443992264076783 -16.990714730406097 M27.443992264076783 -16.990714730406097 C27.726344329850757 -16.819551248848995, 28.00869639562473 -16.648387767291894, 28.512930573605697 -16.342718045390892 M27.443992264076783 -16.990714730406097 C27.762157344149173 -16.797841189120664, 28.080322424221567 -16.604967647835227, 28.512930573605697 -16.342718045390892 M28.512930573605697 -16.342718045390892 C28.732828837521996 -16.189326535725304, 28.9527271014383 -16.035935026059715, 29.538155344578712 -15.627565626425154 M28.512930573605697 -16.342718045390892 C28.727055259480448 -16.193353933832924, 28.9411799453552 -16.043989822274956, 29.538155344578712 -15.627565626425154 M29.538155344578712 -15.627565626425154 C29.9212737037725 -15.322038930175816, 30.30439206296629 -15.01651223392648, 30.51545370850187 -14.848196188198123 M29.538155344578712 -15.627565626425154 C29.855596609128725 -15.37441466541334, 30.173037873678734 -15.121263704401528, 30.51545370850187 -14.848196188198123 M30.51545370850187 -14.848196188198123 C30.80149386374279 -14.588422087416102, 31.08753401898371 -14.328647986634081, 31.440809736767985 -14.007812326905688 M30.51545370850187 -14.848196188198123 C30.718578045160832 -14.663724040019895, 30.921702381819795 -14.479251891841667, 31.440809736767985 -14.007812326905688 M31.440809736767985 -14.007812326905688 C31.784626437404217 -13.65279335562269, 32.128443138040446 -13.29777438433969, 32.31042094296865 -13.10986736009568 M31.440809736767985 -14.007812326905688 C31.73914739355875 -13.699754202292075, 32.03748505034952 -13.391696077678462, 32.31042094296865 -13.10986736009568 M32.31042094296865 -13.10986736009568 C32.6219992147948 -12.743869792702773, 32.93357748662095 -12.377872225309865, 33.12071390812658 -12.158051136245305 M32.31042094296865 -13.10986736009568 C32.5358075362192 -12.845115442803111, 32.76119412946976 -12.580363525510542, 33.12071390812658 -12.158051136245305 M33.12071390812658 -12.158051136245305 C33.34213333201033 -11.86136927996557, 33.56355275589407 -11.564687423685838, 33.868358964640635 -11.156274872382312 M33.12071390812658 -12.158051136245305 C33.3302243329176 -11.877326253817689, 33.53973475770862 -11.596601371390072, 33.868358964640635 -11.156274872382312 M33.868358964640635 -11.156274872382312 C34.031877695343795 -10.905066191094955, 34.195396426046955 -10.653857509807597, 34.55028387860425 -10.108655082055241 M33.868358964640635 -11.156274872382312 C34.024646580496665 -10.916175125326362, 34.1809341963527 -10.676075378270411, 34.55028387860425 -10.108655082055241 M34.55028387860425 -10.108655082055241 C34.73884432071709 -9.773846923268655, 34.927404762829944 -9.439038764482069, 35.163686474273504 -9.019496659696287 M34.55028387860425 -10.108655082055241 C34.76018136263768 -9.735960844728876, 34.970078846671115 -9.363266607402508, 35.163686474273504 -9.019496659696287 M35.163686474273504 -9.019496659696287 C35.375328567079116 -8.580017325570084, 35.58697065988473 -8.14053799144388, 35.70604614880834 -7.893275190886684 M35.163686474273504 -9.019496659696287 C35.275542811485664 -8.787224582133025, 35.387399148697824 -8.554952504569762, 35.70604614880834 -7.893275190886684 M35.70604614880834 -7.893275190886684 C35.89184328034735 -7.434352683842159, 36.077640411886364 -6.975430176797634, 36.175134229970325 -6.734618561215508 M35.70604614880834 -7.893275190886684 C35.85499642524673 -7.525365128326167, 36.00394670168513 -7.15745506576565, 36.175134229970325 -6.734618561215508 M36.175134229970325 -6.734618561215508 C36.28040479148711 -6.417560402513168, 36.3856753530039 -6.100502243810828, 36.56902313421488 -5.548287939305138 M36.175134229970325 -6.734618561215508 C36.262904574308344 -6.470268268374664, 36.35067491864636 -6.205917975533819, 36.56902313421488 -5.548287939305138 M36.56902313421488 -5.548287939305138 C36.65746298709539 -5.211028450197038, 36.745902839975905 -4.873768961088938, 36.88609428754556 -4.339158212148133 M36.56902313421488 -5.548287939305138 C36.67451247324365 -5.1460113702196795, 36.78000181227243 -4.74373480113422, 36.88609428754556 -4.339158212148133 M36.88609428754556 -4.339158212148133 C36.95078125616469 -4.007004299884582, 37.01546822478381 -3.674850387621032, 37.125044776581774 -3.1121979531509023 M36.88609428754556 -4.339158212148133 C36.96690120002146 -3.924231795131365, 37.04770811249737 -3.509305378114597, 37.125044776581774 -3.1121979531509023 M37.125044776581774 -3.1121979531509023 C37.16154955778556 -2.829074078818734, 37.19805433898935 -2.545950204486566, 37.28489270250937 -1.872449005199798 M37.125044776581774 -3.1121979531509023 C37.17780196737107 -2.7030235994748475, 37.23055915816036 -2.293849245798793, 37.28489270250937 -1.872449005199798 M37.28489270250937 -1.872449005199798 C37.30108547775257 -1.6202334602139767, 37.31727825299578 -1.3680179152281555, 37.36498121591342 -0.6250057626472757 M37.28489270250937 -1.872449005199798 C37.30632446740526 -1.5386319675370306, 37.32775623230115 -1.2048149298742634, 37.36498121591342 -0.6250057626472757 M37.36498121591342 -0.6250057626472757 C37.36498121591342 -0.21990940522300484, 37.36498121591342 0.18518695220126602, 37.36498121591342 0.625005762647271 M37.36498121591342 -0.6250057626472757 C37.36498121591342 -0.34277903778603525, 37.36498121591342 -0.06055231292479479, 37.36498121591342 0.625005762647271 M37.36498121591342 0.625005762647271 C37.33348170091407 1.1156361347130035, 37.30198218591472 1.606266506778736, 37.28489270250937 1.8724490051997846 M37.36498121591342 0.625005762647271 C37.340381352340785 1.008168494443509, 37.31578148876815 1.391331226239747, 37.28489270250937 1.8724490051997846 M37.28489270250937 1.8724490051997846 C37.22527755748744 2.334812297647905, 37.165662412465515 2.7971755900960256, 37.125044776581774 3.1121979531508885 M37.28489270250937 1.8724490051997846 C37.25255335950128 2.123266563444905, 37.220214016493195 2.374084121690026, 37.125044776581774 3.1121979531508885 M37.125044776581774 3.1121979531508885 C37.03046611566425 3.597839387755322, 36.93588745474673 4.083480822359756, 36.88609428754556 4.339158212148129 M37.125044776581774 3.1121979531508885 C37.04053013358231 3.546162782777036, 36.95601549058284 3.9801276124031837, 36.88609428754556 4.339158212148129 M36.88609428754556 4.339158212148129 C36.76166519555773 4.813660267807309, 36.63723610356991 5.288162323466491, 36.56902313421489 5.548287939305125 M36.88609428754556 4.339158212148129 C36.81951229218744 4.59306421726796, 36.75293029682933 4.846970222387791, 36.56902313421489 5.548287939305125 M36.56902313421489 5.548287939305125 C36.41852112284764 6.001576018304188, 36.2680191114804 6.454864097303252, 36.175134229970325 6.734618561215495 M36.56902313421489 5.548287939305125 C36.46258088393705 5.868875037872506, 36.35613863365921 6.189462136439886, 36.175134229970325 6.734618561215495 M36.175134229970325 6.734618561215495 C36.0414109326274 7.064917691016591, 35.907687635284475 7.395216820817688, 35.70604614880834 7.893275190886679 M36.175134229970325 6.734618561215495 C36.078753761733935 6.972680181148959, 35.98237329349755 7.210741801082424, 35.70604614880834 7.893275190886679 M35.70604614880834 7.893275190886679 C35.5558429366672 8.20517537473166, 35.405639724526054 8.51707555857664, 35.163686474273504 9.019496659696284 M35.70604614880834 7.893275190886679 C35.57819859540666 8.158753371024687, 35.45035104200499 8.424231551162695, 35.163686474273504 9.019496659696284 M35.163686474273504 9.019496659696284 C35.0327955812509 9.251906694398059, 34.9019046882283 9.484316729099834, 34.55028387860425 10.108655082055236 M35.163686474273504 9.019496659696284 C35.028614672256786 9.259330321680054, 34.89354287024007 9.499163983663825, 34.55028387860425 10.108655082055236 M34.55028387860425 10.108655082055236 C34.37014191970612 10.385401505811846, 34.189999960807995 10.662147929568457, 33.86835896464064 11.156274872382301 M34.55028387860425 10.108655082055236 C34.32884370412872 10.448846655062377, 34.1074035296532 10.78903822806952, 33.86835896464064 11.156274872382301 M33.86835896464064 11.156274872382301 C33.593936690381845 11.523975719505602, 33.31951441612304 11.891676566628902, 33.12071390812658 12.158051136245302 M33.86835896464064 11.156274872382301 C33.623346061080966 11.48456984201756, 33.3783331575213 11.81286481165282, 33.12071390812658 12.158051136245302 M33.12071390812658 12.158051136245302 C32.84897818489263 12.47724737895658, 32.57724246165868 12.796443621667859, 32.31042094296866 13.10986736009567 M33.12071390812658 12.158051136245302 C32.93483895462556 12.376390433212078, 32.74896400112454 12.594729730178855, 32.31042094296866 13.10986736009567 M32.31042094296866 13.10986736009567 C32.11079695141702 13.315995520807244, 31.911172959865386 13.522123681518819, 31.44080973676799 14.007812326905684 M32.31042094296866 13.10986736009567 C32.05674997641154 13.371803459839578, 31.803079009854418 13.633739559583484, 31.44080973676799 14.007812326905684 M31.44080973676799 14.007812326905684 C31.135986163291044 14.284645031147651, 30.8311625898141 14.561477735389616, 30.515453708501887 14.848196188198111 M31.44080973676799 14.007812326905684 C31.246259494832916 14.18449770911379, 31.051709252897844 14.361183091321896, 30.515453708501887 14.848196188198111 M30.515453708501887 14.848196188198111 C30.300371617596472 15.019718432120365, 30.085289526691056 15.191240676042622, 29.538155344578715 15.627565626425152 M30.515453708501887 14.848196188198111 C30.134293035375855 15.152161681904627, 29.753132362249822 15.456127175611142, 29.538155344578715 15.627565626425152 M29.538155344578715 15.627565626425152 C29.275449875992962 15.81081758897413, 29.012744407407205 15.994069551523108, 28.512930573605708 16.34271804539089 M29.538155344578715 15.627565626425152 C29.192207912491902 15.868883579225946, 28.84626048040509 16.11020153202674, 28.512930573605708 16.34271804539089 M28.512930573605708 16.34271804539089 C28.27924175789906 16.484381578780173, 28.04555294219242 16.626045112169457, 27.443992264076787 16.990714730406093 M28.512930573605708 16.34271804539089 C28.22186682734905 16.51916259885211, 27.93080308109239 16.69560715231333, 27.443992264076787 16.990714730406093 M27.443992264076787 16.990714730406093 C27.112788351544076 17.16350359942818, 26.781584439011368 17.33629246845026, 26.335732912792388 17.56889292409717 M27.443992264076787 16.990714730406093 C27.169730324019646 17.133797008860746, 26.895468383962502 17.276879287315403, 26.335732912792388 17.56889292409717 M26.335732912792388 17.56889292409717 C25.887452922414102 17.767333178084193, 25.439172932035817 17.965773432071217, 25.192706595147804 18.07487676824742 M26.335732912792388 17.56889292409717 C26.000849045285978 17.717136078265284, 25.665965177779572 17.865379232433394, 25.192706595147804 18.07487676824742 M25.192706595147804 18.07487676824742 C24.95577313527 18.162070471671345, 24.718839675392193 18.249264175095274, 24.019610251460616 18.506587066708033 M25.192706595147804 18.07487676824742 C24.953986553820844 18.162727950159613, 24.715266512493887 18.250579132071806, 24.019610251460616 18.506587066708033 M24.019610251460616 18.506587066708033 C23.729273919518572 18.592757366021928, 23.43893758757653 18.67892766533582, 22.821264386235413 18.86224982926107 M24.019610251460616 18.506587066708033 C23.556841849325394 18.643934299340856, 23.09407344719017 18.78128153197368, 22.821264386235413 18.86224982926107 M22.821264386235413 18.86224982926107 C22.480823661026673 18.939953203206617, 22.140382935817932 19.01765657715216, 21.602593259676766 19.140403561325773 M22.821264386235413 18.86224982926107 C22.396026780006103 18.9593075379482, 21.97078917377679 19.056365246635327, 21.602593259676766 19.140403561325773 M21.602593259676766 19.140403561325773 C21.332907656504283 19.184004238203613, 21.0632220533318 19.22760491508145, 20.36860465284788 19.3399052695533 M21.602593259676766 19.140403561325773 C21.160606970635342 19.21186047688313, 20.718620681593922 19.28331739244048, 20.36860465284788 19.3399052695533 M20.36860465284788 19.3399052695533 C20.057670534016804 19.369900710043943, 19.74673641518573 19.399896150534587, 19.1243692896239 19.45993515863156 M20.36860465284788 19.3399052695533 C19.986212422219932 19.376794188148036, 19.603820191591986 19.41368310674277, 19.1243692896239 19.45993515863156 M19.1243692896239 19.45993515863156 C18.76338786199123 19.471511130408015, 18.402406434358564 19.48308710218447, 17.875000000000004 19.5 M19.1243692896239 19.45993515863156 C18.847152638397827 19.4688249570669, 18.569935987171753 19.477714755502245, 17.875000000000004 19.5 M17.875000000000004 19.5 C17.875000000000004 19.5, 17.875000000000004 19.5, 17.875 19.5 M17.875000000000004 19.5 C17.875000000000004 19.5, 17.875000000000004 19.5, 17.875 19.5 M17.875 19.5 C4.702884685831732 19.5, -8.469230628336536 19.5, -17.874999999999996 19.5 M17.875 19.5 C5.053311339838553 19.5, -7.7683773203228945 19.5, -17.874999999999996 19.5 M-17.874999999999996 19.5 C-18.248028304105663 19.48803770834288, -18.621056608211333 19.476075416685756, -19.124369289623893 19.45993515863156 M-17.874999999999996 19.5 C-18.291152953233556 19.486654784782385, -18.707305906467113 19.47330956956477, -19.124369289623893 19.45993515863156 M-19.124369289623893 19.45993515863156 C-19.53488272365671 19.42033342136505, -19.94539615768953 19.380731684098542, -20.36860465284787 19.3399052695533 M-19.124369289623893 19.45993515863156 C-19.621973501526057 19.41193187876598, -20.11957771342822 19.3639285989004, -20.36860465284787 19.3399052695533 M-20.36860465284787 19.3399052695533 C-20.85170382071474 19.261801542582585, -21.334802988581604 19.18369781561187, -21.60259325967676 19.140403561325773 M-20.36860465284787 19.3399052695533 C-20.86059902135447 19.260363435526465, -21.35259338986107 19.180821601499627, -21.60259325967676 19.140403561325773 M-21.60259325967676 19.140403561325773 C-22.08182263465076 19.031022583751888, -22.56105200962476 18.921641606178003, -22.821264386235388 18.862249829261074 M-21.60259325967676 19.140403561325773 C-21.997180234400364 19.050341659265758, -22.39176720912397 18.960279757205747, -22.821264386235388 18.862249829261074 M-22.821264386235388 18.862249829261074 C-23.08912344588359 18.782750666378384, -23.356982505531796 18.703251503495693, -24.01961025146059 18.506587066708043 M-22.821264386235388 18.862249829261074 C-23.105003464858616 18.77803756010252, -23.388742543481847 18.69382529094396, -24.01961025146059 18.506587066708043 M-24.01961025146059 18.506587066708043 C-24.294299988663315 18.405498704213347, -24.56898972586604 18.304410341718647, -25.192706595147797 18.074876768247425 M-24.01961025146059 18.506587066708043 C-24.29815847594608 18.40407874522582, -24.576706700431572 18.3015704237436, -25.192706595147797 18.074876768247425 M-25.192706595147797 18.074876768247425 C-25.50206482853018 17.937933055114986, -25.811423061912564 17.800989341982543, -26.33573291279238 17.568892924097174 M-25.192706595147797 18.074876768247425 C-25.554119116406984 17.91489016600751, -25.915531637666167 17.7549035637676, -26.33573291279238 17.568892924097174 M-26.33573291279238 17.568892924097174 C-26.591225109278632 17.43560280884086, -26.846717305764887 17.302312693584543, -27.44399226407678 16.990714730406097 M-26.33573291279238 17.568892924097174 C-26.562569409685096 17.450552468963956, -26.789405906577812 17.332212013830734, -27.44399226407678 16.990714730406097 M-27.44399226407678 16.990714730406097 C-27.73391960673061 16.814959071487163, -28.023846949384435 16.639203412568225, -28.512930573605686 16.3427180453909 M-27.44399226407678 16.990714730406097 C-27.843120262919832 16.74876099197097, -28.24224826176288 16.50680725353584, -28.512930573605686 16.3427180453909 M-28.512930573605686 16.3427180453909 C-28.875804351104946 16.08959300676007, -29.238678128604203 15.836467968129238, -29.538155344578712 15.627565626425156 M-28.512930573605686 16.3427180453909 C-28.904074628617227 16.06987288496809, -29.29521868362877 15.797027724545279, -29.538155344578712 15.627565626425156 M-29.538155344578712 15.627565626425156 C-29.754602422418138 15.454954841746854, -29.971049500257568 15.282344057068553, -30.51545370850187 14.848196188198125 M-29.538155344578712 15.627565626425156 C-29.895956327368715 15.342228864134157, -30.25375731015872 15.056892101843157, -30.51545370850187 14.848196188198125 M-30.51545370850187 14.848196188198125 C-30.7821262208538 14.606011268248135, -31.04879873320573 14.363826348298144, -31.440809736767974 14.007812326905697 M-30.51545370850187 14.848196188198125 C-30.708882516906716 14.672529262250665, -30.90231132531156 14.496862336303204, -31.440809736767974 14.007812326905697 M-31.440809736767974 14.007812326905697 C-31.76544451670485 13.672600263609763, -32.090079296641726 13.33738820031383, -32.310420942968655 13.109867360095677 M-31.440809736767974 14.007812326905697 C-31.77770382940432 13.659941516739268, -32.114597922040666 13.312070706572838, -32.310420942968655 13.109867360095677 M-32.310420942968655 13.109867360095677 C-32.619991289851654 12.746228415595155, -32.929561636734654 12.382589471094633, -33.120713908126575 12.158051136245307 M-32.310420942968655 13.109867360095677 C-32.54068124538324 12.839390506697129, -32.770941547797825 12.568913653298578, -33.120713908126575 12.158051136245307 M-33.120713908126575 12.158051136245307 C-33.32537382377309 11.88382549418085, -33.530033739419615 11.609599852116395, -33.868358964640635 11.156274872382316 M-33.120713908126575 12.158051136245307 C-33.282200578655555 11.941673709474808, -33.44368724918454 11.725296282704306, -33.868358964640635 11.156274872382316 M-33.868358964640635 11.156274872382316 C-34.056257654286846 10.867612027222805, -34.24415634393305 10.578949182063296, -34.55028387860425 10.108655082055249 M-33.868358964640635 11.156274872382316 C-34.009456718726646 10.939510832054127, -34.15055447281265 10.722746791725939, -34.55028387860425 10.108655082055249 M-34.55028387860425 10.108655082055249 C-34.70430522205453 9.835174590407034, -34.85832656550482 9.561694098758819, -35.163686474273504 9.019496659696289 M-34.55028387860425 10.108655082055249 C-34.76694307277815 9.723954743677083, -34.98360226695205 9.339254405298917, -35.163686474273504 9.019496659696289 M-35.163686474273504 9.019496659696289 C-35.35422350869053 8.62384243088989, -35.54476054310756 8.228188202083492, -35.70604614880834 7.893275190886686 M-35.163686474273504 9.019496659696289 C-35.2955333635491 8.745713773044015, -35.42738025282469 8.47193088639174, -35.70604614880834 7.893275190886686 M-35.70604614880834 7.893275190886686 C-35.819804981423886 7.6122886749488865, -35.93356381403943 7.331302159011086, -36.175134229970325 6.73461856121551 M-35.70604614880834 7.893275190886686 C-35.81905821718146 7.614133197065388, -35.93207028555457 7.33499120324409, -36.175134229970325 6.73461856121551 M-36.175134229970325 6.73461856121551 C-36.32078809333593 6.295932331549888, -36.46644195670154 5.857246101884266, -36.56902313421488 5.5482879393051325 M-36.175134229970325 6.73461856121551 C-36.26233955630231 6.4719700125854525, -36.349544882634284 6.209321463955396, -36.56902313421488 5.5482879393051325 M-36.56902313421488 5.5482879393051325 C-36.69277875524882 5.0763541202772835, -36.81653437628276 4.604420301249435, -36.88609428754556 4.339158212148136 M-36.56902313421488 5.5482879393051325 C-36.68976534536552 5.087845558182407, -36.810507556516164 4.62740317705968, -36.88609428754556 4.339158212148136 M-36.88609428754556 4.339158212148136 C-36.980173163677556 3.856083066787857, -37.074252039809544 3.3730079214275777, -37.125044776581774 3.112197953150904 M-36.88609428754556 4.339158212148136 C-36.95189923764074 4.001263701290515, -37.017704187735916 3.663369190432894, -37.125044776581774 3.112197953150904 M-37.125044776581774 3.112197953150904 C-37.15999122030912 2.841160236557502, -37.19493766403646 2.5701225199640994, -37.28489270250937 1.872449005199809 M-37.125044776581774 3.112197953150904 C-37.185057050318996 2.646754608808908, -37.24506932405621 2.1813112644669115, -37.28489270250937 1.872449005199809 M-37.28489270250937 1.872449005199809 C-37.30713842641262 1.5259538989814883, -37.329384150315875 1.1794587927631677, -37.36498121591342 0.6250057626472781 M-37.28489270250937 1.872449005199809 C-37.31597966649976 1.3882444481038316, -37.34706663049014 0.9040398910078542, -37.36498121591342 0.6250057626472781 M-37.36498121591342 0.6250057626472781 C-37.36498121591342 0.20669746550054474, -37.36498121591342 -0.21161083164618866, -37.36498121591342 -0.6250057626472687 M-37.36498121591342 0.6250057626472781 C-37.36498121591342 0.20277575840462336, -37.36498121591342 -0.21945424583803141, -37.36498121591342 -0.6250057626472687 M-37.36498121591342 -0.6250057626472687 C-37.33766774998567 -1.0504350415048176, -37.31035428405792 -1.4758643203623665, -37.28489270250937 -1.8724490051997822 M-37.36498121591342 -0.6250057626472687 C-37.33883898323156 -1.032192138297614, -37.3126967505497 -1.4393785139479591, -37.28489270250937 -1.8724490051997822 M-37.28489270250937 -1.8724490051997822 C-37.25254639440784 -2.1233205833342366, -37.220200086306306 -2.374192161468691, -37.125044776581774 -3.112197953150895 M-37.28489270250937 -1.8724490051997822 C-37.227950559266006 -2.314081023697277, -37.171008416022644 -2.755713042194772, -37.125044776581774 -3.112197953150895 M-37.125044776581774 -3.112197953150895 C-37.053843203461994 -3.4778029826631776, -36.98264163034221 -3.8434080121754604, -36.88609428754556 -4.339158212148126 M-37.125044776581774 -3.112197953150895 C-37.0759845340667 -3.364111929579881, -37.02692429155162 -3.6160259060088666, -36.88609428754556 -4.339158212148126 M-36.88609428754556 -4.339158212148126 C-36.779710121715546 -4.744847143647104, -36.67332595588553 -5.150536075146081, -36.56902313421489 -5.548287939305123 M-36.88609428754556 -4.339158212148126 C-36.7941686775369 -4.68971040392255, -36.702243067528244 -5.040262595696975, -36.56902313421489 -5.548287939305123 M-36.56902313421489 -5.548287939305123 C-36.44960727792604 -5.907949472114248, -36.330191421637196 -6.267611004923372, -36.17513422997033 -6.734618561215485 M-36.56902313421489 -5.548287939305123 C-36.48974420867184 -5.787063431659382, -36.41046528312879 -6.025838924013642, -36.17513422997033 -6.734618561215485 M-36.17513422997033 -6.734618561215485 C-36.02174766084677 -7.113486352478244, -35.868361091723216 -7.492354143741002, -35.70604614880834 -7.893275190886676 M-36.17513422997033 -6.734618561215485 C-36.02409099982857 -7.107698259887818, -35.87304776968682 -7.480777958560151, -35.70604614880834 -7.893275190886676 M-35.70604614880834 -7.893275190886676 C-35.55089289224369 -8.21545424789106, -35.395739635679035 -8.537633304895444, -35.163686474273504 -9.019496659696282 M-35.70604614880834 -7.893275190886676 C-35.51430731109306 -8.291424989956358, -35.32256847337779 -8.68957478902604, -35.163686474273504 -9.019496659696282 M-35.163686474273504 -9.019496659696282 C-35.015177090747606 -9.283190108352281, -34.86666770722171 -9.54688355700828, -34.55028387860425 -10.108655082055243 M-35.163686474273504 -9.019496659696282 C-34.99325756987188 -9.322110437259305, -34.82282866547026 -9.624724214822326, -34.55028387860425 -10.108655082055243 M-34.55028387860425 -10.108655082055243 C-34.38041975632901 -10.369611988773528, -34.210555634053776 -10.63056889549181, -33.86835896464064 -11.156274872382308 M-34.55028387860425 -10.108655082055243 C-34.32968414541446 -10.447555511557406, -34.109084412224675 -10.786455941059568, -33.86835896464064 -11.156274872382308 M-33.86835896464064 -11.156274872382308 C-33.664588982425116 -11.429308084723843, -33.46081900020959 -11.702341297065376, -33.12071390812659 -12.158051136245302 M-33.86835896464064 -11.156274872382308 C-33.59336679818957 -11.524739323125006, -33.3183746317385 -11.893203773867704, -33.12071390812659 -12.158051136245302 M-33.12071390812659 -12.158051136245302 C-32.89663597164338 -12.421265830834269, -32.672558035160165 -12.684480525423236, -32.31042094296866 -13.10986736009567 M-33.12071390812659 -12.158051136245302 C-32.79921790755283 -12.53569863215991, -32.47772190697906 -12.913346128074519, -32.31042094296866 -13.10986736009567 M-32.31042094296866 -13.10986736009567 C-31.98160381245814 -13.449398043736265, -31.652786681947614 -13.78892872737686, -31.440809736767996 -14.007812326905677 M-32.31042094296866 -13.10986736009567 C-32.126084288978305 -13.300210089661467, -31.941747634987944 -13.490552819227265, -31.440809736767996 -14.007812326905677 M-31.440809736767996 -14.007812326905677 C-31.160199868278227 -14.262654784937817, -30.879589999788458 -14.517497242969958, -30.515453708501887 -14.848196188198107 M-31.440809736767996 -14.007812326905677 C-31.19665821182424 -14.229544281964237, -30.952506686880483 -14.451276237022798, -30.515453708501887 -14.848196188198107 M-30.515453708501887 -14.848196188198107 C-30.316408177727144 -15.00692970216694, -30.1173626469524 -15.165663216135771, -29.53815534457872 -15.627565626425149 M-30.515453708501887 -14.848196188198107 C-30.18371976074443 -15.112745183723588, -29.85198581298697 -15.377294179249066, -29.53815534457872 -15.627565626425149 M-29.53815534457872 -15.627565626425149 C-29.18801888092298 -15.871805666308173, -28.837882417267238 -16.116045706191198, -28.51293057360571 -16.342718045390885 M-29.53815534457872 -15.627565626425149 C-29.241800552984802 -15.834289900048905, -28.945445761390882 -16.04101417367266, -28.51293057360571 -16.342718045390885 M-28.51293057360571 -16.342718045390885 C-28.255925505854503 -16.49851602779109, -27.998920438103298 -16.654314010191293, -27.44399226407679 -16.99071473040609 M-28.51293057360571 -16.342718045390885 C-28.14629320811875 -16.5649757709494, -27.779655842631787 -16.78723349650791, -27.44399226407679 -16.99071473040609 M-27.44399226407679 -16.99071473040609 C-27.120267736292018 -17.15960160919595, -26.796543208507245 -17.328488487985812, -26.335732912792388 -17.56889292409717 M-27.44399226407679 -16.99071473040609 C-27.139482894120743 -17.149577073664602, -26.834973524164692 -17.30843941692311, -26.335732912792388 -17.56889292409717 M-26.335732912792388 -17.56889292409717 C-26.096795810745846 -17.674663291355873, -25.857858708699307 -17.780433658614573, -25.192706595147804 -18.07487676824742 M-26.335732912792388 -17.56889292409717 C-26.101106325543583 -17.67275515432179, -25.866479738294778 -17.776617384546416, -25.192706595147804 -18.07487676824742 M-25.192706595147804 -18.07487676824742 C-24.83778589161963 -18.205490867996808, -24.482865188091456 -18.336104967746195, -24.01961025146062 -18.506587066708033 M-25.192706595147804 -18.07487676824742 C-24.75093225730964 -18.23745380828908, -24.309157919471474 -18.400030848330736, -24.01961025146062 -18.506587066708033 M-24.01961025146062 -18.506587066708033 C-23.647807767472212 -18.61693609232473, -23.2760052834838 -18.727285117941424, -22.821264386235413 -18.862249829261067 M-24.01961025146062 -18.506587066708033 C-23.672397226736003 -18.60963806988794, -23.325184202011386 -18.71268907306785, -22.821264386235413 -18.862249829261067 M-22.821264386235413 -18.862249829261067 C-22.3668722046696 -18.96596187951737, -21.912480023103786 -19.06967392977367, -21.602593259676766 -19.140403561325773 M-22.821264386235413 -18.862249829261067 C-22.358567917460782 -18.967857278882242, -21.89587144868615 -19.073464728503417, -21.602593259676766 -19.140403561325773 M-21.602593259676766 -19.140403561325773 C-21.15351918751082 -19.21300637469212, -20.704445115344875 -19.28560918805847, -20.368604652847882 -19.3399052695533 M-21.602593259676766 -19.140403561325773 C-21.267834182353635 -19.19452481285196, -20.933075105030504 -19.248646064378146, -20.368604652847882 -19.3399052695533 M-20.368604652847882 -19.3399052695533 C-19.940665104853217 -19.381188083075738, -19.512725556858552 -19.422470896598178, -19.124369289623903 -19.45993515863156 M-20.368604652847882 -19.3399052695533 C-20.01652920451712 -19.373869564621092, -19.664453756186358 -19.407833859688882, -19.124369289623903 -19.45993515863156 M-19.124369289623903 -19.45993515863156 C-18.6517856294378 -19.475089996785435, -18.179201969251697 -19.49024483493931, -17.875000000000007 -19.5 M-19.124369289623903 -19.45993515863156 C-18.78482774069785 -19.470823595228087, -18.4452861917718 -19.48171203182461, -17.875000000000007 -19.5 M-17.875000000000007 -19.5 C-17.875000000000004 -19.5, -17.875000000000004 -19.5, -17.875 -19.5 M-17.875000000000007 -19.5 C-17.875000000000007 -19.5, -17.875000000000004 -19.5, -17.875 -19.5" stroke="#89b4fa" stroke-width="1.3" fill="none" stroke-dasharray="0 0" style="fill:#89b4fa !important;stroke:#89b4fa !important"/></g><g class="label" style="color:#1e1e2e !important;font-weight:bold !important" transform="translate(-25, -12)"><rect/><foreignObject width="50" height="24"><div style="color: rgb(30, 30, 46) !important; font-weight: bold !important; display: table-cell; white-space: nowrap; line-height: 1.5; max-width: 200px; text-align: center;" xmlns="http://www.w3.org/1999/xhtml"><span style="color:#1e1e2e !important;font-weight:bold !important" class="nodeLabel "><p>alice</p></span></div></foreignObject></g></g><g class="node default ctx_user_c " id="my-svg-flowchart-ctx_user-1" data-look="classic" transform="translate(221.72996520996094, 39)"><rect class="basic label-container" style="fill:#f38ba8 !important;stroke:#f38ba8 !important;stroke-width:2px !important" x="-100" y="-27" width="200" height="54"/><g class="label" style="color:#1e1e2e !important" transform="translate(-70, -12)"><rect/><foreignObject width="140" height="24"><div style="color: rgb(30, 30, 46) !important; display: table-cell; white-space: nowrap; line-height: 1.5; max-width: 200px; text-align: center;" xmlns="http://www.w3.org/1999/xhtml"><span style="color:#1e1e2e !important" class="nodeLabel "><p>user · context</p></span></div></foreignObject></g></g><g class="node default ctx_default_c " id="my-svg-flowchart-ctx_default-2" data-look="classic" transform="translate(236.72996520996094, 128)"><rect class="basic label-container" style="fill:#f38ba8 !important;stroke:#f38ba8 !important;stroke-width:2px !important" x="-115" y="-27" width="230" height="54"/><g class="label" style="color:#1e1e2e !important" transform="translate(-85, -12)"><rect/><foreignObject width="170" height="24"><div style="color: rgb(30, 30, 46) !important; display: table-cell; white-space: nowrap; line-height: 1.5; max-width: 200px; text-align: center;" xmlns="http://www.w3.org/1999/xhtml"><span style="color:#1e1e2e !important" class="nodeLabel "><p>default · context</p></span></div></foreignObject></g></g></g><g class="edges edgePaths"><path d="M86.73,39L117.73,39" id="my-svg-L_alice_ctx_user_0_0" class=" edge-thickness-normal edge-pattern-solid edge-thickness-normal edge-pattern-solid flowchart-link" style=";" data-edge="true" data-et="edge" data-id="L_alice_ctx_user_0_0" data-points="W3sieCI6ODYuNzI5OTY1MjA5OTYwOTQsInkiOjM5fSx7IngiOjEyMS43Mjk5NjUyMDk5NjA5NCwieSI6Mzl9XQ==" data-look="classic" marker-end="url(#my-svg_flowchart-v2-pointEnd)"/><path d="M86.73,39L88.813,39C90.897,39,95.063,39,97.618,39.362C100.173,39.724,101.116,40.448,101.949,41.281C102.782,42.114,103.506,43.057,103.868,56.695C104.23,70.333,104.23,96.667,104.592,110.305C104.954,123.943,105.678,124.886,106.511,125.719C107.344,126.552,108.287,127.276,110.175,127.638C112.063,128,114.897,128,116.313,128L117.73,128" id="my-svg-L_alice_ctx_default_0_0" class=" edge-thickness-normal edge-pattern-solid edge-thickness-normal edge-pattern-solid flowchart-link" style=";" data-edge="true" data-et="edge" data-id="L_alice_ctx_default_0_0" data-points="W3sieCI6ODYuNzI5OTY1MjA5OTYwOTQsInkiOjM5fSx7IngiOjEwNC4yMjk5NjUyMDk5NjA5NCwieSI6Mzl9LHsieCI6MTA0LjIyOTk2NTIwOTk2MDk0LCJ5IjoxMjh9LHsieCI6MTIxLjcyOTk2NTIwOTk2MDk0LCJ5IjoxMjh9XQ==" data-look="classic" marker-end="url(#my-svg_flowchart-v2-pointEnd)"/></g><g class="edgeLabels"><g class="edgeLabel"><g class="label" data-id="L_alice_ctx_user_0_0" transform="translate(0, 0)"><foreignObject width="0" height="0"><div xmlns="http://www.w3.org/1999/xhtml" class="labelBkg" style="display: table-cell; white-space: nowrap; line-height: 1.5; max-width: 200px; text-align: center;"><span class="edgeLabel "></span></div></foreignObject></g></g><g class="edgeLabel"><g class="label" data-id="L_alice_ctx_default_0_0" transform="translate(0, 0)"><foreignObject width="0" height="0"><div xmlns="http://www.w3.org/1999/xhtml" class="labelBkg" style="display: table-cell; white-space: nowrap; line-height: 1.5; max-width: 200px; text-align: center;"><span class="edgeLabel "></span></div></foreignObject></g></g></g></svg>