<?xml version="1.0" encoding="UTF-8" standalone="no"?>
<!DOCTYPE svg PUBLIC "-//W3C//DTD SVG 1.1//EN"
 "http://www.w3.org/Graphics/SVG/1.1/DTD/svg11.dtd">
<!-- Generated by graphviz version 12.2.1 (0)
 -->
<!-- Pages: 1 -->
<svg width="2161pt" height="1370pt"
 viewBox="0.00 0.00 2161.40 1370.00" xmlns="http://www.w3.org/2000/svg" xmlns:xlink="http://www.w3.org/1999/xlink">
<g id="graph0" class="graph" transform="scale(1 1) rotate(0) translate(4 1366)">
<polygon fill="#1e1e2e" stroke="none" points="-4,4 -4,-1366 2157.4,-1366 2157.4,4 -4,4"/>
<g id="clust1" class="cluster">
<title>cluster_ctx_host</title>
<polygon fill="#313244" stroke="#6c7086" stroke-dasharray="5,2" points="149,-430 149,-759 1111.27,-759 1111.27,-430 149,-430"/>
<text text-anchor="middle" x="630.13" y="-741.7" font-family="Times,serif" font-size="14.00" fill="#cdd6f4">host</text>
</g>
<g id="clust2" class="cluster">
<title>cluster_ctx_default</title>
<polygon fill="#313244" stroke="#6c7086" stroke-dasharray="5,2" points="546.46,-767 546.46,-1026 2145.4,-1026 2145.4,-767 546.46,-767"/>
<text text-anchor="middle" x="1345.93" y="-1008.7" font-family="Times,serif" font-size="14.00" fill="#cdd6f4">default</text>
</g>
<g id="clust3" class="cluster">
<title>cluster_ctx_hm_host</title>
<polygon fill="#313244" stroke="#6c7086" stroke-dasharray="5,2" points="538.96,-8 538.96,-211 1119.89,-211 1119.89,-8 538.96,-8"/>
<text text-anchor="middle" x="829.43" y="-193.7" font-family="Times,serif" font-size="14.00" fill="#cdd6f4">hm&#45;host</text>
</g>
<g id="clust4" class="cluster">
<title>cluster_ctx_hm_user</title>
<polygon fill="#313244" stroke="#6c7086" stroke-dasharray="5,2" points="532.21,-219 532.21,-422 1120.64,-422 1120.64,-219 532.21,-219"/>
<text text-anchor="middle" x="826.43" y="-404.7" font-family="Times,serif" font-size="14.00" fill="#cdd6f4">hm&#45;user</text>
</g>
<g id="clust5" class="cluster">
<title>cluster_ctx_user</title>
<polygon fill="#313244" stroke="#6c7086" stroke-dasharray="5,2" points="559.21,-1041 559.21,-1354 1681.99,-1354 1681.99,-1041 559.21,-1041"/>
<text text-anchor="middle" x="1120.6" y="-1336.7" font-family="Times,serif" font-size="14.00" fill="#cdd6f4">user</text>
</g>
<!-- angle_brackets -->
<g id="node1" class="node">
<title>angle_brackets</title>
<path fill="#89b4fa" stroke="#89b4fa" d="M109,-618C109,-618 12,-618 12,-618 6,-618 0,-612 0,-606 0,-606 0,-594 0,-594 0,-588 6,-582 12,-582 12,-582 109,-582 109,-582 115,-582 121,-588 121,-594 121,-594 121,-606 121,-606 121,-612 115,-618 109,-618"/>
<text text-anchor="middle" x="60.5" y="-595.33" font-family="Times,serif" font-size="14.00" fill="#1e1e2e">angle&#45;brackets</text>
</g>
<!-- angle_brackets&#45;&gt;angle_brackets -->
<g id="edge10" class="edge">
<title>angle_brackets&#45;&gt;angle_brackets</title>
<path fill="none" stroke="#a6adc8" d="M11.64,-618.15C4.12,-627.54 20.41,-636 60.5,-636 83.68,-636 98.9,-633.17 106.17,-628.97"/>
<polygon fill="#a6adc8" stroke="#a6adc8" points="109.46,-630.19 108.94,-619.6 102.75,-628.2 109.46,-630.19"/>
</g>
<!-- desktop -->
<g id="node2" class="node">
<title>desktop</title>
<polygon fill="#f2cdcd" stroke="#f2cdcd" points="366.73,-474 294.48,-474 294.48,-438 366.73,-438 366.73,-474"/>
<text text-anchor="middle" x="330.61" y="-451.32" font-family="Times,serif" font-size="14.00" fill="#1e1e2e">desktop</text>
</g>
<!-- angle_brackets&#45;&gt;desktop -->
<g id="edge11" class="edge">
<title>angle_brackets&#45;&gt;desktop</title>
<path fill="none" stroke="#a6adc8" d="M72.69,-581.63C87.37,-559.13 115.27,-521.47 149,-501 190.18,-476 244.65,-464.86 282.96,-459.91"/>
<polygon fill="#a6adc8" stroke="#a6adc8" points="283.28,-463.4 292.79,-458.74 282.45,-456.45 283.28,-463.4"/>
</g>
<!-- host__self_provide_host_ -->
<g id="node6" class="node">
<title>host__self_provide_host_</title>
<polygon fill="#f2cdcd" stroke="#f2cdcd" points="1103.27,-573 927.52,-573 927.52,-537 1103.27,-537 1103.27,-573"/>
<text text-anchor="middle" x="1015.39" y="-550.33" font-family="Times,serif" font-size="14.00" fill="#1e1e2e">host/self&#45;provide(host)</text>
</g>
<!-- angle_brackets&#45;&gt;host__self_provide_host_ -->
<g id="edge12" class="edge">
<title>angle_brackets&#45;&gt;host__self_provide_host_</title>
<path fill="none" stroke="#a6adc8" d="M66.98,-618.21C77.3,-648.87 102.87,-709.92 149,-735 273.05,-802.43 650.47,-748.42 783.46,-701 862.18,-672.94 941.92,-614.35 984,-580.55"/>
<polygon fill="#a6adc8" stroke="#a6adc8" points="986.15,-583.3 991.71,-574.28 981.74,-577.87 986.15,-583.3"/>
</g>
<!-- networking -->
<g id="node7" class="node">
<title>networking</title>
<polygon fill="#89b4fa" stroke="#89b4fa" points="710.34,-474 613.34,-474 613.34,-438 710.34,-438 710.34,-474"/>
<text text-anchor="middle" x="661.84" y="-451.32" font-family="Times,serif" font-size="14.00" fill="#1e1e2e">networking</text>
</g>
<!-- angle_brackets&#45;&gt;networking -->
<g id="edge13" class="edge">
<title>angle_brackets&#45;&gt;networking</title>
<path fill="none" stroke="#a6adc8" d="M64.53,-581.56C71.68,-544.8 93.38,-463.02 149,-429 223.38,-383.51 483.83,-423.49 601.88,-444.74"/>
<polygon fill="#a6adc8" stroke="#a6adc8" points="601.24,-448.18 611.7,-446.53 602.49,-441.29 601.24,-448.18"/>
</g>
<!-- primary_user -->
<g id="node8" class="node">
<title>primary_user</title>
<polygon fill="#89b4fa" stroke="#89b4fa" points="385.11,-618 276.11,-618 276.11,-582 385.11,-582 385.11,-618"/>
<text text-anchor="middle" x="330.61" y="-595.33" font-family="Times,serif" font-size="14.00" fill="#1e1e2e">primary&#45;user</text>
</g>
<!-- angle_brackets&#45;&gt;primary_user -->
<g id="edge14" class="edge">
<title>angle_brackets&#45;&gt;primary_user</title>
<path fill="none" stroke="#a6adc8" d="M121.33,-600C163.84,-600 220.87,-600 264.51,-600"/>
<polygon fill="#a6adc8" stroke="#a6adc8" points="264.35,-603.5 274.35,-600 264.35,-596.5 264.35,-603.5"/>
</g>
<!-- den__provides__primary_user -->
<g id="node9" class="node">
<title>den__provides__primary_user</title>
<polygon fill="#89b4fa" stroke="#89b4fa" points="432,-672 229.22,-672 157,-636 504.21,-636 432,-672"/>
<text text-anchor="middle" x="330.61" y="-649.33" font-family="Times,serif" font-size="14.00" fill="#1e1e2e">provides/primary&#45;user</text>
</g>
<!-- angle_brackets&#45;&gt;den__provides__primary_user -->
<g id="edge15" class="edge">
<title>angle_brackets&#45;&gt;den__provides__primary_user</title>
<path fill="none" stroke="#a6adc8" d="M116.7,-618.41C127.34,-621.57 138.46,-624.6 149,-627 159.21,-629.32 169.79,-631.5 180.48,-633.52"/>
<polygon fill="#a6adc8" stroke="#a6adc8" points="179.69,-636.94 190.15,-635.3 180.95,-630.05 179.69,-636.94"/>
</g>
<!-- tailscale -->
<g id="node11" class="node">
<title>tailscale</title>
<polygon fill="#f2cdcd" stroke="#f38ba8" stroke-dasharray="5,2" points="368.23,-726 292.98,-726 292.98,-690 368.23,-690 368.23,-726"/>
<text text-anchor="middle" x="330.61" y="-703.33" font-family="Times,serif" font-size="14.00" fill="#1e1e2e">tailscale</text>
</g>
<!-- angle_brackets&#45;&gt;tailscale -->
<g id="edge16" class="edge">
<title>angle_brackets&#45;&gt;tailscale</title>
<path fill="none" stroke="#f38ba8" stroke-dasharray="5,2" d="M75.42,-618.17C91.09,-637.2 118.4,-666.31 149,-681 190.83,-701.08 243.86,-707.03 281.62,-708.44"/>
<polygon fill="#f38ba8" stroke="#f38ba8" points="281.21,-711.93 291.3,-708.7 281.4,-704.93 281.21,-711.93"/>
</g>
<!-- desktop&#45;&gt;desktop -->
<g id="edge34" class="edge">
<title>desktop&#45;&gt;desktop</title>
<path fill="none" stroke="#a6adc8" d="M294.26,-465.95C266.79,-477.93 278.91,-492 330.61,-492 374.23,-492 389.67,-481.98 376.93,-471.66"/>
<polygon fill="#a6adc8" stroke="#a6adc8" points="378.69,-468.63 368.27,-466.7 375.21,-474.71 378.69,-468.63"/>
</g>
<!-- desktop&#45;&gt;host__self_provide_host_ -->
<g id="edge35" class="edge">
<title>desktop&#45;&gt;host__self_provide_host_</title>
<path fill="none" stroke="#a6adc8" d="M367.07,-456.14C405.38,-458.15 466.05,-467.02 504.21,-501 529.86,-523.83 503.88,-553.61 532.21,-573 562.97,-594.04 783.93,-577.13 915.82,-564.87"/>
<polygon fill="#a6adc8" stroke="#a6adc8" points="915.98,-568.37 925.61,-563.95 915.32,-561.4 915.98,-568.37"/>
</g>
<!-- regreet -->
<g id="node10" class="node">
<title>regreet</title>
<polygon fill="#89b4fa" stroke="#89b4fa" points="696.46,-546 627.21,-546 627.21,-510 696.46,-510 696.46,-546"/>
<text text-anchor="middle" x="661.84" y="-523.33" font-family="Times,serif" font-size="14.00" fill="#1e1e2e">regreet</text>
</g>
<!-- desktop&#45;&gt;regreet -->
<g id="edge36" class="edge">
<title>desktop&#45;&gt;regreet</title>
<path fill="none" stroke="#a6adc8" d="M367.09,-464.11C407.15,-473.24 474.31,-488.43 532.21,-501 559.93,-507.02 591.06,-513.56 615.75,-518.69"/>
<polygon fill="#a6adc8" stroke="#a6adc8" points="614.98,-522.11 625.48,-520.71 616.4,-515.25 614.98,-522.11"/>
</g>
<!-- host -->
<g id="node3" class="node">
<title>host</title>
<polygon fill="#89b4fa" stroke="#89b4fa" points="357.61,-546 303.61,-546 303.61,-510 357.61,-510 357.61,-546"/>
<text text-anchor="middle" x="330.61" y="-523.33" font-family="Times,serif" font-size="14.00" fill="#1e1e2e">host</text>
</g>
<!-- host&#45;&gt;angle_brackets -->
<g id="edge44" class="edge">
<title>host&#45;&gt;angle_brackets</title>
<path fill="none" stroke="#a6adc8" d="M303.17,-534.11C267.87,-542.37 203.47,-557.82 149,-573 142.92,-574.69 136.62,-576.51 130.31,-578.38"/>
<polygon fill="#a6adc8" stroke="#a6adc8" points="129.76,-574.89 121.18,-581.11 131.76,-581.6 129.76,-574.89"/>
</g>
<!-- host&#45;&gt;host -->
<g id="edge55" class="edge">
<title>host&#45;&gt;host</title>
<path fill="none" stroke="#a6adc8" d="M303.36,-534.54C264.81,-547.07 273.9,-564 330.61,-564 381.34,-564 393.96,-550.45 368.46,-538.63"/>
<polygon fill="#a6adc8" stroke="#a6adc8" points="369.86,-535.41 359.27,-535.09 367.34,-541.95 369.86,-535.41"/>
</g>
<!-- host__aspect_host_ -->
<g id="node4" class="node">
<title>host__aspect_host_</title>
<polygon fill="#89b4fa" stroke="#89b4fa" points="731.34,-692 592.34,-692 592.34,-656 731.34,-656 731.34,-692"/>
<text text-anchor="middle" x="661.84" y="-669.33" font-family="Times,serif" font-size="14.00" fill="#1e1e2e">host/aspect(host)</text>
</g>
<!-- host&#45;&gt;host__aspect_host_ -->
<g id="edge56" class="edge">
<title>host&#45;&gt;host__aspect_host_</title>
<path fill="none" stroke="#a6adc8" d="M357.87,-527.71C395.02,-528.71 462.98,-535.95 504.21,-573 530.37,-596.5 505.5,-624.13 532.21,-647 545.92,-658.74 563.44,-665.8 581.1,-669.95"/>
<polygon fill="#a6adc8" stroke="#a6adc8" points="580.1,-673.32 590.6,-671.88 581.49,-666.46 580.1,-673.32"/>
</g>
<!-- host__cross_provide__anon__ -->
<g id="node5" class="node">
<title>host__cross_provide__anon__</title>
<polygon fill="#cba6f7" stroke="#cba6f7" points="769.96,-638 553.71,-638 553.71,-602 769.96,-602 769.96,-638"/>
<text text-anchor="middle" x="661.84" y="-615.33" font-family="Times,serif" font-size="14.00" fill="#1e1e2e">host/cross&#45;provide(&lt;anon&gt;)</text>
</g>
<!-- host&#45;&gt;host__cross_provide__anon__ -->
<g id="edge57" class="edge">
<title>host&#45;&gt;host__cross_provide__anon__</title>
<path fill="none" stroke="#a6adc8" d="M357.95,-532.84C392.33,-539.62 454.04,-553.34 504.21,-573 517.36,-578.15 519.04,-582.92 532.21,-588 542.1,-591.81 552.58,-595.28 563.13,-598.42"/>
<polygon fill="#a6adc8" stroke="#a6adc8" points="562.1,-601.76 572.67,-601.14 564.02,-595.03 562.1,-601.76"/>
</g>
<!-- n_default -->
<g id="node12" class="node">
<title>n_default</title>
<polygon fill="#fab387" stroke="#fab387" points="694.96,-813 628.71,-813 628.71,-777 694.96,-777 694.96,-813"/>
<text text-anchor="middle" x="661.84" y="-790.33" font-family="Times,serif" font-size="14.00" fill="#1e1e2e">default</text>
</g>
<!-- host&#45;&gt;n_default -->
<g id="edge45" class="edge">
<title>host&#45;&gt;n_default</title>
<path fill="none" stroke="#a6adc8" d="M358.05,-526.57C396.39,-526.08 466.9,-531.39 504.21,-573 561.2,-636.55 474.87,-699.77 532.21,-763 553.41,-786.37 588.8,-793.89 617.1,-795.83"/>
<polygon fill="#a6adc8" stroke="#a6adc8" points="616.67,-799.31 626.82,-796.27 616.99,-792.32 616.67,-799.31"/>
</g>
<!-- default__cross_provide_host_ -->
<g id="node15" class="node">
<title>default__cross_provide_host_</title>
<polygon fill="#f9e2af" stroke="#f9e2af" points="765.84,-885 557.84,-885 557.84,-849 765.84,-849 765.84,-885"/>
<text text-anchor="middle" x="661.84" y="-862.33" font-family="Times,serif" font-size="14.00" fill="#1e1e2e">default/cross&#45;provide(host)</text>
</g>
<!-- host&#45;&gt;default__cross_provide_host_ -->
<g id="edge46" class="edge">
<title>host&#45;&gt;default__cross_provide_host_</title>
<path fill="none" stroke="#a6adc8" d="M357.96,-526.38C396.52,-525.6 467.67,-530.5 504.21,-573 582,-663.48 452.27,-751.42 532.21,-840 536.72,-844.99 541.89,-849.19 547.52,-852.72"/>
<polygon fill="#a6adc8" stroke="#a6adc8" points="545.58,-855.65 556.05,-857.31 548.9,-849.49 545.58,-855.65"/>
</g>
<!-- default__cross_provide_user_ -->
<g id="node16" class="node">
<title>default__cross_provide_user_</title>
<polygon fill="#f9e2af" stroke="#f9e2af" points="766.21,-939 557.46,-939 557.46,-903 766.21,-903 766.21,-939"/>
<text text-anchor="middle" x="661.84" y="-916.33" font-family="Times,serif" font-size="14.00" fill="#1e1e2e">default/cross&#45;provide(user)</text>
</g>
<!-- host&#45;&gt;default__cross_provide_user_ -->
<g id="edge47" class="edge">
<title>host&#45;&gt;default__cross_provide_user_</title>
<path fill="none" stroke="#a6adc8" d="M358.06,-526.3C396.74,-525.41 468.05,-530.18 504.21,-573 550.42,-627.7 484.71,-840.43 532.21,-894 536.68,-899.03 541.81,-903.26 547.42,-906.81"/>
<polygon fill="#a6adc8" stroke="#a6adc8" points="545.45,-909.73 555.91,-911.43 548.8,-903.58 545.45,-909.73"/>
</g>
<!-- default__self_provide_default_ -->
<g id="node17" class="node">
<title>default__self_provide_default_</title>
<polygon fill="#fab387" stroke="#fab387" points="769.21,-993 554.46,-993 554.46,-957 769.21,-957 769.21,-993"/>
<text text-anchor="middle" x="661.84" y="-970.33" font-family="Times,serif" font-size="14.00" fill="#1e1e2e">default/self&#45;provide(default)</text>
</g>
<!-- host&#45;&gt;default__self_provide_default_ -->
<g id="edge48" class="edge">
<title>host&#45;&gt;default__self_provide_default_</title>
<path fill="none" stroke="#a6adc8" d="M357.81,-526.25C396.5,-525.26 468.21,-529.84 504.21,-573 557.74,-637.17 477.16,-885.13 532.21,-948 535.87,-952.18 540,-955.81 544.47,-958.95"/>
<polygon fill="#a6adc8" stroke="#a6adc8" points="542.43,-961.81 552.8,-963.97 546.04,-955.81 542.43,-961.81"/>
</g>
<!-- hm_host -->
<g id="node22" class="node">
<title>hm_host</title>
<polygon fill="#cba6f7" stroke="#cba6f7" points="698.71,-52 624.96,-52 624.96,-16 698.71,-16 698.71,-52"/>
<text text-anchor="middle" x="661.84" y="-29.32" font-family="Times,serif" font-size="14.00" fill="#1e1e2e">hm&#45;host</text>
</g>
<!-- host&#45;&gt;hm_host -->
<g id="edge49" class="edge">
<title>host&#45;&gt;hm_host</title>
<path fill="none" stroke="#a6adc8" d="M357.83,-532.84C396.22,-538.23 467.16,-541.51 504.21,-501 567.65,-431.66 475.32,-153.8 532.21,-79 551.22,-54.01 585.09,-42.84 613.3,-37.87"/>
<polygon fill="#a6adc8" stroke="#a6adc8" points="613.73,-41.34 623.09,-36.38 612.68,-34.42 613.73,-41.34"/>
</g>
<!-- hm_host__cross_provide_host_ -->
<g id="node24" class="node">
<title>hm_host__cross_provide_host_</title>
<polygon fill="#f2cdcd" stroke="#f2cdcd" points="769.59,-124 554.09,-124 554.09,-88 769.59,-88 769.59,-124"/>
<text text-anchor="middle" x="661.84" y="-101.33" font-family="Times,serif" font-size="14.00" fill="#1e1e2e">hm&#45;host/cross&#45;provide(host)</text>
</g>
<!-- host&#45;&gt;hm_host__cross_provide_host_ -->
<g id="edge50" class="edge">
<title>host&#45;&gt;hm_host__cross_provide_host_</title>
<path fill="none" stroke="#a6adc8" d="M358.1,-532.83C396.49,-538.14 467.07,-541.22 504.21,-501 559.87,-440.76 478.14,-194.66 532.21,-133 535.83,-128.87 539.91,-125.29 544.32,-122.17"/>
<polygon fill="#a6adc8" stroke="#a6adc8" points="545.78,-125.38 552.51,-117.2 542.15,-119.39 545.78,-125.38"/>
</g>
<!-- hm_host__self_provide_hm_host_ -->
<g id="node25" class="node">
<title>hm_host__self_provide_hm_host_</title>
<polygon fill="#cba6f7" stroke="#cba6f7" points="776.71,-178 546.96,-178 546.96,-142 776.71,-142 776.71,-178"/>
<text text-anchor="middle" x="661.84" y="-155.32" font-family="Times,serif" font-size="14.00" fill="#1e1e2e">hm&#45;host/self&#45;provide(hm&#45;host)</text>
</g>
<!-- host&#45;&gt;hm_host__self_provide_hm_host_ -->
<g id="edge51" class="edge">
<title>host&#45;&gt;hm_host__self_provide_hm_host_</title>
<path fill="none" stroke="#a6adc8" d="M357.99,-532.73C396.24,-537.9 466.63,-540.81 504.21,-501 548.05,-454.56 494.48,-266.52 532.21,-215 542.28,-201.26 556.48,-190.92 571.8,-183.15"/>
<polygon fill="#a6adc8" stroke="#a6adc8" points="573.04,-186.43 580.63,-179.04 570.09,-180.09 573.04,-186.43"/>
</g>
<!-- hm_user -->
<g id="node26" class="node">
<title>hm_user</title>
<polygon fill="#fab387" stroke="#fab387" points="699.09,-263 624.59,-263 624.59,-227 699.09,-227 699.09,-263"/>
<text text-anchor="middle" x="661.84" y="-240.32" font-family="Times,serif" font-size="14.00" fill="#1e1e2e">hm&#45;user</text>
</g>
<!-- host&#45;&gt;hm_user -->
<g id="edge52" class="edge">
<title>host&#45;&gt;hm_user</title>
<path fill="none" stroke="#a6adc8" d="M357.81,-532.56C395.84,-537.52 465.95,-540.16 504.21,-501 570.33,-433.34 472.5,-363.37 532.21,-290 551.84,-265.89 585.2,-254.67 613.03,-249.47"/>
<polygon fill="#a6adc8" stroke="#a6adc8" points="613.37,-252.96 622.68,-247.89 612.24,-246.05 613.37,-252.96"/>
</g>
<!-- hm_user__cross_provide_hm_host_ -->
<g id="node28" class="node">
<title>hm_user__cross_provide_hm_host_</title>
<polygon fill="#a6e3a1" stroke="#a6e3a1" points="783.46,-335 540.21,-335 540.21,-299 783.46,-299 783.46,-335"/>
<text text-anchor="middle" x="661.84" y="-312.32" font-family="Times,serif" font-size="14.00" fill="#1e1e2e">hm&#45;user/cross&#45;provide(hm&#45;host)</text>
</g>
<!-- host&#45;&gt;hm_user__cross_provide_hm_host_ -->
<g id="edge53" class="edge">
<title>host&#45;&gt;hm_user__cross_provide_hm_host_</title>
<path fill="none" stroke="#a6adc8" d="M357.9,-532.37C395.72,-537.02 465.2,-539.19 504.21,-501 554.87,-451.42 482.86,-394.88 532.21,-344 532.7,-343.5 533.19,-343.01 533.69,-342.53"/>
<polygon fill="#a6adc8" stroke="#a6adc8" points="535.66,-345.43 541.11,-336.35 531.19,-340.06 535.66,-345.43"/>
</g>
<!-- hm_user__self_provide_hm_user_ -->
<g id="node29" class="node">
<title>hm_user__self_provide_hm_user_</title>
<polygon fill="#fab387" stroke="#fab387" points="777.46,-389 546.21,-389 546.21,-353 777.46,-353 777.46,-389"/>
<text text-anchor="middle" x="661.84" y="-366.32" font-family="Times,serif" font-size="14.00" fill="#1e1e2e">hm&#45;user/self&#45;provide(hm&#45;user)</text>
</g>
<!-- host&#45;&gt;hm_user__self_provide_hm_user_ -->
<g id="edge54" class="edge">
<title>host&#45;&gt;hm_user__self_provide_hm_user_</title>
<path fill="none" stroke="#a6adc8" d="M357.95,-531.48C394.9,-534.85 462.26,-535.23 504.21,-501 531.78,-478.51 507.65,-451.74 532.21,-426 545.32,-412.27 562.41,-401.79 579.84,-393.87"/>
<polygon fill="#a6adc8" stroke="#a6adc8" points="580.89,-397.23 588.71,-390.08 578.14,-390.79 580.89,-397.23"/>
</g>
<!-- alice -->
<g id="node30" class="node">
<title>alice</title>
<polygon fill="#f2cdcd" stroke="#f2cdcd" points="688.84,-1211 634.84,-1211 634.84,-1175 688.84,-1175 688.84,-1211"/>
<text text-anchor="middle" x="661.84" y="-1188.33" font-family="Times,serif" font-size="14.00" fill="#1e1e2e">alice</text>
</g>
<!-- host&#45;&gt;alice -->
<g id="edge43" class="edge">
<title>host&#45;&gt;alice</title>
<path fill="none" stroke="#a6adc8" d="M357.96,-526.12C396.84,-524.97 468.81,-529.35 504.21,-573 545.77,-624.23 489.44,-1115.79 532.21,-1166 554.16,-1191.76 593.85,-1196.74 623.36,-1196.36"/>
<polygon fill="#a6adc8" stroke="#a6adc8" points="623.12,-1199.87 632.99,-1196.02 622.87,-1192.88 623.12,-1199.87"/>
</g>
<!-- user -->
<g id="node34" class="node">
<title>user</title>
<polygon fill="#f2cdcd" stroke="#f2cdcd" points="688.84,-1085 634.84,-1085 634.84,-1049 688.84,-1049 688.84,-1085"/>
<text text-anchor="middle" x="661.84" y="-1062.33" font-family="Times,serif" font-size="14.00" fill="#1e1e2e">user</text>
</g>
<!-- host&#45;&gt;user -->
<g id="edge58" class="edge">
<title>host&#45;&gt;user</title>
<path fill="none" stroke="#a6adc8" d="M357.88,-526.19C396.67,-525.12 468.5,-529.6 504.21,-573 568.86,-651.57 468.56,-950.63 532.21,-1030 553.78,-1056.88 593.53,-1065.04 623.15,-1067.14"/>
<polygon fill="#a6adc8" stroke="#a6adc8" points="622.68,-1070.62 632.84,-1067.61 623.02,-1063.63 622.68,-1070.62"/>
</g>
<!-- user__cross_provide_host_ -->
<g id="node36" class="node">
<title>user__cross_provide_host_</title>
<polygon fill="#f38ba8" stroke="#f38ba8" points="756.46,-1157 567.21,-1157 567.21,-1121 756.46,-1121 756.46,-1157"/>
<text text-anchor="middle" x="661.84" y="-1134.33" font-family="Times,serif" font-size="14.00" fill="#1e1e2e">user/cross&#45;provide(host)</text>
</g>
<!-- host&#45;&gt;user__cross_provide_host_ -->
<g id="edge59" class="edge">
<title>host&#45;&gt;user__cross_provide_host_</title>
<path fill="none" stroke="#a6adc8" d="M357.93,-526.15C396.78,-525.02 468.7,-529.43 504.21,-573 579.99,-665.97 454.23,-1020.88 532.21,-1112 538.84,-1119.75 547.08,-1125.61 556.15,-1130.01"/>
<polygon fill="#a6adc8" stroke="#a6adc8" points="554.74,-1133.22 565.32,-1133.81 557.42,-1126.75 554.74,-1133.22"/>
</g>
<!-- networking&#45;&gt;host__self_provide_host_ -->
<g id="edge62" class="edge">
<title>networking&#45;&gt;host__self_provide_host_</title>
<path fill="none" stroke="#a6adc8" d="M710.62,-469.45C769.07,-485.91 868.76,-513.99 937.92,-533.47"/>
<polygon fill="#a6adc8" stroke="#a6adc8" points="936.72,-536.76 947.3,-536.1 938.62,-530.02 936.72,-536.76"/>
</g>
<!-- networking&#45;&gt;networking -->
<g id="edge63" class="edge">
<title>networking&#45;&gt;networking</title>
<path fill="none" stroke="#a6adc8" d="M612.93,-467.61C585.05,-479.19 601.35,-492 661.84,-492 712.88,-492 732.46,-482.88 720.58,-473.08"/>
<polygon fill="#a6adc8" stroke="#a6adc8" points="722.51,-470.15 712.07,-468.35 719.11,-476.27 722.51,-470.15"/>
</g>
<!-- regreet&#45;&gt;host__self_provide_host_ -->
<g id="edge64" class="edge">
<title>regreet&#45;&gt;host__self_provide_host_</title>
<path fill="none" stroke="#a6adc8" d="M696.87,-530.61C747.02,-534.47 842.77,-541.82 916.06,-547.45"/>
<polygon fill="#a6adc8" stroke="#a6adc8" points="915.41,-550.91 925.65,-548.18 915.95,-543.93 915.41,-550.91"/>
</g>
<!-- regreet&#45;&gt;regreet -->
<g id="edge65" class="edge">
<title>regreet&#45;&gt;regreet</title>
<path fill="none" stroke="#a6adc8" d="M626.8,-534.98C581.42,-547.46 593.1,-564 661.84,-564 724.4,-564 739.7,-550.3 707.73,-538.43"/>
<polygon fill="#a6adc8" stroke="#a6adc8" points="708.91,-535.13 698.32,-535.44 706.79,-541.8 708.91,-535.13"/>
</g>
<!-- n_default&#45;&gt;n_default -->
<g id="edge17" class="edge">
<title>n_default&#45;&gt;n_default</title>
<path fill="none" stroke="#a6adc8" d="M628.43,-801.54C581.16,-814.07 592.29,-831 661.84,-831 725.41,-831 740.18,-816.86 706.15,-804.86"/>
<polygon fill="#a6adc8" stroke="#a6adc8" points="707.29,-801.54 696.7,-801.98 705.25,-808.24 707.29,-801.54"/>
</g>
<!-- default__aspect_default_ -->
<g id="node13" class="node">
<title>default__aspect_default_</title>
<polygon fill="#a6e3a1" stroke="#a6e3a1" points="2137.4,-913 1959.4,-913 1959.4,-877 2137.4,-877 2137.4,-913"/>
<text text-anchor="middle" x="2048.4" y="-890.33" font-family="Times,serif" font-size="14.00" fill="#1e1e2e">default/aspect(default)</text>
</g>
<!-- n_default&#45;&gt;default__aspect_default_ -->
<g id="edge18" class="edge">
<title>n_default&#45;&gt;default__aspect_default_</title>
<path fill="none" stroke="#a6adc8" d="M695.22,-792.71C726.87,-790.57 776.46,-787.49 819.46,-786 942.05,-781.76 1809.11,-736.45 1923.4,-781 1967.95,-798.37 2006.18,-840.06 2027.98,-867.91"/>
<polygon fill="#a6adc8" stroke="#a6adc8" points="2024.97,-869.74 2033.82,-875.57 2030.54,-865.5 2024.97,-869.74"/>
</g>
<!-- den__provides__define_user -->
<g id="node18" class="node">
<title>den__provides__define_user</title>
<polygon fill="#a6e3a1" stroke="#a6e3a1" points="1108.96,-831 921.83,-831 855.18,-795 1175.61,-795 1108.96,-831"/>
<text text-anchor="middle" x="1015.39" y="-808.33" font-family="Times,serif" font-size="14.00" fill="#1e1e2e">provides/define&#45;user</text>
</g>
<!-- n_default&#45;&gt;den__provides__define_user -->
<g id="edge19" class="edge">
<title>n_default&#45;&gt;den__provides__define_user</title>
<path fill="none" stroke="#a6adc8" d="M695.28,-796.66C733.77,-798.63 800.62,-802.05 863.22,-805.26"/>
<polygon fill="#a6adc8" stroke="#a6adc8" points="862.76,-808.74 872.93,-805.76 863.12,-801.75 862.76,-808.74"/>
</g>
<!-- den__provides__hostname -->
<g id="node19" class="node">
<title>den__provides__hostname</title>
<polygon fill="#fab387" stroke="#fab387" points="1103.31,-903 927.47,-903 864.85,-867 1165.94,-867 1103.31,-903"/>
<text text-anchor="middle" x="1015.39" y="-880.33" font-family="Times,serif" font-size="14.00" fill="#1e1e2e">provides/hostname</text>
</g>
<!-- n_default&#45;&gt;den__provides__hostname -->
<g id="edge20" class="edge">
<title>n_default&#45;&gt;den__provides__hostname</title>
<path fill="none" stroke="#a6adc8" d="M695.21,-806.02C719.71,-814.61 754.05,-827.2 783.46,-840 799.87,-847.14 802.38,-852.7 819.46,-858 832.02,-861.89 845.21,-865.23 858.55,-868.08"/>
<polygon fill="#a6adc8" stroke="#a6adc8" points="857.8,-871.5 868.3,-870.06 859.2,-864.64 857.8,-871.5"/>
</g>
<!-- den__provides__mutual_provider -->
<g id="node20" class="node">
<title>den__provides__mutual_provider</title>
<polygon fill="#f9e2af" stroke="#f9e2af" points="1129.82,-975 900.97,-975 819.46,-939 1211.32,-939 1129.82,-975"/>
<text text-anchor="middle" x="1015.39" y="-952.33" font-family="Times,serif" font-size="14.00" fill="#1e1e2e">provides/mutual&#45;provider</text>
</g>
<!-- n_default&#45;&gt;den__provides__mutual_provider -->
<g id="edge21" class="edge">
<title>n_default&#45;&gt;den__provides__mutual_provider</title>
<path fill="none" stroke="#a6adc8" d="M695.42,-799.71C722.19,-805.15 759.48,-816.57 783.46,-840 814.28,-870.1 785.54,-903.45 819.46,-930 820.47,-930.79 821.5,-931.56 822.53,-932.32"/>
<polygon fill="#a6adc8" stroke="#a6adc8" points="820.59,-935.23 830.86,-937.83 824.45,-929.39 820.59,-935.23"/>
</g>
<!-- den__provides__default__aspect_default__den__provides -->
<g id="node14" class="node">
<title>den__provides__default__aspect_default__den__provides</title>
<polygon fill="#a6e3a1" stroke="#a6e3a1" points="1782.78,-876 1387.94,-876 1247.32,-840 1923.4,-840 1782.78,-876"/>
<text text-anchor="middle" x="1585.36" y="-853.33" font-family="Times,serif" font-size="14.00" fill="#1e1e2e">provides/default/aspect(default):den/provides</text>
</g>
<!-- den__provides__define_user&#45;&gt;default__aspect_default_ -->
<g id="edge24" class="edge">
<title>den__provides__define_user&#45;&gt;default__aspect_default_</title>
<path fill="none" stroke="#a6adc8" d="M1177.42,-794.52C1361.06,-778.39 1668.82,-766.49 1923.4,-831 1954.84,-838.97 1987.31,-856.1 2011.13,-870.64"/>
<polygon fill="#a6adc8" stroke="#a6adc8" points="2009.16,-873.54 2019.5,-875.87 2012.88,-867.6 2009.16,-873.54"/>
</g>
<!-- den__provides__define_user&#45;&gt;den__provides__default__aspect_default__den__provides -->
<g id="edge25" class="edge">
<title>den__provides__define_user&#45;&gt;den__provides__default__aspect_default__den__provides</title>
<path fill="none" stroke="#a6adc8" d="M1126.91,-821.76C1187.61,-826.57 1265.45,-832.73 1339.65,-838.61"/>
<polygon fill="#a6adc8" stroke="#a6adc8" points="1339.29,-842.09 1349.53,-839.39 1339.84,-835.12 1339.29,-842.09"/>
</g>
<!-- den__provides__define_user&#45;&gt;den__provides__define_user -->
<g id="edge26" class="edge">
<title>den__provides__define_user&#45;&gt;den__provides__define_user</title>
<path fill="none" stroke="#a6adc8" d="M951.43,-831.15C941.59,-840.54 962.91,-849 1015.39,-849 1046.14,-849 1066.2,-846.1 1075.55,-841.8"/>
<polygon fill="#a6adc8" stroke="#a6adc8" points="1078.78,-843.17 1078.84,-832.58 1072.18,-840.82 1078.78,-843.17"/>
</g>
<!-- den__provides__hostname&#45;&gt;default__aspect_default_ -->
<g id="edge27" class="edge">
<title>den__provides__hostname&#45;&gt;default__aspect_default_</title>
<path fill="none" stroke="#a6adc8" d="M1133.41,-886.13C1337.73,-888.12 1756,-892.17 1947.57,-894.03"/>
<polygon fill="#a6adc8" stroke="#a6adc8" points="1947.48,-897.53 1957.51,-894.13 1947.54,-890.53 1947.48,-897.53"/>
</g>
<!-- den__provides__hostname&#45;&gt;den__provides__default__aspect_default__den__provides -->
<g id="edge28" class="edge">
<title>den__provides__hostname&#45;&gt;den__provides__default__aspect_default__den__provides</title>
<path fill="none" stroke="#a6adc8" d="M1146.34,-878.82C1205.66,-876 1277.85,-872.57 1346.36,-869.31"/>
<polygon fill="#a6adc8" stroke="#a6adc8" points="1346.43,-872.81 1356.25,-868.84 1346.1,-865.82 1346.43,-872.81"/>
</g>
<!-- den__provides__hostname&#45;&gt;den__provides__hostname -->
<g id="edge29" class="edge">
<title>den__provides__hostname&#45;&gt;den__provides__hostname</title>
<path fill="none" stroke="#a6adc8" d="M951.43,-903.15C941.59,-912.54 962.91,-921 1015.39,-921 1046.14,-921 1066.2,-918.1 1075.55,-913.8"/>
<polygon fill="#a6adc8" stroke="#a6adc8" points="1078.78,-915.17 1078.84,-904.58 1072.18,-912.82 1078.78,-915.17"/>
</g>
<!-- den__provides__mutual_provider&#45;&gt;default__aspect_default_ -->
<g id="edge30" class="edge">
<title>den__provides__mutual_provider&#45;&gt;default__aspect_default_</title>
<path fill="none" stroke="#a6adc8" d="M1160.36,-938.53C1189.13,-935.3 1219.16,-932.26 1247.32,-930 1499.14,-909.8 1796.56,-900.64 1947.98,-897.03"/>
<polygon fill="#a6adc8" stroke="#a6adc8" points="1947.64,-900.54 1957.55,-896.8 1947.47,-893.54 1947.64,-900.54"/>
</g>
<!-- den__provides__mutual_provider&#45;&gt;den__provides__default__aspect_default__den__provides -->
<g id="edge31" class="edge">
<title>den__provides__mutual_provider&#45;&gt;den__provides__default__aspect_default__den__provides</title>
<path fill="none" stroke="#a6adc8" d="M1179.22,-938.54C1190.17,-936.04 1200.96,-933.21 1211.32,-930 1228.41,-924.7 1230.29,-917.48 1247.32,-912 1293.64,-897.1 1344.91,-886.2 1393.2,-878.27"/>
<polygon fill="#a6adc8" stroke="#a6adc8" points="1393.62,-881.75 1402.94,-876.71 1392.51,-874.84 1393.62,-881.75"/>
</g>
<!-- den__provides__mutual_provider&#45;&gt;den__provides__mutual_provider -->
<g id="edge32" class="edge">
<title>den__provides__mutual_provider&#45;&gt;den__provides__mutual_provider</title>
<path fill="none" stroke="#a6adc8" d="M951.43,-975.15C941.59,-984.54 962.91,-993 1015.39,-993 1046.14,-993 1066.2,-990.1 1075.55,-985.8"/>
<polygon fill="#a6adc8" stroke="#a6adc8" points="1078.78,-987.17 1078.84,-976.58 1072.18,-984.82 1078.78,-987.17"/>
</g>
<!-- alice__to_hosts -->
<g id="node21" class="node">
<title>alice__to_hosts</title>
<polygon fill="#a6e3a1" stroke="#a6e3a1" points="1649.38,-975 1521.34,-975 1475.74,-939 1694.98,-939 1649.38,-975"/>
<text text-anchor="middle" x="1585.36" y="-952.33" font-family="Times,serif" font-size="14.00" fill="#1e1e2e">alice/to&#45;hosts</text>
</g>
<!-- den__provides__mutual_provider&#45;&gt;alice__to_hosts -->
<g id="edge33" class="edge">
<title>den__provides__mutual_provider&#45;&gt;alice__to_hosts</title>
<path fill="none" stroke="#a6adc8" d="M1171.59,-957C1272.18,-957 1400.11,-957 1486.69,-957"/>
<polygon fill="#a6adc8" stroke="#a6adc8" points="1486.58,-960.5 1496.58,-957 1486.58,-953.5 1486.58,-960.5"/>
</g>
<!-- alice__to_hosts&#45;&gt;default__aspect_default_ -->
<g id="edge8" class="edge">
<title>alice__to_hosts&#45;&gt;default__aspect_default_</title>
<path fill="none" stroke="#a6adc8" d="M1681.89,-949.92C1749.57,-944.21 1842.37,-934.99 1923.4,-922 1934.61,-920.2 1946.33,-918.04 1957.9,-915.72"/>
<polygon fill="#a6adc8" stroke="#a6adc8" points="1958.35,-919.2 1967.45,-913.76 1956.95,-912.34 1958.35,-919.2"/>
</g>
<!-- alice__to_hosts&#45;&gt;alice__to_hosts -->
<g id="edge9" class="edge">
<title>alice__to_hosts&#45;&gt;alice__to_hosts</title>
<path fill="none" stroke="#a6adc8" d="M1513.99,-969.54C1479.27,-980.87 1503.06,-993 1585.36,-993 1657.37,-993 1684.59,-983.71 1667,-973.8"/>
<polygon fill="#a6adc8" stroke="#a6adc8" points="1668.7,-970.72 1658.13,-970.12 1666.02,-977.19 1668.7,-970.72"/>
</g>
<!-- alice__to_hosts&#45;&gt;alice -->
<g id="edge68" class="edge">
<title>alice__to_hosts&#45;&gt;alice</title>
<path fill="none" stroke="#a6adc8" d="M1510.1,-966.48C1434.86,-975.96 1315.08,-990.71 1211.32,-1002 1124.35,-1011.46 886.68,-984 819.46,-1040 774.72,-1077.28 825.83,-1126.03 783.46,-1166 761.47,-1186.75 727.14,-1192.84 700.72,-1194.12"/>
<polygon fill="#a6adc8" stroke="#a6adc8" points="700.63,-1190.62 690.72,-1194.37 700.8,-1197.62 700.63,-1190.62"/>
</g>
<!-- hm_host&#45;&gt;hm_host -->
<g id="edge39" class="edge">
<title>hm_host&#45;&gt;hm_host</title>
<path fill="none" stroke="#a6adc8" d="M624.6,-41.6C581.82,-54 594.23,-70 661.84,-70 723.11,-70 739.04,-56.86 709.65,-45.17"/>
<polygon fill="#a6adc8" stroke="#a6adc8" points="711.1,-41.96 700.51,-42.08 708.87,-48.6 711.1,-41.96"/>
</g>
<!-- hm_host__aspect_hm_host_ -->
<g id="node23" class="node">
<title>hm_host__aspect_hm_host_</title>
<polygon fill="#89b4fa" stroke="#89b4fa" points="1111.89,-52 918.89,-52 918.89,-16 1111.89,-16 1111.89,-52"/>
<text text-anchor="middle" x="1015.39" y="-29.32" font-family="Times,serif" font-size="14.00" fill="#1e1e2e">hm&#45;host/aspect(hm&#45;host)</text>
</g>
<!-- hm_host&#45;&gt;hm_host__aspect_hm_host_ -->
<g id="edge40" class="edge">
<title>hm_host&#45;&gt;hm_host__aspect_hm_host_</title>
<path fill="none" stroke="#a6adc8" d="M699.14,-34C747.85,-34 836.43,-34 907.33,-34"/>
<polygon fill="#a6adc8" stroke="#a6adc8" points="907.03,-37.5 917.03,-34 907.03,-30.5 907.03,-37.5"/>
</g>
<!-- hm_user&#45;&gt;hm_user -->
<g id="edge41" class="edge">
<title>hm_user&#45;&gt;hm_user</title>
<path fill="none" stroke="#a6adc8" d="M624.3,-252.69C581.88,-265.08 594.4,-281 661.84,-281 722.7,-281 738.83,-268.04 710.24,-256.4"/>
<polygon fill="#a6adc8" stroke="#a6adc8" points="711.41,-253.1 700.81,-253.18 709.14,-259.73 711.41,-253.1"/>
</g>
<!-- hm_user__aspect_hm_user_ -->
<g id="node27" class="node">
<title>hm_user__aspect_hm_user_</title>
<polygon fill="#a6e3a1" stroke="#a6e3a1" points="1112.64,-263 918.14,-263 918.14,-227 1112.64,-227 1112.64,-263"/>
<text text-anchor="middle" x="1015.39" y="-240.32" font-family="Times,serif" font-size="14.00" fill="#1e1e2e">hm&#45;user/aspect(hm&#45;user)</text>
</g>
<!-- hm_user&#45;&gt;hm_user__aspect_hm_user_ -->
<g id="edge42" class="edge">
<title>hm_user&#45;&gt;hm_user__aspect_hm_user_</title>
<path fill="none" stroke="#a6adc8" d="M699.47,-245C748.13,-245 836.17,-245 906.82,-245"/>
<polygon fill="#a6adc8" stroke="#a6adc8" points="906.48,-248.5 916.48,-245 906.48,-241.5 906.48,-248.5"/>
</g>
<!-- alice&#45;&gt;primary_user -->
<g id="edge5" class="edge">
<title>alice&#45;&gt;primary_user</title>
<path fill="none" stroke="#a6adc8" d="M634.53,-1195.95C604.75,-1197.65 557.14,-1195.12 532.21,-1166 454.23,-1074.88 584.53,-716.07 504.21,-627 477.8,-597.71 433.68,-591.21 396.66,-591.9"/>
<polygon fill="#a6adc8" stroke="#a6adc8" points="396.8,-588.4 386.94,-592.27 397.06,-595.39 396.8,-588.4"/>
</g>
<!-- alice&#45;&gt;den__provides__primary_user -->
<g id="edge6" class="edge">
<title>alice&#45;&gt;den__provides__primary_user</title>
<path fill="none" stroke="#a6adc8" d="M634.56,-1195.92C604.8,-1197.6 557.22,-1195.05 532.21,-1166 461.78,-1084.18 576.74,-760.97 504.21,-681 496.11,-672.06 486.35,-665.25 475.66,-660.12"/>
<polygon fill="#a6adc8" stroke="#a6adc8" points="477.11,-656.93 466.53,-656.29 474.39,-663.38 477.11,-656.93"/>
</g>
<!-- alice&#45;&gt;alice -->
<g id="edge1" class="edge">
<title>alice&#45;&gt;alice</title>
<path fill="none" stroke="#a6adc8" d="M634.67,-1197.99C580.33,-1210.62 589.38,-1229 661.84,-1229 728.92,-1229 741.66,-1213.25 700.06,-1200.89"/>
<polygon fill="#a6adc8" stroke="#a6adc8" points="701.04,-1197.53 690.48,-1198.38 699.26,-1204.3 701.04,-1197.53"/>
</g>
<!-- demo_shell -->
<g id="node31" class="node">
<title>demo_shell</title>
<polygon fill="#f2cdcd" stroke="#f2cdcd" points="1062.02,-1303 968.77,-1303 968.77,-1267 1062.02,-1267 1062.02,-1303"/>
<text text-anchor="middle" x="1015.39" y="-1280.33" font-family="Times,serif" font-size="14.00" fill="#1e1e2e">demo&#45;shell</text>
</g>
<!-- alice&#45;&gt;demo_shell -->
<g id="edge2" class="edge">
<title>alice&#45;&gt;demo_shell</title>
<path fill="none" stroke="#a6adc8" d="M689.17,-1204.99C719.86,-1218.51 772.38,-1240.26 819.46,-1253 865.11,-1265.35 918.14,-1273.68 957.35,-1278.74"/>
<polygon fill="#a6adc8" stroke="#a6adc8" points="956.68,-1282.18 967.04,-1279.95 957.55,-1275.24 956.68,-1282.18"/>
</g>
<!-- dev_tools -->
<g id="node32" class="node">
<title>dev_tools</title>
<polygon fill="#fab387" stroke="#fab387" points="1055.64,-1139 975.14,-1139 975.14,-1103 1055.64,-1103 1055.64,-1139"/>
<text text-anchor="middle" x="1015.39" y="-1116.33" font-family="Times,serif" font-size="14.00" fill="#1e1e2e">dev&#45;tools</text>
</g>
<!-- alice&#45;&gt;dev_tools -->
<g id="edge3" class="edge">
<title>alice&#45;&gt;dev_tools</title>
<path fill="none" stroke="#a6adc8" d="M689.26,-1187.59C747.51,-1175.66 887.79,-1146.93 963.65,-1131.39"/>
<polygon fill="#a6adc8" stroke="#a6adc8" points="964.23,-1134.85 973.32,-1129.41 962.82,-1127.99 964.23,-1134.85"/>
</g>
<!-- hyprland -->
<g id="node33" class="node">
<title>hyprland</title>
<polygon fill="#f2cdcd" stroke="#f2cdcd" points="1055.27,-1211 975.52,-1211 975.52,-1175 1055.27,-1175 1055.27,-1211"/>
<text text-anchor="middle" x="1015.39" y="-1188.33" font-family="Times,serif" font-size="14.00" fill="#1e1e2e">hyprland</text>
</g>
<!-- alice&#45;&gt;hyprland -->
<g id="edge4" class="edge">
<title>alice&#45;&gt;hyprland</title>
<path fill="none" stroke="#a6adc8" d="M689.26,-1193C747.59,-1193 888.16,-1193 963.95,-1193"/>
<polygon fill="#a6adc8" stroke="#a6adc8" points="963.58,-1196.5 973.58,-1193 963.58,-1189.5 963.58,-1196.5"/>
</g>
<!-- user__self_provide_user_ -->
<g id="node37" class="node">
<title>user__self_provide_user_</title>
<polygon fill="#f2cdcd" stroke="#f2cdcd" points="1673.99,-1238 1496.74,-1238 1496.74,-1202 1673.99,-1202 1673.99,-1238"/>
<text text-anchor="middle" x="1585.36" y="-1215.33" font-family="Times,serif" font-size="14.00" fill="#1e1e2e">user/self&#45;provide(user)</text>
</g>
<!-- alice&#45;&gt;user__self_provide_user_ -->
<g id="edge7" class="edge">
<title>alice&#45;&gt;user__self_provide_user_</title>
<path fill="none" stroke="#a6adc8" d="M689.23,-1203.05C719.97,-1214.17 772.54,-1231.39 819.46,-1238 1056.46,-1271.37 1338.76,-1248.85 1485.19,-1232.58"/>
<polygon fill="#a6adc8" stroke="#a6adc8" points="1485.3,-1236.09 1494.85,-1231.49 1484.52,-1229.14 1485.3,-1236.09"/>
</g>
<!-- demo_shell&#45;&gt;demo_shell -->
<g id="edge22" class="edge">
<title>demo_shell&#45;&gt;demo_shell</title>
<path fill="none" stroke="#a6adc8" d="M968.37,-1294.77C931.7,-1306.79 947.38,-1321 1015.39,-1321 1075.71,-1321 1094.86,-1309.83 1072.87,-1298.91"/>
<polygon fill="#a6adc8" stroke="#a6adc8" points="1074.41,-1295.76 1063.83,-1295.33 1071.83,-1302.27 1074.41,-1295.76"/>
</g>
<!-- demo_shell&#45;&gt;user__self_provide_user_ -->
<g id="edge23" class="edge">
<title>demo_shell&#45;&gt;user__self_provide_user_</title>
<path fill="none" stroke="#a6adc8" d="M1062.39,-1279.74C1153.94,-1269.26 1360.82,-1245.58 1484.88,-1231.39"/>
<polygon fill="#a6adc8" stroke="#a6adc8" points="1485.21,-1234.87 1494.74,-1230.26 1484.41,-1227.92 1485.21,-1234.87"/>
</g>
<!-- dev_tools&#45;&gt;dev_tools -->
<g id="edge37" class="edge">
<title>dev_tools&#45;&gt;dev_tools</title>
<path fill="none" stroke="#a6adc8" d="M974.67,-1128.87C930.18,-1141.23 943.75,-1157 1015.39,-1157 1080.6,-1157 1097.7,-1143.94 1066.7,-1132.27"/>
<polygon fill="#a6adc8" stroke="#a6adc8" points="1068.14,-1129.06 1057.55,-1129.33 1066,-1135.72 1068.14,-1129.06"/>
</g>
<!-- dev_tools&#45;&gt;user__self_provide_user_ -->
<g id="edge38" class="edge">
<title>dev_tools&#45;&gt;user__self_provide_user_</title>
<path fill="none" stroke="#a6adc8" d="M1055.88,-1127.88C1143.85,-1143.22 1358.18,-1180.58 1485.23,-1202.72"/>
<polygon fill="#a6adc8" stroke="#a6adc8" points="1484.55,-1206.15 1495,-1204.42 1485.75,-1199.26 1484.55,-1206.15"/>
</g>
<!-- hyprland&#45;&gt;hyprland -->
<g id="edge60" class="edge">
<title>hyprland&#45;&gt;hyprland</title>
<path fill="none" stroke="#a6adc8" d="M975.32,-1200.69C930.05,-1213.08 943.41,-1229 1015.39,-1229 1080.91,-1229 1097.87,-1215.81 1066.25,-1204.1"/>
<polygon fill="#a6adc8" stroke="#a6adc8" points="1067.5,-1200.82 1056.91,-1201.15 1065.39,-1207.5 1067.5,-1200.82"/>
</g>
<!-- hyprland&#45;&gt;user__self_provide_user_ -->
<g id="edge61" class="edge">
<title>hyprland&#45;&gt;user__self_provide_user_</title>
<path fill="none" stroke="#a6adc8" d="M1055.43,-1194.86C1143.07,-1199.02 1357.74,-1209.23 1485.02,-1215.28"/>
<polygon fill="#a6adc8" stroke="#a6adc8" points="1484.64,-1218.76 1494.79,-1215.74 1484.97,-1211.77 1484.64,-1218.76"/>
</g>
<!-- user&#45;&gt;user -->
<g id="edge66" class="edge">
<title>user&#45;&gt;user</title>
<path fill="none" stroke="#a6adc8" d="M634.67,-1071.99C580.33,-1084.62 589.38,-1103 661.84,-1103 728.92,-1103 741.66,-1087.25 700.06,-1074.89"/>
<polygon fill="#a6adc8" stroke="#a6adc8" points="701.04,-1071.53 690.48,-1072.38 699.26,-1078.3 701.04,-1071.53"/>
</g>
<!-- user__aspect_user_ -->
<g id="node35" class="node">
<title>user__aspect_user_</title>
<polygon fill="#fab387" stroke="#fab387" points="1085.64,-1085 945.14,-1085 945.14,-1049 1085.64,-1049 1085.64,-1085"/>
<text text-anchor="middle" x="1015.39" y="-1062.33" font-family="Times,serif" font-size="14.00" fill="#1e1e2e">user/aspect(user)</text>
</g>
<!-- user&#45;&gt;user__aspect_user_ -->
<g id="edge67" class="edge">
<title>user&#45;&gt;user__aspect_user_</title>
<path fill="none" stroke="#a6adc8" d="M689.26,-1067C740.48,-1067 855.11,-1067 933.61,-1067"/>
<polygon fill="#a6adc8" stroke="#a6adc8" points="933.41,-1070.5 943.41,-1067 933.41,-1063.5 933.41,-1070.5"/>
</g>
</g>
</svg>
