<?plantuml 1.2026.2?><svg xmlns="http://www.w3.org/2000/svg" xmlns:xlink="http://www.w3.org/1999/xlink" contentStyleType="text/css" data-diagram-type="DESCRIPTION" height="1103px" preserveAspectRatio="none" style="width:2070px;height:1103px;background:#1E1E2E;" version="1.1" viewBox="0 0 2070 1103" width="2070px" zoomAndPan="magnify"><title>Component view: angle-brackets</title><defs/><g><rect fill="#1E1E2E" height="1103" style="stroke:none;stroke-width:1;" width="2070" x="0" y="0"/><g class="title" data-source-line="27"><text fill="#CDD6F4" font-family="'JetBrains Mono,monospace'" font-size="14" font-weight="bold" lengthAdjust="spacing" textLength="251.9989" x="902.0005" y="24.2799">Component view: angle-brackets</text></g><!--cluster angle_brackets--><g class="cluster" data-qualified-name="angle_brackets" data-source-line="1666" id="ent0002"><rect fill="none" height="1051" style="stroke:#444444;stroke-width:1;stroke-dasharray:7,7;" width="2057" x="7" y="46.4799"/><text fill="#444444" font-family="'JetBrains Mono,monospace'" font-size="16" font-weight="bold" lengthAdjust="spacing" textLength="134.4003" x="968.2999" y="84.8">angle-brackets</text><text fill="#444444" font-family="'JetBrains Mono,monospace'" font-size="12" font-weight="bold" lengthAdjust="spacing" textLength="57.6005" x="1006.6998" y="101.84">[system]</text></g><!--cluster host--><g class="cluster" data-qualified-name="angle_brackets.host" data-source-line="1666" id="ent0003"><rect fill="none" height="792.2" style="stroke:#444444;stroke-width:1;stroke-dasharray:7,7;" width="893" x="31" y="129.4799"/><text fill="#444444" font-family="'JetBrains Mono,monospace'" font-size="16" font-weight="bold" lengthAdjust="spacing" textLength="38.4001" x="458.3" y="167.8">host</text><text fill="#444444" font-family="'JetBrains Mono,monospace'" font-size="12" font-weight="bold" lengthAdjust="spacing" textLength="79.2006" x="437.8997" y="184.84">[container]</text></g><!--cluster c4_default--><g class="cluster" data-qualified-name="angle_brackets.c4_default" data-source-line="1666" id="ent0010"><rect fill="none" height="776.36" style="stroke:#444444;stroke-width:1;stroke-dasharray:7,7;" width="548" x="1492" y="137.3999"/><text fill="#444444" font-family="'JetBrains Mono,monospace'" font-size="16" font-weight="bold" lengthAdjust="spacing" textLength="67.2001" x="1732.3999" y="175.72">default</text><text fill="#444444" font-family="'JetBrains Mono,monospace'" font-size="12" font-weight="bold" lengthAdjust="spacing" textLength="79.2006" x="1726.3997" y="192.76">[container]</text></g><!--cluster user--><g class="cluster" data-qualified-name="angle_brackets.user" data-source-line="1666" id="ent0015"><rect fill="none" height="674.2" style="stroke:#444444;stroke-width:1;stroke-dasharray:7,7;" width="520" x="948" y="399.2799"/><text fill="#444444" font-family="'JetBrains Mono,monospace'" font-size="16" font-weight="bold" lengthAdjust="spacing" textLength="38.4001" x="1188.8" y="437.6">user</text><text fill="#444444" font-family="'JetBrains Mono,monospace'" font-size="12" font-weight="bold" lengthAdjust="spacing" textLength="79.2006" x="1168.3997" y="454.64">[container]</text></g><!--entity desktop--><g class="entity" data-qualified-name="angle_brackets.host.desktop" data-source-line="78" id="ent0004"><rect fill="#85BBF0" height="72.8003" style="stroke:#78A8D8;stroke-width:0.5;" width="101.2006" x="128.4" y="263.4799"/><text fill="#000000" font-family="'JetBrains Mono,monospace'" font-size="12" font-style="italic" lengthAdjust="spacing" textLength="79.2006" x="139.4" y="285.72">&#171;component&#187;</text><text fill="#000000" font-family="'JetBrains Mono,monospace'" font-size="16" font-weight="bold" lengthAdjust="spacing" textLength="67.2001" x="145.4002" y="305.6401">desktop</text><text fill="#000000" font-family="'JetBrains Mono,monospace'" font-size="12" font-style="italic" lengthAdjust="spacing" textLength="50.4004" x="153.8001" y="322.6802">[nixos]</text></g><!--entity networking--><g class="entity" data-qualified-name="angle_brackets.host.networking" data-source-line="78" id="ent0005"><rect fill="#85BBF0" height="72.8003" style="stroke:#78A8D8;stroke-width:0.5;" width="116.0002" x="350" y="683.0799"/><text fill="#000000" font-family="'JetBrains Mono,monospace'" font-size="12" font-style="italic" lengthAdjust="spacing" textLength="79.2006" x="368.3998" y="705.32">&#171;component&#187;</text><text fill="#000000" font-family="'JetBrains Mono,monospace'" font-size="16" font-weight="bold" lengthAdjust="spacing" textLength="96.0002" x="360" y="725.2401">networking</text><text fill="#000000" font-family="'JetBrains Mono,monospace'" font-size="12" font-style="italic" lengthAdjust="spacing" textLength="50.4004" x="382.7999" y="742.2802">[nixos]</text></g><!--entity primary_user--><g class="entity" data-qualified-name="angle_brackets.host.primary_user" data-source-line="78" id="ent0006"><rect fill="#85BBF0" height="56.9602" style="stroke:#78A8D8;stroke-width:0.5;" width="135.2003" x="516.4" y="541.1999"/><text fill="#000000" font-family="'JetBrains Mono,monospace'" font-size="12" font-style="italic" lengthAdjust="spacing" textLength="79.2006" x="544.3998" y="563.44">&#171;component&#187;</text><text fill="#000000" font-family="'JetBrains Mono,monospace'" font-size="16" font-weight="bold" lengthAdjust="spacing" textLength="115.2003" x="526.4" y="583.3601">primary-user</text></g><!--entity den__provides__primary_user--><g class="entity" data-qualified-name="angle_brackets.host.den__provides__primary_user" data-source-line="78" id="ent0007"><rect fill="#85BBF0" height="72.8003" style="stroke:#78A8D8;stroke-width:0.5;" width="221.6004" x="686.2" y="533.2799"/><text fill="#000000" font-family="'JetBrains Mono,monospace'" font-size="12" font-style="italic" lengthAdjust="spacing" textLength="79.2006" x="757.3999" y="555.52">&#171;component&#187;</text><text fill="#000000" font-family="'JetBrains Mono,monospace'" font-size="16" font-weight="bold" lengthAdjust="spacing" textLength="201.6004" x="696.2" y="575.4401">provides/primary-user</text><text fill="#000000" font-family="'JetBrains Mono,monospace'" font-size="12" font-style="italic" lengthAdjust="spacing" textLength="50.4004" x="771.8" y="592.4802">[nixos]</text></g><!--entity regreet--><g class="entity" data-qualified-name="angle_brackets.host.regreet" data-source-line="78" id="ent0008"><rect fill="#85BBF0" height="72.8003" style="stroke:#78A8D8;stroke-width:0.5;" width="101.2006" x="250.4" y="533.2799"/><text fill="#000000" font-family="'JetBrains Mono,monospace'" font-size="12" font-style="italic" lengthAdjust="spacing" textLength="79.2006" x="261.4" y="555.52">&#171;component&#187;</text><text fill="#000000" font-family="'JetBrains Mono,monospace'" font-size="16" font-weight="bold" lengthAdjust="spacing" textLength="67.2001" x="267.4002" y="575.4401">regreet</text><text fill="#000000" font-family="'JetBrains Mono,monospace'" font-size="12" font-style="italic" lengthAdjust="spacing" textLength="50.4004" x="275.8001" y="592.4802">[nixos]</text></g><!--entity tailscale--><g class="entity" data-qualified-name="angle_brackets.host.tailscale" data-source-line="78" id="ent0009"><rect fill="#85BBF0" height="72.8003" style="stroke:#78A8D8;stroke-width:0.5;" width="106.4002" x="202.8" y="832.8799"/><text fill="#000000" font-family="'JetBrains Mono,monospace'" font-size="12" font-style="italic" lengthAdjust="spacing" textLength="79.2006" x="216.3998" y="855.12">&#171;component&#187;</text><text fill="#000000" font-family="'JetBrains Mono,monospace'" font-size="16" font-weight="bold" lengthAdjust="spacing" textLength="86.4002" x="212.8" y="875.0401">tailscale</text><text fill="#000000" font-family="'JetBrains Mono,monospace'" font-size="12" font-style="italic" lengthAdjust="spacing" textLength="50.4004" x="230.7999" y="892.0802">[nixos]</text></g><!--entity den__provides__define_user--><g class="entity" data-qualified-name="angle_brackets.c4_default.den__provides__define_user" data-source-line="78" id="ent0011"><rect fill="#85BBF0" height="56.9602" style="stroke:#78A8D8;stroke-width:0.5;" width="212.0004" x="1733" y="271.3999"/><text fill="#000000" font-family="'JetBrains Mono,monospace'" font-size="12" font-style="italic" lengthAdjust="spacing" textLength="79.2006" x="1799.3999" y="293.64">&#171;component&#187;</text><text fill="#000000" font-family="'JetBrains Mono,monospace'" font-size="16" font-weight="bold" lengthAdjust="spacing" textLength="192.0004" x="1743" y="313.5601">provides/define-user</text></g><!--entity den__provides__hostname--><g class="entity" data-qualified-name="angle_brackets.c4_default.den__provides__hostname" data-source-line="78" id="ent0012"><rect fill="#85BBF0" height="56.9602" style="stroke:#78A8D8;stroke-width:0.5;" width="183.2004" x="1766.4" y="541.1999"/><text fill="#000000" font-family="'JetBrains Mono,monospace'" font-size="12" font-style="italic" lengthAdjust="spacing" textLength="79.2006" x="1818.3999" y="563.44">&#171;component&#187;</text><text fill="#000000" font-family="'JetBrains Mono,monospace'" font-size="16" font-weight="bold" lengthAdjust="spacing" textLength="163.2004" x="1776.4" y="583.3601">provides/hostname</text></g><!--entity den__provides__mutual_provider--><g class="entity" data-qualified-name="angle_brackets.c4_default.den__provides__mutual_provider" data-source-line="78" id="ent0013"><rect fill="#85BBF0" height="56.9602" style="stroke:#78A8D8;stroke-width:0.5;" width="250.4005" x="1670.8" y="840.7999"/><text fill="#000000" font-family="'JetBrains Mono,monospace'" font-size="12" font-style="italic" lengthAdjust="spacing" textLength="79.2006" x="1756.3999" y="863.04">&#171;component&#187;</text><text fill="#000000" font-family="'JetBrains Mono,monospace'" font-size="16" font-weight="bold" lengthAdjust="spacing" textLength="230.4005" x="1680.8" y="882.9601">provides/mutual-provider</text></g><!--entity alice__to_hosts--><g class="entity" data-qualified-name="angle_brackets.c4_default.alice__to_hosts" data-source-line="78" id="ent0014"><rect fill="#85BBF0" height="72.8003" style="stroke:#78A8D8;stroke-width:0.5;" width="154.4003" x="1507.8" y="683.0799"/><text fill="#000000" font-family="'JetBrains Mono,monospace'" font-size="12" font-style="italic" lengthAdjust="spacing" textLength="79.2006" x="1545.3998" y="705.32">&#171;component&#187;</text><text fill="#000000" font-family="'JetBrains Mono,monospace'" font-size="16" font-weight="bold" lengthAdjust="spacing" textLength="134.4003" x="1517.8" y="725.2401">alice/to-hosts</text><text fill="#000000" font-family="'JetBrains Mono,monospace'" font-size="12" font-style="italic" lengthAdjust="spacing" textLength="50.4004" x="1559.7999" y="742.2802">[nixos]</text></g><!--entity alice--><g class="entity" data-qualified-name="angle_brackets.user.alice" data-source-line="78" id="ent0016"><rect fill="#85BBF0" height="72.8003" style="stroke:#78A8D8;stroke-width:0.5;" width="156.8011" x="1001.6" y="533.2799"/><text fill="#000000" font-family="'JetBrains Mono,monospace'" font-size="12" font-style="italic" lengthAdjust="spacing" textLength="79.2006" x="1040.4002" y="555.52">&#171;component&#187;</text><text fill="#000000" font-family="'JetBrains Mono,monospace'" font-size="16" font-weight="bold" lengthAdjust="spacing" textLength="48.0001" x="1056.0005" y="575.4401">alice</text><text fill="#000000" font-family="'JetBrains Mono,monospace'" font-size="12" font-style="italic" lengthAdjust="spacing" textLength="136.8011" x="1011.6" y="592.4802">[homeManager+nixos]</text></g><!--entity demo_shell--><g class="entity" data-qualified-name="angle_brackets.user.demo_shell" data-source-line="78" id="ent0017"><rect fill="#85BBF0" height="72.8003" style="stroke:#78A8D8;stroke-width:0.5;" width="116.0002" x="1035" y="683.0799"/><text fill="#000000" font-family="'JetBrains Mono,monospace'" font-size="12" font-style="italic" lengthAdjust="spacing" textLength="79.2006" x="1053.3998" y="705.32">&#171;component&#187;</text><text fill="#000000" font-family="'JetBrains Mono,monospace'" font-size="16" font-weight="bold" lengthAdjust="spacing" textLength="96.0002" x="1045" y="725.2401">demo-shell</text><text fill="#000000" font-family="'JetBrains Mono,monospace'" font-size="12" font-style="italic" lengthAdjust="spacing" textLength="93.6008" x="1046.1997" y="742.2802">[homeManager]</text></g><!--entity dev_tools--><g class="entity" data-qualified-name="angle_brackets.user.dev_tools" data-source-line="78" id="ent0018"><rect fill="#85BBF0" height="72.8003" style="stroke:#78A8D8;stroke-width:0.5;" width="113.6008" x="1133.2" y="984.6799"/><text fill="#000000" font-family="'JetBrains Mono,monospace'" font-size="12" font-style="italic" lengthAdjust="spacing" textLength="79.2006" x="1150.4001" y="1006.92">&#171;component&#187;</text><text fill="#000000" font-family="'JetBrains Mono,monospace'" font-size="16" font-weight="bold" lengthAdjust="spacing" textLength="86.4002" x="1146.8003" y="1026.8401">dev-tools</text><text fill="#000000" font-family="'JetBrains Mono,monospace'" font-size="12" font-style="italic" lengthAdjust="spacing" textLength="93.6008" x="1143.2" y="1043.8802">[homeManager]</text></g><!--entity hyprland--><g class="entity" data-qualified-name="angle_brackets.user.hyprland" data-source-line="78" id="ent0019"><rect fill="#85BBF0" height="72.8003" style="stroke:#78A8D8;stroke-width:0.5;" width="156.8011" x="1258.6" y="832.8799"/><text fill="#000000" font-family="'JetBrains Mono,monospace'" font-size="12" font-style="italic" lengthAdjust="spacing" textLength="79.2006" x="1297.4002" y="855.12">&#171;component&#187;</text><text fill="#000000" font-family="'JetBrains Mono,monospace'" font-size="16" font-weight="bold" lengthAdjust="spacing" textLength="76.8002" x="1298.6005" y="875.0401">hyprland</text><text fill="#000000" font-family="'JetBrains Mono,monospace'" font-size="12" font-style="italic" lengthAdjust="spacing" textLength="136.8011" x="1268.6" y="892.0802">[homeManager+nixos]</text></g><!--link alice to demo_shell--><g class="link" data-entity-1="ent0016" data-entity-2="ent0017" data-link-type="dependency" data-source-line="1779" id="lnk20"><path d="M1053.48,606.3099 C1045.94,620.6499 1040.97,637.4599 1046,653.0799 C1049.34,663.4599 1050.4575,667.0116 1056.7275,676.0716" fill="none" id="alice-to-demo_shell" style="stroke:#A6ADC8;stroke-width:1;"/><polygon fill="#A6ADC8" points="1061.28,682.6499,1059.1943,674.3644,1054.2606,677.7788,1061.28,682.6499" style="stroke:#A6ADC8;stroke-width:1;"/><text fill="#CDD6F4" font-family="'JetBrains Mono,monospace'" font-size="12" font-weight="bold" lengthAdjust="spacing" textLength="57.6005" x="1047" y="649.32">includes</text></g><!--link demo_shell to alice--><g class="link" data-entity-1="ent0017" data-entity-2="ent0016" data-link-type="dependency" data-source-line="1779" id="lnk38"><path d="M1106.23,682.7299 C1109.97,668.2299 1112.23,651.3299 1109,636.0799 C1106.89,626.1199 1106.3641,623.1503 1102.2641,613.7703" fill="none" id="demo_shell-to-alice" style="stroke:#A6ADC8;stroke-width:1;"/><polygon fill="#A6ADC8" points="1099.06,606.4399,1099.5152,614.9718,1105.013,612.5687,1099.06,606.4399" style="stroke:#A6ADC8;stroke-width:1;"/><text fill="#CDD6F4" font-family="'JetBrains Mono,monospace'" font-size="12" font-weight="bold" lengthAdjust="spacing" textLength="57.6005" x="1111.55" y="649.32">includes</text></g><!--link alice to dev_tools--><g class="link" data-entity-1="ent0016" data-entity-2="ent0018" data-link-type="dependency" data-source-line="1779" id="lnk21"><path d="M1052.87,606.5099 C1022.29,651.1499 978.48,730.4099 992,802.8799 C1005.55,875.5499 1003.15,907.4199 1060,954.6799 C1081.57,972.6099 1101.5832,983.978 1125.5932,994.858" fill="none" id="alice-to-dev_tools" style="stroke:#A6ADC8;stroke-width:1;"/><polygon fill="#A6ADC8" points="1132.88,998.1599,1126.8315,992.1254,1124.355,997.5905,1132.88,998.1599" style="stroke:#A6ADC8;stroke-width:1;"/><text fill="#CDD6F4" font-family="'JetBrains Mono,monospace'" font-size="12" font-weight="bold" lengthAdjust="spacing" textLength="57.6005" x="993" y="799.12">includes</text></g><!--link dev_tools to alice--><g class="link" data-entity-1="ent0018" data-entity-2="ent0016" data-link-type="dependency" data-source-line="1779" id="lnk45"><path d="M1247.13,1016.7199 C1304.86,1009.9199 1391.32,989.6499 1433,929.6799 C1448.73,907.0399 1423.62,704.2799 1406,683.0799 C1345.16,609.8699 1242.0847,585.1787 1166.6847,576.2687" fill="none" id="dev_tools-to-alice" style="stroke:#A6ADC8;stroke-width:1;"/><polygon fill="#A6ADC8" points="1158.74,575.3299,1166.3327,579.248,1167.0368,573.2895,1158.74,575.3299" style="stroke:#A6ADC8;stroke-width:1;"/><text fill="#CDD6F4" font-family="'JetBrains Mono,monospace'" font-size="12" font-weight="bold" lengthAdjust="spacing" textLength="57.6005" x="1432.39" y="799.12">includes</text></g><!--link alice to hyprland--><g class="link" data-entity-1="ent0016" data-entity-2="ent0019" data-link-type="dependency" data-source-line="1779" id="lnk22"><path d="M1142.94,606.4999 C1155.39,615.2199 1167.76,625.2099 1178,636.0799 C1220.29,680.9699 1203.44,713.2499 1248,755.8799 C1268.69,775.6699 1285.94,764.5199 1305,785.8799 C1316.65,798.9399 1321.9043,809.0577 1326.7643,824.7577" fill="none" id="alice-to-hyprland" style="stroke:#A6ADC8;stroke-width:1;"/><polygon fill="#A6ADC8" points="1329.13,832.3999,1329.6302,823.8706,1323.8985,825.6448,1329.13,832.3999" style="stroke:#A6ADC8;stroke-width:1;"/><text fill="#CDD6F4" font-family="'JetBrains Mono,monospace'" font-size="12" font-weight="bold" lengthAdjust="spacing" textLength="57.6005" x="1249" y="724.22">includes</text></g><!--link hyprland to alice--><g class="link" data-entity-1="ent0019" data-entity-2="ent0016" data-link-type="dependency" data-source-line="1779" id="lnk56"><path d="M1341.32,832.5899 C1344.24,792.3799 1342.89,726.9299 1311,683.0799 C1274.74,633.2099 1217.9144,606.7785 1166.2844,590.8485" fill="none" id="hyprland-to-alice" style="stroke:#A6ADC8;stroke-width:1;"/><polygon fill="#A6ADC8" points="1158.64,588.4899,1165.3999,593.7152,1167.1689,587.9819,1158.64,588.4899" style="stroke:#A6ADC8;stroke-width:1;"/><text fill="#CDD6F4" font-family="'JetBrains Mono,monospace'" font-size="12" font-weight="bold" lengthAdjust="spacing" textLength="57.6005" x="1339.64" y="724.22">includes</text></g><!--link alice to primary_user--><g class="link" data-entity-1="ent0016" data-entity-2="ent0006" data-link-type="dependency" data-source-line="1779" id="lnk23"><path d="M1054.52,533.0399 C1027.06,497.1099 979.72,444.5699 924,422.4299 C818.68,380.5699 767.15,365.7599 669,422.4299 C625.03,447.8199 604.0752,497.8962 593.5452,533.0562" fill="none" id="alice-to-primary_user" style="stroke:#A6ADC8;stroke-width:1;"/><polygon fill="#A6ADC8" points="591.25,540.7199,596.4191,533.9169,590.6713,532.1955,591.25,540.7199" style="stroke:#A6ADC8;stroke-width:1;"/><text fill="#CDD6F4" font-family="'JetBrains Mono,monospace'" font-size="12" font-weight="bold" lengthAdjust="spacing" textLength="57.6005" x="797.5" y="379.52">includes</text></g><!--link alice to den__provides__primary_user--><g class="link" data-entity-1="ent0016" data-entity-2="ent0007" data-link-type="dependency" data-source-line="1779" id="lnk24"><path d="M1001.19,569.6799 C972.35,569.6799 947.16,569.6799 916.04,569.6799" fill="none" id="alice-to-den__provides__primary_user" style="stroke:#A6ADC8;stroke-width:1;"/><polygon fill="#A6ADC8" points="908.04,569.6799,916.04,572.6799,916.04,566.6799,908.04,569.6799" style="stroke:#A6ADC8;stroke-width:1;"/><text fill="#CDD6F4" font-family="'JetBrains Mono,monospace'" font-size="12" font-weight="bold" lengthAdjust="spacing" textLength="57.6005" x="926.2" y="562.92">includes</text></g><!--link alice__to_hosts to den__provides__define_user--><g class="link" data-entity-1="ent0014" data-entity-2="ent0011" data-link-type="dependency" data-source-line="1779" id="lnk25"><path d="M1593.09,682.8399 C1610.61,608.0199 1653.42,437.6499 1690,391.2799 C1711.27,364.3199 1735.8618,347.1605 1764.5618,332.3405" fill="none" id="alice__to_hosts-to-den__provides__define_user" style="stroke:#A6ADC8;stroke-width:1;"/><polygon fill="#A6ADC8" points="1771.67,328.6699,1763.1853,329.6749,1765.9382,335.006,1771.67,328.6699" style="stroke:#A6ADC8;stroke-width:1;"/><text fill="#CDD6F4" font-family="'JetBrains Mono,monospace'" font-size="12" font-weight="bold" lengthAdjust="spacing" textLength="57.6005" x="1691" y="574.42">includes</text></g><!--link den__provides__define_user to alice__to_hosts--><g class="link" data-entity-1="ent0011" data-entity-2="ent0014" data-link-type="dependency" data-source-line="1779" id="lnk35"><path d="M1732.51,320.0199 C1658.31,335.7799 1568.72,360.4899 1546,391.2799 C1481.2,479.0799 1531.1348,610.499 1562.5748,675.459" fill="none" id="den__provides__define_user-to-alice__to_hosts" style="stroke:#A6ADC8;stroke-width:1;"/><polygon fill="#A6ADC8" points="1566.06,682.6599,1565.2752,674.152,1559.8745,676.7659,1566.06,682.6599" style="stroke:#A6ADC8;stroke-width:1;"/><text fill="#CDD6F4" font-family="'JetBrains Mono,monospace'" font-size="12" font-weight="bold" lengthAdjust="spacing" textLength="57.6005" x="1547" y="574.42">includes</text></g><!--link alice__to_hosts to den__provides__hostname--><g class="link" data-entity-1="ent0014" data-entity-2="ent0012" data-link-type="dependency" data-source-line="1779" id="lnk26"><path d="M1650.35,682.6799 C1676.9,668.1699 1707.89,651.2799 1736,636.0799 C1758.83,623.7299 1777.0566,613.9348 1798.6566,602.3748" fill="none" id="alice__to_hosts-to-den__provides__hostname" style="stroke:#A6ADC8;stroke-width:1;"/><polygon fill="#A6ADC8" points="1805.71,598.5999,1797.241,599.7298,1800.0722,605.0198,1805.71,598.5999" style="stroke:#A6ADC8;stroke-width:1;"/><text fill="#CDD6F4" font-family="'JetBrains Mono,monospace'" font-size="12" font-weight="bold" lengthAdjust="spacing" textLength="57.6005" x="1737" y="649.32">includes</text></g><!--link den__provides__hostname to alice__to_hosts--><g class="link" data-entity-1="ent0012" data-entity-2="ent0014" data-link-type="dependency" data-source-line="1779" id="lnk36"><path d="M1765.97,598.0999 C1706.76,615.7699 1640.7,635.5599 1640,636.0799 C1623.68,648.1499 1614.6473,659.6303 1605.4173,676.0103" fill="none" id="den__provides__hostname-to-alice__to_hosts" style="stroke:#A6ADC8;stroke-width:1;"/><polygon fill="#A6ADC8" points="1601.49,682.9799,1608.031,677.483,1602.8037,674.5375,1601.49,682.9799" style="stroke:#A6ADC8;stroke-width:1;"/><text fill="#CDD6F4" font-family="'JetBrains Mono,monospace'" font-size="12" font-weight="bold" lengthAdjust="spacing" textLength="57.6005" x="1641" y="649.32">includes</text></g><!--link alice__to_hosts to den__provides__mutual_provider--><g class="link" data-entity-1="ent0014" data-entity-2="ent0013" data-link-type="dependency" data-source-line="1779" id="lnk27"><path d="M1564.02,756.0599 C1557.74,771.6899 1554.88,789.4899 1565,802.8799 C1578.89,821.2499 1616.0359,834.1365 1662.6259,844.9165" fill="none" id="alice__to_hosts-to-den__provides__mutual_provider" style="stroke:#A6ADC8;stroke-width:1;"/><polygon fill="#A6ADC8" points="1670.42,846.7199,1663.3022,841.9937,1661.9496,847.8393,1670.42,846.7199" style="stroke:#A6ADC8;stroke-width:1;"/><text fill="#CDD6F4" font-family="'JetBrains Mono,monospace'" font-size="12" font-weight="bold" lengthAdjust="spacing" textLength="57.6005" x="1566" y="799.12">includes</text></g><!--link den__provides__mutual_provider to alice__to_hosts--><g class="link" data-entity-1="ent0013" data-entity-2="ent0014" data-link-type="dependency" data-source-line="1779" id="lnk30"><path d="M1728.62,840.4399 C1707.06,830.0999 1683.69,817.3299 1664,802.8799 C1645.79,789.5099 1633.4636,777.6725 1619.4736,762.0325" fill="none" id="den__provides__mutual_provider-to-alice__to_hosts" style="stroke:#A6ADC8;stroke-width:1;"/><polygon fill="#A6ADC8" points="1614.14,756.0699,1617.2376,764.0326,1621.7096,760.0325,1614.14,756.0699" style="stroke:#A6ADC8;stroke-width:1;"/><text fill="#CDD6F4" font-family="'JetBrains Mono,monospace'" font-size="12" font-weight="bold" lengthAdjust="spacing" textLength="57.6005" x="1665" y="799.12">includes</text></g><!--link den__provides__mutual_provider to den__provides__define_user--><g class="link" data-entity-1="ent0013" data-entity-2="ent0011" data-link-type="dependency" data-source-line="1779" id="lnk28"><path d="M1826.76,840.6799 C1847.64,819.7599 1873.47,789.0299 1885,755.8799 C1895.63,725.3199 1895.07,713.8299 1885,683.0799 C1877.82,661.1599 1849.13,654.5099 1863,636.0799 C1891.92,597.6399 1938.08,644.5199 1967,606.0799 C2024.39,529.7899 2010.91,476.0499 1967,391.2799 C1952.99,364.2199 1933.632,347.5849 1908.532,332.8749" fill="none" id="den__provides__mutual_provider-to-den__provides__define_user" style="stroke:#A6ADC8;stroke-width:1;"/><polygon fill="#A6ADC8" points="1901.63,328.8299,1907.0152,335.4632,1910.0489,330.2866,1901.63,328.8299" style="stroke:#A6ADC8;stroke-width:1;"/><text fill="#CDD6F4" font-family="'JetBrains Mono,monospace'" font-size="12" font-weight="bold" lengthAdjust="spacing" textLength="57.6005" x="1864" y="649.32">includes</text></g><!--link den__provides__define_user to den__provides__mutual_provider--><g class="link" data-entity-1="ent0011" data-entity-2="ent0013" data-link-type="dependency" data-source-line="1779" id="lnk33"><path d="M1926.57,328.6799 C1954.48,342.5399 1981.59,362.6499 1995,391.2799 C2035.49,477.7299 2020.98,514.2199 1995,606.0799 C1967.06,704.8799 1941.1,725.1599 1874,802.8799 C1862.22,816.5199 1853.6803,824.6616 1840.1603,835.5516" fill="none" id="den__provides__define_user-to-den__provides__mutual_provider" style="stroke:#A6ADC8;stroke-width:1;"/><polygon fill="#A6ADC8" points="1833.93,840.5699,1842.0422,837.8879,1838.2784,833.2152,1833.93,840.5699" style="stroke:#A6ADC8;stroke-width:1;"/><text fill="#CDD6F4" font-family="'JetBrains Mono,monospace'" font-size="12" font-weight="bold" lengthAdjust="spacing" textLength="57.6005" x="1986.34" y="649.32">includes</text></g><!--link den__provides__mutual_provider to den__provides__hostname--><g class="link" data-entity-1="ent0013" data-entity-2="ent0012" data-link-type="dependency" data-source-line="1779" id="lnk29"><path d="M1797.73,840.6299 C1800.99,796.6199 1809.65,708.2299 1830,636.0799 C1833.59,623.3599 1835.7759,617.1403 1840.9359,605.7203" fill="none" id="den__provides__mutual_provider-to-den__provides__hostname" style="stroke:#A6ADC8;stroke-width:1;"/><polygon fill="#A6ADC8" points="1844.23,598.4299,1838.2021,604.485,1843.6698,606.9555,1844.23,598.4299" style="stroke:#A6ADC8;stroke-width:1;"/><text fill="#CDD6F4" font-family="'JetBrains Mono,monospace'" font-size="12" font-weight="bold" lengthAdjust="spacing" textLength="57.6005" x="1819.36" y="724.22">includes</text></g><!--link den__provides__hostname to den__provides__mutual_provider--><g class="link" data-entity-1="ent0012" data-entity-2="ent0013" data-link-type="dependency" data-source-line="1779" id="lnk34"><path d="M1842.76,598.5099 C1832.21,615.8599 1816.88,637.7099 1799,653.0799 C1776.69,672.2499 1755.38,657.9999 1740,683.0799 C1709,733.6199 1742.7508,795.9682 1769.5608,833.8782" fill="none" id="den__provides__hostname-to-den__provides__mutual_provider" style="stroke:#A6ADC8;stroke-width:1;"/><polygon fill="#A6ADC8" points="1774.18,840.4099,1772.0102,832.146,1767.1114,835.6104,1774.18,840.4099" style="stroke:#A6ADC8;stroke-width:1;"/><text fill="#CDD6F4" font-family="'JetBrains Mono,monospace'" font-size="12" font-weight="bold" lengthAdjust="spacing" textLength="57.6005" x="1741" y="724.22">includes</text></g><!--link den__provides__hostname to den__provides__define_user--><g class="link" data-entity-1="ent0012" data-entity-2="ent0011" data-link-type="dependency" data-source-line="1779" id="lnk31"><path d="M1843.57,540.7199 C1826.13,505.2299 1797.78,441.5699 1787,383.2799 C1785.63,375.8499 1784.51,373.4099 1787,366.2799 C1791.83,352.4499 1795.7267,345.418 1804.9967,334.628" fill="none" id="den__provides__hostname-to-den__provides__define_user" style="stroke:#A6ADC8;stroke-width:1;"/><polygon fill="#A6ADC8" points="1810.21,328.5599,1802.7212,332.673,1807.2723,336.583,1810.21,328.5599" style="stroke:#A6ADC8;stroke-width:1;"/><text fill="#CDD6F4" font-family="'JetBrains Mono,monospace'" font-size="12" font-weight="bold" lengthAdjust="spacing" textLength="57.6005" x="1788" y="379.52">includes</text></g><!--link den__provides__define_user to den__provides__hostname--><g class="link" data-entity-1="ent0011" data-entity-2="ent0012" data-link-type="dependency" data-source-line="1779" id="lnk32"><path d="M1844.5,328.7799 C1846.56,340.3399 1848.72,353.9099 1850,366.2799 C1856.42,428.3699 1857.7309,493.6601 1857.9709,532.7701" fill="none" id="den__provides__define_user-to-den__provides__hostname" style="stroke:#A6ADC8;stroke-width:1;"/><polygon fill="#A6ADC8" points="1858.02,540.7699,1860.9709,532.7517,1854.971,532.7885,1858.02,540.7699" style="stroke:#A6ADC8;stroke-width:1;"/><text fill="#CDD6F4" font-family="'JetBrains Mono,monospace'" font-size="12" font-weight="bold" lengthAdjust="spacing" textLength="57.6005" x="1852.56" y="379.52">includes</text></g><!--link demo_shell to hyprland--><g class="link" data-entity-1="ent0017" data-entity-2="ent0019" data-link-type="dependency" data-source-line="1779" id="lnk37"><path d="M1151.48,750.6499 C1171.54,761.3699 1193.96,773.7899 1214,785.8799 C1238.1,800.4199 1257.4681,813.0962 1279.3281,827.9862" fill="none" id="demo_shell-to-hyprland" style="stroke:#A6ADC8;stroke-width:1;"/><polygon fill="#A6ADC8" points="1285.94,832.4899,1281.017,825.5068,1277.6393,830.4657,1285.94,832.4899" style="stroke:#A6ADC8;stroke-width:1;"/><text fill="#CDD6F4" font-family="'JetBrains Mono,monospace'" font-size="12" font-weight="bold" lengthAdjust="spacing" textLength="57.6005" x="1239.06" y="799.12">includes</text></g><!--link hyprland to demo_shell--><g class="link" data-entity-1="ent0019" data-entity-2="ent0017" data-link-type="dependency" data-source-line="1779" id="lnk57"><path d="M1258.25,841.4899 C1206.55,823.8499 1148.22,803.8299 1147,802.8799 C1131.2,790.5899 1122.4745,779.3124 1113.4045,763.0924" fill="none" id="hyprland-to-demo_shell" style="stroke:#A6ADC8;stroke-width:1;"/><polygon fill="#A6ADC8" points="1109.5,756.1099,1110.7861,764.5566,1116.0229,761.6282,1109.5,756.1099" style="stroke:#A6ADC8;stroke-width:1;"/><text fill="#CDD6F4" font-family="'JetBrains Mono,monospace'" font-size="12" font-weight="bold" lengthAdjust="spacing" textLength="57.6005" x="1148" y="799.12">includes</text></g><!--link demo_shell to dev_tools--><g class="link" data-entity-1="ent0017" data-entity-2="ent0018" data-link-type="dependency" data-source-line="1779" id="lnk39"><path d="M1075.6,756.2899 C1057.16,799.7399 1034.33,874.0799 1063,929.6799 C1077.82,958.4199 1099.5128,976.0982 1125.8628,990.9682" fill="none" id="demo_shell-to-dev_tools" style="stroke:#A6ADC8;stroke-width:1;"/><polygon fill="#A6ADC8" points="1132.83,994.8999,1127.3372,988.3555,1124.3884,993.5809,1132.83,994.8999" style="stroke:#A6ADC8;stroke-width:1;"/><text fill="#CDD6F4" font-family="'JetBrains Mono,monospace'" font-size="12" font-weight="bold" lengthAdjust="spacing" textLength="57.6005" x="1064" y="874.02">includes</text></g><!--link dev_tools to demo_shell--><g class="link" data-entity-1="ent0018" data-entity-2="ent0017" data-link-type="dependency" data-source-line="1779" id="lnk46"><path d="M1178.38,984.1999 C1159.72,926.5499 1125.7247,821.5508 1107.0647,763.9308" fill="none" id="dev_tools-to-demo_shell" style="stroke:#A6ADC8;stroke-width:1;"/><polygon fill="#A6ADC8" points="1104.6,756.3199,1104.2107,764.855,1109.9188,763.0065,1104.6,756.3199" style="stroke:#A6ADC8;stroke-width:1;"/><text fill="#CDD6F4" font-family="'JetBrains Mono,monospace'" font-size="12" font-weight="bold" lengthAdjust="spacing" textLength="57.6005" x="1161.44" y="874.02">includes</text></g><!--link den__provides__primary_user to demo_shell--><g class="link" data-entity-1="ent0007" data-entity-2="ent0017" data-link-type="dependency" data-source-line="1779" id="lnk40"><path d="M868.65,606.4599 C919.64,631.9199 980.1225,662.1164 1027.7525,685.8964" fill="none" id="den__provides__primary_user-to-demo_shell" style="stroke:#A6ADC8;stroke-width:1;"/><polygon fill="#A6ADC8" points="1034.91,689.4699,1029.0925,683.2123,1026.4124,688.5805,1034.91,689.4699" style="stroke:#A6ADC8;stroke-width:1;"/><text fill="#CDD6F4" font-family="'JetBrains Mono,monospace'" font-size="12" font-weight="bold" lengthAdjust="spacing" textLength="57.6005" x="954.88" y="649.32">includes</text></g><!--link den__provides__primary_user to networking--><g class="link" data-entity-1="ent0007" data-entity-2="ent0005" data-link-type="dependency" data-source-line="1779" id="lnk41"><path d="M702.83,606.4599 C629.08,634.4799 536.2983,669.7283 473.7683,693.4883" fill="none" id="den__provides__primary_user-to-networking" style="stroke:#A6ADC8;stroke-width:1;"/><polygon fill="#A6ADC8" points="466.29,696.3299,474.8339,696.2927,472.7027,690.684,466.29,696.3299" style="stroke:#A6ADC8;stroke-width:1;"/><text fill="#CDD6F4" font-family="'JetBrains Mono,monospace'" font-size="12" font-weight="bold" lengthAdjust="spacing" textLength="57.6005" x="615.16" y="649.32">includes</text></g><!--link desktop to networking--><g class="link" data-entity-1="ent0004" data-entity-2="ent0005" data-link-type="dependency" data-source-line="1779" id="lnk42"><path d="M229.79,309.5599 C275.01,320.2599 338.58,343.3099 369,391.2799 C428.38,484.9099 406.28,525.7299 417,636.0799 C418.49,651.4099 418.2799,660.3887 416.2299,674.8887" fill="none" id="desktop-to-networking" style="stroke:#A6ADC8;stroke-width:1;"/><polygon fill="#A6ADC8" points="415.11,682.8099,419.2004,675.3087,413.2594,674.4687,415.11,682.8099" style="stroke:#A6ADC8;stroke-width:1;"/><text fill="#CDD6F4" font-family="'JetBrains Mono,monospace'" font-size="12" font-weight="bold" lengthAdjust="spacing" textLength="57.6005" x="415.66" y="574.42">includes</text></g><!--link networking to desktop--><g class="link" data-entity-1="ent0005" data-entity-2="ent0004" data-link-type="dependency" data-source-line="1779" id="lnk48"><path d="M349.83,688.0199 C346.51,686.3399 343.22,684.6799 340,683.0799 C296.39,661.3899 285.23,656.4799 241,636.0799 C211.37,622.4199 191.74,633.4599 174,606.0799 C119.83,522.4699 145.5608,404.7041 164.3008,343.9841" fill="none" id="networking-to-desktop" style="stroke:#A6ADC8;stroke-width:1;"/><polygon fill="#A6ADC8" points="166.66,336.3399,161.4342,343.0994,167.1673,344.8688,166.66,336.3399" style="stroke:#A6ADC8;stroke-width:1;"/><text fill="#CDD6F4" font-family="'JetBrains Mono,monospace'" font-size="12" font-weight="bold" lengthAdjust="spacing" textLength="57.6005" x="175" y="574.42">includes</text></g><!--link desktop to tailscale--><g class="link" data-entity-1="ent0004" data-entity-2="ent0009" data-link-type="dependency" data-source-line="1779" id="lnk43"><path d="M127.93,320.3599 C108.01,330.7799 87.27,345.7699 76,366.2799 C14.6,477.9899 40.15,531.6699 79,653.0799 C102.88,727.7199 119.6,744.6099 172,802.8799 C181.52,813.4599 186.6587,818.5978 197.9287,827.5978" fill="none" id="desktop-to-tailscale" style="stroke:#A6ADC8;stroke-width:1;"/><polygon fill="#A6ADC8" points="204.18,832.5899,199.8008,825.2535,196.0567,829.942,204.18,832.5899" style="stroke:#A6ADC8;stroke-width:1;"/><text fill="#CDD6F4" font-family="'JetBrains Mono,monospace'" font-size="12" font-weight="bold" lengthAdjust="spacing" textLength="57.6005" x="80" y="649.32">includes</text></g><!--link tailscale to desktop--><g class="link" data-entity-1="ent0009" data-entity-2="ent0004" data-link-type="dependency" data-source-line="1779" id="lnk50"><path d="M237.16,832.8399 C205.54,772.5999 144.22,652.2799 134,606.0799 C113.38,512.8699 112.82,484.3699 134,391.2799 C138.32,372.2999 143.4816,359.7924 152.3316,343.7724" fill="none" id="tailscale-to-desktop" style="stroke:#A6ADC8;stroke-width:1;"/><polygon fill="#A6ADC8" points="156.2,336.7699,149.7056,342.3218,154.9575,345.2231,156.2,336.7699" style="stroke:#A6ADC8;stroke-width:1;"/><text fill="#CDD6F4" font-family="'JetBrains Mono,monospace'" font-size="12" font-weight="bold" lengthAdjust="spacing" textLength="57.6005" x="151.05" y="649.32">includes</text></g><!--link desktop to regreet--><g class="link" data-entity-1="ent0004" data-entity-2="ent0008" data-link-type="dependency" data-source-line="1779" id="lnk44"><path d="M229.73,332.8899 C241.23,342.3499 252.31,353.6099 260,366.2799 C291.63,418.3799 299.0279,482.5456 300.6379,525.1456" fill="none" id="desktop-to-regreet" style="stroke:#A6ADC8;stroke-width:1;"/><polygon fill="#A6ADC8" points="300.94,533.1399,303.6357,525.0323,297.64,525.2589,300.94,533.1399" style="stroke:#A6ADC8;stroke-width:1;"/><text fill="#CDD6F4" font-family="'JetBrains Mono,monospace'" font-size="12" font-weight="bold" lengthAdjust="spacing" textLength="57.6005" x="269" y="379.52">includes</text></g><!--link regreet to desktop--><g class="link" data-entity-1="ent0008" data-entity-2="ent0004" data-link-type="dependency" data-source-line="1779" id="lnk49"><path d="M294.82,532.8799 C285.98,492.5799 265.79,427.9499 223,391.2799 C212.52,382.2999 202.3,393.4799 193,383.2799 C181.66,370.8399 178.1726,360.7471 177.2626,344.6871" fill="none" id="regreet-to-desktop" style="stroke:#A6ADC8;stroke-width:1;"/><polygon fill="#A6ADC8" points="176.81,336.6999,174.2674,344.8568,180.2578,344.5174,176.81,336.6999" style="stroke:#A6ADC8;stroke-width:1;"/><text fill="#CDD6F4" font-family="'JetBrains Mono,monospace'" font-size="12" font-weight="bold" lengthAdjust="spacing" textLength="57.6005" x="194" y="379.52">includes</text></g><!--link dev_tools to hyprland--><g class="link" data-entity-1="ent0018" data-entity-2="ent0019" data-link-type="dependency" data-source-line="1779" id="lnk47"><path d="M1246.49,984.3399 C1258.55,975.4199 1270.74,965.3299 1281,954.6799 C1294.91,940.2399 1303.3504,928.7513 1313.0804,912.8713" fill="none" id="dev_tools-to-hyprland" style="stroke:#A6ADC8;stroke-width:1;"/><polygon fill="#A6ADC8" points="1317.26,906.0499,1310.5224,911.3039,1315.6384,914.4386,1317.26,906.0499" style="stroke:#A6ADC8;stroke-width:1;"/><text fill="#CDD6F4" font-family="'JetBrains Mono,monospace'" font-size="12" font-weight="bold" lengthAdjust="spacing" textLength="57.6005" x="1296.42" y="950.92">includes</text></g><!--link hyprland to dev_tools--><g class="link" data-entity-1="ent0019" data-entity-2="ent0018" data-link-type="dependency" data-source-line="1779" id="lnk55"><path d="M1275.91,906.1499 C1261.64,914.1599 1246.4,922.4299 1232,929.6799 C1224.18,933.6199 1219.76,931.0899 1214,937.6799 C1202.73,950.5799 1198.3137,960.6762 1195.1337,976.5262" fill="none" id="hyprland-to-dev_tools" style="stroke:#A6ADC8;stroke-width:1;"/><polygon fill="#A6ADC8" points="1193.56,984.3699,1198.0751,977.1164,1192.1923,975.9361,1193.56,984.3699" style="stroke:#A6ADC8;stroke-width:1;"/><text fill="#CDD6F4" font-family="'JetBrains Mono,monospace'" font-size="12" font-weight="bold" lengthAdjust="spacing" textLength="57.6005" x="1215" y="950.92">includes</text></g><!--link regreet to networking--><g class="link" data-entity-1="ent0008" data-entity-2="ent0005" data-link-type="dependency" data-source-line="1779" id="lnk51"><path d="M322.54,606.1799 C331.83,620.9499 343.06,638.1099 354,653.0799 C361.21,662.9499 364.3371,667.1122 372.1371,676.5922" fill="none" id="regreet-to-networking" style="stroke:#A6ADC8;stroke-width:1;"/><polygon fill="#A6ADC8" points="377.22,682.7699,374.4537,674.6861,369.8204,678.4983,377.22,682.7699" style="stroke:#A6ADC8;stroke-width:1;"/><text fill="#CDD6F4" font-family="'JetBrains Mono,monospace'" font-size="12" font-weight="bold" lengthAdjust="spacing" textLength="57.6005" x="355" y="649.32">includes</text></g><!--link tailscale to networking--><g class="link" data-entity-1="ent0009" data-entity-2="ent0005" data-link-type="dependency" data-source-line="1779" id="lnk52"><path d="M309.58,844.3199 C329.08,833.6999 350.2,819.7399 366,802.8799 C378.52,789.5199 384.977,779.0375 391.887,763.3975" fill="none" id="tailscale-to-networking" style="stroke:#A6ADC8;stroke-width:1;"/><polygon fill="#A6ADC8" points="395.12,756.0799,389.1429,762.1851,394.6311,764.6099,395.12,756.0799" style="stroke:#A6ADC8;stroke-width:1;"/><text fill="#CDD6F4" font-family="'JetBrains Mono,monospace'" font-size="12" font-weight="bold" lengthAdjust="spacing" textLength="57.6005" x="379.4" y="799.12">includes</text></g><!--link networking to tailscale--><g class="link" data-entity-1="ent0005" data-entity-2="ent0009" data-link-type="dependency" data-source-line="1779" id="lnk53"><path d="M349.67,747.5999 C331.9,757.8199 313.3,770.6999 299,785.8799 C286.38,799.2699 279.7925,809.7879 272.6825,825.4179" fill="none" id="networking-to-tailscale" style="stroke:#A6ADC8;stroke-width:1;"/><polygon fill="#A6ADC8" points="269.37,832.6999,275.4133,826.6601,269.9518,824.1757,269.37,832.6999" style="stroke:#A6ADC8;stroke-width:1;"/><text fill="#CDD6F4" font-family="'JetBrains Mono,monospace'" font-size="12" font-weight="bold" lengthAdjust="spacing" textLength="57.6005" x="300" y="799.12">includes</text></g><!--link regreet to tailscale--><g class="link" data-entity-1="ent0008" data-entity-2="ent0009" data-link-type="dependency" data-source-line="1779" id="lnk54"><path d="M290.57,606.5799 C284.57,628.4999 277.38,657.1999 273,683.0799 C264.26,734.6499 260.2321,787.1327 258.1121,824.5827" fill="none" id="regreet-to-tailscale" style="stroke:#A6ADC8;stroke-width:1;"/><polygon fill="#A6ADC8" points="257.66,832.5699,261.1074,824.7523,255.1169,824.4132,257.66,832.5699" style="stroke:#A6ADC8;stroke-width:1;"/><text fill="#CDD6F4" font-family="'JetBrains Mono,monospace'" font-size="12" font-weight="bold" lengthAdjust="spacing" textLength="57.6005" x="274" y="724.22">includes</text></g><!--link primary_user to demo_shell--><g class="link" data-entity-1="ent0006" data-entity-2="ent0017" data-link-type="dependency" data-source-line="1779" id="lnk58"><path d="M648.63,598.6499 C655.46,601.2899 662.34,603.8199 669,606.0799 C797.38,649.5999 944.4186,685.1682 1026.8486,703.8882" fill="none" id="primary_user-to-demo_shell" style="stroke:#A6ADC8;stroke-width:1;"/><polygon fill="#A6ADC8" points="1034.65,705.6599,1027.513,700.9627,1026.1843,706.8137,1034.65,705.6599" style="stroke:#A6ADC8;stroke-width:1;"/><text fill="#CDD6F4" font-family="'JetBrains Mono,monospace'" font-size="12" font-weight="bold" lengthAdjust="spacing" textLength="57.6005" x="819.94" y="649.32">includes</text></g><!--link primary_user to networking--><g class="link" data-entity-1="ent0006" data-entity-2="ent0005" data-link-type="dependency" data-source-line="1779" id="lnk59"><path d="M550.9,598.4799 C522.52,622.3099 487.5872,651.6462 456.7472,677.5362" fill="none" id="primary_user-to-networking" style="stroke:#A6ADC8;stroke-width:1;"/><polygon fill="#A6ADC8" points="450.62,682.6799,458.6761,679.8339,454.8183,675.2385,450.62,682.6799" style="stroke:#A6ADC8;stroke-width:1;"/><text fill="#CDD6F4" font-family="'JetBrains Mono,monospace'" font-size="12" font-weight="bold" lengthAdjust="spacing" textLength="57.6005" x="502.28" y="649.32">includes</text></g><?plantuml-src fPRVRvim4CVV-IiOU-cqeYnjb5NJj8T4siEaJbFt1o0NhWcAiP4noQAf__kCCTZyi85EaH9ZV-w-T-UpoRkKnBXCmF-wtwpscsXFivmI8FoRLvnIaYE6ClyPnQS3eoL9zXHJvhzVmnhkm20IU44bvjyfuGg9asJxiXb7Vg8C_E07y1r3AIdyHqheRIQ-YXp541X6Y35wKHxH5YNnGt_H9VaBM479hX_z_Vh-RZF2KPO0iudLZ4ljzxNWa4shASwfLZCkjRrO4yK3DYseKQTcYxbbLN_CaMtG2Lc5kMHtbH1YrsdLbZH5j_7dJm_R4Sgb-GGnH-I0OLfKeyvKMsmewtayvHXqDVnp2fSlliJ3PoP205vuNjqOKHF_ZLoFclLRF-WQ11_ylvwljrOR7cd11LxzACZNuZS952TESm6eKI269Fr3XSSUIe1VA1Cv7YgaVR0Rv2pDH0HHMG0Ja7eCgyVAQC0dGA8eP_ISYbYgKS-yNbZr_OoBCpWmW2fpDRAZecAuY146GRHZ4tyThsoyYTHT9yidHwCbxgGbGE5ca5KzFRiurNOISRkQBfgvEVPPoKk4cubE9FLIs2oDUaCuZI6AE9M1o7QiPbQSXd9YHlLK0MJ2mw99TutRGFPl1e-8e0EmZ-FRc416e-886Cljo6We7th68sPdaGV5XRGwXt8yPNIyvWmZabIO6jg2V1KVxmbmar8dJFLIhhWEeaCQ9mpzSQ1tU6mwhWCtPcDkkREl5neRxRpGSjZ8FGTJ_98q5lgoPpNbQ7Y-t0wqqd-aqs7VcehBoTAzicQrr54dgBVNTeQbFjls8sfIpJtdG1otWVC0kouQfs7dHJymLFyNPa7cczN6w1VrW6ZpjbQf9Tp9jfXzKynyz9-Y7jJ6QYMCZAUzk6feE79XvfgZsgsaWz6rSNISXYnxOdgnRydyJftLcly0?></g></svg>