<?plantuml 1.2026.2?><svg xmlns="http://www.w3.org/2000/svg" xmlns:xlink="http://www.w3.org/1999/xlink" contentStyleType="text/css" data-diagram-type="DESCRIPTION" height="1103px" preserveAspectRatio="none" style="width:1938px;height:1103px;background:#1E1E2E;" version="1.1" viewBox="0 0 1938 1103" width="1938px" zoomAndPan="magnify"><title>Component view: angle-brackets</title><defs/><g><rect fill="#1E1E2E" height="1103" style="stroke:none;stroke-width:1;" width="1938" x="0" y="0"/><g class="title" data-source-line="27"><text fill="#CDD6F4" font-family="'JetBrains Mono,monospace'" font-size="14" font-weight="bold" lengthAdjust="spacing" textLength="251.9989" x="836.1758" y="24.2799">Component view: angle-brackets</text></g><!--cluster angle_brackets--><g class="cluster" data-qualified-name="angle_brackets" data-source-line="1666" id="ent0002"><rect fill="none" height="1051" style="stroke:#444444;stroke-width:1;stroke-dasharray:7,7;" width="1663" x="7" y="46.4799"/><text fill="#444444" font-family="'JetBrains Mono,monospace'" font-size="16" font-weight="bold" lengthAdjust="spacing" textLength="134.4003" x="771.2999" y="84.8">angle-brackets</text><text fill="#444444" font-family="'JetBrains Mono,monospace'" font-size="12" font-weight="bold" lengthAdjust="spacing" textLength="57.6005" x="809.6998" y="101.84">[system]</text></g><!--cluster host--><g class="cluster" data-qualified-name="angle_brackets.host" data-source-line="1666" id="ent0003"><rect fill="none" height="642.4" style="stroke:#444444;stroke-width:1;stroke-dasharray:7,7;" width="818" x="31" y="129.4799"/><text fill="#444444" font-family="'JetBrains Mono,monospace'" font-size="16" font-weight="bold" lengthAdjust="spacing" textLength="38.4001" x="420.8" y="167.8">host</text><text fill="#444444" font-family="'JetBrains Mono,monospace'" font-size="12" font-weight="bold" lengthAdjust="spacing" textLength="79.2006" x="400.3997" y="184.84">[container]</text></g><!--cluster c4_default--><g class="cluster" data-qualified-name="angle_brackets.c4_default" data-source-line="1666" id="ent0010"><rect fill="none" height="778.36" style="stroke:#444444;stroke-width:1;stroke-dasharray:7,7;" width="285" x="1393" y="137.3999"/><text fill="#444444" font-family="'JetBrains Mono,monospace'" font-size="16" font-weight="bold" lengthAdjust="spacing" textLength="67.2001" x="1501.8999" y="175.72">default</text><text fill="#444444" font-family="'JetBrains Mono,monospace'" font-size="12" font-weight="bold" lengthAdjust="spacing" textLength="79.2006" x="1495.8997" y="192.76">[container]</text></g><!--cluster user--><g class="cluster" data-qualified-name="angle_brackets.user" data-source-line="1666" id="ent0015"><rect fill="none" height="674.2" style="stroke:#444444;stroke-width:1;stroke-dasharray:7,7;" width="512" x="873" y="399.2799"/><text fill="#444444" font-family="'JetBrains Mono,monospace'" font-size="16" font-weight="bold" lengthAdjust="spacing" textLength="38.4001" x="1109.8" y="437.6">user</text><text fill="#444444" font-family="'JetBrains Mono,monospace'" font-size="12" font-weight="bold" lengthAdjust="spacing" textLength="79.2006" x="1089.3997" y="454.64">[container]</text></g><!--entity desktop--><g class="entity" data-qualified-name="angle_brackets.host.desktop" data-source-line="78" id="ent0004"><rect fill="#85BBF0" height="72.8003" style="stroke:#78A8D8;stroke-width:0.5;" width="101.2006" x="182.4" y="263.4799"/><text fill="#000000" font-family="'JetBrains Mono,monospace'" font-size="12" font-style="italic" lengthAdjust="spacing" textLength="79.2006" x="193.4" y="285.72">&#171;component&#187;</text><text fill="#000000" font-family="'JetBrains Mono,monospace'" font-size="16" font-weight="bold" lengthAdjust="spacing" textLength="67.2001" x="199.4002" y="305.6401">desktop</text><text fill="#000000" font-family="'JetBrains Mono,monospace'" font-size="12" font-style="italic" lengthAdjust="spacing" textLength="50.4004" x="207.8001" y="322.6802">[nixos]</text></g><!--entity networking--><g class="entity" data-qualified-name="angle_brackets.host.networking" data-source-line="78" id="ent0005"><rect fill="#85BBF0" height="72.8003" style="stroke:#78A8D8;stroke-width:0.5;" width="116.0002" x="298" y="683.0799"/><text fill="#000000" font-family="'JetBrains Mono,monospace'" font-size="12" font-style="italic" lengthAdjust="spacing" textLength="79.2006" x="316.3998" y="705.32">&#171;component&#187;</text><text fill="#000000" font-family="'JetBrains Mono,monospace'" font-size="16" font-weight="bold" lengthAdjust="spacing" textLength="96.0002" x="308" y="725.2401">networking</text><text fill="#000000" font-family="'JetBrains Mono,monospace'" font-size="12" font-style="italic" lengthAdjust="spacing" textLength="50.4004" x="330.7999" y="742.2802">[nixos]</text></g><!--entity primary_user--><g class="entity" data-qualified-name="angle_brackets.host.primary_user" data-source-line="78" id="ent0006"><rect fill="#85BBF0" height="56.9602" style="stroke:#78A8D8;stroke-width:0.5;" width="135.2003" x="697.4" y="541.1999"/><text fill="#000000" font-family="'JetBrains Mono,monospace'" font-size="12" font-style="italic" lengthAdjust="spacing" textLength="79.2006" x="725.3998" y="563.44">&#171;component&#187;</text><text fill="#000000" font-family="'JetBrains Mono,monospace'" font-size="16" font-weight="bold" lengthAdjust="spacing" textLength="115.2003" x="707.4" y="583.3601">primary-user</text></g><!--entity den__provides__primary_user--><g class="entity" data-qualified-name="angle_brackets.host.den__provides__primary_user" data-source-line="78" id="ent0007"><rect fill="#85BBF0" height="72.8003" style="stroke:#78A8D8;stroke-width:0.5;" width="221.6004" x="441.2" y="533.2799"/><text fill="#000000" font-family="'JetBrains Mono,monospace'" font-size="12" font-style="italic" lengthAdjust="spacing" textLength="79.2006" x="512.3999" y="555.52">&#171;component&#187;</text><text fill="#000000" font-family="'JetBrains Mono,monospace'" font-size="16" font-weight="bold" lengthAdjust="spacing" textLength="201.6004" x="451.2" y="575.4401">provides/primary-user</text><text fill="#000000" font-family="'JetBrains Mono,monospace'" font-size="12" font-style="italic" lengthAdjust="spacing" textLength="50.4004" x="526.8" y="592.4802">[nixos]</text></g><!--entity regreet--><g class="entity" data-qualified-name="angle_brackets.host.regreet" data-source-line="78" id="ent0008"><rect fill="#85BBF0" height="72.8003" style="stroke:#78A8D8;stroke-width:0.5;" width="101.2006" x="305.4" y="533.2799"/><text fill="#000000" font-family="'JetBrains Mono,monospace'" font-size="12" font-style="italic" lengthAdjust="spacing" textLength="79.2006" x="316.4" y="555.52">&#171;component&#187;</text><text fill="#000000" font-family="'JetBrains Mono,monospace'" font-size="16" font-weight="bold" lengthAdjust="spacing" textLength="67.2001" x="322.4002" y="575.4401">regreet</text><text fill="#000000" font-family="'JetBrains Mono,monospace'" font-size="12" font-style="italic" lengthAdjust="spacing" textLength="50.4004" x="330.8001" y="592.4802">[nixos]</text></g><!--entity tailscale--><g class="entity" data-qualified-name="angle_brackets.host.tailscale" data-source-line="78" id="ent0009"><rect fill="#85BBF0" height="56.9602" style="stroke:#78A8D8;stroke-width:0.5;" width="106.4002" x="512.8" y="271.3999"/><text fill="#000000" font-family="'JetBrains Mono,monospace'" font-size="12" font-style="italic" lengthAdjust="spacing" textLength="79.2006" x="526.3998" y="293.64">&#171;component&#187;</text><text fill="#000000" font-family="'JetBrains Mono,monospace'" font-size="16" font-weight="bold" lengthAdjust="spacing" textLength="86.4002" x="522.8" y="313.5601">tailscale</text></g><!--entity den__provides__define_user--><g class="entity" data-qualified-name="angle_brackets.c4_default.den__provides__define_user" data-source-line="78" id="ent0011"><rect fill="#85BBF0" height="56.9602" style="stroke:#78A8D8;stroke-width:0.5;" width="212.0004" x="1365" y="271.3999"/><text fill="#000000" font-family="'JetBrains Mono,monospace'" font-size="12" font-style="italic" lengthAdjust="spacing" textLength="79.2006" x="1431.3999" y="293.64">&#171;component&#187;</text><text fill="#000000" font-family="'JetBrains Mono,monospace'" font-size="16" font-weight="bold" lengthAdjust="spacing" textLength="192.0004" x="1375" y="313.5601">provides/define-user</text></g><!--entity den__provides__hostname--><g class="entity" data-qualified-name="angle_brackets.c4_default.den__provides__hostname" data-source-line="78" id="ent0012"><rect fill="#85BBF0" height="56.9602" style="stroke:#78A8D8;stroke-width:0.5;" width="183.2004" x="1412.4" y="541.1999"/><text fill="#000000" font-family="'JetBrains Mono,monospace'" font-size="12" font-style="italic" lengthAdjust="spacing" textLength="79.2006" x="1464.3999" y="563.44">&#171;component&#187;</text><text fill="#000000" font-family="'JetBrains Mono,monospace'" font-size="16" font-weight="bold" lengthAdjust="spacing" textLength="163.2004" x="1422.4" y="583.3601">provides/hostname</text></g><!--entity den__provides__mutual_provider--><g class="entity" data-qualified-name="angle_brackets.c4_default.den__provides__mutual_provider" data-source-line="78" id="ent0013"><rect fill="#85BBF0" height="56.9602" style="stroke:#78A8D8;stroke-width:0.5;" width="250.4005" x="1411.8" y="842.7999"/><text fill="#000000" font-family="'JetBrains Mono,monospace'" font-size="12" font-style="italic" lengthAdjust="spacing" textLength="79.2006" x="1497.3999" y="865.04">&#171;component&#187;</text><text fill="#000000" font-family="'JetBrains Mono,monospace'" font-size="16" font-weight="bold" lengthAdjust="spacing" textLength="230.4005" x="1421.8" y="884.9601">provides/mutual-provider</text></g><!--entity alice__to_hosts--><g class="entity" data-qualified-name="angle_brackets.c4_default.alice__to_hosts" data-source-line="78" id="ent0014"><rect fill="#85BBF0" height="72.8003" style="stroke:#78A8D8;stroke-width:0.5;" width="154.4003" x="1408.8" y="683.0799"/><text fill="#000000" font-family="'JetBrains Mono,monospace'" font-size="12" font-style="italic" lengthAdjust="spacing" textLength="79.2006" x="1446.3998" y="705.32">&#171;component&#187;</text><text fill="#000000" font-family="'JetBrains Mono,monospace'" font-size="16" font-weight="bold" lengthAdjust="spacing" textLength="134.4003" x="1418.8" y="725.2401">alice/to-hosts</text><text fill="#000000" font-family="'JetBrains Mono,monospace'" font-size="12" font-style="italic" lengthAdjust="spacing" textLength="50.4004" x="1460.7999" y="742.2802">[nixos]</text></g><!--entity alice--><g class="entity" data-qualified-name="angle_brackets.user.alice" data-source-line="78" id="ent0016"><rect fill="#85BBF0" height="72.8003" style="stroke:#78A8D8;stroke-width:0.5;" width="156.8011" x="1217.6" y="533.2799"/><text fill="#000000" font-family="'JetBrains Mono,monospace'" font-size="12" font-style="italic" lengthAdjust="spacing" textLength="79.2006" x="1256.4002" y="555.52">&#171;component&#187;</text><text fill="#000000" font-family="'JetBrains Mono,monospace'" font-size="16" font-weight="bold" lengthAdjust="spacing" textLength="48.0001" x="1272.0005" y="575.4401">alice</text><text fill="#000000" font-family="'JetBrains Mono,monospace'" font-size="12" font-style="italic" lengthAdjust="spacing" textLength="136.8011" x="1227.6" y="592.4802">[homeManager+nixos]</text></g><!--entity demo_shell--><g class="entity" data-qualified-name="angle_brackets.user.demo_shell" data-source-line="78" id="ent0017"><rect fill="#85BBF0" height="72.8003" style="stroke:#78A8D8;stroke-width:0.5;" width="116.0002" x="889" y="683.0799"/><text fill="#000000" font-family="'JetBrains Mono,monospace'" font-size="12" font-style="italic" lengthAdjust="spacing" textLength="79.2006" x="907.3998" y="705.32">&#171;component&#187;</text><text fill="#000000" font-family="'JetBrains Mono,monospace'" font-size="16" font-weight="bold" lengthAdjust="spacing" textLength="96.0002" x="899" y="725.2401">demo-shell</text><text fill="#000000" font-family="'JetBrains Mono,monospace'" font-size="12" font-style="italic" lengthAdjust="spacing" textLength="93.6008" x="900.1997" y="742.2802">[homeManager]</text></g><!--entity dev_tools--><g class="entity" data-qualified-name="angle_brackets.user.dev_tools" data-source-line="78" id="ent0018"><rect fill="#85BBF0" height="72.8003" style="stroke:#78A8D8;stroke-width:0.5;" width="113.6008" x="1154.2" y="984.6799"/><text fill="#000000" font-family="'JetBrains Mono,monospace'" font-size="12" font-style="italic" lengthAdjust="spacing" textLength="79.2006" x="1171.4001" y="1006.92">&#171;component&#187;</text><text fill="#000000" font-family="'JetBrains Mono,monospace'" font-size="16" font-weight="bold" lengthAdjust="spacing" textLength="86.4002" x="1167.8003" y="1026.8401">dev-tools</text><text fill="#000000" font-family="'JetBrains Mono,monospace'" font-size="12" font-style="italic" lengthAdjust="spacing" textLength="93.6008" x="1164.2" y="1043.8802">[homeManager]</text></g><!--entity hyprland--><g class="entity" data-qualified-name="angle_brackets.user.hyprland" data-source-line="78" id="ent0019"><rect fill="#85BBF0" height="72.8003" style="stroke:#78A8D8;stroke-width:0.5;" width="156.8011" x="1017.6" y="834.8799"/><text fill="#000000" font-family="'JetBrains Mono,monospace'" font-size="12" font-style="italic" lengthAdjust="spacing" textLength="79.2006" x="1056.4002" y="857.12">&#171;component&#187;</text><text fill="#000000" font-family="'JetBrains Mono,monospace'" font-size="16" font-weight="bold" lengthAdjust="spacing" textLength="76.8002" x="1057.6005" y="877.0401">hyprland</text><text fill="#000000" font-family="'JetBrains Mono,monospace'" font-size="12" font-style="italic" lengthAdjust="spacing" textLength="136.8011" x="1027.6" y="894.0802">[homeManager+nixos]</text></g><!--link alice to demo_shell--><g class="link" data-entity-1="ent0016" data-entity-2="ent0017" data-link-type="dependency" data-source-line="1779" id="lnk20"><path d="M1217.16,576.5599 C1159.19,583.8099 1080.32,599.9799 1020,636.0799 C1000.48,647.7599 988.2173,660.0386 975.4573,676.6286" fill="none" id="alice-to-demo_shell" style="stroke:#A6ADC8;stroke-width:1;"/><polygon fill="#A6ADC8" points="970.58,682.9699,977.8353,678.4576,973.0793,674.7996,970.58,682.9699" style="stroke:#A6ADC8;stroke-width:1;"/><text fill="#CDD6F4" font-family="'JetBrains Mono,monospace'" font-size="12" font-weight="bold" lengthAdjust="spacing" textLength="57.6005" x="1021" y="649.32">includes</text></g><!--link demo_shell to alice--><g class="link" data-entity-1="ent0017" data-entity-2="ent0016" data-link-type="dependency" data-source-line="1779" id="lnk38"><path d="M928.6,682.6999 C923.21,666.8399 921.27,648.9099 932,636.0799 C967.63,593.4799 1113.3516,579.0213 1209.2716,573.8413" fill="none" id="demo_shell-to-alice" style="stroke:#A6ADC8;stroke-width:1;"/><polygon fill="#A6ADC8" points="1217.26,573.4099,1209.1099,570.8457,1209.4334,576.837,1217.26,573.4099" style="stroke:#A6ADC8;stroke-width:1;"/><text fill="#CDD6F4" font-family="'JetBrains Mono,monospace'" font-size="12" font-weight="bold" lengthAdjust="spacing" textLength="57.6005" x="933" y="649.32">includes</text></g><!--link alice to dev_tools--><g class="link" data-entity-1="ent0016" data-entity-2="ent0018" data-link-type="dependency" data-source-line="1779" id="lnk21"><path d="M1302.72,606.2899 C1304.5,615.9399 1306.37,626.3999 1308,636.0799 C1320.63,710.9299 1311.95,732.2499 1334,804.8799 C1338.27,818.9599 1344.81,820.5099 1348,834.8799 C1359.53,886.8599 1376.4,909.6399 1348,954.6799 C1330.42,982.5399 1304.9717,996.3588 1275.7217,1005.6888" fill="none" id="alice-to-dev_tools" style="stroke:#A6ADC8;stroke-width:1;"/><polygon fill="#A6ADC8" points="1268.1,1008.1199,1276.6333,1008.5469,1274.81,1002.8307,1268.1,1008.1199" style="stroke:#A6ADC8;stroke-width:1;"/><text fill="#CDD6F4" font-family="'JetBrains Mono,monospace'" font-size="12" font-weight="bold" lengthAdjust="spacing" textLength="57.6005" x="1335" y="801.12">includes</text></g><!--link dev_tools to alice--><g class="link" data-entity-1="ent0018" data-entity-2="ent0016" data-link-type="dependency" data-source-line="1779" id="lnk44"><path d="M1252.02,984.3999 C1268.05,967.7799 1284.58,946.6399 1293,923.7599 C1306.64,886.6899 1308.42,871.2499 1293,834.8799 C1285.52,817.2299 1269.48,822.5299 1262,804.8799 C1259.05,797.9199 1257.58,794.0099 1262,787.8799 C1268.57,778.7599 1279.21,788.8399 1286,779.8799 C1305.98,753.5099 1303.1603,666.881 1299.5403,614.381" fill="none" id="dev_tools-to-alice" style="stroke:#A6ADC8;stroke-width:1;"/><polygon fill="#A6ADC8" points="1298.99,606.3999,1296.5474,614.5873,1302.5332,614.1746,1298.99,606.3999" style="stroke:#A6ADC8;stroke-width:1;"/><text fill="#CDD6F4" font-family="'JetBrains Mono,monospace'" font-size="12" font-weight="bold" lengthAdjust="spacing" textLength="57.6005" x="1263" y="801.12">includes</text></g><!--link alice to hyprland--><g class="link" data-entity-1="ent0016" data-entity-2="ent0019" data-link-type="dependency" data-source-line="1779" id="lnk22"><path d="M1272.07,606.5199 C1233.61,664.1399 1162.8821,770.0965 1124.3921,827.7465" fill="none" id="alice-to-hyprland" style="stroke:#A6ADC8;stroke-width:1;"/><polygon fill="#A6ADC8" points="1119.95,834.3999,1126.8871,829.4123,1121.8971,826.0807,1119.95,834.3999" style="stroke:#A6ADC8;stroke-width:1;"/><text fill="#CDD6F4" font-family="'JetBrains Mono,monospace'" font-size="12" font-weight="bold" lengthAdjust="spacing" textLength="57.6005" x="1220.15" y="724.22">includes</text></g><!--link hyprland to alice--><g class="link" data-entity-1="ent0019" data-entity-2="ent0016" data-link-type="dependency" data-source-line="1779" id="lnk51"><path d="M1097.29,834.6399 C1097.58,824.9899 1097.85,814.5299 1098,804.8799 C1098.12,797.3199 1100.89,794.8599 1098,787.8799 C1096.08,783.2299 1091.92,784.5199 1090,779.8799 C1073.54,740.1299 1068.04,720.0799 1090,683.0799 C1117.45,636.8299 1163.8437,611.1295 1209.6337,594.4395" fill="none" id="hyprland-to-alice" style="stroke:#A6ADC8;stroke-width:1;"/><polygon fill="#A6ADC8" points="1217.15,591.6999,1208.6064,591.6209,1210.6611,597.2581,1217.15,591.6999" style="stroke:#A6ADC8;stroke-width:1;"/><text fill="#CDD6F4" font-family="'JetBrains Mono,monospace'" font-size="12" font-weight="bold" lengthAdjust="spacing" textLength="57.6005" x="1091" y="724.22">includes</text></g><!--link alice to primary_user--><g class="link" data-entity-1="ent0016" data-entity-2="ent0006" data-link-type="dependency" data-source-line="1779" id="lnk23"><path d="M1217.49,569.6799 C1113.44,569.6799 939.57,569.6799 841.06,569.6799" fill="none" id="alice-to-primary_user" style="stroke:#A6ADC8;stroke-width:1;"/><polygon fill="#A6ADC8" points="833.06,569.6799,841.06,572.6799,841.06,566.6799,833.06,569.6799" style="stroke:#A6ADC8;stroke-width:1;"/><text fill="#CDD6F4" font-family="'JetBrains Mono,monospace'" font-size="12" font-weight="bold" lengthAdjust="spacing" textLength="57.6005" x="996.6" y="562.92">includes</text></g><!--link alice to den__provides__primary_user--><g class="link" data-entity-1="ent0016" data-entity-2="ent0007" data-link-type="dependency" data-source-line="1779" id="lnk24"><path d="M1240.12,532.9099 C1129.09,464.8199 874.61,333.7399 680,422.4299 C630.53,444.9699 596.8702,490.2546 575.5902,526.0246" fill="none" id="alice-to-den__provides__primary_user" style="stroke:#A6ADC8;stroke-width:1;"/><polygon fill="#A6ADC8" points="571.5,532.8999,578.1685,527.5584,573.012,524.4908,571.5,532.8999" style="stroke:#A6ADC8;stroke-width:1;"/><text fill="#CDD6F4" font-family="'JetBrains Mono,monospace'" font-size="12" font-weight="bold" lengthAdjust="spacing" textLength="57.6005" x="1124.5" y="379.52">includes</text></g><!--link alice__to_hosts to den__provides__define_user--><g class="link" data-entity-1="ent0014" data-entity-2="ent0011" data-link-type="dependency" data-source-line="1779" id="lnk25"><path d="M1481.16,682.6999 C1469.92,605.5199 1439.42,427.4299 1393,391.2799 C1369.23,372.7699 1142.98,404.8899 1122,383.2799 C1116.74,377.8599 1117.17,372.0899 1122,366.2799 C1152.46,329.5799 1265.6542,313.9717 1356.7242,306.8717" fill="none" id="alice__to_hosts-to-den__provides__define_user" style="stroke:#A6ADC8;stroke-width:1;"/><polygon fill="#A6ADC8" points="1364.7,306.2499,1356.491,303.8808,1356.9574,309.8627,1364.7,306.2499" style="stroke:#A6ADC8;stroke-width:1;"/><text fill="#CDD6F4" font-family="'JetBrains Mono,monospace'" font-size="12" font-weight="bold" lengthAdjust="spacing" textLength="57.6005" x="1468.78" y="574.42">includes</text></g><!--link den__provides__define_user to alice__to_hosts--><g class="link" data-entity-1="ent0011" data-entity-2="ent0014" data-link-type="dependency" data-source-line="1779" id="lnk35"><path d="M1460.66,328.6199 C1456.01,346.3699 1454.07,368.7099 1467,383.2799 C1486.91,405.7099 1514.09,368.8499 1534,391.2799 C1597.38,462.6699 1553.13,512.5499 1534,606.0799 C1528.51,632.8999 1519.933,654.0672 1509.233,675.5772" fill="none" id="den__provides__define_user-to-alice__to_hosts" style="stroke:#A6ADC8;stroke-width:1;"/><polygon fill="#A6ADC8" points="1505.67,682.7399,1511.9191,676.9133,1506.547,674.241,1505.67,682.7399" style="stroke:#A6ADC8;stroke-width:1;"/><text fill="#CDD6F4" font-family="'JetBrains Mono,monospace'" font-size="12" font-weight="bold" lengthAdjust="spacing" textLength="57.6005" x="1567.92" y="574.42">includes</text></g><!--link alice__to_hosts to den__provides__hostname--><g class="link" data-entity-1="ent0014" data-entity-2="ent0012" data-link-type="dependency" data-source-line="1779" id="lnk26"><path d="M1563.41,692.2299 C1603.56,677.8399 1645.42,661.2999 1651,653.0799 C1655.25,646.8299 1655.12,642.4199 1651,636.0799 C1638.07,616.1699 1624.8255,605.5303 1603.1355,595.8503" fill="none" id="alice__to_hosts-to-den__provides__hostname" style="stroke:#A6ADC8;stroke-width:1;"/><polygon fill="#A6ADC8" points="1595.83,592.5899,1601.9129,598.5898,1604.3581,593.1107,1595.83,592.5899" style="stroke:#A6ADC8;stroke-width:1;"/><text fill="#CDD6F4" font-family="'JetBrains Mono,monospace'" font-size="12" font-weight="bold" lengthAdjust="spacing" textLength="57.6005" x="1655.14" y="649.32">includes</text></g><!--link den__provides__hostname to alice__to_hosts--><g class="link" data-entity-1="ent0012" data-entity-2="ent0014" data-link-type="dependency" data-source-line="1779" id="lnk36"><path d="M1535.1,598.3199 C1548.71,613.8799 1559.96,633.9799 1552,653.0799 C1547.47,663.9499 1545.6226,668.0953 1537.4726,676.8153" fill="none" id="den__provides__hostname-to-alice__to_hosts" style="stroke:#A6ADC8;stroke-width:1;"/><polygon fill="#A6ADC8" points="1532.01,682.6599,1539.6643,678.8637,1535.2809,674.7668,1532.01,682.6599" style="stroke:#A6ADC8;stroke-width:1;"/><text fill="#CDD6F4" font-family="'JetBrains Mono,monospace'" font-size="12" font-weight="bold" lengthAdjust="spacing" textLength="57.6005" x="1555.64" y="649.32">includes</text></g><!--link alice__to_hosts to den__provides__mutual_provider--><g class="link" data-entity-1="ent0014" data-entity-2="ent0013" data-link-type="dependency" data-source-line="1779" id="lnk27"><path d="M1503.18,756.0499 C1507.71,766.1999 1512.35,777.3499 1516,787.8799 C1522.2,805.7299 1525.6624,818.5322 1529.3624,834.6722" fill="none" id="alice__to_hosts-to-den__provides__mutual_provider" style="stroke:#A6ADC8;stroke-width:1;"/><polygon fill="#A6ADC8" points="1531.15,842.4699,1532.2866,834.0018,1526.4383,835.3425,1531.15,842.4699" style="stroke:#A6ADC8;stroke-width:1;"/><text fill="#CDD6F4" font-family="'JetBrains Mono,monospace'" font-size="12" font-weight="bold" lengthAdjust="spacing" textLength="57.6005" x="1521.97" y="801.12">includes</text></g><!--link den__provides__mutual_provider to alice__to_hosts--><g class="link" data-entity-1="ent0013" data-entity-2="ent0014" data-link-type="dependency" data-source-line="1779" id="lnk30"><path d="M1483.23,842.4199 C1469.56,832.5299 1456.61,820.0199 1449,804.8799 C1441.1,789.1599 1442.6967,778.2215 1451.7967,763.0415" fill="none" id="den__provides__mutual_provider-to-alice__to_hosts" style="stroke:#A6ADC8;stroke-width:1;"/><polygon fill="#A6ADC8" points="1455.91,756.1799,1449.2236,761.499,1454.3698,764.5839,1455.91,756.1799" style="stroke:#A6ADC8;stroke-width:1;"/><text fill="#CDD6F4" font-family="'JetBrains Mono,monospace'" font-size="12" font-weight="bold" lengthAdjust="spacing" textLength="57.6005" x="1450" y="801.12">includes</text></g><!--link den__provides__mutual_provider to den__provides__define_user--><g class="link" data-entity-1="ent0013" data-entity-2="ent0011" data-link-type="dependency" data-source-line="1779" id="lnk28"><path d="M1597.65,842.3199 C1615.54,832.1999 1634.25,819.5799 1649,804.8799 C1655.21,798.6899 1651.5,792.4199 1659,787.8799 C1674.51,778.4899 1809.5,793.0099 1822,779.8799 C1851.67,748.7199 1840.52,721.9099 1822,683.0799 C1807.72,653.1299 1793.42,651.4299 1764,636.0799 C1721.35,613.8199 1692.64,641.4199 1660,606.0799 C1586.19,526.1699 1678.35,451.6999 1611,366.2799 C1598.46,350.3699 1588.2614,341.8048 1570.0714,332.4948" fill="none" id="den__provides__mutual_provider-to-den__provides__define_user" style="stroke:#A6ADC8;stroke-width:1;"/><polygon fill="#A6ADC8" points="1562.95,328.8499,1568.7046,335.1653,1571.4383,329.8243,1562.95,328.8499" style="stroke:#A6ADC8;stroke-width:1;"/><text fill="#CDD6F4" font-family="'JetBrains Mono,monospace'" font-size="12" font-weight="bold" lengthAdjust="spacing" textLength="57.6005" x="1797.99" y="649.32">includes</text></g><!--link den__provides__define_user to den__provides__mutual_provider--><g class="link" data-entity-1="ent0011" data-entity-2="ent0013" data-link-type="dependency" data-source-line="1779" id="lnk33"><path d="M1551.21,328.8099 C1575.79,338.9599 1602.32,351.5999 1625,366.2799 C1722.21,429.1699 1766.9,377.3799 1863,636.0799 C1879.11,679.4599 1930.14,679.1899 1840,779.8799 C1795.33,829.7799 1732.3124,851.3424 1670.3224,861.6124" fill="none" id="den__provides__define_user-to-den__provides__mutual_provider" style="stroke:#A6ADC8;stroke-width:1;"/><polygon fill="#A6ADC8" points="1662.43,862.9199,1670.8128,864.572,1669.8321,858.6527,1662.43,862.9199" style="stroke:#A6ADC8;stroke-width:1;"/><text fill="#CDD6F4" font-family="'JetBrains Mono,monospace'" font-size="12" font-weight="bold" lengthAdjust="spacing" textLength="57.6005" x="1872.75" y="649.32">includes</text></g><!--link den__provides__mutual_provider to den__provides__hostname--><g class="link" data-entity-1="ent0013" data-entity-2="ent0012" data-link-type="dependency" data-source-line="1779" id="lnk29"><path d="M1592.72,842.3799 C1609.82,832.1299 1627.83,819.4099 1642,804.8799 C1648.12,798.5999 1644.78,792.8399 1652,787.8799 C1669.82,775.6299 1682.87,793.0799 1700,779.8799 C1751.49,740.1899 1765.71,646.9599 1757,636.0799 C1718.85,588.4399 1682.06,621.4599 1623,606.0799 C1614.03,603.7399 1612.4197,603.3614 1603.1297,600.7414" fill="none" id="den__provides__mutual_provider-to-den__provides__hostname" style="stroke:#A6ADC8;stroke-width:1;"/><polygon fill="#A6ADC8" points="1595.43,598.5699,1602.3153,603.6288,1603.944,597.854,1595.43,598.5699" style="stroke:#A6ADC8;stroke-width:1;"/><text fill="#CDD6F4" font-family="'JetBrains Mono,monospace'" font-size="12" font-weight="bold" lengthAdjust="spacing" textLength="57.6005" x="1755.69" y="724.22">includes</text></g><!--link den__provides__hostname to den__provides__mutual_provider--><g class="link" data-entity-1="ent0012" data-entity-2="ent0013" data-link-type="dependency" data-source-line="1779" id="lnk34"><path d="M1596.03,598.0899 C1654.94,615.6799 1720.48,635.3799 1721,636.0799 C1754.79,681.5499 1693.32,624.2699 1633,683.0799 C1591.68,723.3699 1616.08,754.4599 1588,804.8799 C1580.71,817.9599 1575.9798,825.0051 1566.9298,836.1251" fill="none" id="den__provides__hostname-to-den__provides__mutual_provider" style="stroke:#A6ADC8;stroke-width:1;"/><polygon fill="#A6ADC8" points="1561.88,842.3299,1569.2566,838.0188,1564.603,834.2314,1561.88,842.3299" style="stroke:#A6ADC8;stroke-width:1;"/><text fill="#CDD6F4" font-family="'JetBrains Mono,monospace'" font-size="12" font-weight="bold" lengthAdjust="spacing" textLength="57.6005" x="1634" y="724.22">includes</text></g><!--link den__provides__hostname to den__provides__define_user--><g class="link" data-entity-1="ent0012" data-entity-2="ent0011" data-link-type="dependency" data-source-line="1779" id="lnk31"><path d="M1499,540.8199 C1492.69,504.6399 1481.93,439.4399 1476,383.2799 C1474.09,365.1799 1473.2248,352.7507 1472.4548,336.7607" fill="none" id="den__provides__hostname-to-den__provides__define_user" style="stroke:#A6ADC8;stroke-width:1;"/><polygon fill="#A6ADC8" points="1472.07,328.7699,1469.4583,336.905,1475.4513,336.6164,1472.07,328.7699" style="stroke:#A6ADC8;stroke-width:1;"/><text fill="#CDD6F4" font-family="'JetBrains Mono,monospace'" font-size="12" font-weight="bold" lengthAdjust="spacing" textLength="57.6005" x="1477" y="379.52">includes</text></g><!--link den__provides__define_user to den__provides__hostname--><g class="link" data-entity-1="ent0011" data-entity-2="ent0012" data-link-type="dependency" data-source-line="1779" id="lnk32"><path d="M1510.27,328.6299 C1521.74,338.9999 1532.84,351.8099 1539,366.2799 C1564,425.0099 1540.286,493.2979 1521.736,533.4379" fill="none" id="den__provides__define_user-to-den__provides__hostname" style="stroke:#A6ADC8;stroke-width:1;"/><polygon fill="#A6ADC8" points="1518.38,540.6999,1524.4593,534.6964,1519.0128,532.1794,1518.38,540.6999" style="stroke:#A6ADC8;stroke-width:1;"/><text fill="#CDD6F4" font-family="'JetBrains Mono,monospace'" font-size="12" font-weight="bold" lengthAdjust="spacing" textLength="57.6005" x="1545.32" y="379.52">includes</text></g><!--link demo_shell to hyprland--><g class="link" data-entity-1="ent0017" data-entity-2="ent0019" data-link-type="dependency" data-source-line="1779" id="lnk37"><path d="M984.06,756.3299 C994.45,766.4699 1005.71,777.5599 1016,787.8799 C1031.06,802.9899 1041.951,814.1069 1055.991,828.6369" fill="none" id="demo_shell-to-hyprland" style="stroke:#A6ADC8;stroke-width:1;"/><polygon fill="#A6ADC8" points="1061.55,834.3899,1058.1484,826.5523,1053.8336,830.7215,1061.55,834.3899" style="stroke:#A6ADC8;stroke-width:1;"/><text fill="#CDD6F4" font-family="'JetBrains Mono,monospace'" font-size="12" font-weight="bold" lengthAdjust="spacing" textLength="57.6005" x="1032.46" y="801.12">includes</text></g><!--link hyprland to demo_shell--><g class="link" data-entity-1="ent0019" data-entity-2="ent0017" data-link-type="dependency" data-source-line="1779" id="lnk52"><path d="M1017.43,843.9899 C987.16,832.1699 957.71,817.9499 949,804.8799 C939.65,790.8499 937.6356,780.3723 938.9756,764.2923" fill="none" id="hyprland-to-demo_shell" style="stroke:#A6ADC8;stroke-width:1;"/><polygon fill="#A6ADC8" points="939.64,756.3199,935.986,764.0431,941.9653,764.5414,939.64,756.3199" style="stroke:#A6ADC8;stroke-width:1;"/><text fill="#CDD6F4" font-family="'JetBrains Mono,monospace'" font-size="12" font-weight="bold" lengthAdjust="spacing" textLength="57.6005" x="950" y="801.12">includes</text></g><!--link demo_shell to dev_tools--><g class="link" data-entity-1="ent0017" data-entity-2="ent0018" data-link-type="dependency" data-source-line="1779" id="lnk39"><path d="M1005.37,751.9999 C1024.92,761.7799 1047.07,772.0399 1068,779.8799 C1080.92,784.7199 1085.1,782.9899 1098,787.8799 C1141.68,804.4299 1161.75,799.2899 1192,834.8799 C1227.69,876.8699 1229.4,899.8299 1224,954.6799 C1223.05,964.3599 1222.8716,966.8818 1220.9816,976.4418" fill="none" id="demo_shell-to-dev_tools" style="stroke:#A6ADC8;stroke-width:1;"/><polygon fill="#A6ADC8" points="1219.43,984.2899,1223.9246,977.0237,1218.0385,975.86,1219.43,984.2899" style="stroke:#A6ADC8;stroke-width:1;"/><text fill="#CDD6F4" font-family="'JetBrains Mono,monospace'" font-size="12" font-weight="bold" lengthAdjust="spacing" textLength="57.6005" x="1227.3" y="876.02">includes</text></g><!--link dev_tools to demo_shell--><g class="link" data-entity-1="ent0018" data-entity-2="ent0017" data-link-type="dependency" data-source-line="1779" id="lnk45"><path d="M1153.87,1017.3599 C1090.57,1010.9799 990.87,990.2499 941,923.7599 C904.56,875.1799 917.3885,807.7378 931.3085,763.7078" fill="none" id="dev_tools-to-demo_shell" style="stroke:#A6ADC8;stroke-width:1;"/><polygon fill="#A6ADC8" points="933.72,756.0799,928.448,762.8035,934.1689,764.6121,933.72,756.0799" style="stroke:#A6ADC8;stroke-width:1;"/><text fill="#CDD6F4" font-family="'JetBrains Mono,monospace'" font-size="12" font-weight="bold" lengthAdjust="spacing" textLength="57.6005" x="942" y="876.02">includes</text></g><!--link den__provides__primary_user to demo_shell--><g class="link" data-entity-1="ent0007" data-entity-2="ent0017" data-link-type="dependency" data-source-line="1779" id="lnk40"><path d="M626.92,606.4899 C660.97,621.9899 702.05,639.6199 740,653.0799 C787.36,669.8699 801.11,667.8699 849,683.0799 C861.93,687.1899 868.1655,689.2407 881.1655,693.8807" fill="none" id="den__provides__primary_user-to-demo_shell" style="stroke:#A6ADC8;stroke-width:1;"/><polygon fill="#A6ADC8" points="888.7,696.5699,882.174,691.0553,880.1571,696.7061,888.7,696.5699" style="stroke:#A6ADC8;stroke-width:1;"/><text fill="#CDD6F4" font-family="'JetBrains Mono,monospace'" font-size="12" font-weight="bold" lengthAdjust="spacing" textLength="57.6005" x="741" y="649.32">includes</text></g><!--link den__provides__primary_user to networking--><g class="link" data-entity-1="ent0007" data-entity-2="ent0005" data-link-type="dependency" data-source-line="1779" id="lnk41"><path d="M504.55,606.4599 C473.85,629.6099 440.418,654.8239 409.738,677.9539" fill="none" id="den__provides__primary_user-to-networking" style="stroke:#A6ADC8;stroke-width:1;"/><polygon fill="#A6ADC8" points="403.35,682.7699,411.544,680.3494,407.932,675.5584,403.35,682.7699" style="stroke:#A6ADC8;stroke-width:1;"/><text fill="#CDD6F4" font-family="'JetBrains Mono,monospace'" font-size="12" font-weight="bold" lengthAdjust="spacing" textLength="57.6005" x="460.88" y="649.32">includes</text></g><!--link desktop to networking--><g class="link" data-entity-1="ent0004" data-entity-2="ent0005" data-link-type="dependency" data-source-line="1779" id="lnk42"><path d="M181.96,323.6299 C154.97,338.6399 124.34,361.1199 109,391.2799 C65.73,476.3799 58.98,524.7599 109,606.0799 C149.17,671.3899 230.2358,697.5695 289.6958,709.0795" fill="none" id="desktop-to-networking" style="stroke:#A6ADC8;stroke-width:1;"/><polygon fill="#A6ADC8" points="297.55,710.5999,290.2659,706.1342,289.1257,712.0249,297.55,710.5999" style="stroke:#A6ADC8;stroke-width:1;"/><text fill="#CDD6F4" font-family="'JetBrains Mono,monospace'" font-size="12" font-weight="bold" lengthAdjust="spacing" textLength="57.6005" x="110" y="574.42">includes</text></g><!--link networking to desktop--><g class="link" data-entity-1="ent0005" data-entity-2="ent0004" data-link-type="dependency" data-source-line="1779" id="lnk47"><path d="M297.51,683.3199 C271.36,664.1099 243.27,637.7599 229,606.0799 C188.53,516.2099 207.1104,403.5984 221.3204,344.4784" fill="none" id="networking-to-desktop" style="stroke:#A6ADC8;stroke-width:1;"/><polygon fill="#A6ADC8" points="223.19,336.6999,218.4035,343.7773,224.2373,345.1795,223.19,336.6999" style="stroke:#A6ADC8;stroke-width:1;"/><text fill="#CDD6F4" font-family="'JetBrains Mono,monospace'" font-size="12" font-weight="bold" lengthAdjust="spacing" textLength="57.6005" x="230" y="574.42">includes</text></g><!--link desktop to regreet--><g class="link" data-entity-1="ent0004" data-entity-2="ent0008" data-link-type="dependency" data-source-line="1779" id="lnk43"><path d="M233.42,336.6699 C235.41,352.7199 240.4,370.8099 252,383.2799 C260.24,392.1299 268.97,383.2399 278,391.2799 C319.96,428.6399 338.5942,484.9495 347.7142,525.0095" fill="none" id="desktop-to-regreet" style="stroke:#A6ADC8;stroke-width:1;"/><polygon fill="#A6ADC8" points="349.49,532.8099,350.6393,524.3436,344.789,525.6754,349.49,532.8099" style="stroke:#A6ADC8;stroke-width:1;"/><text fill="#CDD6F4" font-family="'JetBrains Mono,monospace'" font-size="12" font-weight="bold" lengthAdjust="spacing" textLength="57.6005" x="253" y="379.52">includes</text></g><!--link regreet to desktop--><g class="link" data-entity-1="ent0008" data-entity-2="ent0004" data-link-type="dependency" data-source-line="1779" id="lnk48"><path d="M355.99,533.1099 C354.44,490.4699 346.79,418.2799 315,366.2799 C307.12,353.3799 301.9537,347.0064 290.1537,337.4764" fill="none" id="regreet-to-desktop" style="stroke:#A6ADC8;stroke-width:1;"/><polygon fill="#A6ADC8" points="283.93,332.4499,288.2688,339.8103,292.0386,335.1425,283.93,332.4499" style="stroke:#A6ADC8;stroke-width:1;"/><text fill="#CDD6F4" font-family="'JetBrains Mono,monospace'" font-size="12" font-weight="bold" lengthAdjust="spacing" textLength="57.6005" x="324.04" y="379.52">includes</text></g><!--link dev_tools to hyprland--><g class="link" data-entity-1="ent0018" data-entity-2="ent0019" data-link-type="dependency" data-source-line="1779" id="lnk46"><path d="M1183.22,984.3799 C1165.22,961.2399 1146.7623,937.5241 1128.7523,914.3741" fill="none" id="dev_tools-to-hyprland" style="stroke:#A6ADC8;stroke-width:1;"/><polygon fill="#A6ADC8" points="1123.84,908.0599,1126.3844,916.2163,1131.1201,912.532,1123.84,908.0599" style="stroke:#A6ADC8;stroke-width:1;"/><text fill="#CDD6F4" font-family="'JetBrains Mono,monospace'" font-size="12" font-weight="bold" lengthAdjust="spacing" textLength="57.6005" x="1157.95" y="950.92">includes</text></g><!--link hyprland to dev_tools--><g class="link" data-entity-1="ent0019" data-entity-2="ent0018" data-link-type="dependency" data-source-line="1779" id="lnk50"><path d="M1080.25,908.0299 C1075.96,923.3399 1074.53,940.8399 1083,954.6799 C1098.57,980.1199 1119.9866,993.2752 1146.4066,1003.0452" fill="none" id="hyprland-to-dev_tools" style="stroke:#A6ADC8;stroke-width:1;"/><polygon fill="#A6ADC8" points="1153.91,1005.8199,1147.4471,1000.2314,1145.3661,1005.859,1153.91,1005.8199" style="stroke:#A6ADC8;stroke-width:1;"/><text fill="#CDD6F4" font-family="'JetBrains Mono,monospace'" font-size="12" font-weight="bold" lengthAdjust="spacing" textLength="57.6005" x="1084" y="950.92">includes</text></g><!--link regreet to networking--><g class="link" data-entity-1="ent0008" data-entity-2="ent0005" data-link-type="dependency" data-source-line="1779" id="lnk49"><path d="M356,606.4599 C356,629.6099 356,651.6399 356,674.7699" fill="none" id="regreet-to-networking" style="stroke:#A6ADC8;stroke-width:1;"/><polygon fill="#A6ADC8" points="356,682.7699,359,674.7699,353,674.7699,356,682.7699" style="stroke:#A6ADC8;stroke-width:1;"/><text fill="#CDD6F4" font-family="'JetBrains Mono,monospace'" font-size="12" font-weight="bold" lengthAdjust="spacing" textLength="57.6005" x="357" y="649.32">includes</text></g><!--link primary_user to demo_shell--><g class="link" data-entity-1="ent0006" data-entity-2="ent0017" data-link-type="dependency" data-source-line="1779" id="lnk53"><path d="M779.6,598.4699 C789.74,615.7899 804.54,637.6399 822,653.0799 C841.45,670.2699 859.0143,680.9854 881.3643,691.6854" fill="none" id="primary_user-to-demo_shell" style="stroke:#A6ADC8;stroke-width:1;"/><polygon fill="#A6ADC8" points="888.58,695.1399,882.6597,688.9795,880.0689,694.3913,888.58,695.1399" style="stroke:#A6ADC8;stroke-width:1;"/><text fill="#CDD6F4" font-family="'JetBrains Mono,monospace'" font-size="12" font-weight="bold" lengthAdjust="spacing" textLength="57.6005" x="823" y="649.32">includes</text></g><!--link primary_user to networking--><g class="link" data-entity-1="ent0006" data-entity-2="ent0005" data-link-type="dependency" data-source-line="1779" id="lnk54"><path d="M699.26,598.5199 C692.78,601.1299 686.27,603.6899 680,606.0799 C587.93,641.1799 487.0854,675.3679 421.9254,696.9179" fill="none" id="primary_user-to-networking" style="stroke:#A6ADC8;stroke-width:1;"/><polygon fill="#A6ADC8" points="414.33,699.4299,422.8674,699.7662,420.9834,694.0697,414.33,699.4299" style="stroke:#A6ADC8;stroke-width:1;"/><text fill="#CDD6F4" font-family="'JetBrains Mono,monospace'" font-size="12" font-weight="bold" lengthAdjust="spacing" textLength="57.6005" x="592.62" y="649.32">includes</text></g><?plantuml-src fPRTRfim5CVlUGh6RZgjA4iRPTKqxIAHTZ6fqzGz07BXD44nDh9DicZgkyyOW_coWKwH4cF_plcV3zlaNKfYN2JWVzrlLljDjATPJWaGyStZfvJaYA7CVqRnwS1eGP8znPJvxzUmXZje4Gcye0ABxvG8ZSH9idtPZ2C_KGP-y0F4Zg6KSF-H4dgRoI-UenY2bX5YZ5wqHxH5IVpGNtH9_WB6ATdrexzVtzzjHZZA4c0siOfngVs-SW7Pj9hcd6eLurBRopLPF63JWWPrQZQOMrRlZpcoDJeXgp6NxAuKGkmwhTgGRT5j_FdJmtQ4Sca-GImGEM2O5ZMeCzK66yfwdaW51bCD_vp2vOklyF2PoH10SC-hDaPKnt-ZrgDw_TOFkWR11_-lvvlM6iCZvKBYvO-6V2D-am0_2PfBG8y2EIJf7oezzb02uaAPpF5G8is3tI1dQIOZY0eEJ4BwCImVIwC1dm29efpHSofZAKSzysfXrVSpBixWm03ApFN8ZigAOHuZ399enZh2r_6Ynfj8NtEgSceqMjrEHXAKRWO9LTEpwr9saiYBjUsYdfjZdnMYGBYUw4HIBONrqgWtXDCOeaXG5OZQYUNCIj1GJRJhRAcUBe1AU5WqvQvs6wYjcy4Z8kW0xEDu1nF8QCIFWB5gHqP3zT0p7Z4xopmevihg7AhnbD7ncZECI59YUcWBybL-l2V0TKgTCFNxkEGwY0bfd6ZfZmEzSsFJSPsrCPjsovtxUg5nQpilj1nkv9w3ANv96WjzsREQSZGyNsu7Hka_qkcmRqt5vMHfhwnPBNNK2UhjjPrXQSws_OYsgVgUSo2Esy1vW5qNZTEmyuuV6Eg_2hCWy_uT44rErWeqX3kH1hCNl1sh-Q_JWvfOfmbNxYOAHzyCPCc-xSMU_Fn-pshmFm00?></g></svg>