<?plantuml 1.2026.2?><svg xmlns="http://www.w3.org/2000/svg" xmlns:xlink="http://www.w3.org/1999/xlink" contentStyleType="text/css" data-diagram-type="DESCRIPTION" height="961px" preserveAspectRatio="none" style="width:1718px;height:961px;background:#1E1E2E;" version="1.1" viewBox="0 0 1718 961" width="1718px" zoomAndPan="magnify"><defs/><g><rect fill="#1E1E2E" height="961" style="stroke:none;stroke-width:1;" width="1718" x="0" y="0"/><!--cluster stage_user--><g class="cluster" data-qualified-name="stage_user" data-source-line="24" id="ent0003"><path d="M118.5,332.7 L153.0999,332.7 A3.75,3.75 0 0 1 155.5999,335.2 L162.5999,357.1799 L691.7,357.1799 A2.5,2.5 0 0 1 694.2,359.6799 L694.2,844.2 A2.5,2.5 0 0 1 691.7,846.7 L118.5,846.7 A2.5,2.5 0 0 1 116,844.2 L116,335.2 A2.5,2.5 0 0 1 118.5,332.7" fill="#313244" style="stroke:#6C7086;stroke-width:1.5;"/><line style="stroke:#6C7086;stroke-width:1.5;" x1="116" x2="162.5999" y1="357.1799" y2="357.1799"/><text fill="#CDD6F4" font-family="'JetBrains Mono,monospace'" font-size="14" font-weight="bold" lengthAdjust="spacing" textLength="33.5999" x="120" y="348.9799">user</text></g><!--cluster stage_default--><g class="cluster" data-qualified-name="stage_default" data-source-line="35" id="ent0013"><path d="M388.5,6.7 L448.2997,6.7 A3.75,3.75 0 0 1 450.7997,9.2 L457.7997,31.1799 L1709.49,31.1799 A2.5,2.5 0 0 1 1711.99,33.6799 L1711.99,306.2 A2.5,2.5 0 0 1 1709.49,308.7 L388.5,308.7 A2.5,2.5 0 0 1 386,306.2 L386,9.2 A2.5,2.5 0 0 1 388.5,6.7" fill="#313244" style="stroke:#6C7086;stroke-width:1.5;"/><line style="stroke:#6C7086;stroke-width:1.5;" x1="386" x2="457.7997" y1="31.1799" y2="31.1799"/><text fill="#CDD6F4" font-family="'JetBrains Mono,monospace'" font-size="14" font-weight="bold" lengthAdjust="spacing" textLength="58.7997" x="390" y="22.9799">default</text></g><!--entity demo_shell--><g class="entity" data-qualified-name="stage_user.demo_shell" data-source-line="25" id="ent0004"><rect fill="#F2CDCD" height="38.4799" rx="2.5" ry="2.5" style="stroke:#A6ADC8;stroke-width:0.5;" width="103.9996" x="178.2" y="478.46"/><text fill="#1E1E2E" font-family="'JetBrains Mono,monospace'" font-size="14" lengthAdjust="spacing" textLength="83.9996" x="188.2" y="502.7399">demo-shell</text></g><!--entity dev_tools--><g class="entity" data-qualified-name="stage_user.dev_tools" data-source-line="26" id="ent0005"><rect fill="#FAB387" height="38.4799" rx="2.5" ry="2.5" style="stroke:#A6ADC8;stroke-width:0.5;" width="95.5997" x="182.4" y="569.46"/><text fill="#1E1E2E" font-family="'JetBrains Mono,monospace'" font-size="14" lengthAdjust="spacing" textLength="75.5997" x="192.4" y="593.7399">dev-tools</text></g><!--entity hyprland--><g class="entity" data-qualified-name="stage_user.hyprland" data-source-line="27" id="ent0006"><rect fill="#F2CDCD" height="38.4799" rx="2.5" ry="2.5" style="stroke:#A6ADC8;stroke-width:0.5;" width="87.1997" x="186.6" y="660.46"/><text fill="#1E1E2E" font-family="'JetBrains Mono,monospace'" font-size="14" lengthAdjust="spacing" textLength="67.1997" x="196.6" y="684.7399">hyprland</text></g><!--entity primary_user--><g class="entity" data-qualified-name="stage_user.primary_user" data-source-line="28" id="ent0007"><rect fill="#F2CDCD" height="38.4799" rx="2.5" ry="2.5" style="stroke:#A6ADC8;stroke-width:0.5;" width="120.7996" x="169.8" y="733.46"/><text fill="#1E1E2E" font-family="'JetBrains Mono,monospace'" font-size="14" lengthAdjust="spacing" textLength="100.7996" x="179.8" y="757.7399">primary-user</text></g><!--entity den__provides__primary_user--><g class="entity" data-qualified-name="stage_user.den__provides__primary_user" data-source-line="29" id="ent0008"><rect fill="#F2CDCD" height="24.4799" rx="2.5" ry="2.5" style="stroke:#A6ADC8;stroke-width:0.5;" width="196.3992" x="132" y="806.46"/><text fill="#1E1E2E" font-family="'JetBrains Mono,monospace'" font-size="14" lengthAdjust="spacing" textLength="176.3992" x="142" y="823.7399">provides/primary-user</text></g><!--entity user--><g class="entity" data-qualified-name="stage_user.user" data-source-line="30" id="ent0009"><rect fill="#F2CDCD" height="38.4799" rx="2.5" ry="2.5" style="stroke:#A6ADC8;stroke-width:0.5;" width="53.5999" x="203.4" y="387.46"/><text fill="#1E1E2E" font-family="'JetBrains Mono,monospace'" font-size="14" lengthAdjust="spacing" textLength="33.5999" x="213.4" y="411.7399">user</text></g><!--entity user__aspect_user_--><g class="entity" data-qualified-name="stage_user.user__aspect_user_" data-source-line="31" id="ent0010"><rect fill="#FAB387" height="38.4799" rx="2.5" ry="2.5" style="stroke:#A6ADC8;stroke-width:0.5;" width="162.7994" x="452.4" y="446.46"/><text fill="#1E1E2E" font-family="'JetBrains Mono,monospace'" font-size="14" lengthAdjust="spacing" textLength="142.7994" x="462.4" y="470.7399">user/aspect(user)</text></g><!--entity user__cross_provide__anon__--><g class="entity" data-qualified-name="stage_user.user__cross_provide__anon__" data-source-line="32" id="ent0011"><rect fill="#F38BA8" height="38.4799" rx="2.5" ry="2.5" style="stroke:#A6ADC8;stroke-width:0.5;" width="288.7988" x="389.4" y="373.46"/><text fill="#1E1E2E" font-family="'JetBrains Mono,monospace'" font-size="14" lengthAdjust="spacing" textLength="268.7988" x="399.4" y="397.7399">user/cross-provide(&amp;lt;anon&amp;gt;)</text></g><!--entity user__self_provide_user_--><g class="entity" data-qualified-name="stage_user.user__self_provide_user_" data-source-line="33" id="ent0012"><rect fill="#F2CDCD" height="38.4799" rx="2.5" ry="2.5" style="stroke:#A6ADC8;stroke-width:0.5;" width="213.1992" x="427.2" y="624.46"/><text fill="#1E1E2E" font-family="'JetBrains Mono,monospace'" font-size="14" lengthAdjust="spacing" textLength="193.1992" x="437.2" y="648.7399">user/self-provide(user)</text></g><!--entity n_default--><g class="entity" data-qualified-name="stage_default.n_default" data-source-line="36" id="ent0014"><rect fill="#FAB387" height="38.4799" rx="2.5" ry="2.5" style="stroke:#A6ADC8;stroke-width:0.5;" width="78.7997" x="494.4" y="254.46"/><text fill="#1E1E2E" font-family="'JetBrains Mono,monospace'" font-size="14" lengthAdjust="spacing" textLength="58.7997" x="504.4" y="278.7399">default</text></g><!--entity default__aspect_default_--><g class="entity" data-qualified-name="stage_default.default__aspect_default_" data-source-line="37" id="ent0015"><rect fill="#A6E3A1" height="38.4799" rx="2.5" ry="2.5" style="stroke:#A6ADC8;stroke-width:0.5;" width="213.1992" x="1482.8" y="158.46"/><text fill="#1E1E2E" font-family="'JetBrains Mono,monospace'" font-size="14" lengthAdjust="spacing" textLength="193.1992" x="1492.8" y="182.7399">default/aspect(default)</text></g><!--entity den__provides__default__aspect_default__den__provides--><g class="entity" data-qualified-name="stage_default.den__provides__default__aspect_default__den__provides" data-source-line="38" id="ent0016"><rect fill="#A6E3A1" height="24.4799" rx="2.5" ry="2.5" style="stroke:#A6ADC8;stroke-width:0.5;" width="397.9984" x="1023.8" y="117.46"/><text fill="#1E1E2E" font-family="'JetBrains Mono,monospace'" font-size="14" lengthAdjust="spacing" textLength="377.9984" x="1033.8" y="134.7399">provides/default/aspect(default):den/provides</text></g><!--entity default__cross_provide_user_--><g class="entity" data-qualified-name="stage_default.default__cross_provide_user_" data-source-line="39" id="ent0017"><rect fill="#F9E2AF" height="38.4799" rx="2.5" ry="2.5" style="stroke:#A6ADC8;stroke-width:0.5;" width="246.799" x="410.4" y="90.46"/><text fill="#1E1E2E" font-family="'JetBrains Mono,monospace'" font-size="14" lengthAdjust="spacing" textLength="226.799" x="420.4" y="114.7399">default/cross-provide(user)</text></g><!--entity default__self_provide_default_--><g class="entity" data-qualified-name="stage_default.default__self_provide_default_" data-source-line="40" id="ent0018"><rect fill="#FAB387" height="38.4799" rx="2.5" ry="2.5" style="stroke:#A6ADC8;stroke-width:0.5;" width="263.5989" x="402" y="163.46"/><text fill="#1E1E2E" font-family="'JetBrains Mono,monospace'" font-size="14" lengthAdjust="spacing" textLength="243.5989" x="412" y="187.7399">default/self-provide(default)</text></g><!--entity den__provides__define_user--><g class="entity" data-qualified-name="stage_default.den__provides__define_user" data-source-line="41" id="ent0019"><rect fill="#A6E3A1" height="24.4799" rx="2.5" ry="2.5" style="stroke:#A6ADC8;stroke-width:0.5;" width="187.9993" x="758" y="220.46"/><text fill="#1E1E2E" font-family="'JetBrains Mono,monospace'" font-size="14" lengthAdjust="spacing" textLength="167.9993" x="768" y="237.7399">provides/define-user</text></g><!--entity den__provides__hostname--><g class="entity" data-qualified-name="stage_default.den__provides__hostname" data-source-line="42" id="ent0020"><rect fill="#FAB387" height="24.4799" rx="2.5" ry="2.5" style="stroke:#A6ADC8;stroke-width:0.5;" width="162.7994" x="770.6" y="66.46"/><text fill="#1E1E2E" font-family="'JetBrains Mono,monospace'" font-size="14" lengthAdjust="spacing" textLength="142.7994" x="780.6" y="83.7399">provides/hostname</text></g><!--entity den__provides__mutual_provider--><g class="entity" data-qualified-name="stage_default.den__provides__mutual_provider" data-source-line="43" id="ent0021"><rect fill="#F9E2AF" height="24.4799" rx="2.5" ry="2.5" style="stroke:#A6ADC8;stroke-width:0.5;" width="221.5991" x="741.2" y="143.46"/><text fill="#1E1E2E" font-family="'JetBrains Mono,monospace'" font-size="14" lengthAdjust="spacing" textLength="201.5991" x="751.2" y="160.7399">provides/mutual-provider</text></g><!--entity alice__to_hosts--><g class="entity" data-qualified-name="stage_default.alice__to_hosts" data-source-line="44" id="ent0022"><rect fill="#A6E3A1" height="24.4799" rx="2.5" ry="2.5" style="stroke:#A6ADC8;stroke-width:0.5;" width="137.5995" x="1154" y="231.46"/><text fill="#1E1E2E" font-family="'JetBrains Mono,monospace'" font-size="14" lengthAdjust="spacing" textLength="117.5995" x="1164" y="248.7399">alice/to-hosts</text></g><!--entity alice--><g class="entity" data-qualified-name="alice" data-source-line="23" id="ent0002"><rect fill="#89B4FA" height="38.4799" rx="2.5" ry="2.5" style="stroke:#A6ADC8;stroke-width:0.5;" width="61.9998" x="7" y="705.46"/><text fill="#1E1E2E" font-family="'JetBrains Mono,monospace'" font-size="14" lengthAdjust="spacing" textLength="41.9998" x="17" y="729.7399">alice</text></g><!--link alice to alice--><g class="link" data-entity-1="ent0002" data-entity-2="ent0002" data-link-type="dependency" data-source-line="47" id="lnk23"><path d="M28.37,705.24 C23.98,688.34 27.19,670.46 38,670.46 C48.81,670.46 53.5285,682.5327 49.1385,699.4327" fill="none" id="alice-to-alice" style="stroke:#A6ADC8;stroke-width:1;"/><polygon fill="#A6ADC8" points="47.63,705.24,53.7643,697.5348,48.8871,700.4006,46.0213,695.5234,47.63,705.24" style="stroke:#A6ADC8;stroke-width:1;"/></g><!--link alice to demo_shell--><g class="link" data-entity-1="ent0002" data-entity-2="ent0004" data-link-type="dependency" data-source-line="48" id="lnk24"><path d="M40.4,705.08 C44.21,666.57 58.13,580.77 108,533.7 C126.84,515.92 148.1675,508.0206 172.0375,503.4406" fill="none" id="alice-to-demo_shell" style="stroke:#A6ADC8;stroke-width:1;"/><polygon fill="#A6ADC8" points="177.93,502.31,168.3375,500.0776,173.0196,503.2522,169.845,507.9342,177.93,502.31" style="stroke:#A6ADC8;stroke-width:1;"/></g><!--link alice to dev_tools--><g class="link" data-entity-1="ent0002" data-entity-2="ent0005" data-link-type="dependency" data-source-line="49" id="lnk25"><path d="M47.49,705.16 C58.32,682.51 79.15,645.64 108,624.7 C129.67,608.97 152.3477,601.2913 176.2877,596.2713" fill="none" id="alice-to-dev_tools" style="stroke:#A6ADC8;stroke-width:1;"/><polygon fill="#A6ADC8" points="182.16,595.04,172.5307,592.9722,177.2664,596.0661,174.1725,600.8019,182.16,595.04" style="stroke:#A6ADC8;stroke-width:1;"/></g><!--link alice to hyprland--><g class="link" data-entity-1="ent0002" data-entity-2="ent0006" data-link-type="dependency" data-source-line="50" id="lnk26"><path d="M69.5,716.96 C78.94,714.59 89.39,712.01 99,709.7 C128.1,702.71 155.08,696.483 180.49,690.693" fill="none" id="alice-to-hyprland" style="stroke:#A6ADC8;stroke-width:1;"/><polygon fill="#A6ADC8" points="186.34,689.36,176.6763,687.4595,181.465,690.4708,178.4536,695.2595,186.34,689.36" style="stroke:#A6ADC8;stroke-width:1;"/></g><!--link alice to primary_user--><g class="link" data-entity-1="ent0002" data-entity-2="ent0007" data-link-type="dependency" data-source-line="51" id="lnk27"><path d="M69.14,729.14 C96.06,733.1 130.3441,738.1453 163.7341,743.0653" fill="none" id="alice-to-primary_user" style="stroke:#A6ADC8;stroke-width:1;"/><polygon fill="#A6ADC8" points="169.67,743.94,161.3492,738.6707,164.7234,743.2111,160.183,746.5853,169.67,743.94" style="stroke:#A6ADC8;stroke-width:1;"/></g><!--link alice to den__provides__primary_user--><g class="link" data-entity-1="ent0002" data-entity-2="ent0008" data-link-type="dependency" data-source-line="52" id="lnk28"><path d="M54.83,744.37 C67.66,759.01 87,778.36 108,789.7 C120.85,796.64 129.5723,800.3219 143.9623,804.3519" fill="none" id="alice-to-den__provides__primary_user" style="stroke:#A6ADC8;stroke-width:1;"/><polygon fill="#A6ADC8" points="149.74,805.97,142.1522,799.6911,144.9252,804.6216,139.9947,807.3947,149.74,805.97" style="stroke:#A6ADC8;stroke-width:1;"/></g><!--link alice to user__self_provide_user_--><g class="link" data-entity-1="ent0002" data-entity-2="ent0012" data-link-type="dependency" data-source-line="53" id="lnk29"><path d="M43.27,744.1 C50.78,772.89 69.35,825.97 108,848.7 C192.44,898.35 237.93,886.25 328.4,848.7 C421.24,810.17 490.5767,711.7996 517.8667,668.3896" fill="none" id="alice-to-user__self_provide_user_" style="stroke:#A6ADC8;stroke-width:1;"/><polygon fill="#A6ADC8" points="521.06,663.31,512.8836,668.8005,518.3989,667.543,519.6564,673.0583,521.06,663.31" style="stroke:#A6ADC8;stroke-width:1;"/></g><!--link alice__to_hosts to default__aspect_default_--><g class="link" data-entity-1="ent0022" data-entity-2="ent0015" data-link-type="dependency" data-source-line="54" id="lnk30"><path d="M1291.95,231.36 C1345.54,221.66 1415.2361,209.0493 1476.6861,197.9193" fill="none" id="alice__to_hosts-to-default__aspect_default_" style="stroke:#A6ADC8;stroke-width:1;"/><polygon fill="#A6ADC8" points="1482.59,196.85,1473.0212,194.518,1477.67,197.7411,1474.447,202.39,1482.59,196.85" style="stroke:#A6ADC8;stroke-width:1;"/></g><!--link alice__to_hosts to alice__to_hosts--><g class="link" data-entity-1="ent0022" data-entity-2="ent0022" data-link-type="dependency" data-source-line="55" id="lnk31"><path d="M1192.63,231.12 C1168.37,215.3 1178.42,196.46 1222.8,196.46 C1267.17,196.46 1282.2564,212.0236 1257.9864,227.8436" fill="none" id="alice__to_hosts-to-alice__to_hosts" style="stroke:#A6ADC8;stroke-width:1;"/><polygon fill="#A6ADC8" points="1252.96,231.12,1262.6839,229.5563,1257.1487,228.3896,1258.3154,222.8544,1252.96,231.12" style="stroke:#A6ADC8;stroke-width:1;"/></g><!--link n_default to n_default--><g class="link" data-entity-1="ent0014" data-entity-2="ent0014" data-link-type="dependency" data-source-line="56" id="lnk32"><path d="M506.42,254.24 C493.93,237.34 503.05,219.46 533.8,219.46 C564.54,219.46 577.2361,232.5147 564.7461,249.4147" fill="none" id="n_default-to-n_default" style="stroke:#A6ADC8;stroke-width:1;"/><polygon fill="#A6ADC8" points="561.18,254.24,569.746,249.3795,564.1518,250.219,563.3123,244.6247,561.18,254.24" style="stroke:#A6ADC8;stroke-width:1;"/></g><!--link n_default to default__aspect_default_--><g class="link" data-entity-1="ent0014" data-entity-2="ent0015" data-link-type="dependency" data-source-line="57" id="lnk33"><path d="M573.32,280.65 C698.46,301.78 1103.82,358.76 1421.8,273.7 C1477.1,258.91 1528.2933,224.4808 1559.2233,200.9708" fill="none" id="n_default-to-default__aspect_default_" style="stroke:#A6ADC8;stroke-width:1;"/><polygon fill="#A6ADC8" points="1564,197.34,1554.4144,199.6017,1560.0194,200.3657,1559.2554,205.9707,1564,197.34" style="stroke:#A6ADC8;stroke-width:1;"/></g><!--link n_default to den__provides__define_user--><g class="link" data-entity-1="ent0014" data-entity-2="ent0019" data-link-type="dependency" data-source-line="58" id="lnk34"><path d="M573.57,268.67 C619.09,262.77 690.1998,253.5517 751.5698,245.5917" fill="none" id="n_default-to-den__provides__define_user" style="stroke:#A6ADC8;stroke-width:1;"/><polygon fill="#A6ADC8" points="757.52,244.82,748.0803,242.0109,752.5615,245.4631,749.1093,249.9444,757.52,244.82" style="stroke:#A6ADC8;stroke-width:1;"/></g><!--link n_default to den__provides__hostname--><g class="link" data-entity-1="ent0014" data-entity-2="ent0020" data-link-type="dependency" data-source-line="59" id="lnk35"><path d="M573.38,270.98 C610.95,266.33 667.36,253.74 702.2,219.7 C711.62,210.49 731.53,116.65 741.2,107.7 C749.52,100 754.0573,96.4886 764.7473,92.2786" fill="none" id="n_default-to-den__provides__hostname" style="stroke:#A6ADC8;stroke-width:1;"/><polygon fill="#A6ADC8" points="770.33,90.08,760.4903,89.6561,765.6778,91.9121,763.4217,97.0997,770.33,90.08" style="stroke:#A6ADC8;stroke-width:1;"/></g><!--link n_default to den__provides__mutual_provider--><g class="link" data-entity-1="ent0014" data-entity-2="ent0021" data-link-type="dependency" data-source-line="60" id="lnk36"><path d="M573.59,266.05 C608.79,258.01 661.29,243.21 702.2,219.7 C722.39,208.09 720.7,195.76 741.2,184.7 C753.95,177.82 762.6653,174.1639 776.8353,170.0739" fill="none" id="n_default-to-den__provides__mutual_provider" style="stroke:#A6ADC8;stroke-width:1;"/><polygon fill="#A6ADC8" points="782.6,168.41,772.8437,167.0627,777.7961,169.7966,775.0623,174.7489,782.6,168.41" style="stroke:#A6ADC8;stroke-width:1;"/></g><!--link demo_shell to demo_shell--><g class="link" data-entity-1="ent0004" data-entity-2="ent0004" data-link-type="dependency" data-source-line="61" id="lnk37"><path d="M210.05,478.24 C200.86,461.34 207.58,443.46 230.2,443.46 C252.82,443.46 262.4063,456.0689 253.2163,472.9689" fill="none" id="demo_shell-to-demo_shell" style="stroke:#A6ADC8;stroke-width:1;"/><polygon fill="#A6ADC8" points="250.35,478.24,258.1635,472.2443,252.7386,473.8474,251.1355,468.4225,250.35,478.24" style="stroke:#A6ADC8;stroke-width:1;"/></g><!--link demo_shell to user__self_provide_user_--><g class="link" data-entity-1="ent0004" data-entity-2="ent0012" data-link-type="dependency" data-source-line="62" id="lnk38"><path d="M282.69,515.26 C297.61,520.75 313.8,527.11 328.4,533.7 C390.65,561.81 454.8872,597.897 494.6972,621.117" fill="none" id="demo_shell-to-user__self_provide_user_" style="stroke:#A6ADC8;stroke-width:1;"/><polygon fill="#A6ADC8" points="499.88,624.14,494.1211,616.1503,495.561,621.6208,490.0905,623.0607,499.88,624.14" style="stroke:#A6ADC8;stroke-width:1;"/></g><!--link den__provides__define_user to default__aspect_default_--><g class="link" data-entity-1="ent0019" data-entity-2="ent0015" data-link-type="dependency" data-source-line="63" id="lnk39"><path d="M900.46,219.99 C934.51,211.47 981.64,200.89 1023.8,195.7 C1182.7,176.12 1362.5303,174.1278 1476.3303,175.3078" fill="none" id="den__provides__define_user-to-default__aspect_default_" style="stroke:#A6ADC8;stroke-width:1;"/><polygon fill="#A6ADC8" points="1482.33,175.37,1473.372,171.2769,1477.3303,175.3181,1473.289,179.2765,1482.33,175.37" style="stroke:#A6ADC8;stroke-width:1;"/></g><!--link den__provides__define_user to den__provides__default__aspect_default__den__provides--><g class="link" data-entity-1="ent0019" data-entity-2="ent0016" data-link-type="dependency" data-source-line="64" id="lnk40"><path d="M885.13,220.05 C907.25,211.07 937.16,198.4 962.8,185.7 C976.53,178.9 978.36,173.84 992.8,168.7 C1026.7,156.62 1058.8801,149.2074 1094.1301,143.3874" fill="none" id="den__provides__define_user-to-den__provides__default__aspect_default__den__provides" style="stroke:#A6ADC8;stroke-width:1;"/><polygon fill="#A6ADC8" points="1100.05,142.41,1090.5186,139.9295,1095.1168,143.2245,1091.8218,147.8227,1100.05,142.41" style="stroke:#A6ADC8;stroke-width:1;"/></g><!--link den__provides__define_user to den__provides__define_user--><g class="link" data-entity-1="ent0019" data-entity-2="ent0019" data-link-type="dependency" data-source-line="65" id="lnk41"><path d="M833.43,220.12 C818.49,204.3 824.68,185.46 852,185.46 C879.32,185.46 889.6296,199.9377 874.6896,215.7577" fill="none" id="den__provides__define_user-to-den__provides__define_user" style="stroke:#A6ADC8;stroke-width:1;"/><polygon fill="#A6ADC8" points="870.57,220.12,879.6575,216.323,874.003,216.4848,873.8412,210.8302,870.57,220.12" style="stroke:#A6ADC8;stroke-width:1;"/></g><!--link den__provides__hostname to default__aspect_default_--><g class="link" data-entity-1="ent0020" data-entity-2="ent0015" data-link-type="dependency" data-source-line="66" id="lnk42"><path d="M927.87,66 C1038.3,50.07 1250.26,30.17 1421.8,77.7 C1478.2,93.33 1529.9824,129.9648 1560.5224,154.3648" fill="none" id="den__provides__hostname-to-default__aspect_default_" style="stroke:#A6ADC8;stroke-width:1;"/><polygon fill="#A6ADC8" points="1565.21,158.11,1560.6754,149.3671,1561.3037,154.989,1555.6818,155.6173,1565.21,158.11" style="stroke:#A6ADC8;stroke-width:1;"/></g><!--link den__provides__hostname to den__provides__default__aspect_default__den__provides--><g class="link" data-entity-1="ent0020" data-entity-2="ent0016" data-link-type="dependency" data-source-line="67" id="lnk43"><path d="M933.48,89.83 C991.34,97.83 1063.5267,107.8074 1123.8567,116.1574" fill="none" id="den__provides__hostname-to-den__provides__default__aspect_default__den__provides" style="stroke:#A6ADC8;stroke-width:1;"/><polygon fill="#A6ADC8" points="1129.8,116.98,1121.4334,111.7839,1124.8472,116.2945,1120.3366,119.7083,1129.8,116.98" style="stroke:#A6ADC8;stroke-width:1;"/></g><!--link den__provides__hostname to den__provides__hostname--><g class="link" data-entity-1="ent0020" data-entity-2="ent0020" data-link-type="dependency" data-source-line="68" id="lnk44"><path d="M833.43,66.12 C818.49,50.3 824.68,31.46 852,31.46 C879.32,31.46 889.6296,45.9377 874.6896,61.7577" fill="none" id="den__provides__hostname-to-den__provides__hostname" style="stroke:#A6ADC8;stroke-width:1;"/><polygon fill="#A6ADC8" points="870.57,66.12,879.6575,62.323,874.003,62.4848,873.8412,56.8302,870.57,66.12" style="stroke:#A6ADC8;stroke-width:1;"/></g><!--link den__provides__mutual_provider to default__aspect_default_--><g class="link" data-entity-1="ent0021" data-entity-2="ent0015" data-link-type="dependency" data-source-line="69" id="lnk45"><path d="M881.92,143.08 C915.33,129.25 972.34,107.92 1023.8,99.7 C1198.47,71.8 1249.13,61.28 1421.8,99.7 C1471.99,110.87 1519.7801,135.7781 1552.1701,154.9981" fill="none" id="den__provides__mutual_provider-to-default__aspect_default_" style="stroke:#A6ADC8;stroke-width:1;"/><polygon fill="#A6ADC8" points="1557.33,158.06,1551.6313,150.0272,1553.0301,155.5084,1547.5488,156.9071,1557.33,158.06" style="stroke:#A6ADC8;stroke-width:1;"/></g><!--link den__provides__mutual_provider to den__provides__default__aspect_default__den__provides--><g class="link" data-entity-1="ent0021" data-entity-2="ent0016" data-link-type="dependency" data-source-line="70" id="lnk46"><path d="M957.12,142.97 C969.14,141.74 981.23,140.61 992.8,139.7 C1002.81,138.91 1007.0928,138.5722 1017.4728,137.8922" fill="none" id="den__provides__mutual_provider-to-den__provides__default__aspect_default__den__provides" style="stroke:#A6ADC8;stroke-width:1;"/><polygon fill="#A6ADC8" points="1023.46,137.5,1014.2178,134.0969,1018.4707,137.8268,1014.7407,142.0798,1023.46,137.5" style="stroke:#A6ADC8;stroke-width:1;"/></g><!--link den__provides__mutual_provider to den__provides__mutual_provider--><g class="link" data-entity-1="ent0021" data-entity-2="ent0021" data-link-type="dependency" data-source-line="71" id="lnk47"><path d="M833.43,143.12 C818.49,127.3 824.68,108.46 852,108.46 C879.32,108.46 889.6296,122.9377 874.6896,138.7577" fill="none" id="den__provides__mutual_provider-to-den__provides__mutual_provider" style="stroke:#A6ADC8;stroke-width:1;"/><polygon fill="#A6ADC8" points="870.57,143.12,879.6575,139.323,874.003,139.4848,873.8412,133.8302,870.57,143.12" style="stroke:#A6ADC8;stroke-width:1;"/></g><!--link den__provides__mutual_provider to alice__to_hosts--><g class="link" data-entity-1="ent0021" data-entity-2="ent0022" data-link-type="dependency" data-source-line="72" id="lnk48"><path d="M906.23,168.4 C976.25,185.11 1092.7337,212.9078 1162.7437,229.6078" fill="none" id="den__provides__mutual_provider-to-alice__to_hosts" style="stroke:#A6ADC8;stroke-width:1;"/><polygon fill="#A6ADC8" points="1168.58,231,1160.7537,225.0209,1163.7165,229.8398,1158.8975,232.8026,1168.58,231" style="stroke:#A6ADC8;stroke-width:1;"/></g><!--link dev_tools to dev_tools--><g class="link" data-entity-1="ent0005" data-entity-2="ent0005" data-link-type="dependency" data-source-line="73" id="lnk49"><path d="M210.05,569.24 C200.86,552.34 207.58,534.46 230.2,534.46 C252.82,534.46 262.4063,547.0689 253.2163,563.9689" fill="none" id="dev_tools-to-dev_tools" style="stroke:#A6ADC8;stroke-width:1;"/><polygon fill="#A6ADC8" points="250.35,569.24,258.1635,563.2443,252.7386,564.8474,251.1355,559.4225,250.35,569.24" style="stroke:#A6ADC8;stroke-width:1;"/></g><!--link dev_tools to user__self_provide_user_--><g class="link" data-entity-1="ent0005" data-entity-2="ent0012" data-link-type="dependency" data-source-line="74" id="lnk50"><path d="M278.32,597.29 C318,604.53 370.3374,614.0732 421.0974,623.3332" fill="none" id="dev_tools-to-user__self_provide_user_" style="stroke:#A6ADC8;stroke-width:1;"/><polygon fill="#A6ADC8" points="427,624.41,418.864,618.8597,422.0812,623.5127,417.4283,626.7299,427,624.41" style="stroke:#A6ADC8;stroke-width:1;"/></g><!--link hyprland to hyprland--><g class="link" data-entity-1="ent0006" data-entity-2="ent0006" data-link-type="dependency" data-source-line="75" id="lnk51"><path d="M210.05,660.24 C200.86,643.34 207.58,625.46 230.2,625.46 C252.82,625.46 262.4063,638.0689 253.2163,654.9689" fill="none" id="hyprland-to-hyprland" style="stroke:#A6ADC8;stroke-width:1;"/><polygon fill="#A6ADC8" points="250.35,660.24,258.1635,654.2443,252.7386,655.8474,251.1355,650.4225,250.35,660.24" style="stroke:#A6ADC8;stroke-width:1;"/></g><!--link hyprland to user__self_provide_user_--><g class="link" data-entity-1="ent0006" data-entity-2="ent0012" data-link-type="dependency" data-source-line="76" id="lnk52"><path d="M274.09,674.58 C313.77,669.84 368.4323,663.3215 421.0123,657.0415" fill="none" id="hyprland-to-user__self_provide_user_" style="stroke:#A6ADC8;stroke-width:1;"/><polygon fill="#A6ADC8" points="426.97,656.33,417.5591,653.4256,422.0053,656.923,418.5079,661.3691,426.97,656.33" style="stroke:#A6ADC8;stroke-width:1;"/></g><!--link user to alice--><g class="link" data-entity-1="ent0009" data-entity-2="ent0002" data-link-type="dependency" data-source-line="77" id="lnk53"><path d="M203.11,407.21 C175.58,409.19 132.83,416.63 108,442.7 C71.33,481.21 48.9545,641.8539 41.9745,699.2339" fill="none" id="user-to-alice" style="stroke:#A6ADC8;stroke-width:1;"/><polygon fill="#A6ADC8" points="41.25,705.19,46.3075,696.7389,41.8538,700.2266,38.3661,695.7728,41.25,705.19" style="stroke:#A6ADC8;stroke-width:1;"/></g><!--link user to n_default--><g class="link" data-entity-1="ent0009" data-entity-2="ent0014" data-link-type="dependency" data-source-line="78" id="lnk54"><path d="M257.44,395.13 C310.68,371.65 426.14,320.7306 488.51,293.2306" fill="none" id="user-to-n_default" style="stroke:#A6ADC8;stroke-width:1;"/><polygon fill="#A6ADC8" points="494,290.81,484.1512,290.7809,489.425,292.8272,487.3787,298.101,494,290.81" style="stroke:#A6ADC8;stroke-width:1;"/></g><!--link user to default__cross_provide_user_--><g class="link" data-entity-1="ent0009" data-entity-2="ent0017" data-link-type="dependency" data-source-line="79" id="lnk55"><path d="M236.31,387.01 C250.1,337.92 292.94,209.49 378,145.7 C387.71,138.42 393.1046,134.8367 404.5746,130.1567" fill="none" id="user-to-default__cross_provide_user_" style="stroke:#A6ADC8;stroke-width:1;"/><polygon fill="#A6ADC8" points="410.13,127.89,400.2858,127.5865,405.5005,129.7789,403.3081,134.9936,410.13,127.89" style="stroke:#A6ADC8;stroke-width:1;"/></g><!--link user to default__self_provide_default_--><g class="link" data-entity-1="ent0009" data-entity-2="ent0018" data-link-type="dependency" data-source-line="80" id="lnk56"><path d="M240.64,387.17 C260.39,348.49 309.94,262.15 378,218.7 C388.23,212.17 393.9036,208.9309 405.5836,204.5409" fill="none" id="user-to-default__self_provide_default_" style="stroke:#A6ADC8;stroke-width:1;"/><polygon fill="#A6ADC8" points="411.2,202.43,401.3681,201.8522,406.5197,204.1891,404.1827,209.3407,411.2,202.43" style="stroke:#A6ADC8;stroke-width:1;"/></g><!--link user to user--><g class="link" data-entity-1="ent0009" data-entity-2="ent0009" data-link-type="dependency" data-source-line="81" id="lnk57"><path d="M210.05,387.24 C200.86,370.34 207.58,352.46 230.2,352.46 C252.82,352.46 262.4063,365.0689 253.2163,381.9689" fill="none" id="user-to-user" style="stroke:#A6ADC8;stroke-width:1;"/><polygon fill="#A6ADC8" points="250.35,387.24,258.1635,381.2443,252.7386,382.8474,251.1355,377.4225,250.35,387.24" style="stroke:#A6ADC8;stroke-width:1;"/></g><!--link user to user__aspect_user_--><g class="link" data-entity-1="ent0009" data-entity-2="ent0010" data-link-type="dependency" data-source-line="82" id="lnk58"><path d="M257.44,411.83 C300.36,420.23 381.4016,436.078 446.1616,448.748" fill="none" id="user-to-user__aspect_user_" style="stroke:#A6ADC8;stroke-width:1;"/><polygon fill="#A6ADC8" points="452.05,449.9,443.9855,444.2464,447.143,448.94,442.4494,452.0975,452.05,449.9" style="stroke:#A6ADC8;stroke-width:1;"/></g><!--link user to user__cross_provide__anon__--><g class="link" data-entity-1="ent0009" data-entity-2="ent0011" data-link-type="dependency" data-source-line="83" id="lnk59"><path d="M257.44,405.48 C287.39,404.09 332.7765,401.9886 383.1065,399.6486" fill="none" id="user-to-user__cross_provide__anon__" style="stroke:#A6ADC8;stroke-width:1;"/><polygon fill="#A6ADC8" points="389.1,399.37,379.9239,395.7923,384.1054,399.6022,380.2955,403.7837,389.1,399.37" style="stroke:#A6ADC8;stroke-width:1;"/></g><!--link alice__to_hosts to alice--><g class="link" data-entity-1="ent0022" data-entity-2="ent0002" data-link-type="dependency" data-source-line="84" id="lnk60"><path d="M1221.39,256.34 C1217.62,351.73 1180.82,954.7 853,954.7 C229.2,954.7 229.2,954.7 229.2,954.7 C168.08,954.7 149.09,934.95 108,889.7 C68.76,846.49 51.2069,783.6247 43.9769,750.1547" fill="none" id="alice__to_hosts-to-alice" style="stroke:#A6ADC8;stroke-width:1;"/><polygon fill="#A6ADC8" points="42.71,744.29,40.7005,753.9317,43.7657,749.1773,48.5201,752.2425,42.71,744.29" style="stroke:#A6ADC8;stroke-width:1;"/><text fill="#CDD6F4" font-family="'JetBrains Mono,monospace'" font-size="13" lengthAdjust="spacing" textLength="85.8" x="491.3" y="949.96">provided-by</text></g><?plantuml-src hLRTQjim5BxtKuWKIWipMPAIfYtieeKn1YjZBs0KIqvC7Ib8IhOo-kwpPKcMP4bfHc-CppcVllEhOpUu4a1GmEhDLW1KCroAcfAClzHa3ndSWJKiNpQC7WXweWrbu6A6PtYEBGJ25JmquYibGa5AX9RLJHZo37SOJBvZySXWJJZuGGdzj6iVV0zBFB4EGSReRyK8bn2LAz-OSlchpGIIJOCV_GGMiyNy9Wob364MSsbWbjjHCRxXFt13oMcd6fXqgK0fXq-GeTFU92hfgaEa_FniVS3DEwgfWRQtPNdxURKSWr8DVARY7TuaAkcgGupzP4nt4qnWKxUJ1o07yWrShExMDnNCzdsGO7BWc4ax5wrST2Bucm5WSI2yepdVugQHm4uif0Wkgdc9IkJ3ZxcWjE4AVIoar8BXUh6wTS7Rrprh844IguKmxvxLEyXUSnEnKlGn3qVAjjiTcXvhXFbqT0nXKXJQtBq5MIp7vcGQCeLytsgkklThWo-ANYtvYt0HvEcIKSvp5TVLPICU8A7aSYCUR3A9qj6tt2saw5WNgpLS1LWvRYf3waVM6GsNZg_FxcsO4BNWh25Hcl6S341YGC6CbL6NJ8dNgZzIC8NJSdUnyGBEnYsEiDstdPvgKAZrCK-5WxFy1Z9mspPKs72v7TDLliDpM8KPdPQ5A-CqRgYFgVIuFZN1qHlGczK5YDLuIxaWxVSjHA1jyGXs1t60ZSug64KFqGfcrQZdaljhAcZUUUF3IYlQzI8Z61hrbcNzjilpBpt8aeVrvIZLbh9qUXjPAdjNEAUZ6yL2nUvSvgVHKuP7CmZsTDbm-JghaJnzr8KFYmrB6gY78etokfvP7nUlMPubMit4S2UpFddkFrR7-QIcjh4hTauEtg4FI235Q1f-ucAVaq7ux0SayWxYyMYUPF0lul3puouPLnyTPVC_vAmZHnizQsQittz67BR1-4e4FbK1LF3ZC-3az3gI-mlasu9_DF4r1-w1mg9y_VeF?></g></svg>