<?xml version="1.0" encoding="UTF-8" standalone="no"?>
<!DOCTYPE svg PUBLIC "-//W3C//DTD SVG 1.1//EN"
 "http://www.w3.org/Graphics/SVG/1.1/DTD/svg11.dtd">
<!-- Generated by graphviz version 12.2.1 (0)
 -->
<!-- Pages: 1 -->
<svg width="2583pt" height="1238pt"
 viewBox="0.00 0.00 2583.15 1238.00" xmlns="http://www.w3.org/2000/svg" xmlns:xlink="http://www.w3.org/1999/xlink">
<g id="graph0" class="graph" transform="scale(1 1) rotate(0) translate(4 1234)">
<polygon fill="#1e1e2e" stroke="none" points="-4,4 -4,-1234 2579.15,-1234 2579.15,4 -4,4"/>
<g id="clust1" class="cluster">
<title>cluster_ctx_host</title>
<polygon fill="#313244" stroke="#6c7086" stroke-dasharray="5,2" points="8,-867 8,-1222 1492.27,-1222 1492.27,-867 8,-867"/>
<text text-anchor="middle" x="750.14" y="-1204.7" font-family="Times,serif" font-size="14.00" fill="#cdd6f4">host</text>
</g>
<g id="clust2" class="cluster">
<title>cluster_ctx_default</title>
<polygon fill="#313244" stroke="#6c7086" stroke-dasharray="5,2" points="209.75,-536 209.75,-795 1963.06,-795 1963.06,-536 209.75,-536"/>
<text text-anchor="middle" x="1086.4" y="-777.7" font-family="Times,serif" font-size="14.00" fill="#cdd6f4">default</text>
</g>
<g id="clust3" class="cluster">
<title>cluster_ctx_hm_host</title>
<polygon fill="#313244" stroke="#6c7086" stroke-dasharray="5,2" points="202.25,-219 202.25,-422 929.93,-422 929.93,-219 202.25,-219"/>
<text text-anchor="middle" x="566.09" y="-404.7" font-family="Times,serif" font-size="14.00" fill="#cdd6f4">hm&#45;host</text>
</g>
<g id="clust4" class="cluster">
<title>cluster_ctx_hm_user</title>
<polygon fill="#313244" stroke="#6c7086" stroke-dasharray="5,2" points="195.5,-8 195.5,-211 930.68,-211 930.68,-8 195.5,-8"/>
<text text-anchor="middle" x="563.09" y="-193.7" font-family="Times,serif" font-size="14.00" fill="#cdd6f4">hm&#45;user</text>
</g>
<g id="clust5" class="cluster">
<title>cluster_ctx_user</title>
<polygon fill="#313244" stroke="#6c7086" stroke-dasharray="5,2" points="1763.43,-107 1763.43,-528 2567.15,-528 2567.15,-107 1763.43,-107"/>
<text text-anchor="middle" x="2165.29" y="-510.7" font-family="Times,serif" font-size="14.00" fill="#cdd6f4">user</text>
</g>
<!-- desktop_gdm -->
<g id="node1" class="node">
<title>desktop_gdm</title>
<path fill="#89b4fa" stroke="#89b4fa" d="M367.25,-839C367.25,-839 283,-839 283,-839 277,-839 271,-833 271,-827 271,-827 271,-815 271,-815 271,-809 277,-803 283,-803 283,-803 367.25,-803 367.25,-803 373.25,-803 379.25,-809 379.25,-815 379.25,-815 379.25,-827 379.25,-827 379.25,-833 373.25,-839 367.25,-839"/>
<text text-anchor="middle" x="325.13" y="-816.33" font-family="Times,serif" font-size="14.00" fill="#1e1e2e">desktop&#45;gdm</text>
</g>
<!-- desktop_gdm&#45;&gt;desktop_gdm -->
<g id="edge31" class="edge">
<title>desktop_gdm&#45;&gt;desktop_gdm</title>
<path fill="none" stroke="#a6adc8" d="M290.78,-839.15C285.49,-848.54 296.94,-857 325.13,-857 340.98,-857 351.54,-854.32 356.8,-850.31"/>
<polygon fill="#a6adc8" stroke="#a6adc8" points="360.2,-851.16 359.12,-840.62 353.39,-849.53 360.2,-851.16"/>
</g>
<!-- host__self_provide_host_ -->
<g id="node7" class="node">
<title>host__self_provide_host_</title>
<polygon fill="#f2cdcd" stroke="#f2cdcd" points="1484.27,-1020 1308.52,-1020 1308.52,-984 1484.27,-984 1484.27,-1020"/>
<text text-anchor="middle" x="1396.4" y="-997.33" font-family="Times,serif" font-size="14.00" fill="#1e1e2e">host/self&#45;provide(host)</text>
</g>
<!-- desktop_gdm&#45;&gt;host__self_provide_host_ -->
<g id="edge32" class="edge">
<title>desktop_gdm&#45;&gt;host__self_provide_host_</title>
<path fill="none" stroke="#a6adc8" d="M379.31,-824.26C496.26,-832.02 784.25,-854.48 1021.36,-900 1130.04,-920.87 1253.4,-957 1327.76,-980.19"/>
<polygon fill="#a6adc8" stroke="#a6adc8" points="1326.33,-983.41 1336.92,-983.06 1328.43,-976.73 1326.33,-983.41"/>
</g>
<!-- workstation -->
<g id="node13" class="node">
<title>workstation</title>
<polygon fill="#f2cdcd" stroke="#f2cdcd" points="116.75,-1094 16,-1094 16,-1058 116.75,-1058 116.75,-1094"/>
<text text-anchor="middle" x="66.38" y="-1071.33" font-family="Times,serif" font-size="14.00" fill="#1e1e2e">workstation</text>
</g>
<!-- desktop_gdm&#45;&gt;workstation -->
<g id="edge33" class="edge">
<title>desktop_gdm&#45;&gt;workstation</title>
<path fill="none" stroke="#a6adc8" d="M270.74,-821.86C233.93,-825.14 185.99,-835.08 153.75,-863 139.1,-875.68 96.98,-991.68 77.49,-1046.96"/>
<polygon fill="#a6adc8" stroke="#a6adc8" points="74.2,-1045.75 74.19,-1056.35 80.81,-1048.07 74.2,-1045.75"/>
</g>
<!-- desktop -->
<g id="node2" class="node">
<title>desktop</title>
<polygon fill="#f2cdcd" stroke="#f2cdcd" points="361.25,-1171 289,-1171 289,-1135 361.25,-1135 361.25,-1171"/>
<text text-anchor="middle" x="325.13" y="-1148.33" font-family="Times,serif" font-size="14.00" fill="#1e1e2e">desktop</text>
</g>
<!-- desktop&#45;&gt;desktop -->
<g id="edge27" class="edge">
<title>desktop&#45;&gt;desktop</title>
<path fill="none" stroke="#a6adc8" d="M290.78,-1171.15C285.49,-1180.54 296.94,-1189 325.13,-1189 340.98,-1189 351.54,-1186.32 356.8,-1182.31"/>
<polygon fill="#a6adc8" stroke="#a6adc8" points="360.2,-1183.16 359.12,-1172.62 353.39,-1181.53 360.2,-1183.16"/>
</g>
<!-- gdm -->
<g id="node3" class="node">
<title>gdm</title>
<polygon fill="#f2cdcd" stroke="#f2cdcd" points="852.43,-1097 798.43,-1097 798.43,-1061 852.43,-1061 852.43,-1097"/>
<text text-anchor="middle" x="825.43" y="-1074.33" font-family="Times,serif" font-size="14.00" fill="#1e1e2e">gdm</text>
</g>
<!-- desktop&#45;&gt;gdm -->
<g id="edge28" class="edge">
<title>desktop&#45;&gt;gdm</title>
<path fill="none" stroke="#a6adc8" d="M361.53,-1148.96C399.38,-1144.67 461.17,-1137.72 514.5,-1132 557.59,-1127.38 568.65,-1128.52 611.5,-1122 673.36,-1112.59 744.46,-1097.32 786.86,-1087.73"/>
<polygon fill="#a6adc8" stroke="#a6adc8" points="787.57,-1091.16 796.54,-1085.53 786.02,-1084.33 787.57,-1091.16"/>
</g>
<!-- desktop&#45;&gt;host__self_provide_host_ -->
<g id="edge29" class="edge">
<title>desktop&#45;&gt;host__self_provide_host_</title>
<path fill="none" stroke="#a6adc8" d="M361.56,-1151.79C498.72,-1147.08 988.66,-1129.9 1021.36,-1124 1138.68,-1102.83 1269.89,-1053.82 1341.52,-1024.77"/>
<polygon fill="#a6adc8" stroke="#a6adc8" points="1342.73,-1028.05 1350.67,-1021.03 1340.09,-1021.57 1342.73,-1028.05"/>
</g>
<!-- regreet -->
<g id="node10" class="node">
<title>regreet</title>
<polygon fill="#89b4fa" stroke="#fab387" stroke-dasharray="5,2" points="860.05,-1189 790.8,-1189 790.8,-1153 860.05,-1153 860.05,-1189"/>
<text text-anchor="middle" x="825.43" y="-1166.33" font-family="Times,serif" font-size="14.00" fill="#1e1e2e">regreet</text>
</g>
<!-- desktop&#45;&gt;regreet -->
<g id="edge30" class="edge">
<title>desktop&#45;&gt;regreet</title>
<path fill="none" stroke="#fab387" stroke-dasharray="5,2" d="M361.56,-1154.28C450.13,-1157.48 681.02,-1165.82 779.2,-1169.37"/>
<polygon fill="#fab387" stroke="#fab387" points="778.86,-1172.86 788.98,-1169.72 779.11,-1165.86 778.86,-1172.86"/>
<text text-anchor="middle" x="563" y="-1167.03" font-family="Times,serif" font-size="14.00" fill="#cdd6f4">replaced</text>
</g>
<!-- gdm&#45;&gt;gdm -->
<g id="edge36" class="edge">
<title>gdm&#45;&gt;gdm</title>
<path fill="none" stroke="#a6adc8" d="M797.94,-1088.22C774.39,-1100.35 783.55,-1115 825.43,-1115 860.11,-1115 872.36,-1104.95 862.16,-1094.61"/>
<polygon fill="#a6adc8" stroke="#a6adc8" points="864.37,-1091.89 854.16,-1089.08 860.39,-1097.65 864.37,-1091.89"/>
</g>
<!-- host -->
<g id="node4" class="node">
<title>host</title>
<polygon fill="#89b4fa" stroke="#89b4fa" points="93.38,-911 39.38,-911 39.38,-875 93.38,-875 93.38,-911"/>
<text text-anchor="middle" x="66.38" y="-888.33" font-family="Times,serif" font-size="14.00" fill="#1e1e2e">host</text>
</g>
<!-- host&#45;&gt;desktop_gdm -->
<g id="edge46" class="edge">
<title>host&#45;&gt;desktop_gdm</title>
<path fill="none" stroke="#a6adc8" d="M93.59,-875.49C105.67,-868.15 120.47,-860.14 134.75,-855 174.91,-840.54 222.16,-832.05 259.42,-827.16"/>
<polygon fill="#a6adc8" stroke="#a6adc8" points="259.65,-830.66 269.14,-825.95 258.78,-823.71 259.65,-830.66"/>
</g>
<!-- host&#45;&gt;host -->
<g id="edge53" class="edge">
<title>host&#45;&gt;host</title>
<path fill="none" stroke="#a6adc8" d="M53.91,-911.15C52,-920.54 56.15,-929 66.38,-929 72.13,-929 75.96,-926.32 77.87,-922.31"/>
<polygon fill="#a6adc8" stroke="#a6adc8" points="81.32,-922.93 78.7,-912.66 74.35,-922.32 81.32,-922.93"/>
</g>
<!-- host__aspect_host_ -->
<g id="node5" class="node">
<title>host__aspect_host_</title>
<polygon fill="#89b4fa" stroke="#89b4fa" points="394.63,-911 255.63,-911 255.63,-875 394.63,-875 394.63,-911"/>
<text text-anchor="middle" x="325.13" y="-888.33" font-family="Times,serif" font-size="14.00" fill="#1e1e2e">host/aspect(host)</text>
</g>
<!-- host&#45;&gt;host__aspect_host_ -->
<g id="edge54" class="edge">
<title>host&#45;&gt;host__aspect_host_</title>
<path fill="none" stroke="#a6adc8" d="M93.41,-893C128.37,-893 192.08,-893 243.7,-893"/>
<polygon fill="#a6adc8" stroke="#a6adc8" points="243.68,-896.5 253.68,-893 243.68,-889.5 243.68,-896.5"/>
</g>
<!-- host__cross_provide__anon__ -->
<g id="node6" class="node">
<title>host__cross_provide__anon__</title>
<polygon fill="#cba6f7" stroke="#cba6f7" points="433.25,-965 217,-965 217,-929 433.25,-929 433.25,-965"/>
<text text-anchor="middle" x="325.13" y="-942.33" font-family="Times,serif" font-size="14.00" fill="#1e1e2e">host/cross&#45;provide(&lt;anon&gt;)</text>
</g>
<!-- host&#45;&gt;host__cross_provide__anon__ -->
<g id="edge55" class="edge">
<title>host&#45;&gt;host__cross_provide__anon__</title>
<path fill="none" stroke="#a6adc8" d="M93.56,-902.28C110.55,-908.03 133.25,-915.2 153.75,-920 170.53,-923.93 188.38,-927.46 205.97,-930.57"/>
<polygon fill="#a6adc8" stroke="#a6adc8" points="204.93,-933.94 215.38,-932.19 206.12,-927.04 204.93,-933.94"/>
</g>
<!-- n_default -->
<g id="node14" class="node">
<title>n_default</title>
<polygon fill="#fab387" stroke="#fab387" points="358.25,-744 292,-744 292,-708 358.25,-708 358.25,-744"/>
<text text-anchor="middle" x="325.13" y="-721.33" font-family="Times,serif" font-size="14.00" fill="#1e1e2e">default</text>
</g>
<!-- host&#45;&gt;n_default -->
<g id="edge42" class="edge">
<title>host&#45;&gt;n_default</title>
<path fill="none" stroke="#a6adc8" d="M79.36,-874.58C94.4,-852.72 122.11,-816.42 153.75,-794 192.84,-766.3 244.82,-747.67 281.05,-737.02"/>
<polygon fill="#a6adc8" stroke="#a6adc8" points="281.64,-740.49 290.3,-734.38 279.72,-733.76 281.64,-740.49"/>
</g>
<!-- default__cross_provide_host_ -->
<g id="node17" class="node">
<title>default__cross_provide_host_</title>
<polygon fill="#f9e2af" stroke="#f9e2af" points="429.13,-690 221.13,-690 221.13,-654 429.13,-654 429.13,-690"/>
<text text-anchor="middle" x="325.13" y="-667.33" font-family="Times,serif" font-size="14.00" fill="#1e1e2e">default/cross&#45;provide(host)</text>
</g>
<!-- host&#45;&gt;default__cross_provide_host_ -->
<g id="edge43" class="edge">
<title>host&#45;&gt;default__cross_provide_host_</title>
<path fill="none" stroke="#a6adc8" d="M69.7,-874.78C75.74,-835.65 95.69,-743.55 153.75,-699 169.89,-686.62 189.46,-678.9 209.5,-674.25"/>
<polygon fill="#a6adc8" stroke="#a6adc8" points="210.08,-677.71 219.18,-672.28 208.68,-670.85 210.08,-677.71"/>
</g>
<!-- default__cross_provide_user_ -->
<g id="node18" class="node">
<title>default__cross_provide_user_</title>
<polygon fill="#f9e2af" stroke="#f9e2af" points="429.5,-636 220.75,-636 220.75,-600 429.5,-600 429.5,-636"/>
<text text-anchor="middle" x="325.13" y="-613.33" font-family="Times,serif" font-size="14.00" fill="#1e1e2e">default/cross&#45;provide(user)</text>
</g>
<!-- host&#45;&gt;default__cross_provide_user_ -->
<g id="edge44" class="edge">
<title>host&#45;&gt;default__cross_provide_user_</title>
<path fill="none" stroke="#a6adc8" d="M67.76,-874.53C69.79,-827.92 82.05,-704.95 153.75,-645 169.55,-631.79 189.15,-623.73 209.38,-619"/>
<polygon fill="#a6adc8" stroke="#a6adc8" points="210.07,-622.43 219.18,-617.01 208.68,-615.57 210.07,-622.43"/>
</g>
<!-- default__self_provide_default_ -->
<g id="node19" class="node">
<title>default__self_provide_default_</title>
<polygon fill="#fab387" stroke="#fab387" points="432.5,-582 217.75,-582 217.75,-546 432.5,-546 432.5,-582"/>
<text text-anchor="middle" x="325.13" y="-559.33" font-family="Times,serif" font-size="14.00" fill="#1e1e2e">default/self&#45;provide(default)</text>
</g>
<!-- host&#45;&gt;default__self_provide_default_ -->
<g id="edge45" class="edge">
<title>host&#45;&gt;default__self_provide_default_</title>
<path fill="none" stroke="#a6adc8" d="M70,-874.82C78.91,-815.59 109.96,-629.77 153.75,-591 168.53,-577.91 187,-569.77 206.28,-564.9"/>
<polygon fill="#a6adc8" stroke="#a6adc8" points="206.88,-568.36 215.89,-562.79 205.37,-561.52 206.88,-568.36"/>
</g>
<!-- hm_host -->
<g id="node24" class="node">
<title>hm_host</title>
<polygon fill="#cba6f7" stroke="#cba6f7" points="362,-371 288.25,-371 288.25,-335 362,-335 362,-371"/>
<text text-anchor="middle" x="325.13" y="-348.32" font-family="Times,serif" font-size="14.00" fill="#1e1e2e">hm&#45;host</text>
</g>
<!-- host&#45;&gt;hm_host -->
<g id="edge47" class="edge">
<title>host&#45;&gt;hm_host</title>
<path fill="none" stroke="#a6adc8" d="M67.62,-874.5C69.01,-796.75 78,-497.18 134.75,-426 169.23,-382.75 232.63,-365.09 276.52,-357.91"/>
<polygon fill="#a6adc8" stroke="#a6adc8" points="276.91,-361.38 286.28,-356.44 275.87,-354.46 276.91,-361.38"/>
</g>
<!-- hm_host__cross_provide_host_ -->
<g id="node26" class="node">
<title>hm_host__cross_provide_host_</title>
<polygon fill="#f2cdcd" stroke="#f2cdcd" points="432.88,-317 217.38,-317 217.38,-281 432.88,-281 432.88,-317"/>
<text text-anchor="middle" x="325.13" y="-294.32" font-family="Times,serif" font-size="14.00" fill="#1e1e2e">hm&#45;host/cross&#45;provide(host)</text>
</g>
<!-- host&#45;&gt;hm_host__cross_provide_host_ -->
<g id="edge48" class="edge">
<title>host&#45;&gt;hm_host__cross_provide_host_</title>
<path fill="none" stroke="#a6adc8" d="M67.32,-874.68C67.43,-786.18 72.68,-404.03 153.75,-326 168.16,-312.13 186.64,-303.66 206.09,-298.72"/>
<polygon fill="#a6adc8" stroke="#a6adc8" points="206.8,-302.15 215.82,-296.59 205.3,-295.31 206.8,-302.15"/>
</g>
<!-- hm_host__self_provide_hm_host_ -->
<g id="node27" class="node">
<title>hm_host__self_provide_hm_host_</title>
<polygon fill="#cba6f7" stroke="#cba6f7" points="440,-263 210.25,-263 210.25,-227 440,-227 440,-263"/>
<text text-anchor="middle" x="325.13" y="-240.32" font-family="Times,serif" font-size="14.00" fill="#1e1e2e">hm&#45;host/self&#45;provide(hm&#45;host)</text>
</g>
<!-- host&#45;&gt;hm_host__self_provide_hm_host_ -->
<g id="edge49" class="edge">
<title>host&#45;&gt;hm_host__self_provide_hm_host_</title>
<path fill="none" stroke="#a6adc8" d="M66.95,-874.73C65.18,-781.01 62.31,-355.48 153.75,-272 166.54,-260.32 182.25,-252.54 198.9,-247.5"/>
<polygon fill="#a6adc8" stroke="#a6adc8" points="199.73,-250.9 208.5,-244.95 197.93,-244.13 199.73,-250.9"/>
</g>
<!-- hm_user -->
<g id="node28" class="node">
<title>hm_user</title>
<polygon fill="#fab387" stroke="#fab387" points="362.38,-160 287.88,-160 287.88,-124 362.38,-124 362.38,-160"/>
<text text-anchor="middle" x="325.13" y="-137.32" font-family="Times,serif" font-size="14.00" fill="#1e1e2e">hm&#45;user</text>
</g>
<!-- host&#45;&gt;hm_user -->
<g id="edge50" class="edge">
<title>host&#45;&gt;hm_user</title>
<path fill="none" stroke="#a6adc8" d="M67.11,-874.79C66.08,-777.36 66,-318.34 153.75,-215 184.93,-178.27 237.92,-159.54 276.54,-150.31"/>
<polygon fill="#a6adc8" stroke="#a6adc8" points="277.05,-153.78 286.04,-148.18 275.52,-146.95 277.05,-153.78"/>
</g>
<!-- hm_user__cross_provide_hm_host_ -->
<g id="node30" class="node">
<title>hm_user__cross_provide_hm_host_</title>
<polygon fill="#a6e3a1" stroke="#a6e3a1" points="446.75,-106 203.5,-106 203.5,-70 446.75,-70 446.75,-106"/>
<text text-anchor="middle" x="325.13" y="-83.33" font-family="Times,serif" font-size="14.00" fill="#1e1e2e">hm&#45;user/cross&#45;provide(hm&#45;host)</text>
</g>
<!-- host&#45;&gt;hm_user__cross_provide_hm_host_ -->
<g id="edge51" class="edge">
<title>host&#45;&gt;hm_user__cross_provide_hm_host_</title>
<path fill="none" stroke="#a6adc8" d="M68.07,-874.52C72.51,-761.89 98.31,-170.79 153.75,-115 164.62,-104.06 178.01,-96.43 192.47,-91.22"/>
<polygon fill="#a6adc8" stroke="#a6adc8" points="193.25,-94.64 201.73,-88.29 191.14,-87.97 193.25,-94.64"/>
</g>
<!-- hm_user__self_provide_hm_user_ -->
<g id="node31" class="node">
<title>hm_user__self_provide_hm_user_</title>
<polygon fill="#fab387" stroke="#fab387" points="440.75,-52 209.5,-52 209.5,-16 440.75,-16 440.75,-52"/>
<text text-anchor="middle" x="325.13" y="-29.32" font-family="Times,serif" font-size="14.00" fill="#1e1e2e">hm&#45;user/self&#45;provide(hm&#45;user)</text>
</g>
<!-- host&#45;&gt;hm_user__self_provide_hm_user_ -->
<g id="edge52" class="edge">
<title>host&#45;&gt;hm_user__self_provide_hm_user_</title>
<path fill="none" stroke="#a6adc8" d="M67.88,-874.73C71.3,-757.96 92.69,-119.28 153.75,-61 166.19,-49.13 181.62,-41.22 198.07,-36.1"/>
<polygon fill="#a6adc8" stroke="#a6adc8" points="198.82,-39.52 207.55,-33.52 196.99,-32.77 198.82,-39.52"/>
</g>
<!-- alice -->
<g id="node32" class="node">
<title>alice</title>
<polygon fill="#f2cdcd" stroke="#f2cdcd" points="1893.06,-405 1839.06,-405 1839.06,-369 1893.06,-369 1893.06,-405"/>
<text text-anchor="middle" x="1866.06" y="-382.32" font-family="Times,serif" font-size="14.00" fill="#1e1e2e">alice</text>
</g>
<!-- host&#45;&gt;alice -->
<g id="edge41" class="edge">
<title>host&#45;&gt;alice</title>
<path fill="none" stroke="#a6adc8" d="M69.01,-874.54C75.37,-807.45 100.7,-578.04 153.75,-532 211.19,-482.15 248.07,-516 324.13,-516 324.13,-516 324.13,-516 1040.36,-516 1198.91,-516 1607.05,-552.9 1753.43,-492 1792.21,-475.87 1825.6,-439.72 1845.51,-414.36"/>
<polygon fill="#a6adc8" stroke="#a6adc8" points="1848.27,-416.52 1851.55,-406.44 1842.7,-412.27 1848.27,-416.52"/>
</g>
<!-- user -->
<g id="node38" class="node">
<title>user</title>
<polygon fill="#f2cdcd" stroke="#f2cdcd" points="1893.06,-333 1839.06,-333 1839.06,-297 1893.06,-297 1893.06,-333"/>
<text text-anchor="middle" x="1866.06" y="-310.32" font-family="Times,serif" font-size="14.00" fill="#1e1e2e">user</text>
</g>
<!-- host&#45;&gt;user -->
<g id="edge56" class="edge">
<title>host&#45;&gt;user</title>
<path fill="none" stroke="#a6adc8" d="M68.48,-874.77C73.16,-804.01 94.02,-549.04 153.75,-501 213.29,-453.11 247.72,-478 324.13,-478 324.13,-478 324.13,-478 1397.4,-478 1476.7,-478 1696.29,-508.98 1753.43,-454 1768.57,-439.44 1751.06,-376.97 1763.43,-360 1778.54,-339.29 1805.33,-327.95 1827.61,-321.84"/>
<polygon fill="#a6adc8" stroke="#a6adc8" points="1828.43,-325.25 1837.3,-319.46 1826.76,-318.45 1828.43,-325.25"/>
</g>
<!-- user__cross_provide_host_ -->
<g id="node40" class="node">
<title>user__cross_provide_host_</title>
<polygon fill="#f38ba8" stroke="#f38ba8" points="1960.68,-279 1771.43,-279 1771.43,-243 1960.68,-243 1960.68,-279"/>
<text text-anchor="middle" x="1866.06" y="-256.32" font-family="Times,serif" font-size="14.00" fill="#1e1e2e">user/cross&#45;provide(host)</text>
</g>
<!-- host&#45;&gt;user__cross_provide_host_ -->
<g id="edge57" class="edge">
<title>host&#45;&gt;user__cross_provide_host_</title>
<path fill="none" stroke="#a6adc8" d="M68.17,-874.57C71.82,-799.87 89.6,-521.13 153.75,-468 212.85,-419.05 247.39,-440 324.13,-440 324.13,-440 324.13,-440 1397.4,-440 1573.55,-440 1596.6,-344.52 1763.43,-288 1768.81,-286.18 1774.37,-284.4 1780.01,-282.69"/>
<polygon fill="#a6adc8" stroke="#a6adc8" points="1780.84,-286.09 1789.44,-279.9 1778.86,-279.38 1780.84,-286.09"/>
</g>
<!-- networking -->
<g id="node8" class="node">
<title>networking</title>
<polygon fill="#89b4fa" stroke="#89b4fa" points="611.5,-1044 514.5,-1044 514.5,-1008 611.5,-1008 611.5,-1044"/>
<text text-anchor="middle" x="563" y="-1021.33" font-family="Times,serif" font-size="14.00" fill="#1e1e2e">networking</text>
</g>
<!-- networking&#45;&gt;host__self_provide_host_ -->
<g id="edge60" class="edge">
<title>networking&#45;&gt;host__self_provide_host_</title>
<path fill="none" stroke="#a6adc8" d="M611.99,-1024.61C744.53,-1020.79 1117.65,-1010.02 1296.88,-1004.84"/>
<polygon fill="#a6adc8" stroke="#a6adc8" points="1296.73,-1008.35 1306.63,-1004.56 1296.53,-1001.35 1296.73,-1008.35"/>
</g>
<!-- networking&#45;&gt;networking -->
<g id="edge61" class="edge">
<title>networking&#45;&gt;networking</title>
<path fill="none" stroke="#a6adc8" d="M519.97,-1044.15C513.35,-1053.54 527.69,-1062 563,-1062 583.14,-1062 596.46,-1059.25 602.96,-1055.14"/>
<polygon fill="#a6adc8" stroke="#a6adc8" points="606.3,-1056.18 605.63,-1045.61 599.56,-1054.3 606.3,-1056.18"/>
</g>
<!-- virtualization__podman -->
<g id="node9" class="node">
<title>virtualization__podman</title>
<polygon fill="#cba6f7" stroke="#cba6f7" points="425.21,-1039 225.04,-1039 153.75,-1003 496.5,-1003 425.21,-1039"/>
<text text-anchor="middle" x="325.13" y="-1016.33" font-family="Times,serif" font-size="14.00" fill="#1e1e2e">virtualization/podman</text>
</g>
<!-- virtualization__podman&#45;&gt;host__self_provide_host_ -->
<g id="edge68" class="edge">
<title>virtualization__podman&#45;&gt;host__self_provide_host_</title>
<path fill="none" stroke="#a6adc8" d="M453.85,-1002.51C474.1,-1000.22 494.84,-998.25 514.5,-997 797.88,-979.02 1133.57,-989.75 1296.63,-997"/>
<polygon fill="#a6adc8" stroke="#a6adc8" points="1296.41,-1000.5 1306.56,-997.45 1296.73,-993.5 1296.41,-1000.5"/>
</g>
<!-- virtualization__podman&#45;&gt;virtualization__podman -->
<g id="edge69" class="edge">
<title>virtualization__podman&#45;&gt;virtualization__podman</title>
<path fill="none" stroke="#a6adc8" d="M290.78,-1039.15C285.49,-1048.54 296.94,-1057 325.13,-1057 340.98,-1057 351.54,-1054.32 356.8,-1050.31"/>
<polygon fill="#a6adc8" stroke="#a6adc8" points="360.2,-1051.16 359.12,-1040.62 353.39,-1049.53 360.2,-1051.16"/>
</g>
<!-- virtualization -->
<g id="node12" class="node">
<title>virtualization</title>
<polygon fill="#89b4fa" stroke="#89b4fa" points="881.05,-945 769.8,-945 769.8,-909 881.05,-909 881.05,-945"/>
<text text-anchor="middle" x="825.43" y="-922.33" font-family="Times,serif" font-size="14.00" fill="#1e1e2e">virtualization</text>
</g>
<!-- virtualization__podman&#45;&gt;virtualization -->
<g id="edge77" class="edge">
<title>virtualization__podman&#45;&gt;virtualization</title>
<path fill="none" stroke="#a6adc8" d="M423.65,-1002.53C464.52,-994.85 504.85,-987.39 514.5,-986 557.4,-979.81 568.75,-983.1 611.5,-976 661.2,-967.75 716.65,-954.87 758.5,-944.39"/>
<polygon fill="#a6adc8" stroke="#a6adc8" points="759.35,-947.78 768.19,-941.94 757.63,-941 759.35,-947.78"/>
</g>
<!-- tailscale -->
<g id="node11" class="node">
<title>tailscale</title>
<polygon fill="#f2cdcd" stroke="#f2cdcd" points="600.63,-1103 525.38,-1103 525.38,-1067 600.63,-1067 600.63,-1103"/>
<text text-anchor="middle" x="563" y="-1080.33" font-family="Times,serif" font-size="14.00" fill="#1e1e2e">tailscale</text>
</g>
<!-- tailscale&#45;&gt;host__self_provide_host_ -->
<g id="edge62" class="edge">
<title>tailscale&#45;&gt;host__self_provide_host_</title>
<path fill="none" stroke="#a6adc8" d="M601.03,-1068.36C604.59,-1066.6 608.13,-1064.8 611.5,-1063 619.77,-1058.58 620.56,-1054.83 629.5,-1052 645.2,-1047.02 1093.7,-1019.9 1296.95,-1007.81"/>
<polygon fill="#a6adc8" stroke="#a6adc8" points="1296.93,-1011.32 1306.7,-1007.23 1296.51,-1004.33 1296.93,-1011.32"/>
</g>
<!-- tailscale&#45;&gt;tailscale -->
<g id="edge63" class="edge">
<title>tailscale&#45;&gt;tailscale</title>
<path fill="none" stroke="#a6adc8" d="M524.94,-1098.48C509.2,-1109.53 521.88,-1121 563,-1121 592.55,-1121 607.42,-1115.07 607.6,-1107.64"/>
<polygon fill="#a6adc8" stroke="#a6adc8" points="610.6,-1105.82 601.95,-1099.71 604.9,-1109.88 610.6,-1105.82"/>
</g>
<!-- virtualization&#45;&gt;host__self_provide_host_ -->
<g id="edge66" class="edge">
<title>virtualization&#45;&gt;host__self_provide_host_</title>
<path fill="none" stroke="#a6adc8" d="M881.5,-934.26C977.48,-946.91 1176.61,-973.16 1296.86,-989.01"/>
<polygon fill="#a6adc8" stroke="#a6adc8" points="1296.37,-992.48 1306.75,-990.31 1297.29,-985.54 1296.37,-992.48"/>
</g>
<!-- virtualization&#45;&gt;virtualization -->
<g id="edge67" class="edge">
<title>virtualization&#45;&gt;virtualization</title>
<path fill="none" stroke="#a6adc8" d="M786.64,-945.15C780.67,-954.54 793.6,-963 825.43,-963 843.83,-963 855.92,-960.17 861.68,-955.97"/>
<polygon fill="#a6adc8" stroke="#a6adc8" points="865,-957.16 863.88,-946.63 858.18,-955.56 865,-957.16"/>
</g>
<!-- workstation&#45;&gt;desktop -->
<g id="edge70" class="edge">
<title>workstation&#45;&gt;desktop</title>
<path fill="none" stroke="#a6adc8" d="M89.71,-1094.42C102.23,-1103.8 118.54,-1114.56 134.75,-1121 181.19,-1139.45 238.15,-1147.26 277.4,-1150.57"/>
<polygon fill="#a6adc8" stroke="#a6adc8" points="276.98,-1154.05 287.22,-1151.33 277.52,-1147.07 276.98,-1154.05"/>
</g>
<!-- workstation&#45;&gt;host__self_provide_host_ -->
<g id="edge71" class="edge">
<title>workstation&#45;&gt;host__self_provide_host_</title>
<path fill="none" stroke="#a6adc8" d="M117.04,-1076.39C226.82,-1077.03 481.62,-1077.29 496.5,-1066 518.34,-1049.43 492.51,-1023.38 514.5,-1007 530,-995.45 1070.63,-999.03 1297.12,-1001.04"/>
<polygon fill="#a6adc8" stroke="#a6adc8" points="1296.78,-1004.54 1306.81,-1001.13 1296.84,-997.54 1296.78,-1004.54"/>
</g>
<!-- workstation&#45;&gt;networking -->
<g id="edge72" class="edge">
<title>workstation&#45;&gt;networking</title>
<path fill="none" stroke="#a6adc8" d="M116.98,-1082.05C215.29,-1093.16 431.03,-1112.9 496.5,-1081 508.17,-1075.31 505,-1066.85 514.5,-1058 517.04,-1055.64 519.77,-1053.32 522.59,-1051.09"/>
<polygon fill="#a6adc8" stroke="#a6adc8" points="524.62,-1053.94 530.56,-1045.17 520.45,-1048.32 524.62,-1053.94"/>
</g>
<!-- workstation&#45;&gt;virtualization__podman -->
<g id="edge73" class="edge">
<title>workstation&#45;&gt;virtualization__podman</title>
<path fill="none" stroke="#a6adc8" d="M117.18,-1065.33C148.31,-1058.66 189.44,-1049.85 226.84,-1041.84"/>
<polygon fill="#a6adc8" stroke="#a6adc8" points="227.26,-1045.33 236.31,-1039.81 225.8,-1038.48 227.26,-1045.33"/>
</g>
<!-- workstation&#45;&gt;tailscale -->
<g id="edge74" class="edge">
<title>workstation&#45;&gt;tailscale</title>
<path fill="none" stroke="#a6adc8" d="M110.23,-1094.47C118.24,-1097.18 126.65,-1099.54 134.75,-1101 293,-1129.41 336.87,-1120.21 496.5,-1101 502.17,-1100.32 508.05,-1099.32 513.86,-1098.14"/>
<polygon fill="#a6adc8" stroke="#a6adc8" points="514.39,-1101.61 523.4,-1096.03 512.88,-1094.77 514.39,-1101.61"/>
</g>
<!-- workstation&#45;&gt;virtualization -->
<g id="edge75" class="edge">
<title>workstation&#45;&gt;virtualization</title>
<path fill="none" stroke="#a6adc8" d="M80.22,-1057.78C95.29,-1038.07 122.26,-1007.65 153.75,-994 223.76,-963.67 420.59,-981.64 496.5,-974 587.65,-964.83 692.33,-948.87 758.41,-938.13"/>
<polygon fill="#a6adc8" stroke="#a6adc8" points="758.68,-941.63 767.99,-936.56 757.55,-934.72 758.68,-941.63"/>
</g>
<!-- workstation&#45;&gt;workstation -->
<g id="edge76" class="edge">
<title>workstation&#45;&gt;workstation</title>
<path fill="none" stroke="#a6adc8" d="M53.91,-1094.15C52,-1103.54 56.15,-1112 66.38,-1112 72.13,-1112 75.96,-1109.32 77.87,-1105.31"/>
<polygon fill="#a6adc8" stroke="#a6adc8" points="81.32,-1105.93 78.7,-1095.66 74.35,-1105.32 81.32,-1105.93"/>
</g>
<!-- n_default&#45;&gt;n_default -->
<g id="edge10" class="edge">
<title>n_default&#45;&gt;n_default</title>
<path fill="none" stroke="#a6adc8" d="M291.75,-742.66C284.33,-752.62 295.46,-762 325.13,-762 342.74,-762 353.82,-758.69 358.36,-753.92"/>
<polygon fill="#a6adc8" stroke="#a6adc8" points="361.86,-754.22 358.48,-744.18 354.86,-754.13 361.86,-754.22"/>
</g>
<!-- default__aspect_default_ -->
<g id="node15" class="node">
<title>default__aspect_default_</title>
<polygon fill="#a6e3a1" stroke="#a6e3a1" points="1955.06,-655 1777.06,-655 1777.06,-619 1955.06,-619 1955.06,-655"/>
<text text-anchor="middle" x="1866.06" y="-632.33" font-family="Times,serif" font-size="14.00" fill="#1e1e2e">default/aspect(default)</text>
</g>
<!-- n_default&#45;&gt;default__aspect_default_ -->
<g id="edge11" class="edge">
<title>n_default&#45;&gt;default__aspect_default_</title>
<path fill="none" stroke="#a6adc8" d="M358.45,-730.51C396.39,-733.88 458.89,-733.09 496.5,-699 519.98,-677.71 495.98,-655.72 514.5,-630 550.16,-580.48 571.01,-572.39 629.5,-555 688.34,-537.51 1675.44,-538.02 1734.43,-555 1772.54,-565.97 1810.27,-591.68 1835.3,-611.42"/>
<polygon fill="#a6adc8" stroke="#a6adc8" points="1833.1,-614.13 1843.08,-617.69 1837.5,-608.69 1833.1,-614.13"/>
</g>
<!-- den__provides__define_user -->
<g id="node20" class="node">
<title>den__provides__define_user</title>
<polygon fill="#a6e3a1" stroke="#a6e3a1" points="919,-672 731.86,-672 665.21,-636 985.64,-636 919,-672"/>
<text text-anchor="middle" x="825.43" y="-649.33" font-family="Times,serif" font-size="14.00" fill="#1e1e2e">provides/define&#45;user</text>
</g>
<!-- n_default&#45;&gt;den__provides__define_user -->
<g id="edge12" class="edge">
<title>n_default&#45;&gt;den__provides__define_user</title>
<path fill="none" stroke="#a6adc8" d="M358.44,-721.33C428.88,-711.15 599.09,-686.56 713.11,-670.09"/>
<polygon fill="#a6adc8" stroke="#a6adc8" points="713.41,-673.58 722.81,-668.68 712.41,-666.65 713.41,-673.58"/>
</g>
<!-- den__provides__hostname -->
<g id="node21" class="node">
<title>den__provides__hostname</title>
<polygon fill="#fab387" stroke="#fab387" points="913.35,-744 737.51,-744 674.89,-708 975.97,-708 913.35,-744"/>
<text text-anchor="middle" x="825.43" y="-721.33" font-family="Times,serif" font-size="14.00" fill="#1e1e2e">provides/hostname</text>
</g>
<!-- n_default&#45;&gt;den__provides__hostname -->
<g id="edge13" class="edge">
<title>n_default&#45;&gt;den__provides__hostname</title>
<path fill="none" stroke="#a6adc8" d="M358.44,-726C425,-726 580.66,-726 693.8,-726"/>
<polygon fill="#a6adc8" stroke="#a6adc8" points="693.79,-729.5 703.79,-726 693.79,-722.5 693.79,-729.5"/>
</g>
<!-- den__provides__mutual_provider -->
<g id="node22" class="node">
<title>den__provides__mutual_provider</title>
<polygon fill="#f9e2af" stroke="#f9e2af" points="939.85,-600 711,-600 629.5,-564 1021.36,-564 939.85,-600"/>
<text text-anchor="middle" x="825.43" y="-577.33" font-family="Times,serif" font-size="14.00" fill="#1e1e2e">provides/mutual&#45;provider</text>
</g>
<!-- n_default&#45;&gt;den__provides__mutual_provider -->
<g id="edge14" class="edge">
<title>n_default&#45;&gt;den__provides__mutual_provider</title>
<path fill="none" stroke="#a6adc8" d="M358.6,-726.46C394.2,-725.72 452.16,-720.8 496.5,-699 506.38,-694.14 505.43,-688.23 514.5,-682 561.21,-649.94 576.02,-645.71 629.5,-627 656.56,-617.53 686.44,-609.49 714.5,-602.94"/>
<polygon fill="#a6adc8" stroke="#a6adc8" points="715.12,-606.39 724.09,-600.75 713.56,-599.57 715.12,-606.39"/>
</g>
<!-- den__provides__default__aspect_default__den__provides -->
<g id="node16" class="node">
<title>den__provides__default__aspect_default__den__provides</title>
<polygon fill="#a6e3a1" stroke="#a6e3a1" points="1593.82,-712 1198.98,-712 1058.36,-676 1734.43,-676 1593.82,-712"/>
<text text-anchor="middle" x="1396.4" y="-689.33" font-family="Times,serif" font-size="14.00" fill="#1e1e2e">provides/default/aspect(default):den/provides</text>
</g>
<!-- den__provides__define_user&#45;&gt;default__aspect_default_ -->
<g id="edge17" class="edge">
<title>den__provides__define_user&#45;&gt;default__aspect_default_</title>
<path fill="none" stroke="#a6adc8" d="M953.91,-653.63C1132.64,-652.82 1467.86,-650.24 1753.43,-642 1757.33,-641.89 1761.31,-641.76 1765.32,-641.63"/>
<polygon fill="#a6adc8" stroke="#a6adc8" points="1765.34,-645.13 1775.21,-641.27 1765.09,-638.13 1765.34,-645.13"/>
</g>
<!-- den__provides__define_user&#45;&gt;den__provides__default__aspect_default__den__provides -->
<g id="edge18" class="edge">
<title>den__provides__define_user&#45;&gt;den__provides__default__aspect_default__den__provides</title>
<path fill="none" stroke="#a6adc8" d="M929.18,-667C964.1,-671.04 1003.38,-675.17 1039.36,-678 1047.22,-678.62 1055.18,-679.22 1063.21,-679.79"/>
<polygon fill="#a6adc8" stroke="#a6adc8" points="1062.88,-683.28 1073.1,-680.49 1063.37,-676.29 1062.88,-683.28"/>
</g>
<!-- den__provides__define_user&#45;&gt;den__provides__define_user -->
<g id="edge19" class="edge">
<title>den__provides__define_user&#45;&gt;den__provides__define_user</title>
<path fill="none" stroke="#a6adc8" d="M786.64,-672.15C780.67,-681.54 793.6,-690 825.43,-690 843.83,-690 855.92,-687.17 861.68,-682.97"/>
<polygon fill="#a6adc8" stroke="#a6adc8" points="865,-684.16 863.88,-673.63 858.18,-682.56 865,-684.16"/>
</g>
<!-- den__provides__hostname&#45;&gt;default__aspect_default_ -->
<g id="edge20" class="edge">
<title>den__provides__hostname&#45;&gt;default__aspect_default_</title>
<path fill="none" stroke="#a6adc8" d="M917.8,-741.97C1084.31,-767.49 1446.54,-806.44 1734.43,-721 1773.11,-709.52 1811.2,-682.77 1836.17,-662.51"/>
<polygon fill="#a6adc8" stroke="#a6adc8" points="1838.14,-665.43 1843.59,-656.35 1833.66,-660.05 1838.14,-665.43"/>
</g>
<!-- den__provides__hostname&#45;&gt;den__provides__default__aspect_default__den__provides -->
<g id="edge21" class="edge">
<title>den__provides__hostname&#45;&gt;den__provides__default__aspect_default__den__provides</title>
<path fill="none" stroke="#a6adc8" d="M958.39,-718.58C1019.54,-715.14 1094.05,-710.95 1164.09,-707.01"/>
<polygon fill="#a6adc8" stroke="#a6adc8" points="1163.99,-710.52 1173.78,-706.46 1163.6,-703.53 1163.99,-710.52"/>
</g>
<!-- den__provides__hostname&#45;&gt;den__provides__hostname -->
<g id="edge22" class="edge">
<title>den__provides__hostname&#45;&gt;den__provides__hostname</title>
<path fill="none" stroke="#a6adc8" d="M786.64,-744.15C780.67,-753.54 793.6,-762 825.43,-762 843.83,-762 855.92,-759.17 861.68,-754.97"/>
<polygon fill="#a6adc8" stroke="#a6adc8" points="865,-756.16 863.88,-745.63 858.18,-754.56 865,-756.16"/>
</g>
<!-- den__provides__mutual_provider&#45;&gt;default__aspect_default_ -->
<g id="edge23" class="edge">
<title>den__provides__mutual_provider&#45;&gt;default__aspect_default_</title>
<path fill="none" stroke="#a6adc8" d="M903.22,-600.49C948.15,-610.4 1006.13,-621.65 1058.36,-627 1192.45,-640.73 1580.9,-639.47 1765.45,-637.99"/>
<polygon fill="#a6adc8" stroke="#a6adc8" points="1765.28,-641.5 1775.25,-637.91 1765.23,-634.5 1765.28,-641.5"/>
</g>
<!-- den__provides__mutual_provider&#45;&gt;den__provides__default__aspect_default__den__provides -->
<g id="edge24" class="edge">
<title>den__provides__mutual_provider&#45;&gt;den__provides__default__aspect_default__den__provides</title>
<path fill="none" stroke="#a6adc8" d="M942.39,-599.42C969.16,-605.96 996.94,-614.88 1021.36,-627 1030.68,-631.63 1029.85,-637.75 1039.36,-642 1069.34,-655.38 1102.02,-665.46 1135.02,-673.03"/>
<polygon fill="#a6adc8" stroke="#a6adc8" points="1134.22,-676.44 1144.74,-675.18 1135.73,-669.61 1134.22,-676.44"/>
</g>
<!-- den__provides__mutual_provider&#45;&gt;den__provides__mutual_provider -->
<g id="edge25" class="edge">
<title>den__provides__mutual_provider&#45;&gt;den__provides__mutual_provider</title>
<path fill="none" stroke="#a6adc8" d="M786.64,-600.15C780.67,-609.54 793.6,-618 825.43,-618 843.83,-618 855.92,-615.17 861.68,-610.97"/>
<polygon fill="#a6adc8" stroke="#a6adc8" points="865,-612.16 863.88,-601.63 858.18,-610.56 865,-612.16"/>
</g>
<!-- alice__to_hosts -->
<g id="node23" class="node">
<title>alice__to_hosts</title>
<polygon fill="#a6e3a1" stroke="#a6e3a1" points="1460.42,-600 1332.38,-600 1286.78,-564 1506.02,-564 1460.42,-600"/>
<text text-anchor="middle" x="1396.4" y="-577.33" font-family="Times,serif" font-size="14.00" fill="#1e1e2e">alice/to&#45;hosts</text>
</g>
<!-- den__provides__mutual_provider&#45;&gt;alice__to_hosts -->
<g id="edge26" class="edge">
<title>den__provides__mutual_provider&#45;&gt;alice__to_hosts</title>
<path fill="none" stroke="#a6adc8" d="M981.53,-582C1082.3,-582 1210.59,-582 1297.43,-582"/>
<polygon fill="#a6adc8" stroke="#a6adc8" points="1297.35,-585.5 1307.35,-582 1297.35,-578.5 1297.35,-585.5"/>
</g>
<!-- alice__to_hosts&#45;&gt;default__aspect_default_ -->
<g id="edge8" class="edge">
<title>alice__to_hosts&#45;&gt;default__aspect_default_</title>
<path fill="none" stroke="#a6adc8" d="M1472.53,-590.84C1552.06,-600.19 1677.95,-614.99 1765.65,-625.31"/>
<polygon fill="#a6adc8" stroke="#a6adc8" points="1765.11,-628.77 1775.45,-626.46 1765.93,-621.82 1765.11,-628.77"/>
</g>
<!-- alice__to_hosts&#45;&gt;alice__to_hosts -->
<g id="edge9" class="edge">
<title>alice__to_hosts&#45;&gt;alice__to_hosts</title>
<path fill="none" stroke="#a6adc8" d="M1331.9,-600.15C1321.97,-609.54 1343.47,-618 1396.4,-618 1427.41,-618 1447.63,-615.1 1457.06,-610.8"/>
<polygon fill="#a6adc8" stroke="#a6adc8" points="1460.29,-612.17 1460.38,-601.58 1453.7,-609.8 1460.29,-612.17"/>
</g>
<!-- alice__to_hosts&#45;&gt;alice -->
<g id="edge78" class="edge">
<title>alice__to_hosts&#45;&gt;alice</title>
<path fill="none" stroke="#a6adc8" d="M1475.49,-588.6C1553.75,-591.01 1673.75,-582.75 1753.43,-521 1792.78,-490.51 1827.63,-443.91 1847.53,-414.47"/>
<polygon fill="#a6adc8" stroke="#a6adc8" points="1850.24,-416.72 1852.85,-406.46 1844.4,-412.85 1850.24,-416.72"/>
</g>
<!-- hm_host&#45;&gt;hm_host -->
<g id="edge37" class="edge">
<title>hm_host&#45;&gt;hm_host</title>
<path fill="none" stroke="#a6adc8" d="M290.78,-371.15C285.49,-380.54 296.94,-389 325.13,-389 340.98,-389 351.54,-386.32 356.8,-382.31"/>
<polygon fill="#a6adc8" stroke="#a6adc8" points="360.2,-383.16 359.12,-372.62 353.39,-381.53 360.2,-383.16"/>
</g>
<!-- hm_host__aspect_hm_host_ -->
<g id="node25" class="node">
<title>hm_host__aspect_hm_host_</title>
<polygon fill="#89b4fa" stroke="#89b4fa" points="921.93,-371 728.93,-371 728.93,-335 921.93,-335 921.93,-371"/>
<text text-anchor="middle" x="825.43" y="-348.32" font-family="Times,serif" font-size="14.00" fill="#1e1e2e">hm&#45;host/aspect(hm&#45;host)</text>
</g>
<!-- hm_host&#45;&gt;hm_host__aspect_hm_host_ -->
<g id="edge38" class="edge">
<title>hm_host&#45;&gt;hm_host__aspect_hm_host_</title>
<path fill="none" stroke="#a6adc8" d="M362.36,-353C435.98,-353 605.53,-353 717.48,-353"/>
<polygon fill="#a6adc8" stroke="#a6adc8" points="717.29,-356.5 727.29,-353 717.29,-349.5 717.29,-356.5"/>
</g>
<!-- hm_user&#45;&gt;hm_user -->
<g id="edge39" class="edge">
<title>hm_user&#45;&gt;hm_user</title>
<path fill="none" stroke="#a6adc8" d="M290.78,-160.15C285.49,-169.54 296.94,-178 325.13,-178 340.98,-178 351.54,-175.32 356.8,-171.31"/>
<polygon fill="#a6adc8" stroke="#a6adc8" points="360.2,-172.16 359.12,-161.62 353.39,-170.53 360.2,-172.16"/>
</g>
<!-- hm_user__aspect_hm_user_ -->
<g id="node29" class="node">
<title>hm_user__aspect_hm_user_</title>
<polygon fill="#a6e3a1" stroke="#a6e3a1" points="922.68,-160 728.18,-160 728.18,-124 922.68,-124 922.68,-160"/>
<text text-anchor="middle" x="825.43" y="-137.32" font-family="Times,serif" font-size="14.00" fill="#1e1e2e">hm&#45;user/aspect(hm&#45;user)</text>
</g>
<!-- hm_user&#45;&gt;hm_user__aspect_hm_user_ -->
<g id="edge40" class="edge">
<title>hm_user&#45;&gt;hm_user__aspect_hm_user_</title>
<path fill="none" stroke="#a6adc8" d="M362.77,-142C436.43,-142 604.96,-142 716.71,-142"/>
<polygon fill="#a6adc8" stroke="#a6adc8" points="716.51,-145.5 726.51,-142 716.51,-138.5 716.51,-145.5"/>
</g>
<!-- alice&#45;&gt;alice -->
<g id="edge1" class="edge">
<title>alice&#45;&gt;alice</title>
<path fill="none" stroke="#a6adc8" d="M1845.59,-405.15C1842.45,-414.54 1849.27,-423 1866.06,-423 1875.5,-423 1881.8,-420.32 1884.93,-416.31"/>
<polygon fill="#a6adc8" stroke="#a6adc8" points="1888.36,-417.05 1886.31,-406.65 1881.43,-416.06 1888.36,-417.05"/>
</g>
<!-- demo_shell -->
<g id="node33" class="node">
<title>demo_shell</title>
<polygon fill="#f2cdcd" stroke="#f2cdcd" points="2217.92,-333 2124.67,-333 2124.67,-297 2217.92,-297 2217.92,-333"/>
<text text-anchor="middle" x="2171.29" y="-310.32" font-family="Times,serif" font-size="14.00" fill="#1e1e2e">demo&#45;shell</text>
</g>
<!-- alice&#45;&gt;demo_shell -->
<g id="edge2" class="edge">
<title>alice&#45;&gt;demo_shell</title>
<path fill="none" stroke="#a6adc8" d="M1893.44,-380.74C1942.2,-369.16 2047.46,-344.17 2113.22,-328.55"/>
<polygon fill="#a6adc8" stroke="#a6adc8" points="2113.83,-332 2122.75,-326.29 2112.21,-325.19 2113.83,-332"/>
</g>
<!-- dev_tools -->
<g id="node34" class="node">
<title>dev_tools</title>
<polygon fill="#fab387" stroke="#fab387" points="2211.54,-405 2131.04,-405 2131.04,-369 2211.54,-369 2211.54,-405"/>
<text text-anchor="middle" x="2171.29" y="-382.32" font-family="Times,serif" font-size="14.00" fill="#1e1e2e">dev&#45;tools</text>
</g>
<!-- alice&#45;&gt;dev_tools -->
<g id="edge3" class="edge">
<title>alice&#45;&gt;dev_tools</title>
<path fill="none" stroke="#a6adc8" d="M1893.44,-387C1943.8,-387 2054.42,-387 2119.56,-387"/>
<polygon fill="#a6adc8" stroke="#a6adc8" points="2119.26,-390.5 2129.26,-387 2119.26,-383.5 2119.26,-390.5"/>
</g>
<!-- hyprland -->
<g id="node35" class="node">
<title>hyprland</title>
<polygon fill="#f2cdcd" stroke="#f2cdcd" points="2211.17,-477 2131.42,-477 2131.42,-441 2211.17,-441 2211.17,-477"/>
<text text-anchor="middle" x="2171.29" y="-454.32" font-family="Times,serif" font-size="14.00" fill="#1e1e2e">hyprland</text>
</g>
<!-- alice&#45;&gt;hyprland -->
<g id="edge4" class="edge">
<title>alice&#45;&gt;hyprland</title>
<path fill="none" stroke="#a6adc8" d="M1893.17,-397.53C1919.25,-407.67 1960.67,-422.81 1997.68,-432 2038.28,-442.08 2085.23,-449.14 2119.91,-453.5"/>
<polygon fill="#a6adc8" stroke="#a6adc8" points="2119.31,-456.96 2129.67,-454.69 2120.16,-450.01 2119.31,-456.96"/>
</g>
<!-- primary_user -->
<g id="node36" class="node">
<title>primary_user</title>
<polygon fill="#f2cdcd" stroke="#f2cdcd" points="2225.79,-205 2116.79,-205 2116.79,-169 2225.79,-169 2225.79,-205"/>
<text text-anchor="middle" x="2171.29" y="-182.32" font-family="Times,serif" font-size="14.00" fill="#1e1e2e">primary&#45;user</text>
</g>
<!-- alice&#45;&gt;primary_user -->
<g id="edge5" class="edge">
<title>alice&#45;&gt;primary_user</title>
<path fill="none" stroke="#a6adc8" d="M1893.43,-386.9C1915.3,-385.33 1945.56,-379.42 1963.06,-360 1990.53,-329.51 1968.48,-308.75 1978.68,-269 1985.12,-243.95 1977.85,-230.59 1997.68,-214 2027.18,-189.33 2069.79,-182.47 2105.3,-181.83"/>
<polygon fill="#a6adc8" stroke="#a6adc8" points="2105.04,-185.33 2115.04,-181.83 2105.04,-178.33 2105.04,-185.33"/>
</g>
<!-- den__provides__primary_user -->
<g id="node37" class="node">
<title>den__provides__primary_user</title>
<polygon fill="#f2cdcd" stroke="#f2cdcd" points="2272.68,-259 2069.9,-259 1997.68,-223 2344.9,-223 2272.68,-259"/>
<text text-anchor="middle" x="2171.29" y="-236.32" font-family="Times,serif" font-size="14.00" fill="#1e1e2e">provides/primary&#45;user</text>
</g>
<!-- alice&#45;&gt;den__provides__primary_user -->
<g id="edge6" class="edge">
<title>alice&#45;&gt;den__provides__primary_user</title>
<path fill="none" stroke="#a6adc8" d="M1893.39,-386.87C1915.24,-385.27 1945.49,-379.36 1963.06,-360 1989.47,-330.91 1950.74,-300.61 1978.68,-273 1991.6,-260.24 2007.55,-251.43 2024.7,-245.48"/>
<polygon fill="#a6adc8" stroke="#a6adc8" points="2025.55,-248.88 2034.07,-242.58 2023.48,-242.19 2025.55,-248.88"/>
</g>
<!-- user__self_provide_user_ -->
<g id="node41" class="node">
<title>user__self_provide_user_</title>
<polygon fill="#f2cdcd" stroke="#f2cdcd" points="2559.15,-369 2381.9,-369 2381.9,-333 2559.15,-333 2559.15,-369"/>
<text text-anchor="middle" x="2470.52" y="-346.32" font-family="Times,serif" font-size="14.00" fill="#1e1e2e">user/self&#45;provide(user)</text>
</g>
<!-- alice&#45;&gt;user__self_provide_user_ -->
<g id="edge7" class="edge">
<title>alice&#45;&gt;user__self_provide_user_</title>
<path fill="none" stroke="#a6adc8" d="M1893.42,-385.43C1914.41,-382.92 1943.43,-376.47 1963.06,-360 1990.25,-337.17 1967.62,-306.9 1997.68,-288 2030.34,-267.47 2307.37,-279.05 2344.9,-288 2376.47,-295.53 2409.1,-312.41 2433.05,-326.81"/>
<polygon fill="#a6adc8" stroke="#a6adc8" points="2431.12,-329.73 2441.47,-331.99 2434.79,-323.77 2431.12,-329.73"/>
</g>
<!-- demo_shell&#45;&gt;demo_shell -->
<g id="edge15" class="edge">
<title>demo_shell&#45;&gt;demo_shell</title>
<path fill="none" stroke="#a6adc8" d="M2136.54,-333.15C2131.19,-342.54 2142.78,-351 2171.29,-351 2187.33,-351 2198.01,-348.32 2203.34,-344.31"/>
<polygon fill="#a6adc8" stroke="#a6adc8" points="2206.73,-345.17 2205.69,-334.62 2199.93,-343.52 2206.73,-345.17"/>
</g>
<!-- demo_shell&#45;&gt;user__self_provide_user_ -->
<g id="edge16" class="edge">
<title>demo_shell&#45;&gt;user__self_provide_user_</title>
<path fill="none" stroke="#a6adc8" d="M2218.41,-320.59C2258.89,-325.49 2319.16,-332.79 2370.51,-339.01"/>
<polygon fill="#a6adc8" stroke="#a6adc8" points="2369.81,-342.45 2380.16,-340.18 2370.65,-335.5 2369.81,-342.45"/>
</g>
<!-- dev_tools&#45;&gt;dev_tools -->
<g id="edge34" class="edge">
<title>dev_tools&#45;&gt;dev_tools</title>
<path fill="none" stroke="#a6adc8" d="M2136.54,-405.15C2131.19,-414.54 2142.78,-423 2171.29,-423 2187.33,-423 2198.01,-420.32 2203.34,-416.31"/>
<polygon fill="#a6adc8" stroke="#a6adc8" points="2206.73,-417.17 2205.69,-406.62 2199.93,-415.52 2206.73,-417.17"/>
</g>
<!-- dev_tools&#45;&gt;user__self_provide_user_ -->
<g id="edge35" class="edge">
<title>dev_tools&#45;&gt;user__self_provide_user_</title>
<path fill="none" stroke="#a6adc8" d="M2211.76,-382.22C2252.01,-377.34 2316.06,-369.59 2370.24,-363.02"/>
<polygon fill="#a6adc8" stroke="#a6adc8" points="2370.63,-366.5 2380.14,-361.83 2369.79,-359.55 2370.63,-366.5"/>
</g>
<!-- hyprland&#45;&gt;hyprland -->
<g id="edge58" class="edge">
<title>hyprland&#45;&gt;hyprland</title>
<path fill="none" stroke="#a6adc8" d="M2136.54,-477.15C2131.19,-486.54 2142.78,-495 2171.29,-495 2187.33,-495 2198.01,-492.32 2203.34,-488.31"/>
<polygon fill="#a6adc8" stroke="#a6adc8" points="2206.73,-489.17 2205.69,-478.62 2199.93,-487.52 2206.73,-489.17"/>
</g>
<!-- hyprland&#45;&gt;user__self_provide_user_ -->
<g id="edge59" class="edge">
<title>hyprland&#45;&gt;user__self_provide_user_</title>
<path fill="none" stroke="#a6adc8" d="M2211.54,-457.54C2247.33,-455.12 2301.14,-448.76 2344.9,-432 2379.58,-418.72 2414.64,-394.78 2438.71,-376.35"/>
<polygon fill="#a6adc8" stroke="#a6adc8" points="2440.76,-379.19 2446.49,-370.28 2436.45,-373.67 2440.76,-379.19"/>
</g>
<!-- user&#45;&gt;user -->
<g id="edge64" class="edge">
<title>user&#45;&gt;user</title>
<path fill="none" stroke="#a6adc8" d="M1845.59,-333.15C1842.45,-342.54 1849.27,-351 1866.06,-351 1875.5,-351 1881.8,-348.32 1884.93,-344.31"/>
<polygon fill="#a6adc8" stroke="#a6adc8" points="1888.36,-345.05 1886.31,-334.65 1881.43,-344.06 1888.36,-345.05"/>
</g>
<!-- user__aspect_user_ -->
<g id="node39" class="node">
<title>user__aspect_user_</title>
<polygon fill="#fab387" stroke="#fab387" points="2241.54,-151 2101.04,-151 2101.04,-115 2241.54,-115 2241.54,-151"/>
<text text-anchor="middle" x="2171.29" y="-128.32" font-family="Times,serif" font-size="14.00" fill="#1e1e2e">user/aspect(user)</text>
</g>
<!-- user&#45;&gt;user__aspect_user_ -->
<g id="edge65" class="edge">
<title>user&#45;&gt;user__aspect_user_</title>
<path fill="none" stroke="#a6adc8" d="M1893.34,-314.82C1915.16,-313.19 1945.38,-307.26 1963.06,-288 1988.14,-260.66 1968.08,-241.55 1978.68,-206 1985.01,-184.8 1980.31,-173.69 1997.68,-160 2023.26,-139.86 2057.72,-131.86 2089.13,-129.36"/>
<polygon fill="#a6adc8" stroke="#a6adc8" points="2089.26,-132.86 2099.03,-128.77 2088.84,-125.87 2089.26,-132.86"/>
</g>
</g>
</svg>
