<svg id="my-svg" width="100%" xmlns="http://www.w3.org/2000/svg" xmlns:xlink="http://www.w3.org/1999/xlink" class="flowchart" style="max-width: 1119.5px; background-color: rgb(30, 30, 46);" viewBox="4 4 1119.5 791" role="graphics-document document" aria-roledescription="flowchart-v2"><style>#my-svg{font-family:JetBrains Mono,Fira Code,DejaVu Sans Mono,monospace;font-size:16px;fill:#cdd6f4;}@keyframes edge-animation-frame{from{stroke-dashoffset:0;}}@keyframes dash{to{stroke-dashoffset:0;}}#my-svg .edge-animation-slow{stroke-dasharray:9,5!important;stroke-dashoffset:900;animation:dash 50s linear infinite;stroke-linecap:round;}#my-svg .edge-animation-fast{stroke-dasharray:9,5!important;stroke-dashoffset:900;animation:dash 20s linear infinite;stroke-linecap:round;}#my-svg .error-icon{fill:#313244;}#my-svg .error-text{fill:#cdd6f4;stroke:#cdd6f4;}#my-svg .edge-thickness-normal{stroke-width:1px;}#my-svg .edge-thickness-thick{stroke-width:3.5px;}#my-svg .edge-pattern-solid{stroke-dasharray:0;}#my-svg .edge-thickness-invisible{stroke-width:0;fill:none;}#my-svg .edge-pattern-dashed{stroke-dasharray:3;}#my-svg .edge-pattern-dotted{stroke-dasharray:2;}#my-svg .marker{fill:#a6adc8;stroke:#a6adc8;}#my-svg .marker.cross{stroke:#a6adc8;}#my-svg svg{font-family:JetBrains Mono,Fira Code,DejaVu Sans Mono,monospace;font-size:16px;}#my-svg p{margin:0;}#my-svg .label{font-family:JetBrains Mono,Fira Code,DejaVu Sans Mono,monospace;color:#cdd6f4;}#my-svg .cluster-label text{fill:#cdd6f4;}#my-svg .cluster-label span{color:#cdd6f4;}#my-svg .cluster-label span p{background-color:transparent;}#my-svg .label text,#my-svg span{fill:#cdd6f4;color:#cdd6f4;}#my-svg .node rect,#my-svg .node circle,#my-svg .node ellipse,#my-svg .node polygon,#my-svg .node path{fill:#313244;stroke:#a6adc8;stroke-width:1px;}#my-svg .rough-node .label text,#my-svg .node .label text,#my-svg .image-shape .label,#my-svg .icon-shape .label{text-anchor:middle;}#my-svg .node .katex path{fill:#000;stroke:#000;stroke-width:1px;}#my-svg .rough-node .label,#my-svg .node .label,#my-svg .image-shape .label,#my-svg .icon-shape .label{text-align:center;}#my-svg .node.clickable{cursor:pointer;}#my-svg .root .anchor path{fill:#a6adc8!important;stroke-width:0;stroke:#a6adc8;}#my-svg .arrowheadPath{fill:#e1e1d1;}#my-svg .edgePath .path{stroke:#a6adc8;stroke-width:1px;}#my-svg .flowchart-link{stroke:#a6adc8;fill:none;}#my-svg .edgeLabel{background-color:#1e1e2e;text-align:center;}#my-svg .edgeLabel p{background-color:#1e1e2e;}#my-svg .edgeLabel rect{opacity:0.5;background-color:#1e1e2e;fill:#1e1e2e;}#my-svg .labelBkg{background-color:rgba(30, 30, 46, 0.5);}#my-svg .cluster rect{fill:#313244;stroke:#6c7086;stroke-width:1px;}#my-svg .cluster text{fill:#cdd6f4;}#my-svg .cluster span{color:#cdd6f4;}#my-svg div.mermaidTooltip{position:absolute;text-align:center;max-width:200px;padding:2px;font-family:JetBrains Mono,Fira Code,DejaVu Sans Mono,monospace;font-size:12px;background:#313244;border:1px solid #6c7086;border-radius:2px;pointer-events:none;z-index:100;}#my-svg .flowchartTitleText{text-anchor:middle;font-size:18px;fill:#cdd6f4;}#my-svg rect.text{fill:none;stroke-width:0;}#my-svg .icon-shape,#my-svg .image-shape{background-color:#1e1e2e;text-align:center;}#my-svg .icon-shape p,#my-svg .image-shape p{background-color:#1e1e2e;padding:2px;}#my-svg .icon-shape .label rect,#my-svg .image-shape .label rect{opacity:0.5;background-color:#1e1e2e;fill:#1e1e2e;}#my-svg .label-icon{display:inline-block;height:1em;overflow:visible;vertical-align:-0.125em;}#my-svg .node .label-icon path{fill:currentColor;stroke:revert;stroke-width:revert;}#my-svg .node .neo-node{stroke:#a6adc8;}#my-svg [data-look="neo"].node rect,#my-svg [data-look="neo"].cluster rect,#my-svg [data-look="neo"].node polygon{stroke:url(#my-svg-gradient);filter:drop-shadow( 1px 2px 2px rgba(185,185,185,1));}#my-svg [data-look="neo"].node path{stroke:url(#my-svg-gradient);stroke-width:1px;}#my-svg [data-look="neo"].node .outer-path{filter:drop-shadow( 1px 2px 2px rgba(185,185,185,1));}#my-svg [data-look="neo"].node .neo-line path{stroke:#a6adc8;filter:none;}#my-svg [data-look="neo"].node circle{stroke:url(#my-svg-gradient);filter:drop-shadow( 1px 2px 2px rgba(185,185,185,1));}#my-svg [data-look="neo"].node circle .state-start{fill:#000000;}#my-svg [data-look="neo"].icon-shape .icon{fill:url(#my-svg-gradient);filter:drop-shadow( 1px 2px 2px rgba(185,185,185,1));}#my-svg [data-look="neo"].icon-shape .icon-neo path{stroke:url(#my-svg-gradient);filter:drop-shadow( 1px 2px 2px rgba(185,185,185,1));}#my-svg :root{--mermaid-font-family:JetBrains Mono,Fira Code,DejaVu Sans Mono,monospace;}#my-svg .root&gt;*{fill:#89b4fa!important;stroke:#89b4fa!important;color:#1e1e2e!important;font-weight:bold!important;}#my-svg .root span{fill:#89b4fa!important;stroke:#89b4fa!important;color:#1e1e2e!important;font-weight:bold!important;}#my-svg .root tspan{fill:#1e1e2e!important;}#my-svg .alice_c&gt;*{fill:#fab387!important;stroke:#fab387!important;color:#1e1e2e!important;stroke-width:2px!important;}#my-svg .alice_c span{fill:#fab387!important;stroke:#fab387!important;color:#1e1e2e!important;stroke-width:2px!important;}#my-svg .alice_c tspan{fill:#1e1e2e!important;}#my-svg .den__provides__define_user_c&gt;*{fill:#a6e3a1!important;stroke:#a6e3a1!important;color:#1e1e2e!important;stroke-dasharray:3 3!important;stroke-width:1px!important;}#my-svg .den__provides__define_user_c span{fill:#a6e3a1!important;stroke:#a6e3a1!important;color:#1e1e2e!important;stroke-dasharray:3 3!important;stroke-width:1px!important;}#my-svg .den__provides__define_user_c tspan{fill:#1e1e2e!important;}#my-svg .demo_shell_c&gt;*{fill:#fab387!important;stroke:#fab387!important;color:#1e1e2e!important;stroke-dasharray:3 3!important;stroke-width:1px!important;}#my-svg .demo_shell_c span{fill:#fab387!important;stroke:#fab387!important;color:#1e1e2e!important;stroke-dasharray:3 3!important;stroke-width:1px!important;}#my-svg .demo_shell_c tspan{fill:#1e1e2e!important;}#my-svg .desktop_c&gt;*{fill:#a6e3a1!important;stroke:#a6e3a1!important;color:#1e1e2e!important;stroke-width:2px!important;}#my-svg .desktop_c span{fill:#a6e3a1!important;stroke:#a6e3a1!important;color:#1e1e2e!important;stroke-width:2px!important;}#my-svg .desktop_c tspan{fill:#1e1e2e!important;}#my-svg .desktop_gdm_c&gt;*{fill:#a6e3a1!important;stroke:#a6e3a1!important;color:#1e1e2e!important;stroke-width:2px!important;}#my-svg .desktop_gdm_c span{fill:#a6e3a1!important;stroke:#a6e3a1!important;color:#1e1e2e!important;stroke-width:2px!important;}#my-svg .desktop_gdm_c tspan{fill:#1e1e2e!important;}#my-svg .dev_tools_c&gt;*{fill:#a6e3a1!important;stroke:#a6e3a1!important;color:#1e1e2e!important;stroke-dasharray:3 3!important;stroke-width:1px!important;}#my-svg .dev_tools_c span{fill:#a6e3a1!important;stroke:#a6e3a1!important;color:#1e1e2e!important;stroke-dasharray:3 3!important;stroke-width:1px!important;}#my-svg .dev_tools_c tspan{fill:#1e1e2e!important;}#my-svg .gdm_c&gt;*{fill:#a6e3a1!important;stroke:#a6e3a1!important;color:#1e1e2e!important;stroke-dasharray:3 3!important;stroke-width:1px!important;}#my-svg .gdm_c span{fill:#a6e3a1!important;stroke:#a6e3a1!important;color:#1e1e2e!important;stroke-dasharray:3 3!important;stroke-width:1px!important;}#my-svg .gdm_c tspan{fill:#1e1e2e!important;}#my-svg .den__provides__hostname_c&gt;*{fill:#fab387!important;stroke:#fab387!important;color:#1e1e2e!important;stroke-dasharray:3 3!important;stroke-width:1px!important;}#my-svg .den__provides__hostname_c span{fill:#fab387!important;stroke:#fab387!important;color:#1e1e2e!important;stroke-dasharray:3 3!important;stroke-width:1px!important;}#my-svg .den__provides__hostname_c tspan{fill:#1e1e2e!important;}#my-svg .hyprland_c&gt;*{fill:#fab387!important;stroke:#fab387!important;color:#1e1e2e!important;stroke-width:2px!important;}#my-svg .hyprland_c span{fill:#fab387!important;stroke:#fab387!important;color:#1e1e2e!important;stroke-width:2px!important;}#my-svg .hyprland_c tspan{fill:#1e1e2e!important;}#my-svg .den__provides__mutual_provider_c&gt;*{fill:#f9e2af!important;stroke:#f9e2af!important;color:#1e1e2e!important;stroke-dasharray:3 3!important;stroke-width:1px!important;}#my-svg .den__provides__mutual_provider_c span{fill:#f9e2af!important;stroke:#f9e2af!important;color:#1e1e2e!important;stroke-dasharray:3 3!important;stroke-width:1px!important;}#my-svg .den__provides__mutual_provider_c tspan{fill:#1e1e2e!important;}#my-svg .networking_c&gt;*{fill:#fab387!important;stroke:#fab387!important;color:#1e1e2e!important;stroke-width:2px!important;}#my-svg .networking_c span{fill:#fab387!important;stroke:#fab387!important;color:#1e1e2e!important;stroke-width:2px!important;}#my-svg .networking_c tspan{fill:#1e1e2e!important;}#my-svg .primary_user_c&gt;*{fill:#fab387!important;stroke:#fab387!important;color:#1e1e2e!important;stroke-dasharray:3 3!important;stroke-width:1px!important;}#my-svg .primary_user_c span{fill:#fab387!important;stroke:#fab387!important;color:#1e1e2e!important;stroke-dasharray:3 3!important;stroke-width:1px!important;}#my-svg .primary_user_c tspan{fill:#1e1e2e!important;}#my-svg .den__provides__primary_user_c&gt;*{fill:#fab387!important;stroke:#fab387!important;color:#1e1e2e!important;stroke-width:2px!important;}#my-svg .den__provides__primary_user_c span{fill:#fab387!important;stroke:#fab387!important;color:#1e1e2e!important;stroke-width:2px!important;}#my-svg .den__provides__primary_user_c tspan{fill:#1e1e2e!important;}#my-svg .regreet_c&gt;*{fill:#fab387!important;stroke:#fab387!important;color:#1e1e2e!important;stroke-dasharray:5 5!important;stroke-width:2px!important;}#my-svg .regreet_c span{fill:#fab387!important;stroke:#fab387!important;color:#1e1e2e!important;stroke-dasharray:5 5!important;stroke-width:2px!important;}#my-svg .regreet_c tspan{fill:#1e1e2e!important;}#my-svg .tailscale_c&gt;*{fill:#a6e3a1!important;stroke:#a6e3a1!important;color:#1e1e2e!important;stroke-width:2px!important;}#my-svg .tailscale_c span{fill:#a6e3a1!important;stroke:#a6e3a1!important;color:#1e1e2e!important;stroke-width:2px!important;}#my-svg .tailscale_c tspan{fill:#1e1e2e!important;}#my-svg .virtualization_c&gt;*{fill:#fab387!important;stroke:#fab387!important;color:#1e1e2e!important;stroke-width:2px!important;}#my-svg .virtualization_c span{fill:#fab387!important;stroke:#fab387!important;color:#1e1e2e!important;stroke-width:2px!important;}#my-svg .virtualization_c tspan{fill:#1e1e2e!important;}#my-svg .workstation_c&gt;*{fill:#a6e3a1!important;stroke:#a6e3a1!important;color:#1e1e2e!important;stroke-dasharray:3 3!important;stroke-width:1px!important;}#my-svg .workstation_c span{fill:#a6e3a1!important;stroke:#a6e3a1!important;color:#1e1e2e!important;stroke-dasharray:3 3!important;stroke-width:1px!important;}#my-svg .workstation_c tspan{fill:#1e1e2e!important;}</style><g><marker id="my-svg_flowchart-v2-pointEnd" class="marker flowchart-v2" viewBox="0 0 10 10" refX="5" refY="5" markerUnits="userSpaceOnUse" markerWidth="8" markerHeight="8" orient="auto"><path d="M 0 0 L 10 5 L 0 10 z" class="arrowMarkerPath" style="stroke-width: 1; stroke-dasharray: 1, 0;"/></marker><marker id="my-svg_flowchart-v2-pointStart" class="marker flowchart-v2" viewBox="0 0 10 10" refX="4.5" refY="5" markerUnits="userSpaceOnUse" markerWidth="8" markerHeight="8" orient="auto"><path d="M 0 5 L 10 10 L 10 0 z" class="arrowMarkerPath" style="stroke-width: 1; stroke-dasharray: 1, 0;"/></marker><marker id="my-svg_flowchart-v2-pointEnd-margin" class="marker flowchart-v2" viewBox="0 0 11.5 14" refX="11.5" refY="7" markerUnits="userSpaceOnUse" markerWidth="10.5" markerHeight="14" orient="auto"><path d="M 0 0 L 11.5 7 L 0 14 z" class="arrowMarkerPath" style="stroke-width: 0; stroke-dasharray: 1, 0;"/></marker><marker id="my-svg_flowchart-v2-pointStart-margin" class="marker flowchart-v2" viewBox="0 0 11.5 14" refX="1" refY="7" markerUnits="userSpaceOnUse" markerWidth="11.5" markerHeight="14" orient="auto"><polygon points="0,7 11.5,14 11.5,0" class="arrowMarkerPath" style="stroke-width: 0; stroke-dasharray: 1, 0;"/></marker><marker id="my-svg_flowchart-v2-circleEnd" class="marker flowchart-v2" viewBox="0 0 10 10" refX="11" refY="5" markerUnits="userSpaceOnUse" markerWidth="11" markerHeight="11" orient="auto"><circle cx="5" cy="5" r="5" class="arrowMarkerPath" style="stroke-width: 1; stroke-dasharray: 1, 0;"/></marker><marker id="my-svg_flowchart-v2-circleStart" class="marker flowchart-v2" viewBox="0 0 10 10" refX="-1" refY="5" markerUnits="userSpaceOnUse" markerWidth="11" markerHeight="11" orient="auto"><circle cx="5" cy="5" r="5" class="arrowMarkerPath" style="stroke-width: 1; stroke-dasharray: 1, 0;"/></marker><marker id="my-svg_flowchart-v2-circleEnd-margin" class="marker flowchart-v2" viewBox="0 0 10 10" refY="5" refX="12.25" markerUnits="userSpaceOnUse" markerWidth="14" markerHeight="14" orient="auto"><circle cx="5" cy="5" r="5" class="arrowMarkerPath" style="stroke-width: 0; stroke-dasharray: 1, 0;"/></marker><marker id="my-svg_flowchart-v2-circleStart-margin" class="marker flowchart-v2" viewBox="0 0 10 10" refX="-2" refY="5" markerUnits="userSpaceOnUse" markerWidth="14" markerHeight="14" orient="auto"><circle cx="5" cy="5" r="5" class="arrowMarkerPath" style="stroke-width: 0; stroke-dasharray: 1, 0;"/></marker><marker id="my-svg_flowchart-v2-crossEnd" class="marker cross flowchart-v2" viewBox="0 0 11 11" refX="12" refY="5.2" markerUnits="userSpaceOnUse" markerWidth="11" markerHeight="11" orient="auto"><path d="M 1,1 l 9,9 M 10,1 l -9,9" class="arrowMarkerPath" style="stroke-width: 2; stroke-dasharray: 1, 0;"/></marker><marker id="my-svg_flowchart-v2-crossStart" class="marker cross flowchart-v2" viewBox="0 0 11 11" refX="-1" refY="5.2" markerUnits="userSpaceOnUse" markerWidth="11" markerHeight="11" orient="auto"><path d="M 1,1 l 9,9 M 10,1 l -9,9" class="arrowMarkerPath" style="stroke-width: 2; stroke-dasharray: 1, 0;"/></marker><marker id="my-svg_flowchart-v2-crossEnd-margin" class="marker cross flowchart-v2" viewBox="0 0 15 15" refX="17.7" refY="7.5" markerUnits="userSpaceOnUse" markerWidth="12" markerHeight="12" orient="auto"><path d="M 1,1 L 14,14 M 1,14 L 14,1" class="arrowMarkerPath" style="stroke-width: 2.5;"/></marker><marker id="my-svg_flowchart-v2-crossStart-margin" class="marker cross flowchart-v2" viewBox="0 0 15 15" refX="-3.5" refY="7.5" markerUnits="userSpaceOnUse" markerWidth="12" markerHeight="12" orient="auto"><path d="M 1,1 L 14,14 M 1,14 L 14,1" class="arrowMarkerPath" style="stroke-width: 2.5; stroke-dasharray: 1, 0;"/></marker></g><defs><filter id="my-svg-drop-shadow" height="130%" width="130%"><feDropShadow dx="4" dy="4" stdDeviation="0" flood-opacity="0.06" flood-color="#000000"/></filter></defs><defs><filter id="my-svg-drop-shadow-small" height="150%" width="150%"><feDropShadow dx="2" dy="2" stdDeviation="0" flood-opacity="0.06" flood-color="#000000"/></filter></defs><linearGradient id="my-svg-gradient" gradientUnits="objectBoundingBox" x1="0%" y1="0%" x2="100%" y2="0%"><stop offset="0%" stop-color="#a6adc8" stop-opacity="1"/><stop offset="100%" stop-color="#6c7086" stop-opacity="1"/></linearGradient><g class="subgraphs"/><g class="nodes"><g class="node default root " id="my-svg-flowchart-desktop_gdm-0" data-look="classic" transform="translate(222.63501739501953, 395)"><g class="basic label-container outer-path"><path d="M-47.875 -19.5 C-16.725896788804334 -19.5, 14.423206422391331 -19.5, 47.875 -19.5 C47.875 -19.5, 47.875 -19.5, 47.875 -19.5 C48.2658168225806 -19.487467265178637, 48.6566336451612 -19.474934530357277, 49.1243692896239 -19.45993515863156 C49.57441630342678 -19.41651966447072, 50.02446331722965 -19.373104170309876, 50.368604652847864 -19.3399052695533 C50.75223705037203 -19.27788255863527, 51.1358694478962 -19.215859847717237, 51.60259325967676 -19.140403561325776 C52.05737325359073 -19.03660299543172, 52.5121532475047 -18.932802429537663, 52.82126438623539 -18.862249829261074 C53.09800726725995 -18.78011399482601, 53.374750148284505 -18.69797816039095, 54.019610251460605 -18.50658706670804 C54.4565211457633 -18.345799818844615, 54.893432040065996 -18.18501257098119, 55.1927065951478 -18.074876768247425 C55.51157333351806 -17.933723922016632, 55.83044007188832 -17.792571075785837, 56.33573291279238 -17.568892924097174 C56.57286594283587 -17.445180774214442, 56.809998972879356 -17.321468624331708, 57.44399226407678 -16.990714730406097 C57.742158821392096 -16.80996441114037, 58.04032537870741 -16.629214091874644, 58.5129305736057 -16.342718045390892 C58.89511066109784 -16.076125760665718, 59.27729074858998 -15.809533475940542, 59.53815534457871 -15.627565626425154 C59.89331925986935 -15.344331855289585, 60.24848317515999 -15.061098084154015, 60.515453708501866 -14.848196188198123 C60.7574954512939 -14.628380281467981, 60.99953719408594 -14.40856437473784, 61.44080973676799 -14.007812326905688 C61.651933997554366 -13.789809194019577, 61.86305825834075 -13.571806061133469, 62.31042094296865 -13.10986736009568 C62.63311228521553 -12.730815747834955, 62.955803627462416 -12.35176413557423, 63.12071390812658 -12.158051136245305 C63.38384089511372 -11.805484945044185, 63.64696788210087 -11.452918753843067, 63.868358964640635 -11.156274872382312 C64.10744749876362 -10.78897067970855, 64.3465360328866 -10.42166648703479, 64.55028387860425 -10.108655082055241 C64.74721367078506 -9.758986294734399, 64.94414346296587 -9.409317507413556, 65.1636864742735 -9.019496659696287 C65.27799539274162 -8.782131744678209, 65.39230431120973 -8.544766829660128, 65.70604614880834 -7.893275190886684 C65.86887901682367 -7.491074858729473, 66.03171188483901 -7.088874526572261, 66.17513422997033 -6.734618561215508 C66.26326987980397 -6.469168026425346, 66.35140552963763 -6.203717491635183, 66.56902313421489 -5.548287939305138 C66.64881799324819 -5.243995558500479, 66.7286128522815 -4.93970317769582, 66.88609428754556 -4.339158212148133 C66.95599083700779 -3.9802542033005786, 67.02588738647 -3.621350194453024, 67.12504477658177 -3.1121979531509023 C67.15744862569545 -2.8608800982889546, 67.18985247480914 -2.609562243427007, 67.28489270250937 -1.872449005199798 C67.30229645439579 -1.6013715215132218, 67.31970020628219 -1.330294037826646, 67.36498121591342 -0.6250057626472757 C67.36498121591342 -0.30707845327537076, 67.36498121591342 0.010848856096534187, 67.36498121591342 0.625005762647271 C67.33818875030403 1.0423200410025113, 67.31139628469464 1.4596343193577515, 67.28489270250937 1.8724490051997846 C67.23794380600434 2.2365753753844984, 67.19099490949932 2.600701745569212, 67.12504477658177 3.1121979531508885 C67.05008208321814 3.4971155402022878, 66.97511938985451 3.8820331272536874, 66.88609428754556 4.339158212148129 C66.76610235867561 4.796739441760179, 66.64611042980567 5.254320671372231, 66.56902313421489 5.548287939305125 C66.42945640159263 5.968640701024333, 66.28988966897039 6.388993462743541, 66.17513422997033 6.734618561215495 C66.05425463433721 7.033193499477285, 65.9333750387041 7.331768437739076, 65.70604614880834 7.893275190886679 C65.58954036950455 8.13520193443533, 65.47303459020077 8.37712867798398, 65.1636864742735 9.019496659696284 C65.03392895457107 9.249894275301616, 64.90417143486863 9.480291890906948, 64.55028387860425 10.108655082055236 C64.39994354815987 10.339618201649145, 64.24960321771549 10.570581321243054, 63.86835896464064 11.156274872382301 C63.623346518495865 11.484569229123275, 63.37833407235108 11.81286358586425, 63.12071390812658 12.158051136245302 C62.85013869548875 12.475884177175454, 62.579563482850915 12.793717218105606, 62.31042094296866 13.10986736009567 C62.00055089645924 13.429833623920606, 61.69068084994981 13.74979988774554, 61.44080973676799 14.007812326905684 C61.13728967904041 14.283461212633213, 60.83376962131283 14.559110098360742, 60.51545370850189 14.848196188198111 C60.16348293411001 15.128883514439966, 59.81151215971813 15.409570840681821, 59.53815534457871 15.627565626425152 C59.307989119241654 15.788119621484975, 59.0778228939046 15.948673616544799, 58.51293057360571 16.34271804539089 C58.14774579565242 16.564095203850137, 57.78256101769912 16.785472362309385, 57.44399226407678 16.990714730406093 C57.04805455821288 17.197275177945087, 56.65211685234898 17.40383562548408, 56.33573291279239 17.56889292409717 C55.983936229061506 17.72462288030699, 55.632139545330624 17.880352836516806, 55.192706595147804 18.07487676824742 C54.773211542639636 18.229254825340185, 54.35371649013146 18.38363288243295, 54.01961025146062 18.506587066708033 C53.6227343589423 18.624377748363397, 53.225858466423986 18.742168430018765, 52.82126438623541 18.86224982926107 C52.48115753602509 18.939876998416967, 52.14105068581476 19.01750416757286, 51.602593259676766 19.140403561325773 C51.162897718788464 19.211490126486748, 50.723202177900156 19.282576691647723, 50.36860465284788 19.3399052695533 C50.06742338602315 19.36895986414041, 49.76624211919843 19.398014458727523, 49.1243692896239 19.45993515863156 C48.62678212031872 19.475891810656506, 48.12919495101355 19.491848462681453, 47.87500000000001 19.5 C47.87500000000001 19.5, 47.875 19.5, 47.875 19.5 C10.236480574260227 19.5, -27.402038851479546 19.5, -47.87499999999999 19.5 C-48.28988053734761 19.48669558868324, -48.70476107469522 19.47339117736648, -49.12436928962389 19.45993515863156 C-49.49854624012023 19.4238387582308, -49.872723190616554 19.387742357830042, -50.36860465284787 19.3399052695533 C-50.76596368771009 19.27566334236211, -51.16332272257231 19.21142141517093, -51.60259325967676 19.140403561325773 C-51.91463227152075 19.06918269311723, -52.226671283364745 18.99796182490869, -52.821264386235384 18.862249829261074 C-53.26680696200376 18.730015131473724, -53.71234953777214 18.597780433686378, -54.01961025146059 18.506587066708043 C-54.47143553716403 18.34031118494202, -54.92326082286747 18.174035303176, -55.1927065951478 18.074876768247425 C-55.5029499864861 17.937541221945178, -55.813193377824405 17.80020567564293, -56.33573291279238 17.568892924097174 C-56.67066299923404 17.39416011253352, -57.0055930856757 17.219427300969866, -57.44399226407678 16.990714730406097 C-57.68498753092675 16.844621983396262, -57.925982797776705 16.698529236386424, -58.512930573605686 16.3427180453909 C-58.73381141634562 16.188641131273098, -58.954692259085554 16.034564217155296, -59.53815534457871 15.627565626425156 C-59.817896031825946 15.40447987255781, -60.097636719073186 15.181394118690461, -60.515453708501866 14.848196188198125 C-60.837913851865515 14.55534641782312, -61.16037399522917 14.262496647448115, -61.440809736767974 14.007812326905697 C-61.66785183847007 13.77337271639507, -61.89489394017216 13.538933105884443, -62.310420942968655 13.109867360095677 C-62.51256521284264 12.872417198366893, -62.71470948271662 12.634967036638109, -63.120713908126575 12.158051136245307 C-63.29445139081557 11.92525873725234, -63.46818887350456 11.692466338259372, -63.868358964640635 11.156274872382316 C-64.00934731909079 10.939678899272705, -64.15033567354095 10.723082926163094, -64.55028387860425 10.108655082055249 C-64.77018482123557 9.718198691028304, -64.99008576386689 9.32774230000136, -65.1636864742735 9.019496659696289 C-65.27956416966707 8.778874145826059, -65.39544186506063 8.53825163195583, -65.70604614880834 7.893275190886686 C-65.85287787654315 7.530597984583386, -65.99970960427795 7.1679207782800844, -66.17513422997033 6.73461856121551 C-66.27049263469682 6.447414239477819, -66.3658510394233 6.1602099177401275, -66.56902313421489 5.5482879393051325 C-66.63768518501368 5.286449781288279, -66.70634723581247 5.024611623271424, -66.88609428754556 4.339158212148136 C-66.95454674924686 3.987669288744904, -67.02299921094814 3.636180365341672, -67.12504477658177 3.112197953150904 C-67.18616814401149 2.6381371855402125, -67.24729151144119 2.164076417929521, -67.28489270250937 1.872449005199809 C-67.31534812847501 1.3980811626074678, -67.34580355444066 0.9237133200151268, -67.36498121591342 0.6250057626472781 C-67.36498121591342 0.22871659708925046, -67.36498121591342 -0.16757256846877722, -67.36498121591342 -0.6250057626472687 C-67.34614665914432 -0.9183691873064729, -67.32731210237523 -1.211732611965677, -67.28489270250937 -1.8724490051997822 C-67.2484191431239 -2.1553307292745503, -67.21194558373843 -2.438212453349318, -67.12504477658177 -3.112197953150895 C-67.03719492190223 -3.56328838985699, -66.9493450672227 -4.014378826563084, -66.88609428754556 -4.339158212148126 C-66.7891976330642 -4.708667150961237, -66.69230097858285 -5.078176089774346, -66.56902313421489 -5.548287939305123 C-66.46470436513837 -5.862479450824872, -66.36038559606187 -6.176670962344621, -66.17513422997033 -6.734618561215485 C-66.05214813740018 -7.03839658763808, -65.92916204483004 -7.342174614060675, -65.70604614880834 -7.893275190886676 C-65.55612519229177 -8.204589264887932, -65.40620423577519 -8.515903338889187, -65.1636864742735 -9.019496659696282 C-65.00989815110026 -9.292563400246761, -64.856109827927 -9.565630140797241, -64.55028387860425 -10.108655082055243 C-64.2912586072744 -10.506587456842281, -64.03223333594455 -10.904519831629319, -63.86835896464064 -11.156274872382308 C-63.69208065038479 -11.392471754200352, -63.515802336128935 -11.628668636018396, -63.12071390812659 -12.158051136245302 C-62.92234043501856 -12.39107190552838, -62.723966961910534 -12.624092674811456, -62.31042094296866 -13.10986736009567 C-62.10415707768858 -13.32285173557563, -61.897893212408505 -13.53583611105559, -61.440809736767996 -14.007812326905677 C-61.2178782121242 -14.210272839142254, -60.99494668748041 -14.412733351378833, -60.51545370850189 -14.848196188198107 C-60.131529127133675 -15.154365825177074, -59.74760454576546 -15.460535462156042, -59.53815534457872 -15.627565626425149 C-59.2145752026571 -15.85328112587109, -58.89099506073548 -16.078996625317032, -58.512930573605715 -16.342718045390885 C-58.20529204273205 -16.52921033069118, -57.89765351185839 -16.715702615991475, -57.44399226407679 -16.99071473040609 C-57.16927120980119 -17.134036528454438, -56.89455015552559 -17.277358326502785, -56.33573291279239 -17.56889292409717 C-55.995237902523876 -17.71961996471743, -55.65474289225536 -17.87034700533769, -55.192706595147804 -18.07487676824742 C-54.72349452628204 -18.247551146938843, -54.25428245741627 -18.42022552563026, -54.01961025146062 -18.506587066708033 C-53.55245835109603 -18.64523529860588, -53.08530645073144 -18.783883530503726, -52.82126438623541 -18.862249829261067 C-52.55840523657885 -18.922245714853922, -52.29554608692228 -18.982241600446777, -51.602593259676766 -19.140403561325773 C-51.30308446295415 -19.188825820854476, -51.00357566623155 -19.23724808038318, -50.36860465284788 -19.3399052695533 C-50.10050741620575 -19.365768287538064, -49.83241017956362 -19.39163130552283, -49.1243692896239 -19.45993515863156 C-48.680872771329746 -19.474157228759648, -48.23737625303559 -19.488379298887736, -47.87500000000001 -19.5 C-47.87500000000001 -19.5, -47.875 -19.5, -47.875 -19.5" stroke="none" stroke-width="0" fill="#89b4fa" style="fill:#89b4fa !important;stroke:#89b4fa !important"/><path d="M-47.875 -19.5 C-22.001985248503868 -19.5, 3.871029502992265 -19.5, 47.875 -19.5 M-47.875 -19.5 C-10.942973217071156 -19.5, 25.989053565857688 -19.5, 47.875 -19.5 M47.875 -19.5 C47.875 -19.5, 47.875 -19.5, 47.875 -19.5 M47.875 -19.5 C47.875 -19.5, 47.875 -19.5, 47.875 -19.5 M47.875 -19.5 C48.338534285162915 -19.48513535768958, 48.80206857032583 -19.470270715379154, 49.1243692896239 -19.45993515863156 M47.875 -19.5 C48.160779998728685 -19.490835591677794, 48.44655999745738 -19.481671183355587, 49.1243692896239 -19.45993515863156 M49.1243692896239 -19.45993515863156 C49.497908997294104 -19.42390023227984, 49.8714487049643 -19.38786530592812, 50.368604652847864 -19.3399052695533 M49.1243692896239 -19.45993515863156 C49.59014948801906 -19.415001903075023, 50.05592968641421 -19.37006864751849, 50.368604652847864 -19.3399052695533 M50.368604652847864 -19.3399052695533 C50.838652728132814 -19.263911542018494, 51.308700803417764 -19.18791781448369, 51.60259325967676 -19.140403561325776 M50.368604652847864 -19.3399052695533 C50.77046910676352 -19.274934941149603, 51.172333560679185 -19.209964612745903, 51.60259325967676 -19.140403561325776 M51.60259325967676 -19.140403561325776 C52.0540046938689 -19.037371847206323, 52.50541612806103 -18.934340133086867, 52.82126438623539 -18.862249829261074 M51.60259325967676 -19.140403561325776 C52.054159361679254 -19.03733654528791, 52.50572546368175 -18.93426952925004, 52.82126438623539 -18.862249829261074 M52.82126438623539 -18.862249829261074 C53.261659319235896 -18.7315429248267, 53.70205425223641 -18.600836020392325, 54.019610251460605 -18.50658706670804 M52.82126438623539 -18.862249829261074 C53.218535161267916 -18.74434194854827, 53.61580593630044 -18.626434067835472, 54.019610251460605 -18.50658706670804 M54.019610251460605 -18.50658706670804 C54.33396684963753 -18.390900932698393, 54.64832344781445 -18.275214798688747, 55.1927065951478 -18.074876768247425 M54.019610251460605 -18.50658706670804 C54.3498617087931 -18.385051477598676, 54.680113166125594 -18.263515888489312, 55.1927065951478 -18.074876768247425 M55.1927065951478 -18.074876768247425 C55.56183645835886 -17.91147392765223, 55.93096632156992 -17.74807108705704, 56.33573291279238 -17.568892924097174 M55.1927065951478 -18.074876768247425 C55.429784554394836 -17.96992938835655, 55.66686251364187 -17.86498200846568, 56.33573291279238 -17.568892924097174 M56.33573291279238 -17.568892924097174 C56.595790111822495 -17.433221249937752, 56.8558473108526 -17.297549575778326, 57.44399226407678 -16.990714730406097 M56.33573291279238 -17.568892924097174 C56.769140399490745 -17.342784515897385, 57.2025478861891 -17.116676107697593, 57.44399226407678 -16.990714730406097 M57.44399226407678 -16.990714730406097 C57.77239871290826 -16.791632811193942, 58.10080516173974 -16.592550891981784, 58.5129305736057 -16.342718045390892 M57.44399226407678 -16.990714730406097 C57.84241177037679 -16.749190484314123, 58.2408312766768 -16.50766623822215, 58.5129305736057 -16.342718045390892 M58.5129305736057 -16.342718045390892 C58.90229447258406 -16.071114644755113, 59.29165837156243 -15.799511244119335, 59.53815534457871 -15.627565626425154 M58.5129305736057 -16.342718045390892 C58.827315440381504 -16.123416771829625, 59.141700307157315 -15.90411549826836, 59.53815534457871 -15.627565626425154 M59.53815534457871 -15.627565626425154 C59.76536197439998 -15.446374385365036, 59.99256860422125 -15.265183144304919, 60.515453708501866 -14.848196188198123 M59.53815534457871 -15.627565626425154 C59.7672064016226 -15.444903503737269, 59.996257458666484 -15.262241381049382, 60.515453708501866 -14.848196188198123 M60.515453708501866 -14.848196188198123 C60.75168560030181 -14.63365663441876, 60.987917492101765 -14.419117080639397, 61.44080973676799 -14.007812326905688 M60.515453708501866 -14.848196188198123 C60.82357513445185 -14.568368461596538, 61.13169656040184 -14.288540734994953, 61.44080973676799 -14.007812326905688 M61.44080973676799 -14.007812326905688 C61.651857175548045 -13.789888519048308, 61.8629046143281 -13.57196471119093, 62.31042094296865 -13.10986736009568 M61.44080973676799 -14.007812326905688 C61.615217010856206 -13.827722497306098, 61.78962428494443 -13.647632667706509, 62.31042094296865 -13.10986736009568 M62.31042094296865 -13.10986736009568 C62.50924695043947 -12.876315018200136, 62.70807295791028 -12.64276267630459, 63.12071390812658 -12.158051136245305 M62.31042094296865 -13.10986736009568 C62.536696055774755 -12.84407173717497, 62.762971168580854 -12.578276114254258, 63.12071390812658 -12.158051136245305 M63.12071390812658 -12.158051136245305 C63.368235735832464 -11.826394436821815, 63.615757563538345 -11.494737737398326, 63.868358964640635 -11.156274872382312 M63.12071390812658 -12.158051136245305 C63.312004870327826 -11.9017386738608, 63.50329583252907 -11.645426211476295, 63.868358964640635 -11.156274872382312 M63.868358964640635 -11.156274872382312 C64.00923539254843 -10.939850848498256, 64.15011182045623 -10.7234268246142, 64.55028387860425 -10.108655082055241 M63.868358964640635 -11.156274872382312 C64.12799239416017 -10.757408203302562, 64.38762582367971 -10.358541534222812, 64.55028387860425 -10.108655082055241 M64.55028387860425 -10.108655082055241 C64.71460748212503 -9.81688188443491, 64.8789310856458 -9.52510868681458, 65.1636864742735 -9.019496659696287 M64.55028387860425 -10.108655082055241 C64.67344073918198 -9.88997760511504, 64.7965975997597 -9.67130012817484, 65.1636864742735 -9.019496659696287 M65.1636864742735 -9.019496659696287 C65.34190302346262 -8.649426182081807, 65.52011957265172 -8.279355704467328, 65.70604614880834 -7.893275190886684 M65.1636864742735 -9.019496659696287 C65.28260896088685 -8.772551571710101, 65.40153144750018 -8.525606483723916, 65.70604614880834 -7.893275190886684 M65.70604614880834 -7.893275190886684 C65.88274022873166 -7.456837397328451, 66.05943430865497 -7.020399603770217, 66.17513422997033 -6.734618561215508 M65.70604614880834 -7.893275190886684 C65.8284377262107 -7.590965628422689, 65.95082930361306 -7.288656065958693, 66.17513422997033 -6.734618561215508 M66.17513422997033 -6.734618561215508 C66.27761150242794 -6.425973344109209, 66.38008877488556 -6.117328127002909, 66.56902313421489 -5.548287939305138 M66.17513422997033 -6.734618561215508 C66.28745823185471 -6.396316563939059, 66.3997822337391 -6.05801456666261, 66.56902313421489 -5.548287939305138 M66.56902313421489 -5.548287939305138 C66.68183351784883 -5.118093054179372, 66.79464390148277 -4.687898169053607, 66.88609428754556 -4.339158212148133 M66.56902313421489 -5.548287939305138 C66.65463714233132 -5.221804621011333, 66.74025115044776 -4.8953213027175275, 66.88609428754556 -4.339158212148133 M66.88609428754556 -4.339158212148133 C66.97519710726677 -3.881634064767354, 67.06429992698797 -3.4241099173865748, 67.12504477658177 -3.1121979531509023 M66.88609428754556 -4.339158212148133 C66.94941608348557 -4.014014173062491, 67.01273787942559 -3.688870133976849, 67.12504477658177 -3.1121979531509023 M67.12504477658177 -3.1121979531509023 C67.16427735749562 -2.807917802932524, 67.20350993840947 -2.5036376527141453, 67.28489270250937 -1.872449005199798 M67.12504477658177 -3.1121979531509023 C67.18619013246929 -2.6379666474035317, 67.24733548835682 -2.1637353416561615, 67.28489270250937 -1.872449005199798 M67.28489270250937 -1.872449005199798 C67.3073754248365 -1.5222624572278924, 67.32985814716363 -1.172075909255987, 67.36498121591342 -0.6250057626472757 M67.28489270250937 -1.872449005199798 C67.31392442145321 -1.4202565486677827, 67.34295614039705 -0.9680640921357674, 67.36498121591342 -0.6250057626472757 M67.36498121591342 -0.6250057626472757 C67.36498121591342 -0.22427570022476045, 67.36498121591342 0.1764543621977548, 67.36498121591342 0.625005762647271 M67.36498121591342 -0.6250057626472757 C67.36498121591342 -0.2837043655950565, 67.36498121591342 0.05759703145716266, 67.36498121591342 0.625005762647271 M67.36498121591342 0.625005762647271 C67.34699920325795 0.9050901245754814, 67.32901719060249 1.1851744865036917, 67.28489270250937 1.8724490051997846 M67.36498121591342 0.625005762647271 C67.33305589185079 1.1222684545803743, 67.30113056778818 1.6195311465134774, 67.28489270250937 1.8724490051997846 M67.28489270250937 1.8724490051997846 C67.23019161100163 2.2966998689815026, 67.17549051949389 2.72095073276322, 67.12504477658177 3.1121979531508885 M67.28489270250937 1.8724490051997846 C67.23037126464912 2.295306510768144, 67.17584982678888 2.718164016336503, 67.12504477658177 3.1121979531508885 M67.12504477658177 3.1121979531508885 C67.06902852653839 3.3998295580850177, 67.01301227649502 3.6874611630191465, 66.88609428754556 4.339158212148129 M67.12504477658177 3.1121979531508885 C67.0549134627736 3.472307427297469, 66.98478214896542 3.8324169014440495, 66.88609428754556 4.339158212148129 M66.88609428754556 4.339158212148129 C66.79580101056753 4.683485610619131, 66.70550773358951 5.027813009090135, 66.56902313421489 5.548287939305125 M66.88609428754556 4.339158212148129 C66.77254845215451 4.7721576935705565, 66.65900261676346 5.2051571749929835, 66.56902313421489 5.548287939305125 M66.56902313421489 5.548287939305125 C66.45336696392327 5.896625896915214, 66.33771079363166 6.244963854525302, 66.17513422997033 6.734618561215495 M66.56902313421489 5.548287939305125 C66.47037897767912 5.8453884219789165, 66.37173482114333 6.1424889046527085, 66.17513422997033 6.734618561215495 M66.17513422997033 6.734618561215495 C65.99091891458389 7.189633951780848, 65.80670359919743 7.644649342346201, 65.70604614880834 7.893275190886679 M66.17513422997033 6.734618561215495 C65.98891545927232 7.194582525134587, 65.8026966885743 7.654546489053679, 65.70604614880834 7.893275190886679 M65.70604614880834 7.893275190886679 C65.54365134277208 8.230491480313194, 65.38125653673582 8.56770776973971, 65.1636864742735 9.019496659696284 M65.70604614880834 7.893275190886679 C65.51425557859291 8.291532413599835, 65.32246500837748 8.689789636312991, 65.1636864742735 9.019496659696284 M65.1636864742735 9.019496659696284 C64.95862661752706 9.383601199911709, 64.75356676078063 9.747705740127136, 64.55028387860425 10.108655082055236 M65.1636864742735 9.019496659696284 C64.99487653904322 9.319235793557198, 64.82606660381292 9.61897492741811, 64.55028387860425 10.108655082055236 M64.55028387860425 10.108655082055236 C64.37622827431042 10.376051230724594, 64.2021726700166 10.643447379393951, 63.86835896464064 11.156274872382301 M64.55028387860425 10.108655082055236 C64.33893465575048 10.433344243571437, 64.12758543289672 10.758033405087637, 63.86835896464064 11.156274872382301 M63.86835896464064 11.156274872382301 C63.60843735360509 11.504546151824043, 63.348515742569546 11.852817431265784, 63.12071390812658 12.158051136245302 M63.86835896464064 11.156274872382301 C63.62481358248257 11.482603497033367, 63.38126820032449 11.808932121684432, 63.12071390812658 12.158051136245302 M63.12071390812658 12.158051136245302 C62.958088011795525 12.349080767751406, 62.79546211546447 12.540110399257513, 62.31042094296866 13.10986736009567 M63.12071390812658 12.158051136245302 C62.942911118010215 12.36690841078135, 62.765108327893856 12.5757656853174, 62.31042094296866 13.10986736009567 M62.31042094296866 13.10986736009567 C62.03857707966458 13.390568467753384, 61.7667332163605 13.671269575411099, 61.44080973676799 14.007812326905684 M62.31042094296866 13.10986736009567 C61.980249916599426 13.450796052367302, 61.65007889023019 13.791724744638934, 61.44080973676799 14.007812326905684 M61.44080973676799 14.007812326905684 C61.10951776535926 14.308682929833868, 60.77822579395052 14.609553532762053, 60.51545370850189 14.848196188198111 M61.44080973676799 14.007812326905684 C61.14092330979886 14.280161245318991, 60.841036882829734 14.552510163732297, 60.51545370850189 14.848196188198111 M60.51545370850189 14.848196188198111 C60.311424480933134 15.010904067738425, 60.10739525336438 15.173611947278738, 59.53815534457871 15.627565626425152 M60.51545370850189 14.848196188198111 C60.23072227000147 15.075261933380396, 59.94599083150106 15.302327678562683, 59.53815534457871 15.627565626425152 M59.53815534457871 15.627565626425152 C59.150007232492776 15.898320946755343, 58.76185912040684 16.169076267085533, 58.51293057360571 16.34271804539089 M59.53815534457871 15.627565626425152 C59.13491842571586 15.908846245179003, 58.731681506853 16.190126863932853, 58.51293057360571 16.34271804539089 M58.51293057360571 16.34271804539089 C58.29053090628053 16.477538030688926, 58.06813123895535 16.612358015986967, 57.44399226407678 16.990714730406093 M58.51293057360571 16.34271804539089 C58.28833021749372 16.478872101164175, 58.06372986138173 16.61502615693746, 57.44399226407678 16.990714730406093 M57.44399226407678 16.990714730406093 C57.13368324856431 17.15260274503654, 56.82337423305184 17.314490759666988, 56.33573291279239 17.56889292409717 M57.44399226407678 16.990714730406093 C57.190016026585496 17.123213970825756, 56.9360397890942 17.255713211245418, 56.33573291279239 17.56889292409717 M56.33573291279239 17.56889292409717 C56.100254829417395 17.67313208639812, 55.8647767460424 17.777371248699072, 55.192706595147804 18.07487676824742 M56.33573291279239 17.56889292409717 C56.0996853322921 17.673384185881957, 55.863637751791806 17.777875447666748, 55.192706595147804 18.07487676824742 M55.192706595147804 18.07487676824742 C54.93746689582666 18.168807337007518, 54.682227196505515 18.262737905767615, 54.01961025146062 18.506587066708033 M55.192706595147804 18.07487676824742 C54.856771152224894 18.198504116596244, 54.52083570930199 18.322131464945066, 54.01961025146062 18.506587066708033 M54.01961025146062 18.506587066708033 C53.71472492507837 18.597075431202548, 53.409839598696124 18.687563795697063, 52.82126438623541 18.86224982926107 M54.01961025146062 18.506587066708033 C53.559047283576724 18.643279738031623, 53.09848431569283 18.779972409355214, 52.82126438623541 18.86224982926107 M52.82126438623541 18.86224982926107 C52.4635694339326 18.943891367946485, 52.10587448162978 19.025532906631895, 51.602593259676766 19.140403561325773 M52.82126438623541 18.86224982926107 C52.53061442541814 18.928588786149366, 52.23996446460088 18.994927743037657, 51.602593259676766 19.140403561325773 M51.602593259676766 19.140403561325773 C51.26189725142071 19.195484649803607, 50.92120124316465 19.25056573828144, 50.36860465284788 19.3399052695533 M51.602593259676766 19.140403561325773 C51.24858846509669 19.197636311165297, 50.89458367051661 19.25486906100482, 50.36860465284788 19.3399052695533 M50.36860465284788 19.3399052695533 C49.926994380400245 19.382506881422266, 49.48538410795262 19.42510849329123, 49.1243692896239 19.45993515863156 M50.36860465284788 19.3399052695533 C50.00282911254208 19.375191196017152, 49.637053572236276 19.410477122481005, 49.1243692896239 19.45993515863156 M49.1243692896239 19.45993515863156 C48.78435307465772 19.47083881684411, 48.444336859691546 19.481742475056663, 47.87500000000001 19.5 M49.1243692896239 19.45993515863156 C48.65806106837407 19.47488875567315, 48.19175284712424 19.489842352714742, 47.87500000000001 19.5 M47.87500000000001 19.5 C47.87500000000001 19.5, 47.87500000000001 19.5, 47.875 19.5 M47.87500000000001 19.5 C47.87500000000001 19.5, 47.875 19.5, 47.875 19.5 M47.875 19.5 C14.265874757607492 19.5, -19.343250484785017 19.5, -47.87499999999999 19.5 M47.875 19.5 C21.061766712187502 19.5, -5.751466575624995 19.5, -47.87499999999999 19.5 M-47.87499999999999 19.5 C-48.14892735576409 19.4912156828679, -48.42285471152818 19.482431365735795, -49.12436928962389 19.45993515863156 M-47.87499999999999 19.5 C-48.34954865061386 19.484782148427726, -48.82409730122773 19.469564296855456, -49.12436928962389 19.45993515863156 M-49.12436928962389 19.45993515863156 C-49.38833514304205 19.434470690217694, -49.65230099646021 19.409006221803832, -50.36860465284787 19.3399052695533 M-49.12436928962389 19.45993515863156 C-49.392505217839194 19.434068408117263, -49.6606411460545 19.408201657602966, -50.36860465284787 19.3399052695533 M-50.36860465284787 19.3399052695533 C-50.78317811574988 19.272880247136523, -51.197751578651875 19.20585522471975, -51.60259325967676 19.140403561325773 M-50.36860465284787 19.3399052695533 C-50.6835189547349 19.288992367421088, -50.99843325662193 19.23807946528888, -51.60259325967676 19.140403561325773 M-51.60259325967676 19.140403561325773 C-52.0857235301244 19.030132229815752, -52.568853800572036 18.91986089830573, -52.821264386235384 18.862249829261074 M-51.60259325967676 19.140403561325773 C-52.067203859723975 19.034359223732505, -52.5318144597712 18.928314886139233, -52.821264386235384 18.862249829261074 M-52.821264386235384 18.862249829261074 C-53.079968216168886 18.785467890500925, -53.338672046102396 18.708685951740776, -54.01961025146059 18.506587066708043 M-52.821264386235384 18.862249829261074 C-53.079672459449164 18.78555566954288, -53.33808053266294 18.708861509824686, -54.01961025146059 18.506587066708043 M-54.01961025146059 18.506587066708043 C-54.38979763853132 18.37035468629132, -54.759985025602056 18.234122305874596, -55.1927065951478 18.074876768247425 M-54.01961025146059 18.506587066708043 C-54.397425444259376 18.367547583272735, -54.77524063705816 18.228508099837423, -55.1927065951478 18.074876768247425 M-55.1927065951478 18.074876768247425 C-55.49736747622108 17.94001243364022, -55.802028357294354 17.805148099033016, -56.33573291279238 17.568892924097174 M-55.1927065951478 18.074876768247425 C-55.542518182748836 17.920025555208504, -55.89232977034987 17.765174342169583, -56.33573291279238 17.568892924097174 M-56.33573291279238 17.568892924097174 C-56.65179602827637 17.404002999197264, -56.967859143760364 17.239113074297354, -57.44399226407678 16.990714730406097 M-56.33573291279238 17.568892924097174 C-56.55757132724716 17.453159965370403, -56.77940974170193 17.337427006643633, -57.44399226407678 16.990714730406097 M-57.44399226407678 16.990714730406097 C-57.75809233102439 16.800305423965575, -58.072192397972 16.609896117525054, -58.512930573605686 16.3427180453909 M-57.44399226407678 16.990714730406097 C-57.71530995670236 16.82624035069673, -57.98662764932794 16.66176597098736, -58.512930573605686 16.3427180453909 M-58.512930573605686 16.3427180453909 C-58.89323155513345 16.07743654364129, -59.27353253666121 15.812155041891682, -59.53815534457871 15.627565626425156 M-58.512930573605686 16.3427180453909 C-58.74931542674192 16.177826204778427, -58.98570027987816 16.012934364165957, -59.53815534457871 15.627565626425156 M-59.53815534457871 15.627565626425156 C-59.82283831541199 15.400538532917627, -60.10752128624527 15.173511439410099, -60.515453708501866 14.848196188198125 M-59.53815534457871 15.627565626425156 C-59.857268771154786 15.373081160695655, -60.17638219773087 15.118596694966154, -60.515453708501866 14.848196188198125 M-60.515453708501866 14.848196188198125 C-60.76000883142137 14.626097696136602, -61.00456395434089 14.403999204075081, -61.440809736767974 14.007812326905697 M-60.515453708501866 14.848196188198125 C-60.81012504107064 14.580583480535386, -61.10479637363942 14.312970772872646, -61.440809736767974 14.007812326905697 M-61.440809736767974 14.007812326905697 C-61.70302177722702 13.73705686712284, -61.96523381768608 13.466301407339985, -62.310420942968655 13.109867360095677 M-61.440809736767974 14.007812326905697 C-61.7321054267462 13.70702561118226, -62.02340111672443 13.406238895458822, -62.310420942968655 13.109867360095677 M-62.310420942968655 13.109867360095677 C-62.476345060179874 12.914963450669648, -62.64226917739109 12.720059541243618, -63.120713908126575 12.158051136245307 M-62.310420942968655 13.109867360095677 C-62.53455656647511 12.846584903046717, -62.75869218998157 12.583302445997756, -63.120713908126575 12.158051136245307 M-63.120713908126575 12.158051136245307 C-63.401629363943755 11.781650017374789, -63.682544819760935 11.40524889850427, -63.868358964640635 11.156274872382316 M-63.120713908126575 12.158051136245307 C-63.3552027578954 11.843857439928765, -63.58969160766422 11.529663743612224, -63.868358964640635 11.156274872382316 M-63.868358964640635 11.156274872382316 C-64.0212400096792 10.921408532894331, -64.17412105471777 10.686542193406346, -64.55028387860425 10.108655082055249 M-63.868358964640635 11.156274872382316 C-64.0086856581285 10.940695388191633, -64.14901235161636 10.725115904000951, -64.55028387860425 10.108655082055249 M-64.55028387860425 10.108655082055249 C-64.69922389664795 9.844196998206423, -64.84816391469164 9.579738914357597, -65.1636864742735 9.019496659696289 M-64.55028387860425 10.108655082055249 C-64.74085602057451 9.77027494646511, -64.93142816254479 9.43189481087497, -65.1636864742735 9.019496659696289 M-65.1636864742735 9.019496659696289 C-65.36078705605168 8.610213084357042, -65.55788763782986 8.200929509017797, -65.70604614880834 7.893275190886686 M-65.1636864742735 9.019496659696289 C-65.31687035626676 8.70140705112729, -65.47005423826 8.383317442558292, -65.70604614880834 7.893275190886686 M-65.70604614880834 7.893275190886686 C-65.8036252712153 7.652252871977501, -65.90120439362227 7.411230553068315, -66.17513422997033 6.73461856121551 M-65.70604614880834 7.893275190886686 C-65.80119880768655 7.658246283806005, -65.89635146656475 7.423217376725324, -66.17513422997033 6.73461856121551 M-66.17513422997033 6.73461856121551 C-66.29431490180501 6.3756653665107486, -66.41349557363971 6.016712171805988, -66.56902313421489 5.5482879393051325 M-66.17513422997033 6.73461856121551 C-66.28573811240163 6.401497289667919, -66.39634199483294 6.068376018120329, -66.56902313421489 5.5482879393051325 M-66.56902313421489 5.5482879393051325 C-66.66832097887631 5.169622221653016, -66.76761882353773 4.790956504000901, -66.88609428754556 4.339158212148136 M-66.56902313421489 5.5482879393051325 C-66.67169061791519 5.156772327586992, -66.77435810161548 4.765256715868853, -66.88609428754556 4.339158212148136 M-66.88609428754556 4.339158212148136 C-66.93719157234985 4.0767844540930716, -66.98828885715415 3.8144106960380073, -67.12504477658177 3.112197953150904 M-66.88609428754556 4.339158212148136 C-66.9563854998904 3.9782276928103335, -67.02667671223526 3.617297173472531, -67.12504477658177 3.112197953150904 M-67.12504477658177 3.112197953150904 C-67.16312452263541 2.8168589624553286, -67.20120426868904 2.521519971759753, -67.28489270250937 1.872449005199809 M-67.12504477658177 3.112197953150904 C-67.17689186285362 2.7100821903916437, -67.22873894912549 2.3079664276323837, -67.28489270250937 1.872449005199809 M-67.28489270250937 1.872449005199809 C-67.31176586195443 1.4538778552190301, -67.3386390213995 1.035306705238251, -67.36498121591342 0.6250057626472781 M-67.28489270250937 1.872449005199809 C-67.31106462337969 1.4648002120503039, -67.33723654425 1.057151418900799, -67.36498121591342 0.6250057626472781 M-67.36498121591342 0.6250057626472781 C-67.36498121591342 0.2093045867566119, -67.36498121591342 -0.20639658913405434, -67.36498121591342 -0.6250057626472687 M-67.36498121591342 0.6250057626472781 C-67.36498121591342 0.31074671051863745, -67.36498121591342 -0.0035123416100032445, -67.36498121591342 -0.6250057626472687 M-67.36498121591342 -0.6250057626472687 C-67.33928068994385 -1.0253121997143646, -67.3135801639743 -1.4256186367814605, -67.28489270250937 -1.8724490051997822 M-67.36498121591342 -0.6250057626472687 C-67.3480019695041 -0.8894712308733953, -67.33102272309479 -1.153936699099522, -67.28489270250937 -1.8724490051997822 M-67.28489270250937 -1.8724490051997822 C-67.2288985512909 -2.3067285847544294, -67.17290440007243 -2.741008164309077, -67.12504477658177 -3.112197953150895 M-67.28489270250937 -1.8724490051997822 C-67.22239861266078 -2.357140825211512, -67.1599045228122 -2.841832645223241, -67.12504477658177 -3.112197953150895 M-67.12504477658177 -3.112197953150895 C-67.07515546537164 -3.3683690221052798, -67.0252661541615 -3.624540091059664, -66.88609428754556 -4.339158212148126 M-67.12504477658177 -3.112197953150895 C-67.06542170605567 -3.4183498189619845, -67.00579863552959 -3.7245016847730734, -66.88609428754556 -4.339158212148126 M-66.88609428754556 -4.339158212148126 C-66.79095738376517 -4.7019564588576905, -66.69582047998477 -5.064754705567255, -66.56902313421489 -5.548287939305123 M-66.88609428754556 -4.339158212148126 C-66.76936523866043 -4.784296666236957, -66.6526361897753 -5.229435120325788, -66.56902313421489 -5.548287939305123 M-66.56902313421489 -5.548287939305123 C-66.44657576962629 -5.917079892107849, -66.32412840503768 -6.2858718449105755, -66.17513422997033 -6.734618561215485 M-66.56902313421489 -5.548287939305123 C-66.42623089768435 -5.978355404881816, -66.28343866115382 -6.40842287045851, -66.17513422997033 -6.734618561215485 M-66.17513422997033 -6.734618561215485 C-66.08121394824363 -6.966603472905553, -65.98729366651693 -7.19858838459562, -65.70604614880834 -7.893275190886676 M-66.17513422997033 -6.734618561215485 C-66.05003196818339 -7.043623566516904, -65.92492970639645 -7.3526285718183235, -65.70604614880834 -7.893275190886676 M-65.70604614880834 -7.893275190886676 C-65.54165233597577 -8.234642460697623, -65.3772585231432 -8.576009730508568, -65.1636864742735 -9.019496659696282 M-65.70604614880834 -7.893275190886676 C-65.49958177002519 -8.322002891059912, -65.29311739124203 -8.750730591233145, -65.1636864742735 -9.019496659696282 M-65.1636864742735 -9.019496659696282 C-64.93945185047886 -9.417647940461507, -64.71521722668422 -9.815799221226733, -64.55028387860425 -10.108655082055243 M-65.1636864742735 -9.019496659696282 C-64.92016334762472 -9.451896630451749, -64.67664022097593 -9.884296601207215, -64.55028387860425 -10.108655082055243 M-64.55028387860425 -10.108655082055243 C-64.33269918874628 -10.442923595347246, -64.1151144988883 -10.777192108639248, -63.86835896464064 -11.156274872382308 M-64.55028387860425 -10.108655082055243 C-64.33609268258249 -10.43771027753413, -64.12190148656073 -10.766765473013017, -63.86835896464064 -11.156274872382308 M-63.86835896464064 -11.156274872382308 C-63.67816835737303 -11.41111295940014, -63.48797775010542 -11.665951046417971, -63.12071390812659 -12.158051136245302 M-63.86835896464064 -11.156274872382308 C-63.63094806930526 -11.474383843554211, -63.39353717396988 -11.792492814726113, -63.12071390812659 -12.158051136245302 M-63.12071390812659 -12.158051136245302 C-62.8414139727983 -12.48613273289845, -62.56211403747 -12.8142143295516, -62.31042094296866 -13.10986736009567 M-63.12071390812659 -12.158051136245302 C-62.8211233199241 -12.509967288335345, -62.5215327317216 -12.861883440425386, -62.31042094296866 -13.10986736009567 M-62.31042094296866 -13.10986736009567 C-62.08215724772938 -13.345568366228138, -61.8538935524901 -13.581269372360605, -61.440809736767996 -14.007812326905677 M-62.31042094296866 -13.10986736009567 C-62.11644370959301 -13.31016477938307, -61.92246647621736 -13.51046219867047, -61.440809736767996 -14.007812326905677 M-61.440809736767996 -14.007812326905677 C-61.17459580543326 -14.249580775709237, -60.90838187409853 -14.491349224512797, -60.51545370850189 -14.848196188198107 M-61.440809736767996 -14.007812326905677 C-61.19020316243532 -14.235406587028008, -60.93959658810264 -14.46300084715034, -60.51545370850189 -14.848196188198107 M-60.51545370850189 -14.848196188198107 C-60.13423938642628 -15.152204465514252, -59.75302506435067 -15.456212742830395, -59.53815534457872 -15.627565626425149 M-60.51545370850189 -14.848196188198107 C-60.21453471155015 -15.088171080476304, -59.913615714598414 -15.328145972754498, -59.53815534457872 -15.627565626425149 M-59.53815534457872 -15.627565626425149 C-59.16769851106153 -15.885980276668885, -58.79724167754434 -16.14439492691262, -58.512930573605715 -16.342718045390885 M-59.53815534457872 -15.627565626425149 C-59.29242946916585 -15.798973359811459, -59.046703593752994 -15.97038109319777, -58.512930573605715 -16.342718045390885 M-58.512930573605715 -16.342718045390885 C-58.27515917914416 -16.486856462013293, -58.0373877846826 -16.630994878635697, -57.44399226407679 -16.99071473040609 M-58.512930573605715 -16.342718045390885 C-58.09347285665954 -16.59699577841081, -57.67401513971337 -16.851273511430737, -57.44399226407679 -16.99071473040609 M-57.44399226407679 -16.99071473040609 C-57.22063851273207 -17.107238239417725, -56.99728476138735 -17.22376174842936, -56.33573291279239 -17.56889292409717 M-57.44399226407679 -16.99071473040609 C-57.209053748044724 -17.113282003734717, -56.974115232012664 -17.23584927706334, -56.33573291279239 -17.56889292409717 M-56.33573291279239 -17.56889292409717 C-55.88369433457651 -17.768996993425347, -55.43165575636064 -17.969101062753523, -55.192706595147804 -18.07487676824742 M-56.33573291279239 -17.56889292409717 C-56.08776033477426 -17.678663028540623, -55.83978775675613 -17.788433132984075, -55.192706595147804 -18.07487676824742 M-55.192706595147804 -18.07487676824742 C-54.75188463010007 -18.237103326298563, -54.31106266505233 -18.399329884349704, -54.01961025146062 -18.506587066708033 M-55.192706595147804 -18.07487676824742 C-54.889176503585446 -18.186578647743776, -54.58564641202309 -18.298280527240134, -54.01961025146062 -18.506587066708033 M-54.01961025146062 -18.506587066708033 C-53.689593438435885 -18.60453432452017, -53.35957662541116 -18.70248158233231, -52.82126438623541 -18.862249829261067 M-54.01961025146062 -18.506587066708033 C-53.77028490475116 -18.58058552087595, -53.520959558041696 -18.654583975043867, -52.82126438623541 -18.862249829261067 M-52.82126438623541 -18.862249829261067 C-52.37199126209249 -18.964793488065563, -51.92271813794958 -19.067337146870063, -51.602593259676766 -19.140403561325773 M-52.82126438623541 -18.862249829261067 C-52.48586889271006 -18.938801661998095, -52.1504733991847 -19.01535349473512, -51.602593259676766 -19.140403561325773 M-51.602593259676766 -19.140403561325773 C-51.116933403164936 -19.21892128057817, -50.631273546653105 -19.297438999830565, -50.36860465284788 -19.3399052695533 M-51.602593259676766 -19.140403561325773 C-51.32741915228081 -19.184891577002478, -51.052245044884856 -19.22937959267918, -50.36860465284788 -19.3399052695533 M-50.36860465284788 -19.3399052695533 C-49.9760376563421 -19.377775735575323, -49.58347065983632 -19.415646201597347, -49.1243692896239 -19.45993515863156 M-50.36860465284788 -19.3399052695533 C-49.898781508239836 -19.385228543268635, -49.42895836363179 -19.430551816983975, -49.1243692896239 -19.45993515863156 M-49.1243692896239 -19.45993515863156 C-48.68306090260432 -19.47408705964861, -48.241752515584736 -19.48823896066566, -47.87500000000001 -19.5 M-49.1243692896239 -19.45993515863156 C-48.86678173254025 -19.46819549022347, -48.609194175456594 -19.476455821815378, -47.87500000000001 -19.5 M-47.87500000000001 -19.5 C-47.87500000000001 -19.5, -47.87500000000001 -19.5, -47.875 -19.5 M-47.87500000000001 -19.5 C-47.87500000000001 -19.5, -47.875 -19.5, -47.875 -19.5" stroke="#89b4fa" stroke-width="1.3" fill="none" stroke-dasharray="0 0" style="fill:#89b4fa !important;stroke:#89b4fa !important"/></g><g class="label" style="color:#1e1e2e !important;font-weight:bold !important" transform="translate(-55, -12)"><rect/><foreignObject width="110" height="24"><div style="color: rgb(30, 30, 46) !important; font-weight: bold !important; display: table-cell; white-space: nowrap; line-height: 1.5; max-width: 200px; text-align: center;" xmlns="http://www.w3.org/1999/xhtml"><span style="color:#1e1e2e !important;font-weight:bold !important" class="nodeLabel "><p>desktop-gdm</p></span></div></foreignObject></g></g><g class="node default alice_c " id="my-svg-flowchart-alice-1" data-look="classic" transform="translate(410, 306)"><rect class="basic label-container" style="fill:#fab387 !important;stroke:#fab387 !important;stroke-width:2px !important" x="-55" y="-27" width="110" height="54"/><g class="label" style="color:#1e1e2e !important" transform="translate(-25, -12)"><rect/><foreignObject width="50" height="24"><div style="color: rgb(30, 30, 46) !important; display: table-cell; white-space: nowrap; line-height: 1.5; max-width: 200px; text-align: center;" xmlns="http://www.w3.org/1999/xhtml"><span style="color:#1e1e2e !important" class="nodeLabel "><p>alice</p></span></div></foreignObject></g></g><g class="node default den__provides__define_user_c " id="my-svg-flowchart-den__provides__define_user-2" data-look="classic" transform="translate(151, 469)"><polygon points="-19.5,0 234.5,0 215,-39 0,-39" class="label-container" transform="translate(-107.5,19.5)" style="fill:#a6e3a1 !important;stroke:#a6e3a1 !important;stroke-dasharray:3 3 !important;stroke-width:1px !important"/><g class="label" style="color:#1e1e2e !important" transform="translate(-100, -12)"><rect/><foreignObject width="200" height="24"><div style="color: rgb(30, 30, 46) !important; display: table; white-space: break-spaces; line-height: 1.5; max-width: 200px; text-align: center; width: 200px;" xmlns="http://www.w3.org/1999/xhtml"><span style="color:#1e1e2e !important" class="nodeLabel "><p>provides/define-user</p></span></div></foreignObject></g></g><g class="node default demo_shell_c " id="my-svg-flowchart-demo_shell-3" data-look="classic" transform="translate(627.5, 39)"><rect class="basic label-container" style="fill:#fab387 !important;stroke:#fab387 !important;stroke-dasharray:3 3 !important;stroke-width:1px !important" x="-80" y="-27" width="160" height="54"/><g class="label" style="color:#1e1e2e !important" transform="translate(-50, -12)"><rect/><foreignObject width="100" height="24"><div style="color: rgb(30, 30, 46) !important; display: table-cell; white-space: nowrap; line-height: 1.5; max-width: 200px; text-align: center;" xmlns="http://www.w3.org/1999/xhtml"><span style="color:#1e1e2e !important" class="nodeLabel "><p>demo-shell</p></span></div></foreignObject></g></g><g class="node default desktop_c " id="my-svg-flowchart-desktop-4" data-look="classic" transform="translate(686.5, 128)"><rect class="basic label-container" style="fill:#a6e3a1 !important;stroke:#a6e3a1 !important;stroke-width:2px !important" x="-65" y="-27" width="130" height="54"/><g class="label" style="color:#1e1e2e !important" transform="translate(-35, -12)"><rect/><foreignObject width="70" height="24"><div style="color: rgb(30, 30, 46) !important; display: table-cell; white-space: nowrap; line-height: 1.5; max-width: 200px; text-align: center;" xmlns="http://www.w3.org/1999/xhtml"><span style="color:#1e1e2e !important" class="nodeLabel "><p>desktop</p></span></div></foreignObject></g></g><g class="node default dev_tools_c " id="my-svg-flowchart-dev_tools-5" data-look="classic" transform="translate(622.5, 217)"><rect class="basic label-container" style="fill:#a6e3a1 !important;stroke:#a6e3a1 !important;stroke-dasharray:3 3 !important;stroke-width:1px !important" x="-75" y="-27" width="150" height="54"/><g class="label" style="color:#1e1e2e !important" transform="translate(-45, -12)"><rect/><foreignObject width="90" height="24"><div style="color: rgb(30, 30, 46) !important; display: table-cell; white-space: nowrap; line-height: 1.5; max-width: 200px; text-align: center;" xmlns="http://www.w3.org/1999/xhtml"><span style="color:#1e1e2e !important" class="nodeLabel "><p>dev-tools</p></span></div></foreignObject></g></g><g class="node default gdm_c " id="my-svg-flowchart-gdm-6" data-look="classic" transform="translate(905.5, 128)"><rect class="basic label-container" style="fill:#a6e3a1 !important;stroke:#a6e3a1 !important;stroke-dasharray:3 3 !important;stroke-width:1px !important" x="-45" y="-27" width="90" height="54"/><g class="label" style="color:#1e1e2e !important" transform="translate(-15, -12)"><rect/><foreignObject width="30" height="24"><div style="color: rgb(30, 30, 46) !important; display: table-cell; white-space: nowrap; line-height: 1.5; max-width: 200px; text-align: center;" xmlns="http://www.w3.org/1999/xhtml"><span style="color:#1e1e2e !important" class="nodeLabel "><p>gdm</p></span></div></foreignObject></g></g><g class="node default den__provides__hostname_c " id="my-svg-flowchart-den__provides__hostname-7" data-look="classic" transform="translate(151, 543)"><polygon points="-19.5,0 204.5,0 185,-39 0,-39" class="label-container" transform="translate(-92.5,19.5)" style="fill:#fab387 !important;stroke:#fab387 !important;stroke-dasharray:3 3 !important;stroke-width:1px !important"/><g class="label" style="color:#1e1e2e !important" transform="translate(-85, -12)"><rect/><foreignObject width="170" height="24"><div style="color: rgb(30, 30, 46) !important; display: table-cell; white-space: nowrap; line-height: 1.5; max-width: 200px; text-align: center;" xmlns="http://www.w3.org/1999/xhtml"><span style="color:#1e1e2e !important" class="nodeLabel "><p>provides/hostname</p></span></div></foreignObject></g></g><g class="node default hyprland_c " id="my-svg-flowchart-hyprland-8" data-look="classic" transform="translate(617.5, 306)"><rect class="basic label-container" style="fill:#fab387 !important;stroke:#fab387 !important;stroke-width:2px !important" x="-70" y="-27" width="140" height="54"/><g class="label" style="color:#1e1e2e !important" transform="translate(-40, -12)"><rect/><foreignObject width="80" height="24"><div style="color: rgb(30, 30, 46) !important; display: table-cell; white-space: nowrap; line-height: 1.5; max-width: 200px; text-align: center;" xmlns="http://www.w3.org/1999/xhtml"><span style="color:#1e1e2e !important" class="nodeLabel "><p>hyprland</p></span></div></foreignObject></g></g><g class="node default den__provides__mutual_provider_c " id="my-svg-flowchart-den__provides__mutual_provider-9" data-look="classic" transform="translate(151, 629)"><polygon points="-31.5,0 246.5,0 215,-63 0,-63" class="label-container" transform="translate(-107.5,31.5)" style="fill:#f9e2af !important;stroke:#f9e2af !important;stroke-dasharray:3 3 !important;stroke-width:1px !important"/><g class="label" style="color:#1e1e2e !important" transform="translate(-100, -24)"><rect/><foreignObject width="200" height="48"><div style="color: rgb(30, 30, 46) !important; display: table; white-space: break-spaces; line-height: 1.5; max-width: 200px; text-align: center; width: 200px;" xmlns="http://www.w3.org/1999/xhtml"><span style="color:#1e1e2e !important" class="nodeLabel "><p>provides/mutual-provider</p></span></div></foreignObject></g></g><g class="node default networking_c " id="my-svg-flowchart-networking-10" data-look="classic" transform="translate(627.5, 395)"><rect class="basic label-container" style="fill:#fab387 !important;stroke:#fab387 !important;stroke-width:2px !important" x="-80" y="-27" width="160" height="54"/><g class="label" style="color:#1e1e2e !important" transform="translate(-50, -12)"><rect/><foreignObject width="100" height="24"><div style="color: rgb(30, 30, 46) !important; display: table-cell; white-space: nowrap; line-height: 1.5; max-width: 200px; text-align: center;" xmlns="http://www.w3.org/1999/xhtml"><span style="color:#1e1e2e !important" class="nodeLabel "><p>networking</p></span></div></foreignObject></g></g><g class="node default primary_user_c " id="my-svg-flowchart-primary_user-11" data-look="classic" transform="translate(637.5, 484)"><rect class="basic label-container" style="fill:#fab387 !important;stroke:#fab387 !important;stroke-dasharray:3 3 !important;stroke-width:1px !important" x="-90" y="-27" width="180" height="54"/><g class="label" style="color:#1e1e2e !important" transform="translate(-60, -12)"><rect/><foreignObject width="120" height="24"><div style="color: rgb(30, 30, 46) !important; display: table-cell; white-space: nowrap; line-height: 1.5; max-width: 200px; text-align: center;" xmlns="http://www.w3.org/1999/xhtml"><span style="color:#1e1e2e !important" class="nodeLabel "><p>primary-user</p></span></div></foreignObject></g></g><g class="node default den__provides__primary_user_c " id="my-svg-flowchart-den__provides__primary_user-12" data-look="classic" transform="translate(686.5, 577.5)"><polygon points="-31.5,0 246.5,0 215,-63 0,-63" class="label-container" transform="translate(-107.5,31.5)" style="fill:#fab387 !important;stroke:#fab387 !important;stroke-width:2px !important"/><g class="label" style="color:#1e1e2e !important" transform="translate(-100, -24)"><rect/><foreignObject width="200" height="48"><div style="color: rgb(30, 30, 46) !important; display: table; white-space: break-spaces; line-height: 1.5; max-width: 200px; text-align: center; width: 200px;" xmlns="http://www.w3.org/1999/xhtml"><span style="color:#1e1e2e !important" class="nodeLabel "><p>provides/primary-user</p></span></div></foreignObject></g></g><g class="node default regreet_c " id="my-svg-flowchart-regreet-13" data-look="classic" transform="translate(1050.5, 202.5)"><rect class="basic label-container" style="fill:#fab387 !important;stroke:#fab387 !important;stroke-dasharray:5 5 !important;stroke-width:2px !important" x="-65" y="-27" width="130" height="54"/><g class="label" style="color:#1e1e2e !important" transform="translate(-35, -12)"><rect/><foreignObject width="70" height="24"><div style="color: rgb(30, 30, 46) !important; display: table-cell; white-space: nowrap; line-height: 1.5; max-width: 200px; text-align: center;" xmlns="http://www.w3.org/1999/xhtml"><span style="color:#1e1e2e !important" class="nodeLabel "><p>regreet</p></span></div></foreignObject></g></g><g class="node default tailscale_c " id="my-svg-flowchart-tailscale-14" data-look="classic" transform="translate(622.5, 671)"><rect class="basic label-container" style="fill:#a6e3a1 !important;stroke:#a6e3a1 !important;stroke-width:2px !important" x="-75" y="-27" width="150" height="54"/><g class="label" style="color:#1e1e2e !important" transform="translate(-45, -12)"><rect/><foreignObject width="90" height="24"><div style="color: rgb(30, 30, 46) !important; display: table-cell; white-space: nowrap; line-height: 1.5; max-width: 200px; text-align: center;" xmlns="http://www.w3.org/1999/xhtml"><span style="color:#1e1e2e !important" class="nodeLabel "><p>tailscale</p></span></div></foreignObject></g></g><g class="node default virtualization_c " id="my-svg-flowchart-virtualization-15" data-look="classic" transform="translate(647.5, 760)"><rect class="basic label-container" style="fill:#fab387 !important;stroke:#fab387 !important;stroke-width:2px !important" x="-100" y="-27" width="200" height="54"/><g class="label" style="color:#1e1e2e !important" transform="translate(-70, -12)"><rect/><foreignObject width="140" height="24"><div style="color: rgb(30, 30, 46) !important; display: table-cell; white-space: nowrap; line-height: 1.5; max-width: 200px; text-align: center;" xmlns="http://www.w3.org/1999/xhtml"><span style="color:#1e1e2e !important" class="nodeLabel "><p>virtualization</p></span></div></foreignObject></g></g><g class="node default workstation_c " id="my-svg-flowchart-workstation-16" data-look="classic" transform="translate(410, 395)"><rect class="basic label-container" style="fill:#a6e3a1 !important;stroke:#a6e3a1 !important;stroke-dasharray:3 3 !important;stroke-width:1px !important" x="-85" y="-27" width="170" height="54"/><g class="label" style="color:#1e1e2e !important" transform="translate(-55, -12)"><rect/><foreignObject width="110" height="24"><div style="color: rgb(30, 30, 46) !important; display: table-cell; white-space: nowrap; line-height: 1.5; max-width: 200px; text-align: center;" xmlns="http://www.w3.org/1999/xhtml"><span style="color:#1e1e2e !important" class="nodeLabel "><p>workstation</p></span></div></foreignObject></g></g></g><g class="edges edgePaths"><path d="M465,306L475,306C485,306,505,306,515.471,305.638C525.943,305.276,526.886,304.552,527.719,303.719C528.552,302.886,529.276,301.943,529.638,258.638C530,215.333,530,129.667,530.362,86.362C530.724,43.057,531.448,42.114,532.281,41.281C533.114,40.448,534.057,39.724,535.945,39.362C537.833,39,540.667,39,542.083,39L543.5,39" id="my-svg-L_alice_demo_shell_0_0" class=" edge-thickness-normal edge-pattern-solid edge-thickness-normal edge-pattern-solid flowchart-link" style=";" data-edge="true" data-et="edge" data-id="L_alice_demo_shell_0_0" data-points="W3sieCI6NDY1LCJ5IjozMDZ9LHsieCI6NTMwLCJ5IjozMDZ9LHsieCI6NTMwLCJ5IjozOX0seyJ4Ijo1NDcuNSwieSI6Mzl9XQ==" data-look="classic" marker-end="url(#my-svg_flowchart-v2-pointEnd)"/><path d="M465,306L475,306C485,306,505,306,515.471,305.638C525.943,305.276,526.886,304.552,527.719,303.719C528.552,302.886,529.276,301.943,529.638,288.305C530,274.667,530,248.333,530.362,234.695C530.724,221.057,531.448,220.114,532.281,219.281C533.114,218.448,534.057,217.724,535.945,217.362C537.833,217,540.667,217,542.083,217L543.5,217" id="my-svg-L_alice_dev_tools_0_0" class=" edge-thickness-normal edge-pattern-solid edge-thickness-normal edge-pattern-solid flowchart-link" style=";" data-edge="true" data-et="edge" data-id="L_alice_dev_tools_0_0" data-points="W3sieCI6NDY1LCJ5IjozMDZ9LHsieCI6NTMwLCJ5IjozMDZ9LHsieCI6NTMwLCJ5IjoyMTd9LHsieCI6NTQ3LjUsInkiOjIxN31d" data-look="classic" marker-end="url(#my-svg_flowchart-v2-pointEnd)"/><path d="M465,306L543.5,306" id="my-svg-L_alice_hyprland_0_0" class=" edge-thickness-normal edge-pattern-solid edge-thickness-normal edge-pattern-solid flowchart-link" style=";" data-edge="true" data-et="edge" data-id="L_alice_hyprland_0_0" data-points="W3sieCI6NDY1LCJ5IjozMDZ9LHsieCI6NTQ3LjUsInkiOjMwNn1d" data-look="classic" marker-end="url(#my-svg_flowchart-v2-pointEnd)"/><path d="M465,306L475,306C485,306,505,306,515.471,306.362C525.943,306.724,526.886,307.448,527.719,308.281C528.552,309.114,529.276,310.057,529.638,338.529C530,367,530,423,530.362,451.471C530.724,479.943,531.448,480.886,532.281,481.719C533.114,482.552,534.057,483.276,535.945,483.638C537.833,484,540.667,484,542.083,484L543.5,484" id="my-svg-L_alice_primary_user_0_0" class=" edge-thickness-normal edge-pattern-solid edge-thickness-normal edge-pattern-solid flowchart-link" style=";" data-edge="true" data-et="edge" data-id="L_alice_primary_user_0_0" data-points="W3sieCI6NDY1LCJ5IjozMDZ9LHsieCI6NTMwLCJ5IjozMDZ9LHsieCI6NTMwLCJ5Ijo0ODR9LHsieCI6NTQ3LjUsInkiOjQ4NH1d" data-look="classic" marker-end="url(#my-svg_flowchart-v2-pointEnd)"/><path d="M465,306L475,306C485,306,505,306,515.471,306.362C525.943,306.724,526.886,307.448,527.719,308.281C528.552,309.114,529.276,310.057,529.638,354.112C530,398.167,530,485.333,530.362,529.388C530.724,573.443,531.448,574.386,532.281,575.219C533.114,576.052,534.057,576.776,535.945,577.138C537.833,577.5,540.667,577.5,542.083,577.5L543.5,577.5" id="my-svg-L_alice_den__provides__primary_user_0_0" class=" edge-thickness-normal edge-pattern-solid edge-thickness-normal edge-pattern-solid flowchart-link" style=";" data-edge="true" data-et="edge" data-id="L_alice_den__provides__primary_user_0_0" data-points="W3sieCI6NDY1LCJ5IjozMDZ9LHsieCI6NTMwLCJ5IjozMDZ9LHsieCI6NTMwLCJ5Ijo1NzcuNX0seyJ4Ijo1NDcuNSwieSI6NTc3LjV9XQ==" data-look="classic" marker-end="url(#my-svg_flowchart-v2-pointEnd)"/><path d="M290,629L292.083,629C294.167,629,298.333,629,300.888,628.638C303.443,628.276,304.386,627.552,305.219,626.719C306.052,625.886,306.776,624.943,307.138,572.305C307.5,519.667,307.5,415.333,307.862,362.695C308.224,310.057,308.948,309.114,309.781,308.281C310.614,307.448,311.557,306.724,318.445,306.362C325.333,306,338.167,306,344.583,306L351,306" id="my-svg-L_den__provides__mutual_provider_alice_0_0" class=" edge-thickness-normal edge-pattern-solid edge-thickness-normal edge-pattern-solid flowchart-link" style=";" data-edge="true" data-et="edge" data-id="L_den__provides__mutual_provider_alice_0_0" data-points="W3sieCI6MjkwLCJ5Ijo2Mjl9LHsieCI6MzA3LjUsInkiOjYyOX0seyJ4IjozMDcuNSwieSI6MzA2fSx7IngiOjM1NSwieSI6MzA2fV0=" data-look="classic" marker-end="url(#my-svg_flowchart-v2-pointEnd)"/><path d="M751.5,128L856.5,128" id="my-svg-L_desktop_gdm_0_0" class=" edge-thickness-normal edge-pattern-solid edge-thickness-normal edge-pattern-solid flowchart-link" style=";" data-edge="true" data-et="edge" data-id="L_desktop_gdm_0_0" data-points="W3sieCI6NzUxLjUsInkiOjEyOH0seyJ4Ijo4NjAuNSwieSI6MTI4fV0=" data-look="classic" marker-end="url(#my-svg_flowchart-v2-pointEnd)"/><path d="M751.5,128L765.917,128C780.333,128,809.167,128,824.055,128.362C838.943,128.724,839.886,129.448,840.719,130.281C841.552,131.114,842.276,132.057,842.638,143.279C843,154.5,843,176,843.362,187.221C843.724,198.443,844.448,199.386,845.281,200.219C846.114,201.052,847.057,201.776,869.779,202.138C892.5,202.5,937,202.5,959.25,202.5L981.5,202.5" id="my-svg-L_desktop_regreet_0_0" class=" edge-thickness-normal edge-pattern-dotted edge-thickness-normal edge-pattern-solid flowchart-link" style=";" data-edge="true" data-et="edge" data-id="L_desktop_regreet_0_0" data-points="W3sieCI6NzUxLjUsInkiOjEyOH0seyJ4Ijo4NDMsInkiOjEyOH0seyJ4Ijo4NDMsInkiOjIwMi41fSx7IngiOjk4NS41LCJ5IjoyMDIuNX1d" data-look="classic" marker-end="url(#my-svg_flowchart-v2-pointEnd)"/><path d="M290,395L321,395" id="my-svg-L_desktop_gdm_workstation_0_0" class=" edge-thickness-normal edge-pattern-solid edge-thickness-normal edge-pattern-solid flowchart-link" style=";" data-edge="true" data-et="edge" data-id="L_desktop_gdm_workstation_0_0" data-points="W3sieCI6MjkwLCJ5IjozOTV9LHsieCI6MzI1LCJ5IjozOTV9XQ==" data-look="classic" marker-end="url(#my-svg_flowchart-v2-pointEnd)"/><path d="M495,395L497.083,395C499.167,395,503.333,395,505.888,394.638C508.443,394.276,509.386,393.552,510.219,392.719C511.052,391.886,511.776,390.943,512.138,347.638C512.5,304.333,512.5,218.667,512.862,175.362C513.224,132.057,513.948,131.114,514.781,130.281C515.614,129.448,516.557,128.724,533.695,128.362C550.833,128,584.167,128,600.833,128L617.5,128" id="my-svg-L_workstation_desktop_0_0" class=" edge-thickness-normal edge-pattern-solid edge-thickness-normal edge-pattern-solid flowchart-link" style=";" data-edge="true" data-et="edge" data-id="L_workstation_desktop_0_0" data-points="W3sieCI6NDk1LCJ5IjozOTV9LHsieCI6NTEyLjUsInkiOjM5NX0seyJ4Ijo1MTIuNSwieSI6MTI4fSx7IngiOjYyMS41LCJ5IjoxMjh9XQ==" data-look="classic" marker-end="url(#my-svg_flowchart-v2-pointEnd)"/><path d="M495,395L543.5,395" id="my-svg-L_workstation_networking_0_0" class=" edge-thickness-normal edge-pattern-solid edge-thickness-normal edge-pattern-solid flowchart-link" style=";" data-edge="true" data-et="edge" data-id="L_workstation_networking_0_0" data-points="W3sieCI6NDk1LCJ5IjozOTV9LHsieCI6NTQ3LjUsInkiOjM5NX1d" data-look="classic" marker-end="url(#my-svg_flowchart-v2-pointEnd)"/><path d="M495,395L497.083,395C499.167,395,503.333,395,505.888,395.362C508.443,395.724,509.386,396.448,510.219,397.281C511.052,398.114,511.776,399.057,512.138,458.695C512.5,518.333,512.5,636.667,512.862,696.305C513.224,755.943,513.948,756.886,514.781,757.719C515.614,758.552,516.557,759.276,521.362,759.638C526.167,760,534.833,760,539.167,760L543.5,760" id="my-svg-L_workstation_virtualization_0_0" class=" edge-thickness-normal edge-pattern-solid edge-thickness-normal edge-pattern-solid flowchart-link" style=";" data-edge="true" data-et="edge" data-id="L_workstation_virtualization_0_0" data-points="W3sieCI6NDk1LCJ5IjozOTV9LHsieCI6NTEyLjUsInkiOjM5NX0seyJ4Ijo1MTIuNSwieSI6NzYwfSx7IngiOjU0Ny41LCJ5Ijo3NjB9XQ==" data-look="classic" marker-end="url(#my-svg_flowchart-v2-pointEnd)"/><path d="M495,395L497.083,395C499.167,395,503.333,395,505.888,395.362C508.443,395.724,509.386,396.448,510.219,397.281C511.052,398.114,511.776,399.057,512.138,443.862C512.5,488.667,512.5,577.333,512.862,622.138C513.224,666.943,513.948,667.886,514.781,668.719C515.614,669.552,516.557,670.276,521.362,670.638C526.167,671,534.833,671,539.167,671L543.5,671" id="my-svg-L_workstation_tailscale_0_0" class=" edge-thickness-normal edge-pattern-solid edge-thickness-normal edge-pattern-solid flowchart-link" style=";" data-edge="true" data-et="edge" data-id="L_workstation_tailscale_0_0" data-points="W3sieCI6NDk1LCJ5IjozOTV9LHsieCI6NTEyLjUsInkiOjM5NX0seyJ4Ijo1MTIuNSwieSI6NjcxfSx7IngiOjU0Ny41LCJ5Ijo2NzF9XQ==" data-look="classic" marker-end="url(#my-svg_flowchart-v2-pointEnd)"/></g><g class="edgeLabels"><g class="edgeLabel"><g class="label" data-id="L_alice_demo_shell_0_0" transform="translate(0, 0)"><foreignObject width="0" height="0"><div xmlns="http://www.w3.org/1999/xhtml" class="labelBkg" style="display: table-cell; white-space: nowrap; line-height: 1.5; max-width: 200px; text-align: center;"><span class="edgeLabel "></span></div></foreignObject></g></g><g class="edgeLabel"><g class="label" data-id="L_alice_dev_tools_0_0" transform="translate(0, 0)"><foreignObject width="0" height="0"><div xmlns="http://www.w3.org/1999/xhtml" class="labelBkg" style="display: table-cell; white-space: nowrap; line-height: 1.5; max-width: 200px; text-align: center;"><span class="edgeLabel "></span></div></foreignObject></g></g><g class="edgeLabel"><g class="label" data-id="L_alice_hyprland_0_0" transform="translate(0, 0)"><foreignObject width="0" height="0"><div xmlns="http://www.w3.org/1999/xhtml" class="labelBkg" style="display: table-cell; white-space: nowrap; line-height: 1.5; max-width: 200px; text-align: center;"><span class="edgeLabel "></span></div></foreignObject></g></g><g class="edgeLabel"><g class="label" data-id="L_alice_primary_user_0_0" transform="translate(0, 0)"><foreignObject width="0" height="0"><div xmlns="http://www.w3.org/1999/xhtml" class="labelBkg" style="display: table-cell; white-space: nowrap; line-height: 1.5; max-width: 200px; text-align: center;"><span class="edgeLabel "></span></div></foreignObject></g></g><g class="edgeLabel"><g class="label" data-id="L_alice_den__provides__primary_user_0_0" transform="translate(0, 0)"><foreignObject width="0" height="0"><div xmlns="http://www.w3.org/1999/xhtml" class="labelBkg" style="display: table-cell; white-space: nowrap; line-height: 1.5; max-width: 200px; text-align: center;"><span class="edgeLabel "></span></div></foreignObject></g></g><g class="edgeLabel"><g class="label" data-id="L_den__provides__mutual_provider_alice_0_0" transform="translate(0, 0)"><foreignObject width="0" height="0"><div xmlns="http://www.w3.org/1999/xhtml" class="labelBkg" style="display: table-cell; white-space: nowrap; line-height: 1.5; max-width: 200px; text-align: center;"><span class="edgeLabel "></span></div></foreignObject></g></g><g class="edgeLabel"><g class="label" data-id="L_desktop_gdm_0_0" transform="translate(0, 0)"><foreignObject width="0" height="0"><div xmlns="http://www.w3.org/1999/xhtml" class="labelBkg" style="display: table-cell; white-space: nowrap; line-height: 1.5; max-width: 200px; text-align: center;"><span class="edgeLabel "></span></div></foreignObject></g></g><g class="edgeLabel" transform="translate(905.5, 202)"><g class="label" data-id="L_desktop_regreet_0_0" transform="translate(-40, -12)"><foreignObject width="80" height="24"><div xmlns="http://www.w3.org/1999/xhtml" class="labelBkg" style="display: table-cell; white-space: nowrap; line-height: 1.5; max-width: 200px; text-align: center;"><span class="edgeLabel "><p>replaced</p></span></div></foreignObject></g></g><g class="edgeLabel"><g class="label" data-id="L_desktop_gdm_workstation_0_0" transform="translate(0, 0)"><foreignObject width="0" height="0"><div xmlns="http://www.w3.org/1999/xhtml" class="labelBkg" style="display: table-cell; white-space: nowrap; line-height: 1.5; max-width: 200px; text-align: center;"><span class="edgeLabel "></span></div></foreignObject></g></g><g class="edgeLabel"><g class="label" data-id="L_workstation_desktop_0_0" transform="translate(0, 0)"><foreignObject width="0" height="0"><div xmlns="http://www.w3.org/1999/xhtml" class="labelBkg" style="display: table-cell; white-space: nowrap; line-height: 1.5; max-width: 200px; text-align: center;"><span class="edgeLabel "></span></div></foreignObject></g></g><g class="edgeLabel"><g class="label" data-id="L_workstation_networking_0_0" transform="translate(0, 0)"><foreignObject width="0" height="0"><div xmlns="http://www.w3.org/1999/xhtml" class="labelBkg" style="display: table-cell; white-space: nowrap; line-height: 1.5; max-width: 200px; text-align: center;"><span class="edgeLabel "></span></div></foreignObject></g></g><g class="edgeLabel"><g class="label" data-id="L_workstation_virtualization_0_0" transform="translate(0, 0)"><foreignObject width="0" height="0"><div xmlns="http://www.w3.org/1999/xhtml" class="labelBkg" style="display: table-cell; white-space: nowrap; line-height: 1.5; max-width: 200px; text-align: center;"><span class="edgeLabel "></span></div></foreignObject></g></g><g class="edgeLabel"><g class="label" data-id="L_workstation_tailscale_0_0" transform="translate(0, 0)"><foreignObject width="0" height="0"><div xmlns="http://www.w3.org/1999/xhtml" class="labelBkg" style="display: table-cell; white-space: nowrap; line-height: 1.5; max-width: 200px; text-align: center;"><span class="edgeLabel "></span></div></foreignObject></g></g></g></svg>