<svg id="my-svg" width="100%" xmlns="http://www.w3.org/2000/svg" xmlns:xlink="http://www.w3.org/1999/xlink" style="max-width: 580px; background-color: rgb(30, 30, 46);" viewBox="10 -14 580 418" role="graphics-document document" aria-roledescription="sankey"><style>#my-svg{font-family:JetBrains Mono,Fira Code,DejaVu Sans Mono,monospace;font-size:16px;fill:#cdd6f4;}@keyframes edge-animation-frame{from{stroke-dashoffset:0;}}@keyframes dash{to{stroke-dashoffset:0;}}#my-svg .edge-animation-slow{stroke-dasharray:9,5!important;stroke-dashoffset:900;animation:dash 50s linear infinite;stroke-linecap:round;}#my-svg .edge-animation-fast{stroke-dasharray:9,5!important;stroke-dashoffset:900;animation:dash 20s linear infinite;stroke-linecap:round;}#my-svg .error-icon{fill:#313244;}#my-svg .error-text{fill:#cdd6f4;stroke:#cdd6f4;}#my-svg .edge-thickness-normal{stroke-width:1px;}#my-svg .edge-thickness-thick{stroke-width:3.5px;}#my-svg .edge-pattern-solid{stroke-dasharray:0;}#my-svg .edge-thickness-invisible{stroke-width:0;fill:none;}#my-svg .edge-pattern-dashed{stroke-dasharray:3;}#my-svg .edge-pattern-dotted{stroke-dasharray:2;}#my-svg .marker{fill:#a6adc8;stroke:#a6adc8;}#my-svg .marker.cross{stroke:#a6adc8;}#my-svg svg{font-family:JetBrains Mono,Fira Code,DejaVu Sans Mono,monospace;font-size:16px;}#my-svg p{margin:0;}#my-svg .label{font-family:JetBrains Mono,Fira Code,DejaVu Sans Mono,monospace;}#my-svg .node .neo-node{stroke:#a6adc8;}#my-svg [data-look="neo"].node rect,#my-svg [data-look="neo"].cluster rect,#my-svg [data-look="neo"].node polygon{stroke:url(#my-svg-gradient);filter:drop-shadow( 1px 2px 2px rgba(185,185,185,1));}#my-svg [data-look="neo"].node path{stroke:url(#my-svg-gradient);stroke-width:1px;}#my-svg [data-look="neo"].node .outer-path{filter:drop-shadow( 1px 2px 2px rgba(185,185,185,1));}#my-svg [data-look="neo"].node .neo-line path{stroke:#a6adc8;filter:none;}#my-svg [data-look="neo"].node circle{stroke:url(#my-svg-gradient);filter:drop-shadow( 1px 2px 2px rgba(185,185,185,1));}#my-svg [data-look="neo"].node circle .state-start{fill:#000000;}#my-svg [data-look="neo"].icon-shape .icon{fill:url(#my-svg-gradient);filter:drop-shadow( 1px 2px 2px rgba(185,185,185,1));}#my-svg [data-look="neo"].icon-shape .icon-neo path{stroke:url(#my-svg-gradient);filter:drop-shadow( 1px 2px 2px rgba(185,185,185,1));}#my-svg :root{--mermaid-font-family:JetBrains Mono,Fira Code,DejaVu Sans Mono,monospace;}</style><g/><g class="nodes"><g class="node" id="node-1" transform="translate(295,0)" x="295" y="0"><rect height="0" width="10" fill="#4e79a7"/></g><g class="node" id="node-2" transform="translate(590,114.90459631679695)" x="590" y="114.90459631679695"><rect height="0" width="10" fill="#f28e2c"/></g><g class="node" id="node-3" transform="translate(295,33.33333333333334)" x="295" y="33.33333333333334"><rect height="0" width="10" fill="#e15759"/></g><g class="node" id="node-4" transform="translate(295,50.000000000000014)" x="295" y="50.000000000000014"><rect height="0" width="10" fill="#76b7b2"/></g><g class="node" id="node-5" transform="translate(295,16.66666666666667)" x="295" y="16.66666666666667"><rect height="0" width="10" fill="#59a14f"/></g><g class="node" id="node-6" transform="translate(295,66.66666666666669)" x="295" y="66.66666666666669"><rect height="0" width="10" fill="#edc949"/></g><g class="node" id="node-7" transform="translate(295,116.6666666666667)" x="295" y="116.6666666666667"><rect height="0" width="10" fill="#af7aa1"/></g><g class="node" id="node-8" transform="translate(295,83.33333333333336)" x="295" y="83.33333333333336"><rect height="0" width="10" fill="#ff9da7"/></g><g class="node" id="node-9" transform="translate(295,100.00000000000003)" x="295" y="100.00000000000003"><rect height="0" width="10" fill="#9c755f"/></g><g class="node" id="node-10" transform="translate(295,133.33333333333337)" x="295" y="133.33333333333337"><rect height="0" width="10" fill="#bab0ab"/></g><g class="node" id="node-11" transform="translate(295,150.00000000000003)" x="295" y="150.00000000000003"><rect height="0" width="10" fill="#4e79a7"/></g><g class="node" id="node-12" transform="translate(295,166.66666666666669)" x="295" y="166.66666666666669"><rect height="0" width="10" fill="#f28e2c"/></g><g class="node" id="node-13" transform="translate(295,183.33333333333334)" x="295" y="183.33333333333334"><rect height="0" width="10" fill="#e15759"/></g><g class="node" id="node-14" transform="translate(295,200)" x="295" y="200"><rect height="0" width="10" fill="#76b7b2"/></g><g class="node" id="node-15" transform="translate(295,216.66666666666666)" x="295" y="216.66666666666666"><rect height="0" width="10" fill="#59a14f"/></g><g class="node" id="node-16" transform="translate(295,233.33333333333331)" x="295" y="233.33333333333331"><rect height="0" width="10" fill="#edc949"/></g><g class="node" id="node-17" transform="translate(295,249.99999999999997)" x="295" y="249.99999999999997"><rect height="0" width="10" fill="#af7aa1"/></g><g class="node" id="node-18" transform="translate(295,266.66666666666663)" x="295" y="266.66666666666663"><rect height="0" width="10" fill="#ff9da7"/></g><g class="node" id="node-19" transform="translate(295,283.3333333333333)" x="295" y="283.3333333333333"><rect height="0" width="10" fill="#9c755f"/></g><g class="node" id="node-20" transform="translate(295,300)" x="295" y="300"><rect height="0" width="10" fill="#bab0ab"/></g><g class="node" id="node-21" transform="translate(295,316.6666666666667)" x="295" y="316.6666666666667"><rect height="0" width="10" fill="#4e79a7"/></g><g class="node" id="node-22" transform="translate(295,333.33333333333337)" x="295" y="333.33333333333337"><rect height="0" width="10" fill="#f28e2c"/></g><g class="node" id="node-23" transform="translate(295,350.00000000000006)" x="295" y="350.00000000000006"><rect height="0" width="10" fill="#e15759"/></g><g class="node" id="node-24" transform="translate(295,366.66666666666674)" x="295" y="366.66666666666674"><rect height="0" width="10" fill="#76b7b2"/></g><g class="node" id="node-25" transform="translate(295,383.3333333333334)" x="295" y="383.3333333333334"><rect height="0" width="10" fill="#59a14f"/></g><g class="node" id="node-26" transform="translate(295,400.0000000000001)" x="295" y="400.0000000000001"><rect height="0" width="10" fill="#edc949"/></g><g class="node" id="node-27" transform="translate(0,154.74372181497324)" x="0" y="154.74372181497324"><rect height="0" width="10" fill="#af7aa1"/></g></g><g class="node-labels" font-size="14"><text x="311" y="0" dy="0em" text-anchor="start">server
14</text><text x="584" y="114.90459631679695" dy="0em" text-anchor="end">reused
104</text><text x="311" y="33.33333333333334" dy="0em" text-anchor="start">workstation
14</text><text x="311" y="50.000000000000014" dy="0em" text-anchor="start">backup
14</text><text x="311" y="16.66666666666667" dy="0em" text-anchor="start">virtualization
6</text><text x="311" y="66.66666666666669" dy="0em" text-anchor="start">tailscale
6</text><text x="311" y="116.6666666666667" dy="0em" text-anchor="start">alice
5</text><text x="311" y="83.33333333333336" dy="0em" text-anchor="start">monitoring
5</text><text x="311" y="100.00000000000003" dy="0em" text-anchor="start">demo-shell
5</text><text x="311" y="133.33333333333337" dy="0em" text-anchor="start">desktop
5</text><text x="311" y="150.00000000000003" dy="0em" text-anchor="start">monitoring/alerting
5</text><text x="311" y="166.66666666666669" dy="0em" text-anchor="start">networking
5</text><text x="311" y="183.33333333333334" dy="0em" text-anchor="start">monitoring/nginx-exporter
5</text><text x="311" y="200" dy="0em" text-anchor="start">monitoring/node-exporter
5</text><text x="311" y="216.66666666666666" dy="0em" text-anchor="start">alice/to-hosts
4</text><text x="311" y="233.33333333333331" dy="0em" text-anchor="start">provides/define-user
3</text><text x="311" y="249.99999999999997" dy="0em" text-anchor="start">dev-tools
3</text><text x="311" y="266.66666666666663" dy="0em" text-anchor="start">virtualization/docker
4</text><text x="311" y="283.3333333333333" dy="0em" text-anchor="start">provides/hostname
3</text><text x="311" y="300" dy="0em" text-anchor="start">hyprland
3</text><text x="311" y="316.6666666666667" dy="0em" text-anchor="start">provides/mutual-provider
3</text><text x="311" y="333.33333333333337" dy="0em" text-anchor="start">virtualization/podman
4</text><text x="311" y="350.00000000000006" dy="0em" text-anchor="start">regreet
4</text><text x="311" y="366.66666666666674" dy="0em" text-anchor="start">devbox
3</text><text x="311" y="383.3333333333334" dy="0em" text-anchor="start">primary-user
1</text><text x="311" y="400.0000000000001" dy="0em" text-anchor="start">provides/primary-user
1</text><text x="16" y="154.74372181497324" dy="0em" text-anchor="start">orchestrates
104</text></g><g class="links" fill="none" stroke-opacity="0.5"><g class="link" style="mix-blend-mode: multiply;"><linearGradient id="linearGradient-28" gradientUnits="userSpaceOnUse" x1="305" x2="590"><stop offset="0%" stop-color="#4e79a7"/><stop offset="100%" stop-color="#f28e2c"/></linearGradient><path d="M305,0C447.5,0,447.5,114.90459631679695,590,114.90459631679695" stroke="url(#linearGradient-28)" stroke-width="1"/></g><g class="link" style="mix-blend-mode: multiply;"><linearGradient id="linearGradient-29" gradientUnits="userSpaceOnUse" x1="305" x2="590"><stop offset="0%" stop-color="#e15759"/><stop offset="100%" stop-color="#f28e2c"/></linearGradient><path d="M305,33.33333333333334C447.5,33.33333333333334,447.5,114.90459631679695,590,114.90459631679695" stroke="url(#linearGradient-29)" stroke-width="1"/></g><g class="link" style="mix-blend-mode: multiply;"><linearGradient id="linearGradient-30" gradientUnits="userSpaceOnUse" x1="305" x2="590"><stop offset="0%" stop-color="#76b7b2"/><stop offset="100%" stop-color="#f28e2c"/></linearGradient><path d="M305,50.000000000000014C447.5,50.000000000000014,447.5,114.90459631679695,590,114.90459631679695" stroke="url(#linearGradient-30)" stroke-width="1"/></g><g class="link" style="mix-blend-mode: multiply;"><linearGradient id="linearGradient-31" gradientUnits="userSpaceOnUse" x1="305" x2="590"><stop offset="0%" stop-color="#59a14f"/><stop offset="100%" stop-color="#f28e2c"/></linearGradient><path d="M305,16.66666666666667C447.5,16.66666666666667,447.5,114.90459631679695,590,114.90459631679695" stroke="url(#linearGradient-31)" stroke-width="1"/></g><g class="link" style="mix-blend-mode: multiply;"><linearGradient id="linearGradient-32" gradientUnits="userSpaceOnUse" x1="305" x2="590"><stop offset="0%" stop-color="#edc949"/><stop offset="100%" stop-color="#f28e2c"/></linearGradient><path d="M305,66.66666666666669C447.5,66.66666666666669,447.5,114.90459631679695,590,114.90459631679695" stroke="url(#linearGradient-32)" stroke-width="1"/></g><g class="link" style="mix-blend-mode: multiply;"><linearGradient id="linearGradient-33" gradientUnits="userSpaceOnUse" x1="305" x2="590"><stop offset="0%" stop-color="#af7aa1"/><stop offset="100%" stop-color="#f28e2c"/></linearGradient><path d="M305,116.6666666666667C447.5,116.6666666666667,447.5,114.90459631679695,590,114.90459631679695" stroke="url(#linearGradient-33)" stroke-width="1"/></g><g class="link" style="mix-blend-mode: multiply;"><linearGradient id="linearGradient-34" gradientUnits="userSpaceOnUse" x1="305" x2="590"><stop offset="0%" stop-color="#ff9da7"/><stop offset="100%" stop-color="#f28e2c"/></linearGradient><path d="M305,83.33333333333336C447.5,83.33333333333336,447.5,114.90459631679695,590,114.90459631679695" stroke="url(#linearGradient-34)" stroke-width="1"/></g><g class="link" style="mix-blend-mode: multiply;"><linearGradient id="linearGradient-35" gradientUnits="userSpaceOnUse" x1="305" x2="590"><stop offset="0%" stop-color="#9c755f"/><stop offset="100%" stop-color="#f28e2c"/></linearGradient><path d="M305,100.00000000000003C447.5,100.00000000000003,447.5,114.90459631679695,590,114.90459631679695" stroke="url(#linearGradient-35)" stroke-width="1"/></g><g class="link" style="mix-blend-mode: multiply;"><linearGradient id="linearGradient-36" gradientUnits="userSpaceOnUse" x1="305" x2="590"><stop offset="0%" stop-color="#bab0ab"/><stop offset="100%" stop-color="#f28e2c"/></linearGradient><path d="M305,133.33333333333337C447.5,133.33333333333337,447.5,114.90459631679695,590,114.90459631679695" stroke="url(#linearGradient-36)" stroke-width="1"/></g><g class="link" style="mix-blend-mode: multiply;"><linearGradient id="linearGradient-37" gradientUnits="userSpaceOnUse" x1="305" x2="590"><stop offset="0%" stop-color="#4e79a7"/><stop offset="100%" stop-color="#f28e2c"/></linearGradient><path d="M305,150.00000000000003C447.5,150.00000000000003,447.5,114.90459631679695,590,114.90459631679695" stroke="url(#linearGradient-37)" stroke-width="1"/></g><g class="link" style="mix-blend-mode: multiply;"><linearGradient id="linearGradient-38" gradientUnits="userSpaceOnUse" x1="305" x2="590"><stop offset="0%" stop-color="#f28e2c"/><stop offset="100%" stop-color="#f28e2c"/></linearGradient><path d="M305,166.66666666666669C447.5,166.66666666666669,447.5,114.90459631679695,590,114.90459631679695" stroke="url(#linearGradient-38)" stroke-width="1"/></g><g class="link" style="mix-blend-mode: multiply;"><linearGradient id="linearGradient-39" gradientUnits="userSpaceOnUse" x1="305" x2="590"><stop offset="0%" stop-color="#e15759"/><stop offset="100%" stop-color="#f28e2c"/></linearGradient><path d="M305,183.33333333333334C447.5,183.33333333333334,447.5,114.90459631679695,590,114.90459631679695" stroke="url(#linearGradient-39)" stroke-width="1"/></g><g class="link" style="mix-blend-mode: multiply;"><linearGradient id="linearGradient-40" gradientUnits="userSpaceOnUse" x1="305" x2="590"><stop offset="0%" stop-color="#76b7b2"/><stop offset="100%" stop-color="#f28e2c"/></linearGradient><path d="M305,200C447.5,200,447.5,114.90459631679695,590,114.90459631679695" stroke="url(#linearGradient-40)" stroke-width="1"/></g><g class="link" style="mix-blend-mode: multiply;"><linearGradient id="linearGradient-41" gradientUnits="userSpaceOnUse" x1="305" x2="590"><stop offset="0%" stop-color="#59a14f"/><stop offset="100%" stop-color="#f28e2c"/></linearGradient><path d="M305,216.66666666666666C447.5,216.66666666666666,447.5,114.90459631679695,590,114.90459631679695" stroke="url(#linearGradient-41)" stroke-width="1"/></g><g class="link" style="mix-blend-mode: multiply;"><linearGradient id="linearGradient-42" gradientUnits="userSpaceOnUse" x1="305" x2="590"><stop offset="0%" stop-color="#edc949"/><stop offset="100%" stop-color="#f28e2c"/></linearGradient><path d="M305,233.33333333333331C447.5,233.33333333333331,447.5,114.90459631679695,590,114.90459631679695" stroke="url(#linearGradient-42)" stroke-width="1"/></g><g class="link" style="mix-blend-mode: multiply;"><linearGradient id="linearGradient-43" gradientUnits="userSpaceOnUse" x1="305" x2="590"><stop offset="0%" stop-color="#af7aa1"/><stop offset="100%" stop-color="#f28e2c"/></linearGradient><path d="M305,249.99999999999997C447.5,249.99999999999997,447.5,114.90459631679695,590,114.90459631679695" stroke="url(#linearGradient-43)" stroke-width="1"/></g><g class="link" style="mix-blend-mode: multiply;"><linearGradient id="linearGradient-44" gradientUnits="userSpaceOnUse" x1="305" x2="590"><stop offset="0%" stop-color="#ff9da7"/><stop offset="100%" stop-color="#f28e2c"/></linearGradient><path d="M305,266.66666666666663C447.5,266.66666666666663,447.5,114.90459631679695,590,114.90459631679695" stroke="url(#linearGradient-44)" stroke-width="1"/></g><g class="link" style="mix-blend-mode: multiply;"><linearGradient id="linearGradient-45" gradientUnits="userSpaceOnUse" x1="305" x2="590"><stop offset="0%" stop-color="#9c755f"/><stop offset="100%" stop-color="#f28e2c"/></linearGradient><path d="M305,283.3333333333333C447.5,283.3333333333333,447.5,114.90459631679695,590,114.90459631679695" stroke="url(#linearGradient-45)" stroke-width="1"/></g><g class="link" style="mix-blend-mode: multiply;"><linearGradient id="linearGradient-46" gradientUnits="userSpaceOnUse" x1="305" x2="590"><stop offset="0%" stop-color="#bab0ab"/><stop offset="100%" stop-color="#f28e2c"/></linearGradient><path d="M305,300C447.5,300,447.5,114.90459631679695,590,114.90459631679695" stroke="url(#linearGradient-46)" stroke-width="1"/></g><g class="link" style="mix-blend-mode: multiply;"><linearGradient id="linearGradient-47" gradientUnits="userSpaceOnUse" x1="305" x2="590"><stop offset="0%" stop-color="#4e79a7"/><stop offset="100%" stop-color="#f28e2c"/></linearGradient><path d="M305,316.6666666666667C447.5,316.6666666666667,447.5,114.90459631679695,590,114.90459631679695" stroke="url(#linearGradient-47)" stroke-width="1"/></g><g class="link" style="mix-blend-mode: multiply;"><linearGradient id="linearGradient-48" gradientUnits="userSpaceOnUse" x1="305" x2="590"><stop offset="0%" stop-color="#f28e2c"/><stop offset="100%" stop-color="#f28e2c"/></linearGradient><path d="M305,333.33333333333337C447.5,333.33333333333337,447.5,114.90459631679695,590,114.90459631679695" stroke="url(#linearGradient-48)" stroke-width="1"/></g><g class="link" style="mix-blend-mode: multiply;"><linearGradient id="linearGradient-49" gradientUnits="userSpaceOnUse" x1="305" x2="590"><stop offset="0%" stop-color="#e15759"/><stop offset="100%" stop-color="#f28e2c"/></linearGradient><path d="M305,350.00000000000006C447.5,350.00000000000006,447.5,114.90459631679695,590,114.90459631679695" stroke="url(#linearGradient-49)" stroke-width="1"/></g><g class="link" style="mix-blend-mode: multiply;"><linearGradient id="linearGradient-50" gradientUnits="userSpaceOnUse" x1="305" x2="590"><stop offset="0%" stop-color="#76b7b2"/><stop offset="100%" stop-color="#f28e2c"/></linearGradient><path d="M305,366.66666666666674C447.5,366.66666666666674,447.5,114.90459631679695,590,114.90459631679695" stroke="url(#linearGradient-50)" stroke-width="1"/></g><g class="link" style="mix-blend-mode: multiply;"><linearGradient id="linearGradient-51" gradientUnits="userSpaceOnUse" x1="305" x2="590"><stop offset="0%" stop-color="#59a14f"/><stop offset="100%" stop-color="#f28e2c"/></linearGradient><path d="M305,383.3333333333334C447.5,383.3333333333334,447.5,114.90459631679695,590,114.90459631679695" stroke="url(#linearGradient-51)" stroke-width="1"/></g><g class="link" style="mix-blend-mode: multiply;"><linearGradient id="linearGradient-52" gradientUnits="userSpaceOnUse" x1="305" x2="590"><stop offset="0%" stop-color="#edc949"/><stop offset="100%" stop-color="#f28e2c"/></linearGradient><path d="M305,400.0000000000001C447.5,400.0000000000001,447.5,114.90459631679695,590,114.90459631679695" stroke="url(#linearGradient-52)" stroke-width="1"/></g><g class="link" style="mix-blend-mode: multiply;"><linearGradient id="linearGradient-53" gradientUnits="userSpaceOnUse" x1="10" x2="295"><stop offset="0%" stop-color="#af7aa1"/><stop offset="100%" stop-color="#4e79a7"/></linearGradient><path d="M10,154.74372181497324C152.5,154.74372181497324,152.5,0,295,0" stroke="url(#linearGradient-53)" stroke-width="1"/></g><g class="link" style="mix-blend-mode: multiply;"><linearGradient id="linearGradient-54" gradientUnits="userSpaceOnUse" x1="10" x2="295"><stop offset="0%" stop-color="#af7aa1"/><stop offset="100%" stop-color="#e15759"/></linearGradient><path d="M10,154.74372181497324C152.5,154.74372181497324,152.5,33.33333333333334,295,33.33333333333334" stroke="url(#linearGradient-54)" stroke-width="1"/></g><g class="link" style="mix-blend-mode: multiply;"><linearGradient id="linearGradient-55" gradientUnits="userSpaceOnUse" x1="10" x2="295"><stop offset="0%" stop-color="#af7aa1"/><stop offset="100%" stop-color="#76b7b2"/></linearGradient><path d="M10,154.74372181497324C152.5,154.74372181497324,152.5,50.000000000000014,295,50.000000000000014" stroke="url(#linearGradient-55)" stroke-width="1"/></g><g class="link" style="mix-blend-mode: multiply;"><linearGradient id="linearGradient-56" gradientUnits="userSpaceOnUse" x1="10" x2="295"><stop offset="0%" stop-color="#af7aa1"/><stop offset="100%" stop-color="#59a14f"/></linearGradient><path d="M10,154.74372181497324C152.5,154.74372181497324,152.5,16.66666666666667,295,16.66666666666667" stroke="url(#linearGradient-56)" stroke-width="1"/></g><g class="link" style="mix-blend-mode: multiply;"><linearGradient id="linearGradient-57" gradientUnits="userSpaceOnUse" x1="10" x2="295"><stop offset="0%" stop-color="#af7aa1"/><stop offset="100%" stop-color="#edc949"/></linearGradient><path d="M10,154.74372181497324C152.5,154.74372181497324,152.5,66.66666666666669,295,66.66666666666669" stroke="url(#linearGradient-57)" stroke-width="1"/></g><g class="link" style="mix-blend-mode: multiply;"><linearGradient id="linearGradient-58" gradientUnits="userSpaceOnUse" x1="10" x2="295"><stop offset="0%" stop-color="#af7aa1"/><stop offset="100%" stop-color="#af7aa1"/></linearGradient><path d="M10,154.74372181497324C152.5,154.74372181497324,152.5,116.6666666666667,295,116.6666666666667" stroke="url(#linearGradient-58)" stroke-width="1"/></g><g class="link" style="mix-blend-mode: multiply;"><linearGradient id="linearGradient-59" gradientUnits="userSpaceOnUse" x1="10" x2="295"><stop offset="0%" stop-color="#af7aa1"/><stop offset="100%" stop-color="#ff9da7"/></linearGradient><path d="M10,154.74372181497324C152.5,154.74372181497324,152.5,83.33333333333336,295,83.33333333333336" stroke="url(#linearGradient-59)" stroke-width="1"/></g><g class="link" style="mix-blend-mode: multiply;"><linearGradient id="linearGradient-60" gradientUnits="userSpaceOnUse" x1="10" x2="295"><stop offset="0%" stop-color="#af7aa1"/><stop offset="100%" stop-color="#9c755f"/></linearGradient><path d="M10,154.74372181497324C152.5,154.74372181497324,152.5,100.00000000000003,295,100.00000000000003" stroke="url(#linearGradient-60)" stroke-width="1"/></g><g class="link" style="mix-blend-mode: multiply;"><linearGradient id="linearGradient-61" gradientUnits="userSpaceOnUse" x1="10" x2="295"><stop offset="0%" stop-color="#af7aa1"/><stop offset="100%" stop-color="#bab0ab"/></linearGradient><path d="M10,154.74372181497324C152.5,154.74372181497324,152.5,133.33333333333337,295,133.33333333333337" stroke="url(#linearGradient-61)" stroke-width="1"/></g><g class="link" style="mix-blend-mode: multiply;"><linearGradient id="linearGradient-62" gradientUnits="userSpaceOnUse" x1="10" x2="295"><stop offset="0%" stop-color="#af7aa1"/><stop offset="100%" stop-color="#4e79a7"/></linearGradient><path d="M10,154.74372181497324C152.5,154.74372181497324,152.5,150.00000000000003,295,150.00000000000003" stroke="url(#linearGradient-62)" stroke-width="1"/></g><g class="link" style="mix-blend-mode: multiply;"><linearGradient id="linearGradient-63" gradientUnits="userSpaceOnUse" x1="10" x2="295"><stop offset="0%" stop-color="#af7aa1"/><stop offset="100%" stop-color="#f28e2c"/></linearGradient><path d="M10,154.74372181497324C152.5,154.74372181497324,152.5,166.66666666666669,295,166.66666666666669" stroke="url(#linearGradient-63)" stroke-width="1"/></g><g class="link" style="mix-blend-mode: multiply;"><linearGradient id="linearGradient-64" gradientUnits="userSpaceOnUse" x1="10" x2="295"><stop offset="0%" stop-color="#af7aa1"/><stop offset="100%" stop-color="#e15759"/></linearGradient><path d="M10,154.74372181497324C152.5,154.74372181497324,152.5,183.33333333333334,295,183.33333333333334" stroke="url(#linearGradient-64)" stroke-width="1"/></g><g class="link" style="mix-blend-mode: multiply;"><linearGradient id="linearGradient-65" gradientUnits="userSpaceOnUse" x1="10" x2="295"><stop offset="0%" stop-color="#af7aa1"/><stop offset="100%" stop-color="#76b7b2"/></linearGradient><path d="M10,154.74372181497324C152.5,154.74372181497324,152.5,200,295,200" stroke="url(#linearGradient-65)" stroke-width="1"/></g><g class="link" style="mix-blend-mode: multiply;"><linearGradient id="linearGradient-66" gradientUnits="userSpaceOnUse" x1="10" x2="295"><stop offset="0%" stop-color="#af7aa1"/><stop offset="100%" stop-color="#59a14f"/></linearGradient><path d="M10,154.74372181497324C152.5,154.74372181497324,152.5,216.66666666666666,295,216.66666666666666" stroke="url(#linearGradient-66)" stroke-width="1"/></g><g class="link" style="mix-blend-mode: multiply;"><linearGradient id="linearGradient-67" gradientUnits="userSpaceOnUse" x1="10" x2="295"><stop offset="0%" stop-color="#af7aa1"/><stop offset="100%" stop-color="#edc949"/></linearGradient><path d="M10,154.74372181497324C152.5,154.74372181497324,152.5,233.33333333333331,295,233.33333333333331" stroke="url(#linearGradient-67)" stroke-width="1"/></g><g class="link" style="mix-blend-mode: multiply;"><linearGradient id="linearGradient-68" gradientUnits="userSpaceOnUse" x1="10" x2="295"><stop offset="0%" stop-color="#af7aa1"/><stop offset="100%" stop-color="#af7aa1"/></linearGradient><path d="M10,154.74372181497324C152.5,154.74372181497324,152.5,249.99999999999997,295,249.99999999999997" stroke="url(#linearGradient-68)" stroke-width="1"/></g><g class="link" style="mix-blend-mode: multiply;"><linearGradient id="linearGradient-69" gradientUnits="userSpaceOnUse" x1="10" x2="295"><stop offset="0%" stop-color="#af7aa1"/><stop offset="100%" stop-color="#ff9da7"/></linearGradient><path d="M10,154.74372181497324C152.5,154.74372181497324,152.5,266.66666666666663,295,266.66666666666663" stroke="url(#linearGradient-69)" stroke-width="1"/></g><g class="link" style="mix-blend-mode: multiply;"><linearGradient id="linearGradient-70" gradientUnits="userSpaceOnUse" x1="10" x2="295"><stop offset="0%" stop-color="#af7aa1"/><stop offset="100%" stop-color="#9c755f"/></linearGradient><path d="M10,154.74372181497324C152.5,154.74372181497324,152.5,283.3333333333333,295,283.3333333333333" stroke="url(#linearGradient-70)" stroke-width="1"/></g><g class="link" style="mix-blend-mode: multiply;"><linearGradient id="linearGradient-71" gradientUnits="userSpaceOnUse" x1="10" x2="295"><stop offset="0%" stop-color="#af7aa1"/><stop offset="100%" stop-color="#bab0ab"/></linearGradient><path d="M10,154.74372181497324C152.5,154.74372181497324,152.5,300,295,300" stroke="url(#linearGradient-71)" stroke-width="1"/></g><g class="link" style="mix-blend-mode: multiply;"><linearGradient id="linearGradient-72" gradientUnits="userSpaceOnUse" x1="10" x2="295"><stop offset="0%" stop-color="#af7aa1"/><stop offset="100%" stop-color="#4e79a7"/></linearGradient><path d="M10,154.74372181497324C152.5,154.74372181497324,152.5,316.6666666666667,295,316.6666666666667" stroke="url(#linearGradient-72)" stroke-width="1"/></g><g class="link" style="mix-blend-mode: multiply;"><linearGradient id="linearGradient-73" gradientUnits="userSpaceOnUse" x1="10" x2="295"><stop offset="0%" stop-color="#af7aa1"/><stop offset="100%" stop-color="#f28e2c"/></linearGradient><path d="M10,154.74372181497324C152.5,154.74372181497324,152.5,333.33333333333337,295,333.33333333333337" stroke="url(#linearGradient-73)" stroke-width="1"/></g><g class="link" style="mix-blend-mode: multiply;"><linearGradient id="linearGradient-74" gradientUnits="userSpaceOnUse" x1="10" x2="295"><stop offset="0%" stop-color="#af7aa1"/><stop offset="100%" stop-color="#e15759"/></linearGradient><path d="M10,154.74372181497324C152.5,154.74372181497324,152.5,350.00000000000006,295,350.00000000000006" stroke="url(#linearGradient-74)" stroke-width="1"/></g><g class="link" style="mix-blend-mode: multiply;"><linearGradient id="linearGradient-75" gradientUnits="userSpaceOnUse" x1="10" x2="295"><stop offset="0%" stop-color="#af7aa1"/><stop offset="100%" stop-color="#76b7b2"/></linearGradient><path d="M10,154.74372181497324C152.5,154.74372181497324,152.5,366.66666666666674,295,366.66666666666674" stroke="url(#linearGradient-75)" stroke-width="1"/></g><g class="link" style="mix-blend-mode: multiply;"><linearGradient id="linearGradient-76" gradientUnits="userSpaceOnUse" x1="10" x2="295"><stop offset="0%" stop-color="#af7aa1"/><stop offset="100%" stop-color="#59a14f"/></linearGradient><path d="M10,154.74372181497324C152.5,154.74372181497324,152.5,383.3333333333334,295,383.3333333333334" stroke="url(#linearGradient-76)" stroke-width="1"/></g><g class="link" style="mix-blend-mode: multiply;"><linearGradient id="linearGradient-77" gradientUnits="userSpaceOnUse" x1="10" x2="295"><stop offset="0%" stop-color="#af7aa1"/><stop offset="100%" stop-color="#edc949"/></linearGradient><path d="M10,154.74372181497324C152.5,154.74372181497324,152.5,400.0000000000001,295,400.0000000000001" stroke="url(#linearGradient-77)" stroke-width="1"/></g></g></svg>