<?plantuml 1.2026.2?><svg xmlns="http://www.w3.org/2000/svg" xmlns:xlink="http://www.w3.org/1999/xlink" contentStyleType="text/css" data-diagram-type="DESCRIPTION" height="1014px" preserveAspectRatio="none" style="width:2404px;height:1014px;background:#1E1E2E;" version="1.1" viewBox="0 0 2404 1014" width="2404px" zoomAndPan="magnify"><defs/><g><rect fill="#1E1E2E" height="1014" style="stroke:none;stroke-width:1;" width="2404" x="0" y="0"/><!--cluster stage_home--><g class="cluster" data-qualified-name="stage_home" data-source-line="24" id="ent0003"><path d="M74.66,231.55 L109.2599,231.55 A3.75,3.75 0 0 1 111.7599,234.05 L118.7599,256.0299 L1378.26,256.0299 A2.5,2.5 0 0 1 1380.76,258.5299 L1380.76,706.05 A2.5,2.5 0 0 1 1378.26,708.55 L74.66,708.55 A2.5,2.5 0 0 1 72.16,706.05 L72.16,234.05 A2.5,2.5 0 0 1 74.66,231.55" fill="#313244" style="stroke:#6C7086;stroke-width:1.5;"/><line style="stroke:#6C7086;stroke-width:1.5;" x1="72.16" x2="118.7599" y1="256.0299" y2="256.0299"/><text fill="#CDD6F4" font-family="'JetBrains Mono,monospace'" font-size="14" font-weight="bold" lengthAdjust="spacing" textLength="33.5999" x="76.16" y="247.8299">home</text></g><!--cluster stage_default--><g class="cluster" data-qualified-name="stage_default" data-source-line="42" id="ent0020"><path d="M621.06,732.55 L680.8597,732.55 A3.75,3.75 0 0 1 683.3597,735.05 L690.3597,757.0299 L2395.25,757.0299 A2.5,2.5 0 0 1 2397.75,759.5299 L2397.75,967.05 A2.5,2.5 0 0 1 2395.25,969.55 L621.06,969.55 A2.5,2.5 0 0 1 618.56,967.05 L618.56,735.05 A2.5,2.5 0 0 1 621.06,732.55" fill="#313244" style="stroke:#6C7086;stroke-width:1.5;"/><line style="stroke:#6C7086;stroke-width:1.5;" x1="618.56" x2="690.3597" y1="757.0299" y2="757.0299"/><text fill="#CDD6F4" font-family="'JetBrains Mono,monospace'" font-size="14" font-weight="bold" lengthAdjust="spacing" textLength="58.7997" x="622.56" y="748.8299">default</text></g><!--entity alice_dotfiles--><g class="entity" data-qualified-name="stage_home.alice_dotfiles" data-source-line="25" id="ent0004"><rect fill="#F2CDCD" height="38.4799" rx="2.5" ry="2.5" style="stroke:#A6ADC8;stroke-width:0.5;" width="137.5995" x="88.16" y="488.31"/><text fill="#1E1E2E" font-family="'JetBrains Mono,monospace'" font-size="14" lengthAdjust="spacing" textLength="117.5995" x="98.16" y="512.5899">alice-dotfiles</text></g><!--entity demo_shell--><g class="entity" data-qualified-name="stage_home.demo_shell" data-source-line="26" id="ent0005"><rect fill="#CBA6F7" height="38.4799" rx="2.5" ry="2.5" style="stroke:#A6ADC8;stroke-width:0.5;" width="103.9996" x="714.36" y="396.31"/><text fill="#1E1E2E" font-family="'JetBrains Mono,monospace'" font-size="14" lengthAdjust="spacing" textLength="83.9996" x="724.36" y="420.5899">demo-shell</text></g><!--entity dev_tools--><g class="entity" data-qualified-name="stage_home.dev_tools" data-source-line="27" id="ent0006"><rect fill="#F38BA8" height="38.4799" rx="2.5" ry="2.5" style="stroke:#A6ADC8;stroke-width:0.5;" width="95.5997" x="1264.96" y="498.31"/><text fill="#1E1E2E" font-family="'JetBrains Mono,monospace'" font-size="14" lengthAdjust="spacing" textLength="75.5997" x="1274.96" y="522.5899">dev-tools</text></g><!--entity home--><g class="entity" data-qualified-name="stage_home.home" data-source-line="28" id="ent0007"><rect fill="#F38BA8" height="38.4799" rx="2.5" ry="2.5" style="stroke:#A6ADC8;stroke-width:0.5;" width="53.5999" x="130.16" y="654.31"/><text fill="#1E1E2E" font-family="'JetBrains Mono,monospace'" font-size="14" lengthAdjust="spacing" textLength="33.5999" x="140.16" y="678.5899">home</text></g><!--entity home_bat--><g class="entity" data-qualified-name="stage_home.home_bat" data-source-line="29" id="ent0008"><rect fill="#F2CDCD" height="38.4799" rx="2.5" ry="2.5" style="stroke:#A6ADC8;stroke-width:0.5;" width="87.1997" x="1269.16" y="323.31"/><text fill="#1E1E2E" font-family="'JetBrains Mono,monospace'" font-size="14" lengthAdjust="spacing" textLength="67.1997" x="1279.16" y="347.5899">home-bat</text></g><!--entity home_dev--><g class="entity" data-qualified-name="stage_home.home_dev" data-source-line="30" id="ent0009"><rect fill="#F38BA8" height="38.4799" rx="2.5" ry="2.5" style="stroke:#A6ADC8;stroke-width:0.5;" width="87.1997" x="722.76" y="305.31"/><text fill="#1E1E2E" font-family="'JetBrains Mono,monospace'" font-size="14" lengthAdjust="spacing" textLength="67.1997" x="732.76" y="329.5899">home-dev</text></g><!--entity home_firefox--><g class="entity" data-qualified-name="stage_home.home_firefox" data-source-line="31" id="ent0010"><rect fill="#F38BA8" height="38.4799" rx="2.5" ry="2.5" style="stroke:#A6ADC8;stroke-width:0.5;" width="120.7996" x="1004.36" y="654.31"/><text fill="#1E1E2E" font-family="'JetBrains Mono,monospace'" font-size="14" lengthAdjust="spacing" textLength="100.7996" x="1014.36" y="678.5899">home-firefox</text></g><!--entity home_git--><g class="entity" data-qualified-name="stage_home.home_git" data-source-line="32" id="ent0011"><rect fill="#CBA6F7" height="38.4799" rx="2.5" ry="2.5" style="stroke:#A6ADC8;stroke-width:0.5;" width="87.1997" x="1021.16" y="268.31"/><text fill="#1E1E2E" font-family="'JetBrains Mono,monospace'" font-size="14" lengthAdjust="spacing" textLength="67.1997" x="1031.16" y="292.5899">home-git</text></g><!--entity home_productivity--><g class="entity" data-qualified-name="stage_home.home_productivity" data-source-line="33" id="ent0012"><rect fill="#CBA6F7" height="38.4799" rx="2.5" ry="2.5" style="stroke:#A6ADC8;stroke-width:0.5;" width="162.7994" x="684.96" y="617.31"/><text fill="#1E1E2E" font-family="'JetBrains Mono,monospace'" font-size="14" lengthAdjust="spacing" textLength="142.7994" x="694.96" y="641.5899">home-productivity</text></g><!--entity home_slack--><g class="entity" data-qualified-name="stage_home.home_slack" data-source-line="34" id="ent0013"><rect fill="#F2CDCD" height="38.4799" rx="2.5" ry="2.5" style="stroke:#A6ADC8;stroke-width:0.5;" width="103.9996" x="1260.76" y="599.31"/><text fill="#1E1E2E" font-family="'JetBrains Mono,monospace'" font-size="14" lengthAdjust="spacing" textLength="83.9996" x="1270.76" y="623.5899">home-slack</text></g><!--entity home__aspect_home_--><g class="entity" data-qualified-name="stage_home.home__aspect_home_" data-source-line="35" id="ent0014"><rect fill="#CBA6F7" height="38.4799" rx="2.5" ry="2.5" style="stroke:#A6ADC8;stroke-width:0.5;" width="162.7994" x="348.76" y="581.31"/><text fill="#1E1E2E" font-family="'JetBrains Mono,monospace'" font-size="14" lengthAdjust="spacing" textLength="142.7994" x="358.76" y="605.5899">home/aspect(home)</text></g><!--entity home__cross_provide__anon__--><g class="entity" data-qualified-name="stage_home.home__cross_provide__anon__" data-source-line="36" id="ent0015"><rect fill="#CBA6F7" height="38.4799" rx="2.5" ry="2.5" style="stroke:#A6ADC8;stroke-width:0.5;" width="288.7988" x="285.76" y="654.31"/><text fill="#1E1E2E" font-family="'JetBrains Mono,monospace'" font-size="14" lengthAdjust="spacing" textLength="268.7988" x="295.76" y="678.5899">home/cross-provide(&amp;lt;anon&amp;gt;)</text></g><!--entity home__self_provide_home_--><g class="entity" data-qualified-name="stage_home.home__self_provide_home_" data-source-line="37" id="ent0016"><rect fill="#F38BA8" height="38.4799" rx="2.5" ry="2.5" style="stroke:#A6ADC8;stroke-width:0.5;" width="213.1992" x="323.56" y="488.31"/><text fill="#1E1E2E" font-family="'JetBrains Mono,monospace'" font-size="14" lengthAdjust="spacing" textLength="193.1992" x="333.56" y="512.5899">home/self-provide(home)</text></g><!--entity hyprland--><g class="entity" data-qualified-name="stage_home.hyprland" data-source-line="38" id="ent0017"><rect fill="#CBA6F7" height="38.4799" rx="2.5" ry="2.5" style="stroke:#A6ADC8;stroke-width:0.5;" width="87.1997" x="1021.16" y="470.31"/><text fill="#1E1E2E" font-family="'JetBrains Mono,monospace'" font-size="14" lengthAdjust="spacing" textLength="67.1997" x="1031.16" y="494.5899">hyprland</text></g><!--entity primary_user--><g class="entity" data-qualified-name="stage_home.primary_user" data-source-line="39" id="ent0018"><rect fill="#CBA6F7" height="38.4799" rx="2.5" ry="2.5" style="stroke:#A6ADC8;stroke-width:0.5;" width="120.7996" x="369.76" y="415.31"/><text fill="#1E1E2E" font-family="'JetBrains Mono,monospace'" font-size="14" lengthAdjust="spacing" textLength="100.7996" x="379.76" y="439.5899">primary-user</text></g><!--entity den__provides__primary_user--><g class="entity" data-qualified-name="stage_home.den__provides__primary_user" data-source-line="40" id="ent0019"><rect fill="#CBA6F7" height="24.4799" rx="2.5" ry="2.5" style="stroke:#A6ADC8;stroke-width:0.5;" width="196.3992" x="331.96" y="356.31"/><text fill="#1E1E2E" font-family="'JetBrains Mono,monospace'" font-size="14" lengthAdjust="spacing" textLength="176.3992" x="341.96" y="373.5899">provides/primary-user</text></g><!--entity n_default--><g class="entity" data-qualified-name="stage_default.n_default" data-source-line="43" id="ent0021"><rect fill="#FAB387" height="38.4799" rx="2.5" ry="2.5" style="stroke:#A6ADC8;stroke-width:0.5;" width="78.7997" x="726.96" y="769.31"/><text fill="#1E1E2E" font-family="'JetBrains Mono,monospace'" font-size="14" lengthAdjust="spacing" textLength="58.7997" x="736.96" y="793.5899">default</text></g><!--entity default__aspect_default_--><g class="entity" data-qualified-name="stage_default.default__aspect_default_" data-source-line="44" id="ent0022"><rect fill="#A6E3A1" height="38.4799" rx="2.5" ry="2.5" style="stroke:#A6ADC8;stroke-width:0.5;" width="213.1992" x="958.16" y="818.31"/><text fill="#1E1E2E" font-family="'JetBrains Mono,monospace'" font-size="14" lengthAdjust="spacing" textLength="193.1992" x="968.16" y="842.5899">default/aspect(default)</text></g><!--entity den__provides__default__aspect_default__den__provides--><g class="entity" data-qualified-name="stage_default.den__provides__default__aspect_default__den__provides" data-source-line="45" id="ent0023"><rect fill="#A6E3A1" height="24.4799" rx="2.5" ry="2.5" style="stroke:#A6ADC8;stroke-width:0.5;" width="397.9984" x="1983.76" y="819.31"/><text fill="#1E1E2E" font-family="'JetBrains Mono,monospace'" font-size="14" lengthAdjust="spacing" textLength="377.9984" x="1993.76" y="836.5899">provides/default/aspect(default):den/provides</text></g><!--entity default__cross_provide_home_--><g class="entity" data-qualified-name="stage_default.default__cross_provide_home_" data-source-line="46" id="ent0024"><rect fill="#F9E2AF" height="38.4799" rx="2.5" ry="2.5" style="stroke:#A6ADC8;stroke-width:0.5;" width="246.799" x="642.96" y="842.31"/><text fill="#1E1E2E" font-family="'JetBrains Mono,monospace'" font-size="14" lengthAdjust="spacing" textLength="226.799" x="652.96" y="866.5899">default/cross-provide(home)</text></g><!--entity default__self_provide_default_--><g class="entity" data-qualified-name="stage_default.default__self_provide_default_" data-source-line="47" id="ent0025"><rect fill="#FAB387" height="38.4799" rx="2.5" ry="2.5" style="stroke:#A6ADC8;stroke-width:0.5;" width="263.5989" x="634.56" y="915.31"/><text fill="#1E1E2E" font-family="'JetBrains Mono,monospace'" font-size="14" lengthAdjust="spacing" textLength="243.5989" x="644.56" y="939.5899">default/self-provide(default)</text></g><!--entity den__provides__define_user--><g class="entity" data-qualified-name="stage_default.den__provides__define_user" data-source-line="48" id="ent0026"><rect fill="#A6E3A1" height="24.4799" rx="2.5" ry="2.5" style="stroke:#A6ADC8;stroke-width:0.5;" width="187.9993" x="1454.16" y="843.31"/><text fill="#1E1E2E" font-family="'JetBrains Mono,monospace'" font-size="14" lengthAdjust="spacing" textLength="167.9993" x="1464.16" y="860.5899">provides/define-user</text></g><!--entity den__provides__hostname--><g class="entity" data-qualified-name="stage_default.den__provides__hostname" data-source-line="49" id="ent0027"><rect fill="#FAB387" height="24.4799" rx="2.5" ry="2.5" style="stroke:#A6ADC8;stroke-width:0.5;" width="162.7994" x="1231.36" y="880.31"/><text fill="#1E1E2E" font-family="'JetBrains Mono,monospace'" font-size="14" lengthAdjust="spacing" textLength="142.7994" x="1241.36" y="897.5899">provides/hostname</text></g><!--entity den__provides__mutual_provider--><g class="entity" data-qualified-name="stage_default.den__provides__mutual_provider" data-source-line="50" id="ent0028"><rect fill="#F9E2AF" height="24.4799" rx="2.5" ry="2.5" style="stroke:#A6ADC8;stroke-width:0.5;" width="221.5991" x="1702.16" y="795.31"/><text fill="#1E1E2E" font-family="'JetBrains Mono,monospace'" font-size="14" lengthAdjust="spacing" textLength="201.5991" x="1712.16" y="812.5899">provides/mutual-provider</text></g><!--entity alice--><g class="entity" data-qualified-name="alice" data-source-line="23" id="ent0002"><rect fill="#89B4FA" height="38.4799" rx="2.5" ry="2.5" style="stroke:#A6ADC8;stroke-width:0.5;" width="61.9998" x="125.96" y="177.31"/><text fill="#1E1E2E" font-family="'JetBrains Mono,monospace'" font-size="14" lengthAdjust="spacing" textLength="41.9998" x="135.96" y="201.5899">alice</text></g><!--link alice to alice_dotfiles--><g class="link" data-entity-1="ent0002" data-entity-2="ent0004" data-link-type="dependency" data-source-line="53" id="lnk29"><path d="M156.96,216.2 C156.96,306.84 156.96,391.47 156.96,482.11" fill="none" id="alice-to-alice_dotfiles" style="stroke:#A6ADC8;stroke-width:1;"/><polygon fill="#A6ADC8" points="156.96,488.11,160.96,479.11,156.96,483.11,152.96,479.11,156.96,488.11" style="stroke:#A6ADC8;stroke-width:1;"/></g><!--link alice to demo_shell--><g class="link" data-entity-1="ent0002" data-entity-2="ent0005" data-link-type="dependency" data-source-line="54" id="lnk30"><path d="M188.28,200.78 C279.04,213.66 544.21,253.06 574.56,277.55 C606.17,303.06 580.86,333.84 610.56,361.55 C638.86,387.96 674.9078,400.3181 707.9878,407.2581" fill="none" id="alice-to-demo_shell" style="stroke:#A6ADC8;stroke-width:1;"/><polygon fill="#A6ADC8" points="713.86,408.49,705.8731,402.7273,708.9665,407.4634,704.2305,410.5569,713.86,408.49" style="stroke:#A6ADC8;stroke-width:1;"/></g><!--link alice to dev_tools--><g class="link" data-entity-1="ent0002" data-entity-2="ent0006" data-link-type="dependency" data-source-line="55" id="lnk31"><path d="M188.27,176.97 C213.29,162.04 250.31,142.7 285.76,134.55 C672.64,45.66 858.67,6 1171.36,250.55 C1221.17,289.5 1202.08,323.51 1231.36,379.55 C1253.96,422.8 1280.3357,466.6999 1296.5857,493.1099" fill="none" id="alice-to-dev_tools" style="stroke:#A6ADC8;stroke-width:1;"/><polygon fill="#A6ADC8" points="1299.73,498.22,1298.4204,488.4586,1297.1098,493.9615,1291.6068,492.6509,1299.73,498.22" style="stroke:#A6ADC8;stroke-width:1;"/></g><!--link alice to home_dev--><g class="link" data-entity-1="ent0002" data-entity-2="ent0009" data-link-type="dependency" data-source-line="56" id="lnk32"><path d="M188.35,191.96 C258.29,182.54 435.34,165.17 574.56,206.55 C641.95,226.58 704.5407,273.2009 738.3307,301.2109" fill="none" id="alice-to-home_dev" style="stroke:#A6ADC8;stroke-width:1;"/><polygon fill="#A6ADC8" points="742.95,305.04,738.5738,296.2168,739.1006,301.8491,733.4683,302.3758,742.95,305.04" style="stroke:#A6ADC8;stroke-width:1;"/></g><!--link alice to home_productivity--><g class="link" data-entity-1="ent0002" data-entity-2="ent0012" data-link-type="dependency" data-source-line="57" id="lnk33"><path d="M181.31,216.23 C205.77,235.8 246.1,265.2 285.76,281.55 C406.72,331.4 477.06,251.31 574.56,338.55 C614.16,373.98 584.96,405.99 610.56,452.55 C647.56,519.86 707.0189,581.3177 739.9589,612.8977" fill="none" id="alice-to-home_productivity" style="stroke:#A6ADC8;stroke-width:1;"/><polygon fill="#A6ADC8" points="744.29,617.05,740.5615,607.9342,740.6807,613.5898,735.0251,613.709,744.29,617.05" style="stroke:#A6ADC8;stroke-width:1;"/></g><!--link alice to home__self_provide_home_--><g class="link" data-entity-1="ent0002" data-entity-2="ent0016" data-link-type="dependency" data-source-line="58" id="lnk34"><path d="M188.33,199.47 C201.58,207.51 216.23,220.31 225.76,235.05 C280.55,319.8 213.64,383.46 285.76,454.05 C304.75,472.63 325.9697,480.7381 351.4897,486.5481" fill="none" id="alice-to-home__self_provide_home_" style="stroke:#A6ADC8;stroke-width:1;"/><polygon fill="#A6ADC8" points="357.34,487.88,349.4525,481.9819,352.4647,486.7701,347.6766,489.7823,357.34,487.88" style="stroke:#A6ADC8;stroke-width:1;"/></g><!--link home__self_provide_home_ to alice--><g class="link" data-entity-1="ent0016" data-entity-2="ent0002" data-link-type="dependency" data-source-line="108" id="lnk84"><path d="M323.24,512.11 C309.35,506.88 296.31,499.37 285.76,489.05 C213.64,418.46 280.55,354.8 225.76,270.05 C211.67,248.25 190.7755,234.8155 175.3755,220.3655" fill="none" id="home__self_provide_home_-to-alice" style="stroke:#A6ADC8;stroke-width:1;"/><polygon fill="#A6ADC8" points="171,216.26,174.8262,225.3353,174.6462,219.6813,180.3002,219.5013,171,216.26" style="stroke:#A6ADC8;stroke-width:1;"/></g><!--link alice to hyprland--><g class="link" data-entity-1="ent0002" data-entity-2="ent0017" data-link-type="dependency" data-source-line="59" id="lnk35"><path d="M188.36,187.64 C214.05,180.59 251.96,171.34 285.76,167.55 C413.32,153.26 448.22,144.88 574.56,167.55 C725.54,194.64 773.28,198.47 898.16,287.55 C970.52,339.16 1026.0995,424.9833 1049.6095,464.8033" fill="none" id="alice-to-hyprland" style="stroke:#A6ADC8;stroke-width:1;"/><polygon fill="#A6ADC8" points="1052.66,469.97,1051.5288,460.1863,1050.118,465.6644,1044.6399,464.2536,1052.66,469.97" style="stroke:#A6ADC8;stroke-width:1;"/></g><!--link alice to primary_user--><g class="link" data-entity-1="ent0002" data-entity-2="ent0018" data-link-type="dependency" data-source-line="60" id="lnk36"><path d="M187.87,216.19 C200.86,225.9 215.44,238.54 225.76,252.55 C267.39,309.02 232.72,352.64 285.76,398.55 C308.76,418.46 335.2533,426.7809 363.4633,430.9109" fill="none" id="alice-to-primary_user" style="stroke:#A6ADC8;stroke-width:1;"/><polygon fill="#A6ADC8" points="369.4,431.78,361.0744,426.5185,364.4527,431.0557,359.9155,434.4341,369.4,431.78" style="stroke:#A6ADC8;stroke-width:1;"/></g><!--link alice to den__provides__primary_user--><g class="link" data-entity-1="ent0002" data-entity-2="ent0019" data-link-type="dependency" data-source-line="61" id="lnk37"><path d="M184.22,216.05 C197.3,226.29 212.99,239.41 225.76,252.55 C256,283.66 249.64,305.51 285.76,329.55 C304.02,341.7 320.1719,348.4997 341.3419,354.2797" fill="none" id="alice-to-den__provides__primary_user" style="stroke:#A6ADC8;stroke-width:1;"/><polygon fill="#A6ADC8" points="347.13,355.86,339.5013,349.6308,342.3065,354.5431,337.3942,357.3483,347.13,355.86" style="stroke:#A6ADC8;stroke-width:1;"/></g><!--link alice_dotfiles to alice_dotfiles--><g class="link" data-entity-1="ent0004" data-entity-2="ent0004" data-link-type="dependency" data-source-line="62" id="lnk38"><path d="M114.19,488.09 C94.68,471.19 108.94,453.31 156.96,453.31 C204.99,453.31 223.7751,467.2616 204.2651,484.1616" fill="none" id="alice_dotfiles-to-alice_dotfiles" style="stroke:#A6ADC8;stroke-width:1;"/><polygon fill="#A6ADC8" points="199.73,488.09,209.1517,485.2208,203.5093,484.8163,203.9137,479.1739,199.73,488.09" style="stroke:#A6ADC8;stroke-width:1;"/></g><!--link alice_dotfiles to home__self_provide_home_--><g class="link" data-entity-1="ent0004" data-entity-2="ent0016" data-link-type="dependency" data-source-line="63" id="lnk39"><path d="M226.05,519.11 C255.47,520.6 284.5811,521.1474 317.2711,520.5074" fill="none" id="alice_dotfiles-to-home__self_provide_home_" style="stroke:#A6ADC8;stroke-width:1;"/><polygon fill="#A6ADC8" points="323.27,520.39,314.1934,516.5669,318.271,520.4879,314.35,524.5654,323.27,520.39" style="stroke:#A6ADC8;stroke-width:1;"/></g><!--link home__self_provide_home_ to alice_dotfiles--><g class="link" data-entity-1="ent0016" data-entity-2="ent0004" data-link-type="dependency" data-source-line="109" id="lnk85"><path d="M323.27,494.71 C290.58,494.07 261.4623,494.1965 232.0423,495.6865" fill="none" id="home__self_provide_home_-to-alice_dotfiles" style="stroke:#A6ADC8;stroke-width:1;"/><polygon fill="#A6ADC8" points="226.05,495.99,235.2408,499.5297,231.0436,495.7371,234.8362,491.5399,226.05,495.99" style="stroke:#A6ADC8;stroke-width:1;"/></g><!--link n_default to default__aspect_default_--><g class="link" data-entity-1="ent0021" data-entity-2="ent0022" data-link-type="dependency" data-source-line="64" id="lnk40"><path d="M806.11,794.96 C844.48,801.3 899.0302,810.3222 951.7602,819.0322" fill="none" id="n_default-to-default__aspect_default_" style="stroke:#A6ADC8;stroke-width:1;"/><polygon fill="#A6ADC8" points="957.68,820.01,949.4522,814.5967,952.7468,819.1951,948.1484,822.4898,957.68,820.01" style="stroke:#A6ADC8;stroke-width:1;"/></g><!--link n_default to den__provides__define_user--><g class="link" data-entity-1="ent0021" data-entity-2="ent0026" data-link-type="dependency" data-source-line="65" id="lnk41"><path d="M806.21,792.04 C833.99,796.15 871.1,805.1 898.16,824.55 C936.9,852.39 916.42,890.46 958.16,913.55 C1127.76,1007.37 1204.45,962.27 1394.16,922.55 C1444.11,912.09 1492.4779,887.3221 1521.0979,871.0021" fill="none" id="n_default-to-den__provides__define_user" style="stroke:#A6ADC8;stroke-width:1;"/><polygon fill="#A6ADC8" points="1526.31,868.03,1516.5104,869.0134,1521.9665,870.5068,1520.4732,875.963,1526.31,868.03" style="stroke:#A6ADC8;stroke-width:1;"/></g><!--link n_default to den__provides__hostname--><g class="link" data-entity-1="ent0021" data-entity-2="ent0027" data-link-type="dependency" data-source-line="66" id="lnk42"><path d="M806.17,794.73 C833.08,800.07 869.15,809.38 898.16,824.55 C928.92,840.63 925.83,861.91 958.16,874.55 C1046.75,909.2 1151.4594,909.012 1225.1694,903.072" fill="none" id="n_default-to-den__provides__hostname" style="stroke:#A6ADC8;stroke-width:1;"/><polygon fill="#A6ADC8" points="1231.15,902.59,1221.8578,899.3259,1226.1662,902.9916,1222.5004,907.3,1231.15,902.59" style="stroke:#A6ADC8;stroke-width:1;"/></g><!--link n_default to den__provides__mutual_provider--><g class="link" data-entity-1="ent0021" data-entity-2="ent0028" data-link-type="dependency" data-source-line="67" id="lnk43"><path d="M806.09,794.63 C952.03,806.46 1466.0805,817.0271 1695.6705,814.0771" fill="none" id="n_default-to-den__provides__mutual_provider" style="stroke:#A6ADC8;stroke-width:1;"/><polygon fill="#A6ADC8" points="1701.67,814,1692.6194,810.116,1696.6704,814.0642,1692.7221,818.1153,1701.67,814" style="stroke:#A6ADC8;stroke-width:1;"/></g><!--link den__provides__mutual_provider to n_default--><g class="link" data-entity-1="ent0028" data-entity-2="ent0021" data-link-type="dependency" data-source-line="79" id="lnk55"><path d="M1701.67,797.09 C1472.08,785.79 958.024,777.0922 812.084,783.6122" fill="none" id="den__provides__mutual_provider-to-n_default" style="stroke:#A6ADC8;stroke-width:1;"/><polygon fill="#A6ADC8" points="806.09,783.88,815.2596,787.4743,811.085,783.6568,814.9025,779.4823,806.09,783.88" style="stroke:#A6ADC8;stroke-width:1;"/></g><!--link default__aspect_default_ to den__provides__define_user--><g class="link" data-entity-1="ent0022" data-entity-2="ent0026" data-link-type="dependency" data-source-line="68" id="lnk44"><path d="M1171.7,852.6 C1256,858.61 1366.83,862.8404 1447.68,862.7004" fill="none" id="default__aspect_default_-to-den__provides__define_user" style="stroke:#A6ADC8;stroke-width:1;"/><polygon fill="#A6ADC8" points="1453.68,862.69,1444.6731,858.7056,1448.68,862.6987,1444.6869,866.7056,1453.68,862.69" style="stroke:#A6ADC8;stroke-width:1;"/></g><!--link den__provides__define_user to default__aspect_default_--><g class="link" data-entity-1="ent0026" data-entity-2="ent0022" data-link-type="dependency" data-source-line="74" id="lnk50"><path d="M1470.98,842.81 C1390.27,835.93 1268.23,830.7612 1177.7,830.4412" fill="none" id="den__provides__define_user-to-default__aspect_default_" style="stroke:#A6ADC8;stroke-width:1;"/><polygon fill="#A6ADC8" points="1171.7,830.42,1180.6858,834.4518,1176.7,830.4377,1180.7141,826.4518,1171.7,830.42" style="stroke:#A6ADC8;stroke-width:1;"/></g><!--link default__aspect_default_ to den__provides__hostname--><g class="link" data-entity-1="ent0022" data-entity-2="ent0027" data-link-type="dependency" data-source-line="69" id="lnk45"><path d="M1108.33,857.28 C1142.02,867.72 1184.1537,878.0793 1225.0837,885.7893" fill="none" id="default__aspect_default_-to-den__provides__hostname" style="stroke:#A6ADC8;stroke-width:1;"/><polygon fill="#A6ADC8" points="1230.98,886.9,1222.876,881.3031,1226.0664,885.9744,1221.3951,889.1648,1230.98,886.9" style="stroke:#A6ADC8;stroke-width:1;"/></g><!--link den__provides__hostname to default__aspect_default_--><g class="link" data-entity-1="ent0027" data-entity-2="ent0022" data-link-type="dependency" data-source-line="77" id="lnk53"><path d="M1290.37,879.97 C1263.66,869.92 1221.9217,858.7739 1177.3817,849.4139" fill="none" id="den__provides__hostname-to-default__aspect_default_" style="stroke:#A6ADC8;stroke-width:1;"/><polygon fill="#A6ADC8" points="1171.51,848.18,1179.495,853.9454,1176.4031,849.2083,1181.1402,846.1164,1171.51,848.18" style="stroke:#A6ADC8;stroke-width:1;"/></g><!--link default__aspect_default_ to den__provides__mutual_provider--><g class="link" data-entity-1="ent0022" data-entity-2="ent0028" data-link-type="dependency" data-source-line="70" id="lnk46"><path d="M1171.48,842.79 C1318.03,841.9 1574.5484,831.6597 1713.6284,820.7397" fill="none" id="default__aspect_default_-to-den__provides__mutual_provider" style="stroke:#A6ADC8;stroke-width:1;"/><polygon fill="#A6ADC8" points="1719.61,820.27,1710.3245,816.9867,1714.6253,820.6614,1710.9507,824.9622,1719.61,820.27" style="stroke:#A6ADC8;stroke-width:1;"/></g><!--link den__provides__mutual_provider to default__aspect_default_--><g class="link" data-entity-1="ent0028" data-entity-2="ent0022" data-link-type="dependency" data-source-line="80" id="lnk56"><path d="M1701.82,802.34 C1559.12,803.38 1317.9835,812.915 1177.4635,823.365" fill="none" id="den__provides__mutual_provider-to-default__aspect_default_" style="stroke:#A6ADC8;stroke-width:1;"/><polygon fill="#A6ADC8" points="1171.48,823.81,1180.7519,827.1315,1176.4662,823.4392,1180.1586,819.1536,1171.48,823.81" style="stroke:#A6ADC8;stroke-width:1;"/></g><!--link demo_shell to demo_shell--><g class="link" data-entity-1="ent0005" data-entity-2="ent0005" data-link-type="dependency" data-source-line="71" id="lnk47"><path d="M719.64,396.09 C698.33,379.19 713.91,361.31 766.36,361.31 C818.81,361.31 839.0802,375.4607 817.7802,392.3607" fill="none" id="demo_shell-to-demo_shell" style="stroke:#A6ADC8;stroke-width:1;"/><polygon fill="#A6ADC8" points="813.08,396.09,822.6166,393.6295,816.9969,392.9822,817.6442,387.3625,813.08,396.09" style="stroke:#A6ADC8;stroke-width:1;"/></g><!--link demo_shell to home__self_provide_home_--><g class="link" data-entity-1="ent0005" data-entity-2="ent0016" data-link-type="dependency" data-source-line="72" id="lnk48"><path d="M714.09,416.71 C675.77,425.24 622.03,441.13 574.56,454.05 C534.44,464.97 493.2516,474.2886 464.3216,485.6986" fill="none" id="demo_shell-to-home__self_provide_home_" style="stroke:#A6ADC8;stroke-width:1;"/><polygon fill="#A6ADC8" points="458.74,487.9,468.5799,488.319,463.3913,486.0655,465.6448,480.8769,458.74,487.9" style="stroke:#A6ADC8;stroke-width:1;"/></g><!--link home__self_provide_home_ to demo_shell--><g class="link" data-entity-1="ent0016" data-entity-2="ent0005" data-link-type="dependency" data-source-line="110" id="lnk86"><path d="M537.01,498.86 C549.68,495.71 562.42,492.35 574.56,489.05 C633.69,472.96 697.1076,454.786 733.7776,437.766" fill="none" id="home__self_provide_home_-to-demo_shell" style="stroke:#A6ADC8;stroke-width:1;"/><polygon fill="#A6ADC8" points="739.22,435.24,729.3725,435.4008,734.6847,437.345,732.7405,442.6573,739.22,435.24" style="stroke:#A6ADC8;stroke-width:1;"/></g><!--link demo_shell to hyprland--><g class="link" data-entity-1="ent0005" data-entity-2="ent0017" data-link-type="dependency" data-source-line="73" id="lnk49"><path d="M818.65,428.36 C875.81,442.63 961.4087,463.9966 1014.9587,477.3666" fill="none" id="demo_shell-to-hyprland" style="stroke:#A6ADC8;stroke-width:1;"/><polygon fill="#A6ADC8" points="1020.78,478.82,1013.017,472.759,1015.9289,477.6088,1011.0791,480.5207,1020.78,478.82" style="stroke:#A6ADC8;stroke-width:1;"/></g><!--link den__provides__define_user to den__provides__default__aspect_default__den__provides--><g class="link" data-entity-1="ent0026" data-entity-2="ent0023" data-link-type="dependency" data-source-line="75" id="lnk51"><path d="M1642.5,852.01 C1731.86,848.62 1863.5243,843.6275 1977.3943,839.3075" fill="none" id="den__provides__define_user-to-den__provides__default__aspect_default__den__provides" style="stroke:#A6ADC8;stroke-width:1;"/><polygon fill="#A6ADC8" points="1983.39,839.08,1974.2448,835.4241,1978.3936,839.2696,1974.5481,843.4183,1983.39,839.08" style="stroke:#A6ADC8;stroke-width:1;"/></g><!--link den__provides__define_user to den__provides__mutual_provider--><g class="link" data-entity-1="ent0026" data-entity-2="ent0028" data-link-type="dependency" data-source-line="76" id="lnk52"><path d="M1618.89,842.81 C1657.06,835.84 1698.2977,828.3083 1736.4477,821.3383" fill="none" id="den__provides__define_user-to-den__provides__mutual_provider" style="stroke:#A6ADC8;stroke-width:1;"/><polygon fill="#A6ADC8" points="1742.35,820.26,1732.7776,817.9427,1737.4314,821.1586,1734.2154,825.8124,1742.35,820.26" style="stroke:#A6ADC8;stroke-width:1;"/></g><!--link den__provides__hostname to den__provides__define_user--><g class="link" data-entity-1="ent0027" data-entity-2="ent0026" data-link-type="dependency" data-source-line="78" id="lnk54"><path d="M1394.08,879.82 C1417.68,876.07 1437.564,872.9195 1461.154,869.1795" fill="none" id="den__provides__hostname-to-den__provides__define_user" style="stroke:#A6ADC8;stroke-width:1;"/><polygon fill="#A6ADC8" points="1467.08,868.24,1457.5647,865.6986,1462.1417,869.0229,1458.8174,873.5999,1467.08,868.24" style="stroke:#A6ADC8;stroke-width:1;"/></g><!--link den__provides__mutual_provider to den__provides__default__aspect_default__den__provides--><g class="link" data-entity-1="ent0028" data-entity-2="ent0023" data-link-type="dependency" data-source-line="81" id="lnk57"><path d="M1923.81,814.72 C1943.81,816.02 1959.2327,817.0293 1980.8427,818.4393" fill="none" id="den__provides__mutual_provider-to-den__provides__default__aspect_default__den__provides" style="stroke:#A6ADC8;stroke-width:1;"/><polygon fill="#A6ADC8" points="1986.83,818.83,1978.1095,814.2525,1981.8406,818.5045,1977.5887,822.2355,1986.83,818.83" style="stroke:#A6ADC8;stroke-width:1;"/></g><!--link den__provides__primary_user to demo_shell--><g class="link" data-entity-1="ent0019" data-entity-2="ent0005" data-link-type="dependency" data-source-line="82" id="lnk58"><path d="M521.6,381.27 C583.46,389.97 657.2685,400.3443 708.3885,407.5343" fill="none" id="den__provides__primary_user-to-demo_shell" style="stroke:#A6ADC8;stroke-width:1;"/><polygon fill="#A6ADC8" points="714.33,408.37,705.9748,403.1555,709.3787,407.6736,704.8606,411.0775,714.33,408.37" style="stroke:#A6ADC8;stroke-width:1;"/></g><!--link dev_tools to dev_tools--><g class="link" data-entity-1="ent0006" data-entity-2="ent0006" data-link-type="dependency" data-source-line="83" id="lnk59"><path d="M1275.91,498.09 C1259.1,481.19 1271.38,463.31 1312.76,463.31 C1354.14,463.31 1370.6513,476.936 1353.8413,493.836" fill="none" id="dev_tools-to-dev_tools" style="stroke:#A6ADC8;stroke-width:1;"/><polygon fill="#A6ADC8" points="1349.61,498.09,1358.7929,494.5299,1353.1361,494.545,1353.121,488.8882,1349.61,498.09" style="stroke:#A6ADC8;stroke-width:1;"/></g><!--link dev_tools to home__self_provide_home_--><g class="link" data-entity-1="ent0006" data-entity-2="ent0016" data-link-type="dependency" data-source-line="84" id="lnk60"><path d="M1264.67,505.99 C1237.43,505.82 1202.48,508.05 1171.36,509.05 C945.55,516.28 686.9192,504.7285 543.1992,502.3685" fill="none" id="dev_tools-to-home__self_provide_home_" style="stroke:#A6ADC8;stroke-width:1;"/><polygon fill="#A6ADC8" points="537.2,502.27,546.1331,506.4172,542.1993,502.3521,546.2645,498.4183,537.2,502.27" style="stroke:#A6ADC8;stroke-width:1;"/></g><!--link home__self_provide_home_ to dev_tools--><g class="link" data-entity-1="ent0016" data-entity-2="ent0006" data-link-type="dependency" data-source-line="111" id="lnk87"><path d="M537.2,525.95 C680.92,539.63 945.55,551.28 1171.36,544.05 C1202.48,543.05 1231.4988,541.7258 1258.7388,537.5658" fill="none" id="home__self_provide_home_-to-dev_tools" style="stroke:#A6ADC8;stroke-width:1;"/><polygon fill="#A6ADC8" points="1264.67,536.66,1255.1693,534.0645,1259.7273,537.4148,1256.377,541.9729,1264.67,536.66" style="stroke:#A6ADC8;stroke-width:1;"/></g><!--link home to alice--><g class="link" data-entity-1="ent0007" data-entity-2="ent0002" data-link-type="dependency" data-source-line="85" id="lnk61"><path d="M132.28,653.91 C102.4,628.39 53.67,580.69 34.16,527.05 C14.64,473.38 6,319.73 34.16,270.05 C53.58,235.79 90.364,217.7538 119.874,207.4738" fill="none" id="home-to-alice" style="stroke:#A6ADC8;stroke-width:1;"/><polygon fill="#A6ADC8" points="125.54,205.5,115.7251,204.6833,120.8183,207.1448,118.3568,212.2381,125.54,205.5" style="stroke:#A6ADC8;stroke-width:1;"/></g><!--link home to n_default--><g class="link" data-entity-1="ent0007" data-entity-2="ent0021" data-link-type="dependency" data-source-line="86" id="lnk62"><path d="M184.16,682.14 C209.82,690.32 250.16,702.53 285.76,710.55 C447.89,747.06 638.5466,772.8237 720.5566,783.1037" fill="none" id="home-to-n_default" style="stroke:#A6ADC8;stroke-width:1;"/><polygon fill="#A6ADC8" points="726.51,783.85,718.0774,778.7617,721.5488,783.2281,717.0824,786.6995,726.51,783.85" style="stroke:#A6ADC8;stroke-width:1;"/></g><!--link home to default__cross_provide_home_--><g class="link" data-entity-1="ent0007" data-entity-2="ent0024" data-link-type="dependency" data-source-line="87" id="lnk63"><path d="M177.31,692.92 C200.83,715.28 242.75,751.42 285.76,770.55 C400.37,821.51 536.7892,843.3685 636.5292,853.2485" fill="none" id="home-to-default__cross_provide_home_" style="stroke:#A6ADC8;stroke-width:1;"/><polygon fill="#A6ADC8" points="642.5,853.84,633.9381,848.9723,637.5244,853.3471,633.1495,856.9333,642.5,853.84" style="stroke:#A6ADC8;stroke-width:1;"/></g><!--link home to default__self_provide_default_--><g class="link" data-entity-1="ent0007" data-entity-2="ent0025" data-link-type="dependency" data-source-line="88" id="lnk64"><path d="M165.78,693.04 C181.97,730.69 223,813.2 285.76,852.55 C390.43,918.18 526.0324,935.4115 628.2124,938.2815" fill="none" id="home-to-default__self_provide_default_" style="stroke:#A6ADC8;stroke-width:1;"/><polygon fill="#A6ADC8" points="634.21,938.45,625.3259,934.1989,629.212,938.3096,625.1012,942.1957,634.21,938.45" style="stroke:#A6ADC8;stroke-width:1;"/></g><!--link home to home--><g class="link" data-entity-1="ent0007" data-entity-2="ent0007" data-link-type="dependency" data-source-line="89" id="lnk65"><path d="M129.67,663.83 C90.37,644.93 99.47,619.31 156.96,619.31 C214.46,619.31 228.9572,642.3296 189.6572,661.2296" fill="none" id="home-to-home" style="stroke:#A6ADC8;stroke-width:1;"/><polygon fill="#A6ADC8" points="184.25,663.83,194.0944,663.5342,188.756,661.663,190.6272,656.3246,184.25,663.83" style="stroke:#A6ADC8;stroke-width:1;"/></g><!--link home to home__aspect_home_--><g class="link" data-entity-1="ent0007" data-entity-2="ent0014" data-link-type="dependency" data-source-line="90" id="lnk66"><path d="M183.83,679.07 C209.59,675.58 250.31,663.63 285.76,654.05 C325.9,643.2 367.0907,633.877 396.0107,622.437" fill="none" id="home-to-home__aspect_home_" style="stroke:#A6ADC8;stroke-width:1;"/><polygon fill="#A6ADC8" points="401.59,620.23,391.7496,619.821,396.9406,622.0692,394.6924,627.2601,401.59,620.23" style="stroke:#A6ADC8;stroke-width:1;"/></g><!--link home__aspect_home_ to home--><g class="link" data-entity-1="ent0014" data-entity-2="ent0007" data-link-type="dependency" data-source-line="106" id="lnk82"><path d="M348.64,603.3 C328.1,607.89 306.08,613.56 285.76,619.05 C248.75,629.05 211.3959,639.0162 185.9159,651.4062" fill="none" id="home__aspect_home_-to-home" style="stroke:#A6ADC8;stroke-width:1;"/><polygon fill="#A6ADC8" points="180.52,654.03,190.363,653.6915,185.0166,651.8435,186.8646,646.497,180.52,654.03" style="stroke:#A6ADC8;stroke-width:1;"/></g><!--link home to home__cross_provide__anon__--><g class="link" data-entity-1="ent0007" data-entity-2="ent0015" data-link-type="dependency" data-source-line="91" id="lnk67"><path d="M183.97,673.55 C208.16,673.55 240.26,673.55 279.28,673.55" fill="none" id="home-to-home__cross_provide__anon__" style="stroke:#A6ADC8;stroke-width:1;"/><polygon fill="#A6ADC8" points="285.28,673.55,276.28,669.55,280.28,673.55,276.28,677.55,285.28,673.55" style="stroke:#A6ADC8;stroke-width:1;"/></g><!--link home_bat to home_dev--><g class="link" data-entity-1="ent0008" data-entity-2="ent0009" data-link-type="dependency" data-source-line="92" id="lnk68"><path d="M1268.86,333.65 C1167.04,322.76 917.715,314.074 816.075,318.244" fill="none" id="home_bat-to-home_dev" style="stroke:#A6ADC8;stroke-width:1;"/><polygon fill="#A6ADC8" points="810.08,318.49,819.2364,322.1177,815.0758,318.285,818.9085,314.1244,810.08,318.49" style="stroke:#A6ADC8;stroke-width:1;"/></g><!--link home_dev to home_bat--><g class="link" data-entity-1="ent0009" data-entity-2="ent0008" data-link-type="dependency" data-source-line="94" id="lnk70"><path d="M810.08,333.43 C911.72,344.33 1161.045,353.0143 1262.865,348.8643" fill="none" id="home_dev-to-home_bat" style="stroke:#A6ADC8;stroke-width:1;"/><polygon fill="#A6ADC8" points="1268.86,348.62,1259.7046,344.9898,1263.8641,348.8236,1260.0304,352.9832,1268.86,348.62" style="stroke:#A6ADC8;stroke-width:1;"/></g><!--link home_bat to home__self_provide_home_--><g class="link" data-entity-1="ent0008" data-entity-2="ent0016" data-link-type="dependency" data-source-line="93" id="lnk69"><path d="M1268.89,353.16 C1202.24,369.78 1069.79,403.29 958.16,434.55 C931.35,442.06 925.42,446.9 898.16,452.55 C863.71,459.69 669.8842,481.496 543.0342,495.406" fill="none" id="home_bat-to-home__self_provide_home_" style="stroke:#A6ADC8;stroke-width:1;"/><polygon fill="#A6ADC8" points="537.07,496.06,546.4524,499.0551,542.0402,495.515,545.5804,491.1028,537.07,496.06" style="stroke:#A6ADC8;stroke-width:1;"/></g><!--link home_dev to home_git--><g class="link" data-entity-1="ent0009" data-entity-2="ent0011" data-link-type="dependency" data-source-line="95" id="lnk71"><path d="M810.46,319.17 C866.81,312.13 958.9961,300.6224 1015.1361,293.6224" fill="none" id="home_dev-to-home_git" style="stroke:#A6ADC8;stroke-width:1;"/><polygon fill="#A6ADC8" points="1021.09,292.88,1011.6642,290.0243,1016.1284,293.4987,1012.6541,297.9628,1021.09,292.88" style="stroke:#A6ADC8;stroke-width:1;"/></g><!--link home_dev to home__self_provide_home_--><g class="link" data-entity-1="ent0009" data-entity-2="ent0016" data-link-type="dependency" data-source-line="96" id="lnk72"><path d="M722.36,309.52 C688,307.66 640.74,315.34 610.56,343.05 C572.36,378.13 612.45,418.64 574.56,454.05 C554.68,472.63 532.534,480.6746 506.544,486.5146" fill="none" id="home_dev-to-home__self_provide_home_" style="stroke:#A6ADC8;stroke-width:1;"/><polygon fill="#A6ADC8" points="500.69,487.83,510.348,489.7596,505.5684,486.7338,508.5941,481.9542,500.69,487.83" style="stroke:#A6ADC8;stroke-width:1;"/></g><!--link home__self_provide_home_ to home_dev--><g class="link" data-entity-1="ent0016" data-entity-2="ent0009" data-link-type="dependency" data-source-line="112" id="lnk88"><path d="M537.02,511.53 C550.83,506.37 563.87,499.04 574.56,489.05 C612.45,453.64 572.36,413.13 610.56,378.05 C640.74,350.34 682.0618,343.5189 716.4218,338.5489" fill="none" id="home__self_provide_home_-to-home_dev" style="stroke:#A6ADC8;stroke-width:1;"/><polygon fill="#A6ADC8" points="722.36,337.69,712.8801,335.0196,717.4115,338.4058,714.0253,342.9372,722.36,337.69" style="stroke:#A6ADC8;stroke-width:1;"/></g><!--link home_firefox to home_slack--><g class="link" data-entity-1="ent0010" data-entity-2="ent0013" data-link-type="dependency" data-source-line="97" id="lnk73"><path d="M1125.62,660.17 C1166.87,650.94 1215.2445,640.1288 1254.5245,631.3488" fill="none" id="home_firefox-to-home_slack" style="stroke:#A6ADC8;stroke-width:1;"/><polygon fill="#A6ADC8" points="1260.38,630.04,1250.7242,628.0996,1255.5004,631.1307,1252.4693,635.9069,1260.38,630.04" style="stroke:#A6ADC8;stroke-width:1;"/></g><!--link home_firefox to home__self_provide_home_--><g class="link" data-entity-1="ent0010" data-entity-2="ent0016" data-link-type="dependency" data-source-line="98" id="lnk74"><path d="M1005.71,693.26 C912.61,720.94 728.41,758.98 610.56,673.55 C568.91,643.36 609.9,600.93 574.56,563.55 C559.04,547.14 543.7332,537.6572 522.6932,529.3772" fill="none" id="home_firefox-to-home__self_provide_home_" style="stroke:#A6ADC8;stroke-width:1;"/><polygon fill="#A6ADC8" points="517.11,527.18,524.02,534.1979,521.7627,529.011,526.9496,526.7537,517.11,527.18" style="stroke:#A6ADC8;stroke-width:1;"/></g><!--link home_git to home_bat--><g class="link" data-entity-1="ent0011" data-entity-2="ent0008" data-link-type="dependency" data-source-line="99" id="lnk75"><path d="M1108.61,297.13 C1153.62,307.19 1218.1446,321.6207 1263.1346,331.6807" fill="none" id="home_git-to-home_bat" style="stroke:#A6ADC8;stroke-width:1;"/><polygon fill="#A6ADC8" points="1268.99,332.99,1261.0798,327.1225,1264.1105,331.8989,1259.334,334.9297,1268.99,332.99" style="stroke:#A6ADC8;stroke-width:1;"/></g><!--link home_git to home__self_provide_home_--><g class="link" data-entity-1="ent0011" data-entity-2="ent0016" data-link-type="dependency" data-source-line="100" id="lnk76"><path d="M1020.7,271.51 C932.54,241.74 729.77,189.41 610.56,287.55 C546.23,340.51 631.91,411.09 574.56,471.55 C564.23,482.44 556.7123,488.0404 542.6523,493.5804" fill="none" id="home_git-to-home__self_provide_home_" style="stroke:#A6ADC8;stroke-width:1;"/><polygon fill="#A6ADC8" points="537.07,495.78,546.9098,496.2022,541.7219,493.947,543.9771,488.7591,537.07,495.78" style="stroke:#A6ADC8;stroke-width:1;"/></g><!--link home_productivity to home_firefox--><g class="link" data-entity-1="ent0012" data-entity-2="ent0010" data-link-type="dependency" data-source-line="101" id="lnk77"><path d="M847.96,646.61 C897.16,652.75 953.0562,659.7268 997.9162,665.3268" fill="none" id="home_productivity-to-home_firefox" style="stroke:#A6ADC8;stroke-width:1;"/><polygon fill="#A6ADC8" points="1003.87,666.07,995.4348,660.986,998.9085,665.4506,994.4438,668.9244,1003.87,666.07" style="stroke:#A6ADC8;stroke-width:1;"/></g><!--link home_productivity to home_slack--><g class="link" data-entity-1="ent0012" data-entity-2="ent0013" data-link-type="dependency" data-source-line="102" id="lnk78"><path d="M847.98,643.53 C961.64,644.89 1159.7087,638.1957 1254.6287,628.8857" fill="none" id="home_productivity-to-home_slack" style="stroke:#A6ADC8;stroke-width:1;"/><polygon fill="#A6ADC8" points="1260.6,628.3,1251.2525,625.1976,1255.6239,628.7881,1252.0334,633.1594,1260.6,628.3" style="stroke:#A6ADC8;stroke-width:1;"/></g><!--link home_slack to home_productivity--><g class="link" data-entity-1="ent0013" data-entity-2="ent0012" data-link-type="dependency" data-source-line="104" id="lnk80"><path d="M1260.6,612.18 C1165.68,609.15 967.6218,614.8927 853.9618,623.7727" fill="none" id="home_slack-to-home_productivity" style="stroke:#A6ADC8;stroke-width:1;"/><polygon fill="#A6ADC8" points="847.98,624.24,857.2642,627.5268,852.9648,623.8505,856.6411,619.5511,847.98,624.24" style="stroke:#A6ADC8;stroke-width:1;"/></g><!--link home_productivity to home__self_provide_home_--><g class="link" data-entity-1="ent0012" data-entity-2="ent0016" data-link-type="dependency" data-source-line="103" id="lnk79"><path d="M732.07,616.86 C699.82,605.82 650.13,592.96 610.56,573.05 C592.69,564.06 592.04,555.78 574.56,546.05 C562.3,539.23 554.5589,535.204 541.2189,529.514" fill="none" id="home_productivity-to-home__self_provide_home_" style="stroke:#A6ADC8;stroke-width:1;"/><polygon fill="#A6ADC8" points="535.7,527.16,542.409,534.3703,540.2991,529.1217,545.5477,527.0118,535.7,527.16" style="stroke:#A6ADC8;stroke-width:1;"/></g><!--link home__self_provide_home_ to home_productivity--><g class="link" data-entity-1="ent0016" data-entity-2="ent0012" data-link-type="dependency" data-source-line="113" id="lnk89"><path d="M455.66,527.28 C484.95,541.61 534.98,559.02 574.56,581.05 C592.04,590.78 592.69,599.06 610.56,608.05 C633.6,619.64 654.2544,627.3741 678.7244,633.5841" fill="none" id="home__self_provide_home_-to-home_productivity" style="stroke:#A6ADC8;stroke-width:1;"/><polygon fill="#A6ADC8" points="684.54,635.06,676.8005,628.9691,679.6936,633.8301,674.8326,636.7233,684.54,635.06" style="stroke:#A6ADC8;stroke-width:1;"/></g><!--link home_slack to home__self_provide_home_--><g class="link" data-entity-1="ent0013" data-entity-2="ent0016" data-link-type="dependency" data-source-line="105" id="lnk81"><path d="M1260.65,613.16 C1144.8,600.79 853.46,568.87 610.56,535.55 C586.67,532.27 566.9696,529.3664 542.7696,525.6264" fill="none" id="home_slack-to-home__self_provide_home_" style="stroke:#A6ADC8;stroke-width:1;"/><polygon fill="#A6ADC8" points="536.84,524.71,545.1235,530.0377,541.7813,525.4737,546.3453,522.1315,536.84,524.71" style="stroke:#A6ADC8;stroke-width:1;"/></g><!--link home__cross_provide__anon__ to n_default--><g class="link" data-entity-1="ent0015" data-entity-2="ent0021" data-link-type="dependency" data-source-line="107" id="lnk83"><path d="M488.23,693.19 C556.28,716.6 662.4765,753.1478 721.0965,773.3178" fill="none" id="home__cross_provide__anon__-to-n_default" style="stroke:#A6ADC8;stroke-width:1;"/><polygon fill="#A6ADC8" points="726.77,775.27,719.5611,768.5594,722.042,773.6432,716.9582,776.1241,726.77,775.27" style="stroke:#A6ADC8;stroke-width:1;"/></g><!--link home__self_provide_home_ to hyprland--><g class="link" data-entity-1="ent0016" data-entity-2="ent0017" data-link-type="dependency" data-source-line="114" id="lnk90"><path d="M537.04,514.63 C678.44,515.5 916.5292,508.1213 1014.8792,498.3813" fill="none" id="home__self_provide_home_-to-hyprland" style="stroke:#A6ADC8;stroke-width:1;"/><polygon fill="#A6ADC8" points="1020.85,497.79,1011.4996,494.6964,1015.8743,498.2828,1012.288,502.6575,1020.85,497.79" style="stroke:#A6ADC8;stroke-width:1;"/></g><!--link hyprland to home__self_provide_home_--><g class="link" data-entity-1="ent0017" data-entity-2="ent0016" data-link-type="dependency" data-source-line="116" id="lnk92"><path d="M1020.85,483.75 C922.5,479.61 684.4281,485.1527 543.0281,494.0627" fill="none" id="hyprland-to-home__self_provide_home_" style="stroke:#A6ADC8;stroke-width:1;"/><polygon fill="#A6ADC8" points="537.04,494.44,546.2737,497.8661,542.0301,494.1256,545.7706,489.8819,537.04,494.44" style="stroke:#A6ADC8;stroke-width:1;"/></g><!--link hyprland to dev_tools--><g class="link" data-entity-1="ent0017" data-entity-2="ent0006" data-link-type="dependency" data-source-line="115" id="lnk91"><path d="M1108.61,494.43 C1152.25,499.39 1213.7585,506.3914 1258.8285,511.5214" fill="none" id="hyprland-to-dev_tools" style="stroke:#A6ADC8;stroke-width:1;"/><polygon fill="#A6ADC8" points="1264.79,512.2,1256.3001,507.2078,1259.8221,511.6345,1255.3954,515.1565,1264.79,512.2" style="stroke:#A6ADC8;stroke-width:1;"/></g><!--link hyprland to hyprland--><g class="link" data-entity-1="ent0017" data-entity-2="ent0017" data-link-type="dependency" data-source-line="117" id="lnk93"><path d="M1025.93,470.09 C1008.22,453.19 1021.17,435.31 1064.76,435.31 C1108.35,435.31 1125.6307,449.0478 1107.9207,465.9478" fill="none" id="hyprland-to-hyprland" style="stroke:#A6ADC8;stroke-width:1;"/><polygon fill="#A6ADC8" points="1103.58,470.09,1112.8526,466.7705,1107.1973,466.6382,1107.3296,460.9828,1103.58,470.09" style="stroke:#A6ADC8;stroke-width:1;"/></g><!--link primary_user to demo_shell--><g class="link" data-entity-1="ent0018" data-entity-2="ent0005" data-link-type="dependency" data-source-line="118" id="lnk94"><path d="M490.91,431.15 C554.46,427.54 647.9496,422.2197 708.0796,418.8097" fill="none" id="primary_user-to-demo_shell" style="stroke:#A6ADC8;stroke-width:1;"/><polygon fill="#A6ADC8" points="714.07,418.47,704.858,414.986,709.078,418.7531,705.3109,422.9732,714.07,418.47" style="stroke:#A6ADC8;stroke-width:1;"/></g><?plantuml-src hPVTRjiW583l_HGeaQfMQfGbgT9qbNRHIjCqQTMq5x28mObLnqH0ibPJttqO0mOC99bs4vd3Ttw0m-6anYK7d01QRROSe8hYWbUaoTXhrUmXXJkmXiNhXf93Wvv9JIWOp_0Cpx5585p2Gys_aeOhf41eMTw5aHUums3q7VCd2gk6WH-a8RSxySFsiC0ZImbIIduhYt09KR7o9rCkVucLm6PJuoT_0OlPOduNHWb5cCPS6inoEzYCR_WDRaXpsga6aouLb7Bu32awxKrIILSjaVBpK_Y0cpDsKuEsjsLn_scr74Af0tmX_0nlaagwQecXdupgqmGZM5SYym1aG7w1yUfXVLV2RDy52KPRiklc6HVZl1s2Fna0leq98hoiQinwOxaMWN4vBr21N3M4TsJ2jhYkfKexpELG1Bg6o_BUnuyJJaZD57tCvKZONgpMSEN29cePRnIPh24tM2u6uKWbAZpsg1Wah9QYbfJahSUL8A6ogQn0n22y1nBTKu8EebGTA_xUwzZIX3AhnS7sMd8ON_GKihsGNBVVDxrMtebbCkHnPzE24iRQU8yLmjTNDN-43MckDlpHDYQfN572ja3ob5M6wz8OzIDh9uqj5Lzmqz_tj8ODwbJL8EnqJwiTfE-J0yDKuagGjm9BfH1LfAMbRpOTg24irgMdsw-0bO_-ugbtmxfxIk9VFnji33GkuNgnkW-Y-bZLy4Q59mVcSFMuhPTu0MV35KQiVHOBdMeejFAOfzpXBB-15RYfrMU1iULcbSw41po7PTYYarRXdN6IgzyVizF3_QaQ74s0RbgTVsoFjuJn1gfYvXdGS_48TWT-WBLULJ2A3j42QlRe8ykw5s4o-UALSskYBzgEKDLcIwQhfY-oovO_5xZCDg8khIMohvGJJ_JYPTv35LkiIqIZwwzVvpUSvmCibXPfK1z_clBEDujUynEXNA9d8hj4QHYewGUyJFDcegVXSpfX4lSmUMmdzVwXobreTBX9uOfmoJeyfKG690j7gsqoyHputFZ2klzXhvqNU91ZkhzqAvehZwQUR3jDCUc7_GOPKUh52b31DwZdsWztv7Ph_bom-SfCE-oKxg4qjdJP7njAg0IaeiaDIACMTGjjIDcwHkQYLjhEUXYN8utgEXssmPNl56956WQYBhlsFFnOXe2e8RTZTn8bre0FqpNONRj9daRwHpN9MjVm1ATlPH9pypT93JSuYkl7nFnty2AonV6pSIXjCb6N_W80?></g></svg>