<?xml version="1.0" encoding="UTF-8" standalone="no"?>
<!DOCTYPE svg PUBLIC "-//W3C//DTD SVG 1.1//EN"
 "http://www.w3.org/Graphics/SVG/1.1/DTD/svg11.dtd">
<!-- Generated by graphviz version 12.2.1 (0)
 -->
<!-- Pages: 1 -->
<svg width="2854pt" height="669pt"
 viewBox="0.00 0.00 2854.18 669.34" xmlns="http://www.w3.org/2000/svg" xmlns:xlink="http://www.w3.org/1999/xlink">
<g id="graph0" class="graph" transform="scale(1 1) rotate(0) translate(4 665.34)">
<polygon fill="#1e1e2e" stroke="none" points="-4,4 -4,-665.34 2850.18,-665.34 2850.18,4 -4,4"/>
<g id="clust1" class="cluster">
<title>cluster_ctx_home</title>
<polygon fill="#313244" stroke="#6c7086" stroke-dasharray="5,2" points="33.27,-201 33.27,-524 1239.03,-524 1239.03,-201 33.27,-201"/>
<text text-anchor="middle" x="636.15" y="-506.7" font-family="Times,serif" font-size="14.00" fill="#cdd6f4">home</text>
</g>
<g id="clust2" class="cluster">
<title>cluster_ctx_default</title>
<polygon fill="#313244" stroke="#6c7086" stroke-dasharray="5,2" points="558.48,-8 558.48,-193 2838.18,-193 2838.18,-8 558.48,-8"/>
<text text-anchor="middle" x="1698.33" y="-175.7" font-family="Times,serif" font-size="14.00" fill="#cdd6f4">default</text>
</g>
<!-- alice -->
<g id="node1" class="node">
<title>alice</title>
<path fill="#89b4fa" stroke="#89b4fa" d="M109.27,-568C109.27,-568 79.27,-568 79.27,-568 73.27,-568 67.27,-562 67.27,-556 67.27,-556 67.27,-544 67.27,-544 67.27,-538 73.27,-532 79.27,-532 79.27,-532 109.27,-532 109.27,-532 115.27,-532 121.27,-538 121.27,-544 121.27,-544 121.27,-556 121.27,-556 121.27,-562 115.27,-568 109.27,-568"/>
<text text-anchor="middle" x="94.27" y="-545.33" font-family="Times,serif" font-size="14.00" fill="#1e1e2e">alice</text>
</g>
<!-- alice_dotfiles -->
<g id="node2" class="node">
<title>alice_dotfiles</title>
<polygon fill="#f2cdcd" stroke="#f2cdcd" points="147.27,-353 41.27,-353 41.27,-317 147.27,-317 147.27,-353"/>
<text text-anchor="middle" x="94.27" y="-330.32" font-family="Times,serif" font-size="14.00" fill="#1e1e2e">alice&#45;dotfiles</text>
</g>
<!-- alice&#45;&gt;alice_dotfiles -->
<g id="edge1" class="edge">
<title>alice&#45;&gt;alice_dotfiles</title>
<path fill="none" stroke="#a6adc8" d="M94.27,-531.58C94.27,-476.04 94.27,-420.5 94.27,-364.96"/>
<polygon fill="#a6adc8" stroke="#a6adc8" points="97.77,-364.99 94.27,-354.99 90.77,-364.99 97.77,-364.99"/>
</g>
<!-- demo_shell -->
<g id="node3" class="node">
<title>demo_shell</title>
<polygon fill="#cba6f7" stroke="#cba6f7" points="721.23,-399 627.98,-399 627.98,-363 721.23,-363 721.23,-399"/>
<text text-anchor="middle" x="674.61" y="-376.32" font-family="Times,serif" font-size="14.00" fill="#1e1e2e">demo&#45;shell</text>
</g>
<!-- alice&#45;&gt;demo_shell -->
<g id="edge2" class="edge">
<title>alice&#45;&gt;demo_shell</title>
<path fill="none" stroke="#a6adc8" d="M121.7,-547.24C215.72,-537.41 528.45,-504.59 530.48,-503 559.14,-480.54 533.04,-452.05 558.48,-426 574.12,-409.99 596.11,-399.56 616.69,-392.81"/>
<polygon fill="#a6adc8" stroke="#a6adc8" points="617.59,-396.2 626.16,-389.96 615.57,-389.5 617.59,-396.2"/>
</g>
<!-- dev_tools -->
<g id="node4" class="node">
<title>dev_tools</title>
<polygon fill="#f38ba8" stroke="#f38ba8" points="1223.53,-348 1143.03,-348 1143.03,-312 1223.53,-312 1223.53,-348"/>
<text text-anchor="middle" x="1183.28" y="-325.32" font-family="Times,serif" font-size="14.00" fill="#1e1e2e">dev&#45;tools</text>
</g>
<!-- alice&#45;&gt;dev_tools -->
<g id="edge3" class="edge">
<title>alice&#45;&gt;dev_tools</title>
<path fill="none" stroke="#a6adc8" d="M121.58,-565.56C138.55,-574.66 161.45,-585.27 183.27,-590 538.77,-667 716.75,-732.21 996.73,-500 1030.21,-472.23 1003.7,-441.39 1032.73,-409 1059.41,-379.24 1099.99,-358.79 1132.15,-346.17"/>
<polygon fill="#a6adc8" stroke="#a6adc8" points="1133.17,-349.53 1141.29,-342.72 1130.7,-342.98 1133.17,-349.53"/>
</g>
<!-- home_dev -->
<g id="node7" class="node">
<title>home_dev</title>
<polygon fill="#f38ba8" stroke="#f38ba8" points="717.11,-471 632.11,-471 632.11,-435 717.11,-435 717.11,-471"/>
<text text-anchor="middle" x="674.61" y="-448.32" font-family="Times,serif" font-size="14.00" fill="#1e1e2e">home&#45;dev</text>
</g>
<!-- alice&#45;&gt;home_dev -->
<g id="edge4" class="edge">
<title>alice&#45;&gt;home_dev</title>
<path fill="none" stroke="#a6adc8" d="M121.75,-554.17C190.79,-564.03 381.3,-584.86 530.48,-541 573.23,-528.43 615.91,-499.54 643.4,-478.27"/>
<polygon fill="#a6adc8" stroke="#a6adc8" points="645.25,-481.27 650.92,-472.32 640.91,-475.78 645.25,-481.27"/>
</g>
<!-- home_productivity -->
<g id="node10" class="node">
<title>home_productivity</title>
<polygon fill="#cba6f7" stroke="#cba6f7" points="747.86,-265 601.36,-265 601.36,-229 747.86,-229 747.86,-265"/>
<text text-anchor="middle" x="674.61" y="-242.32" font-family="Times,serif" font-size="14.00" fill="#1e1e2e">home&#45;productivity</text>
</g>
<!-- alice&#45;&gt;home_productivity -->
<g id="edge5" class="edge">
<title>alice&#45;&gt;home_productivity</title>
<path fill="none" stroke="#a6adc8" d="M121.69,-540.06C130.04,-536.59 139.2,-532.45 147.27,-528 164.33,-518.6 164.98,-509.7 183.27,-503 256.05,-476.36 471.93,-520.78 530.48,-470 570.55,-435.25 531.7,-399.78 558.48,-354 577.94,-320.75 610.94,-291.64 636.64,-272.21"/>
<polygon fill="#a6adc8" stroke="#a6adc8" points="638.55,-275.15 644.52,-266.39 634.39,-269.51 638.55,-275.15"/>
</g>
<!-- home__self_provide_home_ -->
<g id="node14" class="node">
<title>home__self_provide_home_</title>
<polygon fill="#f38ba8" stroke="#f38ba8" points="453,-353 260.75,-353 260.75,-317 453,-317 453,-353"/>
<text text-anchor="middle" x="356.88" y="-330.32" font-family="Times,serif" font-size="14.00" fill="#1e1e2e">home/self&#45;provide(home)</text>
</g>
<!-- alice&#45;&gt;home__self_provide_home_ -->
<g id="edge6" class="edge">
<title>alice&#45;&gt;home__self_provide_home_</title>
<path fill="none" stroke="#a6adc8" d="M121.62,-552.64C130.96,-549.95 140.76,-544.85 147.27,-537 195.44,-478.88 128.35,-422.8 183.27,-371 201.16,-354.13 225.03,-345.23 249.3,-340.67"/>
<polygon fill="#a6adc8" stroke="#a6adc8" points="249.66,-344.16 258.97,-339.11 248.54,-337.25 249.66,-344.16"/>
</g>
<!-- hyprland -->
<g id="node15" class="node">
<title>hyprland</title>
<polygon fill="#cba6f7" stroke="#cba6f7" points="947.61,-359 867.86,-359 867.86,-323 947.61,-323 947.61,-359"/>
<text text-anchor="middle" x="907.73" y="-336.32" font-family="Times,serif" font-size="14.00" fill="#1e1e2e">hyprland</text>
</g>
<!-- alice&#45;&gt;hyprland -->
<g id="edge7" class="edge">
<title>alice&#45;&gt;hyprland</title>
<path fill="none" stroke="#a6adc8" d="M121.63,-556.84C139,-560.99 162.32,-565.88 183.27,-568 336.8,-583.54 378.33,-593.78 530.48,-568 647.55,-548.17 684.01,-545.96 782.73,-480 794.87,-471.89 851.55,-406.1 883.92,-368.01"/>
<polygon fill="#a6adc8" stroke="#a6adc8" points="886.42,-370.47 890.22,-360.58 881.08,-365.94 886.42,-370.47"/>
</g>
<!-- primary_user -->
<g id="node16" class="node">
<title>primary_user</title>
<polygon fill="#cba6f7" stroke="#cba6f7" points="411.38,-407 302.38,-407 302.38,-371 411.38,-371 411.38,-407"/>
<text text-anchor="middle" x="356.88" y="-384.32" font-family="Times,serif" font-size="14.00" fill="#1e1e2e">primary&#45;user</text>
</g>
<!-- alice&#45;&gt;primary_user -->
<g id="edge8" class="edge">
<title>alice&#45;&gt;primary_user</title>
<path fill="none" stroke="#a6adc8" d="M121.76,-543.7C130.9,-540.37 140.52,-535.38 147.27,-528 182.55,-489.42 143.53,-449.98 183.27,-416 212.49,-391.01 255.11,-384.15 290.68,-383.59"/>
<polygon fill="#a6adc8" stroke="#a6adc8" points="290.43,-387.09 300.44,-383.61 290.45,-380.09 290.43,-387.09"/>
</g>
<!-- den__provides__primary_user -->
<g id="node17" class="node">
<title>den__provides__primary_user</title>
<polygon fill="#cba6f7" stroke="#cba6f7" points="458.27,-461 255.49,-461 183.27,-425 530.48,-425 458.27,-461"/>
<text text-anchor="middle" x="356.88" y="-438.32" font-family="Times,serif" font-size="14.00" fill="#1e1e2e">provides/primary&#45;user</text>
</g>
<!-- alice&#45;&gt;den__provides__primary_user -->
<g id="edge9" class="edge">
<title>alice&#45;&gt;den__provides__primary_user</title>
<path fill="none" stroke="#a6adc8" d="M121.76,-542.17C130.48,-538.75 139.84,-534.09 147.27,-528 169.28,-509.94 159.43,-490.57 183.27,-475 196.2,-466.55 210.78,-460.19 225.85,-455.43"/>
<polygon fill="#a6adc8" stroke="#a6adc8" points="226.81,-458.79 235.44,-452.65 224.86,-452.07 226.81,-458.79"/>
</g>
<!-- alice_dotfiles&#45;&gt;alice_dotfiles -->
<g id="edge10" class="edge">
<title>alice_dotfiles&#45;&gt;alice_dotfiles</title>
<path fill="none" stroke="#a6adc8" d="M46.76,-353.15C39.45,-362.54 55.29,-371 94.27,-371 116.5,-371 131.2,-368.25 138.38,-364.14"/>
<polygon fill="#a6adc8" stroke="#a6adc8" points="141.72,-365.19 141.33,-354.6 135.03,-363.12 141.72,-365.19"/>
</g>
<!-- alice_dotfiles&#45;&gt;home__self_provide_home_ -->
<g id="edge11" class="edge">
<title>alice_dotfiles&#45;&gt;home__self_provide_home_</title>
<path fill="none" stroke="#a6adc8" d="M147.69,-329.46C176.8,-328.42 214.09,-328.05 249.05,-328.35"/>
<polygon fill="#a6adc8" stroke="#a6adc8" points="248.75,-331.85 258.79,-328.45 248.83,-324.85 248.75,-331.85"/>
</g>
<!-- demo_shell&#45;&gt;demo_shell -->
<g id="edge19" class="edge">
<title>demo_shell&#45;&gt;demo_shell</title>
<path fill="none" stroke="#a6adc8" d="M632.43,-399.15C625.95,-408.54 640,-417 674.61,-417 694.61,-417 707.75,-414.17 714.02,-409.97"/>
<polygon fill="#a6adc8" stroke="#a6adc8" points="717.33,-411.17 716.41,-400.62 710.55,-409.44 717.33,-411.17"/>
</g>
<!-- demo_shell&#45;&gt;home__self_provide_home_ -->
<g id="edge20" class="edge">
<title>demo_shell&#45;&gt;home__self_provide_home_</title>
<path fill="none" stroke="#a6adc8" d="M627.52,-379.22C582.24,-374.45 511.77,-364.63 454.23,-355.31"/>
<polygon fill="#a6adc8" stroke="#a6adc8" points="454.83,-351.86 444.4,-353.7 453.7,-358.77 454.83,-351.86"/>
</g>
<!-- demo_shell&#45;&gt;hyprland -->
<g id="edge21" class="edge">
<title>demo_shell&#45;&gt;hyprland</title>
<path fill="none" stroke="#a6adc8" d="M721.55,-373.05C760.45,-366.32 816.14,-356.68 856.28,-349.73"/>
<polygon fill="#a6adc8" stroke="#a6adc8" points="856.67,-353.22 865.93,-348.06 855.48,-346.32 856.67,-353.22"/>
</g>
<!-- dev_tools&#45;&gt;dev_tools -->
<g id="edge31" class="edge">
<title>dev_tools&#45;&gt;dev_tools</title>
<path fill="none" stroke="#a6adc8" d="M1142.59,-341.61C1119.4,-353.19 1132.96,-366 1183.28,-366 1224.16,-366 1240.78,-357.55 1233.13,-348.16"/>
<polygon fill="#a6adc8" stroke="#a6adc8" points="1235.37,-345.46 1225.2,-342.49 1231.3,-351.15 1235.37,-345.46"/>
</g>
<!-- dev_tools&#45;&gt;home__self_provide_home_ -->
<g id="edge32" class="edge">
<title>dev_tools&#45;&gt;home__self_provide_home_</title>
<path fill="none" stroke="#a6adc8" d="M1142.53,-332.54C1105,-330.64 1047.12,-325.17 996.73,-323 809.61,-314.95 591.53,-326.64 464.65,-332.96"/>
<polygon fill="#a6adc8" stroke="#a6adc8" points="464.74,-329.46 454.93,-333.45 465.09,-336.45 464.74,-329.46"/>
</g>
<!-- home -->
<g id="node5" class="node">
<title>home</title>
<polygon fill="#f38ba8" stroke="#f38ba8" points="121.77,-245 66.77,-245 66.77,-209 121.77,-209 121.77,-245"/>
<text text-anchor="middle" x="94.27" y="-222.32" font-family="Times,serif" font-size="14.00" fill="#1e1e2e">home</text>
</g>
<!-- home&#45;&gt;alice -->
<g id="edge33" class="edge">
<title>home&#45;&gt;alice</title>
<path fill="none" stroke="#a6adc8" d="M70.89,-245.17C51.83,-261.59 26.33,-287.62 15.27,-317 -0.55,-359.01 -8.33,-480.82 15.27,-519 24,-533.12 40.34,-540.82 55.91,-545.01"/>
<polygon fill="#a6adc8" stroke="#a6adc8" points="54.99,-548.39 65.51,-547.15 56.51,-541.56 54.99,-548.39"/>
</g>
<!-- home&#45;&gt;home -->
<g id="edge37" class="edge">
<title>home&#45;&gt;home</title>
<path fill="none" stroke="#a6adc8" d="M66.49,-233.98C30.51,-246.46 39.77,-263 94.27,-263 142.59,-263 155.35,-250 132.53,-238.35"/>
<polygon fill="#a6adc8" stroke="#a6adc8" points="134.02,-235.18 123.45,-234.56 131.33,-241.64 134.02,-235.18"/>
</g>
<!-- home__aspect_home_ -->
<g id="node12" class="node">
<title>home__aspect_home_</title>
<polygon fill="#cba6f7" stroke="#cba6f7" points="434.63,-299 279.13,-299 279.13,-263 434.63,-263 434.63,-299"/>
<text text-anchor="middle" x="356.88" y="-276.32" font-family="Times,serif" font-size="14.00" fill="#1e1e2e">home/aspect(home)</text>
</g>
<!-- home&#45;&gt;home__aspect_home_ -->
<g id="edge38" class="edge">
<title>home&#45;&gt;home__aspect_home_</title>
<path fill="none" stroke="#a6adc8" d="M121.96,-228.57C139.27,-233.02 162.4,-240.19 183.27,-245 210.55,-251.28 240.59,-256.55 267.86,-261.13"/>
<polygon fill="#a6adc8" stroke="#a6adc8" points="267.02,-264.54 277.46,-262.73 268.18,-257.63 267.02,-264.54"/>
</g>
<!-- home__cross_provide__anon__ -->
<g id="node13" class="node">
<title>home__cross_provide__anon__</title>
<polygon fill="#cba6f7" stroke="#cba6f7" points="469.13,-245 244.63,-245 244.63,-209 469.13,-209 469.13,-245"/>
<text text-anchor="middle" x="356.88" y="-222.32" font-family="Times,serif" font-size="14.00" fill="#1e1e2e">home/cross&#45;provide(&lt;anon&gt;)</text>
</g>
<!-- home&#45;&gt;home__cross_provide__anon__ -->
<g id="edge39" class="edge">
<title>home&#45;&gt;home__cross_provide__anon__</title>
<path fill="none" stroke="#a6adc8" d="M122.18,-227C148.74,-227 191.31,-227 232.88,-227"/>
<polygon fill="#a6adc8" stroke="#a6adc8" points="232.76,-230.5 242.76,-227 232.76,-223.5 232.76,-230.5"/>
</g>
<!-- n_default -->
<g id="node18" class="node">
<title>n_default</title>
<polygon fill="#fab387" stroke="#fab387" points="707.73,-160 641.48,-160 641.48,-124 707.73,-124 707.73,-160"/>
<text text-anchor="middle" x="674.61" y="-137.32" font-family="Times,serif" font-size="14.00" fill="#1e1e2e">default</text>
</g>
<!-- home&#45;&gt;n_default -->
<g id="edge34" class="edge">
<title>home&#45;&gt;n_default</title>
<path fill="none" stroke="#a6adc8" d="M121.9,-217.46C139.19,-211.61 162.32,-204.42 183.27,-200 345.89,-165.73 543.44,-150.1 629.73,-144.53"/>
<polygon fill="#a6adc8" stroke="#a6adc8" points="629.88,-148.03 639.64,-143.91 629.44,-141.04 629.88,-148.03"/>
</g>
<!-- default__cross_provide_home_ -->
<g id="node21" class="node">
<title>default__cross_provide_home_</title>
<polygon fill="#f9e2af" stroke="#f9e2af" points="782.73,-106 566.48,-106 566.48,-70 782.73,-70 782.73,-106"/>
<text text-anchor="middle" x="674.61" y="-83.33" font-family="Times,serif" font-size="14.00" fill="#1e1e2e">default/cross&#45;provide(home)</text>
</g>
<!-- home&#45;&gt;default__cross_provide_home_ -->
<g id="edge35" class="edge">
<title>home&#45;&gt;default__cross_provide_home_</title>
<path fill="none" stroke="#a6adc8" d="M109.96,-208.68C125.9,-190.24 153.13,-162.62 183.27,-149 301.94,-95.36 452.3,-83.89 555.03,-83.43"/>
<polygon fill="#a6adc8" stroke="#a6adc8" points="554.86,-86.93 564.86,-83.43 554.86,-79.93 554.86,-86.93"/>
</g>
<!-- default__self_provide_default_ -->
<g id="node22" class="node">
<title>default__self_provide_default_</title>
<polygon fill="#fab387" stroke="#fab387" points="781.98,-52 567.23,-52 567.23,-16 781.98,-16 781.98,-52"/>
<text text-anchor="middle" x="674.61" y="-29.32" font-family="Times,serif" font-size="14.00" fill="#1e1e2e">default/self&#45;provide(default)</text>
</g>
<!-- home&#45;&gt;default__self_provide_default_ -->
<g id="edge36" class="edge">
<title>home&#45;&gt;default__self_provide_default_</title>
<path fill="none" stroke="#a6adc8" d="M100.27,-208.74C110.14,-176.51 135.46,-110.14 183.27,-80 294.75,-9.72 449.74,-7.4 555.44,-16.67"/>
<polygon fill="#a6adc8" stroke="#a6adc8" points="555,-20.15 565.28,-17.59 555.65,-13.18 555,-20.15"/>
</g>
<!-- home_bat -->
<g id="node6" class="node">
<title>home_bat</title>
<polygon fill="#f2cdcd" stroke="#f2cdcd" points="1224.65,-454 1141.9,-454 1141.9,-418 1224.65,-418 1224.65,-454"/>
<text text-anchor="middle" x="1183.28" y="-431.32" font-family="Times,serif" font-size="14.00" fill="#1e1e2e">home&#45;bat</text>
</g>
<!-- home_bat&#45;&gt;home_dev -->
<g id="edge40" class="edge">
<title>home_bat&#45;&gt;home_dev</title>
<path fill="none" stroke="#a6adc8" d="M1141.65,-442.4C1074.45,-447.28 935.93,-450.52 818.73,-455 789.07,-456.13 755.96,-457.73 729.06,-458.2"/>
<polygon fill="#a6adc8" stroke="#a6adc8" points="729.03,-454.7 719.07,-458.32 729.11,-461.7 729.03,-454.7"/>
</g>
<!-- home_bat&#45;&gt;home__self_provide_home_ -->
<g id="edge41" class="edge">
<title>home_bat&#45;&gt;home__self_provide_home_</title>
<path fill="none" stroke="#a6adc8" d="M1141.42,-437.91C1071.82,-439.57 927.23,-435.98 818.73,-386 799.29,-377.04 802.57,-362.05 782.73,-354 768.19,-348.1 585.47,-341.65 464.44,-337.99"/>
<polygon fill="#a6adc8" stroke="#a6adc8" points="464.91,-334.5 454.81,-337.7 464.7,-341.5 464.91,-334.5"/>
</g>
<!-- home_dev&#45;&gt;home_bat -->
<g id="edge42" class="edge">
<title>home_dev&#45;&gt;home_bat</title>
<path fill="none" stroke="#a6adc8" d="M717.56,-443.09C746.08,-440.21 784.68,-438.3 818.73,-437 929.75,-432.76 1059.9,-429.62 1130.44,-431"/>
<polygon fill="#a6adc8" stroke="#a6adc8" points="1130.05,-434.49 1140.14,-431.24 1130.22,-427.49 1130.05,-434.49"/>
</g>
<!-- home_git -->
<g id="node9" class="node">
<title>home_git</title>
<polygon fill="#cba6f7" stroke="#cba6f7" points="947.23,-491 868.23,-491 868.23,-455 947.23,-455 947.23,-491"/>
<text text-anchor="middle" x="907.73" y="-468.32" font-family="Times,serif" font-size="14.00" fill="#1e1e2e">home&#45;git</text>
</g>
<!-- home_dev&#45;&gt;home_git -->
<g id="edge43" class="edge">
<title>home_dev&#45;&gt;home_git</title>
<path fill="none" stroke="#a6adc8" d="M717.46,-456.62C756.58,-460.01 815.05,-465.07 856.63,-468.66"/>
<polygon fill="#a6adc8" stroke="#a6adc8" points="856.11,-472.13 866.37,-469.51 856.71,-465.16 856.11,-472.13"/>
</g>
<!-- home_dev&#45;&gt;home__self_provide_home_ -->
<g id="edge44" class="edge">
<title>home_dev&#45;&gt;home__self_provide_home_</title>
<path fill="none" stroke="#a6adc8" d="M631.75,-460.02C607.91,-458.67 578.83,-451.95 558.48,-435 534.63,-415.13 555.07,-389.96 530.48,-371 511.61,-356.45 488.07,-348.29 464.5,-343.7"/>
<polygon fill="#a6adc8" stroke="#a6adc8" points="465.26,-340.28 454.81,-342.04 464.07,-347.18 465.26,-340.28"/>
</g>
<!-- home_firefox -->
<g id="node8" class="node">
<title>home_firefox</title>
<polygon fill="#f38ba8" stroke="#f38ba8" points="960.36,-245 855.11,-245 855.11,-209 960.36,-209 960.36,-245"/>
<text text-anchor="middle" x="907.73" y="-222.32" font-family="Times,serif" font-size="14.00" fill="#1e1e2e">home&#45;firefox</text>
</g>
<!-- home_slack -->
<g id="node11" class="node">
<title>home_slack</title>
<polygon fill="#f2cdcd" stroke="#f2cdcd" points="1231.03,-282 1135.53,-282 1135.53,-246 1231.03,-246 1231.03,-282"/>
<text text-anchor="middle" x="1183.28" y="-259.32" font-family="Times,serif" font-size="14.00" fill="#1e1e2e">home&#45;slack</text>
</g>
<!-- home_firefox&#45;&gt;home_slack -->
<g id="edge45" class="edge">
<title>home_firefox&#45;&gt;home_slack</title>
<path fill="none" stroke="#a6adc8" d="M960.83,-234.05C1007.47,-240.36 1075.77,-249.59 1124.16,-256.14"/>
<polygon fill="#a6adc8" stroke="#a6adc8" points="1123.52,-259.58 1133.89,-257.46 1124.45,-252.65 1123.52,-259.58"/>
</g>
<!-- home_firefox&#45;&gt;home__self_provide_home_ -->
<g id="edge46" class="edge">
<title>home_firefox&#45;&gt;home__self_provide_home_</title>
<path fill="none" stroke="#a6adc8" d="M854.76,-218.53C769.35,-205.8 604.19,-186.58 558.48,-220 525.35,-244.23 561.64,-281.28 530.48,-308 512.1,-323.77 488.39,-332.33 464.47,-336.64"/>
<polygon fill="#a6adc8" stroke="#a6adc8" points="463.95,-333.18 454.6,-338.15 465.01,-340.1 463.95,-333.18"/>
</g>
<!-- home_git&#45;&gt;home_bat -->
<g id="edge47" class="edge">
<title>home_git&#45;&gt;home_bat</title>
<path fill="none" stroke="#a6adc8" d="M947.64,-467.74C995.59,-461.25 1077.27,-450.2 1130.49,-443"/>
<polygon fill="#a6adc8" stroke="#a6adc8" points="1130.79,-446.5 1140.23,-441.69 1129.85,-439.56 1130.79,-446.5"/>
</g>
<!-- home_git&#45;&gt;home__self_provide_home_ -->
<g id="edge48" class="edge">
<title>home_git&#45;&gt;home__self_provide_home_</title>
<path fill="none" stroke="#a6adc8" d="M867.76,-488.17C797.57,-512.68 648.86,-551.44 558.48,-480 516.2,-446.57 570.05,-398.6 530.48,-362 512.43,-345.3 488.5,-336.47 464.22,-332.2"/>
<polygon fill="#a6adc8" stroke="#a6adc8" points="464.97,-328.77 454.56,-330.77 463.94,-335.7 464.97,-328.77"/>
</g>
<!-- home_productivity&#45;&gt;home_firefox -->
<g id="edge49" class="edge">
<title>home_productivity&#45;&gt;home_firefox</title>
<path fill="none" stroke="#a6adc8" d="M748.1,-240.73C778.61,-238.09 813.78,-235.04 843.25,-232.49"/>
<polygon fill="#a6adc8" stroke="#a6adc8" points="843.49,-235.99 853.15,-231.64 842.88,-229.01 843.49,-235.99"/>
</g>
<!-- home_productivity&#45;&gt;home_slack -->
<g id="edge50" class="edge">
<title>home_productivity&#45;&gt;home_slack</title>
<path fill="none" stroke="#a6adc8" d="M748.04,-242.27C770.67,-242.96 795.74,-244.12 818.73,-245 926.31,-249.11 1051.86,-252.18 1123.72,-256.43"/>
<polygon fill="#a6adc8" stroke="#a6adc8" points="1123.5,-259.93 1133.7,-257.06 1123.93,-252.94 1123.5,-259.93"/>
</g>
<!-- home_productivity&#45;&gt;home__self_provide_home_ -->
<g id="edge51" class="edge">
<title>home_productivity&#45;&gt;home__self_provide_home_</title>
<path fill="none" stroke="#a6adc8" d="M614.96,-265.46C596.06,-270.76 575.6,-277.81 558.48,-288 543.09,-297.17 546.38,-308.74 530.48,-317 510.24,-327.51 487,-334.18 464.27,-338.12"/>
<polygon fill="#a6adc8" stroke="#a6adc8" points="464,-334.62 454.66,-339.61 465.08,-341.54 464,-334.62"/>
</g>
<!-- home_slack&#45;&gt;home_productivity -->
<g id="edge52" class="edge">
<title>home_slack&#45;&gt;home_productivity</title>
<path fill="none" stroke="#a6adc8" d="M1135.21,-268.9C1065.89,-270.52 932.3,-267.34 818.73,-263 799.51,-262.27 778.84,-261.34 759.36,-260.15"/>
<polygon fill="#a6adc8" stroke="#a6adc8" points="759.75,-256.67 749.55,-259.52 759.3,-263.65 759.75,-256.67"/>
</g>
<!-- home_slack&#45;&gt;home__self_provide_home_ -->
<g id="edge53" class="edge">
<title>home_slack&#45;&gt;home__self_provide_home_</title>
<path fill="none" stroke="#a6adc8" d="M1135.24,-266.3C1031.13,-271.61 773.41,-285.98 558.48,-308 527.89,-311.13 494.78,-315.28 464.44,-319.38"/>
<polygon fill="#a6adc8" stroke="#a6adc8" points="464.33,-315.86 454.89,-320.68 465.27,-322.8 464.33,-315.86"/>
</g>
<!-- home__aspect_home_&#45;&gt;home -->
<g id="edge54" class="edge">
<title>home__aspect_home_&#45;&gt;home</title>
<path fill="none" stroke="#a6adc8" d="M278.95,-279.74C248.92,-275.98 214.3,-270.15 183.27,-263 166.48,-259.13 148.22,-253.73 132.71,-248.1"/>
<polygon fill="#a6adc8" stroke="#a6adc8" points="133.96,-244.84 123.37,-244.53 131.46,-251.37 133.96,-244.84"/>
</g>
<!-- home__cross_provide__anon__&#45;&gt;n_default -->
<g id="edge55" class="edge">
<title>home__cross_provide__anon__&#45;&gt;n_default</title>
<path fill="none" stroke="#a6adc8" d="M426.39,-208.56C488.4,-191.86 577.84,-167.78 630.42,-153.63"/>
<polygon fill="#a6adc8" stroke="#a6adc8" points="631.16,-157.05 639.91,-151.07 629.34,-150.29 631.16,-157.05"/>
</g>
<!-- home__self_provide_home_&#45;&gt;alice -->
<g id="edge56" class="edge">
<title>home__self_provide_home_&#45;&gt;alice</title>
<path fill="none" stroke="#a6adc8" d="M260.46,-321.74C232.48,-324.69 203.9,-333.54 183.27,-353 128.35,-404.8 195.44,-460.88 147.27,-519 143.1,-524.03 137.58,-527.93 131.69,-531.11"/>
<polygon fill="#a6adc8" stroke="#a6adc8" points="130.55,-527.78 122.99,-535.2 133.52,-534.12 130.55,-527.78"/>
</g>
<!-- home__self_provide_home_&#45;&gt;alice_dotfiles -->
<g id="edge57" class="edge">
<title>home__self_provide_home_&#45;&gt;alice_dotfiles</title>
<path fill="none" stroke="#a6adc8" d="M260.3,-341.53C226.57,-341.96 189.48,-341.75 159.02,-340.9"/>
<polygon fill="#a6adc8" stroke="#a6adc8" points="159.31,-337.4 149.21,-340.59 159.09,-344.4 159.31,-337.4"/>
</g>
<!-- home__self_provide_home_&#45;&gt;demo_shell -->
<g id="edge58" class="edge">
<title>home__self_provide_home_&#45;&gt;demo_shell</title>
<path fill="none" stroke="#a6adc8" d="M453.46,-342.67C506.67,-349.54 571.12,-359.23 616.49,-367.34"/>
<polygon fill="#a6adc8" stroke="#a6adc8" points="615.65,-370.74 626.11,-369.09 616.9,-363.86 615.65,-370.74"/>
</g>
<!-- home__self_provide_home_&#45;&gt;dev_tools -->
<g id="edge59" class="edge">
<title>home__self_provide_home_&#45;&gt;dev_tools</title>
<path fill="none" stroke="#a6adc8" d="M453.42,-321.16C578.34,-309.36 803.96,-296.7 996.73,-305 1042.4,-306.97 1094.21,-311.64 1131.46,-316.95"/>
<polygon fill="#a6adc8" stroke="#a6adc8" points="1130.62,-320.36 1141.03,-318.39 1131.66,-313.44 1130.62,-320.36"/>
</g>
<!-- home__self_provide_home_&#45;&gt;home_dev -->
<g id="edge60" class="edge">
<title>home__self_provide_home_&#45;&gt;home_dev</title>
<path fill="none" stroke="#a6adc8" d="M453.32,-324.59C480.5,-327.86 508.62,-336.15 530.48,-353 555.07,-371.96 534.63,-397.13 558.48,-417 575.73,-431.36 599.25,-438.38 620.54,-442.41"/>
<polygon fill="#a6adc8" stroke="#a6adc8" points="619.81,-445.84 630.25,-444.07 620.98,-438.94 619.81,-445.84"/>
</g>
<!-- home__self_provide_home_&#45;&gt;home_productivity -->
<g id="edge61" class="edge">
<title>home__self_provide_home_&#45;&gt;home_productivity</title>
<path fill="none" stroke="#a6adc8" d="M453.16,-322.57C479.31,-318.26 506.93,-311.23 530.48,-299 546.38,-290.74 543.09,-279.17 558.48,-270 568.28,-264.17 579.17,-259.37 590.24,-255.51"/>
<polygon fill="#a6adc8" stroke="#a6adc8" points="590.98,-258.95 599.43,-252.56 588.84,-252.28 590.98,-258.95"/>
</g>
<!-- home__self_provide_home_&#45;&gt;hyprland -->
<g id="edge62" class="edge">
<title>home__self_provide_home_&#45;&gt;hyprland</title>
<path fill="none" stroke="#a6adc8" d="M453.21,-328.66C539.32,-327.4 669.52,-328.55 782.73,-330 806.84,-330.31 833.59,-330.73 856.05,-331.86"/>
<polygon fill="#a6adc8" stroke="#a6adc8" points="855.67,-335.34 865.85,-332.43 856.07,-328.35 855.67,-335.34"/>
</g>
<!-- hyprland&#45;&gt;dev_tools -->
<g id="edge63" class="edge">
<title>hyprland&#45;&gt;dev_tools</title>
<path fill="none" stroke="#a6adc8" d="M947.93,-339.42C996.23,-337.48 1078.43,-334.18 1131.52,-332.04"/>
<polygon fill="#a6adc8" stroke="#a6adc8" points="1131.35,-335.55 1141.2,-331.65 1131.07,-328.56 1131.35,-335.55"/>
</g>
<!-- hyprland&#45;&gt;home__self_provide_home_ -->
<g id="edge64" class="edge">
<title>hyprland&#45;&gt;home__self_provide_home_</title>
<path fill="none" stroke="#a6adc8" d="M867.36,-348.08C842.99,-348.88 811.04,-348.36 782.73,-348 674.38,-346.62 550.48,-345.5 464.55,-343.11"/>
<polygon fill="#a6adc8" stroke="#a6adc8" points="464.83,-339.61 454.73,-342.82 464.62,-346.61 464.83,-339.61"/>
</g>
<!-- hyprland&#45;&gt;hyprland -->
<g id="edge65" class="edge">
<title>hyprland&#45;&gt;hyprland</title>
<path fill="none" stroke="#a6adc8" d="M867.48,-356.92C856.98,-367.15 870.4,-377 907.73,-377 930.49,-377 944.36,-373.34 949.34,-368.17"/>
<polygon fill="#a6adc8" stroke="#a6adc8" points="952.84,-367.93 948.17,-358.42 945.89,-368.77 952.84,-367.93"/>
</g>
<!-- primary_user&#45;&gt;demo_shell -->
<g id="edge66" class="edge">
<title>primary_user&#45;&gt;demo_shell</title>
<path fill="none" stroke="#a6adc8" d="M411.79,-387.63C468.76,-386.19 558.23,-383.92 616.41,-382.45"/>
<polygon fill="#a6adc8" stroke="#a6adc8" points="616.19,-385.96 626.1,-382.2 616.01,-378.96 616.19,-385.96"/>
</g>
<!-- den__provides__primary_user&#45;&gt;demo_shell -->
<g id="edge30" class="edge">
<title>den__provides__primary_user&#45;&gt;demo_shell</title>
<path fill="none" stroke="#a6adc8" d="M483.95,-424.55C499.65,-421.88 515.46,-419.01 530.48,-416 559.13,-410.27 590.69,-402.69 616.88,-396.05"/>
<polygon fill="#a6adc8" stroke="#a6adc8" points="617.46,-399.51 626.28,-393.64 615.72,-392.73 617.46,-399.51"/>
</g>
<!-- default__aspect_default_ -->
<g id="node19" class="node">
<title>default__aspect_default_</title>
<polygon fill="#a6e3a1" stroke="#a6e3a1" points="996.73,-137 818.73,-137 818.73,-101 996.73,-101 996.73,-137"/>
<text text-anchor="middle" x="907.73" y="-114.33" font-family="Times,serif" font-size="14.00" fill="#1e1e2e">default/aspect(default)</text>
</g>
<!-- n_default&#45;&gt;default__aspect_default_ -->
<g id="edge12" class="edge">
<title>n_default&#45;&gt;default__aspect_default_</title>
<path fill="none" stroke="#a6adc8" d="M708.23,-138.75C734.06,-136.18 771.56,-132.45 807.03,-128.92"/>
<polygon fill="#a6adc8" stroke="#a6adc8" points="807.35,-132.41 816.96,-127.93 806.66,-125.44 807.35,-132.41"/>
</g>
<!-- den__provides__define_user -->
<g id="node23" class="node">
<title>den__provides__define_user</title>
<polygon fill="#a6e3a1" stroke="#a6e3a1" points="1623.6,-120 1436.47,-120 1369.82,-84 1690.25,-84 1623.6,-120"/>
<text text-anchor="middle" x="1530.03" y="-97.33" font-family="Times,serif" font-size="14.00" fill="#1e1e2e">provides/define&#45;user</text>
</g>
<!-- n_default&#45;&gt;den__provides__define_user -->
<g id="edge13" class="edge">
<title>n_default&#45;&gt;den__provides__define_user</title>
<path fill="none" stroke="#a6adc8" d="M708.02,-139.75C730.63,-136.85 760.6,-130.2 782.73,-115 805.61,-99.3 794.37,-77.28 818.73,-64 857.03,-43.12 1295.27,-50.42 1333.82,-55 1375.39,-59.93 1420.91,-70.58 1457.53,-80.49"/>
<polygon fill="#a6adc8" stroke="#a6adc8" points="1456.57,-83.86 1467.14,-83.14 1458.42,-77.11 1456.57,-83.86"/>
</g>
<!-- den__provides__hostname -->
<g id="node24" class="node">
<title>den__provides__hostname</title>
<polygon fill="#fab387" stroke="#fab387" points="1271.2,-100 1095.36,-100 1032.73,-64 1333.82,-64 1271.2,-100"/>
<text text-anchor="middle" x="1183.28" y="-77.33" font-family="Times,serif" font-size="14.00" fill="#1e1e2e">provides/hostname</text>
</g>
<!-- n_default&#45;&gt;den__provides__hostname -->
<g id="edge14" class="edge">
<title>n_default&#45;&gt;den__provides__hostname</title>
<path fill="none" stroke="#a6adc8" d="M707.89,-136.68C729.63,-132.42 758.61,-125.42 782.73,-115 800.16,-107.47 800.58,-97.57 818.73,-92 885.49,-71.5 962.42,-66.84 1028.27,-68.17"/>
<polygon fill="#a6adc8" stroke="#a6adc8" points="1027.99,-71.66 1038.07,-68.42 1028.17,-64.67 1027.99,-71.66"/>
</g>
<!-- den__provides__mutual_provider -->
<g id="node25" class="node">
<title>den__provides__mutual_provider</title>
<polygon fill="#f9e2af" stroke="#f9e2af" points="2036.6,-157 1807.75,-157 1726.25,-121 2118.11,-121 2036.6,-157"/>
<text text-anchor="middle" x="1922.18" y="-134.32" font-family="Times,serif" font-size="14.00" fill="#1e1e2e">provides/mutual&#45;provider</text>
</g>
<!-- n_default&#45;&gt;den__provides__mutual_provider -->
<g id="edge15" class="edge">
<title>n_default&#45;&gt;den__provides__mutual_provider</title>
<path fill="none" stroke="#a6adc8" d="M708,-136.08C737.01,-135.14 780.71,-136.47 818.73,-137 897.84,-138.11 917.62,-137.3 996.73,-137 1256.45,-136.02 1557.2,-133.48 1743.33,-134.02"/>
<polygon fill="#a6adc8" stroke="#a6adc8" points="1743.07,-137.52 1753.08,-134.05 1743.09,-130.52 1743.07,-137.52"/>
</g>
<!-- default__aspect_default_&#45;&gt;den__provides__define_user -->
<g id="edge16" class="edge">
<title>default__aspect_default_&#45;&gt;den__provides__define_user</title>
<path fill="none" stroke="#a6adc8" d="M997.08,-110.34C1083.06,-106.45 1217.42,-103.46 1333.82,-100 1350.09,-99.52 1367.11,-98.97 1384.05,-98.46"/>
<polygon fill="#a6adc8" stroke="#a6adc8" points="1383.75,-101.97 1393.64,-98.17 1383.54,-94.97 1383.75,-101.97"/>
</g>
<!-- default__aspect_default_&#45;&gt;den__provides__hostname -->
<g id="edge17" class="edge">
<title>default__aspect_default_&#45;&gt;den__provides__hostname</title>
<path fill="none" stroke="#a6adc8" d="M997.17,-100.68C1018.9,-97.37 1042.5,-94.07 1065.34,-91.13"/>
<polygon fill="#a6adc8" stroke="#a6adc8" points="1065.5,-94.64 1074.98,-89.91 1064.62,-87.69 1065.5,-94.64"/>
</g>
<!-- default__aspect_default_&#45;&gt;den__provides__mutual_provider -->
<g id="edge18" class="edge">
<title>default__aspect_default_&#45;&gt;den__provides__mutual_provider</title>
<path fill="none" stroke="#a6adc8" d="M997.12,-114.29C1089.94,-114.1 1240.13,-117.42 1369.82,-120 1489.42,-122.38 1623.61,-124.82 1729.67,-127.74"/>
<polygon fill="#a6adc8" stroke="#a6adc8" points="1729.54,-131.24 1739.63,-128.02 1729.73,-124.24 1729.54,-131.24"/>
</g>
<!-- den__provides__default__aspect_default__den__provides -->
<g id="node20" class="node">
<title>den__provides__default__aspect_default__den__provides</title>
<polygon fill="#a6e3a1" stroke="#a6e3a1" points="2689.56,-138 2294.72,-138 2154.11,-102 2830.18,-102 2689.56,-138"/>
<text text-anchor="middle" x="2492.14" y="-115.33" font-family="Times,serif" font-size="14.00" fill="#1e1e2e">provides/default/aspect(default):den/provides</text>
</g>
<!-- den__provides__define_user&#45;&gt;default__aspect_default_ -->
<g id="edge22" class="edge">
<title>den__provides__define_user&#45;&gt;default__aspect_default_</title>
<path fill="none" stroke="#a6adc8" d="M1425.45,-114.59C1395.85,-116.02 1363.56,-117.12 1333.82,-118 1222.42,-121.31 1094.57,-124.19 1008.42,-124.16"/>
<polygon fill="#a6adc8" stroke="#a6adc8" points="1008.6,-120.66 998.59,-124.14 1008.58,-127.66 1008.6,-120.66"/>
</g>
<!-- den__provides__define_user&#45;&gt;den__provides__default__aspect_default__den__provides -->
<g id="edge23" class="edge">
<title>den__provides__define_user&#45;&gt;den__provides__default__aspect_default__den__provides</title>
<path fill="none" stroke="#a6adc8" d="M1654.16,-103.94C1772.95,-105.85 1957.84,-108.92 2118.11,-112 2140.23,-112.43 2163.09,-112.88 2186.1,-113.35"/>
<polygon fill="#a6adc8" stroke="#a6adc8" points="2185.82,-116.84 2195.89,-113.55 2185.97,-109.84 2185.82,-116.84"/>
</g>
<!-- den__provides__define_user&#45;&gt;den__provides__mutual_provider -->
<g id="edge24" class="edge">
<title>den__provides__define_user&#45;&gt;den__provides__mutual_provider</title>
<path fill="none" stroke="#a6adc8" d="M1638.93,-112.23C1662.71,-114.49 1688.67,-116.95 1714.89,-119.44"/>
<polygon fill="#a6adc8" stroke="#a6adc8" points="1714.35,-122.9 1724.64,-120.36 1715.01,-115.93 1714.35,-122.9"/>
</g>
<!-- den__provides__hostname&#45;&gt;default__aspect_default_ -->
<g id="edge25" class="edge">
<title>den__provides__hostname&#45;&gt;default__aspect_default_</title>
<path fill="none" stroke="#a6adc8" d="M1095.08,-100.13C1067.48,-104.34 1036.75,-108.56 1008.35,-112.05"/>
<polygon fill="#a6adc8" stroke="#a6adc8" points="1008.18,-108.54 998.67,-113.22 1009.02,-115.49 1008.18,-108.54"/>
</g>
<!-- den__provides__hostname&#45;&gt;den__provides__define_user -->
<g id="edge26" class="edge">
<title>den__provides__hostname&#45;&gt;den__provides__define_user</title>
<path fill="none" stroke="#a6adc8" d="M1292.41,-88.27C1318.91,-89.81 1347.77,-91.48 1375.94,-93.12"/>
<polygon fill="#a6adc8" stroke="#a6adc8" points="1375.42,-96.59 1385.6,-93.68 1375.82,-89.61 1375.42,-96.59"/>
</g>
<!-- den__provides__mutual_provider&#45;&gt;n_default -->
<g id="edge27" class="edge">
<title>den__provides__mutual_provider&#45;&gt;n_default</title>
<path fill="none" stroke="#a6adc8" d="M1782.96,-146.55C1602.24,-151.09 1275.8,-153.94 996.73,-155 917.62,-155.3 897.84,-156.11 818.73,-155 785.31,-154.53 747.51,-153.45 719.15,-151.23"/>
<polygon fill="#a6adc8" stroke="#a6adc8" points="719.78,-147.77 709.51,-150.38 719.16,-154.74 719.78,-147.77"/>
</g>
<!-- den__provides__mutual_provider&#45;&gt;default__aspect_default_ -->
<g id="edge28" class="edge">
<title>den__provides__mutual_provider&#45;&gt;default__aspect_default_</title>
<path fill="none" stroke="#a6adc8" d="M1776.93,-143.91C1665.7,-143.58 1508.01,-140.75 1369.82,-138 1245.33,-135.52 1101.93,-132.36 1008.54,-128.25"/>
<polygon fill="#a6adc8" stroke="#a6adc8" points="1008.79,-124.76 998.64,-127.8 1008.47,-131.75 1008.79,-124.76"/>
</g>
<!-- den__provides__mutual_provider&#45;&gt;den__provides__default__aspect_default__den__provides -->
<g id="edge29" class="edge">
<title>den__provides__mutual_provider&#45;&gt;den__provides__default__aspect_default__den__provides</title>
<path fill="none" stroke="#a6adc8" d="M2091.28,-133.38C2138.67,-131.79 2191.25,-130.03 2242.3,-128.32"/>
<polygon fill="#a6adc8" stroke="#a6adc8" points="2242.12,-131.83 2252,-128 2241.88,-124.84 2242.12,-131.83"/>
</g>
</g>
</svg>
