<?xml version="1.0" encoding="UTF-8" standalone="no"?>
<!DOCTYPE svg PUBLIC "-//W3C//DTD SVG 1.1//EN"
 "http://www.w3.org/Graphics/SVG/1.1/DTD/svg11.dtd">
<!-- Generated by graphviz version 12.2.1 (0)
 -->
<!-- Pages: 1 -->
<svg width="1879pt" height="1135pt"
 viewBox="0.00 0.00 1879.07 1134.62" xmlns="http://www.w3.org/2000/svg" xmlns:xlink="http://www.w3.org/1999/xlink">
<g id="graph0" class="graph" transform="scale(1 1) rotate(0) translate(4 1130.62)">
<polygon fill="#1e1e2e" stroke="none" points="-4,4 -4,-1130.62 1875.07,-1130.62 1875.07,4 -4,4"/>
<g id="clust1" class="cluster">
<title>cluster_ctx_home</title>
<polygon fill="#313244" stroke="#6c7086" stroke-dasharray="5,2" points="99.42,-322.09 99.42,-1069.09 1051.19,-1069.09 1051.19,-322.09 99.42,-322.09"/>
<text text-anchor="middle" x="575.31" y="-1051.79" font-family="Times,serif" font-size="14.00" fill="#cdd6f4">home</text>
</g>
<g id="clust2" class="cluster">
<title>cluster_ctx_default</title>
<polygon fill="#313244" stroke="#6c7086" stroke-dasharray="5,2" points="486.76,-55.09 486.76,-314.09 1863.07,-314.09 1863.07,-55.09 486.76,-55.09"/>
<text text-anchor="middle" x="1174.92" y="-296.79" font-family="Times,serif" font-size="14.00" fill="#cdd6f4">default</text>
</g>
<!-- alice -->
<g id="node1" class="node">
<title>alice</title>
<path fill="#89b4fa" stroke="#89b4fa" d="M59.42,-809.09C59.42,-809.09 29.42,-809.09 29.42,-809.09 23.42,-809.09 17.42,-803.09 17.42,-797.09 17.42,-797.09 17.42,-785.09 17.42,-785.09 17.42,-779.09 23.42,-773.09 29.42,-773.09 29.42,-773.09 59.42,-773.09 59.42,-773.09 65.42,-773.09 71.42,-779.09 71.42,-785.09 71.42,-785.09 71.42,-797.09 71.42,-797.09 71.42,-803.09 65.42,-809.09 59.42,-809.09"/>
<text text-anchor="middle" x="44.42" y="-786.41" font-family="Times,serif" font-size="14.00" fill="#1e1e2e">alice</text>
</g>
<!-- alice&#45;&gt;alice -->
<g id="edge1" class="edge">
<title>alice&#45;&gt;alice</title>
<path fill="none" stroke="#a6adc8" d="M16.96,-799.05C-12.56,-811.4 -3.41,-827.09 44.42,-827.09 85.53,-827.09 98.07,-815.5 82.05,-804.4"/>
<polygon fill="#a6adc8" stroke="#a6adc8" points="83.7,-801.32 73.23,-799.75 80.44,-807.51 83.7,-801.32"/>
</g>
<!-- alice_dotfiles -->
<g id="node2" class="node">
<title>alice_dotfiles</title>
<polygon fill="#f2cdcd" stroke="#f2cdcd" points="655.89,-946.09 549.89,-946.09 549.89,-910.09 655.89,-910.09 655.89,-946.09"/>
<text text-anchor="middle" x="602.89" y="-923.41" font-family="Times,serif" font-size="14.00" fill="#1e1e2e">alice&#45;dotfiles</text>
</g>
<!-- alice&#45;&gt;alice_dotfiles -->
<g id="edge2" class="edge">
<title>alice&#45;&gt;alice_dotfiles</title>
<path fill="none" stroke="#a6adc8" d="M58.39,-809.42C68.2,-821.83 82.79,-837.47 99.42,-846.09 243.22,-920.62 438.61,-930.47 538.05,-930.04"/>
<polygon fill="#a6adc8" stroke="#a6adc8" points="537.92,-933.54 547.89,-929.96 537.86,-926.54 537.92,-933.54"/>
</g>
<!-- demo_shell -->
<g id="node3" class="node">
<title>demo_shell</title>
<polygon fill="#cba6f7" stroke="#cba6f7" points="649.51,-874.09 556.26,-874.09 556.26,-838.09 649.51,-838.09 649.51,-874.09"/>
<text text-anchor="middle" x="602.89" y="-851.41" font-family="Times,serif" font-size="14.00" fill="#1e1e2e">demo&#45;shell</text>
</g>
<!-- alice&#45;&gt;demo_shell -->
<g id="edge3" class="edge">
<title>alice&#45;&gt;demo_shell</title>
<path fill="none" stroke="#a6adc8" d="M71.92,-802.49C80.54,-805.77 90.26,-809.02 99.42,-811.09 257.91,-846.86 450.56,-854.42 544.63,-855.87"/>
<polygon fill="#a6adc8" stroke="#a6adc8" points="544.32,-859.37 554.37,-856 544.41,-852.37 544.32,-859.37"/>
</g>
<!-- dev_tools -->
<g id="node4" class="node">
<title>dev_tools</title>
<polygon fill="#f38ba8" stroke="#f38ba8" points="643.14,-802.09 562.64,-802.09 562.64,-766.09 643.14,-766.09 643.14,-802.09"/>
<text text-anchor="middle" x="602.89" y="-779.41" font-family="Times,serif" font-size="14.00" fill="#1e1e2e">dev&#45;tools</text>
</g>
<!-- alice&#45;&gt;dev_tools -->
<g id="edge4" class="edge">
<title>alice&#45;&gt;dev_tools</title>
<path fill="none" stroke="#a6adc8" d="M71.77,-793.43C80.56,-794.11 90.4,-794.75 99.42,-795.09 257.19,-800.92 296.87,-800.97 454.64,-795.09 486.72,-793.89 522.66,-791.23 551,-788.83"/>
<polygon fill="#a6adc8" stroke="#a6adc8" points="551.08,-792.34 560.74,-787.99 550.47,-785.36 551.08,-792.34"/>
</g>
<!-- home_dev -->
<g id="node7" class="node">
<title>home_dev</title>
<polygon fill="#f38ba8" stroke="#f38ba8" points="323.53,-530.09 238.53,-530.09 238.53,-494.09 323.53,-494.09 323.53,-530.09"/>
<text text-anchor="middle" x="281.03" y="-507.41" font-family="Times,serif" font-size="14.00" fill="#1e1e2e">home&#45;dev</text>
</g>
<!-- alice&#45;&gt;home_dev -->
<g id="edge5" class="edge">
<title>alice&#45;&gt;home_dev</title>
<path fill="none" stroke="#a6adc8" d="M46.6,-772.72C49.68,-738.1 60.71,-662.32 99.42,-614.09 132.46,-572.93 186.87,-545.47 227.35,-529.51"/>
<polygon fill="#a6adc8" stroke="#a6adc8" points="228.59,-532.78 236.69,-525.95 226.1,-526.24 228.59,-532.78"/>
</g>
<!-- home_productivity -->
<g id="node10" class="node">
<title>home_productivity</title>
<polygon fill="#cba6f7" stroke="#cba6f7" points="354.28,-659.09 207.78,-659.09 207.78,-623.09 354.28,-623.09 354.28,-659.09"/>
<text text-anchor="middle" x="281.03" y="-636.41" font-family="Times,serif" font-size="14.00" fill="#1e1e2e">home&#45;productivity</text>
</g>
<!-- alice&#45;&gt;home_productivity -->
<g id="edge6" class="edge">
<title>alice&#45;&gt;home_productivity</title>
<path fill="none" stroke="#a6adc8" d="M49.96,-772.68C56.71,-749.23 71.69,-709.09 99.42,-687.09 126.87,-665.32 163.4,-653.73 196.42,-647.61"/>
<polygon fill="#a6adc8" stroke="#a6adc8" points="196.7,-651.12 205.98,-645.99 195.53,-644.22 196.7,-651.12"/>
</g>
<!-- home__self_provide_home_ -->
<g id="node14" class="node">
<title>home__self_provide_home_</title>
<polygon fill="#f38ba8" stroke="#f38ba8" points="1043.19,-730.09 850.94,-730.09 850.94,-694.09 1043.19,-694.09 1043.19,-730.09"/>
<text text-anchor="middle" x="947.07" y="-707.41" font-family="Times,serif" font-size="14.00" fill="#1e1e2e">home/self&#45;provide(home)</text>
</g>
<!-- alice&#45;&gt;home__self_provide_home_ -->
<g id="edge7" class="edge">
<title>alice&#45;&gt;home__self_provide_home_</title>
<path fill="none" stroke="#a6adc8" d="M45.3,-809.46C46.11,-845.44 53.34,-925.36 99.42,-967.09 303.88,-1152.25 470.76,-1173.01 715.14,-1045.09 841.23,-979.09 912.24,-809.45 936.49,-741.19"/>
<polygon fill="#a6adc8" stroke="#a6adc8" points="939.77,-742.42 939.73,-731.83 933.15,-740.13 939.77,-742.42"/>
</g>
<!-- hyprland -->
<g id="node15" class="node">
<title>hyprland</title>
<polygon fill="#cba6f7" stroke="#cba6f7" points="642.76,-1018.09 563.01,-1018.09 563.01,-982.09 642.76,-982.09 642.76,-1018.09"/>
<text text-anchor="middle" x="602.89" y="-995.41" font-family="Times,serif" font-size="14.00" fill="#1e1e2e">hyprland</text>
</g>
<!-- alice&#45;&gt;hyprland -->
<g id="edge8" class="edge">
<title>alice&#45;&gt;hyprland</title>
<path fill="none" stroke="#a6adc8" d="M49.14,-809.5C55.17,-834.36 69.55,-878.17 99.42,-901.09 236,-1005.89 453.43,-1008.79 551.27,-1003.98"/>
<polygon fill="#a6adc8" stroke="#a6adc8" points="551.29,-1007.49 561.08,-1003.45 550.9,-1000.5 551.29,-1007.49"/>
</g>
<!-- primary_user -->
<g id="node16" class="node">
<title>primary_user</title>
<polygon fill="#cba6f7" stroke="#cba6f7" points="335.53,-732.09 226.53,-732.09 226.53,-696.09 335.53,-696.09 335.53,-732.09"/>
<text text-anchor="middle" x="281.03" y="-709.41" font-family="Times,serif" font-size="14.00" fill="#1e1e2e">primary&#45;user</text>
</g>
<!-- alice&#45;&gt;primary_user -->
<g id="edge9" class="edge">
<title>alice&#45;&gt;primary_user</title>
<path fill="none" stroke="#a6adc8" d="M60.01,-772.89C69.92,-761.85 83.99,-748.5 99.42,-741.09 135.27,-723.88 179.34,-717.05 214.98,-714.56"/>
<polygon fill="#a6adc8" stroke="#a6adc8" points="214.94,-718.07 224.72,-713.99 214.53,-711.08 214.94,-718.07"/>
</g>
<!-- den__provides__primary_user -->
<g id="node17" class="node">
<title>den__provides__primary_user</title>
<polygon fill="#cba6f7" stroke="#cba6f7" points="382.42,-786.09 179.64,-786.09 107.42,-750.09 454.64,-750.09 382.42,-786.09"/>
<text text-anchor="middle" x="281.03" y="-763.41" font-family="Times,serif" font-size="14.00" fill="#1e1e2e">provides/primary&#45;user</text>
</g>
<!-- alice&#45;&gt;den__provides__primary_user -->
<g id="edge10" class="edge">
<title>alice&#45;&gt;den__provides__primary_user</title>
<path fill="none" stroke="#a6adc8" d="M71.88,-788.49C92.57,-786.47 122.97,-783.49 154.19,-780.43"/>
<polygon fill="#a6adc8" stroke="#a6adc8" points="154.13,-783.95 163.74,-779.49 153.45,-776.98 154.13,-783.95"/>
</g>
<!-- alice_dotfiles&#45;&gt;alice_dotfiles -->
<g id="edge11" class="edge">
<title>alice_dotfiles&#45;&gt;alice_dotfiles</title>
<path fill="none" stroke="#a6adc8" d="M549.67,-942.5C531.09,-953.25 548.83,-964.09 602.89,-964.09 641.74,-964.09 661.84,-958.49 663.17,-951.35"/>
<polygon fill="#a6adc8" stroke="#a6adc8" points="666.02,-949.32 657.05,-943.69 660.55,-953.69 666.02,-949.32"/>
</g>
<!-- alice_dotfiles&#45;&gt;home__self_provide_home_ -->
<g id="edge12" class="edge">
<title>alice_dotfiles&#45;&gt;home__self_provide_home_</title>
<path fill="none" stroke="#a6adc8" d="M656.25,-920.4C675.43,-916.31 696.9,-910.17 715.14,-901.09 800.43,-858.62 882.36,-779.62 921.74,-738.5"/>
<polygon fill="#a6adc8" stroke="#a6adc8" points="924.1,-741.09 928.44,-731.43 919.02,-736.28 924.1,-741.09"/>
</g>
<!-- demo_shell&#45;&gt;demo_shell -->
<g id="edge18" class="edge">
<title>demo_shell&#45;&gt;demo_shell</title>
<path fill="none" stroke="#a6adc8" d="M555.8,-867.52C528.1,-879.14 543.8,-892.09 602.89,-892.09 652.75,-892.09 671.71,-882.87 659.78,-873.01"/>
<polygon fill="#a6adc8" stroke="#a6adc8" points="661.73,-870.09 651.3,-868.26 658.31,-876.2 661.73,-870.09"/>
</g>
<!-- demo_shell&#45;&gt;home__self_provide_home_ -->
<g id="edge19" class="edge">
<title>demo_shell&#45;&gt;home__self_provide_home_</title>
<path fill="none" stroke="#a6adc8" d="M649.79,-847.45C670.14,-842.98 694.16,-836.83 715.14,-829.09 784.72,-803.41 860.55,-762.22 905.66,-736.19"/>
<polygon fill="#a6adc8" stroke="#a6adc8" points="907.16,-739.37 914.04,-731.32 903.64,-733.31 907.16,-739.37"/>
</g>
<!-- dev_tools&#45;&gt;dev_tools -->
<g id="edge28" class="edge">
<title>dev_tools&#45;&gt;dev_tools</title>
<path fill="none" stroke="#a6adc8" d="M562.17,-793.13C526.14,-805.29 539.71,-820.09 602.89,-820.09 658.66,-820.09 675.78,-808.56 654.23,-797.48"/>
<polygon fill="#a6adc8" stroke="#a6adc8" points="655.59,-794.26 645.01,-793.7 652.93,-800.73 655.59,-794.26"/>
</g>
<!-- dev_tools&#45;&gt;home__self_provide_home_ -->
<g id="edge29" class="edge">
<title>dev_tools&#45;&gt;home__self_provide_home_</title>
<path fill="none" stroke="#a6adc8" d="M643.47,-775.76C692.97,-765.34 779.43,-747.15 847.29,-732.87"/>
<polygon fill="#a6adc8" stroke="#a6adc8" points="847.9,-736.32 856.96,-730.84 846.46,-729.47 847.9,-736.32"/>
</g>
<!-- home -->
<g id="node5" class="node">
<title>home</title>
<polygon fill="#f38ba8" stroke="#f38ba8" points="308.53,-366.09 253.53,-366.09 253.53,-330.09 308.53,-330.09 308.53,-366.09"/>
<text text-anchor="middle" x="281.03" y="-343.41" font-family="Times,serif" font-size="14.00" fill="#1e1e2e">home</text>
</g>
<!-- home&#45;&gt;alice -->
<g id="edge30" class="edge">
<title>home&#45;&gt;alice</title>
<path fill="none" stroke="#a6adc8" d="M253.17,-360.32C212.71,-380.27 136.86,-423.79 99.42,-485.09 71.17,-531.36 53.99,-693.59 47.92,-761.18"/>
<polygon fill="#a6adc8" stroke="#a6adc8" points="44.43,-760.88 47.04,-771.14 51.4,-761.49 44.43,-760.88"/>
</g>
<!-- home&#45;&gt;home -->
<g id="edge34" class="edge">
<title>home&#45;&gt;home</title>
<path fill="none" stroke="#a6adc8" d="M253.14,-356.22C224.14,-368.55 233.43,-384.09 281.03,-384.09 321.94,-384.09 334.55,-372.61 318.88,-361.56"/>
<polygon fill="#a6adc8" stroke="#a6adc8" points="320.72,-358.58 310.25,-356.94 317.42,-364.75 320.72,-358.58"/>
</g>
<!-- home__aspect_home_ -->
<g id="node12" class="node">
<title>home__aspect_home_</title>
<polygon fill="#cba6f7" stroke="#cba6f7" points="680.64,-420.09 525.14,-420.09 525.14,-384.09 680.64,-384.09 680.64,-420.09"/>
<text text-anchor="middle" x="602.89" y="-397.41" font-family="Times,serif" font-size="14.00" fill="#1e1e2e">home/aspect(home)</text>
</g>
<!-- home&#45;&gt;home__aspect_home_ -->
<g id="edge35" class="edge">
<title>home&#45;&gt;home__aspect_home_</title>
<path fill="none" stroke="#a6adc8" d="M309.03,-352.65C353.68,-360.18 444.83,-375.57 513.64,-387.19"/>
<polygon fill="#a6adc8" stroke="#a6adc8" points="512.98,-390.63 523.43,-388.84 514.15,-383.73 512.98,-390.63"/>
</g>
<!-- home__cross_provide__anon__ -->
<g id="node13" class="node">
<title>home__cross_provide__anon__</title>
<polygon fill="#cba6f7" stroke="#cba6f7" points="715.14,-366.09 490.64,-366.09 490.64,-330.09 715.14,-330.09 715.14,-366.09"/>
<text text-anchor="middle" x="602.89" y="-343.41" font-family="Times,serif" font-size="14.00" fill="#1e1e2e">home/cross&#45;provide(&lt;anon&gt;)</text>
</g>
<!-- home&#45;&gt;home__cross_provide__anon__ -->
<g id="edge36" class="edge">
<title>home&#45;&gt;home__cross_provide__anon__</title>
<path fill="none" stroke="#a6adc8" d="M309.03,-348.09C346.54,-348.09 416.85,-348.09 479.17,-348.09"/>
<polygon fill="#a6adc8" stroke="#a6adc8" points="478.79,-351.59 488.79,-348.09 478.79,-344.59 478.79,-351.59"/>
</g>
<!-- n_default -->
<g id="node18" class="node">
<title>n_default</title>
<polygon fill="#fab387" stroke="#fab387" points="636.01,-200.09 569.76,-200.09 569.76,-164.09 636.01,-164.09 636.01,-200.09"/>
<text text-anchor="middle" x="602.89" y="-177.41" font-family="Times,serif" font-size="14.00" fill="#1e1e2e">default</text>
</g>
<!-- home&#45;&gt;n_default -->
<g id="edge31" class="edge">
<title>home&#45;&gt;n_default</title>
<path fill="none" stroke="#a6adc8" d="M308.9,-332.69C347.76,-310.59 422.09,-268.91 486.76,-236.09 510.45,-224.07 537.3,-211.42 559.11,-201.39"/>
<polygon fill="#a6adc8" stroke="#a6adc8" points="560.36,-204.66 568,-197.32 557.45,-198.3 560.36,-204.66"/>
</g>
<!-- default__cross_provide_home_ -->
<g id="node21" class="node">
<title>default__cross_provide_home_</title>
<polygon fill="#f9e2af" stroke="#f9e2af" points="711.01,-281.09 494.76,-281.09 494.76,-245.09 711.01,-245.09 711.01,-281.09"/>
<text text-anchor="middle" x="602.89" y="-258.41" font-family="Times,serif" font-size="14.00" fill="#1e1e2e">default/cross&#45;provide(home)</text>
</g>
<!-- home&#45;&gt;default__cross_provide_home_ -->
<g id="edge32" class="edge">
<title>home&#45;&gt;default__cross_provide_home_</title>
<path fill="none" stroke="#a6adc8" d="M309.03,-340.91C355.42,-328.59 451.99,-302.92 521.57,-284.43"/>
<polygon fill="#a6adc8" stroke="#a6adc8" points="522.26,-287.87 531.03,-281.92 520.46,-281.1 522.26,-287.87"/>
</g>
<!-- default__self_provide_default_ -->
<g id="node22" class="node">
<title>default__self_provide_default_</title>
<polygon fill="#fab387" stroke="#fab387" points="710.26,-146.09 495.51,-146.09 495.51,-110.09 710.26,-110.09 710.26,-146.09"/>
<text text-anchor="middle" x="602.89" y="-123.41" font-family="Times,serif" font-size="14.00" fill="#1e1e2e">default/self&#45;provide(default)</text>
</g>
<!-- home&#45;&gt;default__self_provide_default_ -->
<g id="edge33" class="edge">
<title>home&#45;&gt;default__self_provide_default_</title>
<path fill="none" stroke="#a6adc8" d="M295.9,-329.61C326.07,-290.83 401.78,-200.76 486.76,-155.09 489.47,-153.64 492.25,-152.26 495.09,-150.96"/>
<polygon fill="#a6adc8" stroke="#a6adc8" points="496.33,-154.23 504.2,-147.14 493.62,-147.78 496.33,-154.23"/>
</g>
<!-- home_bat -->
<g id="node6" class="node">
<title>home_bat</title>
<polygon fill="#f2cdcd" stroke="#f2cdcd" points="644.26,-494.09 561.51,-494.09 561.51,-458.09 644.26,-458.09 644.26,-494.09"/>
<text text-anchor="middle" x="602.89" y="-471.41" font-family="Times,serif" font-size="14.00" fill="#1e1e2e">home&#45;bat</text>
</g>
<!-- home_bat&#45;&gt;home_bat -->
<g id="edge37" class="edge">
<title>home_bat&#45;&gt;home_bat</title>
<path fill="none" stroke="#a6adc8" d="M561.11,-485.49C526.41,-497.59 540.34,-512.09 602.89,-512.09 657.86,-512.09 675.28,-500.89 655.13,-489.96"/>
<polygon fill="#a6adc8" stroke="#a6adc8" points="656.63,-486.79 646.06,-486.09 653.88,-493.23 656.63,-486.79"/>
</g>
<!-- home_bat&#45;&gt;home__self_provide_home_ -->
<g id="edge38" class="edge">
<title>home_bat&#45;&gt;home__self_provide_home_</title>
<path fill="none" stroke="#a6adc8" d="M644.68,-489.18C666.37,-496.97 693.04,-507.91 715.14,-521.09 796.7,-569.72 879.34,-646.1 920.07,-685.93"/>
<polygon fill="#a6adc8" stroke="#a6adc8" points="917.45,-688.27 927.03,-692.79 922.36,-683.28 917.45,-688.27"/>
</g>
<!-- home_dev&#45;&gt;home_bat -->
<g id="edge39" class="edge">
<title>home_dev&#45;&gt;home_bat</title>
<path fill="none" stroke="#a6adc8" d="M323.85,-507.38C381.87,-500.85 486.77,-489.04 549.81,-481.95"/>
<polygon fill="#a6adc8" stroke="#a6adc8" points="550.02,-485.45 559.57,-480.85 549.24,-478.49 550.02,-485.45"/>
</g>
<!-- home_dev&#45;&gt;home_dev -->
<g id="edge40" class="edge">
<title>home_dev&#45;&gt;home_dev</title>
<path fill="none" stroke="#a6adc8" d="M238.23,-530.24C231.64,-539.63 245.91,-548.09 281.03,-548.09 301.06,-548.09 314.31,-545.34 320.77,-541.23"/>
<polygon fill="#a6adc8" stroke="#a6adc8" points="324.12,-542.27 323.43,-531.7 317.37,-540.39 324.12,-542.27"/>
</g>
<!-- home_git -->
<g id="node9" class="node">
<title>home_git</title>
<polygon fill="#cba6f7" stroke="#cba6f7" points="642.39,-566.09 563.39,-566.09 563.39,-530.09 642.39,-530.09 642.39,-566.09"/>
<text text-anchor="middle" x="602.89" y="-543.41" font-family="Times,serif" font-size="14.00" fill="#1e1e2e">home&#45;git</text>
</g>
<!-- home_dev&#45;&gt;home_git -->
<g id="edge41" class="edge">
<title>home_dev&#45;&gt;home_git</title>
<path fill="none" stroke="#a6adc8" d="M323.85,-516.79C382.51,-523.4 489.08,-535.39 551.87,-542.46"/>
<polygon fill="#a6adc8" stroke="#a6adc8" points="551.23,-545.91 561.56,-543.55 552.02,-538.95 551.23,-545.91"/>
</g>
<!-- home_dev&#45;&gt;home__self_provide_home_ -->
<g id="edge42" class="edge">
<title>home_dev&#45;&gt;home__self_provide_home_</title>
<path fill="none" stroke="#a6adc8" d="M323.91,-495.15C364.7,-479.64 428.84,-457.8 486.76,-449.09 536.95,-441.54 668.91,-428.16 715.14,-449.09 823.56,-498.18 901.26,-626.12 931.78,-683.5"/>
<polygon fill="#a6adc8" stroke="#a6adc8" points="928.66,-685.09 936.39,-692.34 934.86,-681.85 928.66,-685.09"/>
</g>
<!-- home_firefox -->
<g id="node8" class="node">
<title>home_firefox</title>
<polygon fill="#f38ba8" stroke="#f38ba8" points="655.51,-658.09 550.26,-658.09 550.26,-622.09 655.51,-622.09 655.51,-658.09"/>
<text text-anchor="middle" x="602.89" y="-635.41" font-family="Times,serif" font-size="14.00" fill="#1e1e2e">home&#45;firefox</text>
</g>
<!-- home_firefox&#45;&gt;home_firefox -->
<g id="edge43" class="edge">
<title>home_firefox&#45;&gt;home_firefox</title>
<path fill="none" stroke="#a6adc8" d="M550,-654.32C530.88,-665.13 548.51,-676.09 602.89,-676.09 642.82,-676.09 662.94,-670.18 663.23,-662.76"/>
<polygon fill="#a6adc8" stroke="#a6adc8" points="666.02,-660.63 656.78,-655.45 660.78,-665.26 666.02,-660.63"/>
</g>
<!-- home_firefox&#45;&gt;home__self_provide_home_ -->
<g id="edge44" class="edge">
<title>home_firefox&#45;&gt;home__self_provide_home_</title>
<path fill="none" stroke="#a6adc8" d="M655.86,-651.02C706.48,-661.67 784.71,-678.14 847.2,-691.29"/>
<polygon fill="#a6adc8" stroke="#a6adc8" points="846.29,-694.67 856.8,-693.3 847.73,-687.82 846.29,-694.67"/>
</g>
<!-- home_git&#45;&gt;home_git -->
<g id="edge45" class="edge">
<title>home_git&#45;&gt;home_git</title>
<path fill="none" stroke="#a6adc8" d="M562.98,-556.86C525.94,-569.07 539.24,-584.09 602.89,-584.09 659.33,-584.09 676.18,-572.28 653.44,-561.09"/>
<polygon fill="#a6adc8" stroke="#a6adc8" points="654.78,-557.86 644.2,-557.41 652.2,-564.36 654.78,-557.86"/>
</g>
<!-- home_git&#45;&gt;home__self_provide_home_ -->
<g id="edge46" class="edge">
<title>home_git&#45;&gt;home__self_provide_home_</title>
<path fill="none" stroke="#a6adc8" d="M642.66,-565.1C664.11,-574.62 691.2,-586.8 715.14,-598.09 779.62,-628.48 853.36,-665.24 899.81,-688.64"/>
<polygon fill="#a6adc8" stroke="#a6adc8" points="898.01,-691.65 908.51,-693.03 901.16,-685.4 898.01,-691.65"/>
</g>
<!-- home_productivity&#45;&gt;home_firefox -->
<g id="edge47" class="edge">
<title>home_productivity&#45;&gt;home_firefox</title>
<path fill="none" stroke="#a6adc8" d="M354.61,-640.86C410.08,-640.69 485.76,-640.45 538.74,-640.29"/>
<polygon fill="#a6adc8" stroke="#a6adc8" points="538.51,-643.79 548.5,-640.26 538.49,-636.79 538.51,-643.79"/>
</g>
<!-- home_productivity&#45;&gt;home_productivity -->
<g id="edge48" class="edge">
<title>home_productivity&#45;&gt;home_productivity</title>
<path fill="none" stroke="#a6adc8" d="M238.23,-659.24C231.64,-668.63 245.91,-677.09 281.03,-677.09 301.06,-677.09 314.31,-674.34 320.77,-670.23"/>
<polygon fill="#a6adc8" stroke="#a6adc8" points="324.12,-671.27 323.43,-660.7 317.37,-669.39 324.12,-671.27"/>
</g>
<!-- home_slack -->
<g id="node11" class="node">
<title>home_slack</title>
<polygon fill="#f2cdcd" stroke="#f2cdcd" points="650.64,-730.09 555.14,-730.09 555.14,-694.09 650.64,-694.09 650.64,-730.09"/>
<text text-anchor="middle" x="602.89" y="-707.41" font-family="Times,serif" font-size="14.00" fill="#1e1e2e">home&#45;slack</text>
</g>
<!-- home_productivity&#45;&gt;home_slack -->
<g id="edge49" class="edge">
<title>home_productivity&#45;&gt;home_slack</title>
<path fill="none" stroke="#a6adc8" d="M354.61,-657.2C411.91,-669.92 490.8,-687.43 543.93,-699.22"/>
<polygon fill="#a6adc8" stroke="#a6adc8" points="542.86,-702.57 553.38,-701.32 544.37,-695.74 542.86,-702.57"/>
</g>
<!-- home_productivity&#45;&gt;home__self_provide_home_ -->
<g id="edge50" class="edge">
<title>home_productivity&#45;&gt;home__self_provide_home_</title>
<path fill="none" stroke="#a6adc8" d="M354.49,-624.79C441.16,-607.94 590.22,-587.44 715.14,-613.09 784.91,-627.41 859.62,-663.74 904.59,-688.17"/>
<polygon fill="#a6adc8" stroke="#a6adc8" points="902.76,-691.16 913.21,-692.92 906.14,-685.03 902.76,-691.16"/>
</g>
<!-- home_slack&#45;&gt;home_slack -->
<g id="edge51" class="edge">
<title>home_slack&#45;&gt;home_slack</title>
<path fill="none" stroke="#a6adc8" d="M554.93,-723.89C528.44,-735.42 544.43,-748.09 602.89,-748.09 651.76,-748.09 670.95,-739.24 660.45,-729.59"/>
<polygon fill="#a6adc8" stroke="#a6adc8" points="662.53,-726.76 652.15,-724.66 658.96,-732.78 662.53,-726.76"/>
</g>
<!-- home_slack&#45;&gt;home__self_provide_home_ -->
<g id="edge52" class="edge">
<title>home_slack&#45;&gt;home__self_provide_home_</title>
<path fill="none" stroke="#a6adc8" d="M651.11,-712.09C699.45,-712.09 776.22,-712.09 839.33,-712.09"/>
<polygon fill="#a6adc8" stroke="#a6adc8" points="839.02,-715.59 849.02,-712.09 839.02,-708.59 839.02,-715.59"/>
</g>
<!-- hyprland&#45;&gt;home__self_provide_home_ -->
<g id="edge53" class="edge">
<title>hyprland&#45;&gt;home__self_provide_home_</title>
<path fill="none" stroke="#a6adc8" d="M643.17,-996.44C665.54,-992.97 693.35,-986.22 715.14,-973.09 815.67,-912.51 896.45,-793.86 929.68,-739.94"/>
<polygon fill="#a6adc8" stroke="#a6adc8" points="932.52,-742.01 934.72,-731.65 926.54,-738.38 932.52,-742.01"/>
</g>
<!-- hyprland&#45;&gt;hyprland -->
<g id="edge54" class="edge">
<title>hyprland&#45;&gt;hyprland</title>
<path fill="none" stroke="#a6adc8" d="M562.71,-1008.95C526,-1021.15 539.4,-1036.09 602.89,-1036.09 659.19,-1036.09 676.09,-1024.34 653.61,-1013.17"/>
<polygon fill="#a6adc8" stroke="#a6adc8" points="655.06,-1009.98 644.47,-1009.51 652.45,-1016.48 655.06,-1009.98"/>
</g>
<!-- n_default&#45;&gt;n_default -->
<g id="edge13" class="edge">
<title>n_default&#45;&gt;n_default</title>
<path fill="none" stroke="#a6adc8" d="M569.47,-188.89C524.64,-201.4 535.78,-218.09 602.89,-218.09 663.96,-218.09 678.68,-204.26 647.04,-192.35"/>
<polygon fill="#a6adc8" stroke="#a6adc8" points="648.34,-189.09 637.75,-189.36 646.19,-195.75 648.34,-189.09"/>
</g>
<!-- default__aspect_default_ -->
<g id="node19" class="node">
<title>default__aspect_default_</title>
<polygon fill="#a6e3a1" stroke="#a6e3a1" points="1606.03,-128.09 1428.03,-128.09 1428.03,-92.09 1606.03,-92.09 1606.03,-128.09"/>
<text text-anchor="middle" x="1517.03" y="-105.41" font-family="Times,serif" font-size="14.00" fill="#1e1e2e">default/aspect(default)</text>
</g>
<!-- n_default&#45;&gt;default__aspect_default_ -->
<g id="edge14" class="edge">
<title>n_default&#45;&gt;default__aspect_default_</title>
<path fill="none" stroke="#a6adc8" d="M636.27,-181.65C660.48,-179.72 693.09,-173.49 715.14,-155.09 745.39,-129.85 718.11,-95.56 751.14,-74.09 978.24,73.5 1328.32,-36.62 1461.8,-87.74"/>
<polygon fill="#a6adc8" stroke="#a6adc8" points="1460.16,-90.86 1470.75,-91.21 1462.69,-84.33 1460.16,-90.86"/>
</g>
<!-- den__provides__define_user -->
<g id="node23" class="node">
<title>den__provides__define_user</title>
<polygon fill="#a6e3a1" stroke="#a6e3a1" points="1040.63,-191.09 853.5,-191.09 786.85,-155.09 1107.28,-155.09 1040.63,-191.09"/>
<text text-anchor="middle" x="947.07" y="-168.41" font-family="Times,serif" font-size="14.00" fill="#1e1e2e">provides/define&#45;user</text>
</g>
<!-- n_default&#45;&gt;den__provides__define_user -->
<g id="edge15" class="edge">
<title>n_default&#45;&gt;den__provides__define_user</title>
<path fill="none" stroke="#a6adc8" d="M636.39,-181.23C677.15,-180.16 749.55,-178.26 814.09,-176.56"/>
<polygon fill="#a6adc8" stroke="#a6adc8" points="813.79,-180.07 823.7,-176.31 813.61,-173.07 813.79,-180.07"/>
</g>
<!-- den__provides__hostname -->
<g id="node24" class="node">
<title>den__provides__hostname</title>
<polygon fill="#fab387" stroke="#fab387" points="1034.99,-119.09 859.15,-119.09 796.52,-83.09 1097.61,-83.09 1034.99,-119.09"/>
<text text-anchor="middle" x="947.07" y="-96.41" font-family="Times,serif" font-size="14.00" fill="#1e1e2e">provides/hostname</text>
</g>
<!-- n_default&#45;&gt;den__provides__hostname -->
<g id="edge16" class="edge">
<title>n_default&#45;&gt;den__provides__hostname</title>
<path fill="none" stroke="#a6adc8" d="M636.03,-174.35C658.26,-168.98 688.51,-161.65 715.14,-155.09 731.15,-151.14 735.1,-149.94 751.14,-146.09 784.66,-138.03 821.5,-129.45 854.04,-121.97"/>
<polygon fill="#a6adc8" stroke="#a6adc8" points="854.46,-125.47 863.43,-119.82 852.9,-118.64 854.46,-125.47"/>
</g>
<!-- den__provides__mutual_provider -->
<g id="node25" class="node">
<title>den__provides__mutual_provider</title>
<polygon fill="#f9e2af" stroke="#f9e2af" points="1061.49,-263.09 832.64,-263.09 751.14,-227.09 1142.99,-227.09 1061.49,-263.09"/>
<text text-anchor="middle" x="947.07" y="-240.41" font-family="Times,serif" font-size="14.00" fill="#1e1e2e">provides/mutual&#45;provider</text>
</g>
<!-- n_default&#45;&gt;den__provides__mutual_provider -->
<g id="edge17" class="edge">
<title>n_default&#45;&gt;den__provides__mutual_provider</title>
<path fill="none" stroke="#a6adc8" d="M636.43,-191.06C666.13,-199 711.33,-210.49 751.14,-218.09 763.47,-220.44 776.27,-222.68 789.16,-224.78"/>
<polygon fill="#a6adc8" stroke="#a6adc8" points="788.58,-228.23 799.01,-226.35 789.68,-221.32 788.58,-228.23"/>
</g>
<!-- den__provides__default__aspect_default__den__provides -->
<g id="node20" class="node">
<title>den__provides__default__aspect_default__den__provides</title>
<polygon fill="#a6e3a1" stroke="#a6e3a1" points="1714.45,-227.09 1319.61,-227.09 1178.99,-191.09 1855.07,-191.09 1714.45,-227.09"/>
<text text-anchor="middle" x="1517.03" y="-204.41" font-family="Times,serif" font-size="14.00" fill="#1e1e2e">provides/default/aspect(default):den/provides</text>
</g>
<!-- den__provides__define_user&#45;&gt;default__aspect_default_ -->
<g id="edge20" class="edge">
<title>den__provides__define_user&#45;&gt;default__aspect_default_</title>
<path fill="none" stroke="#a6adc8" d="M1107.79,-155.37C1206.86,-144.38 1331.06,-130.61 1416.3,-121.15"/>
<polygon fill="#a6adc8" stroke="#a6adc8" points="1416.48,-124.65 1426.03,-120.07 1415.71,-117.7 1416.48,-124.65"/>
</g>
<!-- den__provides__define_user&#45;&gt;den__provides__default__aspect_default__den__provides -->
<g id="edge21" class="edge">
<title>den__provides__define_user&#45;&gt;den__provides__default__aspect_default__den__provides</title>
<path fill="none" stroke="#a6adc8" d="M1061.64,-180.29C1105.93,-183.09 1159,-186.46 1212.99,-189.88"/>
<polygon fill="#a6adc8" stroke="#a6adc8" points="1212.45,-193.35 1222.65,-190.49 1212.89,-186.37 1212.45,-193.35"/>
</g>
<!-- den__provides__define_user&#45;&gt;den__provides__define_user -->
<g id="edge22" class="edge">
<title>den__provides__define_user&#45;&gt;den__provides__define_user</title>
<path fill="none" stroke="#a6adc8" d="M884.8,-191.24C875.22,-200.63 895.98,-209.09 947.07,-209.09 977,-209.09 996.52,-206.18 1005.63,-201.89"/>
<polygon fill="#a6adc8" stroke="#a6adc8" points="1008.86,-203.27 1008.83,-192.67 1002.24,-200.97 1008.86,-203.27"/>
</g>
<!-- den__provides__hostname&#45;&gt;default__aspect_default_ -->
<g id="edge23" class="edge">
<title>den__provides__hostname&#45;&gt;default__aspect_default_</title>
<path fill="none" stroke="#a6adc8" d="M1064.03,-102.93C1167.64,-104.57 1317.85,-106.95 1416.22,-108.51"/>
<polygon fill="#a6adc8" stroke="#a6adc8" points="1416.09,-112 1426.14,-108.66 1416.2,-105.01 1416.09,-112"/>
</g>
<!-- den__provides__hostname&#45;&gt;den__provides__hostname -->
<g id="edge24" class="edge">
<title>den__provides__hostname&#45;&gt;den__provides__hostname</title>
<path fill="none" stroke="#a6adc8" d="M884.8,-119.24C875.22,-128.63 895.98,-137.09 947.07,-137.09 977,-137.09 996.52,-134.18 1005.63,-129.89"/>
<polygon fill="#a6adc8" stroke="#a6adc8" points="1008.86,-131.27 1008.83,-120.67 1002.24,-128.97 1008.86,-131.27"/>
</g>
<!-- den__provides__mutual_provider&#45;&gt;default__aspect_default_ -->
<g id="edge25" class="edge">
<title>den__provides__mutual_provider&#45;&gt;default__aspect_default_</title>
<path fill="none" stroke="#a6adc8" d="M1123.03,-226.68C1129.89,-224.14 1136.57,-221.28 1142.99,-218.09 1163.25,-208.01 1159.11,-192.9 1178.99,-182.09 1252.72,-142.01 1346.82,-124.24 1416.85,-116.36"/>
<polygon fill="#a6adc8" stroke="#a6adc8" points="1416.8,-119.88 1426.37,-115.34 1416.05,-112.92 1416.8,-119.88"/>
</g>
<!-- den__provides__mutual_provider&#45;&gt;den__provides__default__aspect_default__den__provides -->
<g id="edge26" class="edge">
<title>den__provides__mutual_provider&#45;&gt;den__provides__default__aspect_default__den__provides</title>
<path fill="none" stroke="#a6adc8" d="M1129.34,-233.6C1180.25,-230.37 1236.27,-226.82 1289.47,-223.45"/>
<polygon fill="#a6adc8" stroke="#a6adc8" points="1289.51,-226.95 1299.27,-222.83 1289.07,-219.97 1289.51,-226.95"/>
</g>
<!-- den__provides__mutual_provider&#45;&gt;den__provides__mutual_provider -->
<g id="edge27" class="edge">
<title>den__provides__mutual_provider&#45;&gt;den__provides__mutual_provider</title>
<path fill="none" stroke="#a6adc8" d="M884.8,-263.24C875.22,-272.63 895.98,-281.09 947.07,-281.09 977,-281.09 996.52,-278.18 1005.63,-273.89"/>
<polygon fill="#a6adc8" stroke="#a6adc8" points="1008.86,-275.27 1008.83,-264.67 1002.24,-272.97 1008.86,-275.27"/>
</g>
</g>
</svg>
