<svg id="my-svg" width="100%" xmlns="http://www.w3.org/2000/svg" xmlns:xlink="http://www.w3.org/1999/xlink" class="flowchart" style="max-width: 90.73px; background-color: rgb(30, 30, 46);" viewBox="4 4 90.72996520996094 55" role="graphics-document document" aria-roledescription="flowchart-v2"><style>#my-svg{font-family:JetBrains Mono,Fira Code,DejaVu Sans Mono,monospace;font-size:16px;fill:#cdd6f4;}@keyframes edge-animation-frame{from{stroke-dashoffset:0;}}@keyframes dash{to{stroke-dashoffset:0;}}#my-svg .edge-animation-slow{stroke-dasharray:9,5!important;stroke-dashoffset:900;animation:dash 50s linear infinite;stroke-linecap:round;}#my-svg .edge-animation-fast{stroke-dasharray:9,5!important;stroke-dashoffset:900;animation:dash 20s linear infinite;stroke-linecap:round;}#my-svg .error-icon{fill:#313244;}#my-svg .error-text{fill:#cdd6f4;stroke:#cdd6f4;}#my-svg .edge-thickness-normal{stroke-width:1px;}#my-svg .edge-thickness-thick{stroke-width:3.5px;}#my-svg .edge-pattern-solid{stroke-dasharray:0;}#my-svg .edge-thickness-invisible{stroke-width:0;fill:none;}#my-svg .edge-pattern-dashed{stroke-dasharray:3;}#my-svg .edge-pattern-dotted{stroke-dasharray:2;}#my-svg .marker{fill:#a6adc8;stroke:#a6adc8;}#my-svg .marker.cross{stroke:#a6adc8;}#my-svg svg{font-family:JetBrains Mono,Fira Code,DejaVu Sans Mono,monospace;font-size:16px;}#my-svg p{margin:0;}#my-svg .label{font-family:JetBrains Mono,Fira Code,DejaVu Sans Mono,monospace;color:#cdd6f4;}#my-svg .cluster-label text{fill:#cdd6f4;}#my-svg .cluster-label span{color:#cdd6f4;}#my-svg .cluster-label span p{background-color:transparent;}#my-svg .label text,#my-svg span{fill:#cdd6f4;color:#cdd6f4;}#my-svg .node rect,#my-svg .node circle,#my-svg .node ellipse,#my-svg .node polygon,#my-svg .node path{fill:#313244;stroke:#a6adc8;stroke-width:1px;}#my-svg .rough-node .label text,#my-svg .node .label text,#my-svg .image-shape .label,#my-svg .icon-shape .label{text-anchor:middle;}#my-svg .node .katex path{fill:#000;stroke:#000;stroke-width:1px;}#my-svg .rough-node .label,#my-svg .node .label,#my-svg .image-shape .label,#my-svg .icon-shape .label{text-align:center;}#my-svg .node.clickable{cursor:pointer;}#my-svg .root .anchor path{fill:#a6adc8!important;stroke-width:0;stroke:#a6adc8;}#my-svg .arrowheadPath{fill:#e1e1d1;}#my-svg .edgePath .path{stroke:#a6adc8;stroke-width:1px;}#my-svg .flowchart-link{stroke:#a6adc8;fill:none;}#my-svg .edgeLabel{background-color:#1e1e2e;text-align:center;}#my-svg .edgeLabel p{background-color:#1e1e2e;}#my-svg .edgeLabel rect{opacity:0.5;background-color:#1e1e2e;fill:#1e1e2e;}#my-svg .labelBkg{background-color:rgba(30, 30, 46, 0.5);}#my-svg .cluster rect{fill:#313244;stroke:#6c7086;stroke-width:1px;}#my-svg .cluster text{fill:#cdd6f4;}#my-svg .cluster span{color:#cdd6f4;}#my-svg div.mermaidTooltip{position:absolute;text-align:center;max-width:200px;padding:2px;font-family:JetBrains Mono,Fira Code,DejaVu Sans Mono,monospace;font-size:12px;background:#313244;border:1px solid #6c7086;border-radius:2px;pointer-events:none;z-index:100;}#my-svg .flowchartTitleText{text-anchor:middle;font-size:18px;fill:#cdd6f4;}#my-svg rect.text{fill:none;stroke-width:0;}#my-svg .icon-shape,#my-svg .image-shape{background-color:#1e1e2e;text-align:center;}#my-svg .icon-shape p,#my-svg .image-shape p{background-color:#1e1e2e;padding:2px;}#my-svg .icon-shape .label rect,#my-svg .image-shape .label rect{opacity:0.5;background-color:#1e1e2e;fill:#1e1e2e;}#my-svg .label-icon{display:inline-block;height:1em;overflow:visible;vertical-align:-0.125em;}#my-svg .node .label-icon path{fill:currentColor;stroke:revert;stroke-width:revert;}#my-svg .node .neo-node{stroke:#a6adc8;}#my-svg [data-look="neo"].node rect,#my-svg [data-look="neo"].cluster rect,#my-svg [data-look="neo"].node polygon{stroke:url(#my-svg-gradient);filter:drop-shadow( 1px 2px 2px rgba(185,185,185,1));}#my-svg [data-look="neo"].node path{stroke:url(#my-svg-gradient);stroke-width:1px;}#my-svg [data-look="neo"].node .outer-path{filter:drop-shadow( 1px 2px 2px rgba(185,185,185,1));}#my-svg [data-look="neo"].node .neo-line path{stroke:#a6adc8;filter:none;}#my-svg [data-look="neo"].node circle{stroke:url(#my-svg-gradient);filter:drop-shadow( 1px 2px 2px rgba(185,185,185,1));}#my-svg [data-look="neo"].node circle .state-start{fill:#000000;}#my-svg [data-look="neo"].icon-shape .icon{fill:url(#my-svg-gradient);filter:drop-shadow( 1px 2px 2px rgba(185,185,185,1));}#my-svg [data-look="neo"].icon-shape .icon-neo path{stroke:url(#my-svg-gradient);filter:drop-shadow( 1px 2px 2px rgba(185,185,185,1));}#my-svg :root{--mermaid-font-family:JetBrains Mono,Fira Code,DejaVu Sans Mono,monospace;}#my-svg .root&gt;*{fill:#89b4fa!important;stroke:#89b4fa!important;color:#1e1e2e!important;font-weight:bold!important;}#my-svg .root span{fill:#89b4fa!important;stroke:#89b4fa!important;color:#1e1e2e!important;font-weight:bold!important;}#my-svg .root tspan{fill:#1e1e2e!important;}</style><g><marker id="my-svg_flowchart-v2-pointEnd" class="marker flowchart-v2" viewBox="0 0 10 10" refX="5" refY="5" markerUnits="userSpaceOnUse" markerWidth="8" markerHeight="8" orient="auto"><path d="M 0 0 L 10 5 L 0 10 z" class="arrowMarkerPath" style="stroke-width: 1; stroke-dasharray: 1, 0;"/></marker><marker id="my-svg_flowchart-v2-pointStart" class="marker flowchart-v2" viewBox="0 0 10 10" refX="4.5" refY="5" markerUnits="userSpaceOnUse" markerWidth="8" markerHeight="8" orient="auto"><path d="M 0 5 L 10 10 L 10 0 z" class="arrowMarkerPath" style="stroke-width: 1; stroke-dasharray: 1, 0;"/></marker><marker id="my-svg_flowchart-v2-pointEnd-margin" class="marker flowchart-v2" viewBox="0 0 11.5 14" refX="11.5" refY="7" markerUnits="userSpaceOnUse" markerWidth="10.5" markerHeight="14" orient="auto"><path d="M 0 0 L 11.5 7 L 0 14 z" class="arrowMarkerPath" style="stroke-width: 0; stroke-dasharray: 1, 0;"/></marker><marker id="my-svg_flowchart-v2-pointStart-margin" class="marker flowchart-v2" viewBox="0 0 11.5 14" refX="1" refY="7" markerUnits="userSpaceOnUse" markerWidth="11.5" markerHeight="14" orient="auto"><polygon points="0,7 11.5,14 11.5,0" class="arrowMarkerPath" style="stroke-width: 0; stroke-dasharray: 1, 0;"/></marker><marker id="my-svg_flowchart-v2-circleEnd" class="marker flowchart-v2" viewBox="0 0 10 10" refX="11" refY="5" markerUnits="userSpaceOnUse" markerWidth="11" markerHeight="11" orient="auto"><circle cx="5" cy="5" r="5" class="arrowMarkerPath" style="stroke-width: 1; stroke-dasharray: 1, 0;"/></marker><marker id="my-svg_flowchart-v2-circleStart" class="marker flowchart-v2" viewBox="0 0 10 10" refX="-1" refY="5" markerUnits="userSpaceOnUse" markerWidth="11" markerHeight="11" orient="auto"><circle cx="5" cy="5" r="5" class="arrowMarkerPath" style="stroke-width: 1; stroke-dasharray: 1, 0;"/></marker><marker id="my-svg_flowchart-v2-circleEnd-margin" class="marker flowchart-v2" viewBox="0 0 10 10" refY="5" refX="12.25" markerUnits="userSpaceOnUse" markerWidth="14" markerHeight="14" orient="auto"><circle cx="5" cy="5" r="5" class="arrowMarkerPath" style="stroke-width: 0; stroke-dasharray: 1, 0;"/></marker><marker id="my-svg_flowchart-v2-circleStart-margin" class="marker flowchart-v2" viewBox="0 0 10 10" refX="-2" refY="5" markerUnits="userSpaceOnUse" markerWidth="14" markerHeight="14" orient="auto"><circle cx="5" cy="5" r="5" class="arrowMarkerPath" style="stroke-width: 0; stroke-dasharray: 1, 0;"/></marker><marker id="my-svg_flowchart-v2-crossEnd" class="marker cross flowchart-v2" viewBox="0 0 11 11" refX="12" refY="5.2" markerUnits="userSpaceOnUse" markerWidth="11" markerHeight="11" orient="auto"><path d="M 1,1 l 9,9 M 10,1 l -9,9" class="arrowMarkerPath" style="stroke-width: 2; stroke-dasharray: 1, 0;"/></marker><marker id="my-svg_flowchart-v2-crossStart" class="marker cross flowchart-v2" viewBox="0 0 11 11" refX="-1" refY="5.2" markerUnits="userSpaceOnUse" markerWidth="11" markerHeight="11" orient="auto"><path d="M 1,1 l 9,9 M 10,1 l -9,9" class="arrowMarkerPath" style="stroke-width: 2; stroke-dasharray: 1, 0;"/></marker><marker id="my-svg_flowchart-v2-crossEnd-margin" class="marker cross flowchart-v2" viewBox="0 0 15 15" refX="17.7" refY="7.5" markerUnits="userSpaceOnUse" markerWidth="12" markerHeight="12" orient="auto"><path d="M 1,1 L 14,14 M 1,14 L 14,1" class="arrowMarkerPath" style="stroke-width: 2.5;"/></marker><marker id="my-svg_flowchart-v2-crossStart-margin" class="marker cross flowchart-v2" viewBox="0 0 15 15" refX="-3.5" refY="7.5" markerUnits="userSpaceOnUse" markerWidth="12" markerHeight="12" orient="auto"><path d="M 1,1 L 14,14 M 1,14 L 14,1" class="arrowMarkerPath" style="stroke-width: 2.5; stroke-dasharray: 1, 0;"/></marker></g><defs><filter id="my-svg-drop-shadow" height="130%" width="130%"><feDropShadow dx="4" dy="4" stdDeviation="0" flood-opacity="0.06" flood-color="#000000"/></filter></defs><defs><filter id="my-svg-drop-shadow-small" height="150%" width="150%"><feDropShadow dx="2" dy="2" stdDeviation="0" flood-opacity="0.06" flood-color="#000000"/></filter></defs><linearGradient id="my-svg-gradient" gradientUnits="objectBoundingBox" x1="0%" y1="0%" x2="100%" y2="0%"><stop offset="0%" stop-color="#a6adc8" stop-opacity="1"/><stop offset="100%" stop-color="#6c7086" stop-opacity="1"/></linearGradient><g class="subgraphs"/><g class="nodes"><g class="node default root " id="my-svg-flowchart-alice-0" data-look="classic" transform="translate(49.36498260498047, 31.5)"><g class="basic label-container outer-path"><path d="M-17.875 -19.5 C-8.714123914247795 -19.5, 0.4467521715044107 -19.5, 17.875 -19.5 C17.875 -19.5, 17.875 -19.5, 17.875 -19.5 C18.325622673397373 -19.48554940794797, 18.77624534679474 -19.471098815895942, 19.1243692896239 -19.45993515863156 C19.473193914706698 -19.42628446657281, 19.822018539789493 -19.392633774514064, 20.368604652847864 -19.3399052695533 C20.656977434936017 -19.29328339450961, 20.94535021702417 -19.246661519465924, 21.60259325967676 -19.140403561325776 C21.986044259932466 -19.052883372769035, 22.36949526018817 -18.965363184212293, 22.82126438623539 -18.862249829261074 C23.079194465296684 -18.785697535698297, 23.33712454435798 -18.709145242135516, 24.019610251460602 -18.50658706670804 C24.457580547837903 -18.345409949088154, 24.895550844215204 -18.184232831468268, 25.192706595147794 -18.074876768247425 C25.59062720756854 -17.898729117024335, 25.988547819989286 -17.722581465801245, 26.33573291279238 -17.568892924097174 C26.612070616148333 -17.42472772125912, 26.888408319504286 -17.280562518421068, 27.443992264076783 -16.990714730406097 C27.816711036971327 -16.76477041993879, 28.189429809865867 -16.538826109471486, 28.512930573605697 -16.342718045390892 C28.855153255222476 -16.103998317276147, 29.197375936839254 -15.8652785891614, 29.538155344578712 -15.627565626425154 C29.905986558608348 -15.33423002163621, 30.273817772637983 -15.040894416847268, 30.51545370850187 -14.848196188198123 C30.734856095704494 -14.648940745209757, 30.95425848290712 -14.44968530222139, 31.440809736767985 -14.007812326905688 C31.64740838732165 -13.794482258144367, 31.854007037875313 -13.581152189383046, 32.31042094296865 -13.10986736009568 C32.62214782884828 -12.743695222179173, 32.93387471472791 -12.377523084262668, 33.12071390812658 -12.158051136245305 C33.330785336608244 -11.87657455998072, 33.5408567650899 -11.595097983716133, 33.868358964640635 -11.156274872382312 C34.06929373490344 -10.84758510671792, 34.270228505166244 -10.538895341053529, 34.55028387860425 -10.108655082055241 C34.69959379630908 -9.843540203901672, 34.84890371401391 -9.578425325748102, 35.163686474273504 -9.019496659696287 C35.35523310344284 -8.621745985784843, 35.54677973261219 -8.223995311873399, 35.70604614880834 -7.893275190886684 C35.86023593528927 -7.512423437222068, 36.0144257217702 -7.1315716835574525, 36.175134229970325 -6.734618561215508 C36.29756141313154 -6.365887391656576, 36.41998859629276 -5.997156222097644, 36.56902313421488 -5.548287939305138 C36.646646511196195 -5.252276360690987, 36.72426988817751 -4.956264782076835, 36.88609428754556 -4.339158212148133 C36.95958744776824 -3.96178636718955, 37.03308060799093 -3.5844145222309662, 37.125044776581774 -3.1121979531509023 C37.159794032718615 -2.8426895845703606, 37.19454328885545 -2.573181215989819, 37.28489270250937 -1.872449005199798 C37.30105451578535 -1.6207157178454648, 37.31721632906134 -1.3689824304911316, 37.36498121591342 -0.6250057626472757 C37.36498121591342 -0.2838337448110837, 37.36498121591342 0.0573382730251083, 37.36498121591342 0.625005762647271 C37.33360177249233 1.1137659229615369, 37.30222232907124 1.6025260832758028, 37.28489270250937 1.8724490051997846 C37.25256846499712 2.1231494082021127, 37.22024422748487 2.3738498112044413, 37.125044776581774 3.1121979531508885 C37.05956032235778 3.4484467854467824, 36.99407586813379 3.7846956177426763, 36.88609428754556 4.339158212148129 C36.79272308688328 4.695223067607778, 36.69935188622099 5.051287923067429, 36.56902313421489 5.548287939305125 C36.42815774545425 5.972552046400393, 36.28729235669361 6.396816153495661, 36.175134229970325 6.734618561215495 C35.99531882686868 7.178766083370875, 35.815503423767034 7.622913605526256, 35.70604614880834 7.893275190886679 C35.5063335479496 8.30798267973497, 35.306620947090856 8.72269016858326, 35.163686474273504 9.019496659696284 C35.02808564422657 9.2602696645176, 34.89248481417964 9.501042669338915, 34.55028387860425 10.108655082055236 C34.39186857356593 10.352023531059727, 34.233453268527605 10.595391980064218, 33.86835896464064 11.156274872382301 C33.67960398746934 11.409189345859668, 33.49084901029804 11.662103819337034, 33.12071390812658 12.158051136245302 C32.82006955973225 12.511205095017338, 32.51942521133791 12.864359053789375, 32.31042094296866 13.10986736009567 C32.07875361431679 13.349082897170137, 31.847086285664922 13.588298434244603, 31.44080973676799 14.007812326905684 C31.11191056009696 14.306509856962967, 30.783011383425926 14.605207387020249, 30.515453708501887 14.848196188198111 C30.13242758772545 15.153649326764178, 29.74940146694901 15.459102465330247, 29.538155344578715 15.627565626425152 C29.21094884412592 15.85581071659991, 28.883742343673124 16.084055806774668, 28.512930573605708 16.34271804539089 C28.254952568077332 16.49910582838923, 27.996974562548957 16.65549361138757, 27.443992264076787 16.990714730406093 C27.079831341822445 17.18069725028998, 26.715670419568102 17.37067977017387, 26.335732912792388 17.56889292409717 C25.996339185802043 17.719132459278594, 25.656945458811695 17.869371994460018, 25.192706595147804 18.07487676824742 C24.937242752659138 18.168889823765124, 24.681778910170472 18.262902879282823, 24.019610251460616 18.506587066708033 C23.613975489277017 18.62697733490381, 23.208340727093415 18.74736760309959, 22.821264386235413 18.86224982926107 C22.378428146377047 18.963324311232213, 21.93559190651868 19.064398793203356, 21.602593259676766 19.140403561325773 C21.200132051645323 19.205470368307015, 20.797670843613876 19.270537175288258, 20.36860465284788 19.3399052695533 C20.003672433393405 19.375109841868866, 19.638740213938934 19.41031441418443, 19.1243692896239 19.45993515863156 C18.67350375787521 19.47439353867822, 18.22263822612652 19.48885191872488, 17.875000000000004 19.5 C17.875000000000004 19.5, 17.875 19.5, 17.875 19.5 C9.81450043357465 19.5, 1.7540008671493013 19.5, -17.874999999999996 19.5 C-18.300032908890756 19.48637002188824, -18.725065817781516 19.472740043776486, -19.124369289623893 19.45993515863156 C-19.448758630437656 19.428641709058518, -19.773147971251415 19.397348259485476, -20.36860465284787 19.3399052695533 C-20.7068099051067 19.285226867188996, -21.045015157365526 19.23054846482469, -21.60259325967676 19.140403561325773 C-22.037300728820785 19.04118441822499, -22.472008197964815 18.94196527512421, -22.821264386235388 18.862249829261074 C-23.18653832147478 18.753838442644035, -23.55181225671417 18.645427056026996, -24.01961025146059 18.506587066708043 C-24.371697790932675 18.37701559752078, -24.72378533040476 18.247444128333516, -25.192706595147797 18.074876768247425 C-25.530337887350175 17.925417410665865, -25.867969179552553 17.775958053084306, -26.33573291279238 17.568892924097174 C-26.57779836300278 17.44260753377273, -26.819863813213182 17.316322143448286, -27.44399226407678 16.990714730406097 C-27.751029136802448 16.80458717381085, -28.05806600952812 16.618459617215606, -28.512930573605686 16.3427180453909 C-28.802285482872982 16.140876586658173, -29.09164039214028 15.939035127925447, -29.538155344578712 15.627565626425156 C-29.891177600391416 15.346039771731288, -30.24419985620412 15.06451391703742, -30.51545370850187 14.848196188198125 C-30.791244774966017 14.597730038667137, -31.06703584143017 14.347263889136151, -31.440809736767974 14.007812326905697 C-31.767942169366833 13.670021232175168, -32.09507460196569 13.332230137444638, -32.310420942968655 13.109867360095677 C-32.58796142190009 12.783852521042181, -32.86550190083152 12.457837681988686, -33.120713908126575 12.158051136245307 C-33.390422648098514 11.796665995654598, -33.66013138807045 11.43528085506389, -33.868358964640635 11.156274872382316 C-34.06032770875304 10.861359330600068, -34.25229645286545 10.566443788817821, -34.55028387860425 10.108655082055249 C-34.67680040722486 9.884012174301636, -34.803316935845466 9.659369266548024, -35.163686474273504 9.019496659696289 C-35.28593883978083 8.765637006938745, -35.408191205288155 8.511777354181199, -35.70604614880834 7.893275190886686 C-35.86994488484747 7.488442144103546, -36.0338436208866 7.083609097320406, -36.175134229970325 6.73461856121551 C-36.29092026246636 6.385889479336452, -36.40670629496239 6.037160397457395, -36.56902313421488 5.5482879393051325 C-36.69264879767689 5.076849704823028, -36.816274461138896 4.605411470340923, -36.88609428754556 4.339158212148136 C-36.935355953161825 4.086209970665335, -36.98461761877809 3.8332617291825333, -37.125044776581774 3.112197953150904 C-37.18878266931279 2.617859443599674, -37.25252056204381 2.1235209340484444, -37.28489270250937 1.872449005199809 C-37.31561161990315 1.3939770709277886, -37.346330537296936 0.9155051366557683, -37.36498121591342 0.6250057626472781 C-37.36498121591342 0.2910226893831013, -37.36498121591342 -0.04296038388107559, -37.36498121591342 -0.6250057626472687 C-37.34308536733422 -0.9660512782791411, -37.32118951875502 -1.3070967939110134, -37.28489270250937 -1.8724490051997822 C-37.25085475584525 -2.1364405979738255, -37.21681680918114 -2.4004321907478685, -37.125044776581774 -3.112197953150895 C-37.035688450897894 -3.5710238000715164, -36.946332125214006 -4.029849646992138, -36.88609428754556 -4.339158212148126 C-36.76548328655475 -4.799100232064596, -36.644872285563935 -5.259042251981066, -36.56902313421489 -5.548287939305123 C-36.440091841758985 -5.936608449770559, -36.31116054930308 -6.3249289602359955, -36.17513422997033 -6.734618561215485 C-36.02982019111895 -7.093547046634203, -35.884506152267576 -7.452475532052922, -35.70604614880834 -7.893275190886676 C-35.5083596351128 -8.303775466389267, -35.31067312141725 -8.714275741891857, -35.163686474273504 -9.019496659696282 C-35.024815522086854 -9.266076097512448, -34.8859445699002 -9.512655535328614, -34.55028387860425 -10.108655082055243 C-34.39718377977438 -10.343857946990838, -34.24408368094451 -10.579060811926432, -33.86835896464064 -11.156274872382308 C-33.709108781255956 -11.36965561012762, -33.54985859787128 -11.58303634787293, -33.12071390812659 -12.158051136245302 C-32.87713963878953 -12.444167332777168, -32.63356536945247 -12.730283529309032, -32.31042094296866 -13.10986736009567 C-31.994388660834577 -13.436196638132019, -31.678356378700492 -13.762525916168368, -31.440809736767996 -14.007812326905677 C-31.146045071382897 -14.275509796962751, -30.8512804059978 -14.543207267019826, -30.515453708501887 -14.848196188198107 C-30.16523246297183 -15.127488311729582, -29.815011217441768 -15.406780435261055, -29.53815534457872 -15.627565626425149 C-29.233096882383204 -15.840361203884752, -28.92803842018769 -16.053156781344356, -28.51293057360571 -16.342718045390885 C-28.161564114918868 -16.555718457505357, -27.810197656232024 -16.76871886961983, -27.44399226407679 -16.99071473040609 C-27.203520366353317 -17.116168765418827, -26.96304846862984 -17.24162280043156, -26.335732912792388 -17.56889292409717 C-25.879009435332303 -17.77107085934816, -25.422285957872216 -17.97324879459915, -25.192706595147804 -18.07487676824742 C-24.93377074268548 -18.170167555530337, -24.674834890223153 -18.265458342813254, -24.01961025146062 -18.506587066708033 C-23.71890533029668 -18.59583470887715, -23.41820040913274 -18.685082351046265, -22.821264386235413 -18.862249829261067 C-22.562800470066556 -18.92124253149193, -22.304336553897695 -18.980235233722798, -21.602593259676766 -19.140403561325773 C-21.296487642988776 -19.189892343547378, -20.990382026300782 -19.23938112576898, -20.368604652847882 -19.3399052695533 C-20.081748671569873 -19.367577921072396, -19.79489269029186 -19.395250572591493, -19.124369289623903 -19.45993515863156 C-18.761561785417374 -19.471569689129495, -18.398754281210845 -19.48320421962743, -17.875000000000007 -19.5 C-17.875000000000004 -19.5, -17.875000000000004 -19.5, -17.875 -19.5" stroke="none" stroke-width="0" fill="#89b4fa" style="fill:#89b4fa !important;stroke:#89b4fa !important"/><path d="M-17.875 -19.5 C-10.03138068421878 -19.5, -2.1877613684375596 -19.5, 17.875 -19.5 M-17.875 -19.5 C-6.128175313410587 -19.5, 5.618649373178826 -19.5, 17.875 -19.5 M17.875 -19.5 C17.875 -19.5, 17.875 -19.5, 17.875 -19.5 M17.875 -19.5 C17.875 -19.5, 17.875 -19.5, 17.875 -19.5 M17.875 -19.5 C18.20281863724043 -19.489487494363967, 18.53063727448086 -19.478974988727938, 19.1243692896239 -19.45993515863156 M17.875 -19.5 C18.24348826637091 -19.488183298516386, 18.611976532741817 -19.47636659703277, 19.1243692896239 -19.45993515863156 M19.1243692896239 -19.45993515863156 C19.46815441565445 -19.426770620985497, 19.811939541685003 -19.393606083339435, 20.368604652847864 -19.3399052695533 M19.1243692896239 -19.45993515863156 C19.49805431787531 -19.423886213378143, 19.871739346126727 -19.38783726812473, 20.368604652847864 -19.3399052695533 M20.368604652847864 -19.3399052695533 C20.658968714712817 -19.292961459837905, 20.94933277657777 -19.24601765012251, 21.60259325967676 -19.140403561325776 M20.368604652847864 -19.3399052695533 C20.682091091376147 -19.289223213295685, 20.995577529904434 -19.238541157038075, 21.60259325967676 -19.140403561325776 M21.60259325967676 -19.140403561325776 C22.05091910879028 -19.03807611186519, 22.4992449579038 -18.935748662404606, 22.82126438623539 -18.862249829261074 M21.60259325967676 -19.140403561325776 C21.966567380800733 -19.05732884333234, 22.33054150192471 -18.974254125338902, 22.82126438623539 -18.862249829261074 M22.82126438623539 -18.862249829261074 C23.142873291412997 -18.76679799436395, 23.464482196590605 -18.671346159466832, 24.019610251460602 -18.50658706670804 M22.82126438623539 -18.862249829261074 C23.210878778630942 -18.746614322725755, 23.600493171026496 -18.63097881619043, 24.019610251460602 -18.50658706670804 M24.019610251460602 -18.50658706670804 C24.43025758272252 -18.355465052821337, 24.840904913984435 -18.20434303893463, 25.192706595147794 -18.074876768247425 M24.019610251460602 -18.50658706670804 C24.352688989767863 -18.384011012064864, 24.68576772807512 -18.261434957421685, 25.192706595147794 -18.074876768247425 M25.192706595147794 -18.074876768247425 C25.523800425975203 -17.92831135088966, 25.85489425680261 -17.7817459335319, 26.33573291279238 -17.568892924097174 M25.192706595147794 -18.074876768247425 C25.599269275955365 -17.89490352970734, 26.005831956762936 -17.71493029116725, 26.33573291279238 -17.568892924097174 M26.33573291279238 -17.568892924097174 C26.720018723463323 -17.368411262816952, 27.104304534134265 -17.167929601536734, 27.443992264076783 -16.990714730406097 M26.33573291279238 -17.568892924097174 C26.74737798701078 -17.35413795254869, 27.159023061229178 -17.139382981000207, 27.443992264076783 -16.990714730406097 M27.443992264076783 -16.990714730406097 C27.780513200259296 -16.786713761275724, 28.11703413644181 -16.58271279214535, 28.512930573605697 -16.342718045390892 M27.443992264076783 -16.990714730406097 C27.743911665142548 -16.808901826957992, 28.04383106620831 -16.627088923509888, 28.512930573605697 -16.342718045390892 M28.512930573605697 -16.342718045390892 C28.72049531794071 -16.19792986507575, 28.928060062275726 -16.05314168476061, 29.538155344578712 -15.627565626425154 M28.512930573605697 -16.342718045390892 C28.851116443635895 -16.106814222288186, 29.189302313666097 -15.870910399185481, 29.538155344578712 -15.627565626425154 M29.538155344578712 -15.627565626425154 C29.91775757724329 -15.324842947514806, 30.297359809907864 -15.02212026860446, 30.51545370850187 -14.848196188198123 M29.538155344578712 -15.627565626425154 C29.766204101972907 -15.445702811035586, 29.994252859367098 -15.263839995646016, 30.51545370850187 -14.848196188198123 M30.51545370850187 -14.848196188198123 C30.79426899655165 -14.594983520639586, 31.073084284601432 -14.341770853081046, 31.440809736767985 -14.007812326905688 M30.51545370850187 -14.848196188198123 C30.82671528272704 -14.565516662016785, 31.13797685695221 -14.282837135835447, 31.440809736767985 -14.007812326905688 M31.440809736767985 -14.007812326905688 C31.781287547188025 -13.65624103389889, 32.12176535760807 -13.304669740892095, 32.31042094296865 -13.10986736009568 M31.440809736767985 -14.007812326905688 C31.682566676517776 -13.758178438000142, 31.924323616267568 -13.508544549094594, 32.31042094296865 -13.10986736009568 M32.31042094296865 -13.10986736009568 C32.62457972514987 -12.740838578404498, 32.9387385073311 -12.371809796713316, 33.12071390812658 -12.158051136245305 M32.31042094296865 -13.10986736009568 C32.500357103052906 -12.886757538787036, 32.690293263137164 -12.663647717478389, 33.12071390812658 -12.158051136245305 M33.12071390812658 -12.158051136245305 C33.38209186204586 -11.807828490014927, 33.64346981596515 -11.457605843784549, 33.868358964640635 -11.156274872382312 M33.12071390812658 -12.158051136245305 C33.314689759333206 -11.89814116719201, 33.50866561053983 -11.638231198138715, 33.868358964640635 -11.156274872382312 M33.868358964640635 -11.156274872382312 C34.02204516455398 -10.92017159879232, 34.175731364467325 -10.684068325202329, 34.55028387860425 -10.108655082055241 M33.868358964640635 -11.156274872382312 C34.100610553854594 -10.799474063065583, 34.33286214306855 -10.442673253748852, 34.55028387860425 -10.108655082055241 M34.55028387860425 -10.108655082055241 C34.72676292965833 -9.795298656467002, 34.9032419807124 -9.481942230878765, 35.163686474273504 -9.019496659696287 M34.55028387860425 -10.108655082055241 C34.721484967475405 -9.804670212774404, 34.89268605634656 -9.500685343493565, 35.163686474273504 -9.019496659696287 M35.163686474273504 -9.019496659696287 C35.36174407266783 -8.608225818876727, 35.55980167106217 -8.196954978057168, 35.70604614880834 -7.893275190886684 M35.163686474273504 -9.019496659696287 C35.27680254594556 -8.784608716573063, 35.3899186176176 -8.549720773449836, 35.70604614880834 -7.893275190886684 M35.70604614880834 -7.893275190886684 C35.88790487683297 -7.444080616666536, 36.0697636048576 -6.994886042446388, 36.175134229970325 -6.734618561215508 M35.70604614880834 -7.893275190886684 C35.807779077721925 -7.641992889597756, 35.90951200663551 -7.390710588308827, 36.175134229970325 -6.734618561215508 M36.175134229970325 -6.734618561215508 C36.26978923092835 -6.449532779556262, 36.36444423188638 -6.164446997897015, 36.56902313421488 -5.548287939305138 M36.175134229970325 -6.734618561215508 C36.25513755366837 -6.493661297035578, 36.33514087736641 -6.252704032855648, 36.56902313421488 -5.548287939305138 M36.56902313421488 -5.548287939305138 C36.695529025830844 -5.065866146573233, 36.8220349174468 -4.58344435384133, 36.88609428754556 -4.339158212148133 M36.56902313421488 -5.548287939305138 C36.65362006885523 -5.225683162978088, 36.73821700349558 -4.903078386651038, 36.88609428754556 -4.339158212148133 M36.88609428754556 -4.339158212148133 C36.96565818110689 -3.930614434545558, 37.04522207466822 -3.5220706569429834, 37.125044776581774 -3.1121979531509023 M36.88609428754556 -4.339158212148133 C36.94175025693452 -4.053376572229138, 36.99740622632347 -3.767594932310143, 37.125044776581774 -3.1121979531509023 M37.125044776581774 -3.1121979531509023 C37.161952160190864 -2.825951574066055, 37.198859543799955 -2.5397051949812077, 37.28489270250937 -1.872449005199798 M37.125044776581774 -3.1121979531509023 C37.18650471814317 -2.635526783038954, 37.247964659704564 -2.158855612927006, 37.28489270250937 -1.872449005199798 M37.28489270250937 -1.872449005199798 C37.30856370861386 -1.5037539782300642, 37.33223471471836 -1.1350589512603304, 37.36498121591342 -0.6250057626472757 M37.28489270250937 -1.872449005199798 C37.30517692117289 -1.5565059263888297, 37.32546113983641 -1.2405628475778614, 37.36498121591342 -0.6250057626472757 M37.36498121591342 -0.6250057626472757 C37.36498121591342 -0.1316059666768194, 37.36498121591342 0.3617938292936369, 37.36498121591342 0.625005762647271 M37.36498121591342 -0.6250057626472757 C37.36498121591342 -0.3464075184732134, 37.36498121591342 -0.06780927429915107, 37.36498121591342 0.625005762647271 M37.36498121591342 0.625005762647271 C37.34296901185085 0.9678636088531577, 37.32095680778827 1.3107214550590442, 37.28489270250937 1.8724490051997846 M37.36498121591342 0.625005762647271 C37.340116445406274 1.0122946337775132, 37.31525167489913 1.3995835049077552, 37.28489270250937 1.8724490051997846 M37.28489270250937 1.8724490051997846 C37.24238099757133 2.202161393813503, 37.1998692926333 2.5318737824272217, 37.125044776581774 3.1121979531508885 M37.28489270250937 1.8724490051997846 C37.24017841988406 2.2192441514078296, 37.19546413725875 2.5660392976158746, 37.125044776581774 3.1121979531508885 M37.125044776581774 3.1121979531508885 C37.05948660745008 3.4488252959181698, 36.99392843831839 3.7854526386854515, 36.88609428754556 4.339158212148129 M37.125044776581774 3.1121979531508885 C37.04406438294293 3.528015159274121, 36.96308398930408 3.9438323653973537, 36.88609428754556 4.339158212148129 M36.88609428754556 4.339158212148129 C36.79878690309199 4.672099108329382, 36.71147951863842 5.0050400045106365, 36.56902313421489 5.548287939305125 M36.88609428754556 4.339158212148129 C36.78030100167946 4.742593862255713, 36.674507715813355 5.146029512363299, 36.56902313421489 5.548287939305125 M36.56902313421489 5.548287939305125 C36.41363055876543 6.016305618114231, 36.258237983315986 6.484323296923337, 36.175134229970325 6.734618561215495 M36.56902313421489 5.548287939305125 C36.420234808226574 5.996414670981533, 36.27144648223826 6.444541402657941, 36.175134229970325 6.734618561215495 M36.175134229970325 6.734618561215495 C36.03359657375112 7.084219308521365, 35.892058917531905 7.433820055827236, 35.70604614880834 7.893275190886679 M36.175134229970325 6.734618561215495 C36.01990692537608 7.118033004679063, 35.86467962078183 7.501447448142632, 35.70604614880834 7.893275190886679 M35.70604614880834 7.893275190886679 C35.49228772751446 8.337149126400956, 35.27852930622058 8.781023061915231, 35.163686474273504 9.019496659696284 M35.70604614880834 7.893275190886679 C35.562831315167855 8.1906638572477, 35.41961648152737 8.48805252360872, 35.163686474273504 9.019496659696284 M35.163686474273504 9.019496659696284 C34.94657340567075 9.405002898082648, 34.729460337068 9.790509136469012, 34.55028387860425 10.108655082055236 M35.163686474273504 9.019496659696284 C34.94551724305093 9.406878221762202, 34.727348011828354 9.794259783828123, 34.55028387860425 10.108655082055236 M34.55028387860425 10.108655082055236 C34.32393877457291 10.456381944018116, 34.09759367054156 10.804108805980995, 33.86835896464064 11.156274872382301 M34.55028387860425 10.108655082055236 C34.35372592495774 10.410620882057163, 34.157167971311246 10.712586682059092, 33.86835896464064 11.156274872382301 M33.86835896464064 11.156274872382301 C33.716133830020084 11.360242684778795, 33.563908695399526 11.56421049717529, 33.12071390812658 12.158051136245302 M33.86835896464064 11.156274872382301 C33.578731044836694 11.544349899273294, 33.289103125032746 11.932424926164288, 33.12071390812658 12.158051136245302 M33.12071390812658 12.158051136245302 C32.82082410804499 12.510318759634174, 32.520934307963394 12.862586383023048, 32.31042094296866 13.10986736009567 M33.12071390812658 12.158051136245302 C32.85771942890475 12.466979416349067, 32.59472494968292 12.775907696452833, 32.31042094296866 13.10986736009567 M32.31042094296866 13.10986736009567 C32.07626162761277 13.351656078037951, 31.84210231225688 13.593444795980233, 31.44080973676799 14.007812326905684 M32.31042094296866 13.10986736009567 C32.05024551966863 13.378519845452466, 31.790070096368588 13.647172330809262, 31.44080973676799 14.007812326905684 M31.44080973676799 14.007812326905684 C31.09319003988688 14.323511338099934, 30.745570343005777 14.639210349294185, 30.515453708501887 14.848196188198111 M31.44080973676799 14.007812326905684 C31.243208954307562 14.18726812930604, 31.045608171847135 14.366723931706394, 30.515453708501887 14.848196188198111 M30.515453708501887 14.848196188198111 C30.15198488678115 15.138052901208841, 29.788516065060417 15.42790961421957, 29.538155344578715 15.627565626425152 M30.515453708501887 14.848196188198111 C30.24487413337348 15.063976198938123, 29.974294558245074 15.279756209678135, 29.538155344578715 15.627565626425152 M29.538155344578715 15.627565626425152 C29.287624936307996 15.802324793948227, 29.037094528037276 15.977083961471303, 28.512930573605708 16.34271804539089 M29.538155344578715 15.627565626425152 C29.30729875059456 15.788601192767617, 29.0764421566104 15.94963675911008, 28.512930573605708 16.34271804539089 M28.512930573605708 16.34271804539089 C28.126065771782596 16.577237761725986, 27.739200969959484 16.811757478061082, 27.443992264076787 16.990714730406093 M28.512930573605708 16.34271804539089 C28.17356088372027 16.54844594575711, 27.834191193834833 16.75417384612333, 27.443992264076787 16.990714730406093 M27.443992264076787 16.990714730406093 C27.07943800506933 17.180902453822135, 26.714883746061872 17.37109017723818, 26.335732912792388 17.56889292409717 M27.443992264076787 16.990714730406093 C27.06021924234599 17.190928870024695, 26.676446220615198 17.3911430096433, 26.335732912792388 17.56889292409717 M26.335732912792388 17.56889292409717 C25.89249677839265 17.765100412663163, 25.44926064399291 17.96130790122915, 25.192706595147804 18.07487676824742 M26.335732912792388 17.56889292409717 C26.09990750955497 17.67328583459834, 25.864082106317557 17.777678745099507, 25.192706595147804 18.07487676824742 M25.192706595147804 18.07487676824742 C24.895396514187247 18.184289626345166, 24.59808643322669 18.293702484442914, 24.019610251460616 18.506587066708033 M25.192706595147804 18.07487676824742 C24.756150781926603 18.23553334299052, 24.319594968705406 18.396189917733622, 24.019610251460616 18.506587066708033 M24.019610251460616 18.506587066708033 C23.62212348957924 18.624559051183837, 23.224636727697863 18.742531035659642, 22.821264386235413 18.86224982926107 M24.019610251460616 18.506587066708033 C23.5806424375711 18.636870409681368, 23.141674623681585 18.767153752654703, 22.821264386235413 18.86224982926107 M22.821264386235413 18.86224982926107 C22.373875501411923 18.964363422736717, 21.92648661658843 19.066477016212367, 21.602593259676766 19.140403561325773 M22.821264386235413 18.86224982926107 C22.352497175627246 18.969242886090456, 21.88372996501908 19.076235942919844, 21.602593259676766 19.140403561325773 M21.602593259676766 19.140403561325773 C21.212952939160072 19.203397586641096, 20.823312618643378 19.266391611956422, 20.36860465284788 19.3399052695533 M21.602593259676766 19.140403561325773 C21.1828664638939 19.208261734638032, 20.76313966811104 19.27611990795029, 20.36860465284788 19.3399052695533 M20.36860465284788 19.3399052695533 C20.011925677826266 19.374313661304406, 19.655246702804654 19.408722053055513, 19.1243692896239 19.45993515863156 M20.36860465284788 19.3399052695533 C20.00334475585747 19.375141452526666, 19.63808485886706 19.410377635500037, 19.1243692896239 19.45993515863156 M19.1243692896239 19.45993515863156 C18.635080235796366 19.47562570624444, 18.145791181968832 19.49131625385732, 17.875000000000004 19.5 M19.1243692896239 19.45993515863156 C18.82045947311508 19.469680954922424, 18.51654965660626 19.47942675121329, 17.875000000000004 19.5 M17.875000000000004 19.5 C17.875000000000004 19.5, 17.875 19.5, 17.875 19.5 M17.875000000000004 19.5 C17.875000000000004 19.5, 17.875000000000004 19.5, 17.875 19.5 M17.875 19.5 C10.209301419950812 19.5, 2.5436028399016237 19.5, -17.874999999999996 19.5 M17.875 19.5 C4.881991707213414 19.5, -8.111016585573172 19.5, -17.874999999999996 19.5 M-17.874999999999996 19.5 C-18.263721813871886 19.48753444803024, -18.65244362774377 19.475068896060478, -19.124369289623893 19.45993515863156 M-17.874999999999996 19.5 C-18.135495576690822 19.491646413879405, -18.39599115338165 19.483292827758813, -19.124369289623893 19.45993515863156 M-19.124369289623893 19.45993515863156 C-19.43399980174407 19.4300654755125, -19.743630313864244 19.400195792393436, -20.36860465284787 19.3399052695533 M-19.124369289623893 19.45993515863156 C-19.559813122958086 19.417928415727637, -19.995256956292277 19.37592167282372, -20.36860465284787 19.3399052695533 M-20.36860465284787 19.3399052695533 C-20.735689260459242 19.280557876978342, -21.102773868070614 19.221210484403382, -21.60259325967676 19.140403561325773 M-20.36860465284787 19.3399052695533 C-20.743796594018693 19.279247146161758, -21.11898853518952 19.21858902277022, -21.60259325967676 19.140403561325773 M-21.60259325967676 19.140403561325773 C-22.023333762118174 19.044372287231887, -22.444074264559593 18.948341013138002, -22.821264386235388 18.862249829261074 M-21.60259325967676 19.140403561325773 C-22.043692737473894 19.039725483961675, -22.48479221527103 18.939047406597577, -22.821264386235388 18.862249829261074 M-22.821264386235388 18.862249829261074 C-23.1448287904727 18.766217612507656, -23.468393194710014 18.67018539575424, -24.01961025146059 18.506587066708043 M-22.821264386235388 18.862249829261074 C-23.157109464197184 18.762572773008802, -23.49295454215898 18.66289571675653, -24.01961025146059 18.506587066708043 M-24.01961025146059 18.506587066708043 C-24.296163335727773 18.404812975269035, -24.572716419994954 18.303038883830023, -25.192706595147797 18.074876768247425 M-24.01961025146059 18.506587066708043 C-24.47778736682014 18.337973652912904, -24.93596448217969 18.169360239117765, -25.192706595147797 18.074876768247425 M-25.192706595147797 18.074876768247425 C-25.46556816313165 17.954089046251802, -25.738429731115502 17.83330132425618, -26.33573291279238 17.568892924097174 M-25.192706595147797 18.074876768247425 C-25.60597363679597 17.891935708041, -26.01924067844414 17.708994647834576, -26.33573291279238 17.568892924097174 M-26.33573291279238 17.568892924097174 C-26.70685293401129 17.375279846740987, -27.077972955230198 17.1816667693848, -27.44399226407678 16.990714730406097 M-26.33573291279238 17.568892924097174 C-26.716428748099208 17.370284150664922, -27.09712458340604 17.17167537723267, -27.44399226407678 16.990714730406097 M-27.44399226407678 16.990714730406097 C-27.704717011987785 16.832661856033756, -27.965441759898795 16.674608981661414, -28.512930573605686 16.3427180453909 M-27.44399226407678 16.990714730406097 C-27.85881643837352 16.739245878169974, -28.27364061267026 16.487777025933852, -28.512930573605686 16.3427180453909 M-28.512930573605686 16.3427180453909 C-28.89746178765537 16.07448571655781, -29.281993001705054 15.806253387724722, -29.538155344578712 15.627565626425156 M-28.512930573605686 16.3427180453909 C-28.883345347982367 16.084332733782873, -29.253760122359047 15.825947422174846, -29.538155344578712 15.627565626425156 M-29.538155344578712 15.627565626425156 C-29.84959240873067 15.37920285545231, -30.161029472882625 15.13084008447946, -30.51545370850187 14.848196188198125 M-29.538155344578712 15.627565626425156 C-29.820057111923553 15.402756468688725, -30.101958879268395 15.177947310952296, -30.51545370850187 14.848196188198125 M-30.51545370850187 14.848196188198125 C-30.72641534685466 14.656606409985201, -30.937376985207454 14.465016631772276, -31.440809736767974 14.007812326905697 M-30.51545370850187 14.848196188198125 C-30.874538861853097 14.522084552797068, -31.23362401520432 14.19597291739601, -31.440809736767974 14.007812326905697 M-31.440809736767974 14.007812326905697 C-31.74250549887367 13.696286682848847, -32.044201260979364 13.384761038791996, -32.310420942968655 13.109867360095677 M-31.440809736767974 14.007812326905697 C-31.65319196092964 13.78851024355389, -31.865574185091308 13.569208160202086, -32.310420942968655 13.109867360095677 M-32.310420942968655 13.109867360095677 C-32.52385620733862 12.859154153756123, -32.73729147170859 12.60844094741657, -33.120713908126575 12.158051136245307 M-32.310420942968655 13.109867360095677 C-32.51103707553378 12.874212235403355, -32.7116532080989 12.638557110711034, -33.120713908126575 12.158051136245307 M-33.120713908126575 12.158051136245307 C-33.40656622864746 11.775035068429446, -33.69241854916835 11.392019000613585, -33.868358964640635 11.156274872382316 M-33.120713908126575 12.158051136245307 C-33.31391106026812 11.899184552998284, -33.507108212409655 11.640317969751258, -33.868358964640635 11.156274872382316 M-33.868358964640635 11.156274872382316 C-34.122383056227434 10.766025652685396, -34.37640714781424 10.375776432988477, -34.55028387860425 10.108655082055249 M-33.868358964640635 11.156274872382316 C-34.01125566640509 10.936747165334943, -34.15415236816955 10.71721945828757, -34.55028387860425 10.108655082055249 M-34.55028387860425 10.108655082055249 C-34.740488020984515 9.770928367001156, -34.93069216336478 9.433201651947064, -35.163686474273504 9.019496659696289 M-34.55028387860425 10.108655082055249 C-34.67551636088233 9.886292128606588, -34.80074884316041 9.663929175157925, -35.163686474273504 9.019496659696289 M-35.163686474273504 9.019496659696289 C-35.354510708091844 8.623246055187975, -35.54533494191019 8.226995450679663, -35.70604614880834 7.893275190886686 M-35.163686474273504 9.019496659696289 C-35.276782600243635 8.784650134249878, -35.38987872621376 8.549803608803465, -35.70604614880834 7.893275190886686 M-35.70604614880834 7.893275190886686 C-35.84983136002367 7.538122939286877, -35.993616571239 7.182970687687068, -36.175134229970325 6.73461856121551 M-35.70604614880834 7.893275190886686 C-35.89080484719766 7.436917633798654, -36.07556354558697 6.9805600767106215, -36.175134229970325 6.73461856121551 M-36.175134229970325 6.73461856121551 C-36.259045598973046 6.48189088724036, -36.342956967975766 6.2291632132652115, -36.56902313421488 5.5482879393051325 M-36.175134229970325 6.73461856121551 C-36.259388307229656 6.480858704574594, -36.34364238448899 6.227098847933678, -36.56902313421488 5.5482879393051325 M-36.56902313421488 5.5482879393051325 C-36.653193951834346 5.227308131858993, -36.73736476945381 4.906328324412854, -36.88609428754556 4.339158212148136 M-36.56902313421488 5.5482879393051325 C-36.69247397802211 5.077516367934018, -36.81592482182934 4.606744796562903, -36.88609428754556 4.339158212148136 M-36.88609428754556 4.339158212148136 C-36.93407995464428 4.092761953370513, -36.98206562174301 3.84636569459289, -37.125044776581774 3.112197953150904 M-36.88609428754556 4.339158212148136 C-36.94700171159632 4.026411462436107, -37.00790913564708 3.713664712724078, -37.125044776581774 3.112197953150904 M-37.125044776581774 3.112197953150904 C-37.18622951486457 2.637661205322728, -37.24741425314737 2.1631244574945523, -37.28489270250937 1.872449005199809 M-37.125044776581774 3.112197953150904 C-37.16728716919193 2.7845742977704946, -37.20952956180208 2.4569506423900855, -37.28489270250937 1.872449005199809 M-37.28489270250937 1.872449005199809 C-37.31337765396981 1.4287728935644475, -37.34186260543025 0.9850967819290859, -37.36498121591342 0.6250057626472781 M-37.28489270250937 1.872449005199809 C-37.30786225064745 1.514679752263541, -37.330831798785546 1.1569104993272727, -37.36498121591342 0.6250057626472781 M-37.36498121591342 0.6250057626472781 C-37.36498121591342 0.22514702390030905, -37.36498121591342 -0.17471171484666004, -37.36498121591342 -0.6250057626472687 M-37.36498121591342 0.6250057626472781 C-37.36498121591342 0.3326861936805728, -37.36498121591342 0.04036662471386743, -37.36498121591342 -0.6250057626472687 M-37.36498121591342 -0.6250057626472687 C-37.33779996541837 -1.0483756794181311, -37.31061871492332 -1.4717455961889938, -37.28489270250937 -1.8724490051997822 M-37.36498121591342 -0.6250057626472687 C-37.3424594751322 -0.9758000545365983, -37.319937734350994 -1.326594346425928, -37.28489270250937 -1.8724490051997822 M-37.28489270250937 -1.8724490051997822 C-37.2300042616705 -2.298152913397408, -37.175115820831635 -2.7238568215950334, -37.125044776581774 -3.112197953150895 M-37.28489270250937 -1.8724490051997822 C-37.23993275624712 -2.221149470064137, -37.19497280998488 -2.569849934928492, -37.125044776581774 -3.112197953150895 M-37.125044776581774 -3.112197953150895 C-37.029861403882734 -3.600944454947547, -36.93467803118369 -4.089690956744199, -36.88609428754556 -4.339158212148126 M-37.125044776581774 -3.112197953150895 C-37.07418409729641 -3.373356791872863, -37.023323418011046 -3.634515630594831, -36.88609428754556 -4.339158212148126 M-36.88609428754556 -4.339158212148126 C-36.80601194543275 -4.644546890530887, -36.72592960331995 -4.949935568913649, -36.56902313421489 -5.548287939305123 M-36.88609428754556 -4.339158212148126 C-36.80580670407402 -4.6453295647838955, -36.725519120602485 -4.951500917419664, -36.56902313421489 -5.548287939305123 M-36.56902313421489 -5.548287939305123 C-36.4449263776957 -5.9220475978078655, -36.320829621176514 -6.295807256310608, -36.17513422997033 -6.734618561215485 M-36.56902313421489 -5.548287939305123 C-36.472642306705986 -5.838571635562487, -36.37626147919708 -6.128855331819851, -36.17513422997033 -6.734618561215485 M-36.17513422997033 -6.734618561215485 C-36.03152382354343 -7.089339041608254, -35.88791341711653 -7.444059522001022, -35.70604614880834 -7.893275190886676 M-36.17513422997033 -6.734618561215485 C-36.02246989067198 -7.1117024308466315, -35.86980555137362 -7.488786300477777, -35.70604614880834 -7.893275190886676 M-35.70604614880834 -7.893275190886676 C-35.59610867207139 -8.12156271361614, -35.48617119533443 -8.3498502363456, -35.163686474273504 -9.019496659696282 M-35.70604614880834 -7.893275190886676 C-35.540654577459215 -8.236714327605863, -35.37526300611009 -8.580153464325049, -35.163686474273504 -9.019496659696282 M-35.163686474273504 -9.019496659696282 C-34.92771726637955 -9.438483882785322, -34.6917480584856 -9.857471105874362, -34.55028387860425 -10.108655082055243 M-35.163686474273504 -9.019496659696282 C-34.96675146900821 -9.369174703376512, -34.76981646374292 -9.718852747056742, -34.55028387860425 -10.108655082055243 M-34.55028387860425 -10.108655082055243 C-34.39963967070105 -10.340085039028425, -34.24899546279784 -10.571514996001607, -33.86835896464064 -11.156274872382308 M-34.55028387860425 -10.108655082055243 C-34.31077341042428 -10.47660747874569, -34.07126294224431 -10.844559875436136, -33.86835896464064 -11.156274872382308 M-33.86835896464064 -11.156274872382308 C-33.59660369049313 -11.520402182325192, -33.32484841634562 -11.884529492268078, -33.12071390812659 -12.158051136245302 M-33.86835896464064 -11.156274872382308 C-33.662249903050224 -11.432442237991685, -33.4561408414598 -11.708609603601062, -33.12071390812659 -12.158051136245302 M-33.12071390812659 -12.158051136245302 C-32.87886642409766 -12.442138952497373, -32.63701894006872 -12.726226768749445, -32.31042094296866 -13.10986736009567 M-33.12071390812659 -12.158051136245302 C-32.834347236164724 -12.494433723856954, -32.54798056420285 -12.830816311468608, -32.31042094296866 -13.10986736009567 M-32.31042094296866 -13.10986736009567 C-32.00774015541845 -13.422410123796073, -31.70505936786825 -13.734952887496474, -31.440809736767996 -14.007812326905677 M-32.31042094296866 -13.10986736009567 C-32.065466810942645 -13.362802612520785, -31.820512678916632 -13.615737864945899, -31.440809736767996 -14.007812326905677 M-31.440809736767996 -14.007812326905677 C-31.171934482802946 -14.251997718507354, -30.903059228837897 -14.49618311010903, -30.515453708501887 -14.848196188198107 M-31.440809736767996 -14.007812326905677 C-31.085444229743246 -14.33054587792948, -30.730078722718495 -14.65327942895328, -30.515453708501887 -14.848196188198107 M-30.515453708501887 -14.848196188198107 C-30.19860029886446 -15.100878350560611, -29.881746889227035 -15.353560512923117, -29.53815534457872 -15.627565626425149 M-30.515453708501887 -14.848196188198107 C-30.310120574686536 -15.01194389827168, -30.104787440871185 -15.175691608345252, -29.53815534457872 -15.627565626425149 M-29.53815534457872 -15.627565626425149 C-29.15337104560573 -15.895974496344868, -28.76858674663274 -16.164383366264587, -28.51293057360571 -16.342718045390885 M-29.53815534457872 -15.627565626425149 C-29.131600871045567 -15.91116042770237, -28.72504639751242 -16.194755228979588, -28.51293057360571 -16.342718045390885 M-28.51293057360571 -16.342718045390885 C-28.171560133224162 -16.549658812465562, -27.830189692842612 -16.756599579540243, -27.44399226407679 -16.99071473040609 M-28.51293057360571 -16.342718045390885 C-28.21605370226517 -16.52268654943967, -27.919176830924627 -16.702655053488453, -27.44399226407679 -16.99071473040609 M-27.44399226407679 -16.99071473040609 C-27.117743840021035 -17.16091832426389, -26.791495415965283 -17.331121918121685, -26.335732912792388 -17.56889292409717 M-27.44399226407679 -16.99071473040609 C-27.046706259800604 -17.197978584363145, -26.649420255524422 -17.4052424383202, -26.335732912792388 -17.56889292409717 M-26.335732912792388 -17.56889292409717 C-26.06226927531537 -17.689947164397662, -25.78880563783835 -17.81100140469815, -25.192706595147804 -18.07487676824742 M-26.335732912792388 -17.56889292409717 C-26.003337670536435 -17.716034437689352, -25.670942428280487 -17.86317595128153, -25.192706595147804 -18.07487676824742 M-25.192706595147804 -18.07487676824742 C-24.825485214410193 -18.210017630916095, -24.458263833672582 -18.345158493584766, -24.01961025146062 -18.506587066708033 M-25.192706595147804 -18.07487676824742 C-24.862588140127762 -18.19636341127634, -24.53246968510772 -18.317850054305264, -24.01961025146062 -18.506587066708033 M-24.01961025146062 -18.506587066708033 C-23.778210808948156 -18.5782331541142, -23.536811366435696 -18.649879241520367, -22.821264386235413 -18.862249829261067 M-24.01961025146062 -18.506587066708033 C-23.597703844651804 -18.631806673616968, -23.175797437842984 -18.757026280525903, -22.821264386235413 -18.862249829261067 M-22.821264386235413 -18.862249829261067 C-22.43132583864062 -18.95125075816275, -22.04138729104583 -19.040251687064437, -21.602593259676766 -19.140403561325773 M-22.821264386235413 -18.862249829261067 C-22.407866214934785 -18.956605264185256, -21.99446804363416 -19.050960699109446, -21.602593259676766 -19.140403561325773 M-21.602593259676766 -19.140403561325773 C-21.304968107552135 -19.188521287803756, -21.007342955427504 -19.236639014281742, -20.368604652847882 -19.3399052695533 M-21.602593259676766 -19.140403561325773 C-21.17967086080703 -19.208778374962844, -20.756748461937296 -19.277153188599918, -20.368604652847882 -19.3399052695533 M-20.368604652847882 -19.3399052695533 C-20.08871019746066 -19.36690635104217, -19.808815742073442 -19.393907432531044, -19.124369289623903 -19.45993515863156 M-20.368604652847882 -19.3399052695533 C-20.014660252669895 -19.37404986015805, -19.66071585249191 -19.4081944507628, -19.124369289623903 -19.45993515863156 M-19.124369289623903 -19.45993515863156 C-18.859292291911704 -19.468435662007114, -18.594215294199504 -19.476936165382668, -17.875000000000007 -19.5 M-19.124369289623903 -19.45993515863156 C-18.650386777275077 -19.475134855251593, -18.17640426492625 -19.490334551871626, -17.875000000000007 -19.5 M-17.875000000000007 -19.5 C-17.875000000000004 -19.5, -17.875000000000004 -19.5, -17.875 -19.5 M-17.875000000000007 -19.5 C-17.875000000000004 -19.5, -17.875000000000004 -19.5, -17.875 -19.5" stroke="#89b4fa" stroke-width="1.3" fill="none" stroke-dasharray="0 0" style="fill:#89b4fa !important;stroke:#89b4fa !important"/></g><g class="label" style="color:#1e1e2e !important;font-weight:bold !important" transform="translate(-25, -12)"><rect/><foreignObject width="50" height="24"><div style="color: rgb(30, 30, 46) !important; font-weight: bold !important; display: table-cell; white-space: nowrap; line-height: 1.5; max-width: 200px; text-align: center;" xmlns="http://www.w3.org/1999/xhtml"><span style="color:#1e1e2e !important;font-weight:bold !important" class="nodeLabel "><p>alice</p></span></div></foreignObject></g></g></g><g class="edges edgePaths"/><g class="edgeLabels"/></svg>