<?plantuml 1.2026.2?><svg xmlns="http://www.w3.org/2000/svg" xmlns:xlink="http://www.w3.org/1999/xlink" contentStyleType="text/css" data-diagram-type="DESCRIPTION" height="1443px" preserveAspectRatio="none" style="width:1447px;height:1443px;background:#1E1E2E;" version="1.1" viewBox="0 0 1447 1443" width="1447px" zoomAndPan="magnify"><defs/><g><rect fill="#1E1E2E" height="1443" style="stroke:none;stroke-width:1;" width="1447" x="0" y="0"/><!--cluster stage_home--><g class="cluster" data-qualified-name="stage_home" data-source-line="24" id="ent0003"><path d="M126.63,131.02 L161.2299,131.02 A3.75,3.75 0 0 1 163.7299,133.52 L170.7299,155.4999 L976.23,155.4999 A2.5,2.5 0 0 1 978.73,157.9999 L978.73,1094.52 A2.5,2.5 0 0 1 976.23,1097.02 L126.63,1097.02 A2.5,2.5 0 0 1 124.13,1094.52 L124.13,133.52 A2.5,2.5 0 0 1 126.63,131.02" fill="#313244" style="stroke:#6C7086;stroke-width:1.5;"/><line style="stroke:#6C7086;stroke-width:1.5;" x1="124.13" x2="170.7299" y1="155.4999" y2="155.4999"/><text fill="#CDD6F4" font-family="'JetBrains Mono,monospace'" font-size="14" font-weight="bold" lengthAdjust="spacing" textLength="33.5999" x="128.13" y="147.2999">home</text></g><!--cluster stage_default--><g class="cluster" data-qualified-name="stage_default" data-source-line="42" id="ent0020"><path d="M395.63,1121.02 L455.4297,1121.02 A3.75,3.75 0 0 1 457.9297,1123.52 L464.9297,1145.4999 L1438.43,1145.4999 A2.5,2.5 0 0 1 1440.93,1147.9999 L1440.93,1404.52 A2.5,2.5 0 0 1 1438.43,1407.02 L395.63,1407.02 A2.5,2.5 0 0 1 393.13,1404.52 L393.13,1123.52 A2.5,2.5 0 0 1 395.63,1121.02" fill="#313244" style="stroke:#6C7086;stroke-width:1.5;"/><line style="stroke:#6C7086;stroke-width:1.5;" x1="393.13" x2="464.9297" y1="1145.4999" y2="1145.4999"/><text fill="#CDD6F4" font-family="'JetBrains Mono,monospace'" font-size="14" font-weight="bold" lengthAdjust="spacing" textLength="58.7997" x="397.13" y="1137.2999">default</text></g><!--entity alice_dotfiles--><g class="entity" data-qualified-name="stage_home.alice_dotfiles" data-source-line="25" id="ent0004"><rect fill="#F2CDCD" height="38.4799" rx="2.5" ry="2.5" style="stroke:#A6ADC8;stroke-width:0.5;" width="137.5995" x="472.13" y="276.78"/><text fill="#1E1E2E" font-family="'JetBrains Mono,monospace'" font-size="14" lengthAdjust="spacing" textLength="117.5995" x="482.13" y="301.0599">alice-dotfiles</text></g><!--entity demo_shell--><g class="entity" data-qualified-name="stage_home.demo_shell" data-source-line="26" id="ent0005"><rect fill="#CBA6F7" height="38.4799" rx="2.5" ry="2.5" style="stroke:#A6ADC8;stroke-width:0.5;" width="103.9996" x="488.93" y="367.78"/><text fill="#1E1E2E" font-family="'JetBrains Mono,monospace'" font-size="14" lengthAdjust="spacing" textLength="83.9996" x="498.93" y="392.0599">demo-shell</text></g><!--entity dev_tools--><g class="entity" data-qualified-name="stage_home.dev_tools" data-source-line="27" id="ent0006"><rect fill="#F38BA8" height="38.4799" rx="2.5" ry="2.5" style="stroke:#A6ADC8;stroke-width:0.5;" width="95.5997" x="493.13" y="458.78"/><text fill="#1E1E2E" font-family="'JetBrains Mono,monospace'" font-size="14" lengthAdjust="spacing" textLength="75.5997" x="503.13" y="483.0599">dev-tools</text></g><!--entity home--><g class="entity" data-qualified-name="stage_home.home" data-source-line="28" id="ent0007"><rect fill="#F38BA8" height="38.4799" rx="2.5" ry="2.5" style="stroke:#A6ADC8;stroke-width:0.5;" width="53.5999" x="211.53" y="1042.78"/><text fill="#1E1E2E" font-family="'JetBrains Mono,monospace'" font-size="14" lengthAdjust="spacing" textLength="33.5999" x="221.53" y="1067.0599">home</text></g><!--entity home_bat--><g class="entity" data-qualified-name="stage_home.home_bat" data-source-line="29" id="ent0008"><rect fill="#F2CDCD" height="38.4799" rx="2.5" ry="2.5" style="stroke:#A6ADC8;stroke-width:0.5;" width="87.1997" x="497.33" y="859.78"/><text fill="#1E1E2E" font-family="'JetBrains Mono,monospace'" font-size="14" lengthAdjust="spacing" textLength="67.1997" x="507.33" y="884.0599">home-bat</text></g><!--entity home_dev--><g class="entity" data-qualified-name="stage_home.home_dev" data-source-line="30" id="ent0009"><rect fill="#F38BA8" height="38.4799" rx="2.5" ry="2.5" style="stroke:#A6ADC8;stroke-width:0.5;" width="87.1997" x="194.73" y="813.78"/><text fill="#1E1E2E" font-family="'JetBrains Mono,monospace'" font-size="14" lengthAdjust="spacing" textLength="67.1997" x="204.73" y="838.0599">home-dev</text></g><!--entity home_firefox--><g class="entity" data-qualified-name="stage_home.home_firefox" data-source-line="31" id="ent0010"><rect fill="#F38BA8" height="38.4799" rx="2.5" ry="2.5" style="stroke:#A6ADC8;stroke-width:0.5;" width="120.7996" x="480.53" y="640.78"/><text fill="#1E1E2E" font-family="'JetBrains Mono,monospace'" font-size="14" lengthAdjust="spacing" textLength="100.7996" x="490.53" y="665.0599">home-firefox</text></g><!--entity home_git--><g class="entity" data-qualified-name="stage_home.home_git" data-source-line="32" id="ent0011"><rect fill="#CBA6F7" height="38.4799" rx="2.5" ry="2.5" style="stroke:#A6ADC8;stroke-width:0.5;" width="87.1997" x="497.33" y="768.78"/><text fill="#1E1E2E" font-family="'JetBrains Mono,monospace'" font-size="14" lengthAdjust="spacing" textLength="67.1997" x="507.33" y="793.0599">home-git</text></g><!--entity home_productivity--><g class="entity" data-qualified-name="stage_home.home_productivity" data-source-line="33" id="ent0012"><rect fill="#CBA6F7" height="38.4799" rx="2.5" ry="2.5" style="stroke:#A6ADC8;stroke-width:0.5;" width="162.7994" x="156.93" y="655.78"/><text fill="#1E1E2E" font-family="'JetBrains Mono,monospace'" font-size="14" lengthAdjust="spacing" textLength="142.7994" x="166.93" y="680.0599">home-productivity</text></g><!--entity home_slack--><g class="entity" data-qualified-name="stage_home.home_slack" data-source-line="34" id="ent0013"><rect fill="#F2CDCD" height="38.4799" rx="2.5" ry="2.5" style="stroke:#A6ADC8;stroke-width:0.5;" width="103.9996" x="488.93" y="549.78"/><text fill="#1E1E2E" font-family="'JetBrains Mono,monospace'" font-size="14" lengthAdjust="spacing" textLength="83.9996" x="498.93" y="574.0599">home-slack</text></g><!--entity home__aspect_home_--><g class="entity" data-qualified-name="stage_home.home__aspect_home_" data-source-line="35" id="ent0014"><rect fill="#CBA6F7" height="38.4799" rx="2.5" ry="2.5" style="stroke:#A6ADC8;stroke-width:0.5;" width="162.7994" x="459.53" y="969.78"/><text fill="#1E1E2E" font-family="'JetBrains Mono,monospace'" font-size="14" lengthAdjust="spacing" textLength="142.7994" x="469.53" y="994.0599">home/aspect(home)</text></g><!--entity home__cross_provide__anon__--><g class="entity" data-qualified-name="stage_home.home__cross_provide__anon__" data-source-line="36" id="ent0015"><rect fill="#CBA6F7" height="38.4799" rx="2.5" ry="2.5" style="stroke:#A6ADC8;stroke-width:0.5;" width="288.7988" x="396.53" y="1042.78"/><text fill="#1E1E2E" font-family="'JetBrains Mono,monospace'" font-size="14" lengthAdjust="spacing" textLength="268.7988" x="406.53" y="1067.0599">home/cross-provide(&amp;lt;anon&amp;gt;)</text></g><!--entity home__self_provide_home_--><g class="entity" data-qualified-name="stage_home.home__self_provide_home_" data-source-line="37" id="ent0016"><rect fill="#F38BA8" height="38.4799" rx="2.5" ry="2.5" style="stroke:#A6ADC8;stroke-width:0.5;" width="213.1992" x="749.53" y="549.78"/><text fill="#1E1E2E" font-family="'JetBrains Mono,monospace'" font-size="14" lengthAdjust="spacing" textLength="193.1992" x="759.53" y="574.0599">home/self-provide(home)</text></g><!--entity hyprland--><g class="entity" data-qualified-name="stage_home.hyprland" data-source-line="38" id="ent0017"><rect fill="#CBA6F7" height="38.4799" rx="2.5" ry="2.5" style="stroke:#A6ADC8;stroke-width:0.5;" width="87.1997" x="497.33" y="185.78"/><text fill="#1E1E2E" font-family="'JetBrains Mono,monospace'" font-size="14" lengthAdjust="spacing" textLength="67.1997" x="507.33" y="210.0599">hyprland</text></g><!--entity primary_user--><g class="entity" data-qualified-name="stage_home.primary_user" data-source-line="39" id="ent0018"><rect fill="#CBA6F7" height="38.4799" rx="2.5" ry="2.5" style="stroke:#A6ADC8;stroke-width:0.5;" width="120.7996" x="177.93" y="564.78"/><text fill="#1E1E2E" font-family="'JetBrains Mono,monospace'" font-size="14" lengthAdjust="spacing" textLength="100.7996" x="187.93" y="589.0599">primary-user</text></g><!--entity den__provides__primary_user--><g class="entity" data-qualified-name="stage_home.den__provides__primary_user" data-source-line="40" id="ent0019"><rect fill="#CBA6F7" height="24.4799" rx="2.5" ry="2.5" style="stroke:#A6ADC8;stroke-width:0.5;" width="196.3992" x="140.13" y="505.78"/><text fill="#1E1E2E" font-family="'JetBrains Mono,monospace'" font-size="14" lengthAdjust="spacing" textLength="176.3992" x="150.13" y="523.0599">provides/primary-user</text></g><!--entity n_default--><g class="entity" data-qualified-name="stage_default.n_default" data-source-line="43" id="ent0021"><rect fill="#FAB387" height="38.4799" rx="2.5" ry="2.5" style="stroke:#A6ADC8;stroke-width:0.5;" width="78.7997" x="501.53" y="1248.78"/><text fill="#1E1E2E" font-family="'JetBrains Mono,monospace'" font-size="14" lengthAdjust="spacing" textLength="58.7997" x="511.53" y="1273.0599">default</text></g><!--entity default__aspect_default_--><g class="entity" data-qualified-name="stage_default.default__aspect_default_" data-source-line="44" id="ent0022"><rect fill="#A6E3A1" height="38.4799" rx="2.5" ry="2.5" style="stroke:#A6ADC8;stroke-width:0.5;" width="213.1992" x="1119.33" y="1317.78"/><text fill="#1E1E2E" font-family="'JetBrains Mono,monospace'" font-size="14" lengthAdjust="spacing" textLength="193.1992" x="1129.33" y="1342.0599">default/aspect(default)</text></g><!--entity den__provides__default__aspect_default__den__provides--><g class="entity" data-qualified-name="stage_default.den__provides__default__aspect_default__den__provides" data-source-line="45" id="ent0023"><rect fill="#A6E3A1" height="24.4799" rx="2.5" ry="2.5" style="stroke:#A6ADC8;stroke-width:0.5;" width="397.9984" x="1026.93" y="1214.78"/><text fill="#1E1E2E" font-family="'JetBrains Mono,monospace'" font-size="14" lengthAdjust="spacing" textLength="377.9984" x="1036.93" y="1232.0599">provides/default/aspect(default):den/provides</text></g><!--entity default__cross_provide_home_--><g class="entity" data-qualified-name="stage_default.default__cross_provide_home_" data-source-line="46" id="ent0024"><rect fill="#F9E2AF" height="38.4799" rx="2.5" ry="2.5" style="stroke:#A6ADC8;stroke-width:0.5;" width="246.799" x="417.53" y="1157.78"/><text fill="#1E1E2E" font-family="'JetBrains Mono,monospace'" font-size="14" lengthAdjust="spacing" textLength="226.799" x="427.53" y="1182.0599">default/cross-provide(home)</text></g><!--entity default__self_provide_default_--><g class="entity" data-qualified-name="stage_default.default__self_provide_default_" data-source-line="47" id="ent0025"><rect fill="#FAB387" height="38.4799" rx="2.5" ry="2.5" style="stroke:#A6ADC8;stroke-width:0.5;" width="263.5989" x="409.13" y="1321.78"/><text fill="#1E1E2E" font-family="'JetBrains Mono,monospace'" font-size="14" lengthAdjust="spacing" textLength="243.5989" x="419.13" y="1346.0599">default/self-provide(default)</text></g><!--entity den__provides__define_user--><g class="entity" data-qualified-name="stage_default.den__provides__define_user" data-source-line="48" id="ent0026"><rect fill="#A6E3A1" height="24.4799" rx="2.5" ry="2.5" style="stroke:#A6ADC8;stroke-width:0.5;" width="187.9993" x="762.13" y="1252.78"/><text fill="#1E1E2E" font-family="'JetBrains Mono,monospace'" font-size="14" lengthAdjust="spacing" textLength="167.9993" x="772.13" y="1270.0599">provides/define-user</text></g><!--entity den__provides__hostname--><g class="entity" data-qualified-name="stage_default.den__provides__hostname" data-source-line="49" id="ent0027"><rect fill="#FAB387" height="24.4799" rx="2.5" ry="2.5" style="stroke:#A6ADC8;stroke-width:0.5;" width="162.7994" x="774.73" y="1329.78"/><text fill="#1E1E2E" font-family="'JetBrains Mono,monospace'" font-size="14" lengthAdjust="spacing" textLength="142.7994" x="784.73" y="1347.0599">provides/hostname</text></g><!--entity den__provides__mutual_provider--><g class="entity" data-qualified-name="stage_default.den__provides__mutual_provider" data-source-line="50" id="ent0028"><rect fill="#F9E2AF" height="24.4799" rx="2.5" ry="2.5" style="stroke:#A6ADC8;stroke-width:0.5;" width="221.5991" x="745.33" y="1175.78"/><text fill="#1E1E2E" font-family="'JetBrains Mono,monospace'" font-size="14" lengthAdjust="spacing" textLength="201.5991" x="755.33" y="1193.0599">provides/mutual-provider</text></g><!--entity alice--><g class="entity" data-qualified-name="alice" data-source-line="23" id="ent0002"><rect fill="#89B4FA" height="38.4799" rx="2.5" ry="2.5" style="stroke:#A6ADC8;stroke-width:0.5;" width="61.9998" x="18.13" y="466.78"/><text fill="#1E1E2E" font-family="'JetBrains Mono,monospace'" font-size="14" lengthAdjust="spacing" textLength="41.9998" x="28.13" y="491.0599">alice</text></g><!--link alice to alice--><g class="link" data-entity-1="ent0002" data-entity-2="ent0002" data-link-type="dependency" data-source-line="53" id="lnk29"><path d="M19.51,466.56 C6,449.66 15.88,431.78 49.13,431.78 C82.39,431.78 96.0065,444.9734 82.4965,461.8734" fill="none" id="alice-to-alice" style="stroke:#A6ADC8;stroke-width:1;"/><polygon fill="#A6ADC8" points="78.75,466.56,87.4941,462.0278,81.8721,462.6545,81.2453,457.0325,78.75,466.56" style="stroke:#A6ADC8;stroke-width:1;"/></g><!--link alice to alice_dotfiles--><g class="link" data-entity-1="ent0002" data-entity-2="ent0004" data-link-type="dependency" data-source-line="54" id="lnk30"><path d="M61.83,466.47 C73.45,448.69 92.86,423 116.13,408.02 C227.64,336.24 377.7227,310.9158 466.0227,301.6558" fill="none" id="alice-to-alice_dotfiles" style="stroke:#A6ADC8;stroke-width:1;"/><polygon fill="#A6ADC8" points="471.99,301.03,462.6219,297.9905,467.0173,301.5515,463.4563,305.9469,471.99,301.03" style="stroke:#A6ADC8;stroke-width:1;"/></g><!--link alice to demo_shell--><g class="link" data-entity-1="ent0002" data-entity-2="ent0005" data-link-type="dependency" data-source-line="55" id="lnk31"><path d="M80.42,470.81 C91.44,465.79 104.14,460.59 116.13,457.02 C247.13,418.09 401.7671,399.5991 482.4771,391.9091" fill="none" id="alice-to-demo_shell" style="stroke:#A6ADC8;stroke-width:1;"/><polygon fill="#A6ADC8" points="488.45,391.34,479.1112,388.2117,483.4725,391.8142,479.87,396.1756,488.45,391.34" style="stroke:#A6ADC8;stroke-width:1;"/></g><!--link alice to dev_tools--><g class="link" data-entity-1="ent0002" data-entity-2="ent0006" data-link-type="dependency" data-source-line="56" id="lnk32"><path d="M80.4,485.53 C163.1,484.17 387.3008,480.5075 486.9508,478.8875" fill="none" id="alice-to-dev_tools" style="stroke:#A6ADC8;stroke-width:1;"/><polygon fill="#A6ADC8" points="492.95,478.79,483.8862,474.9368,487.9507,478.8713,484.0162,482.9358,492.95,478.79" style="stroke:#A6ADC8;stroke-width:1;"/></g><!--link alice to home_dev--><g class="link" data-entity-1="ent0002" data-entity-2="ent0009" data-link-type="dependency" data-source-line="57" id="lnk33"><path d="M52.49,505.46 C58.12,546.26 75.07,642.76 116.13,712.02 C140.93,753.84 178.7893,787.8612 206.3093,809.6912" fill="none" id="alice-to-home_dev" style="stroke:#A6ADC8;stroke-width:1;"/><polygon fill="#A6ADC8" points="211.01,813.42,206.4448,804.6931,207.0928,810.3127,201.4732,810.9606,211.01,813.42" style="stroke:#A6ADC8;stroke-width:1;"/></g><!--link alice to home_productivity--><g class="link" data-entity-1="ent0002" data-entity-2="ent0012" data-link-type="dependency" data-source-line="58" id="lnk34"><path d="M55.06,505.55 C63.23,534.32 82.16,588.23 116.13,621.02 C131.55,635.9 146.2326,644.756 165.7226,652.986" fill="none" id="alice-to-home_productivity" style="stroke:#A6ADC8;stroke-width:1;"/><polygon fill="#A6ADC8" points="171.25,655.32,164.5149,648.134,166.6438,653.375,161.4029,655.5039,171.25,655.32" style="stroke:#A6ADC8;stroke-width:1;"/></g><!--link alice to home__self_provide_home_--><g class="link" data-entity-1="ent0002" data-entity-2="ent0016" data-link-type="dependency" data-source-line="59" id="lnk35"><path d="M50.44,466.48 C52.13,423.8 61.97,321.26 116.13,261.02 C288.47,69.37 471.58,6 685.33,150.02 C826.58,245.19 850.0271,474.0898 853.9971,543.4498" fill="none" id="alice-to-home__self_provide_home_" style="stroke:#A6ADC8;stroke-width:1;"/><polygon fill="#A6ADC8" points="854.34,549.44,857.8192,540.2261,854.0543,544.4482,849.8322,540.6833,854.34,549.44" style="stroke:#A6ADC8;stroke-width:1;"/></g><!--link alice to hyprland--><g class="link" data-entity-1="ent0002" data-entity-2="ent0017" data-link-type="dependency" data-source-line="60" id="lnk36"><path d="M53.85,466.65 C60.77,435.71 78.46,375.08 116.13,340.02 C225.94,237.84 407.1255,213.4308 491.0355,207.3908" fill="none" id="alice-to-hyprland" style="stroke:#A6ADC8;stroke-width:1;"/><polygon fill="#A6ADC8" points="497.02,206.96,487.756,203.6165,492.0329,207.319,488.3304,211.5958,497.02,206.96" style="stroke:#A6ADC8;stroke-width:1;"/></g><!--link alice to primary_user--><g class="link" data-entity-1="ent0002" data-entity-2="ent0018" data-link-type="dependency" data-source-line="61" id="lnk37"><path d="M66.49,505.63 C78.84,519.29 96.91,536.98 116.13,548.02 C134.88,558.79 151.3517,565.0203 171.6517,570.5603" fill="none" id="alice-to-primary_user" style="stroke:#A6ADC8;stroke-width:1;"/><polygon fill="#A6ADC8" points="177.44,572.14,169.8106,565.9116,172.6164,570.8236,167.7044,573.6294,177.44,572.14" style="stroke:#A6ADC8;stroke-width:1;"/></g><!--link alice to den__provides__primary_user--><g class="link" data-entity-1="ent0002" data-entity-2="ent0019" data-link-type="dependency" data-source-line="62" id="lnk38"><path d="M80.63,491.23 C103.01,495.06 128.476,499.408 157.286,504.338" fill="none" id="alice-to-den__provides__primary_user" style="stroke:#A6ADC8;stroke-width:1;"/><polygon fill="#A6ADC8" points="163.2,505.35,155.0036,499.8893,158.2716,504.5067,153.6543,507.7747,163.2,505.35" style="stroke:#A6ADC8;stroke-width:1;"/></g><!--link alice_dotfiles to alice_dotfiles--><g class="link" data-entity-1="ent0004" data-entity-2="ent0004" data-link-type="dependency" data-source-line="63" id="lnk39"><path d="M493.56,276.56 C471.95,259.66 487.74,241.78 540.93,241.78 C594.12,241.78 614.6355,255.9627 593.0355,272.8627" fill="none" id="alice_dotfiles-to-alice_dotfiles" style="stroke:#A6ADC8;stroke-width:1;"/><polygon fill="#A6ADC8" points="588.31,276.56,597.8631,274.1644,592.2479,273.479,592.9334,267.8638,588.31,276.56" style="stroke:#A6ADC8;stroke-width:1;"/></g><!--link alice_dotfiles to home__self_provide_home_--><g class="link" data-entity-1="ent0004" data-entity-2="ent0016" data-link-type="dependency" data-source-line="64" id="lnk40"><path d="M610.22,303.14 C635.46,308.24 663.26,317 685.33,332.02 C769.86,389.54 824.2795,498.3643 844.5095,544.0243" fill="none" id="alice_dotfiles-to-home__self_provide_home_" style="stroke:#A6ADC8;stroke-width:1;"/><polygon fill="#A6ADC8" points="846.94,549.51,846.9514,539.6611,844.9146,544.9386,839.6372,542.9018,846.94,549.51" style="stroke:#A6ADC8;stroke-width:1;"/></g><!--link n_default to n_default--><g class="link" data-entity-1="ent0021" data-entity-2="ent0021" data-link-type="dependency" data-source-line="65" id="lnk41"><path d="M501.16,1253.58 C469.17,1235.41 482.42,1213.78 540.93,1213.78 C599.44,1213.78 617.9176,1232.4474 585.9176,1250.6174" fill="none" id="n_default-to-n_default" style="stroke:#A6ADC8;stroke-width:1;"/><polygon fill="#A6ADC8" points="580.7,1253.58,590.5014,1252.6145,585.048,1251.1112,586.5513,1245.6577,580.7,1253.58" style="stroke:#A6ADC8;stroke-width:1;"/></g><!--link n_default to default__aspect_default_--><g class="link" data-entity-1="ent0021" data-entity-2="ent0022" data-link-type="dependency" data-source-line="66" id="lnk42"><path d="M580.57,1271.41 C610.89,1275.5 653.21,1284.46 685.33,1304.02 C719.76,1324.98 708.59,1355.44 745.33,1372.02 C888.58,1436.66 1074.8004,1389.2148 1166.3504,1358.5648" fill="none" id="n_default-to-default__aspect_default_" style="stroke:#A6ADC8;stroke-width:1;"/><polygon fill="#A6ADC8" points="1172.04,1356.66,1162.2357,1355.7242,1167.2987,1358.2474,1164.7755,1363.3103,1172.04,1356.66" style="stroke:#A6ADC8;stroke-width:1;"/></g><!--link n_default to den__provides__define_user--><g class="link" data-entity-1="ent0021" data-entity-2="ent0026" data-link-type="dependency" data-source-line="67" id="lnk43"><path d="M580.65,1267.65 C625.58,1267.22 695.2303,1266.5475 755.7403,1265.9675" fill="none" id="n_default-to-den__provides__define_user" style="stroke:#A6ADC8;stroke-width:1;"/><polygon fill="#A6ADC8" points="761.74,1265.91,752.7021,1261.9964,756.7402,1265.9579,752.7788,1269.9961,761.74,1265.91" style="stroke:#A6ADC8;stroke-width:1;"/></g><!--link n_default to den__provides__hostname--><g class="link" data-entity-1="ent0021" data-entity-2="ent0027" data-link-type="dependency" data-source-line="68" id="lnk44"><path d="M580.65,1277.17 C636.13,1290.28 732.6307,1313.0808 795.4607,1327.9208" fill="none" id="n_default-to-den__provides__hostname" style="stroke:#A6ADC8;stroke-width:1;"/><polygon fill="#A6ADC8" points="801.3,1329.3,793.4605,1323.3383,796.4339,1328.1507,791.6215,1331.1241,801.3,1329.3" style="stroke:#A6ADC8;stroke-width:1;"/></g><!--link n_default to den__provides__mutual_provider--><g class="link" data-entity-1="ent0021" data-entity-2="ent0028" data-link-type="dependency" data-source-line="69" id="lnk45"><path d="M580.65,1258.13 C637.36,1243.64 737.2168,1218.1455 799.5968,1202.2055" fill="none" id="n_default-to-den__provides__mutual_provider" style="stroke:#A6ADC8;stroke-width:1;"/><polygon fill="#A6ADC8" points="805.41,1200.72,795.6999,1199.0727,800.5657,1201.9579,797.6805,1206.8237,805.41,1200.72" style="stroke:#A6ADC8;stroke-width:1;"/></g><!--link demo_shell to demo_shell--><g class="link" data-entity-1="ent0005" data-entity-2="ent0005" data-link-type="dependency" data-source-line="70" id="lnk46"><path d="M493.56,367.56 C471.95,350.66 487.74,332.78 540.93,332.78 C594.12,332.78 614.6355,346.9627 593.0355,363.8627" fill="none" id="demo_shell-to-demo_shell" style="stroke:#A6ADC8;stroke-width:1;"/><polygon fill="#A6ADC8" points="588.31,367.56,597.8631,365.1644,592.2479,364.479,592.9334,358.8638,588.31,367.56" style="stroke:#A6ADC8;stroke-width:1;"/></g><!--link demo_shell to home__self_provide_home_--><g class="link" data-entity-1="ent0005" data-entity-2="ent0016" data-link-type="dependency" data-source-line="71" id="lnk47"><path d="M593.1,393.93 C621.43,399.19 656.62,408.14 685.33,423.02 C749.36,456.2 805.7315,513.4945 834.1415,544.9945" fill="none" id="demo_shell-to-home__self_provide_home_" style="stroke:#A6ADC8;stroke-width:1;"/><polygon fill="#A6ADC8" points="838.16,549.45,835.1026,540.0877,834.8113,545.737,829.1619,545.4457,838.16,549.45" style="stroke:#A6ADC8;stroke-width:1;"/></g><!--link den__provides__define_user to default__aspect_default_--><g class="link" data-entity-1="ent0026" data-entity-2="ent0022" data-link-type="dependency" data-source-line="72" id="lnk48"><path d="M922.04,1277.73 C978.03,1288.69 1053.9218,1303.5474 1118.3918,1316.1674" fill="none" id="den__provides__define_user-to-default__aspect_default_" style="stroke:#A6ADC8;stroke-width:1;"/><polygon fill="#A6ADC8" points="1124.28,1317.32,1116.216,1311.6656,1119.3731,1316.3595,1114.6792,1319.5166,1124.28,1317.32" style="stroke:#A6ADC8;stroke-width:1;"/></g><!--link den__provides__define_user to den__provides__default__aspect_default__den__provides--><g class="link" data-entity-1="ent0026" data-entity-2="ent0023" data-link-type="dependency" data-source-line="73" id="lnk49"><path d="M950.42,1255.38 C996.39,1250.63 1046.4617,1245.4558 1095.8917,1240.3558" fill="none" id="den__provides__define_user-to-den__provides__default__aspect_default__den__provides" style="stroke:#A6ADC8;stroke-width:1;"/><polygon fill="#A6ADC8" points="1101.86,1239.74,1092.497,1236.6848,1096.8864,1240.2532,1093.3181,1244.6426,1101.86,1239.74" style="stroke:#A6ADC8;stroke-width:1;"/></g><!--link den__provides__define_user to den__provides__define_user--><g class="link" data-entity-1="ent0026" data-entity-2="ent0026" data-link-type="dependency" data-source-line="74" id="lnk50"><path d="M814.45,1252.32 C781.45,1236.52 795.34,1217.78 856.13,1217.78 C916.92,1217.78 936.232,1233.9296 903.222,1249.7296" fill="none" id="den__provides__define_user-to-den__provides__define_user" style="stroke:#A6ADC8;stroke-width:1;"/><polygon fill="#A6ADC8" points="897.81,1252.32,907.6549,1252.0424,902.32,1250.1613,904.2011,1244.8264,897.81,1252.32" style="stroke:#A6ADC8;stroke-width:1;"/></g><!--link den__provides__hostname to default__aspect_default_--><g class="link" data-entity-1="ent0027" data-entity-2="ent0022" data-link-type="dependency" data-source-line="75" id="lnk51"><path d="M937.85,1340.92 C991.03,1340.2 1055.2306,1339.3322 1112.9006,1338.5422" fill="none" id="den__provides__hostname-to-default__aspect_default_" style="stroke:#A6ADC8;stroke-width:1;"/><polygon fill="#A6ADC8" points="1118.9,1338.46,1109.8461,1334.5837,1113.9005,1338.5285,1109.9556,1342.5829,1118.9,1338.46" style="stroke:#A6ADC8;stroke-width:1;"/></g><!--link den__provides__hostname to den__provides__hostname--><g class="link" data-entity-1="ent0027" data-entity-2="ent0027" data-link-type="dependency" data-source-line="76" id="lnk52"><path d="M814.45,1329.32 C781.45,1313.52 795.34,1294.78 856.13,1294.78 C916.92,1294.78 936.232,1310.9296 903.222,1326.7296" fill="none" id="den__provides__hostname-to-den__provides__hostname" style="stroke:#A6ADC8;stroke-width:1;"/><polygon fill="#A6ADC8" points="897.81,1329.32,907.6549,1329.0424,902.32,1327.1613,904.2011,1321.8264,897.81,1329.32" style="stroke:#A6ADC8;stroke-width:1;"/></g><!--link den__provides__mutual_provider to default__aspect_default_--><g class="link" data-entity-1="ent0028" data-entity-2="ent0022" data-link-type="dependency" data-source-line="77" id="lnk53"><path d="M945.33,1200.71 C959.68,1204.73 973.99,1210.04 986.73,1217.02 C1008.83,1229.14 1005.9,1243.13 1026.93,1257.02 C1067.31,1283.67 1112.2842,1302.0239 1152.2542,1315.4939" fill="none" id="den__provides__mutual_provider-to-default__aspect_default_" style="stroke:#A6ADC8;stroke-width:1;"/><polygon fill="#A6ADC8" points="1157.94,1317.41,1150.6887,1310.7453,1153.2018,1315.8132,1148.1339,1318.3263,1157.94,1317.41" style="stroke:#A6ADC8;stroke-width:1;"/></g><!--link den__provides__mutual_provider to den__provides__default__aspect_default__den__provides--><g class="link" data-entity-1="ent0028" data-entity-2="ent0023" data-link-type="dependency" data-source-line="78" id="lnk54"><path d="M966.98,1199.67 C1010.48,1204.28 1054.6534,1208.9675 1099.0834,1213.6775" fill="none" id="den__provides__mutual_provider-to-den__provides__default__aspect_default__den__provides" style="stroke:#A6ADC8;stroke-width:1;"/><polygon fill="#A6ADC8" points="1105.05,1214.31,1096.5218,1209.3835,1100.0779,1213.7829,1095.6785,1217.3389,1105.05,1214.31" style="stroke:#A6ADC8;stroke-width:1;"/></g><!--link den__provides__mutual_provider to den__provides__mutual_provider--><g class="link" data-entity-1="ent0028" data-entity-2="ent0028" data-link-type="dependency" data-source-line="79" id="lnk55"><path d="M814.45,1175.32 C781.45,1159.52 795.34,1140.78 856.13,1140.78 C916.92,1140.78 936.232,1156.9296 903.222,1172.7296" fill="none" id="den__provides__mutual_provider-to-den__provides__mutual_provider" style="stroke:#A6ADC8;stroke-width:1;"/><polygon fill="#A6ADC8" points="897.81,1175.32,907.6549,1175.0424,902.32,1173.1613,904.2011,1167.8264,897.81,1175.32" style="stroke:#A6ADC8;stroke-width:1;"/></g><!--link dev_tools to dev_tools--><g class="link" data-entity-1="ent0006" data-entity-2="ent0006" data-link-type="dependency" data-source-line="80" id="lnk56"><path d="M493.56,458.56 C471.95,441.66 487.74,423.78 540.93,423.78 C594.12,423.78 614.6355,437.9627 593.0355,454.8627" fill="none" id="dev_tools-to-dev_tools" style="stroke:#A6ADC8;stroke-width:1;"/><polygon fill="#A6ADC8" points="588.31,458.56,597.8631,456.1644,592.2479,455.479,592.9334,449.8638,588.31,458.56" style="stroke:#A6ADC8;stroke-width:1;"/></g><!--link dev_tools to home__self_provide_home_--><g class="link" data-entity-1="ent0006" data-entity-2="ent0016" data-link-type="dependency" data-source-line="81" id="lnk57"><path d="M588.97,488.98 C617.06,495.74 653.38,504.85 685.33,514.02 C723.01,524.84 759.2196,536.4874 791.9696,547.4374" fill="none" id="dev_tools-to-home__self_provide_home_" style="stroke:#A6ADC8;stroke-width:1;"/><polygon fill="#A6ADC8" points="797.66,549.34,790.3928,542.6926,792.918,547.7545,787.8561,550.2797,797.66,549.34" style="stroke:#A6ADC8;stroke-width:1;"/></g><!--link home to alice--><g class="link" data-entity-1="ent0007" data-entity-2="ent0002" data-link-type="dependency" data-source-line="82" id="lnk58"><path d="M221.21,1042.43 C194.77,1009.19 142.49,938.65 116.13,870.02 C65.09,737.09 53.6252,569.1341 51.0752,511.4941" fill="none" id="home-to-alice" style="stroke:#A6ADC8;stroke-width:1;"/><polygon fill="#A6ADC8" points="50.81,505.5,47.2117,514.668,51.031,510.4951,55.2039,514.3144,50.81,505.5" style="stroke:#A6ADC8;stroke-width:1;"/></g><!--link home to n_default--><g class="link" data-entity-1="ent0007" data-entity-2="ent0021" data-link-type="dependency" data-source-line="83" id="lnk59"><path d="M253.24,1081.65 C276.87,1113.68 327.91,1177.26 385.13,1214.02 C421.18,1237.17 462.5155,1250.3194 495.2655,1258.4194" fill="none" id="home-to-n_default" style="stroke:#A6ADC8;stroke-width:1;"/><polygon fill="#A6ADC8" points="501.09,1259.86,493.3136,1253.8162,496.2363,1258.6595,491.3929,1261.5822,501.09,1259.86" style="stroke:#A6ADC8;stroke-width:1;"/></g><!--link home to default__cross_provide_home_--><g class="link" data-entity-1="ent0007" data-entity-2="ent0024" data-link-type="dependency" data-source-line="84" id="lnk60"><path d="M265.48,1072.02 C315.12,1091.01 418.1961,1130.4461 482.9161,1155.2061" fill="none" id="home-to-default__cross_provide_home_" style="stroke:#A6ADC8;stroke-width:1;"/><polygon fill="#A6ADC8" points="488.52,1157.35,481.5434,1150.3982,483.8501,1155.5634,478.6849,1157.8701,488.52,1157.35" style="stroke:#A6ADC8;stroke-width:1;"/></g><!--link home to default__self_provide_default_--><g class="link" data-entity-1="ent0007" data-entity-2="ent0025" data-link-type="dependency" data-source-line="85" id="lnk61"><path d="M245.22,1081.74 C260.24,1128.46 304.6,1246.37 385.13,1305.02 C394.17,1311.6 398.6892,1314.674 409.1992,1319.094" fill="none" id="home-to-default__self_provide_default_" style="stroke:#A6ADC8;stroke-width:1;"/><polygon fill="#A6ADC8" points="414.73,1321.42,407.9845,1314.2438,410.121,1319.4817,404.8831,1321.6182,414.73,1321.42" style="stroke:#A6ADC8;stroke-width:1;"/></g><!--link home to home--><g class="link" data-entity-1="ent0007" data-entity-2="ent0007" data-link-type="dependency" data-source-line="86" id="lnk62"><path d="M211.18,1045.36 C194.18,1027.7 203.23,1007.78 238.33,1007.78 C273.44,1007.78 286.6524,1023.3786 269.6424,1041.0386" fill="none" id="home-to-home" style="stroke:#A6ADC8;stroke-width:1;"/><polygon fill="#A6ADC8" points="265.48,1045.36,274.6045,1041.6528,268.9486,1041.7588,268.8426,1036.103,265.48,1045.36" style="stroke:#A6ADC8;stroke-width:1;"/></g><!--link home to home__aspect_home_--><g class="link" data-entity-1="ent0007" data-entity-2="ent0014" data-link-type="dependency" data-source-line="87" id="lnk63"><path d="M265.63,1055.18 C294.8,1047.63 343.26,1035.2 385.13,1025.02 C409.13,1019.19 429.4256,1014.3876 453.2756,1008.8476" fill="none" id="home-to-home__aspect_home_" style="stroke:#A6ADC8;stroke-width:1;"/><polygon fill="#A6ADC8" points="459.12,1007.49,449.4484,1005.6301,454.2497,1008.6213,451.2584,1013.4226,459.12,1007.49" style="stroke:#A6ADC8;stroke-width:1;"/></g><!--link home to home__cross_provide__anon__--><g class="link" data-entity-1="ent0007" data-entity-2="ent0015" data-link-type="dependency" data-source-line="88" id="lnk64"><path d="M265.48,1062.02 C295.27,1062.02 340.3,1062.02 390.35,1062.02" fill="none" id="home-to-home__cross_provide__anon__" style="stroke:#A6ADC8;stroke-width:1;"/><polygon fill="#A6ADC8" points="396.35,1062.02,387.35,1058.02,391.35,1062.02,387.35,1066.02,396.35,1062.02" style="stroke:#A6ADC8;stroke-width:1;"/></g><!--link home_bat to home_bat--><g class="link" data-entity-1="ent0008" data-entity-2="ent0008" data-link-type="dependency" data-source-line="89" id="lnk65"><path d="M497.08,862.08 C470.46,844.49 485.08,824.78 540.93,824.78 C596.78,824.78 616.4059,841.1822 589.7859,858.7722" fill="none" id="home_bat-to-home_bat" style="stroke:#A6ADC8;stroke-width:1;"/><polygon fill="#A6ADC8" points="584.78,862.08,594.494,860.4556,588.9515,859.3235,590.0836,853.7811,584.78,862.08" style="stroke:#A6ADC8;stroke-width:1;"/></g><!--link home_bat to home__self_provide_home_--><g class="link" data-entity-1="ent0008" data-entity-2="ent0016" data-link-type="dependency" data-source-line="90" id="lnk66"><path d="M584.98,870.27 C615.47,862.4 655.99,848.39 685.33,825.02 C770.01,757.57 824.8235,641.6464 844.8635,594.2464" fill="none" id="home_bat-to-home__self_provide_home_" style="stroke:#A6ADC8;stroke-width:1;"/><polygon fill="#A6ADC8" points="847.2,588.72,840.011,595.4519,845.2529,593.3253,847.3795,598.5672,847.2,588.72" style="stroke:#A6ADC8;stroke-width:1;"/></g><!--link home_dev to home_bat--><g class="link" data-entity-1="ent0009" data-entity-2="ent0008" data-link-type="dependency" data-source-line="91" id="lnk67"><path d="M282.4,839.61 C339.55,848.36 433.9091,862.7922 491.0091,871.5322" fill="none" id="home_dev-to-home_bat" style="stroke:#A6ADC8;stroke-width:1;"/><polygon fill="#A6ADC8" points="496.94,872.44,488.6488,867.1243,491.9976,871.6835,487.4384,875.0322,496.94,872.44" style="stroke:#A6ADC8;stroke-width:1;"/></g><!--link home_dev to home_dev--><g class="link" data-entity-1="ent0009" data-entity-2="ent0009" data-link-type="dependency" data-source-line="92" id="lnk68"><path d="M208.71,813.56 C195.2,796.66 205.08,778.78 238.33,778.78 C271.59,778.78 285.2065,791.9734 271.6965,808.8734" fill="none" id="home_dev-to-home_dev" style="stroke:#A6ADC8;stroke-width:1;"/><polygon fill="#A6ADC8" points="267.95,813.56,276.6941,809.0278,271.0721,809.6545,270.4453,804.0325,267.95,813.56" style="stroke:#A6ADC8;stroke-width:1;"/></g><!--link home_dev to home_git--><g class="link" data-entity-1="ent0009" data-entity-2="ent0011" data-link-type="dependency" data-source-line="93" id="lnk69"><path d="M282.4,826.57 C339.55,818.02 433.906,803.8875 491.006,795.3475" fill="none" id="home_dev-to-home_git" style="stroke:#A6ADC8;stroke-width:1;"/><polygon fill="#A6ADC8" points="496.94,794.46,487.4473,791.8353,491.995,795.1996,488.6307,799.7473,496.94,794.46" style="stroke:#A6ADC8;stroke-width:1;"/></g><!--link home_dev to home__self_provide_home_--><g class="link" data-entity-1="ent0009" data-entity-2="ent0016" data-link-type="dependency" data-source-line="94" id="lnk70"><path d="M264.4,852.74 C292.11,873.17 338.96,903.8 385.13,916.02 C449.62,933.09 628.73,951.33 685.33,916.02 C806.53,840.4 842.7202,656.3366 851.7602,594.6366" fill="none" id="home_dev-to-home__self_provide_home_" style="stroke:#A6ADC8;stroke-width:1;"/><polygon fill="#A6ADC8" points="852.63,588.7,847.3675,597.0251,851.9052,593.6472,855.283,598.1848,852.63,588.7" style="stroke:#A6ADC8;stroke-width:1;"/></g><!--link home_firefox to home_firefox--><g class="link" data-entity-1="ent0010" data-entity-2="ent0010" data-link-type="dependency" data-source-line="95" id="lnk71"><path d="M493.56,640.56 C471.95,623.66 487.74,605.78 540.93,605.78 C594.12,605.78 614.6355,619.9627 593.0355,636.8627" fill="none" id="home_firefox-to-home_firefox" style="stroke:#A6ADC8;stroke-width:1;"/><polygon fill="#A6ADC8" points="588.31,640.56,597.8631,638.1644,592.2479,637.479,592.9334,631.8638,588.31,640.56" style="stroke:#A6ADC8;stroke-width:1;"/></g><!--link home_firefox to home__self_provide_home_--><g class="link" data-entity-1="ent0010" data-entity-2="ent0016" data-link-type="dependency" data-source-line="96" id="lnk72"><path d="M601.58,642.69 C654.56,627.3 726.1781,606.4835 781.5081,590.4135" fill="none" id="home_firefox-to-home__self_provide_home_" style="stroke:#A6ADC8;stroke-width:1;"/><polygon fill="#A6ADC8" points="787.27,588.74,777.5115,587.409,782.4684,590.1346,779.7428,595.0915,787.27,588.74" style="stroke:#A6ADC8;stroke-width:1;"/></g><!--link home_git to home_git--><g class="link" data-entity-1="ent0011" data-entity-2="ent0011" data-link-type="dependency" data-source-line="97" id="lnk73"><path d="M497.08,771.08 C470.46,753.49 485.08,733.78 540.93,733.78 C596.78,733.78 616.4059,750.1822 589.7859,767.7722" fill="none" id="home_git-to-home_git" style="stroke:#A6ADC8;stroke-width:1;"/><polygon fill="#A6ADC8" points="584.78,771.08,594.494,769.4556,588.9515,768.3235,590.0836,762.7811,584.78,771.08" style="stroke:#A6ADC8;stroke-width:1;"/></g><!--link home_git to home__self_provide_home_--><g class="link" data-entity-1="ent0011" data-entity-2="ent0016" data-link-type="dependency" data-source-line="98" id="lnk74"><path d="M584.87,773.02 C614.36,761.74 653.74,744.71 685.33,724.02 C747.27,683.45 804.5447,624.7121 833.6247,593.0021" fill="none" id="home_git-to-home__self_provide_home_" style="stroke:#A6ADC8;stroke-width:1;"/><polygon fill="#A6ADC8" points="837.68,588.58,828.649,592.5096,834.3006,592.265,834.5451,597.9166,837.68,588.58" style="stroke:#A6ADC8;stroke-width:1;"/></g><!--link home_productivity to home_firefox--><g class="link" data-entity-1="ent0012" data-entity-2="ent0010" data-link-type="dependency" data-source-line="99" id="lnk75"><path d="M319.89,671 C370.32,668.48 428.2275,665.6001 474.1475,663.3001" fill="none" id="home_productivity-to-home_firefox" style="stroke:#A6ADC8;stroke-width:1;"/><polygon fill="#A6ADC8" points="480.14,663,470.9512,659.4552,475.1463,663.2501,471.3514,667.4452,480.14,663" style="stroke:#A6ADC8;stroke-width:1;"/></g><!--link home_productivity to home_productivity--><g class="link" data-entity-1="ent0012" data-entity-2="ent0012" data-link-type="dependency" data-source-line="100" id="lnk76"><path d="M208.71,655.56 C195.2,638.66 205.08,620.78 238.33,620.78 C271.59,620.78 285.2065,633.9734 271.6965,650.8734" fill="none" id="home_productivity-to-home_productivity" style="stroke:#A6ADC8;stroke-width:1;"/><polygon fill="#A6ADC8" points="267.95,655.56,276.6941,651.0278,271.0721,651.6545,270.4453,646.0325,267.95,655.56" style="stroke:#A6ADC8;stroke-width:1;"/></g><!--link home_productivity to home_slack--><g class="link" data-entity-1="ent0012" data-entity-2="ent0013" data-link-type="dependency" data-source-line="101" id="lnk77"><path d="M274.65,655.36 C303.61,639.9 346.06,618.76 385.13,605.02 C418.84,593.17 452.1756,585.2719 482.7056,579.1919" fill="none" id="home_productivity-to-home_slack" style="stroke:#A6ADC8;stroke-width:1;"/><polygon fill="#A6ADC8" points="488.59,578.02,478.9821,575.8549,483.6863,578.9966,480.5446,583.7008,488.59,578.02" style="stroke:#A6ADC8;stroke-width:1;"/></g><!--link home_productivity to home__self_provide_home_--><g class="link" data-entity-1="ent0012" data-entity-2="ent0016" data-link-type="dependency" data-source-line="102" id="lnk78"><path d="M313.01,694.69 C403.31,715.21 559.8,739.03 685.33,697.02 C749.75,675.46 805.1689,623.1402 833.5689,592.9502" fill="none" id="home_productivity-to-home__self_provide_home_" style="stroke:#A6ADC8;stroke-width:1;"/><polygon fill="#A6ADC8" points="837.68,588.58,828.5999,592.3946,834.2541,592.2218,834.4268,597.8761,837.68,588.58" style="stroke:#A6ADC8;stroke-width:1;"/></g><!--link home_slack to home_slack--><g class="link" data-entity-1="ent0013" data-entity-2="ent0013" data-link-type="dependency" data-source-line="103" id="lnk79"><path d="M493.56,549.56 C471.95,532.66 487.74,514.78 540.93,514.78 C594.12,514.78 614.6355,528.9627 593.0355,545.8627" fill="none" id="home_slack-to-home_slack" style="stroke:#A6ADC8;stroke-width:1;"/><polygon fill="#A6ADC8" points="588.31,549.56,597.8631,547.1644,592.2479,546.479,592.9334,540.8638,588.31,549.56" style="stroke:#A6ADC8;stroke-width:1;"/></g><!--link home_slack to home__self_provide_home_--><g class="link" data-entity-1="ent0013" data-entity-2="ent0016" data-link-type="dependency" data-source-line="104" id="lnk80"><path d="M593.3,569.02 C635.47,569.02 690.59,569.02 743.17,569.02" fill="none" id="home_slack-to-home__self_provide_home_" style="stroke:#A6ADC8;stroke-width:1;"/><polygon fill="#A6ADC8" points="749.17,569.02,740.17,565.02,744.17,569.02,740.17,573.02,749.17,569.02" style="stroke:#A6ADC8;stroke-width:1;"/></g><!--link hyprland to home__self_provide_home_--><g class="link" data-entity-1="ent0017" data-entity-2="ent0016" data-link-type="dependency" data-source-line="105" id="lnk81"><path d="M584.91,206.62 C615.76,209.8 656.75,218.4 685.33,241.02 C791.17,324.79 836.4042,486.7252 849.6242,543.7152" fill="none" id="hyprland-to-home__self_provide_home_" style="stroke:#A6ADC8;stroke-width:1;"/><polygon fill="#A6ADC8" points="850.98,549.56,852.8428,539.8889,849.8501,544.6893,845.0497,541.6967,850.98,549.56" style="stroke:#A6ADC8;stroke-width:1;"/></g><!--link hyprland to hyprland--><g class="link" data-entity-1="ent0017" data-entity-2="ent0017" data-link-type="dependency" data-source-line="106" id="lnk82"><path d="M497.08,188.08 C470.46,170.49 485.08,150.78 540.93,150.78 C596.78,150.78 616.4059,167.1822 589.7859,184.7722" fill="none" id="hyprland-to-hyprland" style="stroke:#A6ADC8;stroke-width:1;"/><polygon fill="#A6ADC8" points="584.78,188.08,594.494,186.4556,588.9515,185.3235,590.0836,179.7811,584.78,188.08" style="stroke:#A6ADC8;stroke-width:1;"/></g><?plantuml-src hLPVQzim47_tfn09b0uMiYGbJLVOGmjZ35R6le1HB3anjQqWALdBw7UVB4ko94jAC_OISdU_-wkxyzMuv80JGAlTdWDKKLpmYhGPUwxQ0wIm0LjOFEyeERReaTI4Wka2B_0IMmY4ItYi-LVISWKf45gNDs784smmc7p7_872gcNW1sd9nqRyi0CiyCHIWfIItyeYN4DKR7nXokKlaGbiTpL-y1DOBLRBcp2KK8HfpAM1MMv7nVY6N-2EjEUTQc3IfGAb73v2YivxawYagmwHylDJ-82xTrHJ0srlw-BsqsOz1gKUy8dmTtYJgAIh3Z7sar7zcc02wqfq7e0Co7zWkhdRtfGmE_H1WicUDBsSSK7d7Gd-P03uDcQ8yBAgCHkCvPe5fkMoG0LorH1ko8pjSLrBbOxC9Ia2tS9rUUl3JpDEICqK-fHBIjXURRPmuu9Dr3BUA6IsXTp0Sa648vLGuN602Y9XjHIxf2Gl0rmn4YgxoWf44E4QIEY14dGKg-fKyTT1n-Ocb5aj7dRGacGywJba1y6vxlv_6BJodYsR8OyxcnUKCDR5UweGlhwg-JriINkru_UsCOdA5KhO5f0yPPNXkZH6_SWweR6buWiM_VL0QzYYNbKHOQS7MZMGliwE35C9LuoyOrWgXTWY7LhwPlEH6i8YBotk_WMil0s3fxuRrkmfZZz-Dh0re6a9jwlDRH2gdrMH7rHuaZ2Fg-bkN-8LN8mpZ5ZxB1ATQr0eyvYdtC5PVWCPkAqrT86nvNQLxeGxl8HbsABJLk7AECqrrCTKUboVgiNH1kZ5wlrZDTuJnbkebfbdGClY4JH7VeIrpYeOHG_H36fgz9Pb_HTXDllIhtEVDklT4WnBt66gNMtnz1RrMVOQysM1uROXQeWjbZrYJZpHGSoy3rSiMHSHZMuOnmvcA8yVcuSHBDO-QQ1kapJAwuFC-Xnx3-j9eiadsZsPzLczVrWcbnirjOqDtIKvU4hXvpapc9Vu2-l-Xxgzm_2uaVIbvku2bn_j8dd03Jl8aCCm6LPgzmTGmMq-uBe_BkNUFRuiUCPavh0qG444kB7KvQKvrdMutHeTSyKH6U16_UWJrI0L8oADskbkrt4C3ZUgwzomuK324EUhaS39SpS5Y8RM7yeXGvuaQ47VbnUW5F4N?></g></svg>