<?xml version="1.0" encoding="UTF-8" standalone="no"?>
<!DOCTYPE svg PUBLIC "-//W3C//DTD SVG 1.1//EN"
 "http://www.w3.org/Graphics/SVG/1.1/DTD/svg11.dtd">
<!-- Generated by graphviz version 12.2.1 (0)
 -->
<!-- Pages: 1 -->
<svg width="2086pt" height="753pt"
 viewBox="0.00 0.00 2085.57 753.01" xmlns="http://www.w3.org/2000/svg" xmlns:xlink="http://www.w3.org/1999/xlink">
<g id="graph0" class="graph" transform="scale(1 1) rotate(0) translate(4 749.01)">
<polygon fill="#1e1e2e" stroke="none" points="-4,4 -4,-749.01 2081.57,-749.01 2081.57,4 -4,4"/>
<g id="clust1" class="cluster">
<title>cluster_ctx_user</title>
<polygon fill="#313244" stroke="#6c7086" stroke-dasharray="5,2" points="99.42,-290.8 99.42,-709.8 715.64,-709.8 715.64,-290.8 99.42,-290.8"/>
<text text-anchor="middle" x="407.53" y="-692.5" font-family="Times,serif" font-size="14.00" fill="#cdd6f4">user</text>
</g>
<g id="clust2" class="cluster">
<title>cluster_ctx_default</title>
<polygon fill="#313244" stroke="#6c7086" stroke-dasharray="5,2" points="483.76,-23.8 483.76,-282.8 2069.57,-282.8 2069.57,-23.8 483.76,-23.8"/>
<text text-anchor="middle" x="1276.67" y="-265.5" font-family="Times,serif" font-size="14.00" fill="#cdd6f4">default</text>
</g>
<!-- alice -->
<g id="node1" class="node">
<title>alice</title>
<path fill="#89b4fa" stroke="#89b4fa" d="M59.42,-496.8C59.42,-496.8 29.42,-496.8 29.42,-496.8 23.42,-496.8 17.42,-490.8 17.42,-484.8 17.42,-484.8 17.42,-472.8 17.42,-472.8 17.42,-466.8 23.42,-460.8 29.42,-460.8 29.42,-460.8 59.42,-460.8 59.42,-460.8 65.42,-460.8 71.42,-466.8 71.42,-472.8 71.42,-472.8 71.42,-484.8 71.42,-484.8 71.42,-490.8 65.42,-496.8 59.42,-496.8"/>
<text text-anchor="middle" x="44.42" y="-474.12" font-family="Times,serif" font-size="14.00" fill="#1e1e2e">alice</text>
</g>
<!-- alice&#45;&gt;alice -->
<g id="edge1" class="edge">
<title>alice&#45;&gt;alice</title>
<path fill="none" stroke="#a6adc8" d="M16.96,-486.75C-12.56,-499.1 -3.41,-514.8 44.42,-514.8 85.53,-514.8 98.07,-503.21 82.05,-492.11"/>
<polygon fill="#a6adc8" stroke="#a6adc8" points="83.7,-489.03 73.23,-487.46 80.44,-495.22 83.7,-489.03"/>
</g>
<!-- demo_shell -->
<g id="node2" class="node">
<title>demo_shell</title>
<polygon fill="#f2cdcd" stroke="#f2cdcd" points="327.66,-532.8 234.41,-532.8 234.41,-496.8 327.66,-496.8 327.66,-532.8"/>
<text text-anchor="middle" x="281.03" y="-510.12" font-family="Times,serif" font-size="14.00" fill="#1e1e2e">demo&#45;shell</text>
</g>
<!-- alice&#45;&gt;demo_shell -->
<g id="edge2" class="edge">
<title>alice&#45;&gt;demo_shell</title>
<path fill="none" stroke="#a6adc8" d="M71.78,-483.28C80.56,-484.75 90.41,-486.37 99.42,-487.8 140.68,-494.32 187.3,-501.28 222.84,-506.5"/>
<polygon fill="#a6adc8" stroke="#a6adc8" points="222.07,-509.92 232.48,-507.91 223.09,-503 222.07,-509.92"/>
</g>
<!-- dev_tools -->
<g id="node3" class="node">
<title>dev_tools</title>
<polygon fill="#fab387" stroke="#fab387" points="321.28,-604.8 240.78,-604.8 240.78,-568.8 321.28,-568.8 321.28,-604.8"/>
<text text-anchor="middle" x="281.03" y="-582.12" font-family="Times,serif" font-size="14.00" fill="#1e1e2e">dev&#45;tools</text>
</g>
<!-- alice&#45;&gt;dev_tools -->
<g id="edge3" class="edge">
<title>alice&#45;&gt;dev_tools</title>
<path fill="none" stroke="#a6adc8" d="M52.42,-497.25C60.63,-516.23 76.16,-545.03 99.42,-559.8 138.11,-584.36 190.69,-589.79 229.14,-589.86"/>
<polygon fill="#a6adc8" stroke="#a6adc8" points="229.12,-593.37 239.07,-589.75 229.03,-586.37 229.12,-593.37"/>
</g>
<!-- hyprland -->
<g id="node4" class="node">
<title>hyprland</title>
<polygon fill="#f2cdcd" stroke="#f2cdcd" points="320.91,-460.8 241.16,-460.8 241.16,-424.8 320.91,-424.8 320.91,-460.8"/>
<text text-anchor="middle" x="281.03" y="-438.12" font-family="Times,serif" font-size="14.00" fill="#1e1e2e">hyprland</text>
</g>
<!-- alice&#45;&gt;hyprland -->
<g id="edge4" class="edge">
<title>alice&#45;&gt;hyprland</title>
<path fill="none" stroke="#a6adc8" d="M71.88,-474.74C110.04,-468.88 181.26,-457.95 229.65,-450.53"/>
<polygon fill="#a6adc8" stroke="#a6adc8" points="229.97,-454.02 239.32,-449.04 228.91,-447.1 229.97,-454.02"/>
</g>
<!-- primary_user -->
<g id="node5" class="node">
<title>primary_user</title>
<polygon fill="#f2cdcd" stroke="#f2cdcd" points="335.53,-676.8 226.53,-676.8 226.53,-640.8 335.53,-640.8 335.53,-676.8"/>
<text text-anchor="middle" x="281.03" y="-654.12" font-family="Times,serif" font-size="14.00" fill="#1e1e2e">primary&#45;user</text>
</g>
<!-- alice&#45;&gt;primary_user -->
<g id="edge5" class="edge">
<title>alice&#45;&gt;primary_user</title>
<path fill="none" stroke="#a6adc8" d="M46.11,-497.27C48.39,-529.95 58.14,-597.73 99.42,-631.8 131.22,-658.04 177.32,-664.59 214.99,-664.68"/>
<polygon fill="#a6adc8" stroke="#a6adc8" points="214.92,-668.18 224.87,-664.54 214.82,-661.18 214.92,-668.18"/>
</g>
<!-- den__provides__primary_user -->
<g id="node6" class="node">
<title>den__provides__primary_user</title>
<polygon fill="#f2cdcd" stroke="#f2cdcd" points="382.42,-334.8 179.64,-334.8 107.42,-298.8 454.64,-298.8 382.42,-334.8"/>
<text text-anchor="middle" x="281.03" y="-312.12" font-family="Times,serif" font-size="14.00" fill="#1e1e2e">provides/primary&#45;user</text>
</g>
<!-- alice&#45;&gt;den__provides__primary_user -->
<g id="edge6" class="edge">
<title>alice&#45;&gt;den__provides__primary_user</title>
<path fill="none" stroke="#a6adc8" d="M47.07,-460.57C50.78,-430.99 62.6,-372.93 99.42,-343.8 110.91,-334.7 124.14,-328.02 138.11,-323.16"/>
<polygon fill="#a6adc8" stroke="#a6adc8" points="138.96,-326.56 147.47,-320.24 136.88,-319.87 138.96,-326.56"/>
</g>
<!-- user__self_provide_user_ -->
<g id="node10" class="node">
<title>user__self_provide_user_</title>
<polygon fill="#f2cdcd" stroke="#f2cdcd" points="687.76,-568.8 510.51,-568.8 510.51,-532.8 687.76,-532.8 687.76,-568.8"/>
<text text-anchor="middle" x="599.14" y="-546.12" font-family="Times,serif" font-size="14.00" fill="#1e1e2e">user/self&#45;provide(user)</text>
</g>
<!-- alice&#45;&gt;user__self_provide_user_ -->
<g id="edge7" class="edge">
<title>alice&#45;&gt;user__self_provide_user_</title>
<path fill="none" stroke="#a6adc8" d="M47.37,-497.06C52.71,-543.2 69.22,-662.46 99.42,-685.8 224.35,-782.32 307.88,-743.98 454.64,-685.8 509.05,-664.23 554.83,-611.18 579.21,-578.37"/>
<polygon fill="#a6adc8" stroke="#a6adc8" points="581.87,-580.67 584.91,-570.52 576.2,-576.56 581.87,-580.67"/>
</g>
<!-- demo_shell&#45;&gt;demo_shell -->
<g id="edge15" class="edge">
<title>demo_shell&#45;&gt;demo_shell</title>
<path fill="none" stroke="#a6adc8" d="M238.23,-532.95C231.64,-542.34 245.91,-550.8 281.03,-550.8 301.06,-550.8 314.31,-548.04 320.77,-543.94"/>
<polygon fill="#a6adc8" stroke="#a6adc8" points="324.12,-544.98 323.43,-534.41 317.37,-543.1 324.12,-544.98"/>
</g>
<!-- demo_shell&#45;&gt;user__self_provide_user_ -->
<g id="edge16" class="edge">
<title>demo_shell&#45;&gt;user__self_provide_user_</title>
<path fill="none" stroke="#a6adc8" d="M328,-520.03C372.62,-525.11 441.81,-532.99 499,-539.51"/>
<polygon fill="#a6adc8" stroke="#a6adc8" points="498.43,-542.96 508.76,-540.62 499.22,-536.01 498.43,-542.96"/>
</g>
<!-- dev_tools&#45;&gt;dev_tools -->
<g id="edge27" class="edge">
<title>dev_tools&#45;&gt;dev_tools</title>
<path fill="none" stroke="#a6adc8" d="M240.58,-602.34C229.19,-612.7 242.67,-622.8 281.03,-622.8 305,-622.8 319.26,-618.85 323.8,-613.37"/>
<polygon fill="#a6adc8" stroke="#a6adc8" points="327.28,-612.89 321.8,-603.82 320.43,-614.32 327.28,-612.89"/>
</g>
<!-- dev_tools&#45;&gt;user__self_provide_user_ -->
<g id="edge28" class="edge">
<title>dev_tools&#45;&gt;user__self_provide_user_</title>
<path fill="none" stroke="#a6adc8" d="M321.75,-582.27C365.91,-577.24 438.92,-568.93 498.81,-562.11"/>
<polygon fill="#a6adc8" stroke="#a6adc8" points="499.17,-565.59 508.71,-560.98 498.38,-558.63 499.17,-565.59"/>
</g>
<!-- hyprland&#45;&gt;hyprland -->
<g id="edge29" class="edge">
<title>hyprland&#45;&gt;hyprland</title>
<path fill="none" stroke="#a6adc8" d="M241,-457.96C228.87,-468.46 242.21,-478.8 281.03,-478.8 305.9,-478.8 320.31,-474.55 324.27,-468.75"/>
<polygon fill="#a6adc8" stroke="#a6adc8" points="327.7,-468 321.49,-459.41 320.99,-470 327.7,-468"/>
</g>
<!-- hyprland&#45;&gt;user__self_provide_user_ -->
<g id="edge30" class="edge">
<title>hyprland&#45;&gt;user__self_provide_user_</title>
<path fill="none" stroke="#a6adc8" d="M321.29,-451.16C356.62,-459.13 409.73,-472.2 454.64,-487.8 487.34,-499.16 522.99,-514.79 550.57,-527.64"/>
<polygon fill="#a6adc8" stroke="#a6adc8" points="548.82,-530.68 559.35,-531.77 551.79,-524.35 548.82,-530.68"/>
</g>
<!-- user -->
<g id="node7" class="node">
<title>user</title>
<polygon fill="#f2cdcd" stroke="#f2cdcd" points="308.03,-388.8 254.03,-388.8 254.03,-352.8 308.03,-352.8 308.03,-388.8"/>
<text text-anchor="middle" x="281.03" y="-366.12" font-family="Times,serif" font-size="14.00" fill="#1e1e2e">user</text>
</g>
<!-- user&#45;&gt;alice -->
<g id="edge31" class="edge">
<title>user&#45;&gt;alice</title>
<path fill="none" stroke="#a6adc8" d="M253.58,-372.37C216.56,-375.63 148.36,-385.58 99.42,-415.8 85.06,-424.66 72.54,-438.61 63.18,-451.12"/>
<polygon fill="#a6adc8" stroke="#a6adc8" points="60.47,-448.89 57.53,-459.08 66.17,-452.95 60.47,-448.89"/>
</g>
<!-- user&#45;&gt;user -->
<g id="edge35" class="edge">
<title>user&#45;&gt;user</title>
<path fill="none" stroke="#a6adc8" d="M253.57,-378.75C224.05,-391.1 233.2,-406.8 281.03,-406.8 322.13,-406.8 334.68,-395.21 318.65,-384.11"/>
<polygon fill="#a6adc8" stroke="#a6adc8" points="320.31,-381.03 309.83,-379.46 317.05,-387.22 320.31,-381.03"/>
</g>
<!-- user__aspect_user_ -->
<g id="node8" class="node">
<title>user__aspect_user_</title>
<polygon fill="#fab387" stroke="#fab387" points="669.39,-415.8 528.89,-415.8 528.89,-379.8 669.39,-379.8 669.39,-415.8"/>
<text text-anchor="middle" x="599.14" y="-393.12" font-family="Times,serif" font-size="14.00" fill="#1e1e2e">user/aspect(user)</text>
</g>
<!-- user&#45;&gt;user__aspect_user_ -->
<g id="edge36" class="edge">
<title>user&#45;&gt;user__aspect_user_</title>
<path fill="none" stroke="#a6adc8" d="M308.44,-373.05C353.84,-376.93 448.43,-385.01 517.21,-390.88"/>
<polygon fill="#a6adc8" stroke="#a6adc8" points="516.68,-394.35 526.94,-391.71 517.27,-387.38 516.68,-394.35"/>
</g>
<!-- user__cross_provide__anon__ -->
<g id="node9" class="node">
<title>user__cross_provide__anon__</title>
<polygon fill="#f38ba8" stroke="#f38ba8" points="707.64,-361.8 490.64,-361.8 490.64,-325.8 707.64,-325.8 707.64,-361.8"/>
<text text-anchor="middle" x="599.14" y="-339.12" font-family="Times,serif" font-size="14.00" fill="#1e1e2e">user/cross&#45;provide(&lt;anon&gt;)</text>
</g>
<!-- user&#45;&gt;user__cross_provide__anon__ -->
<g id="edge37" class="edge">
<title>user&#45;&gt;user__cross_provide__anon__</title>
<path fill="none" stroke="#a6adc8" d="M308.44,-368.54C345.88,-365.34 416.79,-359.29 479.08,-353.97"/>
<polygon fill="#a6adc8" stroke="#a6adc8" points="479.02,-357.48 488.69,-353.14 478.43,-350.51 479.02,-357.48"/>
</g>
<!-- n_default -->
<g id="node11" class="node">
<title>n_default</title>
<polygon fill="#fab387" stroke="#fab387" points="632.26,-177.8 566.01,-177.8 566.01,-141.8 632.26,-141.8 632.26,-177.8"/>
<text text-anchor="middle" x="599.14" y="-155.12" font-family="Times,serif" font-size="14.00" fill="#1e1e2e">default</text>
</g>
<!-- user&#45;&gt;n_default -->
<g id="edge32" class="edge">
<title>user&#45;&gt;n_default</title>
<path fill="none" stroke="#a6adc8" d="M308.48,-375.05C346.18,-379.48 415.16,-381.29 454.64,-343.8 500.4,-300.33 443.04,-253.02 483.76,-204.8 501.47,-183.83 530.26,-172.57 554.52,-166.56"/>
<polygon fill="#a6adc8" stroke="#a6adc8" points="555.17,-170 564.17,-164.41 553.65,-163.17 555.17,-170"/>
</g>
<!-- default__cross_provide_user_ -->
<g id="node14" class="node">
<title>default__cross_provide_user_</title>
<polygon fill="#f9e2af" stroke="#f9e2af" points="703.51,-249.8 494.76,-249.8 494.76,-213.8 703.51,-213.8 703.51,-249.8"/>
<text text-anchor="middle" x="599.14" y="-227.12" font-family="Times,serif" font-size="14.00" fill="#1e1e2e">default/cross&#45;provide(user)</text>
</g>
<!-- user&#45;&gt;default__cross_provide_user_ -->
<g id="edge33" class="edge">
<title>user&#45;&gt;default__cross_provide_user_</title>
<path fill="none" stroke="#a6adc8" d="M308.47,-373.64C344.92,-376.14 411.03,-375.37 454.64,-343.8 477.68,-327.11 463.41,-306.67 483.76,-286.8 497.34,-273.54 514.72,-262.99 531.81,-254.81"/>
<polygon fill="#a6adc8" stroke="#a6adc8" points="532.78,-258.21 540.43,-250.89 529.88,-251.84 532.78,-258.21"/>
</g>
<!-- default__self_provide_default_ -->
<g id="node15" class="node">
<title>default__self_provide_default_</title>
<polygon fill="#fab387" stroke="#fab387" points="706.51,-123.8 491.76,-123.8 491.76,-87.8 706.51,-87.8 706.51,-123.8"/>
<text text-anchor="middle" x="599.14" y="-101.12" font-family="Times,serif" font-size="14.00" fill="#1e1e2e">default/self&#45;provide(default)</text>
</g>
<!-- user&#45;&gt;default__self_provide_default_ -->
<g id="edge34" class="edge">
<title>user&#45;&gt;default__self_provide_default_</title>
<path fill="none" stroke="#a6adc8" d="M308.52,-375.37C346.59,-380.27 416.38,-382.75 454.64,-343.8 520.97,-276.26 420.07,-202.83 483.76,-132.8 484.12,-132.4 484.49,-132.01 484.86,-131.62"/>
<polygon fill="#a6adc8" stroke="#a6adc8" points="486.89,-134.5 492.1,-125.27 482.27,-129.24 486.89,-134.5"/>
</g>
<!-- n_default&#45;&gt;n_default -->
<g id="edge10" class="edge">
<title>n_default&#45;&gt;n_default</title>
<path fill="none" stroke="#a6adc8" d="M565.79,-166.69C521.85,-179.18 532.97,-195.8 599.14,-195.8 659.1,-195.8 673.85,-182.15 643.39,-170.29"/>
<polygon fill="#a6adc8" stroke="#a6adc8" points="644.51,-166.98 633.92,-167.16 642.31,-173.63 644.51,-166.98"/>
</g>
<!-- default__aspect_default_ -->
<g id="node12" class="node">
<title>default__aspect_default_</title>
<polygon fill="#a6e3a1" stroke="#a6e3a1" points="2061.57,-142.8 1883.57,-142.8 1883.57,-106.8 2061.57,-106.8 2061.57,-142.8"/>
<text text-anchor="middle" x="1972.57" y="-120.12" font-family="Times,serif" font-size="14.00" fill="#1e1e2e">default/aspect(default)</text>
</g>
<!-- n_default&#45;&gt;default__aspect_default_ -->
<g id="edge11" class="edge">
<title>n_default&#45;&gt;default__aspect_default_</title>
<path fill="none" stroke="#a6adc8" d="M632.7,-167.66C657.13,-174.66 690.54,-186.62 715.64,-204.8 731.49,-216.28 725.93,-230.44 743.64,-238.8 861.54,-294.44 1659.81,-280.67 1847.57,-215.8 1886.06,-202.5 1922.7,-172.74 1946.04,-150.86"/>
<polygon fill="#a6adc8" stroke="#a6adc8" points="1948.43,-153.42 1953.21,-143.96 1943.58,-148.37 1948.43,-153.42"/>
</g>
<!-- den__provides__define_user -->
<g id="node16" class="node">
<title>den__provides__define_user</title>
<polygon fill="#a6e3a1" stroke="#a6e3a1" points="1033.13,-211.8 846,-211.8 779.35,-175.8 1099.78,-175.8 1033.13,-211.8"/>
<text text-anchor="middle" x="939.57" y="-189.12" font-family="Times,serif" font-size="14.00" fill="#1e1e2e">provides/define&#45;user</text>
</g>
<!-- n_default&#45;&gt;den__provides__define_user -->
<g id="edge12" class="edge">
<title>n_default&#45;&gt;den__provides__define_user</title>
<path fill="none" stroke="#a6adc8" d="M632.59,-163.06C665.33,-166.35 718.48,-171.69 771.37,-177"/>
<polygon fill="#a6adc8" stroke="#a6adc8" points="770.84,-180.46 781.14,-177.98 771.54,-173.5 770.84,-180.46"/>
</g>
<!-- den__provides__hostname -->
<g id="node17" class="node">
<title>den__provides__hostname</title>
<polygon fill="#fab387" stroke="#fab387" points="1027.49,-139.8 851.65,-139.8 789.02,-103.8 1090.11,-103.8 1027.49,-139.8"/>
<text text-anchor="middle" x="939.57" y="-117.12" font-family="Times,serif" font-size="14.00" fill="#1e1e2e">provides/hostname</text>
</g>
<!-- n_default&#45;&gt;den__provides__hostname -->
<g id="edge13" class="edge">
<title>n_default&#45;&gt;den__provides__hostname</title>
<path fill="none" stroke="#a6adc8" d="M632.59,-156.15C677.17,-151.15 759.6,-141.89 827.67,-134.25"/>
<polygon fill="#a6adc8" stroke="#a6adc8" points="827.85,-137.75 837.39,-133.16 827.07,-130.79 827.85,-137.75"/>
</g>
<!-- den__provides__mutual_provider -->
<g id="node18" class="node">
<title>den__provides__mutual_provider</title>
<polygon fill="#f9e2af" stroke="#f9e2af" points="1053.99,-67.8 825.14,-67.8 743.64,-31.8 1135.49,-31.8 1053.99,-67.8"/>
<text text-anchor="middle" x="939.57" y="-45.12" font-family="Times,serif" font-size="14.00" fill="#1e1e2e">provides/mutual&#45;provider</text>
</g>
<!-- n_default&#45;&gt;den__provides__mutual_provider -->
<g id="edge14" class="edge">
<title>n_default&#45;&gt;den__provides__mutual_provider</title>
<path fill="none" stroke="#a6adc8" d="M632.64,-158.21C657.2,-155.66 690.79,-149.17 715.64,-132.8 733.15,-121.25 726.11,-106.32 743.64,-94.8 762.08,-82.68 783.36,-73.81 804.95,-67.31"/>
<polygon fill="#a6adc8" stroke="#a6adc8" points="805.78,-70.72 814.45,-64.63 803.88,-63.98 805.78,-70.72"/>
</g>
<!-- den__provides__default__aspect_default__den__provides -->
<g id="node13" class="node">
<title>den__provides__default__aspect_default__den__provides</title>
<polygon fill="#a6e3a1" stroke="#a6e3a1" points="1706.95,-179.8 1312.11,-179.8 1171.49,-143.8 1847.57,-143.8 1706.95,-179.8"/>
<text text-anchor="middle" x="1509.53" y="-157.12" font-family="Times,serif" font-size="14.00" fill="#1e1e2e">provides/default/aspect(default):den/provides</text>
</g>
<!-- den__provides__define_user&#45;&gt;default__aspect_default_ -->
<g id="edge17" class="edge">
<title>den__provides__define_user&#45;&gt;default__aspect_default_</title>
<path fill="none" stroke="#a6adc8" d="M1040.4,-208.22C1209.46,-229.35 1561.61,-259.07 1847.57,-188.8 1879.07,-181.06 1911.53,-163.91 1935.34,-149.31"/>
<polygon fill="#a6adc8" stroke="#a6adc8" points="1937.1,-152.34 1943.7,-144.05 1933.38,-146.41 1937.1,-152.34"/>
</g>
<!-- den__provides__define_user&#45;&gt;den__provides__default__aspect_default__den__provides -->
<g id="edge18" class="edge">
<title>den__provides__define_user&#45;&gt;den__provides__default__aspect_default__den__provides</title>
<path fill="none" stroke="#a6adc8" d="M1082.06,-185.82C1140.99,-182.5 1210.98,-178.56 1277.03,-174.84"/>
<polygon fill="#a6adc8" stroke="#a6adc8" points="1277.16,-178.34 1286.95,-174.28 1276.76,-171.35 1277.16,-178.34"/>
</g>
<!-- den__provides__define_user&#45;&gt;den__provides__define_user -->
<g id="edge19" class="edge">
<title>den__provides__define_user&#45;&gt;den__provides__define_user</title>
<path fill="none" stroke="#a6adc8" d="M877.98,-211.95C868.51,-221.34 889.03,-229.8 939.57,-229.8 969.17,-229.8 988.48,-226.89 997.49,-222.6"/>
<polygon fill="#a6adc8" stroke="#a6adc8" points="1000.72,-223.97 1000.66,-213.38 994.1,-221.7 1000.72,-223.97"/>
</g>
<!-- den__provides__hostname&#45;&gt;default__aspect_default_ -->
<g id="edge20" class="edge">
<title>den__provides__hostname&#45;&gt;default__aspect_default_</title>
<path fill="none" stroke="#a6adc8" d="M1059.09,-122.14C1263.94,-122.74 1680.61,-123.95 1871.72,-124.51"/>
<polygon fill="#a6adc8" stroke="#a6adc8" points="1871.62,-128.01 1881.63,-124.53 1871.65,-121.01 1871.62,-128.01"/>
</g>
<!-- den__provides__hostname&#45;&gt;den__provides__default__aspect_default__den__provides -->
<g id="edge21" class="edge">
<title>den__provides__hostname&#45;&gt;den__provides__default__aspect_default__den__provides</title>
<path fill="none" stroke="#a6adc8" d="M1046.73,-129.27C1100.26,-133.04 1167.89,-137.81 1234.77,-142.52"/>
<polygon fill="#a6adc8" stroke="#a6adc8" points="1234.2,-145.98 1244.42,-143.2 1234.69,-139 1234.2,-145.98"/>
</g>
<!-- den__provides__hostname&#45;&gt;den__provides__hostname -->
<g id="edge22" class="edge">
<title>den__provides__hostname&#45;&gt;den__provides__hostname</title>
<path fill="none" stroke="#a6adc8" d="M877.98,-139.95C868.51,-149.34 889.03,-157.8 939.57,-157.8 969.17,-157.8 988.48,-154.89 997.49,-150.6"/>
<polygon fill="#a6adc8" stroke="#a6adc8" points="1000.72,-151.97 1000.66,-141.38 994.1,-149.7 1000.72,-151.97"/>
</g>
<!-- den__provides__mutual_provider&#45;&gt;default__aspect_default_ -->
<g id="edge23" class="edge">
<title>den__provides__mutual_provider&#45;&gt;default__aspect_default_</title>
<path fill="none" stroke="#a6adc8" d="M1019.18,-68.3C1063.62,-77.95 1120.36,-88.94 1171.49,-94.8 1470.21,-128.99 1547.17,-106.2 1847.57,-118.8 1855.49,-119.13 1863.7,-119.49 1871.94,-119.86"/>
<polygon fill="#a6adc8" stroke="#a6adc8" points="1871.52,-123.35 1881.67,-120.31 1871.84,-116.35 1871.52,-123.35"/>
</g>
<!-- den__provides__mutual_provider&#45;&gt;den__provides__default__aspect_default__den__provides -->
<g id="edge24" class="edge">
<title>den__provides__mutual_provider&#45;&gt;den__provides__default__aspect_default__den__provides</title>
<path fill="none" stroke="#a6adc8" d="M1035.13,-68.28C1067.3,-75.44 1103.25,-84.44 1135.49,-94.8 1152,-100.1 1154.81,-105.11 1171.49,-109.8 1220.38,-123.53 1274.34,-133.9 1324.48,-141.62"/>
<polygon fill="#a6adc8" stroke="#a6adc8" points="1323.88,-145.07 1334.29,-143.1 1324.93,-138.14 1323.88,-145.07"/>
</g>
<!-- den__provides__mutual_provider&#45;&gt;den__provides__mutual_provider -->
<g id="edge25" class="edge">
<title>den__provides__mutual_provider&#45;&gt;den__provides__mutual_provider</title>
<path fill="none" stroke="#a6adc8" d="M877.98,-67.95C868.51,-77.34 889.03,-85.8 939.57,-85.8 969.17,-85.8 988.48,-82.89 997.49,-78.6"/>
<polygon fill="#a6adc8" stroke="#a6adc8" points="1000.72,-79.97 1000.66,-69.38 994.1,-77.7 1000.72,-79.97"/>
</g>
<!-- alice__to_hosts -->
<g id="node19" class="node">
<title>alice__to_hosts</title>
<polygon fill="#a6e3a1" stroke="#a6e3a1" points="1573.55,-67.8 1445.51,-67.8 1399.91,-31.8 1619.15,-31.8 1573.55,-67.8"/>
<text text-anchor="middle" x="1509.53" y="-45.12" font-family="Times,serif" font-size="14.00" fill="#1e1e2e">alice/to&#45;hosts</text>
</g>
<!-- den__provides__mutual_provider&#45;&gt;alice__to_hosts -->
<g id="edge26" class="edge">
<title>den__provides__mutual_provider&#45;&gt;alice__to_hosts</title>
<path fill="none" stroke="#a6adc8" d="M1095.77,-49.8C1196.35,-49.8 1324.29,-49.8 1410.87,-49.8"/>
<polygon fill="#a6adc8" stroke="#a6adc8" points="1410.76,-53.3 1420.76,-49.8 1410.76,-46.3 1410.76,-53.3"/>
</g>
<!-- alice__to_hosts&#45;&gt;alice -->
<g id="edge38" class="edge">
<title>alice__to_hosts&#45;&gt;alice</title>
<path fill="none" stroke="#a6adc8" d="M1403.31,-31.31C1212.88,-2.46 801.36,38.63 483.76,-78.8 301.59,-146.15 220.71,-135.09 99.42,-286.8 61.03,-334.82 49.92,-408.58 46.71,-449.29"/>
<polygon fill="#a6adc8" stroke="#a6adc8" points="43.23,-448.83 46.06,-459.04 50.22,-449.3 43.23,-448.83"/>
</g>
<!-- alice__to_hosts&#45;&gt;default__aspect_default_ -->
<g id="edge8" class="edge">
<title>alice__to_hosts&#45;&gt;default__aspect_default_</title>
<path fill="none" stroke="#a6adc8" d="M1584.35,-59.63C1652.75,-69 1757.25,-84 1847.57,-99.8 1855.53,-101.19 1863.76,-102.7 1872.02,-104.26"/>
<polygon fill="#a6adc8" stroke="#a6adc8" points="1871.31,-107.69 1881.79,-106.13 1872.63,-100.81 1871.31,-107.69"/>
</g>
<!-- alice__to_hosts&#45;&gt;alice__to_hosts -->
<g id="edge9" class="edge">
<title>alice__to_hosts&#45;&gt;alice__to_hosts</title>
<path fill="none" stroke="#a6adc8" d="M1438.17,-62.34C1403.45,-73.67 1427.24,-85.8 1509.53,-85.8 1581.54,-85.8 1608.76,-76.51 1591.18,-66.6"/>
<polygon fill="#a6adc8" stroke="#a6adc8" points="1592.88,-63.52 1582.3,-62.92 1590.2,-69.98 1592.88,-63.52"/>
</g>
</g>
</svg>
