<?plantuml 1.2026.2?><svg xmlns="http://www.w3.org/2000/svg" xmlns:xlink="http://www.w3.org/1999/xlink" contentStyleType="text/css" data-diagram-type="DESCRIPTION" height="687px" preserveAspectRatio="none" style="width:2192px;height:687px;background:#1E1E2E;" version="1.1" viewBox="0 0 2192 687" width="2192px" zoomAndPan="magnify"><defs/><g><rect fill="#1E1E2E" height="687" style="stroke:none;stroke-width:1;" width="2192" x="0" y="0"/><!--cluster stage_user--><g class="cluster" data-qualified-name="stage_user" data-source-line="24" id="ent0003"><path d="M8.5,6.7 L43.0999,6.7 A3.75,3.75 0 0 1 45.5999,9.2 L52.5999,31.1799 L1439.9,31.1799 A2.5,2.5 0 0 1 1442.4,33.6799 L1442.4,259.2 A2.5,2.5 0 0 1 1439.9,261.7 L8.5,261.7 A2.5,2.5 0 0 1 6,259.2 L6,9.2 A2.5,2.5 0 0 1 8.5,6.7" fill="#313244" style="stroke:#6C7086;stroke-width:1.5;"/><line style="stroke:#6C7086;stroke-width:1.5;" x1="6" x2="52.5999" y1="31.1799" y2="31.1799"/><text fill="#CDD6F4" font-family="'JetBrains Mono,monospace'" font-size="14" font-weight="bold" lengthAdjust="spacing" textLength="33.5999" x="10" y="22.9799">user</text></g><!--cluster stage_default--><g class="cluster" data-qualified-name="stage_default" data-source-line="35" id="ent0013"><path d="M278.5,418.7 L338.2997,418.7 A3.75,3.75 0 0 1 340.7997,421.2 L347.7997,443.1799 L2183.49,443.1799 A2.5,2.5 0 0 1 2185.99,445.6799 L2185.99,678.2 A2.5,2.5 0 0 1 2183.49,680.7 L278.5,680.7 A2.5,2.5 0 0 1 276,678.2 L276,421.2 A2.5,2.5 0 0 1 278.5,418.7" fill="#313244" style="stroke:#6C7086;stroke-width:1.5;"/><line style="stroke:#6C7086;stroke-width:1.5;" x1="276" x2="347.7997" y1="443.1799" y2="443.1799"/><text fill="#CDD6F4" font-family="'JetBrains Mono,monospace'" font-size="14" font-weight="bold" lengthAdjust="spacing" textLength="58.7997" x="280" y="434.9799">default</text></g><!--entity demo_shell--><g class="entity" data-qualified-name="stage_user.demo_shell" data-source-line="25" id="ent0004"><rect fill="#F2CDCD" height="38.4799" rx="2.5" ry="2.5" style="stroke:#A6ADC8;stroke-width:0.5;" width="103.9996" x="371.8" y="61.46"/><text fill="#1E1E2E" font-family="'JetBrains Mono,monospace'" font-size="14" lengthAdjust="spacing" textLength="83.9996" x="381.8" y="85.7399">demo-shell</text></g><!--entity dev_tools--><g class="entity" data-qualified-name="stage_user.dev_tools" data-source-line="26" id="ent0005"><rect fill="#FAB387" height="38.4799" rx="2.5" ry="2.5" style="stroke:#A6ADC8;stroke-width:0.5;" width="95.5997" x="937" y="98.46"/><text fill="#1E1E2E" font-family="'JetBrains Mono,monospace'" font-size="14" lengthAdjust="spacing" textLength="75.5997" x="947" y="122.7399">dev-tools</text></g><!--entity hyprland--><g class="entity" data-qualified-name="stage_user.hyprland" data-source-line="27" id="ent0006"><rect fill="#F2CDCD" height="38.4799" rx="2.5" ry="2.5" style="stroke:#A6ADC8;stroke-width:0.5;" width="87.1997" x="692.2" y="98.46"/><text fill="#1E1E2E" font-family="'JetBrains Mono,monospace'" font-size="14" lengthAdjust="spacing" textLength="67.1997" x="702.2" y="122.7399">hyprland</text></g><!--entity primary_user--><g class="entity" data-qualified-name="stage_user.primary_user" data-source-line="28" id="ent0007"><rect fill="#F2CDCD" height="38.4799" rx="2.5" ry="2.5" style="stroke:#A6ADC8;stroke-width:0.5;" width="120.7996" x="59.8" y="57.46"/><text fill="#1E1E2E" font-family="'JetBrains Mono,monospace'" font-size="14" lengthAdjust="spacing" textLength="100.7996" x="69.8" y="81.7399">primary-user</text></g><!--entity den__provides__primary_user--><g class="entity" data-qualified-name="stage_user.den__provides__primary_user" data-source-line="29" id="ent0008"><rect fill="#F2CDCD" height="24.4799" rx="2.5" ry="2.5" style="stroke:#A6ADC8;stroke-width:0.5;" width="196.3992" x="22" y="130.46"/><text fill="#1E1E2E" font-family="'JetBrains Mono,monospace'" font-size="14" lengthAdjust="spacing" textLength="176.3992" x="32" y="147.7399">provides/primary-user</text></g><!--entity user--><g class="entity" data-qualified-name="stage_user.user" data-source-line="30" id="ent0009"><rect fill="#F2CDCD" height="38.4799" rx="2.5" ry="2.5" style="stroke:#A6ADC8;stroke-width:0.5;" width="53.5999" x="93.4" y="207.46"/><text fill="#1E1E2E" font-family="'JetBrains Mono,monospace'" font-size="14" lengthAdjust="spacing" textLength="33.5999" x="103.4" y="231.7399">user</text></g><!--entity user__aspect_user_--><g class="entity" data-qualified-name="stage_user.user__aspect_user_" data-source-line="31" id="ent0010"><rect fill="#FAB387" height="38.4799" rx="2.5" ry="2.5" style="stroke:#A6ADC8;stroke-width:0.5;" width="162.7994" x="342.4" y="207.46"/><text fill="#1E1E2E" font-family="'JetBrains Mono,monospace'" font-size="14" lengthAdjust="spacing" textLength="142.7994" x="352.4" y="231.7399">user/aspect(user)</text></g><!--entity user__cross_provide__anon__--><g class="entity" data-qualified-name="stage_user.user__cross_provide__anon__" data-source-line="32" id="ent0011"><rect fill="#F38BA8" height="38.4799" rx="2.5" ry="2.5" style="stroke:#A6ADC8;stroke-width:0.5;" width="288.7988" x="279.4" y="134.46"/><text fill="#1E1E2E" font-family="'JetBrains Mono,monospace'" font-size="14" lengthAdjust="spacing" textLength="268.7988" x="289.4" y="158.7399">user/cross-provide(&amp;lt;anon&amp;gt;)</text></g><!--entity user__self_provide_user_--><g class="entity" data-qualified-name="stage_user.user__self_provide_user_" data-source-line="33" id="ent0012"><rect fill="#F2CDCD" height="38.4799" rx="2.5" ry="2.5" style="stroke:#A6ADC8;stroke-width:0.5;" width="213.1992" x="1213.2" y="126.46"/><text fill="#1E1E2E" font-family="'JetBrains Mono,monospace'" font-size="14" lengthAdjust="spacing" textLength="193.1992" x="1223.2" y="150.7399">user/self-provide(user)</text></g><!--entity n_default--><g class="entity" data-qualified-name="stage_default.n_default" data-source-line="36" id="ent0014"><rect fill="#FAB387" height="38.4799" rx="2.5" ry="2.5" style="stroke:#A6ADC8;stroke-width:0.5;" width="78.7997" x="384.4" y="528.46"/><text fill="#1E1E2E" font-family="'JetBrains Mono,monospace'" font-size="14" lengthAdjust="spacing" textLength="58.7997" x="394.4" y="552.7399">default</text></g><!--entity default__aspect_default_--><g class="entity" data-qualified-name="stage_default.default__aspect_default_" data-source-line="37" id="ent0015"><rect fill="#A6E3A1" height="38.4799" rx="2.5" ry="2.5" style="stroke:#A6ADC8;stroke-width:0.5;" width="213.1992" x="629.2" y="528.46"/><text fill="#1E1E2E" font-family="'JetBrains Mono,monospace'" font-size="14" lengthAdjust="spacing" textLength="193.1992" x="639.2" y="552.7399">default/aspect(default)</text></g><!--entity den__provides__default__aspect_default__den__provides--><g class="entity" data-qualified-name="stage_default.den__provides__default__aspect_default__den__provides" data-source-line="38" id="ent0016"><rect fill="#A6E3A1" height="24.4799" rx="2.5" ry="2.5" style="stroke:#A6ADC8;stroke-width:0.5;" width="397.9984" x="1771.99" y="568.46"/><text fill="#1E1E2E" font-family="'JetBrains Mono,monospace'" font-size="14" lengthAdjust="spacing" textLength="377.9984" x="1781.99" y="585.7399">provides/default/aspect(default):den/provides</text></g><!--entity default__cross_provide_user_--><g class="entity" data-qualified-name="stage_default.default__cross_provide_user_" data-source-line="39" id="ent0017"><rect fill="#F9E2AF" height="38.4799" rx="2.5" ry="2.5" style="stroke:#A6ADC8;stroke-width:0.5;" width="246.799" x="300.4" y="601.46"/><text fill="#1E1E2E" font-family="'JetBrains Mono,monospace'" font-size="14" lengthAdjust="spacing" textLength="226.799" x="310.4" y="625.7399">default/cross-provide(user)</text></g><!--entity default__self_provide_default_--><g class="entity" data-qualified-name="stage_default.default__self_provide_default_" data-source-line="40" id="ent0018"><rect fill="#FAB387" height="38.4799" rx="2.5" ry="2.5" style="stroke:#A6ADC8;stroke-width:0.5;" width="263.5989" x="292" y="455.46"/><text fill="#1E1E2E" font-family="'JetBrains Mono,monospace'" font-size="14" lengthAdjust="spacing" textLength="243.5989" x="302" y="479.7399">default/self-provide(default)</text></g><!--entity den__provides__define_user--><g class="entity" data-qualified-name="stage_default.den__provides__define_user" data-source-line="41" id="ent0019"><rect fill="#A6E3A1" height="24.4799" rx="2.5" ry="2.5" style="stroke:#A6ADC8;stroke-width:0.5;" width="187.9993" x="1225.8" y="614.46"/><text fill="#1E1E2E" font-family="'JetBrains Mono,monospace'" font-size="14" lengthAdjust="spacing" textLength="167.9993" x="1235.8" y="631.7399">provides/define-user</text></g><!--entity den__provides__hostname--><g class="entity" data-qualified-name="stage_default.den__provides__hostname" data-source-line="42" id="ent0020"><rect fill="#FAB387" height="24.4799" rx="2.5" ry="2.5" style="stroke:#A6ADC8;stroke-width:0.5;" width="162.7994" x="903.4" y="566.46"/><text fill="#1E1E2E" font-family="'JetBrains Mono,monospace'" font-size="14" lengthAdjust="spacing" textLength="142.7994" x="913.4" y="583.7399">provides/hostname</text></g><!--entity den__provides__mutual_provider--><g class="entity" data-qualified-name="stage_default.den__provides__mutual_provider" data-source-line="43" id="ent0021"><rect fill="#F9E2AF" height="24.4799" rx="2.5" ry="2.5" style="stroke:#A6ADC8;stroke-width:0.5;" width="221.5991" x="1489.4" y="520.46"/><text fill="#1E1E2E" font-family="'JetBrains Mono,monospace'" font-size="14" lengthAdjust="spacing" textLength="201.5991" x="1499.4" y="537.7399">provides/mutual-provider</text></g><!--entity alice__to_hosts--><g class="entity" data-qualified-name="stage_default.alice__to_hosts" data-source-line="44" id="ent0022"><rect fill="#A6E3A1" height="24.4799" rx="2.5" ry="2.5" style="stroke:#A6ADC8;stroke-width:0.5;" width="137.5995" x="1902.19" y="473.46"/><text fill="#1E1E2E" font-family="'JetBrains Mono,monospace'" font-size="14" lengthAdjust="spacing" textLength="117.5995" x="1912.19" y="490.7399">alice/to-hosts</text></g><!--entity alice--><g class="entity" data-qualified-name="alice" data-source-line="23" id="ent0002"><rect fill="#89B4FA" height="38.4799" rx="2.5" ry="2.5" style="stroke:#A6ADC8;stroke-width:0.5;" width="61.9998" x="392.8" y="280.46"/><text fill="#1E1E2E" font-family="'JetBrains Mono,monospace'" font-size="14" lengthAdjust="spacing" textLength="41.9998" x="402.8" y="304.7399">alice</text></g><!--link alice to demo_shell--><g class="link" data-entity-1="ent0002" data-entity-2="ent0004" data-link-type="dependency" data-source-line="47" id="lnk23"><path d="M392.31,301.8 C348.18,302.73 270.29,296.47 243.2,244.2 C220.7,200.79 220.7,177.61 243.2,134.2 C266.37,89.49 321.0218,79.3564 365.6718,78.2664" fill="none" id="alice-to-demo_shell" style="stroke:#A6ADC8;stroke-width:1;"/><polygon fill="#A6ADC8" points="371.67,78.12,362.5751,74.3408,366.6715,78.242,362.7703,82.3384,371.67,78.12" style="stroke:#A6ADC8;stroke-width:1;"/></g><!--link alice to dev_tools--><g class="link" data-entity-1="ent0002" data-entity-2="ent0005" data-link-type="dependency" data-source-line="48" id="lnk24"><path d="M455.16,295.9 C485.29,291.19 532.07,281.25 568.2,261.7 C583.98,253.16 582.58,243.51 598.2,234.7 C628.21,217.77 834.5906,159.2219 930.7906,132.3919" fill="none" id="alice-to-dev_tools" style="stroke:#A6ADC8;stroke-width:1;"/><polygon fill="#A6ADC8" points="936.57,130.78,926.8263,129.3448,931.7538,132.1232,928.9754,137.0507,936.57,130.78" style="stroke:#A6ADC8;stroke-width:1;"/></g><!--link alice to hyprland--><g class="link" data-entity-1="ent0002" data-entity-2="ent0006" data-link-type="dependency" data-source-line="49" id="lnk25"><path d="M455.26,299.85 C487.48,298.35 537.77,290.99 568.2,261.7 C601.01,230.11 566.44,196.35 598.2,163.7 C622.8,138.41 655.8254,128.0287 685.8454,122.9087" fill="none" id="alice-to-hyprland" style="stroke:#A6ADC8;stroke-width:1;"/><polygon fill="#A6ADC8" points="691.76,121.9,682.2156,119.47,686.8312,122.7406,683.5606,127.3562,691.76,121.9" style="stroke:#A6ADC8;stroke-width:1;"/></g><!--link alice to primary_user--><g class="link" data-entity-1="ent0002" data-entity-2="ent0007" data-link-type="dependency" data-source-line="50" id="lnk26"><path d="M392.3,300.48 C357.83,299.7 302.07,293.13 268,261.7 C216.7,214.38 266.92,162.87 218.4,112.7 C208.2,102.16 200.248,96.8393 186.508,91.5393" fill="none" id="alice-to-primary_user" style="stroke:#A6ADC8;stroke-width:1;"/><polygon fill="#A6ADC8" points="180.91,89.38,187.8674,96.351,185.575,91.1794,190.7465,88.887,180.91,89.38" style="stroke:#A6ADC8;stroke-width:1;"/></g><!--link alice to den__provides__primary_user--><g class="link" data-entity-1="ent0002" data-entity-2="ent0008" data-link-type="dependency" data-source-line="51" id="lnk27"><path d="M392.6,303.34 C354.29,306.19 288.4,304.93 248.4,269.7 C214.22,239.59 250.72,203.79 218.4,171.7 C211.4,164.75 208.2978,161.8857 199.1578,157.8457" fill="none" id="alice-to-den__provides__primary_user" style="stroke:#A6ADC8;stroke-width:1;"/><polygon fill="#A6ADC8" points="193.67,155.42,200.2846,162.717,198.2432,157.4414,203.5188,155.4,193.67,155.42" style="stroke:#A6ADC8;stroke-width:1;"/></g><!--link alice to user__self_provide_user_--><g class="link" data-entity-1="ent0002" data-entity-2="ent0012" data-link-type="dependency" data-source-line="52" id="lnk28"><path d="M455.09,307.09 C560.96,331.31 922.14,400.48 1183.2,286.7 C1241.42,261.32 1283.7439,202.8742 1304.0539,170.4642" fill="none" id="alice-to-user__self_provide_user_" style="stroke:#A6ADC8;stroke-width:1;"/><polygon fill="#A6ADC8" points="1307.24,165.38,1299.0715,170.8822,1304.585,169.6168,1305.8504,175.1303,1307.24,165.38" style="stroke:#A6ADC8;stroke-width:1;"/></g><!--link user__self_provide_user_ to alice--><g class="link" data-entity-1="ent0012" data-entity-2="ent0002" data-link-type="dependency" data-source-line="92" id="lnk68"><path d="M1212.88,164.64 C1116.37,181.83 969.86,207.78 842.4,229.7 C697.5,254.62 530.0401,282.3542 461.1201,293.7142" fill="none" id="user__self_provide_user_-to-alice" style="stroke:#A6ADC8;stroke-width:1;"/><polygon fill="#A6ADC8" points="455.2,294.69,464.7307,297.173,460.1334,293.8768,463.4296,289.2795,455.2,294.69" style="stroke:#A6ADC8;stroke-width:1;"/></g><!--link alice__to_hosts to default__aspect_default_--><g class="link" data-entity-1="ent0022" data-entity-2="ent0015" data-link-type="dependency" data-source-line="53" id="lnk29"><path d="M1901.93,475.91 C1808.79,473.02 1636.4,478.59 1489.4,485.2 C1228.83,496.92 1163.77,501.69 903.4,517.2 C865.17,519.48 827.9973,521.9288 795.2173,527.0788" fill="none" id="alice__to_hosts-to-default__aspect_default_" style="stroke:#A6ADC8;stroke-width:1;"/><polygon fill="#A6ADC8" points="789.29,528.01,798.8018,530.5647,794.2294,527.234,797.5601,522.6616,789.29,528.01" style="stroke:#A6ADC8;stroke-width:1;"/></g><!--link default__aspect_default_ to alice__to_hosts--><g class="link" data-entity-1="ent0015" data-entity-2="ent0022" data-link-type="dependency" data-source-line="62" id="lnk38"><path d="M842.52,556.03 C862.72,554.84 883.7,553.37 903.4,552.2 C1163.77,536.69 1228.83,531.92 1489.4,520.2 C1642.44,513.31 1817.0408,508.1769 1907.0408,499.0269" fill="none" id="default__aspect_default_-to-alice__to_hosts" style="stroke:#A6ADC8;stroke-width:1;"/><polygon fill="#A6ADC8" points="1913.01,498.42,1903.6516,495.3508,1908.0356,498.9257,1904.4607,503.3098,1913.01,498.42" style="stroke:#A6ADC8;stroke-width:1;"/></g><!--link alice__to_hosts to alice__to_hosts--><g class="link" data-entity-1="ent0022" data-entity-2="ent0022" data-link-type="dependency" data-source-line="54" id="lnk30"><path d="M1940.83,473.12 C1916.56,457.3 1926.62,438.46 1970.99,438.46 C2015.37,438.46 2030.4458,454.0226 2006.1858,469.8426" fill="none" id="alice__to_hosts-to-alice__to_hosts" style="stroke:#A6ADC8;stroke-width:1;"/><polygon fill="#A6ADC8" points="2001.16,473.12,2010.8836,471.5545,2005.3482,470.3889,2006.5138,464.8534,2001.16,473.12" style="stroke:#A6ADC8;stroke-width:1;"/></g><!--link n_default to default__aspect_default_--><g class="link" data-entity-1="ent0014" data-entity-2="ent0015" data-link-type="dependency" data-source-line="55" id="lnk31"><path d="M463.43,547.7 C504.66,547.7 565.77,547.7 622.93,547.7" fill="none" id="n_default-to-default__aspect_default_" style="stroke:#A6ADC8;stroke-width:1;"/><polygon fill="#A6ADC8" points="628.93,547.7,619.93,543.7,623.93,547.7,619.93,551.7,628.93,547.7" style="stroke:#A6ADC8;stroke-width:1;"/></g><!--link n_default to den__provides__define_user--><g class="link" data-entity-1="ent0014" data-entity-2="ent0019" data-link-type="dependency" data-source-line="56" id="lnk32"><path d="M463.38,557.47 C513.33,570.03 597.7,590.91 629.2,596.7 C872.1,641.32 936.52,651.5 1183.2,639.7 C1196.9,639.04 1205.3714,638.5266 1219.5314,637.3266" fill="none" id="n_default-to-den__provides__define_user" style="stroke:#A6ADC8;stroke-width:1;"/><polygon fill="#A6ADC8" points="1225.51,636.82,1216.2044,633.5943,1220.5279,637.2422,1216.8799,641.5657,1225.51,636.82" style="stroke:#A6ADC8;stroke-width:1;"/></g><!--link n_default to den__provides__hostname--><g class="link" data-entity-1="ent0014" data-entity-2="ent0020" data-link-type="dependency" data-source-line="57" id="lnk33"><path d="M463.32,556.8 C504.2,565.96 570.83,579.46 629.2,584.7 C723.57,593.17 747.66,586.71 842.4,584.7 C862.05,584.28 877.2351,583.7879 897.0651,582.9679" fill="none" id="n_default-to-den__provides__hostname" style="stroke:#A6ADC8;stroke-width:1;"/><polygon fill="#A6ADC8" points="903.06,582.72,893.9024,579.0952,898.0643,582.9266,894.2329,587.0884,903.06,582.72" style="stroke:#A6ADC8;stroke-width:1;"/></g><!--link n_default to den__provides__mutual_provider--><g class="link" data-entity-1="ent0014" data-entity-2="ent0021" data-link-type="dependency" data-source-line="58" id="lnk34"><path d="M463.65,553.24 C492.62,549.39 533.07,539.39 568.2,529.2 C643.08,507.47 656.82,474.2 734.8,474.2 C734.8,474.2 734.8,474.2 1320.8,474.2 C1398.2,474.2 1477.8757,500.0196 1533.4057,518.1296" fill="none" id="n_default-to-den__provides__mutual_provider" style="stroke:#A6ADC8;stroke-width:1;"/><polygon fill="#A6ADC8" points="1539.11,519.99,1531.7938,513.3966,1534.3564,518.4397,1529.3133,521.0023,1539.11,519.99" style="stroke:#A6ADC8;stroke-width:1;"/></g><!--link den__provides__mutual_provider to n_default--><g class="link" data-entity-1="ent0021" data-entity-2="ent0014" data-link-type="dependency" data-source-line="72" id="lnk48"><path d="M1588.09,520.15 C1551.09,492.56 1428.26,439.2 1320.8,439.2 C734.8,439.2 734.8,439.2 734.8,439.2 C656.82,439.2 643.08,472.47 568.2,494.2 C528.63,505.68 487.9154,514.7801 458.8654,525.8701" fill="none" id="den__provides__mutual_provider-to-n_default" style="stroke:#A6ADC8;stroke-width:1;"/><polygon fill="#A6ADC8" points="453.26,528.01,463.0947,528.5371,457.9312,526.2267,460.2415,521.0632,453.26,528.01" style="stroke:#A6ADC8;stroke-width:1;"/></g><!--link default__aspect_default_ to den__provides__define_user--><g class="link" data-entity-1="ent0015" data-entity-2="ent0019" data-link-type="dependency" data-source-line="59" id="lnk35"><path d="M754.75,567.16 C784.73,587.86 847.22,614.98 903.4,626.2 C1037.89,653.06 1195.6277,650.8001 1271.0777,640.2601" fill="none" id="default__aspect_default_-to-den__provides__define_user" style="stroke:#A6ADC8;stroke-width:1;"/><polygon fill="#A6ADC8" points="1277.02,639.43,1267.5531,636.7136,1272.0681,640.1217,1268.66,644.6367,1277.02,639.43" style="stroke:#A6ADC8;stroke-width:1;"/></g><!--link den__provides__define_user to default__aspect_default_--><g class="link" data-entity-1="ent0019" data-entity-2="ent0015" data-link-type="dependency" data-source-line="66" id="lnk42"><path d="M1225.43,617.08 C1140.59,615.07 1012.41,612.97 903.4,591.2 C875.76,585.68 852.2742,578.2602 826.2042,569.3002" fill="none" id="den__provides__define_user-to-default__aspect_default_" style="stroke:#A6ADC8;stroke-width:1;"/><polygon fill="#A6ADC8" points="820.53,567.35,827.7412,574.0581,825.2585,568.9751,830.3415,566.4924,820.53,567.35" style="stroke:#A6ADC8;stroke-width:1;"/></g><!--link default__aspect_default_ to den__provides__hostname--><g class="link" data-entity-1="ent0015" data-entity-2="ent0020" data-link-type="dependency" data-source-line="60" id="lnk36"><path d="M800.73,567.38 C832.03,572.98 864.0741,577.4628 897.3341,580.4528" fill="none" id="default__aspect_default_-to-den__provides__hostname" style="stroke:#A6ADC8;stroke-width:1;"/><polygon fill="#A6ADC8" points="903.31,580.99,894.7043,576.2002,898.3301,580.5423,893.988,584.1681,903.31,580.99" style="stroke:#A6ADC8;stroke-width:1;"/></g><!--link den__provides__hostname to default__aspect_default_--><g class="link" data-entity-1="ent0020" data-entity-2="ent0015" data-link-type="dependency" data-source-line="69" id="lnk45"><path d="M953.9,566.02 C926.13,559.26 889.0429,553.1661 848.5829,548.6461" fill="none" id="den__provides__hostname-to-default__aspect_default_" style="stroke:#A6ADC8;stroke-width:1;"/><polygon fill="#A6ADC8" points="842.62,547.98,851.1203,552.9545,847.5891,548.5351,852.0085,545.0039,842.62,547.98" style="stroke:#A6ADC8;stroke-width:1;"/></g><!--link default__aspect_default_ to den__provides__mutual_provider--><g class="link" data-entity-1="ent0015" data-entity-2="ent0021" data-link-type="dependency" data-source-line="61" id="lnk37"><path d="M842.54,554.83 C1006.94,557.46 1316.2174,552.3279 1483.1874,544.0279" fill="none" id="default__aspect_default_-to-den__provides__mutual_provider" style="stroke:#A6ADC8;stroke-width:1;"/><polygon fill="#A6ADC8" points="1489.18,543.73,1479.9925,540.1817,1484.1862,543.9782,1480.3897,548.1719,1489.18,543.73" style="stroke:#A6ADC8;stroke-width:1;"/></g><!--link den__provides__mutual_provider to default__aspect_default_--><g class="link" data-entity-1="ent0021" data-entity-2="ent0015" data-link-type="dependency" data-source-line="73" id="lnk49"><path d="M1489.18,525.5 C1322.21,523.01 1012.9323,528.2356 848.5323,536.5856" fill="none" id="den__provides__mutual_provider-to-default__aspect_default_" style="stroke:#A6ADC8;stroke-width:1;"/><polygon fill="#A6ADC8" points="842.54,536.89,851.7313,540.4283,847.5336,536.6364,851.3255,532.4386,842.54,536.89" style="stroke:#A6ADC8;stroke-width:1;"/></g><!--link demo_shell to demo_shell--><g class="link" data-entity-1="ent0004" data-entity-2="ent0004" data-link-type="dependency" data-source-line="63" id="lnk39"><path d="M396.42,61.24 C383.93,44.34 393.05,26.46 423.8,26.46 C454.54,26.46 467.2361,39.5147 454.7461,56.4147" fill="none" id="demo_shell-to-demo_shell" style="stroke:#A6ADC8;stroke-width:1;"/><polygon fill="#A6ADC8" points="451.18,61.24,459.746,56.3795,454.1518,57.219,453.3123,51.6247,451.18,61.24" style="stroke:#A6ADC8;stroke-width:1;"/></g><!--link demo_shell to hyprland--><g class="link" data-entity-1="ent0004" data-entity-2="ent0006" data-link-type="dependency" data-source-line="64" id="lnk40"><path d="M475.99,86.81 C536.35,94.01 629.6222,105.1496 686.0622,111.8796" fill="none" id="demo_shell-to-hyprland" style="stroke:#A6ADC8;stroke-width:1;"/><polygon fill="#A6ADC8" points="692.02,112.59,683.5569,107.5525,687.0552,111.998,682.6097,115.4962,692.02,112.59" style="stroke:#A6ADC8;stroke-width:1;"/></g><!--link demo_shell to user__self_provide_user_--><g class="link" data-entity-1="ent0004" data-entity-2="ent0012" data-link-type="dependency" data-source-line="65" id="lnk41"><path d="M475.94,82.33 C585.16,75.02 848.95,45.42 1066.2,80.2 C1123.97,89.45 1180.7688,107.9898 1229.1388,124.1398" fill="none" id="demo_shell-to-user__self_provide_user_" style="stroke:#A6ADC8;stroke-width:1;"/><polygon fill="#A6ADC8" points="1234.83,126.04,1227.5601,119.3956,1230.0874,124.4565,1225.0265,126.9838,1234.83,126.04" style="stroke:#A6ADC8;stroke-width:1;"/></g><!--link user__self_provide_user_ to demo_shell--><g class="link" data-entity-1="ent0012" data-entity-2="ent0004" data-link-type="dependency" data-source-line="93" id="lnk69"><path d="M1297.08,126.06 C1254.09,99.72 1154.62,59.36 1066.2,45.2 C848.95,10.42 591.0271,38.7641 481.8071,62.1441" fill="none" id="user__self_provide_user_-to-demo_shell" style="stroke:#A6ADC8;stroke-width:1;"/><polygon fill="#A6ADC8" points="475.94,63.4,485.5779,65.4275,480.8292,62.3534,483.9033,57.6047,475.94,63.4" style="stroke:#A6ADC8;stroke-width:1;"/></g><!--link den__provides__define_user to den__provides__default__aspect_default__den__provides--><g class="link" data-entity-1="ent0019" data-entity-2="ent0016" data-link-type="dependency" data-source-line="67" id="lnk43"><path d="M1414.16,620.08 C1512.05,613.15 1662.315,602.504 1784.265,593.864" fill="none" id="den__provides__define_user-to-den__provides__default__aspect_default__den__provides" style="stroke:#A6ADC8;stroke-width:1;"/><polygon fill="#A6ADC8" points="1790.25,593.44,1780.9898,590.086,1785.2625,593.7933,1781.5552,598.066,1790.25,593.44" style="stroke:#A6ADC8;stroke-width:1;"/></g><!--link den__provides__define_user to den__provides__mutual_provider--><g class="link" data-entity-1="ent0019" data-entity-2="ent0021" data-link-type="dependency" data-source-line="68" id="lnk44"><path d="M1358.34,614.02 C1411.63,596.03 1502.9152,565.2091 1556.1152,547.2491" fill="none" id="den__provides__define_user-to-den__provides__mutual_provider" style="stroke:#A6ADC8;stroke-width:1;"/><polygon fill="#A6ADC8" points="1561.8,545.33,1551.9934,544.4188,1557.0627,546.9293,1554.5522,551.9986,1561.8,545.33" style="stroke:#A6ADC8;stroke-width:1;"/></g><!--link den__provides__hostname to den__provides__default__aspect_default__den__provides--><g class="link" data-entity-1="ent0020" data-entity-2="ent0016" data-link-type="dependency" data-source-line="70" id="lnk46"><path d="M1066.34,578.86 C1219.22,579.17 1549.49,579.8478 1765.93,580.2878" fill="none" id="den__provides__hostname-to-den__provides__default__aspect_default__den__provides" style="stroke:#A6ADC8;stroke-width:1;"/><polygon fill="#A6ADC8" points="1771.93,580.3,1762.9382,576.2817,1766.93,580.2898,1762.9219,584.2817,1771.93,580.3" style="stroke:#A6ADC8;stroke-width:1;"/></g><!--link den__provides__hostname to den__provides__define_user--><g class="link" data-entity-1="ent0020" data-entity-2="ent0019" data-link-type="dependency" data-source-line="71" id="lnk47"><path d="M1066.41,590.32 C1115.97,597.46 1173.5815,605.763 1224.5115,613.113" fill="none" id="den__provides__hostname-to-den__provides__define_user" style="stroke:#A6ADC8;stroke-width:1;"/><polygon fill="#A6ADC8" points="1230.45,613.97,1222.1136,608.7255,1225.5013,613.2558,1220.9709,616.6434,1230.45,613.97" style="stroke:#A6ADC8;stroke-width:1;"/></g><!--link den__provides__mutual_provider to den__provides__default__aspect_default__den__provides--><g class="link" data-entity-1="ent0021" data-entity-2="ent0016" data-link-type="dependency" data-source-line="74" id="lnk50"><path d="M1699.06,545.44 C1752.62,552.41 1812.8302,560.2453 1866.3602,567.2153" fill="none" id="den__provides__mutual_provider-to-den__provides__default__aspect_default__den__provides" style="stroke:#A6ADC8;stroke-width:1;"/><polygon fill="#A6ADC8" points="1872.31,567.99,1863.9018,562.8614,1867.3519,567.3444,1862.8689,570.7944,1872.31,567.99" style="stroke:#A6ADC8;stroke-width:1;"/></g><!--link den__provides__mutual_provider to alice__to_hosts--><g class="link" data-entity-1="ent0021" data-entity-2="ent0022" data-link-type="dependency" data-source-line="75" id="lnk51"><path d="M1701,519.98 C1764.67,511.87 1839.5781,502.3181 1895.9481,495.1381" fill="none" id="den__provides__mutual_provider-to-alice__to_hosts" style="stroke:#A6ADC8;stroke-width:1;"/><polygon fill="#A6ADC8" points="1901.9,494.38,1892.4667,491.5492,1896.9401,495.0117,1893.4775,499.4851,1901.9,494.38" style="stroke:#A6ADC8;stroke-width:1;"/></g><!--link den__provides__primary_user to demo_shell--><g class="link" data-entity-1="ent0008" data-entity-2="ent0004" data-link-type="dependency" data-source-line="76" id="lnk52"><path d="M182.96,130 C238.63,118.56 313.6328,103.1374 365.7628,92.4274" fill="none" id="den__provides__primary_user-to-demo_shell" style="stroke:#A6ADC8;stroke-width:1;"/><polygon fill="#A6ADC8" points="371.64,91.22,362.0192,89.113,366.7423,92.2262,363.6291,96.9493,371.64,91.22" style="stroke:#A6ADC8;stroke-width:1;"/></g><!--link dev_tools to dev_tools--><g class="link" data-entity-1="ent0005" data-entity-2="ent0005" data-link-type="dependency" data-source-line="77" id="lnk53"><path d="M967.28,98.24 C959.29,81.34 965.13,63.46 984.8,63.46 C1004.47,63.46 1012.8745,75.9157 1004.8845,92.8157" fill="none" id="dev_tools-to-dev_tools" style="stroke:#A6ADC8;stroke-width:1;"/><polygon fill="#A6ADC8" points="1002.32,98.24,1009.783,91.8132,1004.4571,93.7197,1002.5506,88.3938,1002.32,98.24" style="stroke:#A6ADC8;stroke-width:1;"/></g><!--link dev_tools to user__self_provide_user_--><g class="link" data-entity-1="ent0005" data-entity-2="ent0012" data-link-type="dependency" data-source-line="78" id="lnk54"><path d="M1032.8,131.13 C1079.41,138.63 1146.4495,145.3728 1207.0395,148.7828" fill="none" id="dev_tools-to-user__self_provide_user_" style="stroke:#A6ADC8;stroke-width:1;"/><polygon fill="#A6ADC8" points="1213.03,149.12,1204.269,144.6206,1208.0379,148.839,1203.8195,152.6079,1213.03,149.12" style="stroke:#A6ADC8;stroke-width:1;"/></g><!--link user__self_provide_user_ to dev_tools--><g class="link" data-entity-1="ent0012" data-entity-2="ent0005" data-link-type="dependency" data-source-line="94" id="lnk70"><path d="M1225.76,125.96 C1162.96,118.47 1088.7298,112.5832 1038.7998,112.2232" fill="none" id="user__self_provide_user_-to-dev_tools" style="stroke:#A6ADC8;stroke-width:1;"/><polygon fill="#A6ADC8" points="1032.8,112.18,1041.7709,116.2448,1037.7999,112.216,1041.8286,108.245,1032.8,112.18" style="stroke:#A6ADC8;stroke-width:1;"/></g><!--link hyprland to dev_tools--><g class="link" data-entity-1="ent0006" data-entity-2="ent0005" data-link-type="dependency" data-source-line="79" id="lnk55"><path d="M779.82,117.7 C823.64,117.7 885.39,117.7 930.64,117.7" fill="none" id="hyprland-to-dev_tools" style="stroke:#A6ADC8;stroke-width:1;"/><polygon fill="#A6ADC8" points="936.64,117.7,927.64,113.7,931.64,117.7,927.64,121.7,936.64,117.7" style="stroke:#A6ADC8;stroke-width:1;"/></g><!--link hyprland to hyprland--><g class="link" data-entity-1="ent0006" data-entity-2="ent0006" data-link-type="dependency" data-source-line="80" id="lnk56"><path d="M714.33,98.24 C704.54,81.34 711.7,63.46 735.8,63.46 C759.9,63.46 770.0575,76.1482 760.2675,93.0482" fill="none" id="hyprland-to-hyprland" style="stroke:#A6ADC8;stroke-width:1;"/><polygon fill="#A6ADC8" points="757.26,98.24,765.2325,92.4573,759.7663,93.9135,758.3101,88.4473,757.26,98.24" style="stroke:#A6ADC8;stroke-width:1;"/></g><!--link hyprland to user__self_provide_user_--><g class="link" data-entity-1="ent0006" data-entity-2="ent0012" data-link-type="dependency" data-source-line="81" id="lnk57"><path d="M762.48,137.43 C794.95,151.85 852.74,166.64 903.4,172.2 C1023.86,185.42 1159.172,178.2704 1242.052,166.2604" fill="none" id="hyprland-to-user__self_provide_user_" style="stroke:#A6ADC8;stroke-width:1;"/><polygon fill="#A6ADC8" points="1247.99,165.4,1238.5094,162.732,1243.0417,166.117,1239.6567,170.6493,1247.99,165.4" style="stroke:#A6ADC8;stroke-width:1;"/></g><!--link user__self_provide_user_ to hyprland--><g class="link" data-entity-1="ent0012" data-entity-2="ent0006" data-link-type="dependency" data-source-line="95" id="lnk71"><path d="M1213.04,141.35 C1128.89,144.13 1008.27,148.7 903.4,137.2 C860.84,132.53 819.1641,122.3514 785.7741,116.6414" fill="none" id="user__self_provide_user_-to-hyprland" style="stroke:#A6ADC8;stroke-width:1;"/><polygon fill="#A6ADC8" points="779.86,115.63,788.057,121.0898,784.7885,116.4728,789.4055,113.2043,779.86,115.63" style="stroke:#A6ADC8;stroke-width:1;"/></g><!--link primary_user to demo_shell--><g class="link" data-entity-1="ent0007" data-entity-2="ent0004" data-link-type="dependency" data-source-line="82" id="lnk58"><path d="M180.79,77.49 C236.41,78.23 312.5505,79.2405 365.3705,79.9405" fill="none" id="primary_user-to-demo_shell" style="stroke:#A6ADC8;stroke-width:1;"/><polygon fill="#A6ADC8" points="371.37,80.02,362.4238,75.9011,366.3704,79.9537,362.3178,83.9004,371.37,80.02" style="stroke:#A6ADC8;stroke-width:1;"/></g><!--link user to alice--><g class="link" data-entity-1="ent0009" data-entity-2="ent0002" data-link-type="dependency" data-source-line="83" id="lnk59"><path d="M142.14,246.23 C165.83,266.87 206.58,298.14 248.4,310.7 C297.21,325.36 351.2228,317.3853 386.6028,309.2453" fill="none" id="user-to-alice" style="stroke:#A6ADC8;stroke-width:1;"/><polygon fill="#A6ADC8" points="392.45,307.9,382.7823,306.0198,387.5773,309.0211,384.576,313.8161,392.45,307.9" style="stroke:#A6ADC8;stroke-width:1;"/></g><!--link user to n_default--><g class="link" data-entity-1="ent0009" data-entity-2="ent0014" data-link-type="dependency" data-source-line="84" id="lnk60"><path d="M125.29,246.25 C137.23,298.26 177.11,440.9 268,511.7 C301.3,537.64 344.1012,545.074 377.9712,547.144" fill="none" id="user-to-n_default" style="stroke:#A6ADC8;stroke-width:1;"/><polygon fill="#A6ADC8" points="383.96,547.51,375.2208,542.9684,378.9693,547.205,374.7328,550.9535,383.96,547.51" style="stroke:#A6ADC8;stroke-width:1;"/></g><!--link user to default__cross_provide_user_--><g class="link" data-entity-1="ent0009" data-entity-2="ent0017" data-link-type="dependency" data-source-line="85" id="lnk61"><path d="M123.06,246.18 C129.91,306.59 159.29,492.19 268,584.7 C277.46,592.75 282.8571,596.7119 294.4271,601.6819" fill="none" id="user-to-default__cross_provide_user_" style="stroke:#A6ADC8;stroke-width:1;"/><polygon fill="#A6ADC8" points="299.94,604.05,293.2494,596.8225,295.3459,602.0766,290.0919,604.1731,299.94,604.05" style="stroke:#A6ADC8;stroke-width:1;"/></g><!--link user to default__self_provide_default_--><g class="link" data-entity-1="ent0009" data-entity-2="ent0018" data-link-type="dependency" data-source-line="86" id="lnk62"><path d="M145.12,246.37 C201.54,292.77 337.8155,404.8193 394.2455,451.2193" fill="none" id="user-to-default__self_provide_default_" style="stroke:#A6ADC8;stroke-width:1;"/><polygon fill="#A6ADC8" points="398.88,455.03,394.4688,446.2242,395.0179,451.8544,389.3878,452.4035,398.88,455.03" style="stroke:#A6ADC8;stroke-width:1;"/></g><!--link user to user--><g class="link" data-entity-1="ent0009" data-entity-2="ent0009" data-link-type="dependency" data-source-line="87" id="lnk63"><path d="M100.05,207.24 C90.86,190.34 97.58,172.46 120.2,172.46 C142.82,172.46 152.4063,185.0689 143.2163,201.9689" fill="none" id="user-to-user" style="stroke:#A6ADC8;stroke-width:1;"/><polygon fill="#A6ADC8" points="140.35,207.24,148.1635,201.2443,142.7386,202.8474,141.1355,197.4225,140.35,207.24" style="stroke:#A6ADC8;stroke-width:1;"/></g><!--link user to user__aspect_user_--><g class="link" data-entity-1="ent0009" data-entity-2="ent0010" data-link-type="dependency" data-source-line="88" id="lnk64"><path d="M147.44,234.5 C190.36,239.84 271.2951,241.4081 336.0551,238.7281" fill="none" id="user-to-user__aspect_user_" style="stroke:#A6ADC8;stroke-width:1;"/><polygon fill="#A6ADC8" points="342.05,238.48,332.8923,234.8555,337.0543,238.6867,333.2231,242.8487,342.05,238.48" style="stroke:#A6ADC8;stroke-width:1;"/></g><!--link user__aspect_user_ to user--><g class="link" data-entity-1="ent0010" data-entity-2="ent0009" data-link-type="dependency" data-source-line="90" id="lnk66"><path d="M342.05,214.92 C277.29,212.24 196.3141,212.8192 153.3941,218.1592" fill="none" id="user__aspect_user_-to-user" style="stroke:#A6ADC8;stroke-width:1;"/><polygon fill="#A6ADC8" points="147.44,218.9,156.865,221.7582,152.4017,218.2827,155.8773,213.8194,147.44,218.9" style="stroke:#A6ADC8;stroke-width:1;"/></g><!--link user to user__cross_provide__anon__--><g class="link" data-entity-1="ent0009" data-entity-2="ent0011" data-link-type="dependency" data-source-line="89" id="lnk65"><path d="M147.42,219.94 C176.76,212.41 225.72,199.94 268,189.7 C290.26,184.31 308.5064,179.9911 330.9164,174.7711" fill="none" id="user-to-user__cross_provide__anon__" style="stroke:#A6ADC8;stroke-width:1;"/><polygon fill="#A6ADC8" points="336.76,173.41,327.0872,171.556,331.8904,174.5443,328.9021,179.3474,336.76,173.41" style="stroke:#A6ADC8;stroke-width:1;"/></g><!--link user__cross_provide__anon__ to n_default--><g class="link" data-entity-1="ent0011" data-entity-2="ent0014" data-link-type="dependency" data-source-line="91" id="lnk67"><path d="M279.09,171.78 C264.06,180.08 251.32,191.52 243.2,207.2 C213.85,263.83 213.85,437.57 243.2,494.2 C268.63,543.27 333.1904,550.9379 378.2104,550.4279" fill="none" id="user__cross_provide__anon__-to-n_default" style="stroke:#A6ADC8;stroke-width:1;"/><polygon fill="#A6ADC8" points="384.21,550.36,375.1653,546.4622,379.2103,550.4166,375.2559,554.4617,384.21,550.36" style="stroke:#A6ADC8;stroke-width:1;"/></g><!--link alice__to_hosts to alice--><g class="link" data-entity-1="ent0022" data-entity-2="ent0002" data-link-type="dependency" data-source-line="96" id="lnk72"><path d="M1936.99,473.09 C1873.15,449.88 1727.86,402.7 1601.2,402.7 C734.8,402.7 734.8,402.7 734.8,402.7 C627.33,402.7 514.3767,349.116 460.2067,319.796" fill="none" id="alice__to_hosts-to-alice" style="stroke:#A6ADC8;stroke-width:1;"/><polygon fill="#A6ADC8" points="454.93,316.94,460.941,324.7418,459.3272,319.32,464.749,317.7063,454.93,316.94" style="stroke:#A6ADC8;stroke-width:1;"/><text fill="#CDD6F4" font-family="'JetBrains Mono,monospace'" font-size="13" lengthAdjust="spacing" textLength="85.8" x="1097.2" y="397.96">provided-by</text></g><?plantuml-src hLRTQjim5BxtKuWKIWipMPAIfYtieeKn1YjZBs0KIqvC7Ib8IhSo-kwpPKcMP4b9Hcz2pj5tllEhOpMu4a1GmEhDLW1KCroAcfAClzHa3ndSWJKiNpQC7WXweWrbu6A6PtYEBGJ25JmquYibGa5AX9RLJHZo37SOJBvZySXWJJZuGGdzj6j_-1wMU68PGSReRyK8bn2LA_ymvV9NcmaacmO_-WaiPelvJHXA6S8ivjB0BBUZOdp3V-26akDEDJ3fKe5I3fyWGyUzILJILOT8-VdP-e2R4wgfWRQtPNdxURKSWr8DVARY16yIbNJL8SP-CgQx2IQmgTl90v03-GzShExMDnNCzdsGO7BWcCbpBbgvw4JmDmF0ua1uHtE-nKqZWPrOI15SLFCIbSY7l-Q2qeOhz6iXfHOCrulLhGlUlkrP0mcIM2s4UVUita7sbfk8bQAFUJ0fssvtQFfQ8yod8pE4IL7eu-vVaCLoR2pJa2da-rPprVs_DlYYwDMIlmWNGLgNZ7AUgxYkBXln00abbnlnO9D9b8w-vMuXHSUwMAtXAi3ASLCPKZ-oxj1mwVZwxDw72L4BpXeIfHdFoG0a1XJCM1tgaYdnMlL72gPmMkukDbx0sRZ54RRxjjDJ3GgrFkQfS72Mtq06Rjk62XikjsEwodTu3gimezEoS6MSnWtrCPKUrwScE7e3-cDr0M8rtb8kIFjz2n7eitW4kuCum4Pd5OoYXsW5ishKSydzDHKqxxpnOQKLxNgH4GoDUi-oVjlb-HThNJbAjPKidTu-bihU3OvrT8DOgDWTo_omUyhmA0R1dYuRBbkIoeV5XY0DrCrEexnkPj5BVIIKS-nCPESOdHMeNtZhK-YDcdTYPilJHsSaSKMJFJvgznyBy4pISKN3o-ASF3oZ3qZY2ACrWCajrLcRYt0A-DICmxOVa7Y8U3pNyIVIQD3r-yxTgwu-EkVcoUTQEsfpUHnjb38LhT79Z0TnQE7uYWK-u05Ky9CyuEGiEPBxCFJFWk-yBF2WTCXZxyDnYi77drkOACIhPmAdsvc4kT_TqASEt0DbXlBrspy0?></g></svg>