<?xml version="1.0" encoding="UTF-8" standalone="no"?>
<!DOCTYPE svg PUBLIC "-//W3C//DTD SVG 1.1//EN"
 "http://www.w3.org/Graphics/SVG/1.1/DTD/svg11.dtd">
<!-- Generated by graphviz version 12.2.1 (0)
 -->
<!-- Pages: 1 -->
<svg width="2688pt" height="503pt"
 viewBox="0.00 0.00 2687.66 502.64" xmlns="http://www.w3.org/2000/svg" xmlns:xlink="http://www.w3.org/1999/xlink">
<g id="graph0" class="graph" transform="scale(1 1) rotate(0) translate(4 498.64)">
<polygon fill="#1e1e2e" stroke="none" points="-4,4 -4,-498.64 2683.66,-498.64 2683.66,4 -4,4"/>
<g id="clust1" class="cluster">
<title>cluster_ctx_user</title>
<polygon fill="#313244" stroke="#6c7086" stroke-dasharray="5,2" points="8,-201 8,-404 1460.14,-404 1460.14,-201 8,-201"/>
<text text-anchor="middle" x="734.07" y="-386.7" font-family="Times,serif" font-size="14.00" fill="#cdd6f4">user</text>
</g>
<g id="clust2" class="cluster">
<title>cluster_ctx_default</title>
<polygon fill="#313244" stroke="#6c7086" stroke-dasharray="5,2" points="392.34,-8 392.34,-193 2671.66,-193 2671.66,-8 392.34,-8"/>
<text text-anchor="middle" x="1532" y="-175.7" font-family="Times,serif" font-size="14.00" fill="#cdd6f4">default</text>
</g>
<!-- alice -->
<g id="node1" class="node">
<title>alice</title>
<path fill="#89b4fa" stroke="#89b4fa" d="M522.71,-448C522.71,-448 492.71,-448 492.71,-448 486.71,-448 480.71,-442 480.71,-436 480.71,-436 480.71,-424 480.71,-424 480.71,-418 486.71,-412 492.71,-412 492.71,-412 522.71,-412 522.71,-412 528.71,-412 534.71,-418 534.71,-424 534.71,-424 534.71,-436 534.71,-436 534.71,-442 528.71,-448 522.71,-448"/>
<text text-anchor="middle" x="507.71" y="-425.32" font-family="Times,serif" font-size="14.00" fill="#1e1e2e">alice</text>
</g>
<!-- demo_shell -->
<g id="node2" class="node">
<title>demo_shell</title>
<polygon fill="#f2cdcd" stroke="#f2cdcd" points="554.34,-353 461.09,-353 461.09,-317 554.34,-317 554.34,-353"/>
<text text-anchor="middle" x="507.71" y="-330.32" font-family="Times,serif" font-size="14.00" fill="#1e1e2e">demo&#45;shell</text>
</g>
<!-- alice&#45;&gt;demo_shell -->
<g id="edge1" class="edge">
<title>alice&#45;&gt;demo_shell</title>
<path fill="none" stroke="#a6adc8" d="M507.71,-411.7C507.71,-396 507.71,-380.31 507.71,-364.61"/>
<polygon fill="#a6adc8" stroke="#a6adc8" points="511.21,-364.7 507.71,-354.7 504.21,-364.7 511.21,-364.7"/>
</g>
<!-- dev_tools -->
<g id="node3" class="node">
<title>dev_tools</title>
<polygon fill="#fab387" stroke="#fab387" points="1057.01,-353 976.51,-353 976.51,-317 1057.01,-317 1057.01,-353"/>
<text text-anchor="middle" x="1016.76" y="-330.32" font-family="Times,serif" font-size="14.00" fill="#1e1e2e">dev&#45;tools</text>
</g>
<!-- alice&#45;&gt;dev_tools -->
<g id="edge2" class="edge">
<title>alice&#45;&gt;dev_tools</title>
<path fill="none" stroke="#a6adc8" d="M535.16,-425.02C563.95,-419.59 611.35,-410.67 652.21,-403 763.86,-382.06 894.8,-357.59 965.06,-344.47"/>
<polygon fill="#a6adc8" stroke="#a6adc8" points="965.54,-347.94 974.73,-342.66 964.25,-341.06 965.54,-347.94"/>
</g>
<!-- hyprland -->
<g id="node4" class="node">
<title>hyprland</title>
<polygon fill="#f2cdcd" stroke="#f2cdcd" points="781.09,-333 701.34,-333 701.34,-297 781.09,-297 781.09,-333"/>
<text text-anchor="middle" x="741.21" y="-310.32" font-family="Times,serif" font-size="14.00" fill="#1e1e2e">hyprland</text>
</g>
<!-- alice&#45;&gt;hyprland -->
<g id="edge3" class="edge">
<title>alice&#45;&gt;hyprland</title>
<path fill="none" stroke="#a6adc8" d="M535.21,-429.4C558.11,-427.81 591.35,-422.83 616.21,-408 637.62,-395.23 633.08,-380.97 652.21,-365 663.94,-355.22 677.83,-346.32 691.08,-338.83"/>
<polygon fill="#a6adc8" stroke="#a6adc8" points="692.62,-341.98 699.71,-334.12 689.26,-335.84 692.62,-341.98"/>
</g>
<!-- primary_user -->
<g id="node5" class="node">
<title>primary_user</title>
<polygon fill="#f2cdcd" stroke="#f2cdcd" points="244.11,-371 135.11,-371 135.11,-335 244.11,-335 244.11,-371"/>
<text text-anchor="middle" x="189.61" y="-348.32" font-family="Times,serif" font-size="14.00" fill="#1e1e2e">primary&#45;user</text>
</g>
<!-- alice&#45;&gt;primary_user -->
<g id="edge4" class="edge">
<title>alice&#45;&gt;primary_user</title>
<path fill="none" stroke="#a6adc8" d="M480.25,-425.5C456.99,-421.4 422.28,-414.95 392.34,-408 346.22,-397.29 294.73,-383.22 255.31,-371.99"/>
<polygon fill="#a6adc8" stroke="#a6adc8" points="256.3,-368.63 245.72,-369.24 254.37,-375.36 256.3,-368.63"/>
</g>
<!-- den__provides__primary_user -->
<g id="node6" class="node">
<title>den__provides__primary_user</title>
<polygon fill="#f2cdcd" stroke="#f2cdcd" points="291,-317 88.22,-317 16,-281 363.21,-281 291,-317"/>
<text text-anchor="middle" x="189.61" y="-294.32" font-family="Times,serif" font-size="14.00" fill="#1e1e2e">provides/primary&#45;user</text>
</g>
<!-- alice&#45;&gt;den__provides__primary_user -->
<g id="edge5" class="edge">
<title>alice&#45;&gt;den__provides__primary_user</title>
<path fill="none" stroke="#a6adc8" d="M480.4,-431.94C454.94,-432.36 416.73,-428.95 392.34,-408 363,-382.8 392.99,-350.69 363.21,-326 353.37,-317.84 342.09,-311.63 330.11,-306.96"/>
<polygon fill="#a6adc8" stroke="#a6adc8" points="331.45,-303.72 320.86,-303.74 329.15,-310.33 331.45,-303.72"/>
</g>
<!-- user__self_provide_user_ -->
<g id="node10" class="node">
<title>user__self_provide_user_</title>
<polygon fill="#f2cdcd" stroke="#f2cdcd" points="1452.14,-334 1274.89,-334 1274.89,-298 1452.14,-298 1452.14,-334"/>
<text text-anchor="middle" x="1363.51" y="-311.32" font-family="Times,serif" font-size="14.00" fill="#1e1e2e">user/self&#45;provide(user)</text>
</g>
<!-- alice&#45;&gt;user__self_provide_user_ -->
<g id="edge6" class="edge">
<title>alice&#45;&gt;user__self_provide_user_</title>
<path fill="none" stroke="#a6adc8" d="M535.1,-434.93C625.4,-450.8 929.58,-495.81 1167.3,-431 1231.15,-413.59 1295.39,-369.4 1331.93,-341.14"/>
<polygon fill="#a6adc8" stroke="#a6adc8" points="1333.71,-344.19 1339.42,-335.26 1329.39,-338.68 1333.71,-344.19"/>
</g>
<!-- demo_shell&#45;&gt;demo_shell -->
<g id="edge17" class="edge">
<title>demo_shell&#45;&gt;demo_shell</title>
<path fill="none" stroke="#a6adc8" d="M465.47,-353.15C458.97,-362.54 473.05,-371 507.71,-371 527.75,-371 540.91,-368.17 547.19,-363.97"/>
<polygon fill="#a6adc8" stroke="#a6adc8" points="550.5,-365.17 549.58,-354.62 543.72,-363.44 550.5,-365.17"/>
</g>
<!-- demo_shell&#45;&gt;hyprland -->
<g id="edge18" class="edge">
<title>demo_shell&#45;&gt;hyprland</title>
<path fill="none" stroke="#a6adc8" d="M554.73,-331.02C593.73,-327.66 649.58,-322.83 689.79,-319.36"/>
<polygon fill="#a6adc8" stroke="#a6adc8" points="690.04,-322.85 699.7,-318.5 689.44,-315.87 690.04,-322.85"/>
</g>
<!-- demo_shell&#45;&gt;user__self_provide_user_ -->
<g id="edge19" class="edge">
<title>demo_shell&#45;&gt;user__self_provide_user_</title>
<path fill="none" stroke="#a6adc8" d="M554.79,-317.91C574.12,-312.81 596.62,-306.75 616.21,-299 633.24,-292.27 634.5,-283.59 652.21,-279 880.9,-219.74 1164.73,-264.76 1293.37,-295"/>
<polygon fill="#a6adc8" stroke="#a6adc8" points="1292.21,-298.32 1302.75,-297.25 1293.84,-291.52 1292.21,-298.32"/>
</g>
<!-- dev_tools&#45;&gt;dev_tools -->
<g id="edge31" class="edge">
<title>dev_tools&#45;&gt;dev_tools</title>
<path fill="none" stroke="#a6adc8" d="M976.07,-346.61C952.88,-358.19 966.44,-371 1016.76,-371 1057.64,-371 1074.26,-362.55 1066.61,-353.16"/>
<polygon fill="#a6adc8" stroke="#a6adc8" points="1068.85,-350.46 1058.68,-347.49 1064.78,-356.15 1068.85,-350.46"/>
</g>
<!-- dev_tools&#45;&gt;user__self_provide_user_ -->
<g id="edge32" class="edge">
<title>dev_tools&#45;&gt;user__self_provide_user_</title>
<path fill="none" stroke="#a6adc8" d="M1057.31,-328.33C1107.15,-323.32 1194.59,-317.94 1263.14,-315.3"/>
<polygon fill="#a6adc8" stroke="#a6adc8" points="1263.02,-318.8 1272.89,-314.94 1262.76,-311.81 1263.02,-318.8"/>
</g>
<!-- hyprland&#45;&gt;dev_tools -->
<g id="edge33" class="edge">
<title>hyprland&#45;&gt;dev_tools</title>
<path fill="none" stroke="#a6adc8" d="M781.41,-317.87C829.71,-321.4 911.91,-327.41 965,-331.29"/>
<polygon fill="#a6adc8" stroke="#a6adc8" points="964.46,-334.76 974.68,-332 964.97,-327.78 964.46,-334.76"/>
</g>
<!-- hyprland&#45;&gt;hyprland -->
<g id="edge34" class="edge">
<title>hyprland&#45;&gt;hyprland</title>
<path fill="none" stroke="#a6adc8" d="M700.9,-330.92C690.38,-341.15 703.82,-351 741.21,-351 764,-351 777.9,-347.34 782.89,-342.17"/>
<polygon fill="#a6adc8" stroke="#a6adc8" points="786.39,-341.93 781.71,-332.42 779.44,-342.77 786.39,-341.93"/>
</g>
<!-- hyprland&#45;&gt;user__self_provide_user_ -->
<g id="edge35" class="edge">
<title>hyprland&#45;&gt;user__self_provide_user_</title>
<path fill="none" stroke="#a6adc8" d="M781.56,-304.43C805.93,-301.62 837.87,-299.8 866.21,-299 999.98,-295.23 1033.51,-296.26 1167.3,-299 1198.56,-299.64 1232.62,-300.86 1263.41,-302.57"/>
<polygon fill="#a6adc8" stroke="#a6adc8" points="1262.89,-306.05 1273.08,-303.14 1263.3,-299.06 1262.89,-306.05"/>
</g>
<!-- primary_user&#45;&gt;demo_shell -->
<g id="edge36" class="edge">
<title>primary_user&#45;&gt;demo_shell</title>
<path fill="none" stroke="#a6adc8" d="M244.59,-349.93C301.62,-346.68 391.2,-341.58 449.45,-338.26"/>
<polygon fill="#a6adc8" stroke="#a6adc8" points="449.37,-341.77 459.15,-337.71 448.97,-334.78 449.37,-341.77"/>
</g>
<!-- den__provides__primary_user&#45;&gt;demo_shell -->
<g id="edge30" class="edge">
<title>den__provides__primary_user&#45;&gt;demo_shell</title>
<path fill="none" stroke="#a6adc8" d="M302.5,-311.74C352.23,-317.41 408.65,-323.83 449.56,-328.49"/>
<polygon fill="#a6adc8" stroke="#a6adc8" points="449.1,-331.96 459.44,-329.62 449.9,-325.01 449.1,-331.96"/>
</g>
<!-- user -->
<g id="node7" class="node">
<title>user</title>
<polygon fill="#f2cdcd" stroke="#f2cdcd" points="216.61,-245 162.61,-245 162.61,-209 216.61,-209 216.61,-245"/>
<text text-anchor="middle" x="189.61" y="-222.32" font-family="Times,serif" font-size="14.00" fill="#1e1e2e">user</text>
</g>
<!-- user&#45;&gt;alice -->
<g id="edge37" class="edge">
<title>user&#45;&gt;alice</title>
<path fill="none" stroke="#a6adc8" d="M217.02,-225.89C255,-225.84 324.68,-231.73 363.21,-272 405.95,-316.66 348.17,-364.75 392.34,-408 412.29,-427.54 444.01,-432.4 468.99,-432.73"/>
<polygon fill="#a6adc8" stroke="#a6adc8" points="468.81,-436.23 478.76,-432.61 468.72,-429.23 468.81,-436.23"/>
</g>
<!-- user&#45;&gt;user -->
<g id="edge41" class="edge">
<title>user&#45;&gt;user</title>
<path fill="none" stroke="#a6adc8" d="M162.13,-232.33C111.48,-244.95 120.64,-263 189.61,-263 253.18,-263 265.94,-247.66 227.86,-235.38"/>
<polygon fill="#a6adc8" stroke="#a6adc8" points="229.12,-232.1 218.54,-232.74 227.21,-238.83 229.12,-232.1"/>
</g>
<!-- user__aspect_user_ -->
<g id="node8" class="node">
<title>user__aspect_user_</title>
<polygon fill="#fab387" stroke="#fab387" points="577.96,-245 437.46,-245 437.46,-209 577.96,-209 577.96,-245"/>
<text text-anchor="middle" x="507.71" y="-222.32" font-family="Times,serif" font-size="14.00" fill="#1e1e2e">user/aspect(user)</text>
</g>
<!-- user&#45;&gt;user__aspect_user_ -->
<g id="edge42" class="edge">
<title>user&#45;&gt;user__aspect_user_</title>
<path fill="none" stroke="#a6adc8" d="M217.01,-223.05C262.42,-220.2 357.01,-219.53 425.79,-221.02"/>
<polygon fill="#a6adc8" stroke="#a6adc8" points="425.43,-224.51 435.51,-221.26 425.6,-217.52 425.43,-224.51"/>
</g>
<!-- user__cross_provide__anon__ -->
<g id="node9" class="node">
<title>user__cross_provide__anon__</title>
<polygon fill="#f38ba8" stroke="#f38ba8" points="616.21,-299 399.21,-299 399.21,-263 616.21,-263 616.21,-299"/>
<text text-anchor="middle" x="507.71" y="-276.32" font-family="Times,serif" font-size="14.00" fill="#1e1e2e">user/cross&#45;provide(&lt;anon&gt;)</text>
</g>
<!-- user&#45;&gt;user__cross_provide__anon__ -->
<g id="edge43" class="edge">
<title>user&#45;&gt;user__cross_provide__anon__</title>
<path fill="none" stroke="#a6adc8" d="M217.01,-231.51C254.46,-237.91 325.37,-250.02 387.66,-260.66"/>
<polygon fill="#a6adc8" stroke="#a6adc8" points="386.84,-264.07 397.28,-262.31 388.01,-257.17 386.84,-264.07"/>
</g>
<!-- n_default -->
<g id="node11" class="node">
<title>n_default</title>
<polygon fill="#fab387" stroke="#fab387" points="540.84,-52 474.59,-52 474.59,-16 540.84,-16 540.84,-52"/>
<text text-anchor="middle" x="507.71" y="-29.32" font-family="Times,serif" font-size="14.00" fill="#1e1e2e">default</text>
</g>
<!-- user&#45;&gt;n_default -->
<g id="edge38" class="edge">
<title>user&#45;&gt;n_default</title>
<path fill="none" stroke="#a6adc8" d="M207.25,-208.58C239.47,-174.1 314.11,-99.78 392.34,-61 414.44,-50.04 441.19,-43.41 463.25,-39.47"/>
<polygon fill="#a6adc8" stroke="#a6adc8" points="463.53,-42.97 472.82,-37.89 462.38,-36.06 463.53,-42.97"/>
</g>
<!-- default__cross_provide_user_ -->
<g id="node14" class="node">
<title>default__cross_provide_user_</title>
<polygon fill="#f9e2af" stroke="#f9e2af" points="612.09,-106 403.34,-106 403.34,-70 612.09,-70 612.09,-106"/>
<text text-anchor="middle" x="507.71" y="-83.33" font-family="Times,serif" font-size="14.00" fill="#1e1e2e">default/cross&#45;provide(user)</text>
</g>
<!-- user&#45;&gt;default__cross_provide_user_ -->
<g id="edge39" class="edge">
<title>user&#45;&gt;default__cross_provide_user_</title>
<path fill="none" stroke="#a6adc8" d="M216.86,-209.31C254.29,-184.83 325.84,-140.74 392.34,-115 397.01,-113.19 401.85,-111.48 406.76,-109.86"/>
<polygon fill="#a6adc8" stroke="#a6adc8" points="407.67,-113.25 416.18,-106.93 405.59,-106.56 407.67,-113.25"/>
</g>
<!-- default__self_provide_default_ -->
<g id="node15" class="node">
<title>default__self_provide_default_</title>
<polygon fill="#fab387" stroke="#fab387" points="615.09,-160 400.34,-160 400.34,-124 615.09,-124 615.09,-160"/>
<text text-anchor="middle" x="507.71" y="-137.32" font-family="Times,serif" font-size="14.00" fill="#1e1e2e">default/self&#45;provide(default)</text>
</g>
<!-- user&#45;&gt;default__self_provide_default_ -->
<g id="edge40" class="edge">
<title>user&#45;&gt;default__self_provide_default_</title>
<path fill="none" stroke="#a6adc8" d="M217.01,-219.9C262.72,-207.61 358.28,-181.91 427.17,-163.39"/>
<polygon fill="#a6adc8" stroke="#a6adc8" points="427.78,-166.85 436.53,-160.87 425.96,-160.09 427.78,-166.85"/>
</g>
<!-- user__aspect_user_&#45;&gt;user -->
<g id="edge44" class="edge">
<title>user__aspect_user_&#45;&gt;user</title>
<path fill="none" stroke="#a6adc8" d="M437.02,-232.71C372.71,-234.41 279.62,-234.03 228.23,-231.56"/>
<polygon fill="#a6adc8" stroke="#a6adc8" points="228.7,-228.08 218.53,-231.03 228.32,-235.07 228.7,-228.08"/>
</g>
<!-- user__cross_provide__anon__&#45;&gt;n_default -->
<g id="edge45" class="edge">
<title>user__cross_provide__anon__&#45;&gt;n_default</title>
<path fill="none" stroke="#a6adc8" d="M398.86,-266.7C390.25,-261.28 382.91,-254.2 377.78,-245 358.84,-211.03 358.84,-103.97 377.78,-70 393.95,-40.99 432.11,-33.08 462.91,-31.79"/>
<polygon fill="#a6adc8" stroke="#a6adc8" points="462.85,-35.29 472.78,-31.62 462.72,-28.29 462.85,-35.29"/>
</g>
<!-- user__self_provide_user_&#45;&gt;alice -->
<g id="edge46" class="edge">
<title>user__self_provide_user_&#45;&gt;alice</title>
<path fill="none" stroke="#a6adc8" d="M1316.81,-334.46C1277.77,-349.39 1219.77,-369.57 1167.3,-380 934.68,-426.26 648.02,-430.41 546.51,-430.29"/>
<polygon fill="#a6adc8" stroke="#a6adc8" points="546.59,-426.79 536.58,-430.27 546.57,-433.79 546.59,-426.79"/>
</g>
<!-- user__self_provide_user_&#45;&gt;demo_shell -->
<g id="edge47" class="edge">
<title>user__self_provide_user_&#45;&gt;demo_shell</title>
<path fill="none" stroke="#a6adc8" d="M1274.4,-302.17C1138.39,-278.79 870.24,-240.5 652.21,-297 634.5,-301.59 633.24,-310.27 616.21,-317 600.29,-323.3 582.46,-328.48 565.96,-332.18"/>
<polygon fill="#a6adc8" stroke="#a6adc8" points="565.35,-328.73 556.27,-334.19 566.77,-335.58 565.35,-328.73"/>
</g>
<!-- user__self_provide_user_&#45;&gt;dev_tools -->
<g id="edge48" class="edge">
<title>user__self_provide_user_&#45;&gt;dev_tools</title>
<path fill="none" stroke="#a6adc8" d="M1274.4,-326.83C1209.22,-331.73 1122.73,-336.15 1068.66,-337.15"/>
<polygon fill="#a6adc8" stroke="#a6adc8" points="1068.77,-333.65 1058.82,-337.29 1068.87,-340.65 1068.77,-333.65"/>
</g>
<!-- user__self_provide_user_&#45;&gt;hyprland -->
<g id="edge49" class="edge">
<title>user__self_provide_user_&#45;&gt;hyprland</title>
<path fill="none" stroke="#a6adc8" d="M1274.59,-320.04C1241.03,-319.16 1202.4,-317.72 1167.3,-317 1033.51,-314.26 999.98,-313.23 866.21,-317 842.08,-317.68 815.33,-319.11 792.88,-319.74"/>
<polygon fill="#a6adc8" stroke="#a6adc8" points="792.99,-316.24 783.08,-319.96 793.15,-323.23 792.99,-316.24"/>
</g>
<!-- default__aspect_default_ -->
<g id="node12" class="node">
<title>default__aspect_default_</title>
<polygon fill="#a6e3a1" stroke="#a6e3a1" points="830.21,-109 652.21,-109 652.21,-73 830.21,-73 830.21,-109"/>
<text text-anchor="middle" x="741.21" y="-86.33" font-family="Times,serif" font-size="14.00" fill="#1e1e2e">default/aspect(default)</text>
</g>
<!-- n_default&#45;&gt;default__aspect_default_ -->
<g id="edge9" class="edge">
<title>n_default&#45;&gt;default__aspect_default_</title>
<path fill="none" stroke="#a6adc8" d="M540.9,-41.93C570.2,-49.14 614.8,-60.12 654.38,-69.87"/>
<polygon fill="#a6adc8" stroke="#a6adc8" points="653.38,-73.22 663.92,-72.22 655.05,-66.43 653.38,-73.22"/>
</g>
<!-- den__provides__define_user -->
<g id="node16" class="node">
<title>den__provides__define_user</title>
<polygon fill="#a6e3a1" stroke="#a6e3a1" points="1457.08,-92 1269.95,-92 1203.3,-56 1523.73,-56 1457.08,-92"/>
<text text-anchor="middle" x="1363.51" y="-69.33" font-family="Times,serif" font-size="14.00" fill="#1e1e2e">provides/define&#45;user</text>
</g>
<!-- n_default&#45;&gt;den__provides__define_user -->
<g id="edge10" class="edge">
<title>n_default&#45;&gt;den__provides__define_user</title>
<path fill="none" stroke="#a6adc8" d="M541.08,-30.73C637.05,-21.65 928.28,1.37 1167.3,-27 1208.87,-31.93 1254.39,-42.58 1291.01,-52.49"/>
<polygon fill="#a6adc8" stroke="#a6adc8" points="1290.05,-55.86 1300.62,-55.14 1291.9,-49.11 1290.05,-55.86"/>
</g>
<!-- den__provides__hostname -->
<g id="node17" class="node">
<title>den__provides__hostname</title>
<polygon fill="#fab387" stroke="#fab387" points="1104.68,-72 928.84,-72 866.21,-36 1167.3,-36 1104.68,-72"/>
<text text-anchor="middle" x="1016.76" y="-49.33" font-family="Times,serif" font-size="14.00" fill="#1e1e2e">provides/hostname</text>
</g>
<!-- n_default&#45;&gt;den__provides__hostname -->
<g id="edge11" class="edge">
<title>n_default&#45;&gt;den__provides__hostname</title>
<path fill="none" stroke="#a6adc8" d="M541.2,-35.28C607.52,-37.9 761.88,-43.99 876.65,-48.51"/>
<polygon fill="#a6adc8" stroke="#a6adc8" points="876.33,-52 886.46,-48.9 876.61,-45.01 876.33,-52"/>
</g>
<!-- den__provides__mutual_provider -->
<g id="node18" class="node">
<title>den__provides__mutual_provider</title>
<polygon fill="#f9e2af" stroke="#f9e2af" points="1870.08,-129 1641.23,-129 1559.73,-93 1951.59,-93 1870.08,-129"/>
<text text-anchor="middle" x="1755.66" y="-106.33" font-family="Times,serif" font-size="14.00" fill="#1e1e2e">provides/mutual&#45;provider</text>
</g>
<!-- n_default&#45;&gt;den__provides__mutual_provider -->
<g id="edge12" class="edge">
<title>n_default&#45;&gt;den__provides__mutual_provider</title>
<path fill="none" stroke="#a6adc8" d="M541,-28.32C563.86,-29.51 594.24,-36.09 616.21,-52 640.48,-69.57 625.97,-94.54 652.21,-109 813.36,-197.82 1354.3,-149.28 1613.65,-123.41"/>
<polygon fill="#a6adc8" stroke="#a6adc8" points="1613.92,-126.9 1623.53,-122.43 1613.23,-119.94 1613.92,-126.9"/>
</g>
<!-- default__aspect_default_&#45;&gt;den__provides__define_user -->
<g id="edge13" class="edge">
<title>default__aspect_default_&#45;&gt;den__provides__define_user</title>
<path fill="none" stroke="#a6adc8" d="M830.56,-82.34C916.54,-78.45 1050.9,-75.46 1167.3,-72 1183.57,-71.52 1200.6,-70.97 1217.53,-70.46"/>
<polygon fill="#a6adc8" stroke="#a6adc8" points="1217.23,-73.97 1227.12,-70.17 1217.02,-66.97 1217.23,-73.97"/>
</g>
<!-- default__aspect_default_&#45;&gt;den__provides__hostname -->
<g id="edge14" class="edge">
<title>default__aspect_default_&#45;&gt;den__provides__hostname</title>
<path fill="none" stroke="#a6adc8" d="M830.65,-72.68C852.38,-69.37 875.98,-66.07 898.82,-63.13"/>
<polygon fill="#a6adc8" stroke="#a6adc8" points="898.99,-66.64 908.47,-61.91 898.1,-59.69 898.99,-66.64"/>
</g>
<!-- default__aspect_default_&#45;&gt;den__provides__mutual_provider -->
<g id="edge15" class="edge">
<title>default__aspect_default_&#45;&gt;den__provides__mutual_provider</title>
<path fill="none" stroke="#a6adc8" d="M830.61,-86.29C923.42,-86.1 1073.61,-89.42 1203.3,-92 1322.9,-94.38 1457.09,-96.82 1563.15,-99.74"/>
<polygon fill="#a6adc8" stroke="#a6adc8" points="1563.02,-103.24 1573.11,-100.02 1563.21,-96.24 1563.02,-103.24"/>
</g>
<!-- alice__to_hosts -->
<g id="node19" class="node">
<title>alice__to_hosts</title>
<polygon fill="#a6e3a1" stroke="#a6e3a1" points="2389.64,-142 2261.6,-142 2216,-106 2435.25,-106 2389.64,-142"/>
<text text-anchor="middle" x="2325.62" y="-119.33" font-family="Times,serif" font-size="14.00" fill="#1e1e2e">alice/to&#45;hosts</text>
</g>
<!-- default__aspect_default_&#45;&gt;alice__to_hosts -->
<g id="edge16" class="edge">
<title>default__aspect_default_&#45;&gt;alice__to_hosts</title>
<path fill="none" stroke="#a6adc8" d="M830.58,-90.32C842.55,-91.24 854.68,-92.19 866.21,-93 1347.68,-126.84 1469.02,-138.05 1951.59,-129 2043.57,-127.27 2148.26,-123.16 2223.26,-121.37"/>
<polygon fill="#a6adc8" stroke="#a6adc8" points="2223.14,-124.87 2233.06,-121.14 2222.99,-117.87 2223.14,-124.87"/>
</g>
<!-- den__provides__default__aspect_default__den__provides -->
<g id="node13" class="node">
<title>den__provides__default__aspect_default__den__provides</title>
<polygon fill="#a6e3a1" stroke="#a6e3a1" points="2523.04,-88 2128.2,-88 1987.59,-52 2663.66,-52 2523.04,-88"/>
<text text-anchor="middle" x="2325.62" y="-65.33" font-family="Times,serif" font-size="14.00" fill="#1e1e2e">provides/default/aspect(default):den/provides</text>
</g>
<!-- den__provides__define_user&#45;&gt;default__aspect_default_ -->
<g id="edge20" class="edge">
<title>den__provides__define_user&#45;&gt;default__aspect_default_</title>
<path fill="none" stroke="#a6adc8" d="M1258.93,-86.59C1229.34,-88.02 1197.05,-89.12 1167.3,-90 1055.9,-93.31 928.06,-96.19 841.9,-96.16"/>
<polygon fill="#a6adc8" stroke="#a6adc8" points="842.08,-92.66 832.07,-96.14 842.06,-99.66 842.08,-92.66"/>
</g>
<!-- den__provides__define_user&#45;&gt;den__provides__default__aspect_default__den__provides -->
<g id="edge21" class="edge">
<title>den__provides__define_user&#45;&gt;den__provides__default__aspect_default__den__provides</title>
<path fill="none" stroke="#a6adc8" d="M1492.01,-73.47C1633.41,-72.88 1865.75,-71.91 2049.12,-71.15"/>
<polygon fill="#a6adc8" stroke="#a6adc8" points="2049.07,-74.65 2059.05,-71.11 2049.04,-67.65 2049.07,-74.65"/>
</g>
<!-- den__provides__define_user&#45;&gt;den__provides__mutual_provider -->
<g id="edge22" class="edge">
<title>den__provides__define_user&#45;&gt;den__provides__mutual_provider</title>
<path fill="none" stroke="#a6adc8" d="M1472.41,-84.23C1496.19,-86.49 1522.15,-88.95 1548.37,-91.44"/>
<polygon fill="#a6adc8" stroke="#a6adc8" points="1547.83,-94.9 1558.12,-92.36 1548.49,-87.93 1547.83,-94.9"/>
</g>
<!-- den__provides__hostname&#45;&gt;default__aspect_default_ -->
<g id="edge23" class="edge">
<title>den__provides__hostname&#45;&gt;default__aspect_default_</title>
<path fill="none" stroke="#a6adc8" d="M928.56,-72.13C900.96,-76.34 870.23,-80.56 841.83,-84.05"/>
<polygon fill="#a6adc8" stroke="#a6adc8" points="841.66,-80.54 832.15,-85.22 842.5,-87.49 841.66,-80.54"/>
</g>
<!-- den__provides__hostname&#45;&gt;den__provides__default__aspect_default__den__provides -->
<g id="edge24" class="edge">
<title>den__provides__hostname&#45;&gt;den__provides__default__aspect_default__den__provides</title>
<path fill="none" stroke="#a6adc8" d="M1146.5,-48.51C1165.54,-47.89 1184.93,-47.35 1203.3,-47 1468.82,-41.99 1769.68,-48.85 1992.88,-56.35"/>
<polygon fill="#a6adc8" stroke="#a6adc8" points="1992.49,-59.84 2002.6,-56.68 1992.72,-52.84 1992.49,-59.84"/>
</g>
<!-- den__provides__hostname&#45;&gt;den__provides__define_user -->
<g id="edge25" class="edge">
<title>den__provides__hostname&#45;&gt;den__provides__define_user</title>
<path fill="none" stroke="#a6adc8" d="M1125.89,-60.27C1152.39,-61.81 1181.25,-63.48 1209.42,-65.12"/>
<polygon fill="#a6adc8" stroke="#a6adc8" points="1208.9,-68.59 1219.08,-65.68 1209.3,-61.61 1208.9,-68.59"/>
</g>
<!-- den__provides__mutual_provider&#45;&gt;n_default -->
<g id="edge26" class="edge">
<title>den__provides__mutual_provider&#45;&gt;n_default</title>
<path fill="none" stroke="#a6adc8" d="M1646.28,-129.46C1402.77,-162.72 820.47,-219.74 652.21,-127 625.97,-112.54 640.48,-87.57 616.21,-70 597.67,-56.57 573.15,-49.79 552.21,-45.48"/>
<polygon fill="#a6adc8" stroke="#a6adc8" points="552.97,-42.06 542.49,-43.6 551.64,-48.94 552.97,-42.06"/>
</g>
<!-- den__provides__mutual_provider&#45;&gt;default__aspect_default_ -->
<g id="edge27" class="edge">
<title>den__provides__mutual_provider&#45;&gt;default__aspect_default_</title>
<path fill="none" stroke="#a6adc8" d="M1610.41,-115.91C1499.18,-115.58 1341.49,-112.75 1203.3,-110 1078.81,-107.52 935.41,-104.36 842.03,-100.25"/>
<polygon fill="#a6adc8" stroke="#a6adc8" points="842.27,-96.76 832.12,-99.8 841.95,-103.75 842.27,-96.76"/>
</g>
<!-- den__provides__mutual_provider&#45;&gt;den__provides__default__aspect_default__den__provides -->
<g id="edge28" class="edge">
<title>den__provides__mutual_provider&#45;&gt;den__provides__default__aspect_default__den__provides</title>
<path fill="none" stroke="#a6adc8" d="M1942.24,-97.6C1993.9,-93.87 2050.53,-89.79 2103.99,-85.93"/>
<polygon fill="#a6adc8" stroke="#a6adc8" points="2104.12,-89.43 2113.84,-85.22 2103.61,-82.45 2104.12,-89.43"/>
</g>
<!-- den__provides__mutual_provider&#45;&gt;alice__to_hosts -->
<g id="edge29" class="edge">
<title>den__provides__mutual_provider&#45;&gt;alice__to_hosts</title>
<path fill="none" stroke="#a6adc8" d="M1904.4,-114.38C2005.01,-116.68 2135.51,-119.67 2224.2,-121.7"/>
<polygon fill="#a6adc8" stroke="#a6adc8" points="2224.03,-125.2 2234.11,-121.93 2224.19,-118.2 2224.03,-125.2"/>
</g>
<!-- alice__to_hosts&#45;&gt;alice -->
<g id="edge50" class="edge">
<title>alice__to_hosts&#45;&gt;alice</title>
<path fill="none" stroke="#a6adc8" d="M2298.56,-142.3C2189.89,-216.76 1760.05,-493 1364.51,-493 1015.76,-493 1015.76,-493 1015.76,-493 853.91,-493 811.69,-499.57 652.21,-472 615.29,-465.62 574.39,-453.08 545.73,-443.36"/>
<polygon fill="#a6adc8" stroke="#a6adc8" points="547.03,-440.1 536.43,-440.15 544.74,-446.72 547.03,-440.1"/>
</g>
<!-- alice__to_hosts&#45;&gt;default__aspect_default_ -->
<g id="edge7" class="edge">
<title>alice__to_hosts&#45;&gt;default__aspect_default_</title>
<path fill="none" stroke="#a6adc8" d="M2251.39,-134.33C2176.19,-140.03 2055.75,-145.05 1951.59,-147 1469.02,-156.05 1347.68,-144.84 866.21,-111 858.29,-110.44 850.07,-109.82 841.83,-109.13"/>
<polygon fill="#a6adc8" stroke="#a6adc8" points="842.35,-105.66 832.09,-108.29 841.75,-112.64 842.35,-105.66"/>
</g>
<!-- alice__to_hosts&#45;&gt;alice__to_hosts -->
<g id="edge8" class="edge">
<title>alice__to_hosts&#45;&gt;alice__to_hosts</title>
<path fill="none" stroke="#a6adc8" d="M2250.26,-133.68C2190.57,-145.72 2215.69,-160 2325.62,-160 2428.04,-160 2456.84,-147.6 2412.04,-136.17"/>
<polygon fill="#a6adc8" stroke="#a6adc8" points="2412.99,-132.8 2402.46,-134.01 2411.45,-139.63 2412.99,-132.8"/>
</g>
</g>
</svg>
