<?xml version="1.0" encoding="UTF-8" standalone="no"?>
<!DOCTYPE svg PUBLIC "-//W3C//DTD SVG 1.1//EN"
 "http://www.w3.org/Graphics/SVG/1.1/DTD/svg11.dtd">
<!-- Generated by graphviz version 12.2.1 (0)
 -->
<!-- Pages: 1 -->
<svg width="2481pt" height="1358pt"
 viewBox="0.00 0.00 2481.15 1358.08" xmlns="http://www.w3.org/2000/svg" xmlns:xlink="http://www.w3.org/1999/xlink">
<g id="graph0" class="graph" transform="scale(1 1) rotate(0) translate(4 1354.08)">
<polygon fill="#1e1e2e" stroke="none" points="-4,4 -4,-1354.08 2477.15,-1354.08 2477.15,4 -4,4"/>
<g id="clust1" class="cluster">
<title>cluster_ctx_host</title>
<polygon fill="#313244" stroke="#6c7086" stroke-dasharray="5,2" points="8,-881.08 8,-1288.08 1393.27,-1288.08 1393.27,-881.08 8,-881.08"/>
<text text-anchor="middle" x="700.64" y="-1270.78" font-family="Times,serif" font-size="14.00" fill="#cdd6f4">host</text>
</g>
<g id="clust2" class="cluster">
<title>cluster_ctx_default</title>
<polygon fill="#313244" stroke="#6c7086" stroke-dasharray="5,2" points="208.75,-614.08 208.75,-873.08 1863.06,-873.08 1863.06,-614.08 208.75,-614.08"/>
<text text-anchor="middle" x="1035.9" y="-855.78" font-family="Times,serif" font-size="14.00" fill="#cdd6f4">default</text>
</g>
<g id="clust3" class="cluster">
<title>cluster_ctx_hm_host</title>
<polygon fill="#313244" stroke="#6c7086" stroke-dasharray="5,2" points="201.25,-403.08 201.25,-606.08 831.93,-606.08 831.93,-403.08 201.25,-403.08"/>
<text text-anchor="middle" x="516.59" y="-588.78" font-family="Times,serif" font-size="14.00" fill="#cdd6f4">hm&#45;host</text>
</g>
<g id="clust4" class="cluster">
<title>cluster_ctx_hm_user</title>
<polygon fill="#313244" stroke="#6c7086" stroke-dasharray="5,2" points="194.5,-192.08 194.5,-395.08 832.68,-395.08 832.68,-192.08 194.5,-192.08"/>
<text text-anchor="middle" x="513.59" y="-377.78" font-family="Times,serif" font-size="14.00" fill="#cdd6f4">hm&#45;user</text>
</g>
<g id="clust5" class="cluster">
<title>cluster_ctx_user</title>
<polygon fill="#313244" stroke="#6c7086" stroke-dasharray="5,2" points="1663.43,-45.08 1663.43,-466.08 2465.15,-466.08 2465.15,-45.08 1663.43,-45.08"/>
<text text-anchor="middle" x="2064.29" y="-448.78" font-family="Times,serif" font-size="14.00" fill="#cdd6f4">user</text>
</g>
<!-- laptop -->
<g id="node1" class="node">
<title>laptop</title>
<path fill="#89b4fa" stroke="#89b4fa" d="M342.63,-1332.08C342.63,-1332.08 305.63,-1332.08 305.63,-1332.08 299.63,-1332.08 293.63,-1326.08 293.63,-1320.08 293.63,-1320.08 293.63,-1308.08 293.63,-1308.08 293.63,-1302.08 299.63,-1296.08 305.63,-1296.08 305.63,-1296.08 342.63,-1296.08 342.63,-1296.08 348.63,-1296.08 354.63,-1302.08 354.63,-1308.08 354.63,-1308.08 354.63,-1320.08 354.63,-1320.08 354.63,-1326.08 348.63,-1332.08 342.63,-1332.08"/>
<text text-anchor="middle" x="324.13" y="-1309.4" font-family="Times,serif" font-size="14.00" fill="#1e1e2e">laptop</text>
</g>
<!-- laptop&#45;&gt;laptop -->
<g id="edge56" class="edge">
<title>laptop&#45;&gt;laptop</title>
<path fill="none" stroke="#a6adc8" d="M293.29,-1322.39C262.25,-1334.69 272.52,-1350.08 324.13,-1350.08 368.87,-1350.08 382.55,-1338.5 365.15,-1327.41"/>
<polygon fill="#a6adc8" stroke="#a6adc8" points="366.84,-1324.34 356.32,-1323.06 363.74,-1330.62 366.84,-1324.34"/>
</g>
<!-- host__self_provide_host_ -->
<g id="node6" class="node">
<title>host__self_provide_host_</title>
<polygon fill="#f2cdcd" stroke="#f2cdcd" points="1385.27,-1152.08 1209.52,-1152.08 1209.52,-1116.08 1385.27,-1116.08 1385.27,-1152.08"/>
<text text-anchor="middle" x="1297.4" y="-1129.4" font-family="Times,serif" font-size="14.00" fill="#1e1e2e">host/self&#45;provide(host)</text>
</g>
<!-- laptop&#45;&gt;host__self_provide_host_ -->
<g id="edge55" class="edge">
<title>laptop&#45;&gt;host__self_provide_host_</title>
<path fill="none" stroke="#a6adc8" d="M355.08,-1314.22C443.23,-1314.08 709.02,-1309.62 923.36,-1264.08 1041.25,-1239.03 1173.06,-1187.11 1244.14,-1157.02"/>
<polygon fill="#a6adc8" stroke="#a6adc8" points="1245.37,-1160.3 1253.2,-1153.16 1242.63,-1153.86 1245.37,-1160.3"/>
</g>
<!-- workstation -->
<g id="node12" class="node">
<title>workstation</title>
<polygon fill="#f2cdcd" stroke="#f2cdcd" points="116.75,-1128.08 16,-1128.08 16,-1092.08 116.75,-1092.08 116.75,-1128.08"/>
<text text-anchor="middle" x="66.38" y="-1105.4" font-family="Times,serif" font-size="14.00" fill="#1e1e2e">workstation</text>
</g>
<!-- laptop&#45;&gt;workstation -->
<g id="edge57" class="edge">
<title>laptop&#45;&gt;workstation</title>
<path fill="none" stroke="#a6adc8" d="M293.2,-1318.32C256.49,-1321.85 194.07,-1322.22 152.75,-1292.08 102.32,-1255.29 80.69,-1181.07 72.22,-1139.68"/>
<polygon fill="#a6adc8" stroke="#a6adc8" points="75.68,-1139.11 70.37,-1129.94 68.8,-1140.42 75.68,-1139.11"/>
</g>
<!-- desktop -->
<g id="node2" class="node">
<title>desktop</title>
<polygon fill="#f2cdcd" stroke="#f2cdcd" points="360.25,-1237.08 288,-1237.08 288,-1201.08 360.25,-1201.08 360.25,-1237.08"/>
<text text-anchor="middle" x="324.13" y="-1214.4" font-family="Times,serif" font-size="14.00" fill="#1e1e2e">desktop</text>
</g>
<!-- desktop&#45;&gt;desktop -->
<g id="edge27" class="edge">
<title>desktop&#45;&gt;desktop</title>
<path fill="none" stroke="#a6adc8" d="M287.5,-1229.95C263.84,-1241.72 276.05,-1255.08 324.13,-1255.08 363.56,-1255.08 378.86,-1246.09 370.03,-1236.36"/>
<polygon fill="#a6adc8" stroke="#a6adc8" points="372.21,-1233.61 361.99,-1230.81 368.23,-1239.37 372.21,-1233.61"/>
</g>
<!-- desktop&#45;&gt;host__self_provide_host_ -->
<g id="edge28" class="edge">
<title>desktop&#45;&gt;host__self_provide_host_</title>
<path fill="none" stroke="#a6adc8" d="M360.48,-1213.86C401.52,-1207.93 471.3,-1198.29 531.5,-1192.08 770.35,-1167.42 1052.18,-1148.72 1197.96,-1139.82"/>
<polygon fill="#a6adc8" stroke="#a6adc8" points="1197.8,-1143.34 1207.57,-1139.24 1197.37,-1136.35 1197.8,-1143.34"/>
</g>
<!-- regreet -->
<g id="node9" class="node">
<title>regreet</title>
<polygon fill="#89b4fa" stroke="#89b4fa" points="762.05,-1237.08 692.8,-1237.08 692.8,-1201.08 762.05,-1201.08 762.05,-1237.08"/>
<text text-anchor="middle" x="727.43" y="-1214.4" font-family="Times,serif" font-size="14.00" fill="#1e1e2e">regreet</text>
</g>
<!-- desktop&#45;&gt;regreet -->
<g id="edge29" class="edge">
<title>desktop&#45;&gt;regreet</title>
<path fill="none" stroke="#a6adc8" d="M360.74,-1219.08C433.78,-1219.08 600.44,-1219.08 681.07,-1219.08"/>
<polygon fill="#a6adc8" stroke="#a6adc8" points="680.81,-1222.58 690.81,-1219.08 680.81,-1215.58 680.81,-1222.58"/>
</g>
<!-- host -->
<g id="node3" class="node">
<title>host</title>
<polygon fill="#89b4fa" stroke="#89b4fa" points="93.38,-925.08 39.38,-925.08 39.38,-889.08 93.38,-889.08 93.38,-925.08"/>
<text text-anchor="middle" x="66.38" y="-902.4" font-family="Times,serif" font-size="14.00" fill="#1e1e2e">host</text>
</g>
<!-- host&#45;&gt;laptop -->
<g id="edge50" class="edge">
<title>host&#45;&gt;laptop</title>
<path fill="none" stroke="#a6adc8" d="M73.19,-925.41C83.14,-957.24 103.61,-1024.88 116.75,-1083.08 127.13,-1129.05 118.73,-1259.46 152.75,-1292.08 186.7,-1324.62 243.47,-1325.42 282.06,-1321.24"/>
<polygon fill="#a6adc8" stroke="#a6adc8" points="282.43,-1324.72 291.91,-1319.99 281.55,-1317.77 282.43,-1324.72"/>
</g>
<!-- host&#45;&gt;host -->
<g id="edge47" class="edge">
<title>host&#45;&gt;host</title>
<path fill="none" stroke="#a6adc8" d="M39.11,-914.06C3.8,-926.54 12.89,-943.08 66.38,-943.08 113.6,-943.08 126.21,-930.19 104.23,-918.58"/>
<polygon fill="#a6adc8" stroke="#a6adc8" points="105.6,-915.36 95.03,-914.65 102.85,-921.8 105.6,-915.36"/>
</g>
<!-- host__aspect_host_ -->
<g id="node4" class="node">
<title>host__aspect_host_</title>
<polygon fill="#89b4fa" stroke="#89b4fa" points="393.63,-925.08 254.63,-925.08 254.63,-889.08 393.63,-889.08 393.63,-925.08"/>
<text text-anchor="middle" x="324.13" y="-902.4" font-family="Times,serif" font-size="14.00" fill="#1e1e2e">host/aspect(host)</text>
</g>
<!-- host&#45;&gt;host__aspect_host_ -->
<g id="edge48" class="edge">
<title>host&#45;&gt;host__aspect_host_</title>
<path fill="none" stroke="#a6adc8" d="M93.78,-907.08C128.66,-907.08 191.66,-907.08 242.82,-907.08"/>
<polygon fill="#a6adc8" stroke="#a6adc8" points="242.69,-910.58 252.69,-907.08 242.69,-903.58 242.69,-910.58"/>
</g>
<!-- host__cross_provide__anon__ -->
<g id="node5" class="node">
<title>host__cross_provide__anon__</title>
<polygon fill="#cba6f7" stroke="#cba6f7" points="432.25,-979.08 216,-979.08 216,-943.08 432.25,-943.08 432.25,-979.08"/>
<text text-anchor="middle" x="324.13" y="-956.4" font-family="Times,serif" font-size="14.00" fill="#1e1e2e">host/cross&#45;provide(&lt;anon&gt;)</text>
</g>
<!-- host&#45;&gt;host__cross_provide__anon__ -->
<g id="edge49" class="edge">
<title>host&#45;&gt;host__cross_provide__anon__</title>
<path fill="none" stroke="#a6adc8" d="M93.63,-916.5C110.37,-922.23 132.63,-929.33 152.75,-934.08 169.53,-938.04 187.37,-941.58 204.95,-944.69"/>
<polygon fill="#a6adc8" stroke="#a6adc8" points="203.92,-948.07 214.37,-946.32 205.11,-941.17 203.92,-948.07"/>
</g>
<!-- n_default -->
<g id="node13" class="node">
<title>n_default</title>
<polygon fill="#fab387" stroke="#fab387" points="357.25,-660.08 291,-660.08 291,-624.08 357.25,-624.08 357.25,-660.08"/>
<text text-anchor="middle" x="324.13" y="-637.4" font-family="Times,serif" font-size="14.00" fill="#1e1e2e">default</text>
</g>
<!-- host&#45;&gt;n_default -->
<g id="edge37" class="edge">
<title>host&#45;&gt;n_default</title>
<path fill="none" stroke="#a6adc8" d="M68.97,-888.89C73.65,-846.8 91.2,-742.09 152.75,-687.08 187.68,-655.85 241.8,-645.88 279.64,-642.91"/>
<polygon fill="#a6adc8" stroke="#a6adc8" points="279.56,-646.42 289.31,-642.29 279.11,-639.44 279.56,-646.42"/>
</g>
<!-- default__cross_provide_host_ -->
<g id="node16" class="node">
<title>default__cross_provide_host_</title>
<polygon fill="#f9e2af" stroke="#f9e2af" points="428.13,-732.08 220.13,-732.08 220.13,-696.08 428.13,-696.08 428.13,-732.08"/>
<text text-anchor="middle" x="324.13" y="-709.4" font-family="Times,serif" font-size="14.00" fill="#1e1e2e">default/cross&#45;provide(host)</text>
</g>
<!-- host&#45;&gt;default__cross_provide_host_ -->
<g id="edge38" class="edge">
<title>host&#45;&gt;default__cross_provide_host_</title>
<path fill="none" stroke="#a6adc8" d="M71.07,-888.8C79.17,-853.87 101.95,-777.84 152.75,-741.08 169.13,-729.22 188.71,-721.75 208.68,-717.16"/>
<polygon fill="#a6adc8" stroke="#a6adc8" points="209.2,-720.62 218.3,-715.2 207.81,-713.76 209.2,-720.62"/>
</g>
<!-- default__cross_provide_user_ -->
<g id="node17" class="node">
<title>default__cross_provide_user_</title>
<polygon fill="#f9e2af" stroke="#f9e2af" points="428.5,-786.08 219.75,-786.08 219.75,-750.08 428.5,-750.08 428.5,-786.08"/>
<text text-anchor="middle" x="324.13" y="-763.4" font-family="Times,serif" font-size="14.00" fill="#1e1e2e">default/cross&#45;provide(user)</text>
</g>
<!-- host&#45;&gt;default__cross_provide_user_ -->
<g id="edge39" class="edge">
<title>host&#45;&gt;default__cross_provide_user_</title>
<path fill="none" stroke="#a6adc8" d="M75.7,-888.86C88.41,-863.33 115.18,-817.51 152.75,-795.08 169.59,-785.02 188.97,-778.34 208.49,-773.97"/>
<polygon fill="#a6adc8" stroke="#a6adc8" points="209.06,-777.43 218.17,-772.01 207.67,-770.56 209.06,-777.43"/>
</g>
<!-- default__self_provide_default_ -->
<g id="node18" class="node">
<title>default__self_provide_default_</title>
<polygon fill="#fab387" stroke="#fab387" points="431.5,-840.08 216.75,-840.08 216.75,-804.08 431.5,-804.08 431.5,-840.08"/>
<text text-anchor="middle" x="324.13" y="-817.4" font-family="Times,serif" font-size="14.00" fill="#1e1e2e">default/self&#45;provide(default)</text>
</g>
<!-- host&#45;&gt;default__self_provide_default_ -->
<g id="edge40" class="edge">
<title>host&#45;&gt;default__self_provide_default_</title>
<path fill="none" stroke="#a6adc8" d="M93.85,-897.58C110.68,-891.59 132.95,-883.75 152.75,-877.08 185.95,-865.89 222.94,-853.89 253.95,-843.96"/>
<polygon fill="#a6adc8" stroke="#a6adc8" points="254.75,-847.38 263.21,-841.01 252.62,-840.71 254.75,-847.38"/>
</g>
<!-- hm_host -->
<g id="node23" class="node">
<title>hm_host</title>
<polygon fill="#cba6f7" stroke="#cba6f7" points="361,-555.08 287.25,-555.08 287.25,-519.08 361,-519.08 361,-555.08"/>
<text text-anchor="middle" x="324.13" y="-532.4" font-family="Times,serif" font-size="14.00" fill="#1e1e2e">hm&#45;host</text>
</g>
<!-- host&#45;&gt;hm_host -->
<g id="edge41" class="edge">
<title>host&#45;&gt;hm_host</title>
<path fill="none" stroke="#a6adc8" d="M67.46,-888.86C68.65,-838.21 78.74,-693.96 152.75,-610.08 184.63,-573.95 237.49,-555.11 275.89,-545.69"/>
<polygon fill="#a6adc8" stroke="#a6adc8" points="276.38,-549.18 285.34,-543.52 274.8,-542.35 276.38,-549.18"/>
</g>
<!-- hm_host__cross_provide_host_ -->
<g id="node25" class="node">
<title>hm_host__cross_provide_host_</title>
<polygon fill="#f2cdcd" stroke="#f2cdcd" points="431.88,-447.08 216.38,-447.08 216.38,-411.08 431.88,-411.08 431.88,-447.08"/>
<text text-anchor="middle" x="324.13" y="-424.4" font-family="Times,serif" font-size="14.00" fill="#1e1e2e">hm&#45;host/cross&#45;provide(host)</text>
</g>
<!-- host&#45;&gt;hm_host__cross_provide_host_ -->
<g id="edge42" class="edge">
<title>host&#45;&gt;hm_host__cross_provide_host_</title>
<path fill="none" stroke="#a6adc8" d="M68.13,-888.58C71.69,-811.6 89.27,-517.68 152.75,-456.08 167.1,-442.15 185.55,-433.65 204.99,-428.7"/>
<polygon fill="#a6adc8" stroke="#a6adc8" points="205.71,-432.12 214.72,-426.56 204.21,-425.29 205.71,-432.12"/>
</g>
<!-- hm_host__self_provide_hm_host_ -->
<g id="node26" class="node">
<title>hm_host__self_provide_hm_host_</title>
<polygon fill="#cba6f7" stroke="#cba6f7" points="439,-501.08 209.25,-501.08 209.25,-465.08 439,-465.08 439,-501.08"/>
<text text-anchor="middle" x="324.13" y="-478.4" font-family="Times,serif" font-size="14.00" fill="#1e1e2e">hm&#45;host/self&#45;provide(hm&#45;host)</text>
</g>
<!-- host&#45;&gt;hm_host__self_provide_hm_host_ -->
<g id="edge43" class="edge">
<title>host&#45;&gt;hm_host__self_provide_hm_host_</title>
<path fill="none" stroke="#a6adc8" d="M68.62,-888.9C73.86,-818.27 96.44,-563.39 152.75,-510.08 165.42,-498.08 181.14,-490.15 197.87,-485.05"/>
<polygon fill="#a6adc8" stroke="#a6adc8" points="198.76,-488.44 207.52,-482.48 196.96,-481.67 198.76,-488.44"/>
</g>
<!-- hm_user -->
<g id="node27" class="node">
<title>hm_user</title>
<polygon fill="#fab387" stroke="#fab387" points="361.38,-344.08 286.88,-344.08 286.88,-308.08 361.38,-308.08 361.38,-344.08"/>
<text text-anchor="middle" x="324.13" y="-321.4" font-family="Times,serif" font-size="14.00" fill="#1e1e2e">hm&#45;user</text>
</g>
<!-- host&#45;&gt;hm_user -->
<g id="edge44" class="edge">
<title>host&#45;&gt;hm_user</title>
<path fill="none" stroke="#a6adc8" d="M68.15,-888.67C71.95,-806.96 90.91,-477.73 152.75,-399.08 182.71,-360.97 236.4,-342.43 275.52,-333.63"/>
<polygon fill="#a6adc8" stroke="#a6adc8" points="276.09,-337.09 285.16,-331.61 274.66,-330.24 276.09,-337.09"/>
</g>
<!-- hm_user__cross_provide_hm_host_ -->
<g id="node29" class="node">
<title>hm_user__cross_provide_hm_host_</title>
<polygon fill="#a6e3a1" stroke="#a6e3a1" points="445.75,-236.08 202.5,-236.08 202.5,-200.08 445.75,-200.08 445.75,-236.08"/>
<text text-anchor="middle" x="324.13" y="-213.4" font-family="Times,serif" font-size="14.00" fill="#1e1e2e">hm&#45;user/cross&#45;provide(hm&#45;host)</text>
</g>
<!-- host&#45;&gt;hm_user__cross_provide_hm_host_ -->
<g id="edge45" class="edge">
<title>host&#45;&gt;hm_user__cross_provide_hm_host_</title>
<path fill="none" stroke="#a6adc8" d="M68.44,-888.8C74.54,-786.99 106.42,-292.77 152.75,-245.08 163.58,-233.93 177.02,-226.19 191.57,-220.94"/>
<polygon fill="#a6adc8" stroke="#a6adc8" points="192.42,-224.34 200.9,-218 190.31,-217.67 192.42,-224.34"/>
</g>
<!-- hm_user__self_provide_hm_user_ -->
<g id="node30" class="node">
<title>hm_user__self_provide_hm_user_</title>
<polygon fill="#fab387" stroke="#fab387" points="439.75,-290.08 208.5,-290.08 208.5,-254.08 439.75,-254.08 439.75,-290.08"/>
<text text-anchor="middle" x="324.13" y="-267.4" font-family="Times,serif" font-size="14.00" fill="#1e1e2e">hm&#45;user/self&#45;provide(hm&#45;user)</text>
</g>
<!-- host&#45;&gt;hm_user__self_provide_hm_user_ -->
<g id="edge46" class="edge">
<title>host&#45;&gt;hm_user__self_provide_hm_user_</title>
<path fill="none" stroke="#a6adc8" d="M67.15,-888.76C66.41,-796.68 67.96,-385.38 152.75,-299.08 164.97,-286.63 180.45,-278.46 197.08,-273.25"/>
<polygon fill="#a6adc8" stroke="#a6adc8" points="197.95,-276.64 206.68,-270.63 196.11,-269.88 197.95,-276.64"/>
</g>
<!-- alice -->
<g id="node31" class="node">
<title>alice</title>
<polygon fill="#f2cdcd" stroke="#f2cdcd" points="1793.06,-314.08 1739.06,-314.08 1739.06,-278.08 1793.06,-278.08 1793.06,-314.08"/>
<text text-anchor="middle" x="1766.06" y="-291.4" font-family="Times,serif" font-size="14.00" fill="#1e1e2e">alice</text>
</g>
<!-- host&#45;&gt;alice -->
<g id="edge36" class="edge">
<title>host&#45;&gt;alice</title>
<path fill="none" stroke="#a6adc8" d="M68.12,-888.88C72.69,-781.74 98.54,-236.23 152.75,-188.08 216.76,-131.21 837.91,-182.62 923.36,-188.08 1235.72,-208.03 1609.33,-269.25 1727.4,-289.5"/>
<polygon fill="#a6adc8" stroke="#a6adc8" points="1726.7,-292.93 1737.15,-291.18 1727.89,-286.03 1726.7,-292.93"/>
</g>
<!-- user -->
<g id="node37" class="node">
<title>user</title>
<polygon fill="#f2cdcd" stroke="#f2cdcd" points="1793.06,-89.08 1739.06,-89.08 1739.06,-53.08 1793.06,-53.08 1793.06,-89.08"/>
<text text-anchor="middle" x="1766.06" y="-66.4" font-family="Times,serif" font-size="14.00" fill="#1e1e2e">user</text>
</g>
<!-- host&#45;&gt;user -->
<g id="edge51" class="edge">
<title>host&#45;&gt;user</title>
<path fill="none" stroke="#a6adc8" d="M67.96,-888.78C71.78,-775.96 94.65,-177.94 152.75,-124.08 389.6,95.48 1508.29,-37.55 1727.68,-66.07"/>
<polygon fill="#a6adc8" stroke="#a6adc8" points="1726.99,-69.51 1737.36,-67.34 1727.9,-62.57 1726.99,-69.51"/>
</g>
<!-- user__cross_provide_host_ -->
<g id="node39" class="node">
<title>user__cross_provide_host_</title>
<polygon fill="#f38ba8" stroke="#f38ba8" points="1860.68,-161.08 1671.43,-161.08 1671.43,-125.08 1860.68,-125.08 1860.68,-161.08"/>
<text text-anchor="middle" x="1766.06" y="-138.4" font-family="Times,serif" font-size="14.00" fill="#1e1e2e">user/cross&#45;provide(host)</text>
</g>
<!-- host&#45;&gt;user__cross_provide_host_ -->
<g id="edge52" class="edge">
<title>host&#45;&gt;user__cross_provide_host_</title>
<path fill="none" stroke="#a6adc8" d="M68.04,-888.82C72.2,-778.87 96.45,-207.77 152.75,-157.08 208.72,-106.68 1310.27,-131.13 1659.68,-140.19"/>
<polygon fill="#a6adc8" stroke="#a6adc8" points="1659.45,-143.69 1669.53,-140.45 1659.63,-136.69 1659.45,-143.69"/>
</g>
<!-- networking -->
<g id="node7" class="node">
<title>networking</title>
<polygon fill="#89b4fa" stroke="#89b4fa" points="775.93,-1125.08 678.93,-1125.08 678.93,-1089.08 775.93,-1089.08 775.93,-1125.08"/>
<text text-anchor="middle" x="727.43" y="-1102.4" font-family="Times,serif" font-size="14.00" fill="#1e1e2e">networking</text>
</g>
<!-- networking&#45;&gt;host__self_provide_host_ -->
<g id="edge58" class="edge">
<title>networking&#45;&gt;host__self_provide_host_</title>
<path fill="none" stroke="#a6adc8" d="M776.36,-1109.36C869.08,-1113.76 1074.66,-1123.54 1197.75,-1129.39"/>
<polygon fill="#a6adc8" stroke="#a6adc8" points="1197.37,-1132.87 1207.52,-1129.85 1197.7,-1125.88 1197.37,-1132.87"/>
</g>
<!-- networking&#45;&gt;networking -->
<g id="edge59" class="edge">
<title>networking&#45;&gt;networking</title>
<path fill="none" stroke="#a6adc8" d="M678.47,-1115.57C630.76,-1127.84 647.08,-1143.08 727.43,-1143.08 800.87,-1143.08 820.82,-1130.34 787.27,-1118.79"/>
<polygon fill="#a6adc8" stroke="#a6adc8" points="788.42,-1115.48 777.84,-1116 786.44,-1122.19 788.42,-1115.48"/>
</g>
<!-- virtualization__podman -->
<g id="node8" class="node">
<title>virtualization__podman</title>
<polygon fill="#cba6f7" stroke="#cba6f7" points="424.21,-1053.08 224.04,-1053.08 152.75,-1017.08 495.5,-1017.08 424.21,-1053.08"/>
<text text-anchor="middle" x="324.13" y="-1030.4" font-family="Times,serif" font-size="14.00" fill="#1e1e2e">virtualization/podman</text>
</g>
<!-- virtualization__podman&#45;&gt;host__self_provide_host_ -->
<g id="edge68" class="edge">
<title>virtualization__podman&#45;&gt;host__self_provide_host_</title>
<path fill="none" stroke="#a6adc8" d="M452.25,-1039.47C600.22,-1044.93 835.5,-1054.79 923.36,-1065.08 1019.53,-1076.33 1128.27,-1097.42 1203.43,-1113.33"/>
<polygon fill="#a6adc8" stroke="#a6adc8" points="1202.28,-1116.66 1212.79,-1115.32 1203.74,-1109.82 1202.28,-1116.66"/>
</g>
<!-- virtualization__podman&#45;&gt;virtualization__podman -->
<g id="edge69" class="edge">
<title>virtualization__podman&#45;&gt;virtualization__podman</title>
<path fill="none" stroke="#a6adc8" d="M277.5,-1053.23C270.32,-1062.62 285.87,-1071.08 324.13,-1071.08 345.95,-1071.08 360.38,-1068.32 367.42,-1064.22"/>
<polygon fill="#a6adc8" stroke="#a6adc8" points="370.76,-1065.26 370.31,-1054.68 364.06,-1063.23 370.76,-1065.26"/>
</g>
<!-- virtualization -->
<g id="node11" class="node">
<title>virtualization</title>
<polygon fill="#89b4fa" stroke="#89b4fa" points="783.05,-1013.08 671.8,-1013.08 671.8,-977.08 783.05,-977.08 783.05,-1013.08"/>
<text text-anchor="middle" x="727.43" y="-990.4" font-family="Times,serif" font-size="14.00" fill="#1e1e2e">virtualization</text>
</g>
<!-- virtualization__podman&#45;&gt;virtualization -->
<g id="edge77" class="edge">
<title>virtualization__podman&#45;&gt;virtualization</title>
<path fill="none" stroke="#a6adc8" d="M494.15,-1018.23C552.68,-1012.4 614.88,-1006.2 660.18,-1001.68"/>
<polygon fill="#a6adc8" stroke="#a6adc8" points="660.5,-1005.17 670.1,-1000.69 659.8,-998.2 660.5,-1005.17"/>
</g>
<!-- regreet&#45;&gt;host__self_provide_host_ -->
<g id="edge60" class="edge">
<title>regreet&#45;&gt;host__self_provide_host_</title>
<path fill="none" stroke="#a6adc8" d="M762.26,-1214.01C846.49,-1201.41 1068.16,-1168.23 1197.93,-1148.81"/>
<polygon fill="#a6adc8" stroke="#a6adc8" points="1198.17,-1152.32 1207.54,-1147.37 1197.14,-1145.39 1198.17,-1152.32"/>
</g>
<!-- regreet&#45;&gt;regreet -->
<g id="edge61" class="edge">
<title>regreet&#45;&gt;regreet</title>
<path fill="none" stroke="#a6adc8" d="M692.59,-1224.41C628.38,-1237.03 639.99,-1255.08 727.43,-1255.08 809.4,-1255.08 824.73,-1239.21 773.42,-1226.83"/>
<polygon fill="#a6adc8" stroke="#a6adc8" points="774.26,-1223.43 763.75,-1224.73 772.77,-1230.27 774.26,-1223.43"/>
</g>
<!-- tailscale -->
<g id="node10" class="node">
<title>tailscale</title>
<polygon fill="#f2cdcd" stroke="#f2cdcd" points="361.75,-1165.08 286.5,-1165.08 286.5,-1129.08 361.75,-1129.08 361.75,-1165.08"/>
<text text-anchor="middle" x="324.13" y="-1142.4" font-family="Times,serif" font-size="14.00" fill="#1e1e2e">tailscale</text>
</g>
<!-- tailscale&#45;&gt;host__self_provide_host_ -->
<g id="edge62" class="edge">
<title>tailscale&#45;&gt;host__self_provide_host_</title>
<path fill="none" stroke="#a6adc8" d="M362.03,-1148.24C403.31,-1149.48 472.19,-1151.36 531.5,-1152.08 705.65,-1154.19 749.25,-1156.27 923.36,-1152.08 1016.61,-1149.83 1122.86,-1144.42 1198.05,-1140.12"/>
<polygon fill="#a6adc8" stroke="#a6adc8" points="1198.09,-1143.62 1207.87,-1139.55 1197.68,-1136.63 1198.09,-1143.62"/>
</g>
<!-- tailscale&#45;&gt;tailscale -->
<g id="edge63" class="edge">
<title>tailscale&#45;&gt;tailscale</title>
<path fill="none" stroke="#a6adc8" d="M286.07,-1158.69C264.37,-1170.27 277.06,-1183.08 324.13,-1183.08 361.63,-1183.08 377.31,-1174.94 371.15,-1165.78"/>
<polygon fill="#a6adc8" stroke="#a6adc8" points="373.39,-1163.09 363.37,-1159.63 369.04,-1168.58 373.39,-1163.09"/>
</g>
<!-- virtualization&#45;&gt;host__self_provide_host_ -->
<g id="edge66" class="edge">
<title>virtualization&#45;&gt;host__self_provide_host_</title>
<path fill="none" stroke="#a6adc8" d="M783.4,-1008.53C882.38,-1032.75 1091.26,-1083.87 1209.68,-1112.85"/>
<polygon fill="#a6adc8" stroke="#a6adc8" points="1208.84,-1116.25 1219.38,-1115.23 1210.5,-1109.45 1208.84,-1116.25"/>
</g>
<!-- virtualization&#45;&gt;virtualization -->
<g id="edge67" class="edge">
<title>virtualization&#45;&gt;virtualization</title>
<path fill="none" stroke="#a6adc8" d="M671.31,-1005.58C632.71,-1017.44 651.42,-1031.08 727.43,-1031.08 795.13,-1031.08 817.37,-1020.26 794.16,-1009.51"/>
<polygon fill="#a6adc8" stroke="#a6adc8" points="795.56,-1006.3 784.97,-1006.11 793.13,-1012.86 795.56,-1006.3"/>
</g>
<!-- workstation&#45;&gt;desktop -->
<g id="edge70" class="edge">
<title>workstation&#45;&gt;desktop</title>
<path fill="none" stroke="#a6adc8" d="M80.83,-1128.42C96.02,-1147.64 122.57,-1177.08 152.75,-1192.08 191.42,-1211.3 240.59,-1217.43 276.15,-1219.12"/>
<polygon fill="#a6adc8" stroke="#a6adc8" points="276.02,-1222.62 286.14,-1219.48 276.28,-1215.62 276.02,-1222.62"/>
</g>
<!-- workstation&#45;&gt;host__self_provide_host_ -->
<g id="edge71" class="edge">
<title>workstation&#45;&gt;host__self_provide_host_</title>
<path fill="none" stroke="#a6adc8" d="M117.03,-1106.53C128.74,-1105.71 141.19,-1104.85 152.75,-1104.08 321.05,-1092.83 362.91,-1085.41 531.5,-1080.08 705.57,-1074.57 749.65,-1067.57 923.36,-1080.08 1017.1,-1086.83 1123.08,-1103 1198.05,-1115.9"/>
<polygon fill="#a6adc8" stroke="#a6adc8" points="1197.41,-1119.34 1207.86,-1117.6 1198.6,-1112.44 1197.41,-1119.34"/>
</g>
<!-- workstation&#45;&gt;networking -->
<g id="edge72" class="edge">
<title>workstation&#45;&gt;networking</title>
<path fill="none" stroke="#a6adc8" d="M117.18,-1109.85C236.67,-1109.31 539.19,-1107.93 667.48,-1107.34"/>
<polygon fill="#a6adc8" stroke="#a6adc8" points="667.11,-1110.85 677.09,-1107.3 667.08,-1103.85 667.11,-1110.85"/>
</g>
<!-- workstation&#45;&gt;virtualization__podman -->
<g id="edge73" class="edge">
<title>workstation&#45;&gt;virtualization__podman</title>
<path fill="none" stroke="#a6adc8" d="M116.99,-1095.53C154.67,-1084.48 207.09,-1069.1 249.63,-1056.63"/>
<polygon fill="#a6adc8" stroke="#a6adc8" points="250.44,-1060.04 259.05,-1053.87 248.47,-1053.32 250.44,-1060.04"/>
</g>
<!-- workstation&#45;&gt;tailscale -->
<g id="edge74" class="edge">
<title>workstation&#45;&gt;tailscale</title>
<path fill="none" stroke="#a6adc8" d="M116.99,-1117.25C162.56,-1123.85 229.67,-1133.56 274.82,-1140.09"/>
<polygon fill="#a6adc8" stroke="#a6adc8" points="274.18,-1143.53 284.58,-1141.5 275.19,-1136.6 274.18,-1143.53"/>
</g>
<!-- workstation&#45;&gt;virtualization -->
<g id="edge75" class="edge">
<title>workstation&#45;&gt;virtualization</title>
<path fill="none" stroke="#a6adc8" d="M76.45,-1091.58C89.5,-1067.3 116.12,-1025.69 152.75,-1008.08 197.39,-986.61 519,-990.65 660.22,-993.52"/>
<polygon fill="#a6adc8" stroke="#a6adc8" points="660.11,-997.02 670.18,-993.73 660.25,-990.02 660.11,-997.02"/>
</g>
<!-- workstation&#45;&gt;workstation -->
<g id="edge76" class="edge">
<title>workstation&#45;&gt;workstation</title>
<path fill="none" stroke="#a6adc8" d="M19.75,-1128.23C12.57,-1137.62 28.12,-1146.08 66.38,-1146.08 88.2,-1146.08 102.63,-1143.32 109.67,-1139.22"/>
<polygon fill="#a6adc8" stroke="#a6adc8" points="113.01,-1140.26 112.56,-1129.68 106.31,-1138.23 113.01,-1140.26"/>
</g>
<!-- n_default&#45;&gt;n_default -->
<g id="edge10" class="edge">
<title>n_default&#45;&gt;n_default</title>
<path fill="none" stroke="#a6adc8" d="M290.67,-651.48C262.88,-663.57 274.04,-678.08 324.13,-678.08 366.78,-678.08 381.2,-667.56 367.38,-656.97"/>
<polygon fill="#a6adc8" stroke="#a6adc8" points="369.34,-654.05 358.9,-652.22 365.92,-660.16 369.34,-654.05"/>
</g>
<!-- default__aspect_default_ -->
<g id="node14" class="node">
<title>default__aspect_default_</title>
<polygon fill="#a6e3a1" stroke="#a6e3a1" points="1855.06,-733.08 1677.06,-733.08 1677.06,-697.08 1855.06,-697.08 1855.06,-733.08"/>
<text text-anchor="middle" x="1766.06" y="-710.4" font-family="Times,serif" font-size="14.00" fill="#1e1e2e">default/aspect(default)</text>
</g>
<!-- n_default&#45;&gt;default__aspect_default_ -->
<g id="edge11" class="edge">
<title>n_default&#45;&gt;default__aspect_default_</title>
<path fill="none" stroke="#a6adc8" d="M357.5,-641.39C395.78,-642.4 458.91,-650.12 495.5,-687.08 541.31,-733.34 480.12,-789.09 531.5,-829.08 616.39,-895.13 1387.54,-887.31 1635.43,-805.08 1675.04,-791.94 1713.4,-762.58 1737.98,-740.95"/>
<polygon fill="#a6adc8" stroke="#a6adc8" points="1740.17,-743.68 1745.26,-734.39 1735.49,-738.48 1740.17,-743.68"/>
</g>
<!-- den__provides__define_user -->
<g id="node19" class="node">
<title>den__provides__define_user</title>
<polygon fill="#a6e3a1" stroke="#a6e3a1" points="821,-802.08 633.86,-802.08 567.21,-766.08 887.64,-766.08 821,-802.08"/>
<text text-anchor="middle" x="727.43" y="-779.4" font-family="Times,serif" font-size="14.00" fill="#1e1e2e">provides/define&#45;user</text>
</g>
<!-- n_default&#45;&gt;den__provides__define_user -->
<g id="edge12" class="edge">
<title>n_default&#45;&gt;den__provides__define_user</title>
<path fill="none" stroke="#a6adc8" d="M357.48,-642.96C394.58,-645.56 455.44,-654.88 495.5,-687.08 522.77,-708.99 502.96,-736.84 531.5,-757.08 548.45,-769.09 568.35,-776.93 588.84,-781.88"/>
<polygon fill="#a6adc8" stroke="#a6adc8" points="587.94,-785.27 598.45,-783.96 589.42,-778.43 587.94,-785.27"/>
</g>
<!-- den__provides__hostname -->
<g id="node20" class="node">
<title>den__provides__hostname</title>
<polygon fill="#fab387" stroke="#fab387" points="815.35,-730.08 639.51,-730.08 576.89,-694.08 877.97,-694.08 815.35,-730.08"/>
<text text-anchor="middle" x="727.43" y="-707.4" font-family="Times,serif" font-size="14.00" fill="#1e1e2e">provides/hostname</text>
</g>
<!-- n_default&#45;&gt;den__provides__hostname -->
<g id="edge13" class="edge">
<title>n_default&#45;&gt;den__provides__hostname</title>
<path fill="none" stroke="#a6adc8" d="M357.52,-649.54C398.05,-658.71 469.66,-674.36 531.5,-685.08 545.05,-687.42 559.15,-689.7 573.3,-691.87"/>
<polygon fill="#a6adc8" stroke="#a6adc8" points="572.75,-695.32 583.16,-693.36 573.79,-688.4 572.75,-695.32"/>
</g>
<!-- den__provides__mutual_provider -->
<g id="node21" class="node">
<title>den__provides__mutual_provider</title>
<polygon fill="#f9e2af" stroke="#f9e2af" points="841.85,-658.08 613,-658.08 531.5,-622.08 923.36,-622.08 841.85,-658.08"/>
<text text-anchor="middle" x="727.43" y="-635.4" font-family="Times,serif" font-size="14.00" fill="#1e1e2e">provides/mutual&#45;provider</text>
</g>
<!-- n_default&#45;&gt;den__provides__mutual_provider -->
<g id="edge14" class="edge">
<title>n_default&#45;&gt;den__provides__mutual_provider</title>
<path fill="none" stroke="#a6adc8" d="M357.63,-641.91C402.27,-641.69 485.71,-641.28 561.95,-640.9"/>
<polygon fill="#a6adc8" stroke="#a6adc8" points="561.64,-644.4 571.62,-640.85 561.61,-637.4 561.64,-644.4"/>
</g>
<!-- den__provides__default__aspect_default__den__provides -->
<g id="node15" class="node">
<title>den__provides__default__aspect_default__den__provides</title>
<polygon fill="#a6e3a1" stroke="#a6e3a1" points="1494.82,-770.08 1099.98,-770.08 959.36,-734.08 1635.43,-734.08 1494.82,-770.08"/>
<text text-anchor="middle" x="1297.4" y="-747.4" font-family="Times,serif" font-size="14.00" fill="#1e1e2e">provides/default/aspect(default):den/provides</text>
</g>
<!-- den__provides__define_user&#45;&gt;default__aspect_default_ -->
<g id="edge17" class="edge">
<title>den__provides__define_user&#45;&gt;default__aspect_default_</title>
<path fill="none" stroke="#a6adc8" d="M829.15,-798.06C998.4,-818.37 1349.44,-846.66 1635.43,-779.08 1668.28,-771.31 1702.38,-754.05 1727.36,-739.4"/>
<polygon fill="#a6adc8" stroke="#a6adc8" points="1729.07,-742.46 1735.84,-734.31 1725.47,-736.46 1729.07,-742.46"/>
</g>
<!-- den__provides__define_user&#45;&gt;den__provides__default__aspect_default__den__provides -->
<g id="edge18" class="edge">
<title>den__provides__define_user&#45;&gt;den__provides__default__aspect_default__den__provides</title>
<path fill="none" stroke="#a6adc8" d="M869.92,-776.1C928.85,-772.78 998.84,-768.84 1064.9,-765.12"/>
<polygon fill="#a6adc8" stroke="#a6adc8" points="1065.02,-768.62 1074.81,-764.56 1064.63,-761.63 1065.02,-768.62"/>
</g>
<!-- den__provides__define_user&#45;&gt;den__provides__define_user -->
<g id="edge19" class="edge">
<title>den__provides__define_user&#45;&gt;den__provides__define_user</title>
<path fill="none" stroke="#a6adc8" d="M654.47,-802.23C643.24,-811.62 667.56,-820.08 727.43,-820.08 762.51,-820.08 785.38,-817.17 796.05,-812.88"/>
<polygon fill="#a6adc8" stroke="#a6adc8" points="799.29,-814.21 799.82,-803.63 792.8,-811.57 799.29,-814.21"/>
</g>
<!-- den__provides__hostname&#45;&gt;default__aspect_default_ -->
<g id="edge20" class="edge">
<title>den__provides__hostname&#45;&gt;default__aspect_default_</title>
<path fill="none" stroke="#a6adc8" d="M846.84,-712.42C1052.74,-713.02 1473.09,-714.23 1665.22,-714.79"/>
<polygon fill="#a6adc8" stroke="#a6adc8" points="1665.18,-718.29 1675.19,-714.82 1665.2,-711.29 1665.18,-718.29"/>
</g>
<!-- den__provides__hostname&#45;&gt;den__provides__default__aspect_default__den__provides -->
<g id="edge21" class="edge">
<title>den__provides__hostname&#45;&gt;den__provides__default__aspect_default__den__provides</title>
<path fill="none" stroke="#a6adc8" d="M834.59,-719.55C888.12,-723.32 955.76,-728.09 1022.63,-732.8"/>
<polygon fill="#a6adc8" stroke="#a6adc8" points="1022.06,-736.26 1032.28,-733.48 1022.55,-729.28 1022.06,-736.26"/>
</g>
<!-- den__provides__hostname&#45;&gt;den__provides__hostname -->
<g id="edge22" class="edge">
<title>den__provides__hostname&#45;&gt;den__provides__hostname</title>
<path fill="none" stroke="#a6adc8" d="M654.47,-730.23C643.24,-739.62 667.56,-748.08 727.43,-748.08 762.51,-748.08 785.38,-745.17 796.05,-740.88"/>
<polygon fill="#a6adc8" stroke="#a6adc8" points="799.29,-742.21 799.82,-731.63 792.8,-739.57 799.29,-742.21"/>
</g>
<!-- den__provides__mutual_provider&#45;&gt;default__aspect_default_ -->
<g id="edge23" class="edge">
<title>den__provides__mutual_provider&#45;&gt;default__aspect_default_</title>
<path fill="none" stroke="#a6adc8" d="M807.04,-658.58C851.48,-668.23 908.23,-679.22 959.36,-685.08 1258.07,-719.27 1335.02,-696.79 1635.43,-709.08 1645.17,-709.47 1655.31,-709.91 1665.44,-710.36"/>
<polygon fill="#a6adc8" stroke="#a6adc8" points="1665.2,-713.85 1675.35,-710.8 1665.51,-706.86 1665.2,-713.85"/>
</g>
<!-- den__provides__mutual_provider&#45;&gt;den__provides__default__aspect_default__den__provides -->
<g id="edge24" class="edge">
<title>den__provides__mutual_provider&#45;&gt;den__provides__default__aspect_default__den__provides</title>
<path fill="none" stroke="#a6adc8" d="M822.99,-658.56C855.16,-665.72 891.12,-674.72 923.36,-685.08 939.86,-690.38 942.67,-695.39 959.36,-700.08 1008.24,-713.81 1062.2,-724.18 1112.34,-731.9"/>
<polygon fill="#a6adc8" stroke="#a6adc8" points="1111.75,-735.35 1122.16,-733.38 1112.79,-728.43 1111.75,-735.35"/>
</g>
<!-- den__provides__mutual_provider&#45;&gt;den__provides__mutual_provider -->
<g id="edge25" class="edge">
<title>den__provides__mutual_provider&#45;&gt;den__provides__mutual_provider</title>
<path fill="none" stroke="#a6adc8" d="M654.47,-658.23C643.24,-667.62 667.56,-676.08 727.43,-676.08 762.51,-676.08 785.38,-673.17 796.05,-668.88"/>
<polygon fill="#a6adc8" stroke="#a6adc8" points="799.29,-670.21 799.82,-659.63 792.8,-667.57 799.29,-670.21"/>
</g>
<!-- alice__to_hosts -->
<g id="node22" class="node">
<title>alice__to_hosts</title>
<polygon fill="#a6e3a1" stroke="#a6e3a1" points="1361.42,-658.08 1233.38,-658.08 1187.78,-622.08 1407.02,-622.08 1361.42,-658.08"/>
<text text-anchor="middle" x="1297.4" y="-635.4" font-family="Times,serif" font-size="14.00" fill="#1e1e2e">alice/to&#45;hosts</text>
</g>
<!-- den__provides__mutual_provider&#45;&gt;alice__to_hosts -->
<g id="edge26" class="edge">
<title>den__provides__mutual_provider&#45;&gt;alice__to_hosts</title>
<path fill="none" stroke="#a6adc8" d="M883.63,-640.08C984.22,-640.08 1112.15,-640.08 1198.73,-640.08"/>
<polygon fill="#a6adc8" stroke="#a6adc8" points="1198.62,-643.58 1208.62,-640.08 1198.62,-636.58 1198.62,-643.58"/>
</g>
<!-- alice__to_hosts&#45;&gt;default__aspect_default_ -->
<g id="edge8" class="edge">
<title>alice__to_hosts&#45;&gt;default__aspect_default_</title>
<path fill="none" stroke="#a6adc8" d="M1372.18,-650.09C1440.56,-659.59 1545.05,-674.66 1635.43,-690.08 1645.22,-691.75 1655.41,-693.57 1665.58,-695.44"/>
<polygon fill="#a6adc8" stroke="#a6adc8" points="1664.64,-698.82 1675.11,-697.21 1665.92,-691.94 1664.64,-698.82"/>
</g>
<!-- alice__to_hosts&#45;&gt;alice__to_hosts -->
<g id="edge9" class="edge">
<title>alice__to_hosts&#45;&gt;alice__to_hosts</title>
<path fill="none" stroke="#a6adc8" d="M1225.75,-652.43C1189.76,-663.81 1213.64,-676.08 1297.4,-676.08 1371.01,-676.08 1398.37,-666.6 1379.49,-656.58"/>
<polygon fill="#a6adc8" stroke="#a6adc8" points="1381.04,-653.43 1370.45,-652.99 1378.45,-659.94 1381.04,-653.43"/>
</g>
<!-- alice__to_hosts&#45;&gt;alice -->
<g id="edge78" class="edge">
<title>alice__to_hosts&#45;&gt;alice</title>
<path fill="none" stroke="#a6adc8" d="M1323.49,-621.58C1401.76,-563.88 1641.55,-387.12 1730.97,-321.21"/>
<polygon fill="#a6adc8" stroke="#a6adc8" points="1732.94,-324.1 1738.91,-315.35 1728.78,-318.47 1732.94,-324.1"/>
</g>
<!-- hm_host&#45;&gt;hm_host -->
<g id="edge32" class="edge">
<title>hm_host&#45;&gt;hm_host</title>
<path fill="none" stroke="#a6adc8" d="M286.77,-548.32C264.1,-560 276.55,-573.08 324.13,-573.08 362.78,-573.08 378.25,-564.44 370.53,-554.94"/>
<polygon fill="#a6adc8" stroke="#a6adc8" points="372.84,-552.29 362.7,-549.21 368.7,-557.94 372.84,-552.29"/>
</g>
<!-- hm_host__aspect_hm_host_ -->
<g id="node24" class="node">
<title>hm_host__aspect_hm_host_</title>
<polygon fill="#89b4fa" stroke="#89b4fa" points="823.93,-555.08 630.93,-555.08 630.93,-519.08 823.93,-519.08 823.93,-555.08"/>
<text text-anchor="middle" x="727.43" y="-532.4" font-family="Times,serif" font-size="14.00" fill="#1e1e2e">hm&#45;host/aspect(hm&#45;host)</text>
</g>
<!-- hm_host&#45;&gt;hm_host__aspect_hm_host_ -->
<g id="edge33" class="edge">
<title>hm_host&#45;&gt;hm_host__aspect_hm_host_</title>
<path fill="none" stroke="#a6adc8" d="M361.45,-537.08C419.15,-537.08 533.97,-537.08 619.5,-537.08"/>
<polygon fill="#a6adc8" stroke="#a6adc8" points="619.32,-540.58 629.32,-537.08 619.32,-533.58 619.32,-540.58"/>
</g>
<!-- hm_user&#45;&gt;hm_user -->
<g id="edge34" class="edge">
<title>hm_user&#45;&gt;hm_user</title>
<path fill="none" stroke="#a6adc8" d="M286.42,-337.5C264.23,-349.13 276.8,-362.08 324.13,-362.08 362.2,-362.08 377.78,-353.7 370.85,-344.36"/>
<polygon fill="#a6adc8" stroke="#a6adc8" points="373.12,-341.69 363.04,-338.42 368.88,-347.26 373.12,-341.69"/>
</g>
<!-- hm_user__aspect_hm_user_ -->
<g id="node28" class="node">
<title>hm_user__aspect_hm_user_</title>
<polygon fill="#a6e3a1" stroke="#a6e3a1" points="824.68,-344.08 630.18,-344.08 630.18,-308.08 824.68,-308.08 824.68,-344.08"/>
<text text-anchor="middle" x="727.43" y="-321.4" font-family="Times,serif" font-size="14.00" fill="#1e1e2e">hm&#45;user/aspect(hm&#45;user)</text>
</g>
<!-- hm_user&#45;&gt;hm_user__aspect_hm_user_ -->
<g id="edge35" class="edge">
<title>hm_user&#45;&gt;hm_user__aspect_hm_user_</title>
<path fill="none" stroke="#a6adc8" d="M361.8,-326.08C419.39,-326.08 533.25,-326.08 618.49,-326.08"/>
<polygon fill="#a6adc8" stroke="#a6adc8" points="618.27,-329.58 628.27,-326.08 618.27,-322.58 618.27,-329.58"/>
</g>
<!-- alice&#45;&gt;alice -->
<g id="edge1" class="edge">
<title>alice&#45;&gt;alice</title>
<path fill="none" stroke="#a6adc8" d="M1738.81,-301.67C1691.46,-314.27 1700.55,-332.08 1766.06,-332.08 1825.94,-332.08 1838.68,-317.2 1804.27,-305.02"/>
<polygon fill="#a6adc8" stroke="#a6adc8" points="1805.35,-301.69 1794.76,-302.11 1803.3,-308.38 1805.35,-301.69"/>
</g>
<!-- demo_shell -->
<g id="node32" class="node">
<title>demo_shell</title>
<polygon fill="#f2cdcd" stroke="#f2cdcd" points="2116.92,-143.08 2023.67,-143.08 2023.67,-107.08 2116.92,-107.08 2116.92,-143.08"/>
<text text-anchor="middle" x="2070.29" y="-120.4" font-family="Times,serif" font-size="14.00" fill="#1e1e2e">demo&#45;shell</text>
</g>
<!-- alice&#45;&gt;demo_shell -->
<g id="edge2" class="edge">
<title>alice&#45;&gt;demo_shell</title>
<path fill="none" stroke="#a6adc8" d="M1780.82,-277.61C1802.4,-249.97 1846.92,-198.12 1896.68,-170.08 1932.35,-149.98 1977.21,-138.64 2012.25,-132.37"/>
<polygon fill="#a6adc8" stroke="#a6adc8" points="2012.49,-135.88 2021.77,-130.76 2011.33,-128.98 2012.49,-135.88"/>
</g>
<!-- dev_tools -->
<g id="node33" class="node">
<title>dev_tools</title>
<polygon fill="#fab387" stroke="#fab387" points="2110.54,-415.08 2030.04,-415.08 2030.04,-379.08 2110.54,-379.08 2110.54,-415.08"/>
<text text-anchor="middle" x="2070.29" y="-392.4" font-family="Times,serif" font-size="14.00" fill="#1e1e2e">dev&#45;tools</text>
</g>
<!-- alice&#45;&gt;dev_tools -->
<g id="edge3" class="edge">
<title>alice&#45;&gt;dev_tools</title>
<path fill="none" stroke="#a6adc8" d="M1793.27,-313.13C1818.71,-328.91 1858.9,-351.87 1896.68,-365.08 1936.36,-378.94 1983.38,-387.16 2018.32,-391.78"/>
<polygon fill="#a6adc8" stroke="#a6adc8" points="2017.81,-395.25 2028.17,-393.03 2018.69,-388.3 2017.81,-395.25"/>
</g>
<!-- hyprland -->
<g id="node34" class="node">
<title>hyprland</title>
<polygon fill="#f2cdcd" stroke="#f2cdcd" points="2110.17,-215.08 2030.42,-215.08 2030.42,-179.08 2110.17,-179.08 2110.17,-215.08"/>
<text text-anchor="middle" x="2070.29" y="-192.4" font-family="Times,serif" font-size="14.00" fill="#1e1e2e">hyprland</text>
</g>
<!-- alice&#45;&gt;hyprland -->
<g id="edge4" class="edge">
<title>alice&#45;&gt;hyprland</title>
<path fill="none" stroke="#a6adc8" d="M1793.45,-283.8C1819.36,-272.06 1860.18,-254.37 1896.68,-242.08 1937.33,-228.39 1984.53,-216.34 2019.28,-208.16"/>
<polygon fill="#a6adc8" stroke="#a6adc8" points="2019.68,-211.66 2028.63,-205.99 2018.1,-204.84 2019.68,-211.66"/>
</g>
<!-- primary_user -->
<g id="node35" class="node">
<title>primary_user</title>
<polygon fill="#f2cdcd" stroke="#f2cdcd" points="2124.79,-287.08 2015.79,-287.08 2015.79,-251.08 2124.79,-251.08 2124.79,-287.08"/>
<text text-anchor="middle" x="2070.29" y="-264.4" font-family="Times,serif" font-size="14.00" fill="#1e1e2e">primary&#45;user</text>
</g>
<!-- alice&#45;&gt;primary_user -->
<g id="edge5" class="edge">
<title>alice&#45;&gt;primary_user</title>
<path fill="none" stroke="#a6adc8" d="M1793.35,-293.73C1839.99,-289.56 1938.46,-280.76 2004.26,-274.89"/>
<polygon fill="#a6adc8" stroke="#a6adc8" points="2004.18,-278.41 2013.83,-274.03 2003.55,-271.44 2004.18,-278.41"/>
</g>
<!-- den__provides__primary_user -->
<g id="node36" class="node">
<title>den__provides__primary_user</title>
<polygon fill="#f2cdcd" stroke="#f2cdcd" points="2171.68,-341.08 1968.9,-341.08 1896.68,-305.08 2243.9,-305.08 2171.68,-341.08"/>
<text text-anchor="middle" x="2070.29" y="-318.4" font-family="Times,serif" font-size="14.00" fill="#1e1e2e">provides/primary&#45;user</text>
</g>
<!-- alice&#45;&gt;den__provides__primary_user -->
<g id="edge6" class="edge">
<title>alice&#45;&gt;den__provides__primary_user</title>
<path fill="none" stroke="#a6adc8" d="M1793.35,-298.43C1816.42,-300.49 1852.18,-303.68 1890.39,-307.09"/>
<polygon fill="#a6adc8" stroke="#a6adc8" points="1889.99,-310.57 1900.26,-307.98 1890.61,-303.6 1889.99,-310.57"/>
</g>
<!-- user__self_provide_user_ -->
<g id="node40" class="node">
<title>user__self_provide_user_</title>
<polygon fill="#f2cdcd" stroke="#f2cdcd" points="2457.15,-296.08 2279.9,-296.08 2279.9,-260.08 2457.15,-260.08 2457.15,-296.08"/>
<text text-anchor="middle" x="2368.52" y="-273.4" font-family="Times,serif" font-size="14.00" fill="#1e1e2e">user/self&#45;provide(user)</text>
</g>
<!-- alice&#45;&gt;user__self_provide_user_ -->
<g id="edge7" class="edge">
<title>alice&#45;&gt;user__self_provide_user_</title>
<path fill="none" stroke="#a6adc8" d="M1793.38,-310.69C1818.9,-323.96 1859.15,-342.57 1896.68,-350.08 1972.35,-365.21 2169.41,-370.19 2243.9,-350.08 2277.62,-340.97 2311.6,-320.14 2335.37,-303.22"/>
<polygon fill="#a6adc8" stroke="#a6adc8" points="2337.36,-306.1 2343.37,-297.38 2333.23,-300.45 2337.36,-306.1"/>
</g>
<!-- demo_shell&#45;&gt;demo_shell -->
<g id="edge15" class="edge">
<title>demo_shell&#45;&gt;demo_shell</title>
<path fill="none" stroke="#a6adc8" d="M2023.25,-138.18C2002.48,-149.34 2018.16,-161.08 2070.29,-161.08 2110.61,-161.08 2129.13,-154.06 2125.84,-145.71"/>
<polygon fill="#a6adc8" stroke="#a6adc8" points="2128.27,-143.19 2118.47,-139.19 2123.63,-148.44 2128.27,-143.19"/>
</g>
<!-- demo_shell&#45;&gt;user__self_provide_user_ -->
<g id="edge16" class="edge">
<title>demo_shell&#45;&gt;user__self_provide_user_</title>
<path fill="none" stroke="#a6adc8" d="M2117.37,-131.15C2153.41,-137.27 2203.93,-148.94 2243.9,-170.08 2283.56,-191.06 2321.2,-227.08 2344.3,-251.71"/>
<polygon fill="#a6adc8" stroke="#a6adc8" points="2341.47,-253.8 2350.82,-258.79 2346.62,-249.06 2341.47,-253.8"/>
</g>
<!-- dev_tools&#45;&gt;dev_tools -->
<g id="edge30" class="edge">
<title>dev_tools&#45;&gt;dev_tools</title>
<path fill="none" stroke="#a6adc8" d="M2029.69,-407.21C1999.97,-419.15 2013.5,-433.08 2070.29,-433.08 2119.1,-433.08 2135.96,-422.79 2120.86,-412.32"/>
<polygon fill="#a6adc8" stroke="#a6adc8" points="2122.73,-409.35 2112.24,-407.9 2119.54,-415.58 2122.73,-409.35"/>
</g>
<!-- dev_tools&#45;&gt;user__self_provide_user_ -->
<g id="edge31" class="edge">
<title>dev_tools&#45;&gt;user__self_provide_user_</title>
<path fill="none" stroke="#a6adc8" d="M2110.71,-394.59C2146.61,-391.21 2200.5,-383.34 2243.9,-365.08 2279.51,-350.09 2315.04,-323.58 2338.81,-303.75"/>
<polygon fill="#a6adc8" stroke="#a6adc8" points="2340.81,-306.63 2346.17,-297.49 2336.28,-301.3 2340.81,-306.63"/>
</g>
<!-- hyprland&#45;&gt;hyprland -->
<g id="edge53" class="edge">
<title>hyprland&#45;&gt;hyprland</title>
<path fill="none" stroke="#a6adc8" d="M2030.15,-207.03C1999.83,-219.01 2013.21,-233.08 2070.29,-233.08 2119.35,-233.08 2136.13,-222.69 2120.63,-212.16"/>
<polygon fill="#a6adc8" stroke="#a6adc8" points="2122.29,-209.08 2111.78,-207.71 2119.14,-215.33 2122.29,-209.08"/>
</g>
<!-- hyprland&#45;&gt;user__self_provide_user_ -->
<g id="edge54" class="edge">
<title>hyprland&#45;&gt;user__self_provide_user_</title>
<path fill="none" stroke="#a6adc8" d="M2110.45,-206.95C2145.49,-215.86 2198.22,-229.48 2243.9,-242.08 2260.34,-246.61 2277.96,-251.64 2294.6,-256.47"/>
<polygon fill="#a6adc8" stroke="#a6adc8" points="2293.33,-259.74 2303.91,-259.18 2295.29,-253.02 2293.33,-259.74"/>
</g>
<!-- user&#45;&gt;user -->
<g id="edge64" class="edge">
<title>user&#45;&gt;user</title>
<path fill="none" stroke="#a6adc8" d="M1738.81,-76.67C1691.46,-89.27 1700.55,-107.08 1766.06,-107.08 1825.94,-107.08 1838.68,-92.2 1804.27,-80.02"/>
<polygon fill="#a6adc8" stroke="#a6adc8" points="1805.35,-76.69 1794.76,-77.11 1803.3,-83.38 1805.35,-76.69"/>
</g>
<!-- user__aspect_user_ -->
<g id="node38" class="node">
<title>user__aspect_user_</title>
<polygon fill="#fab387" stroke="#fab387" points="2140.54,-89.08 2000.04,-89.08 2000.04,-53.08 2140.54,-53.08 2140.54,-89.08"/>
<text text-anchor="middle" x="2070.29" y="-66.4" font-family="Times,serif" font-size="14.00" fill="#1e1e2e">user/aspect(user)</text>
</g>
<!-- user&#45;&gt;user__aspect_user_ -->
<g id="edge65" class="edge">
<title>user&#45;&gt;user__aspect_user_</title>
<path fill="none" stroke="#a6adc8" d="M1793.35,-71.08C1836.37,-71.08 1923.49,-71.08 1988.39,-71.08"/>
<polygon fill="#a6adc8" stroke="#a6adc8" points="1988.31,-74.58 1998.31,-71.08 1988.31,-67.58 1988.31,-74.58"/>
</g>
</g>
</svg>
