<?plantuml 1.2026.2?><svg xmlns="http://www.w3.org/2000/svg" xmlns:xlink="http://www.w3.org/1999/xlink" contentStyleType="text/css" data-diagram-type="DESCRIPTION" height="572px" preserveAspectRatio="none" style="width:1471px;height:572px;background:#1E1E2E;" version="1.1" viewBox="0 0 1471 572" width="1471px" zoomAndPan="magnify"><defs/><g><rect fill="#1E1E2E" height="572" style="stroke:none;stroke-width:1;" width="1471" x="0" y="0"/><!--cluster stage_user--><g class="cluster" data-qualified-name="stage_user" data-source-line="24" id="ent0003"><path d="M133.7,6.7 L168.2999,6.7 A3.75,3.75 0 0 1 170.7999,9.2 L177.7999,31.1799 L722.7,31.1799 A2.5,2.5 0 0 1 725.2,33.6799 L725.2,186.2 A2.5,2.5 0 0 1 722.7,188.7 L133.7,188.7 A2.5,2.5 0 0 1 131.2,186.2 L131.2,9.2 A2.5,2.5 0 0 1 133.7,6.7" fill="#313244" style="stroke:#6C7086;stroke-width:1.5;"/><line style="stroke:#6C7086;stroke-width:1.5;" x1="131.2" x2="177.7999" y1="31.1799" y2="31.1799"/><text fill="#CDD6F4" font-family="'JetBrains Mono,monospace'" font-size="14" font-weight="bold" lengthAdjust="spacing" textLength="33.5999" x="135.2" y="22.9799">user</text></g><!--cluster stage_default--><g class="cluster" data-qualified-name="stage_default" data-source-line="30" id="ent0008"><path d="M419.5,212.7 L479.2997,212.7 A3.75,3.75 0 0 1 481.7997,215.2 L488.7997,237.1799 L1462.29,237.1799 A2.5,2.5 0 0 1 1464.79,239.6799 L1464.79,496.2 A2.5,2.5 0 0 1 1462.29,498.7 L419.5,498.7 A2.5,2.5 0 0 1 417,496.2 L417,215.2 A2.5,2.5 0 0 1 419.5,212.7" fill="#313244" style="stroke:#6C7086;stroke-width:1.5;"/><line style="stroke:#6C7086;stroke-width:1.5;" x1="417" x2="488.7997" y1="237.1799" y2="237.1799"/><text fill="#CDD6F4" font-family="'JetBrains Mono,monospace'" font-size="14" font-weight="bold" lengthAdjust="spacing" textLength="58.7997" x="421" y="228.9799">default</text></g><!--entity user--><g class="entity" data-qualified-name="stage_user.user" data-source-line="25" id="ent0004"><rect fill="#F2CDCD" height="38.4799" rx="2.5" ry="2.5" style="stroke:#A6ADC8;stroke-width:0.5;" width="53.5999" x="227" y="134.46"/><text fill="#1E1E2E" font-family="'JetBrains Mono,monospace'" font-size="14" lengthAdjust="spacing" textLength="33.5999" x="237" y="158.7399">user</text></g><!--entity user__aspect_user_--><g class="entity" data-qualified-name="stage_user.user__aspect_user_" data-source-line="26" id="ent0005"><rect fill="#FAB387" height="38.4799" rx="2.5" ry="2.5" style="stroke:#A6ADC8;stroke-width:0.5;" width="162.7994" x="483.4" y="134.46"/><text fill="#1E1E2E" font-family="'JetBrains Mono,monospace'" font-size="14" lengthAdjust="spacing" textLength="142.7994" x="493.4" y="158.7399">user/aspect(user)</text></g><!--entity user__cross_provide__anon__--><g class="entity" data-qualified-name="stage_user.user__cross_provide__anon__" data-source-line="27" id="ent0006"><rect fill="#F38BA8" height="38.4799" rx="2.5" ry="2.5" style="stroke:#A6ADC8;stroke-width:0.5;" width="288.7988" x="420.4" y="61.46"/><text fill="#1E1E2E" font-family="'JetBrains Mono,monospace'" font-size="14" lengthAdjust="spacing" textLength="268.7988" x="430.4" y="85.7399">user/cross-provide(&amp;lt;anon&amp;gt;)</text></g><!--entity user__self_provide_user_--><g class="entity" data-qualified-name="stage_user.user__self_provide_user_" data-source-line="28" id="ent0007"><rect fill="#F2CDCD" height="38.4799" rx="2.5" ry="2.5" style="stroke:#A6ADC8;stroke-width:0.5;" width="213.1992" x="147.2" y="43.46"/><text fill="#1E1E2E" font-family="'JetBrains Mono,monospace'" font-size="14" lengthAdjust="spacing" textLength="193.1992" x="157.2" y="67.7399">user/self-provide(user)</text></g><!--entity n_default--><g class="entity" data-qualified-name="stage_default.n_default" data-source-line="31" id="ent0009"><rect fill="#FAB387" height="38.4799" rx="2.5" ry="2.5" style="stroke:#A6ADC8;stroke-width:0.5;" width="78.7997" x="525.4" y="267.46"/><text fill="#1E1E2E" font-family="'JetBrains Mono,monospace'" font-size="14" lengthAdjust="spacing" textLength="58.7997" x="535.4" y="291.7399">default</text></g><!--entity default__aspect_default_--><g class="entity" data-qualified-name="stage_default.default__aspect_default_" data-source-line="32" id="ent0010"><rect fill="#A6E3A1" height="38.4799" rx="2.5" ry="2.5" style="stroke:#A6ADC8;stroke-width:0.5;" width="213.1992" x="1143.2" y="409.46"/><text fill="#1E1E2E" font-family="'JetBrains Mono,monospace'" font-size="14" lengthAdjust="spacing" textLength="193.1992" x="1153.2" y="433.7399">default/aspect(default)</text></g><!--entity den__provides__default__aspect_default__den__provides--><g class="entity" data-qualified-name="stage_default.den__provides__default__aspect_default__den__provides" data-source-line="33" id="ent0011"><rect fill="#A6E3A1" height="24.4799" rx="2.5" ry="2.5" style="stroke:#A6ADC8;stroke-width:0.5;" width="397.9984" x="1050.8" y="344.46"/><text fill="#1E1E2E" font-family="'JetBrains Mono,monospace'" font-size="14" lengthAdjust="spacing" textLength="377.9984" x="1060.8" y="361.7399">provides/default/aspect(default):den/provides</text></g><!--entity default__cross_provide_user_--><g class="entity" data-qualified-name="stage_default.default__cross_provide_user_" data-source-line="34" id="ent0012"><rect fill="#F9E2AF" height="38.4799" rx="2.5" ry="2.5" style="stroke:#A6ADC8;stroke-width:0.5;" width="246.799" x="441.4" y="413.46"/><text fill="#1E1E2E" font-family="'JetBrains Mono,monospace'" font-size="14" lengthAdjust="spacing" textLength="226.799" x="451.4" y="437.7399">default/cross-provide(user)</text></g><!--entity default__self_provide_default_--><g class="entity" data-qualified-name="stage_default.default__self_provide_default_" data-source-line="35" id="ent0013"><rect fill="#FAB387" height="38.4799" rx="2.5" ry="2.5" style="stroke:#A6ADC8;stroke-width:0.5;" width="263.5989" x="433" y="340.46"/><text fill="#1E1E2E" font-family="'JetBrains Mono,monospace'" font-size="14" lengthAdjust="spacing" textLength="243.5989" x="443" y="364.7399">default/self-provide(default)</text></g><!--entity den__provides__define_user--><g class="entity" data-qualified-name="stage_default.den__provides__define_user" data-source-line="36" id="ent0014"><rect fill="#A6E3A1" height="24.4799" rx="2.5" ry="2.5" style="stroke:#A6ADC8;stroke-width:0.5;" width="187.9993" x="786" y="421.46"/><text fill="#1E1E2E" font-family="'JetBrains Mono,monospace'" font-size="14" lengthAdjust="spacing" textLength="167.9993" x="796" y="438.7399">provides/define-user</text></g><!--entity den__provides__hostname--><g class="entity" data-qualified-name="stage_default.den__provides__hostname" data-source-line="37" id="ent0015"><rect fill="#FAB387" height="24.4799" rx="2.5" ry="2.5" style="stroke:#A6ADC8;stroke-width:0.5;" width="162.7994" x="798.6" y="344.46"/><text fill="#1E1E2E" font-family="'JetBrains Mono,monospace'" font-size="14" lengthAdjust="spacing" textLength="142.7994" x="808.6" y="361.7399">provides/hostname</text></g><!--entity den__provides__mutual_provider--><g class="entity" data-qualified-name="stage_default.den__provides__mutual_provider" data-source-line="38" id="ent0016"><rect fill="#F9E2AF" height="24.4799" rx="2.5" ry="2.5" style="stroke:#A6ADC8;stroke-width:0.5;" width="221.5991" x="769.2" y="267.46"/><text fill="#1E1E2E" font-family="'JetBrains Mono,monospace'" font-size="14" lengthAdjust="spacing" textLength="201.5991" x="779.2" y="284.7399">provides/mutual-provider</text></g><!--entity deploy--><g class="entity" data-qualified-name="deploy" data-source-line="23" id="ent0002"><rect fill="#89B4FA" height="38.4799" rx="2.5" ry="2.5" style="stroke:#A6ADC8;stroke-width:0.5;" width="70.3998" x="16.8" y="89.46"/><text fill="#1E1E2E" font-family="'JetBrains Mono,monospace'" font-size="14" lengthAdjust="spacing" textLength="50.3998" x="26.8" y="113.7399">deploy</text></g><!--link n_default to n_default--><g class="link" data-entity-1="ent0009" data-entity-2="ent0009" data-link-type="dependency" data-source-line="41" id="lnk17"><path d="M524.94,272.81 C490.77,254.53 504.06,232.46 564.8,232.46 C625.54,232.46 644.1205,251.6997 609.9505,269.9797" fill="none" id="n_default-to-n_default" style="stroke:#A6ADC8;stroke-width:1;"/><polygon fill="#A6ADC8" points="604.66,272.81,614.4826,272.0916,609.0688,270.4514,610.7089,265.0376,604.66,272.81" style="stroke:#A6ADC8;stroke-width:1;"/></g><!--link n_default to default__aspect_default_--><g class="link" data-entity-1="ent0009" data-entity-2="ent0010" data-link-type="dependency" data-source-line="42" id="lnk18"><path d="M604.66,284.17 C642.46,283.94 699.04,289.82 733.2,322.7 C779.79,367.55 718.12,424.02 769.2,463.7 C900.24,565.49 1111.3867,490.5432 1201.7367,450.8532" fill="none" id="n_default-to-default__aspect_default_" style="stroke:#A6ADC8;stroke-width:1;"/><polygon fill="#A6ADC8" points="1207.23,448.44,1197.3812,448.3975,1202.6522,450.451,1200.5988,455.722,1207.23,448.44" style="stroke:#A6ADC8;stroke-width:1;"/></g><!--link n_default to den__provides__define_user--><g class="link" data-entity-1="ent0009" data-entity-2="ent0014" data-link-type="dependency" data-source-line="43" id="lnk19"><path d="M604.68,286.26 C641.18,287.74 695.63,295.01 733.2,322.7 C759.47,342.06 744.91,364.9 769.2,386.7 C786.87,402.56 805.0326,411.6316 825.9826,419.0316" fill="none" id="n_default-to-den__provides__define_user" style="stroke:#A6ADC8;stroke-width:1;"/><polygon fill="#A6ADC8" points="831.64,421.03,824.4861,414.2609,826.9255,419.3647,821.8216,421.8041,831.64,421.03" style="stroke:#A6ADC8;stroke-width:1;"/></g><!--link n_default to den__provides__hostname--><g class="link" data-entity-1="ent0009" data-entity-2="ent0015" data-link-type="dependency" data-source-line="44" id="lnk20"><path d="M604.4,294.8 C638.36,301.98 689.11,312.82 733.2,322.7 C763.76,329.55 792.0096,336.1053 819.5396,342.5853" fill="none" id="n_default-to-den__provides__hostname" style="stroke:#A6ADC8;stroke-width:1;"/><polygon fill="#A6ADC8" points="825.38,343.96,817.5359,338.0043,820.513,342.8144,815.7029,345.7915,825.38,343.96" style="stroke:#A6ADC8;stroke-width:1;"/></g><!--link n_default to den__provides__mutual_provider--><g class="link" data-entity-1="ent0009" data-entity-2="ent0016" data-link-type="dependency" data-source-line="45" id="lnk21"><path d="M604.52,285.83 C645.35,284.92 705.5715,283.5743 762.7315,282.2943" fill="none" id="n_default-to-den__provides__mutual_provider" style="stroke:#A6ADC8;stroke-width:1;"/><polygon fill="#A6ADC8" points="768.73,282.16,759.6427,278.3625,763.7313,282.2719,759.8218,286.3605,768.73,282.16" style="stroke:#A6ADC8;stroke-width:1;"/></g><!--link den__provides__define_user to default__aspect_default_--><g class="link" data-entity-1="ent0014" data-entity-2="ent0010" data-link-type="dependency" data-source-line="46" id="lnk22"><path d="M974.28,432.43 C1025.68,431.73 1083.6605,430.9411 1136.9305,430.2211" fill="none" id="den__provides__define_user-to-default__aspect_default_" style="stroke:#A6ADC8;stroke-width:1;"/><polygon fill="#A6ADC8" points="1142.93,430.14,1133.8768,426.262,1137.9305,430.2076,1133.9849,434.2612,1142.93,430.14" style="stroke:#A6ADC8;stroke-width:1;"/></g><!--link den__provides__define_user to den__provides__default__aspect_default__den__provides--><g class="link" data-entity-1="ent0014" data-entity-2="ent0011" data-link-type="dependency" data-source-line="47" id="lnk23"><path d="M928.74,420.98 C962.66,412.16 1009.35,400.48 1050.8,391.7 C1089.9,383.42 1127.7144,376.5427 1164.1144,370.3727" fill="none" id="den__provides__define_user-to-den__provides__default__aspect_default__den__provides" style="stroke:#A6ADC8;stroke-width:1;"/><polygon fill="#A6ADC8" points="1170.03,369.37,1160.4881,366.9303,1165.1003,370.2056,1161.8251,374.8178,1170.03,369.37" style="stroke:#A6ADC8;stroke-width:1;"/></g><!--link den__provides__define_user to den__provides__define_user--><g class="link" data-entity-1="ent0014" data-entity-2="ent0014" data-link-type="dependency" data-source-line="48" id="lnk24"><path d="M838.32,421 C805.31,405.2 819.2,386.46 880,386.46 C940.79,386.46 960.092,402.6096 927.082,418.4096" fill="none" id="den__provides__define_user-to-den__provides__define_user" style="stroke:#A6ADC8;stroke-width:1;"/><polygon fill="#A6ADC8" points="921.67,421,931.5149,420.7224,926.18,418.8413,928.0611,413.5064,921.67,421" style="stroke:#A6ADC8;stroke-width:1;"/></g><!--link den__provides__hostname to default__aspect_default_--><g class="link" data-entity-1="ent0015" data-entity-2="ent0010" data-link-type="dependency" data-source-line="49" id="lnk25"><path d="M945.91,369.41 C1001.9,380.37 1077.7918,395.2274 1142.2618,407.8474" fill="none" id="den__provides__hostname-to-default__aspect_default_" style="stroke:#A6ADC8;stroke-width:1;"/><polygon fill="#A6ADC8" points="1148.15,409,1140.086,403.3455,1143.2431,408.0395,1138.5492,411.1965,1148.15,409" style="stroke:#A6ADC8;stroke-width:1;"/></g><!--link den__provides__hostname to den__provides__default__aspect_default__den__provides--><g class="link" data-entity-1="ent0015" data-entity-2="ent0011" data-link-type="dependency" data-source-line="50" id="lnk26"><path d="M961.71,356.7 C988.25,356.7 1013.03,356.7 1044.37,356.7" fill="none" id="den__provides__hostname-to-den__provides__default__aspect_default__den__provides" style="stroke:#A6ADC8;stroke-width:1;"/><polygon fill="#A6ADC8" points="1050.37,356.7,1041.37,352.7,1045.37,356.7,1041.37,360.7,1050.37,356.7" style="stroke:#A6ADC8;stroke-width:1;"/></g><!--link den__provides__hostname to den__provides__hostname--><g class="link" data-entity-1="ent0015" data-entity-2="ent0015" data-link-type="dependency" data-source-line="51" id="lnk27"><path d="M838.32,344 C805.31,328.2 819.2,309.46 880,309.46 C940.79,309.46 960.092,325.6096 927.082,341.4096" fill="none" id="den__provides__hostname-to-den__provides__hostname" style="stroke:#A6ADC8;stroke-width:1;"/><polygon fill="#A6ADC8" points="921.67,344,931.5149,343.7224,926.18,341.8413,928.0611,336.5064,921.67,344" style="stroke:#A6ADC8;stroke-width:1;"/></g><!--link den__provides__mutual_provider to default__aspect_default_--><g class="link" data-entity-1="ent0016" data-entity-2="ent0010" data-link-type="dependency" data-source-line="52" id="lnk28"><path d="M955.91,292.38 C968.17,296.41 980.29,301.71 990.8,308.7 C1027.22,332.91 1013.79,363.39 1050.8,386.7 C1078.15,403.93 1105.5298,413.0572 1136.9198,419.1472" fill="none" id="den__provides__mutual_provider-to-default__aspect_default_" style="stroke:#A6ADC8;stroke-width:1;"/><polygon fill="#A6ADC8" points="1142.81,420.29,1134.7366,414.6491,1137.9015,419.3377,1133.2129,422.5026,1142.81,420.29" style="stroke:#A6ADC8;stroke-width:1;"/></g><!--link den__provides__mutual_provider to den__provides__default__aspect_default__den__provides--><g class="link" data-entity-1="ent0016" data-entity-2="ent0011" data-link-type="dependency" data-source-line="53" id="lnk29"><path d="M941.73,292.41 C1009.88,306.68 1113.9174,328.46 1182.0974,342.74" fill="none" id="den__provides__mutual_provider-to-den__provides__default__aspect_default__den__provides" style="stroke:#A6ADC8;stroke-width:1;"/><polygon fill="#A6ADC8" points="1187.97,343.97,1179.9811,338.21,1183.0762,342.945,1178.3411,346.0401,1187.97,343.97" style="stroke:#A6ADC8;stroke-width:1;"/></g><!--link den__provides__mutual_provider to den__provides__mutual_provider--><g class="link" data-entity-1="ent0016" data-entity-2="ent0016" data-link-type="dependency" data-source-line="54" id="lnk30"><path d="M838.32,267 C805.31,251.2 819.2,232.46 880,232.46 C940.79,232.46 960.092,248.6096 927.082,264.4096" fill="none" id="den__provides__mutual_provider-to-den__provides__mutual_provider" style="stroke:#A6ADC8;stroke-width:1;"/><polygon fill="#A6ADC8" points="921.67,267,931.5149,266.7224,926.18,264.8413,928.0611,259.5064,921.67,267" style="stroke:#A6ADC8;stroke-width:1;"/></g><!--link deploy to deploy--><g class="link" data-entity-1="ent0002" data-entity-2="ent0002" data-link-type="dependency" data-source-line="55" id="lnk31"><path d="M20.41,89.24 C6,72.34 16.53,54.46 52,54.46 C87.47,54.46 101.8929,67.7744 87.4829,84.6744" fill="none" id="deploy-to-deploy" style="stroke:#A6ADC8;stroke-width:1;"/><polygon fill="#A6ADC8" points="83.59,89.24,92.4732,84.9868,86.8341,85.4353,86.3857,79.7962,83.59,89.24" style="stroke:#A6ADC8;stroke-width:1;"/></g><!--link deploy to user__self_provide_user_--><g class="link" data-entity-1="ent0002" data-entity-2="ent0007" data-link-type="dependency" data-source-line="56" id="lnk32"><path d="M87.35,100.79 C109.44,95.71 133.3431,90.2066 161.5231,83.7166" fill="none" id="deploy-to-user__self_provide_user_" style="stroke:#A6ADC8;stroke-width:1;"/><polygon fill="#A6ADC8" points="167.37,82.37,157.7019,80.4919,162.4975,83.4921,159.4973,88.2878,167.37,82.37" style="stroke:#A6ADC8;stroke-width:1;"/></g><!--link user to n_default--><g class="link" data-entity-1="ent0004" data-entity-2="ent0009" data-link-type="dependency" data-source-line="57" id="lnk33"><path d="M280.88,164.92 C335.29,188.35 455.6586,240.1585 519.5686,267.6585" fill="none" id="user-to-n_default" style="stroke:#A6ADC8;stroke-width:1;"/><polygon fill="#A6ADC8" points="525.08,270.03,518.3939,262.7984,520.4871,268.0537,515.2318,270.147,525.08,270.03" style="stroke:#A6ADC8;stroke-width:1;"/></g><!--link user to default__cross_provide_user_--><g class="link" data-entity-1="ent0004" data-entity-2="ent0012" data-link-type="dependency" data-source-line="58" id="lnk34"><path d="M261.37,173.43 C278.02,220.19 326.47,338.17 409,396.7 C418.79,403.64 424.1475,407.0459 435.5475,411.5959" fill="none" id="user-to-default__cross_provide_user_" style="stroke:#A6ADC8;stroke-width:1;"/><polygon fill="#A6ADC8" points="441.12,413.82,434.2439,406.7688,436.4762,411.9665,431.2784,414.1988,441.12,413.82" style="stroke:#A6ADC8;stroke-width:1;"/></g><!--link user to default__self_provide_default_--><g class="link" data-entity-1="ent0004" data-entity-2="ent0013" data-link-type="dependency" data-source-line="59" id="lnk35"><path d="M266.7,173.27 C289.56,209.09 343.21,285.04 409,323.7 C420.18,330.27 426.8031,333.6687 439.4231,338.0587" fill="none" id="user-to-default__self_provide_default_" style="stroke:#A6ADC8;stroke-width:1;"/><polygon fill="#A6ADC8" points="445.09,340.03,437.9038,333.2951,440.3676,338.3872,435.2754,340.851,445.09,340.03" style="stroke:#A6ADC8;stroke-width:1;"/></g><!--link user to deploy--><g class="link" data-entity-1="ent0004" data-entity-2="ent0002" data-link-type="dependency" data-source-line="60" id="lnk36"><path d="M226.54,147.79 C190.82,139.74 132.6935,126.6477 93.2035,117.7577" fill="none" id="user-to-deploy" style="stroke:#A6ADC8;stroke-width:1;"/><polygon fill="#A6ADC8" points="87.35,116.44,95.2518,122.3189,92.2279,117.5381,97.0088,114.5143,87.35,116.44" style="stroke:#A6ADC8;stroke-width:1;"/></g><!--link user to user--><g class="link" data-entity-1="ent0004" data-entity-2="ent0004" data-link-type="dependency" data-source-line="61" id="lnk37"><path d="M226.64,138.71 C206.12,120.66 215.17,99.46 253.8,99.46 C292.42,99.46 305.9851,116.6972 285.4651,134.7472" fill="none" id="user-to-user" style="stroke:#A6ADC8;stroke-width:1;"/><polygon fill="#A6ADC8" points="280.96,138.71,290.3595,135.7691,284.7143,135.4076,285.0758,129.7623,280.96,138.71" style="stroke:#A6ADC8;stroke-width:1;"/></g><!--link user to user__aspect_user_--><g class="link" data-entity-1="ent0004" data-entity-2="ent0005" data-link-type="dependency" data-source-line="62" id="lnk38"><path d="M280.88,153.7 C325.04,153.7 410.26,153.7 477.23,153.7" fill="none" id="user-to-user__aspect_user_" style="stroke:#A6ADC8;stroke-width:1;"/><polygon fill="#A6ADC8" points="483.23,153.7,474.23,149.7,478.23,153.7,474.23,157.7,483.23,153.7" style="stroke:#A6ADC8;stroke-width:1;"/></g><!--link user to user__cross_provide__anon__--><g class="link" data-entity-1="ent0004" data-entity-2="ent0006" data-link-type="dependency" data-source-line="63" id="lnk39"><path d="M280.98,147.36 C311.64,139.95 363.99,127.33 409,116.7 C431.55,111.37 450.1358,107.0184 472.7658,101.7584" fill="none" id="user-to-user__cross_provide__anon__" style="stroke:#A6ADC8;stroke-width:1;"/><polygon fill="#A6ADC8" points="478.61,100.4,468.9381,98.5414,473.7398,101.532,470.7493,106.3337,478.61,100.4" style="stroke:#A6ADC8;stroke-width:1;"/></g><?plantuml-src hPNRQjmm48Rl_HJ22o61BDizi74Qw4K2fHGQIb_0p5goO-ALZ2JtGCcxLpv8bcrPkrjoirZIftzc_fcr2v9A91dYUVOY4SuvIMJEQ21USre2XoCwGFAQSLPH_CGAnj5YJTPaGom2anIgGdvcL7P8Wl4-tRcHPpWI57ubyf53JWNwnYYxFQeVKK92GkiISCv-TOgm1vn4uqDVo1-g4g1PGHx71MpNsytEZJAE2PyBQJ0hxCICB-GtP8oU3gf1RyWEyWLy0evFHsieRwYQyCNvhc90TeQR6hIZxPEx3z5-2laQ-Cpa6T4QoXkg9gPn0gwxYK9CoeBz2H48r3wYHNH_sAKGb6sQAAm4uGqWf5h7zHBz3H2oL0pI72xIJO8JF4LM84grSrq_tnW-ZjljHZbMj-6mZUuSjnFEX5YMdFtCCRc-AkG3K4QlClbWYpLKt55AMo5nhRgD3X0vL0KfKYCwpgm-D5ewlxQwjzwXxYzkcTJjZ7soGMeWPyNTeRQiMzvqdMeMnZYzhaURR66jb18rqYZiCXUh6RMFcD2LXZffvPRUYUEvIF60i-8wAXYshNVOQ0qxfbs-9nj8tOg3bhcT6JIkzySuFVKdfsHfvdXgWpfkHt_MunSc95LlU9U0FflFu5Z92WfTbJEB5j4Rt7Zq5WJzC2sNd_hH6ktFTNE2pHNl1tMHVcfKHU2nsflpoNl_CSYNYnfdvXf-IGsZI-zGW4_HjEl4c5rIWVlkEnHoXl1qi9hlMKlMZ_REtEizCBtk_qJJMNIyiHoKynraSqrIPjsCqM0r_3AEpvmVkdy0?></g></svg>