<?xml version="1.0" encoding="UTF-8" standalone="no"?>
<!DOCTYPE svg PUBLIC "-//W3C//DTD SVG 1.1//EN"
 "http://www.w3.org/Graphics/SVG/1.1/DTD/svg11.dtd">
<!-- Generated by graphviz version 12.2.1 (0)
 -->
<!-- Pages: 1 -->
<svg width="1738pt" height="1525pt"
 viewBox="0.00 0.00 1738.33 1525.28" xmlns="http://www.w3.org/2000/svg" xmlns:xlink="http://www.w3.org/1999/xlink">
<g id="graph0" class="graph" transform="scale(1 1) rotate(0) translate(4 1521.28)">
<polygon fill="#1e1e2e" stroke="none" points="-4,4 -4,-1521.28 1734.33,-1521.28 1734.33,4 -4,4"/>
<g id="clust1" class="cluster">
<title>cluster_ctx_host</title>
<polygon fill="#313244" stroke="#6c7086" stroke-dasharray="5,2" points="8,-988 8,-1493 1722.33,-1493 1722.33,-988 8,-988"/>
<text text-anchor="middle" x="865.16" y="-1475.7" font-family="Times,serif" font-size="14.00" fill="#cdd6f4">host</text>
</g>
<g id="clust2" class="cluster">
<title>cluster_ctx_default</title>
<polygon fill="#313244" stroke="#6c7086" stroke-dasharray="5,2" points="112.25,-721 112.25,-980 1510.58,-980 1510.58,-721 112.25,-721"/>
<text text-anchor="middle" x="811.41" y="-962.7" font-family="Times,serif" font-size="14.00" fill="#cdd6f4">default</text>
</g>
<g id="clust3" class="cluster">
<title>cluster_ctx_hm_host</title>
<polygon fill="#313244" stroke="#6c7086" stroke-dasharray="5,2" points="104.75,-448 104.75,-651 692.37,-651 692.37,-448 104.75,-448"/>
<text text-anchor="middle" x="398.56" y="-633.7" font-family="Times,serif" font-size="14.00" fill="#cdd6f4">hm&#45;host</text>
</g>
<g id="clust4" class="cluster">
<title>cluster_ctx_hm_user</title>
<polygon fill="#313244" stroke="#6c7086" stroke-dasharray="5,2" points="98,-237 98,-440 693.12,-440 693.12,-237 98,-237"/>
<text text-anchor="middle" x="395.56" y="-422.7" font-family="Times,serif" font-size="14.00" fill="#cdd6f4">hm&#45;user</text>
</g>
<g id="clust5" class="cluster">
<title>cluster_ctx_user</title>
<polygon fill="#313244" stroke="#6c7086" stroke-dasharray="5,2" points="125,-8 125,-229 684.5,-229 684.5,-8 125,-8"/>
<text text-anchor="middle" x="404.75" y="-211.7" font-family="Times,serif" font-size="14.00" fill="#cdd6f4">user</text>
</g>
<!-- mail_relay -->
<g id="node1" class="node">
<title>mail_relay</title>
<path fill="#89b4fa" stroke="#89b4fa" d="M259.25,-695C259.25,-695 196,-695 196,-695 190,-695 184,-689 184,-683 184,-683 184,-671 184,-671 184,-665 190,-659 196,-659 196,-659 259.25,-659 259.25,-659 265.25,-659 271.25,-665 271.25,-671 271.25,-671 271.25,-683 271.25,-683 271.25,-689 265.25,-695 259.25,-695"/>
<text text-anchor="middle" x="227.62" y="-672.33" font-family="Times,serif" font-size="14.00" fill="#1e1e2e">mail&#45;relay</text>
</g>
<!-- mail_relay&#45;&gt;mail_relay -->
<g id="edge43" class="edge">
<title>mail_relay&#45;&gt;mail_relay</title>
<path fill="none" stroke="#a6adc8" d="M194.22,-695.15C189.09,-704.54 200.22,-713 227.62,-713 243.04,-713 253.31,-710.32 258.43,-706.31"/>
<polygon fill="#a6adc8" stroke="#a6adc8" points="261.82,-707.16 260.68,-696.63 255,-705.57 261.82,-707.16"/>
</g>
<!-- host__self_provide_host_ -->
<g id="node8" class="node">
<title>host__self_provide_host_</title>
<polygon fill="#f2cdcd" stroke="#f2cdcd" points="1714.33,-1202 1538.58,-1202 1538.58,-1166 1714.33,-1166 1714.33,-1202"/>
<text text-anchor="middle" x="1626.45" y="-1179.33" font-family="Times,serif" font-size="14.00" fill="#1e1e2e">host/self&#45;provide(host)</text>
</g>
<!-- mail_relay&#45;&gt;host__self_provide_host_ -->
<g id="edge42" class="edge">
<title>mail_relay&#45;&gt;host__self_provide_host_</title>
<path fill="none" stroke="#a6adc8" d="M271.51,-675.32C483.44,-667.44 1412.51,-637.64 1510.58,-717 1579.83,-773.05 1613.45,-1060.21 1622.72,-1154.19"/>
<polygon fill="#a6adc8" stroke="#a6adc8" points="1619.24,-1154.51 1623.68,-1164.13 1626.2,-1153.84 1619.24,-1154.51"/>
</g>
<!-- relay -->
<g id="node14" class="node">
<title>relay</title>
<polygon fill="#89b4fa" stroke="#89b4fa" points="70,-1220 16,-1220 16,-1184 70,-1184 70,-1220"/>
<text text-anchor="middle" x="43" y="-1197.33" font-family="Times,serif" font-size="14.00" fill="#1e1e2e">relay</text>
</g>
<!-- mail_relay&#45;&gt;relay -->
<g id="edge44" class="edge">
<title>mail_relay&#45;&gt;relay</title>
<path fill="none" stroke="#a6adc8" d="M183.63,-678.49C154.76,-681.95 118.4,-691.54 98,-717 74.16,-746.75 74.97,-1021.2 70,-1059 64.79,-1098.58 56.09,-1143.85 50.21,-1172.67"/>
<polygon fill="#a6adc8" stroke="#a6adc8" points="46.85,-1171.6 48.25,-1182.1 53.71,-1173.01 46.85,-1171.6"/>
</g>
<!-- monitoring__alerting -->
<g id="node2" class="node">
<title>monitoring__alerting</title>
<polygon fill="#cba6f7" stroke="#cba6f7" points="677.97,-1144 497.78,-1144 433.61,-1108 742.14,-1108 677.97,-1144"/>
<text text-anchor="middle" x="587.87" y="-1121.33" font-family="Times,serif" font-size="14.00" fill="#1e1e2e">monitoring/alerting</text>
</g>
<!-- monitoring__alerting&#45;&gt;monitoring__alerting -->
<g id="edge45" class="edge">
<title>monitoring__alerting&#45;&gt;monitoring__alerting</title>
<path fill="none" stroke="#a6adc8" d="M522.7,-1144.15C512.68,-1153.54 534.4,-1162 587.87,-1162 619.21,-1162 639.64,-1159.1 649.17,-1154.8"/>
<polygon fill="#a6adc8" stroke="#a6adc8" points="652.4,-1156.17 652.53,-1145.57 645.82,-1153.77 652.4,-1156.17"/>
</g>
<!-- monitoring__alerting&#45;&gt;host__self_provide_host_ -->
<g id="edge46" class="edge">
<title>monitoring__alerting&#45;&gt;host__self_provide_host_</title>
<path fill="none" stroke="#a6adc8" d="M716.56,-1107.53C752.08,-1103.18 790.72,-1099.18 826.5,-1097 902.37,-1092.39 1438.52,-1072.8 1510.58,-1097 1546.17,-1108.96 1579.51,-1136.79 1601.01,-1157.78"/>
<polygon fill="#a6adc8" stroke="#a6adc8" points="1598.31,-1160.04 1607.85,-1164.65 1603.27,-1155.1 1598.31,-1160.04"/>
</g>
<!-- monitoring -->
<g id="node10" class="node">
<title>monitoring</title>
<polygon fill="#89b4fa" stroke="#f38ba8" stroke-dasharray="5,2" points="1211.91,-1072 1117.16,-1072 1117.16,-1036 1211.91,-1036 1211.91,-1072"/>
<text text-anchor="middle" x="1164.54" y="-1049.33" font-family="Times,serif" font-size="14.00" fill="#1e1e2e">monitoring</text>
</g>
<!-- monitoring__alerting&#45;&gt;monitoring -->
<g id="edge78" class="edge">
<title>monitoring__alerting&#45;&gt;monitoring</title>
<path fill="none" stroke="#a6adc8" d="M713.04,-1107.52C738.7,-1103.36 765.52,-1098.75 790.5,-1094 806.6,-1090.94 810.31,-1088.56 826.5,-1086 923.78,-1070.63 1038.1,-1061.67 1105.48,-1057.32"/>
<polygon fill="#a6adc8" stroke="#a6adc8" points="1105.42,-1060.83 1115.18,-1056.7 1104.98,-1053.84 1105.42,-1060.83"/>
</g>
<!-- backup -->
<g id="node3" class="node">
<title>backup</title>
<polygon fill="#89b4fa" stroke="#89b4fa" points="1198.04,-1330 1131.04,-1330 1131.04,-1294 1198.04,-1294 1198.04,-1330"/>
<text text-anchor="middle" x="1164.54" y="-1307.33" font-family="Times,serif" font-size="14.00" fill="#1e1e2e">backup</text>
</g>
<!-- backup&#45;&gt;backup -->
<g id="edge1" class="edge">
<title>backup&#45;&gt;backup</title>
<path fill="none" stroke="#a6adc8" d="M1130.79,-1316.32C1050.44,-1328.96 1061.69,-1348 1164.54,-1348 1262.36,-1348 1277.32,-1330.78 1209.4,-1318.22"/>
<polygon fill="#a6adc8" stroke="#a6adc8" points="1210.22,-1314.81 1199.78,-1316.58 1209.05,-1321.71 1210.22,-1314.81"/>
</g>
<!-- backup&#45;&gt;host__self_provide_host_ -->
<g id="edge2" class="edge">
<title>backup&#45;&gt;host__self_provide_host_</title>
<path fill="none" stroke="#a6adc8" d="M1198.47,-1315.24C1261.7,-1320.14 1403.38,-1324.6 1510.58,-1280 1547.39,-1264.68 1581.33,-1233.25 1602.63,-1210.52"/>
<polygon fill="#a6adc8" stroke="#a6adc8" points="1604.97,-1213.14 1609.13,-1203.4 1599.8,-1208.42 1604.97,-1213.14"/>
</g>
<!-- virtualization__docker -->
<g id="node4" class="node">
<title>virtualization__docker</title>
<polygon fill="#cba6f7" stroke="#cba6f7" points="682.75,-1328 493,-1328 425.43,-1292 750.32,-1292 682.75,-1328"/>
<text text-anchor="middle" x="587.87" y="-1305.33" font-family="Times,serif" font-size="14.00" fill="#1e1e2e">virtualization/docker</text>
</g>
<!-- virtualization__docker&#45;&gt;virtualization__docker -->
<g id="edge74" class="edge">
<title>virtualization__docker&#45;&gt;virtualization__docker</title>
<path fill="none" stroke="#a6adc8" d="M522.7,-1328.15C512.68,-1337.54 534.4,-1346 587.87,-1346 619.21,-1346 639.64,-1343.1 649.17,-1338.8"/>
<polygon fill="#a6adc8" stroke="#a6adc8" points="652.4,-1340.17 652.53,-1329.57 645.82,-1337.77 652.4,-1340.17"/>
</g>
<!-- virtualization__docker&#45;&gt;host__self_provide_host_ -->
<g id="edge75" class="edge">
<title>virtualization__docker&#45;&gt;host__self_provide_host_</title>
<path fill="none" stroke="#a6adc8" d="M748.83,-1291.5C774.76,-1288.98 801.36,-1286.69 826.5,-1285 902.37,-1279.91 1438.44,-1289.04 1510.58,-1265 1544.35,-1253.74 1576.94,-1229.01 1598.73,-1209.81"/>
<polygon fill="#a6adc8" stroke="#a6adc8" points="1600.9,-1212.57 1605.97,-1203.26 1596.2,-1207.38 1600.9,-1212.57"/>
</g>
<!-- virtualization -->
<g id="node17" class="node">
<title>virtualization</title>
<polygon fill="#89b4fa" stroke="#89b4fa" points="1220.16,-1238 1108.91,-1238 1108.91,-1202 1220.16,-1202 1220.16,-1238"/>
<text text-anchor="middle" x="1164.54" y="-1215.33" font-family="Times,serif" font-size="14.00" fill="#1e1e2e">virtualization</text>
</g>
<!-- virtualization__docker&#45;&gt;virtualization -->
<g id="edge79" class="edge">
<title>virtualization__docker&#45;&gt;virtualization</title>
<path fill="none" stroke="#a6adc8" d="M713.04,-1291.52C738.7,-1287.36 765.52,-1282.75 790.5,-1278 806.6,-1274.94 810.38,-1272.98 826.5,-1270 919.97,-1252.7 1028.91,-1237.42 1097.06,-1228.44"/>
<polygon fill="#a6adc8" stroke="#a6adc8" points="1097.5,-1231.91 1106.96,-1227.14 1096.59,-1224.97 1097.5,-1231.91"/>
</g>
<!-- host -->
<g id="node5" class="node">
<title>host</title>
<polygon fill="#89b4fa" stroke="#89b4fa" points="70,-1032 16,-1032 16,-996 70,-996 70,-1032"/>
<text text-anchor="middle" x="43" y="-1009.33" font-family="Times,serif" font-size="14.00" fill="#1e1e2e">host</text>
</g>
<!-- host&#45;&gt;mail_relay -->
<g id="edge37" class="edge">
<title>host&#45;&gt;mail_relay</title>
<path fill="none" stroke="#a6adc8" d="M44.9,-995.62C48.13,-937.48 60.92,-758.89 98,-717 116.7,-695.87 146.34,-685.78 172.46,-681"/>
<polygon fill="#a6adc8" stroke="#a6adc8" points="172.95,-684.47 182.28,-679.45 171.86,-677.56 172.95,-684.47"/>
</g>
<!-- host&#45;&gt;host -->
<g id="edge34" class="edge">
<title>host&#45;&gt;host</title>
<path fill="none" stroke="#a6adc8" d="M15.99,-1025.43C0.1,-1037.06 9.1,-1050 43,-1050 68.42,-1050 79.84,-1042.72 77.26,-1034.17"/>
<polygon fill="#a6adc8" stroke="#a6adc8" points="80.05,-1032.06 70.98,-1026.59 74.66,-1036.53 80.05,-1032.06"/>
</g>
<!-- host__aspect_host_ -->
<g id="node6" class="node">
<title>host__aspect_host_</title>
<polygon fill="#89b4fa" stroke="#89b4fa" points="297.12,-1086 158.12,-1086 158.12,-1050 297.12,-1050 297.12,-1086"/>
<text text-anchor="middle" x="227.62" y="-1063.33" font-family="Times,serif" font-size="14.00" fill="#1e1e2e">host/aspect(host)</text>
</g>
<!-- host&#45;&gt;host__aspect_host_ -->
<g id="edge35" class="edge">
<title>host&#45;&gt;host__aspect_host_</title>
<path fill="none" stroke="#a6adc8" d="M70.33,-1028.86C78.94,-1033.26 88.7,-1037.76 98,-1041 113.41,-1046.37 130.24,-1050.84 146.5,-1054.51"/>
<polygon fill="#a6adc8" stroke="#a6adc8" points="145.65,-1057.9 156.17,-1056.59 147.13,-1051.06 145.65,-1057.9"/>
</g>
<!-- host__cross_provide__anon__ -->
<g id="node7" class="node">
<title>host__cross_provide__anon__</title>
<polygon fill="#cba6f7" stroke="#cba6f7" points="335.75,-1032 119.5,-1032 119.5,-996 335.75,-996 335.75,-1032"/>
<text text-anchor="middle" x="227.62" y="-1009.33" font-family="Times,serif" font-size="14.00" fill="#1e1e2e">host/cross&#45;provide(&lt;anon&gt;)</text>
</g>
<!-- host&#45;&gt;host__cross_provide__anon__ -->
<g id="edge36" class="edge">
<title>host&#45;&gt;host__cross_provide__anon__</title>
<path fill="none" stroke="#a6adc8" d="M70.17,-1014C80.75,-1014 93.77,-1014 107.74,-1014"/>
<polygon fill="#a6adc8" stroke="#a6adc8" points="107.61,-1017.5 117.61,-1014 107.61,-1010.5 107.61,-1017.5"/>
</g>
<!-- n_default -->
<g id="node18" class="node">
<title>n_default</title>
<polygon fill="#fab387" stroke="#fab387" points="260.75,-875 194.5,-875 194.5,-839 260.75,-839 260.75,-875"/>
<text text-anchor="middle" x="227.62" y="-852.33" font-family="Times,serif" font-size="14.00" fill="#1e1e2e">default</text>
</g>
<!-- host&#45;&gt;n_default -->
<g id="edge23" class="edge">
<title>host&#45;&gt;n_default</title>
<path fill="none" stroke="#a6adc8" d="M48.11,-995.86C54.6,-971.25 69.5,-927.45 98,-902 121.62,-880.9 155.71,-869.56 182.86,-863.55"/>
<polygon fill="#a6adc8" stroke="#a6adc8" points="183.44,-867 192.54,-861.58 182.05,-860.14 183.44,-867"/>
</g>
<!-- default__cross_provide_host_ -->
<g id="node21" class="node">
<title>default__cross_provide_host_</title>
<polygon fill="#f9e2af" stroke="#f9e2af" points="331.62,-947 123.62,-947 123.62,-911 331.62,-911 331.62,-947"/>
<text text-anchor="middle" x="227.62" y="-924.33" font-family="Times,serif" font-size="14.00" fill="#1e1e2e">default/cross&#45;provide(host)</text>
</g>
<!-- host&#45;&gt;default__cross_provide_host_ -->
<g id="edge24" class="edge">
<title>host&#45;&gt;default__cross_provide_host_</title>
<path fill="none" stroke="#a6adc8" d="M70.35,-998.65C79.06,-993.77 88.85,-988.48 98,-984 121.16,-972.65 147.23,-961.26 169.82,-951.8"/>
<polygon fill="#a6adc8" stroke="#a6adc8" points="170.98,-955.12 178.87,-948.05 168.29,-948.65 170.98,-955.12"/>
</g>
<!-- default__cross_provide_user_ -->
<g id="node22" class="node">
<title>default__cross_provide_user_</title>
<polygon fill="#f9e2af" stroke="#f9e2af" points="332,-767 123.25,-767 123.25,-731 332,-731 332,-767"/>
<text text-anchor="middle" x="227.62" y="-744.33" font-family="Times,serif" font-size="14.00" fill="#1e1e2e">default/cross&#45;provide(user)</text>
</g>
<!-- host&#45;&gt;default__cross_provide_user_ -->
<g id="edge25" class="edge">
<title>host&#45;&gt;default__cross_provide_user_</title>
<path fill="none" stroke="#a6adc8" d="M45.64,-995.66C50.5,-945.37 66.51,-806.98 98,-776 102.47,-771.6 107.47,-767.83 112.82,-764.61"/>
<polygon fill="#a6adc8" stroke="#a6adc8" points="114.23,-767.83 121.47,-760.1 110.99,-761.62 114.23,-767.83"/>
</g>
<!-- default__self_provide_default_ -->
<g id="node23" class="node">
<title>default__self_provide_default_</title>
<polygon fill="#fab387" stroke="#fab387" points="335,-821 120.25,-821 120.25,-785 335,-785 335,-821"/>
<text text-anchor="middle" x="227.62" y="-798.33" font-family="Times,serif" font-size="14.00" fill="#1e1e2e">default/self&#45;provide(default)</text>
</g>
<!-- host&#45;&gt;default__self_provide_default_ -->
<g id="edge26" class="edge">
<title>host&#45;&gt;default__self_provide_default_</title>
<path fill="none" stroke="#a6adc8" d="M43.61,-995.71C43.89,-958.62 50.08,-874.29 98,-830 101.73,-826.55 105.78,-823.5 110.08,-820.8"/>
<polygon fill="#a6adc8" stroke="#a6adc8" points="111.42,-824.06 118.5,-816.17 108.05,-817.92 111.42,-824.06"/>
</g>
<!-- hm_host -->
<g id="node27" class="node">
<title>hm_host</title>
<polygon fill="#cba6f7" stroke="#cba6f7" points="264.5,-546 190.75,-546 190.75,-510 264.5,-510 264.5,-546"/>
<text text-anchor="middle" x="227.62" y="-523.33" font-family="Times,serif" font-size="14.00" fill="#1e1e2e">hm&#45;host</text>
</g>
<!-- host&#45;&gt;hm_host -->
<g id="edge28" class="edge">
<title>host&#45;&gt;hm_host</title>
<path fill="none" stroke="#a6adc8" d="M43.76,-995.5C43.13,-920.44 44.47,-639.45 98,-573 117.63,-548.63 151.31,-537.43 179.29,-532.3"/>
<polygon fill="#a6adc8" stroke="#a6adc8" points="179.66,-535.78 188.98,-530.74 178.55,-528.87 179.66,-535.78"/>
</g>
<!-- hm_host__cross_provide_host_ -->
<g id="node29" class="node">
<title>hm_host__cross_provide_host_</title>
<polygon fill="#f2cdcd" stroke="#f2cdcd" points="335.38,-618 119.88,-618 119.88,-582 335.38,-582 335.38,-618"/>
<text text-anchor="middle" x="227.62" y="-595.33" font-family="Times,serif" font-size="14.00" fill="#1e1e2e">hm&#45;host/cross&#45;provide(host)</text>
</g>
<!-- host&#45;&gt;hm_host__cross_provide_host_ -->
<g id="edge29" class="edge">
<title>host&#45;&gt;hm_host__cross_provide_host_</title>
<path fill="none" stroke="#a6adc8" d="M44.34,-995.92C45.94,-930.11 54.56,-704.42 98,-650 106.99,-638.73 118.86,-630 131.76,-623.24"/>
<polygon fill="#a6adc8" stroke="#a6adc8" points="132.92,-626.56 140.43,-619.09 129.9,-620.25 132.92,-626.56"/>
</g>
<!-- hm_host__self_provide_hm_host_ -->
<g id="node30" class="node">
<title>hm_host__self_provide_hm_host_</title>
<polygon fill="#cba6f7" stroke="#cba6f7" points="342.5,-492 112.75,-492 112.75,-456 342.5,-456 342.5,-492"/>
<text text-anchor="middle" x="227.62" y="-469.32" font-family="Times,serif" font-size="14.00" fill="#1e1e2e">hm&#45;host/self&#45;provide(hm&#45;host)</text>
</g>
<!-- host&#45;&gt;hm_host__self_provide_hm_host_ -->
<g id="edge30" class="edge">
<title>host&#45;&gt;hm_host__self_provide_hm_host_</title>
<path fill="none" stroke="#a6adc8" d="M44.67,-995.78C48,-908.79 64.13,-538.51 98,-501 99.74,-499.07 101.58,-497.26 103.5,-495.57"/>
<polygon fill="#a6adc8" stroke="#a6adc8" points="105.38,-498.54 111.26,-489.73 101.16,-492.95 105.38,-498.54"/>
</g>
<!-- hm_user -->
<g id="node31" class="node">
<title>hm_user</title>
<polygon fill="#fab387" stroke="#fab387" points="264.88,-335 190.38,-335 190.38,-299 264.88,-299 264.88,-335"/>
<text text-anchor="middle" x="227.62" y="-312.32" font-family="Times,serif" font-size="14.00" fill="#1e1e2e">hm&#45;user</text>
</g>
<!-- host&#45;&gt;hm_user -->
<g id="edge31" class="edge">
<title>host&#45;&gt;hm_user</title>
<path fill="none" stroke="#a6adc8" d="M44.34,-995.82C46.37,-895.62 58.17,-413.49 98,-362 117.08,-337.33 150.63,-326.14 178.67,-321.08"/>
<polygon fill="#a6adc8" stroke="#a6adc8" points="179.07,-324.56 188.4,-319.55 177.98,-317.64 179.07,-324.56"/>
</g>
<!-- hm_user__cross_provide_hm_host_ -->
<g id="node33" class="node">
<title>hm_user__cross_provide_hm_host_</title>
<polygon fill="#a6e3a1" stroke="#a6e3a1" points="349.25,-407 106,-407 106,-371 349.25,-371 349.25,-407"/>
<text text-anchor="middle" x="227.62" y="-384.32" font-family="Times,serif" font-size="14.00" fill="#1e1e2e">hm&#45;user/cross&#45;provide(hm&#45;host)</text>
</g>
<!-- host&#45;&gt;hm_user__cross_provide_hm_host_ -->
<g id="edge32" class="edge">
<title>host&#45;&gt;hm_user__cross_provide_hm_host_</title>
<path fill="none" stroke="#a6adc8" d="M44.63,-995.77C47.97,-903.41 64.7,-489.61 98,-444 108.04,-430.24 122.24,-419.89 137.56,-412.12"/>
<polygon fill="#a6adc8" stroke="#a6adc8" points="138.79,-415.41 146.38,-408.01 135.84,-409.06 138.79,-415.41"/>
</g>
<!-- hm_user__self_provide_hm_user_ -->
<g id="node34" class="node">
<title>hm_user__self_provide_hm_user_</title>
<polygon fill="#fab387" stroke="#fab387" points="343.25,-281 112,-281 112,-245 343.25,-245 343.25,-281"/>
<text text-anchor="middle" x="227.62" y="-258.32" font-family="Times,serif" font-size="14.00" fill="#1e1e2e">hm&#45;user/self&#45;provide(hm&#45;user)</text>
</g>
<!-- host&#45;&gt;hm_user__self_provide_hm_user_ -->
<g id="edge33" class="edge">
<title>host&#45;&gt;hm_user__self_provide_hm_user_</title>
<path fill="none" stroke="#a6adc8" d="M44.08,-995.51C44.69,-887.84 50.15,-344.65 98,-290 99.52,-288.26 101.12,-286.62 102.8,-285.07"/>
<polygon fill="#a6adc8" stroke="#a6adc8" points="104.85,-287.91 110.54,-278.97 100.52,-282.41 104.85,-287.91"/>
</g>
<!-- deploy -->
<g id="node35" class="node">
<title>deploy</title>
<polygon fill="#f2cdcd" stroke="#f2cdcd" points="259.25,-106 196,-106 196,-70 259.25,-70 259.25,-106"/>
<text text-anchor="middle" x="227.62" y="-83.33" font-family="Times,serif" font-size="14.00" fill="#1e1e2e">deploy</text>
</g>
<!-- host&#45;&gt;deploy -->
<g id="edge27" class="edge">
<title>host&#45;&gt;deploy</title>
<path fill="none" stroke="#a6adc8" d="M43.93,-995.67C43.59,-875.6 44.14,-204.18 98,-133 118.16,-106.35 155.23,-95.41 184.42,-90.96"/>
<polygon fill="#a6adc8" stroke="#a6adc8" points="184.6,-94.46 194.06,-89.7 183.69,-87.52 184.6,-94.46"/>
</g>
<!-- user -->
<g id="node36" class="node">
<title>user</title>
<polygon fill="#f2cdcd" stroke="#f2cdcd" points="254.62,-178 200.62,-178 200.62,-142 254.62,-142 254.62,-178"/>
<text text-anchor="middle" x="227.62" y="-155.32" font-family="Times,serif" font-size="14.00" fill="#1e1e2e">user</text>
</g>
<!-- host&#45;&gt;user -->
<g id="edge38" class="edge">
<title>host&#45;&gt;user</title>
<path fill="none" stroke="#a6adc8" d="M44.24,-995.74C45.82,-884.41 56.1,-299.57 98,-233 118.59,-200.29 159.43,-180.81 189.59,-170.31"/>
<polygon fill="#a6adc8" stroke="#a6adc8" points="190.32,-173.76 198.73,-167.31 188.13,-167.1 190.32,-173.76"/>
</g>
<!-- user__cross_provide_host_ -->
<g id="node38" class="node">
<title>user__cross_provide_host_</title>
<polygon fill="#f38ba8" stroke="#f38ba8" points="322.25,-52 133,-52 133,-16 322.25,-16 322.25,-52"/>
<text text-anchor="middle" x="227.62" y="-29.32" font-family="Times,serif" font-size="14.00" fill="#1e1e2e">user/cross&#45;provide(host)</text>
</g>
<!-- host&#45;&gt;user__cross_provide_host_ -->
<g id="edge39" class="edge">
<title>host&#45;&gt;user__cross_provide_host_</title>
<path fill="none" stroke="#a6adc8" d="M44.41,-995.74C47.37,-866.83 66.33,-97.83 98,-61 104.65,-53.27 112.89,-47.42 121.98,-43.02"/>
<polygon fill="#a6adc8" stroke="#a6adc8" points="123.24,-46.28 131.15,-39.23 120.57,-39.81 123.24,-46.28"/>
</g>
<!-- mail -->
<g id="node9" class="node">
<title>mail</title>
<polygon fill="#f2cdcd" stroke="#f2cdcd" points="254.62,-1169 200.62,-1169 200.62,-1133 254.62,-1133 254.62,-1169"/>
<text text-anchor="middle" x="227.62" y="-1146.33" font-family="Times,serif" font-size="14.00" fill="#1e1e2e">mail</text>
</g>
<!-- mail&#45;&gt;host__self_provide_host_ -->
<g id="edge40" class="edge">
<title>mail&#45;&gt;host__self_provide_host_</title>
<path fill="none" stroke="#a6adc8" d="M255.02,-1144.84C281.98,-1137.29 323.42,-1122.05 349.25,-1095 378.43,-1064.44 350.25,-1030.67 385.25,-1007 406.35,-992.73 1474.5,-984.22 1510.58,-1004 1569.26,-1036.17 1602.31,-1112.48 1616.69,-1154.68"/>
<polygon fill="#a6adc8" stroke="#a6adc8" points="1613.36,-1155.75 1619.79,-1164.17 1620.01,-1153.58 1613.36,-1155.75"/>
</g>
<!-- mail&#45;&gt;mail -->
<g id="edge41" class="edge">
<title>mail&#45;&gt;mail</title>
<path fill="none" stroke="#a6adc8" d="M200.61,-1162.43C184.73,-1174.06 193.73,-1187 227.62,-1187 253.05,-1187 264.47,-1179.72 261.89,-1171.17"/>
<polygon fill="#a6adc8" stroke="#a6adc8" points="264.68,-1169.06 255.6,-1163.59 259.29,-1173.53 264.68,-1169.06"/>
</g>
<!-- networking -->
<g id="node11" class="node">
<title>networking</title>
<polygon fill="#89b4fa" stroke="#89b4fa" points="1213.04,-1422 1116.04,-1422 1116.04,-1386 1213.04,-1386 1213.04,-1422"/>
<text text-anchor="middle" x="1164.54" y="-1399.33" font-family="Times,serif" font-size="14.00" fill="#1e1e2e">networking</text>
</g>
<!-- networking&#45;&gt;host__self_provide_host_ -->
<g id="edge51" class="edge">
<title>networking&#45;&gt;host__self_provide_host_</title>
<path fill="none" stroke="#a6adc8" d="M1213.53,-1412.24C1284.32,-1421.77 1418.3,-1429.52 1510.58,-1372 1569.45,-1335.3 1602.56,-1256.24 1616.87,-1213.26"/>
<polygon fill="#a6adc8" stroke="#a6adc8" points="1620.16,-1214.44 1619.87,-1203.85 1613.49,-1212.31 1620.16,-1214.44"/>
</g>
<!-- networking&#45;&gt;networking -->
<g id="edge52" class="edge">
<title>networking&#45;&gt;networking</title>
<path fill="none" stroke="#a6adc8" d="M1115.67,-1410.98C1052.39,-1423.46 1068.68,-1440 1164.54,-1440 1254.22,-1440 1274.25,-1425.53 1224.65,-1413.44"/>
<polygon fill="#a6adc8" stroke="#a6adc8" points="1225.4,-1410.02 1214.88,-1411.3 1223.9,-1416.86 1225.4,-1410.02"/>
</g>
<!-- monitoring__nginx_exporter -->
<g id="node12" class="node">
<title>monitoring__nginx_exporter</title>
<polygon fill="#89b4fa" stroke="#89b4fa" points="706.21,-1216 469.54,-1216 385.25,-1180 790.5,-1180 706.21,-1216"/>
<text text-anchor="middle" x="587.87" y="-1193.33" font-family="Times,serif" font-size="14.00" fill="#1e1e2e">monitoring/nginx&#45;exporter</text>
</g>
<!-- monitoring__nginx_exporter&#45;&gt;host__self_provide_host_ -->
<g id="edge47" class="edge">
<title>monitoring__nginx_exporter&#45;&gt;host__self_provide_host_</title>
<path fill="none" stroke="#a6adc8" d="M774,-1179.63C779.68,-1177.05 785.2,-1174.18 790.5,-1171 813.99,-1156.92 802.13,-1133.48 826.5,-1121 894.15,-1086.35 1436.95,-1102.14 1510.58,-1121 1539.62,-1128.44 1569.21,-1144.92 1591.08,-1159.16"/>
<polygon fill="#a6adc8" stroke="#a6adc8" points="1589.05,-1162.01 1599.3,-1164.66 1592.94,-1156.19 1589.05,-1162.01"/>
</g>
<!-- monitoring__nginx_exporter&#45;&gt;monitoring -->
<g id="edge77" class="edge">
<title>monitoring__nginx_exporter&#45;&gt;monitoring</title>
<path fill="none" stroke="#a6adc8" d="M775.93,-1179.7C780.96,-1177.08 785.83,-1174.19 790.5,-1171 817.77,-1152.38 799.41,-1124.89 826.5,-1106 910.16,-1047.65 1033.86,-1044.28 1105.82,-1048.32"/>
<polygon fill="#a6adc8" stroke="#a6adc8" points="1105.2,-1051.79 1115.4,-1048.93 1105.64,-1044.81 1105.2,-1051.79"/>
</g>
<!-- monitoring__nginx_exporter&#45;&gt;monitoring__nginx_exporter -->
<g id="edge48" class="edge">
<title>monitoring__nginx_exporter&#45;&gt;monitoring__nginx_exporter</title>
<path fill="none" stroke="#a6adc8" d="M522.7,-1216.15C512.68,-1225.54 534.4,-1234 587.87,-1234 619.21,-1234 639.64,-1231.1 649.17,-1226.8"/>
<polygon fill="#a6adc8" stroke="#a6adc8" points="652.4,-1228.17 652.53,-1217.57 645.82,-1225.77 652.4,-1228.17"/>
</g>
<!-- monitoring__node_exporter -->
<g id="node13" class="node">
<title>monitoring__node_exporter</title>
<polygon fill="#f2cdcd" stroke="#f2cdcd" points="703.6,-1052 472.15,-1052 389.71,-1016 786.04,-1016 703.6,-1052"/>
<text text-anchor="middle" x="587.87" y="-1029.33" font-family="Times,serif" font-size="14.00" fill="#1e1e2e">monitoring/node&#45;exporter</text>
</g>
<!-- monitoring__node_exporter&#45;&gt;host__self_provide_host_ -->
<g id="edge49" class="edge">
<title>monitoring__node_exporter&#45;&gt;host__self_provide_host_</title>
<path fill="none" stroke="#a6adc8" d="M769.19,-1023.81C1018.86,-1011.03 1446.52,-994.5 1510.58,-1027 1563.48,-1053.85 1597.87,-1117.77 1614.24,-1155.25"/>
<polygon fill="#a6adc8" stroke="#a6adc8" points="1610.87,-1156.26 1617.98,-1164.12 1617.32,-1153.54 1610.87,-1156.26"/>
</g>
<!-- monitoring__node_exporter&#45;&gt;monitoring -->
<g id="edge76" class="edge">
<title>monitoring__node_exporter&#45;&gt;monitoring</title>
<path fill="none" stroke="#a6adc8" d="M734.26,-1039.06C854.58,-1043.25 1019.26,-1048.98 1105.49,-1051.98"/>
<polygon fill="#a6adc8" stroke="#a6adc8" points="1105.24,-1055.47 1115.36,-1052.32 1105.49,-1048.48 1105.24,-1055.47"/>
</g>
<!-- monitoring__node_exporter&#45;&gt;monitoring__node_exporter -->
<g id="edge50" class="edge">
<title>monitoring__node_exporter&#45;&gt;monitoring__node_exporter</title>
<path fill="none" stroke="#a6adc8" d="M522.7,-1052.15C512.68,-1061.54 534.4,-1070 587.87,-1070 619.21,-1070 639.64,-1067.1 649.17,-1062.8"/>
<polygon fill="#a6adc8" stroke="#a6adc8" points="652.4,-1064.17 652.53,-1053.57 645.82,-1061.77 652.4,-1064.17"/>
</g>
<!-- relay&#45;&gt;host__self_provide_host_ -->
<g id="edge53" class="edge">
<title>relay&#45;&gt;host__self_provide_host_</title>
<path fill="none" stroke="#a6adc8" d="M50.18,-1220.2C58.21,-1241.39 74.08,-1276.27 98,-1298 201.33,-1391.85 249.51,-1392.46 385.25,-1425 628.49,-1483.32 1301.47,-1586.26 1510.58,-1449 1591.98,-1395.57 1615.98,-1270.72 1622.83,-1213.54"/>
<polygon fill="#a6adc8" stroke="#a6adc8" points="1626.27,-1214.24 1623.88,-1203.92 1619.32,-1213.48 1626.27,-1214.24"/>
</g>
<!-- relay&#45;&gt;mail -->
<g id="edge54" class="edge">
<title>relay&#45;&gt;mail</title>
<path fill="none" stroke="#a6adc8" d="M70.17,-1194.69C101.4,-1185.97 153.87,-1171.32 189.34,-1161.41"/>
<polygon fill="#a6adc8" stroke="#a6adc8" points="190.06,-1164.84 198.75,-1158.78 188.18,-1158.1 190.06,-1164.84"/>
</g>
<!-- relay&#45;&gt;relay -->
<g id="edge55" class="edge">
<title>relay&#45;&gt;relay</title>
<path fill="none" stroke="#a6adc8" d="M15.99,-1213.43C0.1,-1225.06 9.1,-1238 43,-1238 68.42,-1238 79.84,-1230.72 77.26,-1222.17"/>
<polygon fill="#a6adc8" stroke="#a6adc8" points="80.05,-1220.06 70.98,-1214.59 74.66,-1224.53 80.05,-1220.06"/>
</g>
<!-- server -->
<g id="node15" class="node">
<title>server</title>
<polygon fill="#89b4fa" stroke="#89b4fa" points="258.5,-1271 196.75,-1271 196.75,-1235 258.5,-1235 258.5,-1271"/>
<text text-anchor="middle" x="227.62" y="-1248.33" font-family="Times,serif" font-size="14.00" fill="#1e1e2e">server</text>
</g>
<!-- relay&#45;&gt;server -->
<g id="edge56" class="edge">
<title>relay&#45;&gt;server</title>
<path fill="none" stroke="#a6adc8" d="M70.17,-1209.31C100.34,-1217.73 150.3,-1231.69 185.64,-1241.56"/>
<polygon fill="#a6adc8" stroke="#a6adc8" points="184.53,-1244.88 195.1,-1244.2 186.41,-1238.14 184.53,-1244.88"/>
</g>
<!-- server&#45;&gt;monitoring__alerting -->
<g id="edge57" class="edge">
<title>server&#45;&gt;monitoring__alerting</title>
<path fill="none" stroke="#a6adc8" d="M258.57,-1240.5C283.41,-1229.75 319.37,-1213.27 349.25,-1196 366.11,-1186.25 367.41,-1178.82 385.25,-1171 414.36,-1158.24 447.47,-1148.92 478.33,-1142.19"/>
<polygon fill="#a6adc8" stroke="#a6adc8" points="479.04,-1145.61 488.11,-1140.13 477.6,-1138.76 479.04,-1145.61"/>
</g>
<!-- server&#45;&gt;backup -->
<g id="edge58" class="edge">
<title>server&#45;&gt;backup</title>
<path fill="none" stroke="#a6adc8" d="M248.44,-1271.47C276.39,-1296.15 330.19,-1338.65 385.25,-1355 524.21,-1396.26 975.62,-1338.35 1119.23,-1318.36"/>
<polygon fill="#a6adc8" stroke="#a6adc8" points="1119.69,-1321.83 1129.1,-1316.97 1118.71,-1314.9 1119.69,-1321.83"/>
</g>
<!-- server&#45;&gt;virtualization__docker -->
<g id="edge59" class="edge">
<title>server&#45;&gt;virtualization__docker</title>
<path fill="none" stroke="#a6adc8" d="M258.94,-1257.85C290.49,-1262.89 341.33,-1271.01 385.25,-1278 409.15,-1281.8 434.65,-1285.86 459.19,-1289.75"/>
<polygon fill="#a6adc8" stroke="#a6adc8" points="458.47,-1293.18 468.9,-1291.29 459.57,-1286.27 458.47,-1293.18"/>
</g>
<!-- server&#45;&gt;host__self_provide_host_ -->
<g id="edge60" class="edge">
<title>server&#45;&gt;host__self_provide_host_</title>
<path fill="none" stroke="#a6adc8" d="M245.73,-1271.32C272.44,-1298.43 327.04,-1348.06 385.25,-1367 422.06,-1378.98 1478.8,-1374.33 1510.58,-1357 1567.16,-1326.14 1600.74,-1254.02 1615.85,-1213.31"/>
<polygon fill="#a6adc8" stroke="#a6adc8" points="1619.14,-1214.5 1619.19,-1203.91 1612.54,-1212.15 1619.14,-1214.5"/>
</g>
<!-- server&#45;&gt;monitoring -->
<g id="edge61" class="edge">
<title>server&#45;&gt;monitoring</title>
<path fill="none" stroke="#f38ba8" stroke-dasharray="5,2" d="M258.8,-1245.74C285.88,-1237.77 324.98,-1222.45 349.25,-1196 380.34,-1162.12 348.16,-1126.18 385.25,-1099 421.61,-1072.35 745.49,-1081.62 790.5,-1079 901.98,-1072.51 1032.11,-1063.45 1105.46,-1058.21"/>
<polygon fill="#f38ba8" stroke="#f38ba8" points="1105.5,-1061.72 1115.23,-1057.51 1105,-1054.73 1105.5,-1061.72"/>
</g>
<!-- server&#45;&gt;networking -->
<g id="edge62" class="edge">
<title>server&#45;&gt;networking</title>
<path fill="none" stroke="#a6adc8" d="M242.1,-1271.19C266.54,-1302.46 321.55,-1365.42 385.25,-1390 637.61,-1487.4 971.15,-1441.04 1104.64,-1416.19"/>
<polygon fill="#a6adc8" stroke="#a6adc8" points="1105.13,-1419.66 1114.3,-1414.36 1103.83,-1412.78 1105.13,-1419.66"/>
</g>
<!-- server&#45;&gt;monitoring__nginx_exporter -->
<g id="edge63" class="edge">
<title>server&#45;&gt;monitoring__nginx_exporter</title>
<path fill="none" stroke="#a6adc8" d="M258.86,-1248.36C302.58,-1241.65 386.1,-1228.82 457.92,-1217.8"/>
<polygon fill="#a6adc8" stroke="#a6adc8" points="458.03,-1221.32 467.38,-1216.35 456.97,-1214.4 458.03,-1221.32"/>
</g>
<!-- server&#45;&gt;monitoring__node_exporter -->
<g id="edge64" class="edge">
<title>server&#45;&gt;monitoring__node_exporter</title>
<path fill="none" stroke="#a6adc8" d="M258.82,-1246.06C286.09,-1238.29 325.5,-1223.07 349.25,-1196 383.73,-1156.7 347.04,-1119.7 385.25,-1084 402.37,-1068.01 423.78,-1056.91 446.21,-1049.25"/>
<polygon fill="#a6adc8" stroke="#a6adc8" points="447,-1052.67 455.49,-1046.33 444.9,-1046 447,-1052.67"/>
</g>
<!-- server&#45;&gt;server -->
<g id="edge65" class="edge">
<title>server&#45;&gt;server</title>
<path fill="none" stroke="#a6adc8" d="M196.39,-1268.17C186.92,-1278.66 197.33,-1289 227.62,-1289 246.56,-1289 257.72,-1284.96 261.12,-1279.37"/>
<polygon fill="#a6adc8" stroke="#a6adc8" points="264.57,-1278.76 259.16,-1269.65 257.71,-1280.15 264.57,-1278.76"/>
</g>
<!-- tailscale -->
<g id="node16" class="node">
<title>tailscale</title>
<polygon fill="#f2cdcd" stroke="#f2cdcd" points="1202.16,-1166 1126.91,-1166 1126.91,-1130 1202.16,-1130 1202.16,-1166"/>
<text text-anchor="middle" x="1164.54" y="-1143.33" font-family="Times,serif" font-size="14.00" fill="#1e1e2e">tailscale</text>
</g>
<!-- server&#45;&gt;tailscale -->
<g id="edge66" class="edge">
<title>server&#45;&gt;tailscale</title>
<path fill="none" stroke="#a6adc8" d="M258.96,-1253.21C372.46,-1253.9 766.84,-1255.39 790.5,-1243 814.76,-1230.3 803.01,-1207.07 826.5,-1193 917.22,-1138.65 1046.01,-1138.33 1115.17,-1143.04"/>
<polygon fill="#a6adc8" stroke="#a6adc8" points="1114.81,-1146.52 1125.04,-1143.78 1115.33,-1139.54 1114.81,-1146.52"/>
</g>
<!-- server&#45;&gt;virtualization -->
<g id="edge67" class="edge">
<title>server&#45;&gt;virtualization</title>
<path fill="none" stroke="#a6adc8" d="M258.94,-1254.25C290.48,-1255.49 341.32,-1257.3 385.25,-1258 565.34,-1260.87 610.62,-1267.14 790.5,-1258 898.41,-1252.52 1023.2,-1238.17 1097.63,-1228.76"/>
<polygon fill="#a6adc8" stroke="#a6adc8" points="1097.7,-1232.28 1107.18,-1227.54 1096.82,-1225.33 1097.7,-1232.28"/>
</g>
<!-- tailscale&#45;&gt;host__self_provide_host_ -->
<g id="edge68" class="edge">
<title>tailscale&#45;&gt;host__self_provide_host_</title>
<path fill="none" stroke="#a6adc8" d="M1202.4,-1150.89C1272.15,-1156.35 1425.55,-1168.35 1527.18,-1176.31"/>
<polygon fill="#a6adc8" stroke="#a6adc8" points="1526.64,-1179.78 1536.88,-1177.07 1527.18,-1172.8 1526.64,-1179.78"/>
</g>
<!-- tailscale&#45;&gt;tailscale -->
<g id="edge69" class="edge">
<title>tailscale&#45;&gt;tailscale</title>
<path fill="none" stroke="#a6adc8" d="M1126.65,-1152.99C1050.86,-1165.62 1063.49,-1184 1164.54,-1184 1260.25,-1184 1276.63,-1167.51 1213.68,-1155.04"/>
<polygon fill="#a6adc8" stroke="#a6adc8" points="1214.38,-1151.61 1203.92,-1153.26 1213.13,-1158.49 1214.38,-1151.61"/>
</g>
<!-- virtualization&#45;&gt;host__self_provide_host_ -->
<g id="edge72" class="edge">
<title>virtualization&#45;&gt;host__self_provide_host_</title>
<path fill="none" stroke="#a6adc8" d="M1220.52,-1215.7C1288.6,-1210.37 1408.14,-1201.02 1510.58,-1193 1515.9,-1192.58 1521.37,-1192.15 1526.89,-1191.72"/>
<polygon fill="#a6adc8" stroke="#a6adc8" points="1527.06,-1195.22 1536.76,-1190.95 1526.52,-1188.24 1527.06,-1195.22"/>
</g>
<!-- virtualization&#45;&gt;virtualization -->
<g id="edge73" class="edge">
<title>virtualization&#45;&gt;virtualization</title>
<path fill="none" stroke="#a6adc8" d="M1108.46,-1228.5C1053.82,-1240.76 1072.52,-1256 1164.54,-1256 1249.73,-1256 1272.07,-1242.94 1231.57,-1231.27"/>
<polygon fill="#a6adc8" stroke="#a6adc8" points="1232.63,-1227.93 1222.08,-1228.87 1230.92,-1234.71 1232.63,-1227.93"/>
</g>
<!-- n_default&#45;&gt;n_default -->
<g id="edge3" class="edge">
<title>n_default&#45;&gt;n_default</title>
<path fill="none" stroke="#a6adc8" d="M194.22,-875.15C189.09,-884.54 200.22,-893 227.62,-893 243.04,-893 253.31,-890.32 258.43,-886.31"/>
<polygon fill="#a6adc8" stroke="#a6adc8" points="261.82,-887.16 260.68,-876.63 255,-885.57 261.82,-887.16"/>
</g>
<!-- default__aspect_default_ -->
<g id="node19" class="node">
<title>default__aspect_default_</title>
<polygon fill="#a6e3a1" stroke="#a6e3a1" points="1253.54,-900 1075.54,-900 1075.54,-864 1253.54,-864 1253.54,-900"/>
<text text-anchor="middle" x="1164.54" y="-877.33" font-family="Times,serif" font-size="14.00" fill="#1e1e2e">default/aspect(default)</text>
</g>
<!-- n_default&#45;&gt;default__aspect_default_ -->
<g id="edge4" class="edge">
<title>n_default&#45;&gt;default__aspect_default_</title>
<path fill="none" stroke="#a6adc8" d="M261.22,-865.31C286.45,-872.62 321.64,-884.81 349.25,-902 367.93,-913.63 364.8,-927.87 385.25,-936 635.24,-1035.39 965.81,-948.05 1101.44,-903.9"/>
<polygon fill="#a6adc8" stroke="#a6adc8" points="1102.19,-907.34 1110.59,-900.89 1100,-900.69 1102.19,-907.34"/>
</g>
<!-- den__provides__define_user -->
<g id="node24" class="node">
<title>den__provides__define_user</title>
<polygon fill="#a6e3a1" stroke="#a6e3a1" points="681.44,-837 494.31,-837 427.66,-801 748.09,-801 681.44,-837"/>
<text text-anchor="middle" x="587.87" y="-814.33" font-family="Times,serif" font-size="14.00" fill="#1e1e2e">provides/define&#45;user</text>
</g>
<!-- n_default&#45;&gt;den__provides__define_user -->
<g id="edge5" class="edge">
<title>n_default&#45;&gt;den__provides__define_user</title>
<path fill="none" stroke="#a6adc8" d="M261.05,-853.56C307.82,-848.6 396.64,-839.18 469.74,-831.42"/>
<polygon fill="#a6adc8" stroke="#a6adc8" points="469.79,-834.94 479.36,-830.4 469.05,-827.98 469.79,-834.94"/>
</g>
<!-- den__provides__hostname -->
<g id="node25" class="node">
<title>den__provides__hostname</title>
<polygon fill="#fab387" stroke="#fab387" points="675.79,-909 499.96,-909 437.33,-873 738.42,-873 675.79,-909"/>
<text text-anchor="middle" x="587.87" y="-886.33" font-family="Times,serif" font-size="14.00" fill="#1e1e2e">provides/hostname</text>
</g>
<!-- n_default&#45;&gt;den__provides__hostname -->
<g id="edge6" class="edge">
<title>n_default&#45;&gt;den__provides__hostname</title>
<path fill="none" stroke="#a6adc8" d="M261.05,-860.08C300.21,-863.79 368.83,-870.31 433.04,-876.4"/>
<polygon fill="#a6adc8" stroke="#a6adc8" points="432.34,-879.85 442.62,-877.31 433,-872.88 432.34,-879.85"/>
</g>
<!-- den__provides__mutual_provider -->
<g id="node26" class="node">
<title>den__provides__mutual_provider</title>
<polygon fill="#f9e2af" stroke="#f9e2af" points="702.3,-765 473.45,-765 391.95,-729 783.8,-729 702.3,-765"/>
<text text-anchor="middle" x="587.87" y="-742.33" font-family="Times,serif" font-size="14.00" fill="#1e1e2e">provides/mutual&#45;provider</text>
</g>
<!-- n_default&#45;&gt;den__provides__mutual_provider -->
<g id="edge7" class="edge">
<title>n_default&#45;&gt;den__provides__mutual_provider</title>
<path fill="none" stroke="#a6adc8" d="M261.21,-854.9C286.6,-852.07 322,-845.47 349.25,-830 369.48,-818.51 365.01,-803.48 385.25,-792 406.42,-779.99 430.53,-771.19 454.54,-764.73"/>
<polygon fill="#a6adc8" stroke="#a6adc8" points="455.26,-768.16 464.09,-762.3 453.53,-761.38 455.26,-768.16"/>
</g>
<!-- den__provides__default__aspect_default__den__provides -->
<g id="node20" class="node">
<title>den__provides__default__aspect_default__den__provides</title>
<polygon fill="#a6e3a1" stroke="#a6e3a1" points="1361.96,-837 967.12,-837 826.5,-801 1502.58,-801 1361.96,-837"/>
<text text-anchor="middle" x="1164.54" y="-814.33" font-family="Times,serif" font-size="14.00" fill="#1e1e2e">provides/default/aspect(default):den/provides</text>
</g>
<!-- den__provides__define_user&#45;&gt;default__aspect_default_ -->
<g id="edge8" class="edge">
<title>den__provides__define_user&#45;&gt;default__aspect_default_</title>
<path fill="none" stroke="#a6adc8" d="M693.25,-831.01C734.72,-835.75 782.86,-841.19 826.5,-846 906.26,-854.79 996.68,-864.43 1063.77,-871.52"/>
<polygon fill="#a6adc8" stroke="#a6adc8" points="1063.35,-875 1073.67,-872.57 1064.09,-868.04 1063.35,-875"/>
</g>
<!-- den__provides__define_user&#45;&gt;den__provides__default__aspect_default__den__provides -->
<g id="edge9" class="edge">
<title>den__provides__define_user&#45;&gt;den__provides__default__aspect_default__den__provides</title>
<path fill="none" stroke="#a6adc8" d="M715.7,-819C765.46,-819 824.68,-819 883.49,-819"/>
<polygon fill="#a6adc8" stroke="#a6adc8" points="883.34,-822.5 893.34,-819 883.34,-815.5 883.34,-822.5"/>
</g>
<!-- den__provides__define_user&#45;&gt;den__provides__define_user -->
<g id="edge10" class="edge">
<title>den__provides__define_user&#45;&gt;den__provides__define_user</title>
<path fill="none" stroke="#a6adc8" d="M522.7,-837.15C512.68,-846.54 534.4,-855 587.87,-855 619.21,-855 639.64,-852.1 649.17,-847.8"/>
<polygon fill="#a6adc8" stroke="#a6adc8" points="652.4,-849.17 652.53,-838.57 645.82,-846.77 652.4,-849.17"/>
</g>
<!-- den__provides__hostname&#45;&gt;default__aspect_default_ -->
<g id="edge11" class="edge">
<title>den__provides__hostname&#45;&gt;default__aspect_default_</title>
<path fill="none" stroke="#a6adc8" d="M711.1,-889.09C816.18,-887.44 965.87,-885.1 1063.84,-883.56"/>
<polygon fill="#a6adc8" stroke="#a6adc8" points="1063.77,-887.06 1073.71,-883.41 1063.66,-880.06 1063.77,-887.06"/>
</g>
<!-- den__provides__hostname&#45;&gt;den__provides__default__aspect_default__den__provides -->
<g id="edge12" class="edge">
<title>den__provides__hostname&#45;&gt;den__provides__default__aspect_default__den__provides</title>
<path fill="none" stroke="#a6adc8" d="M740.01,-872.63C757.08,-870 774.2,-867.12 790.5,-864 806.7,-860.9 810.26,-857.88 826.5,-855 866.31,-847.93 909.02,-842.07 950.21,-837.27"/>
<polygon fill="#a6adc8" stroke="#a6adc8" points="950.46,-840.76 960,-836.14 949.67,-833.81 950.46,-840.76"/>
</g>
<!-- den__provides__hostname&#45;&gt;den__provides__hostname -->
<g id="edge13" class="edge">
<title>den__provides__hostname&#45;&gt;den__provides__hostname</title>
<path fill="none" stroke="#a6adc8" d="M522.7,-909.15C512.68,-918.54 534.4,-927 587.87,-927 619.21,-927 639.64,-924.1 649.17,-919.8"/>
<polygon fill="#a6adc8" stroke="#a6adc8" points="652.4,-921.17 652.53,-910.57 645.82,-918.77 652.4,-921.17"/>
</g>
<!-- den__provides__mutual_provider&#45;&gt;default__aspect_default_ -->
<g id="edge14" class="edge">
<title>den__provides__mutual_provider&#45;&gt;default__aspect_default_</title>
<path fill="none" stroke="#a6adc8" d="M715.19,-759.79C741.65,-766.56 768.24,-776.73 790.5,-792 814.29,-808.32 801.83,-831.06 826.5,-846 897.57,-889.05 992.77,-895.56 1063.86,-892.74"/>
<polygon fill="#a6adc8" stroke="#a6adc8" points="1063.72,-896.26 1073.55,-892.29 1063.39,-889.26 1063.72,-896.26"/>
</g>
<!-- den__provides__mutual_provider&#45;&gt;den__provides__default__aspect_default__den__provides -->
<g id="edge15" class="edge">
<title>den__provides__mutual_provider&#45;&gt;den__provides__default__aspect_default__den__provides</title>
<path fill="none" stroke="#a6adc8" d="M709.69,-762.14C795.5,-772.89 911.57,-787.43 1004.84,-799.12"/>
<polygon fill="#a6adc8" stroke="#a6adc8" points="1004.24,-802.57 1014.6,-800.34 1005.11,-795.62 1004.24,-802.57"/>
</g>
<!-- den__provides__mutual_provider&#45;&gt;den__provides__mutual_provider -->
<g id="edge16" class="edge">
<title>den__provides__mutual_provider&#45;&gt;den__provides__mutual_provider</title>
<path fill="none" stroke="#a6adc8" d="M522.7,-765.15C512.68,-774.54 534.4,-783 587.87,-783 619.21,-783 639.64,-780.1 649.17,-775.8"/>
<polygon fill="#a6adc8" stroke="#a6adc8" points="652.4,-777.17 652.53,-766.57 645.82,-774.77 652.4,-777.17"/>
</g>
<!-- hm_host&#45;&gt;hm_host -->
<g id="edge19" class="edge">
<title>hm_host&#45;&gt;hm_host</title>
<path fill="none" stroke="#a6adc8" d="M194.22,-546.15C189.09,-555.54 200.22,-564 227.62,-564 243.04,-564 253.31,-561.32 258.43,-557.31"/>
<polygon fill="#a6adc8" stroke="#a6adc8" points="261.82,-558.16 260.68,-547.63 255,-556.57 261.82,-558.16"/>
</g>
<!-- hm_host__aspect_hm_host_ -->
<g id="node28" class="node">
<title>hm_host__aspect_hm_host_</title>
<polygon fill="#89b4fa" stroke="#89b4fa" points="684.37,-546 491.37,-546 491.37,-510 684.37,-510 684.37,-546"/>
<text text-anchor="middle" x="587.87" y="-523.33" font-family="Times,serif" font-size="14.00" fill="#1e1e2e">hm&#45;host/aspect(hm&#45;host)</text>
</g>
<!-- hm_host&#45;&gt;hm_host__aspect_hm_host_ -->
<g id="edge20" class="edge">
<title>hm_host&#45;&gt;hm_host__aspect_hm_host_</title>
<path fill="none" stroke="#a6adc8" d="M264.95,-528C314.95,-528 407.07,-528 480,-528"/>
<polygon fill="#a6adc8" stroke="#a6adc8" points="479.55,-531.5 489.55,-528 479.55,-524.5 479.55,-531.5"/>
</g>
<!-- hm_user&#45;&gt;hm_user -->
<g id="edge21" class="edge">
<title>hm_user&#45;&gt;hm_user</title>
<path fill="none" stroke="#a6adc8" d="M194.22,-335.15C189.09,-344.54 200.22,-353 227.62,-353 243.04,-353 253.31,-350.32 258.43,-346.31"/>
<polygon fill="#a6adc8" stroke="#a6adc8" points="261.82,-347.16 260.68,-336.63 255,-345.57 261.82,-347.16"/>
</g>
<!-- hm_user__aspect_hm_user_ -->
<g id="node32" class="node">
<title>hm_user__aspect_hm_user_</title>
<polygon fill="#a6e3a1" stroke="#a6e3a1" points="685.12,-335 490.62,-335 490.62,-299 685.12,-299 685.12,-335"/>
<text text-anchor="middle" x="587.87" y="-312.32" font-family="Times,serif" font-size="14.00" fill="#1e1e2e">hm&#45;user/aspect(hm&#45;user)</text>
</g>
<!-- hm_user&#45;&gt;hm_user__aspect_hm_user_ -->
<g id="edge22" class="edge">
<title>hm_user&#45;&gt;hm_user__aspect_hm_user_</title>
<path fill="none" stroke="#a6adc8" d="M265.28,-317C315.05,-317 406.1,-317 478.66,-317"/>
<polygon fill="#a6adc8" stroke="#a6adc8" points="478.62,-320.5 488.62,-317 478.62,-313.5 478.62,-320.5"/>
</g>
<!-- deploy&#45;&gt;deploy -->
<g id="edge17" class="edge">
<title>deploy&#45;&gt;deploy</title>
<path fill="none" stroke="#a6adc8" d="M195.75,-103.92C187.43,-114.15 198.06,-124 227.62,-124 245.64,-124 256.63,-120.34 260.58,-115.17"/>
<polygon fill="#a6adc8" stroke="#a6adc8" points="264.08,-115.04 259.65,-105.42 257.11,-115.71 264.08,-115.04"/>
</g>
<!-- user__self_provide_user_ -->
<g id="node39" class="node">
<title>user__self_provide_user_</title>
<polygon fill="#f2cdcd" stroke="#f2cdcd" points="676.5,-106 499.25,-106 499.25,-70 676.5,-70 676.5,-106"/>
<text text-anchor="middle" x="587.87" y="-83.33" font-family="Times,serif" font-size="14.00" fill="#1e1e2e">user/self&#45;provide(user)</text>
</g>
<!-- deploy&#45;&gt;user__self_provide_user_ -->
<g id="edge18" class="edge">
<title>deploy&#45;&gt;user__self_provide_user_</title>
<path fill="none" stroke="#a6adc8" d="M259.48,-88C309.63,-88 410.93,-88 487.64,-88"/>
<polygon fill="#a6adc8" stroke="#a6adc8" points="487.26,-91.5 497.26,-88 487.26,-84.5 487.26,-91.5"/>
</g>
<!-- user&#45;&gt;user -->
<g id="edge70" class="edge">
<title>user&#45;&gt;user</title>
<path fill="none" stroke="#a6adc8" d="M200.61,-171.43C184.73,-183.06 193.73,-196 227.62,-196 253.05,-196 264.47,-188.72 261.89,-180.17"/>
<polygon fill="#a6adc8" stroke="#a6adc8" points="264.68,-178.06 255.6,-172.59 259.29,-182.53 264.68,-178.06"/>
</g>
<!-- user__aspect_user_ -->
<g id="node37" class="node">
<title>user__aspect_user_</title>
<polygon fill="#fab387" stroke="#fab387" points="658.12,-178 517.62,-178 517.62,-142 658.12,-142 658.12,-178"/>
<text text-anchor="middle" x="587.87" y="-155.32" font-family="Times,serif" font-size="14.00" fill="#1e1e2e">user/aspect(user)</text>
</g>
<!-- user&#45;&gt;user__aspect_user_ -->
<g id="edge71" class="edge">
<title>user&#45;&gt;user__aspect_user_</title>
<path fill="none" stroke="#a6adc8" d="M254.97,-160C307.21,-160 425.81,-160 506.14,-160"/>
<polygon fill="#a6adc8" stroke="#a6adc8" points="505.7,-163.5 515.7,-160 505.7,-156.5 505.7,-163.5"/>
</g>
</g>
</svg>
