<svg id="my-svg" width="100%" xmlns="http://www.w3.org/2000/svg" xmlns:xlink="http://www.w3.org/1999/xlink" class="flowchart" style="max-width: 294px; background-color: rgb(30, 30, 46);" viewBox="4 4 294 349" role="graphics-document document" aria-roledescription="flowchart-v2"><style>#my-svg{font-family:JetBrains Mono,Fira Code,DejaVu Sans Mono,monospace;font-size:16px;fill:#cdd6f4;}@keyframes edge-animation-frame{from{stroke-dashoffset:0;}}@keyframes dash{to{stroke-dashoffset:0;}}#my-svg .edge-animation-slow{stroke-dasharray:9,5!important;stroke-dashoffset:900;animation:dash 50s linear infinite;stroke-linecap:round;}#my-svg .edge-animation-fast{stroke-dasharray:9,5!important;stroke-dashoffset:900;animation:dash 20s linear infinite;stroke-linecap:round;}#my-svg .error-icon{fill:#313244;}#my-svg .error-text{fill:#cdd6f4;stroke:#cdd6f4;}#my-svg .edge-thickness-normal{stroke-width:1px;}#my-svg .edge-thickness-thick{stroke-width:3.5px;}#my-svg .edge-pattern-solid{stroke-dasharray:0;}#my-svg .edge-thickness-invisible{stroke-width:0;fill:none;}#my-svg .edge-pattern-dashed{stroke-dasharray:3;}#my-svg .edge-pattern-dotted{stroke-dasharray:2;}#my-svg .marker{fill:#a6adc8;stroke:#a6adc8;}#my-svg .marker.cross{stroke:#a6adc8;}#my-svg svg{font-family:JetBrains Mono,Fira Code,DejaVu Sans Mono,monospace;font-size:16px;}#my-svg p{margin:0;}#my-svg .label{font-family:JetBrains Mono,Fira Code,DejaVu Sans Mono,monospace;color:#cdd6f4;}#my-svg .cluster-label text{fill:#cdd6f4;}#my-svg .cluster-label span{color:#cdd6f4;}#my-svg .cluster-label span p{background-color:transparent;}#my-svg .label text,#my-svg span{fill:#cdd6f4;color:#cdd6f4;}#my-svg .node rect,#my-svg .node circle,#my-svg .node ellipse,#my-svg .node polygon,#my-svg .node path{fill:#313244;stroke:#a6adc8;stroke-width:1px;}#my-svg .rough-node .label text,#my-svg .node .label text,#my-svg .image-shape .label,#my-svg .icon-shape .label{text-anchor:middle;}#my-svg .node .katex path{fill:#000;stroke:#000;stroke-width:1px;}#my-svg .rough-node .label,#my-svg .node .label,#my-svg .image-shape .label,#my-svg .icon-shape .label{text-align:center;}#my-svg .node.clickable{cursor:pointer;}#my-svg .root .anchor path{fill:#a6adc8!important;stroke-width:0;stroke:#a6adc8;}#my-svg .arrowheadPath{fill:#e1e1d1;}#my-svg .edgePath .path{stroke:#a6adc8;stroke-width:1px;}#my-svg .flowchart-link{stroke:#a6adc8;fill:none;}#my-svg .edgeLabel{background-color:#1e1e2e;text-align:center;}#my-svg .edgeLabel p{background-color:#1e1e2e;}#my-svg .edgeLabel rect{opacity:0.5;background-color:#1e1e2e;fill:#1e1e2e;}#my-svg .labelBkg{background-color:rgba(30, 30, 46, 0.5);}#my-svg .cluster rect{fill:#313244;stroke:#6c7086;stroke-width:1px;}#my-svg .cluster text{fill:#cdd6f4;}#my-svg .cluster span{color:#cdd6f4;}#my-svg div.mermaidTooltip{position:absolute;text-align:center;max-width:200px;padding:2px;font-family:JetBrains Mono,Fira Code,DejaVu Sans Mono,monospace;font-size:12px;background:#313244;border:1px solid #6c7086;border-radius:2px;pointer-events:none;z-index:100;}#my-svg .flowchartTitleText{text-anchor:middle;font-size:18px;fill:#cdd6f4;}#my-svg rect.text{fill:none;stroke-width:0;}#my-svg .icon-shape,#my-svg .image-shape{background-color:#1e1e2e;text-align:center;}#my-svg .icon-shape p,#my-svg .image-shape p{background-color:#1e1e2e;padding:2px;}#my-svg .icon-shape .label rect,#my-svg .image-shape .label rect{opacity:0.5;background-color:#1e1e2e;fill:#1e1e2e;}#my-svg .label-icon{display:inline-block;height:1em;overflow:visible;vertical-align:-0.125em;}#my-svg .node .label-icon path{fill:currentColor;stroke:revert;stroke-width:revert;}#my-svg .node .neo-node{stroke:#a6adc8;}#my-svg [data-look="neo"].node rect,#my-svg [data-look="neo"].cluster rect,#my-svg [data-look="neo"].node polygon{stroke:url(#my-svg-gradient);filter:drop-shadow( 1px 2px 2px rgba(185,185,185,1));}#my-svg [data-look="neo"].node path{stroke:url(#my-svg-gradient);stroke-width:1px;}#my-svg [data-look="neo"].node .outer-path{filter:drop-shadow( 1px 2px 2px rgba(185,185,185,1));}#my-svg [data-look="neo"].node .neo-line path{stroke:#a6adc8;filter:none;}#my-svg [data-look="neo"].node circle{stroke:url(#my-svg-gradient);filter:drop-shadow( 1px 2px 2px rgba(185,185,185,1));}#my-svg [data-look="neo"].node circle .state-start{fill:#000000;}#my-svg [data-look="neo"].icon-shape .icon{fill:url(#my-svg-gradient);filter:drop-shadow( 1px 2px 2px rgba(185,185,185,1));}#my-svg [data-look="neo"].icon-shape .icon-neo path{stroke:url(#my-svg-gradient);filter:drop-shadow( 1px 2px 2px rgba(185,185,185,1));}#my-svg :root{--mermaid-font-family:JetBrains Mono,Fira Code,DejaVu Sans Mono,monospace;}#my-svg .root&gt;*{fill:#89b4fa!important;stroke:#89b4fa!important;color:#1e1e2e!important;font-weight:bold!important;}#my-svg .root span{fill:#89b4fa!important;stroke:#89b4fa!important;color:#1e1e2e!important;font-weight:bold!important;}#my-svg .root tspan{fill:#1e1e2e!important;}#my-svg .den__provides__define_user_c&gt;*{fill:#a6e3a1!important;stroke:#a6e3a1!important;color:#1e1e2e!important;stroke-dasharray:3 3!important;stroke-width:1px!important;}#my-svg .den__provides__define_user_c span{fill:#a6e3a1!important;stroke:#a6e3a1!important;color:#1e1e2e!important;stroke-dasharray:3 3!important;stroke-width:1px!important;}#my-svg .den__provides__define_user_c tspan{fill:#1e1e2e!important;}#my-svg .deploy_c&gt;*{fill:#f2cdcd!important;stroke:#f2cdcd!important;color:#1e1e2e!important;stroke-width:2px!important;}#my-svg .deploy_c span{fill:#f2cdcd!important;stroke:#f2cdcd!important;color:#1e1e2e!important;stroke-width:2px!important;}#my-svg .deploy_c tspan{fill:#1e1e2e!important;}#my-svg .den__provides__hostname_c&gt;*{fill:#fab387!important;stroke:#fab387!important;color:#1e1e2e!important;stroke-dasharray:3 3!important;stroke-width:1px!important;}#my-svg .den__provides__hostname_c span{fill:#fab387!important;stroke:#fab387!important;color:#1e1e2e!important;stroke-dasharray:3 3!important;stroke-width:1px!important;}#my-svg .den__provides__hostname_c tspan{fill:#1e1e2e!important;}#my-svg .den__provides__mutual_provider_c&gt;*{fill:#f9e2af!important;stroke:#f9e2af!important;color:#1e1e2e!important;stroke-dasharray:3 3!important;stroke-width:1px!important;}#my-svg .den__provides__mutual_provider_c span{fill:#f9e2af!important;stroke:#f9e2af!important;color:#1e1e2e!important;stroke-dasharray:3 3!important;stroke-width:1px!important;}#my-svg .den__provides__mutual_provider_c tspan{fill:#1e1e2e!important;}</style><g><marker id="my-svg_flowchart-v2-pointEnd" class="marker flowchart-v2" viewBox="0 0 10 10" refX="5" refY="5" markerUnits="userSpaceOnUse" markerWidth="8" markerHeight="8" orient="auto"><path d="M 0 0 L 10 5 L 0 10 z" class="arrowMarkerPath" style="stroke-width: 1; stroke-dasharray: 1, 0;"/></marker><marker id="my-svg_flowchart-v2-pointStart" class="marker flowchart-v2" viewBox="0 0 10 10" refX="4.5" refY="5" markerUnits="userSpaceOnUse" markerWidth="8" markerHeight="8" orient="auto"><path d="M 0 5 L 10 10 L 10 0 z" class="arrowMarkerPath" style="stroke-width: 1; stroke-dasharray: 1, 0;"/></marker><marker id="my-svg_flowchart-v2-pointEnd-margin" class="marker flowchart-v2" viewBox="0 0 11.5 14" refX="11.5" refY="7" markerUnits="userSpaceOnUse" markerWidth="10.5" markerHeight="14" orient="auto"><path d="M 0 0 L 11.5 7 L 0 14 z" class="arrowMarkerPath" style="stroke-width: 0; stroke-dasharray: 1, 0;"/></marker><marker id="my-svg_flowchart-v2-pointStart-margin" class="marker flowchart-v2" viewBox="0 0 11.5 14" refX="1" refY="7" markerUnits="userSpaceOnUse" markerWidth="11.5" markerHeight="14" orient="auto"><polygon points="0,7 11.5,14 11.5,0" class="arrowMarkerPath" style="stroke-width: 0; stroke-dasharray: 1, 0;"/></marker><marker id="my-svg_flowchart-v2-circleEnd" class="marker flowchart-v2" viewBox="0 0 10 10" refX="11" refY="5" markerUnits="userSpaceOnUse" markerWidth="11" markerHeight="11" orient="auto"><circle cx="5" cy="5" r="5" class="arrowMarkerPath" style="stroke-width: 1; stroke-dasharray: 1, 0;"/></marker><marker id="my-svg_flowchart-v2-circleStart" class="marker flowchart-v2" viewBox="0 0 10 10" refX="-1" refY="5" markerUnits="userSpaceOnUse" markerWidth="11" markerHeight="11" orient="auto"><circle cx="5" cy="5" r="5" class="arrowMarkerPath" style="stroke-width: 1; stroke-dasharray: 1, 0;"/></marker><marker id="my-svg_flowchart-v2-circleEnd-margin" class="marker flowchart-v2" viewBox="0 0 10 10" refY="5" refX="12.25" markerUnits="userSpaceOnUse" markerWidth="14" markerHeight="14" orient="auto"><circle cx="5" cy="5" r="5" class="arrowMarkerPath" style="stroke-width: 0; stroke-dasharray: 1, 0;"/></marker><marker id="my-svg_flowchart-v2-circleStart-margin" class="marker flowchart-v2" viewBox="0 0 10 10" refX="-2" refY="5" markerUnits="userSpaceOnUse" markerWidth="14" markerHeight="14" orient="auto"><circle cx="5" cy="5" r="5" class="arrowMarkerPath" style="stroke-width: 0; stroke-dasharray: 1, 0;"/></marker><marker id="my-svg_flowchart-v2-crossEnd" class="marker cross flowchart-v2" viewBox="0 0 11 11" refX="12" refY="5.2" markerUnits="userSpaceOnUse" markerWidth="11" markerHeight="11" orient="auto"><path d="M 1,1 l 9,9 M 10,1 l -9,9" class="arrowMarkerPath" style="stroke-width: 2; stroke-dasharray: 1, 0;"/></marker><marker id="my-svg_flowchart-v2-crossStart" class="marker cross flowchart-v2" viewBox="0 0 11 11" refX="-1" refY="5.2" markerUnits="userSpaceOnUse" markerWidth="11" markerHeight="11" orient="auto"><path d="M 1,1 l 9,9 M 10,1 l -9,9" class="arrowMarkerPath" style="stroke-width: 2; stroke-dasharray: 1, 0;"/></marker><marker id="my-svg_flowchart-v2-crossEnd-margin" class="marker cross flowchart-v2" viewBox="0 0 15 15" refX="17.7" refY="7.5" markerUnits="userSpaceOnUse" markerWidth="12" markerHeight="12" orient="auto"><path d="M 1,1 L 14,14 M 1,14 L 14,1" class="arrowMarkerPath" style="stroke-width: 2.5;"/></marker><marker id="my-svg_flowchart-v2-crossStart-margin" class="marker cross flowchart-v2" viewBox="0 0 15 15" refX="-3.5" refY="7.5" markerUnits="userSpaceOnUse" markerWidth="12" markerHeight="12" orient="auto"><path d="M 1,1 L 14,14 M 1,14 L 14,1" class="arrowMarkerPath" style="stroke-width: 2.5; stroke-dasharray: 1, 0;"/></marker></g><defs><filter id="my-svg-drop-shadow" height="130%" width="130%"><feDropShadow dx="4" dy="4" stdDeviation="0" flood-opacity="0.06" flood-color="#000000"/></filter></defs><defs><filter id="my-svg-drop-shadow-small" height="150%" width="150%"><feDropShadow dx="2" dy="2" stdDeviation="0" flood-opacity="0.06" flood-color="#000000"/></filter></defs><linearGradient id="my-svg-gradient" gradientUnits="objectBoundingBox" x1="0%" y1="0%" x2="100%" y2="0%"><stop offset="0%" stop-color="#a6adc8" stop-opacity="1"/><stop offset="100%" stop-color="#6c7086" stop-opacity="1"/></linearGradient><g class="subgraphs"/><g class="nodes"><g class="node default root " id="my-svg-flowchart-deploy-0" data-look="classic" transform="translate(151, 31.5)"><g class="basic label-container outer-path"><path d="M-22.875 -19.5 C-13.449611955348596 -19.5, -4.0242239106971915 -19.5, 22.875 -19.5 C22.875 -19.5, 22.875 -19.5, 22.875 -19.5 C23.328317589942447 -19.48546298721971, 23.781635179884898 -19.470925974439414, 24.1243692896239 -19.45993515863156 C24.605194760858584 -19.413550503698783, 25.08602023209327 -19.367165848766007, 25.368604652847864 -19.3399052695533 C25.75600409763152 -19.27727353164824, 26.14340354241518 -19.214641793743183, 26.60259325967676 -19.140403561325776 C26.960000200053127 -19.05882775948312, 27.317407140429495 -18.977251957640465, 27.82126438623539 -18.862249829261074 C28.20708493780619 -18.747740314768265, 28.592905489376985 -18.633230800275452, 29.019610251460602 -18.50658706670804 C29.28350211569188 -18.409472421281276, 29.54739397992316 -18.31235777585451, 30.192706595147794 -18.074876768247425 C30.602214276716477 -17.893599865230737, 31.011721958285165 -17.71232296221405, 31.33573291279238 -17.568892924097174 C31.657404022709574 -17.401077312093555, 31.979075132626768 -17.233261700089933, 32.44399226407678 -16.990714730406097 C32.6707024162632 -16.853281703853956, 32.89741256844961 -16.715848677301818, 33.5129305736057 -16.342718045390892 C33.86162637203116 -16.099482951207122, 34.210322170456614 -15.85624785702335, 34.53815534457871 -15.627565626425154 C34.77601529229542 -15.43787864784012, 35.013875240012126 -15.248191669255085, 35.515453708501866 -14.848196188198123 C35.797357242233836 -14.592178857621525, 36.07926077596581 -14.336161527044926, 36.44080973676799 -14.007812326905688 C36.61911663354728 -13.82369581671259, 36.79742353032657 -13.639579306519494, 37.31042094296865 -13.10986736009568 C37.5570876678943 -12.820118589263748, 37.803754392819954 -12.530369818431817, 38.12071390812658 -12.158051136245305 C38.354845801366814 -11.844335729157665, 38.588977694607046 -11.530620322070023, 38.868358964640635 -11.156274872382312 C39.03473049060787 -10.900683531486546, 39.201102016575106 -10.645092190590779, 39.55028387860425 -10.108655082055241 C39.76102320871253 -9.734466061776816, 39.97176253882082 -9.36027704149839, 40.163686474273504 -9.019496659696287 C40.38016294674181 -8.569978632761345, 40.59663941921011 -8.120460605826402, 40.70604614880834 -7.893275190886684 C40.89289325780386 -7.4317592192246495, 41.079740366799385 -6.970243247562615, 41.175134229970325 -6.734618561215508 C41.26549989824313 -6.462451566191799, 41.35586556651593 -6.190284571168089, 41.56902313421488 -5.548287939305138 C41.632950555556185 -5.304504975411077, 41.69687797689749 -5.060722011517015, 41.88609428754556 -4.339158212148133 C41.960686090041165 -3.956145071316241, 42.03527789253677 -3.5731319304843496, 42.125044776581774 -3.1121979531509023 C42.16784359169548 -2.7802587947110062, 42.21064240680918 -2.44831963627111, 42.28489270250937 -1.872449005199798 C42.306944520379616 -1.5289741419636904, 42.328996338249866 -1.1854992787275829, 42.36498121591342 -0.6250057626472757 C42.36498121591342 -0.24742780758046418, 42.36498121591342 0.13015014748634735, 42.36498121591342 0.625005762647271 C42.33343530122317 1.1163588473518957, 42.30188938653292 1.60771193205652, 42.28489270250937 1.8724490051997846 C42.22133351000373 2.365401551091272, 42.1577743174981 2.8583540969827594, 42.125044776581774 3.1121979531508885 C42.06631178815048 3.4137794355240954, 42.007578799719184 3.7153609178973026, 41.88609428754556 4.339158212148129 C41.76422734047776 4.80388969878663, 41.64236039340996 5.268621185425132, 41.56902313421489 5.548287939305125 C41.41682188992319 6.006693837136644, 41.264620645631496 6.465099734968161, 41.175134229970325 6.734618561215495 C41.05791538304939 7.0241513793824435, 40.94069653612845 7.313684197549393, 40.70604614880834 7.893275190886679 C40.54052462583617 8.236984174931631, 40.375003102864 8.580693158976585, 40.163686474273504 9.019496659696284 C40.002130973112784 9.306354811275568, 39.840575471952064 9.593212962854853, 39.55028387860425 10.108655082055236 C39.32412441401316 10.456096751986717, 39.09796494942207 10.803538421918196, 38.86835896464064 11.156274872382301 C38.693229690863106 11.390932144639144, 38.51810041708557 11.625589416895986, 38.12071390812658 12.158051136245302 C37.89803840242943 12.4196184558324, 37.67536289673227 12.681185775419499, 37.31042094296866 13.10986736009567 C37.13488989834604 13.29111757503531, 36.95935885372341 13.472367789974948, 36.44080973676799 14.007812326905684 C36.144297803626046 14.277096619309352, 35.84778587048411 14.54638091171302, 35.51545370850189 14.848196188198111 C35.16467368053237 15.127933925855228, 34.81389365256285 15.407671663512346, 34.53815534457871 15.627565626425152 C34.24584900379724 15.831465876016761, 33.95354266301576 16.03536612560837, 33.51293057360571 16.34271804539089 C33.127118936896004 16.57659932684515, 32.74130730018631 16.81048060829941, 32.44399226407678 16.990714730406093 C32.034424215814234 17.20438611884381, 31.624856167551687 17.418057507281528, 31.335732912792388 17.56889292409717 C30.88041961652992 17.770446613963514, 30.425106320267453 17.97200030382986, 30.192706595147804 18.07487676824742 C29.80578221326218 18.21726851747111, 29.418857831376556 18.359660266694796, 29.019610251460616 18.506587066708033 C28.72304922556121 18.594604822514388, 28.4264881996618 18.682622578320743, 27.821264386235413 18.86224982926107 C27.46718576889857 18.943065963089293, 27.113107151561728 19.02388209691751, 26.602593259676766 19.140403561325773 C26.186776365448036 19.2076296120765, 25.770959471219307 19.274855662827225, 25.36860465284788 19.3399052695533 C24.874063120396695 19.387613096415652, 24.37952158794551 19.43532092327801, 24.1243692896239 19.45993515863156 C23.68167223802468 19.474131591418807, 23.238975186425463 19.48832802420606, 22.875000000000004 19.5 C22.875000000000004 19.5, 22.875000000000004 19.5, 22.875 19.5 C7.56132422942421 19.5, -7.7523515411515795 19.5, -22.874999999999996 19.5 C-23.264521059801528 19.487508817768912, -23.654042119603062 19.475017635537828, -24.124369289623893 19.45993515863156 C-24.54505610976144 19.419352007042814, -24.965742929898987 19.37876885545407, -25.36860465284787 19.3399052695533 C-25.631002929707964 19.29748275107959, -25.893401206568058 19.255060232605874, -26.60259325967676 19.140403561325773 C-26.984297220157373 19.053282123197196, -27.366001180637987 18.966160685068623, -27.821264386235388 18.862249829261074 C-28.06246205045459 18.79066362859319, -28.303659714673795 18.719077427925306, -29.01961025146059 18.506587066708043 C-29.33203273369436 18.39161270524425, -29.64445521592813 18.276638343780455, -30.192706595147797 18.074876768247425 C-30.589378769495347 17.89928176352574, -30.986050943842898 17.723686758804053, -31.33573291279238 17.568892924097174 C-31.746645665148222 17.35452000439531, -32.15755841750406 17.14014708469345, -32.44399226407678 16.990714730406097 C-32.74773482390274 16.80658420565019, -33.051477383728695 16.62245368089428, -33.512930573605686 16.3427180453909 C-33.8856182898184 16.08274722795212, -34.25830600603113 15.822776410513338, -34.53815534457871 15.627565626425156 C-34.88832726023318 15.34831284215674, -35.238499175887654 15.069060057888327, -35.515453708501866 14.848196188198125 C-35.80747239506569 14.582992543451917, -36.09949108162951 14.317788898705711, -36.440809736767974 14.007812326905697 C-36.67988063495253 13.760951996444366, -36.9189515331371 13.514091665983036, -37.310420942968655 13.109867360095677 C-37.500488506327855 12.886603185023224, -37.690556069687055 12.66333900995077, -38.120713908126575 12.158051136245307 C-38.41770032454569 11.76011639426282, -38.714686740964815 11.362181652280333, -38.868358964640635 11.156274872382316 C-39.05068656844535 10.87617071112135, -39.233014172250066 10.596066549860385, -39.55028387860425 10.108655082055249 C-39.7718539689429 9.715234950254406, -39.99342405928155 9.321814818453563, -40.163686474273504 9.019496659696289 C-40.280037797947706 8.777890646567295, -40.39638912162191 8.536284633438303, -40.70604614880834 7.893275190886686 C-40.861536134642776 7.509211919681274, -41.017026120477205 7.125148648475861, -41.175134229970325 6.73461856121551 C-41.27525449648831 6.4330722704614836, -41.37537476300629 6.131525979707457, -41.56902313421488 5.5482879393051325 C-41.65161301714901 5.233336920995616, -41.73420290008313 4.9183859026861, -41.88609428754556 4.339158212148136 C-41.97683443697034 3.8732267227892456, -42.067574586395125 3.407295233430355, -42.125044776581774 3.112197953150904 C-42.17857747060535 2.697008949530231, -42.232110164628914 2.2818199459095583, -42.28489270250937 1.872449005199809 C-42.30910437503189 1.4953326623512013, -42.33331604755441 1.1182163195025938, -42.36498121591342 0.6250057626472781 C-42.36498121591342 0.29098399761484683, -42.36498121591342 -0.04303776741758447, -42.36498121591342 -0.6250057626472687 C-42.34853318767762 -0.8811970790293105, -42.33208515944181 -1.1373883954113524, -42.28489270250937 -1.8724490051997822 C-42.244127578764946 -2.1886152549773192, -42.203362455020525 -2.5047815047548565, -42.125044776581774 -3.112197953150895 C-42.05506244821733 -3.4715424185319876, -41.98508011985288 -3.8308868839130805, -41.88609428754556 -4.339158212148126 C-41.77584583538528 -4.759583342216699, -41.665597383225 -5.18000847228527, -41.56902313421489 -5.548287939305123 C-41.466495371673815 -5.857085224498281, -41.36396760913274 -6.16588250969144, -41.17513422997033 -6.734618561215485 C-41.04245509806955 -7.06233858218691, -40.90977596616878 -7.390058603158335, -40.70604614880834 -7.893275190886676 C-40.596743073452 -8.12024536557529, -40.487439998095645 -8.347215540263901, -40.163686474273504 -9.019496659696282 C-39.95002720278983 -9.398870331562827, -39.73636793130617 -9.778244003429375, -39.55028387860425 -10.108655082055243 C-39.3275879977456 -10.450775757271229, -39.104892116886965 -10.792896432487215, -38.86835896464064 -11.156274872382308 C-38.60359664577872 -11.511032259313835, -38.338834326916796 -11.86578964624536, -38.12071390812659 -12.158051136245302 C-37.82157513186118 -12.509436564325211, -37.52243635559578 -12.860821992405121, -37.31042094296866 -13.10986736009567 C-36.96985789722076 -13.461526665576434, -36.62929485147286 -13.813185971057196, -36.440809736767996 -14.007812326905677 C-36.09789158501709 -14.319241519208747, -35.75497343326618 -14.630670711511817, -35.51545370850189 -14.848196188198107 C-35.272369806484605 -15.04204913132259, -35.02928590446732 -15.235902074447072, -34.53815534457872 -15.627565626425149 C-34.26132465046723 -15.820670734829722, -33.984493956355735 -16.013775843234296, -33.512930573605715 -16.342718045390885 C-33.252853686513994 -16.50037818272732, -32.99277679942227 -16.658038320063756, -32.44399226407679 -16.99071473040609 C-32.107006849845874 -17.1665198051609, -31.770021435614957 -17.34232487991571, -31.335732912792388 -17.56889292409717 C-30.94498368479122 -17.741866016169272, -30.554234456790056 -17.914839108241374, -30.192706595147804 -18.07487676824742 C-29.810040699768336 -18.215701355071825, -29.42737480438887 -18.35652594189623, -29.01961025146062 -18.506587066708033 C-28.55035041811687 -18.645860922049327, -28.08109058477312 -18.785134777390624, -27.821264386235413 -18.862249829261067 C-27.483667649238697 -18.939304081455976, -27.146070912241978 -19.016358333650885, -26.602593259676766 -19.140403561325773 C-26.352269760941706 -19.18087392331353, -26.101946262206646 -19.221344285301292, -25.368604652847882 -19.3399052695533 C-25.10669523988744 -19.36517135562944, -24.844785826926994 -19.39043744170558, -24.124369289623903 -19.45993515863156 C-23.68134347245183 -19.474142134290826, -23.238317655279754 -19.488349109950093, -22.875000000000007 -19.5 C-22.875000000000004 -19.5, -22.875000000000004 -19.5, -22.875 -19.5" stroke="none" stroke-width="0" fill="#89b4fa" style="fill:#89b4fa !important;stroke:#89b4fa !important"/><path d="M-22.875 -19.5 C-7.5522562236917175 -19.5, 7.770487552616565 -19.5, 22.875 -19.5 M-22.875 -19.5 C-6.775683932931386 -19.5, 9.323632134137227 -19.5, 22.875 -19.5 M22.875 -19.5 C22.875 -19.5, 22.875 -19.5, 22.875 -19.5 M22.875 -19.5 C22.875 -19.5, 22.875 -19.5, 22.875 -19.5 M22.875 -19.5 C23.17188146392614 -19.4904795892966, 23.46876292785228 -19.480959178593206, 24.1243692896239 -19.45993515863156 M22.875 -19.5 C23.169840145977584 -19.49054505039003, 23.464680291955165 -19.481090100780058, 24.1243692896239 -19.45993515863156 M24.1243692896239 -19.45993515863156 C24.39985100399014 -19.433359768961882, 24.675332718356376 -19.406784379292205, 25.368604652847864 -19.3399052695533 M24.1243692896239 -19.45993515863156 C24.438033624200006 -19.429676337511555, 24.751697958776113 -19.39941751639155, 25.368604652847864 -19.3399052695533 M25.368604652847864 -19.3399052695533 C25.64987834178865 -19.294431120835387, 25.931152030729432 -19.24895697211748, 26.60259325967676 -19.140403561325776 M25.368604652847864 -19.3399052695533 C25.76263348813277 -19.276201743203693, 26.15666232341768 -19.212498216854083, 26.60259325967676 -19.140403561325776 M26.60259325967676 -19.140403561325776 C26.972495758379978 -19.055975729836156, 27.342398257083197 -18.971547898346536, 27.82126438623539 -18.862249829261074 M26.60259325967676 -19.140403561325776 C26.973865677962145 -19.055663054631086, 27.34513809624753 -18.970922547936397, 27.82126438623539 -18.862249829261074 M27.82126438623539 -18.862249829261074 C28.275927851741066 -18.72730809927622, 28.73059131724674 -18.59236636929137, 29.019610251460602 -18.50658706670804 M27.82126438623539 -18.862249829261074 C28.27259576532777 -18.72829704503321, 28.723927144420152 -18.594344260805343, 29.019610251460602 -18.50658706670804 M29.019610251460602 -18.50658706670804 C29.44269669954696 -18.350887342844004, 29.865783147633323 -18.195187618979972, 30.192706595147794 -18.074876768247425 M29.019610251460602 -18.50658706670804 C29.27197064175479 -18.413716110285904, 29.52433103204898 -18.320845153863765, 30.192706595147794 -18.074876768247425 M30.192706595147794 -18.074876768247425 C30.516257639942637 -17.93165031851748, 30.839808684737484 -17.788423868787536, 31.33573291279238 -17.568892924097174 M30.192706595147794 -18.074876768247425 C30.435502611496595 -17.967398174097738, 30.6782986278454 -17.85991957994805, 31.33573291279238 -17.568892924097174 M31.33573291279238 -17.568892924097174 C31.694319029993363 -17.38181877643879, 32.052905147194345 -17.19474462878041, 32.44399226407678 -16.990714730406097 M31.33573291279238 -17.568892924097174 C31.726882657049163 -17.36483035306178, 32.118032401305946 -17.160767782026383, 32.44399226407678 -16.990714730406097 M32.44399226407678 -16.990714730406097 C32.67645745341065 -16.84979296651482, 32.908922642744514 -16.70887120262354, 33.5129305736057 -16.342718045390892 M32.44399226407678 -16.990714730406097 C32.79459901167445 -16.778174859618446, 33.14520575927211 -16.56563498883079, 33.5129305736057 -16.342718045390892 M33.5129305736057 -16.342718045390892 C33.89585944102546 -16.07560344420237, 34.27878830844522 -15.808488843013844, 34.53815534457871 -15.627565626425154 M33.5129305736057 -16.342718045390892 C33.88452902576982 -16.083507051398932, 34.256127477933944 -15.82429605740697, 34.53815534457871 -15.627565626425154 M34.53815534457871 -15.627565626425154 C34.820088540352806 -15.40273140535274, 35.10202173612689 -15.177897184280328, 35.515453708501866 -14.848196188198123 M34.53815534457871 -15.627565626425154 C34.76992235563855 -15.44273760268412, 35.001689366698386 -15.257909578943087, 35.515453708501866 -14.848196188198123 M35.515453708501866 -14.848196188198123 C35.75619942209375 -14.629557300896504, 35.996945135685635 -14.410918413594885, 36.44080973676799 -14.007812326905688 M35.515453708501866 -14.848196188198123 C35.811255676791056 -14.579556667089086, 36.107057645080246 -14.310917145980047, 36.44080973676799 -14.007812326905688 M36.44080973676799 -14.007812326905688 C36.74674684121386 -13.691907148661919, 37.05268394565974 -13.376001970418148, 37.31042094296865 -13.10986736009568 M36.44080973676799 -14.007812326905688 C36.760797368586154 -13.677398825580273, 37.080785000404326 -13.346985324254858, 37.31042094296865 -13.10986736009568 M37.31042094296865 -13.10986736009568 C37.63323163739699 -12.73067554997129, 37.95604233182532 -12.351483739846897, 38.12071390812658 -12.158051136245305 M37.31042094296865 -13.10986736009568 C37.58410517095481 -12.788382292829398, 37.85778939894097 -12.466897225563114, 38.12071390812658 -12.158051136245305 M38.12071390812658 -12.158051136245305 C38.41144023782332 -11.768504340165176, 38.70216656752005 -11.378957544085047, 38.868358964640635 -11.156274872382312 M38.12071390812658 -12.158051136245305 C38.39742178680374 -11.787287787424253, 38.67412966548089 -11.416524438603199, 38.868358964640635 -11.156274872382312 M38.868358964640635 -11.156274872382312 C39.08048064259541 -10.830399012397725, 39.29260232055018 -10.504523152413139, 39.55028387860425 -10.108655082055241 M38.868358964640635 -11.156274872382312 C39.11252863817082 -10.781164685102116, 39.356698311701 -10.406054497821922, 39.55028387860425 -10.108655082055241 M39.55028387860425 -10.108655082055241 C39.74506505393989 -9.762801381514041, 39.93984622927553 -9.416947680972841, 40.163686474273504 -9.019496659696287 M39.55028387860425 -10.108655082055241 C39.769879357382365 -9.718741073031234, 39.98947483616048 -9.328827064007227, 40.163686474273504 -9.019496659696287 M40.163686474273504 -9.019496659696287 C40.329951062001946 -8.674244685785897, 40.49621564973039 -8.328992711875506, 40.70604614880834 -7.893275190886684 M40.163686474273504 -9.019496659696287 C40.374486509072455 -8.581765877038071, 40.585286543871405 -8.144035094379856, 40.70604614880834 -7.893275190886684 M40.70604614880834 -7.893275190886684 C40.834045431434475 -7.577114488102358, 40.96204471406061 -7.2609537853180335, 41.175134229970325 -6.734618561215508 M40.70604614880834 -7.893275190886684 C40.8441294208209 -7.5522068393572175, 40.98221269283346 -7.21113848782775, 41.175134229970325 -6.734618561215508 M41.175134229970325 -6.734618561215508 C41.2594468725441 -6.480682315178582, 41.34375951511789 -6.2267460691416545, 41.56902313421488 -5.548287939305138 M41.175134229970325 -6.734618561215508 C41.26426463365453 -6.466171986319981, 41.35339503733873 -6.1977254114244555, 41.56902313421488 -5.548287939305138 M41.56902313421488 -5.548287939305138 C41.65626498063992 -5.215596968031046, 41.743506827064955 -4.8829059967569535, 41.88609428754556 -4.339158212148133 M41.56902313421488 -5.548287939305138 C41.68104272999079 -5.121108671011662, 41.793062325766705 -4.693929402718187, 41.88609428754556 -4.339158212148133 M41.88609428754556 -4.339158212148133 C41.960323928033205 -3.9580046966841334, 42.034553568520856 -3.576851181220134, 42.125044776581774 -3.1121979531509023 M41.88609428754556 -4.339158212148133 C41.969584353371616 -3.910454369763004, 42.05307441919767 -3.4817505273778746, 42.125044776581774 -3.1121979531509023 M42.125044776581774 -3.1121979531509023 C42.160447604500256 -2.837620610894293, 42.19585043241874 -2.5630432686376845, 42.28489270250937 -1.872449005199798 M42.125044776581774 -3.1121979531509023 C42.172047373368045 -2.7476550941891835, 42.21904997015431 -2.3831122352274643, 42.28489270250937 -1.872449005199798 M42.28489270250937 -1.872449005199798 C42.3061827323178 -1.540839605930709, 42.327472762126234 -1.20923020666162, 42.36498121591342 -0.6250057626472757 M42.28489270250937 -1.872449005199798 C42.31442316772794 -1.4124881728581122, 42.3439536329465 -0.9525273405164265, 42.36498121591342 -0.6250057626472757 M42.36498121591342 -0.6250057626472757 C42.36498121591342 -0.23011310566827164, 42.36498121591342 0.1647795513107324, 42.36498121591342 0.625005762647271 M42.36498121591342 -0.6250057626472757 C42.36498121591342 -0.15301117845315826, 42.36498121591342 0.3189834057409592, 42.36498121591342 0.625005762647271 M42.36498121591342 0.625005762647271 C42.340354163314466 1.0085919854750522, 42.31572711071551 1.3921782083028331, 42.28489270250937 1.8724490051997846 M42.36498121591342 0.625005762647271 C42.33863276825405 1.0354041030259966, 42.31228432059469 1.4458024434047223, 42.28489270250937 1.8724490051997846 M42.28489270250937 1.8724490051997846 C42.24561787783758 2.1770567896627977, 42.206343053165796 2.481664574125811, 42.125044776581774 3.1121979531508885 M42.28489270250937 1.8724490051997846 C42.24788259141164 2.15949211840067, 42.21087248031391 2.446535231601555, 42.125044776581774 3.1121979531508885 M42.125044776581774 3.1121979531508885 C42.06882377370005 3.4008809206353803, 42.012602770818326 3.6895638881198725, 41.88609428754556 4.339158212148129 M42.125044776581774 3.1121979531508885 C42.04807981750572 3.507396751456543, 41.97111485842968 3.9025955497621982, 41.88609428754556 4.339158212148129 M41.88609428754556 4.339158212148129 C41.794950521370495 4.686728894531799, 41.70380675519543 5.03429957691547, 41.56902313421489 5.548287939305125 M41.88609428754556 4.339158212148129 C41.788973858137474 4.7095205017415225, 41.691853428729395 5.079882791334916, 41.56902313421489 5.548287939305125 M41.56902313421489 5.548287939305125 C41.41879183711669 6.000760670058284, 41.26856054001849 6.453233400811443, 41.175134229970325 6.734618561215495 M41.56902313421489 5.548287939305125 C41.43536402073369 5.950847893422782, 41.30170490725248 6.3534078475404385, 41.175134229970325 6.734618561215495 M41.175134229970325 6.734618561215495 C41.02422336163033 7.107371323678439, 40.873312493290335 7.480124086141384, 40.70604614880834 7.893275190886679 M41.175134229970325 6.734618561215495 C41.00454749787052 7.155971087572112, 40.83396076577072 7.577323613928731, 40.70604614880834 7.893275190886679 M40.70604614880834 7.893275190886679 C40.51452110900482 8.29098103401806, 40.3229960692013 8.68868687714944, 40.163686474273504 9.019496659696284 M40.70604614880834 7.893275190886679 C40.58402492176562 8.146654879676912, 40.46200369472289 8.400034568467145, 40.163686474273504 9.019496659696284 M40.163686474273504 9.019496659696284 C39.943760335628546 9.409997788796815, 39.72383419698358 9.800498917897349, 39.55028387860425 10.108655082055236 M40.163686474273504 9.019496659696284 C39.98699193161538 9.333235712448403, 39.810297388957245 9.646974765200524, 39.55028387860425 10.108655082055236 M39.55028387860425 10.108655082055236 C39.39313692351376 10.350075004940214, 39.23598996842326 10.591494927825192, 38.86835896464064 11.156274872382301 M39.55028387860425 10.108655082055236 C39.29523455808355 10.500479328707144, 39.040185237562845 10.892303575359051, 38.86835896464064 11.156274872382301 M38.86835896464064 11.156274872382301 C38.6567969316895 11.439748722839138, 38.44523489873835 11.723222573295972, 38.12071390812658 12.158051136245302 M38.86835896464064 11.156274872382301 C38.57891687256441 11.544100907047403, 38.28947478048819 11.931926941712502, 38.12071390812658 12.158051136245302 M38.12071390812658 12.158051136245302 C37.83418836917568 12.494620338062067, 37.54766283022477 12.83118953987883, 37.31042094296866 13.10986736009567 M38.12071390812658 12.158051136245302 C37.8183655623997 12.513206707244347, 37.51601721667281 12.86836227824339, 37.31042094296866 13.10986736009567 M37.31042094296866 13.10986736009567 C37.06070544981865 13.367719108796331, 36.810989956668635 13.625570857496992, 36.44080973676799 14.007812326905684 M37.31042094296866 13.10986736009567 C37.123263305563086 13.303122986644725, 36.93610566815751 13.49637861319378, 36.44080973676799 14.007812326905684 M36.44080973676799 14.007812326905684 C36.22648358027551 14.202457671472802, 36.01215742378303 14.397103016039917, 35.51545370850189 14.848196188198111 M36.44080973676799 14.007812326905684 C36.21786962498575 14.21028063775419, 35.994929513203516 14.412748948602697, 35.51545370850189 14.848196188198111 M35.51545370850189 14.848196188198111 C35.26049851880235 15.051516167340955, 35.00554332910282 15.254836146483797, 34.53815534457871 15.627565626425152 M35.51545370850189 14.848196188198111 C35.16662116536617 15.126380858525016, 34.81778862223046 15.40456552885192, 34.53815534457871 15.627565626425152 M34.53815534457871 15.627565626425152 C34.28942900402879 15.801066354403035, 34.04070266347886 15.974567082380918, 33.51293057360571 16.34271804539089 M34.53815534457871 15.627565626425152 C34.27698374999155 15.809747624873047, 34.01581215540439 15.991929623320942, 33.51293057360571 16.34271804539089 M33.51293057360571 16.34271804539089 C33.21199217712352 16.525148669848708, 32.91105378064133 16.70757929430653, 32.44399226407678 16.990714730406093 M33.51293057360571 16.34271804539089 C33.2662689945662 16.492245744148978, 33.01960741552668 16.641773442907063, 32.44399226407678 16.990714730406093 M32.44399226407678 16.990714730406093 C32.182268401459766 17.127255901891257, 31.920544538842748 17.26379707337642, 31.335732912792388 17.56889292409717 M32.44399226407678 16.990714730406093 C32.208127242782865 17.113765360936377, 31.972262221488943 17.236815991466656, 31.335732912792388 17.56889292409717 M31.335732912792388 17.56889292409717 C30.89937713770806 17.762054681692835, 30.463021362623735 17.955216439288503, 30.192706595147804 18.07487676824742 M31.335732912792388 17.56889292409717 C30.88952156214411 17.766417452639736, 30.443310211495838 17.9639419811823, 30.192706595147804 18.07487676824742 M30.192706595147804 18.07487676824742 C29.846736582011353 18.202196931193377, 29.5007665688749 18.329517094139334, 29.019610251460616 18.506587066708033 M30.192706595147804 18.07487676824742 C29.920879569095383 18.174911626576193, 29.649052543042966 18.27494648490497, 29.019610251460616 18.506587066708033 M29.019610251460616 18.506587066708033 C28.624502585685327 18.623852947947682, 28.229394919910035 18.74111882918733, 27.821264386235413 18.86224982926107 M29.019610251460616 18.506587066708033 C28.66016378913357 18.61326888995372, 28.300717326806524 18.719950713199406, 27.821264386235413 18.86224982926107 M27.821264386235413 18.86224982926107 C27.553854533817628 18.923284383063063, 27.28644468139984 18.984318936865055, 26.602593259676766 19.140403561325773 M27.821264386235413 18.86224982926107 C27.427175537161485 18.95219803739212, 27.033086688087554 19.042146245523167, 26.602593259676766 19.140403561325773 M26.602593259676766 19.140403561325773 C26.217459251696315 19.202669040977213, 25.832325243715864 19.264934520628653, 25.36860465284788 19.3399052695533 M26.602593259676766 19.140403561325773 C26.16430641459241 19.211262379473766, 25.726019569508054 19.282121197621755, 25.36860465284788 19.3399052695533 M25.36860465284788 19.3399052695533 C24.930496136036567 19.382169071267505, 24.492387619225255 19.424432872981715, 24.1243692896239 19.45993515863156 M25.36860465284788 19.3399052695533 C25.10357149598848 19.36547269944652, 24.83853833912908 19.39104012933974, 24.1243692896239 19.45993515863156 M24.1243692896239 19.45993515863156 C23.79385192860444 19.470534207086438, 23.463334567584983 19.481133255541316, 22.875000000000004 19.5 M24.1243692896239 19.45993515863156 C23.766471488271552 19.47141224451512, 23.408573686919205 19.482889330398677, 22.875000000000004 19.5 M22.875000000000004 19.5 C22.875000000000004 19.5, 22.875 19.5, 22.875 19.5 M22.875000000000004 19.5 C22.875000000000004 19.5, 22.875000000000004 19.5, 22.875 19.5 M22.875 19.5 C4.6963352056567125 19.5, -13.482329588686575 19.5, -22.874999999999996 19.5 M22.875 19.5 C12.613618572341787 19.5, 2.352237144683574 19.5, -22.874999999999996 19.5 M-22.874999999999996 19.5 C-23.368513863943022 19.484173970949808, -23.86202772788605 19.46834794189962, -24.124369289623893 19.45993515863156 M-22.874999999999996 19.5 C-23.142812718166056 19.491411767394247, -23.41062543633212 19.482823534788494, -24.124369289623893 19.45993515863156 M-24.124369289623893 19.45993515863156 C-24.393362635852736 19.433985694032692, -24.66235598208158 19.408036229433826, -25.36860465284787 19.3399052695533 M-24.124369289623893 19.45993515863156 C-24.590525311248268 19.414965647860097, -25.05668133287264 19.36999613708863, -25.36860465284787 19.3399052695533 M-25.36860465284787 19.3399052695533 C-25.762779966123244 19.276178061778143, -26.15695527939862 19.21245085400299, -26.60259325967676 19.140403561325773 M-25.36860465284787 19.3399052695533 C-25.861485283158476 19.260220151591053, -26.354365913469078 19.18053503362881, -26.60259325967676 19.140403561325773 M-26.60259325967676 19.140403561325773 C-27.089319890043466 19.029311384132665, -27.57604652041017 18.918219206939558, -27.821264386235388 18.862249829261074 M-26.60259325967676 19.140403561325773 C-26.988402797549753 19.052345051948784, -27.374212335422747 18.96428654257179, -27.821264386235388 18.862249829261074 M-27.821264386235388 18.862249829261074 C-28.131620883429232 18.77013764998844, -28.44197738062308 18.678025470715802, -29.01961025146059 18.506587066708043 M-27.821264386235388 18.862249829261074 C-28.212347587429853 18.746178387984173, -28.60343078862432 18.63010694670727, -29.01961025146059 18.506587066708043 M-29.01961025146059 18.506587066708043 C-29.452516501856515 18.34727356482083, -29.885422752252435 18.187960062933623, -30.192706595147797 18.074876768247425 M-29.01961025146059 18.506587066708043 C-29.486359367817954 18.334819077307, -29.953108484175317 18.163051087905956, -30.192706595147797 18.074876768247425 M-30.192706595147797 18.074876768247425 C-30.467816657591417 17.953093704453682, -30.742926720035037 17.831310640659936, -31.33573291279238 17.568892924097174 M-30.192706595147797 18.074876768247425 C-30.597775271847 17.895564881008056, -31.0028439485462 17.716252993768688, -31.33573291279238 17.568892924097174 M-31.33573291279238 17.568892924097174 C-31.596465260402823 17.432869025355846, -31.857197608013262 17.29684512661452, -32.44399226407678 16.990714730406097 M-31.33573291279238 17.568892924097174 C-31.65356889027398 17.403078098228683, -31.971404867755584 17.23726327236019, -32.44399226407678 16.990714730406097 M-32.44399226407678 16.990714730406097 C-32.86217291586671 16.737211161788753, -33.28035356765664 16.48370759317141, -33.512930573605686 16.3427180453909 M-32.44399226407678 16.990714730406097 C-32.68769422761704 16.842981167956292, -32.93139619115728 16.695247605506488, -33.512930573605686 16.3427180453909 M-33.512930573605686 16.3427180453909 C-33.756049376267754 16.173128893097186, -33.99916817892983 16.00353974080347, -34.53815534457871 15.627565626425156 M-33.512930573605686 16.3427180453909 C-33.81029611971018 16.13528871317542, -34.10766166581468 15.927859380959944, -34.53815534457871 15.627565626425156 M-34.53815534457871 15.627565626425156 C-34.86116910579524 15.369970747612157, -35.18418286701177 15.112375868799159, -35.515453708501866 14.848196188198125 M-34.53815534457871 15.627565626425156 C-34.86630849422763 15.365872222102194, -35.19446164387656 15.104178817779234, -35.515453708501866 14.848196188198125 M-35.515453708501866 14.848196188198125 C-35.76534064440792 14.621255484654263, -36.015227580313976 14.394314781110403, -36.440809736767974 14.007812326905697 M-35.515453708501866 14.848196188198125 C-35.77968675632612 14.608226725387475, -36.04391980415038 14.368257262576822, -36.440809736767974 14.007812326905697 M-36.440809736767974 14.007812326905697 C-36.647417196807304 13.79447316162716, -36.854024656846626 13.581133996348623, -37.310420942968655 13.109867360095677 M-36.440809736767974 14.007812326905697 C-36.62189097967197 13.820831076560792, -36.80297222257596 13.633849826215888, -37.310420942968655 13.109867360095677 M-37.310420942968655 13.109867360095677 C-37.53242263800953 12.849091536846359, -37.7544243330504 12.588315713597042, -38.120713908126575 12.158051136245307 M-37.310420942968655 13.109867360095677 C-37.570380837754904 12.804503675542694, -37.830340732541146 12.499139990989713, -38.120713908126575 12.158051136245307 M-38.120713908126575 12.158051136245307 C-38.35352007930039 11.8461120759509, -38.58632625047421 11.534173015656494, -38.868358964640635 11.156274872382316 M-38.120713908126575 12.158051136245307 C-38.32112418490073 11.889519623119751, -38.52153446167489 11.620988109994196, -38.868358964640635 11.156274872382316 M-38.868358964640635 11.156274872382316 C-39.116214392234355 10.77550237709699, -39.36406981982807 10.394729881811665, -39.55028387860425 10.108655082055249 M-38.868358964640635 11.156274872382316 C-39.02730774464372 10.912086862573865, -39.1862565246468 10.667898852765415, -39.55028387860425 10.108655082055249 M-39.55028387860425 10.108655082055249 C-39.71150956346276 9.822382552718047, -39.87273524832128 9.536110023380846, -40.163686474273504 9.019496659696289 M-39.55028387860425 10.108655082055249 C-39.79379289906339 9.676280158267904, -40.03730191952253 9.243905234480561, -40.163686474273504 9.019496659696289 M-40.163686474273504 9.019496659696289 C-40.29971158788985 8.737037600800761, -40.4357367015062 8.454578541905232, -40.70604614880834 7.893275190886686 M-40.163686474273504 9.019496659696289 C-40.351181296192706 8.63015965023454, -40.53867611811191 8.240822640772794, -40.70604614880834 7.893275190886686 M-40.70604614880834 7.893275190886686 C-40.87646155137796 7.472345851782071, -41.04687695394757 7.051416512677456, -41.175134229970325 6.73461856121551 M-40.70604614880834 7.893275190886686 C-40.8478919406744 7.542913342575692, -40.98973773254046 7.192551494264698, -41.175134229970325 6.73461856121551 M-41.175134229970325 6.73461856121551 C-41.268946072259666 6.452072239127256, -41.36275791454901 6.169525917039002, -41.56902313421488 5.5482879393051325 M-41.175134229970325 6.73461856121551 C-41.26751227818455 6.456390598437453, -41.35989032639877 6.1781626356593975, -41.56902313421488 5.5482879393051325 M-41.56902313421488 5.5482879393051325 C-41.68350848811825 5.111705666605336, -41.79799384202162 4.6751233939055385, -41.88609428754556 4.339158212148136 M-41.56902313421488 5.5482879393051325 C-41.63318620849843 5.303606328609655, -41.69734928278198 5.058924717914179, -41.88609428754556 4.339158212148136 M-41.88609428754556 4.339158212148136 C-41.95832441165641 3.9682717906810536, -42.03055453576726 3.5973853692139715, -42.125044776581774 3.112197953150904 M-41.88609428754556 4.339158212148136 C-41.94573127363468 4.032934892861994, -42.005368259723795 3.7267115735758534, -42.125044776581774 3.112197953150904 M-42.125044776581774 3.112197953150904 C-42.18285144205846 2.6638608709310043, -42.24065810753514 2.215523788711105, -42.28489270250937 1.872449005199809 M-42.125044776581774 3.112197953150904 C-42.164596762911145 2.8054405576034416, -42.20414874924052 2.4986831620559786, -42.28489270250937 1.872449005199809 M-42.28489270250937 1.872449005199809 C-42.301573489643026 1.6126322811040785, -42.31825427677668 1.352815557008348, -42.36498121591342 0.6250057626472781 M-42.28489270250937 1.872449005199809 C-42.30963180688623 1.487117485484556, -42.33437091126309 1.1017859657693028, -42.36498121591342 0.6250057626472781 M-42.36498121591342 0.6250057626472781 C-42.36498121591342 0.29333898670620556, -42.36498121591342 -0.038327789234867016, -42.36498121591342 -0.6250057626472687 M-42.36498121591342 0.6250057626472781 C-42.36498121591342 0.32279058236096086, -42.36498121591342 0.02057540207464359, -42.36498121591342 -0.6250057626472687 M-42.36498121591342 -0.6250057626472687 C-42.34500796110579 -0.936105328397131, -42.32503470629817 -1.2472048941469933, -42.28489270250937 -1.8724490051997822 M-42.36498121591342 -0.6250057626472687 C-42.3381412931857 -1.0430592239271506, -42.31130137045798 -1.4611126852070322, -42.28489270250937 -1.8724490051997822 M-42.28489270250937 -1.8724490051997822 C-42.2278433497608 -2.3149125194487032, -42.17079399701224 -2.7573760336976245, -42.125044776581774 -3.112197953150895 M-42.28489270250937 -1.8724490051997822 C-42.23006357017993 -2.2976929283100604, -42.17523443785049 -2.722936851420339, -42.125044776581774 -3.112197953150895 M-42.125044776581774 -3.112197953150895 C-42.06945051280477 -3.3976627477940085, -42.01385624902777 -3.6831275424371217, -41.88609428754556 -4.339158212148126 M-42.125044776581774 -3.112197953150895 C-42.06969847114985 -3.396389534098051, -42.014352165717916 -3.6805811150452072, -41.88609428754556 -4.339158212148126 M-41.88609428754556 -4.339158212148126 C-41.818821905377895 -4.5956969613883, -41.75154952321023 -4.852235710628474, -41.56902313421489 -5.548287939305123 M-41.88609428754556 -4.339158212148126 C-41.770709224980635 -4.779171463910655, -41.6553241624157 -5.219184715673182, -41.56902313421489 -5.548287939305123 M-41.56902313421489 -5.548287939305123 C-41.452522635419264 -5.899168879843795, -41.33602213662365 -6.250049820382467, -41.17513422997033 -6.734618561215485 M-41.56902313421489 -5.548287939305123 C-41.44794783099452 -5.912947461875023, -41.32687252777416 -6.2776069844449225, -41.17513422997033 -6.734618561215485 M-41.17513422997033 -6.734618561215485 C-41.07347864272154 -6.985709827097086, -40.97182305547274 -7.236801092978687, -40.70604614880834 -7.893275190886676 M-41.17513422997033 -6.734618561215485 C-41.021499124704974 -7.114100241553606, -40.867864019439615 -7.493581921891728, -40.70604614880834 -7.893275190886676 M-40.70604614880834 -7.893275190886676 C-40.558234300623454 -8.200209656309493, -40.410422452438574 -8.507144121732312, -40.163686474273504 -9.019496659696282 M-40.70604614880834 -7.893275190886676 C-40.50776289898153 -8.305014601733948, -40.309479649154724 -8.716754012581218, -40.163686474273504 -9.019496659696282 M-40.163686474273504 -9.019496659696282 C-40.02108600078244 -9.272698240243411, -39.878485527291375 -9.52589982079054, -39.55028387860425 -10.108655082055243 M-40.163686474273504 -9.019496659696282 C-39.995952532088744 -9.317325258948754, -39.828218589903976 -9.615153858201227, -39.55028387860425 -10.108655082055243 M-39.55028387860425 -10.108655082055243 C-39.28988183272617 -10.508702552264106, -39.02947978684808 -10.908750022472969, -38.86835896464064 -11.156274872382308 M-39.55028387860425 -10.108655082055243 C-39.315814912668394 -10.468862377465827, -39.08134594673253 -10.82906967287641, -38.86835896464064 -11.156274872382308 M-38.86835896464064 -11.156274872382308 C-38.6933208177476 -11.390810042915763, -38.518282670854546 -11.62534521344922, -38.12071390812659 -12.158051136245302 M-38.86835896464064 -11.156274872382308 C-38.60745857152965 -11.505857630636267, -38.346558178418654 -11.855440388890226, -38.12071390812659 -12.158051136245302 M-38.12071390812659 -12.158051136245302 C-37.865912629288495 -12.457355216972015, -37.61111135045041 -12.756659297698729, -37.31042094296866 -13.10986736009567 M-38.12071390812659 -12.158051136245302 C-37.89370684361722 -12.424706551285905, -37.666699779107844 -12.691361966326506, -37.31042094296866 -13.10986736009567 M-37.31042094296866 -13.10986736009567 C-37.06759486641661 -13.36060522052731, -36.82476878986457 -13.61134308095895, -36.440809736767996 -14.007812326905677 M-37.31042094296866 -13.10986736009567 C-37.06375620888036 -13.364568949593133, -36.817091474792065 -13.619270539090596, -36.440809736767996 -14.007812326905677 M-36.440809736767996 -14.007812326905677 C-36.174650014674334 -14.249531544310797, -35.908490292580666 -14.491250761715916, -35.51545370850189 -14.848196188198107 M-36.440809736767996 -14.007812326905677 C-36.24730762237717 -14.183545827410029, -36.053805507986354 -14.359279327914383, -35.51545370850189 -14.848196188198107 M-35.51545370850189 -14.848196188198107 C-35.315349000650365 -15.007774367699787, -35.11524429279884 -15.167352547201464, -34.53815534457872 -15.627565626425149 M-35.51545370850189 -14.848196188198107 C-35.275724967886006 -15.039373479389567, -35.03599622727012 -15.23055077058103, -34.53815534457872 -15.627565626425149 M-34.53815534457872 -15.627565626425149 C-34.203438710852865 -15.861049460462764, -33.86872207712701 -16.09453329450038, -33.512930573605715 -16.342718045390885 M-34.53815534457872 -15.627565626425149 C-34.240791554903 -15.83499373343195, -33.94342776522728 -16.042421840438752, -33.512930573605715 -16.342718045390885 M-33.512930573605715 -16.342718045390885 C-33.13275903571228 -16.573180265797827, -32.752587497818844 -16.80364248620477, -32.44399226407679 -16.99071473040609 M-33.512930573605715 -16.342718045390885 C-33.10757893812127 -16.588444588932173, -32.70222730263683 -16.834171132473465, -32.44399226407679 -16.99071473040609 M-32.44399226407679 -16.99071473040609 C-32.19373168321329 -17.121275515143026, -31.943471102349786 -17.25183629987996, -31.335732912792388 -17.56889292409717 M-32.44399226407679 -16.99071473040609 C-32.100708758065004 -17.16980551560886, -31.757425252053217 -17.348896300811628, -31.335732912792388 -17.56889292409717 M-31.335732912792388 -17.56889292409717 C-31.039782342518578 -17.69990146249564, -30.74383177224477 -17.830910000894107, -30.192706595147804 -18.07487676824742 M-31.335732912792388 -17.56889292409717 C-31.09288541592205 -17.676394307146627, -30.85003791905171 -17.783895690196083, -30.192706595147804 -18.07487676824742 M-30.192706595147804 -18.07487676824742 C-29.90458590030614 -18.18090784730766, -29.61646520546448 -18.2869389263679, -29.01961025146062 -18.506587066708033 M-30.192706595147804 -18.07487676824742 C-29.901856545060447 -18.18191227526796, -29.61100649497309 -18.288947782288496, -29.01961025146062 -18.506587066708033 M-29.01961025146062 -18.506587066708033 C-28.55073422530315 -18.645747010091085, -28.08185819914568 -18.784906953474138, -27.821264386235413 -18.862249829261067 M-29.01961025146062 -18.506587066708033 C-28.654306704584336 -18.615007241903466, -28.289003157708052 -18.7234274170989, -27.821264386235413 -18.862249829261067 M-27.821264386235413 -18.862249829261067 C-27.513797354758644 -18.93242717278575, -27.206330323281875 -19.002604516310434, -26.602593259676766 -19.140403561325773 M-27.821264386235413 -18.862249829261067 C-27.460405761404935 -18.944613455556027, -27.099547136574454 -19.026977081850987, -26.602593259676766 -19.140403561325773 M-26.602593259676766 -19.140403561325773 C-26.302278790431437 -19.188956075739867, -26.001964321186108 -19.237508590153958, -25.368604652847882 -19.3399052695533 M-26.602593259676766 -19.140403561325773 C-26.131254160821914 -19.216606011539323, -25.659915061967066 -19.292808461752873, -25.368604652847882 -19.3399052695533 M-25.368604652847882 -19.3399052695533 C-24.986808590191842 -19.37673667654078, -24.6050125275358 -19.413568083528265, -24.124369289623903 -19.45993515863156 M-25.368604652847882 -19.3399052695533 C-24.888493070135723 -19.386221056518885, -24.40838148742356 -19.432536843484467, -24.124369289623903 -19.45993515863156 M-24.124369289623903 -19.45993515863156 C-23.822845929292807 -19.469604425917762, -23.52132256896171 -19.47927369320396, -22.875000000000007 -19.5 M-24.124369289623903 -19.45993515863156 C-23.678626845780418 -19.474229251220585, -23.232884401936932 -19.48852334380961, -22.875000000000007 -19.5 M-22.875000000000007 -19.5 C-22.875000000000004 -19.5, -22.875000000000004 -19.5, -22.875 -19.5 M-22.875000000000007 -19.5 C-22.875000000000004 -19.5, -22.875000000000004 -19.5, -22.875 -19.5" stroke="#89b4fa" stroke-width="1.3" fill="none" stroke-dasharray="0 0" style="fill:#89b4fa !important;stroke:#89b4fa !important"/></g><g class="label" style="color:#1e1e2e !important;font-weight:bold !important" transform="translate(-30, -12)"><rect/><foreignObject width="60" height="24"><div style="color: rgb(30, 30, 46) !important; font-weight: bold !important; display: table-cell; white-space: nowrap; line-height: 1.5; max-width: 200px; text-align: center;" xmlns="http://www.w3.org/1999/xhtml"><span style="color:#1e1e2e !important;font-weight:bold !important" class="nodeLabel "><p>deploy</p></span></div></foreignObject></g></g><g class="node default den__provides__define_user_c " id="my-svg-flowchart-den__provides__define_user-1" data-look="classic" transform="translate(151, 117.5)"><polygon points="-31.5,0 246.5,0 215,-63 0,-63" class="label-container" transform="translate(-107.5,31.5)" style="fill:#a6e3a1 !important;stroke:#a6e3a1 !important;stroke-dasharray:3 3 !important;stroke-width:1px !important"/><g class="label" style="color:#1e1e2e !important" transform="translate(-100, -24)"><rect/><foreignObject width="200" height="48"><div style="color: rgb(30, 30, 46) !important; display: table; white-space: break-spaces; line-height: 1.5; max-width: 200px; text-align: center; width: 200px;" xmlns="http://www.w3.org/1999/xhtml"><span style="color:#1e1e2e !important" class="nodeLabel "><p>provides/define-user · default</p></span></div></foreignObject></g></g><g class="node default den__provides__hostname_c " id="my-svg-flowchart-den__provides__hostname-2" data-look="classic" transform="translate(151, 215.5)"><polygon points="-31.5,0 246.5,0 215,-63 0,-63" class="label-container" transform="translate(-107.5,31.5)" style="fill:#fab387 !important;stroke:#fab387 !important;stroke-dasharray:3 3 !important;stroke-width:1px !important"/><g class="label" style="color:#1e1e2e !important" transform="translate(-100, -24)"><rect/><foreignObject width="200" height="48"><div style="color: rgb(30, 30, 46) !important; display: table; white-space: break-spaces; line-height: 1.5; max-width: 200px; text-align: center; width: 200px;" xmlns="http://www.w3.org/1999/xhtml"><span style="color:#1e1e2e !important" class="nodeLabel "><p>provides/hostname · default</p></span></div></foreignObject></g></g><g class="node default den__provides__mutual_provider_c " id="my-svg-flowchart-den__provides__mutual_provider-3" data-look="classic" transform="translate(151, 313.5)"><polygon points="-31.5,0 246.5,0 215,-63 0,-63" class="label-container" transform="translate(-107.5,31.5)" style="fill:#f9e2af !important;stroke:#f9e2af !important;stroke-dasharray:3 3 !important;stroke-width:1px !important"/><g class="label" style="color:#1e1e2e !important" transform="translate(-100, -24)"><rect/><foreignObject width="200" height="48"><div style="color: rgb(30, 30, 46) !important; display: table; white-space: break-spaces; line-height: 1.5; max-width: 200px; text-align: center; width: 200px;" xmlns="http://www.w3.org/1999/xhtml"><span style="color:#1e1e2e !important" class="nodeLabel "><p>provides/mutual-provider · default</p></span></div></foreignObject></g></g></g><g class="edges edgePaths"/><g class="edgeLabels"/></svg>