<?xml version="1.0" encoding="UTF-8" standalone="no"?>
<!DOCTYPE svg PUBLIC "-//W3C//DTD SVG 1.1//EN"
 "http://www.w3.org/Graphics/SVG/1.1/DTD/svg11.dtd">
<!-- Generated by graphviz version 12.2.1 (0)
 -->
<!-- Pages: 1 -->
<svg width="2768pt" height="342pt"
 viewBox="0.00 0.00 2768.45 342.31" xmlns="http://www.w3.org/2000/svg" xmlns:xlink="http://www.w3.org/1999/xlink">
<g id="graph0" class="graph" transform="scale(1 1) rotate(0) translate(4 338.31)">
<polygon fill="#1e1e2e" stroke="none" points="-4,4 -4,-338.31 2764.45,-338.31 2764.45,4 -4,4"/>
<g id="clust1" class="cluster">
<title>cluster_ctx_user</title>
<polygon fill="#313244" stroke="#6c7086" stroke-dasharray="5,2" points="8,-177.31 8,-326.31 454.25,-326.31 454.25,-177.31 8,-177.31"/>
<text text-anchor="middle" x="231.12" y="-309.01" font-family="Times,serif" font-size="14.00" fill="#cdd6f4">user</text>
</g>
<g id="clust2" class="cluster">
<title>cluster_ctx_default</title>
<polygon fill="#313244" stroke="#6c7086" stroke-dasharray="5,2" points="474.25,-65.31 474.25,-250.31 2752.45,-250.31 2752.45,-65.31 474.25,-65.31"/>
<text text-anchor="middle" x="1613.35" y="-233.01" font-family="Times,serif" font-size="14.00" fill="#cdd6f4">default</text>
</g>
<!-- deploy -->
<g id="node1" class="node">
<title>deploy</title>
<path fill="#89b4fa" stroke="#89b4fa" d="M357.38,-71.31C357.38,-71.31 318.12,-71.31 318.12,-71.31 312.12,-71.31 306.12,-65.31 306.12,-59.31 306.12,-59.31 306.12,-47.31 306.12,-47.31 306.12,-41.31 312.12,-35.31 318.12,-35.31 318.12,-35.31 357.38,-35.31 357.38,-35.31 363.38,-35.31 369.38,-41.31 369.38,-47.31 369.38,-47.31 369.38,-59.31 369.38,-59.31 369.38,-65.31 363.38,-71.31 357.38,-71.31"/>
<text text-anchor="middle" x="337.75" y="-48.63" font-family="Times,serif" font-size="14.00" fill="#1e1e2e">deploy</text>
</g>
<!-- user__self_provide_user_ -->
<g id="node5" class="node">
<title>user__self_provide_user_</title>
<polygon fill="#f2cdcd" stroke="#f2cdcd" points="193.25,-221.31 16,-221.31 16,-185.31 193.25,-185.31 193.25,-221.31"/>
<text text-anchor="middle" x="104.62" y="-198.63" font-family="Times,serif" font-size="14.00" fill="#1e1e2e">user/self&#45;provide(user)</text>
</g>
<!-- deploy&#45;&gt;user__self_provide_user_ -->
<g id="edge17" class="edge">
<title>deploy&#45;&gt;user__self_provide_user_</title>
<path fill="none" stroke="#a6adc8" d="M306.01,-65.9C283.63,-72.1 253.17,-80.43 229.25,-94.31 191.37,-116.29 156.08,-152.15 132.98,-176.85"/>
<polygon fill="#a6adc8" stroke="#a6adc8" points="130.6,-174.26 126.36,-183.97 135.73,-179.03 130.6,-174.26"/>
</g>
<!-- user -->
<g id="node2" class="node">
<title>user</title>
<polygon fill="#f2cdcd" stroke="#f2cdcd" points="131.62,-275.31 77.62,-275.31 77.62,-239.31 131.62,-239.31 131.62,-275.31"/>
<text text-anchor="middle" x="104.62" y="-252.63" font-family="Times,serif" font-size="14.00" fill="#1e1e2e">user</text>
</g>
<!-- user&#45;&gt;deploy -->
<g id="edge21" class="edge">
<title>user&#45;&gt;deploy</title>
<path fill="none" stroke="#a6adc8" d="M131.81,-255.94C151.38,-253.51 177.39,-247.08 193.25,-230.31 238.88,-182.07 183.39,-133.33 229.25,-85.31 246.09,-67.68 272.16,-59.64 294.41,-56.03"/>
<polygon fill="#a6adc8" stroke="#a6adc8" points="294.69,-59.52 304.13,-54.72 293.75,-52.58 294.69,-59.52"/>
</g>
<!-- user&#45;&gt;user -->
<g id="edge22" class="edge">
<title>user&#45;&gt;user</title>
<path fill="none" stroke="#a6adc8" d="M77.15,-265.44C48.57,-277.77 57.73,-293.31 104.62,-293.31 144.93,-293.31 157.36,-281.83 141.92,-270.78"/>
<polygon fill="#a6adc8" stroke="#a6adc8" points="143.89,-267.87 133.43,-266.17 140.55,-274.02 143.89,-267.87"/>
</g>
<!-- user__aspect_user_ -->
<g id="node3" class="node">
<title>user__aspect_user_</title>
<polygon fill="#fab387" stroke="#fab387" points="408,-239.31 267.5,-239.31 267.5,-203.31 408,-203.31 408,-239.31"/>
<text text-anchor="middle" x="337.75" y="-216.63" font-family="Times,serif" font-size="14.00" fill="#1e1e2e">user/aspect(user)</text>
</g>
<!-- user&#45;&gt;user__aspect_user_ -->
<g id="edge23" class="edge">
<title>user&#45;&gt;user__aspect_user_</title>
<path fill="none" stroke="#a6adc8" d="M131.69,-248.79C161.77,-242.04 212.7,-233.44 256.28,-227.38"/>
<polygon fill="#a6adc8" stroke="#a6adc8" points="256.54,-230.87 265.97,-226.06 255.59,-223.94 256.54,-230.87"/>
</g>
<!-- user__cross_provide__anon__ -->
<g id="node4" class="node">
<title>user__cross_provide__anon__</title>
<polygon fill="#f38ba8" stroke="#f38ba8" points="446.25,-293.31 229.25,-293.31 229.25,-257.31 446.25,-257.31 446.25,-293.31"/>
<text text-anchor="middle" x="337.75" y="-270.63" font-family="Times,serif" font-size="14.00" fill="#1e1e2e">user/cross&#45;provide(&lt;anon&gt;)</text>
</g>
<!-- user&#45;&gt;user__cross_provide__anon__ -->
<g id="edge24" class="edge">
<title>user&#45;&gt;user__cross_provide__anon__</title>
<path fill="none" stroke="#a6adc8" d="M131.69,-259.34C153.07,-261 184.99,-263.49 217.32,-266.01"/>
<polygon fill="#a6adc8" stroke="#a6adc8" points="217,-269.49 227.24,-266.78 217.55,-262.51 217,-269.49"/>
</g>
<!-- n_default -->
<g id="node6" class="node">
<title>n_default</title>
<polygon fill="#fab387" stroke="#fab387" points="622.75,-217.31 556.5,-217.31 556.5,-181.31 622.75,-181.31 622.75,-217.31"/>
<text text-anchor="middle" x="589.62" y="-194.63" font-family="Times,serif" font-size="14.00" fill="#1e1e2e">default</text>
</g>
<!-- user&#45;&gt;n_default -->
<g id="edge18" class="edge">
<title>user&#45;&gt;n_default</title>
<path fill="none" stroke="#a6adc8" d="M131.93,-252.7C150.09,-248.7 174.3,-241.73 193.25,-230.31 212.63,-218.63 208.34,-202.97 229.25,-194.31 335.6,-150.26 475.3,-172.29 545.05,-188.04"/>
<polygon fill="#a6adc8" stroke="#a6adc8" points="544.03,-191.4 554.56,-190.26 545.61,-184.58 544.03,-191.4"/>
</g>
<!-- default__cross_provide_user_ -->
<g id="node9" class="node">
<title>default__cross_provide_user_</title>
<polygon fill="#f9e2af" stroke="#f9e2af" points="694,-163.31 485.25,-163.31 485.25,-127.31 694,-127.31 694,-163.31"/>
<text text-anchor="middle" x="589.62" y="-140.63" font-family="Times,serif" font-size="14.00" fill="#1e1e2e">default/cross&#45;provide(user)</text>
</g>
<!-- user&#45;&gt;default__cross_provide_user_ -->
<g id="edge19" class="edge">
<title>user&#45;&gt;default__cross_provide_user_</title>
<path fill="none" stroke="#a6adc8" d="M131.87,-254.52C150.7,-251.36 175.75,-244.61 193.25,-230.31 219.12,-209.16 200.98,-182.12 229.25,-164.31 305.21,-116.46 409.11,-116.34 485.66,-125.44"/>
<polygon fill="#a6adc8" stroke="#a6adc8" points="484.89,-128.87 495.25,-126.66 485.77,-121.93 484.89,-128.87"/>
</g>
<!-- default__self_provide_default_ -->
<g id="node10" class="node">
<title>default__self_provide_default_</title>
<polygon fill="#fab387" stroke="#fab387" points="697,-109.31 482.25,-109.31 482.25,-73.31 697,-73.31 697,-109.31"/>
<text text-anchor="middle" x="589.62" y="-86.63" font-family="Times,serif" font-size="14.00" fill="#1e1e2e">default/self&#45;provide(default)</text>
</g>
<!-- user&#45;&gt;default__self_provide_default_ -->
<g id="edge20" class="edge">
<title>user&#45;&gt;default__self_provide_default_</title>
<path fill="none" stroke="#a6adc8" d="M131.93,-255.6C151.29,-252.98 176.98,-246.46 193.25,-230.31 230.95,-192.87 187.51,-149.19 229.25,-116.31 265.65,-87.64 380.29,-83.78 470.42,-85.62"/>
<polygon fill="#a6adc8" stroke="#a6adc8" points="470.25,-89.11 480.33,-85.85 470.41,-82.12 470.25,-89.11"/>
</g>
<!-- user__aspect_user_&#45;&gt;user -->
<g id="edge25" class="edge">
<title>user__aspect_user_&#45;&gt;user</title>
<path fill="none" stroke="#a6adc8" d="M267.47,-238.34C226.55,-245.66 176.36,-253.1 142.82,-256.63"/>
<polygon fill="#a6adc8" stroke="#a6adc8" points="142.81,-253.12 133.2,-257.57 143.49,-260.08 142.81,-253.12"/>
</g>
<!-- user__cross_provide__anon__&#45;&gt;n_default -->
<g id="edge26" class="edge">
<title>user__cross_provide__anon__&#45;&gt;n_default</title>
<path fill="none" stroke="#a6adc8" d="M422.96,-256.87C433.55,-254.18 444.19,-251.31 454.25,-248.31 485.17,-239.09 519.32,-226.61 545.46,-216.55"/>
<polygon fill="#a6adc8" stroke="#a6adc8" points="546.67,-219.83 554.72,-212.95 544.13,-213.31 546.67,-219.83"/>
</g>
<!-- user__self_provide_user_&#45;&gt;deploy -->
<g id="edge27" class="edge">
<title>user__self_provide_user_&#45;&gt;deploy</title>
<path fill="none" stroke="#a6adc8" d="M115.7,-185.03C135.07,-156.98 179.98,-104.9 229.25,-76.31 249.34,-64.65 274.04,-56.91 294.7,-52.88"/>
<polygon fill="#a6adc8" stroke="#a6adc8" points="295.24,-56.34 304.52,-51.23 294.08,-49.43 295.24,-56.34"/>
</g>
<!-- default__aspect_default_ -->
<g id="node7" class="node">
<title>default__aspect_default_</title>
<polygon fill="#a6e3a1" stroke="#a6e3a1" points="911,-180.31 733,-180.31 733,-144.31 911,-144.31 911,-180.31"/>
<text text-anchor="middle" x="822" y="-157.63" font-family="Times,serif" font-size="14.00" fill="#1e1e2e">default/aspect(default)</text>
</g>
<!-- n_default&#45;&gt;default__aspect_default_ -->
<g id="edge1" class="edge">
<title>n_default&#45;&gt;default__aspect_default_</title>
<path fill="none" stroke="#a6adc8" d="M623.14,-194.09C648.77,-189.97 685.94,-184 721.16,-178.34"/>
<polygon fill="#a6adc8" stroke="#a6adc8" points="721.7,-181.8 731.02,-176.76 720.59,-174.89 721.7,-181.8"/>
</g>
<!-- den__provides__define_user -->
<g id="node11" class="node">
<title>den__provides__define_user</title>
<polygon fill="#a6e3a1" stroke="#a6e3a1" points="1537.87,-188.31 1350.73,-188.31 1284.08,-152.31 1604.51,-152.31 1537.87,-188.31"/>
<text text-anchor="middle" x="1444.3" y="-165.63" font-family="Times,serif" font-size="14.00" fill="#1e1e2e">provides/define&#45;user</text>
</g>
<!-- n_default&#45;&gt;den__provides__define_user -->
<g id="edge2" class="edge">
<title>n_default&#45;&gt;den__provides__define_user</title>
<path fill="none" stroke="#a6adc8" d="M623.08,-195.77C645.1,-192.28 674.23,-185.46 697,-172.31 716.87,-160.83 711.86,-144.23 733,-135.31 833.7,-92.78 1134.94,-125.84 1311.11,-150.26"/>
<polygon fill="#a6adc8" stroke="#a6adc8" points="1310.38,-153.69 1320.77,-151.6 1311.35,-146.75 1310.38,-153.69"/>
</g>
<!-- den__provides__hostname -->
<g id="node12" class="node">
<title>den__provides__hostname</title>
<polygon fill="#fab387" stroke="#fab387" points="1185.46,-217.31 1009.62,-217.31 947,-181.31 1248.08,-181.31 1185.46,-217.31"/>
<text text-anchor="middle" x="1097.54" y="-194.63" font-family="Times,serif" font-size="14.00" fill="#1e1e2e">provides/hostname</text>
</g>
<!-- n_default&#45;&gt;den__provides__hostname -->
<g id="edge3" class="edge">
<title>n_default&#45;&gt;den__provides__hostname</title>
<path fill="none" stroke="#a6adc8" d="M623.04,-199.31C690.85,-199.31 850.89,-199.31 966.16,-199.31"/>
<polygon fill="#a6adc8" stroke="#a6adc8" points="966.01,-202.81 976.01,-199.31 966.01,-195.81 966.01,-202.81"/>
</g>
<!-- den__provides__mutual_provider -->
<g id="node13" class="node">
<title>den__provides__mutual_provider</title>
<polygon fill="#f9e2af" stroke="#f9e2af" points="1950.87,-151.31 1722.02,-151.31 1640.51,-115.31 2032.37,-115.31 1950.87,-151.31"/>
<text text-anchor="middle" x="1836.44" y="-128.63" font-family="Times,serif" font-size="14.00" fill="#1e1e2e">provides/mutual&#45;provider</text>
</g>
<!-- n_default&#45;&gt;den__provides__mutual_provider -->
<g id="edge4" class="edge">
<title>n_default&#45;&gt;den__provides__mutual_provider</title>
<path fill="none" stroke="#a6adc8" d="M623.21,-190.03C645.84,-185.88 675.65,-179.31 697,-163.31 722.19,-144.43 705.66,-117.92 733,-102.31 1087.62,100.18 1616.72,-50.06 1783.3,-111"/>
<polygon fill="#a6adc8" stroke="#a6adc8" points="1781.73,-114.15 1792.32,-114.35 1784.16,-107.59 1781.73,-114.15"/>
</g>
<!-- default__aspect_default_&#45;&gt;den__provides__define_user -->
<g id="edge5" class="edge">
<title>default__aspect_default_&#45;&gt;den__provides__define_user</title>
<path fill="none" stroke="#a6adc8" d="M911.22,-158.56C1009.96,-157.75 1171.74,-159.5 1291.03,-162.44"/>
<polygon fill="#a6adc8" stroke="#a6adc8" points="1290.84,-165.94 1300.92,-162.69 1291.02,-158.94 1290.84,-165.94"/>
</g>
<!-- default__aspect_default_&#45;&gt;den__provides__hostname -->
<g id="edge6" class="edge">
<title>default__aspect_default_&#45;&gt;den__provides__hostname</title>
<path fill="none" stroke="#a6adc8" d="M911.43,-167.91C938.32,-171.1 968.07,-175.06 995.71,-179.13"/>
<polygon fill="#a6adc8" stroke="#a6adc8" points="995.1,-182.58 1005.51,-180.6 996.14,-175.66 995.1,-182.58"/>
</g>
<!-- default__aspect_default_&#45;&gt;den__provides__mutual_provider -->
<g id="edge7" class="edge">
<title>default__aspect_default_&#45;&gt;den__provides__mutual_provider</title>
<path fill="none" stroke="#a6adc8" d="M911.37,-151.34C1004.17,-144.74 1154.35,-138.16 1284.08,-134.31 1408.28,-130.62 1548.26,-128.11 1656.09,-127.69"/>
<polygon fill="#a6adc8" stroke="#a6adc8" points="1655.92,-131.19 1665.9,-127.66 1655.89,-124.19 1655.92,-131.19"/>
</g>
<!-- den__provides__default__aspect_default__den__provides -->
<g id="node8" class="node">
<title>den__provides__default__aspect_default__den__provides</title>
<polygon fill="#a6e3a1" stroke="#a6e3a1" points="2603.83,-188.31 2208.99,-188.31 2068.37,-152.31 2744.45,-152.31 2603.83,-188.31"/>
<text text-anchor="middle" x="2406.41" y="-165.63" font-family="Times,serif" font-size="14.00" fill="#1e1e2e">provides/default/aspect(default):den/provides</text>
</g>
<!-- den__provides__define_user&#45;&gt;default__aspect_default_ -->
<g id="edge8" class="edge">
<title>den__provides__define_user&#45;&gt;default__aspect_default_</title>
<path fill="none" stroke="#a6adc8" d="M1323.76,-174.22C1207.15,-174.55 1031.82,-172.18 922.56,-168.71"/>
<polygon fill="#a6adc8" stroke="#a6adc8" points="922.84,-165.21 912.73,-168.38 922.61,-172.21 922.84,-165.21"/>
</g>
<!-- den__provides__define_user&#45;&gt;den__provides__default__aspect_default__den__provides -->
<g id="edge9" class="edge">
<title>den__provides__define_user&#45;&gt;den__provides__default__aspect_default__den__provides</title>
<path fill="none" stroke="#a6adc8" d="M1571.8,-170.31C1711.96,-170.31 1942.32,-170.31 2125.41,-170.31"/>
<polygon fill="#a6adc8" stroke="#a6adc8" points="2125.33,-173.81 2135.33,-170.31 2125.33,-166.81 2125.33,-173.81"/>
</g>
<!-- den__provides__define_user&#45;&gt;den__provides__mutual_provider -->
<g id="edge10" class="edge">
<title>den__provides__define_user&#45;&gt;den__provides__mutual_provider</title>
<path fill="none" stroke="#a6adc8" d="M1599.21,-155.71C1631.34,-152.67 1665.02,-149.47 1696.56,-146.48"/>
<polygon fill="#a6adc8" stroke="#a6adc8" points="1696.49,-150 1706.11,-145.57 1695.83,-143.03 1696.49,-150"/>
</g>
<!-- den__provides__hostname&#45;&gt;default__aspect_default_ -->
<g id="edge11" class="edge">
<title>den__provides__hostname&#45;&gt;default__aspect_default_</title>
<path fill="none" stroke="#a6adc8" d="M956.21,-187.07C944.9,-185.53 933.62,-183.93 922.69,-182.32"/>
<polygon fill="#a6adc8" stroke="#a6adc8" points="923.34,-178.88 912.93,-180.85 922.3,-185.8 923.34,-178.88"/>
</g>
<!-- den__provides__hostname&#45;&gt;den__provides__default__aspect_default__den__provides -->
<g id="edge12" class="edge">
<title>den__provides__hostname&#45;&gt;den__provides__default__aspect_default__den__provides</title>
<path fill="none" stroke="#a6adc8" d="M1216.63,-199.83C1319.19,-200.05 1471.68,-199.81 1604.51,-197.31 1792.14,-193.78 2004.4,-186.47 2163.24,-180.35"/>
<polygon fill="#a6adc8" stroke="#a6adc8" points="2163.21,-183.85 2173.07,-179.97 2162.94,-176.86 2163.21,-183.85"/>
</g>
<!-- den__provides__hostname&#45;&gt;den__provides__define_user -->
<g id="edge13" class="edge">
<title>den__provides__hostname&#45;&gt;den__provides__define_user</title>
<path fill="none" stroke="#a6adc8" d="M1237.77,-187.6C1265.78,-185.24 1295,-182.78 1322.32,-180.49"/>
<polygon fill="#a6adc8" stroke="#a6adc8" points="1322.32,-184 1331.99,-179.67 1321.73,-177.02 1322.32,-184"/>
</g>
<!-- den__provides__mutual_provider&#45;&gt;n_default -->
<g id="edge14" class="edge">
<title>den__provides__mutual_provider&#45;&gt;n_default</title>
<path fill="none" stroke="#a6adc8" d="M1770.82,-114.82C1591.68,-61.12 1079.2,77.37 733,-120.31 705.66,-135.92 722.19,-162.43 697,-181.31 679.07,-194.74 655.17,-201.53 634.57,-204.07"/>
<polygon fill="#a6adc8" stroke="#a6adc8" points="634.37,-200.58 624.71,-204.95 634.98,-207.55 634.37,-200.58"/>
</g>
<!-- den__provides__mutual_provider&#45;&gt;default__aspect_default_ -->
<g id="edge15" class="edge">
<title>den__provides__mutual_provider&#45;&gt;default__aspect_default_</title>
<path fill="none" stroke="#a6adc8" d="M1700.32,-142.14C1588.69,-145.41 1426.07,-148.1 1284.08,-152.31 1159.55,-156 1016.16,-162.22 922.79,-164.51"/>
<polygon fill="#a6adc8" stroke="#a6adc8" points="922.8,-161.01 912.88,-164.75 922.96,-168.01 922.8,-161.01"/>
</g>
<!-- den__provides__mutual_provider&#45;&gt;den__provides__default__aspect_default__den__provides -->
<g id="edge16" class="edge">
<title>den__provides__mutual_provider&#45;&gt;den__provides__default__aspect_default__den__provides</title>
<path fill="none" stroke="#a6adc8" d="M1972.76,-142.12C2014.47,-144.84 2062.13,-147.95 2110.21,-151.08"/>
<polygon fill="#a6adc8" stroke="#a6adc8" points="2109.74,-154.55 2119.95,-151.71 2110.2,-147.57 2109.74,-154.55"/>
</g>
</g>
</svg>
