<?xml version="1.0" encoding="UTF-8" standalone="no"?>
<!DOCTYPE svg PUBLIC "-//W3C//DTD SVG 1.1//EN"
 "http://www.w3.org/Graphics/SVG/1.1/DTD/svg11.dtd">
<!-- Generated by graphviz version 12.2.1 (0)
 -->
<!-- Pages: 1 -->
<svg width="2824pt" height="623pt"
 viewBox="0.00 0.00 2823.90 623.31" xmlns="http://www.w3.org/2000/svg" xmlns:xlink="http://www.w3.org/1999/xlink">
<g id="graph0" class="graph" transform="scale(1 1) rotate(0) translate(4 619.31)">
<polygon fill="#1e1e2e" stroke="none" points="-4,4 -4,-619.31 2819.9,-619.31 2819.9,4 -4,4"/>
<g id="clust1" class="cluster">
<title>cluster_ctx_user</title>
<polygon fill="#313244" stroke="#6c7086" stroke-dasharray="5,2" points="29.99,-258.31 29.99,-571.31 685.08,-571.31 685.08,-258.31 29.99,-258.31"/>
<text text-anchor="middle" x="357.53" y="-554.01" font-family="Times,serif" font-size="14.00" fill="#cdd6f4">user</text>
</g>
<g id="clust2" class="cluster">
<title>cluster_ctx_default</title>
<polygon fill="#313244" stroke="#6c7086" stroke-dasharray="5,2" points="529.7,-65.31 529.7,-250.31 2807.9,-250.31 2807.9,-65.31 529.7,-65.31"/>
<text text-anchor="middle" x="1668.8" y="-233.01" font-family="Times,serif" font-size="14.00" fill="#cdd6f4">default</text>
</g>
<!-- bob -->
<g id="node1" class="node">
<title>bob</title>
<path fill="#89b4fa" stroke="#89b4fa" d="M93.24,-615.31C93.24,-615.31 63.24,-615.31 63.24,-615.31 57.24,-615.31 51.24,-609.31 51.24,-603.31 51.24,-603.31 51.24,-591.31 51.24,-591.31 51.24,-585.31 57.24,-579.31 63.24,-579.31 63.24,-579.31 93.24,-579.31 93.24,-579.31 99.24,-579.31 105.24,-585.31 105.24,-591.31 105.24,-591.31 105.24,-603.31 105.24,-603.31 105.24,-609.31 99.24,-615.31 93.24,-615.31"/>
<text text-anchor="middle" x="78.24" y="-592.63" font-family="Times,serif" font-size="14.00" fill="#1e1e2e">bob</text>
</g>
<!-- dev_tools -->
<g id="node2" class="node">
<title>dev_tools</title>
<polygon fill="#fab387" stroke="#fab387" points="118.49,-430.31 37.99,-430.31 37.99,-394.31 118.49,-394.31 118.49,-430.31"/>
<text text-anchor="middle" x="78.24" y="-407.63" font-family="Times,serif" font-size="14.00" fill="#1e1e2e">dev&#45;tools</text>
</g>
<!-- bob&#45;&gt;dev_tools -->
<g id="edge1" class="edge">
<title>bob&#45;&gt;dev_tools</title>
<path fill="none" stroke="#a6adc8" d="M78.24,-579.09C78.24,-533.41 78.24,-487.72 78.24,-442.04"/>
<polygon fill="#a6adc8" stroke="#a6adc8" points="81.74,-442.25 78.24,-432.25 74.74,-442.25 81.74,-442.25"/>
</g>
<!-- gnome -->
<g id="node3" class="node">
<title>gnome</title>
<polygon fill="#f2cdcd" stroke="#f2cdcd" points="677.08,-457.31 613.08,-457.31 613.08,-421.31 677.08,-421.31 677.08,-457.31"/>
<text text-anchor="middle" x="645.08" y="-434.63" font-family="Times,serif" font-size="14.00" fill="#1e1e2e">gnome</text>
</g>
<!-- bob&#45;&gt;gnome -->
<g id="edge2" class="edge">
<title>bob&#45;&gt;gnome</title>
<path fill="none" stroke="#a6adc8" d="M105.64,-598.87C173.94,-601.93 360.95,-604.08 501.7,-547.31 547.92,-528.67 592.19,-490.91 618.76,-465.35"/>
<polygon fill="#a6adc8" stroke="#a6adc8" points="620.97,-468.08 625.66,-458.58 616.07,-463.08 620.97,-468.08"/>
</g>
<!-- primary_user -->
<g id="node4" class="node">
<title>primary_user</title>
<polygon fill="#f2cdcd" stroke="#f2cdcd" points="382.6,-484.31 273.6,-484.31 273.6,-448.31 382.6,-448.31 382.6,-484.31"/>
<text text-anchor="middle" x="328.1" y="-461.63" font-family="Times,serif" font-size="14.00" fill="#1e1e2e">primary&#45;user</text>
</g>
<!-- bob&#45;&gt;primary_user -->
<g id="edge3" class="edge">
<title>bob&#45;&gt;primary_user</title>
<path fill="none" stroke="#a6adc8" d="M105.47,-585.76C110.22,-582.84 114.82,-579.36 118.49,-575.31 145.23,-545.83 122.95,-517.59 154.49,-493.31 184.74,-470.02 226.98,-463.1 262.09,-462.09"/>
<polygon fill="#a6adc8" stroke="#a6adc8" points="261.75,-465.6 271.71,-461.98 261.67,-458.6 261.75,-465.6"/>
</g>
<!-- den__provides__primary_user -->
<g id="node5" class="node">
<title>den__provides__primary_user</title>
<polygon fill="#f2cdcd" stroke="#f2cdcd" points="429.49,-538.31 226.71,-538.31 154.49,-502.31 501.7,-502.31 429.49,-538.31"/>
<text text-anchor="middle" x="328.1" y="-515.63" font-family="Times,serif" font-size="14.00" fill="#1e1e2e">provides/primary&#45;user</text>
</g>
<!-- bob&#45;&gt;den__provides__primary_user -->
<g id="edge4" class="edge">
<title>bob&#45;&gt;den__provides__primary_user</title>
<path fill="none" stroke="#a6adc8" d="M105.44,-586.02C119.78,-580.05 137.95,-572.84 154.49,-567.31 182.44,-557.96 213.39,-549.09 241.27,-541.62"/>
<polygon fill="#a6adc8" stroke="#a6adc8" points="241.97,-545.06 250.74,-539.11 240.18,-538.29 241.97,-545.06"/>
</g>
<!-- user__self_provide_user_ -->
<g id="node9" class="node">
<title>user__self_provide_user_</title>
<polygon fill="#f2cdcd" stroke="#f2cdcd" points="416.72,-430.31 239.47,-430.31 239.47,-394.31 416.72,-394.31 416.72,-430.31"/>
<text text-anchor="middle" x="328.1" y="-407.63" font-family="Times,serif" font-size="14.00" fill="#1e1e2e">user/self&#45;provide(user)</text>
</g>
<!-- bob&#45;&gt;user__self_provide_user_ -->
<g id="edge5" class="edge">
<title>bob&#45;&gt;user__self_provide_user_</title>
<path fill="none" stroke="#a6adc8" d="M105.58,-586.44C110.43,-583.44 115.04,-579.75 118.49,-575.31 156.79,-525.89 108.05,-481.17 154.49,-439.31 174.5,-421.27 201.4,-412.5 228,-408.74"/>
<polygon fill="#a6adc8" stroke="#a6adc8" points="228.33,-412.22 237.86,-407.59 227.52,-405.27 228.33,-412.22"/>
</g>
<!-- dev_tools&#45;&gt;bob -->
<g id="edge23" class="edge">
<title>dev_tools&#45;&gt;bob</title>
<path fill="none" stroke="#a6adc8" d="M78.24,-430.74C78.24,-476.42 78.24,-522.1 78.24,-567.79"/>
<polygon fill="#a6adc8" stroke="#a6adc8" points="74.74,-567.58 78.24,-577.58 81.74,-567.58 74.74,-567.58"/>
</g>
<!-- dev_tools&#45;&gt;dev_tools -->
<g id="edge24" class="edge">
<title>dev_tools&#45;&gt;dev_tools</title>
<path fill="none" stroke="#a6adc8" d="M37.71,-426.16C22.03,-437.09 35.54,-448.31 78.24,-448.31 108.26,-448.31 123.86,-442.76 125.02,-435.67"/>
<polygon fill="#a6adc8" stroke="#a6adc8" points="128.02,-433.86 119.6,-427.43 122.17,-437.71 128.02,-433.86"/>
</g>
<!-- dev_tools&#45;&gt;user__self_provide_user_ -->
<g id="edge25" class="edge">
<title>dev_tools&#45;&gt;user__self_provide_user_</title>
<path fill="none" stroke="#a6adc8" d="M118.79,-407.21C148.21,-405.81 189.71,-405.3 227.93,-405.68"/>
<polygon fill="#a6adc8" stroke="#a6adc8" points="227.59,-409.18 237.63,-405.8 227.67,-402.18 227.59,-409.18"/>
</g>
<!-- gnome&#45;&gt;dev_tools -->
<g id="edge26" class="edge">
<title>gnome&#45;&gt;dev_tools</title>
<path fill="none" stroke="#a6adc8" d="M612.8,-423.66C584.57,-410.46 541.49,-392.6 501.7,-385.31 425.81,-371.4 230.51,-372.08 154.49,-385.31 146.22,-386.75 137.65,-389.01 129.4,-391.64"/>
<polygon fill="#a6adc8" stroke="#a6adc8" points="128.54,-388.23 120.2,-394.76 130.8,-394.86 128.54,-388.23"/>
</g>
<!-- gnome&#45;&gt;gnome -->
<g id="edge27" class="edge">
<title>gnome&#45;&gt;gnome</title>
<path fill="none" stroke="#a6adc8" d="M612.74,-449.81C590.5,-461.67 601.28,-475.31 645.08,-475.31 680.66,-475.31 694.45,-466.3 686.44,-456.57"/>
<polygon fill="#a6adc8" stroke="#a6adc8" points="688.73,-453.91 678.63,-450.72 684.54,-459.51 688.73,-453.91"/>
</g>
<!-- gnome&#45;&gt;user__self_provide_user_ -->
<g id="edge28" class="edge">
<title>gnome&#45;&gt;user__self_provide_user_</title>
<path fill="none" stroke="#a6adc8" d="M612.84,-440.87C570.18,-439.58 491.74,-433.55 428.12,-427.12"/>
<polygon fill="#a6adc8" stroke="#a6adc8" points="428.65,-423.65 418.34,-426.11 427.93,-430.61 428.65,-423.65"/>
</g>
<!-- primary_user&#45;&gt;gnome -->
<g id="edge29" class="edge">
<title>primary_user&#45;&gt;gnome</title>
<path fill="none" stroke="#a6adc8" d="M382.89,-461.7C444.73,-456.4 544.98,-447.8 601.6,-442.95"/>
<polygon fill="#a6adc8" stroke="#a6adc8" points="601.82,-446.44 611.49,-442.1 601.22,-439.47 601.82,-446.44"/>
</g>
<!-- den__provides__primary_user&#45;&gt;gnome -->
<g id="edge22" class="edge">
<title>den__provides__primary_user&#45;&gt;gnome</title>
<path fill="none" stroke="#a6adc8" d="M464.4,-501.9C477.08,-499.35 489.68,-496.49 501.7,-493.31 536.33,-484.14 574.2,-469.55 602.16,-457.84"/>
<polygon fill="#a6adc8" stroke="#a6adc8" points="603.52,-461.07 611.36,-453.94 600.78,-454.63 603.52,-461.07"/>
</g>
<!-- user -->
<g id="node6" class="node">
<title>user</title>
<polygon fill="#f2cdcd" stroke="#f2cdcd" points="105.24,-302.31 51.24,-302.31 51.24,-266.31 105.24,-266.31 105.24,-302.31"/>
<text text-anchor="middle" x="78.24" y="-279.63" font-family="Times,serif" font-size="14.00" fill="#1e1e2e">user</text>
</g>
<!-- user&#45;&gt;bob -->
<g id="edge30" class="edge">
<title>user&#45;&gt;bob</title>
<path fill="none" stroke="#a6adc8" d="M62.81,-302.69C46.51,-323.42 21.84,-358.87 11.99,-394.31 1.76,-431.14 -8.11,-533.79 11.99,-566.31 18.36,-576.62 29.2,-583.56 40.28,-588.19"/>
<polygon fill="#a6adc8" stroke="#a6adc8" points="38.83,-591.39 49.42,-591.46 41.18,-584.8 38.83,-591.39"/>
</g>
<!-- user&#45;&gt;user -->
<g id="edge34" class="edge">
<title>user&#45;&gt;user</title>
<path fill="none" stroke="#a6adc8" d="M51.09,-291.55C17.71,-304 26.76,-320.31 78.24,-320.31 123.49,-320.31 135.96,-307.71 115.65,-296.21"/>
<polygon fill="#a6adc8" stroke="#a6adc8" points="117.32,-293.12 106.77,-292.18 114.43,-299.5 117.32,-293.12"/>
</g>
<!-- user__aspect_user_ -->
<g id="node7" class="node">
<title>user__aspect_user_</title>
<polygon fill="#fab387" stroke="#fab387" points="398.35,-302.31 257.85,-302.31 257.85,-266.31 398.35,-266.31 398.35,-302.31"/>
<text text-anchor="middle" x="328.1" y="-279.63" font-family="Times,serif" font-size="14.00" fill="#1e1e2e">user/aspect(user)</text>
</g>
<!-- user&#45;&gt;user__aspect_user_ -->
<g id="edge35" class="edge">
<title>user&#45;&gt;user__aspect_user_</title>
<path fill="none" stroke="#a6adc8" d="M105.3,-279.97C138.43,-277.73 197.21,-277.05 245.93,-277.93"/>
<polygon fill="#a6adc8" stroke="#a6adc8" points="245.85,-281.43 255.92,-278.14 246,-274.43 245.85,-281.43"/>
</g>
<!-- user__cross_provide__anon__ -->
<g id="node8" class="node">
<title>user__cross_provide__anon__</title>
<polygon fill="#f38ba8" stroke="#f38ba8" points="436.6,-356.31 219.6,-356.31 219.6,-320.31 436.6,-320.31 436.6,-356.31"/>
<text text-anchor="middle" x="328.1" y="-333.63" font-family="Times,serif" font-size="14.00" fill="#1e1e2e">user/cross&#45;provide(&lt;anon&gt;)</text>
</g>
<!-- user&#45;&gt;user__cross_provide__anon__ -->
<g id="edge36" class="edge">
<title>user&#45;&gt;user__cross_provide__anon__</title>
<path fill="none" stroke="#a6adc8" d="M105.67,-295.18C119.93,-300.69 137.95,-307.09 154.49,-311.31 171.65,-315.69 189.96,-319.47 208,-322.71"/>
<polygon fill="#a6adc8" stroke="#a6adc8" points="207.25,-326.13 217.7,-324.39 208.44,-319.23 207.25,-326.13"/>
</g>
<!-- n_default -->
<g id="node10" class="node">
<title>n_default</title>
<polygon fill="#fab387" stroke="#fab387" points="678.2,-217.31 611.95,-217.31 611.95,-181.31 678.2,-181.31 678.2,-217.31"/>
<text text-anchor="middle" x="645.08" y="-194.63" font-family="Times,serif" font-size="14.00" fill="#1e1e2e">default</text>
</g>
<!-- user&#45;&gt;n_default -->
<g id="edge31" class="edge">
<title>user&#45;&gt;n_default</title>
<path fill="none" stroke="#a6adc8" d="M105.61,-273.19C119.85,-267.61 137.87,-261.22 154.49,-257.31 316.02,-219.28 513.7,-205.59 600.12,-201.18"/>
<polygon fill="#a6adc8" stroke="#a6adc8" points="600.23,-204.68 610.05,-200.69 599.89,-197.69 600.23,-204.68"/>
</g>
<!-- default__cross_provide_user_ -->
<g id="node13" class="node">
<title>default__cross_provide_user_</title>
<polygon fill="#f9e2af" stroke="#f9e2af" points="749.45,-163.31 540.7,-163.31 540.7,-127.31 749.45,-127.31 749.45,-163.31"/>
<text text-anchor="middle" x="645.08" y="-140.63" font-family="Times,serif" font-size="14.00" fill="#1e1e2e">default/cross&#45;provide(user)</text>
</g>
<!-- user&#45;&gt;default__cross_provide_user_ -->
<g id="edge32" class="edge">
<title>user&#45;&gt;default__cross_provide_user_</title>
<path fill="none" stroke="#a6adc8" d="M90.83,-265.86C103.83,-246.93 126.75,-218.33 154.49,-204.31 272.14,-144.85 425.38,-135.57 528.84,-137.62"/>
<polygon fill="#a6adc8" stroke="#a6adc8" points="528.67,-141.12 538.75,-137.86 528.84,-134.12 528.67,-141.12"/>
</g>
<!-- default__self_provide_default_ -->
<g id="node14" class="node">
<title>default__self_provide_default_</title>
<polygon fill="#fab387" stroke="#fab387" points="752.45,-109.31 537.7,-109.31 537.7,-73.31 752.45,-73.31 752.45,-109.31"/>
<text text-anchor="middle" x="645.08" y="-86.63" font-family="Times,serif" font-size="14.00" fill="#1e1e2e">default/self&#45;provide(default)</text>
</g>
<!-- user&#45;&gt;default__self_provide_default_ -->
<g id="edge33" class="edge">
<title>user&#45;&gt;default__self_provide_default_</title>
<path fill="none" stroke="#a6adc8" d="M82.43,-265.87C89.21,-232.98 108.34,-164.68 154.49,-133.31 265.11,-58.11 423.87,-59.27 530.32,-71.46"/>
<polygon fill="#a6adc8" stroke="#a6adc8" points="529.89,-74.94 540.24,-72.65 530.73,-67.99 529.89,-74.94"/>
</g>
<!-- user__aspect_user_&#45;&gt;user -->
<g id="edge37" class="edge">
<title>user__aspect_user_&#45;&gt;user</title>
<path fill="none" stroke="#a6adc8" d="M257.44,-290.45C211.74,-291.55 153.78,-291.16 116.6,-289.3"/>
<polygon fill="#a6adc8" stroke="#a6adc8" points="116.99,-285.82 106.81,-288.74 116.59,-292.81 116.99,-285.82"/>
</g>
<!-- user__cross_provide__anon__&#45;&gt;n_default -->
<g id="edge38" class="edge">
<title>user__cross_provide__anon__&#45;&gt;n_default</title>
<path fill="none" stroke="#a6adc8" d="M436.67,-337.48C459.79,-333.12 482.9,-325.16 501.7,-311.31 524.43,-294.57 509.66,-274.18 529.7,-254.31 549.42,-234.75 577.45,-221.12 600.82,-212.32"/>
<polygon fill="#a6adc8" stroke="#a6adc8" points="601.86,-215.67 610.1,-209.01 599.51,-209.08 601.86,-215.67"/>
</g>
<!-- user__self_provide_user_&#45;&gt;dev_tools -->
<g id="edge39" class="edge">
<title>user__self_provide_user_&#45;&gt;dev_tools</title>
<path fill="none" stroke="#a6adc8" d="M239.14,-418.8C202.52,-419.34 161.3,-419.03 129.89,-417.88"/>
<polygon fill="#a6adc8" stroke="#a6adc8" points="130.44,-414.4 120.3,-417.47 130.14,-421.39 130.44,-414.4"/>
</g>
<!-- user__self_provide_user_&#45;&gt;gnome -->
<g id="edge40" class="edge">
<title>user__self_provide_user_&#45;&gt;gnome</title>
<path fill="none" stroke="#a6adc8" d="M416.84,-413.71C477.08,-417.71 554.39,-424.78 601.53,-430.87"/>
<polygon fill="#a6adc8" stroke="#a6adc8" points="600.96,-434.32 611.34,-432.19 601.89,-427.39 600.96,-434.32"/>
</g>
<!-- default__aspect_default_ -->
<g id="node11" class="node">
<title>default__aspect_default_</title>
<polygon fill="#a6e3a1" stroke="#a6e3a1" points="966.45,-180.31 788.45,-180.31 788.45,-144.31 966.45,-144.31 966.45,-180.31"/>
<text text-anchor="middle" x="877.45" y="-157.63" font-family="Times,serif" font-size="14.00" fill="#1e1e2e">default/aspect(default)</text>
</g>
<!-- n_default&#45;&gt;default__aspect_default_ -->
<g id="edge6" class="edge">
<title>n_default&#45;&gt;default__aspect_default_</title>
<path fill="none" stroke="#a6adc8" d="M678.6,-194.09C704.23,-189.97 741.4,-184 776.62,-178.34"/>
<polygon fill="#a6adc8" stroke="#a6adc8" points="777.15,-181.8 786.47,-176.76 776.04,-174.89 777.15,-181.8"/>
</g>
<!-- den__provides__define_user -->
<g id="node15" class="node">
<title>den__provides__define_user</title>
<polygon fill="#a6e3a1" stroke="#a6e3a1" points="1593.32,-188.31 1406.19,-188.31 1339.54,-152.31 1659.97,-152.31 1593.32,-188.31"/>
<text text-anchor="middle" x="1499.75" y="-165.63" font-family="Times,serif" font-size="14.00" fill="#1e1e2e">provides/define&#45;user</text>
</g>
<!-- n_default&#45;&gt;den__provides__define_user -->
<g id="edge7" class="edge">
<title>n_default&#45;&gt;den__provides__define_user</title>
<path fill="none" stroke="#a6adc8" d="M678.53,-195.77C700.55,-192.28 729.69,-185.46 752.45,-172.31 772.32,-160.83 767.32,-144.23 788.45,-135.31 889.16,-92.78 1190.4,-125.84 1366.56,-150.26"/>
<polygon fill="#a6adc8" stroke="#a6adc8" points="1365.84,-153.69 1376.22,-151.6 1366.8,-146.75 1365.84,-153.69"/>
</g>
<!-- den__provides__hostname -->
<g id="node16" class="node">
<title>den__provides__hostname</title>
<polygon fill="#fab387" stroke="#fab387" points="1240.92,-217.31 1065.08,-217.31 1002.45,-181.31 1303.54,-181.31 1240.92,-217.31"/>
<text text-anchor="middle" x="1153" y="-194.63" font-family="Times,serif" font-size="14.00" fill="#1e1e2e">provides/hostname</text>
</g>
<!-- n_default&#45;&gt;den__provides__hostname -->
<g id="edge8" class="edge">
<title>n_default&#45;&gt;den__provides__hostname</title>
<path fill="none" stroke="#a6adc8" d="M678.5,-199.31C746.3,-199.31 906.35,-199.31 1021.61,-199.31"/>
<polygon fill="#a6adc8" stroke="#a6adc8" points="1021.46,-202.81 1031.46,-199.31 1021.46,-195.81 1021.46,-202.81"/>
</g>
<!-- den__provides__mutual_provider -->
<g id="node17" class="node">
<title>den__provides__mutual_provider</title>
<polygon fill="#f9e2af" stroke="#f9e2af" points="2006.32,-151.31 1777.47,-151.31 1695.97,-115.31 2087.83,-115.31 2006.32,-151.31"/>
<text text-anchor="middle" x="1891.9" y="-128.63" font-family="Times,serif" font-size="14.00" fill="#1e1e2e">provides/mutual&#45;provider</text>
</g>
<!-- n_default&#45;&gt;den__provides__mutual_provider -->
<g id="edge9" class="edge">
<title>n_default&#45;&gt;den__provides__mutual_provider</title>
<path fill="none" stroke="#a6adc8" d="M678.66,-190.03C701.3,-185.88 731.11,-179.31 752.45,-163.31 777.65,-144.43 761.12,-117.92 788.45,-102.31 1143.08,100.18 1672.17,-50.06 1838.75,-111"/>
<polygon fill="#a6adc8" stroke="#a6adc8" points="1837.18,-114.15 1847.77,-114.35 1839.62,-107.59 1837.18,-114.15"/>
</g>
<!-- default__aspect_default_&#45;&gt;den__provides__define_user -->
<g id="edge10" class="edge">
<title>default__aspect_default_&#45;&gt;den__provides__define_user</title>
<path fill="none" stroke="#a6adc8" d="M966.67,-158.56C1065.42,-157.75 1227.2,-159.5 1346.48,-162.44"/>
<polygon fill="#a6adc8" stroke="#a6adc8" points="1346.29,-165.94 1356.38,-162.69 1346.47,-158.94 1346.29,-165.94"/>
</g>
<!-- default__aspect_default_&#45;&gt;den__provides__hostname -->
<g id="edge11" class="edge">
<title>default__aspect_default_&#45;&gt;den__provides__hostname</title>
<path fill="none" stroke="#a6adc8" d="M966.89,-167.91C993.78,-171.1 1023.53,-175.06 1051.17,-179.13"/>
<polygon fill="#a6adc8" stroke="#a6adc8" points="1050.56,-182.58 1060.96,-180.6 1051.59,-175.66 1050.56,-182.58"/>
</g>
<!-- default__aspect_default_&#45;&gt;den__provides__mutual_provider -->
<g id="edge12" class="edge">
<title>default__aspect_default_&#45;&gt;den__provides__mutual_provider</title>
<path fill="none" stroke="#a6adc8" d="M966.83,-151.34C1059.62,-144.74 1209.81,-138.16 1339.54,-134.31 1463.73,-130.62 1603.71,-128.11 1711.55,-127.69"/>
<polygon fill="#a6adc8" stroke="#a6adc8" points="1711.37,-131.19 1721.36,-127.66 1711.35,-124.19 1711.37,-131.19"/>
</g>
<!-- den__provides__default__aspect_default__den__provides -->
<g id="node12" class="node">
<title>den__provides__default__aspect_default__den__provides</title>
<polygon fill="#a6e3a1" stroke="#a6e3a1" points="2659.28,-188.31 2264.44,-188.31 2123.83,-152.31 2799.9,-152.31 2659.28,-188.31"/>
<text text-anchor="middle" x="2461.86" y="-165.63" font-family="Times,serif" font-size="14.00" fill="#1e1e2e">provides/default/aspect(default):den/provides</text>
</g>
<!-- den__provides__define_user&#45;&gt;default__aspect_default_ -->
<g id="edge13" class="edge">
<title>den__provides__define_user&#45;&gt;default__aspect_default_</title>
<path fill="none" stroke="#a6adc8" d="M1379.21,-174.22C1262.6,-174.55 1087.27,-172.18 978.02,-168.71"/>
<polygon fill="#a6adc8" stroke="#a6adc8" points="978.29,-165.21 968.18,-168.38 978.06,-172.21 978.29,-165.21"/>
</g>
<!-- den__provides__define_user&#45;&gt;den__provides__default__aspect_default__den__provides -->
<g id="edge14" class="edge">
<title>den__provides__define_user&#45;&gt;den__provides__default__aspect_default__den__provides</title>
<path fill="none" stroke="#a6adc8" d="M1627.26,-170.31C1767.41,-170.31 1997.78,-170.31 2180.86,-170.31"/>
<polygon fill="#a6adc8" stroke="#a6adc8" points="2180.79,-173.81 2190.79,-170.31 2180.79,-166.81 2180.79,-173.81"/>
</g>
<!-- den__provides__define_user&#45;&gt;den__provides__mutual_provider -->
<g id="edge15" class="edge">
<title>den__provides__define_user&#45;&gt;den__provides__mutual_provider</title>
<path fill="none" stroke="#a6adc8" d="M1654.67,-155.71C1686.79,-152.67 1720.47,-149.47 1752.01,-146.48"/>
<polygon fill="#a6adc8" stroke="#a6adc8" points="1751.94,-150 1761.57,-145.57 1751.28,-143.03 1751.94,-150"/>
</g>
<!-- den__provides__hostname&#45;&gt;default__aspect_default_ -->
<g id="edge16" class="edge">
<title>den__provides__hostname&#45;&gt;default__aspect_default_</title>
<path fill="none" stroke="#a6adc8" d="M1011.66,-187.07C1000.35,-185.53 989.08,-183.93 978.14,-182.32"/>
<polygon fill="#a6adc8" stroke="#a6adc8" points="978.79,-178.88 968.38,-180.85 977.76,-185.8 978.79,-178.88"/>
</g>
<!-- den__provides__hostname&#45;&gt;den__provides__default__aspect_default__den__provides -->
<g id="edge17" class="edge">
<title>den__provides__hostname&#45;&gt;den__provides__default__aspect_default__den__provides</title>
<path fill="none" stroke="#a6adc8" d="M1272.09,-199.83C1374.64,-200.05 1527.13,-199.81 1659.97,-197.31 1847.6,-193.78 2059.85,-186.47 2218.69,-180.35"/>
<polygon fill="#a6adc8" stroke="#a6adc8" points="2218.66,-183.85 2228.52,-179.97 2218.39,-176.86 2218.66,-183.85"/>
</g>
<!-- den__provides__hostname&#45;&gt;den__provides__define_user -->
<g id="edge18" class="edge">
<title>den__provides__hostname&#45;&gt;den__provides__define_user</title>
<path fill="none" stroke="#a6adc8" d="M1293.23,-187.6C1321.23,-185.24 1350.45,-182.78 1377.77,-180.49"/>
<polygon fill="#a6adc8" stroke="#a6adc8" points="1377.77,-184 1387.44,-179.67 1377.18,-177.02 1377.77,-184"/>
</g>
<!-- den__provides__mutual_provider&#45;&gt;n_default -->
<g id="edge19" class="edge">
<title>den__provides__mutual_provider&#45;&gt;n_default</title>
<path fill="none" stroke="#a6adc8" d="M1826.27,-114.82C1647.14,-61.12 1134.65,77.37 788.45,-120.31 761.12,-135.92 777.65,-162.43 752.45,-181.31 734.53,-194.74 710.63,-201.53 690.02,-204.07"/>
<polygon fill="#a6adc8" stroke="#a6adc8" points="689.82,-200.58 680.17,-204.95 690.44,-207.55 689.82,-200.58"/>
</g>
<!-- den__provides__mutual_provider&#45;&gt;default__aspect_default_ -->
<g id="edge20" class="edge">
<title>den__provides__mutual_provider&#45;&gt;default__aspect_default_</title>
<path fill="none" stroke="#a6adc8" d="M1755.77,-142.14C1644.14,-145.41 1481.53,-148.1 1339.54,-152.31 1215,-156 1071.62,-162.22 978.24,-164.51"/>
<polygon fill="#a6adc8" stroke="#a6adc8" points="978.25,-161.01 968.34,-164.75 978.42,-168.01 978.25,-161.01"/>
</g>
<!-- den__provides__mutual_provider&#45;&gt;den__provides__default__aspect_default__den__provides -->
<g id="edge21" class="edge">
<title>den__provides__mutual_provider&#45;&gt;den__provides__default__aspect_default__den__provides</title>
<path fill="none" stroke="#a6adc8" d="M2028.22,-142.12C2069.92,-144.84 2117.58,-147.95 2165.67,-151.08"/>
<polygon fill="#a6adc8" stroke="#a6adc8" points="2165.19,-154.55 2175.4,-151.71 2165.65,-147.57 2165.19,-154.55"/>
</g>
</g>
</svg>
