<?plantuml 1.2026.2?><svg xmlns="http://www.w3.org/2000/svg" xmlns:xlink="http://www.w3.org/1999/xlink" contentStyleType="text/css" data-diagram-type="DESCRIPTION" height="831px" preserveAspectRatio="none" style="width:2368px;height:831px;background:#1E1E2E;" version="1.1" viewBox="0 0 2368 831" width="2368px" zoomAndPan="magnify"><defs/><g><rect fill="#1E1E2E" height="831" style="stroke:none;stroke-width:1;" width="2368" x="0" y="0"/><!--cluster stage_user--><g class="cluster" data-qualified-name="stage_user" data-source-line="24" id="ent0003"><path d="M80.7,61.24 L115.2999,61.24 A3.75,3.75 0 0 1 117.7999,63.74 L124.7999,85.7199 L774.9,85.7199 A2.5,2.5 0 0 1 777.4,88.2199 L777.4,464.74 A2.5,2.5 0 0 1 774.9,467.24 L80.7,467.24 A2.5,2.5 0 0 1 78.2,464.74 L78.2,63.74 A2.5,2.5 0 0 1 80.7,61.24" fill="#313244" style="stroke:#6C7086;stroke-width:1.5;"/><line style="stroke:#6C7086;stroke-width:1.5;" x1="78.2" x2="124.7999" y1="85.7199" y2="85.7199"/><text fill="#CDD6F4" font-family="'JetBrains Mono,monospace'" font-size="14" font-weight="bold" lengthAdjust="spacing" textLength="33.5999" x="82.2" y="77.5199">user</text></g><!--cluster stage_default--><g class="cluster" data-qualified-name="stage_default" data-source-line="34" id="ent0012"><path d="M585.1,491.24 L644.8997,491.24 A3.75,3.75 0 0 1 647.3997,493.74 L654.3997,515.7199 L2359.29,515.7199 A2.5,2.5 0 0 1 2361.79,518.2199 L2361.79,725.74 A2.5,2.5 0 0 1 2359.29,728.24 L585.1,728.24 A2.5,2.5 0 0 1 582.6,725.74 L582.6,493.74 A2.5,2.5 0 0 1 585.1,491.24" fill="#313244" style="stroke:#6C7086;stroke-width:1.5;"/><line style="stroke:#6C7086;stroke-width:1.5;" x1="582.6" x2="654.3997" y1="515.7199" y2="515.7199"/><text fill="#CDD6F4" font-family="'JetBrains Mono,monospace'" font-size="14" font-weight="bold" lengthAdjust="spacing" textLength="58.7997" x="586.6" y="507.5199">default</text></g><!--entity dev_tools--><g class="entity" data-qualified-name="stage_user.dev_tools" data-source-line="25" id="ent0004"><rect fill="#FAB387" height="38.4799" rx="2.5" ry="2.5" style="stroke:#A6ADC8;stroke-width:0.5;" width="95.5997" x="94.2" y="230"/><text fill="#1E1E2E" font-family="'JetBrains Mono,monospace'" font-size="14" lengthAdjust="spacing" textLength="75.5997" x="104.2" y="254.2799">dev-tools</text></g><!--entity gnome--><g class="entity" data-qualified-name="stage_user.gnome" data-source-line="26" id="ent0005"><rect fill="#F2CDCD" height="38.4799" rx="2.5" ry="2.5" style="stroke:#A6ADC8;stroke-width:0.5;" width="61.9998" x="699.4" y="194"/><text fill="#1E1E2E" font-family="'JetBrains Mono,monospace'" font-size="14" lengthAdjust="spacing" textLength="41.9998" x="709.4" y="218.2799">gnome</text></g><!--entity primary_user--><g class="entity" data-qualified-name="stage_user.primary_user" data-source-line="27" id="ent0006"><rect fill="#F2CDCD" height="38.4799" rx="2.5" ry="2.5" style="stroke:#A6ADC8;stroke-width:0.5;" width="120.7996" x="333.8" y="157"/><text fill="#1E1E2E" font-family="'JetBrains Mono,monospace'" font-size="14" lengthAdjust="spacing" textLength="100.7996" x="343.8" y="181.2799">primary-user</text></g><!--entity den__provides__primary_user--><g class="entity" data-qualified-name="stage_user.den__provides__primary_user" data-source-line="28" id="ent0007"><rect fill="#F2CDCD" height="24.4799" rx="2.5" ry="2.5" style="stroke:#A6ADC8;stroke-width:0.5;" width="196.3992" x="296" y="98"/><text fill="#1E1E2E" font-family="'JetBrains Mono,monospace'" font-size="14" lengthAdjust="spacing" textLength="176.3992" x="306" y="115.2799">provides/primary-user</text></g><!--entity user--><g class="entity" data-qualified-name="stage_user.user" data-source-line="29" id="ent0008"><rect fill="#F2CDCD" height="38.4799" rx="2.5" ry="2.5" style="stroke:#A6ADC8;stroke-width:0.5;" width="53.5999" x="115.2" y="413"/><text fill="#1E1E2E" font-family="'JetBrains Mono,monospace'" font-size="14" lengthAdjust="spacing" textLength="33.5999" x="125.2" y="437.2799">user</text></g><!--entity user__aspect_user_--><g class="entity" data-qualified-name="stage_user.user__aspect_user_" data-source-line="30" id="ent0009"><rect fill="#FAB387" height="38.4799" rx="2.5" ry="2.5" style="stroke:#A6ADC8;stroke-width:0.5;" width="162.7994" x="312.8" y="413"/><text fill="#1E1E2E" font-family="'JetBrains Mono,monospace'" font-size="14" lengthAdjust="spacing" textLength="142.7994" x="322.8" y="437.2799">user/aspect(user)</text></g><!--entity user__cross_provide__anon__--><g class="entity" data-qualified-name="stage_user.user__cross_provide__anon__" data-source-line="31" id="ent0010"><rect fill="#F38BA8" height="38.4799" rx="2.5" ry="2.5" style="stroke:#A6ADC8;stroke-width:0.5;" width="288.7988" x="249.8" y="340"/><text fill="#1E1E2E" font-family="'JetBrains Mono,monospace'" font-size="14" lengthAdjust="spacing" textLength="268.7988" x="259.8" y="364.2799">user/cross-provide(&amp;lt;anon&amp;gt;)</text></g><!--entity user__self_provide_user_--><g class="entity" data-qualified-name="stage_user.user__self_provide_user_" data-source-line="32" id="ent0011"><rect fill="#F2CDCD" height="38.4799" rx="2.5" ry="2.5" style="stroke:#A6ADC8;stroke-width:0.5;" width="213.1992" x="287.6" y="230"/><text fill="#1E1E2E" font-family="'JetBrains Mono,monospace'" font-size="14" lengthAdjust="spacing" textLength="193.1992" x="297.6" y="254.2799">user/self-provide(user)</text></g><!--entity n_default--><g class="entity" data-qualified-name="stage_default.n_default" data-source-line="35" id="ent0013"><rect fill="#FAB387" height="38.4799" rx="2.5" ry="2.5" style="stroke:#A6ADC8;stroke-width:0.5;" width="78.7997" x="691" y="528"/><text fill="#1E1E2E" font-family="'JetBrains Mono,monospace'" font-size="14" lengthAdjust="spacing" textLength="58.7997" x="701" y="552.2799">default</text></g><!--entity default__aspect_default_--><g class="entity" data-qualified-name="stage_default.default__aspect_default_" data-source-line="36" id="ent0014"><rect fill="#A6E3A1" height="38.4799" rx="2.5" ry="2.5" style="stroke:#A6ADC8;stroke-width:0.5;" width="213.1992" x="922.2" y="569"/><text fill="#1E1E2E" font-family="'JetBrains Mono,monospace'" font-size="14" lengthAdjust="spacing" textLength="193.1992" x="932.2" y="593.2799">default/aspect(default)</text></g><!--entity den__provides__default__aspect_default__den__provides--><g class="entity" data-qualified-name="stage_default.den__provides__default__aspect_default__den__provides" data-source-line="37" id="ent0015"><rect fill="#A6E3A1" height="24.4799" rx="2.5" ry="2.5" style="stroke:#A6ADC8;stroke-width:0.5;" width="397.9984" x="1947.79" y="571"/><text fill="#1E1E2E" font-family="'JetBrains Mono,monospace'" font-size="14" lengthAdjust="spacing" textLength="377.9984" x="1957.79" y="588.2799">provides/default/aspect(default):den/provides</text></g><!--entity default__cross_provide_user_--><g class="entity" data-qualified-name="stage_default.default__cross_provide_user_" data-source-line="38" id="ent0016"><rect fill="#F9E2AF" height="38.4799" rx="2.5" ry="2.5" style="stroke:#A6ADC8;stroke-width:0.5;" width="246.799" x="607" y="601"/><text fill="#1E1E2E" font-family="'JetBrains Mono,monospace'" font-size="14" lengthAdjust="spacing" textLength="226.799" x="617" y="625.2799">default/cross-provide(user)</text></g><!--entity default__self_provide_default_--><g class="entity" data-qualified-name="stage_default.default__self_provide_default_" data-source-line="39" id="ent0017"><rect fill="#FAB387" height="38.4799" rx="2.5" ry="2.5" style="stroke:#A6ADC8;stroke-width:0.5;" width="263.5989" x="598.6" y="674"/><text fill="#1E1E2E" font-family="'JetBrains Mono,monospace'" font-size="14" lengthAdjust="spacing" textLength="243.5989" x="608.6" y="698.2799">default/self-provide(default)</text></g><!--entity den__provides__define_user--><g class="entity" data-qualified-name="stage_default.den__provides__define_user" data-source-line="40" id="ent0018"><rect fill="#A6E3A1" height="24.4799" rx="2.5" ry="2.5" style="stroke:#A6ADC8;stroke-width:0.5;" width="187.9993" x="1418.2" y="571"/><text fill="#1E1E2E" font-family="'JetBrains Mono,monospace'" font-size="14" lengthAdjust="spacing" textLength="167.9993" x="1428.2" y="588.2799">provides/define-user</text></g><!--entity den__provides__hostname--><g class="entity" data-qualified-name="stage_default.den__provides__hostname" data-source-line="41" id="ent0019"><rect fill="#FAB387" height="24.4799" rx="2.5" ry="2.5" style="stroke:#A6ADC8;stroke-width:0.5;" width="162.7994" x="1195.4" y="528"/><text fill="#1E1E2E" font-family="'JetBrains Mono,monospace'" font-size="14" lengthAdjust="spacing" textLength="142.7994" x="1205.4" y="545.2799">provides/hostname</text></g><!--entity den__provides__mutual_provider--><g class="entity" data-qualified-name="stage_default.den__provides__mutual_provider" data-source-line="42" id="ent0020"><rect fill="#F9E2AF" height="24.4799" rx="2.5" ry="2.5" style="stroke:#A6ADC8;stroke-width:0.5;" width="221.5991" x="1666.2" y="619"/><text fill="#1E1E2E" font-family="'JetBrains Mono,monospace'" font-size="14" lengthAdjust="spacing" textLength="201.5991" x="1676.2" y="636.2799">provides/mutual-provider</text></g><!--entity bob--><g class="entity" data-qualified-name="bob" data-source-line="23" id="ent0002"><rect fill="#89B4FA" height="38.4799" rx="2.5" ry="2.5" style="stroke:#A6ADC8;stroke-width:0.5;" width="45.1999" x="119.4" y="7"/><text fill="#1E1E2E" font-family="'JetBrains Mono,monospace'" font-size="14" lengthAdjust="spacing" textLength="25.1999" x="129.4" y="31.2799">bob</text></g><!--link bob to dev_tools--><g class="link" data-entity-1="ent0002" data-entity-2="ent0004" data-link-type="dependency" data-source-line="45" id="lnk21"><path d="M142,45.71 C142,107.02 142,162.33 142,223.64" fill="none" id="bob-to-dev_tools" style="stroke:#A6ADC8;stroke-width:1;"/><polygon fill="#A6ADC8" points="142,229.64,146,220.64,142,224.64,138,220.64,142,229.64" style="stroke:#A6ADC8;stroke-width:1;"/></g><!--link dev_tools to bob--><g class="link" data-entity-1="ent0004" data-entity-2="ent0002" data-link-type="dependency" data-source-line="67" id="lnk43"><path d="M142,229.64 C142,168.33 142,113.02 142,51.71" fill="none" id="dev_tools-to-bob" style="stroke:#A6ADC8;stroke-width:1;"/><polygon fill="#A6ADC8" points="142,45.71,138,54.71,142,50.71,146,54.71,142,45.71" style="stroke:#A6ADC8;stroke-width:1;"/></g><!--link bob to gnome--><g class="link" data-entity-1="ent0002" data-entity-2="ent0005" data-link-type="dependency" data-source-line="46" id="lnk22"><path d="M164.9,25.7 C226.22,24.91 403.97,27.68 538.6,80.24 C607.43,107.11 670.9012,159.5041 704.0412,189.4941" fill="none" id="bob-to-gnome" style="stroke:#A6ADC8;stroke-width:1;"/><polygon fill="#A6ADC8" points="708.49,193.52,704.5008,184.5152,704.7827,190.1651,699.1328,190.447,708.49,193.52" style="stroke:#A6ADC8;stroke-width:1;"/></g><!--link bob to primary_user--><g class="link" data-entity-1="ent0002" data-entity-2="ent0006" data-link-type="dependency" data-source-line="47" id="lnk23"><path d="M158.88,45.69 C183.03,74.81 228.41,127.65 249.8,140.24 C275.13,155.15 300.5969,162.7926 327.5169,167.9426" fill="none" id="bob-to-primary_user" style="stroke:#A6ADC8;stroke-width:1;"/><polygon fill="#A6ADC8" points="333.41,169.07,325.3219,163.4501,328.4991,168.1305,323.8187,171.3077,333.41,169.07" style="stroke:#A6ADC8;stroke-width:1;"/></g><!--link bob to den__provides__primary_user--><g class="link" data-entity-1="ent0002" data-entity-2="ent0007" data-link-type="dependency" data-source-line="48" id="lnk24"><path d="M165.09,33.7 C186.68,40.99 220.49,52.4 249.8,62.24 C285.51,74.24 320.5595,85.9679 349.4595,95.6279" fill="none" id="bob-to-den__provides__primary_user" style="stroke:#A6ADC8;stroke-width:1;"/><polygon fill="#A6ADC8" points="355.15,97.53,347.8823,90.8832,350.4079,95.9449,345.3462,98.4705,355.15,97.53" style="stroke:#A6ADC8;stroke-width:1;"/></g><!--link bob to user__self_provide_user_--><g class="link" data-entity-1="ent0002" data-entity-2="ent0011" data-link-type="dependency" data-source-line="49" id="lnk25"><path d="M161.72,45.97 C170.9,56.27 181.69,69.38 189.8,82.24 C223.97,136.4 200.56,172.3 249.8,213.24 C260.75,222.35 268.0895,227.0733 281.6495,232.2133" fill="none" id="bob-to-user__self_provide_user_" style="stroke:#A6ADC8;stroke-width:1;"/><polygon fill="#A6ADC8" points="287.26,234.34,280.2621,227.4097,282.5846,232.5678,277.4265,234.8903,287.26,234.34" style="stroke:#A6ADC8;stroke-width:1;"/></g><!--link n_default to default__aspect_default_--><g class="link" data-entity-1="ent0013" data-entity-2="ent0014" data-link-type="dependency" data-source-line="50" id="lnk26"><path d="M770.15,552.6 C808.51,557.91 863.0467,565.4472 915.7767,572.7472" fill="none" id="n_default-to-default__aspect_default_" style="stroke:#A6ADC8;stroke-width:1;"/><polygon fill="#A6ADC8" points="921.72,573.57,913.3536,568.3736,916.7672,572.8843,912.2565,576.298,921.72,573.57" style="stroke:#A6ADC8;stroke-width:1;"/></g><!--link n_default to den__provides__define_user--><g class="link" data-entity-1="ent0013" data-entity-2="ent0018" data-link-type="dependency" data-source-line="51" id="lnk27"><path d="M770.11,554.26 C796.82,559.96 832.68,569.36 862.2,583.24 C891.65,597.09 891.15,615.45 922.2,625.24 C1120.68,687.81 1368.9897,626.4528 1465.6797,597.6528" fill="none" id="n_default-to-den__provides__define_user" style="stroke:#A6ADC8;stroke-width:1;"/><polygon fill="#A6ADC8" points="1471.43,595.94,1461.6626,594.6756,1466.6381,597.3673,1463.9464,602.3427,1471.43,595.94" style="stroke:#A6ADC8;stroke-width:1;"/></g><!--link n_default to den__provides__hostname--><g class="link" data-entity-1="ent0013" data-entity-2="ent0019" data-link-type="dependency" data-source-line="52" id="lnk28"><path d="M770.11,546.74 C858.41,545.61 1070.2205,542.8872 1189.1405,541.3572" fill="none" id="n_default-to-den__provides__hostname" style="stroke:#A6ADC8;stroke-width:1;"/><polygon fill="#A6ADC8" points="1195.14,541.28,1186.0893,537.3961,1190.1404,541.3443,1186.1922,545.3955,1195.14,541.28" style="stroke:#A6ADC8;stroke-width:1;"/></g><!--link n_default to den__provides__mutual_provider--><g class="link" data-entity-1="ent0013" data-entity-2="ent0020" data-link-type="dependency" data-source-line="53" id="lnk29"><path d="M770.15,565.92 C797.7,573.25 834.58,582.3 862.2,600.74 C898.28,624.83 883.22,658.7 922.2,677.74 C1223.37,824.87 1652.7657,692.1632 1750.5457,646.4032" fill="none" id="n_default-to-den__provides__mutual_provider" style="stroke:#A6ADC8;stroke-width:1;"/><polygon fill="#A6ADC8" points="1755.98,643.86,1746.133,644.0519,1751.4514,645.9793,1749.524,651.2977,1755.98,643.86" style="stroke:#A6ADC8;stroke-width:1;"/></g><!--link den__provides__mutual_provider to n_default--><g class="link" data-entity-1="ent0020" data-entity-2="ent0013" data-link-type="dependency" data-source-line="63" id="lnk39"><path d="M1711.24,643.91 C1562.7,681.32 1189.72,773.43 922.2,642.74 C883.22,623.7 898.28,589.83 862.2,565.74 C834.58,547.3 803.6914,538.5719 776.1414,537.0919" fill="none" id="den__provides__mutual_provider-to-n_default" style="stroke:#A6ADC8;stroke-width:1;"/><polygon fill="#A6ADC8" points="770.15,536.77,778.9225,541.247,775.1428,537.0382,779.3516,533.2585,770.15,536.77" style="stroke:#A6ADC8;stroke-width:1;"/></g><!--link default__aspect_default_ to den__provides__define_user--><g class="link" data-entity-1="ent0014" data-entity-2="ent0018" data-link-type="dependency" data-source-line="54" id="lnk30"><path d="M1135.74,598.23 C1220.04,600.21 1330.8673,599.1465 1411.7173,595.1465" fill="none" id="default__aspect_default_-to-den__provides__define_user" style="stroke:#A6ADC8;stroke-width:1;"/><polygon fill="#A6ADC8" points="1417.71,594.85,1408.5233,591.2996,1412.7161,595.0971,1408.9187,599.2898,1417.71,594.85" style="stroke:#A6ADC8;stroke-width:1;"/></g><!--link den__provides__define_user to default__aspect_default_--><g class="link" data-entity-1="ent0018" data-entity-2="ent0014" data-link-type="dependency" data-source-line="57" id="lnk33"><path d="M1417.71,573.57 C1336.86,571.26 1226.0341,572.0548 1141.7341,575.7848" fill="none" id="den__provides__define_user-to-default__aspect_default_" style="stroke:#A6ADC8;stroke-width:1;"/><polygon fill="#A6ADC8" points="1135.74,576.05,1144.908,579.6483,1140.7351,575.829,1144.5544,571.6561,1135.74,576.05" style="stroke:#A6ADC8;stroke-width:1;"/></g><!--link default__aspect_default_ to den__provides__hostname--><g class="link" data-entity-1="ent0014" data-entity-2="ent0019" data-link-type="dependency" data-source-line="55" id="lnk31"><path d="M1135.55,580.61 C1179.05,572.71 1219.7862,563.932 1246.8162,554.792" fill="none" id="default__aspect_default_-to-den__provides__hostname" style="stroke:#A6ADC8;stroke-width:1;"/><polygon fill="#A6ADC8" points="1252.5,552.87,1242.6929,551.9637,1247.7635,554.4716,1245.2555,559.5422,1252.5,552.87" style="stroke:#A6ADC8;stroke-width:1;"/></g><!--link den__provides__hostname to default__aspect_default_--><g class="link" data-entity-1="ent0019" data-entity-2="ent0014" data-link-type="dependency" data-source-line="60" id="lnk36"><path d="M1195.23,543.56 C1155.95,549.83 1115.8878,557.8085 1082.4378,566.9485" fill="none" id="den__provides__hostname-to-default__aspect_default_" style="stroke:#A6ADC8;stroke-width:1;"/><polygon fill="#A6ADC8" points="1076.65,568.53,1086.3861,570.0163,1081.4732,567.2121,1084.2774,562.2992,1076.65,568.53" style="stroke:#A6ADC8;stroke-width:1;"/></g><!--link default__aspect_default_ to den__provides__mutual_provider--><g class="link" data-entity-1="ent0014" data-entity-2="ent0020" data-link-type="dependency" data-source-line="56" id="lnk32"><path d="M1117.32,607.97 C1196.02,617.02 1314.82,624.81 1418.2,630.74 C1501.25,635.5 1589.1805,640.1229 1659.9605,641.0329" fill="none" id="default__aspect_default_-to-den__provides__mutual_provider" style="stroke:#A6ADC8;stroke-width:1;"/><polygon fill="#A6ADC8" points="1665.96,641.11,1657.0122,636.9946,1660.9604,641.0457,1656.9093,644.994,1665.96,641.11" style="stroke:#A6ADC8;stroke-width:1;"/></g><!--link den__provides__mutual_provider to default__aspect_default_--><g class="link" data-entity-1="ent0020" data-entity-2="ent0014" data-link-type="dependency" data-source-line="64" id="lnk40"><path d="M1735.47,618.52 C1669.14,608.81 1533.23,602.33 1418.2,595.74 C1322.57,590.26 1219.7575,583.3528 1141.6875,581.1028" fill="none" id="den__provides__mutual_provider-to-default__aspect_default_" style="stroke:#A6ADC8;stroke-width:1;"/><polygon fill="#A6ADC8" points="1135.69,580.93,1144.571,585.1876,1140.6879,581.074,1144.8015,577.1909,1135.69,580.93" style="stroke:#A6ADC8;stroke-width:1;"/></g><!--link den__provides__define_user to den__provides__default__aspect_default__den__provides--><g class="link" data-entity-1="ent0018" data-entity-2="ent0015" data-link-type="dependency" data-source-line="58" id="lnk34"><path d="M1606.54,583.24 C1695.9,583.24 1827.56,583.24 1941.43,583.24" fill="none" id="den__provides__define_user-to-den__provides__default__aspect_default__den__provides" style="stroke:#A6ADC8;stroke-width:1;"/><polygon fill="#A6ADC8" points="1947.43,583.24,1938.43,579.24,1942.43,583.24,1938.43,587.24,1947.43,583.24" style="stroke:#A6ADC8;stroke-width:1;"/></g><!--link den__provides__define_user to den__provides__mutual_provider--><g class="link" data-entity-1="ent0018" data-entity-2="ent0020" data-link-type="dependency" data-source-line="59" id="lnk35"><path d="M1582.93,595.98 C1621.1,602.95 1662.3377,610.4817 1700.4877,617.4517" fill="none" id="den__provides__define_user-to-den__provides__mutual_provider" style="stroke:#A6ADC8;stroke-width:1;"/><polygon fill="#A6ADC8" points="1706.39,618.53,1698.2554,612.9776,1701.4714,617.6314,1696.8176,620.8473,1706.39,618.53" style="stroke:#A6ADC8;stroke-width:1;"/></g><!--link den__provides__hostname to den__provides__default__aspect_default__den__provides--><g class="link" data-entity-1="ent0019" data-entity-2="ent0015" data-link-type="dependency" data-source-line="61" id="lnk37"><path d="M1358.45,543.07 C1424.94,545.5 1521.7,549.22 1606.2,553.24 C1719.24,558.62 1839.5699,565.2452 1941.5499,571.1152" fill="none" id="den__provides__hostname-to-den__provides__default__aspect_default__den__provides" style="stroke:#A6ADC8;stroke-width:1;"/><polygon fill="#A6ADC8" points="1947.54,571.46,1938.7847,566.9494,1942.5483,571.1727,1938.325,574.9362,1947.54,571.46" style="stroke:#A6ADC8;stroke-width:1;"/></g><!--link den__provides__hostname to den__provides__define_user--><g class="link" data-entity-1="ent0019" data-entity-2="ent0018" data-link-type="dependency" data-source-line="62" id="lnk38"><path d="M1346.88,552.97 C1376.99,558.51 1406.2995,563.9117 1436.3895,569.4617" fill="none" id="den__provides__hostname-to-den__provides__define_user" style="stroke:#A6ADC8;stroke-width:1;"/><polygon fill="#A6ADC8" points="1442.29,570.55,1434.1648,564.9839,1437.3729,569.6431,1432.7137,572.8512,1442.29,570.55" style="stroke:#A6ADC8;stroke-width:1;"/></g><!--link den__provides__mutual_provider to den__provides__default__aspect_default__den__provides--><g class="link" data-entity-1="ent0020" data-entity-2="ent0015" data-link-type="dependency" data-source-line="65" id="lnk41"><path d="M1875.59,618.5 C1929.01,611.53 1989.0405,603.6967 2042.4305,596.7267" fill="none" id="den__provides__mutual_provider-to-den__provides__default__aspect_default__den__provides" style="stroke:#A6ADC8;stroke-width:1;"/><polygon fill="#A6ADC8" points="2048.38,595.95,2038.9379,593.1487,2043.4221,596.5973,2039.9735,601.0814,2048.38,595.95" style="stroke:#A6ADC8;stroke-width:1;"/></g><!--link den__provides__primary_user to gnome--><g class="link" data-entity-1="ent0007" data-entity-2="ent0005" data-link-type="dependency" data-source-line="66" id="lnk42"><path d="M470.22,122.91 C492.42,127.33 516.66,132.82 538.6,139.24 C596.74,156.26 656.5729,181.0255 693.7229,197.2755" fill="none" id="den__provides__primary_user-to-gnome" style="stroke:#A6ADC8;stroke-width:1;"/><polygon fill="#A6ADC8" points="699.22,199.68,692.5773,192.4085,694.6391,197.6762,689.3713,199.738,699.22,199.68" style="stroke:#A6ADC8;stroke-width:1;"/></g><!--link dev_tools to dev_tools--><g class="link" data-entity-1="ent0004" data-entity-2="ent0004" data-link-type="dependency" data-source-line="68" id="lnk44"><path d="M102.52,229.78 C84.51,212.88 97.67,195 142,195 C186.33,195 203.8653,208.7743 185.8553,225.6743" fill="none" id="dev_tools-to-dev_tools" style="stroke:#A6ADC8;stroke-width:1;"/><polygon fill="#A6ADC8" points="181.48,229.78,190.7801,226.5384,185.1261,226.3586,185.3059,220.7046,181.48,229.78" style="stroke:#A6ADC8;stroke-width:1;"/></g><!--link dev_tools to user__self_provide_user_--><g class="link" data-entity-1="ent0004" data-entity-2="ent0011" data-link-type="dependency" data-source-line="69" id="lnk45"><path d="M190.06,259.76 C217.52,261.9 247.3406,262.8067 281.2306,262.3167" fill="none" id="dev_tools-to-user__self_provide_user_" style="stroke:#A6ADC8;stroke-width:1;"/><polygon fill="#A6ADC8" points="287.23,262.23,278.1731,258.3605,282.2305,262.3023,278.2888,266.3597,287.23,262.23" style="stroke:#A6ADC8;stroke-width:1;"/></g><!--link user__self_provide_user_ to dev_tools--><g class="link" data-entity-1="ent0011" data-entity-2="ent0004" data-link-type="dependency" data-source-line="83" id="lnk59"><path d="M287.23,236.25 C253.34,235.76 223.5019,236.1138 196.0419,238.2538" fill="none" id="user__self_provide_user_-to-dev_tools" style="stroke:#A6ADC8;stroke-width:1;"/><polygon fill="#A6ADC8" points="190.06,238.72,199.3436,242.0086,195.0449,238.3315,198.722,234.0328,190.06,238.72" style="stroke:#A6ADC8;stroke-width:1;"/></g><!--link gnome to dev_tools--><g class="link" data-entity-1="ent0005" data-entity-2="ent0004" data-link-type="dependency" data-source-line="70" id="lnk46"><path d="M699.02,228.87 C662.19,246.86 597.71,275.32 538.6,286.24 C412.38,309.56 376.37,307.54 249.8,286.24 C229.29,282.79 213.0692,277.9534 194.5292,271.0134" fill="none" id="gnome-to-dev_tools" style="stroke:#A6ADC8;stroke-width:1;"/><polygon fill="#A6ADC8" points="188.91,268.91,195.9366,275.8113,193.5927,270.6628,198.7411,268.319,188.91,268.91" style="stroke:#A6ADC8;stroke-width:1;"/></g><!--link gnome to gnome--><g class="link" data-entity-1="ent0005" data-entity-2="ent0005" data-link-type="dependency" data-source-line="71" id="lnk47"><path d="M699.12,202.86 C657.9,184.03 668.33,159 730.4,159 C792.47,159 808.3473,181.5364 767.1373,200.3664" fill="none" id="gnome-to-gnome" style="stroke:#A6ADC8;stroke-width:1;"/><polygon fill="#A6ADC8" points="761.68,202.86,771.5283,202.7578,766.2277,200.782,768.2035,195.4814,761.68,202.86" style="stroke:#A6ADC8;stroke-width:1;"/></g><!--link gnome to user__self_provide_user_--><g class="link" data-entity-1="ent0005" data-entity-2="ent0011" data-link-type="dependency" data-source-line="72" id="lnk48"><path d="M699.3,208.56 C648.76,208.48 551.2008,217.5915 479.0608,228.6415" fill="none" id="gnome-to-user__self_provide_user_" style="stroke:#A6ADC8;stroke-width:1;"/><polygon fill="#A6ADC8" points="473.13,229.55,482.6319,232.1412,478.0724,228.793,481.4206,224.2334,473.13,229.55" style="stroke:#A6ADC8;stroke-width:1;"/></g><!--link user__self_provide_user_ to gnome--><g class="link" data-entity-1="ent0011" data-entity-2="ent0005" data-link-type="dependency" data-source-line="84" id="lnk60"><path d="M500.94,250.15 C569.78,244.66 648.8961,235.3208 693.2861,225.7008" fill="none" id="user__self_provide_user_-to-gnome" style="stroke:#A6ADC8;stroke-width:1;"/><polygon fill="#A6ADC8" points="699.15,224.43,689.507,222.4269,694.2634,225.489,691.2014,230.2454,699.15,224.43" style="stroke:#A6ADC8;stroke-width:1;"/></g><!--link primary_user to gnome--><g class="link" data-entity-1="ent0006" data-entity-2="ent0005" data-link-type="dependency" data-source-line="73" id="lnk49"><path d="M454.95,182.85 C526.67,190.79 638.1764,203.14 693.2064,209.23" fill="none" id="primary_user-to-gnome" style="stroke:#A6ADC8;stroke-width:1;"/><polygon fill="#A6ADC8" points="699.17,209.89,690.6646,204.9243,694.2003,209.34,689.7846,212.8758,699.17,209.89" style="stroke:#A6ADC8;stroke-width:1;"/></g><!--link user to bob--><g class="link" data-entity-1="ent0008" data-entity-2="ent0002" data-link-type="dependency" data-source-line="74" id="lnk50"><path d="M124.79,412.87 C100.35,383.93 56.74,326.61 40.2,268.74 C19.56,196.52 6,166.61 40.2,99.74 C56.68,67.52 89.1136,48.6313 113.7336,37.6113" fill="none" id="user-to-bob" style="stroke:#A6ADC8;stroke-width:1;"/><polygon fill="#A6ADC8" points="119.21,35.16,109.3612,35.186,114.6463,37.2027,112.6295,42.4879,119.21,35.16" style="stroke:#A6ADC8;stroke-width:1;"/></g><!--link user to n_default--><g class="link" data-entity-1="ent0008" data-entity-2="ent0013" data-link-type="dependency" data-source-line="75" id="lnk51"><path d="M168.95,442.64 C190.35,450.87 221.64,462.13 249.8,469.24 C411.13,509.98 602.6156,533.5971 684.7456,542.5871" fill="none" id="user-to-n_default" style="stroke:#A6ADC8;stroke-width:1;"/><polygon fill="#A6ADC8" points="690.71,543.24,682.1987,538.2845,685.7397,542.6959,681.3282,546.237,690.71,543.24" style="stroke:#A6ADC8;stroke-width:1;"/></g><!--link user to default__cross_provide_user_--><g class="link" data-entity-1="ent0008" data-entity-2="ent0016" data-link-type="dependency" data-source-line="76" id="lnk52"><path d="M158.06,451.72 C176.9,474.62 211.39,511.95 249.8,531.24 C362.37,587.78 500.0569,608.2199 600.6869,615.7899" fill="none" id="user-to-default__cross_provide_user_" style="stroke:#A6ADC8;stroke-width:1;"/><polygon fill="#A6ADC8" points="606.67,616.24,597.9954,611.5761,601.6841,615.8649,597.3953,619.5536,606.67,616.24" style="stroke:#A6ADC8;stroke-width:1;"/></g><!--link user to default__self_provide_default_--><g class="link" data-entity-1="ent0008" data-entity-2="ent0017" data-link-type="dependency" data-source-line="77" id="lnk53"><path d="M148.28,451.95 C159.7,490.48 190.59,575.55 249.8,616.24 C351.97,686.44 488.94,701.4088 592.17,701.4288" fill="none" id="user-to-default__self_provide_default_" style="stroke:#A6ADC8;stroke-width:1;"/><polygon fill="#A6ADC8" points="598.17,701.43,589.17,697.43,593.17,701.43,589.17,705.43,598.17,701.43" style="stroke:#A6ADC8;stroke-width:1;"/></g><!--link user to user--><g class="link" data-entity-1="ent0008" data-entity-2="ent0008" data-link-type="dependency" data-source-line="78" id="lnk54"><path d="M115.08,421.59 C80.81,402.8 89.79,378 142,378 C194.21,378 208.4511,399.9154 174.1811,418.7054" fill="none" id="user-to-user" style="stroke:#A6ADC8;stroke-width:1;"/><polygon fill="#A6ADC8" points="168.92,421.59,178.7347,420.7705,173.3042,419.1862,174.8885,413.7557,168.92,421.59" style="stroke:#A6ADC8;stroke-width:1;"/></g><!--link user to user__aspect_user_--><g class="link" data-entity-1="ent0008" data-entity-2="ent0009" data-link-type="dependency" data-source-line="79" id="lnk55"><path d="M168.83,440.61 C202.48,445.05 256.8739,446.5949 306.5339,444.8149" fill="none" id="user-to-user__aspect_user_" style="stroke:#A6ADC8;stroke-width:1;"/><polygon fill="#A6ADC8" points="312.53,444.6,303.3925,440.925,307.5332,444.7791,303.6791,448.9198,312.53,444.6" style="stroke:#A6ADC8;stroke-width:1;"/></g><!--link user__aspect_user_ to user--><g class="link" data-entity-1="ent0009" data-entity-2="ent0008" data-link-type="dependency" data-source-line="81" id="lnk57"><path d="M312.53,419.88 C262.87,418.1 208.4287,418.6469 174.7787,423.0769" fill="none" id="user__aspect_user_-to-user" style="stroke:#A6ADC8;stroke-width:1;"/><polygon fill="#A6ADC8" points="168.83,423.86,178.2751,426.6511,173.7872,423.2074,177.2309,418.7195,168.83,423.86" style="stroke:#A6ADC8;stroke-width:1;"/></g><!--link user to user__cross_provide__anon__--><g class="link" data-entity-1="ent0008" data-entity-2="ent0010" data-link-type="dependency" data-source-line="80" id="lnk56"><path d="M169.13,422.47 C190.62,414.61 221.97,403.54 249.8,395.24 C268.99,389.52 283.9744,385.4161 303.6344,380.4261" fill="none" id="user-to-user__cross_provide__anon__" style="stroke:#A6ADC8;stroke-width:1;"/><polygon fill="#A6ADC8" points="309.45,378.95,299.7425,377.2871,304.6037,380.1801,301.7107,385.0412,309.45,378.95" style="stroke:#A6ADC8;stroke-width:1;"/></g><!--link user__cross_provide__anon__ to n_default--><g class="link" data-entity-1="ent0010" data-entity-2="ent0013" data-link-type="dependency" data-source-line="82" id="lnk58"><path d="M511.38,378.82 C521.14,383.25 530.39,388.65 538.6,395.24 C566.5,417.64 549.47,441.77 574.6,467.24 C607.21,500.29 650.7337,520.4129 684.8737,532.8729" fill="none" id="user__cross_provide__anon__-to-n_default" style="stroke:#A6ADC8;stroke-width:1;"/><polygon fill="#A6ADC8" points="690.51,534.93,683.4269,528.0868,685.813,533.2158,680.6841,535.6019,690.51,534.93" style="stroke:#A6ADC8;stroke-width:1;"/></g><?plantuml-src hLRTQjim5BxtKuW4IWiBMNv8qnLsqS8OWvMn5p2A9RkcZXGafTiOVVT9iYLPjgGaepU9pz5tpdT-T2Grk1H0KC3gwba0L3DSY9gIZB_Kv00Pt8CTB5ugHey4FTA6CZ1Tu0LUuXu2uH8U6_654j512eGsvJeCUO9x32RVi7XWi2OSVAU4VjZB7tw01PxqZ21Zz5Vd4MuWAhR3nHJbJva995M37uO9h1QhvJeCfGnX5gEqi1xjg1XVyMzOKNAQr02Jb1qeHVW86JhDfb59AeL8yVoG7B0weve6s6VR5BSVjvinADN09ohEODEe99L2Z7aoPhe99Zkwcm38WVm7q-tTRbt2xD0622P7ZfbUvKBAkHB1tmo0dZt2hpD1QSCrJagvbi2qXBlLzjO7LuJkiGRgBmbQ5gX0FkZ0wZraVsQMl5EqzCwaa4rJQFfQ8ypd8pE4IPwRPVKLzD8ZjfPfo1poWzHSg-yRYy_pLgtzv-7qjNN1AEUpBgxhgqRSGqB9LINk-yuqoaGlVKj8hhokjZku3NZbk2cjqs5aQj7wCl6rsRsvPdVdLA_VdMRSSWSa5XJCk5iq9Ul4cwu_Mh25CxAQJxo2Yt6B8zu-oKxF3IZK-XXJxk5wl84C_BQv2bjVViTCbU_m4fPXZrxBmfNn6kVgOoizhazDS7G2skLk068rVgPS4DXDwS21MOj7i3-A8snCLi4eMeXHC5kZjonJPz1izjcT8bQZZmihzKUvPnGTTuk9ZKFcjd7hAhnVHh1OUTD0KyOqQb2dB3ek9qAvnCv6TedHED3ehaiMzwJTVypqXKvFf6Bt_oLv38pU8OaJ7dkTJmwUihOxy1pmkHc7RTyXSUyATyU2UtGedPprWSOT9xu-UXgqZnFVrEbQKYT7tKJ2jQAAr0gk4-D92Lmj0LJmid0ulIKyoN-o3DU2Bv0iyDJndCTUBkCKWyyIl-P9c2xcFm00?></g></svg>