<?xml version="1.0" encoding="UTF-8" standalone="no"?>
<!DOCTYPE svg PUBLIC "-//W3C//DTD SVG 1.1//EN"
 "http://www.w3.org/Graphics/SVG/1.1/DTD/svg11.dtd">
<!-- Generated by graphviz version 12.2.1 (0)
 -->
<!-- Pages: 1 -->
<svg width="1872pt" height="662pt"
 viewBox="0.00 0.00 1871.57 662.13" xmlns="http://www.w3.org/2000/svg" xmlns:xlink="http://www.w3.org/1999/xlink">
<g id="graph0" class="graph" transform="scale(1 1) rotate(0) translate(4 658.13)">
<polygon fill="#1e1e2e" stroke="none" points="-4,4 -4,-658.13 1867.57,-658.13 1867.57,4 -4,4"/>
<g id="clust1" class="cluster">
<title>cluster_ctx_user</title>
<polygon fill="#313244" stroke="#6c7086" stroke-dasharray="5,2" points="99.42,-275 99.42,-622 715.64,-622 715.64,-275 99.42,-275"/>
<text text-anchor="middle" x="407.53" y="-604.7" font-family="Times,serif" font-size="14.00" fill="#cdd6f4">user</text>
</g>
<g id="clust2" class="cluster">
<title>cluster_ctx_default</title>
<polygon fill="#313244" stroke="#6c7086" stroke-dasharray="5,2" points="483.76,-8 483.76,-267 1855.57,-267 1855.57,-8 483.76,-8"/>
<text text-anchor="middle" x="1169.67" y="-249.7" font-family="Times,serif" font-size="14.00" fill="#cdd6f4">default</text>
</g>
<!-- bob -->
<g id="node1" class="node">
<title>bob</title>
<path fill="#89b4fa" stroke="#89b4fa" d="M59.42,-499C59.42,-499 29.42,-499 29.42,-499 23.42,-499 17.42,-493 17.42,-487 17.42,-487 17.42,-475 17.42,-475 17.42,-469 23.42,-463 29.42,-463 29.42,-463 59.42,-463 59.42,-463 65.42,-463 71.42,-469 71.42,-475 71.42,-475 71.42,-487 71.42,-487 71.42,-493 65.42,-499 59.42,-499"/>
<text text-anchor="middle" x="44.42" y="-476.32" font-family="Times,serif" font-size="14.00" fill="#1e1e2e">bob</text>
</g>
<!-- bob&#45;&gt;bob -->
<g id="edge1" class="edge">
<title>bob&#45;&gt;bob</title>
<path fill="none" stroke="#a6adc8" d="M16.96,-488.96C-12.56,-501.31 -3.41,-517 44.42,-517 85.53,-517 98.07,-505.41 82.05,-494.31"/>
<polygon fill="#a6adc8" stroke="#a6adc8" points="83.7,-491.23 73.23,-489.66 80.44,-497.42 83.7,-491.23"/>
</g>
<!-- dev_tools -->
<g id="node2" class="node">
<title>dev_tools</title>
<polygon fill="#fab387" stroke="#fab387" points="321.28,-391 240.78,-391 240.78,-355 321.28,-355 321.28,-391"/>
<text text-anchor="middle" x="281.03" y="-368.32" font-family="Times,serif" font-size="14.00" fill="#1e1e2e">dev&#45;tools</text>
</g>
<!-- bob&#45;&gt;dev_tools -->
<g id="edge2" class="edge">
<title>bob&#45;&gt;dev_tools</title>
<path fill="none" stroke="#a6adc8" d="M56.66,-462.51C66.27,-448.25 81.41,-429.13 99.42,-418 138.92,-393.61 190.95,-382.43 229.02,-377.3"/>
<polygon fill="#a6adc8" stroke="#a6adc8" points="229.36,-380.79 238.85,-376.09 228.5,-373.84 229.36,-380.79"/>
</g>
<!-- gnome -->
<g id="node3" class="node">
<title>gnome</title>
<polygon fill="#f2cdcd" stroke="#f2cdcd" points="313.03,-463 249.03,-463 249.03,-427 313.03,-427 313.03,-463"/>
<text text-anchor="middle" x="281.03" y="-440.32" font-family="Times,serif" font-size="14.00" fill="#1e1e2e">gnome</text>
</g>
<!-- bob&#45;&gt;gnome -->
<g id="edge3" class="edge">
<title>bob&#45;&gt;gnome</title>
<path fill="none" stroke="#a6adc8" d="M71.88,-476.94C112.18,-470.76 189.33,-458.92 237.54,-451.52"/>
<polygon fill="#a6adc8" stroke="#a6adc8" points="237.99,-454.99 247.35,-450.02 236.93,-448.07 237.99,-454.99"/>
</g>
<!-- primary_user -->
<g id="node4" class="node">
<title>primary_user</title>
<polygon fill="#f2cdcd" stroke="#f2cdcd" points="335.53,-535 226.53,-535 226.53,-499 335.53,-499 335.53,-535"/>
<text text-anchor="middle" x="281.03" y="-512.33" font-family="Times,serif" font-size="14.00" fill="#1e1e2e">primary&#45;user</text>
</g>
<!-- bob&#45;&gt;primary_user -->
<g id="edge4" class="edge">
<title>bob&#45;&gt;primary_user</title>
<path fill="none" stroke="#a6adc8" d="M71.78,-485.48C80.56,-486.95 90.41,-488.58 99.42,-490 137.69,-496.05 180.57,-502.47 214.94,-507.54"/>
<polygon fill="#a6adc8" stroke="#a6adc8" points="214.35,-510.99 224.76,-508.98 215.37,-504.06 214.35,-510.99"/>
</g>
<!-- den__provides__primary_user -->
<g id="node5" class="node">
<title>den__provides__primary_user</title>
<polygon fill="#f2cdcd" stroke="#f2cdcd" points="382.42,-589 179.64,-589 107.42,-553 454.64,-553 382.42,-589"/>
<text text-anchor="middle" x="281.03" y="-566.33" font-family="Times,serif" font-size="14.00" fill="#1e1e2e">provides/primary&#45;user</text>
</g>
<!-- bob&#45;&gt;den__provides__primary_user -->
<g id="edge5" class="edge">
<title>bob&#45;&gt;den__provides__primary_user</title>
<path fill="none" stroke="#a6adc8" d="M55.99,-499.37C65.43,-513.97 80.64,-533.61 99.42,-544 101.97,-545.41 104.57,-546.75 107.21,-548.03"/>
<polygon fill="#a6adc8" stroke="#a6adc8" points="105.66,-551.17 116.21,-552.05 108.51,-544.78 105.66,-551.17"/>
</g>
<!-- user__self_provide_user_ -->
<g id="node9" class="node">
<title>user__self_provide_user_</title>
<polygon fill="#f2cdcd" stroke="#f2cdcd" points="687.76,-463 510.51,-463 510.51,-427 687.76,-427 687.76,-463"/>
<text text-anchor="middle" x="599.14" y="-440.32" font-family="Times,serif" font-size="14.00" fill="#1e1e2e">user/self&#45;provide(user)</text>
</g>
<!-- bob&#45;&gt;user__self_provide_user_ -->
<g id="edge6" class="edge">
<title>bob&#45;&gt;user__self_provide_user_</title>
<path fill="none" stroke="#a6adc8" d="M47.75,-499.18C52.3,-526.18 65.13,-576.06 99.42,-598 232.41,-683.09 309.77,-660.74 454.64,-598 513.44,-572.53 559.2,-509.79 582.07,-473.05"/>
<polygon fill="#a6adc8" stroke="#a6adc8" points="584.93,-475.09 587.12,-464.72 578.94,-471.46 584.93,-475.09"/>
</g>
<!-- dev_tools&#45;&gt;dev_tools -->
<g id="edge21" class="edge">
<title>dev_tools&#45;&gt;dev_tools</title>
<path fill="none" stroke="#a6adc8" d="M240.58,-388.54C229.19,-398.91 242.67,-409 281.03,-409 305,-409 319.26,-405.06 323.8,-399.57"/>
<polygon fill="#a6adc8" stroke="#a6adc8" points="327.28,-399.09 321.8,-390.02 320.43,-400.53 327.28,-399.09"/>
</g>
<!-- dev_tools&#45;&gt;user__self_provide_user_ -->
<g id="edge22" class="edge">
<title>dev_tools&#45;&gt;user__self_provide_user_</title>
<path fill="none" stroke="#a6adc8" d="M321.75,-382.05C367.64,-392.5 444.68,-410.05 505.79,-423.97"/>
<polygon fill="#a6adc8" stroke="#a6adc8" points="505,-427.37 515.52,-426.18 506.55,-420.55 505,-427.37"/>
</g>
<!-- gnome&#45;&gt;gnome -->
<g id="edge23" class="edge">
<title>gnome&#45;&gt;gnome</title>
<path fill="none" stroke="#a6adc8" d="M248.82,-455.14C225.24,-467.07 235.97,-481 281.03,-481 317.99,-481 331.86,-471.63 322.63,-461.67"/>
<polygon fill="#a6adc8" stroke="#a6adc8" points="324.69,-458.84 314.48,-456 320.69,-464.59 324.69,-458.84"/>
</g>
<!-- gnome&#45;&gt;user__self_provide_user_ -->
<g id="edge24" class="edge">
<title>gnome&#45;&gt;user__self_provide_user_</title>
<path fill="none" stroke="#a6adc8" d="M313.5,-445C356.37,-445 435.09,-445 498.9,-445"/>
<polygon fill="#a6adc8" stroke="#a6adc8" points="498.71,-448.5 508.71,-445 498.71,-441.5 498.71,-448.5"/>
</g>
<!-- user -->
<g id="node6" class="node">
<title>user</title>
<polygon fill="#f2cdcd" stroke="#f2cdcd" points="308.03,-319 254.03,-319 254.03,-283 308.03,-283 308.03,-319"/>
<text text-anchor="middle" x="281.03" y="-296.32" font-family="Times,serif" font-size="14.00" fill="#1e1e2e">user</text>
</g>
<!-- user&#45;&gt;bob -->
<g id="edge25" class="edge">
<title>user&#45;&gt;bob</title>
<path fill="none" stroke="#a6adc8" d="M253.64,-300.43C215.14,-301.02 143.38,-307.66 99.42,-346 68.35,-373.1 54.95,-420.57 49.31,-451.38"/>
<polygon fill="#a6adc8" stroke="#a6adc8" points="45.87,-450.76 47.7,-461.2 52.78,-451.9 45.87,-450.76"/>
</g>
<!-- user&#45;&gt;user -->
<g id="edge29" class="edge">
<title>user&#45;&gt;user</title>
<path fill="none" stroke="#a6adc8" d="M253.57,-308.96C224.05,-321.31 233.2,-337 281.03,-337 322.13,-337 334.68,-325.41 318.65,-314.31"/>
<polygon fill="#a6adc8" stroke="#a6adc8" points="320.31,-311.23 309.83,-309.66 317.05,-317.42 320.31,-311.23"/>
</g>
<!-- user__aspect_user_ -->
<g id="node7" class="node">
<title>user__aspect_user_</title>
<polygon fill="#fab387" stroke="#fab387" points="669.39,-373 528.89,-373 528.89,-337 669.39,-337 669.39,-373"/>
<text text-anchor="middle" x="599.14" y="-350.32" font-family="Times,serif" font-size="14.00" fill="#1e1e2e">user/aspect(user)</text>
</g>
<!-- user&#45;&gt;user__aspect_user_ -->
<g id="edge30" class="edge">
<title>user&#45;&gt;user__aspect_user_</title>
<path fill="none" stroke="#a6adc8" d="M308.44,-305.51C353.84,-313.27 448.43,-329.43 517.21,-341.18"/>
<polygon fill="#a6adc8" stroke="#a6adc8" points="516.51,-344.61 526.96,-342.84 517.69,-337.71 516.51,-344.61"/>
</g>
<!-- user__cross_provide__anon__ -->
<g id="node8" class="node">
<title>user__cross_provide__anon__</title>
<polygon fill="#f38ba8" stroke="#f38ba8" points="707.64,-319 490.64,-319 490.64,-283 707.64,-283 707.64,-319"/>
<text text-anchor="middle" x="599.14" y="-296.32" font-family="Times,serif" font-size="14.00" fill="#1e1e2e">user/cross&#45;provide(&lt;anon&gt;)</text>
</g>
<!-- user&#45;&gt;user__cross_provide__anon__ -->
<g id="edge31" class="edge">
<title>user&#45;&gt;user__cross_provide__anon__</title>
<path fill="none" stroke="#a6adc8" d="M308.44,-301C345.81,-301 416.5,-301 478.69,-301"/>
<polygon fill="#a6adc8" stroke="#a6adc8" points="478.68,-304.5 488.68,-301 478.68,-297.5 478.68,-304.5"/>
</g>
<!-- n_default -->
<g id="node10" class="node">
<title>n_default</title>
<polygon fill="#fab387" stroke="#fab387" points="632.26,-108 566.01,-108 566.01,-72 632.26,-72 632.26,-108"/>
<text text-anchor="middle" x="599.14" y="-85.33" font-family="Times,serif" font-size="14.00" fill="#1e1e2e">default</text>
</g>
<!-- user&#45;&gt;n_default -->
<g id="edge26" class="edge">
<title>user&#45;&gt;n_default</title>
<path fill="none" stroke="#a6adc8" d="M300.26,-282.56C333.94,-249.34 409.29,-178.81 483.76,-135 506.03,-121.9 532.81,-111.13 554.86,-103.41"/>
<polygon fill="#a6adc8" stroke="#a6adc8" points="555.81,-106.79 564.15,-100.25 553.56,-100.16 555.81,-106.79"/>
</g>
<!-- default__cross_provide_user_ -->
<g id="node13" class="node">
<title>default__cross_provide_user_</title>
<polygon fill="#f9e2af" stroke="#f9e2af" points="703.51,-180 494.76,-180 494.76,-144 703.51,-144 703.51,-180"/>
<text text-anchor="middle" x="599.14" y="-157.32" font-family="Times,serif" font-size="14.00" fill="#1e1e2e">default/cross&#45;provide(user)</text>
</g>
<!-- user&#45;&gt;default__cross_provide_user_ -->
<g id="edge27" class="edge">
<title>user&#45;&gt;default__cross_provide_user_</title>
<path fill="none" stroke="#a6adc8" d="M308.28,-283.31C345.71,-258.83 417.27,-214.74 483.76,-189 488.44,-187.19 493.27,-185.48 498.18,-183.86"/>
<polygon fill="#a6adc8" stroke="#a6adc8" points="499.09,-187.25 507.6,-180.93 497.01,-180.56 499.09,-187.25"/>
</g>
<!-- default__self_provide_default_ -->
<g id="node14" class="node">
<title>default__self_provide_default_</title>
<polygon fill="#fab387" stroke="#fab387" points="706.51,-234 491.76,-234 491.76,-198 706.51,-198 706.51,-234"/>
<text text-anchor="middle" x="599.14" y="-211.32" font-family="Times,serif" font-size="14.00" fill="#1e1e2e">default/self&#45;provide(default)</text>
</g>
<!-- user&#45;&gt;default__self_provide_default_ -->
<g id="edge28" class="edge">
<title>user&#45;&gt;default__self_provide_default_</title>
<path fill="none" stroke="#a6adc8" d="M308.44,-293.9C354.14,-281.61 449.71,-255.91 518.6,-237.39"/>
<polygon fill="#a6adc8" stroke="#a6adc8" points="519.2,-240.85 527.95,-234.87 517.38,-234.09 519.2,-240.85"/>
</g>
<!-- n_default&#45;&gt;n_default -->
<g id="edge7" class="edge">
<title>n_default&#45;&gt;n_default</title>
<path fill="none" stroke="#a6adc8" d="M565.79,-96.89C521.85,-109.39 532.97,-126 599.14,-126 659.1,-126 673.85,-112.35 643.39,-100.5"/>
<polygon fill="#a6adc8" stroke="#a6adc8" points="644.51,-97.18 633.92,-97.37 642.31,-103.83 644.51,-97.18"/>
</g>
<!-- default__aspect_default_ -->
<g id="node11" class="node">
<title>default__aspect_default_</title>
<polygon fill="#a6e3a1" stroke="#a6e3a1" points="1598.53,-81 1420.53,-81 1420.53,-45 1598.53,-45 1598.53,-81"/>
<text text-anchor="middle" x="1509.53" y="-58.33" font-family="Times,serif" font-size="14.00" fill="#1e1e2e">default/aspect(default)</text>
</g>
<!-- n_default&#45;&gt;default__aspect_default_ -->
<g id="edge8" class="edge">
<title>n_default&#45;&gt;default__aspect_default_</title>
<path fill="none" stroke="#a6adc8" d="M631.63,-71.61C659.88,-56.25 703.03,-35.52 743.64,-27 978.23,22.23 1261.79,-15.75 1408.98,-42.51"/>
<polygon fill="#a6adc8" stroke="#a6adc8" points="1408.25,-45.93 1418.72,-44.3 1409.52,-39.05 1408.25,-45.93"/>
</g>
<!-- den__provides__define_user -->
<g id="node15" class="node">
<title>den__provides__define_user</title>
<polygon fill="#a6e3a1" stroke="#a6e3a1" points="1033.13,-72 846,-72 779.35,-36 1099.78,-36 1033.13,-72"/>
<text text-anchor="middle" x="939.57" y="-49.33" font-family="Times,serif" font-size="14.00" fill="#1e1e2e">provides/define&#45;user</text>
</g>
<!-- n_default&#45;&gt;den__provides__define_user -->
<g id="edge9" class="edge">
<title>n_default&#45;&gt;den__provides__define_user</title>
<path fill="none" stroke="#a6adc8" d="M632.59,-86.55C675.84,-81.95 754.7,-73.56 821.53,-66.45"/>
<polygon fill="#a6adc8" stroke="#a6adc8" points="821.49,-69.97 831.07,-65.44 820.75,-63.01 821.49,-69.97"/>
</g>
<!-- den__provides__hostname -->
<g id="node16" class="node">
<title>den__provides__hostname</title>
<polygon fill="#fab387" stroke="#fab387" points="1027.49,-144 851.65,-144 789.02,-108 1090.11,-108 1027.49,-144"/>
<text text-anchor="middle" x="939.57" y="-121.33" font-family="Times,serif" font-size="14.00" fill="#1e1e2e">provides/hostname</text>
</g>
<!-- n_default&#45;&gt;den__provides__hostname -->
<g id="edge10" class="edge">
<title>n_default&#45;&gt;den__provides__hostname</title>
<path fill="none" stroke="#a6adc8" d="M632.59,-93.45C667.41,-97.16 725.31,-103.31 781.42,-109.28"/>
<polygon fill="#a6adc8" stroke="#a6adc8" points="780.8,-112.74 791.11,-110.31 781.54,-105.78 780.8,-112.74"/>
</g>
<!-- den__provides__mutual_provider -->
<g id="node17" class="node">
<title>den__provides__mutual_provider</title>
<polygon fill="#f9e2af" stroke="#f9e2af" points="1053.99,-216 825.14,-216 743.64,-180 1135.49,-180 1053.99,-216"/>
<text text-anchor="middle" x="939.57" y="-193.32" font-family="Times,serif" font-size="14.00" fill="#1e1e2e">provides/mutual&#45;provider</text>
</g>
<!-- n_default&#45;&gt;den__provides__mutual_provider -->
<g id="edge11" class="edge">
<title>n_default&#45;&gt;den__provides__mutual_provider</title>
<path fill="none" stroke="#a6adc8" d="M632.59,-97.6C657.12,-104.47 690.71,-116.41 715.64,-135 731.89,-147.12 726.08,-160.86 743.64,-171 745.86,-172.28 748.12,-173.52 750.42,-174.7"/>
<polygon fill="#a6adc8" stroke="#a6adc8" points="748.77,-177.79 759.31,-178.92 751.77,-171.47 748.77,-177.79"/>
</g>
<!-- den__provides__default__aspect_default__den__provides -->
<g id="node12" class="node">
<title>den__provides__default__aspect_default__den__provides</title>
<polygon fill="#a6e3a1" stroke="#a6e3a1" points="1706.95,-144 1312.11,-144 1171.49,-108 1847.57,-108 1706.95,-144"/>
<text text-anchor="middle" x="1509.53" y="-121.33" font-family="Times,serif" font-size="14.00" fill="#1e1e2e">provides/default/aspect(default):den/provides</text>
</g>
<!-- den__provides__define_user&#45;&gt;default__aspect_default_ -->
<g id="edge12" class="edge">
<title>den__provides__define_user&#45;&gt;default__aspect_default_</title>
<path fill="none" stroke="#a6adc8" d="M1063.81,-55.95C1167.11,-57.59 1312.72,-59.9 1408.81,-61.42"/>
<polygon fill="#a6adc8" stroke="#a6adc8" points="1408.71,-64.92 1418.76,-61.58 1408.82,-57.92 1408.71,-64.92"/>
</g>
<!-- den__provides__define_user&#45;&gt;den__provides__default__aspect_default__den__provides -->
<g id="edge13" class="edge">
<title>den__provides__define_user&#45;&gt;den__provides__default__aspect_default__den__provides</title>
<path fill="none" stroke="#a6adc8" d="M1037.33,-70.15C1078.6,-76.76 1127.34,-84.2 1171.49,-90 1215.87,-95.83 1263.63,-101.37 1308.84,-106.28"/>
<polygon fill="#a6adc8" stroke="#a6adc8" points="1308.45,-109.76 1318.77,-107.35 1309.2,-102.8 1308.45,-109.76"/>
</g>
<!-- den__provides__define_user&#45;&gt;den__provides__define_user -->
<g id="edge14" class="edge">
<title>den__provides__define_user&#45;&gt;den__provides__define_user</title>
<path fill="none" stroke="#a6adc8" d="M877.98,-72.15C868.51,-81.54 889.03,-90 939.57,-90 969.17,-90 988.48,-87.1 997.49,-82.8"/>
<polygon fill="#a6adc8" stroke="#a6adc8" points="1000.72,-84.18 1000.66,-73.58 994.1,-81.9 1000.72,-84.18"/>
</g>
<!-- den__provides__hostname&#45;&gt;default__aspect_default_ -->
<g id="edge15" class="edge">
<title>den__provides__hostname&#45;&gt;default__aspect_default_</title>
<path fill="none" stroke="#a6adc8" d="M1090.54,-108.24C1117.49,-105.12 1145.32,-101.93 1171.49,-99 1251.24,-90.08 1341.66,-80.45 1408.75,-73.39"/>
<polygon fill="#a6adc8" stroke="#a6adc8" points="1409.07,-76.88 1418.65,-72.35 1408.34,-69.92 1409.07,-76.88"/>
</g>
<!-- den__provides__hostname&#45;&gt;den__provides__default__aspect_default__den__provides -->
<g id="edge16" class="edge">
<title>den__provides__hostname&#45;&gt;den__provides__default__aspect_default__den__provides</title>
<path fill="none" stroke="#a6adc8" d="M1059.63,-126C1109.14,-126 1168.87,-126 1228.39,-126"/>
<polygon fill="#a6adc8" stroke="#a6adc8" points="1228.38,-129.5 1238.38,-126 1228.38,-122.5 1228.38,-129.5"/>
</g>
<!-- den__provides__hostname&#45;&gt;den__provides__hostname -->
<g id="edge17" class="edge">
<title>den__provides__hostname&#45;&gt;den__provides__hostname</title>
<path fill="none" stroke="#a6adc8" d="M877.98,-144.15C868.51,-153.54 889.03,-162 939.57,-162 969.17,-162 988.48,-159.1 997.49,-154.8"/>
<polygon fill="#a6adc8" stroke="#a6adc8" points="1000.72,-156.18 1000.66,-145.58 994.1,-153.9 1000.72,-156.18"/>
</g>
<!-- den__provides__mutual_provider&#45;&gt;default__aspect_default_ -->
<g id="edge18" class="edge">
<title>den__provides__mutual_provider&#45;&gt;default__aspect_default_</title>
<path fill="none" stroke="#a6adc8" d="M1121.59,-179.71C1126.41,-177.08 1131.05,-174.19 1135.49,-171 1164.56,-150.14 1142.1,-119.4 1171.49,-99 1240.32,-51.22 1336.85,-45.45 1408.97,-49.75"/>
<polygon fill="#a6adc8" stroke="#a6adc8" points="1408.6,-53.23 1418.82,-50.41 1409.08,-46.25 1408.6,-53.23"/>
</g>
<!-- den__provides__mutual_provider&#45;&gt;den__provides__default__aspect_default__den__provides -->
<g id="edge19" class="edge">
<title>den__provides__mutual_provider&#45;&gt;den__provides__default__aspect_default__den__provides</title>
<path fill="none" stroke="#a6adc8" d="M1086.46,-179.5C1167.69,-169.21 1268.84,-156.38 1351.76,-145.87"/>
<polygon fill="#a6adc8" stroke="#a6adc8" points="1352.09,-149.36 1361.57,-144.63 1351.21,-142.42 1352.09,-149.36"/>
</g>
<!-- den__provides__mutual_provider&#45;&gt;den__provides__mutual_provider -->
<g id="edge20" class="edge">
<title>den__provides__mutual_provider&#45;&gt;den__provides__mutual_provider</title>
<path fill="none" stroke="#a6adc8" d="M877.98,-216.15C868.51,-225.54 889.03,-234 939.57,-234 969.17,-234 988.48,-231.1 997.49,-226.8"/>
<polygon fill="#a6adc8" stroke="#a6adc8" points="1000.72,-228.18 1000.66,-217.58 994.1,-225.9 1000.72,-228.18"/>
</g>
</g>
</svg>
