<?plantuml 1.2026.2?><svg xmlns="http://www.w3.org/2000/svg" xmlns:xlink="http://www.w3.org/1999/xlink" contentStyleType="text/css" data-diagram-type="DESCRIPTION" height="781px" preserveAspectRatio="none" style="width:1439px;height:781px;background:#1E1E2E;" version="1.1" viewBox="0 0 1439 781" width="1439px" zoomAndPan="magnify"><defs/><g><rect fill="#1E1E2E" height="781" style="stroke:none;stroke-width:1;" width="1439" x="0" y="0"/><!--cluster stage_user--><g class="cluster" data-qualified-name="stage_user" data-source-line="24" id="ent0003"><path d="M118.22,41.72 L152.8199,41.72 A3.75,3.75 0 0 1 155.3199,44.22 L162.3199,66.1999 L690.41,66.1999 A2.5,2.5 0 0 1 692.91,68.6999 L692.91,462.22 A2.5,2.5 0 0 1 690.41,464.72 L118.22,464.72 A2.5,2.5 0 0 1 115.72,462.22 L115.72,44.22 A2.5,2.5 0 0 1 118.22,41.72" fill="#313244" style="stroke:#6C7086;stroke-width:1.5;"/><line style="stroke:#6C7086;stroke-width:1.5;" x1="115.72" x2="162.3199" y1="66.1999" y2="66.1999"/><text fill="#CDD6F4" font-family="'JetBrains Mono,monospace'" font-size="14" font-weight="bold" lengthAdjust="spacing" textLength="33.5999" x="119.72" y="57.9999">user</text></g><!--cluster stage_default--><g class="cluster" data-qualified-name="stage_default" data-source-line="34" id="ent0012"><path d="M387.22,488.72 L447.0197,488.72 A3.75,3.75 0 0 1 449.5197,491.22 L456.5197,513.1999 L1430.01,513.1999 A2.5,2.5 0 0 1 1432.51,515.6999 L1432.51,772.22 A2.5,2.5 0 0 1 1430.01,774.72 L387.22,774.72 A2.5,2.5 0 0 1 384.72,772.22 L384.72,491.22 A2.5,2.5 0 0 1 387.22,488.72" fill="#313244" style="stroke:#6C7086;stroke-width:1.5;"/><line style="stroke:#6C7086;stroke-width:1.5;" x1="384.72" x2="456.5197" y1="513.1999" y2="513.1999"/><text fill="#CDD6F4" font-family="'JetBrains Mono,monospace'" font-size="14" font-weight="bold" lengthAdjust="spacing" textLength="58.7997" x="388.72" y="504.9999">default</text></g><!--entity dev_tools--><g class="entity" data-qualified-name="stage_user.dev_tools" data-source-line="25" id="ent0004"><rect fill="#FAB387" height="38.4799" rx="2.5" ry="2.5" style="stroke:#A6ADC8;stroke-width:0.5;" width="95.5997" x="182.12" y="319.48"/><text fill="#1E1E2E" font-family="'JetBrains Mono,monospace'" font-size="14" lengthAdjust="spacing" textLength="75.5997" x="192.12" y="343.7599">dev-tools</text></g><!--entity gnome--><g class="entity" data-qualified-name="stage_user.gnome" data-source-line="26" id="ent0005"><rect fill="#F2CDCD" height="38.4799" rx="2.5" ry="2.5" style="stroke:#A6ADC8;stroke-width:0.5;" width="61.9998" x="198.92" y="228.48"/><text fill="#1E1E2E" font-family="'JetBrains Mono,monospace'" font-size="14" lengthAdjust="spacing" textLength="41.9998" x="208.92" y="252.7599">gnome</text></g><!--entity primary_user--><g class="entity" data-qualified-name="stage_user.primary_user" data-source-line="27" id="ent0006"><rect fill="#F2CDCD" height="38.4799" rx="2.5" ry="2.5" style="stroke:#A6ADC8;stroke-width:0.5;" width="120.7996" x="169.52" y="137.48"/><text fill="#1E1E2E" font-family="'JetBrains Mono,monospace'" font-size="14" lengthAdjust="spacing" textLength="100.7996" x="179.52" y="161.7599">primary-user</text></g><!--entity den__provides__primary_user--><g class="entity" data-qualified-name="stage_user.den__provides__primary_user" data-source-line="28" id="ent0007"><rect fill="#F2CDCD" height="24.4799" rx="2.5" ry="2.5" style="stroke:#A6ADC8;stroke-width:0.5;" width="196.3992" x="131.72" y="78.48"/><text fill="#1E1E2E" font-family="'JetBrains Mono,monospace'" font-size="14" lengthAdjust="spacing" textLength="176.3992" x="141.72" y="95.7599">provides/primary-user</text></g><!--entity user--><g class="entity" data-qualified-name="stage_user.user" data-source-line="29" id="ent0008"><rect fill="#F2CDCD" height="38.4799" rx="2.5" ry="2.5" style="stroke:#A6ADC8;stroke-width:0.5;" width="53.5999" x="203.12" y="410.48"/><text fill="#1E1E2E" font-family="'JetBrains Mono,monospace'" font-size="14" lengthAdjust="spacing" textLength="33.5999" x="213.12" y="434.7599">user</text></g><!--entity user__aspect_user_--><g class="entity" data-qualified-name="stage_user.user__aspect_user_" data-source-line="30" id="ent0009"><rect fill="#FAB387" height="38.4799" rx="2.5" ry="2.5" style="stroke:#A6ADC8;stroke-width:0.5;" width="162.7994" x="451.11" y="337.48"/><text fill="#1E1E2E" font-family="'JetBrains Mono,monospace'" font-size="14" lengthAdjust="spacing" textLength="142.7994" x="461.11" y="361.7599">user/aspect(user)</text></g><!--entity user__cross_provide__anon__--><g class="entity" data-qualified-name="stage_user.user__cross_provide__anon__" data-source-line="31" id="ent0010"><rect fill="#F38BA8" height="38.4799" rx="2.5" ry="2.5" style="stroke:#A6ADC8;stroke-width:0.5;" width="288.7988" x="388.12" y="410.48"/><text fill="#1E1E2E" font-family="'JetBrains Mono,monospace'" font-size="14" lengthAdjust="spacing" textLength="268.7988" x="398.12" y="434.7599">user/cross-provide(&amp;lt;anon&amp;gt;)</text></g><!--entity user__self_provide_user_--><g class="entity" data-qualified-name="stage_user.user__self_provide_user_" data-source-line="32" id="ent0011"><rect fill="#F2CDCD" height="38.4799" rx="2.5" ry="2.5" style="stroke:#A6ADC8;stroke-width:0.5;" width="213.1992" x="425.91" y="228.48"/><text fill="#1E1E2E" font-family="'JetBrains Mono,monospace'" font-size="14" lengthAdjust="spacing" textLength="193.1992" x="435.91" y="252.7599">user/self-provide(user)</text></g><!--entity n_default--><g class="entity" data-qualified-name="stage_default.n_default" data-source-line="35" id="ent0013"><rect fill="#FAB387" height="38.4799" rx="2.5" ry="2.5" style="stroke:#A6ADC8;stroke-width:0.5;" width="78.7997" x="493.11" y="689.48"/><text fill="#1E1E2E" font-family="'JetBrains Mono,monospace'" font-size="14" lengthAdjust="spacing" textLength="58.7997" x="503.11" y="713.7599">default</text></g><!--entity default__aspect_default_--><g class="entity" data-qualified-name="stage_default.default__aspect_default_" data-source-line="36" id="ent0014"><rect fill="#A6E3A1" height="38.4799" rx="2.5" ry="2.5" style="stroke:#A6ADC8;stroke-width:0.5;" width="213.1992" x="1110.91" y="685.48"/><text fill="#1E1E2E" font-family="'JetBrains Mono,monospace'" font-size="14" lengthAdjust="spacing" textLength="193.1992" x="1120.91" y="709.7599">default/aspect(default)</text></g><!--entity den__provides__default__aspect_default__den__provides--><g class="entity" data-qualified-name="stage_default.den__provides__default__aspect_default__den__provides" data-source-line="37" id="ent0015"><rect fill="#A6E3A1" height="24.4799" rx="2.5" ry="2.5" style="stroke:#A6ADC8;stroke-width:0.5;" width="397.9984" x="1018.51" y="620.48"/><text fill="#1E1E2E" font-family="'JetBrains Mono,monospace'" font-size="14" lengthAdjust="spacing" textLength="377.9984" x="1028.51" y="637.7599">provides/default/aspect(default):den/provides</text></g><!--entity default__cross_provide_user_--><g class="entity" data-qualified-name="stage_default.default__cross_provide_user_" data-source-line="38" id="ent0016"><rect fill="#F9E2AF" height="38.4799" rx="2.5" ry="2.5" style="stroke:#A6ADC8;stroke-width:0.5;" width="246.799" x="409.12" y="598.48"/><text fill="#1E1E2E" font-family="'JetBrains Mono,monospace'" font-size="14" lengthAdjust="spacing" textLength="226.799" x="419.12" y="622.7599">default/cross-provide(user)</text></g><!--entity default__self_provide_default_--><g class="entity" data-qualified-name="stage_default.default__self_provide_default_" data-source-line="39" id="ent0017"><rect fill="#FAB387" height="38.4799" rx="2.5" ry="2.5" style="stroke:#A6ADC8;stroke-width:0.5;" width="263.5989" x="400.72" y="525.48"/><text fill="#1E1E2E" font-family="'JetBrains Mono,monospace'" font-size="14" lengthAdjust="spacing" textLength="243.5989" x="410.72" y="549.7599">default/self-provide(default)</text></g><!--entity den__provides__define_user--><g class="entity" data-qualified-name="stage_default.den__provides__define_user" data-source-line="40" id="ent0018"><rect fill="#A6E3A1" height="24.4799" rx="2.5" ry="2.5" style="stroke:#A6ADC8;stroke-width:0.5;" width="187.9993" x="753.71" y="697.48"/><text fill="#1E1E2E" font-family="'JetBrains Mono,monospace'" font-size="14" lengthAdjust="spacing" textLength="167.9993" x="763.71" y="714.7599">provides/define-user</text></g><!--entity den__provides__hostname--><g class="entity" data-qualified-name="stage_default.den__provides__hostname" data-source-line="41" id="ent0019"><rect fill="#FAB387" height="24.4799" rx="2.5" ry="2.5" style="stroke:#A6ADC8;stroke-width:0.5;" width="162.7994" x="766.31" y="620.48"/><text fill="#1E1E2E" font-family="'JetBrains Mono,monospace'" font-size="14" lengthAdjust="spacing" textLength="142.7994" x="776.31" y="637.7599">provides/hostname</text></g><!--entity den__provides__mutual_provider--><g class="entity" data-qualified-name="stage_default.den__provides__mutual_provider" data-source-line="42" id="ent0020"><rect fill="#F9E2AF" height="24.4799" rx="2.5" ry="2.5" style="stroke:#A6ADC8;stroke-width:0.5;" width="221.5991" x="736.91" y="543.48"/><text fill="#1E1E2E" font-family="'JetBrains Mono,monospace'" font-size="14" lengthAdjust="spacing" textLength="201.5991" x="746.91" y="560.7599">provides/mutual-provider</text></g><!--entity bob--><g class="entity" data-qualified-name="bob" data-source-line="23" id="ent0002"><rect fill="#89B4FA" height="38.4799" rx="2.5" ry="2.5" style="stroke:#A6ADC8;stroke-width:0.5;" width="45.1999" x="26.52" y="183.48"/><text fill="#1E1E2E" font-family="'JetBrains Mono,monospace'" font-size="14" lengthAdjust="spacing" textLength="25.1999" x="36.52" y="207.7599">bob</text></g><!--link bob to bob--><g class="link" data-entity-1="ent0002" data-entity-2="ent0002" data-link-type="dependency" data-source-line="45" id="lnk21"><path d="M26.24,189.1 C6,170.77 13.63,148.48 49.12,148.48 C84.6,148.48 96.6773,166.7424 76.4373,185.0724" fill="none" id="bob-to-bob" style="stroke:#A6ADC8;stroke-width:1;"/><polygon fill="#A6ADC8" points="71.99,189.1,81.346,186.0234,75.6961,185.7437,75.9759,180.0937,71.99,189.1" style="stroke:#A6ADC8;stroke-width:1;"/></g><!--link bob to dev_tools--><g class="link" data-entity-1="ent0002" data-entity-2="ent0004" data-link-type="dependency" data-source-line="46" id="lnk22"><path d="M59.84,222.24 C69.74,240.45 86.63,267.36 107.72,284.72 C129.41,302.58 152.331,313.6029 176.261,322.4329" fill="none" id="bob-to-dev_tools" style="stroke:#A6ADC8;stroke-width:1;"/><polygon fill="#A6ADC8" points="181.89,324.51,174.8312,317.6417,177.1992,322.7791,172.0618,325.1471,181.89,324.51" style="stroke:#A6ADC8;stroke-width:1;"/></g><!--link bob to gnome--><g class="link" data-entity-1="ent0002" data-entity-2="ent0005" data-link-type="dependency" data-source-line="47" id="lnk23"><path d="M72.04,208.24 C103.75,216.22 156.7015,229.5453 192.6115,238.5853" fill="none" id="bob-to-gnome" style="stroke:#A6ADC8;stroke-width:1;"/><polygon fill="#A6ADC8" points="198.43,240.05,190.6788,233.9739,193.5813,238.8294,188.7258,241.7319,198.43,240.05" style="stroke:#A6ADC8;stroke-width:1;"/></g><!--link bob to primary_user--><g class="link" data-entity-1="ent0002" data-entity-2="ent0006" data-link-type="dependency" data-source-line="48" id="lnk24"><path d="M72.04,197.08 C96.1,190.89 129.9394,182.1857 163.3494,173.5857" fill="none" id="bob-to-primary_user" style="stroke:#A6ADC8;stroke-width:1;"/><polygon fill="#A6ADC8" points="169.16,172.09,159.447,170.4598,164.3178,173.3364,161.4412,178.2073,169.16,172.09" style="stroke:#A6ADC8;stroke-width:1;"/></g><!--link bob to den__provides__primary_user--><g class="link" data-entity-1="ent0002" data-entity-2="ent0007" data-link-type="dependency" data-source-line="49" id="lnk25"><path d="M58.57,183.14 C67.84,164.02 84.55,135.55 107.72,119.72 C117.9,112.76 123.8636,109.3745 135.8336,105.3445" fill="none" id="bob-to-den__provides__primary_user" style="stroke:#A6ADC8;stroke-width:1;"/><polygon fill="#A6ADC8" points="141.52,103.43,131.7141,102.5108,136.7814,105.0254,134.2667,110.0926,141.52,103.43" style="stroke:#A6ADC8;stroke-width:1;"/></g><!--link bob to user__self_provide_user_--><g class="link" data-entity-1="ent0002" data-entity-2="ent0011" data-link-type="dependency" data-source-line="50" id="lnk26"><path d="M51.45,183.13 C54.8,151.13 66.56,88.44 107.72,60.72 C188.96,6 236.85,25.14 328.12,60.72 C416.38,95.13 486.0438,182.8596 514.8538,223.3896" fill="none" id="bob-to-user__self_provide_user_" style="stroke:#A6ADC8;stroke-width:1;"/><polygon fill="#A6ADC8" points="518.33,228.28,516.3759,218.6269,515.4331,224.2047,509.8554,223.2619,518.33,228.28" style="stroke:#A6ADC8;stroke-width:1;"/></g><!--link n_default to n_default--><g class="link" data-entity-1="ent0013" data-entity-2="ent0013" data-link-type="dependency" data-source-line="51" id="lnk27"><path d="M492.75,694.28 C460.75,676.11 474,654.48 532.51,654.48 C591.02,654.48 609.4976,673.1474 577.4976,691.3174" fill="none" id="n_default-to-n_default" style="stroke:#A6ADC8;stroke-width:1;"/><polygon fill="#A6ADC8" points="572.28,694.28,582.0814,693.3145,576.628,691.8112,578.1313,686.3577,572.28,694.28" style="stroke:#A6ADC8;stroke-width:1;"/></g><!--link n_default to default__aspect_default_--><g class="link" data-entity-1="ent0013" data-entity-2="ent0014" data-link-type="dependency" data-source-line="52" id="lnk28"><path d="M572.31,716.42 C613.09,724.1 679.21,735.35 736.91,739.72 C835.12,747.16 860.25,746.35 958.51,739.72 C1008.69,736.33 1058.0348,730.1596 1104.5248,723.2696" fill="none" id="n_default-to-default__aspect_default_" style="stroke:#A6ADC8;stroke-width:1;"/><polygon fill="#A6ADC8" points="1110.46,722.39,1100.9708,719.7526,1105.514,723.123,1102.1437,727.6662,1110.46,722.39" style="stroke:#A6ADC8;stroke-width:1;"/></g><!--link n_default to den__provides__define_user--><g class="link" data-entity-1="ent0013" data-entity-2="ent0018" data-link-type="dependency" data-source-line="53" id="lnk29"><path d="M572.23,708.84 C617.16,708.99 686.81,709.2112 747.32,709.4012" fill="none" id="n_default-to-den__provides__define_user" style="stroke:#A6ADC8;stroke-width:1;"/><polygon fill="#A6ADC8" points="753.32,709.42,744.3326,705.3918,748.32,709.4043,744.3075,713.3917,753.32,709.42" style="stroke:#A6ADC8;stroke-width:1;"/></g><!--link n_default to den__provides__hostname--><g class="link" data-entity-1="ent0013" data-entity-2="ent0019" data-link-type="dependency" data-source-line="54" id="lnk30"><path d="M572.23,699.32 C628.12,685.76 725.7391,662.0745 788.4391,646.8645" fill="none" id="n_default-to-den__provides__hostname" style="stroke:#A6ADC8;stroke-width:1;"/><polygon fill="#A6ADC8" points="794.27,645.45,784.5807,643.6845,789.4109,646.6287,786.4667,651.459,794.27,645.45" style="stroke:#A6ADC8;stroke-width:1;"/></g><!--link n_default to den__provides__mutual_provider--><g class="link" data-entity-1="ent0013" data-entity-2="ent0020" data-link-type="dependency" data-source-line="55" id="lnk31"><path d="M572.16,704.77 C608.99,699.2 664.13,685.95 700.91,654.72 C727.58,632.08 709.65,606.64 736.91,584.72 C745.6,577.74 750.1921,574.5633 760.8121,570.5233" fill="none" id="n_default-to-den__provides__mutual_provider" style="stroke:#A6ADC8;stroke-width:1;"/><polygon fill="#A6ADC8" points="766.42,568.39,756.5859,567.8514,761.7467,570.1678,759.4303,575.3286,766.42,568.39" style="stroke:#A6ADC8;stroke-width:1;"/></g><!--link den__provides__define_user to default__aspect_default_--><g class="link" data-entity-1="ent0018" data-entity-2="ent0014" data-link-type="dependency" data-source-line="56" id="lnk32"><path d="M942,708.45 C993.4,707.75 1051.3805,706.9611 1104.6405,706.2411" fill="none" id="den__provides__define_user-to-default__aspect_default_" style="stroke:#A6ADC8;stroke-width:1;"/><polygon fill="#A6ADC8" points="1110.64,706.16,1101.5868,702.282,1105.6405,706.2276,1101.6949,710.2813,1110.64,706.16" style="stroke:#A6ADC8;stroke-width:1;"/></g><!--link den__provides__define_user to den__provides__default__aspect_default__den__provides--><g class="link" data-entity-1="ent0018" data-entity-2="ent0015" data-link-type="dependency" data-source-line="57" id="lnk33"><path d="M896.45,697 C930.37,688.18 977.07,676.5 1018.51,667.72 C1057.62,659.44 1095.4344,652.5627 1131.8344,646.3927" fill="none" id="den__provides__define_user-to-den__provides__default__aspect_default__den__provides" style="stroke:#A6ADC8;stroke-width:1;"/><polygon fill="#A6ADC8" points="1137.75,645.39,1128.2081,642.9503,1132.8203,646.2256,1129.5451,650.8378,1137.75,645.39" style="stroke:#A6ADC8;stroke-width:1;"/></g><!--link den__provides__define_user to den__provides__define_user--><g class="link" data-entity-1="ent0018" data-entity-2="ent0018" data-link-type="dependency" data-source-line="58" id="lnk34"><path d="M806.04,697.02 C773.03,681.22 786.92,662.48 847.71,662.48 C908.51,662.48 927.812,678.6296 894.802,694.4296" fill="none" id="den__provides__define_user-to-den__provides__define_user" style="stroke:#A6ADC8;stroke-width:1;"/><polygon fill="#A6ADC8" points="889.39,697.02,899.2349,696.7424,893.9,694.8613,895.7811,689.5264,889.39,697.02" style="stroke:#A6ADC8;stroke-width:1;"/></g><!--link den__provides__hostname to default__aspect_default_--><g class="link" data-entity-1="ent0019" data-entity-2="ent0014" data-link-type="dependency" data-source-line="59" id="lnk35"><path d="M913.62,645.43 C969.61,656.39 1045.5017,671.2475 1109.9817,683.8675" fill="none" id="den__provides__hostname-to-default__aspect_default_" style="stroke:#A6ADC8;stroke-width:1;"/><polygon fill="#A6ADC8" points="1115.87,685.02,1107.8059,679.3658,1110.9631,684.0596,1106.2693,687.2168,1115.87,685.02" style="stroke:#A6ADC8;stroke-width:1;"/></g><!--link den__provides__hostname to den__provides__default__aspect_default__den__provides--><g class="link" data-entity-1="ent0019" data-entity-2="ent0015" data-link-type="dependency" data-source-line="60" id="lnk36"><path d="M929.43,632.72 C955.97,632.72 980.74,632.72 1012.09,632.72" fill="none" id="den__provides__hostname-to-den__provides__default__aspect_default__den__provides" style="stroke:#A6ADC8;stroke-width:1;"/><polygon fill="#A6ADC8" points="1018.09,632.72,1009.09,628.72,1013.09,632.72,1009.09,636.72,1018.09,632.72" style="stroke:#A6ADC8;stroke-width:1;"/></g><!--link den__provides__hostname to den__provides__hostname--><g class="link" data-entity-1="ent0019" data-entity-2="ent0019" data-link-type="dependency" data-source-line="61" id="lnk37"><path d="M806.04,620.02 C773.03,604.22 786.92,585.48 847.71,585.48 C908.51,585.48 927.812,601.6296 894.802,617.4296" fill="none" id="den__provides__hostname-to-den__provides__hostname" style="stroke:#A6ADC8;stroke-width:1;"/><polygon fill="#A6ADC8" points="889.39,620.02,899.2349,619.7424,893.9,617.8613,895.7811,612.5264,889.39,620.02" style="stroke:#A6ADC8;stroke-width:1;"/></g><!--link den__provides__mutual_provider to default__aspect_default_--><g class="link" data-entity-1="ent0020" data-entity-2="ent0014" data-link-type="dependency" data-source-line="62" id="lnk38"><path d="M923.62,568.4 C935.89,572.43 948,577.73 958.51,584.72 C994.94,608.93 981.51,639.41 1018.51,662.72 C1045.87,679.95 1073.2398,689.0776 1104.6398,695.1676" fill="none" id="den__provides__mutual_provider-to-default__aspect_default_" style="stroke:#A6ADC8;stroke-width:1;"/><polygon fill="#A6ADC8" points="1110.53,696.31,1102.4562,690.6696,1105.6215,695.358,1100.933,698.5232,1110.53,696.31" style="stroke:#A6ADC8;stroke-width:1;"/></g><!--link den__provides__mutual_provider to den__provides__default__aspect_default__den__provides--><g class="link" data-entity-1="ent0020" data-entity-2="ent0015" data-link-type="dependency" data-source-line="63" id="lnk39"><path d="M909.45,568.43 C977.6,582.7 1081.6274,604.4802 1149.8174,618.7602" fill="none" id="den__provides__mutual_provider-to-den__provides__default__aspect_default__den__provides" style="stroke:#A6ADC8;stroke-width:1;"/><polygon fill="#A6ADC8" points="1155.69,619.99,1147.701,614.2302,1150.7962,618.9652,1146.0612,622.0604,1155.69,619.99" style="stroke:#A6ADC8;stroke-width:1;"/></g><!--link den__provides__mutual_provider to den__provides__mutual_provider--><g class="link" data-entity-1="ent0020" data-entity-2="ent0020" data-link-type="dependency" data-source-line="64" id="lnk40"><path d="M806.04,543.02 C773.03,527.22 786.92,508.48 847.71,508.48 C908.51,508.48 927.812,524.6296 894.802,540.4296" fill="none" id="den__provides__mutual_provider-to-den__provides__mutual_provider" style="stroke:#A6ADC8;stroke-width:1;"/><polygon fill="#A6ADC8" points="889.39,543.02,899.2349,542.7424,893.9,540.8613,895.7811,535.5264,889.39,543.02" style="stroke:#A6ADC8;stroke-width:1;"/></g><!--link dev_tools to dev_tools--><g class="link" data-entity-1="ent0004" data-entity-2="ent0004" data-link-type="dependency" data-source-line="65" id="lnk41"><path d="M201.61,319.26 C188.7,302.36 198.13,284.48 229.92,284.48 C261.7,284.48 274.7723,297.592 261.8623,314.492" fill="none" id="dev_tools-to-dev_tools" style="stroke:#A6ADC8;stroke-width:1;"/><polygon fill="#A6ADC8" points="258.22,319.26,266.8621,314.5362,261.2552,315.2867,260.5048,309.6798,258.22,319.26" style="stroke:#A6ADC8;stroke-width:1;"/></g><!--link dev_tools to user__self_provide_user_--><g class="link" data-entity-1="ent0004" data-entity-2="ent0011" data-link-type="dependency" data-source-line="66" id="lnk42"><path d="M278.21,324.4 C328.89,309.06 403.9274,286.3486 460.6074,269.1886" fill="none" id="dev_tools-to-user__self_provide_user_" style="stroke:#A6ADC8;stroke-width:1;"/><polygon fill="#A6ADC8" points="466.35,267.45,456.5771,266.2295,461.5645,268.8988,458.8952,273.8863,466.35,267.45" style="stroke:#A6ADC8;stroke-width:1;"/></g><!--link gnome to gnome--><g class="link" data-entity-1="ent0005" data-entity-2="ent0005" data-link-type="dependency" data-source-line="67" id="lnk43"><path d="M201.61,228.26 C188.7,211.36 198.13,193.48 229.92,193.48 C261.7,193.48 274.7723,206.592 261.8623,223.492" fill="none" id="gnome-to-gnome" style="stroke:#A6ADC8;stroke-width:1;"/><polygon fill="#A6ADC8" points="258.22,228.26,266.8621,223.5362,261.2552,224.2867,260.5048,218.6798,258.22,228.26" style="stroke:#A6ADC8;stroke-width:1;"/></g><!--link gnome to user__self_provide_user_--><g class="link" data-entity-1="ent0005" data-entity-2="ent0011" data-link-type="dependency" data-source-line="68" id="lnk44"><path d="M261.39,247.72 C299.68,247.72 361.4,247.72 419.45,247.72" fill="none" id="gnome-to-user__self_provide_user_" style="stroke:#A6ADC8;stroke-width:1;"/><polygon fill="#A6ADC8" points="425.45,247.72,416.45,243.72,420.45,247.72,416.45,251.72,425.45,247.72" style="stroke:#A6ADC8;stroke-width:1;"/></g><!--link user to bob--><g class="link" data-entity-1="ent0008" data-entity-2="ent0002" data-link-type="dependency" data-source-line="69" id="lnk45"><path d="M202.79,424.59 C175.44,417.91 133.02,403.62 107.72,375.72 C67.31,331.16 55.7714,263.4188 52.1814,228.3688" fill="none" id="user-to-bob" style="stroke:#A6ADC8;stroke-width:1;"/><polygon fill="#A6ADC8" points="51.57,222.4,48.5078,231.7607,52.0795,227.374,56.4662,230.9456,51.57,222.4" style="stroke:#A6ADC8;stroke-width:1;"/></g><!--link user to n_default--><g class="link" data-entity-1="ent0008" data-entity-2="ent0013" data-link-type="dependency" data-source-line="70" id="lnk46"><path d="M238.41,449.38 C255.93,492.76 303.68,597.37 376.72,654.72 C410.85,681.53 453.375,694.3416 486.935,701.3016" fill="none" id="user-to-n_default" style="stroke:#A6ADC8;stroke-width:1;"/><polygon fill="#A6ADC8" points="492.81,702.52,484.8098,696.7757,487.9142,701.5047,483.1852,704.609,492.81,702.52" style="stroke:#A6ADC8;stroke-width:1;"/></g><!--link user to default__cross_provide_user_--><g class="link" data-entity-1="ent0008" data-entity-2="ent0016" data-link-type="dependency" data-source-line="71" id="lnk47"><path d="M243.85,449.26 C266.61,482.03 317.13,547.81 376.72,581.72 C388.23,588.27 395.1781,591.7024 408.1181,596.0924" fill="none" id="user-to-default__cross_provide_user_" style="stroke:#A6ADC8;stroke-width:1;"/><polygon fill="#A6ADC8" points="413.8,598.02,406.5622,591.3406,409.0651,596.4136,403.992,598.9165,413.8,598.02" style="stroke:#A6ADC8;stroke-width:1;"/></g><!--link user to default__self_provide_default_--><g class="link" data-entity-1="ent0008" data-entity-2="ent0017" data-link-type="dependency" data-source-line="72" id="lnk48"><path d="M257.07,439.72 C306.7,458.71 409.7862,498.1458 474.4962,522.9058" fill="none" id="user-to-default__self_provide_default_" style="stroke:#A6ADC8;stroke-width:1;"/><polygon fill="#A6ADC8" points="480.1,525.05,473.1238,518.0979,475.4302,523.2632,470.2649,525.5696,480.1,525.05" style="stroke:#A6ADC8;stroke-width:1;"/></g><!--link user to user--><g class="link" data-entity-1="ent0008" data-entity-2="ent0008" data-link-type="dependency" data-source-line="73" id="lnk49"><path d="M202.74,411.66 C188.19,394.36 197.25,375.48 229.92,375.48 C262.58,375.48 275.502,389.7681 260.952,407.0681" fill="none" id="user-to-user" style="stroke:#A6ADC8;stroke-width:1;"/><polygon fill="#A6ADC8" points="257.09,411.66,265.9442,407.3468,260.3083,407.8334,259.8217,402.1976,257.09,411.66" style="stroke:#A6ADC8;stroke-width:1;"/></g><!--link user to user__aspect_user_--><g class="link" data-entity-1="ent0008" data-entity-2="ent0009" data-link-type="dependency" data-source-line="74" id="lnk50"><path d="M257.22,422.88 C286.38,415.33 334.85,402.9 376.72,392.72 C400.71,386.89 421.0056,382.0876 444.8556,376.5476" fill="none" id="user-to-user__aspect_user_" style="stroke:#A6ADC8;stroke-width:1;"/><polygon fill="#A6ADC8" points="450.7,375.19,441.0284,373.3301,445.8297,376.3213,442.8384,381.1226,450.7,375.19" style="stroke:#A6ADC8;stroke-width:1;"/></g><!--link user to user__cross_provide__anon__--><g class="link" data-entity-1="ent0008" data-entity-2="ent0010" data-link-type="dependency" data-source-line="75" id="lnk51"><path d="M257.07,429.72 C286.85,429.72 331.89,429.72 381.93,429.72" fill="none" id="user-to-user__cross_provide__anon__" style="stroke:#A6ADC8;stroke-width:1;"/><polygon fill="#A6ADC8" points="387.93,429.72,378.93,425.72,382.93,429.72,378.93,433.72,387.93,429.72" style="stroke:#A6ADC8;stroke-width:1;"/></g><?plantuml-src hLLjQzim4FxkNo4IA2qiP7aXJLVOXnR66AoC_G5pjcJNr9Q2f7GRe_zzbcp9RvAIZ7v9VD9pz-ZkqPrAaaaa6U95_YmHBZX9PS5e95uAUW0E5KeWVSavErByo4h6qNn5LcHDUWXCCZYMyWkZieMa6E-ohHlo11L1isz4Fd0eg43V6MKVglf7720bivuJSCv-jH5X1pZTZpT3b3_hJ83c9NaO9x1PRTPRDvHnJBYFqi9wj9DYV2M_8MVqDAa11YbRK8Zm4JW-pQPHGIg52F7yg3aWFwEQ1jXdswMt7_UxAIWau1EJPx1fL91A8QOy4JTgebd2aXa2WUf_DD_V9TiCeaDpG3Gx2iBrhf2r7IiJ_OqGwlbZyhgGZ9L2usehrXQQPv1izhT3S4vPHJHGVzMWTOfJF0GTU541_xEmvEr2Gz-vfBLe2irU2qp4SkA62OrZiws-d55wnDOp35c2EDGhr-hxnkBZk5dMyMDt-jexvKo8HNkkwwjItWDbz2gNz_rW6cLENyUk8R6Akjadi7T45QJCRD3noTIcZMNErsJtredTpgcUtktALF8EI2t8cN6xQKhMcZUjFjgmXJEswa-oWTLKOa-qJxNIImDoIUzZYWUu7gyZWw5iNOLjhA5YfiftP0sPE-90CdTb1i9rzR6LdjQdeCJR0Srssm2-6Zyp8IcqNJeAOFRy9wYEyWYboSfvYWPY5hYjqLiKgHcqM7nMiyX-subYL_Jei5Q_hNjEtjQt65zhHDsLLZ1hZTPzTse2yqaG1ffIXr6ZMaO1mODdFkdt7-rqUL1R6T-rkoI7aTCx912AQEKwSTaloS3j-mw9d15uUh7CkpxioU6wjwMQrxvhtixskjXxeeQ1DRfkd5vgnm1se9mZjSFf-pUmXW_xUC_vJly3?></g></svg>