<?plantuml 1.2026.2?><svg xmlns="http://www.w3.org/2000/svg" xmlns:xlink="http://www.w3.org/1999/xlink" contentStyleType="text/css" data-diagram-type="DESCRIPTION" height="908px" preserveAspectRatio="none" style="width:2541px;height:908px;background:#1E1E2E;" version="1.1" viewBox="0 0 2541 908" width="2541px" zoomAndPan="magnify"><title>Component view: provider-filter</title><defs/><g><rect fill="#1E1E2E" height="908" style="stroke:none;stroke-width:1;" width="2541" x="0" y="0"/><g class="title" data-source-line="27"><text fill="#CDD6F4" font-family="'JetBrains Mono,monospace'" font-size="14" font-weight="bold" lengthAdjust="spacing" textLength="260.3989" x="1133.3006" y="24.2799">Component view: provider-filter</text></g><!--cluster provider_filter--><g class="cluster" data-qualified-name="provider_filter" data-source-line="1666" id="ent0002"><rect fill="none" height="856.16" style="stroke:#444444;stroke-width:1;stroke-dasharray:7,7;" width="2528" x="7" y="46.4799"/><text fill="#444444" font-family="'JetBrains Mono,monospace'" font-size="16" font-weight="bold" lengthAdjust="spacing" textLength="144.0003" x="1198.9998" y="84.8">provider-filter</text><text fill="#444444" font-family="'JetBrains Mono,monospace'" font-size="12" font-weight="bold" lengthAdjust="spacing" textLength="57.6005" x="1242.1998" y="101.84">[system]</text></g><!--cluster host--><g class="cluster" data-qualified-name="provider_filter.host" data-source-line="1666" id="ent0003"><rect fill="none" height="741.24" style="stroke:#444444;stroke-width:1;stroke-dasharray:7,7;" width="1770" x="31" y="137.3999"/><text fill="#444444" font-family="'JetBrains Mono,monospace'" font-size="16" font-weight="bold" lengthAdjust="spacing" textLength="38.4001" x="896.8" y="175.72">host</text><text fill="#444444" font-family="'JetBrains Mono,monospace'" font-size="12" font-weight="bold" lengthAdjust="spacing" textLength="79.2006" x="876.3997" y="192.76">[container]</text></g><!--cluster c4_default--><g class="cluster" data-qualified-name="provider_filter.c4_default" data-source-line="1666" id="ent0014"><rect fill="none" height="449.56" style="stroke:#444444;stroke-width:1;stroke-dasharray:7,7;" width="474" x="1825" y="137.3999"/><text fill="#444444" font-family="'JetBrains Mono,monospace'" font-size="16" font-weight="bold" lengthAdjust="spacing" textLength="67.2001" x="2028.3999" y="175.72">default</text><text fill="#444444" font-family="'JetBrains Mono,monospace'" font-size="12" font-weight="bold" lengthAdjust="spacing" textLength="79.2006" x="2022.3997" y="192.76">[container]</text></g><!--cluster user--><g class="cluster" data-qualified-name="provider_filter.user" data-source-line="1666" id="ent0018"><rect fill="none" height="163.8" style="stroke:#444444;stroke-width:1;stroke-dasharray:7,7;" width="188" x="2323" y="129.4799"/><text fill="#444444" font-family="'JetBrains Mono,monospace'" font-size="16" font-weight="bold" lengthAdjust="spacing" textLength="38.4001" x="2397.8" y="167.8">user</text><text fill="#444444" font-family="'JetBrains Mono,monospace'" font-size="12" font-weight="bold" lengthAdjust="spacing" textLength="79.2006" x="2377.3997" y="184.84">[container]</text></g><!--entity monitoring__alerting--><g class="entity" data-qualified-name="provider_filter.host.monitoring__alerting" data-source-line="78" id="ent0004"><rect fill="#85BBF0" height="56.9602" style="stroke:#78A8D8;stroke-width:0.5;" width="202.4004" x="593.8" y="364.1999"/><text fill="#000000" font-family="'JetBrains Mono,monospace'" font-size="12" font-style="italic" lengthAdjust="spacing" textLength="79.2006" x="655.3999" y="386.44">&#171;component&#187;</text><text fill="#000000" font-family="'JetBrains Mono,monospace'" font-size="16" font-weight="bold" lengthAdjust="spacing" textLength="182.4004" x="603.8" y="406.3601">monitoring/alerting</text></g><!--entity backup--><g class="entity" data-qualified-name="provider_filter.host.backup" data-source-line="78" id="ent0005"><rect fill="#85BBF0" height="56.9602" style="stroke:#78A8D8;stroke-width:0.5;" width="101.2006" x="488.4" y="805.6799"/><text fill="#000000" font-family="'JetBrains Mono,monospace'" font-size="12" font-style="italic" lengthAdjust="spacing" textLength="79.2006" x="499.4" y="827.92">&#171;component&#187;</text><text fill="#000000" font-family="'JetBrains Mono,monospace'" font-size="16" font-weight="bold" lengthAdjust="spacing" textLength="57.6001" x="510.2003" y="847.8401">backup</text></g><!--entity virtualization__docker--><g class="entity" data-qualified-name="provider_filter.host.virtualization__docker" data-source-line="78" id="ent0006"><rect fill="#85BBF0" height="72.8003" style="stroke:#78A8D8;stroke-width:0.5;" width="221.6004" x="247.2" y="655.8799"/><text fill="#000000" font-family="'JetBrains Mono,monospace'" font-size="12" font-style="italic" lengthAdjust="spacing" textLength="79.2006" x="318.3999" y="678.12">&#171;component&#187;</text><text fill="#000000" font-family="'JetBrains Mono,monospace'" font-size="16" font-weight="bold" lengthAdjust="spacing" textLength="201.6004" x="257.2" y="698.0401">virtualization/docker</text><text fill="#000000" font-family="'JetBrains Mono,monospace'" font-size="12" font-style="italic" lengthAdjust="spacing" textLength="50.4004" x="332.8" y="715.0802">[nixos]</text></g><!--entity monitoring--><g class="entity" data-qualified-name="provider_filter.host.monitoring" data-source-line="78" id="ent0007"><rect fill="#85BBF0" height="72.8003" style="stroke:#78A8D8;stroke-width:0.5;" width="116.0002" x="1453" y="506.0799"/><text fill="#000000" font-family="'JetBrains Mono,monospace'" font-size="12" font-style="italic" lengthAdjust="spacing" textLength="79.2006" x="1471.3998" y="528.32">&#171;component&#187;</text><text fill="#000000" font-family="'JetBrains Mono,monospace'" font-size="16" font-weight="bold" lengthAdjust="spacing" textLength="96.0002" x="1463" y="548.2401">monitoring</text><text fill="#000000" font-family="'JetBrains Mono,monospace'" font-size="12" font-style="italic" lengthAdjust="spacing" textLength="50.4004" x="1485.7999" y="565.2802">[nixos]</text></g><!--entity networking--><g class="entity" data-qualified-name="provider_filter.host.networking" data-source-line="78" id="ent0008"><rect fill="#85BBF0" height="72.8003" style="stroke:#78A8D8;stroke-width:0.5;" width="116.0002" x="1669" y="356.2799"/><text fill="#000000" font-family="'JetBrains Mono,monospace'" font-size="12" font-style="italic" lengthAdjust="spacing" textLength="79.2006" x="1687.3998" y="378.52">&#171;component&#187;</text><text fill="#000000" font-family="'JetBrains Mono,monospace'" font-size="16" font-weight="bold" lengthAdjust="spacing" textLength="96.0002" x="1679" y="398.4401">networking</text><text fill="#000000" font-family="'JetBrains Mono,monospace'" font-size="12" font-style="italic" lengthAdjust="spacing" textLength="50.4004" x="1701.7999" y="415.4802">[nixos]</text></g><!--entity monitoring__nginx_exporter--><g class="entity" data-qualified-name="provider_filter.host.monitoring__nginx_exporter" data-source-line="78" id="ent0009"><rect fill="#85BBF0" height="56.9602" style="stroke:#78A8D8;stroke-width:0.5;" width="260.0005" x="831" y="364.1999"/><text fill="#000000" font-family="'JetBrains Mono,monospace'" font-size="12" font-style="italic" lengthAdjust="spacing" textLength="79.2006" x="921.3999" y="386.44">&#171;component&#187;</text><text fill="#000000" font-family="'JetBrains Mono,monospace'" font-size="16" font-weight="bold" lengthAdjust="spacing" textLength="240.0005" x="841" y="406.3601">monitoring/nginx-exporter</text></g><!--entity monitoring__node_exporter--><g class="entity" data-qualified-name="provider_filter.host.monitoring__node_exporter" data-source-line="78" id="ent0010"><rect fill="#85BBF0" height="56.9602" style="stroke:#78A8D8;stroke-width:0.5;" width="250.4005" x="1125.8" y="364.1999"/><text fill="#000000" font-family="'JetBrains Mono,monospace'" font-size="12" font-style="italic" lengthAdjust="spacing" textLength="79.2006" x="1211.3999" y="386.44">&#171;component&#187;</text><text fill="#000000" font-family="'JetBrains Mono,monospace'" font-size="16" font-weight="bold" lengthAdjust="spacing" textLength="230.4005" x="1135.8" y="406.3601">monitoring/node-exporter</text></g><!--entity server--><g class="entity" data-qualified-name="provider_filter.host.server" data-source-line="78" id="ent0011"><rect fill="#85BBF0" height="56.9602" style="stroke:#78A8D8;stroke-width:0.5;" width="101.2006" x="545.4" y="212.3999"/><text fill="#000000" font-family="'JetBrains Mono,monospace'" font-size="12" font-style="italic" lengthAdjust="spacing" textLength="79.2006" x="556.4" y="234.64">&#171;component&#187;</text><text fill="#000000" font-family="'JetBrains Mono,monospace'" font-size="16" font-weight="bold" lengthAdjust="spacing" textLength="57.6001" x="567.2003" y="254.5601">server</text></g><!--entity tailscale--><g class="entity" data-qualified-name="provider_filter.host.tailscale" data-source-line="78" id="ent0012"><rect fill="#85BBF0" height="72.8003" style="stroke:#78A8D8;stroke-width:0.5;" width="106.4002" x="452.8" y="356.2799"/><text fill="#000000" font-family="'JetBrains Mono,monospace'" font-size="12" font-style="italic" lengthAdjust="spacing" textLength="79.2006" x="466.3998" y="378.52">&#171;component&#187;</text><text fill="#000000" font-family="'JetBrains Mono,monospace'" font-size="16" font-weight="bold" lengthAdjust="spacing" textLength="86.4002" x="462.8" y="398.4401">tailscale</text><text fill="#000000" font-family="'JetBrains Mono,monospace'" font-size="12" font-style="italic" lengthAdjust="spacing" textLength="50.4004" x="480.7999" y="415.4802">[nixos]</text></g><!--entity virtualization--><g class="entity" data-qualified-name="provider_filter.host.virtualization" data-source-line="78" id="ent0013"><rect fill="#85BBF0" height="72.8003" style="stroke:#78A8D8;stroke-width:0.5;" width="154.4003" x="378.8" y="506.0799"/><text fill="#000000" font-family="'JetBrains Mono,monospace'" font-size="12" font-style="italic" lengthAdjust="spacing" textLength="79.2006" x="416.3998" y="528.32">&#171;component&#187;</text><text fill="#000000" font-family="'JetBrains Mono,monospace'" font-size="16" font-weight="bold" lengthAdjust="spacing" textLength="134.4003" x="388.8" y="548.2401">virtualization</text><text fill="#000000" font-family="'JetBrains Mono,monospace'" font-size="12" font-style="italic" lengthAdjust="spacing" textLength="50.4004" x="430.7999" y="565.2802">[nixos]</text></g><!--entity den__provides__define_user--><g class="entity" data-qualified-name="provider_filter.c4_default.den__provides__define_user" data-source-line="78" id="ent0015"><rect fill="#85BBF0" height="56.9602" style="stroke:#78A8D8;stroke-width:0.5;" width="212.0004" x="1954" y="212.3999"/><text fill="#000000" font-family="'JetBrains Mono,monospace'" font-size="12" font-style="italic" lengthAdjust="spacing" textLength="79.2006" x="2020.3999" y="234.64">&#171;component&#187;</text><text fill="#000000" font-family="'JetBrains Mono,monospace'" font-size="16" font-weight="bold" lengthAdjust="spacing" textLength="192.0004" x="1964" y="254.5601">provides/define-user</text></g><!--entity den__provides__hostname--><g class="entity" data-qualified-name="provider_filter.c4_default.den__provides__hostname" data-source-line="78" id="ent0016"><rect fill="#85BBF0" height="56.9602" style="stroke:#78A8D8;stroke-width:0.5;" width="183.2004" x="1970.4" y="364.1999"/><text fill="#000000" font-family="'JetBrains Mono,monospace'" font-size="12" font-style="italic" lengthAdjust="spacing" textLength="79.2006" x="2022.3999" y="386.44">&#171;component&#187;</text><text fill="#000000" font-family="'JetBrains Mono,monospace'" font-size="16" font-weight="bold" lengthAdjust="spacing" textLength="163.2004" x="1980.4" y="406.3601">provides/hostname</text></g><!--entity den__provides__mutual_provider--><g class="entity" data-qualified-name="provider_filter.c4_default.den__provides__mutual_provider" data-source-line="78" id="ent0017"><rect fill="#85BBF0" height="56.9602" style="stroke:#78A8D8;stroke-width:0.5;" width="250.4005" x="1888.8" y="513.9999"/><text fill="#000000" font-family="'JetBrains Mono,monospace'" font-size="12" font-style="italic" lengthAdjust="spacing" textLength="79.2006" x="1974.3999" y="536.24">&#171;component&#187;</text><text fill="#000000" font-family="'JetBrains Mono,monospace'" font-size="16" font-weight="bold" lengthAdjust="spacing" textLength="230.4005" x="1898.8" y="556.1601">provides/mutual-provider</text></g><!--entity deploy--><g class="entity" data-qualified-name="provider_filter.user.deploy" data-source-line="78" id="ent0019"><rect fill="#85BBF0" height="72.8003" style="stroke:#78A8D8;stroke-width:0.5;" width="156.8011" x="2338.6" y="204.4799"/><text fill="#000000" font-family="'JetBrains Mono,monospace'" font-size="12" font-style="italic" lengthAdjust="spacing" textLength="79.2006" x="2377.4002" y="226.72">&#171;component&#187;</text><text fill="#000000" font-family="'JetBrains Mono,monospace'" font-size="16" font-weight="bold" lengthAdjust="spacing" textLength="57.6001" x="2388.2005" y="246.6401">deploy</text><text fill="#000000" font-family="'JetBrains Mono,monospace'" font-size="12" font-style="italic" lengthAdjust="spacing" textLength="136.8011" x="2348.6" y="263.6802">[homeManager+nixos]</text></g><!--link backup to server--><g class="link" data-entity-1="ent0005" data-entity-2="ent0011" data-link-type="dependency" data-source-line="1779" id="lnk20"><path d="M487.93,829.2999 C420.26,821.5399 301.18,798.2399 230,728.6799 C154.71,655.0899 186.55,604.4299 149,506.0799 C143.88,492.6599 139.72,490.1799 137,476.0799 C135.57,468.6599 136.67,466.6299 137,459.0799 C139,413.2599 122.95,395.9299 146,356.2799 C164.47,324.5199 180.02,323.2399 214,309.2799 C326.29,263.1599 461.8449,249.0578 536.9649,244.4678" fill="none" id="backup-to-server" style="stroke:#A6ADC8;stroke-width:1;"/><polygon fill="#A6ADC8" points="544.95,243.9799,536.7819,241.4734,537.1479,247.4622,544.95,243.9799" style="stroke:#A6ADC8;stroke-width:1;"/><text fill="#CDD6F4" font-family="'JetBrains Mono,monospace'" font-size="12" font-weight="bold" lengthAdjust="spacing" textLength="57.6005" x="171.4" y="547.22">includes</text></g><!--link server to backup--><g class="link" data-entity-1="ent0011" data-entity-2="ent0005" data-link-type="dependency" data-source-line="1779" id="lnk29"><path d="M545,245.4999 C445.68,253.2499 230.41,273.7099 166,309.2799 C82.75,355.2499 95.25,411.9099 82,506.0799 C67.06,612.2499 95.4,656.8499 175,728.6799 C263.96,808.9499 402.7521,827.4401 479.9421,831.6901" fill="none" id="server-to-backup" style="stroke:#A6ADC8;stroke-width:1;"/><polygon fill="#A6ADC8" points="487.93,832.1299,480.107,828.6947,479.7772,834.6856,487.93,832.1299" style="stroke:#A6ADC8;stroke-width:1;"/><text fill="#CDD6F4" font-family="'JetBrains Mono,monospace'" font-size="12" font-weight="bold" lengthAdjust="spacing" textLength="57.6005" x="83" y="547.22">includes</text></g><!--link den__provides__mutual_provider to den__provides__define_user--><g class="link" data-entity-1="ent0017" data-entity-2="ent0015" data-link-type="dependency" data-source-line="1779" id="lnk21"><path d="M2081.49,513.6099 C2115.86,495.2899 2153.92,467.5299 2171,429.0799 C2193.42,378.6099 2175.04,350.2399 2138,309.2799 C2125.28,295.2099 2115.8698,286.3466 2101.9998,274.8066" fill="none" id="den__provides__mutual_provider-to-den__provides__define_user" style="stroke:#A6ADC8;stroke-width:1;"/><polygon fill="#A6ADC8" points="2095.85,269.6899,2100.081,277.1128,2103.9185,272.5004,2095.85,269.6899" style="stroke:#A6ADC8;stroke-width:1;"/><text fill="#CDD6F4" font-family="'JetBrains Mono,monospace'" font-size="12" font-weight="bold" lengthAdjust="spacing" textLength="57.6005" x="2181.76" y="397.42">includes</text></g><!--link den__provides__define_user to den__provides__mutual_provider--><g class="link" data-entity-1="ent0015" data-entity-2="ent0017" data-link-type="dependency" data-source-line="1779" id="lnk25"><path d="M1991.77,269.7699 C1955.69,288.4699 1914.67,316.9299 1894,356.2799 C1878.95,384.9199 1881.13,399.3899 1894,429.0799 C1909.33,464.4399 1935.3838,489.0633 1962.7138,508.8833" fill="none" id="den__provides__define_user-to-den__provides__mutual_provider" style="stroke:#A6ADC8;stroke-width:1;"/><polygon fill="#A6ADC8" points="1969.19,513.5799,1964.475,506.4547,1960.9525,511.3119,1969.19,513.5799" style="stroke:#A6ADC8;stroke-width:1;"/><text fill="#CDD6F4" font-family="'JetBrains Mono,monospace'" font-size="12" font-weight="bold" lengthAdjust="spacing" textLength="57.6005" x="1895" y="397.42">includes</text></g><!--link den__provides__mutual_provider to den__provides__hostname--><g class="link" data-entity-1="ent0017" data-entity-2="ent0016" data-link-type="dependency" data-source-line="1779" id="lnk22"><path d="M2030.89,513.6799 C2037.11,502.3599 2043.68,488.9399 2048,476.0799 C2053.96,458.3299 2056.4885,445.4895 2058.4985,429.2295" fill="none" id="den__provides__mutual_provider-to-den__provides__hostname" style="stroke:#A6ADC8;stroke-width:1;"/><polygon fill="#A6ADC8" points="2059.48,421.2899,2055.5212,428.8614,2061.4759,429.5975,2059.48,421.2899" style="stroke:#A6ADC8;stroke-width:1;"/><text fill="#CDD6F4" font-family="'JetBrains Mono,monospace'" font-size="12" font-weight="bold" lengthAdjust="spacing" textLength="57.6005" x="2053.42" y="472.32">includes</text></g><!--link den__provides__hostname to den__provides__mutual_provider--><g class="link" data-entity-1="ent0016" data-entity-2="ent0017" data-link-type="dependency" data-source-line="1779" id="lnk26"><path d="M2013.69,421.3399 C2000.65,431.4099 1988.17,444.0799 1981,459.0799 C1972.5,476.8799 1976.4275,490.7482 1986.7975,506.8982" fill="none" id="den__provides__hostname-to-den__provides__mutual_provider" style="stroke:#A6ADC8;stroke-width:1;"/><polygon fill="#A6ADC8" points="1991.12,513.6299,1989.3219,505.2773,1984.2731,508.5191,1991.12,513.6299" style="stroke:#A6ADC8;stroke-width:1;"/><text fill="#CDD6F4" font-family="'JetBrains Mono,monospace'" font-size="12" font-weight="bold" lengthAdjust="spacing" textLength="57.6005" x="1982" y="472.32">includes</text></g><!--link den__provides__hostname to den__provides__define_user--><g class="link" data-entity-1="ent0016" data-entity-2="ent0015" data-link-type="dependency" data-source-line="1779" id="lnk23"><path d="M2066.7,363.7599 C2068.42,352.1999 2070.15,338.6299 2071,326.2799 C2072.3,307.2599 2070.9824,293.8414 2067.8824,277.4014" fill="none" id="den__provides__hostname-to-den__provides__define_user" style="stroke:#A6ADC8;stroke-width:1;"/><polygon fill="#A6ADC8" points="2066.4,269.5399,2064.9343,277.9573,2070.8304,276.8455,2066.4,269.5399" style="stroke:#A6ADC8;stroke-width:1;"/><text fill="#CDD6F4" font-family="'JetBrains Mono,monospace'" font-size="12" font-weight="bold" lengthAdjust="spacing" textLength="57.6005" x="2072.33" y="322.52">includes</text></g><!--link den__provides__define_user to den__provides__hostname--><g class="link" data-entity-1="ent0015" data-entity-2="ent0016" data-link-type="dependency" data-source-line="1779" id="lnk24"><path d="M2024.52,269.7999 C2009.16,285.4499 1996.26,305.8899 2004,326.2799 C2009.33,340.3299 2013.6911,347.4984 2023.8111,358.1184" fill="none" id="den__provides__define_user-to-den__provides__hostname" style="stroke:#A6ADC8;stroke-width:1;"/><polygon fill="#A6ADC8" points="2029.33,363.9099,2025.983,356.0488,2021.6393,360.188,2029.33,363.9099" style="stroke:#A6ADC8;stroke-width:1;"/><text fill="#CDD6F4" font-family="'JetBrains Mono,monospace'" font-size="12" font-weight="bold" lengthAdjust="spacing" textLength="57.6005" x="2005" y="322.52">includes</text></g><!--link monitoring to backup--><g class="link" data-entity-1="ent0007" data-entity-2="ent0005" data-link-type="dependency" data-source-line="1779" id="lnk27"><path d="M1452.75,560.8399 C1277.25,613.1399 763.1567,766.3549 597.6467,815.6849" fill="none" id="monitoring-to-backup" style="stroke:#A6ADC8;stroke-width:1;"/><polygon fill="#A6ADC8" points="589.98,817.9699,598.5036,818.5599,596.7898,812.8098,589.98,817.9699" style="stroke:#A6ADC8;stroke-width:1;"/><text fill="#CDD6F4" font-family="'JetBrains Mono,monospace'" font-size="12" font-weight="bold" lengthAdjust="spacing" textLength="57.6005" x="1122.62" y="697.02">includes</text></g><!--link networking to backup--><g class="link" data-entity-1="ent0008" data-entity-2="ent0005" data-link-type="dependency" data-source-line="1779" id="lnk28"><path d="M1714.73,429.3999 C1708.86,444.3699 1701.12,461.6199 1692,476.0799 C1654.4,535.7099 1645.74,555.9899 1587,594.9599 C1256.01,814.5299 758.83,833.6295 598.02,833.8395" fill="none" id="networking-to-backup" style="stroke:#A6ADC8;stroke-width:1;"/><polygon fill="#A6ADC8" points="590.02,833.8499,598.0239,836.8395,598.0161,830.8395,590.02,833.8499" style="stroke:#A6ADC8;stroke-width:1;"/><text fill="#CDD6F4" font-family="'JetBrains Mono,monospace'" font-size="12" font-weight="bold" lengthAdjust="spacing" textLength="57.6005" x="1560.05" y="622.12">includes</text></g><!--link tailscale to backup--><g class="link" data-entity-1="ent0012" data-entity-2="ent0005" data-link-type="dependency" data-source-line="1779" id="lnk30"><path d="M533.1,429.2399 C539.13,438.5499 544.93,448.8499 549,459.0799 C593.68,571.3399 608.4,610.3399 584,728.6799 C578.38,755.9499 568.9827,777.778 558.3627,798.258" fill="none" id="tailscale-to-backup" style="stroke:#A6ADC8;stroke-width:1;"/><polygon fill="#A6ADC8" points="554.68,805.3599,561.026,799.639,555.6995,796.877,554.68,805.3599" style="stroke:#A6ADC8;stroke-width:1;"/><text fill="#CDD6F4" font-family="'JetBrains Mono,monospace'" font-size="12" font-weight="bold" lengthAdjust="spacing" textLength="57.6005" x="596.56" y="622.12">includes</text></g><!--link virtualization to backup--><g class="link" data-entity-1="ent0013" data-entity-2="ent0005" data-link-type="dependency" data-source-line="1779" id="lnk31"><path d="M469.35,579.1999 C484.76,621.5299 510.03,694.4299 526,758.6799 C529.8,773.9699 531.6449,783.3874 533.8649,797.4774" fill="none" id="virtualization-to-backup" style="stroke:#A6ADC8;stroke-width:1;"/><polygon fill="#A6ADC8" points="535.11,805.3799,536.8283,797.0105,530.9014,797.9443,535.11,805.3799" style="stroke:#A6ADC8;stroke-width:1;"/><text fill="#CDD6F4" font-family="'JetBrains Mono,monospace'" font-size="12" font-weight="bold" lengthAdjust="spacing" textLength="57.6005" x="518.21" y="697.02">includes</text></g><!--link virtualization__docker to backup--><g class="link" data-entity-1="ent0006" data-entity-2="ent0005" data-link-type="dependency" data-source-line="1779" id="lnk32"><path d="M404.14,728.9399 C434.83,752.6599 468.2306,778.4673 496.6006,800.3973" fill="none" id="virtualization__docker-to-backup" style="stroke:#A6ADC8;stroke-width:1;"/><polygon fill="#A6ADC8" points="502.93,805.2899,498.4353,798.0237,494.7658,802.7708,502.93,805.2899" style="stroke:#A6ADC8;stroke-width:1;"/><text fill="#CDD6F4" font-family="'JetBrains Mono,monospace'" font-size="12" font-weight="bold" lengthAdjust="spacing" textLength="57.6005" x="460.34" y="771.92">includes</text></g><!--link monitoring to server--><g class="link" data-entity-1="ent0007" data-entity-2="ent0011" data-link-type="dependency" data-source-line="1779" id="lnk33"><path d="M1520.31,505.7099 C1528.45,466.8799 1535.76,404.0199 1513,356.2799 C1498.72,326.3299 1485.82,321.5799 1455,309.2799 C1306.68,250.0999 816.2899,242.7901 654.8999,241.9801" fill="none" id="monitoring-to-server" style="stroke:#A6ADC8;stroke-width:1;"/><polygon fill="#A6ADC8" points="646.9,241.9399,654.8848,244.98,654.915,238.9801,646.9,241.9399" style="stroke:#A6ADC8;stroke-width:1;"/><text fill="#CDD6F4" font-family="'JetBrains Mono,monospace'" font-size="12" font-weight="bold" lengthAdjust="spacing" textLength="57.6005" x="1529.19" y="397.42">includes</text></g><!--link server to monitoring--><g class="link" data-entity-1="ent0011" data-entity-2="ent0007" data-link-type="dependency" data-source-line="1779" id="lnk41"><path d="M647.03,243.6799 C802.84,250.0399 1269.34,275.5199 1394,356.2799 C1408.48,365.6599 1457.2429,447.9001 1486.7229,499.0101" fill="none" id="server-to-monitoring" style="stroke:#A6ADC8;stroke-width:1;"/><polygon fill="#A6ADC8" points="1490.72,505.9399,1489.3216,497.5111,1484.1242,500.509,1490.72,505.9399" style="stroke:#A6ADC8;stroke-width:1;"/><text fill="#CDD6F4" font-family="'JetBrains Mono,monospace'" font-size="12" font-weight="bold" lengthAdjust="spacing" textLength="57.6005" x="1445.01" y="397.42">includes</text></g><!--link networking to server--><g class="link" data-entity-1="ent0008" data-entity-2="ent0011" data-link-type="dependency" data-source-line="1779" id="lnk34"><path d="M1717.4,355.9699 C1710.88,338.8999 1700.38,319.9099 1684,309.2799 C1596.35,252.3699 858.0298,243.5439 654.8798,242.1739" fill="none" id="networking-to-server" style="stroke:#A6ADC8;stroke-width:1;"/><polygon fill="#A6ADC8" points="646.88,242.1199,654.8596,245.1738,654.9,239.1739,646.88,242.1199" style="stroke:#A6ADC8;stroke-width:1;"/><text fill="#CDD6F4" font-family="'JetBrains Mono,monospace'" font-size="12" font-weight="bold" lengthAdjust="spacing" textLength="57.6005" x="1701.26" y="322.52">includes</text></g><!--link server to networking--><g class="link" data-entity-1="ent0011" data-entity-2="ent0008" data-link-type="dependency" data-source-line="1779" id="lnk42"><path d="M647.09,242.3799 C823.26,244.5699 1404.36,255.7799 1582,309.2799 C1591.53,312.1499 1625.7542,331.6543 1661.7842,352.8443" fill="none" id="server-to-networking" style="stroke:#A6ADC8;stroke-width:1;"/><polygon fill="#A6ADC8" points="1668.68,356.8999,1663.305,350.2584,1660.2633,355.4303,1668.68,356.8999" style="stroke:#A6ADC8;stroke-width:1;"/><text fill="#CDD6F4" font-family="'JetBrains Mono,monospace'" font-size="12" font-weight="bold" lengthAdjust="spacing" textLength="57.6005" x="1614.89" y="322.52">includes</text></g><!--link tailscale to server--><g class="link" data-entity-1="ent0012" data-entity-2="ent0011" data-link-type="dependency" data-source-line="1779" id="lnk35"><path d="M536.14,356.0799 C543.41,346.6899 550.85,336.3599 557,326.2799 C568.01,308.2299 574.8567,293.9235 581.9567,277.0535" fill="none" id="tailscale-to-server" style="stroke:#A6ADC8;stroke-width:1;"/><polygon fill="#A6ADC8" points="585.06,269.6799,579.1916,275.8898,584.7218,278.2172,585.06,269.6799" style="stroke:#A6ADC8;stroke-width:1;"/><text fill="#CDD6F4" font-family="'JetBrains Mono,monospace'" font-size="12" font-weight="bold" lengthAdjust="spacing" textLength="57.6005" x="566.76" y="322.52">includes</text></g><!--link server to tailscale--><g class="link" data-entity-1="ent0011" data-entity-2="ent0012" data-link-type="dependency" data-source-line="1779" id="lnk45"><path d="M545.11,261.1099 C524.1,271.8799 501.91,287.5799 490,309.2799 C482.21,323.4599 481.8044,333.1939 486.5344,348.3339" fill="none" id="server-to-tailscale" style="stroke:#A6ADC8;stroke-width:1;"/><polygon fill="#A6ADC8" points="488.92,355.9699,489.3979,347.4393,483.6709,349.2285,488.92,355.9699" style="stroke:#A6ADC8;stroke-width:1;"/><text fill="#CDD6F4" font-family="'JetBrains Mono,monospace'" font-size="12" font-weight="bold" lengthAdjust="spacing" textLength="57.6005" x="491" y="322.52">includes</text></g><!--link virtualization to server--><g class="link" data-entity-1="ent0013" data-entity-2="ent0011" data-link-type="dependency" data-source-line="1779" id="lnk36"><path d="M378.54,507.6799 C328.79,484.2099 270.95,452.9799 257,429.0799 C240.69,401.1399 240.05,383.8399 257,356.2799 C287.79,306.2099 450.4641,269.1616 537.3041,252.4516" fill="none" id="virtualization-to-server" style="stroke:#A6ADC8;stroke-width:1;"/><polygon fill="#A6ADC8" points="545.16,250.9399,536.7372,249.5056,537.871,255.3975,545.16,250.9399" style="stroke:#A6ADC8;stroke-width:1;"/><text fill="#CDD6F4" font-family="'JetBrains Mono,monospace'" font-size="12" font-weight="bold" lengthAdjust="spacing" textLength="57.6005" x="258" y="397.42">includes</text></g><!--link server to virtualization--><g class="link" data-entity-1="ent0011" data-entity-2="ent0013" data-link-type="dependency" data-source-line="1779" id="lnk46"><path d="M545.38,252.1999 C492.62,265.9499 412.64,295.9299 376,356.2799 C346.28,405.2299 381.9081,461.1652 415.3181,499.5552" fill="none" id="server-to-virtualization" style="stroke:#A6ADC8;stroke-width:1;"/><polygon fill="#A6ADC8" points="420.57,505.5899,417.5811,497.5858,413.0551,501.5247,420.57,505.5899" style="stroke:#A6ADC8;stroke-width:1;"/><text fill="#CDD6F4" font-family="'JetBrains Mono,monospace'" font-size="12" font-weight="bold" lengthAdjust="spacing" textLength="57.6005" x="377" y="397.42">includes</text></g><!--link virtualization__docker to server--><g class="link" data-entity-1="ent0006" data-entity-2="ent0011" data-link-type="dependency" data-source-line="1779" id="lnk37"><path d="M359.53,655.5299 C359.32,614.3399 352.58,547.0799 315,506.0799 C285.94,474.3699 248.26,510.8899 223,476.0799 C191.51,432.6899 211.98,403.6899 237,356.2799 C251.54,328.7299 261.3,323.5399 289,309.2799 C372.2,266.4399 473.7422,251.467 536.9622,245.777" fill="none" id="virtualization__docker-to-server" style="stroke:#A6ADC8;stroke-width:1;"/><polygon fill="#A6ADC8" points="544.93,245.0599,536.6933,242.7891,537.2311,248.765,544.93,245.0599" style="stroke:#A6ADC8;stroke-width:1;"/><text fill="#CDD6F4" font-family="'JetBrains Mono,monospace'" font-size="12" font-weight="bold" lengthAdjust="spacing" textLength="57.6005" x="224" y="472.32">includes</text></g><!--link server to virtualization__docker--><g class="link" data-entity-1="ent0011" data-entity-2="ent0006" data-link-type="dependency" data-source-line="1779" id="lnk40"><path d="M544.93,243.5599 C475.31,247.6499 348.27,261.6399 252,309.2799 C178.9,345.4499 165.23,379.8199 146,459.0799 C131.32,519.5999 231.16,465.0499 278,506.0799 C309.7,533.8399 294.41,556.2299 311,594.9599 C319.72,615.3099 326.8996,630.4109 335.9296,648.3909" fill="none" id="server-to-virtualization__docker" style="stroke:#A6ADC8;stroke-width:1;"/><polygon fill="#A6ADC8" points="339.52,655.5399,338.6105,647.0445,333.2487,649.7373,339.52,655.5399" style="stroke:#A6ADC8;stroke-width:1;"/><text fill="#CDD6F4" font-family="'JetBrains Mono,monospace'" font-size="12" font-weight="bold" lengthAdjust="spacing" textLength="57.6005" x="147" y="472.32">includes</text></g><!--link networking to monitoring--><g class="link" data-entity-1="ent0008" data-entity-2="ent0007" data-link-type="dependency" data-source-line="1779" id="lnk38"><path d="M1674.71,429.4599 C1640.88,452.6099 1603.5927,478.1229 1569.7827,501.2529" fill="none" id="networking-to-monitoring" style="stroke:#A6ADC8;stroke-width:1;"/><polygon fill="#A6ADC8" points="1563.18,505.7699,1571.4766,503.7289,1568.0889,498.7768,1563.18,505.7699" style="stroke:#A6ADC8;stroke-width:1;"/><text fill="#CDD6F4" font-family="'JetBrains Mono,monospace'" font-size="12" font-weight="bold" lengthAdjust="spacing" textLength="57.6005" x="1626.48" y="472.32">includes</text></g><!--link server to monitoring__alerting--><g class="link" data-entity-1="ent0011" data-entity-2="ent0004" data-link-type="dependency" data-source-line="1779" id="lnk39"><path d="M614.39,269.6999 C632.12,296.5299 654.3794,330.2156 672.1294,357.0756" fill="none" id="server-to-monitoring__alerting" style="stroke:#A6ADC8;stroke-width:1;"/><polygon fill="#A6ADC8" points="676.54,363.7499,674.6323,355.4216,669.6265,358.7296,676.54,363.7499" style="stroke:#A6ADC8;stroke-width:1;"/><text fill="#CDD6F4" font-family="'JetBrains Mono,monospace'" font-size="12" font-weight="bold" lengthAdjust="spacing" textLength="57.6005" x="652.43" y="322.52">excluded</text></g><!--link server to monitoring__nginx_exporter--><g class="link" data-entity-1="ent0011" data-entity-2="ent0009" data-link-type="dependency" data-source-line="1779" id="lnk43"><path d="M646.75,262.7099 C710.9,289.0399 814.159,331.4126 885.579,360.7226" fill="none" id="server-to-monitoring__nginx_exporter" style="stroke:#A6ADC8;stroke-width:1;"/><polygon fill="#A6ADC8" points="892.98,363.7599,886.718,357.9473,884.44,363.498,892.98,363.7599" style="stroke:#A6ADC8;stroke-width:1;"/><text fill="#CDD6F4" font-family="'JetBrains Mono,monospace'" font-size="12" font-weight="bold" lengthAdjust="spacing" textLength="57.6005" x="801.35" y="322.52">excluded</text></g><!--link server to monitoring__node_exporter--><g class="link" data-entity-1="ent0011" data-entity-2="ent0010" data-link-type="dependency" data-source-line="1779" id="lnk44"><path d="M647.07,252.8299 C739.41,272.7199 940.26,316.4399 1109,356.2799 C1119.14,358.6699 1121.8977,359.3148 1132.4377,361.8848" fill="none" id="server-to-monitoring__node_exporter" style="stroke:#A6ADC8;stroke-width:1;"/><polygon fill="#A6ADC8" points="1140.21,363.7799,1133.1484,358.9702,1131.727,364.7994,1140.21,363.7799" style="stroke:#A6ADC8;stroke-width:1;"/><text fill="#CDD6F4" font-family="'JetBrains Mono,monospace'" font-size="12" font-weight="bold" lengthAdjust="spacing" textLength="57.6005" x="969.35" y="322.52">excluded</text></g><!--link tailscale to virtualization--><g class="link" data-entity-1="ent0012" data-entity-2="ent0013" data-link-type="dependency" data-source-line="1779" id="lnk47"><path d="M493.9,429.4599 C486.06,452.6099 478.4752,475.0623 470.6452,498.1923" fill="none" id="tailscale-to-virtualization" style="stroke:#A6ADC8;stroke-width:1;"/><polygon fill="#A6ADC8" points="468.08,505.7699,473.4868,499.1543,467.8036,497.2304,468.08,505.7699" style="stroke:#A6ADC8;stroke-width:1;"/><text fill="#CDD6F4" font-family="'JetBrains Mono,monospace'" font-size="12" font-weight="bold" lengthAdjust="spacing" textLength="57.6005" x="483.5" y="472.32">includes</text></g><!--link virtualization to virtualization__docker--><g class="link" data-entity-1="ent0013" data-entity-2="ent0006" data-link-type="dependency" data-source-line="1779" id="lnk48"><path d="M432.28,579.2599 C416.93,602.4099 401.4423,625.7733 386.0923,648.9133" fill="none" id="virtualization-to-virtualization__docker" style="stroke:#A6ADC8;stroke-width:1;"/><polygon fill="#A6ADC8" points="381.67,655.5799,388.5923,650.5717,383.5923,647.255,381.67,655.5799" style="stroke:#A6ADC8;stroke-width:1;"/><text fill="#CDD6F4" font-family="'JetBrains Mono,monospace'" font-size="12" font-weight="bold" lengthAdjust="spacing" textLength="57.6005" x="410.94" y="622.12">includes</text></g><?plantuml-src fPNDRjim3CVlVWhFkxHOWonja1N3i4C2x32Wmz0zWA3PJ2R4bWn9piU6lljaMxRa3yb6UsaLyKV-IKeMtn4QfqK2uPVTUhbRentBSaQ1og-1E1AQOuwpy3UEZmVE2fhiMCfu-7u5AxW7YqXWZujKVcDKQYHEair-FOxym1c4qNUGMuu95U4Je-mkKtz4ZcE8B2VCEJlhY7Y3a_YnR_H9_WGk6DtsitzOFTolHpZ64-0kiPhngVsw2WdPj9hcl6erurFRAPjg7l1fGODwDLlCBwllnnpP1fsGrPXFTbiAONwTLcr9MtGJV_huk1cXV9hF44jC3obCYnhKMsgB3MM3G1APWkb6U29m_Xpcd9s82hdOarG23uBwPg2cW9i6G3Lm5qOzb-Ws_1U4vdIDwnycfEBBVneAZVwD-Xw9P9pG0q8u1IxLIj5cUzdiHcexkksvbsz6aIjBlHXbJeJB0gVaBvQ4KOGI5X-h4hg6PRrVXg3amiGWZicfaw3RWO8yCtwi7SoFEGe8qGEX5mINdF6wuLPBAjkYiOqMtGd54d15KYP_807yL7dLYr567NagOdLGojYktMLs-puu2DlnPVnEnMka7th5wjN8vKf07RU-g0ALBYeCAeHzWSMotbwKswFLzQAK5vcgqMA7QFRc-6T5MMkpqScaDYqQauxcw84keqfxhFGyPTUgE-KYghx039umnGVW7qn_NuBW6TBsGsgFMq_i4YhjKqLuM_ssM5R3_O4C-8PiEknhC_456Px_AwkQ36G_MEr3sMFiDyh5D7V2PRS-VnVI_-JdSUQjTl5sYQwhQvVeOgmIN4Y_X7cSAM5EUfqHupW5nyI4IqKdFTev_2QZkvdEN9kHvM2KENBrpIo7Yprv79aCfetxwAVGldr6S_y3?></g></svg>