<?xml version="1.0" encoding="UTF-8" standalone="no"?>
<!DOCTYPE svg PUBLIC "-//W3C//DTD SVG 1.1//EN"
 "http://www.w3.org/Graphics/SVG/1.1/DTD/svg11.dtd">
<!-- Generated by graphviz version 12.2.1 (0)
 -->
<!-- Pages: 1 -->
<svg width="1693pt" height="501pt"
 viewBox="0.00 0.00 1693.43 500.76" xmlns="http://www.w3.org/2000/svg" xmlns:xlink="http://www.w3.org/1999/xlink">
<g id="graph0" class="graph" transform="scale(1 1) rotate(0) translate(4 496.76)">
<polygon fill="#1e1e2e" stroke="none" points="-4,4 -4,-496.76 1689.43,-496.76 1689.43,4 -4,4"/>
<g id="clust1" class="cluster">
<title>cluster_ctx_user</title>
<polygon fill="#313244" stroke="#6c7086" stroke-dasharray="5,2" points="91.25,-335.76 91.25,-484.76 537.5,-484.76 537.5,-335.76 91.25,-335.76"/>
<text text-anchor="middle" x="314.38" y="-467.46" font-family="Times,serif" font-size="14.00" fill="#cdd6f4">user</text>
</g>
<g id="clust2" class="cluster">
<title>cluster_ctx_default</title>
<polygon fill="#313244" stroke="#6c7086" stroke-dasharray="5,2" points="305.62,-68.76 305.62,-327.76 1677.43,-327.76 1677.43,-68.76 305.62,-68.76"/>
<text text-anchor="middle" x="991.53" y="-310.46" font-family="Times,serif" font-size="14.00" fill="#cdd6f4">default</text>
</g>
<!-- deploy -->
<g id="node1" class="node">
<title>deploy</title>
<path fill="#89b4fa" stroke="#89b4fa" d="M51.25,-415.76C51.25,-415.76 12,-415.76 12,-415.76 6,-415.76 0,-409.76 0,-403.76 0,-403.76 0,-391.76 0,-391.76 0,-385.76 6,-379.76 12,-379.76 12,-379.76 51.25,-379.76 51.25,-379.76 57.25,-379.76 63.25,-385.76 63.25,-391.76 63.25,-391.76 63.25,-403.76 63.25,-403.76 63.25,-409.76 57.25,-415.76 51.25,-415.76"/>
<text text-anchor="middle" x="31.62" y="-393.08" font-family="Times,serif" font-size="14.00" fill="#1e1e2e">deploy</text>
</g>
<!-- deploy&#45;&gt;deploy -->
<g id="edge15" class="edge">
<title>deploy&#45;&gt;deploy</title>
<path fill="none" stroke="#a6adc8" d="M3.36,-415.91C-0.99,-425.3 8.43,-433.76 31.62,-433.76 44.67,-433.76 53.36,-431.08 57.69,-427.07"/>
<polygon fill="#a6adc8" stroke="#a6adc8" points="61.1,-427.88 59.6,-417.39 54.23,-426.53 61.1,-427.88"/>
</g>
<!-- user__self_provide_user_ -->
<g id="node5" class="node">
<title>user__self_provide_user_</title>
<polygon fill="#f2cdcd" stroke="#f2cdcd" points="276.5,-451.76 99.25,-451.76 99.25,-415.76 276.5,-415.76 276.5,-451.76"/>
<text text-anchor="middle" x="187.88" y="-429.08" font-family="Times,serif" font-size="14.00" fill="#1e1e2e">user/self&#45;provide(user)</text>
</g>
<!-- deploy&#45;&gt;user__self_provide_user_ -->
<g id="edge16" class="edge">
<title>deploy&#45;&gt;user__self_provide_user_</title>
<path fill="none" stroke="#a6adc8" d="M63.47,-404.95C73.36,-407.26 84.87,-409.95 96.81,-412.73"/>
<polygon fill="#a6adc8" stroke="#a6adc8" points="95.84,-416.1 106.38,-414.97 97.43,-409.29 95.84,-416.1"/>
</g>
<!-- user -->
<g id="node2" class="node">
<title>user</title>
<polygon fill="#f2cdcd" stroke="#f2cdcd" points="214.88,-379.76 160.88,-379.76 160.88,-343.76 214.88,-343.76 214.88,-379.76"/>
<text text-anchor="middle" x="187.88" y="-357.08" font-family="Times,serif" font-size="14.00" fill="#1e1e2e">user</text>
</g>
<!-- user&#45;&gt;deploy -->
<g id="edge20" class="edge">
<title>user&#45;&gt;deploy</title>
<path fill="none" stroke="#a6adc8" d="M160.7,-367.86C137.06,-373.38 101.87,-381.59 74.35,-388.02"/>
<polygon fill="#a6adc8" stroke="#a6adc8" points="73.89,-384.53 64.94,-390.21 75.48,-391.35 73.89,-384.53"/>
</g>
<!-- user&#45;&gt;user -->
<g id="edge21" class="edge">
<title>user&#45;&gt;user</title>
<path fill="none" stroke="#a6adc8" d="M160.41,-378.42C154.31,-388.38 163.46,-397.76 187.88,-397.76 202.37,-397.76 211.49,-394.45 215.22,-389.68"/>
<polygon fill="#a6adc8" stroke="#a6adc8" points="218.72,-389.97 215.33,-379.93 211.72,-389.9 218.72,-389.97"/>
</g>
<!-- user__aspect_user_ -->
<g id="node3" class="node">
<title>user__aspect_user_</title>
<polygon fill="#fab387" stroke="#fab387" points="491.25,-379.76 350.75,-379.76 350.75,-343.76 491.25,-343.76 491.25,-379.76"/>
<text text-anchor="middle" x="421" y="-357.08" font-family="Times,serif" font-size="14.00" fill="#1e1e2e">user/aspect(user)</text>
</g>
<!-- user&#45;&gt;user__aspect_user_ -->
<g id="edge22" class="edge">
<title>user&#45;&gt;user__aspect_user_</title>
<path fill="none" stroke="#a6adc8" d="M214.94,-361.76C244.96,-361.76 295.74,-361.76 339.25,-361.76"/>
<polygon fill="#a6adc8" stroke="#a6adc8" points="339.21,-365.26 349.21,-361.76 339.21,-358.26 339.21,-365.26"/>
</g>
<!-- user__cross_provide__anon__ -->
<g id="node4" class="node">
<title>user__cross_provide__anon__</title>
<polygon fill="#f38ba8" stroke="#f38ba8" points="529.5,-433.76 312.5,-433.76 312.5,-397.76 529.5,-397.76 529.5,-433.76"/>
<text text-anchor="middle" x="421" y="-411.08" font-family="Times,serif" font-size="14.00" fill="#1e1e2e">user/cross&#45;provide(&lt;anon&gt;)</text>
</g>
<!-- user&#45;&gt;user__cross_provide__anon__ -->
<g id="edge23" class="edge">
<title>user&#45;&gt;user__cross_provide__anon__</title>
<path fill="none" stroke="#a6adc8" d="M214.94,-367.85C242.79,-374.35 288.5,-385.03 329.7,-394.66"/>
<polygon fill="#a6adc8" stroke="#a6adc8" points="328.9,-398.06 339.43,-396.93 330.49,-391.25 328.9,-398.06"/>
</g>
<!-- n_default -->
<g id="node6" class="node">
<title>n_default</title>
<polygon fill="#fab387" stroke="#fab387" points="454.12,-276.76 387.88,-276.76 387.88,-240.76 454.12,-240.76 454.12,-276.76"/>
<text text-anchor="middle" x="421" y="-254.08" font-family="Times,serif" font-size="14.00" fill="#1e1e2e">default</text>
</g>
<!-- user&#45;&gt;n_default -->
<g id="edge17" class="edge">
<title>user&#45;&gt;n_default</title>
<path fill="none" stroke="#a6adc8" d="M214.94,-350.14C254.45,-332.53 329.93,-298.9 377.47,-277.71"/>
<polygon fill="#a6adc8" stroke="#a6adc8" points="378.66,-281.01 386.37,-273.74 375.81,-274.62 378.66,-281.01"/>
</g>
<!-- default__cross_provide_user_ -->
<g id="node9" class="node">
<title>default__cross_provide_user_</title>
<polygon fill="#f9e2af" stroke="#f9e2af" points="525.38,-168.76 316.62,-168.76 316.62,-132.76 525.38,-132.76 525.38,-168.76"/>
<text text-anchor="middle" x="421" y="-146.08" font-family="Times,serif" font-size="14.00" fill="#1e1e2e">default/cross&#45;provide(user)</text>
</g>
<!-- user&#45;&gt;default__cross_provide_user_ -->
<g id="edge18" class="edge">
<title>user&#45;&gt;default__cross_provide_user_</title>
<path fill="none" stroke="#a6adc8" d="M195.15,-343.26C208.87,-305.77 245.21,-220.76 305.62,-177.76 307.03,-176.76 308.46,-175.8 309.92,-174.87"/>
<polygon fill="#a6adc8" stroke="#a6adc8" points="311.62,-177.93 318.63,-169.99 308.19,-171.83 311.62,-177.93"/>
</g>
<!-- default__self_provide_default_ -->
<g id="node10" class="node">
<title>default__self_provide_default_</title>
<polygon fill="#fab387" stroke="#fab387" points="528.38,-222.76 313.62,-222.76 313.62,-186.76 528.38,-186.76 528.38,-222.76"/>
<text text-anchor="middle" x="421" y="-200.08" font-family="Times,serif" font-size="14.00" fill="#1e1e2e">default/self&#45;provide(default)</text>
</g>
<!-- user&#45;&gt;default__self_provide_default_ -->
<g id="edge19" class="edge">
<title>user&#45;&gt;default__self_provide_default_</title>
<path fill="none" stroke="#a6adc8" d="M199.99,-343.45C218.31,-314.93 257.62,-260.23 305.62,-231.76 307.83,-230.45 310.1,-229.2 312.42,-228.01"/>
<polygon fill="#a6adc8" stroke="#a6adc8" points="313.87,-231.2 321.48,-223.82 310.94,-224.84 313.87,-231.2"/>
</g>
<!-- n_default&#45;&gt;n_default -->
<g id="edge1" class="edge">
<title>n_default&#45;&gt;n_default</title>
<path fill="none" stroke="#a6adc8" d="M387.54,-269.81C366.59,-281.54 377.74,-294.76 421,-294.76 455.47,-294.76 469.55,-286.36 463.25,-277.02"/>
<polygon fill="#a6adc8" stroke="#a6adc8" points="465.58,-274.4 455.63,-270.77 461.14,-279.82 465.58,-274.4"/>
</g>
<!-- default__aspect_default_ -->
<g id="node7" class="node">
<title>default__aspect_default_</title>
<polygon fill="#a6e3a1" stroke="#a6e3a1" points="1420.4,-141.76 1242.4,-141.76 1242.4,-105.76 1420.4,-105.76 1420.4,-141.76"/>
<text text-anchor="middle" x="1331.4" y="-119.08" font-family="Times,serif" font-size="14.00" fill="#1e1e2e">default/aspect(default)</text>
</g>
<!-- n_default&#45;&gt;default__aspect_default_ -->
<g id="edge2" class="edge">
<title>n_default&#45;&gt;default__aspect_default_</title>
<path fill="none" stroke="#a6adc8" d="M454.51,-260.13C480.58,-259.38 516.22,-253.86 537.5,-231.76 582.73,-184.8 515.19,-129.23 565.5,-87.76 777.74,87.19 1146.53,-44.16 1280.19,-100.98"/>
<polygon fill="#a6adc8" stroke="#a6adc8" points="1278.57,-104.09 1289.14,-104.83 1281.33,-97.66 1278.57,-104.09"/>
</g>
<!-- den__provides__define_user -->
<g id="node11" class="node">
<title>den__provides__define_user</title>
<polygon fill="#a6e3a1" stroke="#a6e3a1" points="855,-132.76 667.86,-132.76 601.21,-96.76 921.64,-96.76 855,-132.76"/>
<text text-anchor="middle" x="761.43" y="-110.08" font-family="Times,serif" font-size="14.00" fill="#1e1e2e">provides/define&#45;user</text>
</g>
<!-- n_default&#45;&gt;den__provides__define_user -->
<g id="edge3" class="edge">
<title>n_default&#45;&gt;den__provides__define_user</title>
<path fill="none" stroke="#a6adc8" d="M454.55,-259.03C479.95,-257.55 514.64,-251.6 537.5,-231.76 563.43,-209.25 539.54,-182.22 565.5,-159.76 585.38,-142.55 610.54,-131.59 636.13,-124.68"/>
<polygon fill="#a6adc8" stroke="#a6adc8" points="636.77,-128.13 645.63,-122.32 635.08,-121.33 636.77,-128.13"/>
</g>
<!-- den__provides__hostname -->
<g id="node12" class="node">
<title>den__provides__hostname</title>
<polygon fill="#fab387" stroke="#fab387" points="849.35,-204.76 673.51,-204.76 610.89,-168.76 911.97,-168.76 849.35,-204.76"/>
<text text-anchor="middle" x="761.43" y="-182.08" font-family="Times,serif" font-size="14.00" fill="#1e1e2e">provides/hostname</text>
</g>
<!-- n_default&#45;&gt;den__provides__hostname -->
<g id="edge4" class="edge">
<title>n_default&#45;&gt;den__provides__hostname</title>
<path fill="none" stroke="#a6adc8" d="M454.45,-251.85C501.95,-241.75 592.41,-222.5 662.7,-207.55"/>
<polygon fill="#a6adc8" stroke="#a6adc8" points="663.27,-211.01 672.32,-205.5 661.81,-204.16 663.27,-211.01"/>
</g>
<!-- den__provides__mutual_provider -->
<g id="node13" class="node">
<title>den__provides__mutual_provider</title>
<polygon fill="#f9e2af" stroke="#f9e2af" points="875.85,-276.76 647,-276.76 565.5,-240.76 957.36,-240.76 875.85,-276.76"/>
<text text-anchor="middle" x="761.43" y="-254.08" font-family="Times,serif" font-size="14.00" fill="#1e1e2e">provides/mutual&#45;provider</text>
</g>
<!-- n_default&#45;&gt;den__provides__mutual_provider -->
<g id="edge5" class="edge">
<title>n_default&#45;&gt;den__provides__mutual_provider</title>
<path fill="none" stroke="#a6adc8" d="M454.45,-258.76C487.35,-258.76 540.85,-258.76 593.98,-258.76"/>
<polygon fill="#a6adc8" stroke="#a6adc8" points="593.8,-262.26 603.8,-258.76 593.8,-255.26 593.8,-262.26"/>
</g>
<!-- den__provides__default__aspect_default__den__provides -->
<g id="node8" class="node">
<title>den__provides__default__aspect_default__den__provides</title>
<polygon fill="#a6e3a1" stroke="#a6e3a1" points="1528.82,-204.76 1133.98,-204.76 993.36,-168.76 1669.43,-168.76 1528.82,-204.76"/>
<text text-anchor="middle" x="1331.4" y="-182.08" font-family="Times,serif" font-size="14.00" fill="#1e1e2e">provides/default/aspect(default):den/provides</text>
</g>
<!-- den__provides__define_user&#45;&gt;default__aspect_default_ -->
<g id="edge6" class="edge">
<title>den__provides__define_user&#45;&gt;default__aspect_default_</title>
<path fill="none" stroke="#a6adc8" d="M885.67,-116.71C988.97,-118.35 1134.59,-120.65 1230.67,-122.18"/>
<polygon fill="#a6adc8" stroke="#a6adc8" points="1230.57,-125.67 1240.63,-122.33 1230.68,-118.68 1230.57,-125.67"/>
</g>
<!-- den__provides__define_user&#45;&gt;den__provides__default__aspect_default__den__provides -->
<g id="edge7" class="edge">
<title>den__provides__define_user&#45;&gt;den__provides__default__aspect_default__den__provides</title>
<path fill="none" stroke="#a6adc8" d="M859.19,-130.9C900.47,-137.52 949.2,-144.96 993.36,-150.76 1037.73,-156.58 1085.49,-162.12 1130.7,-167.03"/>
<polygon fill="#a6adc8" stroke="#a6adc8" points="1130.31,-170.51 1140.63,-168.11 1131.06,-163.55 1130.31,-170.51"/>
</g>
<!-- den__provides__define_user&#45;&gt;den__provides__define_user -->
<g id="edge8" class="edge">
<title>den__provides__define_user&#45;&gt;den__provides__define_user</title>
<path fill="none" stroke="#a6adc8" d="M699.84,-132.91C690.37,-142.3 710.9,-150.76 761.43,-150.76 791.04,-150.76 810.35,-147.85 819.35,-143.56"/>
<polygon fill="#a6adc8" stroke="#a6adc8" points="822.58,-144.93 822.52,-134.34 815.96,-142.66 822.58,-144.93"/>
</g>
<!-- den__provides__hostname&#45;&gt;default__aspect_default_ -->
<g id="edge9" class="edge">
<title>den__provides__hostname&#45;&gt;default__aspect_default_</title>
<path fill="none" stroke="#a6adc8" d="M912.4,-169C939.35,-165.87 967.18,-162.68 993.36,-159.76 1073.1,-150.84 1163.52,-141.2 1230.62,-134.15"/>
<polygon fill="#a6adc8" stroke="#a6adc8" points="1230.93,-137.64 1240.51,-133.11 1230.2,-130.67 1230.93,-137.64"/>
</g>
<!-- den__provides__hostname&#45;&gt;den__provides__default__aspect_default__den__provides -->
<g id="edge10" class="edge">
<title>den__provides__hostname&#45;&gt;den__provides__default__aspect_default__den__provides</title>
<path fill="none" stroke="#a6adc8" d="M881.49,-186.76C931,-186.76 990.74,-186.76 1050.25,-186.76"/>
<polygon fill="#a6adc8" stroke="#a6adc8" points="1050.24,-190.26 1060.24,-186.76 1050.24,-183.26 1050.24,-190.26"/>
</g>
<!-- den__provides__hostname&#45;&gt;den__provides__hostname -->
<g id="edge11" class="edge">
<title>den__provides__hostname&#45;&gt;den__provides__hostname</title>
<path fill="none" stroke="#a6adc8" d="M699.84,-204.91C690.37,-214.3 710.9,-222.76 761.43,-222.76 791.04,-222.76 810.35,-219.85 819.35,-215.56"/>
<polygon fill="#a6adc8" stroke="#a6adc8" points="822.58,-216.93 822.52,-206.34 815.96,-214.66 822.58,-216.93"/>
</g>
<!-- den__provides__mutual_provider&#45;&gt;default__aspect_default_ -->
<g id="edge12" class="edge">
<title>den__provides__mutual_provider&#45;&gt;default__aspect_default_</title>
<path fill="none" stroke="#a6adc8" d="M943.46,-240.46C948.27,-237.84 952.92,-234.94 957.36,-231.76 986.43,-210.9 963.97,-180.16 993.36,-159.76 1062.19,-111.98 1158.71,-106.21 1230.83,-110.5"/>
<polygon fill="#a6adc8" stroke="#a6adc8" points="1230.47,-113.99 1240.68,-111.17 1230.94,-107 1230.47,-113.99"/>
</g>
<!-- den__provides__mutual_provider&#45;&gt;den__provides__default__aspect_default__den__provides -->
<g id="edge13" class="edge">
<title>den__provides__mutual_provider&#45;&gt;den__provides__default__aspect_default__den__provides</title>
<path fill="none" stroke="#a6adc8" d="M908.33,-240.26C989.55,-229.96 1090.71,-217.14 1173.62,-206.63"/>
<polygon fill="#a6adc8" stroke="#a6adc8" points="1173.95,-210.12 1183.43,-205.39 1173.07,-203.17 1173.95,-210.12"/>
</g>
<!-- den__provides__mutual_provider&#45;&gt;den__provides__mutual_provider -->
<g id="edge14" class="edge">
<title>den__provides__mutual_provider&#45;&gt;den__provides__mutual_provider</title>
<path fill="none" stroke="#a6adc8" d="M699.84,-276.91C690.37,-286.3 710.9,-294.76 761.43,-294.76 791.04,-294.76 810.35,-291.85 819.35,-287.56"/>
<polygon fill="#a6adc8" stroke="#a6adc8" points="822.58,-288.93 822.52,-278.34 815.96,-286.66 822.58,-288.93"/>
</g>
</g>
</svg>
