<?plantuml 1.2026.2?><svg xmlns="http://www.w3.org/2000/svg" xmlns:xlink="http://www.w3.org/1999/xlink" contentStyleType="text/css" data-diagram-type="DESCRIPTION" height="489px" preserveAspectRatio="none" style="width:2414px;height:489px;background:#1E1E2E;" version="1.1" viewBox="0 0 2414 489" width="2414px" zoomAndPan="magnify"><defs/><g><rect fill="#1E1E2E" height="489" style="stroke:none;stroke-width:1;" width="2414" x="0" y="0"/><!--cluster stage_user--><g class="cluster" data-qualified-name="stage_user" data-source-line="24" id="ent0003"><path d="M8.5,6.7 L43.0999,6.7 A3.75,3.75 0 0 1 45.5999,9.2 L52.5999,31.1799 L597.5,31.1799 A2.5,2.5 0 0 1 600,33.6799 L600,186.2 A2.5,2.5 0 0 1 597.5,188.7 L8.5,188.7 A2.5,2.5 0 0 1 6,186.2 L6,9.2 A2.5,2.5 0 0 1 8.5,6.7" fill="#313244" style="stroke:#6C7086;stroke-width:1.5;"/><line style="stroke:#6C7086;stroke-width:1.5;" x1="6" x2="52.5999" y1="31.1799" y2="31.1799"/><text fill="#CDD6F4" font-family="'JetBrains Mono,monospace'" font-size="14" font-weight="bold" lengthAdjust="spacing" textLength="33.5999" x="10" y="22.9799">user</text></g><!--cluster stage_default--><g class="cluster" data-qualified-name="stage_default" data-source-line="30" id="ent0008"><path d="M630.5,148.7 L690.2997,148.7 A3.75,3.75 0 0 1 692.7997,151.2 L699.7997,173.1799 L2404.69,173.1799 A2.5,2.5 0 0 1 2407.19,175.6799 L2407.19,383.2 A2.5,2.5 0 0 1 2404.69,385.7 L630.5,385.7 A2.5,2.5 0 0 1 628,383.2 L628,151.2 A2.5,2.5 0 0 1 630.5,148.7" fill="#313244" style="stroke:#6C7086;stroke-width:1.5;"/><line style="stroke:#6C7086;stroke-width:1.5;" x1="628" x2="699.7997" y1="173.1799" y2="173.1799"/><text fill="#CDD6F4" font-family="'JetBrains Mono,monospace'" font-size="14" font-weight="bold" lengthAdjust="spacing" textLength="58.7997" x="632" y="164.9799">default</text></g><!--entity user--><g class="entity" data-qualified-name="stage_user.user" data-source-line="25" id="ent0004"><rect fill="#F2CDCD" height="38.4799" rx="2.5" ry="2.5" style="stroke:#A6ADC8;stroke-width:0.5;" width="53.5999" x="101.8" y="61.46"/><text fill="#1E1E2E" font-family="'JetBrains Mono,monospace'" font-size="14" lengthAdjust="spacing" textLength="33.5999" x="111.8" y="85.7399">user</text></g><!--entity user__aspect_user_--><g class="entity" data-qualified-name="stage_user.user__aspect_user_" data-source-line="26" id="ent0005"><rect fill="#FAB387" height="38.4799" rx="2.5" ry="2.5" style="stroke:#A6ADC8;stroke-width:0.5;" width="162.7994" x="358.2" y="116.46"/><text fill="#1E1E2E" font-family="'JetBrains Mono,monospace'" font-size="14" lengthAdjust="spacing" textLength="142.7994" x="368.2" y="140.7399">user/aspect(user)</text></g><!--entity user__cross_provide__anon__--><g class="entity" data-qualified-name="stage_user.user__cross_provide__anon__" data-source-line="27" id="ent0006"><rect fill="#F38BA8" height="38.4799" rx="2.5" ry="2.5" style="stroke:#A6ADC8;stroke-width:0.5;" width="288.7988" x="295.2" y="43.46"/><text fill="#1E1E2E" font-family="'JetBrains Mono,monospace'" font-size="14" lengthAdjust="spacing" textLength="268.7988" x="305.2" y="67.7399">user/cross-provide(&amp;lt;anon&amp;gt;)</text></g><!--entity user__self_provide_user_--><g class="entity" data-qualified-name="stage_user.user__self_provide_user_" data-source-line="28" id="ent0007"><rect fill="#F2CDCD" height="38.4799" rx="2.5" ry="2.5" style="stroke:#A6ADC8;stroke-width:0.5;" width="213.1992" x="22" y="134.46"/><text fill="#1E1E2E" font-family="'JetBrains Mono,monospace'" font-size="14" lengthAdjust="spacing" textLength="193.1992" x="32" y="158.7399">user/self-provide(user)</text></g><!--entity n_default--><g class="entity" data-qualified-name="stage_default.n_default" data-source-line="31" id="ent0009"><rect fill="#FAB387" height="38.4799" rx="2.5" ry="2.5" style="stroke:#A6ADC8;stroke-width:0.5;" width="78.7997" x="736.4" y="185.46"/><text fill="#1E1E2E" font-family="'JetBrains Mono,monospace'" font-size="14" lengthAdjust="spacing" textLength="58.7997" x="746.4" y="209.7399">default</text></g><!--entity default__aspect_default_--><g class="entity" data-qualified-name="stage_default.default__aspect_default_" data-source-line="32" id="ent0010"><rect fill="#A6E3A1" height="38.4799" rx="2.5" ry="2.5" style="stroke:#A6ADC8;stroke-width:0.5;" width="213.1992" x="967.6" y="226.46"/><text fill="#1E1E2E" font-family="'JetBrains Mono,monospace'" font-size="14" lengthAdjust="spacing" textLength="193.1992" x="977.6" y="250.7399">default/aspect(default)</text></g><!--entity den__provides__default__aspect_default__den__provides--><g class="entity" data-qualified-name="stage_default.den__provides__default__aspect_default__den__provides" data-source-line="33" id="ent0011"><rect fill="#A6E3A1" height="24.4799" rx="2.5" ry="2.5" style="stroke:#A6ADC8;stroke-width:0.5;" width="397.9984" x="1993.19" y="228.46"/><text fill="#1E1E2E" font-family="'JetBrains Mono,monospace'" font-size="14" lengthAdjust="spacing" textLength="377.9984" x="2003.19" y="245.7399">provides/default/aspect(default):den/provides</text></g><!--entity default__cross_provide_user_--><g class="entity" data-qualified-name="stage_default.default__cross_provide_user_" data-source-line="34" id="ent0012"><rect fill="#F9E2AF" height="38.4799" rx="2.5" ry="2.5" style="stroke:#A6ADC8;stroke-width:0.5;" width="246.799" x="652.4" y="258.46"/><text fill="#1E1E2E" font-family="'JetBrains Mono,monospace'" font-size="14" lengthAdjust="spacing" textLength="226.799" x="662.4" y="282.7399">default/cross-provide(user)</text></g><!--entity default__self_provide_default_--><g class="entity" data-qualified-name="stage_default.default__self_provide_default_" data-source-line="35" id="ent0013"><rect fill="#FAB387" height="38.4799" rx="2.5" ry="2.5" style="stroke:#A6ADC8;stroke-width:0.5;" width="263.5989" x="644" y="331.46"/><text fill="#1E1E2E" font-family="'JetBrains Mono,monospace'" font-size="14" lengthAdjust="spacing" textLength="243.5989" x="654" y="355.7399">default/self-provide(default)</text></g><!--entity den__provides__define_user--><g class="entity" data-qualified-name="stage_default.den__provides__define_user" data-source-line="36" id="ent0014"><rect fill="#A6E3A1" height="24.4799" rx="2.5" ry="2.5" style="stroke:#A6ADC8;stroke-width:0.5;" width="187.9993" x="1463.6" y="228.46"/><text fill="#1E1E2E" font-family="'JetBrains Mono,monospace'" font-size="14" lengthAdjust="spacing" textLength="167.9993" x="1473.6" y="245.7399">provides/define-user</text></g><!--entity den__provides__hostname--><g class="entity" data-qualified-name="stage_default.den__provides__hostname" data-source-line="37" id="ent0015"><rect fill="#FAB387" height="24.4799" rx="2.5" ry="2.5" style="stroke:#A6ADC8;stroke-width:0.5;" width="162.7994" x="1240.8" y="185.46"/><text fill="#1E1E2E" font-family="'JetBrains Mono,monospace'" font-size="14" lengthAdjust="spacing" textLength="142.7994" x="1250.8" y="202.7399">provides/hostname</text></g><!--entity den__provides__mutual_provider--><g class="entity" data-qualified-name="stage_default.den__provides__mutual_provider" data-source-line="38" id="ent0016"><rect fill="#F9E2AF" height="24.4799" rx="2.5" ry="2.5" style="stroke:#A6ADC8;stroke-width:0.5;" width="221.5991" x="1711.59" y="276.46"/><text fill="#1E1E2E" font-family="'JetBrains Mono,monospace'" font-size="14" lengthAdjust="spacing" textLength="201.5991" x="1721.59" y="293.7399">provides/mutual-provider</text></g><!--entity deploy--><g class="entity" data-qualified-name="deploy" data-source-line="23" id="ent0002"><rect fill="#89B4FA" height="38.4799" rx="2.5" ry="2.5" style="stroke:#A6ADC8;stroke-width:0.5;" width="70.3998" x="404.4" y="402.46"/><text fill="#1E1E2E" font-family="'JetBrains Mono,monospace'" font-size="14" lengthAdjust="spacing" textLength="50.3998" x="414.4" y="426.7399">deploy</text></g><!--link n_default to default__aspect_default_--><g class="link" data-entity-1="ent0009" data-entity-2="ent0010" data-link-type="dependency" data-source-line="41" id="lnk17"><path d="M815.55,210.06 C853.91,215.37 908.4467,222.9072 961.1767,230.2072" fill="none" id="n_default-to-default__aspect_default_" style="stroke:#A6ADC8;stroke-width:1;"/><polygon fill="#A6ADC8" points="967.12,231.03,958.7536,225.8336,962.1672,230.3443,957.6565,233.758,967.12,231.03" style="stroke:#A6ADC8;stroke-width:1;"/></g><!--link n_default to den__provides__define_user--><g class="link" data-entity-1="ent0009" data-entity-2="ent0014" data-link-type="dependency" data-source-line="42" id="lnk18"><path d="M815.51,211.72 C842.22,217.42 878.08,226.82 907.6,240.7 C937.05,254.55 936.55,272.91 967.6,282.7 C1166.08,345.27 1414.3897,283.9128 1511.0797,255.1128" fill="none" id="n_default-to-den__provides__define_user" style="stroke:#A6ADC8;stroke-width:1;"/><polygon fill="#A6ADC8" points="1516.83,253.4,1507.0626,252.1356,1512.0381,254.8273,1509.3464,259.8027,1516.83,253.4" style="stroke:#A6ADC8;stroke-width:1;"/></g><!--link n_default to den__provides__hostname--><g class="link" data-entity-1="ent0009" data-entity-2="ent0015" data-link-type="dependency" data-source-line="43" id="lnk19"><path d="M815.51,204.2 C903.81,203.07 1115.6205,200.3472 1234.5405,198.8172" fill="none" id="n_default-to-den__provides__hostname" style="stroke:#A6ADC8;stroke-width:1;"/><polygon fill="#A6ADC8" points="1240.54,198.74,1231.4893,194.8561,1235.5404,198.8043,1231.5922,202.8554,1240.54,198.74" style="stroke:#A6ADC8;stroke-width:1;"/></g><!--link n_default to den__provides__mutual_provider--><g class="link" data-entity-1="ent0009" data-entity-2="ent0016" data-link-type="dependency" data-source-line="44" id="lnk20"><path d="M815.55,223.38 C843.1,230.71 879.98,239.76 907.6,258.2 C943.68,282.29 928.61,316.16 967.6,335.2 C1268.77,482.33 1698.1658,349.6234 1795.9358,303.8634" fill="none" id="n_default-to-den__provides__mutual_provider" style="stroke:#A6ADC8;stroke-width:1;"/><polygon fill="#A6ADC8" points="1801.37,301.32,1791.523,301.5123,1796.8415,303.4395,1794.9143,308.758,1801.37,301.32" style="stroke:#A6ADC8;stroke-width:1;"/></g><!--link den__provides__mutual_provider to n_default--><g class="link" data-entity-1="ent0016" data-entity-2="ent0009" data-link-type="dependency" data-source-line="54" id="lnk30"><path d="M1756.64,301.37 C1608.1,338.78 1235.12,430.89 967.6,300.2 C928.61,281.16 943.68,247.29 907.6,223.2 C879.98,204.76 849.0914,196.0318 821.5414,194.5518" fill="none" id="den__provides__mutual_provider-to-n_default" style="stroke:#A6ADC8;stroke-width:1;"/><polygon fill="#A6ADC8" points="815.55,194.23,824.3225,198.707,820.5428,194.4982,824.7516,190.7185,815.55,194.23" style="stroke:#A6ADC8;stroke-width:1;"/></g><!--link default__aspect_default_ to den__provides__define_user--><g class="link" data-entity-1="ent0010" data-entity-2="ent0014" data-link-type="dependency" data-source-line="45" id="lnk21"><path d="M1181.14,255.69 C1265.43,257.67 1376.2673,256.6065 1457.1173,252.6065" fill="none" id="default__aspect_default_-to-den__provides__define_user" style="stroke:#A6ADC8;stroke-width:1;"/><polygon fill="#A6ADC8" points="1463.11,252.31,1453.9233,248.7596,1458.1161,252.5571,1454.3187,256.7498,1463.11,252.31" style="stroke:#A6ADC8;stroke-width:1;"/></g><!--link den__provides__define_user to default__aspect_default_--><g class="link" data-entity-1="ent0014" data-entity-2="ent0010" data-link-type="dependency" data-source-line="48" id="lnk24"><path d="M1463.11,231.03 C1382.26,228.72 1271.4241,229.5147 1187.1341,233.2447" fill="none" id="den__provides__define_user-to-default__aspect_default_" style="stroke:#A6ADC8;stroke-width:1;"/><polygon fill="#A6ADC8" points="1181.14,233.51,1190.308,237.1082,1186.1351,233.2889,1189.9544,229.116,1181.14,233.51" style="stroke:#A6ADC8;stroke-width:1;"/></g><!--link default__aspect_default_ to den__provides__hostname--><g class="link" data-entity-1="ent0010" data-entity-2="ent0015" data-link-type="dependency" data-source-line="46" id="lnk22"><path d="M1180.95,238.07 C1224.44,230.17 1265.1862,221.3919 1292.2162,212.2519" fill="none" id="default__aspect_default_-to-den__provides__hostname" style="stroke:#A6ADC8;stroke-width:1;"/><polygon fill="#A6ADC8" points="1297.9,210.33,1288.0929,209.4237,1293.1635,211.9316,1290.6555,217.0021,1297.9,210.33" style="stroke:#A6ADC8;stroke-width:1;"/></g><!--link den__provides__hostname to default__aspect_default_--><g class="link" data-entity-1="ent0015" data-entity-2="ent0010" data-link-type="dependency" data-source-line="51" id="lnk27"><path d="M1240.63,201.02 C1201.35,207.29 1161.2878,215.2685 1127.8378,224.4085" fill="none" id="den__provides__hostname-to-default__aspect_default_" style="stroke:#A6ADC8;stroke-width:1;"/><polygon fill="#A6ADC8" points="1122.05,225.99,1131.7861,227.4763,1126.8732,224.6721,1129.6774,219.7592,1122.05,225.99" style="stroke:#A6ADC8;stroke-width:1;"/></g><!--link default__aspect_default_ to den__provides__mutual_provider--><g class="link" data-entity-1="ent0010" data-entity-2="ent0016" data-link-type="dependency" data-source-line="47" id="lnk23"><path d="M1162.72,265.43 C1241.42,274.48 1360.21,282.27 1463.6,288.2 C1546.65,292.96 1634.5805,297.5828 1705.3605,298.4928" fill="none" id="default__aspect_default_-to-den__provides__mutual_provider" style="stroke:#A6ADC8;stroke-width:1;"/><polygon fill="#A6ADC8" points="1711.36,298.57,1702.4122,294.4546,1706.3604,298.5057,1702.3093,302.454,1711.36,298.57" style="stroke:#A6ADC8;stroke-width:1;"/></g><!--link den__provides__mutual_provider to default__aspect_default_--><g class="link" data-entity-1="ent0016" data-entity-2="ent0010" data-link-type="dependency" data-source-line="55" id="lnk31"><path d="M1780.87,275.98 C1714.54,266.27 1578.63,259.8 1463.6,253.2 C1367.97,247.72 1265.1575,240.8128 1187.0875,238.5628" fill="none" id="den__provides__mutual_provider-to-default__aspect_default_" style="stroke:#A6ADC8;stroke-width:1;"/><polygon fill="#A6ADC8" points="1181.09,238.39,1189.971,242.6476,1186.0879,238.534,1190.2015,234.6509,1181.09,238.39" style="stroke:#A6ADC8;stroke-width:1;"/></g><!--link den__provides__define_user to den__provides__default__aspect_default__den__provides--><g class="link" data-entity-1="ent0014" data-entity-2="ent0011" data-link-type="dependency" data-source-line="49" id="lnk25"><path d="M1651.94,240.7 C1741.3,240.7 1872.96,240.7 1986.82,240.7" fill="none" id="den__provides__define_user-to-den__provides__default__aspect_default__den__provides" style="stroke:#A6ADC8;stroke-width:1;"/><polygon fill="#A6ADC8" points="1992.82,240.7,1983.82,236.7,1987.82,240.7,1983.82,244.7,1992.82,240.7" style="stroke:#A6ADC8;stroke-width:1;"/></g><!--link den__provides__define_user to den__provides__mutual_provider--><g class="link" data-entity-1="ent0014" data-entity-2="ent0016" data-link-type="dependency" data-source-line="50" id="lnk26"><path d="M1628.33,253.44 C1666.5,260.41 1707.7377,267.9416 1745.8877,274.9116" fill="none" id="den__provides__define_user-to-den__provides__mutual_provider" style="stroke:#A6ADC8;stroke-width:1;"/><polygon fill="#A6ADC8" points="1751.79,275.99,1743.6554,270.4376,1746.8714,275.0914,1742.2176,278.3073,1751.79,275.99" style="stroke:#A6ADC8;stroke-width:1;"/></g><!--link den__provides__hostname to den__provides__default__aspect_default__den__provides--><g class="link" data-entity-1="ent0015" data-entity-2="ent0011" data-link-type="dependency" data-source-line="52" id="lnk28"><path d="M1403.85,200.53 C1470.34,202.96 1567.1,206.68 1651.59,210.7 C1764.64,216.08 1884.9699,222.7052 1986.9499,228.5752" fill="none" id="den__provides__hostname-to-den__provides__default__aspect_default__den__provides" style="stroke:#A6ADC8;stroke-width:1;"/><polygon fill="#A6ADC8" points="1992.94,228.92,1984.1847,224.4094,1987.9483,228.6327,1983.725,232.3962,1992.94,228.92" style="stroke:#A6ADC8;stroke-width:1;"/></g><!--link den__provides__hostname to den__provides__define_user--><g class="link" data-entity-1="ent0015" data-entity-2="ent0014" data-link-type="dependency" data-source-line="53" id="lnk29"><path d="M1392.28,210.43 C1422.39,215.97 1451.6995,221.3717 1481.7895,226.9217" fill="none" id="den__provides__hostname-to-den__provides__define_user" style="stroke:#A6ADC8;stroke-width:1;"/><polygon fill="#A6ADC8" points="1487.69,228.01,1479.5648,222.4439,1482.7729,227.103,1478.1137,230.3111,1487.69,228.01" style="stroke:#A6ADC8;stroke-width:1;"/></g><!--link den__provides__mutual_provider to den__provides__default__aspect_default__den__provides--><g class="link" data-entity-1="ent0016" data-entity-2="ent0011" data-link-type="dependency" data-source-line="56" id="lnk32"><path d="M1920.99,275.96 C1974.41,268.99 2034.4405,261.1567 2087.8305,254.1867" fill="none" id="den__provides__mutual_provider-to-den__provides__default__aspect_default__den__provides" style="stroke:#A6ADC8;stroke-width:1;"/><polygon fill="#A6ADC8" points="2093.78,253.41,2084.3379,250.6087,2088.8221,254.0572,2085.3735,258.5414,2093.78,253.41" style="stroke:#A6ADC8;stroke-width:1;"/></g><!--link deploy to user__self_provide_user_--><g class="link" data-entity-1="ent0002" data-entity-2="ent0007" data-link-type="dependency" data-source-line="57" id="lnk33"><path d="M404.05,403.07 C373.2,393.49 327.97,381.6 295.2,358.2 C223.2,306.78 172.2311,219.7385 147.5211,178.4485" fill="none" id="deploy-to-user__self_provide_user_" style="stroke:#A6ADC8;stroke-width:1;"/><polygon fill="#A6ADC8" points="144.44,173.3,145.6293,183.0768,147.0076,177.5904,152.494,178.9686,144.44,173.3" style="stroke:#A6ADC8;stroke-width:1;"/></g><!--link user__self_provide_user_ to deploy--><g class="link" data-entity-1="ent0007" data-entity-2="ent0002" data-link-type="dependency" data-source-line="67" id="lnk43"><path d="M135.24,173.43 C153.12,220.59 212.24,333.96 295.2,393.2 C327.97,416.6 367.2121,428.1095 398.0621,430.0695" fill="none" id="user__self_provide_user_-to-deploy" style="stroke:#A6ADC8;stroke-width:1;"/><polygon fill="#A6ADC8" points="404.05,430.45,395.3217,425.8874,399.0601,430.133,394.8145,433.8713,404.05,430.45" style="stroke:#A6ADC8;stroke-width:1;"/></g><!--link user to n_default--><g class="link" data-entity-1="ent0004" data-entity-2="ent0009" data-link-type="dependency" data-source-line="58" id="lnk34"><path d="M155.66,86.31 C177.88,91.85 210.11,101.67 235.2,116.7 C266.49,135.45 261.73,158.2 295.2,172.7 C447.2,238.54 645.8802,222.2947 730.1302,211.3247" fill="none" id="user-to-n_default" style="stroke:#A6ADC8;stroke-width:1;"/><polygon fill="#A6ADC8" points="736.08,210.55,726.6389,207.7455,731.1219,211.1956,727.6718,215.6786,736.08,210.55" style="stroke:#A6ADC8;stroke-width:1;"/></g><!--link user to default__cross_provide_user_--><g class="link" data-entity-1="ent0004" data-entity-2="ent0012" data-link-type="dependency" data-source-line="59" id="lnk35"><path d="M155.7,84.1 C178.86,88.29 212.46,97.4 235.2,116.7 C278.25,153.24 248.29,197.26 295.2,228.7 C400.19,299.06 542.1987,303.9339 645.9387,295.7139" fill="none" id="user-to-default__cross_provide_user_" style="stroke:#A6ADC8;stroke-width:1;"/><polygon fill="#A6ADC8" points="651.92,295.24,642.6322,291.9634,646.9356,295.6349,643.2641,299.9384,651.92,295.24" style="stroke:#A6ADC8;stroke-width:1;"/></g><!--link user to default__self_provide_default_--><g class="link" data-entity-1="ent0004" data-entity-2="ent0013" data-link-type="dependency" data-source-line="60" id="lnk36"><path d="M155.68,83 C179.48,86.45 214.08,95.09 235.2,116.7 C297.1,180.02 226.24,251.14 295.2,306.7 C403.44,393.91 567.4272,387.3057 673.2672,371.3257" fill="none" id="user-to-default__self_provide_default_" style="stroke:#A6ADC8;stroke-width:1;"/><polygon fill="#A6ADC8" points="679.2,370.43,669.7037,367.8184,674.256,371.1764,670.898,375.7288,679.2,370.43" style="stroke:#A6ADC8;stroke-width:1;"/></g><!--link user to deploy--><g class="link" data-entity-1="ent0004" data-entity-2="ent0002" data-link-type="dependency" data-source-line="61" id="lnk37"><path d="M155.61,82.57 C179.71,85.71 214.81,94.14 235.2,116.7 C314.43,204.36 215.18,288.76 295.2,375.7 C323.18,406.09 365.2743,415.8496 397.9743,419.3596" fill="none" id="user-to-deploy" style="stroke:#A6ADC8;stroke-width:1;"/><polygon fill="#A6ADC8" points="403.94,420,395.4183,415.0623,398.9686,419.4663,394.5645,423.0166,403.94,420" style="stroke:#A6ADC8;stroke-width:1;"/></g><!--link user to user--><g class="link" data-entity-1="ent0004" data-entity-2="ent0004" data-link-type="dependency" data-source-line="62" id="lnk38"><path d="M101.4,72.54 C52.26,53.53 61.33,26.46 128.6,26.46 C195.87,26.46 210.5359,51.3652 161.3959,70.3752" fill="none" id="user-to-user" style="stroke:#A6ADC8;stroke-width:1;"/><polygon fill="#A6ADC8" points="155.8,72.54,165.637,73.0234,160.4632,70.736,162.7506,65.5622,155.8,72.54" style="stroke:#A6ADC8;stroke-width:1;"/></g><!--link user to user__aspect_user_--><g class="link" data-entity-1="ent0004" data-entity-2="ent0005" data-link-type="dependency" data-source-line="63" id="lnk39"><path d="M155.68,93.05 C199.84,106.38 285.1145,123.143 352.0845,132.233" fill="none" id="user-to-user__aspect_user_" style="stroke:#A6ADC8;stroke-width:1;"/><polygon fill="#A6ADC8" points="358.03,133.04,349.6498,127.8658,353.0754,132.3675,348.5738,135.7931,358.03,133.04" style="stroke:#A6ADC8;stroke-width:1;"/></g><!--link user__aspect_user_ to user--><g class="link" data-entity-1="ent0005" data-entity-2="ent0004" data-link-type="dependency" data-source-line="65" id="lnk41"><path d="M385.12,115.96 C318.17,99.46 212.1613,80.6827 161.6713,77.9627" fill="none" id="user__aspect_user_-to-user" style="stroke:#A6ADC8;stroke-width:1;"/><polygon fill="#A6ADC8" points="155.68,77.64,164.4518,82.1183,160.6728,77.909,164.8821,74.1299,155.68,77.64" style="stroke:#A6ADC8;stroke-width:1;"/></g><!--link user to user__cross_provide__anon__--><g class="link" data-entity-1="ent0004" data-entity-2="ent0006" data-link-type="dependency" data-source-line="64" id="lnk40"><path d="M155.68,79.18 C186.96,77.36 235.8702,74.5093 289.0302,71.4093" fill="none" id="user-to-user__cross_provide__anon__" style="stroke:#A6ADC8;stroke-width:1;"/><polygon fill="#A6ADC8" points="295.02,71.06,285.8024,67.5907,290.0285,71.3511,286.2681,75.5771,295.02,71.06" style="stroke:#A6ADC8;stroke-width:1;"/></g><!--link user__cross_provide__anon__ to n_default--><g class="link" data-entity-1="ent0006" data-entity-2="ent0009" data-link-type="dependency" data-source-line="66" id="lnk42"><path d="M557.93,82.38 C575.03,86.83 592.18,92.22 608,98.7 C662.45,121.02 714.0381,157.3497 745.3081,181.3197" fill="none" id="user__cross_provide__anon__-to-n_default" style="stroke:#A6ADC8;stroke-width:1;"/><polygon fill="#A6ADC8" points="750.07,184.97,745.3606,176.32,746.1017,181.9281,740.4936,182.6692,750.07,184.97" style="stroke:#A6ADC8;stroke-width:1;"/></g><?plantuml-src hLNRQjmm47ttLmWlX0IoRFV2nccW3mcKKcWe_G4pQycEYLSoahONIlwziYt9DydU3NqnbdJcd9apOwiWgKII8PvdBnBXd9D4vem6uZMd9N0ueWCahnbd9ugVMC4uMgp9ccn81u592gT2VcPKQaY2yJxTkI7FS2Ge_4ha8uUS2lIDKNPxL0zHGaB2JX1mpdvfHjW3JgBXuPJa3rK9qAmWZyC2jkljPkU6Ceu9zqbQM4TsPCONyXioHkT53N1IKeEc19-0utcr6ZKfLI6cTBuh3SZESDC0kshxvEv3j1-3fXhupEGPQZLgKgf2Z7K2Rhg9GapAWlq94GZKlA95T7_OfH2KJPeeF0d2Qu2GQXrNI_GtGAZ3OY7ruIBT93Z1OyWAHAbshglt6ukFusQxPevLD1osqPqZEk5CY6N9sSySa-khGZu0PVGgamzTiXeLQvJYLf2uOjr61uWSh88KgIKTPbOTMYwJNrFTM-kG_iGx9kcTeKzT8BKWPyNwq5YcbpUwK_N26cVMrMYJBQmLKw966eKwSx7oi7t4XAuCI5ChjynE7FkKuXwke-keeD-src7BrU-OSVcUR21rC_PQvdQcrxZM7-lqs9-SagMTux4DwhWPVQ_7Bqn8glxmBW9pvi_WU98dA4nLpYmQYDdWrgEt86Y7QRdyv9sF4SnNv3JG53ED6cGRU8Ts9fLBucncbmID4_NsVjBSsRXtV5aNaiwKOgVmaZe6GV-XY1d6JkSdnx-AjXDu3lZSYjsnxokylb8h0jzz4jXUjhMCPytnYtIWd3-zBgxAfbtN9lTM_QjuUEQyMGF75TuZzzt8uvATrssR-3y0?></g></svg>