<?xml version="1.0" encoding="UTF-8" standalone="no"?>
<!DOCTYPE svg PUBLIC "-//W3C//DTD SVG 1.1//EN"
 "http://www.w3.org/Graphics/SVG/1.1/DTD/svg11.dtd">
<!-- Generated by graphviz version 12.2.1 (0)
 -->
<!-- Pages: 1 -->
<svg width="3074pt" height="1209pt"
 viewBox="0.00 0.00 3074.26 1208.79" xmlns="http://www.w3.org/2000/svg" xmlns:xlink="http://www.w3.org/1999/xlink">
<g id="graph0" class="graph" transform="scale(1 1) rotate(0) translate(4 1204.79)">
<polygon fill="#1e1e2e" stroke="none" points="-4,4 -4,-1204.79 3070.26,-1204.79 3070.26,4 -4,4"/>
<g id="clust1" class="cluster">
<title>cluster_ctx_host</title>
<polygon fill="#313244" stroke="#6c7086" stroke-dasharray="5,2" points="8,-817.79 8,-1156.79 3058.26,-1156.79 3058.26,-817.79 8,-817.79"/>
<text text-anchor="middle" x="1533.13" y="-1139.49" font-family="Times,serif" font-size="14.00" fill="#cdd6f4">host</text>
</g>
<g id="clust2" class="cluster">
<title>cluster_ctx_default</title>
<polygon fill="#313244" stroke="#6c7086" stroke-dasharray="5,2" points="353.28,-570.79 353.28,-809.79 2697.37,-809.79 2697.37,-570.79 353.28,-570.79"/>
<text text-anchor="middle" x="1525.32" y="-792.49" font-family="Times,serif" font-size="14.00" fill="#cdd6f4">default</text>
</g>
<g id="clust3" class="cluster">
<title>cluster_ctx_hm_host</title>
<polygon fill="#313244" stroke="#6c7086" stroke-dasharray="5,2" points="604.78,-377.79 604.78,-562.79 1133.57,-562.79 1133.57,-377.79 604.78,-377.79"/>
<text text-anchor="middle" x="869.17" y="-545.49" font-family="Times,serif" font-size="14.00" fill="#cdd6f4">hm&#45;host</text>
</g>
<g id="clust4" class="cluster">
<title>cluster_ctx_hm_user</title>
<polygon fill="#313244" stroke="#6c7086" stroke-dasharray="5,2" points="899.44,-184.79 899.44,-369.79 1481.07,-369.79 1481.07,-184.79 899.44,-184.79"/>
<text text-anchor="middle" x="1190.26" y="-352.49" font-family="Times,serif" font-size="14.00" fill="#cdd6f4">hm&#45;user</text>
</g>
<g id="clust5" class="cluster">
<title>cluster_ctx_user</title>
<polygon fill="#313244" stroke="#6c7086" stroke-dasharray="5,2" points="1273.2,-45.79 1273.2,-176.79 2447.95,-176.79 2447.95,-45.79 1273.2,-45.79"/>
<text text-anchor="middle" x="1860.58" y="-159.49" font-family="Times,serif" font-size="14.00" fill="#cdd6f4">user</text>
</g>
<!-- provider_filter -->
<g id="node1" class="node">
<title>provider_filter</title>
<path fill="#89b4fa" stroke="#89b4fa" d="M1074.94,-1200.79C1074.94,-1200.79 983.19,-1200.79 983.19,-1200.79 977.19,-1200.79 971.19,-1194.79 971.19,-1188.79 971.19,-1188.79 971.19,-1176.79 971.19,-1176.79 971.19,-1170.79 977.19,-1164.79 983.19,-1164.79 983.19,-1164.79 1074.94,-1164.79 1074.94,-1164.79 1080.94,-1164.79 1086.94,-1170.79 1086.94,-1176.79 1086.94,-1176.79 1086.94,-1188.79 1086.94,-1188.79 1086.94,-1194.79 1080.94,-1200.79 1074.94,-1200.79"/>
<text text-anchor="middle" x="1029.07" y="-1178.11" font-family="Times,serif" font-size="14.00" fill="#1e1e2e">provider&#45;filter</text>
</g>
<!-- host__self_provide_host_ -->
<g id="node8" class="node">
<title>host__self_provide_host_</title>
<polygon fill="#f2cdcd" stroke="#f2cdcd" points="815.53,-995.79 639.78,-995.79 639.78,-959.79 815.53,-959.79 815.53,-995.79"/>
<text text-anchor="middle" x="727.65" y="-973.11" font-family="Times,serif" font-size="14.00" fill="#1e1e2e">host/self&#45;provide(host)</text>
</g>
<!-- provider_filter&#45;&gt;host__self_provide_host_ -->
<g id="edge51" class="edge">
<title>provider_filter&#45;&gt;host__self_provide_host_</title>
<path fill="none" stroke="#a6adc8" d="M970.94,-1183.98C941.65,-1182.3 906.38,-1176.56 878.53,-1160.79 813.77,-1124.11 765.59,-1047.65 742.97,-1006.12"/>
<polygon fill="#a6adc8" stroke="#a6adc8" points="746.14,-1004.63 738.36,-997.45 739.96,-1007.92 746.14,-1004.63"/>
</g>
<!-- server -->
<g id="node13" class="node">
<title>server</title>
<polygon fill="#89b4fa" stroke="#89b4fa" points="1406.7,-1032.79 1344.95,-1032.79 1344.95,-996.79 1406.7,-996.79 1406.7,-1032.79"/>
<text text-anchor="middle" x="1375.82" y="-1010.11" font-family="Times,serif" font-size="14.00" fill="#1e1e2e">server</text>
</g>
<!-- provider_filter&#45;&gt;server -->
<g id="edge52" class="edge">
<title>provider_filter&#45;&gt;server</title>
<path fill="none" stroke="#a6adc8" d="M1087.22,-1189.07C1115.86,-1187.47 1150.53,-1181.88 1179.61,-1169.79 1251.6,-1139.85 1321.08,-1077.39 1354.37,-1041.36"/>
<polygon fill="#a6adc8" stroke="#a6adc8" points="1356.58,-1044.15 1360.66,-1034.37 1351.37,-1039.47 1356.58,-1044.15"/>
</g>
<!-- monitoring__alerting -->
<g id="node2" class="node">
<title>monitoring__alerting</title>
<polygon fill="#cba6f7" stroke="#f38ba8" stroke-dasharray="5,2" points="260.35,-1087.79 80.17,-1087.79 16,-1051.79 324.53,-1051.79 260.35,-1087.79"/>
<text text-anchor="middle" x="170.26" y="-1065.11" font-family="Times,serif" font-size="14.00" fill="#1e1e2e">monitoring/alerting</text>
</g>
<!-- monitoring -->
<g id="node9" class="node">
<title>monitoring</title>
<polygon fill="#89b4fa" stroke="#89b4fa" points="516.03,-1062.79 421.28,-1062.79 421.28,-1026.79 516.03,-1026.79 516.03,-1062.79"/>
<text text-anchor="middle" x="468.65" y="-1040.11" font-family="Times,serif" font-size="14.00" fill="#1e1e2e">monitoring</text>
</g>
<!-- monitoring__alerting&#45;&gt;monitoring -->
<g id="edge76" class="edge">
<title>monitoring__alerting&#45;&gt;monitoring</title>
<path fill="none" stroke="#a6adc8" d="M314.68,-1057.69C348.3,-1054.85 382.24,-1051.99 409.58,-1049.68"/>
<polygon fill="#a6adc8" stroke="#a6adc8" points="409.7,-1053.19 419.37,-1048.86 409.11,-1046.21 409.7,-1053.19"/>
</g>
<!-- backup -->
<g id="node3" class="node">
<title>backup</title>
<polygon fill="#89b4fa" stroke="#89b4fa" points="1062.57,-995.79 995.57,-995.79 995.57,-959.79 1062.57,-959.79 1062.57,-995.79"/>
<text text-anchor="middle" x="1029.07" y="-973.11" font-family="Times,serif" font-size="14.00" fill="#1e1e2e">backup</text>
</g>
<!-- backup&#45;&gt;host__self_provide_host_ -->
<g id="edge1" class="edge">
<title>backup&#45;&gt;host__self_provide_host_</title>
<path fill="none" stroke="#a6adc8" d="M995.14,-982.2C954.96,-984.37 885.18,-985.03 827.1,-984.17"/>
<polygon fill="#a6adc8" stroke="#a6adc8" points="827.23,-980.67 817.17,-984 827.11,-987.67 827.23,-980.67"/>
</g>
<!-- backup&#45;&gt;server -->
<g id="edge2" class="edge">
<title>backup&#45;&gt;server</title>
<path fill="none" stroke="#a6adc8" d="M1062.81,-977.14C1125.89,-980.6 1264.13,-995.3 1333.46,-1005.77"/>
<polygon fill="#a6adc8" stroke="#a6adc8" points="1332.86,-1009.22 1343.28,-1007.31 1333.94,-1002.3 1332.86,-1009.22"/>
</g>
<!-- virtualization__docker -->
<g id="node4" class="node">
<title>virtualization__docker</title>
<polygon fill="#cba6f7" stroke="#cba6f7" points="2982.68,-975.79 2792.94,-975.79 2725.37,-939.79 3050.26,-939.79 2982.68,-975.79"/>
<text text-anchor="middle" x="2887.81" y="-953.11" font-family="Times,serif" font-size="14.00" fill="#1e1e2e">virtualization/docker</text>
</g>
<!-- virtualization__docker&#45;&gt;backup -->
<g id="edge72" class="edge">
<title>virtualization__docker&#45;&gt;backup</title>
<path fill="none" stroke="#a6adc8" d="M2775.9,-939.3C2750.19,-935.76 2722.88,-932.6 2697.37,-930.79 2198.47,-895.41 2071.72,-909.16 1572.04,-930.79 1386.73,-938.81 1166.78,-962.18 1074.4,-972.63"/>
<polygon fill="#a6adc8" stroke="#a6adc8" points="1074.04,-969.15 1064.5,-973.76 1074.83,-976.11 1074.04,-969.15"/>
</g>
<!-- virtualization__docker&#45;&gt;host__self_provide_host_ -->
<g id="edge73" class="edge">
<title>virtualization__docker&#45;&gt;host__self_provide_host_</title>
<path fill="none" stroke="#a6adc8" d="M2831.06,-939.35C2793.65,-927.69 2743.03,-913.26 2697.37,-904.79 2204.72,-813.37 2072.94,-824.15 1572.04,-836.79 1263.52,-844.57 1170.19,-770.9 878.53,-871.79 829.94,-888.59 783.07,-926.31 755.05,-951.91"/>
<polygon fill="#a6adc8" stroke="#a6adc8" points="753.02,-949.02 748.09,-958.39 757.79,-954.14 753.02,-949.02"/>
</g>
<!-- virtualization -->
<g id="node15" class="node">
<title>virtualization</title>
<polygon fill="#89b4fa" stroke="#89b4fa" points="2406.95,-975.79 2295.7,-975.79 2295.7,-939.79 2406.95,-939.79 2406.95,-975.79"/>
<text text-anchor="middle" x="2351.33" y="-953.11" font-family="Times,serif" font-size="14.00" fill="#1e1e2e">virtualization</text>
</g>
<!-- virtualization__docker&#45;&gt;virtualization -->
<g id="edge77" class="edge">
<title>virtualization__docker&#45;&gt;virtualization</title>
<path fill="none" stroke="#a6adc8" d="M2769.07,-963.49C2661.31,-965.18 2505.75,-964.82 2418.36,-962.41"/>
<polygon fill="#a6adc8" stroke="#a6adc8" points="2418.63,-958.92 2408.53,-962.12 2418.42,-965.92 2418.63,-958.92"/>
</g>
<!-- host -->
<g id="node5" class="node">
<title>host</title>
<polygon fill="#89b4fa" stroke="#89b4fa" points="197.26,-861.79 143.26,-861.79 143.26,-825.79 197.26,-825.79 197.26,-861.79"/>
<text text-anchor="middle" x="170.26" y="-839.11" font-family="Times,serif" font-size="14.00" fill="#1e1e2e">host</text>
</g>
<!-- host&#45;&gt;provider_filter -->
<g id="edge41" class="edge">
<title>host&#45;&gt;provider_filter</title>
<path fill="none" stroke="#a6adc8" d="M184.56,-861.92C222.56,-913.51 330.37,-1058.29 353.28,-1071.79 549.87,-1187.63 831.63,-1192.09 959.85,-1187.13"/>
<polygon fill="#a6adc8" stroke="#a6adc8" points="959.68,-1190.64 969.53,-1186.72 959.39,-1183.64 959.68,-1190.64"/>
</g>
<!-- host&#45;&gt;host -->
<g id="edge38" class="edge">
<title>host&#45;&gt;host</title>
<path fill="none" stroke="#a6adc8" d="M142.9,-849.55C97.18,-862.14 106.3,-879.79 170.26,-879.79 228.73,-879.79 241.37,-865.04 208.19,-852.89"/>
<polygon fill="#a6adc8" stroke="#a6adc8" points="209.65,-849.68 199.06,-850 207.54,-856.36 209.65,-849.68"/>
</g>
<!-- host__aspect_host_ -->
<g id="node6" class="node">
<title>host__aspect_host_</title>
<polygon fill="#89b4fa" stroke="#89b4fa" points="538.15,-861.79 399.15,-861.79 399.15,-825.79 538.15,-825.79 538.15,-861.79"/>
<text text-anchor="middle" x="468.65" y="-839.11" font-family="Times,serif" font-size="14.00" fill="#1e1e2e">host/aspect(host)</text>
</g>
<!-- host&#45;&gt;host__aspect_host_ -->
<g id="edge39" class="edge">
<title>host&#45;&gt;host__aspect_host_</title>
<path fill="none" stroke="#a6adc8" d="M197.57,-839.74C239.8,-837.03 324.41,-836.36 387.73,-837.72"/>
<polygon fill="#a6adc8" stroke="#a6adc8" points="387.3,-841.21 397.38,-837.95 387.47,-834.21 387.3,-841.21"/>
</g>
<!-- host__cross_provide__anon__ -->
<g id="node7" class="node">
<title>host__cross_provide__anon__</title>
<polygon fill="#cba6f7" stroke="#cba6f7" points="576.78,-915.79 360.53,-915.79 360.53,-879.79 576.78,-879.79 576.78,-915.79"/>
<text text-anchor="middle" x="468.65" y="-893.11" font-family="Times,serif" font-size="14.00" fill="#1e1e2e">host/cross&#45;provide(&lt;anon&gt;)</text>
</g>
<!-- host&#45;&gt;host__cross_provide__anon__ -->
<g id="edge40" class="edge">
<title>host&#45;&gt;host__cross_provide__anon__</title>
<path fill="none" stroke="#a6adc8" d="M197.57,-848.58C232.9,-855.02 297.91,-866.86 355.29,-877.31"/>
<polygon fill="#a6adc8" stroke="#a6adc8" points="354.32,-880.7 364.79,-879.05 355.58,-873.81 354.32,-880.7"/>
</g>
<!-- n_default -->
<g id="node16" class="node">
<title>n_default</title>
<polygon fill="#fab387" stroke="#fab387" points="501.78,-776.79 435.53,-776.79 435.53,-740.79 501.78,-740.79 501.78,-776.79"/>
<text text-anchor="middle" x="468.65" y="-754.11" font-family="Times,serif" font-size="14.00" fill="#1e1e2e">default</text>
</g>
<!-- host&#45;&gt;n_default -->
<g id="edge27" class="edge">
<title>host&#45;&gt;n_default</title>
<path fill="none" stroke="#a6adc8" d="M197.57,-836.24C248.65,-821.59 361.72,-789.16 424.15,-771.26"/>
<polygon fill="#a6adc8" stroke="#a6adc8" points="425.09,-774.63 433.73,-768.51 423.16,-767.91 425.09,-774.63"/>
</g>
<!-- default__cross_provide_host_ -->
<g id="node19" class="node">
<title>default__cross_provide_host_</title>
<polygon fill="#f9e2af" stroke="#f9e2af" points="572.65,-722.79 364.65,-722.79 364.65,-686.79 572.65,-686.79 572.65,-722.79"/>
<text text-anchor="middle" x="468.65" y="-700.11" font-family="Times,serif" font-size="14.00" fill="#1e1e2e">default/cross&#45;provide(host)</text>
</g>
<!-- host&#45;&gt;default__cross_provide_host_ -->
<g id="edge28" class="edge">
<title>host&#45;&gt;default__cross_provide_host_</title>
<path fill="none" stroke="#a6adc8" d="M195.51,-825.32C229.16,-800.55 292.75,-756.79 353.28,-731.79 357.57,-730.01 362.01,-728.34 366.53,-726.76"/>
<polygon fill="#a6adc8" stroke="#a6adc8" points="367.34,-730.18 375.75,-723.74 365.16,-723.53 367.34,-730.18"/>
</g>
<!-- default__cross_provide_user_ -->
<g id="node20" class="node">
<title>default__cross_provide_user_</title>
<polygon fill="#f9e2af" stroke="#f9e2af" points="573.03,-614.79 364.28,-614.79 364.28,-578.79 573.03,-578.79 573.03,-614.79"/>
<text text-anchor="middle" x="468.65" y="-592.11" font-family="Times,serif" font-size="14.00" fill="#1e1e2e">default/cross&#45;provide(user)</text>
</g>
<!-- host&#45;&gt;default__cross_provide_user_ -->
<g id="edge29" class="edge">
<title>host&#45;&gt;default__cross_provide_user_</title>
<path fill="none" stroke="#a6adc8" d="M180.79,-825.6C204.06,-783.05 268.21,-676.61 353.28,-623.79 355.31,-622.52 357.39,-621.32 359.52,-620.18"/>
<polygon fill="#a6adc8" stroke="#a6adc8" points="360.94,-623.38 368.41,-615.87 357.89,-617.08 360.94,-623.38"/>
</g>
<!-- default__self_provide_default_ -->
<g id="node21" class="node">
<title>default__self_provide_default_</title>
<polygon fill="#fab387" stroke="#fab387" points="576.03,-668.79 361.28,-668.79 361.28,-632.79 576.03,-632.79 576.03,-668.79"/>
<text text-anchor="middle" x="468.65" y="-646.11" font-family="Times,serif" font-size="14.00" fill="#1e1e2e">default/self&#45;provide(default)</text>
</g>
<!-- host&#45;&gt;default__self_provide_default_ -->
<g id="edge30" class="edge">
<title>host&#45;&gt;default__self_provide_default_</title>
<path fill="none" stroke="#a6adc8" d="M185.86,-825.31C214.24,-790.71 280.47,-716.21 353.28,-677.79 356.15,-676.27 359.11,-674.83 362.14,-673.48"/>
<polygon fill="#a6adc8" stroke="#a6adc8" points="363.31,-676.78 371.23,-669.75 360.65,-670.31 363.31,-676.78"/>
</g>
<!-- hm_host -->
<g id="node25" class="node">
<title>hm_host</title>
<polygon fill="#cba6f7" stroke="#cba6f7" points="764.53,-529.79 690.78,-529.79 690.78,-493.79 764.53,-493.79 764.53,-529.79"/>
<text text-anchor="middle" x="727.65" y="-507.11" font-family="Times,serif" font-size="14.00" fill="#1e1e2e">hm&#45;host</text>
</g>
<!-- host&#45;&gt;hm_host -->
<g id="edge32" class="edge">
<title>host&#45;&gt;hm_host</title>
<path fill="none" stroke="#a6adc8" d="M177.29,-825.38C195,-774.47 252.13,-631.31 353.28,-566.79 455,-501.89 603.57,-501.9 678.96,-507.02"/>
<polygon fill="#a6adc8" stroke="#a6adc8" points="678.67,-510.5 688.9,-507.76 679.19,-503.52 678.67,-510.5"/>
</g>
<!-- hm_host__cross_provide_host_ -->
<g id="node27" class="node">
<title>hm_host__cross_provide_host_</title>
<polygon fill="#f2cdcd" stroke="#f2cdcd" points="835.4,-475.79 619.9,-475.79 619.9,-439.79 835.4,-439.79 835.4,-475.79"/>
<text text-anchor="middle" x="727.65" y="-453.11" font-family="Times,serif" font-size="14.00" fill="#1e1e2e">hm&#45;host/cross&#45;provide(host)</text>
</g>
<!-- host&#45;&gt;hm_host__cross_provide_host_ -->
<g id="edge33" class="edge">
<title>host&#45;&gt;hm_host__cross_provide_host_</title>
<path fill="none" stroke="#a6adc8" d="M174.84,-825.34C187.32,-766.56 234.72,-582.81 353.28,-501.79 393.67,-474.18 514.78,-463.82 608.23,-459.97"/>
<polygon fill="#a6adc8" stroke="#a6adc8" points="608.11,-463.48 617.97,-459.59 607.84,-456.48 608.11,-463.48"/>
</g>
<!-- hm_host__self_provide_hm_host_ -->
<g id="node28" class="node">
<title>hm_host__self_provide_hm_host_</title>
<polygon fill="#cba6f7" stroke="#cba6f7" points="842.53,-421.79 612.78,-421.79 612.78,-385.79 842.53,-385.79 842.53,-421.79"/>
<text text-anchor="middle" x="727.65" y="-399.11" font-family="Times,serif" font-size="14.00" fill="#1e1e2e">hm&#45;host/self&#45;provide(hm&#45;host)</text>
</g>
<!-- host&#45;&gt;hm_host__self_provide_hm_host_ -->
<g id="edge34" class="edge">
<title>host&#45;&gt;hm_host__self_provide_hm_host_</title>
<path fill="none" stroke="#a6adc8" d="M173.78,-825.43C183.49,-762.33 224.62,-552.96 353.28,-457.79 423.79,-405.62 522.7,-393.26 601,-393.33"/>
<polygon fill="#a6adc8" stroke="#a6adc8" points="600.86,-396.83 610.89,-393.41 600.92,-389.83 600.86,-396.83"/>
</g>
<!-- hm_user -->
<g id="node29" class="node">
<title>hm_user</title>
<polygon fill="#fab387" stroke="#fab387" points="1066.32,-336.79 991.82,-336.79 991.82,-300.79 1066.32,-300.79 1066.32,-336.79"/>
<text text-anchor="middle" x="1029.07" y="-314.11" font-family="Times,serif" font-size="14.00" fill="#1e1e2e">hm&#45;user</text>
</g>
<!-- host&#45;&gt;hm_user -->
<g id="edge35" class="edge">
<title>host&#45;&gt;hm_user</title>
<path fill="none" stroke="#a6adc8" d="M172.24,-825.58C177.06,-755.6 204.57,-502.17 353.28,-389.79 452.01,-315.17 843.28,-315.21 980.34,-317.62"/>
<polygon fill="#a6adc8" stroke="#a6adc8" points="980.08,-321.12 990.15,-317.81 980.22,-314.12 980.08,-321.12"/>
</g>
<!-- hm_user__cross_provide_hm_host_ -->
<g id="node31" class="node">
<title>hm_user__cross_provide_hm_host_</title>
<polygon fill="#a6e3a1" stroke="#a6e3a1" points="1150.69,-228.79 907.44,-228.79 907.44,-192.79 1150.69,-192.79 1150.69,-228.79"/>
<text text-anchor="middle" x="1029.07" y="-206.11" font-family="Times,serif" font-size="14.00" fill="#1e1e2e">hm&#45;user/cross&#45;provide(hm&#45;host)</text>
</g>
<!-- host&#45;&gt;hm_user__cross_provide_hm_host_ -->
<g id="edge36" class="edge">
<title>host&#45;&gt;hm_user__cross_provide_hm_host_</title>
<path fill="none" stroke="#a6adc8" d="M174.26,-825.56C189.42,-735.78 260.51,-341.96 353.28,-267.79 523.03,-132.05 799.51,-162.63 940.04,-190.1"/>
<polygon fill="#a6adc8" stroke="#a6adc8" points="939.18,-193.5 949.67,-192.03 940.55,-186.64 939.18,-193.5"/>
</g>
<!-- hm_user__self_provide_hm_user_ -->
<g id="node32" class="node">
<title>hm_user__self_provide_hm_user_</title>
<polygon fill="#fab387" stroke="#fab387" points="1144.69,-282.79 913.44,-282.79 913.44,-246.79 1144.69,-246.79 1144.69,-282.79"/>
<text text-anchor="middle" x="1029.07" y="-260.11" font-family="Times,serif" font-size="14.00" fill="#1e1e2e">hm&#45;user/self&#45;provide(hm&#45;user)</text>
</g>
<!-- host&#45;&gt;hm_user__self_provide_hm_user_ -->
<g id="edge37" class="edge">
<title>host&#45;&gt;hm_user__self_provide_hm_user_</title>
<path fill="none" stroke="#a6adc8" d="M171.27,-825.29C172.39,-749.17 187.7,-458.04 353.28,-328.79 435.89,-264.3 730.23,-258.56 901.66,-261.05"/>
<polygon fill="#a6adc8" stroke="#a6adc8" points="901.45,-264.54 911.51,-261.2 901.57,-257.54 901.45,-264.54"/>
</g>
<!-- deploy -->
<g id="node33" class="node">
<title>deploy</title>
<polygon fill="#f2cdcd" stroke="#f2cdcd" points="1806.29,-89.79 1743.04,-89.79 1743.04,-53.79 1806.29,-53.79 1806.29,-89.79"/>
<text text-anchor="middle" x="1774.66" y="-67.11" font-family="Times,serif" font-size="14.00" fill="#1e1e2e">deploy</text>
</g>
<!-- host&#45;&gt;deploy -->
<g id="edge31" class="edge">
<title>host&#45;&gt;deploy</title>
<path fill="none" stroke="#a6adc8" d="M172.68,-825.5C181.42,-717.65 231.73,-165.69 353.28,-59.79 478.91,49.68 560.02,-25.79 726.65,-25.79 726.65,-25.79 726.65,-25.79 1030.07,-25.79 1255.1,-25.79 1311.64,-27.85 1536.04,-44.79 1604.55,-49.96 1683.78,-59.72 1731.24,-65.99"/>
<polygon fill="#a6adc8" stroke="#a6adc8" points="1730.72,-69.45 1741.1,-67.3 1731.65,-62.51 1730.72,-69.45"/>
</g>
<!-- user -->
<g id="node34" class="node">
<title>user</title>
<polygon fill="#f2cdcd" stroke="#f2cdcd" points="1402.82,-143.79 1348.82,-143.79 1348.82,-107.79 1402.82,-107.79 1402.82,-143.79"/>
<text text-anchor="middle" x="1375.82" y="-121.11" font-family="Times,serif" font-size="14.00" fill="#1e1e2e">user</text>
</g>
<!-- host&#45;&gt;user -->
<g id="edge42" class="edge">
<title>host&#45;&gt;user</title>
<path fill="none" stroke="#a6adc8" d="M173.36,-825.59C185.1,-727.29 245.93,-260.98 353.28,-174.79 431.22,-112.2 1162.62,-121.81 1337.43,-125.03"/>
<polygon fill="#a6adc8" stroke="#a6adc8" points="1337.23,-128.52 1347.3,-125.21 1337.37,-121.52 1337.23,-128.52"/>
</g>
<!-- user__cross_provide_host_ -->
<g id="node36" class="node">
<title>user__cross_provide_host_</title>
<polygon fill="#f38ba8" stroke="#f38ba8" points="1470.45,-89.79 1281.2,-89.79 1281.2,-53.79 1470.45,-53.79 1470.45,-89.79"/>
<text text-anchor="middle" x="1375.82" y="-67.11" font-family="Times,serif" font-size="14.00" fill="#1e1e2e">user/cross&#45;provide(host)</text>
</g>
<!-- host&#45;&gt;user__cross_provide_host_ -->
<g id="edge43" class="edge">
<title>host&#45;&gt;user__cross_provide_host_</title>
<path fill="none" stroke="#a6adc8" d="M173.08,-825.47C183.61,-723.29 240.32,-224.93 353.28,-131.79 490.41,-18.7 1037.28,-45.74 1269.58,-62.94"/>
<polygon fill="#a6adc8" stroke="#a6adc8" points="1268.99,-66.41 1279.23,-63.67 1269.52,-59.43 1268.99,-66.41"/>
</g>
<!-- host__aspect_host_&#45;&gt;host -->
<g id="edge44" class="edge">
<title>host__aspect_host_&#45;&gt;host</title>
<path fill="none" stroke="#a6adc8" d="M398.9,-849.59C339.74,-851.15 256.6,-850.78 208.89,-848.46"/>
<polygon fill="#a6adc8" stroke="#a6adc8" points="209.26,-844.98 199.08,-847.92 208.87,-851.97 209.26,-844.98"/>
</g>
<!-- host__cross_provide__anon__&#45;&gt;n_default -->
<g id="edge45" class="edge">
<title>host__cross_provide__anon__&#45;&gt;n_default</title>
<path fill="none" stroke="#a6adc8" d="M360.19,-883.67C351.47,-878.23 344.05,-871.09 338.9,-861.79 330.5,-846.62 330.5,-837.95 338.9,-822.79 356.13,-791.67 394,-775.39 424.4,-767.06"/>
<polygon fill="#a6adc8" stroke="#a6adc8" points="424.9,-770.55 433.75,-764.71 423.2,-763.76 424.9,-770.55"/>
</g>
<!-- host__self_provide_host_&#45;&gt;backup -->
<g id="edge46" class="edge">
<title>host__self_provide_host_&#45;&gt;backup</title>
<path fill="none" stroke="#a6adc8" d="M815.66,-971.59C870.7,-970.56 939.54,-970.97 983.66,-972.82"/>
<polygon fill="#a6adc8" stroke="#a6adc8" points="983.48,-976.32 993.63,-973.3 983.81,-969.32 983.48,-976.32"/>
</g>
<!-- host__self_provide_host_&#45;&gt;server -->
<g id="edge47" class="edge">
<title>host__self_provide_host_&#45;&gt;server</title>
<path fill="none" stroke="#a6adc8" d="M815.9,-987.15C836.36,-990.48 858.14,-993.76 878.53,-995.79 1046.43,-1012.5 1247.81,-1009.5 1333.24,-1011.19"/>
<polygon fill="#a6adc8" stroke="#a6adc8" points="1332.92,-1014.68 1343,-1011.42 1333.09,-1007.68 1332.92,-1014.68"/>
</g>
<!-- monitoring&#45;&gt;host__self_provide_host_ -->
<g id="edge48" class="edge">
<title>monitoring&#45;&gt;host__self_provide_host_</title>
<path fill="none" stroke="#a6adc8" d="M516.49,-1032.58C552.32,-1023.23 602.6,-1010.12 645.01,-999.07"/>
<polygon fill="#a6adc8" stroke="#a6adc8" points="645.63,-1002.53 654.42,-996.62 643.86,-995.75 645.63,-1002.53"/>
</g>
<!-- networking -->
<g id="node10" class="node">
<title>networking</title>
<polygon fill="#89b4fa" stroke="#89b4fa" points="1823.16,-881.79 1726.16,-881.79 1726.16,-845.79 1823.16,-845.79 1823.16,-881.79"/>
<text text-anchor="middle" x="1774.66" y="-859.11" font-family="Times,serif" font-size="14.00" fill="#1e1e2e">networking</text>
</g>
<!-- networking&#45;&gt;host__self_provide_host_ -->
<g id="edge49" class="edge">
<title>networking&#45;&gt;host__self_provide_host_</title>
<path fill="none" stroke="#a6adc8" d="M1725.75,-864.21C1551.9,-865.91 960.25,-873.33 878.53,-895.79 835.87,-907.51 792.05,-933.4 762.9,-952.98"/>
<polygon fill="#a6adc8" stroke="#a6adc8" points="761.12,-949.95 754.84,-958.49 765.07,-955.73 761.12,-949.95"/>
</g>
<!-- networking&#45;&gt;monitoring -->
<g id="edge50" class="edge">
<title>networking&#45;&gt;monitoring</title>
<path fill="none" stroke="#a6adc8" d="M1725.72,-859.38C1591.13,-848.06 1198.73,-822.14 878.53,-871.79 753.39,-891.19 719.11,-896.35 604.78,-950.79 566,-969.25 526.18,-998.43 499.91,-1019.38"/>
<polygon fill="#a6adc8" stroke="#a6adc8" points="497.96,-1016.46 492.38,-1025.46 502.36,-1021.9 497.96,-1016.46"/>
</g>
<!-- monitoring__nginx_exporter -->
<g id="node11" class="node">
<title>monitoring__nginx_exporter</title>
<polygon fill="#89b4fa" stroke="#f38ba8" stroke-dasharray="5,2" points="1893,-1123.79 1656.33,-1123.79 1572.04,-1087.79 1977.29,-1087.79 1893,-1123.79"/>
<text text-anchor="middle" x="1774.66" y="-1101.11" font-family="Times,serif" font-size="14.00" fill="#1e1e2e">monitoring/nginx&#45;exporter</text>
</g>
<!-- monitoring__nginx_exporter&#45;&gt;monitoring -->
<g id="edge75" class="edge">
<title>monitoring__nginx_exporter&#45;&gt;monitoring</title>
<path fill="none" stroke="#a6adc8" d="M1593.33,-1097.35C1294.97,-1083.39 713.13,-1056.18 527.81,-1047.51"/>
<polygon fill="#a6adc8" stroke="#a6adc8" points="528.11,-1044.02 517.96,-1047.05 527.78,-1051.01 528.11,-1044.02"/>
</g>
<!-- monitoring__node_exporter -->
<g id="node12" class="node">
<title>monitoring__node_exporter</title>
<polygon fill="#f2cdcd" stroke="#f38ba8" stroke-dasharray="5,2" points="1890.39,-1069.79 1658.94,-1069.79 1576.5,-1033.79 1972.82,-1033.79 1890.39,-1069.79"/>
<text text-anchor="middle" x="1774.66" y="-1047.11" font-family="Times,serif" font-size="14.00" fill="#1e1e2e">monitoring/node&#45;exporter</text>
</g>
<!-- monitoring__node_exporter&#45;&gt;monitoring -->
<g id="edge74" class="edge">
<title>monitoring__node_exporter&#45;&gt;monitoring</title>
<path fill="none" stroke="#a6adc8" d="M1614.64,-1050.93C1323.58,-1049.37 717.65,-1046.12 527.81,-1045.1"/>
<polygon fill="#a6adc8" stroke="#a6adc8" points="527.98,-1041.6 517.96,-1045.05 527.94,-1048.6 527.98,-1041.6"/>
</g>
<!-- server&#45;&gt;provider_filter -->
<g id="edge61" class="edge">
<title>server&#45;&gt;provider_filter</title>
<path fill="none" stroke="#a6adc8" d="M1350.87,-1033.16C1316.37,-1063.57 1249.17,-1122.86 1179.61,-1151.79 1154.28,-1162.32 1124.71,-1167.92 1098.57,-1171.47"/>
<polygon fill="#a6adc8" stroke="#a6adc8" points="1098.2,-1167.99 1088.72,-1172.73 1099.09,-1174.93 1098.2,-1167.99"/>
</g>
<!-- server&#45;&gt;monitoring__alerting -->
<g id="edge53" class="edge">
<title>server&#45;&gt;monitoring__alerting</title>
<path fill="none" stroke="#f38ba8" stroke-dasharray="5,2" d="M1344.74,-1017.38C1306.4,-1020.66 1238.1,-1026.4 1179.61,-1030.79 911.82,-1050.87 845.17,-1062.67 576.78,-1071.79 477.5,-1075.16 452.61,-1072.33 353.28,-1071.79 336.68,-1071.69 319.24,-1071.56 302,-1071.4"/>
<polygon fill="#f38ba8" stroke="#f38ba8" points="302.25,-1067.9 292.22,-1071.3 302.19,-1074.9 302.25,-1067.9"/>
</g>
<!-- server&#45;&gt;backup -->
<g id="edge54" class="edge">
<title>server&#45;&gt;backup</title>
<path fill="none" stroke="#a6adc8" d="M1344.77,-1015.58C1283.78,-1012.44 1145.21,-997.79 1074.05,-987.19"/>
<polygon fill="#a6adc8" stroke="#a6adc8" points="1074.72,-983.76 1064.31,-985.69 1073.66,-990.67 1074.72,-983.76"/>
</g>
<!-- server&#45;&gt;virtualization__docker -->
<g id="edge55" class="edge">
<title>server&#45;&gt;virtualization__docker</title>
<path fill="none" stroke="#a6adc8" d="M1407.12,-1015.43C1551.34,-1018.19 2182.56,-1027.17 2697.37,-984.79 2723.44,-982.64 2751.4,-979.26 2777.62,-975.61"/>
<polygon fill="#a6adc8" stroke="#a6adc8" points="2777.83,-979.11 2787.24,-974.24 2776.85,-972.18 2777.83,-979.11"/>
</g>
<!-- server&#45;&gt;host__self_provide_host_ -->
<g id="edge56" class="edge">
<title>server&#45;&gt;host__self_provide_host_</title>
<path fill="none" stroke="#a6adc8" d="M1344.51,-1020.22C1266.82,-1027.17 1054.33,-1031.28 878.53,-1013.79 848.35,-1010.78 815.13,-1005.05 787.65,-998.83"/>
<polygon fill="#a6adc8" stroke="#a6adc8" points="788.65,-995.47 778.11,-996.58 787.04,-1002.28 788.65,-995.47"/>
</g>
<!-- server&#45;&gt;monitoring -->
<g id="edge57" class="edge">
<title>server&#45;&gt;monitoring</title>
<path fill="none" stroke="#a6adc8" d="M1344.66,-1015.79C1214.78,-1020.09 702,-1037.09 527.87,-1042.86"/>
<polygon fill="#a6adc8" stroke="#a6adc8" points="527.8,-1039.36 517.92,-1043.19 528.03,-1046.35 527.8,-1039.36"/>
</g>
<!-- server&#45;&gt;networking -->
<g id="edge58" class="edge">
<title>server&#45;&gt;networking</title>
<path fill="none" stroke="#a6adc8" d="M1406.93,-1000.88C1444.99,-983.52 1512.73,-953.35 1572.04,-930.79 1619.73,-912.64 1674.74,-894.55 1715.25,-881.74"/>
<polygon fill="#a6adc8" stroke="#a6adc8" points="1716.07,-885.15 1724.56,-878.81 1713.97,-878.47 1716.07,-885.15"/>
</g>
<!-- server&#45;&gt;monitoring__nginx_exporter -->
<g id="edge59" class="edge">
<title>server&#45;&gt;monitoring__nginx_exporter</title>
<path fill="none" stroke="#f38ba8" stroke-dasharray="5,2" d="M1407.1,-1026.64C1445.07,-1041.06 1512.41,-1065.14 1572.04,-1078.79 1582.26,-1081.12 1592.82,-1083.28 1603.51,-1085.27"/>
<polygon fill="#f38ba8" stroke="#f38ba8" points="1602.73,-1088.69 1613.19,-1087.02 1603.97,-1081.8 1602.73,-1088.69"/>
</g>
<!-- server&#45;&gt;monitoring__node_exporter -->
<g id="edge60" class="edge">
<title>server&#45;&gt;monitoring__node_exporter</title>
<path fill="none" stroke="#f38ba8" stroke-dasharray="5,2" d="M1406.98,-1017.6C1441.79,-1020.84 1502.23,-1026.48 1564.13,-1032.25"/>
<polygon fill="#f38ba8" stroke="#f38ba8" points="1563.5,-1035.71 1573.78,-1033.15 1564.15,-1028.74 1563.5,-1035.71"/>
</g>
<!-- tailscale -->
<g id="node14" class="node">
<title>tailscale</title>
<polygon fill="#f2cdcd" stroke="#f2cdcd" points="1812.29,-975.79 1737.04,-975.79 1737.04,-939.79 1812.29,-939.79 1812.29,-975.79"/>
<text text-anchor="middle" x="1774.66" y="-953.11" font-family="Times,serif" font-size="14.00" fill="#1e1e2e">tailscale</text>
</g>
<!-- server&#45;&gt;tailscale -->
<g id="edge62" class="edge">
<title>server&#45;&gt;tailscale</title>
<path fill="none" stroke="#a6adc8" d="M1406.98,-1010.45C1475.32,-1000.64 1642.48,-976.63 1725.39,-964.72"/>
<polygon fill="#a6adc8" stroke="#a6adc8" points="1725.86,-968.19 1735.26,-963.3 1724.86,-961.26 1725.86,-968.19"/>
</g>
<!-- server&#45;&gt;virtualization -->
<g id="edge63" class="edge">
<title>server&#45;&gt;virtualization</title>
<path fill="none" stroke="#a6adc8" d="M1407.14,-1013.51C1495.23,-1009.75 1758.77,-998.15 1977.29,-984.79 2084.86,-978.21 2209.76,-968.81 2284.29,-963.01"/>
<polygon fill="#a6adc8" stroke="#a6adc8" points="2284.16,-966.53 2293.85,-962.27 2283.61,-959.56 2284.16,-966.53"/>
</g>
<!-- tailscale&#45;&gt;host__self_provide_host_ -->
<g id="edge64" class="edge">
<title>tailscale&#45;&gt;host__self_provide_host_</title>
<path fill="none" stroke="#a6adc8" d="M1736.9,-954.95C1614.62,-946.08 1210.56,-921.12 878.53,-950.79 861.78,-952.28 844.11,-954.7 827.01,-957.49"/>
<polygon fill="#a6adc8" stroke="#a6adc8" points="826.64,-954 817.36,-959.12 827.8,-960.91 826.64,-954"/>
</g>
<!-- tailscale&#45;&gt;virtualization -->
<g id="edge65" class="edge">
<title>tailscale&#45;&gt;virtualization</title>
<path fill="none" stroke="#a6adc8" d="M1812.49,-957.79C1907.64,-957.79 2162.73,-957.79 2284.23,-957.79"/>
<polygon fill="#a6adc8" stroke="#a6adc8" points="2284.05,-961.29 2294.05,-957.79 2284.05,-954.29 2284.05,-961.29"/>
</g>
<!-- virtualization&#45;&gt;virtualization__docker -->
<g id="edge70" class="edge">
<title>virtualization&#45;&gt;virtualization__docker</title>
<path fill="none" stroke="#a6adc8" d="M2407.01,-953.49C2483.67,-951.04 2625.98,-950.43 2735.78,-951.64"/>
<polygon fill="#a6adc8" stroke="#a6adc8" points="2735.42,-955.13 2745.46,-951.75 2735.5,-948.13 2735.42,-955.13"/>
</g>
<!-- virtualization&#45;&gt;host__self_provide_host_ -->
<g id="edge71" class="edge">
<title>virtualization&#45;&gt;host__self_provide_host_</title>
<path fill="none" stroke="#a6adc8" d="M2295.41,-952.56C2222.71,-945.94 2090.52,-934.88 1977.29,-930.79 1489.27,-913.15 1361.58,-861.12 878.53,-932.79 848.06,-937.31 815.18,-946.65 788,-955.66"/>
<polygon fill="#a6adc8" stroke="#a6adc8" points="786.89,-952.34 778.55,-958.86 789.14,-958.97 786.89,-952.34"/>
</g>
<!-- default__aspect_default_ -->
<g id="node17" class="node">
<title>default__aspect_default_</title>
<polygon fill="#a6e3a1" stroke="#a6e3a1" points="816.65,-739.79 638.65,-739.79 638.65,-703.79 816.65,-703.79 816.65,-739.79"/>
<text text-anchor="middle" x="727.65" y="-717.11" font-family="Times,serif" font-size="14.00" fill="#1e1e2e">default/aspect(default)</text>
</g>
<!-- n_default&#45;&gt;default__aspect_default_ -->
<g id="edge3" class="edge">
<title>n_default&#45;&gt;default__aspect_default_</title>
<path fill="none" stroke="#a6adc8" d="M502.2,-754.1C533.64,-749.57 582.88,-742.48 627.25,-736.1"/>
<polygon fill="#a6adc8" stroke="#a6adc8" points="627.51,-739.6 636.91,-734.71 626.51,-732.67 627.51,-739.6"/>
</g>
<!-- den__provides__define_user -->
<g id="node22" class="node">
<title>den__provides__define_user</title>
<polygon fill="#a6e3a1" stroke="#a6e3a1" points="1469.39,-747.79 1282.26,-747.79 1215.61,-711.79 1536.04,-711.79 1469.39,-747.79"/>
<text text-anchor="middle" x="1375.82" y="-725.11" font-family="Times,serif" font-size="14.00" fill="#1e1e2e">provides/define&#45;user</text>
</g>
<!-- n_default&#45;&gt;den__provides__define_user -->
<g id="edge4" class="edge">
<title>n_default&#45;&gt;den__provides__define_user</title>
<path fill="none" stroke="#a6adc8" d="M501.91,-756.31C524.45,-753.3 554.39,-746.61 576.78,-731.79 593.97,-720.4 586.31,-703.97 604.78,-694.79 714.5,-640.22 1061.31,-681.63 1249.85,-709.63"/>
<polygon fill="#a6adc8" stroke="#a6adc8" points="1249.3,-713.09 1259.7,-711.11 1250.33,-706.16 1249.3,-713.09"/>
</g>
<!-- den__provides__hostname -->
<g id="node23" class="node">
<title>den__provides__hostname</title>
<polygon fill="#fab387" stroke="#fab387" points="1116.99,-776.79 941.15,-776.79 878.53,-740.79 1179.61,-740.79 1116.99,-776.79"/>
<text text-anchor="middle" x="1029.07" y="-754.11" font-family="Times,serif" font-size="14.00" fill="#1e1e2e">provides/hostname</text>
</g>
<!-- n_default&#45;&gt;den__provides__hostname -->
<g id="edge5" class="edge">
<title>n_default&#45;&gt;den__provides__hostname</title>
<path fill="none" stroke="#a6adc8" d="M502.09,-758.79C577.46,-758.79 767.88,-758.79 897.68,-758.79"/>
<polygon fill="#a6adc8" stroke="#a6adc8" points="897.35,-762.29 907.35,-758.79 897.35,-755.29 897.35,-762.29"/>
</g>
<!-- den__provides__mutual_provider -->
<g id="node24" class="node">
<title>den__provides__mutual_provider</title>
<polygon fill="#f9e2af" stroke="#f9e2af" points="1889.09,-710.79 1660.24,-710.79 1578.74,-674.79 1970.59,-674.79 1889.09,-710.79"/>
<text text-anchor="middle" x="1774.66" y="-688.11" font-family="Times,serif" font-size="14.00" fill="#1e1e2e">provides/mutual&#45;provider</text>
</g>
<!-- n_default&#45;&gt;den__provides__mutual_provider -->
<g id="edge6" class="edge">
<title>n_default&#45;&gt;den__provides__mutual_provider</title>
<path fill="none" stroke="#a6adc8" d="M502.13,-750.53C525.35,-746.82 556.04,-740.45 576.78,-722.79 600.72,-702.39 578.5,-675.08 604.78,-657.79 778.97,-543.15 1426.52,-629.28 1675.37,-672.4"/>
<polygon fill="#a6adc8" stroke="#a6adc8" points="1674.62,-675.82 1685.07,-674.1 1675.82,-668.93 1674.62,-675.82"/>
</g>
<!-- default__aspect_default_&#45;&gt;den__provides__define_user -->
<g id="edge7" class="edge">
<title>default__aspect_default_&#45;&gt;den__provides__define_user</title>
<path fill="none" stroke="#a6adc8" d="M817.14,-718.06C921.49,-717.18 1096.67,-719.01 1222.87,-722.08"/>
<polygon fill="#a6adc8" stroke="#a6adc8" points="1222.57,-725.57 1232.65,-722.32 1222.74,-718.57 1222.57,-725.57"/>
</g>
<!-- default__aspect_default_&#45;&gt;den__provides__hostname -->
<g id="edge8" class="edge">
<title>default__aspect_default_&#45;&gt;den__provides__hostname</title>
<path fill="none" stroke="#a6adc8" d="M816.87,-726.47C848.79,-729.83 885.23,-734.23 918.76,-738.75"/>
<polygon fill="#a6adc8" stroke="#a6adc8" points="918.12,-742.2 928.5,-740.08 919.07,-735.26 918.12,-742.2"/>
</g>
<!-- default__aspect_default_&#45;&gt;den__provides__mutual_provider -->
<g id="edge9" class="edge">
<title>default__aspect_default_&#45;&gt;den__provides__mutual_provider</title>
<path fill="none" stroke="#a6adc8" d="M817.05,-711.18C914.6,-704.48 1076.28,-697.75 1215.61,-693.79 1342.14,-690.18 1484.84,-687.65 1594.27,-687.24"/>
<polygon fill="#a6adc8" stroke="#a6adc8" points="1594.25,-690.74 1604.24,-687.2 1594.23,-683.74 1594.25,-690.74"/>
</g>
<!-- den__provides__default__aspect_default__den__provides -->
<g id="node18" class="node">
<title>den__provides__default__aspect_default__den__provides</title>
<polygon fill="#a6e3a1" stroke="#a6e3a1" points="2548.75,-747.79 2153.91,-747.79 2013.29,-711.79 2689.37,-711.79 2548.75,-747.79"/>
<text text-anchor="middle" x="2351.33" y="-725.11" font-family="Times,serif" font-size="14.00" fill="#1e1e2e">provides/default/aspect(default):den/provides</text>
</g>
<!-- default__cross_provide_host_&#45;&gt;hm_host -->
<g id="edge10" class="edge">
<title>default__cross_provide_host_&#45;&gt;hm_host</title>
<path fill="none" stroke="#a6adc8" d="M566.11,-686.47C569.93,-683.92 573.52,-681.04 576.78,-677.79 612.76,-641.81 572.12,-605.8 604.78,-566.79 623.73,-544.15 653.93,-530.43 679.52,-522.35"/>
<polygon fill="#a6adc8" stroke="#a6adc8" points="680.47,-525.72 689.08,-519.55 678.5,-519.01 680.47,-525.72"/>
</g>
<!-- den__provides__define_user&#45;&gt;default__aspect_default_ -->
<g id="edge11" class="edge">
<title>den__provides__define_user&#45;&gt;default__aspect_default_</title>
<path fill="none" stroke="#a6adc8" d="M1255.31,-733.69C1132.49,-734.1 943.44,-731.65 828.39,-728.06"/>
<polygon fill="#a6adc8" stroke="#a6adc8" points="828.76,-724.57 818.66,-727.75 828.54,-731.57 828.76,-724.57"/>
</g>
<!-- den__provides__define_user&#45;&gt;den__provides__default__aspect_default__den__provides -->
<g id="edge12" class="edge">
<title>den__provides__define_user&#45;&gt;den__provides__default__aspect_default__den__provides</title>
<path fill="none" stroke="#a6adc8" d="M1503.59,-729.79C1646.53,-729.79 1883.35,-729.79 2070.25,-729.79"/>
<polygon fill="#a6adc8" stroke="#a6adc8" points="2070.13,-733.29 2080.13,-729.79 2070.13,-726.29 2070.13,-733.29"/>
</g>
<!-- den__provides__define_user&#45;&gt;den__provides__mutual_provider -->
<g id="edge13" class="edge">
<title>den__provides__define_user&#45;&gt;den__provides__mutual_provider</title>
<path fill="none" stroke="#a6adc8" d="M1529.97,-715.51C1564.28,-712.31 1600.5,-708.93 1634.22,-705.79"/>
<polygon fill="#a6adc8" stroke="#a6adc8" points="1634.41,-709.28 1644.04,-704.87 1633.76,-702.31 1634.41,-709.28"/>
</g>
<!-- den__provides__hostname&#45;&gt;default__aspect_default_ -->
<g id="edge14" class="edge">
<title>den__provides__hostname&#45;&gt;default__aspect_default_</title>
<path fill="none" stroke="#a6adc8" d="M891.33,-748.62C869.99,-746.05 848.29,-743.26 827.99,-740.46"/>
<polygon fill="#a6adc8" stroke="#a6adc8" points="828.75,-737.03 818.36,-739.11 827.78,-743.97 828.75,-737.03"/>
</g>
<!-- den__provides__hostname&#45;&gt;den__provides__default__aspect_default__den__provides -->
<g id="edge15" class="edge">
<title>den__provides__hostname&#45;&gt;den__provides__default__aspect_default__den__provides</title>
<path fill="none" stroke="#a6adc8" d="M1148.41,-759.29C1250.96,-759.5 1403.31,-759.25 1536.04,-756.79 1728.2,-753.22 1945.78,-745.83 2107.65,-739.69"/>
<polygon fill="#a6adc8" stroke="#a6adc8" points="2107.35,-743.2 2117.21,-739.32 2107.08,-736.21 2107.35,-743.2"/>
</g>
<!-- den__provides__hostname&#45;&gt;den__provides__define_user -->
<g id="edge16" class="edge">
<title>den__provides__hostname&#45;&gt;den__provides__define_user</title>
<path fill="none" stroke="#a6adc8" d="M1169.3,-747.07C1197.3,-744.72 1226.52,-742.26 1253.84,-739.96"/>
<polygon fill="#a6adc8" stroke="#a6adc8" points="1253.84,-743.48 1263.51,-739.15 1253.25,-736.5 1253.84,-743.48"/>
</g>
<!-- den__provides__mutual_provider&#45;&gt;n_default -->
<g id="edge17" class="edge">
<title>den__provides__mutual_provider&#45;&gt;n_default</title>
<path fill="none" stroke="#a6adc8" d="M1625.06,-674.31C1348.55,-637.43 768.24,-568.21 604.78,-675.79 578.5,-693.08 600.72,-720.39 576.78,-740.79 559.28,-755.69 534.7,-762.55 513.49,-764.72"/>
<polygon fill="#a6adc8" stroke="#a6adc8" points="513.39,-761.22 503.64,-765.36 513.84,-768.2 513.39,-761.22"/>
</g>
<!-- den__provides__mutual_provider&#45;&gt;default__aspect_default_ -->
<g id="edge18" class="edge">
<title>den__provides__mutual_provider&#45;&gt;default__aspect_default_</title>
<path fill="none" stroke="#a6adc8" d="M1638.33,-701.64C1525.3,-704.96 1359.93,-707.68 1215.61,-711.79 1081.58,-715.6 926.88,-721.97 828.47,-724.14"/>
<polygon fill="#a6adc8" stroke="#a6adc8" points="828.48,-720.64 818.56,-724.35 828.63,-727.64 828.48,-720.64"/>
</g>
<!-- den__provides__mutual_provider&#45;&gt;den__provides__default__aspect_default__den__provides -->
<g id="edge19" class="edge">
<title>den__provides__mutual_provider&#45;&gt;den__provides__default__aspect_default__den__provides</title>
<path fill="none" stroke="#a6adc8" d="M1911.12,-701.51C1953.77,-704.25 2002.69,-707.4 2052.03,-710.58"/>
<polygon fill="#a6adc8" stroke="#a6adc8" points="2051.52,-714.05 2061.72,-711.2 2051.97,-707.07 2051.52,-714.05"/>
</g>
<!-- hm_host__aspect_hm_host_ -->
<g id="node26" class="node">
<title>hm_host__aspect_hm_host_</title>
<polygon fill="#89b4fa" stroke="#89b4fa" points="1125.57,-529.79 932.57,-529.79 932.57,-493.79 1125.57,-493.79 1125.57,-529.79"/>
<text text-anchor="middle" x="1029.07" y="-507.11" font-family="Times,serif" font-size="14.00" fill="#1e1e2e">hm&#45;host/aspect(hm&#45;host)</text>
</g>
<!-- hm_host&#45;&gt;hm_host__aspect_hm_host_ -->
<g id="edge21" class="edge">
<title>hm_host&#45;&gt;hm_host__aspect_hm_host_</title>
<path fill="none" stroke="#a6adc8" d="M764.77,-507.2C803.33,-505.27 866.28,-504.63 920.96,-505.29"/>
<polygon fill="#a6adc8" stroke="#a6adc8" points="920.57,-508.78 930.62,-505.42 920.67,-501.78 920.57,-508.78"/>
</g>
<!-- hm_host__aspect_hm_host_&#45;&gt;hm_host -->
<g id="edge22" class="edge">
<title>hm_host__aspect_hm_host_&#45;&gt;hm_host</title>
<path fill="none" stroke="#a6adc8" d="M932.13,-518.13C880.09,-518.95 818.04,-518.53 776.25,-516.88"/>
<polygon fill="#a6adc8" stroke="#a6adc8" points="776.42,-513.39 766.28,-516.44 776.11,-520.38 776.42,-513.39"/>
</g>
<!-- hm_host__cross_provide_host_&#45;&gt;hm_user -->
<g id="edge23" class="edge">
<title>hm_host__cross_provide_host_&#45;&gt;hm_user</title>
<path fill="none" stroke="#a6adc8" d="M828,-439.41C833.09,-436.89 837.98,-434.03 842.53,-430.79 866.91,-413.37 855.23,-392.63 878.53,-373.79 908.03,-349.93 948.84,-335.85 980.38,-327.92"/>
<polygon fill="#a6adc8" stroke="#a6adc8" points="981.15,-331.33 990.07,-325.62 979.53,-324.52 981.15,-331.33"/>
</g>
<!-- hm_user__aspect_hm_user_ -->
<g id="node30" class="node">
<title>hm_user__aspect_hm_user_</title>
<polygon fill="#a6e3a1" stroke="#a6e3a1" points="1473.07,-336.79 1278.57,-336.79 1278.57,-300.79 1473.07,-300.79 1473.07,-336.79"/>
<text text-anchor="middle" x="1375.82" y="-314.11" font-family="Times,serif" font-size="14.00" fill="#1e1e2e">hm&#45;user/aspect(hm&#45;user)</text>
</g>
<!-- hm_user&#45;&gt;hm_user__aspect_hm_user_ -->
<g id="edge24" class="edge">
<title>hm_user&#45;&gt;hm_user__aspect_hm_user_</title>
<path fill="none" stroke="#a6adc8" d="M1066.64,-314.43C1113.91,-312.15 1198.31,-311.5 1266.84,-312.47"/>
<polygon fill="#a6adc8" stroke="#a6adc8" points="1266.56,-315.97 1276.62,-312.63 1266.67,-308.97 1266.56,-315.97"/>
</g>
<!-- hm_user__aspect_hm_user_&#45;&gt;hm_user -->
<g id="edge25" class="edge">
<title>hm_user__aspect_hm_user_&#45;&gt;hm_user</title>
<path fill="none" stroke="#a6adc8" d="M1278.13,-324.92C1212.9,-326.05 1129.63,-325.62 1078.08,-323.63"/>
<polygon fill="#a6adc8" stroke="#a6adc8" points="1078.29,-320.14 1068.15,-323.21 1077.99,-327.13 1078.29,-320.14"/>
</g>
<!-- hm_user__cross_provide_hm_host_&#45;&gt;user -->
<g id="edge26" class="edge">
<title>hm_user__cross_provide_hm_host_&#45;&gt;user</title>
<path fill="none" stroke="#a6adc8" d="M1104.87,-192.34C1176.61,-174.66 1281.96,-148.68 1337.46,-135"/>
<polygon fill="#a6adc8" stroke="#a6adc8" points="1338.17,-138.43 1347.04,-132.64 1336.5,-131.63 1338.17,-138.43"/>
</g>
<!-- user__self_provide_user_ -->
<g id="node37" class="node">
<title>user__self_provide_user_</title>
<polygon fill="#f2cdcd" stroke="#f2cdcd" points="2439.95,-89.79 2262.7,-89.79 2262.7,-53.79 2439.95,-53.79 2439.95,-89.79"/>
<text text-anchor="middle" x="2351.33" y="-67.11" font-family="Times,serif" font-size="14.00" fill="#1e1e2e">user/self&#45;provide(user)</text>
</g>
<!-- deploy&#45;&gt;user__self_provide_user_ -->
<g id="edge20" class="edge">
<title>deploy&#45;&gt;user__self_provide_user_</title>
<path fill="none" stroke="#a6adc8" d="M1806.56,-68.52C1889.19,-64.67 2117.98,-64.01 2250.99,-66.53"/>
<polygon fill="#a6adc8" stroke="#a6adc8" points="2250.79,-70.03 2260.86,-66.73 2250.93,-63.03 2250.79,-70.03"/>
</g>
<!-- user&#45;&gt;deploy -->
<g id="edge66" class="edge">
<title>user&#45;&gt;deploy</title>
<path fill="none" stroke="#a6adc8" d="M1403.03,-122.13C1440.49,-116.9 1511.53,-107.02 1572.04,-98.79 1626.98,-91.31 1690.37,-82.85 1731.18,-77.42"/>
<polygon fill="#a6adc8" stroke="#a6adc8" points="1731.62,-80.89 1741.07,-76.11 1730.7,-73.95 1731.62,-80.89"/>
</g>
<!-- user__aspect_user_ -->
<g id="node35" class="node">
<title>user__aspect_user_</title>
<polygon fill="#fab387" stroke="#fab387" points="1844.91,-143.79 1704.41,-143.79 1704.41,-107.79 1844.91,-107.79 1844.91,-143.79"/>
<text text-anchor="middle" x="1774.66" y="-121.11" font-family="Times,serif" font-size="14.00" fill="#1e1e2e">user/aspect(user)</text>
</g>
<!-- user&#45;&gt;user__aspect_user_ -->
<g id="edge67" class="edge">
<title>user&#45;&gt;user__aspect_user_</title>
<path fill="none" stroke="#a6adc8" d="M1403.17,-122.21C1461.27,-118.8 1602.42,-118.14 1692.76,-120.22"/>
<polygon fill="#a6adc8" stroke="#a6adc8" points="1692.46,-123.72 1702.55,-120.47 1692.64,-116.72 1692.46,-123.72"/>
</g>
<!-- user__aspect_user_&#45;&gt;user -->
<g id="edge68" class="edge">
<title>user__aspect_user_&#45;&gt;user</title>
<path fill="none" stroke="#a6adc8" d="M1704.06,-131.07C1619.71,-133.35 1480.65,-132.97 1414.31,-129.94"/>
<polygon fill="#a6adc8" stroke="#a6adc8" points="1414.85,-126.46 1404.68,-129.44 1414.49,-133.45 1414.85,-126.46"/>
</g>
<!-- user__self_provide_user_&#45;&gt;deploy -->
<g id="edge69" class="edge">
<title>user__self_provide_user_&#45;&gt;deploy</title>
<path fill="none" stroke="#a6adc8" d="M2262.37,-76.81C2136.81,-79.48 1911.09,-79.05 1817.79,-75.52"/>
<polygon fill="#a6adc8" stroke="#a6adc8" points="1818.21,-72.03 1808.07,-75.11 1817.92,-79.03 1818.21,-72.03"/>
</g>
</g>
</svg>
