<?xml version="1.0" encoding="UTF-8" standalone="no"?>
<!DOCTYPE svg PUBLIC "-//W3C//DTD SVG 1.1//EN"
 "http://www.w3.org/Graphics/SVG/1.1/DTD/svg11.dtd">
<!-- Generated by graphviz version 12.2.1 (0)
 -->
<!-- Pages: 1 -->
<svg width="1687pt" height="1527pt"
 viewBox="0.00 0.00 1686.81 1527.00" xmlns="http://www.w3.org/2000/svg" xmlns:xlink="http://www.w3.org/1999/xlink">
<g id="graph0" class="graph" transform="scale(1 1) rotate(0) translate(4 1523)">
<polygon fill="#1e1e2e" stroke="none" points="-4,4 -4,-1523 1682.81,-1523 1682.81,4 -4,4"/>
<g id="clust1" class="cluster">
<title>cluster_ctx_host</title>
<polygon fill="#313244" stroke="#6c7086" stroke-dasharray="5,2" points="11.88,-990 11.88,-1511 1420.65,-1511 1420.65,-990 11.88,-990"/>
<text text-anchor="middle" x="716.26" y="-1493.7" font-family="Times,serif" font-size="14.00" fill="#cdd6f4">host</text>
</g>
<g id="clust2" class="cluster">
<title>cluster_ctx_default</title>
<polygon fill="#313244" stroke="#6c7086" stroke-dasharray="5,2" points="204.88,-659 204.88,-918 1670.81,-918 1670.81,-659 204.88,-659"/>
<text text-anchor="middle" x="937.84" y="-900.7" font-family="Times,serif" font-size="14.00" fill="#cdd6f4">default</text>
</g>
<g id="clust3" class="cluster">
<title>cluster_ctx_hm_host</title>
<polygon fill="#313244" stroke="#6c7086" stroke-dasharray="5,2" points="197.38,-448 197.38,-651 859.3,-651 859.3,-448 197.38,-448"/>
<text text-anchor="middle" x="528.34" y="-633.7" font-family="Times,serif" font-size="14.00" fill="#cdd6f4">hm&#45;host</text>
</g>
<g id="clust4" class="cluster">
<title>cluster_ctx_hm_user</title>
<polygon fill="#313244" stroke="#6c7086" stroke-dasharray="5,2" points="190.63,-237 190.63,-440 860.05,-440 860.05,-237 190.63,-237"/>
<text text-anchor="middle" x="525.34" y="-422.7" font-family="Times,serif" font-size="14.00" fill="#cdd6f4">hm&#45;user</text>
</g>
<g id="clust5" class="cluster">
<title>cluster_ctx_user</title>
<polygon fill="#313244" stroke="#6c7086" stroke-dasharray="5,2" points="217.63,-8 217.63,-229 851.43,-229 851.43,-8 217.63,-8"/>
<text text-anchor="middle" x="534.53" y="-211.7" font-family="Times,serif" font-size="14.00" fill="#cdd6f4">user</text>
</g>
<!-- web_server -->
<g id="node1" class="node">
<title>web_server</title>
<path fill="#89b4fa" stroke="#89b4fa" d="M356,-962C356,-962 284.5,-962 284.5,-962 278.5,-962 272.5,-956 272.5,-950 272.5,-950 272.5,-938 272.5,-938 272.5,-932 278.5,-926 284.5,-926 284.5,-926 356,-926 356,-926 362,-926 368,-932 368,-938 368,-938 368,-950 368,-950 368,-956 362,-962 356,-962"/>
<text text-anchor="middle" x="320.25" y="-939.33" font-family="Times,serif" font-size="14.00" fill="#1e1e2e">web&#45;server</text>
</g>
<!-- web_server&#45;&gt;web_server -->
<g id="edge69" class="edge">
<title>web_server&#45;&gt;web_server</title>
<path fill="none" stroke="#a6adc8" d="M272.14,-961.41C263.16,-971.09 279.2,-980 320.25,-980 343.99,-980 359.36,-977.02 366.37,-972.64"/>
<polygon fill="#a6adc8" stroke="#a6adc8" points="369.8,-973.36 368.1,-962.9 362.91,-972.14 369.8,-973.36"/>
</g>
<!-- host__self_provide_host_ -->
<g id="node8" class="node">
<title>host__self_provide_host_</title>
<polygon fill="#f2cdcd" stroke="#f2cdcd" points="1412.65,-1257 1236.9,-1257 1236.9,-1221 1412.65,-1221 1412.65,-1257"/>
<text text-anchor="middle" x="1324.77" y="-1234.33" font-family="Times,serif" font-size="14.00" fill="#1e1e2e">host/self&#45;provide(host)</text>
</g>
<!-- web_server&#45;&gt;host__self_provide_host_ -->
<g id="edge67" class="edge">
<title>web_server&#45;&gt;host__self_provide_host_</title>
<path fill="none" stroke="#a6adc8" d="M368.25,-946.67C474.51,-953.77 740.41,-977.59 950.73,-1047 1080.67,-1089.88 1220.78,-1173.22 1286.17,-1214.55"/>
<polygon fill="#a6adc8" stroke="#a6adc8" points="1284.04,-1217.34 1294.36,-1219.75 1287.8,-1211.43 1284.04,-1217.34"/>
</g>
<!-- server -->
<g id="node13" class="node">
<title>server</title>
<polygon fill="#89b4fa" stroke="#89b4fa" points="81.63,-1309 19.88,-1309 19.88,-1273 81.63,-1273 81.63,-1309"/>
<text text-anchor="middle" x="50.75" y="-1286.33" font-family="Times,serif" font-size="14.00" fill="#1e1e2e">server</text>
</g>
<!-- web_server&#45;&gt;server -->
<g id="edge68" class="edge">
<title>web_server&#45;&gt;server</title>
<path fill="none" stroke="#a6adc8" d="M272.16,-940.28C226.41,-939.41 158.1,-945.82 117.63,-986 78.73,-1024.61 60.17,-1192.74 54.09,-1261.52"/>
<polygon fill="#a6adc8" stroke="#a6adc8" points="50.62,-1261.01 53.26,-1271.27 57.6,-1261.61 50.62,-1261.01"/>
</g>
<!-- monitoring__alerting -->
<g id="node2" class="node">
<title>monitoring__alerting</title>
<polygon fill="#cba6f7" stroke="#cba6f7" points="410.34,-1254 230.16,-1254 165.99,-1218 474.51,-1218 410.34,-1254"/>
<text text-anchor="middle" x="320.25" y="-1231.33" font-family="Times,serif" font-size="14.00" fill="#1e1e2e">monitoring/alerting</text>
</g>
<!-- monitoring__alerting&#45;&gt;monitoring__alerting -->
<g id="edge42" class="edge">
<title>monitoring__alerting&#45;&gt;monitoring__alerting</title>
<path fill="none" stroke="#a6adc8" d="M271.5,-1254.15C264,-1263.54 280.25,-1272 320.25,-1272 343.38,-1272 358.57,-1269.17 365.82,-1264.97"/>
<polygon fill="#a6adc8" stroke="#a6adc8" points="369.11,-1266.19 368.58,-1255.6 362.39,-1264.21 369.11,-1266.19"/>
</g>
<!-- monitoring__alerting&#45;&gt;host__self_provide_host_ -->
<g id="edge43" class="edge">
<title>monitoring__alerting&#45;&gt;host__self_provide_host_</title>
<path fill="none" stroke="#a6adc8" d="M448.88,-1232.82C484.48,-1232.07 523.19,-1231.38 558.88,-1231 733.03,-1229.17 776.58,-1229.13 950.73,-1231 1043.92,-1232 1150.18,-1234.4 1225.39,-1236.31"/>
<polygon fill="#a6adc8" stroke="#a6adc8" points="1225.12,-1239.81 1235.21,-1236.57 1225.3,-1232.81 1225.12,-1239.81"/>
</g>
<!-- monitoring -->
<g id="node9" class="node">
<title>monitoring</title>
<polygon fill="#89b4fa" stroke="#89b4fa" points="802.18,-1276 707.43,-1276 707.43,-1240 802.18,-1240 802.18,-1276"/>
<text text-anchor="middle" x="754.8" y="-1253.33" font-family="Times,serif" font-size="14.00" fill="#1e1e2e">monitoring</text>
</g>
<!-- monitoring__alerting&#45;&gt;monitoring -->
<g id="edge72" class="edge">
<title>monitoring__alerting&#45;&gt;monitoring</title>
<path fill="none" stroke="#a6adc8" d="M433.21,-1241.69C517.33,-1245.97 629.14,-1251.66 696.05,-1255.06"/>
<polygon fill="#a6adc8" stroke="#a6adc8" points="695.52,-1258.54 705.69,-1255.55 695.88,-1251.55 695.52,-1258.54"/>
</g>
<!-- backup -->
<g id="node3" class="node">
<title>backup</title>
<polygon fill="#89b4fa" stroke="#89b4fa" points="788.3,-1164 721.3,-1164 721.3,-1128 788.3,-1128 788.3,-1164"/>
<text text-anchor="middle" x="754.8" y="-1141.33" font-family="Times,serif" font-size="14.00" fill="#1e1e2e">backup</text>
</g>
<!-- backup&#45;&gt;backup -->
<g id="edge1" class="edge">
<title>backup&#45;&gt;backup</title>
<path fill="none" stroke="#a6adc8" d="M721.09,-1150.66C647.66,-1163.3 658.9,-1182 754.8,-1182 845.47,-1182 860.47,-1165.29 799.81,-1152.78"/>
<polygon fill="#a6adc8" stroke="#a6adc8" points="800.48,-1149.35 790.01,-1150.94 799.19,-1156.22 800.48,-1149.35"/>
</g>
<!-- backup&#45;&gt;host__self_provide_host_ -->
<g id="edge2" class="edge">
<title>backup&#45;&gt;host__self_provide_host_</title>
<path fill="none" stroke="#a6adc8" d="M788.8,-1151.4C872.42,-1165.09 1095.26,-1201.58 1225.44,-1222.9"/>
<polygon fill="#a6adc8" stroke="#a6adc8" points="1224.66,-1226.32 1235.09,-1224.48 1225.79,-1219.41 1224.66,-1226.32"/>
</g>
<!-- virtualization__docker -->
<g id="node4" class="node">
<title>virtualization__docker</title>
<polygon fill="#cba6f7" stroke="#cba6f7" points="415.12,-1440 225.38,-1440 157.8,-1404 482.7,-1404 415.12,-1440"/>
<text text-anchor="middle" x="320.25" y="-1417.33" font-family="Times,serif" font-size="14.00" fill="#1e1e2e">virtualization/docker</text>
</g>
<!-- virtualization__docker&#45;&gt;virtualization__docker -->
<g id="edge65" class="edge">
<title>virtualization__docker&#45;&gt;virtualization__docker</title>
<path fill="none" stroke="#a6adc8" d="M271.5,-1440.15C264,-1449.54 280.25,-1458 320.25,-1458 343.38,-1458 358.57,-1455.17 365.82,-1450.97"/>
<polygon fill="#a6adc8" stroke="#a6adc8" points="369.11,-1452.19 368.58,-1441.6 362.39,-1450.21 369.11,-1452.19"/>
</g>
<!-- virtualization__docker&#45;&gt;host__self_provide_host_ -->
<g id="edge66" class="edge">
<title>virtualization__docker&#45;&gt;host__self_provide_host_</title>
<path fill="none" stroke="#a6adc8" d="M458.47,-1417.34C636.47,-1411.11 927.16,-1400.26 950.73,-1395 1076.51,-1366.94 1213.72,-1298.91 1281.3,-1262.66"/>
<polygon fill="#a6adc8" stroke="#a6adc8" points="1282.68,-1265.89 1289.81,-1258.05 1279.35,-1259.73 1282.68,-1265.89"/>
</g>
<!-- virtualization -->
<g id="node15" class="node">
<title>virtualization</title>
<polygon fill="#89b4fa" stroke="#89b4fa" points="810.43,-1460 699.18,-1460 699.18,-1424 810.43,-1424 810.43,-1460"/>
<text text-anchor="middle" x="754.8" y="-1437.33" font-family="Times,serif" font-size="14.00" fill="#1e1e2e">virtualization</text>
</g>
<!-- virtualization__docker&#45;&gt;virtualization -->
<g id="edge73" class="edge">
<title>virtualization__docker&#45;&gt;virtualization</title>
<path fill="none" stroke="#a6adc8" d="M439.45,-1427.47C519.21,-1431.15 621.54,-1435.88 687.4,-1438.93"/>
<polygon fill="#a6adc8" stroke="#a6adc8" points="687.19,-1442.42 697.35,-1439.39 687.52,-1435.43 687.19,-1442.42"/>
</g>
<!-- host -->
<g id="node5" class="node">
<title>host</title>
<polygon fill="#89b4fa" stroke="#89b4fa" points="77.75,-1034 23.75,-1034 23.75,-998 77.75,-998 77.75,-1034"/>
<text text-anchor="middle" x="50.75" y="-1011.33" font-family="Times,serif" font-size="14.00" fill="#1e1e2e">host</text>
</g>
<!-- host&#45;&gt;web_server -->
<g id="edge39" class="edge">
<title>host&#45;&gt;web_server</title>
<path fill="none" stroke="#a6adc8" d="M78.14,-1002.36C89.97,-996.67 104.25,-990.38 117.63,-986 164.74,-970.58 219.96,-959.54 260.68,-952.66"/>
<polygon fill="#a6adc8" stroke="#a6adc8" points="261.24,-956.12 270.54,-951.04 260.1,-949.21 261.24,-956.12"/>
</g>
<!-- host&#45;&gt;host -->
<g id="edge34" class="edge">
<title>host&#45;&gt;host</title>
<path fill="none" stroke="#a6adc8" d="M23.3,-1022.63C-14.85,-1035.15 -5.7,-1052 50.75,-1052 101.25,-1052 113.9,-1038.52 88.7,-1026.71"/>
<polygon fill="#a6adc8" stroke="#a6adc8" points="90.21,-1023.54 79.62,-1023.18 87.67,-1030.06 90.21,-1023.54"/>
</g>
<!-- host__aspect_host_ -->
<g id="node6" class="node">
<title>host__aspect_host_</title>
<polygon fill="#89b4fa" stroke="#89b4fa" points="389.75,-1034 250.75,-1034 250.75,-998 389.75,-998 389.75,-1034"/>
<text text-anchor="middle" x="320.25" y="-1011.33" font-family="Times,serif" font-size="14.00" fill="#1e1e2e">host/aspect(host)</text>
</g>
<!-- host&#45;&gt;host__aspect_host_ -->
<g id="edge35" class="edge">
<title>host&#45;&gt;host__aspect_host_</title>
<path fill="none" stroke="#a6adc8" d="M77.89,-1016C114.89,-1016 184.16,-1016 239.03,-1016"/>
<polygon fill="#a6adc8" stroke="#a6adc8" points="238.99,-1019.5 248.99,-1016 238.99,-1012.5 238.99,-1019.5"/>
</g>
<!-- host__cross_provide__anon__ -->
<g id="node7" class="node">
<title>host__cross_provide__anon__</title>
<polygon fill="#cba6f7" stroke="#cba6f7" points="428.38,-1088 212.13,-1088 212.13,-1052 428.38,-1052 428.38,-1088"/>
<text text-anchor="middle" x="320.25" y="-1065.33" font-family="Times,serif" font-size="14.00" fill="#1e1e2e">host/cross&#45;provide(&lt;anon&gt;)</text>
</g>
<!-- host&#45;&gt;host__cross_provide__anon__ -->
<g id="edge36" class="edge">
<title>host&#45;&gt;host__cross_provide__anon__</title>
<path fill="none" stroke="#a6adc8" d="M78.14,-1028.63C89.97,-1033.81 104.25,-1039.43 117.63,-1043 144.09,-1050.07 173.03,-1055.33 200.51,-1059.24"/>
<polygon fill="#a6adc8" stroke="#a6adc8" points="199.9,-1062.69 210.28,-1060.57 200.84,-1055.75 199.9,-1062.69"/>
</g>
<!-- n_default -->
<g id="node16" class="node">
<title>n_default</title>
<polygon fill="#fab387" stroke="#fab387" points="353.38,-705 287.13,-705 287.13,-669 353.38,-669 353.38,-705"/>
<text text-anchor="middle" x="320.25" y="-682.33" font-family="Times,serif" font-size="14.00" fill="#1e1e2e">default</text>
</g>
<!-- host&#45;&gt;n_default -->
<g id="edge23" class="edge">
<title>host&#45;&gt;n_default</title>
<path fill="none" stroke="#a6adc8" d="M53.46,-997.87C59.17,-941.36 79.35,-769.96 117.63,-732 159.21,-690.76 229.77,-683.82 275.43,-684.21"/>
<polygon fill="#a6adc8" stroke="#a6adc8" points="275.17,-687.7 285.24,-684.42 275.32,-680.7 275.17,-687.7"/>
</g>
<!-- default__cross_provide_host_ -->
<g id="node19" class="node">
<title>default__cross_provide_host_</title>
<polygon fill="#f9e2af" stroke="#f9e2af" points="424.25,-777 216.25,-777 216.25,-741 424.25,-741 424.25,-777"/>
<text text-anchor="middle" x="320.25" y="-754.33" font-family="Times,serif" font-size="14.00" fill="#1e1e2e">default/cross&#45;provide(host)</text>
</g>
<!-- host&#45;&gt;default__cross_provide_host_ -->
<g id="edge24" class="edge">
<title>host&#45;&gt;default__cross_provide_host_</title>
<path fill="none" stroke="#a6adc8" d="M54.38,-997.75C61.88,-948.43 84.94,-814.24 117.63,-786 141.59,-765.3 173.51,-755.78 204.87,-752.16"/>
<polygon fill="#a6adc8" stroke="#a6adc8" points="204.79,-755.69 214.41,-751.26 204.13,-748.72 204.79,-755.69"/>
</g>
<!-- default__cross_provide_user_ -->
<g id="node20" class="node">
<title>default__cross_provide_user_</title>
<polygon fill="#f9e2af" stroke="#f9e2af" points="424.63,-831 215.88,-831 215.88,-795 424.63,-795 424.63,-831"/>
<text text-anchor="middle" x="320.25" y="-808.33" font-family="Times,serif" font-size="14.00" fill="#1e1e2e">default/cross&#45;provide(user)</text>
</g>
<!-- host&#45;&gt;default__cross_provide_user_ -->
<g id="edge25" class="edge">
<title>host&#45;&gt;default__cross_provide_user_</title>
<path fill="none" stroke="#a6adc8" d="M52.72,-997.54C55.7,-961.01 67.87,-879.65 117.63,-840 141.98,-820.59 173.47,-811.35 204.3,-807.57"/>
<polygon fill="#a6adc8" stroke="#a6adc8" points="204.52,-811.07 214.11,-806.58 203.81,-804.11 204.52,-811.07"/>
</g>
<!-- default__self_provide_default_ -->
<g id="node21" class="node">
<title>default__self_provide_default_</title>
<polygon fill="#fab387" stroke="#fab387" points="427.63,-885 212.88,-885 212.88,-849 427.63,-849 427.63,-885"/>
<text text-anchor="middle" x="320.25" y="-862.33" font-family="Times,serif" font-size="14.00" fill="#1e1e2e">default/self&#45;provide(default)</text>
</g>
<!-- host&#45;&gt;default__self_provide_default_ -->
<g id="edge26" class="edge">
<title>host&#45;&gt;default__self_provide_default_</title>
<path fill="none" stroke="#a6adc8" d="M59,-997.62C68.84,-975.1 88.59,-937.44 117.63,-917 142.21,-899.7 172.16,-888.36 201.37,-880.94"/>
<polygon fill="#a6adc8" stroke="#a6adc8" points="202.13,-884.36 211.05,-878.63 200.51,-877.55 202.13,-884.36"/>
</g>
<!-- hm_host -->
<g id="node25" class="node">
<title>hm_host</title>
<polygon fill="#cba6f7" stroke="#cba6f7" points="357.13,-600 283.38,-600 283.38,-564 357.13,-564 357.13,-600"/>
<text text-anchor="middle" x="320.25" y="-577.33" font-family="Times,serif" font-size="14.00" fill="#1e1e2e">hm&#45;host</text>
</g>
<!-- host&#45;&gt;hm_host -->
<g id="edge28" class="edge">
<title>host&#45;&gt;hm_host</title>
<path fill="none" stroke="#a6adc8" d="M52.74,-997.55C56.62,-931.5 72.89,-707.9 117.63,-655 156.08,-609.53 225.19,-592.38 271.63,-585.92"/>
<polygon fill="#a6adc8" stroke="#a6adc8" points="271.94,-589.41 281.42,-584.68 271.06,-582.46 271.94,-589.41"/>
</g>
<!-- hm_host__cross_provide_host_ -->
<g id="node27" class="node">
<title>hm_host__cross_provide_host_</title>
<polygon fill="#f2cdcd" stroke="#f2cdcd" points="428,-492 212.5,-492 212.5,-456 428,-456 428,-492"/>
<text text-anchor="middle" x="320.25" y="-469.32" font-family="Times,serif" font-size="14.00" fill="#1e1e2e">hm&#45;host/cross&#45;provide(host)</text>
</g>
<!-- host&#45;&gt;hm_host__cross_provide_host_ -->
<g id="edge29" class="edge">
<title>host&#45;&gt;hm_host__cross_provide_host_</title>
<path fill="none" stroke="#a6adc8" d="M52.79,-997.64C57.92,-910.01 81.76,-537.08 117.63,-501 139.47,-479.03 170.02,-468.94 200.74,-465.18"/>
<polygon fill="#a6adc8" stroke="#a6adc8" points="200.94,-468.68 210.55,-464.22 200.25,-461.71 200.94,-468.68"/>
</g>
<!-- hm_host__self_provide_hm_host_ -->
<g id="node28" class="node">
<title>hm_host__self_provide_hm_host_</title>
<polygon fill="#cba6f7" stroke="#cba6f7" points="435.13,-546 205.38,-546 205.38,-510 435.13,-510 435.13,-546"/>
<text text-anchor="middle" x="320.25" y="-523.33" font-family="Times,serif" font-size="14.00" fill="#1e1e2e">hm&#45;host/self&#45;provide(hm&#45;host)</text>
</g>
<!-- host&#45;&gt;hm_host__self_provide_hm_host_ -->
<g id="edge30" class="edge">
<title>host&#45;&gt;hm_host__self_provide_hm_host_</title>
<path fill="none" stroke="#a6adc8" d="M51.56,-997.64C51.15,-919.81 53.75,-618.32 117.63,-555 137.89,-534.92 165.44,-524.82 193.66,-520.41"/>
<polygon fill="#a6adc8" stroke="#a6adc8" points="193.95,-523.9 203.42,-519.13 193.05,-516.96 193.95,-523.9"/>
</g>
<!-- hm_user -->
<g id="node29" class="node">
<title>hm_user</title>
<polygon fill="#fab387" stroke="#fab387" points="357.5,-389 283,-389 283,-353 357.5,-353 357.5,-389"/>
<text text-anchor="middle" x="320.25" y="-366.32" font-family="Times,serif" font-size="14.00" fill="#1e1e2e">hm&#45;user</text>
</g>
<!-- host&#45;&gt;hm_user -->
<g id="edge31" class="edge">
<title>host&#45;&gt;hm_user</title>
<path fill="none" stroke="#a6adc8" d="M51.36,-997.63C49.86,-909.72 47.64,-532.51 117.63,-444 154.66,-397.16 224.45,-380.36 271.4,-374.34"/>
<polygon fill="#a6adc8" stroke="#a6adc8" points="271.77,-377.82 281.31,-373.2 270.97,-370.87 271.77,-377.82"/>
</g>
<!-- hm_user__cross_provide_hm_host_ -->
<g id="node31" class="node">
<title>hm_user__cross_provide_hm_host_</title>
<polygon fill="#a6e3a1" stroke="#a6e3a1" points="441.88,-281 198.63,-281 198.63,-245 441.88,-245 441.88,-281"/>
<text text-anchor="middle" x="320.25" y="-258.32" font-family="Times,serif" font-size="14.00" fill="#1e1e2e">hm&#45;user/cross&#45;provide(hm&#45;host)</text>
</g>
<!-- host&#45;&gt;hm_user__cross_provide_hm_host_ -->
<g id="edge32" class="edge">
<title>host&#45;&gt;hm_user__cross_provide_hm_host_</title>
<path fill="none" stroke="#a6adc8" d="M52.07,-997.74C54.14,-890.25 67.11,-342.71 117.63,-290 135.96,-270.87 160.87,-260.63 186.92,-255.72"/>
<polygon fill="#a6adc8" stroke="#a6adc8" points="187.32,-259.2 196.64,-254.17 186.22,-252.29 187.32,-259.2"/>
</g>
<!-- hm_user__self_provide_hm_user_ -->
<g id="node32" class="node">
<title>hm_user__self_provide_hm_user_</title>
<polygon fill="#fab387" stroke="#fab387" points="435.88,-335 204.63,-335 204.63,-299 435.88,-299 435.88,-335"/>
<text text-anchor="middle" x="320.25" y="-312.32" font-family="Times,serif" font-size="14.00" fill="#1e1e2e">hm&#45;user/self&#45;provide(hm&#45;user)</text>
</g>
<!-- host&#45;&gt;hm_user__self_provide_hm_user_ -->
<g id="edge33" class="edge">
<title>host&#45;&gt;hm_user__self_provide_hm_user_</title>
<path fill="none" stroke="#a6adc8" d="M52.21,-997.78C54.98,-895.19 70.87,-392.45 117.63,-344 137.44,-323.47 164.82,-313.21 193.03,-308.78"/>
<polygon fill="#a6adc8" stroke="#a6adc8" points="193.32,-312.27 202.79,-307.51 192.42,-305.33 193.32,-312.27"/>
</g>
<!-- deploy -->
<g id="node33" class="node">
<title>deploy</title>
<polygon fill="#f2cdcd" stroke="#f2cdcd" points="351.88,-178 288.63,-178 288.63,-142 351.88,-142 351.88,-178"/>
<text text-anchor="middle" x="320.25" y="-155.32" font-family="Times,serif" font-size="14.00" fill="#1e1e2e">deploy</text>
</g>
<!-- host&#45;&gt;deploy -->
<g id="edge27" class="edge">
<title>host&#45;&gt;deploy</title>
<path fill="none" stroke="#a6adc8" d="M52.13,-997.58C54.57,-885.3 69.62,-295.68 117.63,-233 155.51,-183.55 230,-167.56 277.07,-162.41"/>
<polygon fill="#a6adc8" stroke="#a6adc8" points="277.28,-165.91 286.9,-161.47 276.61,-158.94 277.28,-165.91"/>
</g>
<!-- user -->
<g id="node34" class="node">
<title>user</title>
<polygon fill="#f2cdcd" stroke="#f2cdcd" points="347.25,-52 293.25,-52 293.25,-16 347.25,-16 347.25,-52"/>
<text text-anchor="middle" x="320.25" y="-29.32" font-family="Times,serif" font-size="14.00" fill="#1e1e2e">user</text>
</g>
<!-- host&#45;&gt;user -->
<g id="edge37" class="edge">
<title>host&#45;&gt;user</title>
<path fill="none" stroke="#a6adc8" d="M51.75,-997.63C51.9,-872.76 55.46,-151.23 117.63,-79 157.98,-32.11 235.49,-27.98 281.76,-30.27"/>
<polygon fill="#a6adc8" stroke="#a6adc8" points="281.38,-33.76 291.58,-30.9 281.82,-26.77 281.38,-33.76"/>
</g>
<!-- user__cross_provide_host_ -->
<g id="node36" class="node">
<title>user__cross_provide_host_</title>
<polygon fill="#f38ba8" stroke="#f38ba8" points="414.88,-124 225.63,-124 225.63,-88 414.88,-88 414.88,-124"/>
<text text-anchor="middle" x="320.25" y="-101.33" font-family="Times,serif" font-size="14.00" fill="#1e1e2e">user/cross&#45;provide(host)</text>
</g>
<!-- host&#45;&gt;user__cross_provide_host_ -->
<g id="edge38" class="edge">
<title>host&#45;&gt;user__cross_provide_host_</title>
<path fill="none" stroke="#a6adc8" d="M51.76,-997.86C52.01,-877.63 56.13,-198.22 117.63,-133 142.06,-107.09 178.53,-97.4 213.76,-95.18"/>
<polygon fill="#a6adc8" stroke="#a6adc8" points="213.78,-98.68 223.62,-94.77 213.49,-91.69 213.78,-98.68"/>
</g>
<!-- monitoring&#45;&gt;host__self_provide_host_ -->
<g id="edge40" class="edge">
<title>monitoring&#45;&gt;host__self_provide_host_</title>
<path fill="none" stroke="#a6adc8" d="M802.28,-1256.45C894.32,-1253.37 1101.55,-1246.43 1225.28,-1242.29"/>
<polygon fill="#a6adc8" stroke="#a6adc8" points="1225.22,-1245.8 1235.1,-1241.97 1224.99,-1238.8 1225.22,-1245.8"/>
</g>
<!-- monitoring&#45;&gt;monitoring -->
<g id="edge41" class="edge">
<title>monitoring&#45;&gt;monitoring</title>
<path fill="none" stroke="#a6adc8" d="M707.17,-1265.33C649.6,-1277.77 665.48,-1294 754.8,-1294 837.85,-1294 857.42,-1279.97 813.49,-1268.01"/>
<polygon fill="#a6adc8" stroke="#a6adc8" points="814.45,-1264.64 803.91,-1265.69 812.8,-1271.44 814.45,-1264.64"/>
</g>
<!-- networking -->
<g id="node10" class="node">
<title>networking</title>
<polygon fill="#89b4fa" stroke="#89b4fa" points="803.3,-1368 706.3,-1368 706.3,-1332 803.3,-1332 803.3,-1368"/>
<text text-anchor="middle" x="754.8" y="-1345.33" font-family="Times,serif" font-size="14.00" fill="#1e1e2e">networking</text>
</g>
<!-- networking&#45;&gt;host__self_provide_host_ -->
<g id="edge46" class="edge">
<title>networking&#45;&gt;host__self_provide_host_</title>
<path fill="none" stroke="#a6adc8" d="M803.58,-1342.79C843.11,-1336.66 900.68,-1327.4 950.73,-1318 1046.7,-1299.97 1155.91,-1276.49 1231.25,-1259.83"/>
<polygon fill="#a6adc8" stroke="#a6adc8" points="1231.64,-1263.33 1240.64,-1257.75 1230.12,-1256.5 1231.64,-1263.33"/>
</g>
<!-- networking&#45;&gt;networking -->
<g id="edge47" class="edge">
<title>networking&#45;&gt;networking</title>
<path fill="none" stroke="#a6adc8" d="M705.95,-1357.6C649.83,-1370 666.11,-1386 754.8,-1386 837.09,-1386 857.05,-1372.23 814.69,-1360.34"/>
<polygon fill="#a6adc8" stroke="#a6adc8" points="815.67,-1356.98 805.12,-1357.96 813.99,-1363.77 815.67,-1356.98"/>
</g>
<!-- monitoring__nginx_exporter -->
<g id="node11" class="node">
<title>monitoring__nginx_exporter</title>
<polygon fill="#89b4fa" stroke="#f38ba8" stroke-dasharray="5,2" points="438.59,-1346 201.92,-1346 117.63,-1310 522.88,-1310 438.59,-1346"/>
<text text-anchor="middle" x="320.25" y="-1323.33" font-family="Times,serif" font-size="14.00" fill="#1e1e2e">monitoring/nginx&#45;exporter</text>
</g>
<!-- monitoring__nginx_exporter&#45;&gt;monitoring -->
<g id="edge71" class="edge">
<title>monitoring__nginx_exporter&#45;&gt;monitoring</title>
<path fill="none" stroke="#a6adc8" d="M438.28,-1309.54C466.02,-1305.13 495.5,-1300.43 522.88,-1296 581.79,-1286.48 649.13,-1275.37 695.82,-1267.64"/>
<polygon fill="#a6adc8" stroke="#a6adc8" points="696.15,-1271.13 705.44,-1266.04 695,-1264.22 696.15,-1271.13"/>
</g>
<!-- monitoring__node_exporter -->
<g id="node12" class="node">
<title>monitoring__node_exporter</title>
<polygon fill="#f2cdcd" stroke="#f2cdcd" points="435.98,-1182 204.52,-1182 122.09,-1146 518.41,-1146 435.98,-1182"/>
<text text-anchor="middle" x="320.25" y="-1159.33" font-family="Times,serif" font-size="14.00" fill="#1e1e2e">monitoring/node&#45;exporter</text>
</g>
<!-- monitoring__node_exporter&#45;&gt;host__self_provide_host_ -->
<g id="edge44" class="edge">
<title>monitoring__node_exporter&#45;&gt;host__self_provide_host_</title>
<path fill="none" stroke="#a6adc8" d="M443.55,-1179.09C480.56,-1183.34 521.34,-1187.69 558.88,-1191 797.85,-1212.06 1079.63,-1227.27 1225.37,-1234.42"/>
<polygon fill="#a6adc8" stroke="#a6adc8" points="1224.81,-1237.89 1234.97,-1234.88 1225.15,-1230.9 1224.81,-1237.89"/>
</g>
<!-- monitoring__node_exporter&#45;&gt;monitoring -->
<g id="edge70" class="edge">
<title>monitoring__node_exporter&#45;&gt;monitoring</title>
<path fill="none" stroke="#a6adc8" d="M406.19,-1182.46C491.85,-1201.07 621.73,-1229.3 696.09,-1245.46"/>
<polygon fill="#a6adc8" stroke="#a6adc8" points="695.1,-1248.82 705.62,-1247.53 696.59,-1241.98 695.1,-1248.82"/>
</g>
<!-- monitoring__node_exporter&#45;&gt;monitoring__node_exporter -->
<g id="edge45" class="edge">
<title>monitoring__node_exporter&#45;&gt;monitoring__node_exporter</title>
<path fill="none" stroke="#a6adc8" d="M271.5,-1182.15C264,-1191.54 280.25,-1200 320.25,-1200 343.38,-1200 358.57,-1197.17 365.82,-1192.97"/>
<polygon fill="#a6adc8" stroke="#a6adc8" points="369.11,-1194.19 368.58,-1183.6 362.39,-1192.21 369.11,-1194.19"/>
</g>
<!-- server&#45;&gt;monitoring__alerting -->
<g id="edge48" class="edge">
<title>server&#45;&gt;monitoring__alerting</title>
<path fill="none" stroke="#a6adc8" d="M81.92,-1284.8C115.07,-1277.98 170.09,-1266.67 218.81,-1256.65"/>
<polygon fill="#a6adc8" stroke="#a6adc8" points="219.49,-1260.08 228.58,-1254.64 218.08,-1253.23 219.49,-1260.08"/>
</g>
<!-- server&#45;&gt;backup -->
<g id="edge49" class="edge">
<title>server&#45;&gt;backup</title>
<path fill="none" stroke="#a6adc8" d="M53.31,-1272.7C57.27,-1239 71.03,-1167.75 117.63,-1137 166.67,-1104.63 573.76,-1132.29 709.76,-1142.55"/>
<polygon fill="#a6adc8" stroke="#a6adc8" points="709.2,-1146.02 719.43,-1143.29 709.73,-1139.04 709.2,-1146.02"/>
</g>
<!-- server&#45;&gt;virtualization__docker -->
<g id="edge50" class="edge">
<title>server&#45;&gt;virtualization__docker</title>
<path fill="none" stroke="#a6adc8" d="M58.56,-1309.39C68.05,-1332.28 87.57,-1370.71 117.63,-1390 132.32,-1399.43 148.83,-1406.42 165.91,-1411.55"/>
<polygon fill="#a6adc8" stroke="#a6adc8" points="164.58,-1414.81 175.15,-1414.11 166.45,-1408.07 164.58,-1414.81"/>
</g>
<!-- server&#45;&gt;host__self_provide_host_ -->
<g id="edge51" class="edge">
<title>server&#45;&gt;host__self_provide_host_</title>
<path fill="none" stroke="#a6adc8" d="M64.18,-1309.29C75.91,-1324.76 95.02,-1345.83 117.63,-1355 159.35,-1371.93 480.79,-1371 522.88,-1355 542.89,-1347.39 539.07,-1331.12 558.88,-1323 639.56,-1289.95 864.07,-1312.61 950.73,-1303 1044.54,-1292.6 1150.5,-1273.72 1225.46,-1259.16"/>
<polygon fill="#a6adc8" stroke="#a6adc8" points="1226.13,-1262.59 1235.27,-1257.24 1224.78,-1255.72 1226.13,-1262.59"/>
</g>
<!-- server&#45;&gt;monitoring -->
<g id="edge52" class="edge">
<title>server&#45;&gt;monitoring</title>
<path fill="none" stroke="#a6adc8" d="M82.1,-1291.18C157.01,-1291.43 356.69,-1291.02 522.88,-1281 581.83,-1277.44 648.98,-1270.42 695.61,-1265.07"/>
<polygon fill="#a6adc8" stroke="#a6adc8" points="695.97,-1268.55 705.5,-1263.92 695.17,-1261.59 695.97,-1268.55"/>
</g>
<!-- server&#45;&gt;networking -->
<g id="edge53" class="edge">
<title>server&#45;&gt;networking</title>
<path fill="none" stroke="#a6adc8" d="M60.88,-1309.46C71.53,-1328.65 91.1,-1357.58 117.63,-1370 218.86,-1417.4 557.41,-1377.39 694.96,-1358.52"/>
<polygon fill="#a6adc8" stroke="#a6adc8" points="695.15,-1362.03 704.57,-1357.19 694.19,-1355.1 695.15,-1362.03"/>
</g>
<!-- server&#45;&gt;monitoring__nginx_exporter -->
<g id="edge54" class="edge">
<title>server&#45;&gt;monitoring__nginx_exporter</title>
<path fill="none" stroke="#f38ba8" stroke-dasharray="5,2" d="M81.92,-1295.17C105.16,-1298.39 139.15,-1303.09 174.19,-1307.93"/>
<polygon fill="#f38ba8" stroke="#f38ba8" points="173.7,-1311.4 184.09,-1309.3 174.66,-1304.47 173.7,-1311.4"/>
</g>
<!-- server&#45;&gt;monitoring__node_exporter -->
<g id="edge55" class="edge">
<title>server&#45;&gt;monitoring__node_exporter</title>
<path fill="none" stroke="#a6adc8" d="M61.51,-1272.63C72.56,-1253.67 92.36,-1224.73 117.63,-1209 137.6,-1196.56 160.58,-1187.55 183.72,-1181.01"/>
<polygon fill="#a6adc8" stroke="#a6adc8" points="184.48,-1184.43 193.24,-1178.48 182.68,-1177.67 184.48,-1184.43"/>
</g>
<!-- server&#45;&gt;server -->
<g id="edge56" class="edge">
<title>server&#45;&gt;server</title>
<path fill="none" stroke="#a6adc8" d="M19.47,-1298.96C-14.15,-1311.31 -3.73,-1327 50.75,-1327 98.63,-1327 112.49,-1314.88 92.31,-1303.56"/>
<polygon fill="#a6adc8" stroke="#a6adc8" points="93.97,-1300.47 83.42,-1299.58 91.11,-1306.86 93.97,-1300.47"/>
</g>
<!-- tailscale -->
<g id="node14" class="node">
<title>tailscale</title>
<polygon fill="#f2cdcd" stroke="#f2cdcd" points="792.43,-1092 717.18,-1092 717.18,-1056 792.43,-1056 792.43,-1092"/>
<text text-anchor="middle" x="754.8" y="-1069.33" font-family="Times,serif" font-size="14.00" fill="#1e1e2e">tailscale</text>
</g>
<!-- server&#45;&gt;tailscale -->
<g id="edge57" class="edge">
<title>server&#45;&gt;tailscale</title>
<path fill="none" stroke="#a6adc8" d="M52.54,-1272.78C55.2,-1236.37 66.83,-1154.98 117.63,-1118 154.08,-1091.46 477.92,-1100.4 522.88,-1097 586.21,-1092.21 659.11,-1084.6 705.78,-1079.45"/>
<polygon fill="#a6adc8" stroke="#a6adc8" points="706,-1082.95 715.55,-1078.37 705.23,-1075.99 706,-1082.95"/>
</g>
<!-- server&#45;&gt;virtualization -->
<g id="edge58" class="edge">
<title>server&#45;&gt;virtualization</title>
<path fill="none" stroke="#a6adc8" d="M52.25,-1309.47C54.38,-1346.75 65.08,-1430.56 117.63,-1467 208.16,-1529.78 543.47,-1479.63 687.44,-1454.35"/>
<polygon fill="#a6adc8" stroke="#a6adc8" points="687.98,-1457.81 697.21,-1452.62 686.76,-1450.92 687.98,-1457.81"/>
</g>
<!-- tailscale&#45;&gt;host__self_provide_host_ -->
<g id="edge59" class="edge">
<title>tailscale&#45;&gt;host__self_provide_host_</title>
<path fill="none" stroke="#a6adc8" d="M792.68,-1081.54C832.05,-1089.82 896.16,-1103.95 950.73,-1119 1060.91,-1149.38 1187.12,-1191.56 1260.88,-1216.97"/>
<polygon fill="#a6adc8" stroke="#a6adc8" points="1259.35,-1220.15 1269.94,-1220.1 1261.63,-1213.53 1259.35,-1220.15"/>
</g>
<!-- tailscale&#45;&gt;tailscale -->
<g id="edge60" class="edge">
<title>tailscale&#45;&gt;tailscale</title>
<path fill="none" stroke="#a6adc8" d="M716.8,-1079.42C648.14,-1092.03 660.81,-1110 754.8,-1110 843.29,-1110 859.71,-1094.08 804.04,-1081.69"/>
<polygon fill="#a6adc8" stroke="#a6adc8" points="804.79,-1078.27 794.29,-1079.72 803.4,-1085.13 804.79,-1078.27"/>
</g>
<!-- virtualization&#45;&gt;host__self_provide_host_ -->
<g id="edge63" class="edge">
<title>virtualization&#45;&gt;host__self_provide_host_</title>
<path fill="none" stroke="#a6adc8" d="M810.89,-1436.93C850.43,-1432.33 904.65,-1424.07 950.73,-1410 1076.15,-1371.72 1214.05,-1300.09 1281.66,-1262.86"/>
<polygon fill="#a6adc8" stroke="#a6adc8" points="1283.13,-1266.04 1290.18,-1258.14 1279.73,-1259.92 1283.13,-1266.04"/>
</g>
<!-- virtualization&#45;&gt;virtualization -->
<g id="edge64" class="edge">
<title>virtualization&#45;&gt;virtualization</title>
<path fill="none" stroke="#a6adc8" d="M698.75,-1451.31C651.46,-1463.42 670.14,-1478 754.8,-1478 832.19,-1478 854.45,-1465.82 821.59,-1454.48"/>
<polygon fill="#a6adc8" stroke="#a6adc8" points="822.89,-1451.21 812.31,-1451.74 820.91,-1457.93 822.89,-1451.21"/>
</g>
<!-- n_default&#45;&gt;n_default -->
<g id="edge3" class="edge">
<title>n_default&#45;&gt;n_default</title>
<path fill="none" stroke="#a6adc8" d="M287.07,-695.68C255.76,-707.91 266.83,-723 320.25,-723 366.58,-723 381.05,-711.65 363.67,-700.66"/>
<polygon fill="#a6adc8" stroke="#a6adc8" points="365.32,-697.57 354.8,-696.34 362.25,-703.86 365.32,-697.57"/>
</g>
<!-- default__aspect_default_ -->
<g id="node17" class="node">
<title>default__aspect_default_</title>
<polygon fill="#a6e3a1" stroke="#a6e3a1" points="1413.77,-732 1235.77,-732 1235.77,-696 1413.77,-696 1413.77,-732"/>
<text text-anchor="middle" x="1324.77" y="-709.33" font-family="Times,serif" font-size="14.00" fill="#1e1e2e">default/aspect(default)</text>
</g>
<!-- n_default&#45;&gt;default__aspect_default_ -->
<g id="edge4" class="edge">
<title>n_default&#45;&gt;default__aspect_default_</title>
<path fill="none" stroke="#a6adc8" d="M353.53,-685.39C399.22,-683.2 485.4,-679.39 558.88,-678 733,-674.7 776.78,-669.63 950.73,-678 1043.61,-682.47 1149.05,-693.17 1224.07,-701.75"/>
<polygon fill="#a6adc8" stroke="#a6adc8" points="1223.54,-705.21 1233.88,-702.88 1224.35,-698.26 1223.54,-705.21"/>
</g>
<!-- den__provides__define_user -->
<g id="node22" class="node">
<title>den__provides__define_user</title>
<polygon fill="#a6e3a1" stroke="#a6e3a1" points="848.37,-723 661.24,-723 594.59,-687 915.02,-687 848.37,-723"/>
<text text-anchor="middle" x="754.8" y="-700.33" font-family="Times,serif" font-size="14.00" fill="#1e1e2e">provides/define&#45;user</text>
</g>
<!-- n_default&#45;&gt;den__provides__define_user -->
<g id="edge5" class="edge">
<title>n_default&#45;&gt;den__provides__define_user</title>
<path fill="none" stroke="#a6adc8" d="M353.76,-688.35C406.76,-690.56 514.96,-695.06 605.48,-698.83"/>
<polygon fill="#a6adc8" stroke="#a6adc8" points="605.06,-702.31 615.19,-699.23 605.35,-695.32 605.06,-702.31"/>
</g>
<!-- den__provides__hostname -->
<g id="node23" class="node">
<title>den__provides__hostname</title>
<polygon fill="#fab387" stroke="#fab387" points="842.72,-795 666.89,-795 604.26,-759 905.35,-759 842.72,-795"/>
<text text-anchor="middle" x="754.8" y="-772.33" font-family="Times,serif" font-size="14.00" fill="#1e1e2e">provides/hostname</text>
</g>
<!-- n_default&#45;&gt;den__provides__hostname -->
<g id="edge6" class="edge">
<title>n_default&#45;&gt;den__provides__hostname</title>
<path fill="none" stroke="#a6adc8" d="M353.71,-691.74C394.13,-698.2 464.92,-711.39 522.88,-732 539.73,-737.99 541.79,-744.7 558.88,-750 571.43,-753.89 584.62,-757.23 597.96,-760.08"/>
<polygon fill="#a6adc8" stroke="#a6adc8" points="597.21,-763.5 607.71,-762.06 598.61,-756.64 597.21,-763.5"/>
</g>
<!-- den__provides__mutual_provider -->
<g id="node24" class="node">
<title>den__provides__mutual_provider</title>
<polygon fill="#f9e2af" stroke="#f9e2af" points="869.23,-867 640.38,-867 558.88,-831 950.73,-831 869.23,-867"/>
<text text-anchor="middle" x="754.8" y="-844.33" font-family="Times,serif" font-size="14.00" fill="#1e1e2e">provides/mutual&#45;provider</text>
</g>
<!-- n_default&#45;&gt;den__provides__mutual_provider -->
<g id="edge7" class="edge">
<title>n_default&#45;&gt;den__provides__mutual_provider</title>
<path fill="none" stroke="#a6adc8" d="M353.56,-685.46C397.09,-685.13 474.66,-690.98 522.88,-732 555.69,-759.92 524.95,-795.45 558.88,-822 559.89,-822.79 560.91,-823.56 561.94,-824.32"/>
<polygon fill="#a6adc8" stroke="#a6adc8" points="560,-827.23 570.27,-829.83 563.86,-821.39 560,-827.23"/>
</g>
<!-- den__provides__default__aspect_default__den__provides -->
<g id="node18" class="node">
<title>den__provides__default__aspect_default__den__provides</title>
<polygon fill="#a6e3a1" stroke="#a6e3a1" points="1522.19,-795 1127.35,-795 986.73,-759 1662.81,-759 1522.19,-795"/>
<text text-anchor="middle" x="1324.77" y="-772.33" font-family="Times,serif" font-size="14.00" fill="#1e1e2e">provides/default/aspect(default):den/provides</text>
</g>
<!-- den__provides__define_user&#45;&gt;default__aspect_default_ -->
<g id="edge8" class="edge">
<title>den__provides__define_user&#45;&gt;default__aspect_default_</title>
<path fill="none" stroke="#a6adc8" d="M879.05,-706.95C982.35,-708.59 1127.96,-710.9 1224.05,-712.42"/>
<polygon fill="#a6adc8" stroke="#a6adc8" points="1223.95,-715.92 1234,-712.58 1224.06,-708.92 1223.95,-715.92"/>
</g>
<!-- den__provides__define_user&#45;&gt;den__provides__default__aspect_default__den__provides -->
<g id="edge9" class="edge">
<title>den__provides__define_user&#45;&gt;den__provides__default__aspect_default__den__provides</title>
<path fill="none" stroke="#a6adc8" d="M852.56,-721.15C893.84,-727.76 942.58,-735.2 986.73,-741 1031.11,-746.83 1078.86,-752.37 1124.08,-757.28"/>
<polygon fill="#a6adc8" stroke="#a6adc8" points="1123.69,-760.76 1134.01,-758.35 1124.44,-753.8 1123.69,-760.76"/>
</g>
<!-- den__provides__define_user&#45;&gt;den__provides__define_user -->
<g id="edge10" class="edge">
<title>den__provides__define_user&#45;&gt;den__provides__define_user</title>
<path fill="none" stroke="#a6adc8" d="M676.19,-723.15C664.1,-732.54 690.3,-741 754.8,-741 793.1,-741 817.9,-738.02 829.2,-733.63"/>
<polygon fill="#a6adc8" stroke="#a6adc8" points="832.36,-735.14 832.85,-724.56 825.87,-732.52 832.36,-735.14"/>
</g>
<!-- den__provides__hostname&#45;&gt;default__aspect_default_ -->
<g id="edge11" class="edge">
<title>den__provides__hostname&#45;&gt;default__aspect_default_</title>
<path fill="none" stroke="#a6adc8" d="M905.78,-759.24C932.72,-756.12 960.56,-752.93 986.73,-750 1066.48,-741.08 1156.9,-731.45 1223.99,-724.39"/>
<polygon fill="#a6adc8" stroke="#a6adc8" points="1224.31,-727.88 1233.89,-723.35 1223.58,-720.92 1224.31,-727.88"/>
</g>
<!-- den__provides__hostname&#45;&gt;den__provides__default__aspect_default__den__provides -->
<g id="edge12" class="edge">
<title>den__provides__hostname&#45;&gt;den__provides__default__aspect_default__den__provides</title>
<path fill="none" stroke="#a6adc8" d="M874.87,-777C924.37,-777 984.11,-777 1043.63,-777"/>
<polygon fill="#a6adc8" stroke="#a6adc8" points="1043.61,-780.5 1053.61,-777 1043.61,-773.5 1043.61,-780.5"/>
</g>
<!-- den__provides__hostname&#45;&gt;den__provides__hostname -->
<g id="edge13" class="edge">
<title>den__provides__hostname&#45;&gt;den__provides__hostname</title>
<path fill="none" stroke="#a6adc8" d="M676.19,-795.15C664.1,-804.54 690.3,-813 754.8,-813 793.1,-813 817.9,-810.02 829.2,-805.63"/>
<polygon fill="#a6adc8" stroke="#a6adc8" points="832.36,-807.14 832.85,-796.56 825.87,-804.52 832.36,-807.14"/>
</g>
<!-- den__provides__mutual_provider&#45;&gt;default__aspect_default_ -->
<g id="edge14" class="edge">
<title>den__provides__mutual_provider&#45;&gt;default__aspect_default_</title>
<path fill="none" stroke="#a6adc8" d="M936.83,-830.71C941.64,-828.08 946.29,-825.19 950.73,-822 979.8,-801.14 957.34,-770.4 986.73,-750 1055.56,-702.22 1152.09,-696.45 1224.21,-700.75"/>
<polygon fill="#a6adc8" stroke="#a6adc8" points="1223.84,-704.23 1234.06,-701.41 1224.32,-697.25 1223.84,-704.23"/>
</g>
<!-- den__provides__mutual_provider&#45;&gt;den__provides__default__aspect_default__den__provides -->
<g id="edge15" class="edge">
<title>den__provides__mutual_provider&#45;&gt;den__provides__default__aspect_default__den__provides</title>
<path fill="none" stroke="#a6adc8" d="M901.7,-830.5C982.93,-820.21 1084.08,-807.38 1167,-796.87"/>
<polygon fill="#a6adc8" stroke="#a6adc8" points="1167.33,-800.36 1176.81,-795.63 1166.45,-793.42 1167.33,-800.36"/>
</g>
<!-- den__provides__mutual_provider&#45;&gt;den__provides__mutual_provider -->
<g id="edge16" class="edge">
<title>den__provides__mutual_provider&#45;&gt;den__provides__mutual_provider</title>
<path fill="none" stroke="#a6adc8" d="M676.19,-867.15C664.1,-876.54 690.3,-885 754.8,-885 793.1,-885 817.9,-882.02 829.2,-877.63"/>
<polygon fill="#a6adc8" stroke="#a6adc8" points="832.36,-879.14 832.85,-868.56 825.87,-876.52 832.36,-879.14"/>
</g>
<!-- hm_host&#45;&gt;hm_host -->
<g id="edge19" class="edge">
<title>hm_host&#45;&gt;hm_host</title>
<path fill="none" stroke="#a6adc8" d="M283.16,-592.32C256.83,-604.22 269.19,-618 320.25,-618 362.93,-618 378.58,-608.37 367.18,-598.26"/>
<polygon fill="#a6adc8" stroke="#a6adc8" points="369.01,-595.28 358.64,-593.1 365.39,-601.27 369.01,-595.28"/>
</g>
<!-- hm_host__aspect_hm_host_ -->
<g id="node26" class="node">
<title>hm_host__aspect_hm_host_</title>
<polygon fill="#89b4fa" stroke="#89b4fa" points="851.3,-600 658.3,-600 658.3,-564 851.3,-564 851.3,-600"/>
<text text-anchor="middle" x="754.8" y="-577.33" font-family="Times,serif" font-size="14.00" fill="#1e1e2e">hm&#45;host/aspect(hm&#45;host)</text>
</g>
<!-- hm_host&#45;&gt;hm_host__aspect_hm_host_ -->
<g id="edge20" class="edge">
<title>hm_host&#45;&gt;hm_host__aspect_hm_host_</title>
<path fill="none" stroke="#a6adc8" d="M357.39,-582C420.31,-582 552.29,-582 646.68,-582"/>
<polygon fill="#a6adc8" stroke="#a6adc8" points="646.49,-585.5 656.49,-582 646.49,-578.5 646.49,-585.5"/>
</g>
<!-- hm_user&#45;&gt;hm_user -->
<g id="edge21" class="edge">
<title>hm_user&#45;&gt;hm_user</title>
<path fill="none" stroke="#a6adc8" d="M282.75,-381.5C256.96,-393.36 269.46,-407 320.25,-407 362.71,-407 378.41,-397.47 367.36,-387.41"/>
<polygon fill="#a6adc8" stroke="#a6adc8" points="369.39,-384.56 359.04,-382.3 365.72,-390.52 369.39,-384.56"/>
</g>
<!-- hm_user__aspect_hm_user_ -->
<g id="node30" class="node">
<title>hm_user__aspect_hm_user_</title>
<polygon fill="#a6e3a1" stroke="#a6e3a1" points="852.05,-389 657.55,-389 657.55,-353 852.05,-353 852.05,-389"/>
<text text-anchor="middle" x="754.8" y="-366.32" font-family="Times,serif" font-size="14.00" fill="#1e1e2e">hm&#45;user/aspect(hm&#45;user)</text>
</g>
<!-- hm_user&#45;&gt;hm_user__aspect_hm_user_ -->
<g id="edge22" class="edge">
<title>hm_user&#45;&gt;hm_user__aspect_hm_user_</title>
<path fill="none" stroke="#a6adc8" d="M357.76,-371C420.68,-371 551.87,-371 646.03,-371"/>
<polygon fill="#a6adc8" stroke="#a6adc8" points="645.8,-374.5 655.8,-371 645.8,-367.5 645.8,-374.5"/>
</g>
<!-- deploy&#45;&gt;deploy -->
<g id="edge17" class="edge">
<title>deploy&#45;&gt;deploy</title>
<path fill="none" stroke="#a6adc8" d="M288.48,-168.14C255.45,-180.46 266.04,-196 320.25,-196 367.69,-196 381.73,-184.1 362.36,-172.87"/>
<polygon fill="#a6adc8" stroke="#a6adc8" points="363.94,-169.75 353.39,-168.77 361.03,-176.11 363.94,-169.75"/>
</g>
<!-- user__self_provide_user_ -->
<g id="node37" class="node">
<title>user__self_provide_user_</title>
<polygon fill="#f2cdcd" stroke="#f2cdcd" points="843.43,-178 666.18,-178 666.18,-142 843.43,-142 843.43,-178"/>
<text text-anchor="middle" x="754.8" y="-155.32" font-family="Times,serif" font-size="14.00" fill="#1e1e2e">user/self&#45;provide(user)</text>
</g>
<!-- deploy&#45;&gt;user__self_provide_user_ -->
<g id="edge18" class="edge">
<title>deploy&#45;&gt;user__self_provide_user_</title>
<path fill="none" stroke="#a6adc8" d="M352.36,-160C414.69,-160 557.22,-160 654.54,-160"/>
<polygon fill="#a6adc8" stroke="#a6adc8" points="654.36,-163.5 664.36,-160 654.36,-156.5 654.36,-163.5"/>
</g>
<!-- user&#45;&gt;user -->
<g id="edge61" class="edge">
<title>user&#45;&gt;user</title>
<path fill="none" stroke="#a6adc8" d="M292.8,-40.63C254.65,-53.15 263.8,-70 320.25,-70 370.75,-70 383.4,-56.52 358.2,-44.71"/>
<polygon fill="#a6adc8" stroke="#a6adc8" points="359.71,-41.54 349.12,-41.18 357.17,-48.06 359.71,-41.54"/>
</g>
<!-- user__aspect_user_ -->
<g id="node35" class="node">
<title>user__aspect_user_</title>
<polygon fill="#fab387" stroke="#fab387" points="825.05,-52 684.55,-52 684.55,-16 825.05,-16 825.05,-52"/>
<text text-anchor="middle" x="754.8" y="-29.32" font-family="Times,serif" font-size="14.00" fill="#1e1e2e">user/aspect(user)</text>
</g>
<!-- user&#45;&gt;user__aspect_user_ -->
<g id="edge62" class="edge">
<title>user&#45;&gt;user__aspect_user_</title>
<path fill="none" stroke="#a6adc8" d="M347.66,-34C411,-34 573.66,-34 672.84,-34"/>
<polygon fill="#a6adc8" stroke="#a6adc8" points="672.8,-37.5 682.8,-34 672.8,-30.5 672.8,-37.5"/>
</g>
</g>
</svg>
