<?xml version="1.0" encoding="UTF-8" standalone="no"?>
<!DOCTYPE svg PUBLIC "-//W3C//DTD SVG 1.1//EN"
 "http://www.w3.org/Graphics/SVG/1.1/DTD/svg11.dtd">
<!-- Generated by graphviz version 12.2.1 (0)
 -->
<!-- Pages: 1 -->
<svg width="2785pt" height="1275pt"
 viewBox="0.00 0.00 2784.79 1274.81" xmlns="http://www.w3.org/2000/svg" xmlns:xlink="http://www.w3.org/1999/xlink">
<g id="graph0" class="graph" transform="scale(1 1) rotate(0) translate(4 1270.81)">
<polygon fill="#1e1e2e" stroke="none" points="-4,4 -4,-1270.81 2780.79,-1270.81 2780.79,4 -4,4"/>
<g id="clust1" class="cluster">
<title>cluster_ctx_host</title>
<polygon fill="#313244" stroke="#6c7086" stroke-dasharray="5,2" points="8,-857.73 8,-1256.73 2593.2,-1256.73 2593.2,-857.73 8,-857.73"/>
<text text-anchor="middle" x="1300.6" y="-1239.43" font-family="Times,serif" font-size="14.00" fill="#cdd6f4">host</text>
</g>
<g id="clust2" class="cluster">
<title>cluster_ctx_default</title>
<polygon fill="#313244" stroke="#6c7086" stroke-dasharray="5,2" points="353.28,-566.73 353.28,-805.73 2768.79,-805.73 2768.79,-566.73 353.28,-566.73"/>
<text text-anchor="middle" x="1561.03" y="-788.43" font-family="Times,serif" font-size="14.00" fill="#cdd6f4">default</text>
</g>
<g id="clust3" class="cluster">
<title>cluster_ctx_hm_host</title>
<polygon fill="#313244" stroke="#6c7086" stroke-dasharray="5,2" points="604.78,-373.73 604.78,-558.73 1133.57,-558.73 1133.57,-373.73 604.78,-373.73"/>
<text text-anchor="middle" x="869.17" y="-541.43" font-family="Times,serif" font-size="14.00" fill="#cdd6f4">hm&#45;host</text>
</g>
<g id="clust4" class="cluster">
<title>cluster_ctx_hm_user</title>
<polygon fill="#313244" stroke="#6c7086" stroke-dasharray="5,2" points="899.44,-180.73 899.44,-365.73 1523.48,-365.73 1523.48,-180.73 899.44,-180.73"/>
<text text-anchor="middle" x="1211.46" y="-348.43" font-family="Times,serif" font-size="14.00" fill="#cdd6f4">hm&#45;user</text>
</g>
<g id="clust5" class="cluster">
<title>cluster_ctx_user</title>
<polygon fill="#313244" stroke="#6c7086" stroke-dasharray="5,2" points="1315.61,-41.73 1315.61,-172.73 2519.38,-172.73 2519.38,-41.73 1315.61,-41.73"/>
<text text-anchor="middle" x="1917.49" y="-155.43" font-family="Times,serif" font-size="14.00" fill="#cdd6f4">user</text>
</g>
<!-- web_server -->
<g id="node1" class="node">
<title>web_server</title>
<path fill="#89b4fa" stroke="#89b4fa" d="M763.4,-849.73C763.4,-849.73 691.9,-849.73 691.9,-849.73 685.9,-849.73 679.9,-843.73 679.9,-837.73 679.9,-837.73 679.9,-825.73 679.9,-825.73 679.9,-819.73 685.9,-813.73 691.9,-813.73 691.9,-813.73 763.4,-813.73 763.4,-813.73 769.4,-813.73 775.4,-819.73 775.4,-825.73 775.4,-825.73 775.4,-837.73 775.4,-837.73 775.4,-843.73 769.4,-849.73 763.4,-849.73"/>
<text text-anchor="middle" x="727.65" y="-827.05" font-family="Times,serif" font-size="14.00" fill="#1e1e2e">web&#45;server</text>
</g>
<!-- host__self_provide_host_ -->
<g id="node8" class="node">
<title>host__self_provide_host_</title>
<polygon fill="#f2cdcd" stroke="#f2cdcd" points="556.53,-1071.73 380.78,-1071.73 380.78,-1035.73 556.53,-1035.73 556.53,-1071.73"/>
<text text-anchor="middle" x="468.65" y="-1049.05" font-family="Times,serif" font-size="14.00" fill="#1e1e2e">host/self&#45;provide(host)</text>
</g>
<!-- web_server&#45;&gt;host__self_provide_host_ -->
<g id="edge76" class="edge">
<title>web_server&#45;&gt;host__self_provide_host_</title>
<path fill="none" stroke="#a6adc8" d="M679.6,-828.68C654.41,-829.62 624.58,-835.24 604.78,-853.73 567.59,-888.45 603.9,-921.68 576.78,-964.73 560.19,-991.04 533.23,-1013.38 510.51,-1029.09"/>
<polygon fill="#a6adc8" stroke="#a6adc8" points="508.69,-1026.1 502.33,-1034.57 512.58,-1031.92 508.69,-1026.1"/>
</g>
<!-- server -->
<g id="node13" class="node">
<title>server</title>
<polygon fill="#89b4fa" stroke="#89b4fa" points="1059.94,-1060.73 998.19,-1060.73 998.19,-1024.73 1059.94,-1024.73 1059.94,-1060.73"/>
<text text-anchor="middle" x="1029.07" y="-1038.05" font-family="Times,serif" font-size="14.00" fill="#1e1e2e">server</text>
</g>
<!-- web_server&#45;&gt;server -->
<g id="edge77" class="edge">
<title>web_server&#45;&gt;server</title>
<path fill="none" stroke="#a6adc8" d="M775.67,-842.61C797.07,-846.22 822.12,-851.77 842.53,-862.73 913.41,-900.78 974.07,-975.11 1005.37,-1015.47"/>
<polygon fill="#a6adc8" stroke="#a6adc8" points="1002.52,-1017.51 1011.4,-1023.29 1008.07,-1013.24 1002.52,-1017.51"/>
</g>
<!-- monitoring__alerting -->
<g id="node2" class="node">
<title>monitoring__alerting</title>
<polygon fill="#cba6f7" stroke="#cba6f7" points="260.35,-1041.73 80.17,-1041.73 16,-1005.73 324.53,-1005.73 260.35,-1041.73"/>
<text text-anchor="middle" x="170.26" y="-1019.05" font-family="Times,serif" font-size="14.00" fill="#1e1e2e">monitoring/alerting</text>
</g>
<!-- monitoring__alerting&#45;&gt;host__self_provide_host_ -->
<g id="edge50" class="edge">
<title>monitoring__alerting&#45;&gt;host__self_provide_host_</title>
<path fill="none" stroke="#a6adc8" d="M274.51,-1034.18C305.31,-1037.29 338.97,-1040.7 369.44,-1043.79"/>
<polygon fill="#a6adc8" stroke="#a6adc8" points="368.7,-1047.23 379,-1044.75 369.41,-1040.26 368.7,-1047.23"/>
</g>
<!-- monitoring -->
<g id="node9" class="node">
<title>monitoring</title>
<polygon fill="#89b4fa" stroke="#89b4fa" points="1900.16,-941.73 1805.41,-941.73 1805.41,-905.73 1900.16,-905.73 1900.16,-941.73"/>
<text text-anchor="middle" x="1852.79" y="-919.05" font-family="Times,serif" font-size="14.00" fill="#1e1e2e">monitoring</text>
</g>
<!-- monitoring__alerting&#45;&gt;monitoring -->
<g id="edge80" class="edge">
<title>monitoring__alerting&#45;&gt;monitoring</title>
<path fill="none" stroke="#a6adc8" d="M319.03,-1009.37C396.5,-1000.06 492.55,-985.67 576.78,-964.73 589.6,-961.54 592.07,-958.35 604.78,-954.73 724.47,-920.61 755.04,-911.29 878.53,-895.73 1205.91,-854.45 1292.16,-853.77 1620.86,-882.73 1680.44,-887.97 1747.68,-900.7 1794.17,-910.59"/>
<polygon fill="#a6adc8" stroke="#a6adc8" points="1793.23,-913.97 1803.75,-912.66 1794.71,-907.13 1793.23,-913.97"/>
</g>
<!-- tailscale -->
<g id="node14" class="node">
<title>tailscale</title>
<polygon fill="#f2cdcd" stroke="#f2cdcd" points="1455.86,-1203.73 1380.61,-1203.73 1380.61,-1167.73 1455.86,-1167.73 1455.86,-1203.73"/>
<text text-anchor="middle" x="1418.23" y="-1181.05" font-family="Times,serif" font-size="14.00" fill="#1e1e2e">tailscale</text>
</g>
<!-- monitoring__alerting&#45;&gt;tailscale -->
<g id="edge51" class="edge">
<title>monitoring__alerting&#45;&gt;tailscale</title>
<path fill="none" stroke="#a6adc8" d="M213.63,-1042.1C290.08,-1074.3 456.91,-1140.2 604.78,-1168.73 890.24,-1223.8 1242.56,-1201.22 1369.14,-1190.32"/>
<polygon fill="#a6adc8" stroke="#a6adc8" points="1369.17,-1193.84 1378.82,-1189.47 1368.55,-1186.86 1369.17,-1193.84"/>
</g>
<!-- backup -->
<g id="node3" class="node">
<title>backup</title>
<polygon fill="#89b4fa" stroke="#89b4fa" points="761.15,-1089.73 694.15,-1089.73 694.15,-1053.73 761.15,-1053.73 761.15,-1089.73"/>
<text text-anchor="middle" x="727.65" y="-1067.05" font-family="Times,serif" font-size="14.00" fill="#1e1e2e">backup</text>
</g>
<!-- backup&#45;&gt;host__self_provide_host_ -->
<g id="edge1" class="edge">
<title>backup&#45;&gt;host__self_provide_host_</title>
<path fill="none" stroke="#a6adc8" d="M693.9,-1074.12C662.32,-1073.67 612.9,-1070.84 568.49,-1067.24"/>
<polygon fill="#a6adc8" stroke="#a6adc8" points="568.78,-1063.75 558.53,-1066.4 568.2,-1070.72 568.78,-1063.75"/>
</g>
<!-- backup&#45;&gt;server -->
<g id="edge2" class="edge">
<title>backup&#45;&gt;server</title>
<path fill="none" stroke="#a6adc8" d="M761.55,-1064.12C816.38,-1055.85 926.35,-1045.06 986.48,-1041.91"/>
<polygon fill="#a6adc8" stroke="#a6adc8" points="986.46,-1045.42 996.29,-1041.46 986.14,-1038.42 986.46,-1045.42"/>
</g>
<!-- virtualization__docker -->
<g id="node4" class="node">
<title>virtualization__docker</title>
<polygon fill="#cba6f7" stroke="#cba6f7" points="2517.63,-1166.73 2327.88,-1166.73 2260.31,-1130.73 2585.2,-1130.73 2517.63,-1166.73"/>
<text text-anchor="middle" x="2422.75" y="-1144.05" font-family="Times,serif" font-size="14.00" fill="#1e1e2e">virtualization/docker</text>
</g>
<!-- virtualization__docker&#45;&gt;backup -->
<g id="edge74" class="edge">
<title>virtualization__docker&#45;&gt;backup</title>
<path fill="none" stroke="#a6adc8" d="M2283.8,-1143.63C2059.69,-1135.22 1602.62,-1117.48 1215.61,-1098.73 1052.25,-1090.81 858.17,-1079.47 772.73,-1074.38"/>
<polygon fill="#a6adc8" stroke="#a6adc8" points="773.12,-1070.89 762.93,-1073.79 772.7,-1077.88 773.12,-1070.89"/>
</g>
<!-- virtualization__docker&#45;&gt;host__self_provide_host_ -->
<g id="edge75" class="edge">
<title>virtualization__docker&#45;&gt;host__self_provide_host_</title>
<path fill="none" stroke="#a6adc8" d="M2293.17,-1148.73C2102.41,-1148.73 1733.17,-1148.73 1419.23,-1148.73 1028.07,-1148.73 1028.07,-1148.73 1028.07,-1148.73 933.68,-1148.73 693.01,-1147.24 604.78,-1113.73 590.23,-1108.2 590.45,-1100.13 576.78,-1092.73 565.47,-1086.6 553,-1081.08 540.69,-1076.24"/>
<polygon fill="#a6adc8" stroke="#a6adc8" points="541.95,-1072.97 531.36,-1072.7 539.47,-1079.52 541.95,-1072.97"/>
</g>
<!-- virtualization -->
<g id="node15" class="node">
<title>virtualization</title>
<polygon fill="#89b4fa" stroke="#89b4fa" points="1908.41,-1203.73 1797.16,-1203.73 1797.16,-1167.73 1908.41,-1167.73 1908.41,-1203.73"/>
<text text-anchor="middle" x="1852.79" y="-1181.05" font-family="Times,serif" font-size="14.00" fill="#1e1e2e">virtualization</text>
</g>
<!-- virtualization__docker&#45;&gt;virtualization -->
<g id="edge81" class="edge">
<title>virtualization__docker&#45;&gt;virtualization</title>
<path fill="none" stroke="#a6adc8" d="M2316.08,-1161C2200.14,-1170.62 2017.6,-1182.22 1920.21,-1185.93"/>
<polygon fill="#a6adc8" stroke="#a6adc8" points="1920.14,-1182.43 1910.28,-1186.29 1920.39,-1189.42 1920.14,-1182.43"/>
</g>
<!-- host -->
<g id="node5" class="node">
<title>host</title>
<polygon fill="#89b4fa" stroke="#89b4fa" points="197.26,-901.73 143.26,-901.73 143.26,-865.73 197.26,-865.73 197.26,-901.73"/>
<text text-anchor="middle" x="170.26" y="-879.05" font-family="Times,serif" font-size="14.00" fill="#1e1e2e">host</text>
</g>
<!-- host&#45;&gt;web_server -->
<g id="edge43" class="edge">
<title>host&#45;&gt;web_server</title>
<path fill="none" stroke="#a6adc8" d="M197.7,-879.12C233.05,-873.12 297.69,-862.7 353.28,-856.73 464.41,-844.78 594.8,-837.6 668.38,-834.18"/>
<polygon fill="#a6adc8" stroke="#a6adc8" points="668.34,-837.68 678.17,-833.73 668.02,-830.69 668.34,-837.68"/>
</g>
<!-- host&#45;&gt;host -->
<g id="edge38" class="edge">
<title>host&#45;&gt;host</title>
<path fill="none" stroke="#a6adc8" d="M142.9,-889.49C97.18,-902.08 106.3,-919.73 170.26,-919.73 228.73,-919.73 241.37,-904.98 208.19,-892.83"/>
<polygon fill="#a6adc8" stroke="#a6adc8" points="209.65,-889.62 199.06,-889.94 207.54,-896.3 209.65,-889.62"/>
</g>
<!-- host__aspect_host_ -->
<g id="node6" class="node">
<title>host__aspect_host_</title>
<polygon fill="#89b4fa" stroke="#89b4fa" points="538.15,-901.73 399.15,-901.73 399.15,-865.73 538.15,-865.73 538.15,-901.73"/>
<text text-anchor="middle" x="468.65" y="-879.05" font-family="Times,serif" font-size="14.00" fill="#1e1e2e">host/aspect(host)</text>
</g>
<!-- host&#45;&gt;host__aspect_host_ -->
<g id="edge39" class="edge">
<title>host&#45;&gt;host__aspect_host_</title>
<path fill="none" stroke="#a6adc8" d="M197.57,-879.68C239.8,-876.97 324.41,-876.3 387.73,-877.66"/>
<polygon fill="#a6adc8" stroke="#a6adc8" points="387.3,-881.15 397.38,-877.89 387.47,-874.15 387.3,-881.15"/>
</g>
<!-- host__cross_provide__anon__ -->
<g id="node7" class="node">
<title>host__cross_provide__anon__</title>
<polygon fill="#cba6f7" stroke="#cba6f7" points="576.78,-955.73 360.53,-955.73 360.53,-919.73 576.78,-919.73 576.78,-955.73"/>
<text text-anchor="middle" x="468.65" y="-933.05" font-family="Times,serif" font-size="14.00" fill="#1e1e2e">host/cross&#45;provide(&lt;anon&gt;)</text>
</g>
<!-- host&#45;&gt;host__cross_provide__anon__ -->
<g id="edge40" class="edge">
<title>host&#45;&gt;host__cross_provide__anon__</title>
<path fill="none" stroke="#a6adc8" d="M197.57,-888.52C232.9,-894.96 297.91,-906.8 355.29,-917.25"/>
<polygon fill="#a6adc8" stroke="#a6adc8" points="354.32,-920.64 364.79,-918.99 355.58,-913.75 354.32,-920.64"/>
</g>
<!-- n_default -->
<g id="node16" class="node">
<title>n_default</title>
<polygon fill="#fab387" stroke="#fab387" points="501.78,-664.73 435.53,-664.73 435.53,-628.73 501.78,-628.73 501.78,-664.73"/>
<text text-anchor="middle" x="468.65" y="-642.05" font-family="Times,serif" font-size="14.00" fill="#1e1e2e">default</text>
</g>
<!-- host&#45;&gt;n_default -->
<g id="edge27" class="edge">
<title>host&#45;&gt;n_default</title>
<path fill="none" stroke="#a6adc8" d="M181.55,-865.46C205.74,-824.26 270.52,-723.81 353.28,-673.73 374.53,-660.86 401.44,-654.13 423.82,-650.6"/>
<polygon fill="#a6adc8" stroke="#a6adc8" points="424.14,-654.09 433.56,-649.24 423.17,-647.16 424.14,-654.09"/>
</g>
<!-- default__cross_provide_host_ -->
<g id="node19" class="node">
<title>default__cross_provide_host_</title>
<polygon fill="#f9e2af" stroke="#f9e2af" points="572.65,-610.73 364.65,-610.73 364.65,-574.73 572.65,-574.73 572.65,-610.73"/>
<text text-anchor="middle" x="468.65" y="-588.05" font-family="Times,serif" font-size="14.00" fill="#1e1e2e">default/cross&#45;provide(host)</text>
</g>
<!-- host&#45;&gt;default__cross_provide_host_ -->
<g id="edge28" class="edge">
<title>host&#45;&gt;default__cross_provide_host_</title>
<path fill="none" stroke="#a6adc8" d="M178.26,-865.56C197.85,-817.23 258.13,-684.75 353.28,-619.73 354.9,-618.62 356.56,-617.56 358.25,-616.54"/>
<polygon fill="#a6adc8" stroke="#a6adc8" points="359.8,-619.68 366.97,-611.87 356.5,-613.5 359.8,-619.68"/>
</g>
<!-- default__cross_provide_user_ -->
<g id="node20" class="node">
<title>default__cross_provide_user_</title>
<polygon fill="#f9e2af" stroke="#f9e2af" points="573.03,-718.73 364.28,-718.73 364.28,-682.73 573.03,-682.73 573.03,-718.73"/>
<text text-anchor="middle" x="468.65" y="-696.05" font-family="Times,serif" font-size="14.00" fill="#1e1e2e">default/cross&#45;provide(user)</text>
</g>
<!-- host&#45;&gt;default__cross_provide_user_ -->
<g id="edge29" class="edge">
<title>host&#45;&gt;default__cross_provide_user_</title>
<path fill="none" stroke="#a6adc8" d="M187.03,-865.37C216.32,-832.49 282.6,-763.65 353.28,-727.73 356.31,-726.18 359.44,-724.72 362.64,-723.35"/>
<polygon fill="#a6adc8" stroke="#a6adc8" points="363.63,-726.72 371.63,-719.78 361.05,-720.21 363.63,-726.72"/>
</g>
<!-- default__self_provide_default_ -->
<g id="node21" class="node">
<title>default__self_provide_default_</title>
<polygon fill="#fab387" stroke="#fab387" points="576.03,-772.73 361.28,-772.73 361.28,-736.73 576.03,-736.73 576.03,-772.73"/>
<text text-anchor="middle" x="468.65" y="-750.05" font-family="Times,serif" font-size="14.00" fill="#1e1e2e">default/self&#45;provide(default)</text>
</g>
<!-- host&#45;&gt;default__self_provide_default_ -->
<g id="edge30" class="edge">
<title>host&#45;&gt;default__self_provide_default_</title>
<path fill="none" stroke="#a6adc8" d="M197.57,-872.28C246.21,-851.1 351.09,-805.46 414.89,-777.69"/>
<polygon fill="#a6adc8" stroke="#a6adc8" points="415.99,-781.03 423.76,-773.83 413.2,-774.61 415.99,-781.03"/>
</g>
<!-- hm_host -->
<g id="node25" class="node">
<title>hm_host</title>
<polygon fill="#cba6f7" stroke="#cba6f7" points="764.53,-525.73 690.78,-525.73 690.78,-489.73 764.53,-489.73 764.53,-525.73"/>
<text text-anchor="middle" x="727.65" y="-503.05" font-family="Times,serif" font-size="14.00" fill="#1e1e2e">hm&#45;host</text>
</g>
<!-- host&#45;&gt;hm_host -->
<g id="edge32" class="edge">
<title>host&#45;&gt;hm_host</title>
<path fill="none" stroke="#a6adc8" d="M175.61,-865.34C189.94,-809.25 241.23,-639.48 353.28,-562.73 453.15,-494.31 603.35,-496 679.21,-502.24"/>
<polygon fill="#a6adc8" stroke="#a6adc8" points="678.51,-505.69 688.78,-503.09 679.13,-498.72 678.51,-505.69"/>
</g>
<!-- hm_host__cross_provide_host_ -->
<g id="node27" class="node">
<title>hm_host__cross_provide_host_</title>
<polygon fill="#f2cdcd" stroke="#f2cdcd" points="835.4,-471.73 619.9,-471.73 619.9,-435.73 835.4,-435.73 835.4,-471.73"/>
<text text-anchor="middle" x="727.65" y="-449.05" font-family="Times,serif" font-size="14.00" fill="#1e1e2e">hm&#45;host/cross&#45;provide(host)</text>
</g>
<!-- host&#45;&gt;hm_host__cross_provide_host_ -->
<g id="edge33" class="edge">
<title>host&#45;&gt;hm_host__cross_provide_host_</title>
<path fill="none" stroke="#a6adc8" d="M173.6,-865.63C182.81,-802.45 222.72,-590.51 353.28,-496.73 393.06,-468.15 514.62,-458.3 608.34,-455.04"/>
<polygon fill="#a6adc8" stroke="#a6adc8" points="608.23,-458.55 618.11,-454.73 608,-451.55 608.23,-458.55"/>
</g>
<!-- hm_host__self_provide_hm_host_ -->
<g id="node28" class="node">
<title>hm_host__self_provide_hm_host_</title>
<polygon fill="#cba6f7" stroke="#cba6f7" points="842.53,-417.73 612.78,-417.73 612.78,-381.73 842.53,-381.73 842.53,-417.73"/>
<text text-anchor="middle" x="727.65" y="-395.05" font-family="Times,serif" font-size="14.00" fill="#1e1e2e">hm&#45;host/self&#45;provide(hm&#45;host)</text>
</g>
<!-- host&#45;&gt;hm_host__self_provide_hm_host_ -->
<g id="edge34" class="edge">
<title>host&#45;&gt;hm_host__self_provide_hm_host_</title>
<path fill="none" stroke="#a6adc8" d="M172.78,-865.66C179.48,-798.42 212.65,-560.99 353.28,-452.73 422.99,-399.05 522.41,-387.12 601.13,-387.91"/>
<polygon fill="#a6adc8" stroke="#a6adc8" points="601.01,-391.4 611.08,-388.08 601.14,-384.41 601.01,-391.4"/>
</g>
<!-- hm_user -->
<g id="node29" class="node">
<title>hm_user</title>
<polygon fill="#fab387" stroke="#fab387" points="1066.32,-332.73 991.82,-332.73 991.82,-296.73 1066.32,-296.73 1066.32,-332.73"/>
<text text-anchor="middle" x="1029.07" y="-310.05" font-family="Times,serif" font-size="14.00" fill="#1e1e2e">hm&#45;user</text>
</g>
<!-- host&#45;&gt;hm_user -->
<g id="edge35" class="edge">
<title>host&#45;&gt;hm_user</title>
<path fill="none" stroke="#a6adc8" d="M171.53,-865.32C173.68,-790.87 192.55,-510.03 353.28,-384.73 543.37,-236.52 860.76,-280.54 980.45,-304.16"/>
<polygon fill="#a6adc8" stroke="#a6adc8" points="979.43,-307.52 989.92,-306.07 980.81,-300.66 979.43,-307.52"/>
</g>
<!-- hm_user__cross_provide_hm_host_ -->
<g id="node31" class="node">
<title>hm_user__cross_provide_hm_host_</title>
<polygon fill="#a6e3a1" stroke="#a6e3a1" points="1150.69,-224.73 907.44,-224.73 907.44,-188.73 1150.69,-188.73 1150.69,-224.73"/>
<text text-anchor="middle" x="1029.07" y="-202.05" font-family="Times,serif" font-size="14.00" fill="#1e1e2e">hm&#45;user/cross&#45;provide(hm&#45;host)</text>
</g>
<!-- host&#45;&gt;hm_user__cross_provide_hm_host_ -->
<g id="edge36" class="edge">
<title>host&#45;&gt;hm_user__cross_provide_hm_host_</title>
<path fill="none" stroke="#a6adc8" d="M174.19,-865.35C189.11,-773.9 259.77,-369.23 353.28,-290.73 511.45,-157.93 768.56,-167.4 915.53,-186.72"/>
<polygon fill="#a6adc8" stroke="#a6adc8" points="914.91,-190.16 925.29,-188.04 915.85,-183.23 914.91,-190.16"/>
</g>
<!-- hm_user__self_provide_hm_user_ -->
<g id="node32" class="node">
<title>hm_user__self_provide_hm_user_</title>
<polygon fill="#fab387" stroke="#fab387" points="1144.69,-278.73 913.44,-278.73 913.44,-242.73 1144.69,-242.73 1144.69,-278.73"/>
<text text-anchor="middle" x="1029.07" y="-256.05" font-family="Times,serif" font-size="14.00" fill="#1e1e2e">hm&#45;user/self&#45;provide(hm&#45;user)</text>
</g>
<!-- host&#45;&gt;hm_user__self_provide_hm_user_ -->
<g id="edge37" class="edge">
<title>host&#45;&gt;hm_user__self_provide_hm_user_</title>
<path fill="none" stroke="#a6adc8" d="M171.81,-865.67C175.07,-792.59 197.64,-516.3 353.28,-384.73 434.34,-316.19 729.66,-282.98 901.57,-269.13"/>
<polygon fill="#a6adc8" stroke="#a6adc8" points="901.76,-272.62 911.45,-268.34 901.21,-265.64 901.76,-272.62"/>
</g>
<!-- deploy -->
<g id="node33" class="node">
<title>deploy</title>
<polygon fill="#f2cdcd" stroke="#f2cdcd" points="1884.41,-85.73 1821.16,-85.73 1821.16,-49.73 1884.41,-49.73 1884.41,-85.73"/>
<text text-anchor="middle" x="1852.79" y="-63.05" font-family="Times,serif" font-size="14.00" fill="#1e1e2e">deploy</text>
</g>
<!-- host&#45;&gt;deploy -->
<g id="edge31" class="edge">
<title>host&#45;&gt;deploy</title>
<path fill="none" stroke="#a6adc8" d="M172.52,-865.38C180.51,-754.63 227.88,-176.44 353.28,-63.73 477.47,47.91 559.66,-21.73 726.65,-21.73 726.65,-21.73 726.65,-21.73 1030.07,-21.73 1292.78,-21.73 1358.87,-21.23 1620.86,-40.73 1686.96,-45.64 1763.27,-55.36 1809.5,-61.7"/>
<polygon fill="#a6adc8" stroke="#a6adc8" points="1808.98,-65.16 1819.37,-63.06 1809.94,-58.23 1808.98,-65.16"/>
</g>
<!-- user -->
<g id="node34" class="node">
<title>user</title>
<polygon fill="#f2cdcd" stroke="#f2cdcd" points="1445.23,-85.73 1391.23,-85.73 1391.23,-49.73 1445.23,-49.73 1445.23,-85.73"/>
<text text-anchor="middle" x="1418.23" y="-63.05" font-family="Times,serif" font-size="14.00" fill="#1e1e2e">user</text>
</g>
<!-- host&#45;&gt;user -->
<g id="edge41" class="edge">
<title>host&#45;&gt;user</title>
<path fill="none" stroke="#a6adc8" d="M172.9,-865.33C182.62,-760.44 236.42,-239.06 353.28,-140.73 512.2,-6.99 1209.81,-51.6 1379.79,-64.67"/>
<polygon fill="#a6adc8" stroke="#a6adc8" points="1379.35,-68.14 1389.59,-65.43 1379.9,-61.17 1379.35,-68.14"/>
</g>
<!-- user__cross_provide_host_ -->
<g id="node36" class="node">
<title>user__cross_provide_host_</title>
<polygon fill="#f38ba8" stroke="#f38ba8" points="1512.86,-139.73 1323.61,-139.73 1323.61,-103.73 1512.86,-103.73 1512.86,-139.73"/>
<text text-anchor="middle" x="1418.23" y="-117.05" font-family="Times,serif" font-size="14.00" fill="#1e1e2e">user/cross&#45;provide(host)</text>
</g>
<!-- host&#45;&gt;user__cross_provide_host_ -->
<g id="edge42" class="edge">
<title>host&#45;&gt;user__cross_provide_host_</title>
<path fill="none" stroke="#a6adc8" d="M173.19,-865.5C184.22,-764.9 242.8,-278.77 353.28,-187.73 426.07,-127.74 1057.66,-121.44 1311.89,-121.36"/>
<polygon fill="#a6adc8" stroke="#a6adc8" points="1311.83,-124.86 1321.83,-121.36 1311.83,-117.86 1311.83,-124.86"/>
</g>
<!-- host__aspect_host_&#45;&gt;host -->
<g id="edge44" class="edge">
<title>host__aspect_host_&#45;&gt;host</title>
<path fill="none" stroke="#a6adc8" d="M398.9,-889.53C339.74,-891.09 256.6,-890.72 208.89,-888.4"/>
<polygon fill="#a6adc8" stroke="#a6adc8" points="209.26,-884.92 199.08,-887.86 208.87,-891.91 209.26,-884.92"/>
</g>
<!-- host__cross_provide__anon__&#45;&gt;n_default -->
<g id="edge45" class="edge">
<title>host__cross_provide__anon__&#45;&gt;n_default</title>
<path fill="none" stroke="#a6adc8" d="M360.19,-923.61C351.47,-918.17 344.05,-911.03 338.9,-901.73 327.11,-880.44 327.11,-704.01 338.9,-682.73 354.97,-653.71 393.08,-645.8 423.86,-644.51"/>
<polygon fill="#a6adc8" stroke="#a6adc8" points="423.79,-648.01 433.73,-644.34 423.67,-641.01 423.79,-648.01"/>
</g>
<!-- host__self_provide_host_&#45;&gt;backup -->
<g id="edge46" class="edge">
<title>host__self_provide_host_&#45;&gt;backup</title>
<path fill="none" stroke="#a6adc8" d="M557.02,-1053.41C599.38,-1055.7 648.4,-1059.54 682.82,-1063.43"/>
<polygon fill="#a6adc8" stroke="#a6adc8" points="682.06,-1066.86 692.4,-1064.57 682.88,-1059.91 682.06,-1066.86"/>
</g>
<!-- host__self_provide_host_&#45;&gt;server -->
<g id="edge47" class="edge">
<title>host__self_provide_host_&#45;&gt;server</title>
<path fill="none" stroke="#a6adc8" d="M556.84,-1038.28C572.77,-1037.14 589.27,-1036.28 604.78,-1035.73 744.55,-1030.75 910.45,-1032.07 986.38,-1036.77"/>
<polygon fill="#a6adc8" stroke="#a6adc8" points="986.05,-1040.25 996.26,-1037.45 986.53,-1033.27 986.05,-1040.25"/>
</g>
<!-- monitoring&#45;&gt;host__self_provide_host_ -->
<g id="edge48" class="edge">
<title>monitoring&#45;&gt;host__self_provide_host_</title>
<path fill="none" stroke="#a6adc8" d="M1805.05,-916.64C1758.5,-909.97 1684.93,-900.46 1620.86,-896.73 1441.05,-886.25 1395.11,-881.92 1215.61,-896.73 1064.26,-909.21 1028.32,-927.7 878.53,-952.73 756.84,-973.06 723.46,-965.04 604.78,-998.73 575.57,-1007.02 544.08,-1019.6 518.86,-1030.64"/>
<polygon fill="#a6adc8" stroke="#a6adc8" points="517.56,-1027.39 509.84,-1034.65 520.4,-1033.79 517.56,-1027.39"/>
</g>
<!-- monitoring__node_exporter -->
<g id="node12" class="node">
<title>monitoring__node_exporter</title>
<polygon fill="#f2cdcd" stroke="#f2cdcd" points="1533.96,-941.73 1302.51,-941.73 1220.07,-905.73 1616.4,-905.73 1533.96,-941.73"/>
<text text-anchor="middle" x="1418.23" y="-919.05" font-family="Times,serif" font-size="14.00" fill="#1e1e2e">monitoring/node&#45;exporter</text>
</g>
<!-- monitoring&#45;&gt;monitoring__node_exporter -->
<g id="edge49" class="edge">
<title>monitoring&#45;&gt;monitoring__node_exporter</title>
<path fill="none" stroke="#a6adc8" d="M1804.94,-928.12C1749.67,-930.21 1654.95,-930.91 1573.21,-930.22"/>
<polygon fill="#a6adc8" stroke="#a6adc8" points="1573.31,-926.72 1563.28,-930.13 1573.25,-933.72 1573.31,-926.72"/>
</g>
<!-- networking -->
<g id="node10" class="node">
<title>networking</title>
<polygon fill="#89b4fa" stroke="#89b4fa" points="1466.73,-1089.73 1369.73,-1089.73 1369.73,-1053.73 1466.73,-1053.73 1466.73,-1089.73"/>
<text text-anchor="middle" x="1418.23" y="-1067.05" font-family="Times,serif" font-size="14.00" fill="#1e1e2e">networking</text>
</g>
<!-- networking&#45;&gt;host__self_provide_host_ -->
<g id="edge53" class="edge">
<title>networking&#45;&gt;host__self_provide_host_</title>
<path fill="none" stroke="#a6adc8" d="M1369.66,-1079.67C1243.81,-1099.31 892.1,-1145.31 604.78,-1098.73 577.35,-1094.28 547.96,-1085.07 523.63,-1076.13"/>
<polygon fill="#a6adc8" stroke="#a6adc8" points="525.18,-1072.97 514.59,-1072.73 522.72,-1079.53 525.18,-1072.97"/>
</g>
<!-- networking&#45;&gt;monitoring -->
<g id="edge54" class="edge">
<title>networking&#45;&gt;monitoring</title>
<path fill="none" stroke="#a6adc8" d="M1467.04,-1061.41C1508.25,-1052.04 1569.1,-1037.06 1620.86,-1019.73 1684.64,-998.36 1755.81,-967.7 1802.05,-946.81"/>
<polygon fill="#a6adc8" stroke="#a6adc8" points="1803.35,-950.06 1811.01,-942.74 1800.46,-943.69 1803.35,-950.06"/>
</g>
<!-- monitoring__nginx_exporter -->
<g id="node11" class="node">
<title>monitoring__nginx_exporter</title>
<polygon fill="#89b4fa" stroke="#f38ba8" stroke-dasharray="5,2" points="1536.57,-995.73 1299.9,-995.73 1215.61,-959.73 1620.86,-959.73 1536.57,-995.73"/>
<text text-anchor="middle" x="1418.23" y="-973.05" font-family="Times,serif" font-size="14.00" fill="#1e1e2e">monitoring/nginx&#45;exporter</text>
</g>
<!-- monitoring__nginx_exporter&#45;&gt;monitoring -->
<g id="edge79" class="edge">
<title>monitoring__nginx_exporter&#45;&gt;monitoring</title>
<path fill="none" stroke="#a6adc8" d="M1567.19,-959.26C1645.06,-949.53 1736.09,-938.17 1793.83,-930.96"/>
<polygon fill="#a6adc8" stroke="#a6adc8" points="1793.93,-934.48 1803.42,-929.76 1793.07,-927.53 1793.93,-934.48"/>
</g>
<!-- monitoring__node_exporter&#45;&gt;host__self_provide_host_ -->
<g id="edge52" class="edge">
<title>monitoring__node_exporter&#45;&gt;host__self_provide_host_</title>
<path fill="none" stroke="#a6adc8" d="M1297.01,-939.74C1270.22,-943.34 1241.94,-947.15 1215.61,-950.73 983.54,-982.29 710.96,-1020.12 568.22,-1039.99"/>
<polygon fill="#a6adc8" stroke="#a6adc8" points="567.84,-1036.5 558.41,-1041.35 568.8,-1043.44 567.84,-1036.5"/>
</g>
<!-- monitoring__node_exporter&#45;&gt;monitoring -->
<g id="edge78" class="edge">
<title>monitoring__node_exporter&#45;&gt;monitoring</title>
<path fill="none" stroke="#a6adc8" d="M1591.43,-917.1C1663.28,-916.69 1741.89,-917.3 1793.73,-918.95"/>
<polygon fill="#a6adc8" stroke="#a6adc8" points="1793.39,-922.44 1803.51,-919.29 1793.64,-915.44 1793.39,-922.44"/>
</g>
<!-- server&#45;&gt;web_server -->
<g id="edge65" class="edge">
<title>server&#45;&gt;web_server</title>
<path fill="none" stroke="#a6adc8" d="M1018.97,-1024.44C994.93,-984.15 925.78,-889.42 842.53,-844.73 825.63,-835.66 805.55,-830.29 786.98,-827.59"/>
<polygon fill="#a6adc8" stroke="#a6adc8" points="787.51,-824.13 777.17,-826.42 786.68,-831.08 787.51,-824.13"/>
</g>
<!-- server&#45;&gt;monitoring__alerting -->
<g id="edge55" class="edge">
<title>server&#45;&gt;monitoring__alerting</title>
<path fill="none" stroke="#a6adc8" d="M997.7,-1041.36C925.02,-1038.14 735.3,-1030.12 576.78,-1026.73 486.04,-1024.78 383.86,-1024.04 304.77,-1023.77"/>
<polygon fill="#a6adc8" stroke="#a6adc8" points="304.8,-1020.27 294.78,-1023.74 304.77,-1027.27 304.8,-1020.27"/>
</g>
<!-- server&#45;&gt;backup -->
<g id="edge56" class="edge">
<title>server&#45;&gt;backup</title>
<path fill="none" stroke="#a6adc8" d="M997.8,-1049.93C944.69,-1058.13 834.48,-1069.03 772.83,-1072.4"/>
<polygon fill="#a6adc8" stroke="#a6adc8" points="772.88,-1068.9 763.06,-1072.88 773.22,-1075.89 772.88,-1068.9"/>
</g>
<!-- server&#45;&gt;virtualization__docker -->
<g id="edge57" class="edge">
<title>server&#45;&gt;virtualization__docker</title>
<path fill="none" stroke="#a6adc8" d="M1060.24,-1041.49C1147.31,-1038.22 1406.45,-1030.5 1620.86,-1044.73 1864.05,-1060.86 2146.24,-1103.04 2302.35,-1128.45"/>
<polygon fill="#a6adc8" stroke="#a6adc8" points="2301.44,-1131.85 2311.87,-1130 2302.57,-1124.94 2301.44,-1131.85"/>
</g>
<!-- server&#45;&gt;host__self_provide_host_ -->
<g id="edge58" class="edge">
<title>server&#45;&gt;host__self_provide_host_</title>
<path fill="none" stroke="#a6adc8" d="M997.77,-1046.9C928.27,-1050.22 752.03,-1048.48 604.78,-1053.73 592.9,-1054.15 580.45,-1054.76 568.11,-1055.39"/>
<polygon fill="#a6adc8" stroke="#a6adc8" points="568.15,-1051.88 558.35,-1055.89 568.51,-1058.87 568.15,-1051.88"/>
</g>
<!-- server&#45;&gt;monitoring -->
<g id="edge59" class="edge">
<title>server&#45;&gt;monitoring</title>
<path fill="none" stroke="#a6adc8" d="M1060.27,-1040.53C1096.99,-1037.88 1160.83,-1033.33 1215.61,-1029.73 1395.67,-1017.86 1443.98,-1040.49 1620.86,-1004.73 1684.28,-991.9 1753.97,-965.67 1800.02,-946.52"/>
<polygon fill="#a6adc8" stroke="#a6adc8" points="1801.37,-949.75 1809.23,-942.65 1798.66,-943.3 1801.37,-949.75"/>
</g>
<!-- server&#45;&gt;networking -->
<g id="edge60" class="edge">
<title>server&#45;&gt;networking</title>
<path fill="none" stroke="#a6adc8" d="M1060.13,-1044.98C1124.01,-1049.76 1274.31,-1061.02 1358.12,-1067.3"/>
<polygon fill="#a6adc8" stroke="#a6adc8" points="1357.75,-1070.78 1367.98,-1068.04 1358.27,-1063.8 1357.75,-1070.78"/>
</g>
<!-- server&#45;&gt;monitoring__nginx_exporter -->
<g id="edge61" class="edge">
<title>server&#45;&gt;monitoring__nginx_exporter</title>
<path fill="none" stroke="#f38ba8" stroke-dasharray="5,2" d="M1060.25,-1037.18C1096.94,-1030.48 1160.76,-1018.96 1215.61,-1009.73 1239.18,-1005.76 1264.31,-1001.66 1288.56,-997.78"/>
<polygon fill="#f38ba8" stroke="#f38ba8" points="1288.81,-1001.29 1298.14,-996.25 1287.71,-994.37 1288.81,-1001.29"/>
</g>
<!-- server&#45;&gt;monitoring__node_exporter -->
<g id="edge62" class="edge">
<title>server&#45;&gt;monitoring__node_exporter</title>
<path fill="none" stroke="#a6adc8" d="M1060.4,-1043.11C1092.78,-1042.06 1144.19,-1036.05 1179.61,-1010.73 1204.91,-992.64 1189.63,-967.81 1215.61,-950.73 1228.8,-942.05 1243.52,-935.59 1258.85,-930.82"/>
<polygon fill="#a6adc8" stroke="#a6adc8" points="1259.42,-934.29 1268.09,-928.2 1257.51,-927.56 1259.42,-934.29"/>
</g>
<!-- server&#45;&gt;tailscale -->
<g id="edge63" class="edge">
<title>server&#45;&gt;tailscale</title>
<path fill="none" stroke="#a6adc8" d="M1060.2,-1054.5C1096.84,-1068.75 1160.62,-1093.39 1215.61,-1113.73 1268.14,-1133.15 1328.69,-1154.66 1369.61,-1169.06"/>
<polygon fill="#a6adc8" stroke="#a6adc8" points="1368.33,-1172.32 1378.92,-1172.33 1370.65,-1165.72 1368.33,-1172.32"/>
</g>
<!-- server&#45;&gt;virtualization -->
<g id="edge64" class="edge">
<title>server&#45;&gt;virtualization</title>
<path fill="none" stroke="#a6adc8" d="M1060.22,-1053.43C1096.61,-1065.97 1159.88,-1086.59 1215.61,-1098.73 1323.54,-1122.24 1645.62,-1161.49 1785.6,-1178.02"/>
<polygon fill="#a6adc8" stroke="#a6adc8" points="1785.12,-1181.48 1795.47,-1179.18 1785.94,-1174.53 1785.12,-1181.48"/>
</g>
<!-- tailscale&#45;&gt;host__self_provide_host_ -->
<g id="edge66" class="edge">
<title>tailscale&#45;&gt;host__self_provide_host_</title>
<path fill="none" stroke="#a6adc8" d="M1380.21,-1185.55C1231.01,-1184.66 678.39,-1179.62 604.78,-1153.73 561.24,-1138.41 519.93,-1103.86 494.71,-1079.69"/>
<polygon fill="#a6adc8" stroke="#a6adc8" points="497.47,-1077.49 487.88,-1072.99 492.57,-1082.49 497.47,-1077.49"/>
</g>
<!-- tailscale&#45;&gt;virtualization -->
<g id="edge67" class="edge">
<title>tailscale&#45;&gt;virtualization</title>
<path fill="none" stroke="#a6adc8" d="M1456.11,-1185.73C1529.19,-1185.73 1693.29,-1185.73 1785.55,-1185.73"/>
<polygon fill="#a6adc8" stroke="#a6adc8" points="1785.47,-1189.23 1795.47,-1185.73 1785.47,-1182.23 1785.47,-1189.23"/>
</g>
<!-- virtualization&#45;&gt;virtualization__docker -->
<g id="edge72" class="edge">
<title>virtualization&#45;&gt;virtualization__docker</title>
<path fill="none" stroke="#a6adc8" d="M1908.76,-1177.95C1995.29,-1169.6 2165.79,-1157.94 2286.44,-1151.69"/>
<polygon fill="#a6adc8" stroke="#a6adc8" points="2286.27,-1155.21 2296.08,-1151.2 2285.91,-1148.21 2286.27,-1155.21"/>
</g>
<!-- virtualization&#45;&gt;host__self_provide_host_ -->
<g id="edge73" class="edge">
<title>virtualization&#45;&gt;host__self_provide_host_</title>
<path fill="none" stroke="#a6adc8" d="M1796.89,-1193.97C1750.2,-1200.54 1681.3,-1209.2 1620.86,-1212.73 1169.61,-1239.02 1023.1,-1339.95 604.78,-1168.73 558.21,-1149.67 516.06,-1108.12 491.65,-1080.53"/>
<polygon fill="#a6adc8" stroke="#a6adc8" points="494.54,-1078.53 485.35,-1073.26 489.25,-1083.11 494.54,-1078.53"/>
</g>
<!-- default__aspect_default_ -->
<g id="node17" class="node">
<title>default__aspect_default_</title>
<polygon fill="#a6e3a1" stroke="#a6e3a1" points="816.65,-704.73 638.65,-704.73 638.65,-668.73 816.65,-668.73 816.65,-704.73"/>
<text text-anchor="middle" x="727.65" y="-682.05" font-family="Times,serif" font-size="14.00" fill="#1e1e2e">default/aspect(default)</text>
</g>
<!-- n_default&#45;&gt;default__aspect_default_ -->
<g id="edge3" class="edge">
<title>n_default&#45;&gt;default__aspect_default_</title>
<path fill="none" stroke="#a6adc8" d="M502.2,-651.79C533.64,-656.69 582.88,-664.35 627.25,-671.25"/>
<polygon fill="#a6adc8" stroke="#a6adc8" points="626.49,-674.68 636.91,-672.76 627.57,-667.76 626.49,-674.68"/>
</g>
<!-- den__provides__define_user -->
<g id="node22" class="node">
<title>den__provides__define_user</title>
<polygon fill="#a6e3a1" stroke="#a6e3a1" points="1511.8,-712.73 1324.67,-712.73 1258.02,-676.73 1578.45,-676.73 1511.8,-712.73"/>
<text text-anchor="middle" x="1418.23" y="-690.05" font-family="Times,serif" font-size="14.00" fill="#1e1e2e">provides/define&#45;user</text>
</g>
<!-- n_default&#45;&gt;den__provides__define_user -->
<g id="edge4" class="edge">
<title>n_default&#45;&gt;den__provides__define_user</title>
<path fill="none" stroke="#a6adc8" d="M502.08,-647.57C566.82,-649.33 716.68,-653.7 842.53,-659.73 984.09,-666.5 1145.12,-676.51 1260.64,-684.09"/>
<polygon fill="#a6adc8" stroke="#a6adc8" points="1260.31,-687.57 1270.52,-684.74 1260.77,-680.59 1260.31,-687.57"/>
</g>
<!-- den__provides__hostname -->
<g id="node23" class="node">
<title>den__provides__hostname</title>
<polygon fill="#fab387" stroke="#fab387" points="1116.99,-741.73 941.15,-741.73 878.53,-705.73 1179.61,-705.73 1116.99,-741.73"/>
<text text-anchor="middle" x="1029.07" y="-719.05" font-family="Times,serif" font-size="14.00" fill="#1e1e2e">provides/hostname</text>
</g>
<!-- n_default&#45;&gt;den__provides__hostname -->
<g id="edge5" class="edge">
<title>n_default&#45;&gt;den__provides__hostname</title>
<path fill="none" stroke="#a6adc8" d="M502.08,-648.95C524.7,-651.84 554.67,-658.49 576.78,-673.73 594.64,-686.04 585.65,-703.48 604.78,-713.73 708.08,-769.07 846.89,-759.36 936.91,-744.16"/>
<polygon fill="#a6adc8" stroke="#a6adc8" points="937.45,-747.62 946.7,-742.44 936.24,-740.72 937.45,-747.62"/>
</g>
<!-- den__provides__mutual_provider -->
<g id="node24" class="node">
<title>den__provides__mutual_provider</title>
<polygon fill="#f9e2af" stroke="#f9e2af" points="1967.21,-675.73 1738.36,-675.73 1656.86,-639.73 2048.72,-639.73 1967.21,-675.73"/>
<text text-anchor="middle" x="1852.79" y="-653.05" font-family="Times,serif" font-size="14.00" fill="#1e1e2e">provides/mutual&#45;provider</text>
</g>
<!-- n_default&#45;&gt;den__provides__mutual_provider -->
<g id="edge6" class="edge">
<title>n_default&#45;&gt;den__provides__mutual_provider</title>
<path fill="none" stroke="#a6adc8" d="M502.07,-641.55C566.79,-637.4 716.62,-637.04 842.53,-637.73 1129.51,-639.29 1462.38,-643.36 1664.96,-648.44"/>
<polygon fill="#a6adc8" stroke="#a6adc8" points="1664.71,-651.93 1674.79,-648.69 1664.88,-644.93 1664.71,-651.93"/>
</g>
<!-- default__aspect_default_&#45;&gt;den__provides__define_user -->
<g id="edge7" class="edge">
<title>default__aspect_default_&#45;&gt;den__provides__define_user</title>
<path fill="none" stroke="#a6adc8" d="M816.91,-683.06C930.13,-682.02 1128.26,-683.99 1265.8,-687.26"/>
<polygon fill="#a6adc8" stroke="#a6adc8" points="1265.65,-690.76 1275.73,-687.51 1265.82,-683.76 1265.65,-690.76"/>
</g>
<!-- default__aspect_default_&#45;&gt;den__provides__hostname -->
<g id="edge8" class="edge">
<title>default__aspect_default_&#45;&gt;den__provides__hostname</title>
<path fill="none" stroke="#a6adc8" d="M816.87,-691.41C848.79,-694.77 885.23,-699.17 918.76,-703.69"/>
<polygon fill="#a6adc8" stroke="#a6adc8" points="918.12,-707.14 928.5,-705.02 919.07,-700.2 918.12,-707.14"/>
</g>
<!-- default__aspect_default_&#45;&gt;den__provides__mutual_provider -->
<g id="edge9" class="edge">
<title>default__aspect_default_&#45;&gt;den__provides__mutual_provider</title>
<path fill="none" stroke="#a6adc8" d="M817.04,-676.06C914.6,-669.31 1076.27,-662.54 1215.61,-658.73 1369.55,-654.51 1544.51,-651.92 1671.92,-651.89"/>
<polygon fill="#a6adc8" stroke="#a6adc8" points="1671.81,-655.39 1681.82,-651.9 1671.82,-648.39 1671.81,-655.39"/>
</g>
<!-- den__provides__default__aspect_default__den__provides -->
<g id="node18" class="node">
<title>den__provides__default__aspect_default__den__provides</title>
<polygon fill="#a6e3a1" stroke="#a6e3a1" points="2620.17,-712.73 2225.33,-712.73 2084.72,-676.73 2760.79,-676.73 2620.17,-712.73"/>
<text text-anchor="middle" x="2422.75" y="-690.05" font-family="Times,serif" font-size="14.00" fill="#1e1e2e">provides/default/aspect(default):den/provides</text>
</g>
<!-- default__cross_provide_host_&#45;&gt;hm_host -->
<g id="edge10" class="edge">
<title>default__cross_provide_host_&#45;&gt;hm_host</title>
<path fill="none" stroke="#a6adc8" d="M525.42,-574.28C571.45,-559.06 636.07,-537.69 679.54,-523.31"/>
<polygon fill="#a6adc8" stroke="#a6adc8" points="680.56,-526.66 688.96,-520.19 678.36,-520.01 680.56,-526.66"/>
</g>
<!-- den__provides__define_user&#45;&gt;default__aspect_default_ -->
<g id="edge11" class="edge">
<title>den__provides__define_user&#45;&gt;default__aspect_default_</title>
<path fill="none" stroke="#a6adc8" d="M1297.64,-698.6C1164.74,-699.15 952.53,-696.57 828.28,-692.8"/>
<polygon fill="#a6adc8" stroke="#a6adc8" points="828.53,-689.31 818.42,-692.49 828.31,-696.31 828.53,-689.31"/>
</g>
<!-- den__provides__define_user&#45;&gt;den__provides__default__aspect_default__den__provides -->
<g id="edge12" class="edge">
<title>den__provides__define_user&#45;&gt;den__provides__default__aspect_default__den__provides</title>
<path fill="none" stroke="#a6adc8" d="M1545.95,-694.73C1694.86,-694.73 1946.42,-694.73 2141.82,-694.73"/>
<polygon fill="#a6adc8" stroke="#a6adc8" points="2141.62,-698.23 2151.62,-694.73 2141.62,-691.23 2141.62,-698.23"/>
</g>
<!-- den__provides__define_user&#45;&gt;den__provides__mutual_provider -->
<g id="edge13" class="edge">
<title>den__provides__define_user&#45;&gt;den__provides__mutual_provider</title>
<path fill="none" stroke="#a6adc8" d="M1569.91,-681.84C1615.54,-677.93 1665.47,-673.66 1710.46,-669.81"/>
<polygon fill="#a6adc8" stroke="#a6adc8" points="1710.62,-673.31 1720.28,-668.98 1710.02,-666.34 1710.62,-673.31"/>
</g>
<!-- den__provides__hostname&#45;&gt;default__aspect_default_ -->
<g id="edge14" class="edge">
<title>den__provides__hostname&#45;&gt;default__aspect_default_</title>
<path fill="none" stroke="#a6adc8" d="M891.33,-713.56C869.99,-710.99 848.29,-708.2 827.99,-705.4"/>
<polygon fill="#a6adc8" stroke="#a6adc8" points="828.75,-701.97 818.36,-704.05 827.78,-708.91 828.75,-701.97"/>
</g>
<!-- den__provides__hostname&#45;&gt;den__provides__default__aspect_default__den__provides -->
<g id="edge15" class="edge">
<title>den__provides__hostname&#45;&gt;den__provides__default__aspect_default__den__provides</title>
<path fill="none" stroke="#a6adc8" d="M1148.06,-724.38C1267.32,-724.79 1456.91,-724.77 1620.86,-721.73 1808.49,-718.25 2020.74,-710.94 2179.58,-704.8"/>
<polygon fill="#a6adc8" stroke="#a6adc8" points="2179.56,-708.31 2189.41,-704.42 2179.28,-701.31 2179.56,-708.31"/>
</g>
<!-- den__provides__hostname&#45;&gt;den__provides__define_user -->
<g id="edge16" class="edge">
<title>den__provides__hostname&#45;&gt;den__provides__define_user</title>
<path fill="none" stroke="#a6adc8" d="M1167.11,-713.46C1208.67,-710.35 1254.04,-706.95 1294.59,-703.91"/>
<polygon fill="#a6adc8" stroke="#a6adc8" points="1294.67,-707.42 1304.38,-703.18 1294.15,-700.44 1294.67,-707.42"/>
</g>
<!-- den__provides__mutual_provider&#45;&gt;n_default -->
<g id="edge17" class="edge">
<title>den__provides__mutual_provider&#45;&gt;n_default</title>
<path fill="none" stroke="#a6adc8" d="M1705.55,-661.75C1509.23,-661.94 1149.61,-657.4 842.53,-655.73 723.5,-655.08 583.11,-655.36 513.43,-652.24"/>
<polygon fill="#a6adc8" stroke="#a6adc8" points="513.75,-648.75 503.58,-651.74 513.39,-655.74 513.75,-648.75"/>
</g>
<!-- den__provides__mutual_provider&#45;&gt;default__aspect_default_ -->
<g id="edge18" class="edge">
<title>den__provides__mutual_provider&#45;&gt;default__aspect_default_</title>
<path fill="none" stroke="#a6adc8" d="M1714.95,-665.93C1586.1,-669.33 1387.73,-672.02 1215.61,-676.73 1081.58,-680.39 926.88,-686.8 828.46,-689.02"/>
<polygon fill="#a6adc8" stroke="#a6adc8" points="828.48,-685.52 818.56,-689.23 828.63,-692.51 828.48,-685.52"/>
</g>
<!-- den__provides__mutual_provider&#45;&gt;den__provides__default__aspect_default__den__provides -->
<g id="edge19" class="edge">
<title>den__provides__mutual_provider&#45;&gt;den__provides__default__aspect_default__den__provides</title>
<path fill="none" stroke="#a6adc8" d="M1989.11,-666.54C2030.81,-669.26 2078.47,-672.36 2126.56,-675.5"/>
<polygon fill="#a6adc8" stroke="#a6adc8" points="2126.09,-678.97 2136.29,-676.13 2126.54,-671.99 2126.09,-678.97"/>
</g>
<!-- hm_host__aspect_hm_host_ -->
<g id="node26" class="node">
<title>hm_host__aspect_hm_host_</title>
<polygon fill="#89b4fa" stroke="#89b4fa" points="1125.57,-525.73 932.57,-525.73 932.57,-489.73 1125.57,-489.73 1125.57,-525.73"/>
<text text-anchor="middle" x="1029.07" y="-503.05" font-family="Times,serif" font-size="14.00" fill="#1e1e2e">hm&#45;host/aspect(hm&#45;host)</text>
</g>
<!-- hm_host&#45;&gt;hm_host__aspect_hm_host_ -->
<g id="edge21" class="edge">
<title>hm_host&#45;&gt;hm_host__aspect_hm_host_</title>
<path fill="none" stroke="#a6adc8" d="M764.77,-503.14C803.33,-501.21 866.28,-500.57 920.96,-501.23"/>
<polygon fill="#a6adc8" stroke="#a6adc8" points="920.57,-504.72 930.62,-501.36 920.67,-497.72 920.57,-504.72"/>
</g>
<!-- hm_host__aspect_hm_host_&#45;&gt;hm_host -->
<g id="edge22" class="edge">
<title>hm_host__aspect_hm_host_&#45;&gt;hm_host</title>
<path fill="none" stroke="#a6adc8" d="M932.13,-514.07C880.09,-514.89 818.04,-514.47 776.25,-512.82"/>
<polygon fill="#a6adc8" stroke="#a6adc8" points="776.42,-509.33 766.28,-512.38 776.11,-516.32 776.42,-509.33"/>
</g>
<!-- hm_host__cross_provide_host_&#45;&gt;hm_user -->
<g id="edge23" class="edge">
<title>hm_host__cross_provide_host_&#45;&gt;hm_user</title>
<path fill="none" stroke="#a6adc8" d="M828,-435.36C833.09,-432.83 837.98,-429.97 842.53,-426.73 866.91,-409.31 855.23,-388.57 878.53,-369.73 908.03,-345.87 948.84,-331.79 980.38,-323.86"/>
<polygon fill="#a6adc8" stroke="#a6adc8" points="981.15,-327.27 990.07,-321.56 979.53,-320.46 981.15,-327.27"/>
</g>
<!-- hm_user__aspect_hm_user_ -->
<g id="node30" class="node">
<title>hm_user__aspect_hm_user_</title>
<polygon fill="#a6e3a1" stroke="#a6e3a1" points="1515.48,-332.73 1320.98,-332.73 1320.98,-296.73 1515.48,-296.73 1515.48,-332.73"/>
<text text-anchor="middle" x="1418.23" y="-310.05" font-family="Times,serif" font-size="14.00" fill="#1e1e2e">hm&#45;user/aspect(hm&#45;user)</text>
</g>
<!-- hm_user&#45;&gt;hm_user__aspect_hm_user_ -->
<g id="edge24" class="edge">
<title>hm_user&#45;&gt;hm_user__aspect_hm_user_</title>
<path fill="none" stroke="#a6adc8" d="M1066.49,-310.58C1121.51,-307.99 1227.99,-307.33 1309.27,-308.6"/>
<polygon fill="#a6adc8" stroke="#a6adc8" points="1308.99,-312.1 1319.05,-308.77 1309.11,-305.1 1308.99,-312.1"/>
</g>
<!-- hm_user__aspect_hm_user_&#45;&gt;hm_user -->
<g id="edge25" class="edge">
<title>hm_user__aspect_hm_user_&#45;&gt;hm_user</title>
<path fill="none" stroke="#a6adc8" d="M1320.56,-320.66C1243.28,-322.08 1138.22,-321.65 1077.93,-319.36"/>
<polygon fill="#a6adc8" stroke="#a6adc8" points="1078.14,-315.86 1068,-318.94 1077.85,-322.86 1078.14,-315.86"/>
</g>
<!-- hm_user__cross_provide_hm_host_&#45;&gt;user -->
<g id="edge26" class="edge">
<title>hm_user__cross_provide_hm_host_&#45;&gt;user</title>
<path fill="none" stroke="#a6adc8" d="M1053.37,-188.27C1087.04,-162.67 1152.25,-117 1215.61,-94.73 1270.5,-75.43 1338.24,-69.79 1379.56,-68.22"/>
<polygon fill="#a6adc8" stroke="#a6adc8" points="1379.59,-71.72 1389.47,-67.91 1379.37,-64.72 1379.59,-71.72"/>
</g>
<!-- user__self_provide_user_ -->
<g id="node37" class="node">
<title>user__self_provide_user_</title>
<polygon fill="#f2cdcd" stroke="#f2cdcd" points="2511.38,-85.73 2334.13,-85.73 2334.13,-49.73 2511.38,-49.73 2511.38,-85.73"/>
<text text-anchor="middle" x="2422.75" y="-63.05" font-family="Times,serif" font-size="14.00" fill="#1e1e2e">user/self&#45;provide(user)</text>
</g>
<!-- deploy&#45;&gt;user__self_provide_user_ -->
<g id="edge20" class="edge">
<title>deploy&#45;&gt;user__self_provide_user_</title>
<path fill="none" stroke="#a6adc8" d="M1884.73,-64.44C1966.49,-60.62 2191.02,-59.96 2322.42,-62.45"/>
<polygon fill="#a6adc8" stroke="#a6adc8" points="2322.09,-65.95 2332.15,-62.65 2322.23,-58.95 2322.09,-65.95"/>
</g>
<!-- user&#45;&gt;deploy -->
<g id="edge68" class="edge">
<title>user&#45;&gt;deploy</title>
<path fill="none" stroke="#a6adc8" d="M1445.64,-67.73C1518.15,-67.73 1720.83,-67.73 1809.43,-67.73"/>
<polygon fill="#a6adc8" stroke="#a6adc8" points="1809.38,-71.23 1819.38,-67.73 1809.38,-64.23 1809.38,-71.23"/>
</g>
<!-- user__aspect_user_ -->
<g id="node35" class="node">
<title>user__aspect_user_</title>
<polygon fill="#fab387" stroke="#fab387" points="1923.04,-139.73 1782.54,-139.73 1782.54,-103.73 1923.04,-103.73 1923.04,-139.73"/>
<text text-anchor="middle" x="1852.79" y="-117.05" font-family="Times,serif" font-size="14.00" fill="#1e1e2e">user/aspect(user)</text>
</g>
<!-- user&#45;&gt;user__aspect_user_ -->
<g id="edge69" class="edge">
<title>user&#45;&gt;user__aspect_user_</title>
<path fill="none" stroke="#a6adc8" d="M1445.64,-67.57C1509.05,-71.88 1671.97,-91.57 1771.13,-106.26"/>
<polygon fill="#a6adc8" stroke="#a6adc8" points="1770.39,-109.69 1780.8,-107.71 1771.43,-102.77 1770.39,-109.69"/>
</g>
<!-- user__aspect_user_&#45;&gt;user -->
<g id="edge70" class="edge">
<title>user__aspect_user_&#45;&gt;user</title>
<path fill="none" stroke="#a6adc8" d="M1782.3,-118.17C1689.82,-109.12 1529.55,-88.75 1456.93,-76.45"/>
<polygon fill="#a6adc8" stroke="#a6adc8" points="1457.59,-73.01 1447.13,-74.73 1456.38,-79.91 1457.59,-73.01"/>
</g>
<!-- user__self_provide_user_&#45;&gt;deploy -->
<g id="edge71" class="edge">
<title>user__self_provide_user_&#45;&gt;deploy</title>
<path fill="none" stroke="#a6adc8" d="M2333.67,-72.77C2209.66,-75.41 1988.45,-74.98 1896.11,-71.49"/>
<polygon fill="#a6adc8" stroke="#a6adc8" points="1896.38,-67.99 1886.24,-71.07 1896.08,-74.99 1896.38,-67.99"/>
</g>
</g>
</svg>
