<?plantuml 1.2026.2?><svg xmlns="http://www.w3.org/2000/svg" xmlns:xlink="http://www.w3.org/1999/xlink" contentStyleType="text/css" data-diagram-type="DESCRIPTION" height="1044px" preserveAspectRatio="none" style="width:2351px;height:1044px;background:#1E1E2E;" version="1.1" viewBox="0 0 2351 1044" width="2351px" zoomAndPan="magnify"><title>Component view: web-server</title><defs/><g><rect fill="#1E1E2E" height="1044" style="stroke:none;stroke-width:1;" width="2351" x="0" y="0"/><g class="title" data-source-line="27"><text fill="#CDD6F4" font-family="'JetBrains Mono,monospace'" font-size="14" font-weight="bold" lengthAdjust="spacing" textLength="218.399" x="1059.3005" y="24.2799">Component view: web-server</text></g><!--cluster web_server--><g class="cluster" data-qualified-name="web_server" data-source-line="1666" id="ent0002"><rect fill="none" height="992.12" style="stroke:#444444;stroke-width:1;stroke-dasharray:7,7;" width="2338" x="7" y="46.4799"/><text fill="#444444" font-family="'JetBrains Mono,monospace'" font-size="16" font-weight="bold" lengthAdjust="spacing" textLength="96.0002" x="1127.9999" y="84.8">web-server</text><text fill="#444444" font-family="'JetBrains Mono,monospace'" font-size="12" font-weight="bold" lengthAdjust="spacing" textLength="57.6005" x="1147.1998" y="101.84">[system]</text></g><!--cluster host--><g class="cluster" data-qualified-name="web_server.host" data-source-line="1666" id="ent0003"><rect fill="none" height="885.12" style="stroke:#444444;stroke-width:1;stroke-dasharray:7,7;" width="1580" x="31" y="129.4799"/><text fill="#444444" font-family="'JetBrains Mono,monospace'" font-size="16" font-weight="bold" lengthAdjust="spacing" textLength="38.4001" x="801.8" y="167.8">host</text><text fill="#444444" font-family="'JetBrains Mono,monospace'" font-size="12" font-weight="bold" lengthAdjust="spacing" textLength="79.2006" x="781.3997" y="184.84">[container]</text></g><!--cluster c4_default--><g class="cluster" data-qualified-name="web_server.c4_default" data-source-line="1666" id="ent0014"><rect fill="none" height="425.8" style="stroke:#444444;stroke-width:1;stroke-dasharray:7,7;" width="474" x="1635" y="137.3999"/><text fill="#444444" font-family="'JetBrains Mono,monospace'" font-size="16" font-weight="bold" lengthAdjust="spacing" textLength="67.2001" x="1838.3999" y="175.72">default</text><text fill="#444444" font-family="'JetBrains Mono,monospace'" font-size="12" font-weight="bold" lengthAdjust="spacing" textLength="79.2006" x="1832.3997" y="192.76">[container]</text></g><!--cluster user--><g class="cluster" data-qualified-name="web_server.user" data-source-line="1666" id="ent0018"><rect fill="none" height="163.8" style="stroke:#444444;stroke-width:1;stroke-dasharray:7,7;" width="188" x="2133" y="129.4799"/><text fill="#444444" font-family="'JetBrains Mono,monospace'" font-size="16" font-weight="bold" lengthAdjust="spacing" textLength="38.4001" x="2207.8" y="167.8">user</text><text fill="#444444" font-family="'JetBrains Mono,monospace'" font-size="12" font-weight="bold" lengthAdjust="spacing" textLength="79.2006" x="2187.3997" y="184.84">[container]</text></g><!--entity monitoring__alerting--><g class="entity" data-qualified-name="web_server.host.monitoring__alerting" data-source-line="78" id="ent0004"><rect fill="#85BBF0" height="72.8003" style="stroke:#78A8D8;stroke-width:0.5;" width="202.4004" x="304.8" y="204.4799"/><text fill="#000000" font-family="'JetBrains Mono,monospace'" font-size="12" font-style="italic" lengthAdjust="spacing" textLength="79.2006" x="366.3999" y="226.72">&#171;component&#187;</text><text fill="#000000" font-family="'JetBrains Mono,monospace'" font-size="16" font-weight="bold" lengthAdjust="spacing" textLength="182.4004" x="314.8" y="246.6401">monitoring/alerting</text><text fill="#000000" font-family="'JetBrains Mono,monospace'" font-size="12" font-style="italic" lengthAdjust="spacing" textLength="50.4004" x="380.8" y="263.6802">[nixos]</text></g><!--entity backup--><g class="entity" data-qualified-name="web_server.host.backup" data-source-line="78" id="ent0005"><rect fill="#85BBF0" height="56.9602" style="stroke:#78A8D8;stroke-width:0.5;" width="101.2006" x="519.4" y="356.2799"/><text fill="#000000" font-family="'JetBrains Mono,monospace'" font-size="12" font-style="italic" lengthAdjust="spacing" textLength="79.2006" x="530.4" y="378.52">&#171;component&#187;</text><text fill="#000000" font-family="'JetBrains Mono,monospace'" font-size="16" font-weight="bold" lengthAdjust="spacing" textLength="57.6001" x="541.2003" y="398.4401">backup</text></g><!--entity virtualization__docker--><g class="entity" data-qualified-name="web_server.host.virtualization__docker" data-source-line="78" id="ent0006"><rect fill="#85BBF0" height="72.8003" style="stroke:#78A8D8;stroke-width:0.5;" width="221.6004" x="362.2" y="925.7999"/><text fill="#000000" font-family="'JetBrains Mono,monospace'" font-size="12" font-style="italic" lengthAdjust="spacing" textLength="79.2006" x="433.3999" y="948.04">&#171;component&#187;</text><text fill="#000000" font-family="'JetBrains Mono,monospace'" font-size="16" font-weight="bold" lengthAdjust="spacing" textLength="201.6004" x="372.2" y="967.9601">virtualization/docker</text><text fill="#000000" font-family="'JetBrains Mono,monospace'" font-size="12" font-style="italic" lengthAdjust="spacing" textLength="50.4004" x="447.8" y="985.0002">[nixos]</text></g><!--entity monitoring--><g class="entity" data-qualified-name="web_server.host.monitoring" data-source-line="78" id="ent0007"><rect fill="#85BBF0" height="72.8003" style="stroke:#78A8D8;stroke-width:0.5;" width="116.0002" x="1183" y="775.9999"/><text fill="#000000" font-family="'JetBrains Mono,monospace'" font-size="12" font-style="italic" lengthAdjust="spacing" textLength="79.2006" x="1201.3998" y="798.24">&#171;component&#187;</text><text fill="#000000" font-family="'JetBrains Mono,monospace'" font-size="16" font-weight="bold" lengthAdjust="spacing" textLength="96.0002" x="1193" y="818.1601">monitoring</text><text fill="#000000" font-family="'JetBrains Mono,monospace'" font-size="12" font-style="italic" lengthAdjust="spacing" textLength="50.4004" x="1215.7999" y="835.2002">[nixos]</text></g><!--entity networking--><g class="entity" data-qualified-name="web_server.host.networking" data-source-line="78" id="ent0008"><rect fill="#85BBF0" height="72.8003" style="stroke:#78A8D8;stroke-width:0.5;" width="116.0002" x="1055" y="626.1999"/><text fill="#000000" font-family="'JetBrains Mono,monospace'" font-size="12" font-style="italic" lengthAdjust="spacing" textLength="79.2006" x="1073.3998" y="648.44">&#171;component&#187;</text><text fill="#000000" font-family="'JetBrains Mono,monospace'" font-size="16" font-weight="bold" lengthAdjust="spacing" textLength="96.0002" x="1065" y="668.3601">networking</text><text fill="#000000" font-family="'JetBrains Mono,monospace'" font-size="12" font-style="italic" lengthAdjust="spacing" textLength="50.4004" x="1087.7999" y="685.4002">[nixos]</text></g><!--entity monitoring__nginx_exporter--><g class="entity" data-qualified-name="web_server.host.monitoring__nginx_exporter" data-source-line="78" id="ent0009"><rect fill="#85BBF0" height="56.9602" style="stroke:#78A8D8;stroke-width:0.5;" width="260.0005" x="760" y="634.1199"/><text fill="#000000" font-family="'JetBrains Mono,monospace'" font-size="12" font-style="italic" lengthAdjust="spacing" textLength="79.2006" x="850.3999" y="656.36">&#171;component&#187;</text><text fill="#000000" font-family="'JetBrains Mono,monospace'" font-size="16" font-weight="bold" lengthAdjust="spacing" textLength="240.0005" x="770" y="676.2801">monitoring/nginx-exporter</text></g><!--entity monitoring__node_exporter--><g class="entity" data-qualified-name="web_server.host.monitoring__node_exporter" data-source-line="78" id="ent0010"><rect fill="#85BBF0" height="72.8003" style="stroke:#78A8D8;stroke-width:0.5;" width="250.4005" x="831.8" y="925.7999"/><text fill="#000000" font-family="'JetBrains Mono,monospace'" font-size="12" font-style="italic" lengthAdjust="spacing" textLength="79.2006" x="917.3999" y="948.04">&#171;component&#187;</text><text fill="#000000" font-family="'JetBrains Mono,monospace'" font-size="16" font-weight="bold" lengthAdjust="spacing" textLength="230.4005" x="841.8" y="967.9601">monitoring/node-exporter</text><text fill="#000000" font-family="'JetBrains Mono,monospace'" font-size="12" font-style="italic" lengthAdjust="spacing" textLength="50.4004" x="931.8001" y="985.0002">[nixos]</text></g><!--entity server--><g class="entity" data-qualified-name="web_server.host.server" data-source-line="78" id="ent0011"><rect fill="#85BBF0" height="56.9602" style="stroke:#78A8D8;stroke-width:0.5;" width="101.2006" x="618.4" y="490.2399"/><text fill="#000000" font-family="'JetBrains Mono,monospace'" font-size="12" font-style="italic" lengthAdjust="spacing" textLength="79.2006" x="629.4" y="512.48">&#171;component&#187;</text><text fill="#000000" font-family="'JetBrains Mono,monospace'" font-size="16" font-weight="bold" lengthAdjust="spacing" textLength="57.6001" x="640.2003" y="532.4001">server</text></g><!--entity tailscale--><g class="entity" data-qualified-name="web_server.host.tailscale" data-source-line="78" id="ent0012"><rect fill="#85BBF0" height="72.8003" style="stroke:#78A8D8;stroke-width:0.5;" width="106.4002" x="341.8" y="626.1999"/><text fill="#000000" font-family="'JetBrains Mono,monospace'" font-size="12" font-style="italic" lengthAdjust="spacing" textLength="79.2006" x="355.3998" y="648.44">&#171;component&#187;</text><text fill="#000000" font-family="'JetBrains Mono,monospace'" font-size="16" font-weight="bold" lengthAdjust="spacing" textLength="86.4002" x="351.8" y="668.3601">tailscale</text><text fill="#000000" font-family="'JetBrains Mono,monospace'" font-size="12" font-style="italic" lengthAdjust="spacing" textLength="50.4004" x="369.7999" y="685.4002">[nixos]</text></g><!--entity virtualization--><g class="entity" data-qualified-name="web_server.host.virtualization" data-source-line="78" id="ent0013"><rect fill="#85BBF0" height="72.8003" style="stroke:#78A8D8;stroke-width:0.5;" width="154.4003" x="317.8" y="775.9999"/><text fill="#000000" font-family="'JetBrains Mono,monospace'" font-size="12" font-style="italic" lengthAdjust="spacing" textLength="79.2006" x="355.3998" y="798.24">&#171;component&#187;</text><text fill="#000000" font-family="'JetBrains Mono,monospace'" font-size="16" font-weight="bold" lengthAdjust="spacing" textLength="134.4003" x="327.8" y="818.1601">virtualization</text><text fill="#000000" font-family="'JetBrains Mono,monospace'" font-size="12" font-style="italic" lengthAdjust="spacing" textLength="50.4004" x="369.7999" y="835.2002">[nixos]</text></g><!--entity den__provides__define_user--><g class="entity" data-qualified-name="web_server.c4_default.den__provides__define_user" data-source-line="78" id="ent0015"><rect fill="#85BBF0" height="56.9602" style="stroke:#78A8D8;stroke-width:0.5;" width="212.0004" x="1764" y="212.3999"/><text fill="#000000" font-family="'JetBrains Mono,monospace'" font-size="12" font-style="italic" lengthAdjust="spacing" textLength="79.2006" x="1830.3999" y="234.64">&#171;component&#187;</text><text fill="#000000" font-family="'JetBrains Mono,monospace'" font-size="16" font-weight="bold" lengthAdjust="spacing" textLength="192.0004" x="1774" y="254.5601">provides/define-user</text></g><!--entity den__provides__hostname--><g class="entity" data-qualified-name="web_server.c4_default.den__provides__hostname" data-source-line="78" id="ent0016"><rect fill="#85BBF0" height="56.9602" style="stroke:#78A8D8;stroke-width:0.5;" width="183.2004" x="1780.4" y="356.2799"/><text fill="#000000" font-family="'JetBrains Mono,monospace'" font-size="12" font-style="italic" lengthAdjust="spacing" textLength="79.2006" x="1832.3999" y="378.52">&#171;component&#187;</text><text fill="#000000" font-family="'JetBrains Mono,monospace'" font-size="16" font-weight="bold" lengthAdjust="spacing" textLength="163.2004" x="1790.4" y="398.4401">provides/hostname</text></g><!--entity den__provides__mutual_provider--><g class="entity" data-qualified-name="web_server.c4_default.den__provides__mutual_provider" data-source-line="78" id="ent0017"><rect fill="#85BBF0" height="56.9602" style="stroke:#78A8D8;stroke-width:0.5;" width="250.4005" x="1698.8" y="490.2399"/><text fill="#000000" font-family="'JetBrains Mono,monospace'" font-size="12" font-style="italic" lengthAdjust="spacing" textLength="79.2006" x="1784.3999" y="512.48">&#171;component&#187;</text><text fill="#000000" font-family="'JetBrains Mono,monospace'" font-size="16" font-weight="bold" lengthAdjust="spacing" textLength="230.4005" x="1708.8" y="532.4001">provides/mutual-provider</text></g><!--entity deploy--><g class="entity" data-qualified-name="web_server.user.deploy" data-source-line="78" id="ent0019"><rect fill="#85BBF0" height="72.8003" style="stroke:#78A8D8;stroke-width:0.5;" width="156.8011" x="2148.6" y="204.4799"/><text fill="#000000" font-family="'JetBrains Mono,monospace'" font-size="12" font-style="italic" lengthAdjust="spacing" textLength="79.2006" x="2187.4002" y="226.72">&#171;component&#187;</text><text fill="#000000" font-family="'JetBrains Mono,monospace'" font-size="16" font-weight="bold" lengthAdjust="spacing" textLength="57.6001" x="2198.2005" y="246.6401">deploy</text><text fill="#000000" font-family="'JetBrains Mono,monospace'" font-size="12" font-style="italic" lengthAdjust="spacing" textLength="136.8011" x="2158.6" y="263.6802">[homeManager+nixos]</text></g><!--link backup to server--><g class="link" data-entity-1="ent0005" data-entity-2="ent0011" data-link-type="dependency" data-source-line="1779" id="lnk20"><path d="M602.82,413.5399 C612.25,422.4499 622.11,432.7499 630,443.2399 C640.79,457.5899 646.796,468.105 653.676,482.685" fill="none" id="backup-to-server" style="stroke:#A6ADC8;stroke-width:1;"/><polygon fill="#A6ADC8" points="657.09,489.9199,656.3891,481.4047,650.9629,483.9652,657.09,489.9199" style="stroke:#A6ADC8;stroke-width:1;"/><text fill="#CDD6F4" font-family="'JetBrains Mono,monospace'" font-size="12" font-weight="bold" lengthAdjust="spacing" textLength="57.6005" x="641.28" y="456.48">includes</text></g><!--link server to backup--><g class="link" data-entity-1="ent0011" data-entity-2="ent0005" data-link-type="dependency" data-source-line="1779" id="lnk31"><path d="M618.05,502.9799 C597.17,494.1499 575.1,480.5699 563,460.2399 C554.76,446.3999 554.2468,436.2602 557.8668,421.4802" fill="none" id="server-to-backup" style="stroke:#A6ADC8;stroke-width:1;"/><polygon fill="#A6ADC8" points="559.77,413.7099,554.953,420.7666,560.7807,422.1939,559.77,413.7099" style="stroke:#A6ADC8;stroke-width:1;"/><text fill="#CDD6F4" font-family="'JetBrains Mono,monospace'" font-size="12" font-weight="bold" lengthAdjust="spacing" textLength="57.6005" x="564" y="456.48">includes</text></g><!--link den__provides__mutual_provider to den__provides__define_user--><g class="link" data-entity-1="ent0017" data-entity-2="ent0015" data-link-type="dependency" data-source-line="1779" id="lnk21"><path d="M1898.99,489.7899 C1931.51,473.1599 1965.62,448.3199 1981,413.2399 C2004.83,358.8599 1956.2078,307.2764 1915.4178,274.6564" fill="none" id="den__provides__mutual_provider-to-den__provides__define_user" style="stroke:#A6ADC8;stroke-width:1;"/><polygon fill="#A6ADC8" points="1909.17,269.6599,1913.5442,276.9993,1917.2915,272.3134,1909.17,269.6599" style="stroke:#A6ADC8;stroke-width:1;"/><text fill="#CDD6F4" font-family="'JetBrains Mono,monospace'" font-size="12" font-weight="bold" lengthAdjust="spacing" textLength="57.6005" x="1987.79" y="389.5">includes</text></g><!--link den__provides__define_user to den__provides__mutual_provider--><g class="link" data-entity-1="ent0015" data-entity-2="ent0017" data-link-type="dependency" data-source-line="1779" id="lnk25"><path d="M1801.77,269.7699 C1765.69,288.4699 1724.67,316.9299 1704,356.2799 C1692.23,378.6899 1693.51,390.1999 1704,413.2399 C1718.71,445.5399 1742.2791,467.2202 1768.6991,485.3102" fill="none" id="den__provides__define_user-to-den__provides__mutual_provider" style="stroke:#A6ADC8;stroke-width:1;"/><polygon fill="#A6ADC8" points="1775.3,489.8299,1770.394,482.8349,1767.0042,487.7856,1775.3,489.8299" style="stroke:#A6ADC8;stroke-width:1;"/><text fill="#CDD6F4" font-family="'JetBrains Mono,monospace'" font-size="12" font-weight="bold" lengthAdjust="spacing" textLength="57.6005" x="1705" y="389.5">includes</text></g><!--link den__provides__mutual_provider to den__provides__hostname--><g class="link" data-entity-1="ent0017" data-entity-2="ent0016" data-link-type="dependency" data-source-line="1779" id="lnk22"><path d="M1843.18,489.7599 C1848.68,480.6799 1854.2,470.3299 1858,460.2399 C1863.61,445.3399 1865.897,435.8078 1867.957,421.5378" fill="none" id="den__provides__mutual_provider-to-den__provides__hostname" style="stroke:#A6ADC8;stroke-width:1;"/><polygon fill="#A6ADC8" points="1869.1,413.6199,1864.9878,421.1092,1870.9262,421.9665,1869.1,413.6199" style="stroke:#A6ADC8;stroke-width:1;"/><text fill="#CDD6F4" font-family="'JetBrains Mono,monospace'" font-size="12" font-weight="bold" lengthAdjust="spacing" textLength="57.6005" x="1863.98" y="456.48">includes</text></g><!--link den__provides__hostname to den__provides__mutual_provider--><g class="link" data-entity-1="ent0016" data-entity-2="ent0017" data-link-type="dependency" data-source-line="1779" id="lnk26"><path d="M1817.51,413.4599 C1806.85,421.5399 1797.09,431.4399 1791,443.2399 C1783.21,458.3199 1785.5422,468.967 1794.9322,483.097" fill="none" id="den__provides__hostname-to-den__provides__mutual_provider" style="stroke:#A6ADC8;stroke-width:1;"/><polygon fill="#A6ADC8" points="1799.36,489.7599,1797.4308,481.4366,1792.4336,484.7574,1799.36,489.7599" style="stroke:#A6ADC8;stroke-width:1;"/><text fill="#CDD6F4" font-family="'JetBrains Mono,monospace'" font-size="12" font-weight="bold" lengthAdjust="spacing" textLength="57.6005" x="1792" y="456.48">includes</text></g><!--link den__provides__hostname to den__provides__define_user--><g class="link" data-entity-1="ent0016" data-entity-2="ent0015" data-link-type="dependency" data-source-line="1779" id="lnk23"><path d="M1877.27,355.7999 C1878.79,346.4499 1880.25,335.9499 1881,326.2799 C1882.48,307.2699 1881.1709,293.8479 1878.0309,277.4079" fill="none" id="den__provides__hostname-to-den__provides__define_user" style="stroke:#A6ADC8;stroke-width:1;"/><polygon fill="#A6ADC8" points="1876.53,269.5499,1875.0841,277.9707,1880.9776,276.8451,1876.53,269.5499" style="stroke:#A6ADC8;stroke-width:1;"/><text fill="#CDD6F4" font-family="'JetBrains Mono,monospace'" font-size="12" font-weight="bold" lengthAdjust="spacing" textLength="57.6005" x="1882.41" y="322.52">includes</text></g><!--link den__provides__define_user to den__provides__hostname--><g class="link" data-entity-1="ent0015" data-entity-2="ent0016" data-link-type="dependency" data-source-line="1779" id="lnk24"><path d="M1834.37,269.6199 C1818.7,285.3899 1805.54,305.9899 1814,326.2799 C1818.64,337.3999 1820.9166,341.8297 1829.4666,350.3297" fill="none" id="den__provides__define_user-to-den__provides__hostname" style="stroke:#A6ADC8;stroke-width:1;"/><polygon fill="#A6ADC8" points="1835.14,355.9699,1831.5817,348.2021,1827.3515,352.4572,1835.14,355.9699" style="stroke:#A6ADC8;stroke-width:1;"/><text fill="#CDD6F4" font-family="'JetBrains Mono,monospace'" font-size="12" font-weight="bold" lengthAdjust="spacing" textLength="57.6005" x="1815" y="322.52">includes</text></g><!--link monitoring to backup--><g class="link" data-entity-1="ent0007" data-entity-2="ent0005" data-link-type="dependency" data-source-line="1779" id="lnk27"><path d="M1299.25,782.4699 C1330.58,763.4499 1366.33,735.3499 1384,698.9999 C1398.14,669.8999 1398.42,655.1599 1384,626.1999 C1339.32,536.4499 1296.68,528.4599 1204,490.2399 C966.04,392.1099 877.38,484.3399 630,413.2399 C627.03,412.3799 631.5558,414.0572 628.5458,412.9972" fill="none" id="monitoring-to-backup" style="stroke:#A6ADC8;stroke-width:1;"/><polygon fill="#A6ADC8" points="621,410.3399,627.5493,415.8269,629.5423,410.1676,621,410.3399" style="stroke:#A6ADC8;stroke-width:1;"/><text fill="#CDD6F4" font-family="'JetBrains Mono,monospace'" font-size="12" font-weight="bold" lengthAdjust="spacing" textLength="57.6005" x="1367.46" y="592.44">includes</text></g><!--link monitoring__alerting to backup--><g class="link" data-entity-1="ent0004" data-entity-2="ent0005" data-link-type="dependency" data-source-line="1779" id="lnk28"><path d="M447.38,277.6799 C475.38,301.8999 505.7708,328.1848 531.6308,350.5648" fill="none" id="monitoring__alerting-to-backup" style="stroke:#A6ADC8;stroke-width:1;"/><polygon fill="#A6ADC8" points="537.68,355.7999,533.594,348.2963,529.6676,352.8332,537.68,355.7999" style="stroke:#A6ADC8;stroke-width:1;"/><text fill="#CDD6F4" font-family="'JetBrains Mono,monospace'" font-size="12" font-weight="bold" lengthAdjust="spacing" textLength="57.6005" x="503.69" y="322.52">includes</text></g><!--link monitoring__node_exporter to backup--><g class="link" data-entity-1="ent0010" data-entity-2="ent0005" data-link-type="dependency" data-source-line="1779" id="lnk29"><path d="M1082.36,946.6199 C1157.46,932.3499 1250.88,904.1999 1317,848.7999 C1416.99,765.0299 1497.22,692.7399 1433,579.1999 C1395.21,512.3999 1356.27,518.7199 1285,490.2399 C1012.81,381.4599 914.11,485.3199 630,413.2399 C627,412.4799 631.5595,414.0997 628.5295,413.0897" fill="none" id="monitoring__node_exporter-to-backup" style="stroke:#A6ADC8;stroke-width:1;"/><polygon fill="#A6ADC8" points="620.94,410.5599,627.5808,415.9358,629.4781,410.2437,620.94,410.5599" style="stroke:#A6ADC8;stroke-width:1;"/><text fill="#CDD6F4" font-family="'JetBrains Mono,monospace'" font-size="12" font-weight="bold" lengthAdjust="spacing" textLength="57.6005" x="1457.03" y="667.34">includes</text></g><!--link networking to backup--><g class="link" data-entity-1="ent0008" data-entity-2="ent0005" data-link-type="dependency" data-source-line="1779" id="lnk30"><path d="M1142.23,625.9499 C1151.12,610.6599 1156.17,593.1499 1146,579.1999 C1004.11,384.5199 854.57,500.4299 630,413.2399 C627.01,412.0799 631.3439,413.9186 628.2739,412.6386" fill="none" id="networking-to-backup" style="stroke:#A6ADC8;stroke-width:1;"/><polygon fill="#A6ADC8" points="620.89,409.5599,627.1194,415.4075,629.4284,409.8696,620.89,409.5599" style="stroke:#A6ADC8;stroke-width:1;"/><text fill="#CDD6F4" font-family="'JetBrains Mono,monospace'" font-size="12" font-weight="bold" lengthAdjust="spacing" textLength="57.6005" x="1137.53" y="523.46">includes</text></g><!--link tailscale to backup--><g class="link" data-entity-1="ent0012" data-entity-2="ent0005" data-link-type="dependency" data-source-line="1779" id="lnk32"><path d="M377.33,625.9099 C372.4,611.1099 369.87,593.9799 376,579.1999 C406.27,506.2799 472.2864,451.1636 519.5864,418.2036" fill="none" id="tailscale-to-backup" style="stroke:#A6ADC8;stroke-width:1;"/><polygon fill="#A6ADC8" points="526.15,413.6299,517.8712,415.7423,521.3015,420.665,526.15,413.6299" style="stroke:#A6ADC8;stroke-width:1;"/><text fill="#CDD6F4" font-family="'JetBrains Mono,monospace'" font-size="12" font-weight="bold" lengthAdjust="spacing" textLength="57.6005" x="436.67" y="523.46">includes</text></g><!--link virtualization to backup--><g class="link" data-entity-1="ent0013" data-entity-2="ent0005" data-link-type="dependency" data-source-line="1779" id="lnk33"><path d="M317.35,775.8999 C302.73,767.2899 288.22,757.2699 276,745.9999 C235.58,708.7099 224.72,677.3199 245,626.1999 C291.14,509.8799 348.53,502.0199 459,443.2399 C478.54,432.8399 493.0195,425.2661 511.9295,415.5161" fill="none" id="virtualization-to-backup" style="stroke:#A6ADC8;stroke-width:1;"/><polygon fill="#A6ADC8" points="519.04,411.8499,510.5547,412.8497,513.3043,418.1825,519.04,411.8499" style="stroke:#A6ADC8;stroke-width:1;"/><text fill="#CDD6F4" font-family="'JetBrains Mono,monospace'" font-size="12" font-weight="bold" lengthAdjust="spacing" textLength="57.6005" x="268.25" y="592.44">includes</text></g><!--link virtualization__docker to backup--><g class="link" data-entity-1="ent0006" data-entity-2="ent0005" data-link-type="dependency" data-source-line="1779" id="lnk34"><path d="M361.74,941.5199 C246.16,917.8299 82,873.5899 82,813.3999 C82,517.7199 82,517.7199 82,517.7199 C82,321.9099 323.98,474.3599 510,413.2399 C512.94,412.2699 508.4549,414.06 511.4449,412.92" fill="none" id="virtualization__docker-to-backup" style="stroke:#A6ADC8;stroke-width:1;"/><polygon fill="#A6ADC8" points="518.92,410.0699,510.3761,410.1168,512.5137,415.7231,518.92,410.0699" style="stroke:#A6ADC8;stroke-width:1;"/><text fill="#CDD6F4" font-family="'JetBrains Mono,monospace'" font-size="12" font-weight="bold" lengthAdjust="spacing" textLength="57.6005" x="83" y="667.34">includes</text></g><!--link monitoring to server--><g class="link" data-entity-1="ent0007" data-entity-2="ent0011" data-link-type="dependency" data-source-line="1779" id="lnk35"><path d="M1269.06,775.7299 C1283.79,754.6999 1300.34,726.8199 1308,698.9999 C1316.59,667.8099 1321.92,655.4099 1308,626.1999 C1293.72,596.2499 1281.05,590.8899 1250,579.1999 C1228.77,571.2099 1068.6,573.1799 1046,571.1999 C928.86,560.9299 800.2561,541.3352 727.9461,529.5652" fill="none" id="monitoring-to-server" style="stroke:#A6ADC8;stroke-width:1;"/><polygon fill="#A6ADC8" points="720.05,528.2799,727.4641,532.5262,728.4281,526.6041,720.05,528.2799" style="stroke:#A6ADC8;stroke-width:1;"/><text fill="#CDD6F4" font-family="'JetBrains Mono,monospace'" font-size="12" font-weight="bold" lengthAdjust="spacing" textLength="57.6005" x="1317.56" y="667.34">includes</text></g><!--link server to monitoring--><g class="link" data-entity-1="ent0011" data-entity-2="ent0007" data-link-type="dependency" data-source-line="1779" id="lnk47"><path d="M719.81,527.5799 C792.11,538.5499 928.93,558.5299 1046,571.1999 C1068.16,573.5999 1125.97,569.4099 1146,579.1999 C1215.77,613.3199 1217.18,653.6399 1236,728.9999 C1239.75,744.0199 1240.9844,753.0337 1241.4344,767.6837" fill="none" id="server-to-monitoring" style="stroke:#A6ADC8;stroke-width:1;"/><polygon fill="#A6ADC8" points="1241.68,775.6799,1244.433,767.5916,1238.4358,767.7758,1241.68,775.6799" style="stroke:#A6ADC8;stroke-width:1;"/><text fill="#CDD6F4" font-family="'JetBrains Mono,monospace'" font-size="12" font-weight="bold" lengthAdjust="spacing" textLength="57.6005" x="1229.68" y="667.34">includes</text></g><!--link monitoring__alerting to server--><g class="link" data-entity-1="ent0004" data-entity-2="ent0011" data-link-type="dependency" data-source-line="1779" id="lnk36"><path d="M404.82,277.6099 C405.43,315.2699 411.9,374.3999 443,413.2399 C486.91,468.0699 558.3562,493.501 610.3762,506.141" fill="none" id="monitoring__alerting-to-server" style="stroke:#A6ADC8;stroke-width:1;"/><polygon fill="#A6ADC8" points="618.15,508.0299,611.0845,503.2258,609.6679,509.0562,618.15,508.0299" style="stroke:#A6ADC8;stroke-width:1;"/><text fill="#CDD6F4" font-family="'JetBrains Mono,monospace'" font-size="12" font-weight="bold" lengthAdjust="spacing" textLength="57.6005" x="444" y="389.5">includes</text></g><!--link server to monitoring__alerting--><g class="link" data-entity-1="ent0011" data-entity-2="ent0004" data-link-type="dependency" data-source-line="1779" id="lnk45"><path d="M695.39,489.8799 C705.13,476.2099 712.59,459.2799 707,443.2399 C690.76,396.6499 674.02,389.9999 638,356.2799 C600.95,321.5999 558.7721,298.3704 514.9821,279.7504" fill="none" id="server-to-monitoring__alerting" style="stroke:#A6ADC8;stroke-width:1;"/><polygon fill="#A6ADC8" points="507.62,276.6199,513.8082,282.5111,516.156,276.9896,507.62,276.6199" style="stroke:#A6ADC8;stroke-width:1;"/><text fill="#CDD6F4" font-family="'JetBrains Mono,monospace'" font-size="12" font-weight="bold" lengthAdjust="spacing" textLength="57.6005" x="694.55" y="389.5">includes</text></g><!--link monitoring__node_exporter to server--><g class="link" data-entity-1="ent0010" data-entity-2="ent0011" data-link-type="dependency" data-source-line="1779" id="lnk37"><path d="M879.2,925.4499 C864.93,916.9099 850.83,906.9799 839,895.7999 C763.88,824.7799 755.9,793.9499 715,698.9999 C692.95,647.7999 681.0337,591.5311 674.7537,555.5011" fill="none" id="monitoring__node_exporter-to-server" style="stroke:#A6ADC8;stroke-width:1;"/><polygon fill="#A6ADC8" points="673.38,547.6199,671.7982,556.0162,677.7091,554.986,673.38,547.6199" style="stroke:#A6ADC8;stroke-width:1;"/><text fill="#CDD6F4" font-family="'JetBrains Mono,monospace'" font-size="12" font-weight="bold" lengthAdjust="spacing" textLength="57.6005" x="735.91" y="742.24">includes</text></g><!--link server to monitoring__node_exporter--><g class="link" data-entity-1="ent0011" data-entity-2="ent0010" data-link-type="dependency" data-source-line="1779" id="lnk50"><path d="M680.28,547.5899 C700.6,597.7799 741.32,698.2599 742,698.9999 C762.26,720.8799 779.64,709.2699 802,728.9999 C866.7,786.0799 912.8404,868.8557 937.1004,918.3757" fill="none" id="server-to-monitoring__node_exporter" style="stroke:#A6ADC8;stroke-width:1;"/><polygon fill="#A6ADC8" points="940.62,925.5599,939.7945,917.0559,934.4064,919.6956,940.62,925.5599" style="stroke:#A6ADC8;stroke-width:1;"/><text fill="#CDD6F4" font-family="'JetBrains Mono,monospace'" font-size="12" font-weight="bold" lengthAdjust="spacing" textLength="57.6005" x="819.82" y="742.24">includes</text></g><!--link networking to server--><g class="link" data-entity-1="ent0008" data-entity-2="ent0011" data-link-type="dependency" data-source-line="1779" id="lnk38"><path d="M1099.38,625.9599 C1091.11,609.1199 1078.85,590.3199 1062,579.1999 C1006.71,542.7099 821.277,527.9564 728.027,522.6264" fill="none" id="networking-to-server" style="stroke:#A6ADC8;stroke-width:1;"/><polygon fill="#A6ADC8" points="720.04,522.1699,727.8558,525.6216,728.1982,519.6313,720.04,522.1699" style="stroke:#A6ADC8;stroke-width:1;"/><text fill="#CDD6F4" font-family="'JetBrains Mono,monospace'" font-size="12" font-weight="bold" lengthAdjust="spacing" textLength="57.6005" x="1080.41" y="592.44">includes</text></g><!--link server to networking--><g class="link" data-entity-1="ent0011" data-entity-2="ent0008" data-link-type="dependency" data-source-line="1779" id="lnk48"><path d="M719.97,531.6799 C791.94,549.1799 926.96,584.2799 1038,626.1999 C1043.52,628.2799 1041.8529,627.4444 1047.4929,629.8744" fill="none" id="server-to-networking" style="stroke:#A6ADC8;stroke-width:1;"/><polygon fill="#A6ADC8" points="1054.84,633.0399,1048.68,627.1193,1046.3059,632.6296,1054.84,633.0399" style="stroke:#A6ADC8;stroke-width:1;"/><text fill="#CDD6F4" font-family="'JetBrains Mono,monospace'" font-size="12" font-weight="bold" lengthAdjust="spacing" textLength="57.6005" x="949.45" y="592.44">includes</text></g><!--link tailscale to server--><g class="link" data-entity-1="ent0012" data-entity-2="ent0011" data-link-type="dependency" data-source-line="1779" id="lnk39"><path d="M383.86,625.7999 C381.21,609.9299 381.65,591.9999 392,579.1999 C395.58,574.7699 531.1849,547.1667 610.1949,531.3867" fill="none" id="tailscale-to-server" style="stroke:#A6ADC8;stroke-width:1;"/><polygon fill="#A6ADC8" points="618.04,529.8199,609.6074,528.4448,610.7825,534.3286,618.04,529.8199" style="stroke:#A6ADC8;stroke-width:1;"/><text fill="#CDD6F4" font-family="'JetBrains Mono,monospace'" font-size="12" font-weight="bold" lengthAdjust="spacing" textLength="57.6005" x="393" y="592.44">includes</text></g><!--link server to tailscale--><g class="link" data-entity-1="ent0011" data-entity-2="ent0012" data-link-type="dependency" data-source-line="1779" id="lnk51"><path d="M618.1,531.1199 C581.26,540.6799 531.1,556.4599 491,579.1999 C468.84,591.7699 452.9024,604.4156 435.7024,620.4456" fill="none" id="server-to-tailscale" style="stroke:#A6ADC8;stroke-width:1;"/><polygon fill="#A6ADC8" points="429.85,625.8999,437.7478,622.6403,433.657,618.251,429.85,625.8999" style="stroke:#A6ADC8;stroke-width:1;"/><text fill="#CDD6F4" font-family="'JetBrains Mono,monospace'" font-size="12" font-weight="bold" lengthAdjust="spacing" textLength="57.6005" x="492" y="592.44">includes</text></g><!--link virtualization to server--><g class="link" data-entity-1="ent0013" data-entity-2="ent0011" data-link-type="dependency" data-source-line="1779" id="lnk40"><path d="M434.21,775.5999 C443.67,766.2999 453.5,756.0599 462,745.9999 C503.81,696.5299 501.63,674.3099 545,626.1999 C571.5,596.7999 599.6449,572.7567 625.5049,552.4767" fill="none" id="virtualization-to-server" style="stroke:#A6ADC8;stroke-width:1;"/><polygon fill="#A6ADC8" points="631.8,547.5399,623.6536,550.116,627.3562,554.8373,631.8,547.5399" style="stroke:#A6ADC8;stroke-width:1;"/><text fill="#CDD6F4" font-family="'JetBrains Mono,monospace'" font-size="12" font-weight="bold" lengthAdjust="spacing" textLength="57.6005" x="546" y="667.34">includes</text></g><!--link server to virtualization--><g class="link" data-entity-1="ent0011" data-entity-2="ent0013" data-link-type="dependency" data-source-line="1779" id="lnk52"><path d="M618.2,538.9299 C585.73,550.3299 542.47,563.9399 503,571.1999 C396.22,590.8299 324.96,535.6899 265,626.1999 C247.13,653.1699 251.54,669.5699 265,698.9999 C279.39,730.4699 300.9572,751.8124 327.3172,770.8724" fill="none" id="server-to-virtualization" style="stroke:#A6ADC8;stroke-width:1;"/><polygon fill="#A6ADC8" points="333.8,775.5599,329.075,768.4413,325.5593,773.3035,333.8,775.5599" style="stroke:#A6ADC8;stroke-width:1;"/><text fill="#CDD6F4" font-family="'JetBrains Mono,monospace'" font-size="12" font-weight="bold" lengthAdjust="spacing" textLength="57.6005" x="266" y="667.34">includes</text></g><!--link virtualization__docker to server--><g class="link" data-entity-1="ent0006" data-entity-2="ent0011" data-link-type="dependency" data-source-line="1779" id="lnk41"><path d="M530.85,925.4799 C541.64,916.8099 552.02,906.8199 560,895.7999 C640.78,784.3399 661.3308,621.8743 666.6508,555.5043" fill="none" id="virtualization__docker-to-server" style="stroke:#A6ADC8;stroke-width:1;"/><polygon fill="#A6ADC8" points="667.29,547.5299,663.6604,555.2646,669.6412,555.744,667.29,547.5299" style="stroke:#A6ADC8;stroke-width:1;"/><text fill="#CDD6F4" font-family="'JetBrains Mono,monospace'" font-size="12" font-weight="bold" lengthAdjust="spacing" textLength="57.6005" x="636.48" y="742.24">includes</text></g><!--link server to virtualization__docker--><g class="link" data-entity-1="ent0011" data-entity-2="ent0006" data-link-type="dependency" data-source-line="1779" id="lnk46"><path d="M659.99,547.6999 C644.2,596.5299 612.74,692.7699 608,698.9999 C593.67,717.8399 578.54,710.3199 564,728.9999 C515.51,791.2899 533.03,822.7999 503,895.7999 C499.01,905.4999 497.7322,908.6069 493.3522,918.1669" fill="none" id="server-to-virtualization__docker" style="stroke:#A6ADC8;stroke-width:1;"/><polygon fill="#A6ADC8" points="490.02,925.4399,496.0796,919.4165,490.6248,916.9173,490.02,925.4399" style="stroke:#A6ADC8;stroke-width:1;"/><text fill="#CDD6F4" font-family="'JetBrains Mono,monospace'" font-size="12" font-weight="bold" lengthAdjust="spacing" textLength="57.6005" x="565" y="742.24">includes</text></g><!--link monitoring to monitoring__node_exporter--><g class="link" data-entity-1="ent0007" data-entity-2="ent0010" data-link-type="dependency" data-source-line="1779" id="lnk42"><path d="M1182.84,843.6699 C1137.32,867.3599 1080.9869,896.6775 1032.9369,921.6775" fill="none" id="monitoring-to-monitoring__node_exporter" style="stroke:#A6ADC8;stroke-width:1;"/><polygon fill="#A6ADC8" points="1025.84,925.3699,1034.3216,924.3388,1031.5522,919.0161,1025.84,925.3699" style="stroke:#A6ADC8;stroke-width:1;"/><text fill="#CDD6F4" font-family="'JetBrains Mono,monospace'" font-size="12" font-weight="bold" lengthAdjust="spacing" textLength="57.6005" x="1108.52" y="892.04">includes</text></g><!--link monitoring__alerting to tailscale--><g class="link" data-entity-1="ent0004" data-entity-2="ent0012" data-link-type="dependency" data-source-line="1779" id="lnk43"><path d="M399.79,277.6699 C389.51,339.1099 369.58,468.6899 364,579.1999 C363.62,586.7499 362.34,588.8299 364,596.1999 C366.26,606.2499 366.8782,609.3199 371.2582,618.7099" fill="none" id="monitoring__alerting-to-tailscale" style="stroke:#A6ADC8;stroke-width:1;"/><polygon fill="#A6ADC8" points="374.64,625.9599,373.977,617.4417,368.5394,619.978,374.64,625.9599" style="stroke:#A6ADC8;stroke-width:1;"/><text fill="#CDD6F4" font-family="'JetBrains Mono,monospace'" font-size="12" font-weight="bold" lengthAdjust="spacing" textLength="57.6005" x="377.01" y="456.48">includes</text></g><!--link networking to monitoring--><g class="link" data-entity-1="ent0008" data-entity-2="ent0007" data-link-type="dependency" data-source-line="1779" id="lnk44"><path d="M1136.8,699.1199 C1147.33,714.0499 1160.21,731.3299 1173,745.9999 C1181.72,755.9999 1185.9812,760.6565 1195.5912,769.9565" fill="none" id="networking-to-monitoring" style="stroke:#A6ADC8;stroke-width:1;"/><polygon fill="#A6ADC8" points="1201.34,775.5199,1197.6774,767.8007,1193.5049,772.1124,1201.34,775.5199" style="stroke:#A6ADC8;stroke-width:1;"/><text fill="#CDD6F4" font-family="'JetBrains Mono,monospace'" font-size="12" font-weight="bold" lengthAdjust="spacing" textLength="57.6005" x="1174" y="742.24">includes</text></g><!--link server to monitoring__nginx_exporter--><g class="link" data-entity-1="ent0011" data-entity-2="ent0009" data-link-type="dependency" data-source-line="1779" id="lnk49"><path d="M712.4,547.5799 C751.24,572.5199 801.1583,604.5575 839.9683,629.4775" fill="none" id="server-to-monitoring__nginx_exporter" style="stroke:#A6ADC8;stroke-width:1;"/><polygon fill="#A6ADC8" points="846.7,633.7999,841.5892,626.9531,838.3473,632.0019,846.7,633.7999" style="stroke:#A6ADC8;stroke-width:1;"/><text fill="#CDD6F4" font-family="'JetBrains Mono,monospace'" font-size="12" font-weight="bold" lengthAdjust="spacing" textLength="57.6005" x="787.13" y="592.44">excluded</text></g><!--link tailscale to virtualization--><g class="link" data-entity-1="ent0012" data-entity-2="ent0013" data-link-type="dependency" data-source-line="1779" id="lnk53"><path d="M395,699.3799 C395,722.5299 395,744.5599 395,767.6899" fill="none" id="tailscale-to-virtualization" style="stroke:#A6ADC8;stroke-width:1;"/><polygon fill="#A6ADC8" points="395,775.6899,398,767.6899,392,767.6899,395,775.6899" style="stroke:#A6ADC8;stroke-width:1;"/><text fill="#CDD6F4" font-family="'JetBrains Mono,monospace'" font-size="12" font-weight="bold" lengthAdjust="spacing" textLength="57.6005" x="396" y="742.24">includes</text></g><!--link virtualization to virtualization__docker--><g class="link" data-entity-1="ent0013" data-entity-2="ent0006" data-link-type="dependency" data-source-line="1779" id="lnk54"><path d="M413.88,849.1799 C426.1,872.3299 438.2166,895.2845 450.4266,918.4245" fill="none" id="virtualization-to-virtualization__docker" style="stroke:#A6ADC8;stroke-width:1;"/><polygon fill="#A6ADC8" points="454.16,925.4999,453.0799,917.0245,447.7733,919.8245,454.16,925.4999" style="stroke:#A6ADC8;stroke-width:1;"/><text fill="#CDD6F4" font-family="'JetBrains Mono,monospace'" font-size="12" font-weight="bold" lengthAdjust="spacing" textLength="57.6005" x="437.34" y="892.04">includes</text></g><?plantuml-src fLPHRziW47xth_2ybrPDbBMDicgQzj18UvZKQUf-0ABccg7OO66Sf9lwtuTjRB03s6fVMdBttNrt7t3u0sLfLX68lsxNg-qQRNbUS0PCVelAFMK55ZYFdt2wtmbUCRBb6HVnnskuXXkm40IUSPN9xvn93Ka9sJoltP2VE8Su-G7oNc3AolY1Cxx8rP-om2aaLX0MWXzrHhp19BqREqEKlq2KdDsFgx-zlhrPEt1S410-iXOJOllzKah8fzaqBiZMOa9iM-LJue6O9ZJG86SF2zFgyp67jeDEq6fOYFQ-9iBYPPgrHzgac_JpfxkD0nNYV8HKOhRBO9hKG8Ejzh1psYYIL6PWr8WF58vVuYCyBKiG1n1Hr1uArDL-eNoezItYn02Jo_XV59ljD05_U2aLjFwdGR4Xl50Na4ekADiXX3CGKgqKsfXNdJLHPaPFl4mkHpdgIL4LojqkQk0Pva25h716_s99EKE8y7JVj31qh5gxdyiKDgZI7y107hdOjm7cnnm6XDYEiXE2Ky65RAgrT6byoyxdR7gGYXFmPLAkGI9tOVskwnrtCQhDpyfKRPbozcj_og7uPxjX1xwwJrUwHdh6AwnUEOuP0RNdXU07Ig14TOXAWwgowQUphrhpiZOxknjbgOyqKw-AdQAppOdFgxhNpZ2ef7KjEvVEvj50jz6KxMgzoFXBeqwzI9gxcCC3PdW7uihe-nf5Zv3rjwdVRlrOrw3QFzL4KEhtvR843oSom7TKCy2-jP9GalFzVsDNaudigTLFIo_6diHpqAFHuWkn9w4Fqnqwdz-QBpx8UARCmvaNORfZ_zrmQpW7FTBG5s9hwCDO6laWOutcuOn6qnqjuj3ZCqis-oq9o31uaJt7oVELuK5xlnKci_inWy-06LMUlVnmQc98A2QiSXSIqDMjGF28JK77_XdY_WS0?></g></svg>