<?xml version="1.0" encoding="UTF-8" standalone="no"?>
<!DOCTYPE svg PUBLIC "-//W3C//DTD SVG 1.1//EN"
 "http://www.w3.org/Graphics/SVG/1.1/DTD/svg11.dtd">
<!-- Generated by graphviz version 12.2.1 (0)
 -->
<!-- Pages: 1 -->
<svg width="2789pt" height="1276pt"
 viewBox="0.00 0.00 2789.26 1276.29" xmlns="http://www.w3.org/2000/svg" xmlns:xlink="http://www.w3.org/1999/xlink">
<g id="graph0" class="graph" transform="scale(1 1) rotate(0) translate(4 1272.29)">
<polygon fill="#1e1e2e" stroke="none" points="-4,4 -4,-1272.29 2785.26,-1272.29 2785.26,4 -4,4"/>
<g id="clust1" class="cluster">
<title>cluster_ctx_host</title>
<polygon fill="#313244" stroke="#6c7086" stroke-dasharray="5,2" points="8,-855.29 8,-1260.29 2597.67,-1260.29 2597.67,-855.29 8,-855.29"/>
<text text-anchor="middle" x="1302.83" y="-1242.99" font-family="Times,serif" font-size="14.00" fill="#cdd6f4">host</text>
</g>
<g id="clust2" class="cluster">
<title>cluster_ctx_default</title>
<polygon fill="#313244" stroke="#6c7086" stroke-dasharray="5,2" points="353.28,-564.29 353.28,-803.29 2773.26,-803.29 2773.26,-564.29 353.28,-564.29"/>
<text text-anchor="middle" x="1563.27" y="-785.99" font-family="Times,serif" font-size="14.00" fill="#cdd6f4">default</text>
</g>
<g id="clust3" class="cluster">
<title>cluster_ctx_hm_host</title>
<polygon fill="#313244" stroke="#6c7086" stroke-dasharray="5,2" points="604.78,-371.29 604.78,-556.29 1133.57,-556.29 1133.57,-371.29 604.78,-371.29"/>
<text text-anchor="middle" x="869.17" y="-538.99" font-family="Times,serif" font-size="14.00" fill="#cdd6f4">hm&#45;host</text>
</g>
<g id="clust4" class="cluster">
<title>cluster_ctx_hm_user</title>
<polygon fill="#313244" stroke="#6c7086" stroke-dasharray="5,2" points="899.44,-178.29 899.44,-363.29 1519.02,-363.29 1519.02,-178.29 899.44,-178.29"/>
<text text-anchor="middle" x="1209.23" y="-345.99" font-family="Times,serif" font-size="14.00" fill="#cdd6f4">hm&#45;user</text>
</g>
<g id="clust5" class="cluster">
<title>cluster_ctx_user</title>
<polygon fill="#313244" stroke="#6c7086" stroke-dasharray="5,2" points="1311.15,-39.29 1311.15,-170.29 2523.84,-170.29 2523.84,-39.29 1311.15,-39.29"/>
<text text-anchor="middle" x="1917.49" y="-152.99" font-family="Times,serif" font-size="14.00" fill="#cdd6f4">user</text>
</g>
<!-- web_server -->
<g id="node1" class="node">
<title>web_server</title>
<path fill="#89b4fa" stroke="#89b4fa" d="M763.4,-847.29C763.4,-847.29 691.9,-847.29 691.9,-847.29 685.9,-847.29 679.9,-841.29 679.9,-835.29 679.9,-835.29 679.9,-823.29 679.9,-823.29 679.9,-817.29 685.9,-811.29 691.9,-811.29 691.9,-811.29 763.4,-811.29 763.4,-811.29 769.4,-811.29 775.4,-817.29 775.4,-823.29 775.4,-823.29 775.4,-835.29 775.4,-835.29 775.4,-841.29 769.4,-847.29 763.4,-847.29"/>
<text text-anchor="middle" x="727.65" y="-824.61" font-family="Times,serif" font-size="14.00" fill="#1e1e2e">web&#45;server</text>
</g>
<!-- host__self_provide_host_ -->
<g id="node8" class="node">
<title>host__self_provide_host_</title>
<polygon fill="#f2cdcd" stroke="#f2cdcd" points="556.53,-1027.29 380.78,-1027.29 380.78,-991.29 556.53,-991.29 556.53,-1027.29"/>
<text text-anchor="middle" x="468.65" y="-1004.61" font-family="Times,serif" font-size="14.00" fill="#1e1e2e">host/self&#45;provide(host)</text>
</g>
<!-- web_server&#45;&gt;host__self_provide_host_ -->
<g id="edge79" class="edge">
<title>web_server&#45;&gt;host__self_provide_host_</title>
<path fill="none" stroke="#a6adc8" d="M679.6,-826.24C654.41,-827.18 624.58,-832.8 604.78,-851.29 567.59,-886.01 609.64,-923.44 576.78,-962.29 568.61,-971.94 558.08,-979.68 546.81,-985.86"/>
<polygon fill="#a6adc8" stroke="#a6adc8" points="545.49,-982.61 538.12,-990.22 548.63,-988.86 545.49,-982.61"/>
</g>
<!-- server -->
<g id="node13" class="node">
<title>server</title>
<polygon fill="#89b4fa" stroke="#89b4fa" points="1059.94,-1034.29 998.19,-1034.29 998.19,-998.29 1059.94,-998.29 1059.94,-1034.29"/>
<text text-anchor="middle" x="1029.07" y="-1011.61" font-family="Times,serif" font-size="14.00" fill="#1e1e2e">server</text>
</g>
<!-- web_server&#45;&gt;server -->
<g id="edge80" class="edge">
<title>web_server&#45;&gt;server</title>
<path fill="none" stroke="#a6adc8" d="M775.9,-840.9C797.11,-844.64 821.95,-850.12 842.53,-860.29 908,-892.63 968.08,-954.43 1001.22,-989.92"/>
<polygon fill="#a6adc8" stroke="#a6adc8" points="998.26,-991.88 1007.63,-996.81 1003.38,-987.11 998.26,-991.88"/>
</g>
<!-- monitoring__alerting -->
<g id="node2" class="node">
<title>monitoring__alerting</title>
<polygon fill="#cba6f7" stroke="#cba6f7" points="260.35,-1064.29 80.17,-1064.29 16,-1028.29 324.53,-1028.29 260.35,-1064.29"/>
<text text-anchor="middle" x="170.26" y="-1041.61" font-family="Times,serif" font-size="14.00" fill="#1e1e2e">monitoring/alerting</text>
</g>
<!-- monitoring__alerting&#45;&gt;host__self_provide_host_ -->
<g id="edge50" class="edge">
<title>monitoring__alerting&#45;&gt;host__self_provide_host_</title>
<path fill="none" stroke="#a6adc8" d="M319.02,-1027.84C336.11,-1025.71 353.2,-1023.57 369.39,-1021.55"/>
<polygon fill="#a6adc8" stroke="#a6adc8" points="369.45,-1025.07 378.94,-1020.36 368.58,-1018.13 369.45,-1025.07"/>
</g>
<!-- monitoring -->
<g id="node9" class="node">
<title>monitoring</title>
<polygon fill="#89b4fa" stroke="#89b4fa" points="2474.59,-1121.29 2379.84,-1121.29 2379.84,-1085.29 2474.59,-1085.29 2474.59,-1121.29"/>
<text text-anchor="middle" x="2427.22" y="-1098.61" font-family="Times,serif" font-size="14.00" fill="#1e1e2e">monitoring</text>
</g>
<!-- monitoring__alerting&#45;&gt;monitoring -->
<g id="edge83" class="edge">
<title>monitoring__alerting&#45;&gt;monitoring</title>
<path fill="none" stroke="#a6adc8" d="M197.71,-1064.78C232.02,-1087.93 294.47,-1127.21 353.28,-1149.29 511.9,-1208.84 557.21,-1226.29 726.65,-1226.29 726.65,-1226.29 726.65,-1226.29 1414.77,-1226.29 1780.2,-1226.29 2214.49,-1146.19 2368.55,-1115.27"/>
<polygon fill="#a6adc8" stroke="#a6adc8" points="2368.99,-1118.75 2378.1,-1113.34 2367.6,-1111.89 2368.99,-1118.75"/>
</g>
<!-- tailscale -->
<g id="node14" class="node">
<title>tailscale</title>
<polygon fill="#f2cdcd" stroke="#f2cdcd" points="1451.4,-939.29 1376.15,-939.29 1376.15,-903.29 1451.4,-903.29 1451.4,-939.29"/>
<text text-anchor="middle" x="1413.77" y="-916.61" font-family="Times,serif" font-size="14.00" fill="#1e1e2e">tailscale</text>
</g>
<!-- monitoring__alerting&#45;&gt;tailscale -->
<g id="edge51" class="edge">
<title>monitoring__alerting&#45;&gt;tailscale</title>
<path fill="none" stroke="#a6adc8" d="M214.15,-1027.79C250.48,-1012.95 304.34,-992.9 353.28,-982.29 402.01,-971.71 534.92,-989.39 576.78,-962.29 598.15,-948.44 582.92,-925.36 604.78,-912.29 620.37,-902.95 1171.39,-907.04 1179.61,-907.29 1243.51,-909.2 1317.12,-914.07 1364.26,-917.52"/>
<polygon fill="#a6adc8" stroke="#a6adc8" points="1363.91,-921.01 1374.14,-918.26 1364.43,-914.02 1363.91,-921.01"/>
</g>
<!-- backup -->
<g id="node3" class="node">
<title>backup</title>
<polygon fill="#89b4fa" stroke="#89b4fa" points="761.15,-997.29 694.15,-997.29 694.15,-961.29 761.15,-961.29 761.15,-997.29"/>
<text text-anchor="middle" x="727.65" y="-974.61" font-family="Times,serif" font-size="14.00" fill="#1e1e2e">backup</text>
</g>
<!-- backup&#45;&gt;host__self_provide_host_ -->
<g id="edge1" class="edge">
<title>backup&#45;&gt;host__self_provide_host_</title>
<path fill="none" stroke="#a6adc8" d="M693.9,-987.79C662.25,-993.25 612.69,-999.67 568.2,-1004.37"/>
<polygon fill="#a6adc8" stroke="#a6adc8" points="568.11,-1000.86 558.52,-1005.36 568.83,-1007.82 568.11,-1000.86"/>
</g>
<!-- backup&#45;&gt;server -->
<g id="edge2" class="edge">
<title>backup&#45;&gt;server</title>
<path fill="none" stroke="#a6adc8" d="M761.55,-978.93C816.38,-982.75 926.35,-996.2 986.48,-1006.3"/>
<polygon fill="#a6adc8" stroke="#a6adc8" points="985.86,-1009.75 996.31,-1008.02 987.06,-1002.85 985.86,-1009.75"/>
</g>
<!-- virtualization__docker -->
<g id="node4" class="node">
<title>virtualization__docker</title>
<polygon fill="#cba6f7" stroke="#cba6f7" points="2522.09,-949.29 2332.35,-949.29 2264.77,-913.29 2589.67,-913.29 2522.09,-949.29"/>
<text text-anchor="middle" x="2427.22" y="-926.61" font-family="Times,serif" font-size="14.00" fill="#1e1e2e">virtualization/docker</text>
</g>
<!-- virtualization__docker&#45;&gt;backup -->
<g id="edge77" class="edge">
<title>virtualization__docker&#45;&gt;backup</title>
<path fill="none" stroke="#a6adc8" d="M2315.73,-940.92C2241.54,-946.99 2141.57,-954.39 2053.18,-958.29 1550.83,-980.43 940.41,-980.07 772.95,-979.49"/>
<polygon fill="#a6adc8" stroke="#a6adc8" points="772.97,-975.99 762.95,-979.45 772.94,-982.99 772.97,-975.99"/>
</g>
<!-- virtualization__docker&#45;&gt;host__self_provide_host_ -->
<g id="edge78" class="edge">
<title>virtualization__docker&#45;&gt;host__self_provide_host_</title>
<path fill="none" stroke="#a6adc8" d="M2275.62,-919.54C2207.69,-914.45 2126.42,-908.68 2053.18,-904.29 1857.2,-892.53 1808.21,-887.95 1611.93,-883.29 1500.05,-880.62 695.02,-827.11 604.78,-893.29 573.04,-916.56 605.04,-949.9 576.78,-977.29 573.57,-980.39 570.08,-983.19 566.38,-985.72"/>
<polygon fill="#a6adc8" stroke="#a6adc8" points="564.87,-982.55 558.1,-990.7 568.47,-988.55 564.87,-982.55"/>
</g>
<!-- virtualization -->
<g id="node15" class="node">
<title>virtualization</title>
<polygon fill="#89b4fa" stroke="#89b4fa" points="1906.18,-949.29 1794.93,-949.29 1794.93,-913.29 1906.18,-913.29 1906.18,-949.29"/>
<text text-anchor="middle" x="1850.56" y="-926.61" font-family="Times,serif" font-size="14.00" fill="#1e1e2e">virtualization</text>
</g>
<!-- virtualization__docker&#45;&gt;virtualization -->
<g id="edge84" class="edge">
<title>virtualization__docker&#45;&gt;virtualization</title>
<path fill="none" stroke="#a6adc8" d="M2308,-936.86C2190.17,-938.72 2013.43,-938.37 1918.14,-935.8"/>
<polygon fill="#a6adc8" stroke="#a6adc8" points="1918.27,-932.3 1908.17,-935.51 1918.06,-939.3 1918.27,-932.3"/>
</g>
<!-- host -->
<g id="node5" class="node">
<title>host</title>
<polygon fill="#89b4fa" stroke="#89b4fa" points="197.26,-899.29 143.26,-899.29 143.26,-863.29 197.26,-863.29 197.26,-899.29"/>
<text text-anchor="middle" x="170.26" y="-876.61" font-family="Times,serif" font-size="14.00" fill="#1e1e2e">host</text>
</g>
<!-- host&#45;&gt;web_server -->
<g id="edge43" class="edge">
<title>host&#45;&gt;web_server</title>
<path fill="none" stroke="#a6adc8" d="M197.7,-876.68C233.05,-870.68 297.69,-860.26 353.28,-854.29 464.41,-842.34 594.8,-835.16 668.38,-831.73"/>
<polygon fill="#a6adc8" stroke="#a6adc8" points="668.34,-835.24 678.17,-831.29 668.02,-828.25 668.34,-835.24"/>
</g>
<!-- host&#45;&gt;host -->
<g id="edge38" class="edge">
<title>host&#45;&gt;host</title>
<path fill="none" stroke="#a6adc8" d="M142.9,-887.05C97.18,-899.64 106.3,-917.29 170.26,-917.29 228.73,-917.29 241.37,-902.54 208.19,-890.39"/>
<polygon fill="#a6adc8" stroke="#a6adc8" points="209.65,-887.18 199.06,-887.5 207.54,-893.86 209.65,-887.18"/>
</g>
<!-- host__aspect_host_ -->
<g id="node6" class="node">
<title>host__aspect_host_</title>
<polygon fill="#89b4fa" stroke="#89b4fa" points="538.15,-899.29 399.15,-899.29 399.15,-863.29 538.15,-863.29 538.15,-899.29"/>
<text text-anchor="middle" x="468.65" y="-876.61" font-family="Times,serif" font-size="14.00" fill="#1e1e2e">host/aspect(host)</text>
</g>
<!-- host&#45;&gt;host__aspect_host_ -->
<g id="edge39" class="edge">
<title>host&#45;&gt;host__aspect_host_</title>
<path fill="none" stroke="#a6adc8" d="M197.57,-877.24C239.8,-874.53 324.41,-873.86 387.73,-875.22"/>
<polygon fill="#a6adc8" stroke="#a6adc8" points="387.3,-878.71 397.38,-875.45 387.47,-871.71 387.3,-878.71"/>
</g>
<!-- host__cross_provide__anon__ -->
<g id="node7" class="node">
<title>host__cross_provide__anon__</title>
<polygon fill="#cba6f7" stroke="#cba6f7" points="576.78,-953.29 360.53,-953.29 360.53,-917.29 576.78,-917.29 576.78,-953.29"/>
<text text-anchor="middle" x="468.65" y="-930.61" font-family="Times,serif" font-size="14.00" fill="#1e1e2e">host/cross&#45;provide(&lt;anon&gt;)</text>
</g>
<!-- host&#45;&gt;host__cross_provide__anon__ -->
<g id="edge40" class="edge">
<title>host&#45;&gt;host__cross_provide__anon__</title>
<path fill="none" stroke="#a6adc8" d="M197.57,-886.08C232.9,-892.52 297.91,-904.36 355.29,-914.81"/>
<polygon fill="#a6adc8" stroke="#a6adc8" points="354.32,-918.2 364.79,-916.54 355.58,-911.31 354.32,-918.2"/>
</g>
<!-- n_default -->
<g id="node16" class="node">
<title>n_default</title>
<polygon fill="#fab387" stroke="#fab387" points="501.78,-662.29 435.53,-662.29 435.53,-626.29 501.78,-626.29 501.78,-662.29"/>
<text text-anchor="middle" x="468.65" y="-639.61" font-family="Times,serif" font-size="14.00" fill="#1e1e2e">default</text>
</g>
<!-- host&#45;&gt;n_default -->
<g id="edge27" class="edge">
<title>host&#45;&gt;n_default</title>
<path fill="none" stroke="#a6adc8" d="M181.55,-863.02C205.74,-821.82 270.52,-721.37 353.28,-671.29 374.53,-658.42 401.44,-651.69 423.82,-648.16"/>
<polygon fill="#a6adc8" stroke="#a6adc8" points="424.14,-651.65 433.56,-646.8 423.17,-644.72 424.14,-651.65"/>
</g>
<!-- default__cross_provide_host_ -->
<g id="node19" class="node">
<title>default__cross_provide_host_</title>
<polygon fill="#f9e2af" stroke="#f9e2af" points="572.65,-608.29 364.65,-608.29 364.65,-572.29 572.65,-572.29 572.65,-608.29"/>
<text text-anchor="middle" x="468.65" y="-585.61" font-family="Times,serif" font-size="14.00" fill="#1e1e2e">default/cross&#45;provide(host)</text>
</g>
<!-- host&#45;&gt;default__cross_provide_host_ -->
<g id="edge28" class="edge">
<title>host&#45;&gt;default__cross_provide_host_</title>
<path fill="none" stroke="#a6adc8" d="M178.26,-863.12C197.85,-814.79 258.13,-682.31 353.28,-617.29 354.9,-616.18 356.56,-615.11 358.25,-614.09"/>
<polygon fill="#a6adc8" stroke="#a6adc8" points="359.8,-617.23 366.97,-609.43 356.5,-611.06 359.8,-617.23"/>
</g>
<!-- default__cross_provide_user_ -->
<g id="node20" class="node">
<title>default__cross_provide_user_</title>
<polygon fill="#f9e2af" stroke="#f9e2af" points="573.03,-716.29 364.28,-716.29 364.28,-680.29 573.03,-680.29 573.03,-716.29"/>
<text text-anchor="middle" x="468.65" y="-693.61" font-family="Times,serif" font-size="14.00" fill="#1e1e2e">default/cross&#45;provide(user)</text>
</g>
<!-- host&#45;&gt;default__cross_provide_user_ -->
<g id="edge29" class="edge">
<title>host&#45;&gt;default__cross_provide_user_</title>
<path fill="none" stroke="#a6adc8" d="M187.03,-862.93C216.32,-830.05 282.6,-761.21 353.28,-725.29 356.31,-723.74 359.44,-722.28 362.64,-720.91"/>
<polygon fill="#a6adc8" stroke="#a6adc8" points="363.63,-724.28 371.63,-717.34 361.05,-717.77 363.63,-724.28"/>
</g>
<!-- default__self_provide_default_ -->
<g id="node21" class="node">
<title>default__self_provide_default_</title>
<polygon fill="#fab387" stroke="#fab387" points="576.03,-770.29 361.28,-770.29 361.28,-734.29 576.03,-734.29 576.03,-770.29"/>
<text text-anchor="middle" x="468.65" y="-747.61" font-family="Times,serif" font-size="14.00" fill="#1e1e2e">default/self&#45;provide(default)</text>
</g>
<!-- host&#45;&gt;default__self_provide_default_ -->
<g id="edge30" class="edge">
<title>host&#45;&gt;default__self_provide_default_</title>
<path fill="none" stroke="#a6adc8" d="M197.57,-869.84C246.21,-848.66 351.09,-803.02 414.89,-775.25"/>
<polygon fill="#a6adc8" stroke="#a6adc8" points="415.99,-778.59 423.76,-771.39 413.2,-772.17 415.99,-778.59"/>
</g>
<!-- hm_host -->
<g id="node25" class="node">
<title>hm_host</title>
<polygon fill="#cba6f7" stroke="#cba6f7" points="764.53,-523.29 690.78,-523.29 690.78,-487.29 764.53,-487.29 764.53,-523.29"/>
<text text-anchor="middle" x="727.65" y="-500.61" font-family="Times,serif" font-size="14.00" fill="#1e1e2e">hm&#45;host</text>
</g>
<!-- host&#45;&gt;hm_host -->
<g id="edge32" class="edge">
<title>host&#45;&gt;hm_host</title>
<path fill="none" stroke="#a6adc8" d="M175.61,-862.9C189.94,-806.81 241.23,-637.04 353.28,-560.29 453.15,-491.87 603.35,-493.56 679.21,-499.8"/>
<polygon fill="#a6adc8" stroke="#a6adc8" points="678.51,-503.25 688.78,-500.65 679.13,-496.28 678.51,-503.25"/>
</g>
<!-- hm_host__cross_provide_host_ -->
<g id="node27" class="node">
<title>hm_host__cross_provide_host_</title>
<polygon fill="#f2cdcd" stroke="#f2cdcd" points="835.4,-469.29 619.9,-469.29 619.9,-433.29 835.4,-433.29 835.4,-469.29"/>
<text text-anchor="middle" x="727.65" y="-446.61" font-family="Times,serif" font-size="14.00" fill="#1e1e2e">hm&#45;host/cross&#45;provide(host)</text>
</g>
<!-- host&#45;&gt;hm_host__cross_provide_host_ -->
<g id="edge33" class="edge">
<title>host&#45;&gt;hm_host__cross_provide_host_</title>
<path fill="none" stroke="#a6adc8" d="M173.6,-863.19C182.81,-800.01 222.72,-588.07 353.28,-494.29 393.06,-465.71 514.62,-455.86 608.34,-452.6"/>
<polygon fill="#a6adc8" stroke="#a6adc8" points="608.23,-456.11 618.11,-452.29 608,-449.11 608.23,-456.11"/>
</g>
<!-- hm_host__self_provide_hm_host_ -->
<g id="node28" class="node">
<title>hm_host__self_provide_hm_host_</title>
<polygon fill="#cba6f7" stroke="#cba6f7" points="842.53,-415.29 612.78,-415.29 612.78,-379.29 842.53,-379.29 842.53,-415.29"/>
<text text-anchor="middle" x="727.65" y="-392.61" font-family="Times,serif" font-size="14.00" fill="#1e1e2e">hm&#45;host/self&#45;provide(hm&#45;host)</text>
</g>
<!-- host&#45;&gt;hm_host__self_provide_hm_host_ -->
<g id="edge34" class="edge">
<title>host&#45;&gt;hm_host__self_provide_hm_host_</title>
<path fill="none" stroke="#a6adc8" d="M172.78,-863.22C179.48,-795.98 212.65,-558.55 353.28,-450.29 422.99,-396.61 522.41,-384.68 601.13,-385.46"/>
<polygon fill="#a6adc8" stroke="#a6adc8" points="601.01,-388.96 611.08,-385.64 601.14,-381.96 601.01,-388.96"/>
</g>
<!-- hm_user -->
<g id="node29" class="node">
<title>hm_user</title>
<polygon fill="#fab387" stroke="#fab387" points="1066.32,-330.29 991.82,-330.29 991.82,-294.29 1066.32,-294.29 1066.32,-330.29"/>
<text text-anchor="middle" x="1029.07" y="-307.61" font-family="Times,serif" font-size="14.00" fill="#1e1e2e">hm&#45;user</text>
</g>
<!-- host&#45;&gt;hm_user -->
<g id="edge35" class="edge">
<title>host&#45;&gt;hm_user</title>
<path fill="none" stroke="#a6adc8" d="M171.53,-862.88C173.68,-788.43 192.55,-507.59 353.28,-382.29 543.37,-234.08 860.76,-278.1 980.45,-301.72"/>
<polygon fill="#a6adc8" stroke="#a6adc8" points="979.43,-305.08 989.92,-303.63 980.81,-298.22 979.43,-305.08"/>
</g>
<!-- hm_user__cross_provide_hm_host_ -->
<g id="node31" class="node">
<title>hm_user__cross_provide_hm_host_</title>
<polygon fill="#a6e3a1" stroke="#a6e3a1" points="1150.69,-222.29 907.44,-222.29 907.44,-186.29 1150.69,-186.29 1150.69,-222.29"/>
<text text-anchor="middle" x="1029.07" y="-199.61" font-family="Times,serif" font-size="14.00" fill="#1e1e2e">hm&#45;user/cross&#45;provide(hm&#45;host)</text>
</g>
<!-- host&#45;&gt;hm_user__cross_provide_hm_host_ -->
<g id="edge36" class="edge">
<title>host&#45;&gt;hm_user__cross_provide_hm_host_</title>
<path fill="none" stroke="#a6adc8" d="M174.19,-862.9C189.11,-771.46 259.77,-366.79 353.28,-288.29 511.45,-155.49 768.56,-164.96 915.53,-184.27"/>
<polygon fill="#a6adc8" stroke="#a6adc8" points="914.91,-187.72 925.29,-185.6 915.85,-180.79 914.91,-187.72"/>
</g>
<!-- hm_user__self_provide_hm_user_ -->
<g id="node32" class="node">
<title>hm_user__self_provide_hm_user_</title>
<polygon fill="#fab387" stroke="#fab387" points="1144.69,-276.29 913.44,-276.29 913.44,-240.29 1144.69,-240.29 1144.69,-276.29"/>
<text text-anchor="middle" x="1029.07" y="-253.61" font-family="Times,serif" font-size="14.00" fill="#1e1e2e">hm&#45;user/self&#45;provide(hm&#45;user)</text>
</g>
<!-- host&#45;&gt;hm_user__self_provide_hm_user_ -->
<g id="edge37" class="edge">
<title>host&#45;&gt;hm_user__self_provide_hm_user_</title>
<path fill="none" stroke="#a6adc8" d="M171.81,-863.23C175.07,-790.14 197.64,-513.86 353.28,-382.29 434.34,-313.75 729.66,-280.54 901.57,-266.69"/>
<polygon fill="#a6adc8" stroke="#a6adc8" points="901.76,-270.18 911.45,-265.9 901.21,-263.2 901.76,-270.18"/>
</g>
<!-- deploy -->
<g id="node33" class="node">
<title>deploy</title>
<polygon fill="#f2cdcd" stroke="#f2cdcd" points="1882.18,-83.29 1818.93,-83.29 1818.93,-47.29 1882.18,-47.29 1882.18,-83.29"/>
<text text-anchor="middle" x="1850.56" y="-60.61" font-family="Times,serif" font-size="14.00" fill="#1e1e2e">deploy</text>
</g>
<!-- host&#45;&gt;deploy -->
<g id="edge31" class="edge">
<title>host&#45;&gt;deploy</title>
<path fill="none" stroke="#a6adc8" d="M172.56,-863.07C180.78,-753.13 229.28,-179.09 353.28,-66.29 477,46.26 559.4,-19.29 726.65,-19.29 726.65,-19.29 726.65,-19.29 1030.07,-19.29 1288.81,-19.29 1353.87,-19.44 1611.93,-38.29 1680.45,-43.29 1759.68,-53.11 1807.14,-59.42"/>
<polygon fill="#a6adc8" stroke="#a6adc8" points="1806.61,-62.88 1816.99,-60.75 1807.55,-55.95 1806.61,-62.88"/>
</g>
<!-- user -->
<g id="node34" class="node">
<title>user</title>
<polygon fill="#f2cdcd" stroke="#f2cdcd" points="1440.77,-83.29 1386.77,-83.29 1386.77,-47.29 1440.77,-47.29 1440.77,-83.29"/>
<text text-anchor="middle" x="1413.77" y="-60.61" font-family="Times,serif" font-size="14.00" fill="#1e1e2e">user</text>
</g>
<!-- host&#45;&gt;user -->
<g id="edge41" class="edge">
<title>host&#45;&gt;user</title>
<path fill="none" stroke="#a6adc8" d="M172.72,-862.91C181.63,-755.76 232.37,-212.79 353.28,-110.29 432.51,-43.11 1195.5,-59.4 1375.06,-64.2"/>
<polygon fill="#a6adc8" stroke="#a6adc8" points="1374.9,-67.7 1384.99,-64.47 1375.09,-60.7 1374.9,-67.7"/>
</g>
<!-- user__cross_provide_host_ -->
<g id="node36" class="node">
<title>user__cross_provide_host_</title>
<polygon fill="#f38ba8" stroke="#f38ba8" points="1508.4,-137.29 1319.15,-137.29 1319.15,-101.29 1508.4,-101.29 1508.4,-137.29"/>
<text text-anchor="middle" x="1413.77" y="-114.61" font-family="Times,serif" font-size="14.00" fill="#1e1e2e">user/cross&#45;provide(host)</text>
</g>
<!-- host&#45;&gt;user__cross_provide_host_ -->
<g id="edge42" class="edge">
<title>host&#45;&gt;user__cross_provide_host_</title>
<path fill="none" stroke="#a6adc8" d="M173.19,-863.06C184.22,-762.46 242.8,-276.33 353.28,-185.29 496.36,-67.37 1069.01,-94.04 1307.59,-110.86"/>
<polygon fill="#a6adc8" stroke="#a6adc8" points="1307.31,-114.34 1317.53,-111.57 1307.81,-107.36 1307.31,-114.34"/>
</g>
<!-- host__aspect_host_&#45;&gt;host -->
<g id="edge44" class="edge">
<title>host__aspect_host_&#45;&gt;host</title>
<path fill="none" stroke="#a6adc8" d="M398.9,-887.09C339.74,-888.65 256.6,-888.28 208.89,-885.96"/>
<polygon fill="#a6adc8" stroke="#a6adc8" points="209.26,-882.48 199.08,-885.42 208.87,-889.47 209.26,-882.48"/>
</g>
<!-- host__cross_provide__anon__&#45;&gt;n_default -->
<g id="edge45" class="edge">
<title>host__cross_provide__anon__&#45;&gt;n_default</title>
<path fill="none" stroke="#a6adc8" d="M360.19,-921.17C351.47,-915.73 344.05,-908.59 338.9,-899.29 327.11,-878 327.11,-701.57 338.9,-680.29 354.97,-651.27 393.08,-643.36 423.86,-642.07"/>
<polygon fill="#a6adc8" stroke="#a6adc8" points="423.79,-645.57 433.73,-641.9 423.67,-638.57 423.79,-645.57"/>
</g>
<!-- host__self_provide_host_&#45;&gt;backup -->
<g id="edge46" class="edge">
<title>host__self_provide_host_&#45;&gt;backup</title>
<path fill="none" stroke="#a6adc8" d="M557.02,-992.65C599.38,-987.03 648.4,-981.71 682.82,-979.17"/>
<polygon fill="#a6adc8" stroke="#a6adc8" points="682.65,-982.69 692.39,-978.53 682.18,-975.71 682.65,-982.69"/>
</g>
<!-- host__self_provide_host_&#45;&gt;server -->
<g id="edge47" class="edge">
<title>host__self_provide_host_&#45;&gt;server</title>
<path fill="none" stroke="#a6adc8" d="M556.9,-1005.32C678.88,-1004.22 895.59,-1007.37 986.31,-1012"/>
<polygon fill="#a6adc8" stroke="#a6adc8" points="986.06,-1015.49 996.24,-1012.54 986.44,-1008.5 986.06,-1015.49"/>
</g>
<!-- monitoring&#45;&gt;host__self_provide_host_ -->
<g id="edge48" class="edge">
<title>monitoring&#45;&gt;host__self_provide_host_</title>
<path fill="none" stroke="#a6adc8" d="M2379.5,-1108.95C2255,-1123.72 1904.74,-1163.19 1611.93,-1176.29 1435.96,-1184.16 1391.66,-1182.02 1215.61,-1176.29 1065.56,-1171.39 1027.86,-1169.77 878.53,-1154.29 756.29,-1141.61 717.81,-1163.52 604.78,-1115.29 561.17,-1096.67 519.59,-1060.28 494.36,-1035.38"/>
<polygon fill="#a6adc8" stroke="#a6adc8" points="497.04,-1033.12 487.51,-1028.49 492.08,-1038.05 497.04,-1033.12"/>
</g>
<!-- monitoring__node_exporter -->
<g id="node12" class="node">
<title>monitoring__node_exporter</title>
<polygon fill="#f2cdcd" stroke="#f2cdcd" points="1529.5,-1113.29 1298.04,-1113.29 1215.61,-1077.29 1611.93,-1077.29 1529.5,-1113.29"/>
<text text-anchor="middle" x="1413.77" y="-1090.61" font-family="Times,serif" font-size="14.00" fill="#1e1e2e">monitoring/node&#45;exporter</text>
</g>
<!-- monitoring&#45;&gt;monitoring__node_exporter -->
<g id="edge49" class="edge">
<title>monitoring&#45;&gt;monitoring__node_exporter</title>
<path fill="none" stroke="#a6adc8" d="M2379.35,-1105.97C2236.78,-1108.99 1803.81,-1106.22 1569.43,-1101.53"/>
<polygon fill="#a6adc8" stroke="#a6adc8" points="1569.66,-1098.03 1559.59,-1101.33 1569.52,-1105.03 1569.66,-1098.03"/>
</g>
<!-- networking -->
<g id="node10" class="node">
<title>networking</title>
<polygon fill="#89b4fa" stroke="#89b4fa" points="1462.27,-1167.29 1365.27,-1167.29 1365.27,-1131.29 1462.27,-1131.29 1462.27,-1167.29"/>
<text text-anchor="middle" x="1413.77" y="-1144.61" font-family="Times,serif" font-size="14.00" fill="#1e1e2e">networking</text>
</g>
<!-- networking&#45;&gt;host__self_provide_host_ -->
<g id="edge56" class="edge">
<title>networking&#45;&gt;host__self_provide_host_</title>
<path fill="none" stroke="#a6adc8" d="M1364.96,-1152.66C1237.87,-1160.13 882.38,-1171.13 604.78,-1085.29 568.07,-1073.93 530.28,-1051.61 504.03,-1034.08"/>
<polygon fill="#a6adc8" stroke="#a6adc8" points="506.05,-1031.22 495.81,-1028.48 502.1,-1037 506.05,-1031.22"/>
</g>
<!-- networking&#45;&gt;monitoring -->
<g id="edge57" class="edge">
<title>networking&#45;&gt;monitoring</title>
<path fill="none" stroke="#a6adc8" d="M1462.54,-1147.11C1629.4,-1139.52 2186.08,-1114.21 2368.09,-1105.93"/>
<polygon fill="#a6adc8" stroke="#a6adc8" points="2368.18,-1109.43 2378.02,-1105.48 2367.87,-1102.44 2368.18,-1109.43"/>
</g>
<!-- monitoring__nginx_exporter -->
<g id="node11" class="node">
<title>monitoring__nginx_exporter</title>
<polygon fill="#89b4fa" stroke="#89b4fa" points="1968.89,-1084.29 1732.22,-1084.29 1647.93,-1048.29 2053.18,-1048.29 1968.89,-1084.29"/>
<text text-anchor="middle" x="1850.56" y="-1061.61" font-family="Times,serif" font-size="14.00" fill="#1e1e2e">monitoring/nginx&#45;exporter</text>
</g>
<!-- monitoring__nginx_exporter&#45;&gt;monitoring__alerting -->
<g id="edge52" class="edge">
<title>monitoring__nginx_exporter&#45;&gt;monitoring__alerting</title>
<path fill="none" stroke="#a6adc8" d="M1820.25,-1084.78C1776.77,-1111.05 1691.69,-1158 1611.93,-1176.29 1359.83,-1234.08 1288.71,-1186.29 1030.07,-1186.29 726.65,-1186.29 726.65,-1186.29 726.65,-1186.29 537.12,-1186.29 321.94,-1108.68 224.37,-1069.02"/>
<polygon fill="#a6adc8" stroke="#a6adc8" points="225.88,-1065.86 215.3,-1065.31 223.22,-1072.34 225.88,-1065.86"/>
</g>
<!-- monitoring__nginx_exporter&#45;&gt;host__self_provide_host_ -->
<g id="edge53" class="edge">
<title>monitoring__nginx_exporter&#45;&gt;host__self_provide_host_</title>
<path fill="none" stroke="#a6adc8" d="M1687.08,-1065.38C1494.15,-1063.62 1162.68,-1058.45 878.53,-1043.29 772.38,-1037.62 651.04,-1027.01 568.3,-1019.14"/>
<polygon fill="#a6adc8" stroke="#a6adc8" points="568.68,-1015.66 558.39,-1018.19 568.01,-1022.63 568.68,-1015.66"/>
</g>
<!-- monitoring__nginx_exporter&#45;&gt;monitoring -->
<g id="edge82" class="edge">
<title>monitoring__nginx_exporter&#45;&gt;monitoring</title>
<path fill="none" stroke="#a6adc8" d="M1991.03,-1075.27C2111.84,-1083.04 2280.59,-1093.91 2368.23,-1099.55"/>
<polygon fill="#a6adc8" stroke="#a6adc8" points="2367.81,-1103.03 2378.02,-1100.18 2368.26,-1096.05 2367.81,-1103.03"/>
</g>
<!-- monitoring__node_exporter&#45;&gt;host__self_provide_host_ -->
<g id="edge54" class="edge">
<title>monitoring__node_exporter&#45;&gt;host__self_provide_host_</title>
<path fill="none" stroke="#a6adc8" d="M1275.56,-1103.88C1113.39,-1110.84 836.31,-1112.61 604.78,-1063.29 574.15,-1056.76 541.52,-1043.9 515.99,-1032.37"/>
<polygon fill="#a6adc8" stroke="#a6adc8" points="517.78,-1029.34 507.24,-1028.33 514.85,-1035.7 517.78,-1029.34"/>
</g>
<!-- monitoring__node_exporter&#45;&gt;monitoring -->
<g id="edge81" class="edge">
<title>monitoring__node_exporter&#45;&gt;monitoring</title>
<path fill="none" stroke="#a6adc8" d="M1580.66,-1091.44C1811.43,-1090.65 2217.92,-1094.47 2368.23,-1099.47"/>
<polygon fill="#a6adc8" stroke="#a6adc8" points="2367.82,-1102.96 2377.93,-1099.81 2368.06,-1095.96 2367.82,-1102.96"/>
</g>
<!-- monitoring__node_exporter&#45;&gt;monitoring__nginx_exporter -->
<g id="edge55" class="edge">
<title>monitoring__node_exporter&#45;&gt;monitoring__nginx_exporter</title>
<path fill="none" stroke="#a6adc8" d="M1600.1,-1082.92C1633.26,-1080.71 1667.44,-1078.43 1699.46,-1076.3"/>
<polygon fill="#a6adc8" stroke="#a6adc8" points="1699.44,-1079.81 1709.18,-1075.65 1698.97,-1072.82 1699.44,-1079.81"/>
</g>
<!-- server&#45;&gt;web_server -->
<g id="edge68" class="edge">
<title>server&#45;&gt;web_server</title>
<path fill="none" stroke="#a6adc8" d="M1017.2,-997.93C990.98,-961.29 920.59,-880.85 842.53,-842.29 825.48,-833.87 805.52,-828.66 787.12,-825.9"/>
<polygon fill="#a6adc8" stroke="#a6adc8" points="787.76,-822.46 777.4,-824.68 786.88,-829.4 787.76,-822.46"/>
</g>
<!-- server&#45;&gt;monitoring__alerting -->
<g id="edge58" class="edge">
<title>server&#45;&gt;monitoring__alerting</title>
<path fill="none" stroke="#a6adc8" d="M997.7,-1017.84C925.02,-1021.51 735.3,-1030.82 576.78,-1036.29 487.72,-1039.36 387.64,-1041.83 309.18,-1043.56"/>
<polygon fill="#a6adc8" stroke="#a6adc8" points="309.2,-1040.05 299.28,-1043.77 309.36,-1047.05 309.2,-1040.05"/>
</g>
<!-- server&#45;&gt;backup -->
<g id="edge59" class="edge">
<title>server&#45;&gt;backup</title>
<path fill="none" stroke="#a6adc8" d="M997.8,-1016.82C944.69,-1013.31 834.48,-999.92 772.83,-989.7"/>
<polygon fill="#a6adc8" stroke="#a6adc8" points="773.49,-986.26 763.04,-988.02 772.31,-993.16 773.49,-986.26"/>
</g>
<!-- server&#45;&gt;virtualization__docker -->
<g id="edge60" class="edge">
<title>server&#45;&gt;virtualization__docker</title>
<path fill="none" stroke="#a6adc8" d="M1060.19,-1015.75C1207.49,-1013.05 1852.87,-1000.43 2053.18,-983.29 2142.57,-975.63 2243.3,-961.25 2317.53,-949.54"/>
<polygon fill="#a6adc8" stroke="#a6adc8" points="2317.93,-953.02 2327.26,-948 2316.83,-946.11 2317.93,-953.02"/>
</g>
<!-- server&#45;&gt;host__self_provide_host_ -->
<g id="edge61" class="edge">
<title>server&#45;&gt;host__self_provide_host_</title>
<path fill="none" stroke="#a6adc8" d="M997.75,-1019.18C917.66,-1021.99 697.76,-1019.91 568.36,-1015.82"/>
<polygon fill="#a6adc8" stroke="#a6adc8" points="568.52,-1012.32 558.42,-1015.49 568.3,-1019.32 568.52,-1012.32"/>
</g>
<!-- server&#45;&gt;monitoring -->
<g id="edge62" class="edge">
<title>server&#45;&gt;monitoring</title>
<path fill="none" stroke="#a6adc8" d="M1060.21,-1016.32C1207.57,-1016.57 1853.24,-1018.83 2053.18,-1039.29 2165.49,-1050.77 2295.07,-1075.67 2368.16,-1090.8"/>
<polygon fill="#a6adc8" stroke="#a6adc8" points="2367.41,-1094.22 2377.91,-1092.83 2368.83,-1087.37 2367.41,-1094.22"/>
</g>
<!-- server&#45;&gt;networking -->
<g id="edge63" class="edge">
<title>server&#45;&gt;networking</title>
<path fill="none" stroke="#a6adc8" d="M1054.99,-1034.72C1089.27,-1059.05 1153.79,-1101.28 1215.61,-1122.29 1260.42,-1137.51 1313.72,-1144.17 1353.6,-1147.08"/>
<polygon fill="#a6adc8" stroke="#a6adc8" points="1353.28,-1150.56 1363.49,-1147.73 1353.74,-1143.58 1353.28,-1150.56"/>
</g>
<!-- server&#45;&gt;monitoring__nginx_exporter -->
<g id="edge64" class="edge">
<title>server&#45;&gt;monitoring__nginx_exporter</title>
<path fill="none" stroke="#a6adc8" d="M1060.21,-1018.12C1154.51,-1023.88 1449.65,-1041.89 1651.06,-1054.17"/>
<polygon fill="#a6adc8" stroke="#a6adc8" points="1650.68,-1057.66 1660.87,-1054.77 1651.1,-1050.67 1650.68,-1057.66"/>
</g>
<!-- server&#45;&gt;monitoring__node_exporter -->
<g id="edge65" class="edge">
<title>server&#45;&gt;monitoring__node_exporter</title>
<path fill="none" stroke="#a6adc8" d="M1060.42,-1022.55C1114.14,-1033.64 1228.2,-1057.18 1312.05,-1074.49"/>
<polygon fill="#a6adc8" stroke="#a6adc8" points="1311.18,-1077.89 1321.68,-1076.48 1312.59,-1071.03 1311.18,-1077.89"/>
</g>
<!-- server&#45;&gt;tailscale -->
<g id="edge66" class="edge">
<title>server&#45;&gt;tailscale</title>
<path fill="none" stroke="#a6adc8" d="M1060.14,-1004.34C1096.46,-990.32 1159.66,-967.22 1215.61,-953.29 1265.68,-940.81 1324.16,-932.03 1364.36,-926.86"/>
<polygon fill="#a6adc8" stroke="#a6adc8" points="1364.71,-930.34 1374.2,-925.62 1363.84,-923.4 1364.71,-930.34"/>
</g>
<!-- server&#45;&gt;virtualization -->
<g id="edge67" class="edge">
<title>server&#45;&gt;virtualization</title>
<path fill="none" stroke="#a6adc8" d="M1060.25,-1012.3C1096.94,-1007.51 1160.77,-999.37 1215.61,-993.29 1422.56,-970.34 1668.02,-947.61 1783.39,-937.19"/>
<polygon fill="#a6adc8" stroke="#a6adc8" points="1783.66,-940.68 1793.3,-936.3 1783.03,-933.71 1783.66,-940.68"/>
</g>
<!-- tailscale&#45;&gt;host__self_provide_host_ -->
<g id="edge69" class="edge">
<title>tailscale&#45;&gt;host__self_provide_host_</title>
<path fill="none" stroke="#a6adc8" d="M1375.95,-919.44C1237.29,-912.97 747.32,-894.76 604.78,-952.29 589.3,-958.53 591.34,-969.15 576.78,-977.29 570.6,-980.73 564.02,-983.85 557.27,-986.66"/>
<polygon fill="#a6adc8" stroke="#a6adc8" points="556.01,-983.39 547.96,-990.27 558.55,-989.91 556.01,-983.39"/>
</g>
<!-- tailscale&#45;&gt;virtualization -->
<g id="edge70" class="edge">
<title>tailscale&#45;&gt;virtualization</title>
<path fill="none" stroke="#a6adc8" d="M1451.84,-922.14C1525.3,-923.83 1690.24,-927.62 1782.98,-929.75"/>
<polygon fill="#a6adc8" stroke="#a6adc8" points="1782.88,-933.25 1792.96,-929.98 1783.04,-926.25 1782.88,-933.25"/>
</g>
<!-- virtualization&#45;&gt;virtualization__docker -->
<g id="edge75" class="edge">
<title>virtualization&#45;&gt;virtualization__docker</title>
<path fill="none" stroke="#a6adc8" d="M1906.66,-927.11C1990.77,-924.48 2154.17,-923.87 2275.38,-925.26"/>
<polygon fill="#a6adc8" stroke="#a6adc8" points="2275.04,-928.76 2285.09,-925.38 2275.13,-921.76 2275.04,-928.76"/>
</g>
<!-- virtualization&#45;&gt;host__self_provide_host_ -->
<g id="edge76" class="edge">
<title>virtualization&#45;&gt;host__self_provide_host_</title>
<path fill="none" stroke="#a6adc8" d="M1794.62,-920.26C1746.64,-911.23 1675,-899.17 1611.93,-894.29 1436.31,-880.69 1391.73,-891.69 1215.61,-894.29 1181.66,-894.79 632.86,-893.21 604.78,-912.29 578.76,-929.96 600.27,-956.38 576.78,-977.29 573.58,-980.13 570.14,-982.72 566.52,-985.08"/>
<polygon fill="#a6adc8" stroke="#a6adc8" points="564.8,-982.04 557.88,-990.06 568.29,-988.1 564.8,-982.04"/>
</g>
<!-- default__aspect_default_ -->
<g id="node17" class="node">
<title>default__aspect_default_</title>
<polygon fill="#a6e3a1" stroke="#a6e3a1" points="816.65,-702.29 638.65,-702.29 638.65,-666.29 816.65,-666.29 816.65,-702.29"/>
<text text-anchor="middle" x="727.65" y="-679.61" font-family="Times,serif" font-size="14.00" fill="#1e1e2e">default/aspect(default)</text>
</g>
<!-- n_default&#45;&gt;default__aspect_default_ -->
<g id="edge3" class="edge">
<title>n_default&#45;&gt;default__aspect_default_</title>
<path fill="none" stroke="#a6adc8" d="M502.2,-649.35C533.64,-654.24 582.88,-661.91 627.25,-668.81"/>
<polygon fill="#a6adc8" stroke="#a6adc8" points="626.49,-672.24 636.91,-670.32 627.57,-665.32 626.49,-672.24"/>
</g>
<!-- den__provides__define_user -->
<g id="node22" class="node">
<title>den__provides__define_user</title>
<polygon fill="#a6e3a1" stroke="#a6e3a1" points="1507.34,-710.29 1320.2,-710.29 1253.56,-674.29 1573.99,-674.29 1507.34,-710.29"/>
<text text-anchor="middle" x="1413.77" y="-687.61" font-family="Times,serif" font-size="14.00" fill="#1e1e2e">provides/define&#45;user</text>
</g>
<!-- n_default&#45;&gt;den__provides__define_user -->
<g id="edge4" class="edge">
<title>n_default&#45;&gt;den__provides__define_user</title>
<path fill="none" stroke="#a6adc8" d="M502.08,-645.13C566.82,-646.87 716.68,-651.23 842.53,-657.29 982.51,-664.02 1141.68,-673.98 1256.22,-681.56"/>
<polygon fill="#a6adc8" stroke="#a6adc8" points="1255.79,-685.04 1266,-682.21 1256.26,-678.05 1255.79,-685.04"/>
</g>
<!-- den__provides__hostname -->
<g id="node23" class="node">
<title>den__provides__hostname</title>
<polygon fill="#fab387" stroke="#fab387" points="1116.99,-739.29 941.15,-739.29 878.53,-703.29 1179.61,-703.29 1116.99,-739.29"/>
<text text-anchor="middle" x="1029.07" y="-716.61" font-family="Times,serif" font-size="14.00" fill="#1e1e2e">provides/hostname</text>
</g>
<!-- n_default&#45;&gt;den__provides__hostname -->
<g id="edge5" class="edge">
<title>n_default&#45;&gt;den__provides__hostname</title>
<path fill="none" stroke="#a6adc8" d="M502.08,-646.51C524.7,-649.4 554.67,-656.05 576.78,-671.29 594.64,-683.6 585.65,-701.04 604.78,-711.29 708.08,-766.63 846.89,-756.92 936.91,-741.72"/>
<polygon fill="#a6adc8" stroke="#a6adc8" points="937.45,-745.18 946.7,-740 936.24,-738.28 937.45,-745.18"/>
</g>
<!-- den__provides__mutual_provider -->
<g id="node24" class="node">
<title>den__provides__mutual_provider</title>
<polygon fill="#f9e2af" stroke="#f9e2af" points="1964.98,-673.29 1736.13,-673.29 1654.63,-637.29 2046.48,-637.29 1964.98,-673.29"/>
<text text-anchor="middle" x="1850.56" y="-650.61" font-family="Times,serif" font-size="14.00" fill="#1e1e2e">provides/mutual&#45;provider</text>
</g>
<!-- n_default&#45;&gt;den__provides__mutual_provider -->
<g id="edge6" class="edge">
<title>n_default&#45;&gt;den__provides__mutual_provider</title>
<path fill="none" stroke="#a6adc8" d="M502.07,-639.11C566.79,-634.95 716.62,-634.6 842.53,-635.29 1128.66,-636.85 1460.51,-640.91 1662.68,-645.99"/>
<polygon fill="#a6adc8" stroke="#a6adc8" points="1662.41,-649.48 1672.5,-646.24 1662.59,-642.48 1662.41,-649.48"/>
</g>
<!-- default__aspect_default_&#45;&gt;den__provides__define_user -->
<g id="edge7" class="edge">
<title>default__aspect_default_&#45;&gt;den__provides__define_user</title>
<path fill="none" stroke="#a6adc8" d="M817.04,-680.61C929.37,-679.59 1125.05,-681.55 1261.37,-684.8"/>
<polygon fill="#a6adc8" stroke="#a6adc8" points="1261.12,-688.29 1271.21,-685.04 1261.29,-681.3 1261.12,-688.29"/>
</g>
<!-- default__aspect_default_&#45;&gt;den__provides__hostname -->
<g id="edge8" class="edge">
<title>default__aspect_default_&#45;&gt;den__provides__hostname</title>
<path fill="none" stroke="#a6adc8" d="M816.87,-688.97C848.79,-692.33 885.23,-696.73 918.76,-701.25"/>
<polygon fill="#a6adc8" stroke="#a6adc8" points="918.12,-704.7 928.5,-702.58 919.07,-697.76 918.12,-704.7"/>
</g>
<!-- default__aspect_default_&#45;&gt;den__provides__mutual_provider -->
<g id="edge9" class="edge">
<title>default__aspect_default_&#45;&gt;den__provides__mutual_provider</title>
<path fill="none" stroke="#a6adc8" d="M817.04,-673.62C914.6,-666.88 1076.27,-660.1 1215.61,-656.29 1368.75,-652.09 1542.74,-649.5 1669.66,-649.46"/>
<polygon fill="#a6adc8" stroke="#a6adc8" points="1669.51,-652.96 1679.51,-649.46 1669.51,-645.96 1669.51,-652.96"/>
</g>
<!-- den__provides__default__aspect_default__den__provides -->
<g id="node18" class="node">
<title>den__provides__default__aspect_default__den__provides</title>
<polygon fill="#a6e3a1" stroke="#a6e3a1" points="2624.64,-710.29 2229.8,-710.29 2089.18,-674.29 2765.26,-674.29 2624.64,-710.29"/>
<text text-anchor="middle" x="2427.22" y="-687.61" font-family="Times,serif" font-size="14.00" fill="#1e1e2e">provides/default/aspect(default):den/provides</text>
</g>
<!-- default__cross_provide_host_&#45;&gt;hm_host -->
<g id="edge10" class="edge">
<title>default__cross_provide_host_&#45;&gt;hm_host</title>
<path fill="none" stroke="#a6adc8" d="M525.42,-571.84C571.45,-556.61 636.07,-535.25 679.54,-520.86"/>
<polygon fill="#a6adc8" stroke="#a6adc8" points="680.56,-524.22 688.96,-517.75 678.36,-517.57 680.56,-524.22"/>
</g>
<!-- den__provides__define_user&#45;&gt;default__aspect_default_ -->
<g id="edge11" class="edge">
<title>den__provides__define_user&#45;&gt;default__aspect_default_</title>
<path fill="none" stroke="#a6adc8" d="M1293.01,-696.16C1161.15,-696.69 951.56,-694.13 828.32,-690.38"/>
<polygon fill="#a6adc8" stroke="#a6adc8" points="828.65,-686.89 818.55,-690.08 828.43,-693.89 828.65,-686.89"/>
</g>
<!-- den__provides__define_user&#45;&gt;den__provides__default__aspect_default__den__provides -->
<g id="edge12" class="edge">
<title>den__provides__define_user&#45;&gt;den__provides__default__aspect_default__den__provides</title>
<path fill="none" stroke="#a6adc8" d="M1541.59,-692.29C1692.33,-692.29 1948.33,-692.29 2146.27,-692.29"/>
<polygon fill="#a6adc8" stroke="#a6adc8" points="2146.22,-695.79 2156.22,-692.29 2146.22,-688.79 2146.22,-695.79"/>
</g>
<!-- den__provides__define_user&#45;&gt;den__provides__mutual_provider -->
<g id="edge13" class="edge">
<title>den__provides__define_user&#45;&gt;den__provides__mutual_provider</title>
<path fill="none" stroke="#a6adc8" d="M1565.31,-679.47C1611.67,-675.53 1662.51,-671.2 1708.23,-667.31"/>
<polygon fill="#a6adc8" stroke="#a6adc8" points="1708.25,-670.82 1717.91,-666.49 1707.65,-663.85 1708.25,-670.82"/>
</g>
<!-- den__provides__hostname&#45;&gt;default__aspect_default_ -->
<g id="edge14" class="edge">
<title>den__provides__hostname&#45;&gt;default__aspect_default_</title>
<path fill="none" stroke="#a6adc8" d="M891.33,-711.12C869.99,-708.55 848.29,-705.76 827.99,-702.96"/>
<polygon fill="#a6adc8" stroke="#a6adc8" points="828.75,-699.53 818.36,-701.61 827.78,-706.46 828.75,-699.53"/>
</g>
<!-- den__provides__hostname&#45;&gt;den__provides__default__aspect_default__den__provides -->
<g id="edge15" class="edge">
<title>den__provides__hostname&#45;&gt;den__provides__default__aspect_default__den__provides</title>
<path fill="none" stroke="#a6adc8" d="M1148.21,-721.91C1265.77,-722.28 1451.34,-722.22 1611.93,-719.29 1804.27,-715.77 2022.06,-708.37 2183.98,-702.2"/>
<polygon fill="#a6adc8" stroke="#a6adc8" points="2183.68,-705.72 2193.54,-701.84 2183.41,-698.72 2183.68,-705.72"/>
</g>
<!-- den__provides__hostname&#45;&gt;den__provides__define_user -->
<g id="edge16" class="edge">
<title>den__provides__hostname&#45;&gt;den__provides__define_user</title>
<path fill="none" stroke="#a6adc8" d="M1167.15,-710.9C1207.27,-707.86 1250.85,-704.56 1290.02,-701.59"/>
<polygon fill="#a6adc8" stroke="#a6adc8" points="1290.26,-705.08 1299.97,-700.83 1289.73,-698.1 1290.26,-705.08"/>
</g>
<!-- den__provides__mutual_provider&#45;&gt;n_default -->
<g id="edge17" class="edge">
<title>den__provides__mutual_provider&#45;&gt;n_default</title>
<path fill="none" stroke="#a6adc8" d="M1703.64,-659.3C1507.76,-659.5 1148.93,-654.96 842.53,-653.29 723.5,-652.64 583.11,-652.92 513.43,-649.8"/>
<polygon fill="#a6adc8" stroke="#a6adc8" points="513.75,-646.31 503.58,-649.3 513.39,-653.3 513.75,-646.31"/>
</g>
<!-- den__provides__mutual_provider&#45;&gt;default__aspect_default_ -->
<g id="edge18" class="edge">
<title>den__provides__mutual_provider&#45;&gt;default__aspect_default_</title>
<path fill="none" stroke="#a6adc8" d="M1712.89,-663.5C1584.49,-666.91 1386.99,-669.59 1215.61,-674.29 1081.58,-677.96 926.88,-684.36 828.46,-686.58"/>
<polygon fill="#a6adc8" stroke="#a6adc8" points="828.48,-683.08 818.56,-686.79 828.63,-690.07 828.48,-683.08"/>
</g>
<!-- den__provides__mutual_provider&#45;&gt;den__provides__default__aspect_default__den__provides -->
<g id="edge19" class="edge">
<title>den__provides__mutual_provider&#45;&gt;den__provides__default__aspect_default__den__provides</title>
<path fill="none" stroke="#a6adc8" d="M1987.02,-664.01C2029.66,-666.75 2078.58,-669.9 2127.92,-673.08"/>
<polygon fill="#a6adc8" stroke="#a6adc8" points="2127.41,-676.55 2137.62,-673.7 2127.86,-669.57 2127.41,-676.55"/>
</g>
<!-- hm_host__aspect_hm_host_ -->
<g id="node26" class="node">
<title>hm_host__aspect_hm_host_</title>
<polygon fill="#89b4fa" stroke="#89b4fa" points="1125.57,-523.29 932.57,-523.29 932.57,-487.29 1125.57,-487.29 1125.57,-523.29"/>
<text text-anchor="middle" x="1029.07" y="-500.61" font-family="Times,serif" font-size="14.00" fill="#1e1e2e">hm&#45;host/aspect(hm&#45;host)</text>
</g>
<!-- hm_host&#45;&gt;hm_host__aspect_hm_host_ -->
<g id="edge21" class="edge">
<title>hm_host&#45;&gt;hm_host__aspect_hm_host_</title>
<path fill="none" stroke="#a6adc8" d="M764.77,-500.7C803.33,-498.77 866.28,-498.13 920.96,-498.78"/>
<polygon fill="#a6adc8" stroke="#a6adc8" points="920.57,-502.28 930.62,-498.92 920.67,-495.28 920.57,-502.28"/>
</g>
<!-- hm_host__aspect_hm_host_&#45;&gt;hm_host -->
<g id="edge22" class="edge">
<title>hm_host__aspect_hm_host_&#45;&gt;hm_host</title>
<path fill="none" stroke="#a6adc8" d="M932.13,-511.63C880.09,-512.45 818.04,-512.03 776.25,-510.38"/>
<polygon fill="#a6adc8" stroke="#a6adc8" points="776.42,-506.88 766.28,-509.94 776.11,-513.88 776.42,-506.88"/>
</g>
<!-- hm_host__cross_provide_host_&#45;&gt;hm_user -->
<g id="edge23" class="edge">
<title>hm_host__cross_provide_host_&#45;&gt;hm_user</title>
<path fill="none" stroke="#a6adc8" d="M828,-432.91C833.09,-430.39 837.98,-427.53 842.53,-424.29 866.91,-406.87 855.23,-386.12 878.53,-367.29 908.03,-343.43 948.84,-329.35 980.38,-321.42"/>
<polygon fill="#a6adc8" stroke="#a6adc8" points="981.15,-324.83 990.07,-319.11 979.53,-318.02 981.15,-324.83"/>
</g>
<!-- hm_user__aspect_hm_user_ -->
<g id="node30" class="node">
<title>hm_user__aspect_hm_user_</title>
<polygon fill="#a6e3a1" stroke="#a6e3a1" points="1511.02,-330.29 1316.52,-330.29 1316.52,-294.29 1511.02,-294.29 1511.02,-330.29"/>
<text text-anchor="middle" x="1413.77" y="-307.61" font-family="Times,serif" font-size="14.00" fill="#1e1e2e">hm&#45;user/aspect(hm&#45;user)</text>
</g>
<!-- hm_user&#45;&gt;hm_user__aspect_hm_user_ -->
<g id="edge24" class="edge">
<title>hm_user&#45;&gt;hm_user__aspect_hm_user_</title>
<path fill="none" stroke="#a6adc8" d="M1066.76,-308.11C1121.17,-305.56 1225.4,-304.9 1305.31,-306.15"/>
<polygon fill="#a6adc8" stroke="#a6adc8" points="1304.84,-309.64 1314.9,-306.31 1304.96,-302.64 1304.84,-309.64"/>
</g>
<!-- hm_user__aspect_hm_user_&#45;&gt;hm_user -->
<g id="edge25" class="edge">
<title>hm_user__aspect_hm_user_&#45;&gt;hm_user</title>
<path fill="none" stroke="#a6adc8" d="M1316.41,-318.23C1240.39,-319.63 1137.56,-319.2 1078.06,-316.94"/>
<polygon fill="#a6adc8" stroke="#a6adc8" points="1078.41,-313.45 1068.27,-316.53 1078.12,-320.45 1078.41,-313.45"/>
</g>
<!-- hm_user__cross_provide_hm_host_&#45;&gt;user -->
<g id="edge26" class="edge">
<title>hm_user__cross_provide_hm_host_&#45;&gt;user</title>
<path fill="none" stroke="#a6adc8" d="M1053.37,-185.86C1087.06,-160.28 1152.28,-114.66 1215.61,-92.29 1268.86,-73.47 1334.5,-67.68 1374.99,-65.94"/>
<polygon fill="#a6adc8" stroke="#a6adc8" points="1375.08,-69.44 1384.95,-65.59 1374.83,-62.45 1375.08,-69.44"/>
</g>
<!-- user__self_provide_user_ -->
<g id="node37" class="node">
<title>user__self_provide_user_</title>
<polygon fill="#f2cdcd" stroke="#f2cdcd" points="2515.84,-83.29 2338.59,-83.29 2338.59,-47.29 2515.84,-47.29 2515.84,-83.29"/>
<text text-anchor="middle" x="2427.22" y="-60.61" font-family="Times,serif" font-size="14.00" fill="#1e1e2e">user/self&#45;provide(user)</text>
</g>
<!-- deploy&#45;&gt;user__self_provide_user_ -->
<g id="edge20" class="edge">
<title>deploy&#45;&gt;user__self_provide_user_</title>
<path fill="none" stroke="#a6adc8" d="M1882.45,-62.02C1965.08,-58.17 2193.87,-57.51 2326.88,-60.03"/>
<polygon fill="#a6adc8" stroke="#a6adc8" points="2326.68,-63.53 2336.75,-60.23 2326.82,-56.53 2326.68,-63.53"/>
</g>
<!-- user&#45;&gt;deploy -->
<g id="edge71" class="edge">
<title>user&#45;&gt;deploy</title>
<path fill="none" stroke="#a6adc8" d="M1440.99,-65.29C1513.64,-65.29 1718.06,-65.29 1807.16,-65.29"/>
<polygon fill="#a6adc8" stroke="#a6adc8" points="1806.93,-68.79 1816.93,-65.29 1806.93,-61.79 1806.93,-68.79"/>
</g>
<!-- user__aspect_user_ -->
<g id="node35" class="node">
<title>user__aspect_user_</title>
<polygon fill="#fab387" stroke="#fab387" points="1920.81,-137.29 1780.31,-137.29 1780.31,-101.29 1920.81,-101.29 1920.81,-137.29"/>
<text text-anchor="middle" x="1850.56" y="-114.61" font-family="Times,serif" font-size="14.00" fill="#1e1e2e">user/aspect(user)</text>
</g>
<!-- user&#45;&gt;user__aspect_user_ -->
<g id="edge72" class="edge">
<title>user&#45;&gt;user__aspect_user_</title>
<path fill="none" stroke="#a6adc8" d="M1440.99,-65.11C1504.54,-69.37 1668.92,-89.14 1768.73,-103.86"/>
<polygon fill="#a6adc8" stroke="#a6adc8" points="1768.07,-107.3 1778.48,-105.31 1769.1,-100.37 1768.07,-107.3"/>
</g>
<!-- user__aspect_user_&#45;&gt;user -->
<g id="edge73" class="edge">
<title>user__aspect_user_&#45;&gt;user</title>
<path fill="none" stroke="#a6adc8" d="M1779.98,-115.75C1686.92,-106.7 1525.21,-86.25 1452.31,-73.95"/>
<polygon fill="#a6adc8" stroke="#a6adc8" points="1452.93,-70.5 1442.48,-72.23 1451.73,-77.4 1452.93,-70.5"/>
</g>
<!-- user__self_provide_user_&#45;&gt;deploy -->
<g id="edge74" class="edge">
<title>user__self_provide_user_&#45;&gt;deploy</title>
<path fill="none" stroke="#a6adc8" d="M2338.26,-70.31C2212.7,-72.98 1986.98,-72.55 1893.68,-69.02"/>
<polygon fill="#a6adc8" stroke="#a6adc8" points="1894.1,-65.53 1883.96,-68.61 1893.81,-72.53 1894.1,-65.53"/>
</g>
</g>
</svg>
