<?plantuml 1.2026.2?><svg xmlns="http://www.w3.org/2000/svg" xmlns:xlink="http://www.w3.org/1999/xlink" contentStyleType="text/css" data-diagram-type="DESCRIPTION" height="1194px" preserveAspectRatio="none" style="width:2296px;height:1194px;background:#1E1E2E;" version="1.1" viewBox="0 0 2296 1194" width="2296px" zoomAndPan="magnify"><title>Component view: web-server</title><defs/><g><rect fill="#1E1E2E" height="1194" style="stroke:none;stroke-width:1;" width="2296" x="0" y="0"/><g class="title" data-source-line="27"><text fill="#CDD6F4" font-family="'JetBrains Mono,monospace'" font-size="14" font-weight="bold" lengthAdjust="spacing" textLength="218.399" x="1031.8005" y="24.2799">Component view: web-server</text></g><!--cluster web_server--><g class="cluster" data-qualified-name="web_server" data-source-line="1666" id="ent0002"><rect fill="none" height="1141.92" style="stroke:#444444;stroke-width:1;stroke-dasharray:7,7;" width="2283" x="7" y="46.4799"/><text fill="#444444" font-family="'JetBrains Mono,monospace'" font-size="16" font-weight="bold" lengthAdjust="spacing" textLength="96.0002" x="1100.4999" y="84.8">web-server</text><text fill="#444444" font-family="'JetBrains Mono,monospace'" font-size="12" font-weight="bold" lengthAdjust="spacing" textLength="57.6005" x="1119.6998" y="101.84">[system]</text></g><!--cluster host--><g class="cluster" data-qualified-name="web_server.host" data-source-line="1666" id="ent0003"><rect fill="none" height="1034.92" style="stroke:#444444;stroke-width:1;stroke-dasharray:7,7;" width="1525" x="31" y="129.4799"/><text fill="#444444" font-family="'JetBrains Mono,monospace'" font-size="16" font-weight="bold" lengthAdjust="spacing" textLength="38.4001" x="774.3" y="167.8">host</text><text fill="#444444" font-family="'JetBrains Mono,monospace'" font-size="12" font-weight="bold" lengthAdjust="spacing" textLength="79.2006" x="753.8997" y="184.84">[container]</text></g><!--cluster c4_default--><g class="cluster" data-qualified-name="web_server.c4_default" data-source-line="1666" id="ent0014"><rect fill="none" height="425.8" style="stroke:#444444;stroke-width:1;stroke-dasharray:7,7;" width="474" x="1580" y="137.3999"/><text fill="#444444" font-family="'JetBrains Mono,monospace'" font-size="16" font-weight="bold" lengthAdjust="spacing" textLength="67.2001" x="1783.3999" y="175.72">default</text><text fill="#444444" font-family="'JetBrains Mono,monospace'" font-size="12" font-weight="bold" lengthAdjust="spacing" textLength="79.2006" x="1777.3997" y="192.76">[container]</text></g><!--cluster user--><g class="cluster" data-qualified-name="web_server.user" data-source-line="1666" id="ent0018"><rect fill="none" height="163.8" style="stroke:#444444;stroke-width:1;stroke-dasharray:7,7;" width="188" x="2078" y="129.4799"/><text fill="#444444" font-family="'JetBrains Mono,monospace'" font-size="16" font-weight="bold" lengthAdjust="spacing" textLength="38.4001" x="2152.8" y="167.8">user</text><text fill="#444444" font-family="'JetBrains Mono,monospace'" font-size="12" font-weight="bold" lengthAdjust="spacing" textLength="79.2006" x="2132.3997" y="184.84">[container]</text></g><!--entity monitoring__alerting--><g class="entity" data-qualified-name="web_server.host.monitoring__alerting" data-source-line="78" id="ent0004"><rect fill="#85BBF0" height="72.8003" style="stroke:#78A8D8;stroke-width:0.5;" width="202.4004" x="689.8" y="204.4799"/><text fill="#000000" font-family="'JetBrains Mono,monospace'" font-size="12" font-style="italic" lengthAdjust="spacing" textLength="79.2006" x="751.3999" y="226.72">&#171;component&#187;</text><text fill="#000000" font-family="'JetBrains Mono,monospace'" font-size="16" font-weight="bold" lengthAdjust="spacing" textLength="182.4004" x="699.8" y="246.6401">monitoring/alerting</text><text fill="#000000" font-family="'JetBrains Mono,monospace'" font-size="12" font-style="italic" lengthAdjust="spacing" textLength="50.4004" x="765.8" y="263.6802">[nixos]</text></g><!--entity backup--><g class="entity" data-qualified-name="web_server.host.backup" data-source-line="78" id="ent0005"><rect fill="#85BBF0" height="56.9602" style="stroke:#78A8D8;stroke-width:0.5;" width="101.2006" x="740.4" y="356.2799"/><text fill="#000000" font-family="'JetBrains Mono,monospace'" font-size="12" font-style="italic" lengthAdjust="spacing" textLength="79.2006" x="751.4" y="378.52">&#171;component&#187;</text><text fill="#000000" font-family="'JetBrains Mono,monospace'" font-size="16" font-weight="bold" lengthAdjust="spacing" textLength="57.6001" x="762.2003" y="398.4401">backup</text></g><!--entity virtualization__docker--><g class="entity" data-qualified-name="web_server.host.virtualization__docker" data-source-line="78" id="ent0006"><rect fill="#85BBF0" height="72.8003" style="stroke:#78A8D8;stroke-width:0.5;" width="221.6004" x="273.2" y="925.7999"/><text fill="#000000" font-family="'JetBrains Mono,monospace'" font-size="12" font-style="italic" lengthAdjust="spacing" textLength="79.2006" x="344.3999" y="948.04">&#171;component&#187;</text><text fill="#000000" font-family="'JetBrains Mono,monospace'" font-size="16" font-weight="bold" lengthAdjust="spacing" textLength="201.6004" x="283.2" y="967.9601">virtualization/docker</text><text fill="#000000" font-family="'JetBrains Mono,monospace'" font-size="12" font-style="italic" lengthAdjust="spacing" textLength="50.4004" x="358.8" y="985.0002">[nixos]</text></g><!--entity monitoring--><g class="entity" data-qualified-name="web_server.host.monitoring" data-source-line="78" id="ent0007"><rect fill="#85BBF0" height="72.8003" style="stroke:#78A8D8;stroke-width:0.5;" width="116.0002" x="1153" y="775.9999"/><text fill="#000000" font-family="'JetBrains Mono,monospace'" font-size="12" font-style="italic" lengthAdjust="spacing" textLength="79.2006" x="1171.3998" y="798.24">&#171;component&#187;</text><text fill="#000000" font-family="'JetBrains Mono,monospace'" font-size="16" font-weight="bold" lengthAdjust="spacing" textLength="96.0002" x="1163" y="818.1601">monitoring</text><text fill="#000000" font-family="'JetBrains Mono,monospace'" font-size="12" font-style="italic" lengthAdjust="spacing" textLength="50.4004" x="1185.7999" y="835.2002">[nixos]</text></g><!--entity networking--><g class="entity" data-qualified-name="web_server.host.networking" data-source-line="78" id="ent0008"><rect fill="#85BBF0" height="72.8003" style="stroke:#78A8D8;stroke-width:0.5;" width="116.0002" x="1184" y="626.1999"/><text fill="#000000" font-family="'JetBrains Mono,monospace'" font-size="12" font-style="italic" lengthAdjust="spacing" textLength="79.2006" x="1202.3998" y="648.44">&#171;component&#187;</text><text fill="#000000" font-family="'JetBrains Mono,monospace'" font-size="16" font-weight="bold" lengthAdjust="spacing" textLength="96.0002" x="1194" y="668.3601">networking</text><text fill="#000000" font-family="'JetBrains Mono,monospace'" font-size="12" font-style="italic" lengthAdjust="spacing" textLength="50.4004" x="1216.7999" y="685.4002">[nixos]</text></g><!--entity monitoring__nginx_exporter--><g class="entity" data-qualified-name="web_server.host.monitoring__nginx_exporter" data-source-line="78" id="ent0009"><rect fill="#85BBF0" height="72.8003" style="stroke:#78A8D8;stroke-width:0.5;" width="260.0005" x="723" y="1075.5999"/><text fill="#000000" font-family="'JetBrains Mono,monospace'" font-size="12" font-style="italic" lengthAdjust="spacing" textLength="79.2006" x="813.3999" y="1097.84">&#171;component&#187;</text><text fill="#000000" font-family="'JetBrains Mono,monospace'" font-size="16" font-weight="bold" lengthAdjust="spacing" textLength="240.0005" x="733" y="1117.7601">monitoring/nginx-exporter</text><text fill="#000000" font-family="'JetBrains Mono,monospace'" font-size="12" font-style="italic" lengthAdjust="spacing" textLength="50.4004" x="827.8001" y="1134.8002">[nixos]</text></g><!--entity monitoring__node_exporter--><g class="entity" data-qualified-name="web_server.host.monitoring__node_exporter" data-source-line="78" id="ent0010"><rect fill="#85BBF0" height="72.8003" style="stroke:#78A8D8;stroke-width:0.5;" width="250.4005" x="1184.8" y="925.7999"/><text fill="#000000" font-family="'JetBrains Mono,monospace'" font-size="12" font-style="italic" lengthAdjust="spacing" textLength="79.2006" x="1270.3999" y="948.04">&#171;component&#187;</text><text fill="#000000" font-family="'JetBrains Mono,monospace'" font-size="16" font-weight="bold" lengthAdjust="spacing" textLength="230.4005" x="1194.8" y="967.9601">monitoring/node-exporter</text><text fill="#000000" font-family="'JetBrains Mono,monospace'" font-size="12" font-style="italic" lengthAdjust="spacing" textLength="50.4004" x="1284.8001" y="985.0002">[nixos]</text></g><!--entity server--><g class="entity" data-qualified-name="web_server.host.server" data-source-line="78" id="ent0011"><rect fill="#85BBF0" height="56.9602" style="stroke:#78A8D8;stroke-width:0.5;" width="101.2006" x="839.4" y="490.2399"/><text fill="#000000" font-family="'JetBrains Mono,monospace'" font-size="12" font-style="italic" lengthAdjust="spacing" textLength="79.2006" x="850.4" y="512.48">&#171;component&#187;</text><text fill="#000000" font-family="'JetBrains Mono,monospace'" font-size="16" font-weight="bold" lengthAdjust="spacing" textLength="57.6001" x="861.2003" y="532.4001">server</text></g><!--entity tailscale--><g class="entity" data-qualified-name="web_server.host.tailscale" data-source-line="78" id="ent0012"><rect fill="#85BBF0" height="72.8003" style="stroke:#78A8D8;stroke-width:0.5;" width="106.4002" x="415.8" y="626.1999"/><text fill="#000000" font-family="'JetBrains Mono,monospace'" font-size="12" font-style="italic" lengthAdjust="spacing" textLength="79.2006" x="429.3998" y="648.44">&#171;component&#187;</text><text fill="#000000" font-family="'JetBrains Mono,monospace'" font-size="16" font-weight="bold" lengthAdjust="spacing" textLength="86.4002" x="425.8" y="668.3601">tailscale</text><text fill="#000000" font-family="'JetBrains Mono,monospace'" font-size="12" font-style="italic" lengthAdjust="spacing" textLength="50.4004" x="443.7999" y="685.4002">[nixos]</text></g><!--entity virtualization--><g class="entity" data-qualified-name="web_server.host.virtualization" data-source-line="78" id="ent0013"><rect fill="#85BBF0" height="72.8003" style="stroke:#78A8D8;stroke-width:0.5;" width="154.4003" x="391.8" y="775.9999"/><text fill="#000000" font-family="'JetBrains Mono,monospace'" font-size="12" font-style="italic" lengthAdjust="spacing" textLength="79.2006" x="429.3998" y="798.24">&#171;component&#187;</text><text fill="#000000" font-family="'JetBrains Mono,monospace'" font-size="16" font-weight="bold" lengthAdjust="spacing" textLength="134.4003" x="401.8" y="818.1601">virtualization</text><text fill="#000000" font-family="'JetBrains Mono,monospace'" font-size="12" font-style="italic" lengthAdjust="spacing" textLength="50.4004" x="443.7999" y="835.2002">[nixos]</text></g><!--entity den__provides__define_user--><g class="entity" data-qualified-name="web_server.c4_default.den__provides__define_user" data-source-line="78" id="ent0015"><rect fill="#85BBF0" height="56.9602" style="stroke:#78A8D8;stroke-width:0.5;" width="212.0004" x="1709" y="212.3999"/><text fill="#000000" font-family="'JetBrains Mono,monospace'" font-size="12" font-style="italic" lengthAdjust="spacing" textLength="79.2006" x="1775.3999" y="234.64">&#171;component&#187;</text><text fill="#000000" font-family="'JetBrains Mono,monospace'" font-size="16" font-weight="bold" lengthAdjust="spacing" textLength="192.0004" x="1719" y="254.5601">provides/define-user</text></g><!--entity den__provides__hostname--><g class="entity" data-qualified-name="web_server.c4_default.den__provides__hostname" data-source-line="78" id="ent0016"><rect fill="#85BBF0" height="56.9602" style="stroke:#78A8D8;stroke-width:0.5;" width="183.2004" x="1725.4" y="356.2799"/><text fill="#000000" font-family="'JetBrains Mono,monospace'" font-size="12" font-style="italic" lengthAdjust="spacing" textLength="79.2006" x="1777.3999" y="378.52">&#171;component&#187;</text><text fill="#000000" font-family="'JetBrains Mono,monospace'" font-size="16" font-weight="bold" lengthAdjust="spacing" textLength="163.2004" x="1735.4" y="398.4401">provides/hostname</text></g><!--entity den__provides__mutual_provider--><g class="entity" data-qualified-name="web_server.c4_default.den__provides__mutual_provider" data-source-line="78" id="ent0017"><rect fill="#85BBF0" height="56.9602" style="stroke:#78A8D8;stroke-width:0.5;" width="250.4005" x="1643.8" y="490.2399"/><text fill="#000000" font-family="'JetBrains Mono,monospace'" font-size="12" font-style="italic" lengthAdjust="spacing" textLength="79.2006" x="1729.3999" y="512.48">&#171;component&#187;</text><text fill="#000000" font-family="'JetBrains Mono,monospace'" font-size="16" font-weight="bold" lengthAdjust="spacing" textLength="230.4005" x="1653.8" y="532.4001">provides/mutual-provider</text></g><!--entity deploy--><g class="entity" data-qualified-name="web_server.user.deploy" data-source-line="78" id="ent0019"><rect fill="#85BBF0" height="72.8003" style="stroke:#78A8D8;stroke-width:0.5;" width="156.8011" x="2093.6" y="204.4799"/><text fill="#000000" font-family="'JetBrains Mono,monospace'" font-size="12" font-style="italic" lengthAdjust="spacing" textLength="79.2006" x="2132.4002" y="226.72">&#171;component&#187;</text><text fill="#000000" font-family="'JetBrains Mono,monospace'" font-size="16" font-weight="bold" lengthAdjust="spacing" textLength="57.6001" x="2143.2005" y="246.6401">deploy</text><text fill="#000000" font-family="'JetBrains Mono,monospace'" font-size="12" font-style="italic" lengthAdjust="spacing" textLength="136.8011" x="2103.6" y="263.6802">[homeManager+nixos]</text></g><!--link backup to server--><g class="link" data-entity-1="ent0005" data-entity-2="ent0011" data-link-type="dependency" data-source-line="1779" id="lnk20"><path d="M823.82,413.5399 C833.25,422.4499 843.11,432.7499 851,443.2399 C861.79,457.5899 867.796,468.105 874.676,482.685" fill="none" id="backup-to-server" style="stroke:#A6ADC8;stroke-width:1;"/><polygon fill="#A6ADC8" points="878.09,489.9199,877.3891,481.4047,871.9629,483.9652,878.09,489.9199" style="stroke:#A6ADC8;stroke-width:1;"/><text fill="#CDD6F4" font-family="'JetBrains Mono,monospace'" font-size="12" font-weight="bold" lengthAdjust="spacing" textLength="57.6005" x="862.28" y="456.48">includes</text></g><!--link server to backup--><g class="link" data-entity-1="ent0011" data-entity-2="ent0005" data-link-type="dependency" data-source-line="1779" id="lnk32"><path d="M839.05,502.9799 C818.17,494.1499 796.1,480.5699 784,460.2399 C775.76,446.3999 775.2468,436.2602 778.8668,421.4802" fill="none" id="server-to-backup" style="stroke:#A6ADC8;stroke-width:1;"/><polygon fill="#A6ADC8" points="780.77,413.7099,775.953,420.7666,781.7807,422.1939,780.77,413.7099" style="stroke:#A6ADC8;stroke-width:1;"/><text fill="#CDD6F4" font-family="'JetBrains Mono,monospace'" font-size="12" font-weight="bold" lengthAdjust="spacing" textLength="57.6005" x="785" y="456.48">includes</text></g><!--link den__provides__mutual_provider to den__provides__define_user--><g class="link" data-entity-1="ent0017" data-entity-2="ent0015" data-link-type="dependency" data-source-line="1779" id="lnk21"><path d="M1720.3,489.8299 C1693.88,471.7399 1663.71,445.5399 1649,413.2399 C1638.51,390.1999 1637.23,378.6899 1649,356.2799 C1669.67,316.9299 1703.5865,292.1396 1739.6665,273.4496" fill="none" id="den__provides__mutual_provider-to-den__provides__define_user" style="stroke:#A6ADC8;stroke-width:1;"/><polygon fill="#A6ADC8" points="1746.77,269.7699,1738.2866,270.7858,1741.0464,276.1135,1746.77,269.7699" style="stroke:#A6ADC8;stroke-width:1;"/><text fill="#CDD6F4" font-family="'JetBrains Mono,monospace'" font-size="12" font-weight="bold" lengthAdjust="spacing" textLength="57.6005" x="1650" y="389.5">includes</text></g><!--link den__provides__define_user to den__provides__mutual_provider--><g class="link" data-entity-1="ent0015" data-entity-2="ent0017" data-link-type="dependency" data-source-line="1779" id="lnk25"><path d="M1854.17,269.6599 C1894.96,302.2799 1949.83,358.8599 1926,413.2399 C1910.62,448.3199 1883.6327,469.5175 1851.1127,486.1475" fill="none" id="den__provides__define_user-to-den__provides__mutual_provider" style="stroke:#A6ADC8;stroke-width:1;"/><polygon fill="#A6ADC8" points="1843.99,489.7899,1852.4786,488.8185,1849.7468,483.4765,1843.99,489.7899" style="stroke:#A6ADC8;stroke-width:1;"/><text fill="#CDD6F4" font-family="'JetBrains Mono,monospace'" font-size="12" font-weight="bold" lengthAdjust="spacing" textLength="57.6005" x="1932.79" y="389.5">includes</text></g><!--link den__provides__mutual_provider to den__provides__hostname--><g class="link" data-entity-1="ent0017" data-entity-2="ent0016" data-link-type="dependency" data-source-line="1779" id="lnk22"><path d="M1747.03,489.9499 C1738.54,475.7099 1732.47,458.2499 1740,443.2399 C1745.83,431.6099 1748.9798,426.6857 1759.2698,418.5657" fill="none" id="den__provides__mutual_provider-to-den__provides__hostname" style="stroke:#A6ADC8;stroke-width:1;"/><polygon fill="#A6ADC8" points="1765.55,413.6099,1757.4114,416.2106,1761.1283,420.9207,1765.55,413.6099" style="stroke:#A6ADC8;stroke-width:1;"/><text fill="#CDD6F4" font-family="'JetBrains Mono,monospace'" font-size="12" font-weight="bold" lengthAdjust="spacing" textLength="57.6005" x="1741" y="456.48">includes</text></g><!--link den__provides__hostname to den__provides__mutual_provider--><g class="link" data-entity-1="ent0016" data-entity-2="ent0017" data-link-type="dependency" data-source-line="1779" id="lnk26"><path d="M1814.1,413.6199 C1812.04,427.8899 1808.61,445.3399 1803,460.2399 C1799.2,470.3299 1797.8247,473.8373 1792.3247,482.9173" fill="none" id="den__provides__hostname-to-den__provides__mutual_provider" style="stroke:#A6ADC8;stroke-width:1;"/><polygon fill="#A6ADC8" points="1788.18,489.7599,1794.8907,484.4716,1789.7588,481.363,1788.18,489.7599" style="stroke:#A6ADC8;stroke-width:1;"/><text fill="#CDD6F4" font-family="'JetBrains Mono,monospace'" font-size="12" font-weight="bold" lengthAdjust="spacing" textLength="57.6005" x="1808.98" y="456.48">includes</text></g><!--link den__provides__hostname to den__provides__define_user--><g class="link" data-entity-1="ent0016" data-entity-2="ent0015" data-link-type="dependency" data-source-line="1779" id="lnk23"><path d="M1782.92,355.8599 C1774.85,347.3099 1767.34,337.2299 1763,326.2799 C1755.08,306.2799 1761.8741,291.5779 1776.4441,275.7379" fill="none" id="den__provides__hostname-to-den__provides__define_user" style="stroke:#A6ADC8;stroke-width:1;"/><polygon fill="#A6ADC8" points="1781.86,269.8499,1774.2361,273.7069,1778.6521,277.7688,1781.86,269.8499" style="stroke:#A6ADC8;stroke-width:1;"/><text fill="#CDD6F4" font-family="'JetBrains Mono,monospace'" font-size="12" font-weight="bold" lengthAdjust="spacing" textLength="57.6005" x="1764" y="322.52">includes</text></g><!--link den__provides__define_user to den__provides__hostname--><g class="link" data-entity-1="ent0015" data-entity-2="ent0016" data-link-type="dependency" data-source-line="1779" id="lnk24"><path d="M1821.53,269.5499 C1824.67,285.9899 1827.48,307.2699 1826,326.2799 C1825.25,335.9499 1825.075,338.5538 1823.555,347.8938" fill="none" id="den__provides__define_user-to-den__provides__hostname" style="stroke:#A6ADC8;stroke-width:1;"/><polygon fill="#A6ADC8" points="1822.27,355.7899,1826.5161,348.3757,1820.594,347.4119,1822.27,355.7899" style="stroke:#A6ADC8;stroke-width:1;"/><text fill="#CDD6F4" font-family="'JetBrains Mono,monospace'" font-size="12" font-weight="bold" lengthAdjust="spacing" textLength="57.6005" x="1827.41" y="322.52">includes</text></g><!--link monitoring to backup--><g class="link" data-entity-1="ent0007" data-entity-2="ent0005" data-link-type="dependency" data-source-line="1779" id="lnk27"><path d="M1269.35,803.7299 C1304.9,795.7099 1347.66,779.3499 1370,745.9999 C1401.91,698.3699 1361.35,541.6599 1336,490.2399 C1323.08,464.0199 1316.51,455.5599 1290,443.2399 C1208.16,405.1999 973.8,429.3199 885,413.2399 C870.78,410.6599 863.3183,409.0159 849.4383,404.9559" fill="none" id="monitoring-to-backup" style="stroke:#A6ADC8;stroke-width:1;"/><polygon fill="#A6ADC8" points="841.76,402.7099,848.596,407.8352,850.2805,402.0765,841.76,402.7099" style="stroke:#A6ADC8;stroke-width:1;"/><text fill="#CDD6F4" font-family="'JetBrains Mono,monospace'" font-size="12" font-weight="bold" lengthAdjust="spacing" textLength="57.6005" x="1370.71" y="592.44">includes</text></g><!--link monitoring__alerting to backup--><g class="link" data-entity-1="ent0004" data-entity-2="ent0005" data-link-type="dependency" data-source-line="1779" id="lnk28"><path d="M791,277.6799 C791,301.9799 791,325.6399 791,348.0199" fill="none" id="monitoring__alerting-to-backup" style="stroke:#A6ADC8;stroke-width:1;"/><polygon fill="#A6ADC8" points="791,356.0199,794,348.0199,788,348.0199,791,356.0199" style="stroke:#A6ADC8;stroke-width:1;"/><text fill="#CDD6F4" font-family="'JetBrains Mono,monospace'" font-size="12" font-weight="bold" lengthAdjust="spacing" textLength="57.6005" x="792" y="322.52">includes</text></g><!--link monitoring__nginx_exporter to backup--><g class="link" data-entity-1="ent0009" data-entity-2="ent0005" data-link-type="dependency" data-source-line="1779" id="lnk29"><path d="M722.66,1108.7299 C526.22,1101.7199 177,1073.7199 177,963.1999 C177,661.5999 177,661.5999 177,661.5999 C177,551.0699 194.5,486.9799 296,443.2399 C375.05,409.1699 622.3195,393.7201 732.0795,388.3601" fill="none" id="monitoring__nginx_exporter-to-backup" style="stroke:#A6ADC8;stroke-width:1;"/><polygon fill="#A6ADC8" points="740.07,387.9699,731.9332,385.3637,732.2258,391.3566,740.07,387.9699" style="stroke:#A6ADC8;stroke-width:1;"/><text fill="#CDD6F4" font-family="'JetBrains Mono,monospace'" font-size="12" font-weight="bold" lengthAdjust="spacing" textLength="57.6005" x="178" y="742.24">includes</text></g><!--link monitoring__node_exporter to backup--><g class="link" data-entity-1="ent0010" data-entity-2="ent0005" data-link-type="dependency" data-source-line="1779" id="lnk30"><path d="M1341.65,925.5099 C1375.09,885.1999 1425.72,816.0499 1446,745.9999 C1466.54,675.0399 1404.16,663.6299 1374,596.1999 C1353.57,550.5299 1374.34,522.3799 1336,490.2399 C1258.09,424.9099 984.07,436.0999 885,413.2399 C870.92,409.9899 863.4983,408.1159 849.6183,404.0559" fill="none" id="monitoring__node_exporter-to-backup" style="stroke:#A6ADC8;stroke-width:1;"/><polygon fill="#A6ADC8" points="841.94,401.8099,848.776,406.9352,850.4605,401.1765,841.94,401.8099" style="stroke:#A6ADC8;stroke-width:1;"/><text fill="#CDD6F4" font-family="'JetBrains Mono,monospace'" font-size="12" font-weight="bold" lengthAdjust="spacing" textLength="57.6005" x="1447.46" y="667.34">includes</text></g><!--link networking to backup--><g class="link" data-entity-1="ent0008" data-entity-2="ent0005" data-link-type="dependency" data-source-line="1779" id="lnk31"><path d="M1272.93,626.0399 C1282.26,610.9299 1287.73,593.5399 1278,579.1999 C1252.1,541.0499 969.3457,444.5011 849.6857,404.9411" fill="none" id="networking-to-backup" style="stroke:#A6ADC8;stroke-width:1;"/><polygon fill="#A6ADC8" points="842.09,402.4299,848.744,407.7894,850.6273,402.0927,842.09,402.4299" style="stroke:#A6ADC8;stroke-width:1;"/><text fill="#CDD6F4" font-family="'JetBrains Mono,monospace'" font-size="12" font-weight="bold" lengthAdjust="spacing" textLength="57.6005" x="1269.8" y="523.46">includes</text></g><!--link tailscale to backup--><g class="link" data-entity-1="ent0012" data-entity-2="ent0005" data-link-type="dependency" data-source-line="1779" id="lnk33"><path d="M462.03,625.9099 C460.85,610.6099 462.03,593.0999 470,579.1999 C528.71,476.7299 657.8743,424.6843 732.5343,401.6943" fill="none" id="tailscale-to-backup" style="stroke:#A6ADC8;stroke-width:1;"/><polygon fill="#A6ADC8" points="740.18,399.3399,731.6514,398.8271,733.4172,404.5614,740.18,399.3399" style="stroke:#A6ADC8;stroke-width:1;"/><text fill="#CDD6F4" font-family="'JetBrains Mono,monospace'" font-size="12" font-weight="bold" lengthAdjust="spacing" textLength="57.6005" x="549.34" y="523.46">includes</text></g><!--link virtualization to backup--><g class="link" data-entity-1="ent0013" data-entity-2="ent0005" data-link-type="dependency" data-source-line="1779" id="lnk34"><path d="M439.4,775.9599 C423.82,754.9999 406.29,727.1199 398,698.9999 C355.64,555.2399 389.76,599.8699 397,579.1999 C445.6,440.3899 636.913,401.8497 732.043,390.8397" fill="none" id="virtualization-to-backup" style="stroke:#A6ADC8;stroke-width:1;"/><polygon fill="#A6ADC8" points="739.99,389.9199,731.6981,387.8596,732.388,393.8198,739.99,389.9199" style="stroke:#A6ADC8;stroke-width:1;"/><text fill="#CDD6F4" font-family="'JetBrains Mono,monospace'" font-size="12" font-weight="bold" lengthAdjust="spacing" textLength="57.6005" x="398" y="592.44">includes</text></g><!--link virtualization__docker to backup--><g class="link" data-entity-1="ent0006" data-entity-2="ent0005" data-link-type="dependency" data-source-line="1779" id="lnk35"><path d="M322.37,925.4799 C286.38,899.5699 248,860.8199 248,813.3999 C248,517.7199 248,517.7199 248,517.7199 C248,417.0699 596.7467,393.2075 731.9267,387.6675" fill="none" id="virtualization__docker-to-backup" style="stroke:#A6ADC8;stroke-width:1;"/><polygon fill="#A6ADC8" points="739.92,387.3399,731.8039,384.67,732.0496,390.665,739.92,387.3399" style="stroke:#A6ADC8;stroke-width:1;"/><text fill="#CDD6F4" font-family="'JetBrains Mono,monospace'" font-size="12" font-weight="bold" lengthAdjust="spacing" textLength="57.6005" x="249" y="667.34">includes</text></g><!--link monitoring to server--><g class="link" data-entity-1="ent0007" data-entity-2="ent0011" data-link-type="dependency" data-source-line="1779" id="lnk36"><path d="M1178.04,775.7699 C1142.22,737.5999 1082.77,675.8199 1028,626.1999 C1003.41,603.9199 996.21,599.5499 970,579.1999 C956.47,568.6899 947.8705,562.179 934.5205,552.299" fill="none" id="monitoring-to-server" style="stroke:#A6ADC8;stroke-width:1;"/><polygon fill="#A6ADC8" points="928.09,547.5399,932.7359,554.7104,936.3052,549.8875,928.09,547.5399" style="stroke:#A6ADC8;stroke-width:1;"/><text fill="#CDD6F4" font-family="'JetBrains Mono,monospace'" font-size="12" font-weight="bold" lengthAdjust="spacing" textLength="57.6005" x="1103.57" y="667.34">includes</text></g><!--link server to monitoring--><g class="link" data-entity-1="ent0011" data-entity-2="ent0007" data-link-type="dependency" data-source-line="1779" id="lnk51"><path d="M894.29,547.5099 C901.59,586.0699 919.83,655.9199 961,698.9999 C1013.11,753.5299 1088.8033,781.5468 1144.7833,796.5668" fill="none" id="server-to-monitoring" style="stroke:#A6ADC8;stroke-width:1;"/><polygon fill="#A6ADC8" points="1152.51,798.6399,1145.5607,793.6692,1144.0059,799.4643,1152.51,798.6399" style="stroke:#A6ADC8;stroke-width:1;"/><text fill="#CDD6F4" font-family="'JetBrains Mono,monospace'" font-size="12" font-weight="bold" lengthAdjust="spacing" textLength="57.6005" x="962" y="667.34">includes</text></g><!--link monitoring__alerting to server--><g class="link" data-entity-1="ent0004" data-entity-2="ent0011" data-link-type="dependency" data-source-line="1779" id="lnk37"><path d="M892.64,249.3299 C1015.67,259.4599 1214.86,279.7799 1283,309.2799 C1313.45,322.4599 1326.72,326.3299 1341,356.2799 C1362.59,401.5699 1341.52,437.0999 1297,460.2399 C1235.98,491.9599 1044.1029,507.9766 949.0629,514.2066" fill="none" id="monitoring__alerting-to-server" style="stroke:#A6ADC8;stroke-width:1;"/><polygon fill="#A6ADC8" points="941.08,514.7299,949.2591,517.2002,948.8666,511.2131,941.08,514.7299" style="stroke:#A6ADC8;stroke-width:1;"/><text fill="#CDD6F4" font-family="'JetBrains Mono,monospace'" font-size="12" font-weight="bold" lengthAdjust="spacing" textLength="57.6005" x="1350.54" y="389.5">includes</text></g><!--link server to monitoring__alerting--><g class="link" data-entity-1="ent0011" data-entity-2="ent0004" data-link-type="dependency" data-source-line="1779" id="lnk49"><path d="M915.27,489.9299 C924.59,476.4199 932.02,459.5899 928,443.2399 C911.98,377.9999 897.68,363.4799 858,309.2799 C849.91,298.2299 845.6448,292.9487 835.9748,283.1687" fill="none" id="server-to-monitoring__alerting" style="stroke:#A6ADC8;stroke-width:1;"/><polygon fill="#A6ADC8" points="830.35,277.4799,833.8415,285.278,838.1081,281.0594,830.35,277.4799" style="stroke:#A6ADC8;stroke-width:1;"/><text fill="#CDD6F4" font-family="'JetBrains Mono,monospace'" font-size="12" font-weight="bold" lengthAdjust="spacing" textLength="57.6005" x="920.47" y="389.5">includes</text></g><!--link monitoring__nginx_exporter to server--><g class="link" data-entity-1="ent0009" data-entity-2="ent0011" data-link-type="dependency" data-source-line="1779" id="lnk38"><path d="M865.1,1075.4999 C881.41,1025.5999 909.6,931.5399 920,848.7999 C924.04,816.6999 922.29,808.2699 920,775.9999 C917.55,741.5199 913.78,733.2399 909,698.9999 C902.63,653.3299 899.62,642.0799 895,596.1999 C893.37,580.0499 892.6101,569.9072 891.7901,555.3572" fill="none" id="monitoring__nginx_exporter-to-server" style="stroke:#A6ADC8;stroke-width:1;"/><polygon fill="#A6ADC8" points="891.34,547.3699,888.7949,555.526,894.7854,555.1884,891.34,547.3699" style="stroke:#A6ADC8;stroke-width:1;"/><text fill="#CDD6F4" font-family="'JetBrains Mono,monospace'" font-size="12" font-weight="bold" lengthAdjust="spacing" textLength="57.6005" x="923.42" y="817.14">includes</text></g><!--link server to monitoring__nginx_exporter--><g class="link" data-entity-1="ent0011" data-entity-2="ent0009" data-link-type="dependency" data-source-line="1779" id="lnk53"><path d="M878.19,547.6899 C867.36,575.9099 853,620.9999 853,661.5999 C853,661.5999 853,661.5999 853,963.1999 C853,1001.4299 853,1037.2299 853,1067.1599" fill="none" id="server-to-monitoring__nginx_exporter" style="stroke:#A6ADC8;stroke-width:1;"/><polygon fill="#A6ADC8" points="853,1075.1599,856,1067.1599,850,1067.1599,853,1075.1599" style="stroke:#A6ADC8;stroke-width:1;"/><text fill="#CDD6F4" font-family="'JetBrains Mono,monospace'" font-size="12" font-weight="bold" lengthAdjust="spacing" textLength="57.6005" x="854" y="817.14">includes</text></g><!--link monitoring__node_exporter to server--><g class="link" data-entity-1="ent0010" data-entity-2="ent0011" data-link-type="dependency" data-source-line="1779" id="lnk39"><path d="M1309.34,925.3399 C1308.79,879.6699 1308.8,798.3499 1314,728.9999 C1315.01,715.5899 1317.11,712.4199 1318,698.9999 C1320.14,666.7099 1329.17,656.5599 1318,626.1999 C1308.53,600.4599 1302.66,591.2199 1278,579.1999 C1258.61,569.7499 1105.33,574.4299 1084,571.1999 C1034.56,563.7099 987.234,550.7999 948.464,538.8299" fill="none" id="monitoring__node_exporter-to-server" style="stroke:#A6ADC8;stroke-width:1;"/><polygon fill="#A6ADC8" points="940.82,536.4699,947.579,541.6964,949.349,535.9635,940.82,536.4699" style="stroke:#A6ADC8;stroke-width:1;"/><text fill="#CDD6F4" font-family="'JetBrains Mono,monospace'" font-size="12" font-weight="bold" lengthAdjust="spacing" textLength="57.6005" x="1315" y="742.24">includes</text></g><!--link server to monitoring__node_exporter--><g class="link" data-entity-1="ent0011" data-entity-2="ent0010" data-link-type="dependency" data-source-line="1779" id="lnk54"><path d="M940.81,536.5299 C979.58,548.5299 1034.54,563.8099 1084,571.1999 C1107.64,574.7299 1278.17,567.4799 1299,579.1999 C1370.33,619.3299 1389.3,665.0899 1377,745.9999 C1367.12,810.9899 1344.2787,875.9153 1327.7287,917.9853" fill="none" id="server-to-monitoring__node_exporter" style="stroke:#A6ADC8;stroke-width:1;"/><polygon fill="#A6ADC8" points="1324.8,925.4299,1330.5204,919.0835,1324.9369,916.887,1324.8,925.4299" style="stroke:#A6ADC8;stroke-width:1;"/><text fill="#CDD6F4" font-family="'JetBrains Mono,monospace'" font-size="12" font-weight="bold" lengthAdjust="spacing" textLength="57.6005" x="1380.1" y="742.24">includes</text></g><!--link networking to server--><g class="link" data-entity-1="ent0008" data-entity-2="ent0011" data-link-type="dependency" data-source-line="1779" id="lnk40"><path d="M1185.23,625.7699 C1158.56,609.9899 1125.9,592.1399 1095,579.1999 C1044.07,557.8699 990.7562,543.099 948.5862,532.909" fill="none" id="networking-to-server" style="stroke:#A6ADC8;stroke-width:1;"/><polygon fill="#A6ADC8" points="940.81,531.0299,947.8816,535.825,949.2908,529.9929,940.81,531.0299" style="stroke:#A6ADC8;stroke-width:1;"/><text fill="#CDD6F4" font-family="'JetBrains Mono,monospace'" font-size="12" font-weight="bold" lengthAdjust="spacing" textLength="57.6005" x="1129.48" y="592.44">includes</text></g><!--link server to networking--><g class="link" data-entity-1="ent0011" data-entity-2="ent0008" data-link-type="dependency" data-source-line="1779" id="lnk52"><path d="M941.1,524.5099 C1017.03,532.4899 1155.01,550.4899 1195,579.1999 C1210.92,590.6299 1218.9107,601.9374 1226.4207,618.5874" fill="none" id="server-to-networking" style="stroke:#A6ADC8;stroke-width:1;"/><polygon fill="#A6ADC8" points="1229.71,625.8799,1229.1554,617.3539,1223.686,619.8209,1229.71,625.8799" style="stroke:#A6ADC8;stroke-width:1;"/><text fill="#CDD6F4" font-family="'JetBrains Mono,monospace'" font-size="12" font-weight="bold" lengthAdjust="spacing" textLength="57.6005" x="1212.46" y="592.44">includes</text></g><!--link tailscale to server--><g class="link" data-entity-1="ent0012" data-entity-2="ent0011" data-link-type="dependency" data-source-line="1779" id="lnk41"><path d="M511.78,625.8799 C533.64,609.3399 561.4,590.8199 589,579.1999 C672.34,544.1199 769.5371,530.179 830.9371,524.249" fill="none" id="tailscale-to-server" style="stroke:#A6ADC8;stroke-width:1;"/><polygon fill="#A6ADC8" points="838.9,523.4799,830.6487,521.2629,831.2254,527.2351,838.9,523.4799" style="stroke:#A6ADC8;stroke-width:1;"/><text fill="#CDD6F4" font-family="'JetBrains Mono,monospace'" font-size="12" font-weight="bold" lengthAdjust="spacing" textLength="57.6005" x="590" y="592.44">includes</text></g><!--link server to tailscale--><g class="link" data-entity-1="ent0011" data-entity-2="ent0012" data-link-type="dependency" data-source-line="1779" id="lnk55"><path d="M839.1,526.5399 C732.8,540.8999 496.46,573.3699 490,579.1999 C477.07,590.8699 472.6308,601.3566 470.4908,617.8266" fill="none" id="server-to-tailscale" style="stroke:#A6ADC8;stroke-width:1;"/><polygon fill="#A6ADC8" points="469.46,625.7599,473.4658,618.2132,467.5158,617.4401,469.46,625.7599" style="stroke:#A6ADC8;stroke-width:1;"/><text fill="#CDD6F4" font-family="'JetBrains Mono,monospace'" font-size="12" font-weight="bold" lengthAdjust="spacing" textLength="57.6005" x="491" y="592.44">includes</text></g><!--link virtualization to server--><g class="link" data-entity-1="ent0013" data-entity-2="ent0011" data-link-type="dependency" data-source-line="1779" id="lnk42"><path d="M546.66,776.4899 C564.92,767.3199 584,756.9099 601,745.9999 C628.92,728.0799 633.27,719.9499 659,698.9999 C724.63,645.5699 739.49,630.2299 807,579.1999 C821,568.6199 830.0751,561.9627 843.9251,552.0927" fill="none" id="virtualization-to-server" style="stroke:#A6ADC8;stroke-width:1;"/><polygon fill="#A6ADC8" points="850.44,547.4499,842.184,549.6496,845.6661,554.5358,850.44,547.4499" style="stroke:#A6ADC8;stroke-width:1;"/><text fill="#CDD6F4" font-family="'JetBrains Mono,monospace'" font-size="12" font-weight="bold" lengthAdjust="spacing" textLength="57.6005" x="747.04" y="667.34">includes</text></g><!--link server to virtualization--><g class="link" data-entity-1="ent0011" data-entity-2="ent0013" data-link-type="dependency" data-source-line="1779" id="lnk56"><path d="M838.93,535.5999 C758.85,560.8499 610.84,609.0499 592,626.1999 C548.53,665.7599 570.02,698.0699 536,745.9999 C528.66,756.3399 525.2331,760.7993 516.1531,769.8593" fill="none" id="server-to-virtualization" style="stroke:#A6ADC8;stroke-width:1;"/><polygon fill="#A6ADC8" points="510.49,775.5099,518.2721,771.983,514.0341,767.7356,510.49,775.5099" style="stroke:#A6ADC8;stroke-width:1;"/><text fill="#CDD6F4" font-family="'JetBrains Mono,monospace'" font-size="12" font-weight="bold" lengthAdjust="spacing" textLength="57.6005" x="593" y="667.34">includes</text></g><!--link virtualization__docker to server--><g class="link" data-entity-1="ent0006" data-entity-2="ent0011" data-link-type="dependency" data-source-line="1779" id="lnk43"><path d="M455.87,925.4199 C564.59,869.9599 763.3,762.9899 811,698.9999 C844.01,654.7199 819.31,628.5999 844,579.1999 C849.54,568.1099 852.3309,563.3216 859.9009,553.8016" fill="none" id="virtualization__docker-to-server" style="stroke:#A6ADC8;stroke-width:1;"/><polygon fill="#A6ADC8" points="864.88,547.5399,857.5528,551.9344,862.249,555.6688,864.88,547.5399" style="stroke:#A6ADC8;stroke-width:1;"/><text fill="#CDD6F4" font-family="'JetBrains Mono,monospace'" font-size="12" font-weight="bold" lengthAdjust="spacing" textLength="57.6005" x="781.09" y="742.24">includes</text></g><!--link server to virtualization__docker--><g class="link" data-entity-1="ent0011" data-entity-2="ent0006" data-link-type="dependency" data-source-line="1779" id="lnk50"><path d="M839.12,531.2999 C784.15,543.3199 693.84,561.6799 615,571.1999 C582.96,575.0599 500.36,568.2599 470,579.1999 C458.04,583.5099 457.54,589.0999 447,596.1999 C425.82,610.4699 412.21,604.9799 398,626.1999 C336.05,718.6999 357.0099,852.1744 372.4999,917.7144" fill="none" id="server-to-virtualization__docker" style="stroke:#A6ADC8;stroke-width:1;"/><polygon fill="#A6ADC8" points="374.34,925.4999,375.4195,917.0244,369.5804,918.4044,374.34,925.4999" style="stroke:#A6ADC8;stroke-width:1;"/><text fill="#CDD6F4" font-family="'JetBrains Mono,monospace'" font-size="12" font-weight="bold" lengthAdjust="spacing" textLength="57.6005" x="362.07" y="742.24">includes</text></g><!--link monitoring to monitoring__node_exporter--><g class="link" data-entity-1="ent0007" data-entity-2="ent0010" data-link-type="dependency" data-source-line="1779" id="lnk44"><path d="M1220.59,849.1199 C1225.6,864.2599 1232.67,881.6299 1242,895.7999 C1248.94,906.3299 1252.165,910.8213 1261.245,919.8113" fill="none" id="monitoring-to-monitoring__node_exporter" style="stroke:#A6ADC8;stroke-width:1;"/><polygon fill="#A6ADC8" points="1266.93,925.4399,1263.3558,917.6795,1259.1343,921.9432,1266.93,925.4399" style="stroke:#A6ADC8;stroke-width:1;"/><text fill="#CDD6F4" font-family="'JetBrains Mono,monospace'" font-size="12" font-weight="bold" lengthAdjust="spacing" textLength="57.6005" x="1243" y="892.04">includes</text></g><!--link monitoring__alerting to tailscale--><g class="link" data-entity-1="ent0004" data-entity-2="ent0012" data-link-type="dependency" data-source-line="1779" id="lnk45"><path d="M689.41,260.5599 C531.88,291.8299 240.47,359.6399 180,443.2399 C108.13,542.5999 305.7547,615.0237 407.6747,644.9837" fill="none" id="monitoring__alerting-to-tailscale" style="stroke:#A6ADC8;stroke-width:1;"/><polygon fill="#A6ADC8" points="415.35,647.2399,408.5208,642.1055,406.8287,647.862,415.35,647.2399" style="stroke:#A6ADC8;stroke-width:1;"/><text fill="#CDD6F4" font-family="'JetBrains Mono,monospace'" font-size="12" font-weight="bold" lengthAdjust="spacing" textLength="57.6005" x="181" y="456.48">includes</text></g><!--link monitoring__nginx_exporter to monitoring__alerting--><g class="link" data-entity-1="ent0009" data-entity-2="ent0004" data-link-type="dependency" data-source-line="1779" id="lnk46"><path d="M722.58,1103.6799 C566.85,1093.8499 316.22,1074.2199 227,1045.5999 C156.42,1022.9599 82,1037.3199 82,963.1999 C82,383.7599 82,383.7599 82,383.7599 C82,261.3699 485.3703,243.1813 681.4203,241.4313" fill="none" id="monitoring__nginx_exporter-to-monitoring__alerting" style="stroke:#A6ADC8;stroke-width:1;"/><polygon fill="#A6ADC8" points="689.42,241.3599,681.3935,238.4314,681.4471,244.4312,689.42,241.3599" style="stroke:#A6ADC8;stroke-width:1;"/><text fill="#CDD6F4" font-family="'JetBrains Mono,monospace'" font-size="12" font-weight="bold" lengthAdjust="spacing" textLength="57.6005" x="83" y="667.34">includes</text></g><!--link monitoring__node_exporter to monitoring__nginx_exporter--><g class="link" data-entity-1="ent0010" data-entity-2="ent0009" data-link-type="dependency" data-source-line="1779" id="lnk47"><path d="M1199.08,999.0699 C1127.62,1022.1799 1042.682,1049.6586 971.272,1072.7486" fill="none" id="monitoring__node_exporter-to-monitoring__nginx_exporter" style="stroke:#A6ADC8;stroke-width:1;"/><polygon fill="#A6ADC8" points="963.66,1075.2099,972.195,1075.6031,970.349,1069.8941,963.66,1075.2099" style="stroke:#A6ADC8;stroke-width:1;"/><text fill="#CDD6F4" font-family="'JetBrains Mono,monospace'" font-size="12" font-weight="bold" lengthAdjust="spacing" textLength="57.6005" x="1096.2" y="1041.84">includes</text></g><!--link networking to monitoring--><g class="link" data-entity-1="ent0008" data-entity-2="ent0007" data-link-type="dependency" data-source-line="1779" id="lnk48"><path d="M1219.51,699.3799 C1214.77,708.6899 1210.46,718.9299 1208,728.9999 C1204.33,744.0199 1203.6477,753.0557 1204.8277,767.7057" fill="none" id="networking-to-monitoring" style="stroke:#A6ADC8;stroke-width:1;"/><polygon fill="#A6ADC8" points="1205.47,775.6799,1207.818,767.4649,1201.8374,767.9466,1205.47,775.6799" style="stroke:#A6ADC8;stroke-width:1;"/><text fill="#CDD6F4" font-family="'JetBrains Mono,monospace'" font-size="12" font-weight="bold" lengthAdjust="spacing" textLength="57.6005" x="1209" y="742.24">includes</text></g><!--link tailscale to virtualization--><g class="link" data-entity-1="ent0012" data-entity-2="ent0013" data-link-type="dependency" data-source-line="1779" id="lnk57"><path d="M469,699.3799 C469,722.5299 469,744.5599 469,767.6899" fill="none" id="tailscale-to-virtualization" style="stroke:#A6ADC8;stroke-width:1;"/><polygon fill="#A6ADC8" points="469,775.6899,472,767.6899,466,767.6899,469,775.6899" style="stroke:#A6ADC8;stroke-width:1;"/><text fill="#CDD6F4" font-family="'JetBrains Mono,monospace'" font-size="12" font-weight="bold" lengthAdjust="spacing" textLength="57.6005" x="470" y="742.24">includes</text></g><!--link virtualization to virtualization__docker--><g class="link" data-entity-1="ent0013" data-entity-2="ent0006" data-link-type="dependency" data-source-line="1779" id="lnk58"><path d="M448.42,849.1799 C435.11,872.3299 421.8301,895.426 408.5201,918.556" fill="none" id="virtualization-to-virtualization__docker" style="stroke:#A6ADC8;stroke-width:1;"/><polygon fill="#A6ADC8" points="404.53,925.4899,411.1203,920.0523,405.9199,917.0597,404.53,925.4899" style="stroke:#A6ADC8;stroke-width:1;"/><text fill="#CDD6F4" font-family="'JetBrains Mono,monospace'" font-size="12" font-weight="bold" lengthAdjust="spacing" textLength="57.6005" x="430.05" y="892.04">includes</text></g><?plantuml-src fLPDRzim3BtxLtZUfSKQP6c3h1Y67H9WXm4TXku72AhDPa9ioP3bfDtG_pxPbYtPiJxMNbf5VEGZ7oNAxmXDypg3-CjklTojqOuL9QD0nTUeEX1QOewB-06dXprdDSrsB6SyVh-25Lo3WSZW4TUv-CQeK90qopQFwtd83rn0d7m7iUMOq2g-OvHT5V9FLU8K4iC9SyvEAYBUu2ozdHfTb3-1LunkfzdVh6wkrpCunZFWDh8EusBxzLm9AFni2kTawp0kjfsqIV60-marrCavmDoqwdo4qFPG3ws2kMYt3H7cptxM0McIRj9F7sytCoWNvpsa0jDz3dvI3NMMEi3EQQD84963LYC-4ZXzZa_miAY07u57KNSeK9_xXRIXpdOL9ngONCP_erYtKplyPfMGqEQV0iMQy49UG28O9tIF4Cw12xcIQBszx7SJkKt94wkIoqcCPbBKfJHtYmPuXZaIBcgSapzO44OHobXwQ4iO6vRTlfrB9pRAqkv0GPmOFtGE-aS80q9qJ-WJWgUIST5cQ-ZIsXQzBJ0Uoy0MJfe2eWsjLssVqrgUWBnAPT-aSLZRGuuxSDOIq_5b_eYbQwG6lSIgrSnPoq0slkJiI3AeKECYmw2wQklfzvVTzgBPdgrk4gKvrrG-BMQ8VY_4lwYRMlkDKIQTQT6RL3IB1ggCDksvqikSFRVgD8kalP05t66Azy0_Q7rVekWUyk5A3UrMBtO3Qko-8fnIlosM8RWxa0Q-8PiHzhMPk8ASz_-LLNa3cQDh69bMZ3cEGz3JKHNaCnv7DXTpXDem_K6rsOsPP8DCvr0OJZyb_ehjzsbUzn3qLFSWdx7kDXTJTnl6qDK6cUeQXjEw-YkwYbsFN93Kvflr7sfRFb_2jNU-zev-ZBv3B7SXBBaURVr2yaQtOqOVFm5P-XIOzN6tktTnD7XU0UTPzq6dzW1n_m40?></g></svg>