<svg id="my-svg" width="100%" xmlns="http://www.w3.org/2000/svg" xmlns:xlink="http://www.w3.org/1999/xlink" class="flowchart" style="max-width: 90.73px; background-color: rgb(30, 30, 46);" viewBox="4 4 90.72996520996094 55" role="graphics-document document" aria-roledescription="flowchart-v2"><style>#my-svg{font-family:JetBrains Mono,Fira Code,DejaVu Sans Mono,monospace;font-size:16px;fill:#cdd6f4;}@keyframes edge-animation-frame{from{stroke-dashoffset:0;}}@keyframes dash{to{stroke-dashoffset:0;}}#my-svg .edge-animation-slow{stroke-dasharray:9,5!important;stroke-dashoffset:900;animation:dash 50s linear infinite;stroke-linecap:round;}#my-svg .edge-animation-fast{stroke-dasharray:9,5!important;stroke-dashoffset:900;animation:dash 20s linear infinite;stroke-linecap:round;}#my-svg .error-icon{fill:#313244;}#my-svg .error-text{fill:#cdd6f4;stroke:#cdd6f4;}#my-svg .edge-thickness-normal{stroke-width:1px;}#my-svg .edge-thickness-thick{stroke-width:3.5px;}#my-svg .edge-pattern-solid{stroke-dasharray:0;}#my-svg .edge-thickness-invisible{stroke-width:0;fill:none;}#my-svg .edge-pattern-dashed{stroke-dasharray:3;}#my-svg .edge-pattern-dotted{stroke-dasharray:2;}#my-svg .marker{fill:#a6adc8;stroke:#a6adc8;}#my-svg .marker.cross{stroke:#a6adc8;}#my-svg svg{font-family:JetBrains Mono,Fira Code,DejaVu Sans Mono,monospace;font-size:16px;}#my-svg p{margin:0;}#my-svg .label{font-family:JetBrains Mono,Fira Code,DejaVu Sans Mono,monospace;color:#cdd6f4;}#my-svg .cluster-label text{fill:#cdd6f4;}#my-svg .cluster-label span{color:#cdd6f4;}#my-svg .cluster-label span p{background-color:transparent;}#my-svg .label text,#my-svg span{fill:#cdd6f4;color:#cdd6f4;}#my-svg .node rect,#my-svg .node circle,#my-svg .node ellipse,#my-svg .node polygon,#my-svg .node path{fill:#313244;stroke:#a6adc8;stroke-width:1px;}#my-svg .rough-node .label text,#my-svg .node .label text,#my-svg .image-shape .label,#my-svg .icon-shape .label{text-anchor:middle;}#my-svg .node .katex path{fill:#000;stroke:#000;stroke-width:1px;}#my-svg .rough-node .label,#my-svg .node .label,#my-svg .image-shape .label,#my-svg .icon-shape .label{text-align:center;}#my-svg .node.clickable{cursor:pointer;}#my-svg .root .anchor path{fill:#a6adc8!important;stroke-width:0;stroke:#a6adc8;}#my-svg .arrowheadPath{fill:#e1e1d1;}#my-svg .edgePath .path{stroke:#a6adc8;stroke-width:1px;}#my-svg .flowchart-link{stroke:#a6adc8;fill:none;}#my-svg .edgeLabel{background-color:#1e1e2e;text-align:center;}#my-svg .edgeLabel p{background-color:#1e1e2e;}#my-svg .edgeLabel rect{opacity:0.5;background-color:#1e1e2e;fill:#1e1e2e;}#my-svg .labelBkg{background-color:rgba(30, 30, 46, 0.5);}#my-svg .cluster rect{fill:#313244;stroke:#6c7086;stroke-width:1px;}#my-svg .cluster text{fill:#cdd6f4;}#my-svg .cluster span{color:#cdd6f4;}#my-svg div.mermaidTooltip{position:absolute;text-align:center;max-width:200px;padding:2px;font-family:JetBrains Mono,Fira Code,DejaVu Sans Mono,monospace;font-size:12px;background:#313244;border:1px solid #6c7086;border-radius:2px;pointer-events:none;z-index:100;}#my-svg .flowchartTitleText{text-anchor:middle;font-size:18px;fill:#cdd6f4;}#my-svg rect.text{fill:none;stroke-width:0;}#my-svg .icon-shape,#my-svg .image-shape{background-color:#1e1e2e;text-align:center;}#my-svg .icon-shape p,#my-svg .image-shape p{background-color:#1e1e2e;padding:2px;}#my-svg .icon-shape .label rect,#my-svg .image-shape .label rect{opacity:0.5;background-color:#1e1e2e;fill:#1e1e2e;}#my-svg .label-icon{display:inline-block;height:1em;overflow:visible;vertical-align:-0.125em;}#my-svg .node .label-icon path{fill:currentColor;stroke:revert;stroke-width:revert;}#my-svg .node .neo-node{stroke:#a6adc8;}#my-svg [data-look="neo"].node rect,#my-svg [data-look="neo"].cluster rect,#my-svg [data-look="neo"].node polygon{stroke:url(#my-svg-gradient);filter:drop-shadow( 1px 2px 2px rgba(185,185,185,1));}#my-svg [data-look="neo"].node path{stroke:url(#my-svg-gradient);stroke-width:1px;}#my-svg [data-look="neo"].node .outer-path{filter:drop-shadow( 1px 2px 2px rgba(185,185,185,1));}#my-svg [data-look="neo"].node .neo-line path{stroke:#a6adc8;filter:none;}#my-svg [data-look="neo"].node circle{stroke:url(#my-svg-gradient);filter:drop-shadow( 1px 2px 2px rgba(185,185,185,1));}#my-svg [data-look="neo"].node circle .state-start{fill:#000000;}#my-svg [data-look="neo"].icon-shape .icon{fill:url(#my-svg-gradient);filter:drop-shadow( 1px 2px 2px rgba(185,185,185,1));}#my-svg [data-look="neo"].icon-shape .icon-neo path{stroke:url(#my-svg-gradient);filter:drop-shadow( 1px 2px 2px rgba(185,185,185,1));}#my-svg :root{--mermaid-font-family:JetBrains Mono,Fira Code,DejaVu Sans Mono,monospace;}#my-svg .root&gt;*{fill:#89b4fa!important;stroke:#89b4fa!important;color:#1e1e2e!important;font-weight:bold!important;}#my-svg .root span{fill:#89b4fa!important;stroke:#89b4fa!important;color:#1e1e2e!important;font-weight:bold!important;}#my-svg .root tspan{fill:#1e1e2e!important;}</style><g><marker id="my-svg_flowchart-v2-pointEnd" class="marker flowchart-v2" viewBox="0 0 10 10" refX="5" refY="5" markerUnits="userSpaceOnUse" markerWidth="8" markerHeight="8" orient="auto"><path d="M 0 0 L 10 5 L 0 10 z" class="arrowMarkerPath" style="stroke-width: 1; stroke-dasharray: 1, 0;"/></marker><marker id="my-svg_flowchart-v2-pointStart" class="marker flowchart-v2" viewBox="0 0 10 10" refX="4.5" refY="5" markerUnits="userSpaceOnUse" markerWidth="8" markerHeight="8" orient="auto"><path d="M 0 5 L 10 10 L 10 0 z" class="arrowMarkerPath" style="stroke-width: 1; stroke-dasharray: 1, 0;"/></marker><marker id="my-svg_flowchart-v2-pointEnd-margin" class="marker flowchart-v2" viewBox="0 0 11.5 14" refX="11.5" refY="7" markerUnits="userSpaceOnUse" markerWidth="10.5" markerHeight="14" orient="auto"><path d="M 0 0 L 11.5 7 L 0 14 z" class="arrowMarkerPath" style="stroke-width: 0; stroke-dasharray: 1, 0;"/></marker><marker id="my-svg_flowchart-v2-pointStart-margin" class="marker flowchart-v2" viewBox="0 0 11.5 14" refX="1" refY="7" markerUnits="userSpaceOnUse" markerWidth="11.5" markerHeight="14" orient="auto"><polygon points="0,7 11.5,14 11.5,0" class="arrowMarkerPath" style="stroke-width: 0; stroke-dasharray: 1, 0;"/></marker><marker id="my-svg_flowchart-v2-circleEnd" class="marker flowchart-v2" viewBox="0 0 10 10" refX="11" refY="5" markerUnits="userSpaceOnUse" markerWidth="11" markerHeight="11" orient="auto"><circle cx="5" cy="5" r="5" class="arrowMarkerPath" style="stroke-width: 1; stroke-dasharray: 1, 0;"/></marker><marker id="my-svg_flowchart-v2-circleStart" class="marker flowchart-v2" viewBox="0 0 10 10" refX="-1" refY="5" markerUnits="userSpaceOnUse" markerWidth="11" markerHeight="11" orient="auto"><circle cx="5" cy="5" r="5" class="arrowMarkerPath" style="stroke-width: 1; stroke-dasharray: 1, 0;"/></marker><marker id="my-svg_flowchart-v2-circleEnd-margin" class="marker flowchart-v2" viewBox="0 0 10 10" refY="5" refX="12.25" markerUnits="userSpaceOnUse" markerWidth="14" markerHeight="14" orient="auto"><circle cx="5" cy="5" r="5" class="arrowMarkerPath" style="stroke-width: 0; stroke-dasharray: 1, 0;"/></marker><marker id="my-svg_flowchart-v2-circleStart-margin" class="marker flowchart-v2" viewBox="0 0 10 10" refX="-2" refY="5" markerUnits="userSpaceOnUse" markerWidth="14" markerHeight="14" orient="auto"><circle cx="5" cy="5" r="5" class="arrowMarkerPath" style="stroke-width: 0; stroke-dasharray: 1, 0;"/></marker><marker id="my-svg_flowchart-v2-crossEnd" class="marker cross flowchart-v2" viewBox="0 0 11 11" refX="12" refY="5.2" markerUnits="userSpaceOnUse" markerWidth="11" markerHeight="11" orient="auto"><path d="M 1,1 l 9,9 M 10,1 l -9,9" class="arrowMarkerPath" style="stroke-width: 2; stroke-dasharray: 1, 0;"/></marker><marker id="my-svg_flowchart-v2-crossStart" class="marker cross flowchart-v2" viewBox="0 0 11 11" refX="-1" refY="5.2" markerUnits="userSpaceOnUse" markerWidth="11" markerHeight="11" orient="auto"><path d="M 1,1 l 9,9 M 10,1 l -9,9" class="arrowMarkerPath" style="stroke-width: 2; stroke-dasharray: 1, 0;"/></marker><marker id="my-svg_flowchart-v2-crossEnd-margin" class="marker cross flowchart-v2" viewBox="0 0 15 15" refX="17.7" refY="7.5" markerUnits="userSpaceOnUse" markerWidth="12" markerHeight="12" orient="auto"><path d="M 1,1 L 14,14 M 1,14 L 14,1" class="arrowMarkerPath" style="stroke-width: 2.5;"/></marker><marker id="my-svg_flowchart-v2-crossStart-margin" class="marker cross flowchart-v2" viewBox="0 0 15 15" refX="-3.5" refY="7.5" markerUnits="userSpaceOnUse" markerWidth="12" markerHeight="12" orient="auto"><path d="M 1,1 L 14,14 M 1,14 L 14,1" class="arrowMarkerPath" style="stroke-width: 2.5; stroke-dasharray: 1, 0;"/></marker></g><defs><filter id="my-svg-drop-shadow" height="130%" width="130%"><feDropShadow dx="4" dy="4" stdDeviation="0" flood-opacity="0.06" flood-color="#000000"/></filter></defs><defs><filter id="my-svg-drop-shadow-small" height="150%" width="150%"><feDropShadow dx="2" dy="2" stdDeviation="0" flood-opacity="0.06" flood-color="#000000"/></filter></defs><linearGradient id="my-svg-gradient" gradientUnits="objectBoundingBox" x1="0%" y1="0%" x2="100%" y2="0%"><stop offset="0%" stop-color="#a6adc8" stop-opacity="1"/><stop offset="100%" stop-color="#6c7086" stop-opacity="1"/></linearGradient><g class="subgraphs"/><g class="nodes"><g class="node default root " id="my-svg-flowchart-alice-0" data-look="classic" transform="translate(49.36498260498047, 31.5)"><g class="basic label-container outer-path"><path d="M-17.875 -19.5 C-3.8226505740233065 -19.5, 10.229698851953387 -19.5, 17.875 -19.5 C17.875 -19.5, 17.875 -19.5, 17.875 -19.5 C18.255709783477354 -19.48779137825052, 18.636419566954707 -19.47558275650104, 19.1243692896239 -19.45993515863156 C19.496608174462587 -19.424025721093926, 19.868847059301274 -19.388116283556297, 20.368604652847864 -19.3399052695533 C20.680932258135126 -19.289410564467207, 20.993259863422384 -19.23891585938112, 21.60259325967676 -19.140403561325776 C22.053747170596154 -19.037430625212828, 22.504901081515545 -18.934457689099883, 22.82126438623539 -18.862249829261074 C23.28563410659925 -18.724427333783485, 23.750003826963106 -18.586604838305895, 24.019610251460602 -18.50658706670804 C24.472421125030326 -18.33994847949655, 24.92523199860005 -18.17330989228506, 25.192706595147794 -18.074876768247425 C25.478664206574457 -17.948291816299996, 25.76462181800112 -17.821706864352567, 26.33573291279238 -17.568892924097174 C26.70892964813587 -17.374196426312395, 27.082126383479363 -17.179499928527612, 27.443992264076783 -16.990714730406097 C27.837217956076778 -16.752339005065032, 28.23044364807677 -16.51396327972397, 28.512930573605697 -16.342718045390892 C28.778023442462263 -16.15780073576189, 29.043116311318826 -15.972883426132888, 29.538155344578712 -15.627565626425154 C29.75972110586797 -15.4508728279095, 29.981286867157227 -15.274180029393845, 30.51545370850187 -14.848196188198123 C30.726709621316797 -14.656339157704766, 30.93796553413172 -14.464482127211406, 31.440809736767985 -14.007812326905688 C31.64286071562035 -13.79917810254675, 31.844911694472714 -13.59054387818781, 32.31042094296865 -13.10986736009568 C32.62549775336547 -12.739760210225171, 32.9405745637623 -12.369653060354663, 33.12071390812658 -12.158051136245305 C33.31640259413764 -11.895846124596527, 33.5120912801487 -11.633641112947748, 33.868358964640635 -11.156274872382312 C34.03185920914823 -10.905094590855578, 34.19535945365583 -10.653914309328844, 34.55028387860425 -10.108655082055241 C34.72555697454561 -9.797439951885824, 34.900830070486975 -9.486224821716409, 35.163686474273504 -9.019496659696287 C35.31923167270655 -8.696503727015978, 35.474776871139596 -8.37351079433567, 35.70604614880834 -7.893275190886684 C35.80689005022382 -7.644188804706246, 35.90773395163931 -7.395102418525807, 36.175134229970325 -6.734618561215508 C36.31486263900882 -6.313778855890209, 36.45459104804731 -5.892939150564909, 36.56902313421488 -5.548287939305138 C36.6875636485278 -5.096241582446097, 36.80610416284071 -4.644195225587056, 36.88609428754556 -4.339158212148133 C36.968387665123785 -3.916599110995454, 37.05068104270201 -3.494040009842774, 37.125044776581774 -3.1121979531509023 C37.1748232276923 -2.7261261162046555, 37.224601678802834 -2.3400542792584087, 37.28489270250937 -1.872449005199798 C37.31025359547559 -1.477432626306617, 37.3356144884418 -1.0824162474134364, 37.36498121591342 -0.6250057626472757 C37.36498121591342 -0.371352606197826, 37.36498121591342 -0.11769944974837632, 37.36498121591342 0.625005762647271 C37.34205846620151 0.9820460923208272, 37.31913571648959 1.3390864219943832, 37.28489270250937 1.8724490051997846 C37.230718521574495 2.2926132546286224, 37.176544340639616 2.71277750405746, 37.125044776581774 3.1121979531508885 C37.073345188944145 3.377664408958404, 37.02164560130652 3.643130864765919, 36.88609428754556 4.339158212148129 C36.802152042623774 4.6592663728339785, 36.718209797701995 4.979374533519828, 36.56902313421489 5.548287939305125 C36.428744015095056 5.970786295651676, 36.28846489597522 6.3932846519982265, 36.175134229970325 6.734618561215495 C36.04770436368366 7.049372794632433, 35.92027449739699 7.36412702804937, 35.70604614880834 7.893275190886679 C35.575674703012574 8.163994287583655, 35.445303257216814 8.434713384280633, 35.163686474273504 9.019496659696284 C34.96475436371505 9.372720766053348, 34.76582225315661 9.725944872410414, 34.55028387860425 10.108655082055236 C34.38633020553244 10.36053195161922, 34.22237653246063 10.612408821183205, 33.86835896464064 11.156274872382301 C33.64328060385996 11.457859370767927, 33.418202243079264 11.759443869153554, 33.12071390812658 12.158051136245302 C32.823971226208634 12.50662197556306, 32.527228544290686 12.855192814880818, 32.31042094296866 13.10986736009567 C31.99388909724012 13.436712478558228, 31.67735725151158 13.763557597020787, 31.44080973676799 14.007812326905684 C31.160859977074058 14.262055291594965, 30.88091021738013 14.516298256284246, 30.515453708501887 14.848196188198111 C30.30368799033884 15.017073713110712, 30.091922272175793 15.185951238023314, 29.538155344578715 15.627565626425152 C29.246555090144174 15.830973340747125, 28.954954835709632 16.034381055069097, 28.512930573605708 16.34271804539089 C28.22236305160637 16.518861784791184, 27.93179552960703 16.69500552419148, 27.443992264076787 16.990714730406093 C27.035640752532892 17.203751452416917, 26.627289240988997 17.41678817442774, 26.335732912792388 17.56889292409717 C25.890804552355448 17.76584951093173, 25.445876191918508 17.962806097766286, 25.192706595147804 18.07487676824742 C24.854772643460972 18.19923958629538, 24.51683869177414 18.32360240434334, 24.019610251460616 18.506587066708033 C23.632976319463502 18.621337988241855, 23.246342387466388 18.736088909775674, 22.821264386235413 18.86224982926107 C22.502483932313556 18.935009387631865, 22.183703478391703 19.007768946002656, 21.602593259676766 19.140403561325773 C21.16300351289057 19.211473022516763, 20.723413766104372 19.282542483707758, 20.36860465284788 19.3399052695533 C19.98118999791792 19.377278695380102, 19.59377534298796 19.414652121206903, 19.1243692896239 19.45993515863156 C18.77604257914394 19.47110531825984, 18.42771586866398 19.48227547788812, 17.875000000000004 19.5 C17.875000000000004 19.5, 17.875 19.5, 17.875 19.5 C5.743051428218967 19.5, -6.388897143562065 19.5, -17.874999999999996 19.5 C-18.231087757498262 19.488580958699803, -18.587175514996527 19.47716191739961, -19.124369289623893 19.45993515863156 C-19.584357767332992 19.415560623404044, -20.04434624504209 19.371186088176533, -20.36860465284787 19.3399052695533 C-20.82673058030057 19.265839022422377, -21.284856507753265 19.19177277529145, -21.60259325967676 19.140403561325773 C-21.949155154597687 19.061303070337786, -22.29571704951862 18.9822025793498, -22.821264386235388 18.862249829261074 C-23.256999222121017 18.732926017189047, -23.692734058006646 18.60360220511702, -24.01961025146059 18.506587066708043 C-24.412344773606588 18.362057132160192, -24.80507929575258 18.21752719761234, -25.192706595147797 18.074876768247425 C-25.64500257186822 17.87465875623674, -26.097298548588636 17.674440744226057, -26.33573291279238 17.568892924097174 C-26.67648740975334 17.391121521296313, -27.017241906714297 17.213350118495455, -27.44399226407678 16.990714730406097 C-27.733223359226628 16.815381140815678, -28.022454454376476 16.640047551225262, -28.512930573605686 16.3427180453909 C-28.83567127494494 16.11758810335642, -29.158411976284196 15.892458161321944, -29.538155344578712 15.627565626425156 C-29.8967227918624 15.34161762909692, -30.25529023914609 15.055669631768685, -30.51545370850187 14.848196188198125 C-30.830379219225613 14.562189171831228, -31.14530472994936 14.276182155464332, -31.440809736767974 14.007812326905697 C-31.786717530758715 13.650634130052214, -32.132625324749455 13.293455933198732, -32.310420942968655 13.109867360095677 C-32.529220533200565 12.852852911359893, -32.74802012343248 12.595838462624108, -33.120713908126575 12.158051136245307 C-33.37697686637848 11.814682118223535, -33.63323982463037 11.471313100201764, -33.868358964640635 11.156274872382316 C-34.00902354515729 10.940176302980042, -34.14968812567395 10.72407773357777, -34.55028387860425 10.108655082055249 C-34.703871972330504 9.835943869163335, -34.85746006605676 9.56323265627142, -35.163686474273504 9.019496659696289 C-35.36722504519419 8.596844462151735, -35.57076361611487 8.174192264607179, -35.70604614880834 7.893275190886686 C-35.83296596647751 7.579780787416106, -35.95988578414667 7.266286383945525, -36.175134229970325 6.73461856121551 C-36.29333851653218 6.378606083386651, -36.41154280309404 6.022593605557791, -36.56902313421488 5.5482879393051325 C-36.64547803248413 5.25673227644197, -36.72193293075338 4.965176613578808, -36.88609428754556 4.339158212148136 C-36.966064371740245 3.928528731491699, -37.04603445593493 3.517899250835262, -37.125044776581774 3.112197953150904 C-37.16567639330031 2.797067157502215, -37.206308010018844 2.481936361853526, -37.28489270250937 1.872449005199809 C-37.305241566880014 1.55549901731932, -37.32559043125066 1.238549029438831, -37.36498121591342 0.6250057626472781 C-37.36498121591342 0.2685757904301395, -37.36498121591342 -0.08785418178699911, -37.36498121591342 -0.6250057626472687 C-37.33604054581459 -1.0757800599249079, -37.307099875715764 -1.526554357202547, -37.28489270250937 -1.8724490051997822 C-37.229522920984486 -2.3018860967066876, -37.1741531394596 -2.731323188213593, -37.125044776581774 -3.112197953150895 C-37.06847033964191 -3.4026957298255915, -37.01189590270206 -3.6931935065002874, -36.88609428754556 -4.339158212148126 C-36.78152086183637 -4.737942006786682, -36.67694743612717 -5.1367258014252375, -36.56902313421489 -5.548287939305123 C-36.4878798163465 -5.792678684292722, -36.40673649847811 -6.03706942928032, -36.17513422997033 -6.734618561215485 C-36.053916410760976 -7.0340289182496925, -35.93269859155162 -7.3334392752839, -35.70604614880834 -7.893275190886676 C-35.580976078630684 -8.152985867681389, -35.45590600845303 -8.412696544476104, -35.163686474273504 -9.019496659696282 C-34.95820872099746 -9.38434321751664, -34.75273096772141 -9.749189775337001, -34.55028387860425 -10.108655082055243 C-34.32023583556476 -10.462070652712988, -34.09018779252527 -10.815486223370733, -33.86835896464064 -11.156274872382308 C-33.6081557537155 -11.504923470021827, -33.34795254279036 -11.853572067661347, -33.12071390812659 -12.158051136245302 C-32.939762643940156 -12.370606787577305, -32.758811379753716 -12.583162438909309, -32.31042094296866 -13.10986736009567 C-31.993055517346434 -13.437573218236642, -31.675690091724206 -13.765279076377615, -31.440809736767996 -14.007812326905677 C-31.19481542856012 -14.231217848967336, -30.948821120352246 -14.454623371028998, -30.515453708501887 -14.848196188198107 C-30.19192852656515 -15.106198911425995, -29.868403344628412 -15.364201634653881, -29.53815534457872 -15.627565626425149 C-29.12950916587636 -15.912619510679951, -28.720862987174 -16.197673394934753, -28.51293057360571 -16.342718045390885 C-28.183163712095713 -16.54262465476343, -27.853396850585714 -16.742531264135977, -27.44399226407679 -16.99071473040609 C-27.00203748105072 -17.22128225762524, -26.56008269802465 -17.451849784844395, -26.335732912792388 -17.56889292409717 C-26.05295628754144 -17.69406974782521, -25.7701796622905 -17.81924657155325, -25.192706595147804 -18.07487676824742 C-24.78349117615921 -18.22547182518109, -24.37427575717062 -18.376066882114756, -24.01961025146062 -18.506587066708033 C-23.61444372856801 -18.62683836394008, -23.209277205675395 -18.747089661172133, -22.821264386235413 -18.862249829261067 C-22.34210658109749 -18.971614471486905, -21.862948775959566 -19.080979113712743, -21.602593259676766 -19.140403561325773 C-21.144113692619065 -19.214526982165516, -20.685634125561368 -19.288650403005263, -20.368604652847882 -19.3399052695533 C-19.884046842524576 -19.38664997874916, -19.399489032201274 -19.43339468794502, -19.124369289623903 -19.45993515863156 C-18.809264507856714 -19.470039955668582, -18.494159726089528 -19.480144752705606, -17.875000000000007 -19.5 C-17.875000000000004 -19.5, -17.875000000000004 -19.5, -17.875 -19.5" stroke="none" stroke-width="0" fill="#89b4fa" style="fill:#89b4fa !important;stroke:#89b4fa !important"/><path d="M-17.875 -19.5 C-7.428709384732107 -19.5, 3.017581230535786 -19.5, 17.875 -19.5 M-17.875 -19.5 C-6.631287840651085 -19.5, 4.61242431869783 -19.5, 17.875 -19.5 M17.875 -19.5 C17.875 -19.5, 17.875 -19.5, 17.875 -19.5 M17.875 -19.5 C17.875 -19.5, 17.875 -19.5, 17.875 -19.5 M17.875 -19.5 C18.200742857854657 -19.48955406056861, 18.526485715709313 -19.47910812113722, 19.1243692896239 -19.45993515863156 M17.875 -19.5 C18.269317885677847 -19.487354992899515, 18.663635771355693 -19.47470998579903, 19.1243692896239 -19.45993515863156 M19.1243692896239 -19.45993515863156 C19.55053765077723 -19.41882320937354, 19.976706011930556 -19.377711260115518, 20.368604652847864 -19.3399052695533 M19.1243692896239 -19.45993515863156 C19.611188005537784 -19.41297234259251, 20.098006721451668 -19.366009526553462, 20.368604652847864 -19.3399052695533 M20.368604652847864 -19.3399052695533 C20.798845348722722 -19.27034729041068, 21.22908604459758 -19.200789311268064, 21.60259325967676 -19.140403561325776 M20.368604652847864 -19.3399052695533 C20.690527000652693 -19.28785936090531, 21.01244934845752 -19.235813452257318, 21.60259325967676 -19.140403561325776 M21.60259325967676 -19.140403561325776 C22.07515012691335 -19.03254554010077, 22.54770699414994 -18.924687518875768, 22.82126438623539 -18.862249829261074 M21.60259325967676 -19.140403561325776 C22.074163215836933 -19.032770796113766, 22.545733171997107 -18.925138030901756, 22.82126438623539 -18.862249829261074 M22.82126438623539 -18.862249829261074 C23.149317358740813 -18.764885429006657, 23.477370331246235 -18.66752102875224, 24.019610251460602 -18.50658706670804 M22.82126438623539 -18.862249829261074 C23.207407538953014 -18.747644568441256, 23.593550691670632 -18.633039307621434, 24.019610251460602 -18.50658706670804 M24.019610251460602 -18.50658706670804 C24.380819118910125 -18.373658864508446, 24.742027986359652 -18.240730662308852, 25.192706595147794 -18.074876768247425 M24.019610251460602 -18.50658706670804 C24.4883235062561 -18.334096256205463, 24.957036761051604 -18.16160544570289, 25.192706595147794 -18.074876768247425 M25.192706595147794 -18.074876768247425 C25.56299682775429 -17.910960266542006, 25.933287060360787 -17.74704376483659, 26.33573291279238 -17.568892924097174 M25.192706595147794 -18.074876768247425 C25.510371145191357 -17.93425609512721, 25.828035695234924 -17.793635422006993, 26.33573291279238 -17.568892924097174 M26.33573291279238 -17.568892924097174 C26.754412205721973 -17.35046820515269, 27.173091498651566 -17.13204348620821, 27.443992264076783 -16.990714730406097 M26.33573291279238 -17.568892924097174 C26.645764557160646 -17.407149613814997, 26.95579620152891 -17.24540630353282, 27.443992264076783 -16.990714730406097 M27.443992264076783 -16.990714730406097 C27.749853401343316 -16.80529991155557, 28.055714538609845 -16.619885092705044, 28.512930573605697 -16.342718045390892 M27.443992264076783 -16.990714730406097 C27.80845867397214 -16.769773050885163, 28.1729250838675 -16.54883137136423, 28.512930573605697 -16.342718045390892 M28.512930573605697 -16.342718045390892 C28.82115589894077 -16.12771340129643, 29.129381224275843 -15.912708757201967, 29.538155344578712 -15.627565626425154 M28.512930573605697 -16.342718045390892 C28.89382066756327 -16.07702560431251, 29.27471076152084 -15.811333163234131, 29.538155344578712 -15.627565626425154 M29.538155344578712 -15.627565626425154 C29.881437787617443 -15.353807013231226, 30.224720230656175 -15.080048400037295, 30.51545370850187 -14.848196188198123 M29.538155344578712 -15.627565626425154 C29.763110551395837 -15.448169835297957, 29.988065758212965 -15.268774044170762, 30.51545370850187 -14.848196188198123 M30.51545370850187 -14.848196188198123 C30.706415900891002 -14.67476937765305, 30.89737809328014 -14.501342567107976, 31.440809736767985 -14.007812326905688 M30.51545370850187 -14.848196188198123 C30.720086194825925 -14.662354378397513, 30.924718681149976 -14.476512568596902, 31.440809736767985 -14.007812326905688 M31.440809736767985 -14.007812326905688 C31.632407388392878 -13.809972021143242, 31.824005040017767 -13.612131715380798, 32.31042094296865 -13.10986736009568 M31.440809736767985 -14.007812326905688 C31.697723959120175 -13.742527299277118, 31.95463818147237 -13.477242271648548, 32.31042094296865 -13.10986736009568 M32.31042094296865 -13.10986736009568 C32.63248613113656 -12.731551264045297, 32.954551319304464 -12.353235167994914, 33.12071390812658 -12.158051136245305 M32.31042094296865 -13.10986736009568 C32.50769214655853 -12.878141379309529, 32.70496335014842 -12.646415398523375, 33.12071390812658 -12.158051136245305 M33.12071390812658 -12.158051136245305 C33.317385839252196 -11.8945286657185, 33.5140577703778 -11.631006195191697, 33.868358964640635 -11.156274872382312 M33.12071390812658 -12.158051136245305 C33.39865026514163 -11.785641738368149, 33.676586622156684 -11.413232340490994, 33.868358964640635 -11.156274872382312 M33.868358964640635 -11.156274872382312 C34.12714386292412 -10.758711775143686, 34.38592876120761 -10.36114867790506, 34.55028387860425 -10.108655082055241 M33.868358964640635 -11.156274872382312 C34.137607909662044 -10.742636189364248, 34.406856854683454 -10.328997506346184, 34.55028387860425 -10.108655082055241 M34.55028387860425 -10.108655082055241 C34.76137183187074 -9.733847046057496, 34.97245978513723 -9.359039010059751, 35.163686474273504 -9.019496659696287 M34.55028387860425 -10.108655082055241 C34.75146043417044 -9.751445736312231, 34.952636989736625 -9.394236390569219, 35.163686474273504 -9.019496659696287 M35.163686474273504 -9.019496659696287 C35.329354689755085 -8.675483065516822, 35.495022905236674 -8.331469471337355, 35.70604614880834 -7.893275190886684 M35.163686474273504 -9.019496659696287 C35.37485270377245 -8.581005465908222, 35.58601893327139 -8.142514272120156, 35.70604614880834 -7.893275190886684 M35.70604614880834 -7.893275190886684 C35.843720769055864 -7.553216217117601, 35.98139538930339 -7.213157243348518, 36.175134229970325 -6.734618561215508 M35.70604614880834 -7.893275190886684 C35.80825730441165 -7.640811660428265, 35.91046846001495 -7.388348129969846, 36.175134229970325 -6.734618561215508 M36.175134229970325 -6.734618561215508 C36.320586595563995 -6.296539210734647, 36.466038961157665 -5.858459860253786, 36.56902313421488 -5.548287939305138 M36.175134229970325 -6.734618561215508 C36.312771142623404 -6.320078109768376, 36.45040805527649 -5.905537658321244, 36.56902313421488 -5.548287939305138 M36.56902313421488 -5.548287939305138 C36.6700366131035 -5.163079764784162, 36.77105009199211 -4.777871590263185, 36.88609428754556 -4.339158212148133 M36.56902313421488 -5.548287939305138 C36.66157195005859 -5.1953591935825845, 36.754120765902286 -4.842430447860032, 36.88609428754556 -4.339158212148133 M36.88609428754556 -4.339158212148133 C36.96459994917789 -3.936048231843597, 37.04310561081021 -3.5329382515390613, 37.125044776581774 -3.1121979531509023 M36.88609428754556 -4.339158212148133 C36.96186208408677 -3.9501065904384967, 37.037629880627975 -3.56105496872886, 37.125044776581774 -3.1121979531509023 M37.125044776581774 -3.1121979531509023 C37.16227000500661 -2.823486432440673, 37.19949523343145 -2.5347749117304437, 37.28489270250937 -1.872449005199798 M37.125044776581774 -3.1121979531509023 C37.16977263493783 -2.765297516256007, 37.21450049329388 -2.418397079361112, 37.28489270250937 -1.872449005199798 M37.28489270250937 -1.872449005199798 C37.3109687537552 -1.4662934588362901, 37.33704480500103 -1.0601379124727823, 37.36498121591342 -0.6250057626472757 M37.28489270250937 -1.872449005199798 C37.30362403308402 -1.580693411841644, 37.32235536365868 -1.28893781848349, 37.36498121591342 -0.6250057626472757 M37.36498121591342 -0.6250057626472757 C37.36498121591342 -0.19477034911234986, 37.36498121591342 0.23546506442257598, 37.36498121591342 0.625005762647271 M37.36498121591342 -0.6250057626472757 C37.36498121591342 -0.3491162606532509, 37.36498121591342 -0.07322675865922612, 37.36498121591342 0.625005762647271 M37.36498121591342 0.625005762647271 C37.34575348846308 0.9244931380285034, 37.326525761012746 1.2239805134097357, 37.28489270250937 1.8724490051997846 M37.36498121591342 0.625005762647271 C37.3391417131247 1.027476875852784, 37.31330221033598 1.429947989058297, 37.28489270250937 1.8724490051997846 M37.28489270250937 1.8724490051997846 C37.23126733896623 2.2883567353146015, 37.17764197542308 2.704264465429418, 37.125044776581774 3.1121979531508885 M37.28489270250937 1.8724490051997846 C37.2409174643456 2.2135122685049584, 37.19694222618183 2.554575531810132, 37.125044776581774 3.1121979531508885 M37.125044776581774 3.1121979531508885 C37.05152368016886 3.4897132445419476, 36.97800258375596 3.8672285359330063, 36.88609428754556 4.339158212148129 M37.125044776581774 3.1121979531508885 C37.04455681020204 3.525486649373124, 36.964068843822304 3.9387753455953596, 36.88609428754556 4.339158212148129 M36.88609428754556 4.339158212148129 C36.80198313606547 4.659910486745342, 36.71787198458539 4.980662761342554, 36.56902313421489 5.548287939305125 M36.88609428754556 4.339158212148129 C36.79053684678565 4.703560148622476, 36.69497940602574 5.0679620850968226, 36.56902313421489 5.548287939305125 M36.56902313421489 5.548287939305125 C36.4614235634537 5.872360702774378, 36.353823992692504 6.196433466243631, 36.175134229970325 6.734618561215495 M36.56902313421489 5.548287939305125 C36.44752577470288 5.914218628179906, 36.326028415190876 6.280149317054687, 36.175134229970325 6.734618561215495 M36.175134229970325 6.734618561215495 C36.01415983054933 7.132228440013647, 35.85318543112833 7.5298383188118, 35.70604614880834 7.893275190886679 M36.175134229970325 6.734618561215495 C36.01427036118917 7.131955427196286, 35.853406492408006 7.529292293177076, 35.70604614880834 7.893275190886679 M35.70604614880834 7.893275190886679 C35.590120642084095 8.133996986008063, 35.47419513535986 8.374718781129445, 35.163686474273504 9.019496659696284 M35.70604614880834 7.893275190886679 C35.51737479634361 8.285055291199939, 35.32870344387888 8.676835391513197, 35.163686474273504 9.019496659696284 M35.163686474273504 9.019496659696284 C35.000548662266546 9.309164364409412, 34.83741085025959 9.598832069122542, 34.55028387860425 10.108655082055236 M35.163686474273504 9.019496659696284 C34.959086585841554 9.382784479592498, 34.7544866974096 9.746072299488713, 34.55028387860425 10.108655082055236 M34.55028387860425 10.108655082055236 C34.32222705370621 10.459011606930781, 34.09417022880816 10.809368131806325, 33.86835896464064 11.156274872382301 M34.55028387860425 10.108655082055236 C34.34200993281378 10.428619792174691, 34.133735987023314 10.748584502294149, 33.86835896464064 11.156274872382301 M33.86835896464064 11.156274872382301 C33.66395771044305 11.430153931669743, 33.45955645624545 11.704032990957186, 33.12071390812658 12.158051136245302 M33.86835896464064 11.156274872382301 C33.60197459547667 11.513205658946758, 33.33559022631269 11.870136445511212, 33.12071390812658 12.158051136245302 M33.12071390812658 12.158051136245302 C32.839616583834506 12.48824404824964, 32.558519259542436 12.81843696025398, 32.31042094296866 13.10986736009567 M33.12071390812658 12.158051136245302 C32.799736952267246 12.535088932703866, 32.47875999640791 12.912126729162432, 32.31042094296866 13.10986736009567 M32.31042094296866 13.10986736009567 C32.0874646272356 13.340088061144009, 31.864508311502533 13.570308762192345, 31.44080973676799 14.007812326905684 M32.31042094296866 13.10986736009567 C32.103622618238816 13.32340360883745, 31.896824293508974 13.53693985757923, 31.44080973676799 14.007812326905684 M31.44080973676799 14.007812326905684 C31.164822628803158 14.258456516140615, 30.88883552083833 14.509100705375548, 30.515453708501887 14.848196188198111 M31.44080973676799 14.007812326905684 C31.07358897115269 14.341312510108466, 30.706368205537398 14.67481269331125, 30.515453708501887 14.848196188198111 M30.515453708501887 14.848196188198111 C30.241544748943216 15.066631294422619, 29.96763578938454 15.285066400647127, 29.538155344578715 15.627565626425152 M30.515453708501887 14.848196188198111 C30.210683619182472 15.091242224157657, 29.90591352986306 15.334288260117203, 29.538155344578715 15.627565626425152 M29.538155344578715 15.627565626425152 C29.26078127113501 15.821049772729365, 28.983407197691307 16.01453391903358, 28.512930573605708 16.34271804539089 M29.538155344578715 15.627565626425152 C29.155690347967024 15.894356651418612, 28.773225351355336 16.16114767641207, 28.512930573605708 16.34271804539089 M28.512930573605708 16.34271804539089 C28.284850997632596 16.480981224690154, 28.056771421659487 16.619244403989416, 27.443992264076787 16.990714730406093 M28.512930573605708 16.34271804539089 C28.12832702893987 16.575866974348624, 27.743723484274035 16.809015903306356, 27.443992264076787 16.990714730406093 M27.443992264076787 16.990714730406093 C27.215115256000164 17.11011971891695, 26.986238247923538 17.229524707427803, 26.335732912792388 17.56889292409717 M27.443992264076787 16.990714730406093 C27.205054680968193 17.11536831446702, 26.9661170978596 17.240021898527946, 26.335732912792388 17.56889292409717 M26.335732912792388 17.56889292409717 C26.10048460321009 17.67303037235609, 25.8652362936278 17.777167820615013, 25.192706595147804 18.07487676824742 M26.335732912792388 17.56889292409717 C25.981029044582044 17.725909804637485, 25.626325176371697 17.882926685177797, 25.192706595147804 18.07487676824742 M25.192706595147804 18.07487676824742 C24.77466340727368 18.228720525733966, 24.35662021939956 18.382564283220507, 24.019610251460616 18.506587066708033 M25.192706595147804 18.07487676824742 C24.928766254592173 18.172009253409655, 24.66482591403654 18.26914173857189, 24.019610251460616 18.506587066708033 M24.019610251460616 18.506587066708033 C23.586011490994956 18.635276902807902, 23.152412730529296 18.763966738907776, 22.821264386235413 18.86224982926107 M24.019610251460616 18.506587066708033 C23.6771889152169 18.608215921898896, 23.334767578973178 18.709844777089764, 22.821264386235413 18.86224982926107 M22.821264386235413 18.86224982926107 C22.466398495705835 18.943245653058096, 22.11153260517626 19.02424147685512, 21.602593259676766 19.140403561325773 M22.821264386235413 18.86224982926107 C22.343881845590207 18.97120927895113, 21.866499304945002 19.080168728641187, 21.602593259676766 19.140403561325773 M21.602593259676766 19.140403561325773 C21.210983286960378 19.203716024733865, 20.819373314243986 19.267028488141953, 20.36860465284788 19.3399052695533 M21.602593259676766 19.140403561325773 C21.16191616233427 19.211648816922178, 20.72123906499177 19.282894072518584, 20.36860465284788 19.3399052695533 M20.36860465284788 19.3399052695533 C19.934341545289485 19.38179810926166, 19.50007843773109 19.423690948970016, 19.1243692896239 19.45993515863156 M20.36860465284788 19.3399052695533 C20.09291483649374 19.366500734571467, 19.817225020139606 19.39309619958964, 19.1243692896239 19.45993515863156 M19.1243692896239 19.45993515863156 C18.680805509362248 19.47415938572003, 18.237241729100592 19.488383612808498, 17.875000000000004 19.5 M19.1243692896239 19.45993515863156 C18.772518493827402 19.471218328816725, 18.420667698030904 19.48250149900189, 17.875000000000004 19.5 M17.875000000000004 19.5 C17.875000000000004 19.5, 17.875000000000004 19.5, 17.875 19.5 M17.875000000000004 19.5 C17.875000000000004 19.5, 17.875 19.5, 17.875 19.5 M17.875 19.5 C7.307306945173208 19.5, -3.2603861096535844 19.5, -17.874999999999996 19.5 M17.875 19.5 C5.141006200648732 19.5, -7.5929875987025355 19.5, -17.874999999999996 19.5 M-17.874999999999996 19.5 C-18.331962105084877 19.48534611471271, -18.78892421016976 19.470692229425417, -19.124369289623893 19.45993515863156 M-17.874999999999996 19.5 C-18.151515243966177 19.491132694330275, -18.42803048793236 19.48226538866055, -19.124369289623893 19.45993515863156 M-19.124369289623893 19.45993515863156 C-19.379466506031527 19.435326236964002, -19.634563722439164 19.41071731529645, -20.36860465284787 19.3399052695533 M-19.124369289623893 19.45993515863156 C-19.396079819333867 19.43372357061016, -19.66779034904384 19.40751198258876, -20.36860465284787 19.3399052695533 M-20.36860465284787 19.3399052695533 C-20.659047855154217 19.292948665025083, -20.94949105746056 19.245992060496867, -21.60259325967676 19.140403561325773 M-20.36860465284787 19.3399052695533 C-20.7146566622153 19.283958264352187, -21.060708671582734 19.22801125915107, -21.60259325967676 19.140403561325773 M-21.60259325967676 19.140403561325773 C-22.074330859826176 19.032732532467197, -22.546068459975597 18.925061503608624, -22.821264386235388 18.862249829261074 M-21.60259325967676 19.140403561325773 C-21.95458279209781 19.060064247497028, -22.306572324518857 18.979724933668283, -22.821264386235388 18.862249829261074 M-22.821264386235388 18.862249829261074 C-23.138638146187663 18.7680549632361, -23.45601190613994 18.673860097211126, -24.01961025146059 18.506587066708043 M-22.821264386235388 18.862249829261074 C-23.24830183946916 18.735507354706627, -23.675339292702933 18.608764880152176, -24.01961025146059 18.506587066708043 M-24.01961025146059 18.506587066708043 C-24.364246625059202 18.37975769544004, -24.708882998657813 18.252928324172036, -25.192706595147797 18.074876768247425 M-24.01961025146059 18.506587066708043 C-24.483009041108723 18.336052028506078, -24.94640783075685 18.165516990304113, -25.192706595147797 18.074876768247425 M-25.192706595147797 18.074876768247425 C-25.635968142709334 17.87865803002856, -26.07922969027087 17.682439291809693, -26.33573291279238 17.568892924097174 M-25.192706595147797 18.074876768247425 C-25.455170178717637 17.958691925506635, -25.717633762287477 17.84250708276585, -26.33573291279238 17.568892924097174 M-26.33573291279238 17.568892924097174 C-26.66930100132517 17.394870665970174, -27.002869089857963 17.220848407843174, -27.44399226407678 16.990714730406097 M-26.33573291279238 17.568892924097174 C-26.699290081203134 17.379225382206766, -27.062847249613885 17.189557840316354, -27.44399226407678 16.990714730406097 M-27.44399226407678 16.990714730406097 C-27.73898991313435 16.811885421948784, -28.03398756219192 16.633056113491474, -28.512930573605686 16.3427180453909 M-27.44399226407678 16.990714730406097 C-27.68663227280196 16.843624931205927, -27.92927228152714 16.696535132005756, -28.512930573605686 16.3427180453909 M-28.512930573605686 16.3427180453909 C-28.90867798497631 16.06666178284808, -29.304425396346932 15.79060552030526, -29.538155344578712 15.627565626425156 M-28.512930573605686 16.3427180453909 C-28.76844797596298 16.164480166676523, -29.023965378320277 15.986242287962149, -29.538155344578712 15.627565626425156 M-29.538155344578712 15.627565626425156 C-29.74664744532366 15.46129872428887, -29.95513954606861 15.295031822152582, -30.51545370850187 14.848196188198125 M-29.538155344578712 15.627565626425156 C-29.851079714100294 15.37801676899889, -30.164004083621876 15.128467911572622, -30.51545370850187 14.848196188198125 M-30.51545370850187 14.848196188198125 C-30.863554343378606 14.532060401841166, -31.211654978255343 14.215924615484207, -31.440809736767974 14.007812326905697 M-30.51545370850187 14.848196188198125 C-30.84903070050734 14.54525039002232, -31.182607692512804 14.242304591846514, -31.440809736767974 14.007812326905697 M-31.440809736767974 14.007812326905697 C-31.660063497147473 13.781414818245365, -31.87931725752697 13.555017309585033, -32.310420942968655 13.109867360095677 M-31.440809736767974 14.007812326905697 C-31.686106915567496 13.754522850522273, -31.931404094367018 13.501233374138847, -32.310420942968655 13.109867360095677 M-32.310420942968655 13.109867360095677 C-32.55096164187573 12.827314568005917, -32.791502340782806 12.544761775916157, -33.120713908126575 12.158051136245307 M-32.310420942968655 13.109867360095677 C-32.49271431206605 12.895735195967326, -32.67500768116344 12.681603031838975, -33.120713908126575 12.158051136245307 M-33.120713908126575 12.158051136245307 C-33.27192310609312 11.955444586411463, -33.42313230405966 11.752838036577618, -33.868358964640635 11.156274872382316 M-33.120713908126575 12.158051136245307 C-33.296690084328844 11.922259091893721, -33.47266626053112 11.686467047542136, -33.868358964640635 11.156274872382316 M-33.868358964640635 11.156274872382316 C-34.10082349845532 10.799146922975243, -34.333288032270005 10.44201897356817, -34.55028387860425 10.108655082055249 M-33.868358964640635 11.156274872382316 C-34.01932078827394 10.92435697235593, -34.17028261190725 10.692439072329543, -34.55028387860425 10.108655082055249 M-34.55028387860425 10.108655082055249 C-34.76827490117379 9.721589947498368, -34.98626592374333 9.334524812941488, -35.163686474273504 9.019496659696289 M-34.55028387860425 10.108655082055249 C-34.68185070636704 9.875044856776455, -34.813417534129826 9.641434631497663, -35.163686474273504 9.019496659696289 M-35.163686474273504 9.019496659696289 C-35.367300092481756 8.596688624853343, -35.57091371069001 8.173880590010397, -35.70604614880834 7.893275190886686 M-35.163686474273504 9.019496659696289 C-35.29201503049822 8.753019666904423, -35.42034358672294 8.486542674112558, -35.70604614880834 7.893275190886686 M-35.70604614880834 7.893275190886686 C-35.83136104234474 7.583744981053139, -35.95667593588114 7.274214771219594, -36.175134229970325 6.73461856121551 M-35.70604614880834 7.893275190886686 C-35.816620036805084 7.620155549734035, -35.927193924801834 7.347035908581383, -36.175134229970325 6.73461856121551 M-36.175134229970325 6.73461856121551 C-36.29076926197479 6.386344268758396, -36.40640429397925 6.038069976301282, -36.56902313421488 5.5482879393051325 M-36.175134229970325 6.73461856121551 C-36.272922184234204 6.440096823367359, -36.37071013849808 6.145575085519208, -36.56902313421488 5.5482879393051325 M-36.56902313421488 5.5482879393051325 C-36.68971633596616 5.08803245226298, -36.81040953771744 4.627776965220827, -36.88609428754556 4.339158212148136 M-36.56902313421488 5.5482879393051325 C-36.639327597803245 5.2801865494954265, -36.709632061391616 5.0120851596857205, -36.88609428754556 4.339158212148136 M-36.88609428754556 4.339158212148136 C-36.97259491483045 3.8949957729542737, -37.05909554211534 3.4508333337604116, -37.125044776581774 3.112197953150904 M-36.88609428754556 4.339158212148136 C-36.947465106894555 4.024032025518292, -37.008835926243556 3.708905838888449, -37.125044776581774 3.112197953150904 M-37.125044776581774 3.112197953150904 C-37.15722306044533 2.8626295378260087, -37.1894013443089 2.6130611225011133, -37.28489270250937 1.872449005199809 M-37.125044776581774 3.112197953150904 C-37.16415427789643 2.8088723839989984, -37.20326377921109 2.5055468148470927, -37.28489270250937 1.872449005199809 M-37.28489270250937 1.872449005199809 C-37.30956837162578 1.4881055408700798, -37.33424404074219 1.1037620765403504, -37.36498121591342 0.6250057626472781 M-37.28489270250937 1.872449005199809 C-37.31588138538371 1.389775255817352, -37.34687006825805 0.9071015064348947, -37.36498121591342 0.6250057626472781 M-37.36498121591342 0.6250057626472781 C-37.36498121591342 0.3136934407353458, -37.36498121591342 0.0023811188234134084, -37.36498121591342 -0.6250057626472687 M-37.36498121591342 0.6250057626472781 C-37.36498121591342 0.1344731750375347, -37.36498121591342 -0.35605941257220874, -37.36498121591342 -0.6250057626472687 M-37.36498121591342 -0.6250057626472687 C-37.343138479485624 -0.9652240136496786, -37.321295743057824 -1.3054422646520885, -37.28489270250937 -1.8724490051997822 M-37.36498121591342 -0.6250057626472687 C-37.348019337456186 -0.8892007110004622, -37.33105745899896 -1.1533956593536556, -37.28489270250937 -1.8724490051997822 M-37.28489270250937 -1.8724490051997822 C-37.250054819092604 -2.1426447494619674, -37.21521693567585 -2.4128404937241528, -37.125044776581774 -3.112197953150895 M-37.28489270250937 -1.8724490051997822 C-37.24109119998812 -2.212164809169541, -37.19728969746688 -2.5518806131393, -37.125044776581774 -3.112197953150895 M-37.125044776581774 -3.112197953150895 C-37.032713246267235 -3.5863008470402016, -36.940381715952704 -4.060403740929508, -36.88609428754556 -4.339158212148126 M-37.125044776581774 -3.112197953150895 C-37.04647951979381 -3.5156139419841836, -36.96791426300585 -3.9190299308174725, -36.88609428754556 -4.339158212148126 M-36.88609428754556 -4.339158212148126 C-36.82229736526209 -4.582443526576027, -36.758500442978615 -4.8257288410039285, -36.56902313421489 -5.548287939305123 M-36.88609428754556 -4.339158212148126 C-36.81092598102759 -4.62580754305129, -36.735757674509614 -4.912456873954454, -36.56902313421489 -5.548287939305123 M-36.56902313421489 -5.548287939305123 C-36.459043452765606 -5.879529216947779, -36.349063771316324 -6.2107704945904345, -36.17513422997033 -6.734618561215485 M-36.56902313421489 -5.548287939305123 C-36.4312114222542 -5.9633548584162765, -36.29339971029351 -6.3784217775274294, -36.17513422997033 -6.734618561215485 M-36.17513422997033 -6.734618561215485 C-35.99064986762889 -7.190298502961344, -35.80616550528745 -7.645978444707204, -35.70604614880834 -7.893275190886676 M-36.17513422997033 -6.734618561215485 C-36.04838248200115 -7.047697829277703, -35.921630734031964 -7.360777097339922, -35.70604614880834 -7.893275190886676 M-35.70604614880834 -7.893275190886676 C-35.537922092852256 -8.242388390358016, -35.36979803689617 -8.591501589829356, -35.163686474273504 -9.019496659696282 M-35.70604614880834 -7.893275190886676 C-35.5262063017267 -8.266716481307999, -35.346366454645064 -8.64015777172932, -35.163686474273504 -9.019496659696282 M-35.163686474273504 -9.019496659696282 C-34.956696849839 -9.387027697852043, -34.74970722540449 -9.754558736007802, -34.55028387860425 -10.108655082055243 M-35.163686474273504 -9.019496659696282 C-35.04072806979875 -9.237821757729785, -34.917769665324 -9.456146855763288, -34.55028387860425 -10.108655082055243 M-34.55028387860425 -10.108655082055243 C-34.29511485497144 -10.50066322483214, -34.03994583133863 -10.892671367609037, -33.86835896464064 -11.156274872382308 M-34.55028387860425 -10.108655082055243 C-34.360303273620325 -10.400516308246033, -34.1703226686364 -10.69237753443682, -33.86835896464064 -11.156274872382308 M-33.86835896464064 -11.156274872382308 C-33.699320647047976 -11.382770818248943, -33.53028232945532 -11.609266764115578, -33.12071390812659 -12.158051136245302 M-33.86835896464064 -11.156274872382308 C-33.61307424532746 -11.498333139345602, -33.35778952601428 -11.840391406308896, -33.12071390812659 -12.158051136245302 M-33.12071390812659 -12.158051136245302 C-32.949429367653636 -12.359251703851287, -32.77814482718068 -12.560452271457272, -32.31042094296866 -13.10986736009567 M-33.12071390812659 -12.158051136245302 C-32.85734618544583 -12.467417849354078, -32.593978462765065 -12.776784562462856, -32.31042094296866 -13.10986736009567 M-32.31042094296866 -13.10986736009567 C-32.017499518760246 -13.412332779887043, -31.724578094551827 -13.714798199678416, -31.440809736767996 -14.007812326905677 M-32.31042094296866 -13.10986736009567 C-32.115052943282116 -13.311600859783104, -31.919684943595573 -13.513334359470539, -31.440809736767996 -14.007812326905677 M-31.440809736767996 -14.007812326905677 C-31.130582127736453 -14.289552833255383, -30.82035451870491 -14.57129333960509, -30.515453708501887 -14.848196188198107 M-31.440809736767996 -14.007812326905677 C-31.202496005124367 -14.224242552548608, -30.964182273480738 -14.440672778191539, -30.515453708501887 -14.848196188198107 M-30.515453708501887 -14.848196188198107 C-30.125698263547903 -15.159015783720932, -29.73594281859392 -15.469835379243756, -29.53815534457872 -15.627565626425149 M-30.515453708501887 -14.848196188198107 C-30.21557903464527 -15.087338260598552, -29.915704360788652 -15.326480332998996, -29.53815534457872 -15.627565626425149 M-29.53815534457872 -15.627565626425149 C-29.243376252007856 -15.833190760621333, -28.948597159436993 -16.038815894817517, -28.51293057360571 -16.342718045390885 M-29.53815534457872 -15.627565626425149 C-29.132093230354375 -15.910816979162437, -28.72603111613003 -16.194068331899725, -28.51293057360571 -16.342718045390885 M-28.51293057360571 -16.342718045390885 C-28.262352356277347 -16.494620033296396, -28.011774138948986 -16.646522021201907, -27.44399226407679 -16.99071473040609 M-28.51293057360571 -16.342718045390885 C-28.298134702798656 -16.47292856455477, -28.0833388319916 -16.603139083718656, -27.44399226407679 -16.99071473040609 M-27.44399226407679 -16.99071473040609 C-27.066629669313237 -17.18758455438196, -26.689267074549683 -17.384454378357827, -26.335732912792388 -17.56889292409717 M-27.44399226407679 -16.99071473040609 C-27.10458377935297 -17.167783919484997, -26.76517529462915 -17.344853108563903, -26.335732912792388 -17.56889292409717 M-26.335732912792388 -17.56889292409717 C-25.9872256790698 -17.723166738366384, -25.638718445347216 -17.877440552635598, -25.192706595147804 -18.07487676824742 M-26.335732912792388 -17.56889292409717 C-25.917861233237314 -17.75387232091325, -25.49998955368224 -17.938851717729328, -25.192706595147804 -18.07487676824742 M-25.192706595147804 -18.07487676824742 C-24.77724846135726 -18.22776920193523, -24.361790327566716 -18.38066163562304, -24.01961025146062 -18.506587066708033 M-25.192706595147804 -18.07487676824742 C-24.902264759061286 -18.18176204874216, -24.611822922974767 -18.288647329236902, -24.01961025146062 -18.506587066708033 M-24.01961025146062 -18.506587066708033 C-23.65157666193614 -18.615817504231167, -23.283543072411657 -18.725047941754298, -22.821264386235413 -18.862249829261067 M-24.01961025146062 -18.506587066708033 C-23.638550252631216 -18.61968367413585, -23.25749025380181 -18.732780281563667, -22.821264386235413 -18.862249829261067 M-22.821264386235413 -18.862249829261067 C-22.35446702161894 -18.968793281597296, -21.88766965700247 -19.075336733933526, -21.602593259676766 -19.140403561325773 M-22.821264386235413 -18.862249829261067 C-22.385612486906354 -18.9616845323886, -21.949960587577294 -19.061119235516134, -21.602593259676766 -19.140403561325773 M-21.602593259676766 -19.140403561325773 C-21.224794400435226 -19.201483151014035, -20.84699554119369 -19.262562740702297, -20.368604652847882 -19.3399052695533 M-21.602593259676766 -19.140403561325773 C-21.11909593293307 -19.218571659535925, -20.635598606189372 -19.296739757746078, -20.368604652847882 -19.3399052695533 M-20.368604652847882 -19.3399052695533 C-19.965956129484407 -19.378748288346475, -19.56330760612093 -19.417591307139652, -19.124369289623903 -19.45993515863156 M-20.368604652847882 -19.3399052695533 C-20.066986272505677 -19.369002031955738, -19.765367892163475 -19.398098794358173, -19.124369289623903 -19.45993515863156 M-19.124369289623903 -19.45993515863156 C-18.659428334057285 -19.47484491012391, -18.194487378490667 -19.489754661616264, -17.875000000000007 -19.5 M-19.124369289623903 -19.45993515863156 C-18.739736604267467 -19.472269580208835, -18.35510391891103 -19.48460400178611, -17.875000000000007 -19.5 M-17.875000000000007 -19.5 C-17.875000000000004 -19.5, -17.875000000000004 -19.5, -17.875 -19.5 M-17.875000000000007 -19.5 C-17.875000000000007 -19.5, -17.875000000000004 -19.5, -17.875 -19.5" stroke="#89b4fa" stroke-width="1.3" fill="none" stroke-dasharray="0 0" style="fill:#89b4fa !important;stroke:#89b4fa !important"/></g><g class="label" style="color:#1e1e2e !important;font-weight:bold !important" transform="translate(-25, -12)"><rect/><foreignObject width="50" height="24"><div style="color: rgb(30, 30, 46) !important; font-weight: bold !important; display: table-cell; white-space: nowrap; line-height: 1.5; max-width: 200px; text-align: center;" xmlns="http://www.w3.org/1999/xhtml"><span style="color:#1e1e2e !important;font-weight:bold !important" class="nodeLabel "><p>alice</p></span></div></foreignObject></g></g></g><g class="edges edgePaths"/><g class="edgeLabels"/></svg>