<?xml version="1.0" encoding="UTF-8" standalone="no"?>
<!DOCTYPE svg PUBLIC "-//W3C//DTD SVG 1.1//EN"
 "http://www.w3.org/Graphics/SVG/1.1/DTD/svg11.dtd">
<!-- Generated by graphviz version 12.2.1 (0)
 -->
<!-- Pages: 1 -->
<svg width="2709pt" height="1083pt"
 viewBox="0.00 0.00 2708.89 1082.71" xmlns="http://www.w3.org/2000/svg" xmlns:xlink="http://www.w3.org/1999/xlink">
<g id="graph0" class="graph" transform="scale(1 1) rotate(0) translate(4 1078.71)">
<polygon fill="#1e1e2e" stroke="none" points="-4,4 -4,-1078.71 2704.89,-1078.71 2704.89,4 -4,4"/>
<g id="clust1" class="cluster">
<title>cluster_ctx_host</title>
<polygon fill="#313244" stroke="#6c7086" stroke-dasharray="5,2" points="1904.67,-305.68 1904.67,-652.68 2692.89,-652.68 2692.89,-305.68 1904.67,-305.68"/>
<text text-anchor="middle" x="2298.78" y="-635.38" font-family="Times,serif" font-size="14.00" fill="#cdd6f4">host { host }</text>
</g>
<g id="clust2" class="cluster">
<title>cluster_ctx_default</title>
<polygon fill="#313244" stroke="#6c7086" stroke-dasharray="5,2" points="82,-788.68 82,-1061.68 1820.99,-1061.68 1820.99,-788.68 82,-788.68"/>
<text text-anchor="middle" x="951.49" y="-1044.38" font-family="Times,serif" font-size="14.00" fill="#cdd6f4">default { host }</text>
</g>
<g id="clust3" class="cluster">
<title>cluster_ctx_hm_host</title>
<polygon fill="#313244" stroke="#6c7086" stroke-dasharray="5,2" points="82,-531.68 82,-750.68 731.8,-750.68 731.8,-531.68 82,-531.68"/>
<text text-anchor="middle" x="406.9" y="-733.38" font-family="Times,serif" font-size="14.00" fill="#cdd6f4">hm&#45;host { host }</text>
</g>
<g id="clust4" class="cluster">
<title>cluster_ctx_hm_user</title>
<polygon fill="#313244" stroke="#6c7086" stroke-dasharray="5,2" points="82,-274.68 82,-493.68 732.55,-493.68 732.55,-274.68 82,-274.68"/>
<text text-anchor="middle" x="407.27" y="-476.38" font-family="Times,serif" font-size="14.00" fill="#cdd6f4">hm&#45;user { host, user }</text>
</g>
<g id="clust5" class="cluster">
<title>cluster_ctx_user</title>
<polygon fill="#313244" stroke="#6c7086" stroke-dasharray="5,2" points="1563.3,-38.68 1563.3,-297.68 2481.14,-297.68 2481.14,-38.68 1563.3,-38.68"/>
<text text-anchor="middle" x="2022.22" y="-280.38" font-family="Times,serif" font-size="14.00" fill="#cdd6f4">user { host, user }</text>
</g>
<!-- angle_brackets -->
<g id="node1" class="node">
<title>angle_brackets</title>
<path fill="#89b4fa" stroke="#89b4fa" d="M1772.49,-619.68C1772.49,-619.68 1675.49,-619.68 1675.49,-619.68 1669.49,-619.68 1663.49,-613.68 1663.49,-607.68 1663.49,-607.68 1663.49,-595.68 1663.49,-595.68 1663.49,-589.68 1669.49,-583.68 1675.49,-583.68 1675.49,-583.68 1772.49,-583.68 1772.49,-583.68 1778.49,-583.68 1784.49,-589.68 1784.49,-595.68 1784.49,-595.68 1784.49,-607.68 1784.49,-607.68 1784.49,-613.68 1778.49,-619.68 1772.49,-619.68"/>
<text text-anchor="middle" x="1723.99" y="-597.01" font-family="Times,serif" font-size="14.00" fill="#1e1e2e">angle&#45;brackets</text>
</g>
<!-- desktop -->
<g id="node2" class="node">
<title>desktop</title>
<polygon fill="#f2cdcd" stroke="#f2cdcd" points="2122.41,-565.68 2050.16,-565.68 2050.16,-529.68 2122.41,-529.68 2122.41,-565.68"/>
<text text-anchor="middle" x="2086.28" y="-543.01" font-family="Times,serif" font-size="14.00" fill="#1e1e2e">desktop</text>
</g>
<!-- angle_brackets&#45;&gt;desktop -->
<g id="edge8" class="edge">
<title>angle_brackets&#45;&gt;desktop</title>
<path fill="none" stroke="#a6adc8" d="M1784.88,-592.67C1819.82,-587.42 1864.74,-580.67 1904.67,-574.68 1950.22,-567.85 2002.24,-560.08 2038.71,-554.63"/>
<polygon fill="#a6adc8" stroke="#a6adc8" points="2039.11,-558.11 2048.48,-553.17 2038.08,-551.19 2039.11,-558.11"/>
</g>
<!-- host__self_provide_host_ -->
<g id="node5" class="node">
<title>host__self_provide_host_</title>
<polygon fill="#f2cdcd" stroke="#f2cdcd" points="2684.89,-600.68 2509.14,-600.68 2509.14,-564.68 2684.89,-564.68 2684.89,-600.68"/>
<text text-anchor="middle" x="2597.01" y="-578.01" font-family="Times,serif" font-size="14.00" fill="#1e1e2e">host/self&#45;provide(host)</text>
</g>
<!-- angle_brackets&#45;&gt;host__self_provide_host_ -->
<g id="edge9" class="edge">
<title>angle_brackets&#45;&gt;host__self_provide_host_</title>
<path fill="none" stroke="#a6adc8" d="M1781.74,-620.1C1816.75,-630.49 1862.82,-642.41 1904.67,-647.68 2159.01,-679.72 2231.74,-687.94 2481.14,-628.68 2503.64,-623.33 2527.53,-614.35 2547.66,-605.73"/>
<polygon fill="#a6adc8" stroke="#a6adc8" points="2548.98,-608.97 2556.74,-601.75 2546.17,-602.56 2548.98,-608.97"/>
</g>
<!-- networking -->
<g id="node6" class="node">
<title>networking</title>
<polygon fill="#89b4fa" stroke="#89b4fa" points="2433.01,-619.68 2336.01,-619.68 2336.01,-583.68 2433.01,-583.68 2433.01,-619.68"/>
<text text-anchor="middle" x="2384.51" y="-597.01" font-family="Times,serif" font-size="14.00" fill="#1e1e2e">networking</text>
</g>
<!-- angle_brackets&#45;&gt;networking -->
<g id="edge10" class="edge">
<title>angle_brackets&#45;&gt;networking</title>
<path fill="none" stroke="#a6adc8" d="M1784.63,-612.92C1819.49,-618.92 1864.41,-625.67 1904.67,-628.68 2062.11,-640.44 2102.93,-645.62 2259.89,-628.68 2281.27,-626.37 2304.37,-621.88 2324.75,-617.22"/>
<polygon fill="#a6adc8" stroke="#a6adc8" points="2325.36,-620.67 2334.29,-614.97 2323.76,-613.86 2325.36,-620.67"/>
</g>
<!-- primary_user -->
<g id="node7" class="node">
<title>primary_user</title>
<polygon fill="#89b4fa" stroke="#89b4fa" points="2140.78,-511.68 2031.78,-511.68 2031.78,-475.68 2140.78,-475.68 2140.78,-511.68"/>
<text text-anchor="middle" x="2086.28" y="-489.01" font-family="Times,serif" font-size="14.00" fill="#1e1e2e">primary&#45;user</text>
</g>
<!-- angle_brackets&#45;&gt;primary_user -->
<g id="edge11" class="edge">
<title>angle_brackets&#45;&gt;primary_user</title>
<path fill="none" stroke="#a6adc8" d="M1758.36,-583.26C1793.66,-564.6 1851.49,-536.32 1904.67,-520.68 1942.11,-509.67 1985.3,-503.01 2020.06,-499.06"/>
<polygon fill="#a6adc8" stroke="#a6adc8" points="2020.43,-502.54 2029.99,-497.98 2019.67,-495.58 2020.43,-502.54"/>
</g>
<!-- den__provides__primary_user -->
<g id="node8" class="node">
<title>den__provides__primary_user</title>
<polygon fill="#89b4fa" stroke="#89b4fa" points="2187.67,-349.68 1984.89,-349.68 1912.67,-313.68 2259.89,-313.68 2187.67,-349.68"/>
<text text-anchor="middle" x="2086.28" y="-327.01" font-family="Times,serif" font-size="14.00" fill="#1e1e2e">provides/primary&#45;user</text>
</g>
<!-- angle_brackets&#45;&gt;den__provides__primary_user -->
<g id="edge12" class="edge">
<title>angle_brackets&#45;&gt;den__provides__primary_user</title>
<path fill="none" stroke="#a6adc8" d="M1732.56,-583.19C1752.72,-536.58 1812.49,-414.1 1904.67,-358.68 1918.14,-350.59 1933.16,-344.61 1948.63,-340.24"/>
<polygon fill="#a6adc8" stroke="#a6adc8" points="1949.13,-343.73 1957.94,-337.85 1947.38,-336.95 1949.13,-343.73"/>
</g>
<!-- tailscale -->
<g id="node10" class="node">
<title>tailscale</title>
<polygon fill="#f2cdcd" stroke="#f38ba8" stroke-dasharray="5,2" points="2123.91,-619.68 2048.66,-619.68 2048.66,-583.68 2123.91,-583.68 2123.91,-619.68"/>
<text text-anchor="middle" x="2086.28" y="-597.01" font-family="Times,serif" font-size="14.00" fill="#1e1e2e">tailscale</text>
</g>
<!-- angle_brackets&#45;&gt;tailscale -->
<g id="edge13" class="edge">
<title>angle_brackets&#45;&gt;tailscale</title>
<path fill="none" stroke="#f38ba8" stroke-dasharray="5,2" d="M1784.89,-601.68C1855.67,-601.68 1972.05,-601.68 2037.22,-601.68"/>
<polygon fill="#f38ba8" stroke="#f38ba8" points="2036.87,-605.18 2046.87,-601.68 2036.87,-598.18 2036.87,-605.18"/>
</g>
<!-- desktop&#45;&gt;host__self_provide_host_ -->
<g id="edge26" class="edge">
<title>desktop&#45;&gt;host__self_provide_host_</title>
<path fill="none" stroke="#a6adc8" d="M2122.85,-550.11C2191.92,-554.82 2349,-565.55 2481.14,-574.68 2486.47,-575.05 2491.93,-575.43 2497.45,-575.81"/>
<polygon fill="#a6adc8" stroke="#a6adc8" points="2497.1,-579.29 2507.32,-576.49 2497.59,-572.31 2497.1,-579.29"/>
</g>
<!-- regreet -->
<g id="node9" class="node">
<title>regreet</title>
<polygon fill="#89b4fa" stroke="#89b4fa" points="2419.14,-545.68 2349.89,-545.68 2349.89,-509.68 2419.14,-509.68 2419.14,-545.68"/>
<text text-anchor="middle" x="2384.51" y="-523.01" font-family="Times,serif" font-size="14.00" fill="#1e1e2e">regreet</text>
</g>
<!-- desktop&#45;&gt;regreet -->
<g id="edge27" class="edge">
<title>desktop&#45;&gt;regreet</title>
<path fill="none" stroke="#a6adc8" d="M2122.72,-545.29C2176.57,-541.65 2278.97,-534.74 2338.17,-530.74"/>
<polygon fill="#a6adc8" stroke="#a6adc8" points="2338.15,-534.25 2347.9,-530.09 2337.68,-527.27 2338.15,-534.25"/>
</g>
<!-- host__aspect_host_ -->
<g id="node3" class="node">
<title>host__aspect_host_</title>
<polygon fill="#89b4fa" stroke="#89b4fa" points="2155.78,-457.68 2016.78,-457.68 2016.78,-421.68 2155.78,-421.68 2155.78,-457.68"/>
<text text-anchor="middle" x="2086.28" y="-435.01" font-family="Times,serif" font-size="14.00" fill="#1e1e2e">host/aspect(host)</text>
</g>
<!-- host__cross_provide__anon__ -->
<g id="node4" class="node">
<title>host__cross_provide__anon__</title>
<polygon fill="#cba6f7" stroke="#cba6f7" points="2194.41,-403.68 1978.16,-403.68 1978.16,-367.68 2194.41,-367.68 2194.41,-403.68"/>
<text text-anchor="middle" x="2086.28" y="-381.01" font-family="Times,serif" font-size="14.00" fill="#1e1e2e">host/cross&#45;provide(&lt;anon&gt;)</text>
</g>
<!-- networking&#45;&gt;host__self_provide_host_ -->
<g id="edge48" class="edge">
<title>networking&#45;&gt;host__self_provide_host_</title>
<path fill="none" stroke="#a6adc8" d="M2433.28,-597.37C2452.37,-595.65 2475.11,-593.59 2497.44,-591.58"/>
<polygon fill="#a6adc8" stroke="#a6adc8" points="2497.55,-595.08 2507.2,-590.7 2496.92,-588.11 2497.55,-595.08"/>
</g>
<!-- regreet&#45;&gt;host__self_provide_host_ -->
<g id="edge49" class="edge">
<title>regreet&#45;&gt;host__self_provide_host_</title>
<path fill="none" stroke="#a6adc8" d="M2419.33,-536.52C2444.91,-543.2 2481.16,-552.67 2514.16,-561.29"/>
<polygon fill="#a6adc8" stroke="#a6adc8" points="2513.19,-564.66 2523.75,-563.8 2514.96,-557.88 2513.19,-564.66"/>
</g>
<!-- n_default -->
<g id="node11" class="node">
<title>n_default</title>
<polygon fill="#fab387" stroke="#fab387" points="395.37,-831.68 319.03,-866.38 166.34,-866.38 90,-831.68 166.34,-796.98 319.03,-796.98 395.37,-831.68"/>
<text text-anchor="middle" x="242.68" y="-835.63" font-family="Times,serif" font-size="14.00" fill="#1e1e2e">default</text>
<text text-anchor="middle" x="242.68" y="-818.38" font-family="Times,serif" font-size="14.00" fill="#1e1e2e">({ aspect&#45;chain, class })</text>
</g>
<!-- default__aspect_default_ -->
<g id="node12" class="node">
<title>default__aspect_default_</title>
<polygon fill="#a6e3a1" stroke="#a6e3a1" points="1812.99,-889.68 1634.99,-889.68 1634.99,-853.68 1812.99,-853.68 1812.99,-889.68"/>
<text text-anchor="middle" x="1723.99" y="-867.01" font-family="Times,serif" font-size="14.00" fill="#1e1e2e">default/aspect(default)</text>
</g>
<!-- n_default&#45;&gt;default__aspect_default_ -->
<g id="edge14" class="edge">
<title>n_default&#45;&gt;default__aspect_default_</title>
<path fill="none" stroke="#a6adc8" d="M353.56,-851.11C368.72,-857.2 383.23,-865.19 395.37,-875.68 424.56,-900.91 398.92,-933.81 431.37,-954.68 842.48,-1219.12 1487.58,-974.2 1672.13,-894.64"/>
<polygon fill="#a6adc8" stroke="#a6adc8" points="1673.44,-897.89 1681.22,-890.69 1670.65,-891.47 1673.44,-897.89"/>
</g>
<!-- den__provides__define_user -->
<g id="node17" class="node">
<title>den__provides__define_user</title>
<polygon fill="#a6e3a1" stroke="#a6e3a1" points="720.87,-945.68 533.73,-945.68 467.08,-909.68 787.51,-909.68 720.87,-945.68"/>
<text text-anchor="middle" x="627.3" y="-923.01" font-family="Times,serif" font-size="14.00" fill="#1e1e2e">provides/define&#45;user</text>
</g>
<!-- n_default&#45;&gt;den__provides__define_user -->
<g id="edge15" class="edge">
<title>n_default&#45;&gt;den__provides__define_user</title>
<path fill="none" stroke="#a6adc8" d="M343.73,-855.68C361.31,-861.3 379.16,-867.96 395.37,-875.68 412.96,-884.06 413.22,-893.59 431.37,-900.68 441.23,-904.53 451.56,-907.85 462.1,-910.7"/>
<polygon fill="#a6adc8" stroke="#a6adc8" points="461.13,-914.06 471.68,-913.13 462.85,-907.28 461.13,-914.06"/>
</g>
<!-- den__provides__hostname -->
<g id="node18" class="node">
<title>den__provides__hostname</title>
<polygon fill="#fab387" stroke="#fab387" points="715.22,-891.68 539.38,-891.68 476.76,-855.68 777.84,-855.68 715.22,-891.68"/>
<text text-anchor="middle" x="627.3" y="-869.01" font-family="Times,serif" font-size="14.00" fill="#1e1e2e">provides/hostname</text>
</g>
<!-- n_default&#45;&gt;den__provides__hostname -->
<g id="edge16" class="edge">
<title>n_default&#45;&gt;den__provides__hostname</title>
<path fill="none" stroke="#a6adc8" d="M366.59,-845.17C398.79,-848.71 433.96,-852.57 467.73,-856.27"/>
<polygon fill="#a6adc8" stroke="#a6adc8" points="467.3,-859.75 477.62,-857.36 468.06,-852.79 467.3,-859.75"/>
</g>
<!-- den__provides__mutual_provider -->
<g id="node19" class="node">
<title>den__provides__mutual_provider</title>
<polygon fill="#f9e2af" stroke="#f9e2af" points="741.72,-837.68 512.87,-837.68 431.37,-801.68 823.23,-801.68 741.72,-837.68"/>
<text text-anchor="middle" x="627.3" y="-815.01" font-family="Times,serif" font-size="14.00" fill="#1e1e2e">provides/mutual&#45;provider</text>
</g>
<!-- n_default&#45;&gt;den__provides__mutual_provider -->
<g id="edge17" class="edge">
<title>n_default&#45;&gt;den__provides__mutual_provider</title>
<path fill="none" stroke="#a6adc8" d="M386.7,-827.2C413.84,-826.34 442.38,-825.45 469.91,-824.59"/>
<polygon fill="#a6adc8" stroke="#a6adc8" points="469.83,-828.09 479.71,-824.28 469.61,-821.09 469.83,-828.09"/>
</g>
<!-- den__provides__default__aspect_default__den__provides -->
<g id="node13" class="node">
<title>den__provides__default__aspect_default__den__provides</title>
<polygon fill="#a6e3a1" stroke="#a6e3a1" points="1394.69,-926.68 999.84,-926.68 859.23,-890.68 1535.3,-890.68 1394.69,-926.68"/>
<text text-anchor="middle" x="1197.26" y="-904.01" font-family="Times,serif" font-size="14.00" fill="#1e1e2e">provides/default/aspect(default):den/provides</text>
</g>
<!-- default__cross_provide_host_ -->
<g id="node14" class="node">
<title>default__cross_provide_host_</title>
<polygon fill="#f9e2af" stroke="#f9e2af" points="346.68,-920.68 138.68,-920.68 138.68,-884.68 346.68,-884.68 346.68,-920.68"/>
<text text-anchor="middle" x="242.68" y="-898.01" font-family="Times,serif" font-size="14.00" fill="#1e1e2e">default/cross&#45;provide(host)</text>
</g>
<!-- default__cross_provide_user_ -->
<g id="node15" class="node">
<title>default__cross_provide_user_</title>
<polygon fill="#f9e2af" stroke="#f9e2af" points="347.06,-974.68 138.31,-974.68 138.31,-938.68 347.06,-938.68 347.06,-974.68"/>
<text text-anchor="middle" x="242.68" y="-952.01" font-family="Times,serif" font-size="14.00" fill="#1e1e2e">default/cross&#45;provide(user)</text>
</g>
<!-- default__self_provide_default_ -->
<g id="node16" class="node">
<title>default__self_provide_default_</title>
<polygon fill="#fab387" stroke="#fab387" points="350.06,-1028.68 135.31,-1028.68 135.31,-992.68 350.06,-992.68 350.06,-1028.68"/>
<text text-anchor="middle" x="242.68" y="-1006.01" font-family="Times,serif" font-size="14.00" fill="#1e1e2e">default/self&#45;provide(default)</text>
</g>
<!-- den__provides__define_user&#45;&gt;default__aspect_default_ -->
<g id="edge19" class="edge">
<title>den__provides__define_user&#45;&gt;default__aspect_default_</title>
<path fill="none" stroke="#a6adc8" d="M744.1,-933.66C953.38,-943.65 1386.65,-960.33 1535.3,-935.68 1582.75,-927.81 1634.31,-909.47 1671.36,-894.43"/>
<polygon fill="#a6adc8" stroke="#a6adc8" points="1672.58,-897.71 1680.49,-890.66 1669.91,-891.24 1672.58,-897.71"/>
</g>
<!-- den__provides__define_user&#45;&gt;den__provides__default__aspect_default__den__provides -->
<g id="edge20" class="edge">
<title>den__provides__define_user&#45;&gt;den__provides__default__aspect_default__den__provides</title>
<path fill="none" stroke="#a6adc8" d="M763.62,-923.15C818.71,-921.31 884.21,-919.12 947.35,-917.01"/>
<polygon fill="#a6adc8" stroke="#a6adc8" points="947.31,-920.51 957.18,-916.68 947.07,-913.51 947.31,-920.51"/>
</g>
<!-- den__provides__hostname&#45;&gt;default__aspect_default_ -->
<g id="edge21" class="edge">
<title>den__provides__hostname&#45;&gt;default__aspect_default_</title>
<path fill="none" stroke="#a6adc8" d="M747.79,-873.46C965.08,-873.07 1421.07,-872.23 1623.04,-871.86"/>
<polygon fill="#a6adc8" stroke="#a6adc8" points="1623.01,-875.36 1633,-871.84 1623,-868.36 1623.01,-875.36"/>
</g>
<!-- den__provides__hostname&#45;&gt;den__provides__default__aspect_default__den__provides -->
<g id="edge22" class="edge">
<title>den__provides__hostname&#45;&gt;den__provides__default__aspect_default__den__provides</title>
<path fill="none" stroke="#a6adc8" d="M735.8,-880.3C779.03,-882.97 831.31,-886.19 884.9,-889.49"/>
<polygon fill="#a6adc8" stroke="#a6adc8" points="884.64,-892.98 894.84,-890.11 885.07,-886 884.64,-892.98"/>
</g>
<!-- den__provides__mutual_provider&#45;&gt;default__aspect_default_ -->
<g id="edge23" class="edge">
<title>den__provides__mutual_provider&#45;&gt;default__aspect_default_</title>
<path fill="none" stroke="#a6adc8" d="M753.43,-832.99C787.7,-836.25 824.87,-839.45 859.23,-841.68 1005.03,-851.15 1428.86,-863.57 1623.34,-868.98"/>
<polygon fill="#a6adc8" stroke="#a6adc8" points="1623.08,-872.47 1633.17,-869.25 1623.27,-865.47 1623.08,-872.47"/>
</g>
<!-- den__provides__mutual_provider&#45;&gt;den__provides__default__aspect_default__den__provides -->
<g id="edge24" class="edge">
<title>den__provides__mutual_provider&#45;&gt;den__provides__default__aspect_default__den__provides</title>
<path fill="none" stroke="#a6adc8" d="M750.91,-834.12C774.98,-837.67 799.98,-841.86 823.23,-846.68 839.49,-850.05 842.99,-853.19 859.23,-856.68 917.97,-869.32 983.1,-880.11 1040.33,-888.54"/>
<polygon fill="#a6adc8" stroke="#a6adc8" points="1039.77,-891.99 1050.17,-889.97 1040.78,-885.06 1039.77,-891.99"/>
</g>
<!-- alice__to_hosts -->
<g id="node20" class="node">
<title>alice__to_hosts</title>
<polygon fill="#a6e3a1" stroke="#a6e3a1" points="1261.29,-832.68 1133.24,-832.68 1087.64,-796.68 1306.89,-796.68 1261.29,-832.68"/>
<text text-anchor="middle" x="1197.26" y="-810.01" font-family="Times,serif" font-size="14.00" fill="#1e1e2e">alice/to&#45;hosts</text>
</g>
<!-- den__provides__mutual_provider&#45;&gt;alice__to_hosts -->
<g id="edge25" class="edge">
<title>den__provides__mutual_provider&#45;&gt;alice__to_hosts</title>
<path fill="none" stroke="#a6adc8" d="M786.51,-818.29C887.03,-817.4 1013.9,-816.29 1099.63,-815.53"/>
<polygon fill="#a6adc8" stroke="#a6adc8" points="1099.45,-819.03 1109.41,-815.45 1099.38,-812.03 1099.45,-819.03"/>
</g>
<!-- alice__to_hosts&#45;&gt;default__aspect_default_ -->
<g id="edge7" class="edge">
<title>alice__to_hosts&#45;&gt;default__aspect_default_</title>
<path fill="none" stroke="#a6adc8" d="M1276.33,-821.25C1344.7,-827.21 1446.68,-836.58 1535.3,-846.68 1563.99,-849.95 1595.09,-853.92 1623.57,-857.73"/>
<polygon fill="#a6adc8" stroke="#a6adc8" points="1622.88,-861.16 1633.26,-859.03 1623.81,-854.23 1622.88,-861.16"/>
</g>
<!-- alice -->
<g id="node29" class="node">
<title>alice</title>
<polygon fill="#f2cdcd" stroke="#f2cdcd" points="1876.67,-229.68 1800.33,-264.38 1647.65,-264.38 1571.3,-229.68 1647.65,-194.98 1800.33,-194.98 1876.67,-229.68"/>
<text text-anchor="middle" x="1723.99" y="-233.63" font-family="Times,serif" font-size="14.00" fill="#1e1e2e">alice</text>
<text text-anchor="middle" x="1723.99" y="-216.38" font-family="Times,serif" font-size="14.00" fill="#1e1e2e">({ aspect&#45;chain, class })</text>
</g>
<!-- alice__to_hosts&#45;&gt;alice -->
<g id="edge51" class="edge">
<title>alice__to_hosts&#45;&gt;alice</title>
<path fill="none" stroke="#a6adc8" d="M1214.84,-796.21C1287.32,-715.4 1577.59,-391.78 1683.8,-273.37"/>
<polygon fill="#a6adc8" stroke="#a6adc8" points="1686.34,-275.78 1690.41,-266 1681.13,-271.1 1686.34,-275.78"/>
</g>
<!-- hm_host -->
<g id="node21" class="node">
<title>hm_host</title>
<polygon fill="#cba6f7" stroke="#cba6f7" points="395.37,-628.68 319.03,-663.38 166.34,-663.38 90,-628.68 166.34,-593.98 319.03,-593.98 395.37,-628.68"/>
<text text-anchor="middle" x="242.68" y="-632.63" font-family="Times,serif" font-size="14.00" fill="#1e1e2e">hm&#45;host</text>
<text text-anchor="middle" x="242.68" y="-615.38" font-family="Times,serif" font-size="14.00" fill="#1e1e2e">({ aspect&#45;chain, class })</text>
</g>
<!-- hm_host__aspect_hm_host_ -->
<g id="node22" class="node">
<title>hm_host__aspect_hm_host_</title>
<polygon fill="#89b4fa" stroke="#89b4fa" points="723.8,-646.68 530.8,-646.68 530.8,-610.68 723.8,-610.68 723.8,-646.68"/>
<text text-anchor="middle" x="627.3" y="-624.01" font-family="Times,serif" font-size="14.00" fill="#1e1e2e">hm&#45;host/aspect(hm&#45;host)</text>
</g>
<!-- hm_host&#45;&gt;hm_host__aspect_hm_host_ -->
<g id="edge29" class="edge">
<title>hm_host&#45;&gt;hm_host__aspect_hm_host_</title>
<path fill="none" stroke="#a6adc8" d="M396.55,-628.68C437.66,-628.68 481.24,-628.68 519.27,-628.68"/>
<polygon fill="#a6adc8" stroke="#a6adc8" points="518.85,-632.18 528.85,-628.68 518.85,-625.18 518.85,-632.18"/>
</g>
<!-- hm_host__cross_provide_host_ -->
<g id="node23" class="node">
<title>hm_host__cross_provide_host_</title>
<polygon fill="#f2cdcd" stroke="#f2cdcd" points="350.43,-717.68 134.93,-717.68 134.93,-681.68 350.43,-681.68 350.43,-717.68"/>
<text text-anchor="middle" x="242.68" y="-695.01" font-family="Times,serif" font-size="14.00" fill="#1e1e2e">hm&#45;host/cross&#45;provide(host)</text>
</g>
<!-- hm_host__self_provide_hm_host_ -->
<g id="node24" class="node">
<title>hm_host__self_provide_hm_host_</title>
<polygon fill="#cba6f7" stroke="#cba6f7" points="357.56,-575.68 127.81,-575.68 127.81,-539.68 357.56,-539.68 357.56,-575.68"/>
<text text-anchor="middle" x="242.68" y="-553.01" font-family="Times,serif" font-size="14.00" fill="#1e1e2e">hm&#45;host/self&#45;provide(hm&#45;host)</text>
</g>
<!-- hm_user -->
<g id="node25" class="node">
<title>hm_user</title>
<polygon fill="#fab387" stroke="#fab387" points="395.37,-371.68 319.03,-406.38 166.34,-406.38 90,-371.68 166.34,-336.98 319.03,-336.98 395.37,-371.68"/>
<text text-anchor="middle" x="242.68" y="-375.63" font-family="Times,serif" font-size="14.00" fill="#1e1e2e">hm&#45;user</text>
<text text-anchor="middle" x="242.68" y="-358.38" font-family="Times,serif" font-size="14.00" fill="#1e1e2e">({ aspect&#45;chain, class })</text>
</g>
<!-- hm_user__aspect_hm_user_ -->
<g id="node26" class="node">
<title>hm_user__aspect_hm_user_</title>
<polygon fill="#a6e3a1" stroke="#a6e3a1" points="724.55,-389.68 530.05,-389.68 530.05,-353.68 724.55,-353.68 724.55,-389.68"/>
<text text-anchor="middle" x="627.3" y="-367.01" font-family="Times,serif" font-size="14.00" fill="#1e1e2e">hm&#45;user/aspect(hm&#45;user)</text>
</g>
<!-- hm_user&#45;&gt;hm_user__aspect_hm_user_ -->
<g id="edge30" class="edge">
<title>hm_user&#45;&gt;hm_user__aspect_hm_user_</title>
<path fill="none" stroke="#a6adc8" d="M396.55,-371.68C437.47,-371.68 480.84,-371.68 518.75,-371.68"/>
<polygon fill="#a6adc8" stroke="#a6adc8" points="518.29,-375.18 528.29,-371.68 518.29,-368.18 518.29,-375.18"/>
</g>
<!-- hm_user__cross_provide_hm_host_ -->
<g id="node27" class="node">
<title>hm_user__cross_provide_hm_host_</title>
<polygon fill="#a6e3a1" stroke="#a6e3a1" points="364.31,-460.68 121.06,-460.68 121.06,-424.68 364.31,-424.68 364.31,-460.68"/>
<text text-anchor="middle" x="242.68" y="-438.01" font-family="Times,serif" font-size="14.00" fill="#1e1e2e">hm&#45;user/cross&#45;provide(hm&#45;host)</text>
</g>
<!-- hm_user__self_provide_hm_user_ -->
<g id="node28" class="node">
<title>hm_user__self_provide_hm_user_</title>
<polygon fill="#fab387" stroke="#fab387" points="358.31,-318.68 127.06,-318.68 127.06,-282.68 358.31,-282.68 358.31,-318.68"/>
<text text-anchor="middle" x="242.68" y="-296.01" font-family="Times,serif" font-size="14.00" fill="#1e1e2e">hm&#45;user/self&#45;provide(hm&#45;user)</text>
</g>
<!-- alice&#45;&gt;primary_user -->
<g id="edge4" class="edge">
<title>alice&#45;&gt;primary_user</title>
<path fill="none" stroke="#a6adc8" d="M1740.66,-264.75C1766.5,-318.09 1823.4,-418.49 1904.67,-466.68 1939.25,-487.18 1983.87,-494 2020.11,-495.66"/>
<polygon fill="#a6adc8" stroke="#a6adc8" points="2019.94,-499.15 2030.05,-495.98 2020.17,-492.16 2019.94,-499.15"/>
</g>
<!-- alice&#45;&gt;den__provides__primary_user -->
<g id="edge5" class="edge">
<title>alice&#45;&gt;den__provides__primary_user</title>
<path fill="none" stroke="#a6adc8" d="M1801.11,-264.43C1832.63,-277.69 1869.88,-291.94 1904.67,-301.68 1916.75,-305.06 1929.39,-308.11 1942.13,-310.85"/>
<polygon fill="#a6adc8" stroke="#a6adc8" points="1941.37,-314.27 1951.87,-312.87 1942.79,-307.41 1941.37,-314.27"/>
</g>
<!-- demo_shell -->
<g id="node30" class="node">
<title>demo_shell</title>
<polygon fill="#f2cdcd" stroke="#f2cdcd" points="2132.91,-264.68 2039.66,-264.68 2039.66,-228.68 2132.91,-228.68 2132.91,-264.68"/>
<text text-anchor="middle" x="2086.28" y="-242.01" font-family="Times,serif" font-size="14.00" fill="#1e1e2e">demo&#45;shell</text>
</g>
<!-- alice&#45;&gt;demo_shell -->
<g id="edge1" class="edge">
<title>alice&#45;&gt;demo_shell</title>
<path fill="none" stroke="#a6adc8" d="M1863.26,-236.2C1920.46,-238.9 1983.62,-241.88 2027.9,-243.97"/>
<polygon fill="#a6adc8" stroke="#a6adc8" points="2027.64,-247.46 2037.79,-244.44 2027.97,-240.47 2027.64,-247.46"/>
</g>
<!-- dev_tools -->
<g id="node31" class="node">
<title>dev_tools</title>
<polygon fill="#fab387" stroke="#fab387" points="2126.53,-136.68 2046.03,-136.68 2046.03,-100.68 2126.53,-100.68 2126.53,-136.68"/>
<text text-anchor="middle" x="2086.28" y="-114.01" font-family="Times,serif" font-size="14.00" fill="#1e1e2e">dev&#45;tools</text>
</g>
<!-- alice&#45;&gt;dev_tools -->
<g id="edge2" class="edge">
<title>alice&#45;&gt;dev_tools</title>
<path fill="none" stroke="#a6adc8" d="M1832.54,-209.39C1848.19,-203.61 1863.46,-196.2 1876.67,-186.68 1894.58,-173.79 1885.98,-157.4 1904.67,-145.68 1943.38,-121.41 1995.73,-115.91 2034.11,-115.74"/>
<polygon fill="#a6adc8" stroke="#a6adc8" points="2033.99,-119.24 2044.02,-115.83 2034.05,-112.24 2033.99,-119.24"/>
</g>
<!-- hyprland -->
<g id="node32" class="node">
<title>hyprland</title>
<polygon fill="#f2cdcd" stroke="#f2cdcd" points="2126.16,-190.68 2046.41,-190.68 2046.41,-154.68 2126.16,-154.68 2126.16,-190.68"/>
<text text-anchor="middle" x="2086.28" y="-168.01" font-family="Times,serif" font-size="14.00" fill="#1e1e2e">hyprland</text>
</g>
<!-- alice&#45;&gt;hyprland -->
<g id="edge3" class="edge">
<title>alice&#45;&gt;hyprland</title>
<path fill="none" stroke="#a6adc8" d="M1838,-211.8C1904.05,-201.35 1984.16,-188.68 2034.93,-180.65"/>
<polygon fill="#a6adc8" stroke="#a6adc8" points="2035.42,-184.11 2044.75,-179.09 2034.32,-177.2 2035.42,-184.11"/>
</g>
<!-- user__self_provide_user_ -->
<g id="node36" class="node">
<title>user__self_provide_user_</title>
<polygon fill="#f2cdcd" stroke="#f2cdcd" points="2473.14,-208.68 2295.89,-208.68 2295.89,-172.68 2473.14,-172.68 2473.14,-208.68"/>
<text text-anchor="middle" x="2384.51" y="-186.01" font-family="Times,serif" font-size="14.00" fill="#1e1e2e">user/self&#45;provide(user)</text>
</g>
<!-- alice&#45;&gt;user__self_provide_user_ -->
<g id="edge6" class="edge">
<title>alice&#45;&gt;user__self_provide_user_</title>
<path fill="none" stroke="#a6adc8" d="M1860.86,-222.12C2012.78,-213.65 2240.25,-200.95 2259.89,-199.68 2267.79,-199.17 2275.97,-198.62 2284.19,-198.06"/>
<polygon fill="#a6adc8" stroke="#a6adc8" points="2284.15,-201.57 2293.89,-197.38 2283.67,-194.58 2284.15,-201.57"/>
</g>
<!-- demo_shell&#45;&gt;user__self_provide_user_ -->
<g id="edge18" class="edge">
<title>demo_shell&#45;&gt;user__self_provide_user_</title>
<path fill="none" stroke="#a6adc8" d="M2133.09,-238.3C2167.89,-231.9 2216.92,-222.83 2259.89,-214.68 2267.79,-213.18 2275.97,-211.62 2284.19,-210.04"/>
<polygon fill="#a6adc8" stroke="#a6adc8" points="2284.76,-213.49 2293.91,-208.17 2283.43,-206.62 2284.76,-213.49"/>
</g>
<!-- dev_tools&#45;&gt;user__self_provide_user_ -->
<g id="edge28" class="edge">
<title>dev_tools&#45;&gt;user__self_provide_user_</title>
<path fill="none" stroke="#a6adc8" d="M2126.8,-122.65C2162.07,-126.72 2214.95,-134.1 2259.89,-145.68 2282.77,-151.58 2307.35,-160.06 2328.52,-168.07"/>
<polygon fill="#a6adc8" stroke="#a6adc8" points="2327.25,-171.33 2337.84,-171.66 2329.76,-164.8 2327.25,-171.33"/>
</g>
<!-- hyprland&#45;&gt;user__self_provide_user_ -->
<g id="edge47" class="edge">
<title>hyprland&#45;&gt;user__self_provide_user_</title>
<path fill="none" stroke="#a6adc8" d="M2126.62,-175.07C2166.66,-177.5 2230.33,-181.37 2284.27,-184.65"/>
<polygon fill="#a6adc8" stroke="#a6adc8" points="2283.91,-188.13 2294.11,-185.25 2284.34,-181.15 2283.91,-188.13"/>
</g>
<!-- user -->
<g id="node33" class="node">
<title>user</title>
<polygon fill="#f2cdcd" stroke="#f2cdcd" points="1876.67,-142.68 1800.33,-177.38 1647.65,-177.38 1571.3,-142.68 1647.65,-107.98 1800.33,-107.98 1876.67,-142.68"/>
<text text-anchor="middle" x="1723.99" y="-146.63" font-family="Times,serif" font-size="14.00" fill="#1e1e2e">user</text>
<text text-anchor="middle" x="1723.99" y="-129.38" font-family="Times,serif" font-size="14.00" fill="#1e1e2e">({ aspect&#45;chain, class })</text>
</g>
<!-- user__aspect_user_ -->
<g id="node34" class="node">
<title>user__aspect_user_</title>
<polygon fill="#fab387" stroke="#fab387" points="2156.53,-82.68 2016.03,-82.68 2016.03,-46.68 2156.53,-46.68 2156.53,-82.68"/>
<text text-anchor="middle" x="2086.28" y="-60.01" font-family="Times,serif" font-size="14.00" fill="#1e1e2e">user/aspect(user)</text>
</g>
<!-- user&#45;&gt;user__aspect_user_ -->
<g id="edge50" class="edge">
<title>user&#45;&gt;user__aspect_user_</title>
<path fill="none" stroke="#a6adc8" d="M1818.18,-115.67C1857.07,-104.51 1895.4,-93.68 1904.67,-91.68 1937.1,-84.68 1973.2,-78.9 2004.55,-74.5"/>
<polygon fill="#a6adc8" stroke="#a6adc8" points="2004.94,-77.98 2014.37,-73.15 2003.98,-71.04 2004.94,-77.98"/>
</g>
<!-- user__cross_provide_host_ -->
<g id="node35" class="node">
<title>user__cross_provide_host_</title>
<polygon fill="#f38ba8" stroke="#f38ba8" points="1818.61,-89.68 1629.36,-89.68 1629.36,-53.68 1818.61,-53.68 1818.61,-89.68"/>
<text text-anchor="middle" x="1723.99" y="-67.01" font-family="Times,serif" font-size="14.00" fill="#1e1e2e">user/cross&#45;provide(host)</text>
</g>
<!-- host -->
<g id="node37" class="node">
<title>host</title>
<polygon fill="#fab387" stroke="#fab387" points="54,-552.68 0,-552.68 0,-516.68 54,-516.68 54,-552.68"/>
<text text-anchor="middle" x="27" y="-530.01" font-family="Times,serif" font-size="14.00" fill="#1e1e2e">host</text>
</g>
<!-- host&#45;&gt;angle_brackets -->
<g id="edge32" class="edge">
<title>host&#45;&gt;angle_brackets</title>
<path fill="none" stroke="#a6adc8" d="M29.66,-553.01C34.43,-601.22 49.97,-729.56 82,-754.68 146.81,-805.5 741.16,-761.61 823.23,-754.68 1134.95,-728.37 1501.03,-651.64 1652.21,-617.91"/>
<polygon fill="#a6adc8" stroke="#a6adc8" points="1652.68,-621.39 1661.67,-615.79 1651.15,-614.56 1652.68,-621.39"/>
</g>
<!-- host&#45;&gt;host__aspect_host_ -->
<g id="edge43" class="edge">
<title>host&#45;&gt;host__aspect_host_</title>
<path fill="none" stroke="#a6adc8" d="M54.31,-530.74C63.1,-529.56 72.95,-528.4 82,-527.68 323.26,-508.55 384.28,-511.68 626.3,-511.68 626.3,-511.68 626.3,-511.68 1198.26,-511.68 1496.71,-511.68 1849.79,-470.69 2005.14,-450.56"/>
<polygon fill="#a6adc8" stroke="#a6adc8" points="2005.46,-454.05 2014.93,-449.29 2004.56,-447.11 2005.46,-454.05"/>
</g>
<!-- host&#45;&gt;host__cross_provide__anon__ -->
<g id="edge44" class="edge">
<title>host&#45;&gt;host__cross_provide__anon__</title>
<path fill="none" stroke="#a6adc8" d="M28.85,-516.36C31.82,-461.75 43.67,-301.96 82,-270.68 145.81,-218.61 740.95,-266.94 823.23,-270.68 1244.76,-289.85 1743.04,-344.84 1966.48,-371.22"/>
<polygon fill="#a6adc8" stroke="#a6adc8" points="1966.03,-374.69 1976.38,-372.39 1966.86,-367.74 1966.03,-374.69"/>
</g>
<!-- host&#45;&gt;n_default -->
<g id="edge33" class="edge">
<title>host&#45;&gt;n_default</title>
<path fill="none" stroke="#a6adc8" d="M29.6,-552.89C34.48,-604.25 50.75,-748.71 82,-782.68 92.27,-793.84 105.01,-802.49 118.78,-809.18"/>
<polygon fill="#a6adc8" stroke="#a6adc8" points="117.03,-812.23 127.59,-813.1 119.87,-805.84 117.03,-812.23"/>
</g>
<!-- host&#45;&gt;default__cross_provide_host_ -->
<g id="edge34" class="edge">
<title>host&#45;&gt;default__cross_provide_host_</title>
<path fill="none" stroke="#a6adc8" d="M28.19,-552.79C29.26,-616.58 36.25,-829.46 82,-875.68 94.53,-888.34 110.64,-896.39 127.78,-901.33"/>
<polygon fill="#a6adc8" stroke="#a6adc8" points="126.55,-904.63 137.1,-903.66 128.25,-897.84 126.55,-904.63"/>
</g>
<!-- host&#45;&gt;default__cross_provide_user_ -->
<g id="edge35" class="edge">
<title>host&#45;&gt;default__cross_provide_user_</title>
<path fill="none" stroke="#a6adc8" d="M27.76,-553.15C27.23,-623.73 29.14,-875.12 82,-929.68 94.31,-942.39 110.22,-950.48 127.22,-955.46"/>
<polygon fill="#a6adc8" stroke="#a6adc8" points="125.9,-958.73 136.45,-957.8 127.62,-951.95 125.9,-958.73"/>
</g>
<!-- host&#45;&gt;default__self_provide_default_ -->
<g id="edge36" class="edge">
<title>host&#45;&gt;default__self_provide_default_</title>
<path fill="none" stroke="#a6adc8" d="M28.93,-553.02C33.15,-633.39 51.73,-951.93 82,-983.68 93.43,-995.67 108.05,-1003.57 123.8,-1008.63"/>
<polygon fill="#a6adc8" stroke="#a6adc8" points="122.82,-1011.99 133.39,-1011.29 124.69,-1005.24 122.82,-1011.99"/>
</g>
<!-- host&#45;&gt;hm_host -->
<g id="edge37" class="edge">
<title>host&#45;&gt;hm_host</title>
<path fill="none" stroke="#a6adc8" d="M43.36,-552.74C53.37,-563.44 67.26,-576.48 82,-584.68 95.58,-592.24 110.53,-598.56 125.69,-603.84"/>
<polygon fill="#a6adc8" stroke="#a6adc8" points="124.16,-607.03 134.76,-606.86 126.37,-600.38 124.16,-607.03"/>
</g>
<!-- host&#45;&gt;hm_host__cross_provide_host_ -->
<g id="edge38" class="edge">
<title>host&#45;&gt;hm_host__cross_provide_host_</title>
<path fill="none" stroke="#a6adc8" d="M29.52,-552.74C33.06,-582.69 44.67,-642.33 82,-672.68 94.11,-682.53 108.48,-689.38 123.56,-694.06"/>
<polygon fill="#a6adc8" stroke="#a6adc8" points="122.62,-697.43 133.18,-696.7 124.47,-690.68 122.62,-697.43"/>
</g>
<!-- host&#45;&gt;hm_host__self_provide_hm_host_ -->
<g id="edge39" class="edge">
<title>host&#45;&gt;hm_host__self_provide_hm_host_</title>
<path fill="none" stroke="#a6adc8" d="M54.2,-537.5C70.46,-539.25 92.68,-541.64 116.14,-544.17"/>
<polygon fill="#a6adc8" stroke="#a6adc8" points="115.53,-547.62 125.85,-545.21 116.28,-540.66 115.53,-547.62"/>
</g>
<!-- host&#45;&gt;hm_user -->
<g id="edge40" class="edge">
<title>host&#45;&gt;hm_user</title>
<path fill="none" stroke="#a6adc8" d="M31.24,-516.46C36.87,-490.26 50.95,-442.2 82,-415.68 92.61,-406.62 104.94,-399.41 117.95,-393.68"/>
<polygon fill="#a6adc8" stroke="#a6adc8" points="119.16,-396.97 127.11,-389.96 116.52,-390.48 119.16,-396.97"/>
</g>
<!-- host&#45;&gt;hm_user__cross_provide_hm_host_ -->
<g id="edge41" class="edge">
<title>host&#45;&gt;hm_user__cross_provide_hm_host_</title>
<path fill="none" stroke="#a6adc8" d="M51.87,-516.28C60.97,-509.82 71.65,-502.89 82,-497.68 107.9,-484.65 137.61,-473.48 164.33,-464.68"/>
<polygon fill="#a6adc8" stroke="#a6adc8" points="165.3,-468.04 173.75,-461.64 163.15,-461.38 165.3,-468.04"/>
</g>
<!-- host&#45;&gt;hm_user__self_provide_hm_user_ -->
<g id="edge42" class="edge">
<title>host&#45;&gt;hm_user__self_provide_hm_user_</title>
<path fill="none" stroke="#a6adc8" d="M30.23,-516.37C36.19,-470.66 53.93,-353.39 82,-327.68 91.88,-318.63 103.62,-312.01 116.17,-307.24"/>
<polygon fill="#a6adc8" stroke="#a6adc8" points="117.09,-310.62 125.46,-304.13 114.86,-303.99 117.09,-310.62"/>
</g>
<!-- host&#45;&gt;alice -->
<g id="edge31" class="edge">
<title>host&#45;&gt;alice</title>
<path fill="none" stroke="#a6adc8" d="M28.45,-516.42C30.31,-457.83 39.46,-276.36 82,-240.68 194.95,-145.95 1197.87,-197.2 1577.89,-220.31"/>
<polygon fill="#a6adc8" stroke="#a6adc8" points="1577.52,-223.8 1587.72,-220.91 1577.95,-216.81 1577.52,-223.8"/>
</g>
<!-- host&#45;&gt;user -->
<g id="edge45" class="edge">
<title>host&#45;&gt;user</title>
<path fill="none" stroke="#a6adc8" d="M27.9,-516.36C27.97,-450.85 31.95,-229.73 82,-185.68 192.23,-88.66 1188.61,-119.99 1572.83,-135.89"/>
<polygon fill="#a6adc8" stroke="#a6adc8" points="1572.65,-139.38 1582.79,-136.3 1572.94,-132.39 1572.65,-139.38"/>
</g>
<!-- host&#45;&gt;user__cross_provide_host_ -->
<g id="edge46" class="edge">
<title>host&#45;&gt;user__cross_provide_host_</title>
<path fill="none" stroke="#a6adc8" d="M29.04,-516.32C33.55,-440.11 52.47,-151.43 82,-124.68 306.76,78.93 1291.65,-19.33 1617.72,-58.3"/>
<polygon fill="#a6adc8" stroke="#a6adc8" points="1617.19,-61.76 1627.54,-59.48 1618.03,-54.81 1617.19,-61.76"/>
</g>
</g>
</svg>
