<?xml version="1.0" encoding="UTF-8" standalone="no"?>
<!DOCTYPE svg PUBLIC "-//W3C//DTD SVG 1.1//EN"
 "http://www.w3.org/Graphics/SVG/1.1/DTD/svg11.dtd">
<!-- Generated by graphviz version 12.2.1 (0)
 -->
<!-- Pages: 1 -->
<svg width="2370pt" height="484pt"
 viewBox="0.00 0.00 2369.77 484.00" xmlns="http://www.w3.org/2000/svg" xmlns:xlink="http://www.w3.org/1999/xlink">
<g id="graph0" class="graph" transform="scale(1 1) rotate(0) translate(4 480)">
<polygon fill="#1e1e2e" stroke="none" points="-4,4 -4,-480 2365.77,-480 2365.77,4 -4,4"/>
<g id="clust1" class="cluster">
<title>cluster_ctx_user</title>
<polygon fill="#313244" stroke="#6c7086" stroke-dasharray="5,2" points="1777.3,-8 1777.3,-409 2353.77,-409 2353.77,-8 1777.3,-8"/>
<text text-anchor="middle" x="2065.54" y="-391.7" font-family="Times,serif" font-size="14.00" fill="#cdd6f4">user { host, user }</text>
</g>
<g id="clust2" class="cluster">
<title>cluster_ctx_default</title>
<polygon fill="#313244" stroke="#6c7086" stroke-dasharray="5,2" points="82,-249 82,-468 1757.3,-468 1757.3,-249 82,-249"/>
<text text-anchor="middle" x="919.65" y="-450.7" font-family="Times,serif" font-size="14.00" fill="#cdd6f4">default { host, user }</text>
</g>
<!-- alice -->
<g id="node1" class="node">
<title>alice</title>
<path fill="#89b4fa" stroke="#89b4fa" d="M1675.3,-241C1675.3,-241 1645.3,-241 1645.3,-241 1639.3,-241 1633.3,-235 1633.3,-229 1633.3,-229 1633.3,-217 1633.3,-217 1633.3,-211 1639.3,-205 1645.3,-205 1645.3,-205 1675.3,-205 1675.3,-205 1681.3,-205 1687.3,-211 1687.3,-217 1687.3,-217 1687.3,-229 1687.3,-229 1687.3,-235 1681.3,-241 1675.3,-241"/>
<text text-anchor="middle" x="1660.3" y="-218.32" font-family="Times,serif" font-size="14.00" fill="#1e1e2e">alice</text>
</g>
<!-- demo_shell -->
<g id="node2" class="node">
<title>demo_shell</title>
<polygon fill="#f2cdcd" stroke="#f2cdcd" points="2005.54,-376 1912.29,-376 1912.29,-340 2005.54,-340 2005.54,-376"/>
<text text-anchor="middle" x="1958.91" y="-353.32" font-family="Times,serif" font-size="14.00" fill="#1e1e2e">demo&#45;shell</text>
</g>
<!-- alice&#45;&gt;demo_shell -->
<g id="edge1" class="edge">
<title>alice&#45;&gt;demo_shell</title>
<path fill="none" stroke="#a6adc8" d="M1687.71,-221.88C1709.3,-222.45 1739.14,-226.89 1757.3,-245 1785.1,-272.7 1748.47,-304.38 1777.3,-331 1809.96,-361.14 1861,-366.37 1900.5,-364.93"/>
<polygon fill="#a6adc8" stroke="#a6adc8" points="1900.52,-368.43 1910.32,-364.41 1900.15,-361.44 1900.52,-368.43"/>
</g>
<!-- dev_tools -->
<g id="node3" class="node">
<title>dev_tools</title>
<polygon fill="#fab387" stroke="#fab387" points="1999.16,-268 1918.66,-268 1918.66,-232 1999.16,-232 1999.16,-268"/>
<text text-anchor="middle" x="1958.91" y="-245.32" font-family="Times,serif" font-size="14.00" fill="#1e1e2e">dev&#45;tools</text>
</g>
<!-- alice&#45;&gt;dev_tools -->
<g id="edge2" class="edge">
<title>alice&#45;&gt;dev_tools</title>
<path fill="none" stroke="#a6adc8" d="M1687.63,-225.4C1736.74,-229.87 1843.14,-239.55 1906.81,-245.35"/>
<polygon fill="#a6adc8" stroke="#a6adc8" points="1906.39,-248.82 1916.67,-246.25 1907.03,-241.85 1906.39,-248.82"/>
</g>
<!-- hyprland -->
<g id="node4" class="node">
<title>hyprland</title>
<polygon fill="#f2cdcd" stroke="#f2cdcd" points="1998.79,-322 1919.04,-322 1919.04,-286 1998.79,-286 1998.79,-322"/>
<text text-anchor="middle" x="1958.91" y="-299.32" font-family="Times,serif" font-size="14.00" fill="#1e1e2e">hyprland</text>
</g>
<!-- alice&#45;&gt;hyprland -->
<g id="edge3" class="edge">
<title>alice&#45;&gt;hyprland</title>
<path fill="none" stroke="#a6adc8" d="M1687.56,-223.64C1708.21,-225.33 1736.83,-230.42 1757.3,-245 1770.97,-254.73 1763.28,-267.8 1777.3,-277 1815.75,-302.2 1868.58,-307.52 1907.17,-307.39"/>
<polygon fill="#a6adc8" stroke="#a6adc8" points="1907.21,-310.89 1917.15,-307.22 1907.09,-303.89 1907.21,-310.89"/>
</g>
<!-- primary_user -->
<g id="node5" class="node">
<title>primary_user</title>
<polygon fill="#f2cdcd" stroke="#f2cdcd" points="2013.41,-160 1904.41,-160 1904.41,-124 2013.41,-124 2013.41,-160"/>
<text text-anchor="middle" x="1958.91" y="-137.32" font-family="Times,serif" font-size="14.00" fill="#1e1e2e">primary&#45;user</text>
</g>
<!-- alice&#45;&gt;primary_user -->
<g id="edge4" class="edge">
<title>alice&#45;&gt;primary_user</title>
<path fill="none" stroke="#a6adc8" d="M1687.63,-208.07C1710.59,-195.71 1745.18,-178.66 1777.3,-169 1814.67,-157.77 1857.86,-151.09 1892.63,-147.19"/>
<polygon fill="#a6adc8" stroke="#a6adc8" points="1893,-150.67 1902.57,-146.13 1892.26,-143.71 1893,-150.67"/>
</g>
<!-- den__provides__primary_user -->
<g id="node6" class="node">
<title>den__provides__primary_user</title>
<polygon fill="#f2cdcd" stroke="#f2cdcd" points="2060.3,-214 1857.52,-214 1785.3,-178 2132.52,-178 2060.3,-214"/>
<text text-anchor="middle" x="1958.91" y="-191.32" font-family="Times,serif" font-size="14.00" fill="#1e1e2e">provides/primary&#45;user</text>
</g>
<!-- alice&#45;&gt;den__provides__primary_user -->
<g id="edge5" class="edge">
<title>alice&#45;&gt;den__provides__primary_user</title>
<path fill="none" stroke="#a6adc8" d="M1687.63,-220.6C1719.92,-217.66 1776.98,-212.47 1830.38,-207.61"/>
<polygon fill="#a6adc8" stroke="#a6adc8" points="1830.56,-211.11 1840.2,-206.72 1829.92,-204.14 1830.56,-211.11"/>
</g>
<!-- user__self_provide_user_ -->
<g id="node9" class="node">
<title>user__self_provide_user_</title>
<polygon fill="#f2cdcd" stroke="#f2cdcd" points="2345.77,-349 2168.52,-349 2168.52,-313 2345.77,-313 2345.77,-349"/>
<text text-anchor="middle" x="2257.14" y="-326.32" font-family="Times,serif" font-size="14.00" fill="#1e1e2e">user/self&#45;provide(user)</text>
</g>
<!-- alice&#45;&gt;user__self_provide_user_ -->
<g id="edge6" class="edge">
<title>alice&#45;&gt;user__self_provide_user_</title>
<path fill="none" stroke="#a6adc8" d="M1687.68,-221.48C1709.56,-221.76 1739.82,-226 1757.3,-245 1799.86,-291.26 1729.82,-343.82 1777.3,-385 1902.51,-493.59 2120.7,-401.77 2212.97,-354.69"/>
<polygon fill="#a6adc8" stroke="#a6adc8" points="2214.46,-357.86 2221.72,-350.16 2211.24,-351.65 2214.46,-357.86"/>
</g>
<!-- demo_shell&#45;&gt;user__self_provide_user_ -->
<g id="edge12" class="edge">
<title>demo_shell&#45;&gt;user__self_provide_user_</title>
<path fill="none" stroke="#a6adc8" d="M2005.87,-353.81C2046.06,-350.15 2105.81,-344.7 2156.85,-340.05"/>
<polygon fill="#a6adc8" stroke="#a6adc8" points="2157.13,-343.54 2166.77,-339.15 2156.49,-336.57 2157.13,-343.54"/>
</g>
<!-- dev_tools&#45;&gt;user__self_provide_user_ -->
<g id="edge20" class="edge">
<title>dev_tools&#45;&gt;user__self_provide_user_</title>
<path fill="none" stroke="#a6adc8" d="M1999.61,-253.29C2035.01,-256.91 2087.96,-264.02 2132.52,-277 2159.14,-284.75 2187.57,-296.88 2210.45,-307.68"/>
<polygon fill="#a6adc8" stroke="#a6adc8" points="2208.65,-310.7 2219.18,-311.88 2211.68,-304.39 2208.65,-310.7"/>
</g>
<!-- hyprland&#45;&gt;user__self_provide_user_ -->
<g id="edge21" class="edge">
<title>hyprland&#45;&gt;user__self_provide_user_</title>
<path fill="none" stroke="#a6adc8" d="M1999.25,-307.59C2039.29,-311.23 2102.96,-317.04 2156.9,-321.95"/>
<polygon fill="#a6adc8" stroke="#a6adc8" points="2156.47,-325.43 2166.74,-322.85 2157.1,-318.46 2156.47,-325.43"/>
</g>
<!-- user__aspect_user_ -->
<g id="node7" class="node">
<title>user__aspect_user_</title>
<polygon fill="#fab387" stroke="#fab387" points="2029.16,-106 1888.66,-106 1888.66,-70 2029.16,-70 2029.16,-106"/>
<text text-anchor="middle" x="1958.91" y="-83.33" font-family="Times,serif" font-size="14.00" fill="#1e1e2e">user/aspect(user)</text>
</g>
<!-- user__cross_provide__anon__ -->
<g id="node8" class="node">
<title>user__cross_provide__anon__</title>
<polygon fill="#f38ba8" stroke="#f38ba8" points="2067.41,-52 1850.41,-52 1850.41,-16 2067.41,-16 2067.41,-52"/>
<text text-anchor="middle" x="1958.91" y="-29.32" font-family="Times,serif" font-size="14.00" fill="#1e1e2e">user/cross&#45;provide(&lt;anon&gt;)</text>
</g>
<!-- n_default -->
<g id="node10" class="node">
<title>n_default</title>
<polygon fill="#fab387" stroke="#fab387" points="395.37,-292 319.03,-326.7 166.34,-326.7 90,-292 166.34,-257.3 319.03,-257.3 395.37,-292"/>
<text text-anchor="middle" x="242.68" y="-295.95" font-family="Times,serif" font-size="14.00" fill="#1e1e2e">default</text>
<text text-anchor="middle" x="242.68" y="-278.7" font-family="Times,serif" font-size="14.00" fill="#1e1e2e">({ aspect&#45;chain, class })</text>
</g>
<!-- default__aspect_default_ -->
<g id="node11" class="node">
<title>default__aspect_default_</title>
<polygon fill="#a6e3a1" stroke="#a6e3a1" points="1749.3,-350 1571.3,-350 1571.3,-314 1749.3,-314 1749.3,-350"/>
<text text-anchor="middle" x="1660.3" y="-327.32" font-family="Times,serif" font-size="14.00" fill="#1e1e2e">default/aspect(default)</text>
</g>
<!-- n_default&#45;&gt;default__aspect_default_ -->
<g id="edge8" class="edge">
<title>n_default&#45;&gt;default__aspect_default_</title>
<path fill="none" stroke="#a6adc8" d="M353.51,-311.48C368.69,-317.56 383.21,-325.54 395.37,-336 424.32,-360.9 399.21,-393.42 431.37,-414 504.71,-460.92 1267.57,-486.38 1535.3,-409 1570.55,-398.81 1605.59,-375.52 1629.38,-357.2"/>
<polygon fill="#a6adc8" stroke="#a6adc8" points="1631.37,-360.1 1637.05,-351.15 1627.03,-354.6 1631.37,-360.1"/>
</g>
<!-- den__provides__define_user -->
<g id="node15" class="node">
<title>den__provides__define_user</title>
<polygon fill="#a6e3a1" stroke="#a6e3a1" points="720.87,-351 533.73,-351 467.08,-315 787.51,-315 720.87,-351"/>
<text text-anchor="middle" x="627.3" y="-328.32" font-family="Times,serif" font-size="14.00" fill="#1e1e2e">provides/define&#45;user</text>
</g>
<!-- n_default&#45;&gt;den__provides__define_user -->
<g id="edge9" class="edge">
<title>n_default&#45;&gt;den__provides__define_user</title>
<path fill="none" stroke="#a6adc8" d="M367.38,-305.25C395.96,-308.32 426.86,-311.63 457.02,-314.86"/>
<polygon fill="#a6adc8" stroke="#a6adc8" points="456.27,-318.3 466.58,-315.89 457.01,-311.34 456.27,-318.3"/>
</g>
<!-- den__provides__hostname -->
<g id="node16" class="node">
<title>den__provides__hostname</title>
<polygon fill="#fab387" stroke="#fab387" points="715.22,-405 539.38,-405 476.76,-369 777.84,-369 715.22,-405"/>
<text text-anchor="middle" x="627.3" y="-382.32" font-family="Times,serif" font-size="14.00" fill="#1e1e2e">provides/hostname</text>
</g>
<!-- n_default&#45;&gt;den__provides__hostname -->
<g id="edge10" class="edge">
<title>n_default&#45;&gt;den__provides__hostname</title>
<path fill="none" stroke="#a6adc8" d="M343.2,-316.13C360.93,-321.75 378.96,-328.37 395.37,-336 412.81,-344.11 413.39,-353.18 431.37,-360 445.57,-365.39 460.72,-369.72 476.05,-373.2"/>
<polygon fill="#a6adc8" stroke="#a6adc8" points="475.25,-376.61 485.76,-375.27 476.71,-369.77 475.25,-376.61"/>
</g>
<!-- den__provides__mutual_provider -->
<g id="node17" class="node">
<title>den__provides__mutual_provider</title>
<polygon fill="#f9e2af" stroke="#f9e2af" points="741.72,-297 512.87,-297 431.37,-261 823.23,-261 741.72,-297"/>
<text text-anchor="middle" x="627.3" y="-274.32" font-family="Times,serif" font-size="14.00" fill="#1e1e2e">provides/mutual&#45;provider</text>
</g>
<!-- n_default&#45;&gt;den__provides__mutual_provider -->
<g id="edge11" class="edge">
<title>n_default&#45;&gt;den__provides__mutual_provider</title>
<path fill="none" stroke="#a6adc8" d="M385.88,-287.17C413.66,-286.22 442.91,-285.23 471.08,-284.27"/>
<polygon fill="#a6adc8" stroke="#a6adc8" points="470.85,-287.78 480.73,-283.95 470.61,-280.79 470.85,-287.78"/>
</g>
<!-- den__provides__default__aspect_default__den__provides -->
<g id="node12" class="node">
<title>den__provides__default__aspect_default__den__provides</title>
<polygon fill="#a6e3a1" stroke="#a6e3a1" points="1394.69,-387 999.84,-387 859.23,-351 1535.3,-351 1394.69,-387"/>
<text text-anchor="middle" x="1197.26" y="-364.32" font-family="Times,serif" font-size="14.00" fill="#1e1e2e">provides/default/aspect(default):den/provides</text>
</g>
<!-- default__cross_provide_user_ -->
<g id="node13" class="node">
<title>default__cross_provide_user_</title>
<polygon fill="#f9e2af" stroke="#f9e2af" points="347.06,-381 138.31,-381 138.31,-345 347.06,-345 347.06,-381"/>
<text text-anchor="middle" x="242.68" y="-358.32" font-family="Times,serif" font-size="14.00" fill="#1e1e2e">default/cross&#45;provide(user)</text>
</g>
<!-- default__self_provide_default_ -->
<g id="node14" class="node">
<title>default__self_provide_default_</title>
<polygon fill="#fab387" stroke="#fab387" points="350.06,-435 135.31,-435 135.31,-399 350.06,-399 350.06,-435"/>
<text text-anchor="middle" x="242.68" y="-412.32" font-family="Times,serif" font-size="14.00" fill="#1e1e2e">default/self&#45;provide(default)</text>
</g>
<!-- den__provides__define_user&#45;&gt;default__aspect_default_ -->
<g id="edge13" class="edge">
<title>den__provides__define_user&#45;&gt;default__aspect_default_</title>
<path fill="none" stroke="#a6adc8" d="M755.24,-332.88C962.92,-332.68 1371.06,-332.28 1559.55,-332.1"/>
<polygon fill="#a6adc8" stroke="#a6adc8" points="1559.31,-335.6 1569.31,-332.09 1559.3,-328.6 1559.31,-335.6"/>
</g>
<!-- den__provides__define_user&#45;&gt;den__provides__default__aspect_default__den__provides -->
<g id="edge14" class="edge">
<title>den__provides__define_user&#45;&gt;den__provides__default__aspect_default__den__provides</title>
<path fill="none" stroke="#a6adc8" d="M741.87,-340.2C786.16,-343.01 839.23,-346.37 893.23,-349.79"/>
<polygon fill="#a6adc8" stroke="#a6adc8" points="892.68,-353.26 902.89,-350.4 893.13,-346.28 892.68,-353.26"/>
</g>
<!-- den__provides__hostname&#45;&gt;default__aspect_default_ -->
<g id="edge15" class="edge">
<title>den__provides__hostname&#45;&gt;default__aspect_default_</title>
<path fill="none" stroke="#a6adc8" d="M738.4,-392.17C776.64,-393.73 819.81,-395.23 859.23,-396 1009.44,-398.93 1389.31,-431.45 1535.3,-396 1566.82,-388.35 1599.28,-371.2 1623.09,-356.57"/>
<polygon fill="#a6adc8" stroke="#a6adc8" points="1624.85,-359.6 1631.45,-351.3 1621.12,-353.67 1624.85,-359.6"/>
</g>
<!-- den__provides__hostname&#45;&gt;den__provides__default__aspect_default__den__provides -->
<g id="edge16" class="edge">
<title>den__provides__hostname&#45;&gt;den__provides__default__aspect_default__den__provides</title>
<path fill="none" stroke="#a6adc8" d="M754.35,-383.01C810.81,-381.22 879.48,-379.04 945.69,-376.94"/>
<polygon fill="#a6adc8" stroke="#a6adc8" points="945.76,-380.44 955.64,-376.63 945.54,-373.44 945.76,-380.44"/>
</g>
<!-- den__provides__mutual_provider&#45;&gt;default__aspect_default_ -->
<g id="edge17" class="edge">
<title>den__provides__mutual_provider&#45;&gt;default__aspect_default_</title>
<path fill="none" stroke="#a6adc8" d="M752.22,-292.77C786.82,-296.22 824.46,-299.62 859.23,-302 927.24,-306.66 1360.91,-321.8 1559.84,-328.62"/>
<polygon fill="#a6adc8" stroke="#a6adc8" points="1559.53,-332.11 1569.64,-328.95 1559.76,-325.11 1559.53,-332.11"/>
</g>
<!-- den__provides__mutual_provider&#45;&gt;den__provides__default__aspect_default__den__provides -->
<g id="edge18" class="edge">
<title>den__provides__mutual_provider&#45;&gt;den__provides__default__aspect_default__den__provides</title>
<path fill="none" stroke="#a6adc8" d="M751.79,-293.08C775.61,-296.65 800.29,-300.94 823.23,-306 839.56,-309.6 842.92,-313.27 859.23,-317 916.04,-329.99 979,-340.68 1034.97,-348.92"/>
<polygon fill="#a6adc8" stroke="#a6adc8" points="1034.17,-352.34 1044.57,-350.31 1035.18,-345.41 1034.17,-352.34"/>
</g>
<!-- alice__to_hosts -->
<g id="node18" class="node">
<title>alice__to_hosts</title>
<polygon fill="#a6e3a1" stroke="#a6e3a1" points="1261.29,-293 1133.24,-293 1087.64,-257 1306.89,-257 1261.29,-293"/>
<text text-anchor="middle" x="1197.26" y="-270.32" font-family="Times,serif" font-size="14.00" fill="#1e1e2e">alice/to&#45;hosts</text>
</g>
<!-- den__provides__mutual_provider&#45;&gt;alice__to_hosts -->
<g id="edge19" class="edge">
<title>den__provides__mutual_provider&#45;&gt;alice__to_hosts</title>
<path fill="none" stroke="#a6adc8" d="M786.13,-277.89C886.51,-277.18 1013.27,-276.29 1099.1,-275.68"/>
<polygon fill="#a6adc8" stroke="#a6adc8" points="1098.92,-279.19 1108.9,-275.62 1098.87,-272.19 1098.92,-279.19"/>
</g>
<!-- alice__to_hosts&#45;&gt;alice -->
<g id="edge28" class="edge">
<title>alice__to_hosts&#45;&gt;alice</title>
<path fill="none" stroke="#a6adc8" d="M1296.44,-265.66C1363.72,-259.05 1454.99,-249.67 1535.3,-240 1564.41,-236.49 1597.28,-231.96 1621.86,-228.46"/>
<polygon fill="#a6adc8" stroke="#a6adc8" points="1622.31,-231.93 1631.71,-227.05 1621.32,-225 1622.31,-231.93"/>
</g>
<!-- alice__to_hosts&#45;&gt;default__aspect_default_ -->
<g id="edge7" class="edge">
<title>alice__to_hosts&#45;&gt;default__aspect_default_</title>
<path fill="none" stroke="#a6adc8" d="M1278.22,-280.23C1346.69,-285.28 1447.8,-294.06 1535.3,-307 1544.18,-308.31 1553.39,-309.84 1562.59,-311.49"/>
<polygon fill="#a6adc8" stroke="#a6adc8" points="1561.83,-314.91 1572.3,-313.28 1563.1,-308.03 1561.83,-314.91"/>
</g>
<!-- user -->
<g id="node19" class="node">
<title>user</title>
<polygon fill="#fab387" stroke="#fab387" points="54,-278 0,-278 0,-242 54,-242 54,-278"/>
<text text-anchor="middle" x="27" y="-255.32" font-family="Times,serif" font-size="14.00" fill="#1e1e2e">user</text>
</g>
<!-- user&#45;&gt;alice -->
<g id="edge22" class="edge">
<title>user&#45;&gt;alice</title>
<path fill="none" stroke="#a6adc8" d="M54.35,-251.22C63.05,-248.72 72.85,-246.31 82,-245 691.2,-157.63 1446.28,-206.7 1621.7,-219.99"/>
<polygon fill="#a6adc8" stroke="#a6adc8" points="1621.35,-223.48 1631.58,-220.75 1621.88,-216.5 1621.35,-223.48"/>
</g>
<!-- user&#45;&gt;user__aspect_user_ -->
<g id="edge26" class="edge">
<title>user&#45;&gt;user__aspect_user_</title>
<path fill="none" stroke="#a6adc8" d="M41.7,-241.66C51.54,-229.95 65.87,-215.59 82,-208 302.29,-104.3 382.82,-146 626.3,-146 626.3,-146 626.3,-146 1198.26,-146 1446.24,-146 1738.43,-114.89 1877.07,-98.24"/>
<polygon fill="#a6adc8" stroke="#a6adc8" points="1877.39,-101.73 1886.9,-97.05 1876.55,-94.78 1877.39,-101.73"/>
</g>
<!-- user&#45;&gt;user__cross_provide__anon__ -->
<g id="edge27" class="edge">
<title>user&#45;&gt;user__cross_provide__anon__</title>
<path fill="none" stroke="#a6adc8" d="M30,-241.81C34.17,-213.56 46.56,-159.72 82,-134 278.57,8.67 383.41,-85 626.3,-85 626.3,-85 626.3,-85 1198.26,-85 1425.16,-85 1689.31,-62.07 1838.75,-46.96"/>
<polygon fill="#a6adc8" stroke="#a6adc8" points="1839.09,-50.44 1848.69,-45.95 1838.38,-43.48 1839.09,-50.44"/>
</g>
<!-- user&#45;&gt;n_default -->
<g id="edge23" class="edge">
<title>user&#45;&gt;n_default</title>
<path fill="none" stroke="#a6adc8" d="M54.2,-263.92C70.37,-266.34 92.41,-269.65 115.72,-273.14"/>
<polygon fill="#a6adc8" stroke="#a6adc8" points="114.96,-276.56 125.37,-274.58 116,-269.64 114.96,-276.56"/>
</g>
<!-- user&#45;&gt;default__cross_provide_user_ -->
<g id="edge24" class="edge">
<title>user&#45;&gt;default__cross_provide_user_</title>
<path fill="none" stroke="#a6adc8" d="M35.83,-278.24C44.45,-295.99 60.06,-322.24 82,-336 95.64,-344.56 111.18,-350.64 127.07,-354.92"/>
<polygon fill="#a6adc8" stroke="#a6adc8" points="126.1,-358.29 136.64,-357.25 127.75,-351.49 126.1,-358.29"/>
</g>
<!-- user&#45;&gt;default__self_provide_default_ -->
<g id="edge25" class="edge">
<title>user&#45;&gt;default__self_provide_default_</title>
<path fill="none" stroke="#a6adc8" d="M30.06,-278.42C34.31,-307.09 46.82,-361.99 82,-390 94.21,-399.72 108.64,-406.5 123.75,-411.15"/>
<polygon fill="#a6adc8" stroke="#a6adc8" points="122.82,-414.52 133.39,-413.77 124.66,-407.77 122.82,-414.52"/>
</g>
</g>
</svg>
