<svg id="my-svg" width="100%" xmlns="http://www.w3.org/2000/svg" xmlns:xlink="http://www.w3.org/1999/xlink" class="flowchart" style="max-width: 1075.55px; background-color: rgb(30, 30, 46);" viewBox="4.0904998779296875 4 1075.549072265625 342" role="graphics-document document" aria-roledescription="flowchart-v2"><style>#my-svg{font-family:JetBrains Mono,Fira Code,DejaVu Sans Mono,monospace;font-size:16px;fill:#cdd6f4;}@keyframes edge-animation-frame{from{stroke-dashoffset:0;}}@keyframes dash{to{stroke-dashoffset:0;}}#my-svg .edge-animation-slow{stroke-dasharray:9,5!important;stroke-dashoffset:900;animation:dash 50s linear infinite;stroke-linecap:round;}#my-svg .edge-animation-fast{stroke-dasharray:9,5!important;stroke-dashoffset:900;animation:dash 20s linear infinite;stroke-linecap:round;}#my-svg .error-icon{fill:#313244;}#my-svg .error-text{fill:#cdd6f4;stroke:#cdd6f4;}#my-svg .edge-thickness-normal{stroke-width:1px;}#my-svg .edge-thickness-thick{stroke-width:3.5px;}#my-svg .edge-pattern-solid{stroke-dasharray:0;}#my-svg .edge-thickness-invisible{stroke-width:0;fill:none;}#my-svg .edge-pattern-dashed{stroke-dasharray:3;}#my-svg .edge-pattern-dotted{stroke-dasharray:2;}#my-svg .marker{fill:#a6adc8;stroke:#a6adc8;}#my-svg .marker.cross{stroke:#a6adc8;}#my-svg svg{font-family:JetBrains Mono,Fira Code,DejaVu Sans Mono,monospace;font-size:16px;}#my-svg p{margin:0;}#my-svg .label{font-family:JetBrains Mono,Fira Code,DejaVu Sans Mono,monospace;color:#cdd6f4;}#my-svg .cluster-label text{fill:#cdd6f4;}#my-svg .cluster-label span{color:#cdd6f4;}#my-svg .cluster-label span p{background-color:transparent;}#my-svg .label text,#my-svg span{fill:#cdd6f4;color:#cdd6f4;}#my-svg .node rect,#my-svg .node circle,#my-svg .node ellipse,#my-svg .node polygon,#my-svg .node path{fill:#313244;stroke:#a6adc8;stroke-width:1px;}#my-svg .rough-node .label text,#my-svg .node .label text,#my-svg .image-shape .label,#my-svg .icon-shape .label{text-anchor:middle;}#my-svg .node .katex path{fill:#000;stroke:#000;stroke-width:1px;}#my-svg .rough-node .label,#my-svg .node .label,#my-svg .image-shape .label,#my-svg .icon-shape .label{text-align:center;}#my-svg .node.clickable{cursor:pointer;}#my-svg .root .anchor path{fill:#a6adc8!important;stroke-width:0;stroke:#a6adc8;}#my-svg .arrowheadPath{fill:#e1e1d1;}#my-svg .edgePath .path{stroke:#a6adc8;stroke-width:1px;}#my-svg .flowchart-link{stroke:#a6adc8;fill:none;}#my-svg .edgeLabel{background-color:#1e1e2e;text-align:center;}#my-svg .edgeLabel p{background-color:#1e1e2e;}#my-svg .edgeLabel rect{opacity:0.5;background-color:#1e1e2e;fill:#1e1e2e;}#my-svg .labelBkg{background-color:rgba(30, 30, 46, 0.5);}#my-svg .cluster rect{fill:#313244;stroke:#6c7086;stroke-width:1px;}#my-svg .cluster text{fill:#cdd6f4;}#my-svg .cluster span{color:#cdd6f4;}#my-svg div.mermaidTooltip{position:absolute;text-align:center;max-width:200px;padding:2px;font-family:JetBrains Mono,Fira Code,DejaVu Sans Mono,monospace;font-size:12px;background:#313244;border:1px solid #6c7086;border-radius:2px;pointer-events:none;z-index:100;}#my-svg .flowchartTitleText{text-anchor:middle;font-size:18px;fill:#cdd6f4;}#my-svg rect.text{fill:none;stroke-width:0;}#my-svg .icon-shape,#my-svg .image-shape{background-color:#1e1e2e;text-align:center;}#my-svg .icon-shape p,#my-svg .image-shape p{background-color:#1e1e2e;padding:2px;}#my-svg .icon-shape .label rect,#my-svg .image-shape .label rect{opacity:0.5;background-color:#1e1e2e;fill:#1e1e2e;}#my-svg .label-icon{display:inline-block;height:1em;overflow:visible;vertical-align:-0.125em;}#my-svg .node .label-icon path{fill:currentColor;stroke:revert;stroke-width:revert;}#my-svg .node .neo-node{stroke:#a6adc8;}#my-svg [data-look="neo"].node rect,#my-svg [data-look="neo"].cluster rect,#my-svg [data-look="neo"].node polygon{stroke:url(#my-svg-gradient);filter:drop-shadow( 1px 2px 2px rgba(185,185,185,1));}#my-svg [data-look="neo"].node path{stroke:url(#my-svg-gradient);stroke-width:1px;}#my-svg [data-look="neo"].node .outer-path{filter:drop-shadow( 1px 2px 2px rgba(185,185,185,1));}#my-svg [data-look="neo"].node .neo-line path{stroke:#a6adc8;filter:none;}#my-svg [data-look="neo"].node circle{stroke:url(#my-svg-gradient);filter:drop-shadow( 1px 2px 2px rgba(185,185,185,1));}#my-svg [data-look="neo"].node circle .state-start{fill:#000000;}#my-svg [data-look="neo"].icon-shape .icon{fill:url(#my-svg-gradient);filter:drop-shadow( 1px 2px 2px rgba(185,185,185,1));}#my-svg [data-look="neo"].icon-shape .icon-neo path{stroke:url(#my-svg-gradient);filter:drop-shadow( 1px 2px 2px rgba(185,185,185,1));}#my-svg :root{--mermaid-font-family:JetBrains Mono,Fira Code,DejaVu Sans Mono,monospace;}#my-svg .root&gt;*{fill:#89b4fa!important;stroke:#89b4fa!important;color:#1e1e2e!important;font-weight:bold!important;}#my-svg .root span{fill:#89b4fa!important;stroke:#89b4fa!important;color:#1e1e2e!important;font-weight:bold!important;}#my-svg .root tspan{fill:#1e1e2e!important;}#my-svg .alice_c&gt;*{fill:#f2cdcd!important;stroke:#f2cdcd!important;color:#1e1e2e!important;stroke-dasharray:3 3!important;stroke-width:1px!important;}#my-svg .alice_c span{fill:#f2cdcd!important;stroke:#f2cdcd!important;color:#1e1e2e!important;stroke-dasharray:3 3!important;stroke-width:1px!important;}#my-svg .alice_c tspan{fill:#1e1e2e!important;}#my-svg .demo_shell_c&gt;*{fill:#f2cdcd!important;stroke:#f2cdcd!important;color:#1e1e2e!important;stroke-dasharray:3 3!important;stroke-width:1px!important;}#my-svg .demo_shell_c span{fill:#f2cdcd!important;stroke:#f2cdcd!important;color:#1e1e2e!important;stroke-dasharray:3 3!important;stroke-width:1px!important;}#my-svg .demo_shell_c tspan{fill:#1e1e2e!important;}#my-svg .dev_tools_c&gt;*{fill:#fab387!important;stroke:#fab387!important;color:#1e1e2e!important;stroke-dasharray:3 3!important;stroke-width:1px!important;}#my-svg .dev_tools_c span{fill:#fab387!important;stroke:#fab387!important;color:#1e1e2e!important;stroke-dasharray:3 3!important;stroke-width:1px!important;}#my-svg .dev_tools_c tspan{fill:#1e1e2e!important;}#my-svg .hyprland_c&gt;*{fill:#f2cdcd!important;stroke:#f2cdcd!important;color:#1e1e2e!important;stroke-dasharray:3 3!important;stroke-width:1px!important;}#my-svg .hyprland_c span{fill:#f2cdcd!important;stroke:#f2cdcd!important;color:#1e1e2e!important;stroke-dasharray:3 3!important;stroke-width:1px!important;}#my-svg .hyprland_c tspan{fill:#1e1e2e!important;}#my-svg .den__provides__mutual_provider_c&gt;*{fill:#f9e2af!important;stroke:#f9e2af!important;color:#1e1e2e!important;stroke-dasharray:3 3!important;stroke-width:1px!important;}#my-svg .den__provides__mutual_provider_c span{fill:#f9e2af!important;stroke:#f9e2af!important;color:#1e1e2e!important;stroke-dasharray:3 3!important;stroke-width:1px!important;}#my-svg .den__provides__mutual_provider_c tspan{fill:#1e1e2e!important;}#my-svg .alice__to_hosts_c&gt;*{fill:#a6e3a1!important;stroke:#a6e3a1!important;color:#1e1e2e!important;stroke-dasharray:3 3!important;stroke-width:1px!important;}#my-svg .alice__to_hosts_c span{fill:#a6e3a1!important;stroke:#a6e3a1!important;color:#1e1e2e!important;stroke-dasharray:3 3!important;stroke-width:1px!important;}#my-svg .alice__to_hosts_c tspan{fill:#1e1e2e!important;}</style><g><marker id="my-svg_flowchart-v2-pointEnd" class="marker flowchart-v2" viewBox="0 0 10 10" refX="5" refY="5" markerUnits="userSpaceOnUse" markerWidth="8" markerHeight="8" orient="auto"><path d="M 0 0 L 10 5 L 0 10 z" class="arrowMarkerPath" style="stroke-width: 1; stroke-dasharray: 1, 0;"/></marker><marker id="my-svg_flowchart-v2-pointStart" class="marker flowchart-v2" viewBox="0 0 10 10" refX="4.5" refY="5" markerUnits="userSpaceOnUse" markerWidth="8" markerHeight="8" orient="auto"><path d="M 0 5 L 10 10 L 10 0 z" class="arrowMarkerPath" style="stroke-width: 1; stroke-dasharray: 1, 0;"/></marker><marker id="my-svg_flowchart-v2-pointEnd-margin" class="marker flowchart-v2" viewBox="0 0 11.5 14" refX="11.5" refY="7" markerUnits="userSpaceOnUse" markerWidth="10.5" markerHeight="14" orient="auto"><path d="M 0 0 L 11.5 7 L 0 14 z" class="arrowMarkerPath" style="stroke-width: 0; stroke-dasharray: 1, 0;"/></marker><marker id="my-svg_flowchart-v2-pointStart-margin" class="marker flowchart-v2" viewBox="0 0 11.5 14" refX="1" refY="7" markerUnits="userSpaceOnUse" markerWidth="11.5" markerHeight="14" orient="auto"><polygon points="0,7 11.5,14 11.5,0" class="arrowMarkerPath" style="stroke-width: 0; stroke-dasharray: 1, 0;"/></marker><marker id="my-svg_flowchart-v2-circleEnd" class="marker flowchart-v2" viewBox="0 0 10 10" refX="11" refY="5" markerUnits="userSpaceOnUse" markerWidth="11" markerHeight="11" orient="auto"><circle cx="5" cy="5" r="5" class="arrowMarkerPath" style="stroke-width: 1; stroke-dasharray: 1, 0;"/></marker><marker id="my-svg_flowchart-v2-circleStart" class="marker flowchart-v2" viewBox="0 0 10 10" refX="-1" refY="5" markerUnits="userSpaceOnUse" markerWidth="11" markerHeight="11" orient="auto"><circle cx="5" cy="5" r="5" class="arrowMarkerPath" style="stroke-width: 1; stroke-dasharray: 1, 0;"/></marker><marker id="my-svg_flowchart-v2-circleEnd-margin" class="marker flowchart-v2" viewBox="0 0 10 10" refY="5" refX="12.25" markerUnits="userSpaceOnUse" markerWidth="14" markerHeight="14" orient="auto"><circle cx="5" cy="5" r="5" class="arrowMarkerPath" style="stroke-width: 0; stroke-dasharray: 1, 0;"/></marker><marker id="my-svg_flowchart-v2-circleStart-margin" class="marker flowchart-v2" viewBox="0 0 10 10" refX="-2" refY="5" markerUnits="userSpaceOnUse" markerWidth="14" markerHeight="14" orient="auto"><circle cx="5" cy="5" r="5" class="arrowMarkerPath" style="stroke-width: 0; stroke-dasharray: 1, 0;"/></marker><marker id="my-svg_flowchart-v2-crossEnd" class="marker cross flowchart-v2" viewBox="0 0 11 11" refX="12" refY="5.2" markerUnits="userSpaceOnUse" markerWidth="11" markerHeight="11" orient="auto"><path d="M 1,1 l 9,9 M 10,1 l -9,9" class="arrowMarkerPath" style="stroke-width: 2; stroke-dasharray: 1, 0;"/></marker><marker id="my-svg_flowchart-v2-crossStart" class="marker cross flowchart-v2" viewBox="0 0 11 11" refX="-1" refY="5.2" markerUnits="userSpaceOnUse" markerWidth="11" markerHeight="11" orient="auto"><path d="M 1,1 l 9,9 M 10,1 l -9,9" class="arrowMarkerPath" style="stroke-width: 2; stroke-dasharray: 1, 0;"/></marker><marker id="my-svg_flowchart-v2-crossEnd-margin" class="marker cross flowchart-v2" viewBox="0 0 15 15" refX="17.7" refY="7.5" markerUnits="userSpaceOnUse" markerWidth="12" markerHeight="12" orient="auto"><path d="M 1,1 L 14,14 M 1,14 L 14,1" class="arrowMarkerPath" style="stroke-width: 2.5;"/></marker><marker id="my-svg_flowchart-v2-crossStart-margin" class="marker cross flowchart-v2" viewBox="0 0 15 15" refX="-3.5" refY="7.5" markerUnits="userSpaceOnUse" markerWidth="12" markerHeight="12" orient="auto"><path d="M 1,1 L 14,14 M 1,14 L 14,1" class="arrowMarkerPath" style="stroke-width: 2.5; stroke-dasharray: 1, 0;"/></marker></g><defs><filter id="my-svg-drop-shadow" height="130%" width="130%"><feDropShadow dx="4" dy="4" stdDeviation="0" flood-opacity="0.06" flood-color="#000000"/></filter></defs><defs><filter id="my-svg-drop-shadow-small" height="150%" width="150%"><feDropShadow dx="2" dy="2" stdDeviation="0" flood-opacity="0.06" flood-color="#000000"/></filter></defs><linearGradient id="my-svg-gradient" gradientUnits="objectBoundingBox" x1="0%" y1="0%" x2="100%" y2="0%"><stop offset="0%" stop-color="#a6adc8" stop-opacity="1"/><stop offset="100%" stop-color="#6c7086" stop-opacity="1"/></linearGradient><g class="subgraphs"><g class="subgraph"><g class="cluster " id="[object Object]" data-look="classic"><rect style="fill:#313244 !important;stroke:#6c7086 !important;stroke-width:2px !important" x="520.7299652099609" y="12" width="526" height="138"/><g class="cluster-label " transform="translate(673.7299652099609, 12)"><foreignObject width="220" height="24"><div xmlns="http://www.w3.org/1999/xhtml" style="display: table-cell; white-space: nowrap; line-height: 1.5;"><span class="nodeLabel "><p>default { host, user }</p></span></div></foreignObject></g></g></g><g class="subgraph"><g class="cluster " id="[object Object]" data-look="classic"><rect style="fill:#313244 !important;stroke:#6c7086 !important;stroke-width:2px !important" x="37" y="36" width="303.72996520996094" height="273"/><g class="cluster-label " transform="translate(93.86498260498047, 36)"><foreignObject width="190" height="24"><div xmlns="http://www.w3.org/1999/xhtml" style="display: table-cell; white-space: nowrap; line-height: 1.5;"><span class="nodeLabel "><p>user { host, user }</p></span></div></foreignObject></g></g></g></g><g class="nodes"><g class="node default den__provides__mutual_provider_c " id="my-svg-flowchart-den__provides__mutual_provider-10" data-look="classic" transform="translate(671.7299652099609, 106.5)"><polygon points="-31.5,0 246.5,0 215,-63 0,-63" class="label-container" transform="translate(-107.5,31.5)" style="fill:#f9e2af !important;stroke:#f9e2af !important;stroke-dasharray:3 3 !important;stroke-width:1px !important"/><g class="label" style="color:#1e1e2e !important" transform="translate(-100, -24)"><rect/><foreignObject width="200" height="48"><div style="color: rgb(30, 30, 46) !important; display: table; white-space: break-spaces; line-height: 1.5; max-width: 200px; text-align: center; width: 200px;" xmlns="http://www.w3.org/1999/xhtml"><span style="color:#1e1e2e !important" class="nodeLabel "><p>provides/mutual-provider</p></span></div></foreignObject></g></g><g class="node default alice__to_hosts_c " id="my-svg-flowchart-alice__to_hosts-11" data-look="classic" transform="translate(937.7299652099609, 106.5)"><polygon points="-19.5,0 174.5,0 155,-39 0,-39" class="label-container" transform="translate(-77.5,19.5)" style="fill:#a6e3a1 !important;stroke:#a6e3a1 !important;stroke-dasharray:3 3 !important;stroke-width:1px !important"/><g class="label" style="color:#1e1e2e !important" transform="translate(-70, -12)"><rect/><foreignObject width="140" height="24"><div style="color: rgb(30, 30, 46) !important; display: table-cell; white-space: nowrap; line-height: 1.5; max-width: 200px; text-align: center;" xmlns="http://www.w3.org/1999/xhtml"><span style="color:#1e1e2e !important" class="nodeLabel "><p>alice/to-hosts</p></span></div></foreignObject></g></g><g class="node default root " id="my-svg-flowchart-alice-0" data-look="classic" transform="translate(86.36498260498047, 111.75)"><g class="basic label-container outer-path"><path d="M-17.875 -19.5 C-9.84290675774647 -19.5, -1.8108135154929386 -19.5, 17.875 -19.5 C17.875 -19.5, 17.875 -19.5, 17.875 -19.5 C18.1619278803465 -19.490798781348527, 18.448855760693004 -19.481597562697054, 19.1243692896239 -19.45993515863156 C19.483046931807653 -19.425333957863067, 19.841724573991407 -19.39073275709458, 20.368604652847864 -19.3399052695533 C20.670037739471542 -19.29117190575648, 20.97147082609522 -19.242438541959668, 21.60259325967676 -19.140403561325776 C22.048035648283314 -19.03873424290957, 22.493478036889872 -18.93706492449336, 22.82126438623539 -18.862249829261074 C23.164369364847854 -18.76041807260368, 23.507474343460316 -18.658586315946284, 24.019610251460602 -18.50658706670804 C24.464186428597586 -18.342978923904496, 24.90876260573457 -18.179370781100957, 25.192706595147794 -18.074876768247425 C25.47628062898852 -17.949346955390972, 25.75985466282924 -17.823817142534523, 26.33573291279238 -17.568892924097174 C26.72416962865306 -17.36624573823825, 27.112606344513736 -17.163598552379327, 27.443992264076783 -16.990714730406097 C27.719614608959628 -16.82363084520143, 27.995236953842472 -16.65654695999676, 28.512930573605697 -16.342718045390892 C28.90206737789026 -16.07127305618274, 29.29120418217482 -15.799828066974587, 29.538155344578712 -15.627565626425154 C29.791640913520723 -15.425417630728184, 30.045126482462734 -15.223269635031212, 30.51545370850187 -14.848196188198123 C30.798566021565414 -14.591081076215136, 31.081678334628958 -14.333965964232151, 31.440809736767985 -14.007812326905688 C31.74853133224719 -13.690064515160566, 32.05625292772639 -13.372316703415445, 32.31042094296865 -13.10986736009568 C32.62144974366605 -12.744515232756392, 32.93247854436345 -12.379163105417103, 33.12071390812658 -12.158051136245305 C33.36249164414546 -11.834090996384885, 33.60426938016433 -11.510130856524468, 33.868358964640635 -11.156274872382312 C34.02614681588311 -10.913870360903175, 34.18393466712559 -10.671465849424036, 34.55028387860425 -10.108655082055241 C34.78680280309049 -9.688691781491755, 35.02332172757673 -9.268728480928269, 35.163686474273504 -9.019496659696287 C35.35636744685203 -8.619390497424604, 35.54904841943056 -8.21928433515292, 35.70604614880834 -7.893275190886684 C35.830417781227 -7.586074854250675, 35.95478941364565 -7.278874517614666, 36.175134229970325 -6.734618561215508 C36.312297889678185 -6.321503472236764, 36.44946154938605 -5.9083883832580195, 36.56902313421488 -5.548287939305138 C36.67221045325157 -5.1547899701512705, 36.775397772288265 -4.761292000997404, 36.88609428754556 -4.339158212148133 C36.977093908976634 -3.8718943888763744, 37.0680935304077 -3.4046305656046156, 37.125044776581774 -3.1121979531509023 C37.16421292045178 -2.8084175639199938, 37.20338106432179 -2.5046371746890848, 37.28489270250937 -1.872449005199798 C37.31203248919865 -1.449724920672705, 37.33917227588793 -1.027000836145612, 37.36498121591342 -0.6250057626472757 C37.36498121591342 -0.197564601512713, 37.36498121591342 0.22987655962184972, 37.36498121591342 0.625005762647271 C37.33345527230559 1.116047781622765, 37.301929328697774 1.607089800598259, 37.28489270250937 1.8724490051997846 C37.244448859336956 2.186123466304818, 37.204005016164544 2.4997979274098516, 37.125044776581774 3.1121979531508885 C37.06205303995525 3.435647207419843, 36.99906130332873 3.7590964616887974, 36.88609428754556 4.339158212148129 C36.82067847558777 4.588617054535433, 36.75526266362998 4.838075896922737, 36.56902313421489 5.548287939305125 C36.47520017652871 5.830867739197646, 36.38137721884253 6.113447539090166, 36.175134229970325 6.734618561215495 C36.00622862793522 7.15181866380986, 35.83732302590012 7.569018766404225, 35.70604614880834 7.893275190886679 C35.51739551179265 8.28501227512676, 35.328744874776966 8.676749359366841, 35.163686474273504 9.019496659696284 C35.004405344537155 9.30231643450652, 34.845124214800805 9.58513620931676, 34.55028387860425 10.108655082055236 C34.38225112963755 10.366798507579013, 34.21421838067085 10.624941933102791, 33.86835896464064 11.156274872382301 C33.6545655834797 11.442738526160255, 33.44077220231877 11.729202179938207, 33.12071390812658 12.158051136245302 C32.928402454466166 12.383951112546539, 32.73609100080575 12.609851088847774, 32.31042094296866 13.10986736009567 C32.00699307720331 13.423181543389473, 31.703565211437958 13.736495726683275, 31.44080973676799 14.007812326905684 C31.131130879794 14.289054471155904, 30.82145202282001 14.570296615406123, 30.515453708501887 14.848196188198111 C30.287116772394246 15.030288818442896, 30.058779836286607 15.212381448687681, 29.538155344578715 15.627565626425152 C29.173334676714852 15.882048731494809, 28.808514008850985 16.136531836564465, 28.512930573605708 16.34271804539089 C28.251825946679226 16.501001204654827, 27.990721319752744 16.659284363918765, 27.443992264076787 16.990714730406093 C27.013119632581006 17.21550070627035, 26.58224700108522 17.44028668213461, 26.335732912792388 17.56889292409717 C26.0412665297966 17.69924445681451, 25.746800146800812 17.82959598953185, 25.192706595147804 18.07487676824742 C24.922861192690668 18.174182370775203, 24.653015790233532 18.273487973302984, 24.019610251460616 18.506587066708033 C23.606395086911974 18.62922715853541, 23.193179922363328 18.75186725036279, 22.821264386235413 18.86224982926107 C22.535092150422695 18.92756677463696, 22.248919914609978 18.992883720012856, 21.602593259676766 19.140403561325773 C21.212603373458403 19.203454101712822, 20.82261348724004 19.266504642099868, 20.36860465284788 19.3399052695533 C20.082226095682266 19.36753186454246, 19.795847538516657 19.395158459531622, 19.1243692896239 19.45993515863156 C18.625212339327682 19.475942150477497, 18.126055389031464 19.49194914232343, 17.875000000000004 19.5 C17.875000000000004 19.5, 17.875 19.5, 17.875 19.5 C8.141571966931226 19.5, -1.5918560661375487 19.5, -17.874999999999996 19.5 C-18.202829575113572 19.489487143607665, -18.530659150227144 19.47897428721533, -19.124369289623893 19.45993515863156 C-19.408654008773603 19.432510553677584, -19.69293872792331 19.40508594872361, -20.36860465284787 19.3399052695533 C-20.754549008702732 19.277508779141865, -21.140493364557592 19.21511228873043, -21.60259325967676 19.140403561325773 C-21.907986242515374 19.070699605868317, -22.213379225353993 19.000995650410857, -22.821264386235388 18.862249829261074 C-23.133678112503045 18.76952707519795, -23.446091838770702 18.67680432113482, -24.01961025146059 18.506587066708043 C-24.306400352952437 18.401045658300408, -24.593190454444283 18.29550424989277, -25.192706595147797 18.074876768247425 C-25.5071295291231 17.935691062401503, -25.821552463098406 17.796505356555585, -26.33573291279238 17.568892924097174 C-26.567954338876074 17.447743154854233, -26.800175764959764 17.326593385611293, -27.44399226407678 16.990714730406097 C-27.69751579189918 16.837027277970538, -27.951039319721573 16.68333982553498, -28.512930573605686 16.3427180453909 C-28.82289113441553 16.12650297614637, -29.132851695225376 15.910287906901841, -29.538155344578712 15.627565626425156 C-29.809899302409125 15.410857051465818, -30.08164326023954 15.194148476506479, -30.51545370850187 14.848196188198125 C-30.769432370769547 14.617539487033785, -31.023411033037224 14.386882785869444, -31.440809736767974 14.007812326905697 C-31.61936499996918 13.823439357990715, -31.79792026317038 13.639066389075733, -32.310420942968655 13.109867360095677 C-32.474619540647964 12.916990344096668, -32.63881813832728 12.724113328097658, -33.120713908126575 12.158051136245307 C-33.27803059913041 11.94726110214555, -33.43534729013425 11.736471068045793, -33.868358964640635 11.156274872382316 C-34.13062279054607 10.753367208093502, -34.39288661645151 10.35045954380469, -34.55028387860425 10.108655082055249 C-34.77942471781138 9.701792319016963, -35.008565557018514 9.294929555978678, -35.163686474273504 9.019496659696289 C-35.285379380904956 8.766798735264999, -35.40707228753641 8.514100810833709, -35.70604614880834 7.893275190886686 C-35.8221075962171 7.606601171891606, -35.93816904362587 7.319927152896526, -36.175134229970325 6.73461856121551 C-36.29065092094371 6.386700693088918, -36.4061676119171 6.038782824962327, -36.56902313421488 5.5482879393051325 C-36.66969321925999 5.164389274337285, -36.7703633043051 4.780490609369439, -36.88609428754556 4.339158212148136 C-36.96492725980829 3.9343675609335818, -37.04376023207103 3.5295769097190277, -37.125044776581774 3.112197953150904 C-37.16488339309837 2.8032175104728227, -37.204722009614976 2.4942370677947414, -37.28489270250937 1.872449005199809 C-37.30699807654498 1.5281399614584528, -37.32910345058058 1.1838309177170965, -37.36498121591342 0.6250057626472781 C-37.36498121591342 0.19946333302047758, -37.36498121591342 -0.22607909660632297, -37.36498121591342 -0.6250057626472687 C-37.33661093291558 -1.0668958204187442, -37.30824064991776 -1.5087858781902197, -37.28489270250937 -1.8724490051997822 C-37.22102350093833 -2.3678059201843418, -37.15715429936729 -2.863162835168901, -37.125044776581774 -3.112197953150895 C-37.05605642645035 -3.4664385503828252, -36.98706807631891 -3.8206791476147552, -36.88609428754556 -4.339158212148126 C-36.81179662106324 -4.622487415257586, -36.73749895458091 -4.905816618367046, -36.56902313421489 -5.548287939305123 C-36.43038281921388 -5.965850478753736, -36.291742504212884 -6.383413018202349, -36.17513422997033 -6.734618561215485 C-36.008819714233425 -7.145418630558051, -35.842505198496525 -7.556218699900619, -35.70604614880834 -7.893275190886676 C-35.500983236776406 -8.319092715364423, -35.29592032474447 -8.74491023984217, -35.163686474273504 -9.019496659696282 C-34.96412474311028 -9.373838721193122, -34.76456301194706 -9.728180782689963, -34.55028387860425 -10.108655082055243 C-34.409018508082916 -10.3256766262394, -34.26775313756159 -10.542698170423558, -33.86835896464064 -11.156274872382308 C-33.644476983694524 -11.456256330782058, -33.420595002748406 -11.756237789181808, -33.12071390812659 -12.158051136245302 C-32.921178380983065 -12.392436920321218, -32.72164285383954 -12.626822704397135, -32.31042094296866 -13.10986736009567 C-32.10343973404144 -13.323592451786318, -31.89645852511421 -13.537317543476966, -31.440809736767996 -14.007812326905677 C-31.153177667840207 -14.269032161578382, -30.865545598912423 -14.530251996251089, -30.515453708501887 -14.848196188198107 C-30.295831621559618 -15.023338958145388, -30.076209534617345 -15.198481728092666, -29.53815534457872 -15.627565626425149 C-29.161165599030966 -15.890537353296203, -28.784175853483212 -16.153509080167257, -28.51293057360571 -16.342718045390885 C-28.14682491877777 -16.56465344482322, -27.780719263949834 -16.786588844255554, -27.44399226407679 -16.99071473040609 C-27.048238713101636 -17.19717910445758, -26.65248516212648 -17.40364347850907, -26.335732912792388 -17.56889292409717 C-25.9008115956345 -17.761419689720483, -25.465890278476618 -17.953946455343797, -25.192706595147804 -18.07487676824742 C-24.797773491663524 -18.220215801051225, -24.402840388179243 -18.36555483385503, -24.01961025146062 -18.506587066708033 C-23.65065389813921 -18.61609137568241, -23.281697544817803 -18.72559568465678, -22.821264386235413 -18.862249829261067 C-22.37386075359205 -18.96436678883036, -21.926457120948694 -19.06648374839966, -21.602593259676766 -19.140403561325773 C-21.288391258819217 -19.191201304151512, -20.974189257961665 -19.241999046977256, -20.368604652847882 -19.3399052695533 C-20.00372756179026 -19.375104523698724, -19.63885047073264 -19.410303777844145, -19.124369289623903 -19.45993515863156 C-18.8068536666602 -19.470117266653336, -18.489338043696492 -19.480299374675116, -17.875000000000007 -19.5 C-17.875000000000004 -19.5, -17.875000000000004 -19.5, -17.875 -19.5" stroke="none" stroke-width="0" fill="#89b4fa" style="fill:#89b4fa !important;stroke:#89b4fa !important"/><path d="M-17.875 -19.5 C-7.72000732505213 -19.5, 2.43498534989574 -19.5, 17.875 -19.5 M-17.875 -19.5 C-5.986703427313339 -19.5, 5.901593145373322 -19.5, 17.875 -19.5 M17.875 -19.5 C17.875 -19.5, 17.875 -19.5, 17.875 -19.5 M17.875 -19.5 C17.875 -19.5, 17.875 -19.5, 17.875 -19.5 M17.875 -19.5 C18.18630475415935 -19.490017062452054, 18.497609508318703 -19.48003412490411, 19.1243692896239 -19.45993515863156 M17.875 -19.5 C18.202758432311132 -19.48948942501887, 18.530516864622264 -19.478978850037738, 19.1243692896239 -19.45993515863156 M19.1243692896239 -19.45993515863156 C19.602338231372443 -19.413826069662832, 20.08030717312099 -19.3677169806941, 20.368604652847864 -19.3399052695533 M19.1243692896239 -19.45993515863156 C19.517568501608498 -19.422003703542643, 19.910767713593096 -19.384072248453727, 20.368604652847864 -19.3399052695533 M20.368604652847864 -19.3399052695533 C20.68960390380699 -19.2880086000446, 21.010603154766113 -19.2361119305359, 21.60259325967676 -19.140403561325776 M20.368604652847864 -19.3399052695533 C20.811144165350722 -19.268358913117012, 21.253683677853576 -19.19681255668073, 21.60259325967676 -19.140403561325776 M21.60259325967676 -19.140403561325776 C22.007631145766783 -19.047956306944947, 22.412669031856804 -18.955509052564118, 22.82126438623539 -18.862249829261074 M21.60259325967676 -19.140403561325776 C22.058247943290727 -19.03640335321558, 22.5139026269047 -18.932403145105383, 22.82126438623539 -18.862249829261074 M22.82126438623539 -18.862249829261074 C23.110955398407853 -18.77627105746744, 23.40064641058031 -18.69029228567381, 24.019610251460602 -18.50658706670804 M22.82126438623539 -18.862249829261074 C23.18916370705551 -18.753059241984605, 23.55706302787563 -18.643868654708136, 24.019610251460602 -18.50658706670804 M24.019610251460602 -18.50658706670804 C24.43969712366936 -18.35199121449474, 24.85978399587812 -18.197395362281437, 25.192706595147794 -18.074876768247425 M24.019610251460602 -18.50658706670804 C24.309280849028312 -18.399985609117472, 24.598951446596022 -18.293384151526904, 25.192706595147794 -18.074876768247425 M25.192706595147794 -18.074876768247425 C25.508142173631125 -17.93524279471683, 25.823577752114456 -17.79560882118624, 26.33573291279238 -17.568892924097174 M25.192706595147794 -18.074876768247425 C25.422500191912196 -17.97315395954468, 25.652293788676594 -17.871431150841932, 26.33573291279238 -17.568892924097174 M26.33573291279238 -17.568892924097174 C26.670820313091994 -17.39407804199459, 27.005907713391604 -17.219263159892005, 27.443992264076783 -16.990714730406097 M26.33573291279238 -17.568892924097174 C26.597137067741127 -17.432518543897764, 26.858541222689873 -17.296144163698358, 27.443992264076783 -16.990714730406097 M27.443992264076783 -16.990714730406097 C27.696897852997825 -16.83740187616395, 27.94980344191887 -16.684089021921803, 28.512930573605697 -16.342718045390892 M27.443992264076783 -16.990714730406097 C27.810186380406652 -16.768725705091434, 28.176380496736517 -16.54673667977677, 28.512930573605697 -16.342718045390892 M28.512930573605697 -16.342718045390892 C28.87526107285418 -16.089971974149666, 29.237591572102666 -15.837225902908436, 29.538155344578712 -15.627565626425154 M28.512930573605697 -16.342718045390892 C28.859790873576372 -16.10076331547173, 29.206651173547048 -15.858808585552568, 29.538155344578712 -15.627565626425154 M29.538155344578712 -15.627565626425154 C29.742992434509578 -15.464213498149176, 29.947829524440447 -15.300861369873196, 30.51545370850187 -14.848196188198123 M29.538155344578712 -15.627565626425154 C29.85541360279945 -15.374560608090931, 30.17267186102019 -15.12155558975671, 30.51545370850187 -14.848196188198123 M30.51545370850187 -14.848196188198123 C30.831017792422667 -14.561609236549383, 31.14658187634347 -14.275022284900643, 31.440809736767985 -14.007812326905688 M30.51545370850187 -14.848196188198123 C30.774994979891513 -14.612487672607784, 31.03453625128116 -14.376779157017445, 31.440809736767985 -14.007812326905688 M31.440809736767985 -14.007812326905688 C31.65283691078556 -13.788876861977815, 31.86486408480313 -13.569941397049945, 32.31042094296865 -13.10986736009568 M31.440809736767985 -14.007812326905688 C31.724886261344572 -13.714479992163941, 32.00896278592116 -13.421147657422196, 32.31042094296865 -13.10986736009568 M32.31042094296865 -13.10986736009568 C32.54916458117606 -12.8294254977594, 32.78790821938347 -12.54898363542312, 33.12071390812658 -12.158051136245305 M32.31042094296865 -13.10986736009568 C32.57692787963425 -12.796813147613973, 32.843434816299855 -12.483758935132265, 33.12071390812658 -12.158051136245305 M33.12071390812658 -12.158051136245305 C33.288812107034744 -11.932814863769323, 33.45691030594291 -11.707578591293343, 33.868358964640635 -11.156274872382312 M33.12071390812658 -12.158051136245305 C33.39138626504478 -11.795374836733915, 33.66205862196298 -11.432698537222524, 33.868358964640635 -11.156274872382312 M33.868358964640635 -11.156274872382312 C34.02602239050964 -10.91406151168972, 34.18368581637864 -10.671848150997127, 34.55028387860425 -10.108655082055241 M33.868358964640635 -11.156274872382312 C34.12301765495328 -10.765050738628878, 34.377676345265925 -10.373826604875442, 34.55028387860425 -10.108655082055241 M34.55028387860425 -10.108655082055241 C34.74714336084468 -9.759111137153187, 34.944002843085116 -9.409567192251131, 35.163686474273504 -9.019496659696287 M34.55028387860425 -10.108655082055241 C34.705719022613735 -9.832664244351339, 34.861154166623216 -9.556673406647436, 35.163686474273504 -9.019496659696287 M35.163686474273504 -9.019496659696287 C35.35920088421848 -8.613506804107326, 35.55471529416346 -8.207516948518363, 35.70604614880834 -7.893275190886684 M35.163686474273504 -9.019496659696287 C35.336895143283385 -8.659825152425455, 35.51010381229326 -8.300153645154623, 35.70604614880834 -7.893275190886684 M35.70604614880834 -7.893275190886684 C35.8175518155083 -7.617854038322365, 35.92905748220827 -7.342432885758047, 36.175134229970325 -6.734618561215508 M35.70604614880834 -7.893275190886684 C35.82837289045289 -7.591125773997995, 35.95069963209743 -7.2889763571093065, 36.175134229970325 -6.734618561215508 M36.175134229970325 -6.734618561215508 C36.29851427457992 -6.363017524791903, 36.421894319189526 -5.991416488368298, 36.56902313421488 -5.548287939305138 M36.175134229970325 -6.734618561215508 C36.26868655686459 -6.452853858149068, 36.36223888375885 -6.17108915508263, 36.56902313421488 -5.548287939305138 M36.56902313421488 -5.548287939305138 C36.66952007619125 -5.165049543899075, 36.770017018167614 -4.781811148493012, 36.88609428754556 -4.339158212148133 M36.56902313421488 -5.548287939305138 C36.692824716013924 -5.076178851960414, 36.816626297812974 -4.60406976461569, 36.88609428754556 -4.339158212148133 M36.88609428754556 -4.339158212148133 C36.981010414489454 -3.851783960821786, 37.07592654143334 -3.364409709495438, 37.125044776581774 -3.1121979531509023 M36.88609428754556 -4.339158212148133 C36.94932456517135 -4.014484100263598, 37.012554842797144 -3.6898099883790625, 37.125044776581774 -3.1121979531509023 M37.125044776581774 -3.1121979531509023 C37.157850548509664 -2.857762864310615, 37.19065632043755 -2.603327775470328, 37.28489270250937 -1.872449005199798 M37.125044776581774 -3.1121979531509023 C37.172428592340445 -2.7446984351194454, 37.21981240809911 -2.377198917087988, 37.28489270250937 -1.872449005199798 M37.28489270250937 -1.872449005199798 C37.30672082937056 -1.5324583099897762, 37.328548956231764 -1.1924676147797544, 37.36498121591342 -0.6250057626472757 M37.28489270250937 -1.872449005199798 C37.31355203147653 -1.4260568231422253, 37.3422113604437 -0.9796646410846526, 37.36498121591342 -0.6250057626472757 M37.36498121591342 -0.6250057626472757 C37.36498121591342 -0.32720688988566515, 37.36498121591342 -0.02940801712405461, 37.36498121591342 0.625005762647271 M37.36498121591342 -0.6250057626472757 C37.36498121591342 -0.15232286178291643, 37.36498121591342 0.32036003908144284, 37.36498121591342 0.625005762647271 M37.36498121591342 0.625005762647271 C37.340677848545745 1.0035503267237753, 37.31637448117808 1.3820948908002797, 37.28489270250937 1.8724490051997846 M37.36498121591342 0.625005762647271 C37.33663339495872 1.0665459559659636, 37.30828557400402 1.508086149284656, 37.28489270250937 1.8724490051997846 M37.28489270250937 1.8724490051997846 C37.23760674535732 2.2391895512026427, 37.19032078820528 2.605930097205501, 37.125044776581774 3.1121979531508885 M37.28489270250937 1.8724490051997846 C37.22886443577618 2.306993177949699, 37.17283616904299 2.7415373506996135, 37.125044776581774 3.1121979531508885 M37.125044776581774 3.1121979531508885 C37.041972905008116 3.538754456435363, 36.95890103343446 3.965310959719837, 36.88609428754556 4.339158212148129 M37.125044776581774 3.1121979531508885 C37.043609313134354 3.530351846562119, 36.96217384968693 3.948505739973349, 36.88609428754556 4.339158212148129 M36.88609428754556 4.339158212148129 C36.81976051506622 4.5921176358506965, 36.75342674258689 4.845077059553264, 36.56902313421489 5.548287939305125 M36.88609428754556 4.339158212148129 C36.797780779157556 4.6759358949482435, 36.70946727076955 5.012713577748358, 36.56902313421489 5.548287939305125 M36.56902313421489 5.548287939305125 C36.44862050647867 5.910921470493065, 36.32821787874244 6.273555001681004, 36.175134229970325 6.734618561215495 M36.56902313421489 5.548287939305125 C36.43920374690811 5.93928324996269, 36.30938435960134 6.330278560620256, 36.175134229970325 6.734618561215495 M36.175134229970325 6.734618561215495 C36.04479164316778 7.056567270620277, 35.91444905636523 7.378515980025059, 35.70604614880834 7.893275190886679 M36.175134229970325 6.734618561215495 C36.07379468965328 6.984929185065318, 35.97245514933624 7.235239808915141, 35.70604614880834 7.893275190886679 M35.70604614880834 7.893275190886679 C35.58202731812474 8.15080294637906, 35.45800848744114 8.408330701871439, 35.163686474273504 9.019496659696284 M35.70604614880834 7.893275190886679 C35.49332432213542 8.33499661549095, 35.2806024954625 8.77671804009522, 35.163686474273504 9.019496659696284 M35.163686474273504 9.019496659696284 C34.931969422630374 9.43093374878447, 34.70025237098725 9.842370837872659, 34.55028387860425 10.108655082055236 M35.163686474273504 9.019496659696284 C34.950306245094666 9.398374863694508, 34.73692601591583 9.777253067692731, 34.55028387860425 10.108655082055236 M34.55028387860425 10.108655082055236 C34.413453300770165 10.318863593763208, 34.276622722936075 10.52907210547118, 33.86835896464064 11.156274872382301 M34.55028387860425 10.108655082055236 C34.36934452573747 10.386626517077959, 34.18840517287069 10.664597952100683, 33.86835896464064 11.156274872382301 M33.86835896464064 11.156274872382301 C33.642525471085015 11.458871179892336, 33.41669197752939 11.761467487402372, 33.12071390812658 12.158051136245302 M33.86835896464064 11.156274872382301 C33.67366446451369 11.41714776551857, 33.47896996438674 11.678020658654837, 33.12071390812658 12.158051136245302 M33.12071390812658 12.158051136245302 C32.90058844041165 12.416623036117207, 32.680462972696716 12.675194935989111, 32.31042094296866 13.10986736009567 M33.12071390812658 12.158051136245302 C32.85970415845125 12.464648040089434, 32.59869440877593 12.771244943933569, 32.31042094296866 13.10986736009567 M32.31042094296866 13.10986736009567 C31.988216536608164 13.442569863136614, 31.666012130247665 13.775272366177559, 31.44080973676799 14.007812326905684 M32.31042094296866 13.10986736009567 C32.131970277589254 13.294132323172011, 31.953519612209842 13.478397286248352, 31.44080973676799 14.007812326905684 M31.44080973676799 14.007812326905684 C31.138256179705994 14.282583462300936, 30.835702622644 14.557354597696188, 30.515453708501887 14.848196188198111 M31.44080973676799 14.007812326905684 C31.1066870047359 14.311253751734178, 30.77256427270381 14.614695176562673, 30.515453708501887 14.848196188198111 M30.515453708501887 14.848196188198111 C30.23727150377864 15.070039093725539, 29.959089299055393 15.291881999252965, 29.538155344578715 15.627565626425152 M30.515453708501887 14.848196188198111 C30.14458503075731 15.143954089469416, 29.773716353012734 15.439711990740719, 29.538155344578715 15.627565626425152 M29.538155344578715 15.627565626425152 C29.321870225887547 15.778436762392227, 29.10558510719638 15.9293078983593, 28.512930573605708 16.34271804539089 M29.538155344578715 15.627565626425152 C29.280014837318248 15.807633269567601, 29.02187433005778 15.98770091271005, 28.512930573605708 16.34271804539089 M28.512930573605708 16.34271804539089 C28.195734829313437 16.53500396962996, 27.87853908502117 16.727289893869035, 27.443992264076787 16.990714730406093 M28.512930573605708 16.34271804539089 C28.219554760247032 16.520564187516566, 27.92617894688836 16.69841032964224, 27.443992264076787 16.990714730406093 M27.443992264076787 16.990714730406093 C27.19642364715859 17.11987111927705, 26.948855030240388 17.249027508148007, 26.335732912792388 17.56889292409717 M27.443992264076787 16.990714730406093 C27.093916464685144 17.173349050714464, 26.743840665293497 17.355983371022834, 26.335732912792388 17.56889292409717 M26.335732912792388 17.56889292409717 C25.979596104813805 17.726544124566235, 25.62345929683522 17.8841953250353, 25.192706595147804 18.07487676824742 M26.335732912792388 17.56889292409717 C25.91360151647199 17.75575797116525, 25.491470120151593 17.942623018233327, 25.192706595147804 18.07487676824742 M25.192706595147804 18.07487676824742 C24.757526497207746 18.23502706705009, 24.322346399267687 18.395177365852756, 24.019610251460616 18.506587066708033 M25.192706595147804 18.07487676824742 C24.94584470172789 18.16572422699228, 24.698982808307974 18.256571685737132, 24.019610251460616 18.506587066708033 M24.019610251460616 18.506587066708033 C23.651167667578964 18.61593889160952, 23.28272508369731 18.725290716511008, 22.821264386235413 18.86224982926107 M24.019610251460616 18.506587066708033 C23.567279164306573 18.640836559041027, 23.114948077152533 18.77508605137402, 22.821264386235413 18.86224982926107 M22.821264386235413 18.86224982926107 C22.49022622763078 18.937807128736708, 22.159188069026147 19.01336442821235, 21.602593259676766 19.140403561325773 M22.821264386235413 18.86224982926107 C22.41691379028118 18.954540214153393, 22.012563194326944 19.046830599045713, 21.602593259676766 19.140403561325773 M21.602593259676766 19.140403561325773 C21.30790510672459 19.188046456554325, 21.01321695377241 19.235689351782874, 20.36860465284788 19.3399052695533 M21.602593259676766 19.140403561325773 C21.18069965760736 19.208612047074606, 20.75880605553795 19.27682053282344, 20.36860465284788 19.3399052695533 M20.36860465284788 19.3399052695533 C19.888045884187996 19.386264196009442, 19.40748711552811 19.432623122465582, 19.1243692896239 19.45993515863156 M20.36860465284788 19.3399052695533 C19.881151120488255 19.386929325571387, 19.39369758812863 19.433953381589475, 19.1243692896239 19.45993515863156 M19.1243692896239 19.45993515863156 C18.632784987386476 19.475699310393516, 18.141200685149048 19.491463462155473, 17.875000000000004 19.5 M19.1243692896239 19.45993515863156 C18.68703783191265 19.473959527266317, 18.249706374201402 19.487983895901074, 17.875000000000004 19.5 M17.875000000000004 19.5 C17.875000000000004 19.5, 17.875 19.5, 17.875 19.5 M17.875000000000004 19.5 C17.875000000000004 19.5, 17.875 19.5, 17.875 19.5 M17.875 19.5 C5.456211517384922 19.5, -6.962576965230156 19.5, -17.874999999999996 19.5 M17.875 19.5 C10.380644924548033 19.5, 2.886289849096066 19.5, -17.874999999999996 19.5 M-17.874999999999996 19.5 C-18.35681372852663 19.48454917151968, -18.838627457053267 19.469098343039363, -19.124369289623893 19.45993515863156 M-17.874999999999996 19.5 C-18.334687718805075 19.485258709585786, -18.794375437610157 19.47051741917157, -19.124369289623893 19.45993515863156 M-19.124369289623893 19.45993515863156 C-19.440851264876574 19.429404523104196, -19.757333240129256 19.398873887576833, -20.36860465284787 19.3399052695533 M-19.124369289623893 19.45993515863156 C-19.402167790222467 19.43313627138039, -19.679966290821042 19.406337384129227, -20.36860465284787 19.3399052695533 M-20.36860465284787 19.3399052695533 C-20.724571462581117 19.282355316319467, -21.08053827231436 19.224805363085633, -21.60259325967676 19.140403561325773 M-20.36860465284787 19.3399052695533 C-20.712899175088513 19.28424240124133, -21.057193697329158 19.22857953292936, -21.60259325967676 19.140403561325773 M-21.60259325967676 19.140403561325773 C-22.011352060971618 19.047107032330683, -22.420110862266473 18.953810503335593, -22.821264386235388 18.862249829261074 M-21.60259325967676 19.140403561325773 C-21.853637301897535 19.083104396904353, -22.104681344118315 19.025805232482938, -22.821264386235388 18.862249829261074 M-22.821264386235388 18.862249829261074 C-23.063217984903506 18.790439271216734, -23.305171583571628 18.718628713172393, -24.01961025146059 18.506587066708043 M-22.821264386235388 18.862249829261074 C-23.122085878148194 18.772967589505587, -23.422907370061 18.6836853497501, -24.01961025146059 18.506587066708043 M-24.01961025146059 18.506587066708043 C-24.32129006312159 18.395566107319187, -24.622969874782594 18.284545147930327, -25.192706595147797 18.074876768247425 M-24.01961025146059 18.506587066708043 C-24.41760275358625 18.36012214692344, -24.815595255711912 18.21365722713884, -25.192706595147797 18.074876768247425 M-25.192706595147797 18.074876768247425 C-25.438796907432426 17.965939887008762, -25.684887219717055 17.857003005770103, -26.33573291279238 17.568892924097174 M-25.192706595147797 18.074876768247425 C-25.490102548248455 17.94322840174727, -25.787498501349113 17.81158003524711, -26.33573291279238 17.568892924097174 M-26.33573291279238 17.568892924097174 C-26.761181037832618 17.346936909776215, -27.18662916287285 17.124980895455252, -27.44399226407678 16.990714730406097 M-26.33573291279238 17.568892924097174 C-26.636227301800393 17.412125193827535, -26.936721690808408 17.255357463557896, -27.44399226407678 16.990714730406097 M-27.44399226407678 16.990714730406097 C-27.688980261950775 16.8422015663856, -27.933968259824766 16.693688402365105, -28.512930573605686 16.3427180453909 M-27.44399226407678 16.990714730406097 C-27.789355206001567 16.781353685433366, -28.13471814792635 16.571992640460632, -28.512930573605686 16.3427180453909 M-28.512930573605686 16.3427180453909 C-28.83763398487362 16.11621900187452, -29.16233739614155 15.889719958358139, -29.538155344578712 15.627565626425156 M-28.512930573605686 16.3427180453909 C-28.885231031483894 16.08301736260213, -29.257531489362098 15.823316679813363, -29.538155344578712 15.627565626425156 M-29.538155344578712 15.627565626425156 C-29.87479303611525 15.359106025729963, -30.211430727651788 15.09064642503477, -30.51545370850187 14.848196188198125 M-29.538155344578712 15.627565626425156 C-29.785214336135393 15.43054265517458, -30.032273327692074 15.233519683924005, -30.51545370850187 14.848196188198125 M-30.51545370850187 14.848196188198125 C-30.8578618705202 14.53723015507659, -31.200270032538533 14.226264121955058, -31.440809736767974 14.007812326905697 M-30.51545370850187 14.848196188198125 C-30.760375419390545 14.625764770642391, -31.00529713027922 14.403333353086657, -31.440809736767974 14.007812326905697 M-31.440809736767974 14.007812326905697 C-31.627955312398303 13.814569155129876, -31.81510088802863 13.621325983354053, -32.310420942968655 13.109867360095677 M-31.440809736767974 14.007812326905697 C-31.762679069363458 13.6754558150372, -32.08454840195894 13.343099303168703, -32.310420942968655 13.109867360095677 M-32.310420942968655 13.109867360095677 C-32.496693457694285 12.8910610650926, -32.682965972419915 12.672254770089522, -33.120713908126575 12.158051136245307 M-32.310420942968655 13.109867360095677 C-32.612920445267335 12.75453423198635, -32.915419947566015 12.39920110387702, -33.120713908126575 12.158051136245307 M-33.120713908126575 12.158051136245307 C-33.27973315330849 11.944979834652798, -33.438752398490415 11.731908533060288, -33.868358964640635 11.156274872382316 M-33.120713908126575 12.158051136245307 C-33.35053149217823 11.850116510428716, -33.58034907622987 11.542181884612123, -33.868358964640635 11.156274872382316 M-33.868358964640635 11.156274872382316 C-34.10043859420363 10.799738239267102, -34.33251822376663 10.443201606151888, -34.55028387860425 10.108655082055249 M-33.868358964640635 11.156274872382316 C-34.007032806600314 10.943234611991707, -34.14570664856 10.7301943516011, -34.55028387860425 10.108655082055249 M-34.55028387860425 10.108655082055249 C-34.72174981245108 9.80419995370164, -34.893215746297905 9.499744825348035, -35.163686474273504 9.019496659696289 M-34.55028387860425 10.108655082055249 C-34.71145361118158 9.822481901659064, -34.87262334375892 9.536308721262877, -35.163686474273504 9.019496659696289 M-35.163686474273504 9.019496659696289 C-35.35321950820574 8.625927259378722, -35.54275254213798 8.232357859061155, -35.70604614880834 7.893275190886686 M-35.163686474273504 9.019496659696289 C-35.34616781989267 8.640570241042772, -35.528649165511844 8.261643822389255, -35.70604614880834 7.893275190886686 M-35.70604614880834 7.893275190886686 C-35.88690186427629 7.4465580770734725, -36.06775757974423 6.999840963260258, -36.175134229970325 6.73461856121551 M-35.70604614880834 7.893275190886686 C-35.81165642911776 7.632415756686559, -35.917266709427174 7.3715563224864304, -36.175134229970325 6.73461856121551 M-36.175134229970325 6.73461856121551 C-36.33113539650796 6.2647679030146, -36.4871365630456 5.794917244813689, -36.56902313421488 5.5482879393051325 M-36.175134229970325 6.73461856121551 C-36.32163243642518 6.2933893046928615, -36.46813064288004 5.852160048170213, -36.56902313421488 5.5482879393051325 M-36.56902313421488 5.5482879393051325 C-36.6490504722735 5.243109015219889, -36.72907781033213 4.937930091134645, -36.88609428754556 4.339158212148136 M-36.56902313421488 5.5482879393051325 C-36.65287689801129 5.228517195498286, -36.73673066180771 4.9087464516914405, -36.88609428754556 4.339158212148136 M-36.88609428754556 4.339158212148136 C-36.966978791854935 3.9238333774655167, -37.047863296164316 3.5085085427828973, -37.125044776581774 3.112197953150904 M-36.88609428754556 4.339158212148136 C-36.93997823198167 4.062475545844386, -36.993862176417785 3.785792879540636, -37.125044776581774 3.112197953150904 M-37.125044776581774 3.112197953150904 C-37.16707622883383 2.786210309533005, -37.20910768108589 2.460222665915106, -37.28489270250937 1.872449005199809 M-37.125044776581774 3.112197953150904 C-37.18378657741622 2.656608145759539, -37.242528378250675 2.2010183383681743, -37.28489270250937 1.872449005199809 M-37.28489270250937 1.872449005199809 C-37.31518518406523 1.4006191533162609, -37.34547766562109 0.9287893014327124, -37.36498121591342 0.6250057626472781 M-37.28489270250937 1.872449005199809 C-37.31159187789541 1.4565877973757813, -37.338291053281445 1.0407265895517532, -37.36498121591342 0.6250057626472781 M-37.36498121591342 0.6250057626472781 C-37.36498121591342 0.2120820087735158, -37.36498121591342 -0.20084174510024655, -37.36498121591342 -0.6250057626472687 M-37.36498121591342 0.6250057626472781 C-37.36498121591342 0.16694787630279972, -37.36498121591342 -0.2911100100416787, -37.36498121591342 -0.6250057626472687 M-37.36498121591342 -0.6250057626472687 C-37.33431721436899 -1.1026223382383045, -37.30365321282456 -1.5802389138293402, -37.28489270250937 -1.8724490051997822 M-37.36498121591342 -0.6250057626472687 C-37.3413494485293 -0.9930896148742125, -37.31771768114518 -1.3611734671011564, -37.28489270250937 -1.8724490051997822 M-37.28489270250937 -1.8724490051997822 C-37.231803155303304 -2.2842010496130922, -37.17871360809725 -2.695953094026402, -37.125044776581774 -3.112197953150895 M-37.28489270250937 -1.8724490051997822 C-37.24203261825215 -2.204863355017756, -37.19917253399495 -2.5372777048357302, -37.125044776581774 -3.112197953150895 M-37.125044776581774 -3.112197953150895 C-37.045031543290186 -3.5230489953003445, -36.965018309998605 -3.9339000374497943, -36.88609428754556 -4.339158212148126 M-37.125044776581774 -3.112197953150895 C-37.06222949703998 -3.434741137583984, -36.999414217498185 -3.757284322017073, -36.88609428754556 -4.339158212148126 M-36.88609428754556 -4.339158212148126 C-36.81745049657251 -4.600926737535554, -36.74880670559947 -4.862695262922981, -36.56902313421489 -5.548287939305123 M-36.88609428754556 -4.339158212148126 C-36.79586864790549 -4.683227680135278, -36.70564300826543 -5.02729714812243, -36.56902313421489 -5.548287939305123 M-36.56902313421489 -5.548287939305123 C-36.41149536547499 -6.022736480108209, -36.25396759673509 -6.497185020911296, -36.17513422997033 -6.734618561215485 M-36.56902313421489 -5.548287939305123 C-36.47630064107012 -5.827553315334135, -36.383578147925355 -6.106818691363147, -36.17513422997033 -6.734618561215485 M-36.17513422997033 -6.734618561215485 C-36.01341624376166 -7.134065113755466, -35.85169825755299 -7.533511666295446, -35.70604614880834 -7.893275190886676 M-36.17513422997033 -6.734618561215485 C-35.9899304059945 -7.192075587108143, -35.80472658201866 -7.649532613000802, -35.70604614880834 -7.893275190886676 M-35.70604614880834 -7.893275190886676 C-35.51483609146907 -8.2903269661915, -35.323626034129795 -8.687378741496326, -35.163686474273504 -9.019496659696282 M-35.70604614880834 -7.893275190886676 C-35.50029832261569 -8.320514954273962, -35.29455049642304 -8.747754717661246, -35.163686474273504 -9.019496659696282 M-35.163686474273504 -9.019496659696282 C-35.00997716031912 -9.29242311137812, -34.85626784636473 -9.565349563059957, -34.55028387860425 -10.108655082055243 M-35.163686474273504 -9.019496659696282 C-34.989068919063065 -9.329547810917248, -34.814451363852626 -9.639598962138214, -34.55028387860425 -10.108655082055243 M-34.55028387860425 -10.108655082055243 C-34.399566465536644 -10.34019750181929, -34.24884905246903 -10.571739921583335, -33.86835896464064 -11.156274872382308 M-34.55028387860425 -10.108655082055243 C-34.353954219281626 -10.410270160670082, -34.157624559959004 -10.71188523928492, -33.86835896464064 -11.156274872382308 M-33.86835896464064 -11.156274872382308 C-33.689201641332296 -11.396329364047578, -33.510044318023944 -11.636383855712845, -33.12071390812659 -12.158051136245302 M-33.86835896464064 -11.156274872382308 C-33.596108082649174 -11.521066251685294, -33.3238572006577 -11.885857630988278, -33.12071390812659 -12.158051136245302 M-33.12071390812659 -12.158051136245302 C-32.81917514142834 -12.512255729650958, -32.51763637473009 -12.866460323056614, -32.31042094296866 -13.10986736009567 M-33.12071390812659 -12.158051136245302 C-32.85922162410277 -12.465214852392153, -32.59772934007895 -12.772378568539002, -32.31042094296866 -13.10986736009567 M-32.31042094296866 -13.10986736009567 C-32.08476281268509 -13.342877906490505, -31.859104682401522 -13.575888452885339, -31.440809736767996 -14.007812326905677 M-32.31042094296866 -13.10986736009567 C-32.10633502446731 -13.320602826713838, -31.90224910596596 -13.531338293332006, -31.440809736767996 -14.007812326905677 M-31.440809736767996 -14.007812326905677 C-31.156433033873135 -14.266075724279542, -30.87205633097828 -14.524339121653409, -30.515453708501887 -14.848196188198107 M-31.440809736767996 -14.007812326905677 C-31.10292489696805 -14.31467039846902, -30.765040057168108 -14.621528470032361, -30.515453708501887 -14.848196188198107 M-30.515453708501887 -14.848196188198107 C-30.252106934178816 -15.058208232768779, -29.988760159855744 -15.268220277339449, -29.53815534457872 -15.627565626425149 M-30.515453708501887 -14.848196188198107 C-30.24733484675931 -15.062013845495256, -29.979215985016726 -15.275831502792405, -29.53815534457872 -15.627565626425149 M-29.53815534457872 -15.627565626425149 C-29.187742564157347 -15.871998412922316, -28.837329783735974 -16.116431199419484, -28.51293057360571 -16.342718045390885 M-29.53815534457872 -15.627565626425149 C-29.201326046128766 -15.862523163918512, -28.864496747678814 -16.097480701411875, -28.51293057360571 -16.342718045390885 M-28.51293057360571 -16.342718045390885 C-28.109526909221128 -16.58726371740389, -27.706123244836547 -16.831809389416897, -27.44399226407679 -16.99071473040609 M-28.51293057360571 -16.342718045390885 C-28.208107477790055 -16.527503597413684, -27.903284381974398 -16.71228914943648, -27.44399226407679 -16.99071473040609 M-27.44399226407679 -16.99071473040609 C-27.21129859670367 -17.112110867627237, -26.978604929330555 -17.233507004848388, -26.335732912792388 -17.56889292409717 M-27.44399226407679 -16.99071473040609 C-27.045506856663618 -17.198604312211458, -26.647021449250442 -17.406493894016826, -26.335732912792388 -17.56889292409717 M-26.335732912792388 -17.56889292409717 C-25.93735278363026 -17.74524398975059, -25.538972654468136 -17.92159505540401, -25.192706595147804 -18.07487676824742 M-26.335732912792388 -17.56889292409717 C-25.936971923682464 -17.74541258515167, -25.53821093457254 -17.921932246206172, -25.192706595147804 -18.07487676824742 M-25.192706595147804 -18.07487676824742 C-24.831147439414107 -18.20793387977362, -24.469588283680412 -18.340990991299815, -24.01961025146062 -18.506587066708033 M-25.192706595147804 -18.07487676824742 C-24.951930499807393 -18.16348459704252, -24.711154404466985 -18.252092425837617, -24.01961025146062 -18.506587066708033 M-24.01961025146062 -18.506587066708033 C-23.5588640566993 -18.643334118807065, -23.09811786193798 -18.780081170906094, -22.821264386235413 -18.862249829261067 M-24.01961025146062 -18.506587066708033 C-23.658026629472307 -18.613903187723, -23.29644300748399 -18.72121930873797, -22.821264386235413 -18.862249829261067 M-22.821264386235413 -18.862249829261067 C-22.525368728043563 -18.929786082343735, -22.22947306985171 -18.997322335426404, -21.602593259676766 -19.140403561325773 M-22.821264386235413 -18.862249829261067 C-22.52642361815482 -18.929545310559643, -22.231582850074222 -18.99684079185822, -21.602593259676766 -19.140403561325773 M-21.602593259676766 -19.140403561325773 C-21.177418328693985 -19.209142546886234, -20.7522433977112 -19.277881532446695, -20.368604652847882 -19.3399052695533 M-21.602593259676766 -19.140403561325773 C-21.27961280950234 -19.192620535759175, -20.956632359327916 -19.24483751019258, -20.368604652847882 -19.3399052695533 M-20.368604652847882 -19.3399052695533 C-20.10880260502795 -19.36496806064881, -19.849000557208015 -19.390030851744324, -19.124369289623903 -19.45993515863156 M-20.368604652847882 -19.3399052695533 C-20.04643206665115 -19.370984871474473, -19.724259480454418 -19.402064473395647, -19.124369289623903 -19.45993515863156 M-19.124369289623903 -19.45993515863156 C-18.700365498243787 -19.473532134947806, -18.27636170686367 -19.487129111264053, -17.875000000000007 -19.5 M-19.124369289623903 -19.45993515863156 C-18.781259444916465 -19.47093802352853, -18.438149600209027 -19.4819408884255, -17.875000000000007 -19.5 M-17.875000000000007 -19.5 C-17.875000000000004 -19.5, -17.875000000000004 -19.5, -17.875 -19.5 M-17.875000000000007 -19.5 C-17.875000000000007 -19.5, -17.875000000000004 -19.5, -17.875 -19.5" stroke="#89b4fa" stroke-width="1.3" fill="none" stroke-dasharray="0 0" style="fill:#89b4fa !important;stroke:#89b4fa !important"/></g><g class="label" style="color:#1e1e2e !important;font-weight:bold !important" transform="translate(-25, -12)"><rect/><foreignObject width="50" height="24"><div style="color: rgb(30, 30, 46) !important; font-weight: bold !important; display: table-cell; white-space: nowrap; line-height: 1.5; max-width: 200px; text-align: center;" xmlns="http://www.w3.org/1999/xhtml"><span style="color:#1e1e2e !important;font-weight:bold !important" class="nodeLabel "><p>alice</p></span></div></foreignObject></g></g><g class="node default demo_shell_c " id="my-svg-flowchart-demo_shell-1" data-look="classic" transform="translate(248.72996520996094, 270)"><rect class="basic label-container" style="fill:#f2cdcd !important;stroke:#f2cdcd !important;stroke-dasharray:3 3 !important;stroke-width:1px !important" x="-80" y="-27" width="160" height="54"/><g class="label" style="color:#1e1e2e !important" transform="translate(-50, -12)"><rect/><foreignObject width="100" height="24"><div style="color: rgb(30, 30, 46) !important; display: table-cell; white-space: nowrap; line-height: 1.5; max-width: 200px; text-align: center;" xmlns="http://www.w3.org/1999/xhtml"><span style="color:#1e1e2e !important" class="nodeLabel "><p>demo-shell</p></span></div></foreignObject></g></g><g class="node default dev_tools_c " id="my-svg-flowchart-dev_tools-2" data-look="classic" transform="translate(243.72996520996094, 186)"><rect class="basic label-container" style="fill:#fab387 !important;stroke:#fab387 !important;stroke-dasharray:3 3 !important;stroke-width:1px !important" x="-75" y="-27" width="150" height="54"/><g class="label" style="color:#1e1e2e !important" transform="translate(-45, -12)"><rect/><foreignObject width="90" height="24"><div style="color: rgb(30, 30, 46) !important; display: table-cell; white-space: nowrap; line-height: 1.5; max-width: 200px; text-align: center;" xmlns="http://www.w3.org/1999/xhtml"><span style="color:#1e1e2e !important" class="nodeLabel "><p>dev-tools</p></span></div></foreignObject></g></g><g class="node default hyprland_c " id="my-svg-flowchart-hyprland-3" data-look="classic" transform="translate(238.72996520996094, 102)"><rect class="basic label-container" style="fill:#f2cdcd !important;stroke:#f2cdcd !important;stroke-dasharray:3 3 !important;stroke-width:1px !important" x="-70" y="-27" width="140" height="54"/><g class="label" style="color:#1e1e2e !important" transform="translate(-40, -12)"><rect/><foreignObject width="80" height="24"><div style="color: rgb(30, 30, 46) !important; display: table-cell; white-space: nowrap; line-height: 1.5; max-width: 200px; text-align: center;" xmlns="http://www.w3.org/1999/xhtml"><span style="color:#1e1e2e !important" class="nodeLabel "><p>hyprland</p></span></div></foreignObject></g></g></g><g class="edges edgePaths"><path d="M123.73,121.5L125.397,121.5C127.063,121.5,130.397,121.5,132.535,121.862C134.673,122.224,135.616,122.948,136.449,123.781C137.282,124.614,138.006,125.557,138.368,149.112C138.73,172.667,138.73,218.833,139.092,242.388C139.454,265.943,140.178,266.886,141.011,267.719C141.844,268.552,142.787,269.276,146.759,269.638C150.73,270,157.73,270,161.23,270L164.73,270" id="my-svg-L_alice_demo_shell_0_0" class=" edge-thickness-normal edge-pattern-solid edge-thickness-normal edge-pattern-solid flowchart-link" style=";" data-edge="true" data-et="edge" data-id="L_alice_demo_shell_0_0" data-points="W3sieCI6MTIzLjcyOTk2NTIwOTk2MDk0LCJ5IjoxMjEuNX0seyJ4IjoxMzguNzI5OTY1MjA5OTYwOTQsInkiOjEyMS41fSx7IngiOjEzOC43Mjk5NjUyMDk5NjA5NCwieSI6MjcwfSx7IngiOjE2OC43Mjk5NjUyMDk5NjA5NCwieSI6MjcwfV0=" data-look="classic" marker-end="url(#my-svg_flowchart-v2-pointEnd)"/><path d="M123.73,111.75L127.897,111.75C132.063,111.75,140.397,111.75,145.035,112.112C149.673,112.474,150.616,113.198,151.449,114.031C152.282,114.864,153.006,115.807,153.368,126.987C153.73,138.167,153.73,159.583,154.092,170.763C154.454,181.943,155.178,182.886,156.011,183.719C156.844,184.552,157.787,185.276,159.259,185.638C160.73,186,162.73,186,163.73,186L164.73,186" id="my-svg-L_alice_dev_tools_0_0" class=" edge-thickness-normal edge-pattern-solid edge-thickness-normal edge-pattern-solid flowchart-link" style=";" data-edge="true" data-et="edge" data-id="L_alice_dev_tools_0_0" data-points="W3sieCI6MTIzLjcyOTk2NTIwOTk2MDk0LCJ5IjoxMTEuNzV9LHsieCI6MTUzLjcyOTk2NTIwOTk2MDk0LCJ5IjoxMTEuNzV9LHsieCI6MTUzLjcyOTk2NTIwOTk2MDk0LCJ5IjoxODZ9LHsieCI6MTY4LjcyOTk2NTIwOTk2MDk0LCJ5IjoxODZ9XQ==" data-look="classic" marker-end="url(#my-svg_flowchart-v2-pointEnd)"/><path d="M123.73,102L164.73,102" id="my-svg-L_alice_hyprland_0_0" class=" edge-thickness-normal edge-pattern-solid edge-thickness-normal edge-pattern-solid flowchart-link" style=";" data-edge="true" data-et="edge" data-id="L_alice_hyprland_0_0" data-points="W3sieCI6MTIzLjcyOTk2NTIwOTk2MDk0LCJ5IjoxMDJ9LHsieCI6MTY4LjcyOTk2NTIwOTk2MDk0LCJ5IjoxMDJ9XQ==" data-look="classic" marker-end="url(#my-svg_flowchart-v2-pointEnd)"/><path d="M810.73,106.5L836.73,106.5" id="my-svg-L_den__provides__mutual_provider_alice__to_hosts_0_0" class=" edge-thickness-normal edge-pattern-solid edge-thickness-normal edge-pattern-solid flowchart-link" style=";" data-edge="true" data-et="edge" data-id="L_den__provides__mutual_provider_alice__to_hosts_0_0" data-points="W3sieCI6ODEwLjcyOTk2NTIwOTk2MDksInkiOjEwNi41fSx7IngiOjg0MC43Mjk5NjUyMDk5NjA5LCJ5IjoxMDYuNX1d" data-look="classic" marker-end="url(#my-svg_flowchart-v2-pointEnd)"/><path d="M1034.73,106.5L1037.98,106.5C1041.23,106.5,1047.73,106.5,1053.063,106.5C1058.397,106.5,1062.563,106.5,1065.118,106.862C1067.673,107.224,1068.616,107.948,1069.449,108.781C1070.282,109.614,1071.006,110.557,1071.368,146.029C1071.73,181.5,1071.73,251.5,1071.368,286.971C1071.006,322.443,1070.282,323.386,1069.449,324.219C1068.616,325.052,1067.673,325.776,1020.66,326.138C973.647,326.5,880.563,326.5,733.627,326.5C586.692,326.5,385.903,326.5,257.49,326.5C129.077,326.5,73.038,326.5,44.548,326.138C16.057,325.776,15.114,325.052,14.281,324.219C13.448,323.386,12.724,322.443,12.362,287.846C12,253.25,12,185,12.362,150.404C12.724,115.807,13.448,114.864,14.281,114.031C15.114,113.198,16.057,112.474,18.612,112.112C21.167,111.75,25.333,111.75,30,111.75C34.667,111.75,39.833,111.75,42.417,111.75L45,111.75" id="my-svg-L_alice__to_hosts_alice_0_0" class=" edge-thickness-normal edge-pattern-dotted edge-thickness-normal edge-pattern-solid flowchart-link" style=";" data-edge="true" data-et="edge" data-id="L_alice__to_hosts_alice_0_0" data-points="W3sieCI6MTAzNC43Mjk5NjUyMDk5NjEsInkiOjEwNi41fSx7IngiOjEwNTQuMjI5OTY1MjA5OTYxLCJ5IjoxMDYuNX0seyJ4IjoxMDcxLjcyOTk2NTIwOTk2MSwieSI6MTA2LjV9LHsieCI6MTA3MS43Mjk5NjUyMDk5NjEsInkiOjMyNi41fSx7IngiOjc4Ny40Nzk5NjUyMDk5NjA5LCJ5IjozMjYuNX0seyJ4IjoxODUuMTE0OTgyNjA0OTgwNDcsInkiOjMyNi41fSx7IngiOjEyLCJ5IjozMjYuNX0seyJ4IjoxMiwieSI6MTExLjc1fSx7IngiOjI5LjUsInkiOjExMS43NX0seyJ4Ijo0OSwieSI6MTExLjc1fV0=" data-look="classic" marker-end="url(#my-svg_flowchart-v2-pointEnd)"/><path d="M340.73,75L355.73,75C370.73,75,400.73,75,430.063,75C459.397,75,488.063,75,502.397,75L516.73,75" id="my-svg-L_ctx_user_ctx_default_0_0" class=" edge-thickness-normal edge-pattern-solid edge-thickness-normal edge-pattern-solid flowchart-link" style=";" data-edge="true" data-et="edge" data-id="L_ctx_user_ctx_default_0_0" data-points="W3sieCI6MzQwLjcyOTk2NTIwOTk2MDk0LCJ5Ijo3NX0seyJ4Ijo0MzAuNzI5OTY1MjA5OTYwOTQsInkiOjc1fSx7IngiOjUyMC43Mjk5NjUyMDk5NjA5LCJ5Ijo3NX1d" data-look="classic" marker-end="url(#my-svg_flowchart-v2-pointEnd)"/></g><g class="edgeLabels"><g class="edgeLabel"><g class="label" data-id="L_alice_demo_shell_0_0" transform="translate(0, 0)"><foreignObject width="0" height="0"><div xmlns="http://www.w3.org/1999/xhtml" class="labelBkg" style="display: table-cell; white-space: nowrap; line-height: 1.5; max-width: 200px; text-align: center;"><span class="edgeLabel "></span></div></foreignObject></g></g><g class="edgeLabel"><g class="label" data-id="L_alice_dev_tools_0_0" transform="translate(0, 0)"><foreignObject width="0" height="0"><div xmlns="http://www.w3.org/1999/xhtml" class="labelBkg" style="display: table-cell; white-space: nowrap; line-height: 1.5; max-width: 200px; text-align: center;"><span class="edgeLabel "></span></div></foreignObject></g></g><g class="edgeLabel"><g class="label" data-id="L_alice_hyprland_0_0" transform="translate(0, 0)"><foreignObject width="0" height="0"><div xmlns="http://www.w3.org/1999/xhtml" class="labelBkg" style="display: table-cell; white-space: nowrap; line-height: 1.5; max-width: 200px; text-align: center;"><span class="edgeLabel "></span></div></foreignObject></g></g><g class="edgeLabel"><g class="label" data-id="L_den__provides__mutual_provider_alice__to_hosts_0_0" transform="translate(0, 0)"><foreignObject width="0" height="0"><div xmlns="http://www.w3.org/1999/xhtml" class="labelBkg" style="display: table-cell; white-space: nowrap; line-height: 1.5; max-width: 200px; text-align: center;"><span class="edgeLabel "></span></div></foreignObject></g></g><g class="edgeLabel" transform="translate(430.72996520996094, 326)"><g class="label" data-id="L_alice__to_hosts_alice_0_0" transform="translate(-55, -12)"><foreignObject width="110" height="24"><div xmlns="http://www.w3.org/1999/xhtml" class="labelBkg" style="display: table-cell; white-space: nowrap; line-height: 1.5; max-width: 200px; text-align: center;"><span class="edgeLabel "><p>provided-by</p></span></div></foreignObject></g></g><g class="edgeLabel"><g class="label" data-id="L_ctx_user_ctx_default_0_0" transform="translate(0, 0)"><foreignObject width="0" height="0"><div xmlns="http://www.w3.org/1999/xhtml" class="labelBkg" style="display: table-cell; white-space: nowrap; line-height: 1.5; max-width: 200px; text-align: center;"><span class="edgeLabel "></span></div></foreignObject></g></g></g></svg>