<?xml version="1.0" encoding="UTF-8" standalone="no"?>
<!DOCTYPE svg PUBLIC "-//W3C//DTD SVG 1.1//EN"
 "http://www.w3.org/Graphics/SVG/1.1/DTD/svg11.dtd">
<!-- Generated by graphviz version 12.2.1 (0)
 -->
<!-- Pages: 1 -->
<svg width="2599pt" height="1150pt"
 viewBox="0.00 0.00 2599.14 1150.00" xmlns="http://www.w3.org/2000/svg" xmlns:xlink="http://www.w3.org/1999/xlink">
<g id="graph0" class="graph" transform="scale(1 1) rotate(0) translate(4 1146)">
<polygon fill="#1e1e2e" stroke="none" points="-4,4 -4,-1146 2595.14,-1146 2595.14,4 -4,4"/>
<g id="clust1" class="cluster">
<title>cluster_ctx_host</title>
<polygon fill="#313244" stroke="#6c7086" stroke-dasharray="5,2" points="513.17,-849 513.17,-1134 2283.16,-1134 2283.16,-849 513.17,-849"/>
<text text-anchor="middle" x="1398.16" y="-1116.7" font-family="Times,serif" font-size="14.00" fill="#cdd6f4">host { host }</text>
</g>
<g id="clust2" class="cluster">
<title>cluster_ctx_default</title>
<polygon fill="#313244" stroke="#6c7086" stroke-dasharray="5,2" points="83,-568 83,-841 1920.99,-841 1920.99,-568 83,-568"/>
<text text-anchor="middle" x="1001.99" y="-823.7" font-family="Times,serif" font-size="14.00" fill="#cdd6f4">default { host }</text>
</g>
<g id="clust3" class="cluster">
<title>cluster_ctx_hm_host</title>
<polygon fill="#313244" stroke="#6c7086" stroke-dasharray="5,2" points="83,-235 83,-454 733.8,-454 733.8,-235 83,-235"/>
<text text-anchor="middle" x="408.4" y="-436.7" font-family="Times,serif" font-size="14.00" fill="#cdd6f4">hm&#45;host { host }</text>
</g>
<g id="clust4" class="cluster">
<title>cluster_ctx_hm_user</title>
<polygon fill="#313244" stroke="#6c7086" stroke-dasharray="5,2" points="83,-8 83,-227 734.55,-227 734.55,-8 83,-8"/>
<text text-anchor="middle" x="408.77" y="-209.7" font-family="Times,serif" font-size="14.00" fill="#cdd6f4">hm&#45;user { host, user }</text>
</g>
<g id="clust5" class="cluster">
<title>cluster_ctx_user</title>
<polygon fill="#313244" stroke="#6c7086" stroke-dasharray="5,2" points="1663.3,-193 1663.3,-560 2583.14,-560 2583.14,-193 1663.3,-193"/>
<text text-anchor="middle" x="2123.22" y="-542.7" font-family="Times,serif" font-size="14.00" fill="#cdd6f4">user { host, user }</text>
</g>
<!-- desktop_gdm -->
<g id="node1" class="node">
<title>desktop_gdm</title>
<path fill="#89b4fa" stroke="#89b4fa" d="M285.81,-1031C285.81,-1031 201.56,-1031 201.56,-1031 195.56,-1031 189.56,-1025 189.56,-1019 189.56,-1019 189.56,-1007 189.56,-1007 189.56,-1001 195.56,-995 201.56,-995 201.56,-995 285.81,-995 285.81,-995 291.81,-995 297.81,-1001 297.81,-1007 297.81,-1007 297.81,-1019 297.81,-1019 297.81,-1025 291.81,-1031 285.81,-1031"/>
<text text-anchor="middle" x="243.68" y="-1008.33" font-family="Times,serif" font-size="14.00" fill="#1e1e2e">desktop&#45;gdm</text>
</g>
<!-- host__self_provide_host_ -->
<g id="node6" class="node">
<title>host__self_provide_host_</title>
<polygon fill="#f2cdcd" stroke="#f2cdcd" points="2275.16,-1061 2099.41,-1061 2099.41,-1025 2275.16,-1025 2275.16,-1061"/>
<text text-anchor="middle" x="2187.28" y="-1038.33" font-family="Times,serif" font-size="14.00" fill="#1e1e2e">host/self&#45;provide(host)</text>
</g>
<!-- desktop_gdm&#45;&gt;host__self_provide_host_ -->
<g id="edge23" class="edge">
<title>desktop_gdm&#45;&gt;host__self_provide_host_</title>
<path fill="none" stroke="#a6adc8" d="M280.09,-1031.38C346.5,-1064.09 495.06,-1129 628.3,-1129 628.3,-1129 628.3,-1129 1824.99,-1129 1935.07,-1129 2059.02,-1090.75 2129.38,-1065.27"/>
<polygon fill="#a6adc8" stroke="#a6adc8" points="2130.18,-1068.7 2138.36,-1061.97 2127.76,-1062.13 2130.18,-1068.7"/>
</g>
<!-- workstation -->
<g id="node12" class="node">
<title>workstation</title>
<polygon fill="#f2cdcd" stroke="#f2cdcd" points="679.67,-1031 578.92,-1031 578.92,-995 679.67,-995 679.67,-1031"/>
<text text-anchor="middle" x="629.3" y="-1008.33" font-family="Times,serif" font-size="14.00" fill="#1e1e2e">workstation</text>
</g>
<!-- desktop_gdm&#45;&gt;workstation -->
<g id="edge24" class="edge">
<title>desktop_gdm&#45;&gt;workstation</title>
<path fill="none" stroke="#a6adc8" d="M298.02,-1013C368.57,-1013 492.63,-1013 566.97,-1013"/>
<polygon fill="#a6adc8" stroke="#a6adc8" points="566.94,-1016.5 576.94,-1013 566.94,-1009.5 566.94,-1016.5"/>
</g>
<!-- desktop -->
<g id="node2" class="node">
<title>desktop</title>
<polygon fill="#f2cdcd" stroke="#f2cdcd" points="1236.39,-938 1164.14,-938 1164.14,-902 1236.39,-902 1236.39,-938"/>
<text text-anchor="middle" x="1200.26" y="-915.33" font-family="Times,serif" font-size="14.00" fill="#1e1e2e">desktop</text>
</g>
<!-- gdm -->
<g id="node3" class="node">
<title>gdm</title>
<polygon fill="#f2cdcd" stroke="#f2cdcd" points="1850.99,-967 1796.99,-967 1796.99,-931 1850.99,-931 1850.99,-967"/>
<text text-anchor="middle" x="1823.99" y="-944.33" font-family="Times,serif" font-size="14.00" fill="#1e1e2e">gdm</text>
</g>
<!-- desktop&#45;&gt;gdm -->
<g id="edge20" class="edge">
<title>desktop&#45;&gt;gdm</title>
<path fill="none" stroke="#a6adc8" d="M1236.47,-921.64C1345.03,-926.71 1673.96,-942.05 1785.52,-947.25"/>
<polygon fill="#a6adc8" stroke="#a6adc8" points="1785.16,-950.74 1795.31,-947.71 1785.49,-943.75 1785.16,-950.74"/>
</g>
<!-- desktop&#45;&gt;host__self_provide_host_ -->
<g id="edge21" class="edge">
<title>desktop&#45;&gt;host__self_provide_host_</title>
<path fill="none" stroke="#a6adc8" d="M1236.47,-913.9C1369.06,-891.5 1837.78,-817.64 1976.67,-868 2058.5,-897.67 2130.78,-974.8 2165.11,-1016.05"/>
<polygon fill="#a6adc8" stroke="#a6adc8" points="2162.23,-1018.07 2171.28,-1023.59 2167.65,-1013.63 2162.23,-1018.07"/>
</g>
<!-- regreet -->
<g id="node9" class="node">
<title>regreet</title>
<polygon fill="#89b4fa" stroke="#fab387" stroke-dasharray="5,2" points="1858.61,-913 1789.36,-913 1789.36,-877 1858.61,-877 1858.61,-913"/>
<text text-anchor="middle" x="1823.99" y="-890.33" font-family="Times,serif" font-size="14.00" fill="#1e1e2e">regreet</text>
</g>
<!-- desktop&#45;&gt;regreet -->
<g id="edge22" class="edge">
<title>desktop&#45;&gt;regreet</title>
<path fill="none" stroke="#fab387" stroke-dasharray="5,2" d="M1236.47,-918.58C1342.52,-914.32 1658.86,-901.6 1777.43,-896.83"/>
<polygon fill="#fab387" stroke="#fab387" points="1777.57,-900.33 1787.42,-896.43 1777.28,-893.34 1777.57,-900.33"/>
<text text-anchor="middle" x="1604.8" y="-909.21" font-family="Times,serif" font-size="14.00" fill="#cdd6f4">replaced</text>
</g>
<!-- host__aspect_host_ -->
<g id="node4" class="node">
<title>host__aspect_host_</title>
<polygon fill="#89b4fa" stroke="#89b4fa" points="698.8,-947 559.8,-947 559.8,-911 698.8,-911 698.8,-947"/>
<text text-anchor="middle" x="629.3" y="-924.33" font-family="Times,serif" font-size="14.00" fill="#1e1e2e">host/aspect(host)</text>
</g>
<!-- host__cross_provide__anon__ -->
<g id="node5" class="node">
<title>host__cross_provide__anon__</title>
<polygon fill="#cba6f7" stroke="#cba6f7" points="737.42,-893 521.17,-893 521.17,-857 737.42,-857 737.42,-893"/>
<text text-anchor="middle" x="629.3" y="-870.33" font-family="Times,serif" font-size="14.00" fill="#1e1e2e">host/cross&#45;provide(&lt;anon&gt;)</text>
</g>
<!-- networking -->
<g id="node7" class="node">
<title>networking</title>
<polygon fill="#89b4fa" stroke="#89b4fa" points="1653.3,-1024 1556.3,-1024 1556.3,-988 1653.3,-988 1653.3,-1024"/>
<text text-anchor="middle" x="1604.8" y="-1001.33" font-family="Times,serif" font-size="14.00" fill="#1e1e2e">networking</text>
</g>
<!-- networking&#45;&gt;host__self_provide_host_ -->
<g id="edge45" class="edge">
<title>networking&#45;&gt;host__self_provide_host_</title>
<path fill="none" stroke="#a6adc8" d="M1653.6,-1005.75C1724.31,-1005.72 1860.92,-1007.01 1976.67,-1016 2013.06,-1018.83 2052.83,-1023.53 2087.84,-1028.23"/>
<polygon fill="#a6adc8" stroke="#a6adc8" points="2087.15,-1031.67 2097.54,-1029.55 2088.1,-1024.74 2087.15,-1031.67"/>
</g>
<!-- virtualization__podman -->
<g id="node8" class="node">
<title>virtualization__podman</title>
<polygon fill="#cba6f7" stroke="#cba6f7" points="1300.35,-1057 1100.18,-1057 1028.89,-1021 1371.64,-1021 1300.35,-1057"/>
<text text-anchor="middle" x="1200.26" y="-1034.33" font-family="Times,serif" font-size="14.00" fill="#1e1e2e">virtualization/podman</text>
</g>
<!-- virtualization__podman&#45;&gt;host__self_provide_host_ -->
<g id="edge49" class="edge">
<title>virtualization__podman&#45;&gt;host__self_provide_host_</title>
<path fill="none" stroke="#a6adc8" d="M1331.86,-1041.5C1460.27,-1044.38 1639.11,-1049.66 1653.3,-1057 1659.78,-1060.35 1656.76,-1066.78 1663.3,-1070 1725.78,-1100.76 1907.18,-1074.46 1976.67,-1070 2013.1,-1067.66 2052.87,-1063.07 2087.88,-1058.32"/>
<polygon fill="#a6adc8" stroke="#a6adc8" points="2088.15,-1061.81 2097.57,-1056.98 2087.19,-1054.88 2088.15,-1061.81"/>
</g>
<!-- virtualization -->
<g id="node11" class="node">
<title>virtualization</title>
<polygon fill="#89b4fa" stroke="#89b4fa" points="1879.61,-1061 1768.36,-1061 1768.36,-1025 1879.61,-1025 1879.61,-1061"/>
<text text-anchor="middle" x="1823.99" y="-1038.33" font-family="Times,serif" font-size="14.00" fill="#1e1e2e">virtualization</text>
</g>
<!-- virtualization__podman&#45;&gt;virtualization -->
<g id="edge56" class="edge">
<title>virtualization__podman&#45;&gt;virtualization</title>
<path fill="none" stroke="#a6adc8" d="M1335.02,-1039.86C1464.79,-1040.7 1656.34,-1041.93 1756.48,-1042.57"/>
<polygon fill="#a6adc8" stroke="#a6adc8" points="1756.4,-1046.07 1766.42,-1042.64 1756.44,-1039.07 1756.4,-1046.07"/>
</g>
<!-- tailscale -->
<g id="node10" class="node">
<title>tailscale</title>
<polygon fill="#f2cdcd" stroke="#f2cdcd" points="1642.43,-1101 1567.18,-1101 1567.18,-1065 1642.43,-1065 1642.43,-1101"/>
<text text-anchor="middle" x="1604.8" y="-1078.33" font-family="Times,serif" font-size="14.00" fill="#1e1e2e">tailscale</text>
</g>
<!-- tailscale&#45;&gt;host__self_provide_host_ -->
<g id="edge46" class="edge">
<title>tailscale&#45;&gt;host__self_provide_host_</title>
<path fill="none" stroke="#a6adc8" d="M1642.77,-1085.97C1712.18,-1090.93 1866.65,-1099.05 1995.67,-1085 2033.21,-1080.91 2074.19,-1072.43 2108.5,-1064.14"/>
<polygon fill="#a6adc8" stroke="#a6adc8" points="2109.04,-1067.61 2117.92,-1061.83 2107.37,-1060.82 2109.04,-1067.61"/>
</g>
<!-- virtualization&#45;&gt;host__self_provide_host_ -->
<g id="edge48" class="edge">
<title>virtualization&#45;&gt;host__self_provide_host_</title>
<path fill="none" stroke="#a6adc8" d="M1879.86,-1043C1934.91,-1043 2020.89,-1043 2087.78,-1043"/>
<polygon fill="#a6adc8" stroke="#a6adc8" points="2087.68,-1046.5 2097.68,-1043 2087.68,-1039.5 2087.68,-1046.5"/>
</g>
<!-- workstation&#45;&gt;desktop -->
<g id="edge50" class="edge">
<title>workstation&#45;&gt;desktop</title>
<path fill="none" stroke="#a6adc8" d="M679.76,-1004.51C722.9,-997.14 787.18,-986.22 843.23,-977 954.17,-958.74 1084.69,-938.05 1152.71,-927.32"/>
<polygon fill="#a6adc8" stroke="#a6adc8" points="1153.05,-930.81 1162.38,-925.8 1151.96,-923.9 1153.05,-930.81"/>
</g>
<!-- workstation&#45;&gt;host__self_provide_host_ -->
<g id="edge51" class="edge">
<title>workstation&#45;&gt;host__self_provide_host_</title>
<path fill="none" stroke="#a6adc8" d="M680.05,-1010.27C727,-1007.78 799.38,-1004.17 862.23,-1002 1213.67,-989.87 1301.74,-978.85 1653.3,-987 1797.14,-990.33 1833.83,-984.81 1976.67,-1002 2015.87,-1006.72 2058.73,-1014.6 2095.42,-1022.21"/>
<polygon fill="#a6adc8" stroke="#a6adc8" points="2094.61,-1025.61 2105.11,-1024.24 2096.04,-1018.76 2094.61,-1025.61"/>
</g>
<!-- workstation&#45;&gt;networking -->
<g id="edge52" class="edge">
<title>workstation&#45;&gt;networking</title>
<path fill="none" stroke="#a6adc8" d="M679.91,-1012.64C843.81,-1011.46 1367.5,-1007.7 1544.61,-1006.43"/>
<polygon fill="#a6adc8" stroke="#a6adc8" points="1544.53,-1009.93 1554.5,-1006.35 1544.48,-1002.93 1544.53,-1009.93"/>
</g>
<!-- workstation&#45;&gt;virtualization__podman -->
<g id="edge53" class="edge">
<title>workstation&#45;&gt;virtualization__podman</title>
<path fill="none" stroke="#a6adc8" d="M679.79,-1015.26C758.97,-1018.88 917.53,-1026.13 1038.75,-1031.66"/>
<polygon fill="#a6adc8" stroke="#a6adc8" points="1038.33,-1035.15 1048.48,-1032.11 1038.65,-1028.16 1038.33,-1035.15"/>
</g>
<!-- workstation&#45;&gt;tailscale -->
<g id="edge54" class="edge">
<title>workstation&#45;&gt;tailscale</title>
<path fill="none" stroke="#a6adc8" d="M674.2,-1031.4C716.59,-1048.11 783.04,-1071.54 843.23,-1081 1109.28,-1122.81 1434.17,-1099.27 1555.27,-1087.97"/>
<polygon fill="#a6adc8" stroke="#a6adc8" points="1555.55,-1091.46 1565.18,-1087.03 1554.89,-1084.49 1555.55,-1091.46"/>
</g>
<!-- workstation&#45;&gt;virtualization -->
<g id="edge55" class="edge">
<title>workstation&#45;&gt;virtualization</title>
<path fill="none" stroke="#a6adc8" d="M679.96,-1027.76C726.54,-1040.79 798.4,-1058.8 862.23,-1066 1011.52,-1082.84 1388.29,-1074.31 1538.3,-1066 1546.34,-1065.55 1548.29,-1064.76 1556.3,-1064 1624.47,-1057.53 1702.57,-1051.55 1756.56,-1047.64"/>
<polygon fill="#a6adc8" stroke="#a6adc8" points="1756.81,-1051.13 1766.53,-1046.92 1756.3,-1044.15 1756.81,-1051.13"/>
</g>
<!-- n_default -->
<g id="node13" class="node">
<title>n_default</title>
<polygon fill="#fab387" stroke="#fab387" points="396.37,-773 320.03,-807.7 167.34,-807.7 91,-773 167.34,-738.3 320.03,-738.3 396.37,-773"/>
<text text-anchor="middle" x="243.68" y="-776.95" font-family="Times,serif" font-size="14.00" fill="#1e1e2e">default</text>
<text text-anchor="middle" x="243.68" y="-759.7" font-family="Times,serif" font-size="14.00" fill="#1e1e2e">({ aspect&#45;chain, class })</text>
</g>
<!-- default__aspect_default_ -->
<g id="node14" class="node">
<title>default__aspect_default_</title>
<polygon fill="#a6e3a1" stroke="#a6e3a1" points="1912.99,-768 1734.99,-768 1734.99,-732 1912.99,-732 1912.99,-768"/>
<text text-anchor="middle" x="1823.99" y="-745.33" font-family="Times,serif" font-size="14.00" fill="#1e1e2e">default/aspect(default)</text>
</g>
<!-- n_default&#45;&gt;default__aspect_default_ -->
<g id="edge8" class="edge">
<title>n_default&#45;&gt;default__aspect_default_</title>
<path fill="none" stroke="#a6adc8" d="M359.96,-790.01C384.16,-792.92 409.56,-795.49 433.37,-797 923.65,-828.06 1047.59,-790.12 1538.3,-767 1589.43,-764.59 1602.21,-763.99 1653.3,-761 1675.87,-759.68 1700.11,-758.17 1723.02,-756.69"/>
<polygon fill="#a6adc8" stroke="#a6adc8" points="1723.23,-760.18 1732.98,-756.05 1722.78,-753.2 1723.23,-760.18"/>
</g>
<!-- den__provides__define_user -->
<g id="node19" class="node">
<title>den__provides__define_user</title>
<polygon fill="#a6e3a1" stroke="#a6e3a1" points="722.87,-788 535.73,-788 469.08,-752 789.51,-752 722.87,-788"/>
<text text-anchor="middle" x="629.3" y="-765.33" font-family="Times,serif" font-size="14.00" fill="#1e1e2e">provides/define&#45;user</text>
</g>
<!-- n_default&#45;&gt;den__provides__define_user -->
<g id="edge9" class="edge">
<title>n_default&#45;&gt;den__provides__define_user</title>
<path fill="none" stroke="#a6adc8" d="M394.92,-771.83C426.91,-771.57 460.51,-771.31 491.95,-771.07"/>
<polygon fill="#a6adc8" stroke="#a6adc8" points="491.94,-774.57 501.91,-770.99 491.88,-767.57 491.94,-774.57"/>
</g>
<!-- den__provides__hostname -->
<g id="node20" class="node">
<title>den__provides__hostname</title>
<polygon fill="#fab387" stroke="#fab387" points="717.22,-734 541.38,-734 478.76,-698 779.84,-698 717.22,-734"/>
<text text-anchor="middle" x="629.3" y="-711.33" font-family="Times,serif" font-size="14.00" fill="#1e1e2e">provides/hostname</text>
</g>
<!-- n_default&#45;&gt;den__provides__hostname -->
<g id="edge10" class="edge">
<title>n_default&#45;&gt;den__provides__hostname</title>
<path fill="none" stroke="#a6adc8" d="M356.87,-754.78C382.03,-750.8 408.6,-746.68 433.37,-743 461.71,-738.78 492.4,-734.43 520.87,-730.49"/>
<polygon fill="#a6adc8" stroke="#a6adc8" points="521.14,-733.98 530.57,-729.15 520.19,-727.05 521.14,-733.98"/>
</g>
<!-- den__provides__mutual_provider -->
<g id="node21" class="node">
<title>den__provides__mutual_provider</title>
<polygon fill="#f9e2af" stroke="#f9e2af" points="743.72,-680 514.87,-680 433.37,-644 825.23,-644 743.72,-680"/>
<text text-anchor="middle" x="629.3" y="-657.33" font-family="Times,serif" font-size="14.00" fill="#1e1e2e">provides/mutual&#45;provider</text>
</g>
<!-- n_default&#45;&gt;den__provides__mutual_provider -->
<g id="edge11" class="edge">
<title>n_default&#45;&gt;den__provides__mutual_provider</title>
<path fill="none" stroke="#a6adc8" d="M348.67,-751.02C365.29,-745.24 381.79,-738.01 396.37,-729 416.97,-716.27 411.9,-700.2 433.37,-689 447.4,-681.68 462.73,-676.12 478.43,-671.93"/>
<polygon fill="#a6adc8" stroke="#a6adc8" points="479.01,-675.4 487.88,-669.61 477.34,-668.6 479.01,-675.4"/>
</g>
<!-- den__provides__default__aspect_default__den__provides -->
<g id="node15" class="node">
<title>den__provides__default__aspect_default__den__provides</title>
<polygon fill="#a6e3a1" stroke="#a6e3a1" points="1397.69,-731 1002.84,-731 862.23,-695 1538.3,-695 1397.69,-731"/>
<text text-anchor="middle" x="1200.26" y="-708.33" font-family="Times,serif" font-size="14.00" fill="#1e1e2e">provides/default/aspect(default):den/provides</text>
</g>
<!-- default__cross_provide_host_ -->
<g id="node16" class="node">
<title>default__cross_provide_host_</title>
<polygon fill="#f9e2af" stroke="#f9e2af" points="347.68,-720 139.68,-720 139.68,-684 347.68,-684 347.68,-720"/>
<text text-anchor="middle" x="243.68" y="-697.33" font-family="Times,serif" font-size="14.00" fill="#1e1e2e">default/cross&#45;provide(host)</text>
</g>
<!-- default__cross_provide_user_ -->
<g id="node17" class="node">
<title>default__cross_provide_user_</title>
<polygon fill="#f9e2af" stroke="#f9e2af" points="348.06,-666 139.31,-666 139.31,-630 348.06,-630 348.06,-666"/>
<text text-anchor="middle" x="243.68" y="-643.33" font-family="Times,serif" font-size="14.00" fill="#1e1e2e">default/cross&#45;provide(user)</text>
</g>
<!-- default__self_provide_default_ -->
<g id="node18" class="node">
<title>default__self_provide_default_</title>
<polygon fill="#fab387" stroke="#fab387" points="351.06,-612 136.31,-612 136.31,-576 351.06,-576 351.06,-612"/>
<text text-anchor="middle" x="243.68" y="-589.33" font-family="Times,serif" font-size="14.00" fill="#1e1e2e">default/self&#45;provide(default)</text>
</g>
<!-- den__provides__define_user&#45;&gt;default__aspect_default_ -->
<g id="edge13" class="edge">
<title>den__provides__define_user&#45;&gt;default__aspect_default_</title>
<path fill="none" stroke="#a6adc8" d="M759.5,-768.72C953.58,-766.65 1331.88,-762.09 1653.3,-755 1676.09,-754.5 1700.6,-753.84 1723.71,-753.17"/>
<polygon fill="#a6adc8" stroke="#a6adc8" points="1723.52,-756.68 1733.41,-752.89 1723.31,-749.68 1723.52,-756.68"/>
</g>
<!-- den__provides__define_user&#45;&gt;den__provides__default__aspect_default__den__provides -->
<g id="edge14" class="edge">
<title>den__provides__define_user&#45;&gt;den__provides__default__aspect_default__den__provides</title>
<path fill="none" stroke="#a6adc8" d="M785.77,-754.42C852.92,-747.7 932.23,-739.75 1003.35,-732.63"/>
<polygon fill="#a6adc8" stroke="#a6adc8" points="1003.58,-736.12 1013.18,-731.64 1002.88,-729.16 1003.58,-736.12"/>
</g>
<!-- den__provides__hostname&#45;&gt;default__aspect_default_ -->
<g id="edge15" class="edge">
<title>den__provides__hostname&#45;&gt;default__aspect_default_</title>
<path fill="none" stroke="#a6adc8" d="M728.32,-728.18C769.59,-732.77 818.17,-737.5 862.23,-740 1176.18,-757.84 1548.74,-754.83 1723.34,-752"/>
<polygon fill="#a6adc8" stroke="#a6adc8" points="1723.36,-755.5 1733.3,-751.84 1723.24,-748.5 1723.36,-755.5"/>
</g>
<!-- den__provides__hostname&#45;&gt;den__provides__default__aspect_default__den__provides -->
<g id="edge16" class="edge">
<title>den__provides__hostname&#45;&gt;den__provides__default__aspect_default__den__provides</title>
<path fill="none" stroke="#a6adc8" d="M750.61,-715.37C801.65,-715.1 863.41,-714.77 924.57,-714.45"/>
<polygon fill="#a6adc8" stroke="#a6adc8" points="924.48,-717.95 934.46,-714.4 924.44,-710.95 924.48,-717.95"/>
</g>
<!-- den__provides__mutual_provider&#45;&gt;default__aspect_default_ -->
<g id="edge17" class="edge">
<title>den__provides__mutual_provider&#45;&gt;default__aspect_default_</title>
<path fill="none" stroke="#a6adc8" d="M778.21,-665.16C1025.93,-670.55 1501.41,-681.41 1538.3,-686 1609.82,-694.9 1689.77,-713.67 1746.69,-728.6"/>
<polygon fill="#a6adc8" stroke="#a6adc8" points="1745.73,-731.96 1756.3,-731.14 1747.53,-725.2 1745.73,-731.96"/>
</g>
<!-- den__provides__mutual_provider&#45;&gt;den__provides__default__aspect_default__den__provides -->
<g id="edge18" class="edge">
<title>den__provides__mutual_provider&#45;&gt;den__provides__default__aspect_default__den__provides</title>
<path fill="none" stroke="#a6adc8" d="M759.41,-673.57C825.19,-679.47 906.96,-686.8 982.08,-693.53"/>
<polygon fill="#a6adc8" stroke="#a6adc8" points="981.34,-696.98 991.61,-694.39 981.96,-690.01 981.34,-696.98"/>
</g>
<!-- alice__to_hosts -->
<g id="node22" class="node">
<title>alice__to_hosts</title>
<polygon fill="#a6e3a1" stroke="#a6e3a1" points="1264.29,-657 1136.24,-657 1090.64,-621 1309.89,-621 1264.29,-657"/>
<text text-anchor="middle" x="1200.26" y="-634.33" font-family="Times,serif" font-size="14.00" fill="#1e1e2e">alice/to&#45;hosts</text>
</g>
<!-- den__provides__mutual_provider&#45;&gt;alice__to_hosts -->
<g id="edge19" class="edge">
<title>den__provides__mutual_provider&#45;&gt;alice__to_hosts</title>
<path fill="none" stroke="#a6adc8" d="M801.01,-655.1C900.89,-651.06 1023.18,-646.12 1105.69,-642.78"/>
<polygon fill="#a6adc8" stroke="#a6adc8" points="1105.69,-646.29 1115.54,-642.38 1105.41,-639.29 1105.69,-646.29"/>
</g>
<!-- alice__to_hosts&#45;&gt;default__aspect_default_ -->
<g id="edge7" class="edge">
<title>alice__to_hosts&#45;&gt;default__aspect_default_</title>
<path fill="none" stroke="#a6adc8" d="M1291.58,-635.84C1383.96,-634.81 1530.87,-639.32 1653.3,-671 1699.77,-683.02 1749.11,-707.48 1782.54,-726.01"/>
<polygon fill="#a6adc8" stroke="#a6adc8" points="1780.63,-728.95 1791.06,-730.81 1784.06,-722.85 1780.63,-728.95"/>
</g>
<!-- alice -->
<g id="node31" class="node">
<title>alice</title>
<polygon fill="#f2cdcd" stroke="#f2cdcd" points="1976.67,-455 1900.33,-489.7 1747.65,-489.7 1671.3,-455 1747.65,-420.3 1900.33,-420.3 1976.67,-455"/>
<text text-anchor="middle" x="1823.99" y="-458.95" font-family="Times,serif" font-size="14.00" fill="#1e1e2e">alice</text>
<text text-anchor="middle" x="1823.99" y="-441.7" font-family="Times,serif" font-size="14.00" fill="#1e1e2e">({ aspect&#45;chain, class })</text>
</g>
<!-- alice__to_hosts&#45;&gt;alice -->
<g id="edge57" class="edge">
<title>alice__to_hosts&#45;&gt;alice</title>
<path fill="none" stroke="#a6adc8" d="M1294.11,-633.85C1387.51,-626.24 1534.35,-607.55 1653.3,-562 1694.89,-546.08 1737.27,-519.36 1769.28,-496.61"/>
<polygon fill="#a6adc8" stroke="#a6adc8" points="1771.15,-499.58 1777.21,-490.89 1767.05,-493.9 1771.15,-499.58"/>
</g>
<!-- hm_host -->
<g id="node23" class="node">
<title>hm_host</title>
<polygon fill="#cba6f7" stroke="#cba6f7" points="396.37,-386 320.03,-420.7 167.34,-420.7 91,-386 167.34,-351.3 320.03,-351.3 396.37,-386"/>
<text text-anchor="middle" x="243.68" y="-389.95" font-family="Times,serif" font-size="14.00" fill="#1e1e2e">hm&#45;host</text>
<text text-anchor="middle" x="243.68" y="-372.7" font-family="Times,serif" font-size="14.00" fill="#1e1e2e">({ aspect&#45;chain, class })</text>
</g>
<!-- hm_host__aspect_hm_host_ -->
<g id="node24" class="node">
<title>hm_host__aspect_hm_host_</title>
<polygon fill="#89b4fa" stroke="#89b4fa" points="725.8,-404 532.8,-404 532.8,-368 725.8,-368 725.8,-404"/>
<text text-anchor="middle" x="629.3" y="-381.32" font-family="Times,serif" font-size="14.00" fill="#1e1e2e">hm&#45;host/aspect(hm&#45;host)</text>
</g>
<!-- hm_host&#45;&gt;hm_host__aspect_hm_host_ -->
<g id="edge26" class="edge">
<title>hm_host&#45;&gt;hm_host__aspect_hm_host_</title>
<path fill="none" stroke="#a6adc8" d="M397.4,-386C438.86,-386 482.86,-386 521.21,-386"/>
<polygon fill="#a6adc8" stroke="#a6adc8" points="520.88,-389.5 530.88,-386 520.88,-382.5 520.88,-389.5"/>
</g>
<!-- hm_host__cross_provide_host_ -->
<g id="node25" class="node">
<title>hm_host__cross_provide_host_</title>
<polygon fill="#f2cdcd" stroke="#f2cdcd" points="351.43,-333 135.93,-333 135.93,-297 351.43,-297 351.43,-333"/>
<text text-anchor="middle" x="243.68" y="-310.32" font-family="Times,serif" font-size="14.00" fill="#1e1e2e">hm&#45;host/cross&#45;provide(host)</text>
</g>
<!-- hm_host__self_provide_hm_host_ -->
<g id="node26" class="node">
<title>hm_host__self_provide_hm_host_</title>
<polygon fill="#cba6f7" stroke="#cba6f7" points="358.56,-279 128.81,-279 128.81,-243 358.56,-243 358.56,-279"/>
<text text-anchor="middle" x="243.68" y="-256.32" font-family="Times,serif" font-size="14.00" fill="#1e1e2e">hm&#45;host/self&#45;provide(hm&#45;host)</text>
</g>
<!-- hm_user -->
<g id="node27" class="node">
<title>hm_user</title>
<polygon fill="#fab387" stroke="#fab387" points="396.37,-159 320.03,-193.7 167.34,-193.7 91,-159 167.34,-124.3 320.03,-124.3 396.37,-159"/>
<text text-anchor="middle" x="243.68" y="-162.95" font-family="Times,serif" font-size="14.00" fill="#1e1e2e">hm&#45;user</text>
<text text-anchor="middle" x="243.68" y="-145.7" font-family="Times,serif" font-size="14.00" fill="#1e1e2e">({ aspect&#45;chain, class })</text>
</g>
<!-- hm_user__aspect_hm_user_ -->
<g id="node28" class="node">
<title>hm_user__aspect_hm_user_</title>
<polygon fill="#a6e3a1" stroke="#a6e3a1" points="726.55,-177 532.05,-177 532.05,-141 726.55,-141 726.55,-177"/>
<text text-anchor="middle" x="629.3" y="-154.32" font-family="Times,serif" font-size="14.00" fill="#1e1e2e">hm&#45;user/aspect(hm&#45;user)</text>
</g>
<!-- hm_user&#45;&gt;hm_user__aspect_hm_user_ -->
<g id="edge27" class="edge">
<title>hm_user&#45;&gt;hm_user__aspect_hm_user_</title>
<path fill="none" stroke="#a6adc8" d="M397.4,-159C438.67,-159 482.46,-159 520.68,-159"/>
<polygon fill="#a6adc8" stroke="#a6adc8" points="520.31,-162.5 530.31,-159 520.31,-155.5 520.31,-162.5"/>
</g>
<!-- hm_user__cross_provide_hm_host_ -->
<g id="node29" class="node">
<title>hm_user__cross_provide_hm_host_</title>
<polygon fill="#a6e3a1" stroke="#a6e3a1" points="365.31,-106 122.06,-106 122.06,-70 365.31,-70 365.31,-106"/>
<text text-anchor="middle" x="243.68" y="-83.33" font-family="Times,serif" font-size="14.00" fill="#1e1e2e">hm&#45;user/cross&#45;provide(hm&#45;host)</text>
</g>
<!-- hm_user__self_provide_hm_user_ -->
<g id="node30" class="node">
<title>hm_user__self_provide_hm_user_</title>
<polygon fill="#fab387" stroke="#fab387" points="359.31,-52 128.06,-52 128.06,-16 359.31,-16 359.31,-52"/>
<text text-anchor="middle" x="243.68" y="-29.32" font-family="Times,serif" font-size="14.00" fill="#1e1e2e">hm&#45;user/self&#45;provide(hm&#45;user)</text>
</g>
<!-- demo_shell -->
<g id="node32" class="node">
<title>demo_shell</title>
<polygon fill="#f2cdcd" stroke="#f2cdcd" points="2233.91,-311 2140.66,-311 2140.66,-275 2233.91,-275 2233.91,-311"/>
<text text-anchor="middle" x="2187.28" y="-288.32" font-family="Times,serif" font-size="14.00" fill="#1e1e2e">demo&#45;shell</text>
</g>
<!-- alice&#45;&gt;demo_shell -->
<g id="edge1" class="edge">
<title>alice&#45;&gt;demo_shell</title>
<path fill="none" stroke="#a6adc8" d="M1936.43,-436.36C1951.12,-430.35 1965.07,-422.43 1976.67,-412 2009.45,-382.53 1979.18,-347.43 2013.67,-320 2045.81,-294.45 2092.21,-288.37 2128.81,-288.31"/>
<polygon fill="#a6adc8" stroke="#a6adc8" points="2128.76,-291.81 2138.81,-288.47 2128.87,-284.81 2128.76,-291.81"/>
</g>
<!-- dev_tools -->
<g id="node33" class="node">
<title>dev_tools</title>
<polygon fill="#fab387" stroke="#fab387" points="2227.53,-365 2147.03,-365 2147.03,-329 2227.53,-329 2227.53,-365"/>
<text text-anchor="middle" x="2187.28" y="-342.32" font-family="Times,serif" font-size="14.00" fill="#1e1e2e">dev&#45;tools</text>
</g>
<!-- alice&#45;&gt;dev_tools -->
<g id="edge2" class="edge">
<title>alice&#45;&gt;dev_tools</title>
<path fill="none" stroke="#a6adc8" d="M1929.58,-433.18C1945.95,-427.58 1962.21,-420.62 1976.67,-412 1996.92,-399.93 1992.73,-384.82 2013.67,-374 2051.48,-354.46 2099.7,-348.23 2135.56,-346.59"/>
<polygon fill="#a6adc8" stroke="#a6adc8" points="2135.35,-350.1 2145.22,-346.26 2135.11,-343.1 2135.35,-350.1"/>
</g>
<!-- hyprland -->
<g id="node34" class="node">
<title>hyprland</title>
<polygon fill="#f2cdcd" stroke="#f2cdcd" points="2227.16,-419 2147.41,-419 2147.41,-383 2227.16,-383 2227.16,-419"/>
<text text-anchor="middle" x="2187.28" y="-396.32" font-family="Times,serif" font-size="14.00" fill="#1e1e2e">hyprland</text>
</g>
<!-- alice&#45;&gt;hyprland -->
<g id="edge3" class="edge">
<title>alice&#45;&gt;hyprland</title>
<path fill="none" stroke="#a6adc8" d="M1939.8,-437.84C2005.74,-427.98 2085.24,-416.1 2135.78,-408.55"/>
<polygon fill="#a6adc8" stroke="#a6adc8" points="2136.17,-412.03 2145.54,-407.09 2135.14,-405.11 2136.17,-412.03"/>
</g>
<!-- primary_user -->
<g id="node35" class="node">
<title>primary_user</title>
<polygon fill="#f2cdcd" stroke="#f2cdcd" points="2241.78,-473 2132.78,-473 2132.78,-437 2241.78,-437 2241.78,-473"/>
<text text-anchor="middle" x="2187.28" y="-450.32" font-family="Times,serif" font-size="14.00" fill="#1e1e2e">primary&#45;user</text>
</g>
<!-- alice&#45;&gt;primary_user -->
<g id="edge4" class="edge">
<title>alice&#45;&gt;primary_user</title>
<path fill="none" stroke="#a6adc8" d="M1977.68,-455C2027.82,-455 2080.89,-455 2120.96,-455"/>
<polygon fill="#a6adc8" stroke="#a6adc8" points="2120.91,-458.5 2130.91,-455 2120.91,-451.5 2120.91,-458.5"/>
</g>
<!-- den__provides__primary_user -->
<g id="node36" class="node">
<title>den__provides__primary_user</title>
<polygon fill="#f2cdcd" stroke="#f2cdcd" points="2288.67,-527 2085.89,-527 2013.67,-491 2360.89,-491 2288.67,-527"/>
<text text-anchor="middle" x="2187.28" y="-504.32" font-family="Times,serif" font-size="14.00" fill="#1e1e2e">provides/primary&#45;user</text>
</g>
<!-- alice&#45;&gt;den__provides__primary_user -->
<g id="edge5" class="edge">
<title>alice&#45;&gt;den__provides__primary_user</title>
<path fill="none" stroke="#a6adc8" d="M1939.8,-472.16C1975.28,-477.46 2014.69,-483.35 2051.41,-488.84"/>
<polygon fill="#a6adc8" stroke="#a6adc8" points="2050.8,-492.29 2061.21,-490.31 2051.84,-485.37 2050.8,-492.29"/>
</g>
<!-- user__self_provide_user_ -->
<g id="node40" class="node">
<title>user__self_provide_user_</title>
<polygon fill="#f2cdcd" stroke="#f2cdcd" points="2575.14,-338 2397.89,-338 2397.89,-302 2575.14,-302 2575.14,-338"/>
<text text-anchor="middle" x="2486.51" y="-315.32" font-family="Times,serif" font-size="14.00" fill="#1e1e2e">user/self&#45;provide(user)</text>
</g>
<!-- alice&#45;&gt;user__self_provide_user_ -->
<g id="edge6" class="edge">
<title>alice&#45;&gt;user__self_provide_user_</title>
<path fill="none" stroke="#a6adc8" d="M1938.51,-437.4C1952.72,-431.23 1965.99,-422.99 1976.67,-412 2000.01,-388 1987.26,-286.56 2013.67,-266 2044.12,-242.31 2323.11,-258.17 2360.89,-266 2389.55,-271.94 2419.72,-284.82 2443.19,-296.51"/>
<polygon fill="#a6adc8" stroke="#a6adc8" points="2441.3,-299.47 2451.8,-300.9 2444.48,-293.24 2441.3,-299.47"/>
</g>
<!-- demo_shell&#45;&gt;user__self_provide_user_ -->
<g id="edge12" class="edge">
<title>demo_shell&#45;&gt;user__self_provide_user_</title>
<path fill="none" stroke="#a6adc8" d="M2234.4,-297.19C2274.88,-300.87 2335.15,-306.34 2386.5,-311.01"/>
<polygon fill="#a6adc8" stroke="#a6adc8" points="2385.87,-314.46 2396.14,-311.88 2386.5,-307.49 2385.87,-314.46"/>
</g>
<!-- dev_tools&#45;&gt;user__self_provide_user_ -->
<g id="edge25" class="edge">
<title>dev_tools&#45;&gt;user__self_provide_user_</title>
<path fill="none" stroke="#a6adc8" d="M2227.75,-343.41C2268,-339.76 2332.05,-333.94 2386.23,-329.02"/>
<polygon fill="#a6adc8" stroke="#a6adc8" points="2386.48,-332.51 2396.12,-328.12 2385.85,-325.54 2386.48,-332.51"/>
</g>
<!-- hyprland&#45;&gt;user__self_provide_user_ -->
<g id="edge44" class="edge">
<title>hyprland&#45;&gt;user__self_provide_user_</title>
<path fill="none" stroke="#a6adc8" d="M2227.63,-397.71C2263.02,-394.08 2316.17,-386.96 2360.89,-374 2387.7,-366.23 2416.36,-354.1 2439.43,-343.31"/>
<polygon fill="#a6adc8" stroke="#a6adc8" points="2440.72,-346.57 2448.24,-339.11 2437.71,-340.25 2440.72,-346.57"/>
</g>
<!-- user -->
<g id="node37" class="node">
<title>user</title>
<polygon fill="#f2cdcd" stroke="#f2cdcd" points="1976.67,-368 1900.33,-402.7 1747.65,-402.7 1671.3,-368 1747.65,-333.3 1900.33,-333.3 1976.67,-368"/>
<text text-anchor="middle" x="1823.99" y="-371.95" font-family="Times,serif" font-size="14.00" fill="#1e1e2e">user</text>
<text text-anchor="middle" x="1823.99" y="-354.7" font-family="Times,serif" font-size="14.00" fill="#1e1e2e">({ aspect&#45;chain, class })</text>
</g>
<!-- user__aspect_user_ -->
<g id="node38" class="node">
<title>user__aspect_user_</title>
<polygon fill="#fab387" stroke="#fab387" points="2257.53,-237 2117.03,-237 2117.03,-201 2257.53,-201 2257.53,-237"/>
<text text-anchor="middle" x="2187.28" y="-214.32" font-family="Times,serif" font-size="14.00" fill="#1e1e2e">user/aspect(user)</text>
</g>
<!-- user&#45;&gt;user__aspect_user_ -->
<g id="edge47" class="edge">
<title>user&#45;&gt;user__aspect_user_</title>
<path fill="none" stroke="#a6adc8" d="M1937.84,-350.01C1952.32,-343.71 1965.85,-335.27 1976.67,-324 1999.82,-299.9 1970.16,-273.71 1994.67,-251 2024.06,-223.78 2067.42,-214.92 2105.47,-213.26"/>
<polygon fill="#a6adc8" stroke="#a6adc8" points="2105.14,-216.77 2115.05,-213.01 2104.96,-209.77 2105.14,-216.77"/>
</g>
<!-- user__cross_provide_host_ -->
<g id="node39" class="node">
<title>user__cross_provide_host_</title>
<polygon fill="#f38ba8" stroke="#f38ba8" points="1918.61,-315 1729.36,-315 1729.36,-279 1918.61,-279 1918.61,-315"/>
<text text-anchor="middle" x="1823.99" y="-292.32" font-family="Times,serif" font-size="14.00" fill="#1e1e2e">user/cross&#45;provide(host)</text>
</g>
<!-- host -->
<g id="node41" class="node">
<title>host</title>
<polygon fill="#fab387" stroke="#fab387" points="54,-547 0,-547 0,-511 54,-511 54,-547"/>
<text text-anchor="middle" x="27" y="-524.33" font-family="Times,serif" font-size="14.00" fill="#1e1e2e">host</text>
</g>
<!-- host&#45;&gt;desktop_gdm -->
<g id="edge33" class="edge">
<title>host&#45;&gt;desktop_gdm</title>
<path fill="none" stroke="#a6adc8" d="M27.66,-547.08C26.67,-617.37 26.37,-871.76 72,-935 97.07,-969.75 141.43,-989.38 178.64,-1000.26"/>
<polygon fill="#a6adc8" stroke="#a6adc8" points="177.4,-1003.54 187.97,-1002.82 179.26,-996.79 177.4,-1003.54"/>
</g>
<!-- host&#45;&gt;host__aspect_host_ -->
<g id="edge40" class="edge">
<title>host&#45;&gt;host__aspect_host_</title>
<path fill="none" stroke="#a6adc8" d="M27.81,-547.2C27.56,-613.34 30.6,-839.28 83,-882 215.76,-990.21 431.9,-969.34 548.19,-947.52"/>
<polygon fill="#a6adc8" stroke="#a6adc8" points="548.83,-950.96 557.98,-945.62 547.5,-944.08 548.83,-950.96"/>
</g>
<!-- host&#45;&gt;host__cross_provide__anon__ -->
<g id="edge41" class="edge">
<title>host&#45;&gt;host__cross_provide__anon__</title>
<path fill="none" stroke="#a6adc8" d="M28.33,-547.23C29.84,-608.46 38.16,-805.13 83,-845 143.8,-899.05 368.11,-894.12 509.4,-884.99"/>
<polygon fill="#a6adc8" stroke="#a6adc8" points="509.43,-888.5 519.18,-884.34 508.97,-881.51 509.43,-888.5"/>
</g>
<!-- host&#45;&gt;n_default -->
<g id="edge29" class="edge">
<title>host&#45;&gt;n_default</title>
<path fill="none" stroke="#a6adc8" d="M27.43,-547.38C27.26,-586.51 32.59,-678.57 83,-729 92.53,-738.53 103.92,-746.05 116.18,-751.97"/>
<polygon fill="#a6adc8" stroke="#a6adc8" points="114.7,-755.15 125.27,-755.97 117.52,-748.74 114.7,-755.15"/>
</g>
<!-- host&#45;&gt;default__cross_provide_host_ -->
<g id="edge30" class="edge">
<title>host&#45;&gt;default__cross_provide_host_</title>
<path fill="none" stroke="#a6adc8" d="M29.21,-547.08C32.34,-578.38 43.49,-642.45 83,-675 96.09,-685.78 111.86,-692.98 128.34,-697.68"/>
<polygon fill="#a6adc8" stroke="#a6adc8" points="127.23,-701.01 137.78,-700.06 128.94,-694.23 127.23,-701.01"/>
</g>
<!-- host&#45;&gt;default__cross_provide_user_ -->
<g id="edge31" class="edge">
<title>host&#45;&gt;default__cross_provide_user_</title>
<path fill="none" stroke="#a6adc8" d="M33.61,-547.13C41.2,-568.43 56.89,-603.14 83,-621 96.39,-630.15 111.85,-636.55 127.78,-640.98"/>
<polygon fill="#a6adc8" stroke="#a6adc8" points="126.84,-644.35 137.38,-643.37 128.52,-637.56 126.84,-644.35"/>
</g>
<!-- host&#45;&gt;default__self_provide_default_ -->
<g id="edge32" class="edge">
<title>host&#45;&gt;default__self_provide_default_</title>
<path fill="none" stroke="#a6adc8" d="M48.25,-547.23C55.32,-552.75 63.61,-558.31 72,-562 88.65,-569.32 106.93,-574.97 125.14,-579.33"/>
<polygon fill="#a6adc8" stroke="#a6adc8" points="124.15,-582.69 134.68,-581.48 125.69,-575.86 124.15,-582.69"/>
</g>
<!-- host&#45;&gt;hm_host -->
<g id="edge34" class="edge">
<title>host&#45;&gt;hm_host</title>
<path fill="none" stroke="#a6adc8" d="M35.45,-510.77C42.72,-494.97 55.14,-472.42 72,-458 91.59,-441.25 115.64,-427.93 139.44,-417.53"/>
<polygon fill="#a6adc8" stroke="#a6adc8" points="140.71,-420.79 148.58,-413.69 138,-414.34 140.71,-420.79"/>
</g>
<!-- host&#45;&gt;hm_host__cross_provide_host_ -->
<g id="edge35" class="edge">
<title>host&#45;&gt;hm_host__cross_provide_host_</title>
<path fill="none" stroke="#a6adc8" d="M33.76,-510.71C42.53,-482.67 59.63,-427.33 73,-380 77.75,-363.19 70.11,-353.78 83,-342 94.89,-331.13 109.45,-323.78 124.9,-318.91"/>
<polygon fill="#a6adc8" stroke="#a6adc8" points="125.54,-322.36 134.25,-316.32 123.68,-315.61 125.54,-322.36"/>
</g>
<!-- host&#45;&gt;hm_host__self_provide_hm_host_ -->
<g id="edge36" class="edge">
<title>host&#45;&gt;hm_host__self_provide_hm_host_</title>
<path fill="none" stroke="#a6adc8" d="M31.87,-510.83C43.7,-455.39 78.86,-291.91 83,-288 92.9,-278.65 104.77,-271.87 117.51,-267.02"/>
<polygon fill="#a6adc8" stroke="#a6adc8" points="118.58,-270.36 126.96,-263.87 116.36,-263.71 118.58,-270.36"/>
</g>
<!-- host&#45;&gt;hm_user -->
<g id="edge37" class="edge">
<title>host&#45;&gt;hm_user</title>
<path fill="none" stroke="#a6adc8" d="M29.18,-510.74C33.24,-452.94 48.35,-275.2 83,-231 96.88,-213.29 116.08,-199.8 136.36,-189.58"/>
<polygon fill="#a6adc8" stroke="#a6adc8" points="137.81,-192.76 145.35,-185.32 134.81,-186.44 137.81,-192.76"/>
</g>
<!-- host&#45;&gt;hm_user__cross_provide_hm_host_ -->
<g id="edge38" class="edge">
<title>host&#45;&gt;hm_user__cross_provide_hm_host_</title>
<path fill="none" stroke="#a6adc8" d="M27.68,-510.64C26.8,-438.09 27.48,-172.52 83,-115 91.14,-106.57 100.86,-100.17 111.43,-95.36"/>
<polygon fill="#a6adc8" stroke="#a6adc8" points="112.41,-98.74 120.4,-91.78 109.82,-92.23 112.41,-98.74"/>
</g>
<!-- host&#45;&gt;hm_user__self_provide_hm_user_ -->
<g id="edge39" class="edge">
<title>host&#45;&gt;hm_user__self_provide_hm_user_</title>
<path fill="none" stroke="#a6adc8" d="M28.83,-510.69C32.75,-428.16 50.57,-93.43 83,-61 92.63,-51.37 104.33,-44.42 116.98,-39.48"/>
<polygon fill="#a6adc8" stroke="#a6adc8" points="118.04,-42.81 126.37,-36.27 115.77,-36.19 118.04,-42.81"/>
</g>
<!-- host&#45;&gt;alice -->
<g id="edge28" class="edge">
<title>host&#45;&gt;alice</title>
<path fill="none" stroke="#a6adc8" d="M54.37,-532.84C94.81,-538.4 174.59,-548 242.68,-548 242.68,-548 242.68,-548 1201.26,-548 1402.45,-548 1456.95,-567.83 1653.3,-524 1682.89,-517.4 1713.97,-506.14 1741.33,-494.62"/>
<polygon fill="#a6adc8" stroke="#a6adc8" points="1742.42,-497.96 1750.23,-490.8 1739.66,-491.53 1742.42,-497.96"/>
</g>
<!-- host&#45;&gt;user -->
<g id="edge42" class="edge">
<title>host&#45;&gt;user</title>
<path fill="none" stroke="#a6adc8" d="M54.37,-525.16C94.81,-519.6 174.59,-510 242.68,-510 242.68,-510 242.68,-510 1201.26,-510 1301.86,-510 1579.4,-554.25 1653.3,-486 1678.01,-463.19 1641.13,-436.28 1663.3,-411 1671.72,-401.4 1682.04,-393.84 1693.33,-387.9"/>
<polygon fill="#a6adc8" stroke="#a6adc8" points="1694.59,-391.18 1702.12,-383.73 1691.59,-384.85 1694.59,-391.18"/>
</g>
<!-- host&#45;&gt;user__cross_provide_host_ -->
<g id="edge43" class="edge">
<title>host&#45;&gt;user__cross_provide_host_</title>
<path fill="none" stroke="#a6adc8" d="M54.18,-517.33C94.03,-500.65 172.69,-472 242.68,-472 242.68,-472 242.68,-472 1201.26,-472 1416.89,-472 1453.79,-374.99 1663.3,-324 1680.84,-319.73 1699.62,-315.91 1717.91,-312.57"/>
<polygon fill="#a6adc8" stroke="#a6adc8" points="1718.51,-316.02 1727.74,-310.82 1717.28,-309.13 1718.51,-316.02"/>
</g>
</g>
</svg>
