<?plantuml 1.2026.2?><svg xmlns="http://www.w3.org/2000/svg" xmlns:xlink="http://www.w3.org/1999/xlink" contentStyleType="text/css" data-diagram-type="DESCRIPTION" height="661px" preserveAspectRatio="none" style="width:2316px;height:661px;background:#1E1E2E;" version="1.1" viewBox="0 0 2316 661" width="2316px" zoomAndPan="magnify"><defs/><g><rect fill="#1E1E2E" height="661" style="stroke:none;stroke-width:1;" width="2316" x="0" y="0"/><!--cluster stage_user--><g class="cluster" data-qualified-name="stage_user" data-source-line="24" id="ent0003"><path d="M1716.8899,139 L1877.4892,139 A3.75,3.75 0 0 1 1879.9892,141.5 L1886.9892,163.4799 L2306.8899,163.4799 A2.5,2.5 0 0 1 2309.3899,165.9799 L2309.3899,651.5 A2.5,2.5 0 0 1 2306.8899,654 L1716.8899,654 A2.5,2.5 0 0 1 1714.3899,651.5 L1714.3899,141.5 A2.5,2.5 0 0 1 1716.8899,139" fill="#313244" style="stroke:#6C7086;stroke-width:1.5;"/><line style="stroke:#6C7086;stroke-width:1.5;" x1="1714.3899" x2="1886.9892" y1="163.4799" y2="163.4799"/><text fill="#CDD6F4" font-family="'JetBrains Mono,monospace'" font-size="14" font-weight="bold" lengthAdjust="spacing" textLength="159.5993" x="1718.3899" y="155.2799">user { host, user }</text></g><!--cluster stage_default--><g class="cluster" data-qualified-name="stage_default" data-source-line="34" id="ent0012"><path d="M130.0999,61 L315.899,61 A3.75,3.75 0 0 1 318.399,63.5 L325.399,85.4799 L1678.8899,85.4799 A2.5,2.5 0 0 1 1681.3899,87.9799 L1681.3899,342.5 A2.5,2.5 0 0 1 1678.8899,345 L130.0999,345 A2.5,2.5 0 0 1 127.5999,342.5 L127.5999,63.5 A2.5,2.5 0 0 1 130.0999,61" fill="#313244" style="stroke:#6C7086;stroke-width:1.5;"/><line style="stroke:#6C7086;stroke-width:1.5;" x1="127.5999" x2="325.399" y1="85.4799" y2="85.4799"/><text fill="#CDD6F4" font-family="'JetBrains Mono,monospace'" font-size="14" font-weight="bold" lengthAdjust="spacing" textLength="184.7992" x="131.5999" y="77.2799">default { host, user }</text></g><!--entity demo_shell--><g class="entity" data-qualified-name="stage_user.demo_shell" data-source-line="25" id="ent0004"><rect fill="#F2CDCD" height="38.4799" rx="2.5" ry="2.5" style="stroke:#A6ADC8;stroke-width:0.5;" width="103.9996" x="1822.7899" y="234.76"/><text fill="#1E1E2E" font-family="'JetBrains Mono,monospace'" font-size="14" lengthAdjust="spacing" textLength="83.9996" x="1832.7899" y="259.0399">demo-shell</text></g><!--entity dev_tools--><g class="entity" data-qualified-name="stage_user.dev_tools" data-source-line="26" id="ent0005"><rect fill="#FAB387" height="38.4799" rx="2.5" ry="2.5" style="stroke:#A6ADC8;stroke-width:0.5;" width="95.5997" x="1826.9899" y="307.76"/><text fill="#1E1E2E" font-family="'JetBrains Mono,monospace'" font-size="14" lengthAdjust="spacing" textLength="75.5997" x="1836.9899" y="332.0399">dev-tools</text></g><!--entity hyprland--><g class="entity" data-qualified-name="stage_user.hyprland" data-source-line="27" id="ent0006"><rect fill="#F2CDCD" height="38.4799" rx="2.5" ry="2.5" style="stroke:#A6ADC8;stroke-width:0.5;" width="87.1997" x="1831.1899" y="380.76"/><text fill="#1E1E2E" font-family="'JetBrains Mono,monospace'" font-size="14" lengthAdjust="spacing" textLength="67.1997" x="1841.1899" y="405.0399">hyprland</text></g><!--entity primary_user--><g class="entity" data-qualified-name="stage_user.primary_user" data-source-line="28" id="ent0007"><rect fill="#F2CDCD" height="38.4799" rx="2.5" ry="2.5" style="stroke:#A6ADC8;stroke-width:0.5;" width="120.7996" x="1814.3899" y="453.76"/><text fill="#1E1E2E" font-family="'JetBrains Mono,monospace'" font-size="14" lengthAdjust="spacing" textLength="100.7996" x="1824.3899" y="478.0399">primary-user</text></g><!--entity den__provides__primary_user--><g class="entity" data-qualified-name="stage_user.den__provides__primary_user" data-source-line="29" id="ent0008"><rect fill="#F2CDCD" height="24.4799" rx="2.5" ry="2.5" style="stroke:#A6ADC8;stroke-width:0.5;" width="196.3992" x="1776.5899" y="175.76"/><text fill="#1E1E2E" font-family="'JetBrains Mono,monospace'" font-size="14" lengthAdjust="spacing" textLength="176.3992" x="1786.5899" y="193.0399">provides/primary-user</text></g><!--entity user__aspect_user_--><g class="entity" data-qualified-name="stage_user.user__aspect_user_" data-source-line="30" id="ent0009"><rect fill="#FAB387" height="38.4799" rx="2.5" ry="2.5" style="stroke:#A6ADC8;stroke-width:0.5;" width="162.7994" x="1793.3899" y="526.76"/><text fill="#1E1E2E" font-family="'JetBrains Mono,monospace'" font-size="14" lengthAdjust="spacing" textLength="142.7994" x="1803.3899" y="551.0399">user/aspect(user)</text></g><!--entity user__cross_provide__anon__--><g class="entity" data-qualified-name="stage_user.user__cross_provide__anon__" data-source-line="31" id="ent0010"><rect fill="#F38BA8" height="38.4799" rx="2.5" ry="2.5" style="stroke:#A6ADC8;stroke-width:0.5;" width="288.7988" x="1730.3899" y="599.76"/><text fill="#1E1E2E" font-family="'JetBrains Mono,monospace'" font-size="14" lengthAdjust="spacing" textLength="268.7988" x="1740.3899" y="624.0399">user/cross-provide(&amp;lt;anon&amp;gt;)</text></g><!--entity user__self_provide_user_--><g class="entity" data-qualified-name="stage_user.user__self_provide_user_" data-source-line="32" id="ent0011"><rect fill="#F2CDCD" height="38.4799" rx="2.5" ry="2.5" style="stroke:#A6ADC8;stroke-width:0.5;" width="213.1992" x="2080.1899" y="287.76"/><text fill="#1E1E2E" font-family="'JetBrains Mono,monospace'" font-size="14" lengthAdjust="spacing" textLength="193.1992" x="2090.1899" y="312.0399">user/self-provide(user)</text></g><!--entity n_default--><g class="entity" data-qualified-name="stage_default.n_default" data-source-line="35" id="ent0013"><polygon fill="#FAB387" points="563.5999,159,458.5999,135.52,248.5999,135.52,143.5999,159,248.5999,182.48,458.5999,182.48,563.5999,159" style="stroke:#A6ADC8;stroke-width:0.5;"/><text fill="#1E1E2E" font-family="'JetBrains Mono,monospace'" font-size="14" lengthAdjust="spacing" textLength="58.7997" x="248.5994" y="154.7999">default</text><text fill="#1E1E2E" font-family="'JetBrains Mono,monospace'" font-size="14" lengthAdjust="spacing" textLength="209.9991" x="248.5994" y="173.2799">({ aspect-chain, class })</text></g><!--entity default__aspect_default_--><g class="entity" data-qualified-name="stage_default.default__aspect_default_" data-source-line="36" id="ent0014"><rect fill="#A6E3A1" height="38.4799" rx="2.5" ry="2.5" style="stroke:#A6ADC8;stroke-width:0.5;" width="213.1992" x="1452.1999" y="212.76"/><text fill="#1E1E2E" font-family="'JetBrains Mono,monospace'" font-size="14" lengthAdjust="spacing" textLength="193.1992" x="1462.1999" y="237.0399">default/aspect(default)</text></g><!--entity den__provides__default__aspect_default__den__provides--><g class="entity" data-qualified-name="stage_default.den__provides__default__aspect_default__den__provides" data-source-line="37" id="ent0015"><rect fill="#A6E3A1" height="24.4799" rx="2.5" ry="2.5" style="stroke:#A6ADC8;stroke-width:0.5;" width="397.9984" x="907.1999" y="134.76"/><text fill="#1E1E2E" font-family="'JetBrains Mono,monospace'" font-size="14" lengthAdjust="spacing" textLength="377.9984" x="917.1999" y="152.0399">provides/default/aspect(default):den/provides</text></g><!--entity default__cross_provide_user_--><g class="entity" data-qualified-name="stage_default.default__cross_provide_user_" data-source-line="38" id="ent0016"><rect fill="#F9E2AF" height="38.4799" rx="2.5" ry="2.5" style="stroke:#A6ADC8;stroke-width:0.5;" width="246.799" x="230.1999" y="217.76"/><text fill="#1E1E2E" font-family="'JetBrains Mono,monospace'" font-size="14" lengthAdjust="spacing" textLength="226.799" x="240.1999" y="242.0399">default/cross-provide(user)</text></g><!--entity default__self_provide_default_--><g class="entity" data-qualified-name="stage_default.default__self_provide_default_" data-source-line="39" id="ent0017"><rect fill="#FAB387" height="38.4799" rx="2.5" ry="2.5" style="stroke:#A6ADC8;stroke-width:0.5;" width="263.5989" x="221.7999" y="290.76"/><text fill="#1E1E2E" font-family="'JetBrains Mono,monospace'" font-size="14" lengthAdjust="spacing" textLength="243.5989" x="231.7999" y="315.0399">default/self-provide(default)</text></g><!--entity den__provides__define_user--><g class="entity" data-qualified-name="stage_default.den__provides__define_user" data-source-line="40" id="ent0018"><rect fill="#A6E3A1" height="24.4799" rx="2.5" ry="2.5" style="stroke:#A6ADC8;stroke-width:0.5;" width="187.9993" x="641.3999" y="158.76"/><text fill="#1E1E2E" font-family="'JetBrains Mono,monospace'" font-size="14" lengthAdjust="spacing" textLength="167.9993" x="651.3999" y="176.0399">provides/define-user</text></g><!--entity den__provides__hostname--><g class="entity" data-qualified-name="stage_default.den__provides__hostname" data-source-line="41" id="ent0019"><rect fill="#FAB387" height="24.4799" rx="2.5" ry="2.5" style="stroke:#A6ADC8;stroke-width:0.5;" width="162.7994" x="653.9999" y="99.76"/><text fill="#1E1E2E" font-family="'JetBrains Mono,monospace'" font-size="14" lengthAdjust="spacing" textLength="142.7994" x="663.9999" y="117.0399">provides/hostname</text></g><!--entity den__provides__mutual_provider--><g class="entity" data-qualified-name="stage_default.den__provides__mutual_provider" data-source-line="42" id="ent0020"><rect fill="#F9E2AF" height="24.4799" rx="2.5" ry="2.5" style="stroke:#A6ADC8;stroke-width:0.5;" width="221.5991" x="624.5999" y="218.76"/><text fill="#1E1E2E" font-family="'JetBrains Mono,monospace'" font-size="14" lengthAdjust="spacing" textLength="201.5991" x="634.5999" y="236.0399">provides/mutual-provider</text></g><!--entity alice__to_hosts--><g class="entity" data-qualified-name="stage_default.alice__to_hosts" data-source-line="43" id="ent0021"><rect fill="#A6E3A1" height="24.4799" rx="2.5" ry="2.5" style="stroke:#A6ADC8;stroke-width:0.5;" width="137.5995" x="1037.3999" y="267.76"/><text fill="#1E1E2E" font-family="'JetBrains Mono,monospace'" font-size="14" lengthAdjust="spacing" textLength="117.5995" x="1047.3999" y="285.0399">alice/to-hosts</text></g><!--entity alice--><g class="entity" data-qualified-name="alice" data-source-line="23" id="ent0002"><rect fill="#89B4FA" height="38.4799" rx="2.5" ry="2.5" style="stroke:#A6ADC8;stroke-width:0.5;" width="61.9998" x="1527.7999" y="360.76"/><text fill="#1E1E2E" font-family="'JetBrains Mono,monospace'" font-size="14" lengthAdjust="spacing" textLength="41.9998" x="1537.7999" y="385.0399">alice</text></g><!--entity user--><g class="entity" data-qualified-name="user" data-source-line="45" id="ent0022"><rect fill="#FAB387" height="38.4799" rx="2.5" ry="2.5" style="stroke:#A6ADC8;stroke-width:0.5;" width="53.5999" x="12.7999" y="365.76"/><text fill="#1E1E2E" font-family="'JetBrains Mono,monospace'" font-size="14" lengthAdjust="spacing" textLength="33.5999" x="22.7999" y="390.0399">user</text></g><!--entity ctx_user--><g class="entity" data-qualified-name="ctx_user" data-source-line="75" id="ent0051"><ellipse cx="39.5999" cy="14" fill="#F1F1F1" rx="8" ry="8" style="stroke:#181818;stroke-width:0.5;"/><text fill="#CDD6F4" font-family="'JetBrains Mono,monospace'" font-size="14" lengthAdjust="spacing" textLength="67.1997" x="6" y="45.2799">ctx_user</text></g><!--entity ctx_default--><g class="entity" data-qualified-name="ctx_default" data-source-line="75" id="ent0052"><ellipse cx="353.5999" cy="14" fill="#F1F1F1" rx="8" ry="8" style="stroke:#181818;stroke-width:0.5;"/><text fill="#CDD6F4" font-family="'JetBrains Mono,monospace'" font-size="14" lengthAdjust="spacing" textLength="92.3996" x="307.4001" y="45.2799">ctx_default</text></g><!--link alice to demo_shell--><g class="link" data-entity-1="ent0002" data-entity-2="ent0004" data-link-type="dependency" data-source-line="47" id="lnk23"><path d="M1590.0299,379.81 C1619.1899,378 1662.7199,370.73 1689.3899,345 C1707.8099,327.24 1687.5299,307.28 1706.3899,290 C1737.6399,261.39 1779.9742,253.7087 1816.6842,252.3087" fill="none" id="alice-to-demo_shell" style="stroke:#A6ADC8;stroke-width:1;"/><polygon fill="#A6ADC8" points="1822.6799,252.08,1813.534,248.4259,1817.6835,252.2705,1813.8388,256.4201,1822.6799,252.08" style="stroke:#A6ADC8;stroke-width:1;"/></g><!--link alice to dev_tools--><g class="link" data-entity-1="ent0002" data-entity-2="ent0005" data-link-type="dependency" data-source-line="48" id="lnk24"><path d="M1590.1899,374.87 C1645.1299,365.6 1755.4235,346.9781 1820.7435,335.9581" fill="none" id="alice-to-dev_tools" style="stroke:#A6ADC8;stroke-width:1;"/><polygon fill="#A6ADC8" points="1826.6599,334.96,1817.1198,332.513,1821.7295,335.7918,1818.4507,340.4015,1826.6599,334.96" style="stroke:#A6ADC8;stroke-width:1;"/></g><!--link alice to hyprland--><g class="link" data-entity-1="ent0002" data-entity-2="ent0006" data-link-type="dependency" data-source-line="49" id="lnk25"><path d="M1590.1899,381.94 C1646.2899,385.51 1760.262,392.7682 1824.722,396.8782" fill="none" id="alice-to-hyprland" style="stroke:#A6ADC8;stroke-width:1;"/><polygon fill="#A6ADC8" points="1830.7099,397.26,1821.9826,392.6954,1825.72,396.9418,1821.4736,400.6792,1830.7099,397.26" style="stroke:#A6ADC8;stroke-width:1;"/></g><!--link alice to primary_user--><g class="link" data-entity-1="ent0002" data-entity-2="ent0007" data-link-type="dependency" data-source-line="50" id="lnk26"><path d="M1590.1899,393.46 C1619.4899,406.04 1665.3299,424.69 1706.3899,437 C1741.5599,447.54 1775.8696,455.1478 1808.0496,461.3878" fill="none" id="alice-to-primary_user" style="stroke:#A6ADC8;stroke-width:1;"/><polygon fill="#A6ADC8" points="1813.9399,462.53,1805.8659,456.8899,1809.0313,461.5782,1804.343,464.7436,1813.9399,462.53" style="stroke:#A6ADC8;stroke-width:1;"/></g><!--link alice to den__provides__primary_user--><g class="link" data-entity-1="ent0002" data-entity-2="ent0008" data-link-type="dependency" data-source-line="51" id="lnk27"><path d="M1590.1499,380.77 C1620.0599,379.75 1664.7399,373.13 1689.3899,345 C1698.8499,334.21 1696.4499,227.34 1706.3899,217 C1724.5899,198.07 1744.4316,189.7251 1770.3216,185.6851" fill="none" id="alice-to-den__provides__primary_user" style="stroke:#A6ADC8;stroke-width:1;"/><polygon fill="#A6ADC8" points="1776.2499,184.76,1766.7408,182.1954,1771.3096,185.5309,1767.9742,190.0998,1776.2499,184.76" style="stroke:#A6ADC8;stroke-width:1;"/></g><!--link alice to user__self_provide_user_--><g class="link" data-entity-1="ent0002" data-entity-2="ent0011" data-link-type="dependency" data-source-line="52" id="lnk28"><path d="M1590.1499,381.01 C1620.2799,380.22 1665.3399,373.8 1689.3899,345 C1702.7699,328.99 1690.9499,172.02 1706.3899,158 C1809.3199,64.55 1889.3199,108.4 2019.1899,158 C2087.8899,184.24 2142.564,248.4744 2168.204,282.5744" fill="none" id="alice-to-user__self_provide_user_" style="stroke:#A6ADC8;stroke-width:1;"/><polygon fill="#A6ADC8" points="2171.8099,287.37,2169.5982,277.7727,2168.805,283.3737,2163.204,282.5805,2171.8099,287.37" style="stroke:#A6ADC8;stroke-width:1;"/></g><!--link alice__to_hosts to default__aspect_default_--><g class="link" data-entity-1="ent0021" data-entity-2="ent0014" data-link-type="dependency" data-source-line="53" id="lnk29"><path d="M1175.1399,272.76 C1248.5299,264.94 1360.4437,253.026 1445.9937,243.906" fill="none" id="alice__to_hosts-to-default__aspect_default_" style="stroke:#A6ADC8;stroke-width:1;"/><polygon fill="#A6ADC8" points="1451.9599,243.27,1442.5865,240.2466,1446.988,243.8,1443.4346,248.2015,1451.9599,243.27" style="stroke:#A6ADC8;stroke-width:1;"/></g><!--link n_default to default__aspect_default_--><g class="link" data-entity-1="ent0013" data-entity-2="ent0014" data-link-type="dependency" data-source-line="54" id="lnk30"><path d="M495.4199,174.75 C519.0199,180.68 542.6299,188.83 563.5999,200 C597.4399,218.03 590.5599,243.34 624.5999,261 C893.7999,400.65 1005.3199,355.25 1305.1999,310 C1378.2599,298.98 1453.7297,273.1236 1503.8397,253.8536" fill="none" id="n_default-to-default__aspect_default_" style="stroke:#A6ADC8;stroke-width:1;"/><polygon fill="#A6ADC8" points="1509.4399,251.7,1499.6039,251.1969,1504.773,253.4946,1502.4753,258.6638,1509.4399,251.7" style="stroke:#A6ADC8;stroke-width:1;"/></g><!--link n_default to den__provides__define_user--><g class="link" data-entity-1="ent0013" data-entity-2="ent0018" data-link-type="dependency" data-source-line="55" id="lnk31"><path d="M539.4899,164.84 C574.7699,165.96 604.2828,166.8915 635.1428,167.8615" fill="none" id="n_default-to-den__provides__define_user" style="stroke:#A6ADC8;stroke-width:1;"/><polygon fill="#A6ADC8" points="641.1399,168.05,632.27,163.7692,636.1423,167.8929,632.0186,171.7653,641.1399,168.05" style="stroke:#A6ADC8;stroke-width:1;"/></g><!--link n_default to den__provides__hostname--><g class="link" data-entity-1="ent0013" data-entity-2="ent0019" data-link-type="dependency" data-source-line="56" id="lnk32"><path d="M490.3699,142.2 C544.9899,135.44 600.1751,128.6059 647.5951,122.7459" fill="none" id="n_default-to-den__provides__hostname" style="stroke:#A6ADC8;stroke-width:1;"/><polygon fill="#A6ADC8" points="653.5499,122.01,644.1272,119.144,648.5876,122.6232,645.1084,127.0836,653.5499,122.01" style="stroke:#A6ADC8;stroke-width:1;"/></g><!--link n_default to den__provides__mutual_provider--><g class="link" data-entity-1="ent0013" data-entity-2="ent0020" data-link-type="dependency" data-source-line="57" id="lnk33"><path d="M468.8099,180.65 C533.5799,192.93 606.505,206.7518 661.385,217.1618" fill="none" id="n_default-to-den__provides__mutual_provider" style="stroke:#A6ADC8;stroke-width:1;"/><polygon fill="#A6ADC8" points="667.2799,218.28,659.183,212.6728,662.3674,217.3482,657.6921,220.5327,667.2799,218.28" style="stroke:#A6ADC8;stroke-width:1;"/></g><!--link demo_shell to user__self_provide_user_--><g class="link" data-entity-1="ent0004" data-entity-2="ent0011" data-link-type="dependency" data-source-line="58" id="lnk34"><path d="M1926.9799,262.75 C1968.4299,269.84 2022.2856,279.0491 2073.9456,287.8791" fill="none" id="demo_shell-to-user__self_provide_user_" style="stroke:#A6ADC8;stroke-width:1;"/><polygon fill="#A6ADC8" points="2079.8599,288.89,2071.6624,283.4308,2074.9313,288.0476,2070.3146,291.3165,2079.8599,288.89" style="stroke:#A6ADC8;stroke-width:1;"/></g><!--link den__provides__define_user to default__aspect_default_--><g class="link" data-entity-1="ent0018" data-entity-2="ent0014" data-link-type="dependency" data-source-line="59" id="lnk35"><path d="M829.8199,177.94 C983.8199,189.37 1284.0263,211.6656 1445.8563,223.6856" fill="none" id="den__provides__define_user-to-default__aspect_default_" style="stroke:#A6ADC8;stroke-width:1;"/><polygon fill="#A6ADC8" points="1451.8399,224.13,1443.1609,219.4743,1446.8536,223.7596,1442.5683,227.4524,1451.8399,224.13" style="stroke:#A6ADC8;stroke-width:1;"/></g><!--link den__provides__define_user to den__provides__default__aspect_default__den__provides--><g class="link" data-entity-1="ent0018" data-entity-2="ent0015" data-link-type="dependency" data-source-line="60" id="lnk36"><path d="M829.4599,164.94 C854.1099,163.34 875.6826,161.9406 903.5826,160.1206" fill="none" id="den__provides__define_user-to-den__provides__default__aspect_default__den__provides" style="stroke:#A6ADC8;stroke-width:1;"/><polygon fill="#A6ADC8" points="909.5699,159.73,900.3286,156.3243,904.5805,160.0555,900.8493,164.3074,909.5699,159.73" style="stroke:#A6ADC8;stroke-width:1;"/></g><!--link den__provides__hostname to default__aspect_default_--><g class="link" data-entity-1="ent0019" data-entity-2="ent0014" data-link-type="dependency" data-source-line="61" id="lnk37"><path d="M817.1799,102.29 C928.5399,91.24 1134.7799,79.25 1305.1999,117 C1389.6399,135.71 1474.6947,181.65 1521.0747,209.27" fill="none" id="den__provides__hostname-to-default__aspect_default_" style="stroke:#A6ADC8;stroke-width:1;"/><polygon fill="#A6ADC8" points="1526.2299,212.34,1520.5438,204.2983,1521.9339,209.7817,1516.4505,211.1718,1526.2299,212.34" style="stroke:#A6ADC8;stroke-width:1;"/></g><!--link den__provides__hostname to den__provides__default__aspect_default__den__provides--><g class="link" data-entity-1="ent0019" data-entity-2="ent0015" data-link-type="dependency" data-source-line="62" id="lnk38"><path d="M816.8799,119.64 C862.0199,123.92 913.5267,128.8132 965.2667,133.7232" fill="none" id="den__provides__hostname-to-den__provides__default__aspect_default__den__provides" style="stroke:#A6ADC8;stroke-width:1;"/><polygon fill="#A6ADC8" points="971.2399,134.29,962.658,129.4576,966.2622,133.8176,961.9022,137.4219,971.2399,134.29" style="stroke:#A6ADC8;stroke-width:1;"/></g><!--link den__provides__mutual_provider to default__aspect_default_--><g class="link" data-entity-1="ent0020" data-entity-2="ent0014" data-link-type="dependency" data-source-line="63" id="lnk39"><path d="M846.3199,231.13 C1004.7899,231.33 1289.5099,231.6727 1445.7699,231.8627" fill="none" id="den__provides__mutual_provider-to-default__aspect_default_" style="stroke:#A6ADC8;stroke-width:1;"/><polygon fill="#A6ADC8" points="1451.7699,231.87,1442.7747,227.8591,1446.7699,231.8639,1442.765,235.8591,1451.7699,231.87" style="stroke:#A6ADC8;stroke-width:1;"/></g><!--link den__provides__mutual_provider to den__provides__default__aspect_default__den__provides--><g class="link" data-entity-1="ent0020" data-entity-2="ent0015" data-link-type="dependency" data-source-line="64" id="lnk40"><path d="M792.0099,218.33 C861.5299,202.5 973.9897,176.8825 1043.5797,161.0325" fill="none" id="den__provides__mutual_provider-to-den__provides__default__aspect_default__den__provides" style="stroke:#A6ADC8;stroke-width:1;"/><polygon fill="#A6ADC8" points="1049.4299,159.7,1039.7663,157.7986,1044.5547,160.8104,1041.5429,165.5988,1049.4299,159.7" style="stroke:#A6ADC8;stroke-width:1;"/></g><!--link den__provides__mutual_provider to alice__to_hosts--><g class="link" data-entity-1="ent0020" data-entity-2="ent0021" data-link-type="dependency" data-source-line="65" id="lnk41"><path d="M831.8499,243.68 C896.0899,252.22 973.3221,262.4797 1030.9721,270.1397" fill="none" id="den__provides__mutual_provider-to-alice__to_hosts" style="stroke:#A6ADC8;stroke-width:1;"/><polygon fill="#A6ADC8" points="1036.9199,270.93,1028.5251,265.7794,1031.9634,270.2714,1027.4714,273.7097,1036.9199,270.93" style="stroke:#A6ADC8;stroke-width:1;"/></g><!--link dev_tools to user__self_provide_user_--><g class="link" data-entity-1="ent0005" data-entity-2="ent0011" data-link-type="dependency" data-source-line="66" id="lnk42"><path d="M1922.8799,323.96 C1964.3699,321.29 2020.3724,317.6771 2073.7324,314.2271" fill="none" id="dev_tools-to-user__self_provide_user_" style="stroke:#A6ADC8;stroke-width:1;"/><polygon fill="#A6ADC8" points="2079.7199,313.84,2070.4805,310.429,2074.7303,314.1626,2070.9967,318.4123,2079.7199,313.84" style="stroke:#A6ADC8;stroke-width:1;"/></g><!--link hyprland to user__self_provide_user_--><g class="link" data-entity-1="ent0006" data-entity-2="ent0011" data-link-type="dependency" data-source-line="67" id="lnk43"><path d="M1918.7199,390.22 C1947.3399,383.45 1985.7199,373.91 2019.1899,364 C2057.2999,352.72 2094.0179,340.2139 2126.4879,328.6439" fill="none" id="hyprland-to-user__self_provide_user_" style="stroke:#A6ADC8;stroke-width:1;"/><polygon fill="#A6ADC8" points="2132.1399,326.63,2122.3194,325.883,2127.4299,328.3083,2125.0046,333.4188,2132.1399,326.63" style="stroke:#A6ADC8;stroke-width:1;"/></g><!--link user to alice--><g class="link" data-entity-1="ent0022" data-entity-2="ent0002" data-link-type="dependency" data-source-line="68" id="lnk44"><path d="M66.8399,388.67 C120.4199,395.84 246.3399,411 352.5999,411 C352.5999,411 352.5999,411 1107.1999,411 C1265.7899,411 1449.0772,392.318 1521.5572,384.198" fill="none" id="user-to-alice" style="stroke:#A6ADC8;stroke-width:1;"/><polygon fill="#A6ADC8" points="1527.5199,383.53,1518.1305,380.5569,1522.5509,384.0867,1519.0211,388.5071,1527.5199,383.53" style="stroke:#A6ADC8;stroke-width:1;"/></g><!--link user to n_default--><g class="link" data-entity-1="ent0022" data-entity-2="ent0013" data-link-type="dependency" data-source-line="69" id="lnk45"><path d="M42.8699,365.41 C48.4299,327.07 66.3899,242.22 119.5999,200 C138.0999,185.32 154.3064,176.9056 177.2064,169.9856" fill="none" id="user-to-n_default" style="stroke:#A6ADC8;stroke-width:1;"/><polygon fill="#A6ADC8" points="182.9499,168.25,173.1776,167.0244,178.1636,169.6963,175.4917,174.6824,182.9499,168.25" style="stroke:#A6ADC8;stroke-width:1;"/></g><!--link user to default__cross_provide_user_--><g class="link" data-entity-1="ent0022" data-entity-2="ent0016" data-link-type="dependency" data-source-line="70" id="lnk46"><path d="M48.4899,365.49 C60.0099,339.73 83.9999,295.06 119.5999,273 C152.2199,252.78 186.2394,243.3197 223.8094,238.4597" fill="none" id="user-to-default__cross_provide_user_" style="stroke:#A6ADC8;stroke-width:1;"/><polygon fill="#A6ADC8" points="229.7599,237.69,220.3211,234.8777,224.8012,238.3314,221.3474,242.8116,229.7599,237.69" style="stroke:#A6ADC8;stroke-width:1;"/></g><!--link user to default__self_provide_default_--><g class="link" data-entity-1="ent0022" data-entity-2="ent0017" data-link-type="dependency" data-source-line="71" id="lnk47"><path d="M66.6599,378.73 C111.0399,368.07 197.1959,347.3518 264.9059,331.0818" fill="none" id="user-to-default__self_provide_default_" style="stroke:#A6ADC8;stroke-width:1;"/><polygon fill="#A6ADC8" points="270.7399,329.68,261.0544,327.8935,265.8782,330.8482,262.9235,335.672,270.7399,329.68" style="stroke:#A6ADC8;stroke-width:1;"/></g><!--link user to user__aspect_user_--><g class="link" data-entity-1="ent0022" data-entity-2="ent0009" data-link-type="dependency" data-source-line="72" id="lnk48"><path d="M66.7599,403.15 C118.7099,437.36 239.6399,508 352.5999,508 C352.5999,508 352.5999,508 1559.7999,508 C1639.5499,508 1723.9723,519.2389 1787.2023,529.8289" fill="none" id="user-to-user__aspect_user_" style="stroke:#A6ADC8;stroke-width:1;"/><polygon fill="#A6ADC8" points="1793.1199,530.82,1784.9042,525.3883,1788.1885,529.9941,1783.5828,533.2784,1793.1199,530.82" style="stroke:#A6ADC8;stroke-width:1;"/></g><!--link user to user__cross_provide__anon__--><g class="link" data-entity-1="ent0022" data-entity-2="ent0010" data-link-type="dependency" data-source-line="73" id="lnk49"><path d="M47.3199,404.38 C58.1599,432.86 82.1499,485.87 119.5999,516 C204.7899,584.54 243.2499,595 352.5999,595 C352.5999,595 352.5999,595 1559.7999,595 C1615.5599,595 1670.7618,598.2975 1724.1818,602.8775" fill="none" id="user-to-user__cross_provide__anon__" style="stroke:#A6ADC8;stroke-width:1;"/><polygon fill="#A6ADC8" points="1730.1599,603.39,1721.5344,598.6358,1725.1781,602.9629,1720.8511,606.6066,1730.1599,603.39" style="stroke:#A6ADC8;stroke-width:1;"/></g><!--link alice__to_hosts to alice--><g class="link" data-entity-1="ent0021" data-entity-2="ent0002" data-link-type="dependency" data-source-line="74" id="lnk50"><path d="M1164.2699,292.67 C1260.7699,314.08 1447.0824,355.4299 1521.5124,371.9499" fill="none" id="alice__to_hosts-to-alice" style="stroke:#A6ADC8;stroke-width:1;"/><polygon fill="#A6ADC8" points="1527.3699,373.25,1519.4504,367.3949,1522.4886,372.1666,1517.7169,375.2048,1527.3699,373.25" style="stroke:#A6ADC8;stroke-width:1;"/><text fill="#CDD6F4" font-family="'JetBrains Mono,monospace'" font-size="13" lengthAdjust="spacing" textLength="85.8" x="1336.1999" y="328.26">provided-by</text></g><!--link ctx_user to ctx_default--><g class="link" data-entity-1="ent0051" data-entity-2="ent0052" data-link-type="dependency" data-source-line="75" id="lnk53"><path d="M48.3099,14 C91.3799,14 295.7799,14 338.8799,14" fill="none" id="ctx_user-to-ctx_default" style="stroke:#A6ADC8;stroke-width:1;"/><polygon fill="#A6ADC8" points="344.8799,14,335.8799,10,339.8799,14,335.8799,18,344.8799,14" style="stroke:#A6ADC8;stroke-width:1;"/></g><?plantuml-src jLPRQzim57xthn0fb1PgiYGbJLlOGmjZ35R6dWT6iUJ4r962f7Gj9VzzkbksPRKTsqlmqVdE-OxEJMbm9O2WWDMRhG2ePhWKDIKPVwp97ZAu0sjOFcuOFH1qJnlAmCaCp_0S1mY4AtXen1TAX8MK22shopZa0Uumc7p3uex1cd3mdH9wiPC_V0zBF0cC86Fqj_K8bn2LgxuoHVbJtWIIJOFl-XTOp1RpopYKCeJP6AM71RI3P7p5pt13oTka3fYajA0KuJraw6qsZKfIAKIAvuVaW9jtPDC1GxPbUVLfjHo2KWLyeE8TR1gLf5A88K_6N3N113Qrx3m0ET1Vu6HrlRwiOBOtGOB9WMC6Ni6MSd41j73KS2wakZ3Q38309S8xclCjRXeDL6AXHN1IpKjKeZxyAHUKDjoYdmejIJ1SBrPNNV3sPSyQI936EY7kTy_g7MGlkGfHm-s1YRarAMNn5Pe-rGZpwS0COL8KJgs-ebu2OgMPGhwN9sVg-roxKLz5OOwrSH6_eROk6UKyjwHdfusuXOIIqusu3Prfb0jD-fQGGdbThDPm5V7ASLDvf_t8bDBxSl6PsntRRh3BRBmXF43oRyq4UwjVvEmLc0pavLPkm0jGDf1pS3I146yTpOnLkjHQyTmMIGi-mKvMmuuNS3QiyuYt6rdkgGF5wZ_6L7Hm0M_a1jtojfNmlhgLTTMundDOnJrsIXlFJAV0RNvyfeVvgGaU7GEZjbCmbcFL8qI-UJ47JZSUmUuW3h1njuf6OI3kW0KvChxqJfiAcYistgwvGkuO7K5Rg6FM6nS_6px2pAp8FFySBBNEeTrTmPdRKS5Hk44wrgDx9a2D3MlMlvTn6U_Lh9sq3y76EY0DT9LEetgbp89d8tdlH5ycx_QctLzCVJRMun-9f6Vq3yBeJyb7eedR_gUWUZsSjNy6aYtW_mSaKRwqcgKLVLTcmwQ9xE48AhfPMzpmvU_heWzvTABD8hW15elozKjMYkUsRvLWG_W3?></g></svg>