<svg id="my-svg" width="100%" xmlns="http://www.w3.org/2000/svg" xmlns:xlink="http://www.w3.org/1999/xlink" class="flowchart" style="max-width: 863px; background-color: rgb(30, 30, 46);" viewBox="4 4 863 433.5" role="graphics-document document" aria-roledescription="flowchart-v2"><style>#my-svg{font-family:JetBrains Mono,Fira Code,DejaVu Sans Mono,monospace;font-size:16px;fill:#cdd6f4;}@keyframes edge-animation-frame{from{stroke-dashoffset:0;}}@keyframes dash{to{stroke-dashoffset:0;}}#my-svg .edge-animation-slow{stroke-dasharray:9,5!important;stroke-dashoffset:900;animation:dash 50s linear infinite;stroke-linecap:round;}#my-svg .edge-animation-fast{stroke-dasharray:9,5!important;stroke-dashoffset:900;animation:dash 20s linear infinite;stroke-linecap:round;}#my-svg .error-icon{fill:#313244;}#my-svg .error-text{fill:#cdd6f4;stroke:#cdd6f4;}#my-svg .edge-thickness-normal{stroke-width:1px;}#my-svg .edge-thickness-thick{stroke-width:3.5px;}#my-svg .edge-pattern-solid{stroke-dasharray:0;}#my-svg .edge-thickness-invisible{stroke-width:0;fill:none;}#my-svg .edge-pattern-dashed{stroke-dasharray:3;}#my-svg .edge-pattern-dotted{stroke-dasharray:2;}#my-svg .marker{fill:#a6adc8;stroke:#a6adc8;}#my-svg .marker.cross{stroke:#a6adc8;}#my-svg svg{font-family:JetBrains Mono,Fira Code,DejaVu Sans Mono,monospace;font-size:16px;}#my-svg p{margin:0;}#my-svg .label{font-family:JetBrains Mono,Fira Code,DejaVu Sans Mono,monospace;color:#cdd6f4;}#my-svg .cluster-label text{fill:#cdd6f4;}#my-svg .cluster-label span{color:#cdd6f4;}#my-svg .cluster-label span p{background-color:transparent;}#my-svg .label text,#my-svg span{fill:#cdd6f4;color:#cdd6f4;}#my-svg .node rect,#my-svg .node circle,#my-svg .node ellipse,#my-svg .node polygon,#my-svg .node path{fill:#313244;stroke:#a6adc8;stroke-width:1px;}#my-svg .rough-node .label text,#my-svg .node .label text,#my-svg .image-shape .label,#my-svg .icon-shape .label{text-anchor:middle;}#my-svg .node .katex path{fill:#000;stroke:#000;stroke-width:1px;}#my-svg .rough-node .label,#my-svg .node .label,#my-svg .image-shape .label,#my-svg .icon-shape .label{text-align:center;}#my-svg .node.clickable{cursor:pointer;}#my-svg .root .anchor path{fill:#a6adc8!important;stroke-width:0;stroke:#a6adc8;}#my-svg .arrowheadPath{fill:#e1e1d1;}#my-svg .edgePath .path{stroke:#a6adc8;stroke-width:1px;}#my-svg .flowchart-link{stroke:#a6adc8;fill:none;}#my-svg .edgeLabel{background-color:#1e1e2e;text-align:center;}#my-svg .edgeLabel p{background-color:#1e1e2e;}#my-svg .edgeLabel rect{opacity:0.5;background-color:#1e1e2e;fill:#1e1e2e;}#my-svg .labelBkg{background-color:rgba(30, 30, 46, 0.5);}#my-svg .cluster rect{fill:#313244;stroke:#6c7086;stroke-width:1px;}#my-svg .cluster text{fill:#cdd6f4;}#my-svg .cluster span{color:#cdd6f4;}#my-svg div.mermaidTooltip{position:absolute;text-align:center;max-width:200px;padding:2px;font-family:JetBrains Mono,Fira Code,DejaVu Sans Mono,monospace;font-size:12px;background:#313244;border:1px solid #6c7086;border-radius:2px;pointer-events:none;z-index:100;}#my-svg .flowchartTitleText{text-anchor:middle;font-size:18px;fill:#cdd6f4;}#my-svg rect.text{fill:none;stroke-width:0;}#my-svg .icon-shape,#my-svg .image-shape{background-color:#1e1e2e;text-align:center;}#my-svg .icon-shape p,#my-svg .image-shape p{background-color:#1e1e2e;padding:2px;}#my-svg .icon-shape .label rect,#my-svg .image-shape .label rect{opacity:0.5;background-color:#1e1e2e;fill:#1e1e2e;}#my-svg .label-icon{display:inline-block;height:1em;overflow:visible;vertical-align:-0.125em;}#my-svg .node .label-icon path{fill:currentColor;stroke:revert;stroke-width:revert;}#my-svg .node .neo-node{stroke:#a6adc8;}#my-svg [data-look="neo"].node rect,#my-svg [data-look="neo"].cluster rect,#my-svg [data-look="neo"].node polygon{stroke:url(#my-svg-gradient);filter:drop-shadow( 1px 2px 2px rgba(185,185,185,1));}#my-svg [data-look="neo"].node path{stroke:url(#my-svg-gradient);stroke-width:1px;}#my-svg [data-look="neo"].node .outer-path{filter:drop-shadow( 1px 2px 2px rgba(185,185,185,1));}#my-svg [data-look="neo"].node .neo-line path{stroke:#a6adc8;filter:none;}#my-svg [data-look="neo"].node circle{stroke:url(#my-svg-gradient);filter:drop-shadow( 1px 2px 2px rgba(185,185,185,1));}#my-svg [data-look="neo"].node circle .state-start{fill:#000000;}#my-svg [data-look="neo"].icon-shape .icon{fill:url(#my-svg-gradient);filter:drop-shadow( 1px 2px 2px rgba(185,185,185,1));}#my-svg [data-look="neo"].icon-shape .icon-neo path{stroke:url(#my-svg-gradient);filter:drop-shadow( 1px 2px 2px rgba(185,185,185,1));}#my-svg :root{--mermaid-font-family:JetBrains Mono,Fira Code,DejaVu Sans Mono,monospace;}#my-svg .root&gt;*{fill:#89b4fa!important;stroke:#89b4fa!important;color:#1e1e2e!important;font-weight:bold!important;}#my-svg .root span{fill:#89b4fa!important;stroke:#89b4fa!important;color:#1e1e2e!important;font-weight:bold!important;}#my-svg .root tspan{fill:#1e1e2e!important;}#my-svg .default__aspect_default__c&gt;*{fill:#a6e3a1!important;stroke:#a6e3a1!important;color:#1e1e2e!important;stroke-dasharray:3 3!important;stroke-width:1px!important;}#my-svg .default__aspect_default__c span{fill:#a6e3a1!important;stroke:#a6e3a1!important;color:#1e1e2e!important;stroke-dasharray:3 3!important;stroke-width:1px!important;}#my-svg .default__aspect_default__c tspan{fill:#1e1e2e!important;}#my-svg .den__provides__default__aspect_default__den__provides_c&gt;*{fill:#a6e3a1!important;stroke:#a6e3a1!important;color:#1e1e2e!important;stroke-width:2px!important;}#my-svg .den__provides__default__aspect_default__den__provides_c span{fill:#a6e3a1!important;stroke:#a6e3a1!important;color:#1e1e2e!important;stroke-width:2px!important;}#my-svg .den__provides__default__aspect_default__den__provides_c tspan{fill:#1e1e2e!important;}#my-svg .default__cross_provide_home__c&gt;*{fill:#f9e2af!important;stroke:#f9e2af!important;color:#1e1e2e!important;stroke-dasharray:3 3!important;stroke-width:1px!important;}#my-svg .default__cross_provide_home__c span{fill:#f9e2af!important;stroke:#f9e2af!important;color:#1e1e2e!important;stroke-dasharray:3 3!important;stroke-width:1px!important;}#my-svg .default__cross_provide_home__c tspan{fill:#1e1e2e!important;}#my-svg .default__self_provide_default__c&gt;*{fill:#fab387!important;stroke:#fab387!important;color:#1e1e2e!important;stroke-dasharray:3 3!important;stroke-width:1px!important;}#my-svg .default__self_provide_default__c span{fill:#fab387!important;stroke:#fab387!important;color:#1e1e2e!important;stroke-dasharray:3 3!important;stroke-width:1px!important;}#my-svg .default__self_provide_default__c tspan{fill:#1e1e2e!important;}#my-svg .home__aspect_home__c&gt;*{fill:#cba6f7!important;stroke:#cba6f7!important;color:#1e1e2e!important;stroke-dasharray:3 3!important;stroke-width:1px!important;}#my-svg .home__aspect_home__c span{fill:#cba6f7!important;stroke:#cba6f7!important;color:#1e1e2e!important;stroke-dasharray:3 3!important;stroke-width:1px!important;}#my-svg .home__aspect_home__c tspan{fill:#1e1e2e!important;}#my-svg .home__cross_provide__anon___c&gt;*{fill:#cba6f7!important;stroke:#cba6f7!important;color:#1e1e2e!important;stroke-dasharray:3 3!important;stroke-width:1px!important;}#my-svg .home__cross_provide__anon___c span{fill:#cba6f7!important;stroke:#cba6f7!important;color:#1e1e2e!important;stroke-dasharray:3 3!important;stroke-width:1px!important;}#my-svg .home__cross_provide__anon___c tspan{fill:#1e1e2e!important;}#my-svg .home__self_provide_home__c&gt;*{fill:#f38ba8!important;stroke:#f38ba8!important;color:#1e1e2e!important;stroke-dasharray:3 3!important;stroke-width:1px!important;}#my-svg .home__self_provide_home__c span{fill:#f38ba8!important;stroke:#f38ba8!important;color:#1e1e2e!important;stroke-dasharray:3 3!important;stroke-width:1px!important;}#my-svg .home__self_provide_home__c tspan{fill:#1e1e2e!important;}</style><g><marker id="my-svg_flowchart-v2-pointEnd" class="marker flowchart-v2" viewBox="0 0 10 10" refX="5" refY="5" markerUnits="userSpaceOnUse" markerWidth="8" markerHeight="8" orient="auto"><path d="M 0 0 L 10 5 L 0 10 z" class="arrowMarkerPath" style="stroke-width: 1; stroke-dasharray: 1, 0;"/></marker><marker id="my-svg_flowchart-v2-pointStart" class="marker flowchart-v2" viewBox="0 0 10 10" refX="4.5" refY="5" markerUnits="userSpaceOnUse" markerWidth="8" markerHeight="8" orient="auto"><path d="M 0 5 L 10 10 L 10 0 z" class="arrowMarkerPath" style="stroke-width: 1; stroke-dasharray: 1, 0;"/></marker><marker id="my-svg_flowchart-v2-pointEnd-margin" class="marker flowchart-v2" viewBox="0 0 11.5 14" refX="11.5" refY="7" markerUnits="userSpaceOnUse" markerWidth="10.5" markerHeight="14" orient="auto"><path d="M 0 0 L 11.5 7 L 0 14 z" class="arrowMarkerPath" style="stroke-width: 0; stroke-dasharray: 1, 0;"/></marker><marker id="my-svg_flowchart-v2-pointStart-margin" class="marker flowchart-v2" viewBox="0 0 11.5 14" refX="1" refY="7" markerUnits="userSpaceOnUse" markerWidth="11.5" markerHeight="14" orient="auto"><polygon points="0,7 11.5,14 11.5,0" class="arrowMarkerPath" style="stroke-width: 0; stroke-dasharray: 1, 0;"/></marker><marker id="my-svg_flowchart-v2-circleEnd" class="marker flowchart-v2" viewBox="0 0 10 10" refX="11" refY="5" markerUnits="userSpaceOnUse" markerWidth="11" markerHeight="11" orient="auto"><circle cx="5" cy="5" r="5" class="arrowMarkerPath" style="stroke-width: 1; stroke-dasharray: 1, 0;"/></marker><marker id="my-svg_flowchart-v2-circleStart" class="marker flowchart-v2" viewBox="0 0 10 10" refX="-1" refY="5" markerUnits="userSpaceOnUse" markerWidth="11" markerHeight="11" orient="auto"><circle cx="5" cy="5" r="5" class="arrowMarkerPath" style="stroke-width: 1; stroke-dasharray: 1, 0;"/></marker><marker id="my-svg_flowchart-v2-circleEnd-margin" class="marker flowchart-v2" viewBox="0 0 10 10" refY="5" refX="12.25" markerUnits="userSpaceOnUse" markerWidth="14" markerHeight="14" orient="auto"><circle cx="5" cy="5" r="5" class="arrowMarkerPath" style="stroke-width: 0; stroke-dasharray: 1, 0;"/></marker><marker id="my-svg_flowchart-v2-circleStart-margin" class="marker flowchart-v2" viewBox="0 0 10 10" refX="-2" refY="5" markerUnits="userSpaceOnUse" markerWidth="14" markerHeight="14" orient="auto"><circle cx="5" cy="5" r="5" class="arrowMarkerPath" style="stroke-width: 0; stroke-dasharray: 1, 0;"/></marker><marker id="my-svg_flowchart-v2-crossEnd" class="marker cross flowchart-v2" viewBox="0 0 11 11" refX="12" refY="5.2" markerUnits="userSpaceOnUse" markerWidth="11" markerHeight="11" orient="auto"><path d="M 1,1 l 9,9 M 10,1 l -9,9" class="arrowMarkerPath" style="stroke-width: 2; stroke-dasharray: 1, 0;"/></marker><marker id="my-svg_flowchart-v2-crossStart" class="marker cross flowchart-v2" viewBox="0 0 11 11" refX="-1" refY="5.2" markerUnits="userSpaceOnUse" markerWidth="11" markerHeight="11" orient="auto"><path d="M 1,1 l 9,9 M 10,1 l -9,9" class="arrowMarkerPath" style="stroke-width: 2; stroke-dasharray: 1, 0;"/></marker><marker id="my-svg_flowchart-v2-crossEnd-margin" class="marker cross flowchart-v2" viewBox="0 0 15 15" refX="17.7" refY="7.5" markerUnits="userSpaceOnUse" markerWidth="12" markerHeight="12" orient="auto"><path d="M 1,1 L 14,14 M 1,14 L 14,1" class="arrowMarkerPath" style="stroke-width: 2.5;"/></marker><marker id="my-svg_flowchart-v2-crossStart-margin" class="marker cross flowchart-v2" viewBox="0 0 15 15" refX="-3.5" refY="7.5" markerUnits="userSpaceOnUse" markerWidth="12" markerHeight="12" orient="auto"><path d="M 1,1 L 14,14 M 1,14 L 14,1" class="arrowMarkerPath" style="stroke-width: 2.5; stroke-dasharray: 1, 0;"/></marker></g><defs><filter id="my-svg-drop-shadow" height="130%" width="130%"><feDropShadow dx="4" dy="4" stdDeviation="0" flood-opacity="0.06" flood-color="#000000"/></filter></defs><defs><filter id="my-svg-drop-shadow-small" height="150%" width="150%"><feDropShadow dx="2" dy="2" stdDeviation="0" flood-opacity="0.06" flood-color="#000000"/></filter></defs><linearGradient id="my-svg-gradient" gradientUnits="objectBoundingBox" x1="0%" y1="0%" x2="100%" y2="0%"><stop offset="0%" stop-color="#a6adc8" stop-opacity="1"/><stop offset="100%" stop-color="#6c7086" stop-opacity="1"/></linearGradient><g class="subgraphs"><g class="subgraph"><g class="cluster " id="[object Object]" data-look="classic"><rect style="fill:#313244 !important;stroke:#6c7086 !important;stroke-width:2px !important" x="331" y="12" width="528" height="390"/><g class="cluster-label " transform="translate(515, 12)"><foreignObject width="160" height="24"><div xmlns="http://www.w3.org/1999/xhtml" style="display: table-cell; white-space: nowrap; line-height: 1.5;"><span class="nodeLabel "><p>default { home }</p></span></div></foreignObject></g></g></g><g class="subgraph"><g class="cluster " id="[object Object]" data-look="classic"><rect style="fill:#313244 !important;stroke:#6c7086 !important;stroke-width:2px !important" x="12" y="58.5" width="284" height="297"/><g class="cluster-label " transform="translate(89, 58.5)"><foreignObject width="130" height="24"><div xmlns="http://www.w3.org/1999/xhtml" style="display: table-cell; white-space: nowrap; line-height: 1.5;"><span class="nodeLabel "><p>home { home }</p></span></div></foreignObject></g></g></g></g><g class="nodes"><g class="node default default__aspect_default__c " id="my-svg-flowchart-default__aspect_default_-4" data-look="classic" transform="translate(595, 186)"><rect class="basic label-container" style="fill:#a6e3a1 !important;stroke:#a6e3a1 !important;stroke-dasharray:3 3 !important;stroke-width:1px !important" x="-145" y="-27" width="290" height="54"/><g class="label" style="color:#1e1e2e !important" transform="translate(-115, -12)"><rect/><foreignObject width="230" height="24"><div style="color: rgb(30, 30, 46) !important; display: table; white-space: break-spaces; line-height: 1.5; max-width: 200px; text-align: center; width: 200px;" xmlns="http://www.w3.org/1999/xhtml"><span style="color:#1e1e2e !important" class="nodeLabel "><p>default/aspect(default)</p></span></div></foreignObject></g></g><g class="node default den__provides__default__aspect_default__den__provides_c " id="my-svg-flowchart-den__provides__default__aspect_default__den__provides-5" data-look="classic" transform="translate(595, 262.5)"><polygon points="-19.5,0 484.5,0 465,-39 0,-39" class="label-container" transform="translate(-232.5,19.5)" style="fill:#a6e3a1 !important;stroke:#a6e3a1 !important;stroke-width:2px !important"/><g class="label" style="color:#1e1e2e !important" transform="translate(-225, -12)"><rect/><foreignObject width="450" height="24"><div style="color: rgb(30, 30, 46) !important; display: table; white-space: break-spaces; line-height: 1.5; max-width: 200px; text-align: center; width: 200px;" xmlns="http://www.w3.org/1999/xhtml"><span style="color:#1e1e2e !important" class="nodeLabel "><p>provides/default/aspect(default):den/provides</p></span></div></foreignObject></g></g><g class="node default default__cross_provide_home__c " id="my-svg-flowchart-default__cross_provide_home_-6" data-look="classic" transform="translate(595, 90)"><rect class="basic label-container" style="fill:#f9e2af !important;stroke:#f9e2af !important;stroke-dasharray:3 3 !important;stroke-width:1px !important" x="-130" y="-39" width="260" height="78"/><g class="label" style="color:#1e1e2e !important" transform="translate(-100, -24)"><rect/><foreignObject width="200" height="48"><div style="color: rgb(30, 30, 46) !important; display: table; white-space: break-spaces; line-height: 1.5; max-width: 200px; text-align: center; width: 200px;" xmlns="http://www.w3.org/1999/xhtml"><span style="color:#1e1e2e !important" class="nodeLabel "><p>default/cross-provide(home)</p></span></div></foreignObject></g></g><g class="node default default__self_provide_default__c " id="my-svg-flowchart-default__self_provide_default_-7" data-look="classic" transform="translate(595, 351)"><rect class="basic label-container" style="fill:#fab387 !important;stroke:#fab387 !important;stroke-dasharray:3 3 !important;stroke-width:1px !important" x="-130" y="-39" width="260" height="78"/><g class="label" style="color:#1e1e2e !important" transform="translate(-100, -24)"><rect/><foreignObject width="200" height="48"><div style="color: rgb(30, 30, 46) !important; display: table; white-space: break-spaces; line-height: 1.5; max-width: 200px; text-align: center; width: 200px;" xmlns="http://www.w3.org/1999/xhtml"><span style="color:#1e1e2e !important" class="nodeLabel "><p>default/self-provide(default)</p></span></div></foreignObject></g></g><g class="node default home__aspect_home__c " id="my-svg-flowchart-home__aspect_home_-1" data-look="classic" transform="translate(154, 232.5)"><rect class="basic label-container" style="fill:#cba6f7 !important;stroke:#cba6f7 !important;stroke-dasharray:3 3 !important;stroke-width:1px !important" x="-115" y="-27" width="230" height="54"/><g class="label" style="color:#1e1e2e !important" transform="translate(-85, -12)"><rect/><foreignObject width="170" height="24"><div style="color: rgb(30, 30, 46) !important; display: table-cell; white-space: nowrap; line-height: 1.5; max-width: 200px; text-align: center;" xmlns="http://www.w3.org/1999/xhtml"><span style="color:#1e1e2e !important" class="nodeLabel "><p>home/aspect(home)</p></span></div></foreignObject></g></g><g class="node default home__cross_provide__anon___c " id="my-svg-flowchart-home__cross_provide__anon__-2" data-look="classic" transform="translate(154, 316.5)"><rect class="basic label-container" style="fill:#cba6f7 !important;stroke:#cba6f7 !important;stroke-dasharray:3 3 !important;stroke-width:1px !important" x="-130" y="-27" width="260" height="54"/><g class="label" style="color:#1e1e2e !important" transform="translate(-100, -12)"><rect/><foreignObject width="200" height="24"><div style="color: rgb(30, 30, 46) !important; display: table; white-space: break-spaces; line-height: 1.5; max-width: 200px; text-align: center; width: 200px;" xmlns="http://www.w3.org/1999/xhtml"><span style="color:#1e1e2e !important" class="nodeLabel "><p>home/cross-provide()</p></span></div></foreignObject></g></g><g class="node default home__self_provide_home__c " id="my-svg-flowchart-home__self_provide_home_-3" data-look="classic" transform="translate(154, 136.5)"><rect class="basic label-container" style="fill:#f38ba8 !important;stroke:#f38ba8 !important;stroke-dasharray:3 3 !important;stroke-width:1px !important" x="-130" y="-39" width="260" height="78"/><g class="label" style="color:#1e1e2e !important" transform="translate(-100, -24)"><rect/><foreignObject width="200" height="48"><div style="color: rgb(30, 30, 46) !important; display: table; white-space: break-spaces; line-height: 1.5; max-width: 200px; text-align: center; width: 200px;" xmlns="http://www.w3.org/1999/xhtml"><span style="color:#1e1e2e !important" class="nodeLabel "><p>home/self-provide(home)</p></span></div></foreignObject></g></g><g class="node default root " id="my-svg-flowchart-alice-0" data-look="classic" transform="translate(154, 410)"><g class="basic label-container outer-path"><path d="M-17.875 -19.5 C-7.2530583239389195 -19.5, 3.368883352122161 -19.5, 17.875 -19.5 C17.875 -19.5, 17.875 -19.5, 17.875 -19.5 C18.31353198505271 -19.485937132790088, 18.75206397010542 -19.471874265580173, 19.1243692896239 -19.45993515863156 C19.41124102672367 -19.432260987167286, 19.698112763823435 -19.404586815703013, 20.368604652847864 -19.3399052695533 C20.792792472329516 -19.27132587252518, 21.21698029181117 -19.202746475497054, 21.60259325967676 -19.140403561325776 C21.95030160911026 -19.06104139957661, 22.298009958543755 -18.981679237827443, 22.82126438623539 -18.862249829261074 C23.23586961393196 -18.739197173987982, 23.65047484162853 -18.616144518714894, 24.019610251460602 -18.50658706670804 C24.29674963675263 -18.40459721107218, 24.573889022044657 -18.30260735543632, 25.192706595147794 -18.074876768247425 C25.56122148120169 -17.911746159797058, 25.929736367255586 -17.748615551346695, 26.33573291279238 -17.568892924097174 C26.741867841860184 -17.35701259174434, 27.148002770927988 -17.145132259391502, 27.443992264076783 -16.990714730406097 C27.803036523254015 -16.773059990514586, 28.16208078243125 -16.555405250623075, 28.512930573605697 -16.342718045390892 C28.770675679602565 -16.16292621705329, 29.02842078559943 -15.983134388715685, 29.538155344578712 -15.627565626425154 C29.777993447868013 -15.436301121411907, 30.017831551157318 -15.245036616398657, 30.51545370850187 -14.848196188198123 C30.79131451525034 -14.597666702386146, 31.067175321998807 -14.347137216574168, 31.440809736767985 -14.007812326905688 C31.637712426539338 -13.804494133705289, 31.834615116310694 -13.601175940504888, 32.31042094296865 -13.10986736009568 C32.50136599397544 -12.88557243810191, 32.692311044982226 -12.661277516108138, 33.12071390812658 -12.158051136245305 C33.296893592912994 -11.921986408930977, 33.47307327769941 -11.68592168161665, 33.868358964640635 -11.156274872382312 C34.0184275372944 -10.925729245731974, 34.168496109948165 -10.695183619081634, 34.55028387860425 -10.108655082055241 C34.76261269735815 -9.731643763733345, 34.97494151611205 -9.354632445411449, 35.163686474273504 -9.019496659696287 C35.34310382657574 -8.646932688724334, 35.52252117887797 -8.274368717752383, 35.70604614880834 -7.893275190886684 C35.84762910010647 -7.543562563860177, 35.989212051404586 -7.19384993683367, 36.175134229970325 -6.734618561215508 C36.31738787153722 -6.3061732578558365, 36.45964151310411 -5.877727954496165, 36.56902313421488 -5.548287939305138 C36.63767123378336 -5.286502983375986, 36.70631933335183 -5.024718027446833, 36.88609428754556 -4.339158212148133 C36.96024960723419 -3.9583863182794032, 37.03440492692281 -3.5776144244106733, 37.125044776581774 -3.1121979531509023 C37.16190308668939 -2.82633217845279, 37.19876139679702 -2.5404664037546776, 37.28489270250937 -1.872449005199798 C37.30954326605095 -1.4884965804629111, 37.33419382959253 -1.1045441557260243, 37.36498121591342 -0.6250057626472757 C37.36498121591342 -0.160028894564889, 37.36498121591342 0.3049479735174977, 37.36498121591342 0.625005762647271 C37.33479760853031 1.095139811408497, 37.30461400114721 1.5652738601697225, 37.28489270250937 1.8724490051997846 C37.23183410322221 2.2839610236654364, 37.17877550393505 2.6954730421310886, 37.125044776581774 3.1121979531508885 C37.04765311552135 3.5095877759628116, 36.970261454460925 3.9069775987747346, 36.88609428754556 4.339158212148129 C36.797515493169925 4.676947545394762, 36.70893669879429 5.014736878641396, 36.56902313421489 5.548287939305125 C36.42204046937331 5.990976307300603, 36.275057804531734 6.433664675296081, 36.175134229970325 6.734618561215495 C36.02807985655495 7.097845706654366, 35.88102548313958 7.461072852093236, 35.70604614880834 7.893275190886679 C35.50635179081865 8.307944798027055, 35.306657432828956 8.722614405167432, 35.163686474273504 9.019496659696284 C34.94205065448026 9.413033500799584, 34.72041483468701 9.806570341902882, 34.55028387860425 10.108655082055236 C34.37779923818821 10.373637808345435, 34.20531459777218 10.638620534635637, 33.86835896464064 11.156274872382301 C33.61603722308334 11.494363019085545, 33.363715481526036 11.832451165788791, 33.12071390812658 12.158051136245302 C32.94348871693079 12.366229930222943, 32.76626352573499 12.574408724200584, 32.31042094296866 13.10986736009567 C31.966897541883693 13.464583475511647, 31.623374140798724 13.819299590927624, 31.44080973676799 14.007812326905684 C31.223232216064563 14.2054104744228, 31.005654695361137 14.403008621939918, 30.515453708501887 14.848196188198111 C30.16150341384 15.130462129178053, 29.80755311917811 15.412728070157996, 29.538155344578715 15.627565626425152 C29.272004276093156 15.813221090306618, 29.005853207607597 15.998876554188083, 28.512930573605708 16.34271804539089 C28.087490514118315 16.60062230961545, 27.662050454630926 16.85852657384001, 27.443992264076787 16.990714730406093 C27.139113395203623 17.149769841012986, 26.83423452633046 17.308824951619883, 26.335732912792388 17.56889292409717 C25.977592291923635 17.727431153091715, 25.619451671054883 17.885969382086262, 25.192706595147804 18.07487676824742 C24.944224246605476 18.166320569456648, 24.695741898063147 18.257764370665875, 24.019610251460616 18.506587066708033 C23.64027638478882 18.619171367172125, 23.260942518117023 18.731755667636218, 22.821264386235413 18.86224982926107 C22.474899831485907 18.941305278642695, 22.128535276736404 19.02036072802432, 21.602593259676766 19.140403561325773 C21.221880373353663 19.201954268313962, 20.841167487030564 19.263504975302155, 20.36860465284788 19.3399052695533 C20.1159631328055 19.364277293145904, 19.863321612763123 19.388649316738512, 19.1243692896239 19.45993515863156 C18.83872745127844 19.469095136419188, 18.55308561293298 19.478255114206817, 17.875000000000004 19.5 C17.875000000000004 19.5, 17.875 19.5, 17.875 19.5 C6.235111823636533 19.5, -5.404776352726934 19.5, -17.874999999999996 19.5 C-18.129432076114504 19.491840858541, -18.38386415222901 19.483681717082, -19.124369289623893 19.45993515863156 C-19.46896404498039 19.426692517018147, -19.813558800336885 19.39344987540473, -20.36860465284787 19.3399052695533 C-20.714763461076068 19.283940997940615, -21.060922269304267 19.22797672632793, -21.60259325967676 19.140403561325773 C-21.940964991487633 19.063172421621847, -22.279336723298506 18.98594128191792, -22.821264386235388 18.862249829261074 C-23.299407623774293 18.720339426184598, -23.777550861313202 18.57842902310812, -24.01961025146059 18.506587066708043 C-24.379568605206803 18.37411906511089, -24.739526958953014 18.24165106351374, -25.192706595147797 18.074876768247425 C-25.509837644628885 17.934492260000486, -25.826968694109972 17.794107751753547, -26.33573291279238 17.568892924097174 C-26.764666341618547 17.34511862902354, -27.193599770444713 17.1213443339499, -27.44399226407678 16.990714730406097 C-27.849719511017337 16.74476048899277, -28.255446757957895 16.49880624757945, -28.512930573605686 16.3427180453909 C-28.91766953576342 16.06038966625695, -29.322408497921156 15.778061287123002, -29.538155344578712 15.627565626425156 C-29.777809309966038 15.436447966488618, -30.017463275353364 15.245330306552079, -30.51545370850187 14.848196188198125 C-30.7534654145138 14.632040254242739, -30.991477120525737 14.415884320287354, -31.440809736767974 14.007812326905697 C-31.666834591578297 13.774423107328348, -31.89285944638862 13.541033887750997, -32.310420942968655 13.109867360095677 C-32.58525754637328 12.787028647090846, -32.8600941497779 12.464189934086015, -33.120713908126575 12.158051136245307 C-33.317319899378965 11.894617019141373, -33.51392589063136 11.63118290203744, -33.868358964640635 11.156274872382316 C-34.06044150165349 10.861184514147304, -34.25252403866635 10.566094155912293, -34.55028387860425 10.108655082055249 C-34.74462280814594 9.763586633703444, -34.938961737687634 9.418518185351639, -35.163686474273504 9.019496659696289 C-35.33757009189879 8.658423607183973, -35.51145370952408 8.297350554671656, -35.70604614880834 7.893275190886686 C-35.88073513306798 7.4617900223836315, -36.05542411732762 7.030304853880577, -36.175134229970325 6.73461856121551 C-36.294456922790616 6.375237621930086, -36.413779615610906 6.015856682644662, -36.56902313421488 5.5482879393051325 C-36.68221809848173 5.1166264815478, -36.79541306274858 4.6849650237904665, -36.88609428754556 4.339158212148136 C-36.964746001688766 3.9352982830684438, -37.04339771583197 3.5314383539887517, -37.125044776581774 3.112197953150904 C-37.186410739843716 2.6362556601714098, -37.24777670310565 2.160313367191915, -37.28489270250937 1.872449005199809 C-37.30655948117686 1.5349714383445745, -37.328226259844364 1.1974938714893402, -37.36498121591342 0.6250057626472781 C-37.36498121591342 0.3148732300827181, -37.36498121591342 0.004740697518158088, -37.36498121591342 -0.6250057626472687 C-37.33368792054161 -1.1124240975566198, -37.30239462516979 -1.5998424324659708, -37.28489270250937 -1.8724490051997822 C-37.234041520943485 -2.266840727723172, -37.1831903393776 -2.661232450246562, -37.125044776581774 -3.112197953150895 C-37.07086419603613 -3.390403783183023, -37.016683615490486 -3.6686096132151507, -36.88609428754556 -4.339158212148126 C-36.80650645099394 -4.642661126506013, -36.72691861444232 -4.9461640408639, -36.56902313421489 -5.548287939305123 C-36.42281877493397 -5.988632174958031, -36.276614415653064 -6.4289764106109395, -36.17513422997033 -6.734618561215485 C-36.00209356205846 -7.162032356471523, -35.82905289414659 -7.589446151727561, -35.70604614880834 -7.893275190886676 C-35.527979730555295 -8.263033918400124, -35.34991331230225 -8.632792645913574, -35.163686474273504 -9.019496659696282 C-34.94602809690179 -9.40597114902044, -34.72836971953007 -9.792445638344597, -34.55028387860425 -10.108655082055243 C-34.35659502055151 -10.406213180765105, -34.16290616249877 -10.703771279474969, -33.86835896464064 -11.156274872382308 C-33.57244896536127 -11.552767313461164, -33.27653896608189 -11.94925975454002, -33.12071390812659 -12.158051136245302 C-32.944875906028464 -12.364600458975522, -32.76903790393034 -12.571149781705742, -32.31042094296866 -13.10986736009567 C-32.070326729825325 -13.35778434726766, -31.83023251668199 -13.60570133443965, -31.440809736767996 -14.007812326905677 C-31.150481353691667 -14.271480882747523, -30.860152970615342 -14.53514943858937, -30.515453708501887 -14.848196188198107 C-30.25424598030534 -15.056502400405284, -29.99303825210879 -15.26480861261246, -29.53815534457872 -15.627565626425149 C-29.225923447208967 -15.845365081729296, -28.913691549839214 -16.063164537033444, -28.51293057360571 -16.342718045390885 C-28.26331292410989 -16.494037731431387, -28.01369527461407 -16.645357417471885, -27.44399226407679 -16.99071473040609 C-27.001494076865548 -17.22156575124058, -26.558995889654305 -17.452416772075072, -26.335732912792388 -17.56889292409717 C-26.00407622302331 -17.715707502411792, -25.672419533254235 -17.862522080726414, -25.192706595147804 -18.07487676824742 C-24.897969592375585 -18.183342709786587, -24.603232589603365 -18.29180865132575, -24.01961025146062 -18.506587066708033 C-23.578499659485146 -18.637506374969607, -23.13738906750967 -18.768425683231182, -22.821264386235413 -18.862249829261067 C-22.460675958933326 -18.944551784733378, -22.10008753163124 -19.026853740205684, -21.602593259676766 -19.140403561325773 C-21.341041221633997 -19.18268926647018, -21.079489183591228 -19.224974971614586, -20.368604652847882 -19.3399052695533 C-19.89959897699493 -19.385149683040982, -19.430593301141975 -19.430394096528666, -19.124369289623903 -19.45993515863156 C-18.66687531399495 -19.474606099971975, -18.209381338365997 -19.489277041312395, -17.875000000000007 -19.5 C-17.875000000000004 -19.5, -17.875000000000004 -19.5, -17.875 -19.5" stroke="none" stroke-width="0" fill="#89b4fa" style="fill:#89b4fa !important;stroke:#89b4fa !important"/><path d="M-17.875 -19.5 C-9.575212559952536 -19.5, -1.2754251199050728 -19.5, 17.875 -19.5 M-17.875 -19.5 C-8.623492356210617 -19.5, 0.6280152875787657 -19.5, 17.875 -19.5 M17.875 -19.5 C17.875 -19.5, 17.875 -19.5, 17.875 -19.5 M17.875 -19.5 C17.875 -19.5, 17.875 -19.5, 17.875 -19.5 M17.875 -19.5 C18.36913633176914 -19.484154009618187, 18.863272663538282 -19.46830801923637, 19.1243692896239 -19.45993515863156 M17.875 -19.5 C18.313059908862517 -19.485952271354666, 18.75111981772503 -19.471904542709332, 19.1243692896239 -19.45993515863156 M19.1243692896239 -19.45993515863156 C19.49982756536029 -19.42371515032591, 19.875285841096687 -19.38749514202026, 20.368604652847864 -19.3399052695533 M19.1243692896239 -19.45993515863156 C19.381216547624472 -19.435157412556265, 19.638063805625045 -19.41037966648097, 20.368604652847864 -19.3399052695533 M20.368604652847864 -19.3399052695533 C20.776516645941566 -19.27395722191466, 21.184428639035268 -19.208009174276025, 21.60259325967676 -19.140403561325776 M20.368604652847864 -19.3399052695533 C20.630868593302743 -19.29750446954779, 20.893132533757626 -19.25510366954228, 21.60259325967676 -19.140403561325776 M21.60259325967676 -19.140403561325776 C21.903044880105117 -19.071827439593058, 22.203496500533475 -19.003251317860336, 22.82126438623539 -18.862249829261074 M21.60259325967676 -19.140403561325776 C21.91288185908704 -19.06958221333272, 22.223170458497318 -18.998760865339666, 22.82126438623539 -18.862249829261074 M22.82126438623539 -18.862249829261074 C23.27501682233886 -18.727578488020704, 23.72876925844233 -18.592907146780338, 24.019610251460602 -18.50658706670804 M22.82126438623539 -18.862249829261074 C23.223214316479265 -18.742953199842933, 23.625164246723134 -18.62365657042479, 24.019610251460602 -18.50658706670804 M24.019610251460602 -18.50658706670804 C24.3032029212755 -18.402222342714254, 24.5867955910904 -18.297857618720467, 25.192706595147794 -18.074876768247425 M24.019610251460602 -18.50658706670804 C24.450758370237757 -18.347920573508524, 24.881906489014916 -18.18925408030901, 25.192706595147794 -18.074876768247425 M25.192706595147794 -18.074876768247425 C25.48323054270075 -17.946270434752435, 25.773754490253705 -17.817664101257446, 26.33573291279238 -17.568892924097174 M25.192706595147794 -18.074876768247425 C25.468356460448476 -17.95285474974154, 25.74400632574916 -17.83083273123566, 26.33573291279238 -17.568892924097174 M26.33573291279238 -17.568892924097174 C26.71544772768606 -17.37079594838609, 27.095162542579736 -17.172698972675004, 27.443992264076783 -16.990714730406097 M26.33573291279238 -17.568892924097174 C26.73273881318853 -17.36177520015492, 27.129744713584675 -17.154657476212666, 27.443992264076783 -16.990714730406097 M27.443992264076783 -16.990714730406097 C27.78270035617878 -16.785387894504176, 28.12140844828078 -16.580061058602258, 28.512930573605697 -16.342718045390892 M27.443992264076783 -16.990714730406097 C27.80495676563319 -16.771895928299735, 28.1659212671896 -16.553077126193372, 28.512930573605697 -16.342718045390892 M28.512930573605697 -16.342718045390892 C28.83844949405028 -16.115650137975702, 29.163968414494864 -15.888582230560514, 29.538155344578712 -15.627565626425154 M28.512930573605697 -16.342718045390892 C28.793336315259026 -16.147119138582447, 29.073742056912355 -15.951520231774001, 29.538155344578712 -15.627565626425154 M29.538155344578712 -15.627565626425154 C29.85242633978603 -15.376942870849728, 30.16669733499335 -15.1263201152743, 30.51545370850187 -14.848196188198123 M29.538155344578712 -15.627565626425154 C29.785701006620567 -15.430154548413498, 30.03324666866242 -15.232743470401841, 30.51545370850187 -14.848196188198123 M30.51545370850187 -14.848196188198123 C30.8582467852897 -14.536880585667218, 31.20103986207753 -14.225564983136312, 31.440809736767985 -14.007812326905688 M30.51545370850187 -14.848196188198123 C30.705903748041752 -14.675234501319919, 30.896353787581635 -14.502272814441714, 31.440809736767985 -14.007812326905688 M31.440809736767985 -14.007812326905688 C31.786791078267274 -13.650558186211262, 32.13277241976657 -13.293304045516836, 32.31042094296865 -13.10986736009568 M31.440809736767985 -14.007812326905688 C31.785863006677666 -13.651516496323627, 32.13091627658735 -13.295220665741565, 32.31042094296865 -13.10986736009568 M32.31042094296865 -13.10986736009568 C32.5123761603406 -12.872639270193172, 32.71433137771256 -12.635411180290665, 33.12071390812658 -12.158051136245305 M32.31042094296865 -13.10986736009568 C32.60408610983899 -12.764911545068415, 32.89775127670932 -12.419955730041147, 33.12071390812658 -12.158051136245305 M33.12071390812658 -12.158051136245305 C33.36340732178798 -11.83286407176385, 33.60610073544939 -11.507677007282398, 33.868358964640635 -11.156274872382312 M33.12071390812658 -12.158051136245305 C33.41046002338392 -11.769817738214599, 33.700206138641256 -11.381584340183892, 33.868358964640635 -11.156274872382312 M33.868358964640635 -11.156274872382312 C34.07196395816347 -10.843482926735167, 34.27556895168631 -10.530690981088021, 34.55028387860425 -10.108655082055241 M33.868358964640635 -11.156274872382312 C34.04214117645093 -10.88929872798382, 34.21592338826123 -10.622322583585326, 34.55028387860425 -10.108655082055241 M34.55028387860425 -10.108655082055241 C34.7702901765824 -9.718011621941619, 34.99029647456055 -9.327368161827994, 35.163686474273504 -9.019496659696287 M34.55028387860425 -10.108655082055241 C34.753716231257094 -9.747440340160647, 34.95714858390994 -9.386225598266053, 35.163686474273504 -9.019496659696287 M35.163686474273504 -9.019496659696287 C35.33854352861036 -8.65640224502419, 35.51340058294722 -8.293307830352093, 35.70604614880834 -7.893275190886684 M35.163686474273504 -9.019496659696287 C35.363098698294635 -8.605412909778325, 35.562510922315774 -8.191329159860361, 35.70604614880834 -7.893275190886684 M35.70604614880834 -7.893275190886684 C35.808097534489825 -7.641206295224106, 35.9101489201713 -7.389137399561529, 36.175134229970325 -6.734618561215508 M35.70604614880834 -7.893275190886684 C35.80375412707275 -7.651934595518349, 35.90146210533715 -7.410594000150014, 36.175134229970325 -6.734618561215508 M36.175134229970325 -6.734618561215508 C36.308114532368066 -6.3341030779273675, 36.44109483476581 -5.933587594639227, 36.56902313421488 -5.548287939305138 M36.175134229970325 -6.734618561215508 C36.31622958325038 -6.309661837627612, 36.45732493653044 -5.884705114039716, 36.56902313421488 -5.548287939305138 M36.56902313421488 -5.548287939305138 C36.64681865490929 -5.251619902105415, 36.72461417560369 -4.954951864905692, 36.88609428754556 -4.339158212148133 M36.56902313421488 -5.548287939305138 C36.658182073808945 -5.2082862609041225, 36.74734101340301 -4.868284582503108, 36.88609428754556 -4.339158212148133 M36.88609428754556 -4.339158212148133 C36.9410871158506 -4.0567816615401275, 36.99607994415564 -3.774405110932123, 37.125044776581774 -3.1121979531509023 M36.88609428754556 -4.339158212148133 C36.96901523389388 -3.9133766779977215, 37.0519361802422 -3.48759514384731, 37.125044776581774 -3.1121979531509023 M37.125044776581774 -3.1121979531509023 C37.185752700439096 -2.6413592838490487, 37.24646062429642 -2.170520614547195, 37.28489270250937 -1.872449005199798 M37.125044776581774 -3.1121979531509023 C37.17544357759346 -2.721314804873215, 37.22584237860515 -2.330431656595528, 37.28489270250937 -1.872449005199798 M37.28489270250937 -1.872449005199798 C37.315489427930586 -1.3958803095320527, 37.346086153351806 -0.9193116138643073, 37.36498121591342 -0.6250057626472757 M37.28489270250937 -1.872449005199798 C37.306440383007796 -1.5368264884621463, 37.327988063506226 -1.201203971724495, 37.36498121591342 -0.6250057626472757 M37.36498121591342 -0.6250057626472757 C37.36498121591342 -0.26044948753940084, 37.36498121591342 0.10410678756847402, 37.36498121591342 0.625005762647271 M37.36498121591342 -0.6250057626472757 C37.36498121591342 -0.14552300222514525, 37.36498121591342 0.3339597581969852, 37.36498121591342 0.625005762647271 M37.36498121591342 0.625005762647271 C37.34467198362282 0.9413384488905896, 37.32436275133222 1.2576711351339083, 37.28489270250937 1.8724490051997846 M37.36498121591342 0.625005762647271 C37.344028273004284 0.9513647613681073, 37.32307533009515 1.2777237600889437, 37.28489270250937 1.8724490051997846 M37.28489270250937 1.8724490051997846 C37.24741729999087 2.1631008267779666, 37.209941897472376 2.453752648356148, 37.125044776581774 3.1121979531508885 M37.28489270250937 1.8724490051997846 C37.23230221826221 2.280330415854927, 37.179711734015065 2.688211826510069, 37.125044776581774 3.1121979531508885 M37.125044776581774 3.1121979531508885 C37.06740609266173 3.408160413140174, 37.00976740874168 3.70412287312946, 36.88609428754556 4.339158212148129 M37.125044776581774 3.1121979531508885 C37.04724036208133 3.5117071776418265, 36.9694359475809 3.911216402132764, 36.88609428754556 4.339158212148129 M36.88609428754556 4.339158212148129 C36.7746476582536 4.764152510913062, 36.66320102896164 5.189146809677997, 36.56902313421489 5.548287939305125 M36.88609428754556 4.339158212148129 C36.820218449889154 4.5903713319006565, 36.75434261223275 4.841584451653185, 36.56902313421489 5.548287939305125 M36.56902313421489 5.548287939305125 C36.427554836862356 5.974367911018732, 36.28608653950983 6.40044788273234, 36.175134229970325 6.734618561215495 M36.56902313421489 5.548287939305125 C36.44157922563227 5.9321286865266645, 36.314135317049654 6.315969433748203, 36.175134229970325 6.734618561215495 M36.175134229970325 6.734618561215495 C36.038802491903105 7.071360590036377, 35.902470753835885 7.40810261885726, 35.70604614880834 7.893275190886679 M36.175134229970325 6.734618561215495 C36.044340118169934 7.057682546094583, 35.91354600636954 7.38074653097367, 35.70604614880834 7.893275190886679 M35.70604614880834 7.893275190886679 C35.59078023972965 8.132627317383928, 35.475514330650974 8.371979443881179, 35.163686474273504 9.019496659696284 M35.70604614880834 7.893275190886679 C35.53076050524179 8.25725958026458, 35.35547486167523 8.621243969642483, 35.163686474273504 9.019496659696284 M35.163686474273504 9.019496659696284 C34.92225741819603 9.448178396104739, 34.68082836211856 9.876860132513194, 34.55028387860425 10.108655082055236 M35.163686474273504 9.019496659696284 C34.98643852609594 9.334218339986554, 34.809190577918365 9.648940020276825, 34.55028387860425 10.108655082055236 M34.55028387860425 10.108655082055236 C34.2855690823395 10.515328094993647, 34.02085428607475 10.92200110793206, 33.86835896464064 11.156274872382301 M34.55028387860425 10.108655082055236 C34.32545562042988 10.454051661451663, 34.10062736225551 10.799448240848088, 33.86835896464064 11.156274872382301 M33.86835896464064 11.156274872382301 C33.69637063034098 11.386723571884266, 33.52438229604131 11.617172271386233, 33.12071390812658 12.158051136245302 M33.86835896464064 11.156274872382301 C33.606539477696735 11.507089132641191, 33.34471999075283 11.857903392900083, 33.12071390812658 12.158051136245302 M33.12071390812658 12.158051136245302 C32.842018485594274 12.485422637770537, 32.563323063061965 12.812794139295772, 32.31042094296866 13.10986736009567 M33.12071390812658 12.158051136245302 C32.85045749184962 12.47550970082995, 32.58020107557266 12.792968265414599, 32.31042094296866 13.10986736009567 M32.31042094296866 13.10986736009567 C31.970590441498125 13.460770253467052, 31.630759940027584 13.811673146838432, 31.44080973676799 14.007812326905684 M32.31042094296866 13.10986736009567 C32.05490760452376 13.373705860075255, 31.799394266078856 13.637544360054841, 31.44080973676799 14.007812326905684 M31.44080973676799 14.007812326905684 C31.116725213701454 14.302137315948118, 30.79264069063492 14.59646230499055, 30.515453708501887 14.848196188198111 M31.44080973676799 14.007812326905684 C31.244584777438735 14.186018643140592, 31.048359818109482 14.364224959375502, 30.515453708501887 14.848196188198111 M30.515453708501887 14.848196188198111 C30.25857115580047 15.053053188045672, 30.00168860309906 15.257910187893232, 29.538155344578715 15.627565626425152 M30.515453708501887 14.848196188198111 C30.184693303463938 15.111968809311842, 29.853932898425988 15.37574143042557, 29.538155344578715 15.627565626425152 M29.538155344578715 15.627565626425152 C29.154878585493663 15.894922901779397, 28.77160182640861 16.162280177133642, 28.512930573605708 16.34271804539089 M29.538155344578715 15.627565626425152 C29.246592085969386 15.83094753406098, 28.955028827360053 16.03432944169681, 28.512930573605708 16.34271804539089 M28.512930573605708 16.34271804539089 C28.21980503510009 16.520412469429864, 27.92667949659447 16.69810689346884, 27.443992264076787 16.990714730406093 M28.512930573605708 16.34271804539089 C28.162620514960917 16.55507806159177, 27.812310456316123 16.767438077792658, 27.443992264076787 16.990714730406093 M27.443992264076787 16.990714730406093 C27.09589789207024 17.17231534131682, 26.74780352006369 17.353915952227553, 26.335732912792388 17.56889292409717 M27.443992264076787 16.990714730406093 C27.07869229949305 17.181291487943636, 26.71339233490931 17.371868245481178, 26.335732912792388 17.56889292409717 M26.335732912792388 17.56889292409717 C25.999097346387448 17.71791150340536, 25.662461779982507 17.86693008271355, 25.192706595147804 18.07487676824742 M26.335732912792388 17.56889292409717 C26.017618809659147 17.709712601034667, 25.699504706525907 17.850532277972164, 25.192706595147804 18.07487676824742 M25.192706595147804 18.07487676824742 C24.912458009661208 18.178010838296014, 24.632209424174608 18.281144908344608, 24.019610251460616 18.506587066708033 M25.192706595147804 18.07487676824742 C24.821656583324913 18.211426602546954, 24.45060657150202 18.347976436846487, 24.019610251460616 18.506587066708033 M24.019610251460616 18.506587066708033 C23.658112910358405 18.613877580008904, 23.296615569256193 18.721168093309778, 22.821264386235413 18.86224982926107 M24.019610251460616 18.506587066708033 C23.75071356210926 18.58639419263999, 23.481816872757904 18.66620131857195, 22.821264386235413 18.86224982926107 M22.821264386235413 18.86224982926107 C22.354599637101746 18.968763012978744, 21.88793488796808 19.07527619669642, 21.602593259676766 19.140403561325773 M22.821264386235413 18.86224982926107 C22.409578352693526 18.95621447991457, 21.99789231915164 19.05017913056807, 21.602593259676766 19.140403561325773 M21.602593259676766 19.140403561325773 C21.16239636594803 19.21157118132594, 20.722199472219295 19.282738801326108, 20.36860465284788 19.3399052695533 M21.602593259676766 19.140403561325773 C21.178638748247405 19.208945238917334, 20.754684236818047 19.27748691650889, 20.36860465284788 19.3399052695533 M20.36860465284788 19.3399052695533 C19.95511664598191 19.379793960283575, 19.54162863911594 19.41968265101385, 19.1243692896239 19.45993515863156 M20.36860465284788 19.3399052695533 C19.90023818420886 19.385088019489814, 19.43187171556984 19.43027076942633, 19.1243692896239 19.45993515863156 M19.1243692896239 19.45993515863156 C18.807099672876056 19.470109377712816, 18.489830056128213 19.480283596794074, 17.875000000000004 19.5 M19.1243692896239 19.45993515863156 C18.723841587016896 19.472779302474287, 18.323313884409895 19.485623446317014, 17.875000000000004 19.5 M17.875000000000004 19.5 C17.875000000000004 19.5, 17.875 19.5, 17.875 19.5 M17.875000000000004 19.5 C17.875000000000004 19.5, 17.875 19.5, 17.875 19.5 M17.875 19.5 C9.068304225806708 19.5, 0.26160845161341584 19.5, -17.874999999999996 19.5 M17.875 19.5 C9.654589195447711 19.5, 1.434178390895422 19.5, -17.874999999999996 19.5 M-17.874999999999996 19.5 C-18.150684878462013 19.491159322535786, -18.426369756924032 19.482318645071572, -19.124369289623893 19.45993515863156 M-17.874999999999996 19.5 C-18.27047875004163 19.487317766238853, -18.665957500083262 19.47463553247771, -19.124369289623893 19.45993515863156 M-19.124369289623893 19.45993515863156 C-19.50264386982391 19.423443464821407, -19.880918450023927 19.386951771011255, -20.36860465284787 19.3399052695533 M-19.124369289623893 19.45993515863156 C-19.44520221805993 19.428984791883384, -19.76603514649597 19.398034425135208, -20.36860465284787 19.3399052695533 M-20.36860465284787 19.3399052695533 C-20.66046328342923 19.29271982955839, -20.95232191401059 19.245534389563478, -21.60259325967676 19.140403561325773 M-20.36860465284787 19.3399052695533 C-20.800774036974143 19.27003547505139, -21.232943421100416 19.200165680549485, -21.60259325967676 19.140403561325773 M-21.60259325967676 19.140403561325773 C-21.978971928553058 19.054497586255106, -22.355350597429357 18.96859161118444, -22.821264386235388 18.862249829261074 M-21.60259325967676 19.140403561325773 C-22.03511818390098 19.0416825698605, -22.467643108125205 18.942961578395227, -22.821264386235388 18.862249829261074 M-22.821264386235388 18.862249829261074 C-23.063062973767707 18.790485277708168, -23.304861561300022 18.718720726155265, -24.01961025146059 18.506587066708043 M-22.821264386235388 18.862249829261074 C-23.13185509200638 18.770068138112126, -23.44244579777737 18.677886446963182, -24.01961025146059 18.506587066708043 M-24.01961025146059 18.506587066708043 C-24.30541066009688 18.401409874419873, -24.591211068733166 18.296232682131702, -25.192706595147797 18.074876768247425 M-24.01961025146059 18.506587066708043 C-24.458126840172408 18.345208908459185, -24.89664342888422 18.183830750210326, -25.192706595147797 18.074876768247425 M-25.192706595147797 18.074876768247425 C-25.580939721666798 17.903017479663976, -25.9691728481858 17.73115819108053, -26.33573291279238 17.568892924097174 M-25.192706595147797 18.074876768247425 C-25.48288307968819 17.946424246320973, -25.773059564228586 17.817971724394518, -26.33573291279238 17.568892924097174 M-26.33573291279238 17.568892924097174 C-26.675307633339052 17.391737009895966, -27.01488235388572 17.214581095694758, -27.44399226407678 16.990714730406097 M-26.33573291279238 17.568892924097174 C-26.59817819053051 17.431975390805416, -26.860623468268642 17.295057857513655, -27.44399226407678 16.990714730406097 M-27.44399226407678 16.990714730406097 C-27.784807832888102 16.784110329738077, -28.12562340169943 16.577505929070057, -28.512930573605686 16.3427180453909 M-27.44399226407678 16.990714730406097 C-27.791601821802555 16.779991773732224, -28.139211379528334 16.569268817058354, -28.512930573605686 16.3427180453909 M-28.512930573605686 16.3427180453909 C-28.901635212315995 16.0715745161792, -29.290339851026307 15.800430986967498, -29.538155344578712 15.627565626425156 M-28.512930573605686 16.3427180453909 C-28.864254753444488 16.097649506113978, -29.21557893328329 15.852580966837058, -29.538155344578712 15.627565626425156 M-29.538155344578712 15.627565626425156 C-29.748165885351412 15.460087808774125, -29.95817642612411 15.292609991123095, -30.51545370850187 14.848196188198125 M-29.538155344578712 15.627565626425156 C-29.77370736841714 15.439719155716618, -30.00925939225556 15.25187268500808, -30.51545370850187 14.848196188198125 M-30.51545370850187 14.848196188198125 C-30.809835473901643 14.580846457776744, -31.104217239301416 14.313496727355362, -31.440809736767974 14.007812326905697 M-30.51545370850187 14.848196188198125 C-30.730931766477177 14.652504717181948, -30.94640982445248 14.45681324616577, -31.440809736767974 14.007812326905697 M-31.440809736767974 14.007812326905697 C-31.74831306153979 13.690289897586316, -32.055816386311605 13.372767468266934, -32.310420942968655 13.109867360095677 M-31.440809736767974 14.007812326905697 C-31.659495891807378 13.782000917360277, -31.87818204684678 13.556189507814857, -32.310420942968655 13.109867360095677 M-32.310420942968655 13.109867360095677 C-32.488473387254956 12.900716827565896, -32.66652583154126 12.691566295036113, -33.120713908126575 12.158051136245307 M-32.310420942968655 13.109867360095677 C-32.49778965528863 12.889773409022876, -32.6851583676086 12.669679457950075, -33.120713908126575 12.158051136245307 M-33.120713908126575 12.158051136245307 C-33.37172945698481 11.82171316876222, -33.622745005843036 11.485375201279131, -33.868358964640635 11.156274872382316 M-33.120713908126575 12.158051136245307 C-33.40428172576949 11.778096094163432, -33.68784954341241 11.398141052081556, -33.868358964640635 11.156274872382316 M-33.868358964640635 11.156274872382316 C-34.042846310229976 10.888215453144285, -34.21733365581931 10.620156033906255, -34.55028387860425 10.108655082055249 M-33.868358964640635 11.156274872382316 C-34.103214270958844 10.795474054397518, -34.33806957727706 10.434673236412722, -34.55028387860425 10.108655082055249 M-34.55028387860425 10.108655082055249 C-34.74148263479547 9.769162329464244, -34.93268139098669 9.429669576873241, -35.163686474273504 9.019496659696289 M-34.55028387860425 10.108655082055249 C-34.79429956473361 9.675380522064955, -35.03831525086298 9.242105962074662, -35.163686474273504 9.019496659696289 M-35.163686474273504 9.019496659696289 C-35.37471314034173 8.581295272358282, -35.58573980640996 8.143093885020274, -35.70604614880834 7.893275190886686 M-35.163686474273504 9.019496659696289 C-35.367616338107844 8.596031934044195, -35.57154620194218 8.1725672083921, -35.70604614880834 7.893275190886686 M-35.70604614880834 7.893275190886686 C-35.840130503210894 7.562084243167744, -35.97421485761345 7.230893295448801, -36.175134229970325 6.73461856121551 M-35.70604614880834 7.893275190886686 C-35.852956613203546 7.5304035035099295, -35.99986707759875 7.167531816133173, -36.175134229970325 6.73461856121551 M-36.175134229970325 6.73461856121551 C-36.25737186035077 6.486931921296616, -36.33960949073121 6.239245281377722, -36.56902313421488 5.5482879393051325 M-36.175134229970325 6.73461856121551 C-36.29750269162093 6.366064251490551, -36.41987115327153 5.997509941765591, -36.56902313421488 5.5482879393051325 M-36.56902313421488 5.5482879393051325 C-36.69242258702819 5.077712344066823, -36.81582203984151 4.6071367488285135, -36.88609428754556 4.339158212148136 M-36.56902313421488 5.5482879393051325 C-36.66464552547637 5.1836383184185495, -36.76026791673786 4.818988697531966, -36.88609428754556 4.339158212148136 M-36.88609428754556 4.339158212148136 C-36.954560639638615 3.987597964518928, -37.02302699173167 3.63603771688972, -37.125044776581774 3.112197953150904 M-36.88609428754556 4.339158212148136 C-36.9666228504347 3.9256610614301866, -37.04715141332384 3.5121639107122373, -37.125044776581774 3.112197953150904 M-37.125044776581774 3.112197953150904 C-37.17165399818348 2.750706034439922, -37.218263219785186 2.38921411572894, -37.28489270250937 1.872449005199809 M-37.125044776581774 3.112197953150904 C-37.16815865817115 2.777815201342597, -37.21127253976053 2.4434324495342903, -37.28489270250937 1.872449005199809 M-37.28489270250937 1.872449005199809 C-37.31495224902016 1.404247304665013, -37.34501179553095 0.936045604130217, -37.36498121591342 0.6250057626472781 M-37.28489270250937 1.872449005199809 C-37.30418641877435 1.5719338007652315, -37.32348013503933 1.271418596330654, -37.36498121591342 0.6250057626472781 M-37.36498121591342 0.6250057626472781 C-37.36498121591342 0.35740056793472574, -37.36498121591342 0.08979537322217335, -37.36498121591342 -0.6250057626472687 M-37.36498121591342 0.6250057626472781 C-37.36498121591342 0.18984099261728227, -37.36498121591342 -0.2453237774127136, -37.36498121591342 -0.6250057626472687 M-37.36498121591342 -0.6250057626472687 C-37.34146282068789 -0.9913237519918368, -37.31794442546236 -1.3576417413364048, -37.28489270250937 -1.8724490051997822 M-37.36498121591342 -0.6250057626472687 C-37.336299053337626 -1.0717535965901597, -37.30761689076183 -1.5185014305330506, -37.28489270250937 -1.8724490051997822 M-37.28489270250937 -1.8724490051997822 C-37.23437779359987 -2.2642326634047842, -37.18386288469038 -2.656016321609786, -37.125044776581774 -3.112197953150895 M-37.28489270250937 -1.8724490051997822 C-37.25161372580593 -2.130554176834348, -37.2183347491025 -2.3886593484689143, -37.125044776581774 -3.112197953150895 M-37.125044776581774 -3.112197953150895 C-37.03495738212315 -3.5747776837183634, -36.94486998766453 -4.0373574142858315, -36.88609428754556 -4.339158212148126 M-37.125044776581774 -3.112197953150895 C-37.056273703598805 -3.465322878147033, -36.98750263061583 -3.8184478031431706, -36.88609428754556 -4.339158212148126 M-36.88609428754556 -4.339158212148126 C-36.79039393332302 -4.704105139594581, -36.69469357910047 -5.069052067041038, -36.56902313421489 -5.548287939305123 M-36.88609428754556 -4.339158212148126 C-36.82123932501355 -4.586478292601252, -36.75638436248154 -4.833798373054377, -36.56902313421489 -5.548287939305123 M-36.56902313421489 -5.548287939305123 C-36.4612490041064 -5.8728864477161835, -36.35347487399791 -6.197484956127244, -36.17513422997033 -6.734618561215485 M-36.56902313421489 -5.548287939305123 C-36.44514054166623 -5.921402570051031, -36.32125794911757 -6.294517200796939, -36.17513422997033 -6.734618561215485 M-36.17513422997033 -6.734618561215485 C-36.024769693934964 -7.106021872323374, -35.8744051578996 -7.477425183431262, -35.70604614880834 -7.893275190886676 M-36.17513422997033 -6.734618561215485 C-36.04279773885387 -7.061492252825135, -35.910461247737416 -7.388365944434786, -35.70604614880834 -7.893275190886676 M-35.70604614880834 -7.893275190886676 C-35.50079421842081 -8.319485216024175, -35.29554228803327 -8.745695241161673, -35.163686474273504 -9.019496659696282 M-35.70604614880834 -7.893275190886676 C-35.54782955013761 -8.22181534331935, -35.38961295146688 -8.550355495752024, -35.163686474273504 -9.019496659696282 M-35.163686474273504 -9.019496659696282 C-34.920531874141346 -9.451242274304123, -34.67737727400918 -9.882987888911963, -34.55028387860425 -10.108655082055243 M-35.163686474273504 -9.019496659696282 C-34.92627992725482 -9.441036023947655, -34.68887338023613 -9.862575388199028, -34.55028387860425 -10.108655082055243 M-34.55028387860425 -10.108655082055243 C-34.34376337218654 -10.425926038433747, -34.137242865768826 -10.743196994812251, -33.86835896464064 -11.156274872382308 M-34.55028387860425 -10.108655082055243 C-34.30902038938632 -10.479300589812055, -34.06775690016839 -10.849946097568868, -33.86835896464064 -11.156274872382308 M-33.86835896464064 -11.156274872382308 C-33.68460085138767 -11.402494003432787, -33.50084273813469 -11.648713134483266, -33.12071390812659 -12.158051136245302 M-33.86835896464064 -11.156274872382308 C-33.66467792245397 -11.429188913187783, -33.460996880267295 -11.702102953993256, -33.12071390812659 -12.158051136245302 M-33.12071390812659 -12.158051136245302 C-32.85718425910888 -12.467608057243329, -32.59365461009117 -12.777164978241355, -32.31042094296866 -13.10986736009567 M-33.12071390812659 -12.158051136245302 C-32.93624975952358 -12.3747332215018, -32.751785610920564 -12.5914153067583, -32.31042094296866 -13.10986736009567 M-32.31042094296866 -13.10986736009567 C-31.97991999250641 -13.451136726080614, -31.64941904204416 -13.792406092065557, -31.440809736767996 -14.007812326905677 M-32.31042094296866 -13.10986736009567 C-32.114832043887745 -13.311828956543971, -31.91924314480683 -13.51379055299227, -31.440809736767996 -14.007812326905677 M-31.440809736767996 -14.007812326905677 C-31.213862110456265 -14.213920156416847, -30.986914484144535 -14.420027985928016, -30.515453708501887 -14.848196188198107 M-31.440809736767996 -14.007812326905677 C-31.188097849339286 -14.237318576678293, -30.935385961910576 -14.466824826450909, -30.515453708501887 -14.848196188198107 M-30.515453708501887 -14.848196188198107 C-30.287585639325773 -15.029914909542073, -30.059717570149658 -15.21163363088604, -29.53815534457872 -15.627565626425149 M-30.515453708501887 -14.848196188198107 C-30.127879447338497 -15.157276347691672, -29.740305186175107 -15.466356507185237, -29.53815534457872 -15.627565626425149 M-29.53815534457872 -15.627565626425149 C-29.224574408362287 -15.846306112829788, -28.910993472145858 -16.065046599234428, -28.51293057360571 -16.342718045390885 M-29.53815534457872 -15.627565626425149 C-29.326720393894394 -15.775053495151036, -29.115285443210073 -15.922541363876924, -28.51293057360571 -16.342718045390885 M-28.51293057360571 -16.342718045390885 C-28.102057135251812 -16.591791938281354, -27.691183696897912 -16.840865831171826, -27.44399226407679 -16.99071473040609 M-28.51293057360571 -16.342718045390885 C-28.116876162516093 -16.582808556867477, -27.720821751426474 -16.822899068344068, -27.44399226407679 -16.99071473040609 M-27.44399226407679 -16.99071473040609 C-27.102977759777787 -17.168621778868665, -26.761963255478783 -17.34652882733124, -26.335732912792388 -17.56889292409717 M-27.44399226407679 -16.99071473040609 C-27.190801298184287 -17.122804295135655, -26.937610332291783 -17.254893859865224, -26.335732912792388 -17.56889292409717 M-26.335732912792388 -17.56889292409717 C-25.953688752583616 -17.73801254088424, -25.571644592374845 -17.90713215767131, -25.192706595147804 -18.07487676824742 M-26.335732912792388 -17.56889292409717 C-26.101638451606448 -17.672519597898724, -25.867543990420504 -17.776146271700274, -25.192706595147804 -18.07487676824742 M-25.192706595147804 -18.07487676824742 C-24.88740482881376 -18.18723064043694, -24.582103062479717 -18.29958451262646, -24.01961025146062 -18.506587066708033 M-25.192706595147804 -18.07487676824742 C-24.763728089073442 -18.232744823916626, -24.33474958299908 -18.39061287958583, -24.01961025146062 -18.506587066708033 M-24.01961025146062 -18.506587066708033 C-23.551230336527784 -18.645599766883755, -23.082850421594948 -18.784612467059475, -22.821264386235413 -18.862249829261067 M-24.01961025146062 -18.506587066708033 C-23.556711806212668 -18.6439728954541, -23.093813360964717 -18.78135872420017, -22.821264386235413 -18.862249829261067 M-22.821264386235413 -18.862249829261067 C-22.53873862304705 -18.926734491055907, -22.256212859858685 -18.99121915285075, -21.602593259676766 -19.140403561325773 M-22.821264386235413 -18.862249829261067 C-22.340784950969688 -18.971916124939135, -21.860305515703967 -19.0815824206172, -21.602593259676766 -19.140403561325773 M-21.602593259676766 -19.140403561325773 C-21.309832743523742 -19.18773481118568, -21.017072227370722 -19.235066061045593, -20.368604652847882 -19.3399052695533 M-21.602593259676766 -19.140403561325773 C-21.220661849346218 -19.20215126982569, -20.83873043901567 -19.263898978325614, -20.368604652847882 -19.3399052695533 M-20.368604652847882 -19.3399052695533 C-20.002847210939127 -19.375189450086555, -19.637089769030375 -19.410473630619812, -19.124369289623903 -19.45993515863156 M-20.368604652847882 -19.3399052695533 C-19.948998384338235 -19.380384181626052, -19.529392115828585 -19.42086309369881, -19.124369289623903 -19.45993515863156 M-19.124369289623903 -19.45993515863156 C-18.738836610021156 -19.47229844127258, -18.353303930418413 -19.484661723913604, -17.875000000000007 -19.5 M-19.124369289623903 -19.45993515863156 C-18.792572145662213 -19.47057524723445, -18.460775001700522 -19.481215335837337, -17.875000000000007 -19.5 M-17.875000000000007 -19.5 C-17.875000000000004 -19.5, -17.875000000000004 -19.5, -17.875 -19.5 M-17.875000000000007 -19.5 C-17.875000000000004 -19.5, -17.875000000000004 -19.5, -17.875 -19.5" stroke="#89b4fa" stroke-width="1.3" fill="none" stroke-dasharray="0 0" style="fill:#89b4fa !important;stroke:#89b4fa !important"/></g><g class="label" style="color:#1e1e2e !important;font-weight:bold !important" transform="translate(-25, -12)"><rect/><foreignObject width="50" height="24"><div style="color: rgb(30, 30, 46) !important; font-weight: bold !important; display: table-cell; white-space: nowrap; line-height: 1.5; max-width: 200px; text-align: center;" xmlns="http://www.w3.org/1999/xhtml"><span style="color:#1e1e2e !important;font-weight:bold !important" class="nodeLabel "><p>alice</p></span></div></foreignObject></g></g></g><g class="edges edgePaths"><path d="M296,207L327,207" id="my-svg-L_ctx_home_ctx_default_0_0" class=" edge-thickness-normal edge-pattern-solid edge-thickness-normal edge-pattern-solid flowchart-link" style=";" data-edge="true" data-et="edge" data-id="L_ctx_home_ctx_default_0_0" data-points="W3sieCI6Mjk2LCJ5IjoyMDd9LHsieCI6MzMxLCJ5IjoyMDd9XQ==" data-look="classic" marker-end="url(#my-svg_flowchart-v2-pointEnd)"/></g><g class="edgeLabels"><g class="edgeLabel"><g class="label" data-id="L_ctx_home_ctx_default_0_0" transform="translate(0, 0)"><foreignObject width="0" height="0"><div xmlns="http://www.w3.org/1999/xhtml" class="labelBkg" style="display: table-cell; white-space: nowrap; line-height: 1.5; max-width: 200px; text-align: center;"><span class="edgeLabel "></span></div></foreignObject></g></g></g></svg>