<?plantuml 1.2026.2?><svg xmlns="http://www.w3.org/2000/svg" xmlns:xlink="http://www.w3.org/1999/xlink" contentStyleType="text/css" data-diagram-type="DESCRIPTION" height="497px" preserveAspectRatio="none" style="width:2576px;height:497px;background:#1E1E2E;" version="1.1" viewBox="0 0 2576 497" width="2576px" zoomAndPan="magnify"><defs/><g><rect fill="#1E1E2E" height="497" style="stroke:none;stroke-width:1;" width="2576" x="0" y="0"/><!--cluster home { home }--><g class="cluster" data-qualified-name="home . home ." data-source-line="23" id="ent0003"><path d="M1395.5,202.24 L1505.6995,202.24 A3.75,3.75 0 0 1 1508.1995,204.74 L1515.1995,226.7199 L2566.5,226.7199 A2.5,2.5 0 0 1 2569,229.2199 L2569,488.18 A2.5,2.5 0 0 1 2566.5,490.68 L1395.5,490.68 A2.5,2.5 0 0 1 1393,488.18 L1393,204.74 A2.5,2.5 0 0 1 1395.5,202.24" fill="#313244" style="stroke:#6C7086;stroke-width:1.5;"/><line style="stroke:#6C7086;stroke-width:1.5;" x1="1393" x2="1515.1995" y1="226.7199" y2="226.7199"/><text fill="#CDD6F4" font-family="'JetBrains Mono,monospace'" font-size="14" font-weight="bold" lengthAdjust="spacing" textLength="109.1995" x="1397" y="218.5199">home { home }</text></g><!--cluster default { home }--><g class="cluster" data-qualified-name="default . home ." data-source-line="40" id="ent0019"><path d="M8.5,87.76 L143.8994,87.76 A3.75,3.75 0 0 1 146.3994,90.26 L153.3994,112.2399 L1035.5,112.2399 A2.5,2.5 0 0 1 1038,114.7399 L1038,389.7 A2.5,2.5 0 0 1 1035.5,392.2 L8.5,392.2 A2.5,2.5 0 0 1 6,389.7 L6,90.26 A2.5,2.5 0 0 1 8.5,87.76" fill="#313244" style="stroke:#6C7086;stroke-width:1.5;"/><line style="stroke:#6C7086;stroke-width:1.5;" x1="6" x2="153.3994" y1="112.2399" y2="112.2399"/><text fill="#CDD6F4" font-family="'JetBrains Mono,monospace'" font-size="14" font-weight="bold" lengthAdjust="spacing" textLength="134.3994" x="10" y="104.0399">default { home }</text></g><!--entity alice_dotfiles--><g class="entity" data-qualified-name="home . home ..alice_dotfiles" data-source-line="24" id="ent0004"><rect fill="#F2CDCD" height="38.4799" rx="2.5" ry="2.5" style="stroke:#A6ADC8;stroke-width:0.5;" width="137.5995" x="1661.2" y="337.72"/><text fill="#1E1E2E" font-family="'JetBrains Mono,monospace'" font-size="14" lengthAdjust="spacing" textLength="117.5995" x="1671.2" y="361.9999">alice-dotfiles</text></g><!--entity demo_shell--><g class="entity" data-qualified-name="home . home ..demo_shell" data-source-line="25" id="ent0005"><rect fill="#CBA6F7" height="38.4799" rx="2.5" ry="2.5" style="stroke:#A6ADC8;stroke-width:0.5;" width="103.9996" x="1834" y="337.72"/><text fill="#1E1E2E" font-family="'JetBrains Mono,monospace'" font-size="14" lengthAdjust="spacing" textLength="83.9996" x="1844" y="361.9999">demo-shell</text></g><!--entity dev_tools--><g class="entity" data-qualified-name="home . home ..dev_tools" data-source-line="26" id="ent0006"><rect fill="#F38BA8" height="38.4799" rx="2.5" ry="2.5" style="stroke:#A6ADC8;stroke-width:0.5;" width="95.5997" x="1409.2" y="337.72"/><text fill="#1E1E2E" font-family="'JetBrains Mono,monospace'" font-size="14" lengthAdjust="spacing" textLength="75.5997" x="1419.2" y="361.9999">dev-tools</text></g><!--entity home_bat--><g class="entity" data-qualified-name="home . home ..home_bat" data-source-line="27" id="ent0007"><rect fill="#F2CDCD" height="38.4799" rx="2.5" ry="2.5" style="stroke:#A6ADC8;stroke-width:0.5;" width="87.1997" x="1973.4" y="337.72"/><text fill="#1E1E2E" font-family="'JetBrains Mono,monospace'" font-size="14" lengthAdjust="spacing" textLength="67.1997" x="1983.4" y="361.9999">home-bat</text></g><!--entity home_dev--><g class="entity" data-qualified-name="home . home ..home_dev" data-source-line="28" id="ent0008"><rect fill="#F38BA8" height="38.4799" rx="2.5" ry="2.5" style="stroke:#A6ADC8;stroke-width:0.5;" width="87.1997" x="1796.4" y="239.24"/><text fill="#1E1E2E" font-family="'JetBrains Mono,monospace'" font-size="14" lengthAdjust="spacing" textLength="67.1997" x="1806.4" y="263.5199">home-dev</text></g><!--entity home_firefox--><g class="entity" data-qualified-name="home . home ..home_firefox" data-source-line="29" id="ent0009"><rect fill="#F38BA8" height="38.4799" rx="2.5" ry="2.5" style="stroke:#A6ADC8;stroke-width:0.5;" width="120.7996" x="2254.6" y="337.72"/><text fill="#1E1E2E" font-family="'JetBrains Mono,monospace'" font-size="14" lengthAdjust="spacing" textLength="100.7996" x="2264.6" y="361.9999">home-firefox</text></g><!--entity home_git--><g class="entity" data-qualified-name="home . home ..home_git" data-source-line="30" id="ent0010"><rect fill="#CBA6F7" height="38.4799" rx="2.5" ry="2.5" style="stroke:#A6ADC8;stroke-width:0.5;" width="87.1997" x="2095.4" y="337.72"/><text fill="#1E1E2E" font-family="'JetBrains Mono,monospace'" font-size="14" lengthAdjust="spacing" textLength="67.1997" x="2105.4" y="361.9999">home-git</text></g><!--entity home_productivity--><g class="entity" data-qualified-name="home . home ..home_productivity" data-source-line="31" id="ent0011"><rect fill="#CBA6F7" height="38.4799" rx="2.5" ry="2.5" style="stroke:#A6ADC8;stroke-width:0.5;" width="162.7994" x="1918.6" y="239.24"/><text fill="#1E1E2E" font-family="'JetBrains Mono,monospace'" font-size="14" lengthAdjust="spacing" textLength="142.7994" x="1928.6" y="263.5199">home-productivity</text></g><!--entity home_slack--><g class="entity" data-qualified-name="home . home ..home_slack" data-source-line="32" id="ent0012"><rect fill="#F2CDCD" height="38.4799" rx="2.5" ry="2.5" style="stroke:#A6ADC8;stroke-width:0.5;" width="103.9996" x="2410" y="337.72"/><text fill="#1E1E2E" font-family="'JetBrains Mono,monospace'" font-size="14" lengthAdjust="spacing" textLength="83.9996" x="2420" y="361.9999">home-slack</text></g><!--entity home__aspect_home_--><g class="entity" data-qualified-name="home . home ..home__aspect_home_" data-source-line="33" id="ent0013"><rect fill="#CBA6F7" height="38.4799" rx="2.5" ry="2.5" style="stroke:#A6ADC8;stroke-width:0.5;" width="162.7994" x="2116.6" y="239.24"/><text fill="#1E1E2E" font-family="'JetBrains Mono,monospace'" font-size="14" lengthAdjust="spacing" textLength="142.7994" x="2126.6" y="263.5199">home/aspect(home)</text></g><!--entity home__cross_provide__anon__--><g class="entity" data-qualified-name="home . home ..home__cross_provide__anon__" data-source-line="34" id="ent0014"><rect fill="#CBA6F7" height="38.4799" rx="2.5" ry="2.5" style="stroke:#A6ADC8;stroke-width:0.5;" width="238.399" x="2314.8" y="239.24"/><text fill="#1E1E2E" font-family="'JetBrains Mono,monospace'" font-size="14" lengthAdjust="spacing" textLength="218.399" x="2324.8" y="263.5199">home/cross-provide(&lt;anon&gt;)</text></g><!--entity home__self_provide_home_--><g class="entity" data-qualified-name="home . home ..home__self_provide_home_" data-source-line="35" id="ent0015"><rect fill="#F38BA8" height="38.4799" rx="2.5" ry="2.5" style="stroke:#A6ADC8;stroke-width:0.5;" width="213.1992" x="1910.4" y="436.2"/><text fill="#1E1E2E" font-family="'JetBrains Mono,monospace'" font-size="14" lengthAdjust="spacing" textLength="193.1992" x="1920.4" y="460.4799">home/self-provide(home)</text></g><!--entity hyprland--><g class="entity" data-qualified-name="home . home ..hyprland" data-source-line="36" id="ent0016"><rect fill="#CBA6F7" height="38.4799" rx="2.5" ry="2.5" style="stroke:#A6ADC8;stroke-width:0.5;" width="87.1997" x="1539.4" y="337.72"/><text fill="#1E1E2E" font-family="'JetBrains Mono,monospace'" font-size="14" lengthAdjust="spacing" textLength="67.1997" x="1549.4" y="361.9999">hyprland</text></g><!--entity primary_user--><g class="entity" data-qualified-name="home . home ..primary_user" data-source-line="37" id="ent0017"><rect fill="#CBA6F7" height="38.4799" rx="2.5" ry="2.5" style="stroke:#A6ADC8;stroke-width:0.5;" width="120.7996" x="1408.6" y="239.24"/><text fill="#1E1E2E" font-family="'JetBrains Mono,monospace'" font-size="14" lengthAdjust="spacing" textLength="100.7996" x="1418.6" y="263.5199">primary-user</text></g><!--entity den__provides__primary_user--><g class="entity" data-qualified-name="home . home ..den__provides__primary_user" data-source-line="38" id="ent0018"><rect fill="#CBA6F7" height="24.4799" rx="2.5" ry="2.5" style="stroke:#A6ADC8;stroke-width:0.5;" width="196.3992" x="1564.8" y="246.24"/><text fill="#1E1E2E" font-family="'JetBrains Mono,monospace'" font-size="14" lengthAdjust="spacing" textLength="176.3992" x="1574.8" y="263.5199">provides/primary-user</text></g><!--entity n_default--><g class="entity" data-qualified-name="default . home ..n_default" data-source-line="41" id="ent0020"><polygon fill="#FAB387" points="741,148.24,636,124.76,426,124.76,321,148.24,426,171.72,636,171.72,741,148.24" style="stroke:#A6ADC8;stroke-width:0.5;"/><text fill="#1E1E2E" font-family="'JetBrains Mono,monospace'" font-size="14" lengthAdjust="spacing" textLength="58.7997" x="425.9995" y="144.0399">default</text><text fill="#1E1E2E" font-family="'JetBrains Mono,monospace'" font-size="14" lengthAdjust="spacing" textLength="209.9991" x="425.9995" y="162.5199">({ aspect-chain, class })</text></g><!--entity default__aspect_default_--><g class="entity" data-qualified-name="default . home ..default__aspect_default_" data-source-line="42" id="ent0021"><rect fill="#A6E3A1" height="38.4799" rx="2.5" ry="2.5" style="stroke:#A6ADC8;stroke-width:0.5;" width="213.1992" x="318.4" y="337.72"/><text fill="#1E1E2E" font-family="'JetBrains Mono,monospace'" font-size="14" lengthAdjust="spacing" textLength="193.1992" x="328.4" y="361.9999">default/aspect(default)</text></g><!--entity den__provides__default__aspect_default__den__provides--><g class="entity" data-qualified-name="default . home ..den__provides__default__aspect_default__den__provides" data-source-line="43" id="ent0022"><rect fill="#A6E3A1" height="24.4799" rx="2.5" ry="2.5" style="stroke:#A6ADC8;stroke-width:0.5;" width="397.9984" x="590" y="344.72"/><text fill="#1E1E2E" font-family="'JetBrains Mono,monospace'" font-size="14" lengthAdjust="spacing" textLength="377.9984" x="600" y="361.9999">provides/default/aspect(default):den/provides</text></g><!--entity default__cross_provide_home_--><g class="entity" data-qualified-name="default . home ..default__cross_provide_home_" data-source-line="44" id="ent0023"><rect fill="#F9E2AF" height="38.4799" rx="2.5" ry="2.5" style="stroke:#A6ADC8;stroke-width:0.5;" width="246.799" x="775.6" y="129"/><text fill="#1E1E2E" font-family="'JetBrains Mono,monospace'" font-size="14" lengthAdjust="spacing" textLength="226.799" x="785.6" y="153.2799">default/cross-provide(home)</text></g><!--entity default__self_provide_default_--><g class="entity" data-qualified-name="default . home ..default__self_provide_default_" data-source-line="45" id="ent0024"><rect fill="#FAB387" height="38.4799" rx="2.5" ry="2.5" style="stroke:#A6ADC8;stroke-width:0.5;" width="263.5989" x="22.2" y="129"/><text fill="#1E1E2E" font-family="'JetBrains Mono,monospace'" font-size="14" lengthAdjust="spacing" textLength="243.5989" x="32.2" y="153.2799">default/self-provide(default)</text></g><!--entity den__provides__define_user--><g class="entity" data-qualified-name="default . home ..den__provides__define_user" data-source-line="46" id="ent0025"><rect fill="#A6E3A1" height="24.4799" rx="2.5" ry="2.5" style="stroke:#A6ADC8;stroke-width:0.5;" width="187.9993" x="707" y="246.24"/><text fill="#1E1E2E" font-family="'JetBrains Mono,monospace'" font-size="14" lengthAdjust="spacing" textLength="167.9993" x="717" y="263.5199">provides/define-user</text></g><!--entity den__provides__hostname--><g class="entity" data-qualified-name="default . home ..den__provides__hostname" data-source-line="47" id="ent0026"><rect fill="#FAB387" height="24.4799" rx="2.5" ry="2.5" style="stroke:#A6ADC8;stroke-width:0.5;" width="162.7994" x="215.6" y="246.24"/><text fill="#1E1E2E" font-family="'JetBrains Mono,monospace'" font-size="14" lengthAdjust="spacing" textLength="142.7994" x="225.6" y="263.5199">provides/hostname</text></g><!--entity den__provides__mutual_provider--><g class="entity" data-qualified-name="default . home ..den__provides__mutual_provider" data-source-line="48" id="ent0027"><rect fill="#F9E2AF" height="24.4799" rx="2.5" ry="2.5" style="stroke:#A6ADC8;stroke-width:0.5;" width="221.5991" x="450.2" y="246.24"/><text fill="#1E1E2E" font-family="'JetBrains Mono,monospace'" font-size="14" lengthAdjust="spacing" textLength="201.5991" x="460.2" y="263.5199">provides/mutual-provider</text></g><!--entity alice--><g class="entity" data-qualified-name="alice" data-source-line="22" id="ent0002"><rect fill="#89B4FA" height="38.4799" rx="2.5" ry="2.5" style="stroke:#A6ADC8;stroke-width:0.5;" width="61.9998" x="1289" y="129"/><text fill="#1E1E2E" font-family="'JetBrains Mono,monospace'" font-size="14" lengthAdjust="spacing" textLength="41.9998" x="1299" y="153.2799">alice</text></g><!--entity home--><g class="entity" data-qualified-name="home" data-source-line="50" id="ent0028"><rect fill="#A6E3A1" height="38.4799" rx="2.5" ry="2.5" style="stroke:#A6ADC8;stroke-width:0.5;" width="53.5999" x="1100.2" y="7"/><text fill="#1E1E2E" font-family="'JetBrains Mono,monospace'" font-size="14" lengthAdjust="spacing" textLength="33.5999" x="1110.2" y="31.2799">home</text></g><!--entity ctx_home--><g class="entity" data-qualified-name="ctx_home" data-source-line="90" id="ent0067"><ellipse cx="2286" cy="26.24" fill="#F1F1F1" rx="8" ry="8" style="stroke:#181818;stroke-width:0.5;"/><text fill="#CDD6F4" font-family="'JetBrains Mono,monospace'" font-size="14" lengthAdjust="spacing" textLength="67.1997" x="2252.4001" y="57.5199">ctx_home</text></g><!--entity ctx_default--><g class="entity" data-qualified-name="ctx_default" data-source-line="90" id="ent0068"><ellipse cx="2286" cy="148.24" fill="#F1F1F1" rx="8" ry="8" style="stroke:#181818;stroke-width:0.5;"/><text fill="#CDD6F4" font-family="'JetBrains Mono,monospace'" font-size="14" lengthAdjust="spacing" textLength="92.3996" x="2239.8002" y="179.5199">ctx_default</text></g><!--link alice to alice_dotfiles--><g class="link" data-entity-1="ent0002" data-entity-2="ent0004" data-link-type="dependency" data-source-line="52" id="lnk29"><path d="M1315.22,167.63 C1309.25,195.24 1302.85,247.37 1330,277.72 C1424.73,383.61 1504.72,309.65 1644,337.72 C1649.54,338.84 1649.3945,338.794 1655.1445,339.984" fill="none" id="alice-to-alice_dotfiles" style="stroke:#A6ADC8;stroke-width:1;"/><polygon fill="#A6ADC8" points="1661.02,341.2,1653.0174,335.459,1656.1238,340.1867,1651.3961,343.293,1661.02,341.2" style="stroke:#A6ADC8;stroke-width:1;"/></g><!--link alice to demo_shell--><g class="link" data-entity-1="ent0002" data-entity-2="ent0005" data-link-type="dependency" data-source-line="53" id="lnk30"><path d="M1327.86,167.97 C1341.76,200.2 1371.11,264.02 1391,277.72 C1548.11,385.92 1628.95,300.27 1816,337.72 C1821.79,338.88 1821.9751,338.8324 1827.9451,340.2624" fill="none" id="alice-to-demo_shell" style="stroke:#A6ADC8;stroke-width:1;"/><polygon fill="#A6ADC8" points="1833.78,341.66,1825.9594,335.6736,1828.9175,340.4953,1824.0958,343.4535,1833.78,341.66" style="stroke:#A6ADC8;stroke-width:1;"/></g><!--link alice to dev_tools--><g class="link" data-entity-1="ent0002" data-entity-2="ent0006" data-link-type="dependency" data-source-line="54" id="lnk31"><path d="M1288.62,150.11 C1257.33,152.85 1210.76,162.44 1188,194.24 C1166.41,224.41 1165.73,248.05 1188,277.72 C1214.53,313.07 1333.0566,336.7041 1403.0166,347.9941" fill="none" id="alice-to-dev_tools" style="stroke:#A6ADC8;stroke-width:1;"/><polygon fill="#A6ADC8" points="1408.94,348.95,1400.6922,343.5672,1404.0039,348.1534,1399.4177,351.4651,1408.94,348.95" style="stroke:#A6ADC8;stroke-width:1;"/></g><!--link alice to home_dev--><g class="link" data-entity-1="ent0002" data-entity-2="ent0008" data-link-type="dependency" data-source-line="55" id="lnk32"><path d="M1351.48,149.53 C1442.31,150.79 1703.23,157.58 1779,194.24 C1799.46,204.14 1813.2172,219.105 1824.1072,233.925" fill="none" id="alice-to-home_dev" style="stroke:#A6ADC8;stroke-width:1;"/><polygon fill="#A6ADC8" points="1827.66,238.76,1825.5541,229.1389,1824.6993,234.7308,1819.1074,233.8761,1827.66,238.76" style="stroke:#A6ADC8;stroke-width:1;"/></g><!--link alice to home_productivity--><g class="link" data-entity-1="ent0002" data-entity-2="ent0011" data-link-type="dependency" data-source-line="56" id="lnk33"><path d="M1351.15,150.76 C1464.16,156.41 1848.71,176.75 1901,194.24 C1930.01,203.95 1954.2875,220.2889 1973.3375,235.2189" fill="none" id="alice-to-home_productivity" style="stroke:#A6ADC8;stroke-width:1;"/><polygon fill="#A6ADC8" points="1978.06,238.92,1973.4437,230.22,1974.1246,235.8357,1968.5089,236.5166,1978.06,238.92" style="stroke:#A6ADC8;stroke-width:1;"/></g><!--link alice to home__self_provide_home_--><g class="link" data-entity-1="ent0002" data-entity-2="ent0015" data-link-type="dependency" data-source-line="57" id="lnk34"><path d="M1288.54,153.81 C1247.44,160.5 1178.95,174.36 1164,194.24 C1141.69,223.89 1144.96,245.88 1164,277.72 C1223.03,376.45 1281.77,367.33 1392,400.2 C1486.07,428.25 1751.5258,443.4273 1903.9358,450.1073" fill="none" id="alice-to-home__self_provide_home_" style="stroke:#A6ADC8;stroke-width:1;"/><polygon fill="#A6ADC8" points="1909.93,450.37,1901.1138,445.9798,1904.9348,450.1511,1900.7635,453.9721,1909.93,450.37" style="stroke:#A6ADC8;stroke-width:1;"/></g><!--link alice to hyprland--><g class="link" data-entity-1="ent0002" data-entity-2="ent0016" data-link-type="dependency" data-source-line="58" id="lnk35"><path d="M1288.51,164.45 C1277.05,171.75 1265.35,181.67 1259,194.24 C1242.28,227.36 1235.87,248.71 1259,277.72 C1333.76,371.45 1406.06,307.2 1522,337.72 C1527.56,339.18 1527.6135,339.1524 1533.3535,340.8024" fill="none" id="alice-to-hyprland" style="stroke:#A6ADC8;stroke-width:1;"/><polygon fill="#A6ADC8" points="1539.12,342.46,1531.5754,336.1293,1534.3146,341.0787,1529.3652,343.8179,1539.12,342.46" style="stroke:#A6ADC8;stroke-width:1;"/></g><!--link alice to primary_user--><g class="link" data-entity-1="ent0002" data-entity-2="ent0017" data-link-type="dependency" data-source-line="59" id="lnk36"><path d="M1345.64,167.85 C1356.81,175.95 1370.06,185.56 1382,194.24 C1402.7,209.27 1421.3075,222.8011 1438.6475,235.4111" fill="none" id="alice-to-primary_user" style="stroke:#A6ADC8;stroke-width:1;"/><polygon fill="#A6ADC8" points="1443.5,238.94,1438.5738,230.4117,1439.4562,235.9993,1433.8686,236.8817,1443.5,238.94" style="stroke:#A6ADC8;stroke-width:1;"/></g><!--link alice to den__provides__primary_user--><g class="link" data-entity-1="ent0002" data-entity-2="ent0018" data-link-type="dependency" data-source-line="60" id="lnk37"><path d="M1351.28,152.4 C1395.81,157.58 1479.57,169.82 1547,194.24 C1584.1,207.67 1618.6752,228.3365 1640.6752,242.5965" fill="none" id="alice-to-den__provides__primary_user" style="stroke:#A6ADC8;stroke-width:1;"/><polygon fill="#A6ADC8" points="1645.71,245.86,1640.3334,237.6082,1641.5143,243.1404,1635.9821,244.3213,1645.71,245.86" style="stroke:#A6ADC8;stroke-width:1;"/></g><!--link alice_dotfiles to home__self_provide_home_--><g class="link" data-entity-1="ent0004" data-entity-2="ent0015" data-link-type="dependency" data-source-line="61" id="lnk38"><path d="M1764.48,376.55 C1780.2,384.53 1799.23,393.54 1817,400.2 C1854.9,414.4 1892.3021,425.1232 1928.8321,434.3332" fill="none" id="alice_dotfiles-to-home__self_provide_home_" style="stroke:#A6ADC8;stroke-width:1;"/><polygon fill="#A6ADC8" points="1934.65,435.8,1926.901,429.7211,1929.8017,434.5776,1924.9452,437.4784,1934.65,435.8" style="stroke:#A6ADC8;stroke-width:1;"/></g><!--link n_default to default__aspect_default_--><g class="link" data-entity-1="ent0020" data-entity-2="ent0021" data-link-type="dependency" data-source-line="62" id="lnk39"><path d="M456.73,172.22 C447.44,178.02 439.09,185.25 433,194.24 C403.3,238.13 411.6961,299.2034 418.8761,331.4534" fill="none" id="n_default-to-default__aspect_default_" style="stroke:#A6ADC8;stroke-width:1;"/><polygon fill="#A6ADC8" points="420.18,337.31,422.1286,327.6558,419.0934,332.4295,414.3198,329.3943,420.18,337.31" style="stroke:#A6ADC8;stroke-width:1;"/></g><!--link n_default to den__provides__define_user--><g class="link" data-entity-1="ent0020" data-entity-2="ent0025" data-link-type="dependency" data-source-line="63" id="lnk40"><path d="M625.41,172.18 C646.66,178.43 668.87,185.83 689,194.24 C724.03,208.87 756.8764,228.7101 778.3864,242.5701" fill="none" id="n_default-to-den__provides__define_user" style="stroke:#A6ADC8;stroke-width:1;"/><polygon fill="#A6ADC8" points="783.43,245.82,778.0311,237.5828,779.227,243.1118,773.698,244.3076,783.43,245.82" style="stroke:#A6ADC8;stroke-width:1;"/></g><!--link n_default to den__provides__hostname--><g class="link" data-entity-1="ent0020" data-entity-2="ent0026" data-link-type="dependency" data-source-line="64" id="lnk41"><path d="M459.43,172.19 C441.39,178.68 422.26,186.19 405,194.24 C371.72,209.76 340.3434,229.0843 319.4434,242.6443" fill="none" id="n_default-to-den__provides__hostname" style="stroke:#A6ADC8;stroke-width:1;"/><polygon fill="#A6ADC8" points="314.41,245.91,324.1372,244.3671,318.6045,243.1886,319.783,237.6558,314.41,245.91" style="stroke:#A6ADC8;stroke-width:1;"/></g><!--link n_default to den__provides__mutual_provider--><g class="link" data-entity-1="ent0020" data-entity-2="ent0027" data-link-type="dependency" data-source-line="65" id="lnk42"><path d="M537.36,172.2 C543.62,194.78 551.3262,222.5783 556.1862,240.0983" fill="none" id="n_default-to-den__provides__mutual_provider" style="stroke:#A6ADC8;stroke-width:1;"/><polygon fill="#A6ADC8" points="557.79,245.88,559.2387,236.1383,556.4535,241.0619,551.5298,238.2767,557.79,245.88" style="stroke:#A6ADC8;stroke-width:1;"/></g><!--link demo_shell to home__self_provide_home_--><g class="link" data-entity-1="ent0005" data-entity-2="ent0015" data-link-type="dependency" data-source-line="66" id="lnk43"><path d="M1911.26,376.56 C1934.46,393.65 1963.8184,415.2725 1986.9884,432.3325" fill="none" id="demo_shell-to-home__self_provide_home_" style="stroke:#A6ADC8;stroke-width:1;"/><polygon fill="#A6ADC8" points="1991.82,435.89,1986.9443,427.3327,1987.7937,432.9254,1982.201,433.7748,1991.82,435.89" style="stroke:#A6ADC8;stroke-width:1;"/></g><!--link den__provides__define_user to default__aspect_default_--><g class="link" data-entity-1="ent0025" data-entity-2="ent0021" data-link-type="dependency" data-source-line="67" id="lnk44"><path d="M755.27,271.21 C691.18,287.66 579.7618,316.2491 503.5918,335.7891" fill="none" id="den__provides__define_user-to-default__aspect_default_" style="stroke:#A6ADC8;stroke-width:1;"/><polygon fill="#A6ADC8" points="497.78,337.28,507.4917,338.9182,502.6232,336.0376,505.5038,331.1691,497.78,337.28" style="stroke:#A6ADC8;stroke-width:1;"/></g><!--link den__provides__define_user to den__provides__default__aspect_default__den__provides--><g class="link" data-entity-1="ent0025" data-entity-2="ent0022" data-link-type="dependency" data-source-line="68" id="lnk45"><path d="M799.58,270.93 C797.28,289.4 793.5207,319.6259 791.2007,338.2759" fill="none" id="den__provides__define_user-to-den__provides__default__aspect_default__den__provides" style="stroke:#A6ADC8;stroke-width:1;"/><polygon fill="#A6ADC8" points="790.46,344.23,795.5404,335.7926,791.0772,339.2682,787.6016,334.8051,790.46,344.23" style="stroke:#A6ADC8;stroke-width:1;"/></g><!--link den__provides__hostname to default__aspect_default_--><g class="link" data-entity-1="ent0026" data-entity-2="ent0021" data-link-type="dependency" data-source-line="69" id="lnk46"><path d="M312.44,271.12 C334.25,287.56 369.5184,314.1388 395.4984,333.7188" fill="none" id="den__provides__hostname-to-default__aspect_default_" style="stroke:#A6ADC8;stroke-width:1;"/><polygon fill="#A6ADC8" points="400.29,337.33,395.5101,328.7188,396.297,334.3207,390.6952,335.1076,400.29,337.33" style="stroke:#A6ADC8;stroke-width:1;"/></g><!--link den__provides__mutual_provider to default__aspect_default_--><g class="link" data-entity-1="ent0027" data-entity-2="ent0021" data-link-type="dependency" data-source-line="70" id="lnk47"><path d="M544.6,271.12 C521.42,287.56 483.7536,314.2784 456.1536,333.8584" fill="none" id="den__provides__mutual_provider-to-default__aspect_default_" style="stroke:#A6ADC8;stroke-width:1;"/><polygon fill="#A6ADC8" points="451.26,337.33,460.9149,335.385,455.338,334.437,456.286,328.8601,451.26,337.33" style="stroke:#A6ADC8;stroke-width:1;"/></g><!--link den__provides__mutual_provider to den__provides__default__aspect_default__den__provides--><g class="link" data-entity-1="ent0027" data-entity-2="ent0022" data-link-type="dependency" data-source-line="71" id="lnk48"><path d="M588.5,271.12 C632.32,289.66 711.9944,323.3716 755.8744,341.9416" fill="none" id="den__provides__mutual_provider-to-den__provides__default__aspect_default__den__provides" style="stroke:#A6ADC8;stroke-width:1;"/><polygon fill="#A6ADC8" points="761.4,344.28,754.6706,337.0887,756.7954,342.3313,751.5527,344.4561,761.4,344.28" style="stroke:#A6ADC8;stroke-width:1;"/></g><!--link dev_tools to home__self_provide_home_--><g class="link" data-entity-1="ent0006" data-entity-2="ent0015" data-link-type="dependency" data-source-line="72" id="lnk49"><path d="M1479.96,376.68 C1491.81,385.31 1506.92,394.82 1522,400.2 C1591.16,424.88 1780.512,440.3102 1904.112,448.1502" fill="none" id="dev_tools-to-home__self_provide_home_" style="stroke:#A6ADC8;stroke-width:1;"/><polygon fill="#A6ADC8" points="1910.1,448.53,1901.3713,443.9683,1905.11,448.2135,1900.8648,451.9522,1910.1,448.53" style="stroke:#A6ADC8;stroke-width:1;"/></g><!--link home to alice--><g class="link" data-entity-1="ent0028" data-entity-2="ent0002" data-link-type="dependency" data-source-line="73" id="lnk50"><path d="M1154.24,44.18 C1190.09,66.47 1247.7947,102.3417 1284.9447,125.4417" fill="none" id="home-to-alice" style="stroke:#A6ADC8;stroke-width:1;"/><polygon fill="#A6ADC8" points="1290.04,128.61,1284.5092,120.4607,1285.7939,125.9698,1280.2849,127.2545,1290.04,128.61" style="stroke:#A6ADC8;stroke-width:1;"/></g><!--link home to n_default--><g class="link" data-entity-1="ent0028" data-entity-2="ent0020" data-link-type="dependency" data-source-line="74" id="lnk51"><path d="M1099.9,29.71 C1038.53,35.62 884.43,52.13 758,79.76 C703.57,91.65 648.8782,108.0116 604.0682,122.5216" fill="none" id="home-to-n_default" style="stroke:#A6ADC8;stroke-width:1;"/><polygon fill="#A6ADC8" points="598.36,124.37,608.1545,125.4029,603.1168,122.8297,605.69,117.792,598.36,124.37" style="stroke:#A6ADC8;stroke-width:1;"/></g><!--link home to default__cross_provide_home_--><g class="link" data-entity-1="ent0028" data-entity-2="ent0023" data-link-type="dependency" data-source-line="75" id="lnk52"><path d="M1099.95,41.48 C1058.66,63.21 985.2296,101.8558 939.5296,125.9058" fill="none" id="home-to-default__cross_provide_home_" style="stroke:#A6ADC8;stroke-width:1;"/><polygon fill="#A6ADC8" points="934.22,128.7,944.0473,128.0484,938.6447,126.3715,940.3216,120.9689,934.22,128.7" style="stroke:#A6ADC8;stroke-width:1;"/></g><!--link home to default__self_provide_default_--><g class="link" data-entity-1="ent0028" data-entity-2="ent0024" data-link-type="dependency" data-source-line="76" id="lnk53"><path d="M1099.77,27.67 C975.31,29.84 459.98,41.05 304,79.76 C261.46,90.32 221.2737,109.6185 191.6937,125.6685" fill="none" id="home-to-default__self_provide_default_" style="stroke:#A6ADC8;stroke-width:1;"/><polygon fill="#A6ADC8" points="186.42,128.53,196.2382,127.7536,190.8147,126.1454,192.4229,120.722,186.42,128.53" style="stroke:#A6ADC8;stroke-width:1;"/></g><!--link home to home__aspect_home_--><g class="link" data-entity-1="ent0028" data-entity-2="ent0013" data-link-type="dependency" data-source-line="77" id="lnk54"><path d="M1153.93,27.99 C1270.7,32.04 1743.32,56.57 2099,194.24 C2127.15,205.14 2151.0472,220.9604 2170.2472,235.4204" fill="none" id="home-to-home__aspect_home_" style="stroke:#A6ADC8;stroke-width:1;"/><polygon fill="#A6ADC8" points="2175.04,239.03,2170.2572,230.4204,2171.046,236.022,2165.4444,236.8108,2175.04,239.03" style="stroke:#A6ADC8;stroke-width:1;"/></g><!--link home to home__cross_provide__anon__--><g class="link" data-entity-1="ent0028" data-entity-2="ent0014" data-link-type="dependency" data-source-line="78" id="lnk55"><path d="M1154.04,26.86 C1253.36,25.94 1607,26.82 1892,79.76 C2039.68,107.19 2069.09,143.56 2215,179.24 C2250.99,188.04 2261.68,183.05 2297,194.24 C2333.46,205.79 2367.5688,221.9578 2394.7288,236.1078" fill="none" id="home-to-home__cross_provide__anon__" style="stroke:#A6ADC8;stroke-width:1;"/><polygon fill="#A6ADC8" points="2400.05,238.88,2393.9164,231.1742,2395.6157,236.5698,2390.2201,238.2691,2400.05,238.88" style="stroke:#A6ADC8;stroke-width:1;"/></g><!--link home_bat to home__self_provide_home_--><g class="link" data-entity-1="ent0007" data-entity-2="ent0015" data-link-type="dependency" data-source-line="79" id="lnk56"><path d="M2017,376.56 C2017,393.65 2017,412.83 2017,429.89" fill="none" id="home_bat-to-home__self_provide_home_" style="stroke:#A6ADC8;stroke-width:1;"/><polygon fill="#A6ADC8" points="2017,435.89,2021,426.89,2017,430.89,2013,426.89,2017,435.89" style="stroke:#A6ADC8;stroke-width:1;"/></g><!--link home_dev to home_bat--><g class="link" data-entity-1="ent0008" data-entity-2="ent0007" data-link-type="dependency" data-source-line="80" id="lnk57"><path d="M1874.13,278.08 C1905.37,295.11 1946.1013,317.3192 1977.4113,334.3792" fill="none" id="home_dev-to-home_bat" style="stroke:#A6ADC8;stroke-width:1;"/><polygon fill="#A6ADC8" points="1982.68,337.25,1976.6908,329.4314,1978.2895,334.8577,1972.8632,336.4563,1982.68,337.25" style="stroke:#A6ADC8;stroke-width:1;"/></g><!--link home_dev to home_git--><g class="link" data-entity-1="ent0008" data-entity-2="ent0010" data-link-type="dependency" data-source-line="81" id="lnk58"><path d="M1883.8,273.61 C1940.41,291.88 2032.71,321.6571 2089.38,339.9471" fill="none" id="home_dev-to-home_git" style="stroke:#A6ADC8;stroke-width:1;"/><polygon fill="#A6ADC8" points="2095.09,341.79,2087.7536,335.219,2090.3317,340.2543,2085.2965,342.8323,2095.09,341.79" style="stroke:#A6ADC8;stroke-width:1;"/></g><!--link home_dev to home__self_provide_home_--><g class="link" data-entity-1="ent0008" data-entity-2="ent0015" data-link-type="dependency" data-source-line="82" id="lnk59"><path d="M1883.85,273.12 C1889.59,274.75 1895.42,276.33 1901,277.72 C2032.51,310.5 2114.1,232.88 2200,337.72 C2217.6,359.2 2216.61,377.95 2200,400.2 C2189.17,414.7 2160.0856,425.274 2123.6156,434.264" fill="none" id="home_dev-to-home__self_provide_home_" style="stroke:#A6ADC8;stroke-width:1;"/><polygon fill="#A6ADC8" points="2117.79,435.7,2127.4858,437.4297,2122.6447,434.5033,2125.5711,429.6622,2117.79,435.7" style="stroke:#A6ADC8;stroke-width:1;"/></g><!--link home_firefox to home__self_provide_home_--><g class="link" data-entity-1="ent0009" data-entity-2="ent0015" data-link-type="dependency" data-source-line="83" id="lnk60"><path d="M2280.56,376.66 C2264.85,384.67 2245.81,393.66 2228,400.2 C2188.77,414.6 2149.927,425.2908 2111.817,434.3608" fill="none" id="home_firefox-to-home__self_provide_home_" style="stroke:#A6ADC8;stroke-width:1;"/><polygon fill="#A6ADC8" points="2105.98,435.75,2115.6616,437.5576,2110.8441,434.5924,2113.8093,429.7749,2105.98,435.75" style="stroke:#A6ADC8;stroke-width:1;"/></g><!--link home_git to home__self_provide_home_--><g class="link" data-entity-1="ent0010" data-entity-2="ent0015" data-link-type="dependency" data-source-line="84" id="lnk61"><path d="M2115.48,376.56 C2093.87,393.65 2066.7368,415.109 2045.1568,432.169" fill="none" id="home_git-to-home__self_provide_home_" style="stroke:#A6ADC8;stroke-width:1;"/><polygon fill="#A6ADC8" points="2040.45,435.89,2049.9909,433.4464,2044.3724,432.7892,2045.0296,427.1706,2040.45,435.89" style="stroke:#A6ADC8;stroke-width:1;"/></g><!--link home_productivity to home_firefox--><g class="link" data-entity-1="ent0011" data-entity-2="ent0009" data-link-type="dependency" data-source-line="85" id="lnk62"><path d="M2061.11,278.2 C2116.84,295.27 2193.0032,318.5925 2248.5932,335.6225" fill="none" id="home_productivity-to-home_firefox" style="stroke:#A6ADC8;stroke-width:1;"/><polygon fill="#A6ADC8" points="2254.33,337.38,2246.8964,330.9192,2249.5493,335.9154,2244.5531,338.5683,2254.33,337.38" style="stroke:#A6ADC8;stroke-width:1;"/></g><!--link home_productivity to home_slack--><g class="link" data-entity-1="ent0011" data-entity-2="ent0012" data-link-type="dependency" data-source-line="86" id="lnk63"><path d="M2081.62,275.11 C2178.71,293.81 2334.97,324.29 2393,337.72 C2398.43,338.98 2398.2722,338.8926 2403.9022,340.3126" fill="none" id="home_productivity-to-home_slack" style="stroke:#A6ADC8;stroke-width:1;"/><polygon fill="#A6ADC8" points="2409.72,341.78,2401.9715,335.7004,2404.8718,340.5572,2400.0151,343.4575,2409.72,341.78" style="stroke:#A6ADC8;stroke-width:1;"/></g><!--link home_productivity to home__self_provide_home_--><g class="link" data-entity-1="ent0011" data-entity-2="ent0015" data-link-type="dependency" data-source-line="87" id="lnk64"><path d="M2081.8,274.84 C2087.61,275.85 2093.39,276.81 2099,277.72 C2194.68,293.17 2467.35,264.62 2531,337.72 C2549.23,358.66 2549.58,379.56 2531,400.2 C2504.31,429.86 2272.5544,444.2307 2129.9244,450.4007" fill="none" id="home_productivity-to-home__self_provide_home_" style="stroke:#A6ADC8;stroke-width:1;"/><polygon fill="#A6ADC8" points="2123.93,450.66,2133.0945,454.2673,2128.9253,450.4439,2132.7487,446.2748,2123.93,450.66" style="stroke:#A6ADC8;stroke-width:1;"/></g><!--link home_slack to home__self_provide_home_--><g class="link" data-entity-1="ent0012" data-entity-2="ent0015" data-link-type="dependency" data-source-line="88" id="lnk65"><path d="M2437.06,376.65 C2424.47,385.16 2408.59,394.57 2393,400.2 C2305.68,431.71 2206.7044,444.5376 2129.8944,450.0876" fill="none" id="home_slack-to-home__self_provide_home_" style="stroke:#A6ADC8;stroke-width:1;"/><polygon fill="#A6ADC8" points="2123.91,450.52,2133.1749,453.861,2128.897,450.1597,2132.5983,445.8818,2123.91,450.52" style="stroke:#A6ADC8;stroke-width:1;"/></g><!--link hyprland to home__self_provide_home_--><g class="link" data-entity-1="ent0016" data-entity-2="ent0015" data-link-type="dependency" data-source-line="89" id="lnk66"><path d="M1604.74,376.7 C1615.79,385.22 1629.86,394.63 1644,400.2 C1729.55,433.88 1827.5624,446.5446 1903.9924,451.4646" fill="none" id="hyprland-to-home__self_provide_home_" style="stroke:#A6ADC8;stroke-width:1;"/><polygon fill="#A6ADC8" points="1909.98,451.85,1901.2555,447.2801,1904.9903,451.5288,1900.7416,455.2636,1909.98,451.85" style="stroke:#A6ADC8;stroke-width:1;"/></g><!--link ctx_home to ctx_default--><g class="link" data-entity-1="ent0067" data-entity-2="ent0068" data-link-type="dependency" data-source-line="90" id="lnk69"><path d="M2286,35.11 C2286,56.91 2286,111.85 2286,133.49" fill="none" id="ctx_home-to-ctx_default" style="stroke:#A6ADC8;stroke-width:1;"/><polygon fill="#A6ADC8" points="2286,139.49,2290,130.49,2286,134.49,2282,130.49,2286,139.49" style="stroke:#A6ADC8;stroke-width:1;"/></g><?plantuml-src fLRTQzim47_tNo6IbnHgiYGbJSVeGmjZ35R6dWVcOic9gMCPoSbQIlxtoRA-RCjArxqalhlVVUhk9FwSbnKmEA0jfCyxHeybVgG5PMYw80ko914t24moE1RrLrhM2f9YlCvk_90dE10q-Kxg1mPvoT4FMjBhW_ZX5QHauYW1O_IFiWXhmEccBmov_4NI6ifTGHxw2QmMg-MD7qeP9cpCfO4vRWV5-4PUO4VBoqurCEXIWK8E7u7XozuaAkYgGOJy_1G-OFUEQcgWwssTtdxQh8UWq04-qVeTtYGgwAf13Fr4J9ycca2HYyv3m97yGjFDtVOcWwXgWqIJFHKz-uRattc2tYA4-kenfdMM5uHREubceMcsJ76AksgO76ZCzwGef4f39f8KCMvXdTtsuQUufhJW2drA92LihpPRs7J1JQJn5cg9ROX44Fum95IOir111AncEICPVR5mnGYex78d447u4vJGYb5yJElybDUlLiVb1fHv8GxCQaboFEavy4fmPittbTLAMdOYYN5dyvHHpfjuJpaciozGqlBUDIFbYP8BgqAUXEnnKcJ6N3-cHcXigSYyvNwjM04bRbKLuNTQiVm0x3K-Si8aN36IXk6ef68lD6Zfcyy7QfY8lBIu-V9OETjHKZT1RvhsxPupuj_bx0sr1n6dUt5FNAEq0CxHkQrAcMWxqmosgyrWLgHGdx0YhrIyaZ3dhEbc9P8LB8OfZrZxB3AVQv2l56EUaWxEyUl9eDjbjYsChMwRwTQu8ql8_1OxVUQlJAVRR7rCfOVroKiosX6jM3N4M8ttbDUbU1du36ZPU0I7Ots4GcVbZQA5Q0OpDJf7lK4qKsU2ZTfR8OxlUtlT4TZjtM6g9Utmz8RjizmLrvTvnj-5g35tMEuGTk8P7TMeTsC5VTlfQwtwstm06-kAC52VVXZLEzx8kKs3gGHwDPZRHRqFR89ehE__9P9-d_-_xiSoqS-JOFNbc9cvigGvQiiABJmFohl2B6vuq_TbtkixCa-fYsd9LvH12HKFLpo5FDnHY_gXTHdPlB4kepglAWDNNa8G-R0A0KPTja-oC4w_MeAej7v9p8arX3hZlm00?></g></svg>