<svg id="my-svg" width="100%" xmlns="http://www.w3.org/2000/svg" xmlns:xlink="http://www.w3.org/1999/xlink" class="flowchart" style="max-width: 974.5px; background-color: rgb(30, 30, 46);" viewBox="4 4 974.5 702" role="graphics-document document" aria-roledescription="flowchart-v2"><style>#my-svg{font-family:JetBrains Mono,Fira Code,DejaVu Sans Mono,monospace;font-size:16px;fill:#cdd6f4;}@keyframes edge-animation-frame{from{stroke-dashoffset:0;}}@keyframes dash{to{stroke-dashoffset:0;}}#my-svg .edge-animation-slow{stroke-dasharray:9,5!important;stroke-dashoffset:900;animation:dash 50s linear infinite;stroke-linecap:round;}#my-svg .edge-animation-fast{stroke-dasharray:9,5!important;stroke-dashoffset:900;animation:dash 20s linear infinite;stroke-linecap:round;}#my-svg .error-icon{fill:#313244;}#my-svg .error-text{fill:#cdd6f4;stroke:#cdd6f4;}#my-svg .edge-thickness-normal{stroke-width:1px;}#my-svg .edge-thickness-thick{stroke-width:3.5px;}#my-svg .edge-pattern-solid{stroke-dasharray:0;}#my-svg .edge-thickness-invisible{stroke-width:0;fill:none;}#my-svg .edge-pattern-dashed{stroke-dasharray:3;}#my-svg .edge-pattern-dotted{stroke-dasharray:2;}#my-svg .marker{fill:#a6adc8;stroke:#a6adc8;}#my-svg .marker.cross{stroke:#a6adc8;}#my-svg svg{font-family:JetBrains Mono,Fira Code,DejaVu Sans Mono,monospace;font-size:16px;}#my-svg p{margin:0;}#my-svg .label{font-family:JetBrains Mono,Fira Code,DejaVu Sans Mono,monospace;color:#cdd6f4;}#my-svg .cluster-label text{fill:#cdd6f4;}#my-svg .cluster-label span{color:#cdd6f4;}#my-svg .cluster-label span p{background-color:transparent;}#my-svg .label text,#my-svg span{fill:#cdd6f4;color:#cdd6f4;}#my-svg .node rect,#my-svg .node circle,#my-svg .node ellipse,#my-svg .node polygon,#my-svg .node path{fill:#313244;stroke:#a6adc8;stroke-width:1px;}#my-svg .rough-node .label text,#my-svg .node .label text,#my-svg .image-shape .label,#my-svg .icon-shape .label{text-anchor:middle;}#my-svg .node .katex path{fill:#000;stroke:#000;stroke-width:1px;}#my-svg .rough-node .label,#my-svg .node .label,#my-svg .image-shape .label,#my-svg .icon-shape .label{text-align:center;}#my-svg .node.clickable{cursor:pointer;}#my-svg .root .anchor path{fill:#a6adc8!important;stroke-width:0;stroke:#a6adc8;}#my-svg .arrowheadPath{fill:#e1e1d1;}#my-svg .edgePath .path{stroke:#a6adc8;stroke-width:1px;}#my-svg .flowchart-link{stroke:#a6adc8;fill:none;}#my-svg .edgeLabel{background-color:#1e1e2e;text-align:center;}#my-svg .edgeLabel p{background-color:#1e1e2e;}#my-svg .edgeLabel rect{opacity:0.5;background-color:#1e1e2e;fill:#1e1e2e;}#my-svg .labelBkg{background-color:rgba(30, 30, 46, 0.5);}#my-svg .cluster rect{fill:#313244;stroke:#6c7086;stroke-width:1px;}#my-svg .cluster text{fill:#cdd6f4;}#my-svg .cluster span{color:#cdd6f4;}#my-svg div.mermaidTooltip{position:absolute;text-align:center;max-width:200px;padding:2px;font-family:JetBrains Mono,Fira Code,DejaVu Sans Mono,monospace;font-size:12px;background:#313244;border:1px solid #6c7086;border-radius:2px;pointer-events:none;z-index:100;}#my-svg .flowchartTitleText{text-anchor:middle;font-size:18px;fill:#cdd6f4;}#my-svg rect.text{fill:none;stroke-width:0;}#my-svg .icon-shape,#my-svg .image-shape{background-color:#1e1e2e;text-align:center;}#my-svg .icon-shape p,#my-svg .image-shape p{background-color:#1e1e2e;padding:2px;}#my-svg .icon-shape .label rect,#my-svg .image-shape .label rect{opacity:0.5;background-color:#1e1e2e;fill:#1e1e2e;}#my-svg .label-icon{display:inline-block;height:1em;overflow:visible;vertical-align:-0.125em;}#my-svg .node .label-icon path{fill:currentColor;stroke:revert;stroke-width:revert;}#my-svg .node .neo-node{stroke:#a6adc8;}#my-svg [data-look="neo"].node rect,#my-svg [data-look="neo"].cluster rect,#my-svg [data-look="neo"].node polygon{stroke:url(#my-svg-gradient);filter:drop-shadow( 1px 2px 2px rgba(185,185,185,1));}#my-svg [data-look="neo"].node path{stroke:url(#my-svg-gradient);stroke-width:1px;}#my-svg [data-look="neo"].node .outer-path{filter:drop-shadow( 1px 2px 2px rgba(185,185,185,1));}#my-svg [data-look="neo"].node .neo-line path{stroke:#a6adc8;filter:none;}#my-svg [data-look="neo"].node circle{stroke:url(#my-svg-gradient);filter:drop-shadow( 1px 2px 2px rgba(185,185,185,1));}#my-svg [data-look="neo"].node circle .state-start{fill:#000000;}#my-svg [data-look="neo"].icon-shape .icon{fill:url(#my-svg-gradient);filter:drop-shadow( 1px 2px 2px rgba(185,185,185,1));}#my-svg [data-look="neo"].icon-shape .icon-neo path{stroke:url(#my-svg-gradient);filter:drop-shadow( 1px 2px 2px rgba(185,185,185,1));}#my-svg :root{--mermaid-font-family:JetBrains Mono,Fira Code,DejaVu Sans Mono,monospace;}#my-svg .root&gt;*{fill:#89b4fa!important;stroke:#89b4fa!important;color:#1e1e2e!important;font-weight:bold!important;}#my-svg .root span{fill:#89b4fa!important;stroke:#89b4fa!important;color:#1e1e2e!important;font-weight:bold!important;}#my-svg .root tspan{fill:#1e1e2e!important;}#my-svg .alice_c&gt;*{fill:#fab387!important;stroke:#fab387!important;color:#1e1e2e!important;stroke-dasharray:3 3!important;stroke-width:1px!important;}#my-svg .alice_c span{fill:#fab387!important;stroke:#fab387!important;color:#1e1e2e!important;stroke-dasharray:3 3!important;stroke-width:1px!important;}#my-svg .alice_c tspan{fill:#1e1e2e!important;}#my-svg .alice_dotfiles_c&gt;*{fill:#f9e2af!important;stroke:#f9e2af!important;color:#1e1e2e!important;stroke-dasharray:3 3!important;stroke-width:1px!important;}#my-svg .alice_dotfiles_c span{fill:#f9e2af!important;stroke:#f9e2af!important;color:#1e1e2e!important;stroke-dasharray:3 3!important;stroke-width:1px!important;}#my-svg .alice_dotfiles_c tspan{fill:#1e1e2e!important;}#my-svg .den__provides__define_user_c&gt;*{fill:#a6e3a1!important;stroke:#a6e3a1!important;color:#1e1e2e!important;stroke-dasharray:3 3!important;stroke-width:1px!important;}#my-svg .den__provides__define_user_c span{fill:#a6e3a1!important;stroke:#a6e3a1!important;color:#1e1e2e!important;stroke-dasharray:3 3!important;stroke-width:1px!important;}#my-svg .den__provides__define_user_c tspan{fill:#1e1e2e!important;}#my-svg .demo_shell_c&gt;*{fill:#fab387!important;stroke:#fab387!important;color:#1e1e2e!important;stroke-dasharray:3 3!important;stroke-width:1px!important;}#my-svg .demo_shell_c span{fill:#fab387!important;stroke:#fab387!important;color:#1e1e2e!important;stroke-dasharray:3 3!important;stroke-width:1px!important;}#my-svg .demo_shell_c tspan{fill:#1e1e2e!important;}#my-svg .dev_tools_c&gt;*{fill:#a6e3a1!important;stroke:#a6e3a1!important;color:#1e1e2e!important;stroke-dasharray:3 3!important;stroke-width:1px!important;}#my-svg .dev_tools_c span{fill:#a6e3a1!important;stroke:#a6e3a1!important;color:#1e1e2e!important;stroke-dasharray:3 3!important;stroke-width:1px!important;}#my-svg .dev_tools_c tspan{fill:#1e1e2e!important;}#my-svg .home_c&gt;*{fill:#a6e3a1!important;stroke:#a6e3a1!important;color:#1e1e2e!important;stroke-dasharray:3 3!important;stroke-width:1px!important;}#my-svg .home_c span{fill:#a6e3a1!important;stroke:#a6e3a1!important;color:#1e1e2e!important;stroke-dasharray:3 3!important;stroke-width:1px!important;}#my-svg .home_c tspan{fill:#1e1e2e!important;}#my-svg .home_bat_c&gt;*{fill:#f9e2af!important;stroke:#f9e2af!important;color:#1e1e2e!important;stroke-dasharray:3 3!important;stroke-width:1px!important;}#my-svg .home_bat_c span{fill:#f9e2af!important;stroke:#f9e2af!important;color:#1e1e2e!important;stroke-dasharray:3 3!important;stroke-width:1px!important;}#my-svg .home_bat_c tspan{fill:#1e1e2e!important;}#my-svg .home_dev_c&gt;*{fill:#a6e3a1!important;stroke:#a6e3a1!important;color:#1e1e2e!important;stroke-dasharray:3 3!important;stroke-width:1px!important;}#my-svg .home_dev_c span{fill:#a6e3a1!important;stroke:#a6e3a1!important;color:#1e1e2e!important;stroke-dasharray:3 3!important;stroke-width:1px!important;}#my-svg .home_dev_c tspan{fill:#1e1e2e!important;}#my-svg .home_firefox_c&gt;*{fill:#a6e3a1!important;stroke:#a6e3a1!important;color:#1e1e2e!important;stroke-dasharray:3 3!important;stroke-width:1px!important;}#my-svg .home_firefox_c span{fill:#a6e3a1!important;stroke:#a6e3a1!important;color:#1e1e2e!important;stroke-dasharray:3 3!important;stroke-width:1px!important;}#my-svg .home_firefox_c tspan{fill:#1e1e2e!important;}#my-svg .home_git_c&gt;*{fill:#fab387!important;stroke:#fab387!important;color:#1e1e2e!important;stroke-dasharray:3 3!important;stroke-width:1px!important;}#my-svg .home_git_c span{fill:#fab387!important;stroke:#fab387!important;color:#1e1e2e!important;stroke-dasharray:3 3!important;stroke-width:1px!important;}#my-svg .home_git_c tspan{fill:#1e1e2e!important;}#my-svg .home_productivity_c&gt;*{fill:#fab387!important;stroke:#fab387!important;color:#1e1e2e!important;stroke-dasharray:3 3!important;stroke-width:1px!important;}#my-svg .home_productivity_c span{fill:#fab387!important;stroke:#fab387!important;color:#1e1e2e!important;stroke-dasharray:3 3!important;stroke-width:1px!important;}#my-svg .home_productivity_c tspan{fill:#1e1e2e!important;}#my-svg .home_slack_c&gt;*{fill:#f9e2af!important;stroke:#f9e2af!important;color:#1e1e2e!important;stroke-dasharray:3 3!important;stroke-width:1px!important;}#my-svg .home_slack_c span{fill:#f9e2af!important;stroke:#f9e2af!important;color:#1e1e2e!important;stroke-dasharray:3 3!important;stroke-width:1px!important;}#my-svg .home_slack_c tspan{fill:#1e1e2e!important;}#my-svg .den__provides__hostname_c&gt;*{fill:#fab387!important;stroke:#fab387!important;color:#1e1e2e!important;stroke-dasharray:3 3!important;stroke-width:1px!important;}#my-svg .den__provides__hostname_c span{fill:#fab387!important;stroke:#fab387!important;color:#1e1e2e!important;stroke-dasharray:3 3!important;stroke-width:1px!important;}#my-svg .den__provides__hostname_c tspan{fill:#1e1e2e!important;}#my-svg .hyprland_c&gt;*{fill:#fab387!important;stroke:#fab387!important;color:#1e1e2e!important;stroke-dasharray:3 3!important;stroke-width:1px!important;}#my-svg .hyprland_c span{fill:#fab387!important;stroke:#fab387!important;color:#1e1e2e!important;stroke-dasharray:3 3!important;stroke-width:1px!important;}#my-svg .hyprland_c tspan{fill:#1e1e2e!important;}#my-svg .den__provides__mutual_provider_c&gt;*{fill:#f9e2af!important;stroke:#f9e2af!important;color:#1e1e2e!important;stroke-dasharray:3 3!important;stroke-width:1px!important;}#my-svg .den__provides__mutual_provider_c span{fill:#f9e2af!important;stroke:#f9e2af!important;color:#1e1e2e!important;stroke-dasharray:3 3!important;stroke-width:1px!important;}#my-svg .den__provides__mutual_provider_c tspan{fill:#1e1e2e!important;}#my-svg .primary_user_c&gt;*{fill:#fab387!important;stroke:#fab387!important;color:#1e1e2e!important;stroke-dasharray:3 3!important;stroke-width:1px!important;}#my-svg .primary_user_c span{fill:#fab387!important;stroke:#fab387!important;color:#1e1e2e!important;stroke-dasharray:3 3!important;stroke-width:1px!important;}#my-svg .primary_user_c tspan{fill:#1e1e2e!important;}#my-svg .den__provides__primary_user_c&gt;*{fill:#fab387!important;stroke:#fab387!important;color:#1e1e2e!important;stroke-dasharray:3 3!important;stroke-width:1px!important;}#my-svg .den__provides__primary_user_c span{fill:#fab387!important;stroke:#fab387!important;color:#1e1e2e!important;stroke-dasharray:3 3!important;stroke-width:1px!important;}#my-svg .den__provides__primary_user_c tspan{fill:#1e1e2e!important;}</style><g><marker id="my-svg_flowchart-v2-pointEnd" class="marker flowchart-v2" viewBox="0 0 10 10" refX="5" refY="5" markerUnits="userSpaceOnUse" markerWidth="8" markerHeight="8" orient="auto"><path d="M 0 0 L 10 5 L 0 10 z" class="arrowMarkerPath" style="stroke-width: 1; stroke-dasharray: 1, 0;"/></marker><marker id="my-svg_flowchart-v2-pointStart" class="marker flowchart-v2" viewBox="0 0 10 10" refX="4.5" refY="5" markerUnits="userSpaceOnUse" markerWidth="8" markerHeight="8" orient="auto"><path d="M 0 5 L 10 10 L 10 0 z" class="arrowMarkerPath" style="stroke-width: 1; stroke-dasharray: 1, 0;"/></marker><marker id="my-svg_flowchart-v2-pointEnd-margin" class="marker flowchart-v2" viewBox="0 0 11.5 14" refX="11.5" refY="7" markerUnits="userSpaceOnUse" markerWidth="10.5" markerHeight="14" orient="auto"><path d="M 0 0 L 11.5 7 L 0 14 z" class="arrowMarkerPath" style="stroke-width: 0; stroke-dasharray: 1, 0;"/></marker><marker id="my-svg_flowchart-v2-pointStart-margin" class="marker flowchart-v2" viewBox="0 0 11.5 14" refX="1" refY="7" markerUnits="userSpaceOnUse" markerWidth="11.5" markerHeight="14" orient="auto"><polygon points="0,7 11.5,14 11.5,0" class="arrowMarkerPath" style="stroke-width: 0; stroke-dasharray: 1, 0;"/></marker><marker id="my-svg_flowchart-v2-circleEnd" class="marker flowchart-v2" viewBox="0 0 10 10" refX="11" refY="5" markerUnits="userSpaceOnUse" markerWidth="11" markerHeight="11" orient="auto"><circle cx="5" cy="5" r="5" class="arrowMarkerPath" style="stroke-width: 1; stroke-dasharray: 1, 0;"/></marker><marker id="my-svg_flowchart-v2-circleStart" class="marker flowchart-v2" viewBox="0 0 10 10" refX="-1" refY="5" markerUnits="userSpaceOnUse" markerWidth="11" markerHeight="11" orient="auto"><circle cx="5" cy="5" r="5" class="arrowMarkerPath" style="stroke-width: 1; stroke-dasharray: 1, 0;"/></marker><marker id="my-svg_flowchart-v2-circleEnd-margin" class="marker flowchart-v2" viewBox="0 0 10 10" refY="5" refX="12.25" markerUnits="userSpaceOnUse" markerWidth="14" markerHeight="14" orient="auto"><circle cx="5" cy="5" r="5" class="arrowMarkerPath" style="stroke-width: 0; stroke-dasharray: 1, 0;"/></marker><marker id="my-svg_flowchart-v2-circleStart-margin" class="marker flowchart-v2" viewBox="0 0 10 10" refX="-2" refY="5" markerUnits="userSpaceOnUse" markerWidth="14" markerHeight="14" orient="auto"><circle cx="5" cy="5" r="5" class="arrowMarkerPath" style="stroke-width: 0; stroke-dasharray: 1, 0;"/></marker><marker id="my-svg_flowchart-v2-crossEnd" class="marker cross flowchart-v2" viewBox="0 0 11 11" refX="12" refY="5.2" markerUnits="userSpaceOnUse" markerWidth="11" markerHeight="11" orient="auto"><path d="M 1,1 l 9,9 M 10,1 l -9,9" class="arrowMarkerPath" style="stroke-width: 2; stroke-dasharray: 1, 0;"/></marker><marker id="my-svg_flowchart-v2-crossStart" class="marker cross flowchart-v2" viewBox="0 0 11 11" refX="-1" refY="5.2" markerUnits="userSpaceOnUse" markerWidth="11" markerHeight="11" orient="auto"><path d="M 1,1 l 9,9 M 10,1 l -9,9" class="arrowMarkerPath" style="stroke-width: 2; stroke-dasharray: 1, 0;"/></marker><marker id="my-svg_flowchart-v2-crossEnd-margin" class="marker cross flowchart-v2" viewBox="0 0 15 15" refX="17.7" refY="7.5" markerUnits="userSpaceOnUse" markerWidth="12" markerHeight="12" orient="auto"><path d="M 1,1 L 14,14 M 1,14 L 14,1" class="arrowMarkerPath" style="stroke-width: 2.5;"/></marker><marker id="my-svg_flowchart-v2-crossStart-margin" class="marker cross flowchart-v2" viewBox="0 0 15 15" refX="-3.5" refY="7.5" markerUnits="userSpaceOnUse" markerWidth="12" markerHeight="12" orient="auto"><path d="M 1,1 L 14,14 M 1,14 L 14,1" class="arrowMarkerPath" style="stroke-width: 2.5; stroke-dasharray: 1, 0;"/></marker></g><defs><filter id="my-svg-drop-shadow" height="130%" width="130%"><feDropShadow dx="4" dy="4" stdDeviation="0" flood-opacity="0.06" flood-color="#000000"/></filter></defs><defs><filter id="my-svg-drop-shadow-small" height="150%" width="150%"><feDropShadow dx="2" dy="2" stdDeviation="0" flood-opacity="0.06" flood-color="#000000"/></filter></defs><linearGradient id="my-svg-gradient" gradientUnits="objectBoundingBox" x1="0%" y1="0%" x2="100%" y2="0%"><stop offset="0%" stop-color="#a6adc8" stop-opacity="1"/><stop offset="100%" stop-color="#6c7086" stop-opacity="1"/></linearGradient><g class="subgraphs"/><g class="nodes"><g class="node default root " id="my-svg-flowchart-alice-0" data-look="classic" transform="translate(286, 39)"><g class="basic label-container outer-path"><path d="M-17.875 -19.5 C-8.302471481995571 -19.5, 1.2700570360088577 -19.5, 17.875 -19.5 C17.875 -19.5, 17.875 -19.5, 17.875 -19.5 C18.221869440413936 -19.48887657218633, 18.568738880827873 -19.477753144372667, 19.1243692896239 -19.45993515863156 C19.505177920158218 -19.423199008033297, 19.885986550692536 -19.386462857435035, 20.368604652847864 -19.3399052695533 C20.829584511743693 -19.26537762091922, 21.290564370639522 -19.190849972285143, 21.60259325967676 -19.140403561325776 C22.084918004340288 -19.03031608581943, 22.567242749003814 -18.920228610313085, 22.82126438623539 -18.862249829261074 C23.234095333180676 -18.739723771201575, 23.646926280125957 -18.617197713142076, 24.019610251460602 -18.50658706670804 C24.35709255959626 -18.38239045766186, 24.69457486773192 -18.258193848615676, 25.192706595147794 -18.074876768247425 C25.552058358533763 -17.915802402387772, 25.911410121919733 -17.756728036528123, 26.33573291279238 -17.568892924097174 C26.609195609858286 -17.42622761019911, 26.882658306924192 -17.283562296301042, 27.443992264076783 -16.990714730406097 C27.71364007752966 -16.82725264126452, 27.98328789098254 -16.66379055212294, 28.512930573605697 -16.342718045390892 C28.807475714657194 -16.137256105647023, 29.102020855708687 -15.931794165903149, 29.538155344578712 -15.627565626425154 C29.871824668010838 -15.361473220301637, 30.205493991442964 -15.095380814178121, 30.51545370850187 -14.848196188198123 C30.768173821710555 -14.618682467989776, 31.020893934919243 -14.389168747781428, 31.440809736767985 -14.007812326905688 C31.67945365316374 -13.761392890197152, 31.918097569559496 -13.514973453488617, 32.31042094296865 -13.10986736009568 C32.51826864311188 -12.865717624638267, 32.72611634325511 -12.62156788918085, 33.12071390812658 -12.158051136245305 C33.298600706650895 -11.919699032043454, 33.476487505175214 -11.681346927841602, 33.868358964640635 -11.156274872382312 C34.06690693637346 -10.851251870205123, 34.26545490810628 -10.546228868027933, 34.55028387860425 -10.108655082055241 C34.73350847425403 -9.783321258976867, 34.91673306990382 -9.457987435898493, 35.163686474273504 -9.019496659696287 C35.27677103069495 -8.784674158665261, 35.389855587116394 -8.549851657634235, 35.70604614880834 -7.893275190886684 C35.81257713751689 -7.630141589140026, 35.91910812622543 -7.367007987393368, 36.175134229970325 -6.734618561215508 C36.26230658497161 -6.472069316980239, 36.3494789399729 -6.20952007274497, 36.56902313421488 -5.548287939305138 C36.669760704036904 -5.164131925634831, 36.77049827385893 -4.7799759119645255, 36.88609428754556 -4.339158212148133 C36.95326862163541 -3.9942322038973037, 37.02044295572525 -3.6493061956464743, 37.125044776581774 -3.1121979531509023 C37.169602600121095 -2.766616272717439, 37.21416042366041 -2.4210345922839758, 37.28489270250937 -1.872449005199798 C37.30618464187214 -1.540809863080505, 37.32747658123491 -1.209170720961212, 37.36498121591342 -0.6250057626472757 C37.36498121591342 -0.3535949198229132, 37.36498121591342 -0.08218407699855068, 37.36498121591342 0.625005762647271 C37.34163777032993 0.9885987701001914, 37.31829432474645 1.3521917775531116, 37.28489270250937 1.8724490051997846 C37.23291363017366 2.27558842580669, 37.18093455783796 2.678727846413595, 37.125044776581774 3.1121979531508885 C37.049789895821164 3.4986158607319435, 36.97453501506055 3.8850337683129985, 36.88609428754556 4.339158212148129 C36.777396240864654 4.753670974173853, 36.668698194183754 5.168183736199578, 36.56902313421489 5.548287939305125 C36.48404544816107 5.804227190343625, 36.39906776210725 6.060166441382126, 36.175134229970325 6.734618561215495 C36.00956253566675 7.143583847256255, 35.84399084136319 7.552549133297016, 35.70604614880834 7.893275190886679 C35.56659280528821 8.182853042529782, 35.42713946176808 8.472430894172886, 35.163686474273504 9.019496659696284 C35.03203830421589 9.253251316456344, 34.90039013415827 9.487005973216403, 34.55028387860425 10.108655082055236 C34.316367894386694 10.468012849050126, 34.08245191016914 10.827370616045016, 33.86835896464064 11.156274872382301 C33.64096766276301 11.460958501124558, 33.413576360885386 11.765642129866816, 33.12071390812658 12.158051136245302 C32.87952922772036 12.441360385647547, 32.638344547314134 12.724669635049791, 32.31042094296866 13.10986736009567 C32.10684782227412 13.320073320876823, 31.903274701579583 13.530279281657975, 31.44080973676799 14.007812326905684 C31.12513395694209 14.294500717820126, 30.809458177116188 14.581189108734568, 30.515453708501887 14.848196188198111 C30.169013498456348 15.12447303654826, 29.82257328841081 15.400749884898408, 29.538155344578715 15.627565626425152 C29.27837493891303 15.808777191705023, 29.018594533247345 15.989988756984893, 28.512930573605708 16.34271804539089 C28.13115929369133 16.574150038812054, 27.74938801377695 16.805582032233218, 27.443992264076787 16.990714730406093 C27.002379613592908 17.22110376729713, 26.560766963109028 17.451492804188167, 26.335732912792388 17.56889292409717 C26.058257598285063 17.691723014816805, 25.78078228377774 17.814553105536444, 25.192706595147804 18.07487676824742 C24.739116350867803 18.241802171084714, 24.285526106587803 18.40872757392201, 24.019610251460616 18.506587066708033 C23.763535535630627 18.582588698202763, 23.507460819800638 18.65859032969749, 22.821264386235413 18.86224982926107 C22.57293874436378 18.918928536542015, 22.324613102492147 18.97560724382296, 21.602593259676766 19.140403561325773 C21.335850574195156 19.18352845009402, 21.069107888713546 19.226653338862263, 20.36860465284788 19.3399052695533 C20.04966107205637 19.37067337320648, 19.730717491264862 19.40144147685966, 19.1243692896239 19.45993515863156 C18.869471569864963 19.468109232375916, 18.614573850106026 19.47628330612027, 17.875000000000004 19.5 C17.875000000000004 19.5, 17.875 19.5, 17.875 19.5 C9.87795907447909 19.5, 1.8809181489581803 19.5, -17.874999999999996 19.5 C-18.294240461225726 19.486555774410544, -18.713480922451453 19.47311154882109, -19.124369289623893 19.45993515863156 C-19.6056332666855 19.41350820156904, -20.086897243747114 19.367081244506522, -20.36860465284787 19.3399052695533 C-20.617395094463163 19.29968276035163, -20.866185536078458 19.259460251149957, -21.60259325967676 19.140403561325773 C-21.859397545104066 19.081789658981563, -22.11620183053137 19.023175756637357, -22.821264386235388 18.862249829261074 C-23.172100160887382 18.758123612918922, -23.52293593553938 18.653997396576774, -24.01961025146059 18.506587066708043 C-24.389847772432507 18.37033623655225, -24.760085293404426 18.23408540639646, -25.192706595147797 18.074876768247425 C-25.44008892187004 17.965367950543477, -25.687471248592285 17.85585913283953, -26.33573291279238 17.568892924097174 C-26.618415932854578 17.42141737359784, -26.901098952916776 17.273941823098507, -27.44399226407678 16.990714730406097 C-27.691069164582824 16.840935261334298, -27.93814606508887 16.691155792262496, -28.512930573605686 16.3427180453909 C-28.87469220354769 16.09036879275192, -29.236453833489687 15.83801954011294, -29.538155344578712 15.627565626425156 C-29.826008379679436 15.398010491023296, -30.11386141478016 15.168455355621436, -30.51545370850187 14.848196188198125 C-30.739885866682815 14.644372840287694, -30.96431802486376 14.440549492377263, -31.440809736767974 14.007812326905697 C-31.760803891131655 13.67739209051653, -32.080798045495335 13.346971854127366, -32.310420942968655 13.109867360095677 C-32.60472757215038 12.764158046937208, -32.899034201332114 12.418448733778739, -33.120713908126575 12.158051136245307 C-33.39072652904291 11.796258822873227, -33.66073914995925 11.43446650950115, -33.868358964640635 11.156274872382316 C-34.00583391046683 10.94507643840143, -34.143308856293025 10.733878004420545, -34.55028387860425 10.108655082055249 C-34.73325695975533 9.783767848437929, -34.916230040906406 9.45888061482061, -35.163686474273504 9.019496659696289 C-35.30042848521884 8.735548948157971, -35.43717049616417 8.451601236619654, -35.70604614880834 7.893275190886686 C-35.867462311821406 7.494574147475211, -36.02887847483447 7.095873104063735, -36.175134229970325 6.73461856121551 C-36.28712992437967 6.397305373745192, -36.399125618789014 6.059992186274874, -36.56902313421488 5.5482879393051325 C-36.65828839983758 5.2078807936749465, -36.74755366546027 4.8674736480447605, -36.88609428754556 4.339158212148136 C-36.956854755762656 3.975818163083615, -37.027615223979744 3.612478114019094, -37.125044776581774 3.112197953150904 C-37.158627251974735 2.851738905612943, -37.1922097273677 2.5912798580749823, -37.28489270250937 1.872449005199809 C-37.307882803811445 1.5143596201441438, -37.33087290511353 1.1562702350884786, -37.36498121591342 0.6250057626472781 C-37.36498121591342 0.215288339353774, -37.36498121591342 -0.19442908393973013, -37.36498121591342 -0.6250057626472687 C-37.3385591462838 -1.0365508246392574, -37.31213707665419 -1.448095886631246, -37.28489270250937 -1.8724490051997822 C-37.251012969123416 -2.1352135270311132, -37.21713323573747 -2.397978048862444, -37.125044776581774 -3.112197953150895 C-37.06306456402561 -3.430453245104256, -37.00108435146944 -3.7487085370576163, -36.88609428754556 -4.339158212148126 C-36.7668837099132 -4.79375981085148, -36.64767313228084 -5.248361409554834, -36.56902313421489 -5.548287939305123 C-36.41677581108654 -6.006832619250975, -36.26452848795819 -6.4653772991968275, -36.17513422997033 -6.734618561215485 C-36.022128096687084 -7.112546668597444, -35.86912196340384 -7.490474775979403, -35.70604614880834 -7.893275190886676 C-35.52195931102861 -8.275535448363629, -35.33787247324888 -8.65779570584058, -35.163686474273504 -9.019496659696282 C-34.95568759902589 -9.388819724868437, -34.74768872377828 -9.758142790040594, -34.55028387860425 -10.108655082055243 C-34.350237463671 -10.415980095376627, -34.15019104873775 -10.72330510869801, -33.86835896464064 -11.156274872382308 C-33.649959647834535 -11.448910060315416, -33.431560331028436 -11.741545248248523, -33.12071390812659 -12.158051136245302 C-32.85095762396005 -12.474922217194718, -32.581201339793516 -12.791793298144137, -32.31042094296866 -13.10986736009567 C-32.06939785681675 -13.358743484910903, -31.82837477066484 -13.607619609726138, -31.440809736767996 -14.007812326905677 C-31.200230993294397 -14.226299576363656, -30.959652249820802 -14.444786825821636, -30.515453708501887 -14.848196188198107 C-30.135673390727924 -15.151060885244148, -29.75589307295396 -15.45392558229019, -29.53815534457872 -15.627565626425149 C-29.296336913002463 -15.79624769614156, -29.054518481426207 -15.96492976585797, -28.51293057360571 -16.342718045390885 C-28.167697590093624 -16.55200030881012, -27.822464606581534 -16.76128257222935, -27.44399226407679 -16.99071473040609 C-27.219592710580294 -17.10778383373044, -26.995193157083794 -17.224852937054788, -26.335732912792388 -17.56889292409717 C-26.001889624942773 -17.716675444518916, -25.668046337093163 -17.864457964940666, -25.192706595147804 -18.07487676824742 C-24.874688681583983 -18.191910300164274, -24.55667076802016 -18.308943832081127, -24.01961025146062 -18.506587066708033 C-23.540702096522494 -18.648724493253464, -23.06179394158437 -18.790861919798896, -22.821264386235413 -18.862249829261067 C-22.51419270919641 -18.93233693571526, -22.20712103215741 -19.00242404216945, -21.602593259676766 -19.140403561325773 C-21.32319289528303 -19.185574845458767, -21.04379253088929 -19.230746129591758, -20.368604652847882 -19.3399052695533 C-20.098678562699266 -19.365944714836317, -19.82875247255065 -19.391984160119335, -19.124369289623903 -19.45993515863156 C-18.845621535719058 -19.468874056549698, -18.56687378181421 -19.47781295446784, -17.875000000000007 -19.5 C-17.875000000000004 -19.5, -17.875000000000004 -19.5, -17.875 -19.5" stroke="none" stroke-width="0" fill="#89b4fa" style="fill:#89b4fa !important;stroke:#89b4fa !important"/><path d="M-17.875 -19.5 C-6.814641991852735 -19.5, 4.24571601629453 -19.5, 17.875 -19.5 M-17.875 -19.5 C-3.969298106759579 -19.5, 9.936403786480842 -19.5, 17.875 -19.5 M17.875 -19.5 C17.875 -19.5, 17.875 -19.5, 17.875 -19.5 M17.875 -19.5 C17.875 -19.5, 17.875 -19.5, 17.875 -19.5 M17.875 -19.5 C18.135387560403338 -19.491649877751506, 18.395775120806675 -19.48329975550301, 19.1243692896239 -19.45993515863156 M17.875 -19.5 C18.25165136032119 -19.487921523981896, 18.628302720642377 -19.475843047963796, 19.1243692896239 -19.45993515863156 M19.1243692896239 -19.45993515863156 C19.479209000753364 -19.42570419845609, 19.83404871188283 -19.391473238280618, 20.368604652847864 -19.3399052695533 M19.1243692896239 -19.45993515863156 C19.500784118884585 -19.423622872757846, 19.87719894814527 -19.387310586884134, 20.368604652847864 -19.3399052695533 M20.368604652847864 -19.3399052695533 C20.79350487346603 -19.271210697034178, 21.218405094084197 -19.20251612451506, 21.60259325967676 -19.140403561325776 M20.368604652847864 -19.3399052695533 C20.712102515770198 -19.284371198941727, 21.055600378692535 -19.22883712833016, 21.60259325967676 -19.140403561325776 M21.60259325967676 -19.140403561325776 C21.895978211505625 -19.07344036058657, 22.18936316333449 -19.00647715984736, 22.82126438623539 -18.862249829261074 M21.60259325967676 -19.140403561325776 C21.87842257395026 -19.07744732029734, 22.154251888223758 -19.014491079268904, 22.82126438623539 -18.862249829261074 M22.82126438623539 -18.862249829261074 C23.2586358980271 -18.73244026037121, 23.69600740981881 -18.602630691481345, 24.019610251460602 -18.50658706670804 M22.82126438623539 -18.862249829261074 C23.27734239583042 -18.726888270015596, 23.733420405425452 -18.591526710770115, 24.019610251460602 -18.50658706670804 M24.019610251460602 -18.50658706670804 C24.47375435952801 -18.339457836877116, 24.92789846759542 -18.172328607046197, 25.192706595147794 -18.074876768247425 M24.019610251460602 -18.50658706670804 C24.3377804695593 -18.389497485314465, 24.65595068765799 -18.27240790392089, 25.192706595147794 -18.074876768247425 M25.192706595147794 -18.074876768247425 C25.628145966953255 -17.882120675199175, 26.063585338758717 -17.689364582150926, 26.33573291279238 -17.568892924097174 M25.192706595147794 -18.074876768247425 C25.511562280048533 -17.9337288150597, 25.830417964949277 -17.792580861871972, 26.33573291279238 -17.568892924097174 M26.33573291279238 -17.568892924097174 C26.599292944607672 -17.431393824317393, 26.862852976422964 -17.293894724537616, 27.443992264076783 -16.990714730406097 M26.33573291279238 -17.568892924097174 C26.657947370071305 -17.40079384812297, 26.98016182735023 -17.232694772148765, 27.443992264076783 -16.990714730406097 M27.443992264076783 -16.990714730406097 C27.73980533051509 -16.811391111140658, 28.0356183969534 -16.63206749187522, 28.512930573605697 -16.342718045390892 M27.443992264076783 -16.990714730406097 C27.827065532788286 -16.75849346372478, 28.210138801499788 -16.52627219704346, 28.512930573605697 -16.342718045390892 M28.512930573605697 -16.342718045390892 C28.86251072570271 -16.0988660643689, 29.212090877799724 -15.855014083346905, 29.538155344578712 -15.627565626425154 M28.512930573605697 -16.342718045390892 C28.81606591762975 -16.13126395191726, 29.119201261653803 -15.919809858443625, 29.538155344578712 -15.627565626425154 M29.538155344578712 -15.627565626425154 C29.76871025933928 -15.44370421722755, 29.999265174099847 -15.259842808029946, 30.51545370850187 -14.848196188198123 M29.538155344578712 -15.627565626425154 C29.839961186704052 -15.38688349872095, 30.141767028829392 -15.146201371016746, 30.51545370850187 -14.848196188198123 M30.51545370850187 -14.848196188198123 C30.751691119298737 -14.633651622211781, 30.987928530095605 -14.419107056225439, 31.440809736767985 -14.007812326905688 M30.51545370850187 -14.848196188198123 C30.861618053625424 -14.533818888963586, 31.20778239874898 -14.21944158972905, 31.440809736767985 -14.007812326905688 M31.440809736767985 -14.007812326905688 C31.68519679553341 -13.755462624179708, 31.92958385429884 -13.50311292145373, 32.31042094296865 -13.10986736009568 M31.440809736767985 -14.007812326905688 C31.61529678685796 -13.827640122034552, 31.78978383694794 -13.647467917163418, 32.31042094296865 -13.10986736009568 M32.31042094296865 -13.10986736009568 C32.561397579486986 -12.815055921866064, 32.812374216005324 -12.520244483636446, 33.12071390812658 -12.158051136245305 M32.31042094296865 -13.10986736009568 C32.55621648260086 -12.821141933081266, 32.80201202223308 -12.532416506066854, 33.12071390812658 -12.158051136245305 M33.12071390812658 -12.158051136245305 C33.37606854348091 -11.81589918815635, 33.63142317883525 -11.473747240067397, 33.868358964640635 -11.156274872382312 M33.12071390812658 -12.158051136245305 C33.3615870366438 -11.835303088025668, 33.60246016516102 -11.512555039806033, 33.868358964640635 -11.156274872382312 M33.868358964640635 -11.156274872382312 C34.051233872707556 -10.875329904802824, 34.23410878077448 -10.594384937223337, 34.55028387860425 -10.108655082055241 M33.868358964640635 -11.156274872382312 C34.0934974434976 -10.810401710711504, 34.31863592235457 -10.464528549040695, 34.55028387860425 -10.108655082055241 M34.55028387860425 -10.108655082055241 C34.687816486802824 -9.864452009511929, 34.8253490950014 -9.620248936968618, 35.163686474273504 -9.019496659696287 M34.55028387860425 -10.108655082055241 C34.7921253195021 -9.679241114639709, 35.03396676039995 -9.249827147224178, 35.163686474273504 -9.019496659696287 M35.163686474273504 -9.019496659696287 C35.29056551322571 -8.756029620535498, 35.41744455217791 -8.492562581374711, 35.70604614880834 -7.893275190886684 M35.163686474273504 -9.019496659696287 C35.34789613157829 -8.636981364847648, 35.53210578888307 -8.254466069999006, 35.70604614880834 -7.893275190886684 M35.70604614880834 -7.893275190886684 C35.8846536647642 -7.452111173334301, 36.06326118072006 -7.010947155781919, 36.175134229970325 -6.734618561215508 M35.70604614880834 -7.893275190886684 C35.86518731651837 -7.500193429857748, 36.0243284842284 -7.107111668828811, 36.175134229970325 -6.734618561215508 M36.175134229970325 -6.734618561215508 C36.301435613577034 -6.354218917184776, 36.427736997183736 -5.973819273154044, 36.56902313421488 -5.548287939305138 M36.175134229970325 -6.734618561215508 C36.322544950294706 -6.290640958307199, 36.469955670619086 -5.846663355398889, 36.56902313421488 -5.548287939305138 M36.56902313421488 -5.548287939305138 C36.68407086565081 -5.109561077337736, 36.79911859708673 -4.670834215370332, 36.88609428754556 -4.339158212148133 M36.56902313421488 -5.548287939305138 C36.69274073520806 -5.0764991071706955, 36.81645833620124 -4.604710275036253, 36.88609428754556 -4.339158212148133 M36.88609428754556 -4.339158212148133 C36.96638633107653 -3.9268755383460183, 37.046678374607495 -3.5145928645439035, 37.125044776581774 -3.1121979531509023 M36.88609428754556 -4.339158212148133 C36.96152745931079 -3.9518248179401745, 37.03696063107602 -3.564491423732216, 37.125044776581774 -3.1121979531509023 M37.125044776581774 -3.1121979531509023 C37.159116064400656 -2.847947772964436, 37.19318735221954 -2.5836975927779697, 37.28489270250937 -1.872449005199798 M37.125044776581774 -3.1121979531509023 C37.180385818893896 -2.6829837573029756, 37.23572686120602 -2.253769561455049, 37.28489270250937 -1.872449005199798 M37.28489270250937 -1.872449005199798 C37.305236468022045 -1.5555784361479317, 37.325580233534716 -1.2387078670960656, 37.36498121591342 -0.6250057626472757 M37.28489270250937 -1.872449005199798 C37.31362092883169 -1.424983691222749, 37.34234915515401 -0.9775183772457001, 37.36498121591342 -0.6250057626472757 M37.36498121591342 -0.6250057626472757 C37.36498121591342 -0.23598456189320277, 37.36498121591342 0.15303663886087016, 37.36498121591342 0.625005762647271 M37.36498121591342 -0.6250057626472757 C37.36498121591342 -0.2690953424219352, 37.36498121591342 0.08681507780340525, 37.36498121591342 0.625005762647271 M37.36498121591342 0.625005762647271 C37.34587717042157 0.9225666916906989, 37.32677312492973 1.2201276207341267, 37.28489270250937 1.8724490051997846 M37.36498121591342 0.625005762647271 C37.34326850895469 0.9631986997111527, 37.32155580199595 1.3013916367750342, 37.28489270250937 1.8724490051997846 M37.28489270250937 1.8724490051997846 C37.23120851852706 2.288812935025331, 37.177524334544756 2.705176864850877, 37.125044776581774 3.1121979531508885 M37.28489270250937 1.8724490051997846 C37.23906097993218 2.227910795011171, 37.193229257354986 2.5833725848225577, 37.125044776581774 3.1121979531508885 M37.125044776581774 3.1121979531508885 C37.06101163998684 3.4409945761576983, 36.996978503391894 3.769791199164508, 36.88609428754556 4.339158212148129 M37.125044776581774 3.1121979531508885 C37.0438851991777 3.5289352300380337, 36.962725621773636 3.945672506925179, 36.88609428754556 4.339158212148129 M36.88609428754556 4.339158212148129 C36.76699468498752 4.793336614796187, 36.64789508242949 5.247515017444246, 36.56902313421489 5.548287939305125 M36.88609428754556 4.339158212148129 C36.80252477213408 4.657844993669205, 36.718955256722595 4.97653177519028, 36.56902313421489 5.548287939305125 M36.56902313421489 5.548287939305125 C36.45550136231658 5.890197429024756, 36.341979590418276 6.232106918744386, 36.175134229970325 6.734618561215495 M36.56902313421489 5.548287939305125 C36.44573259823805 5.91961938998811, 36.32244206226121 6.290950840671096, 36.175134229970325 6.734618561215495 M36.175134229970325 6.734618561215495 C36.04639908655805 7.052596854368497, 35.91766394314577 7.3705751475215, 35.70604614880834 7.893275190886679 M36.175134229970325 6.734618561215495 C35.996010548599216 7.177057517322924, 35.816886867228106 7.619496473430352, 35.70604614880834 7.893275190886679 M35.70604614880834 7.893275190886679 C35.54219485751981 8.233515903103328, 35.37834356623127 8.573756615319978, 35.163686474273504 9.019496659696284 M35.70604614880834 7.893275190886679 C35.50117945158416 8.318685271117804, 35.296312754359974 8.74409535134893, 35.163686474273504 9.019496659696284 M35.163686474273504 9.019496659696284 C34.957227057987865 9.386086259594332, 34.750767641702225 9.752675859492381, 34.55028387860425 10.108655082055236 M35.163686474273504 9.019496659696284 C35.00705896964071 9.297604654426484, 34.85043146500791 9.575712649156685, 34.55028387860425 10.108655082055236 M34.55028387860425 10.108655082055236 C34.38629742210122 10.360582315773154, 34.22231096559819 10.612509549491072, 33.86835896464064 11.156274872382301 M34.55028387860425 10.108655082055236 C34.393804525676074 10.349049388742612, 34.237325172747894 10.589443695429988, 33.86835896464064 11.156274872382301 M33.86835896464064 11.156274872382301 C33.61022126467001 11.502155873514694, 33.35208356469938 11.848036874647088, 33.12071390812658 12.158051136245302 M33.86835896464064 11.156274872382301 C33.69522934268454 11.388252793370441, 33.52209972072845 11.620230714358582, 33.12071390812658 12.158051136245302 M33.12071390812658 12.158051136245302 C32.87560954264775 12.445964670770234, 32.630505177168914 12.733878205295166, 32.31042094296866 13.10986736009567 M33.12071390812658 12.158051136245302 C32.88638174538092 12.433311028484145, 32.65204958263527 12.708570920722988, 32.31042094296866 13.10986736009567 M32.31042094296866 13.10986736009567 C32.05706767110074 13.371475413989762, 31.803714399232813 13.633083467883852, 31.44080973676799 14.007812326905684 M32.31042094296866 13.10986736009567 C32.02782846640461 13.401667293421868, 31.74523598984055 13.693467226748066, 31.44080973676799 14.007812326905684 M31.44080973676799 14.007812326905684 C31.18945149294138 14.236089233374317, 30.938093249114775 14.464366139842951, 30.515453708501887 14.848196188198111 M31.44080973676799 14.007812326905684 C31.139430109411744 14.281517330402652, 30.8380504820555 14.555222333899618, 30.515453708501887 14.848196188198111 M30.515453708501887 14.848196188198111 C30.233376227409238 15.07314547297248, 29.951298746316585 15.298094757746847, 29.538155344578715 15.627565626425152 M30.515453708501887 14.848196188198111 C30.282347862992033 15.034091896785153, 30.04924201748218 15.219987605372195, 29.538155344578715 15.627565626425152 M29.538155344578715 15.627565626425152 C29.296487290209413 15.796142799511717, 29.054819235840107 15.964719972598282, 28.512930573605708 16.34271804539089 M29.538155344578715 15.627565626425152 C29.169020760168113 15.885057932931376, 28.799886175757507 16.1425502394376, 28.512930573605708 16.34271804539089 M28.512930573605708 16.34271804539089 C28.20770149097071 16.527749709009413, 27.902472408335715 16.712781372627937, 27.443992264076787 16.990714730406093 M28.512930573605708 16.34271804539089 C28.183420786252622 16.54246881489878, 27.853910998899533 16.74221958440667, 27.443992264076787 16.990714730406093 M27.443992264076787 16.990714730406093 C27.1552279448143 17.14136289080296, 26.866463625551813 17.292011051199825, 26.335732912792388 17.56889292409717 M27.443992264076787 16.990714730406093 C27.082288557613115 17.17941532238591, 26.720584851149443 17.368115914365724, 26.335732912792388 17.56889292409717 M26.335732912792388 17.56889292409717 C25.919327973453854 17.753223038528688, 25.50292303411532 17.937553152960206, 25.192706595147804 18.07487676824742 M26.335732912792388 17.56889292409717 C26.05195292276417 17.694513907648354, 25.768172932735947 17.820134891199533, 25.192706595147804 18.07487676824742 M25.192706595147804 18.07487676824742 C24.942861571317135 18.16682204655919, 24.69301654748647 18.25876732487096, 24.019610251460616 18.506587066708033 M25.192706595147804 18.07487676824742 C24.956053402291833 18.16196733081655, 24.719400209435857 18.249057893385686, 24.019610251460616 18.506587066708033 M24.019610251460616 18.506587066708033 C23.67621884885064 18.60850383250442, 23.332827446240664 18.710420598300807, 22.821264386235413 18.86224982926107 M24.019610251460616 18.506587066708033 C23.615967962222733 18.626385979392225, 23.212325672984853 18.746184892076418, 22.821264386235413 18.86224982926107 M22.821264386235413 18.86224982926107 C22.510488138210935 18.933182479868112, 22.199711890186457 19.004115130475153, 21.602593259676766 19.140403561325773 M22.821264386235413 18.86224982926107 C22.351440582536387 18.96948404656853, 21.88161677883736 19.076718263875993, 21.602593259676766 19.140403561325773 M21.602593259676766 19.140403561325773 C21.34376459603092 19.182248972417767, 21.08493593238507 19.224094383509765, 20.36860465284788 19.3399052695533 M21.602593259676766 19.140403561325773 C21.14438901465584 19.214482470233765, 20.68618476963491 19.28856137914176, 20.36860465284788 19.3399052695533 M20.36860465284788 19.3399052695533 C19.882835564624898 19.386766829271366, 19.397066476401918 19.433628388989433, 19.1243692896239 19.45993515863156 M20.36860465284788 19.3399052695533 C19.883362939326457 19.38671595406817, 19.39812122580503 19.433526638583036, 19.1243692896239 19.45993515863156 M19.1243692896239 19.45993515863156 C18.81903683570485 19.469726576135177, 18.513704381785796 19.47951799363879, 17.875000000000004 19.5 M19.1243692896239 19.45993515863156 C18.784171594716824 19.470844636552588, 18.443973899809748 19.481754114473613, 17.875000000000004 19.5 M17.875000000000004 19.5 C17.875000000000004 19.5, 17.875 19.5, 17.875 19.5 M17.875000000000004 19.5 C17.875000000000004 19.5, 17.875 19.5, 17.875 19.5 M17.875 19.5 C9.798198778320918 19.5, 1.7213975566418362 19.5, -17.874999999999996 19.5 M17.875 19.5 C7.2979869301860525 19.5, -3.279026139627895 19.5, -17.874999999999996 19.5 M-17.874999999999996 19.5 C-18.149328803413464 19.491202809223154, -18.423657606826936 19.482405618446307, -19.124369289623893 19.45993515863156 M-17.874999999999996 19.5 C-18.337865429775285 19.48515680658001, -18.800730859550573 19.470313613160023, -19.124369289623893 19.45993515863156 M-19.124369289623893 19.45993515863156 C-19.44453419191653 19.42904923556202, -19.764699094209174 19.39816331249248, -20.36860465284787 19.3399052695533 M-19.124369289623893 19.45993515863156 C-19.508295739951585 19.422898235707557, -19.892222190279277 19.385861312783558, -20.36860465284787 19.3399052695533 M-20.36860465284787 19.3399052695533 C-20.643382424395067 19.29548133038299, -20.918160195942264 19.251057391212683, -21.60259325967676 19.140403561325773 M-20.36860465284787 19.3399052695533 C-20.74934217753049 19.278350579226213, -21.13007970221311 19.21679588889913, -21.60259325967676 19.140403561325773 M-21.60259325967676 19.140403561325773 C-21.8557300476984 19.08262674133175, -22.108866835720043 19.02484992133773, -22.821264386235388 18.862249829261074 M-21.60259325967676 19.140403561325773 C-22.05261850078985 19.037688236730855, -22.502643741902943 18.93497291213594, -22.821264386235388 18.862249829261074 M-22.821264386235388 18.862249829261074 C-23.067058413917028 18.789299452044343, -23.312852441598665 18.716349074827612, -24.01961025146059 18.506587066708043 M-22.821264386235388 18.862249829261074 C-23.269392408221854 18.72924778460748, -23.717520430208317 18.596245739953886, -24.01961025146059 18.506587066708043 M-24.01961025146059 18.506587066708043 C-24.298516553090003 18.40394696952683, -24.577422854719416 18.301306872345616, -25.192706595147797 18.074876768247425 M-24.01961025146059 18.506587066708043 C-24.393243080777378 18.369086731695454, -24.766875910094168 18.23158639668286, -25.192706595147797 18.074876768247425 M-25.192706595147797 18.074876768247425 C-25.58779658399684 17.899982150112063, -25.982886572845885 17.7250875319767, -26.33573291279238 17.568892924097174 M-25.192706595147797 18.074876768247425 C-25.60047529542041 17.89436966066546, -26.008243995693018 17.713862553083494, -26.33573291279238 17.568892924097174 M-26.33573291279238 17.568892924097174 C-26.6930159802058 17.38249857667832, -27.050299047619216 17.19610422925947, -27.44399226407678 16.990714730406097 M-26.33573291279238 17.568892924097174 C-26.75790142181769 17.348647883350505, -27.180069930843 17.128402842603837, -27.44399226407678 16.990714730406097 M-27.44399226407678 16.990714730406097 C-27.823949694348766 16.760382303297515, -28.20390712462075 16.53004987618893, -28.512930573605686 16.3427180453909 M-27.44399226407678 16.990714730406097 C-27.70310330689908 16.833640093541714, -27.96221434972138 16.67656545667733, -28.512930573605686 16.3427180453909 M-28.512930573605686 16.3427180453909 C-28.89637035291982 16.07524705418188, -29.279810132233955 15.807776062972861, -29.538155344578712 15.627565626425156 M-28.512930573605686 16.3427180453909 C-28.737181976576416 16.186289974365295, -28.96143337954715 16.029861903339686, -29.538155344578712 15.627565626425156 M-29.538155344578712 15.627565626425156 C-29.850631995699686 15.378373812509087, -30.16310864682066 15.129181998593019, -30.51545370850187 14.848196188198125 M-29.538155344578712 15.627565626425156 C-29.883099481518776 15.352481856564445, -30.228043618458845 15.077398086703734, -30.51545370850187 14.848196188198125 M-30.51545370850187 14.848196188198125 C-30.716612210196452 14.665509359321405, -30.917770711891034 14.482822530444682, -31.440809736767974 14.007812326905697 M-30.51545370850187 14.848196188198125 C-30.70207228841742 14.678714131575873, -30.888690868332965 14.509232074953623, -31.440809736767974 14.007812326905697 M-31.440809736767974 14.007812326905697 C-31.726954874628117 13.712343979112374, -32.01310001248826 13.41687563131905, -32.310420942968655 13.109867360095677 M-31.440809736767974 14.007812326905697 C-31.625022495636028 13.81759752922566, -31.809235254504078 13.627382731545623, -32.310420942968655 13.109867360095677 M-32.310420942968655 13.109867360095677 C-32.48905752543187 12.90003066562489, -32.66769410789508 12.690193971154102, -33.120713908126575 12.158051136245307 M-32.310420942968655 13.109867360095677 C-32.48393356407391 12.906049562197607, -32.65744618517917 12.702231764299539, -33.120713908126575 12.158051136245307 M-33.120713908126575 12.158051136245307 C-33.40272869432325 11.780177014817319, -33.684743480519934 11.40230289338933, -33.868358964640635 11.156274872382316 M-33.120713908126575 12.158051136245307 C-33.407896474761095 11.773252659825094, -33.695079041395616 11.38845418340488, -33.868358964640635 11.156274872382316 M-33.868358964640635 11.156274872382316 C-34.08940278863018 10.816692200156652, -34.31044661261972 10.477109527930986, -34.55028387860425 10.108655082055249 M-33.868358964640635 11.156274872382316 C-34.06681339766673 10.851395570777324, -34.265267830692814 10.546516269172331, -34.55028387860425 10.108655082055249 M-34.55028387860425 10.108655082055249 C-34.762026506244815 9.732684605413363, -34.973769133885384 9.356714128771477, -35.163686474273504 9.019496659696289 M-34.55028387860425 10.108655082055249 C-34.77112864833123 9.71652283044711, -34.9919734180582 9.324390578838969, -35.163686474273504 9.019496659696289 M-35.163686474273504 9.019496659696289 C-35.33544448932021 8.662837466419015, -35.50720250436691 8.306178273141741, -35.70604614880834 7.893275190886686 M-35.163686474273504 9.019496659696289 C-35.2753388543827 8.787648103421304, -35.38699123449191 8.555799547146322, -35.70604614880834 7.893275190886686 M-35.70604614880834 7.893275190886686 C-35.81089215591004 7.6343035262858425, -35.91573816301174 7.375331861685, -36.175134229970325 6.73461856121551 M-35.70604614880834 7.893275190886686 C-35.80925576192776 7.638345451059607, -35.91246537504717 7.383415711232527, -36.175134229970325 6.73461856121551 M-36.175134229970325 6.73461856121551 C-36.2571126474228 6.487712629335685, -36.33909106487528 6.240806697455861, -36.56902313421488 5.5482879393051325 M-36.175134229970325 6.73461856121551 C-36.30133906632853 6.354509702114552, -36.42754390268673 5.974400843013592, -36.56902313421488 5.5482879393051325 M-36.56902313421488 5.5482879393051325 C-36.640082069622125 5.2773094214598935, -36.71114100502937 5.0063309036146535, -36.88609428754556 4.339158212148136 M-36.56902313421488 5.5482879393051325 C-36.655353365707136 5.219073350866152, -36.74168359719939 4.889858762427172, -36.88609428754556 4.339158212148136 M-36.88609428754556 4.339158212148136 C-36.96373893783517 3.9404693431136684, -37.041383588124766 3.541780474079201, -37.125044776581774 3.112197953150904 M-36.88609428754556 4.339158212148136 C-36.94314378826177 4.046221083386641, -37.00019328897798 3.753283954625145, -37.125044776581774 3.112197953150904 M-37.125044776581774 3.112197953150904 C-37.16078377900925 2.8350133077876927, -37.19652278143673 2.557828662424481, -37.28489270250937 1.872449005199809 M-37.125044776581774 3.112197953150904 C-37.171586261534834 2.751231386510717, -37.218127746487895 2.3902648198705294, -37.28489270250937 1.872449005199809 M-37.28489270250937 1.872449005199809 C-37.30295803650449 1.5910668461505768, -37.32102337049962 1.3096846871013446, -37.36498121591342 0.6250057626472781 M-37.28489270250937 1.872449005199809 C-37.312486416240425 1.4426546405937521, -37.34008012997148 1.0128602759876952, -37.36498121591342 0.6250057626472781 M-37.36498121591342 0.6250057626472781 C-37.36498121591342 0.18867892588203317, -37.36498121591342 -0.2476479108832118, -37.36498121591342 -0.6250057626472687 M-37.36498121591342 0.6250057626472781 C-37.36498121591342 0.26803792458144826, -37.36498121591342 -0.08892991348438162, -37.36498121591342 -0.6250057626472687 M-37.36498121591342 -0.6250057626472687 C-37.334149762566675 -1.1052305352239349, -37.30331830921994 -1.585455307800601, -37.28489270250937 -1.8724490051997822 M-37.36498121591342 -0.6250057626472687 C-37.33857036816303 -1.036376034812048, -37.312159520412656 -1.4477463069768275, -37.28489270250937 -1.8724490051997822 M-37.28489270250937 -1.8724490051997822 C-37.23874862702486 -2.2303333424792577, -37.19260455154035 -2.588217679758733, -37.125044776581774 -3.112197953150895 M-37.28489270250937 -1.8724490051997822 C-37.2489291713821 -2.1513750508203597, -37.212965640254836 -2.430301096440937, -37.125044776581774 -3.112197953150895 M-37.125044776581774 -3.112197953150895 C-37.062438974707966 -3.433665514032003, -36.99983317283415 -3.7551330749131115, -36.88609428754556 -4.339158212148126 M-37.125044776581774 -3.112197953150895 C-37.05855275444429 -3.4536204337330214, -36.992060732306804 -3.7950429143151476, -36.88609428754556 -4.339158212148126 M-36.88609428754556 -4.339158212148126 C-36.82033101703874 -4.5899420645723605, -36.754567746531926 -4.840725916996595, -36.56902313421489 -5.548287939305123 M-36.88609428754556 -4.339158212148126 C-36.80600357766448 -4.644578800457951, -36.725912867783386 -4.949999388767775, -36.56902313421489 -5.548287939305123 M-36.56902313421489 -5.548287939305123 C-36.48762264094285 -5.793453255633159, -36.406222147670825 -6.0386185719611944, -36.17513422997033 -6.734618561215485 M-36.56902313421489 -5.548287939305123 C-36.42877941401312 -5.970679679750515, -36.288535693811355 -6.393071420195907, -36.17513422997033 -6.734618561215485 M-36.17513422997033 -6.734618561215485 C-36.00882171903851 -7.14541367865075, -35.84250920810668 -7.5562087960860165, -35.70604614880834 -7.893275190886676 M-36.17513422997033 -6.734618561215485 C-36.01839738238862 -7.121761605043108, -35.86166053480691 -7.508904648870732, -35.70604614880834 -7.893275190886676 M-35.70604614880834 -7.893275190886676 C-35.5077643467535 -8.305011595404487, -35.309482544698646 -8.716747999922298, -35.163686474273504 -9.019496659696282 M-35.70604614880834 -7.893275190886676 C-35.50059123516983 -8.319906715087965, -35.295136321531324 -8.746538239289256, -35.163686474273504 -9.019496659696282 M-35.163686474273504 -9.019496659696282 C-34.969288920520974 -9.364669201270775, -34.77489136676844 -9.709841742845269, -34.55028387860425 -10.108655082055243 M-35.163686474273504 -9.019496659696282 C-34.98229651840947 -9.341572894057633, -34.800906562545435 -9.663649128418983, -34.55028387860425 -10.108655082055243 M-34.55028387860425 -10.108655082055243 C-34.331009393181915 -10.445519575107742, -34.11173490775958 -10.782384068160239, -33.86835896464064 -11.156274872382308 M-34.55028387860425 -10.108655082055243 C-34.2953396262106 -10.500317915849259, -34.04039537381695 -10.891980749643274, -33.86835896464064 -11.156274872382308 M-33.86835896464064 -11.156274872382308 C-33.70432950075192 -11.376059410601624, -33.540300036863194 -11.595843948820937, -33.12071390812659 -12.158051136245302 M-33.86835896464064 -11.156274872382308 C-33.59542558876589 -11.521980731312414, -33.32249221289115 -11.887686590242518, -33.12071390812659 -12.158051136245302 M-33.12071390812659 -12.158051136245302 C-32.83332629745488 -12.495632976558587, -32.54593868678318 -12.833214816871873, -32.31042094296866 -13.10986736009567 M-33.12071390812659 -12.158051136245302 C-32.87818846410091 -12.442935322886568, -32.63566302007523 -12.727819509527835, -32.31042094296866 -13.10986736009567 M-32.31042094296866 -13.10986736009567 C-32.071341069366575 -13.35673695841249, -31.832261195764495 -13.603606556729309, -31.440809736767996 -14.007812326905677 M-32.31042094296866 -13.10986736009567 C-31.99962217436979 -13.430792605727458, -31.688823405770922 -13.751717851359246, -31.440809736767996 -14.007812326905677 M-31.440809736767996 -14.007812326905677 C-31.21999366511277 -14.208351640709854, -30.999177593457546 -14.40889095451403, -30.515453708501887 -14.848196188198107 M-31.440809736767996 -14.007812326905677 C-31.17741879341903 -14.247017012712734, -30.914027850070063 -14.48622169851979, -30.515453708501887 -14.848196188198107 M-30.515453708501887 -14.848196188198107 C-30.149892060297244 -15.139721874637305, -29.784330412092597 -15.4312475610765, -29.53815534457872 -15.627565626425149 M-30.515453708501887 -14.848196188198107 C-30.23713714123639 -15.070146244277442, -29.958820573970893 -15.292096300356777, -29.53815534457872 -15.627565626425149 M-29.53815534457872 -15.627565626425149 C-29.12920157431161 -15.912834073240095, -28.720247804044504 -16.19810252005504, -28.51293057360571 -16.342718045390885 M-29.53815534457872 -15.627565626425149 C-29.14536257549644 -15.901560858412028, -28.752569806414158 -16.175556090398906, -28.51293057360571 -16.342718045390885 M-28.51293057360571 -16.342718045390885 C-28.278319646020975 -16.4849405684196, -28.04370871843624 -16.627163091448313, -27.44399226407679 -16.99071473040609 M-28.51293057360571 -16.342718045390885 C-28.096967482222695 -16.594877315857726, -27.681004390839675 -16.84703658632457, -27.44399226407679 -16.99071473040609 M-27.44399226407679 -16.99071473040609 C-27.110639542922712 -17.164624631509565, -26.77728682176863 -17.33853453261304, -26.335732912792388 -17.56889292409717 M-27.44399226407679 -16.99071473040609 C-27.005218340065465 -17.219622805514685, -26.566444416054143 -17.448530880623284, -26.335732912792388 -17.56889292409717 M-26.335732912792388 -17.56889292409717 C-26.01565956852827 -17.710579898964482, -25.695586224264154 -17.852266873831795, -25.192706595147804 -18.07487676824742 M-26.335732912792388 -17.56889292409717 C-26.019014147211692 -17.709094926491375, -25.702295381630996 -17.849296928885575, -25.192706595147804 -18.07487676824742 M-25.192706595147804 -18.07487676824742 C-24.897403938114355 -18.183550875783567, -24.602101281080905 -18.292224983319716, -24.01961025146062 -18.506587066708033 M-25.192706595147804 -18.07487676824742 C-24.918745611200396 -18.17569694280764, -24.64478462725299 -18.276517117367863, -24.01961025146062 -18.506587066708033 M-24.01961025146062 -18.506587066708033 C-23.75729174345935 -18.58444182294486, -23.494973235458083 -18.662296579181692, -22.821264386235413 -18.862249829261067 M-24.01961025146062 -18.506587066708033 C-23.659703515283756 -18.613405496816316, -23.299796779106888 -18.7202239269246, -22.821264386235413 -18.862249829261067 M-22.821264386235413 -18.862249829261067 C-22.408748089438667 -18.956403982084517, -21.996231792641925 -19.050558134907963, -21.602593259676766 -19.140403561325773 M-22.821264386235413 -18.862249829261067 C-22.53854858836969 -18.926777865230925, -22.255832790503966 -18.99130590120078, -21.602593259676766 -19.140403561325773 M-21.602593259676766 -19.140403561325773 C-21.30923252829443 -19.187831849329218, -21.015871796912094 -19.235260137332666, -20.368604652847882 -19.3399052695533 M-21.602593259676766 -19.140403561325773 C-21.130538893290822 -19.216721650446768, -20.65848452690488 -19.29303973956776, -20.368604652847882 -19.3399052695533 M-20.368604652847882 -19.3399052695533 C-19.99613421612909 -19.375837044622322, -19.6236637794103 -19.411768819691343, -19.124369289623903 -19.45993515863156 M-20.368604652847882 -19.3399052695533 C-20.07924336817831 -19.36781960467751, -19.78988208350874 -19.395733939801726, -19.124369289623903 -19.45993515863156 M-19.124369289623903 -19.45993515863156 C-18.754343999153473 -19.47180114948641, -18.384318708683043 -19.48366714034126, -17.875000000000007 -19.5 M-19.124369289623903 -19.45993515863156 C-18.79396846868713 -19.470530469872816, -18.463567647750352 -19.481125781114073, -17.875000000000007 -19.5 M-17.875000000000007 -19.5 C-17.875000000000004 -19.5, -17.875000000000004 -19.5, -17.875 -19.5 M-17.875000000000007 -19.5 C-17.875000000000004 -19.5, -17.875000000000004 -19.5, -17.875 -19.5" stroke="#89b4fa" stroke-width="1.3" fill="none" stroke-dasharray="0 0" style="fill:#89b4fa !important;stroke:#89b4fa !important"/></g><g class="label" style="color:#1e1e2e !important;font-weight:bold !important" transform="translate(-25, -12)"><rect/><foreignObject width="50" height="24"><div style="color: rgb(30, 30, 46) !important; font-weight: bold !important; display: table-cell; white-space: nowrap; line-height: 1.5; max-width: 200px; text-align: center;" xmlns="http://www.w3.org/1999/xhtml"><span style="color:#1e1e2e !important;font-weight:bold !important" class="nodeLabel "><p>alice</p></span></div></foreignObject></g></g><g class="node default alice_dotfiles_c " id="my-svg-flowchart-alice_dotfiles-1" data-look="classic" transform="translate(560, 39)"><rect class="basic label-container" style="fill:#f9e2af !important;stroke:#f9e2af !important;stroke-dasharray:3 3 !important;stroke-width:1px !important" x="-100" y="-27" width="200" height="54"/><g class="label" style="color:#1e1e2e !important" transform="translate(-70, -12)"><rect/><foreignObject width="140" height="24"><div style="color: rgb(30, 30, 46) !important; display: table-cell; white-space: nowrap; line-height: 1.5; max-width: 200px; text-align: center;" xmlns="http://www.w3.org/1999/xhtml"><span style="color:#1e1e2e !important" class="nodeLabel "><p>alice-dotfiles</p></span></div></foreignObject></g></g><g class="node default den__provides__define_user_c " id="my-svg-flowchart-den__provides__define_user-2" data-look="classic" transform="translate(274, 113)"><polygon points="-19.5,0 234.5,0 215,-39 0,-39" class="label-container" transform="translate(-107.5,19.5)" style="fill:#a6e3a1 !important;stroke:#a6e3a1 !important;stroke-dasharray:3 3 !important;stroke-width:1px !important"/><g class="label" style="color:#1e1e2e !important" transform="translate(-100, -12)"><rect/><foreignObject width="200" height="24"><div style="color: rgb(30, 30, 46) !important; display: table; white-space: break-spaces; line-height: 1.5; max-width: 200px; text-align: center; width: 200px;" xmlns="http://www.w3.org/1999/xhtml"><span style="color:#1e1e2e !important" class="nodeLabel "><p>provides/define-user</p></span></div></foreignObject></g></g><g class="node default demo_shell_c " id="my-svg-flowchart-demo_shell-3" data-look="classic" transform="translate(540, 128)"><rect class="basic label-container" style="fill:#fab387 !important;stroke:#fab387 !important;stroke-dasharray:3 3 !important;stroke-width:1px !important" x="-80" y="-27" width="160" height="54"/><g class="label" style="color:#1e1e2e !important" transform="translate(-50, -12)"><rect/><foreignObject width="100" height="24"><div style="color: rgb(30, 30, 46) !important; display: table-cell; white-space: nowrap; line-height: 1.5; max-width: 200px; text-align: center;" xmlns="http://www.w3.org/1999/xhtml"><span style="color:#1e1e2e !important" class="nodeLabel "><p>demo-shell</p></span></div></foreignObject></g></g><g class="node default dev_tools_c " id="my-svg-flowchart-dev_tools-4" data-look="classic" transform="translate(535, 217)"><rect class="basic label-container" style="fill:#a6e3a1 !important;stroke:#a6e3a1 !important;stroke-dasharray:3 3 !important;stroke-width:1px !important" x="-75" y="-27" width="150" height="54"/><g class="label" style="color:#1e1e2e !important" transform="translate(-45, -12)"><rect/><foreignObject width="90" height="24"><div style="color: rgb(30, 30, 46) !important; display: table-cell; white-space: nowrap; line-height: 1.5; max-width: 200px; text-align: center;" xmlns="http://www.w3.org/1999/xhtml"><span style="color:#1e1e2e !important" class="nodeLabel "><p>dev-tools</p></span></div></foreignObject></g></g><g class="node default home_c " id="my-svg-flowchart-home-5" data-look="classic" transform="translate(62, 39)"><rect class="basic label-container" style="fill:#a6e3a1 !important;stroke:#a6e3a1 !important;stroke-dasharray:3 3 !important;stroke-width:1px !important" x="-50" y="-27" width="100" height="54"/><g class="label" style="color:#1e1e2e !important" transform="translate(-20, -12)"><rect/><foreignObject width="40" height="24"><div style="color: rgb(30, 30, 46) !important; display: table-cell; white-space: nowrap; line-height: 1.5; max-width: 200px; text-align: center;" xmlns="http://www.w3.org/1999/xhtml"><span style="color:#1e1e2e !important" class="nodeLabel "><p>home</p></span></div></foreignObject></g></g><g class="node default home_bat_c " id="my-svg-flowchart-home_bat-6" data-look="classic" transform="translate(860.5, 306)"><rect class="basic label-container" style="fill:#f9e2af !important;stroke:#f9e2af !important;stroke-dasharray:3 3 !important;stroke-width:1px !important" x="-70" y="-27" width="140" height="54"/><g class="label" style="color:#1e1e2e !important" transform="translate(-40, -12)"><rect/><foreignObject width="80" height="24"><div style="color: rgb(30, 30, 46) !important; display: table-cell; white-space: nowrap; line-height: 1.5; max-width: 200px; text-align: center;" xmlns="http://www.w3.org/1999/xhtml"><span style="color:#1e1e2e !important" class="nodeLabel "><p>home-bat</p></span></div></foreignObject></g></g><g class="node default home_dev_c " id="my-svg-flowchart-home_dev-7" data-look="classic" transform="translate(599, 306)"><rect class="basic label-container" style="fill:#a6e3a1 !important;stroke:#a6e3a1 !important;stroke-dasharray:3 3 !important;stroke-width:1px !important" x="-70" y="-27" width="140" height="54"/><g class="label" style="color:#1e1e2e !important" transform="translate(-40, -12)"><rect/><foreignObject width="80" height="24"><div style="color: rgb(30, 30, 46) !important; display: table-cell; white-space: nowrap; line-height: 1.5; max-width: 200px; text-align: center;" xmlns="http://www.w3.org/1999/xhtml"><span style="color:#1e1e2e !important" class="nodeLabel "><p>home-dev</p></span></div></foreignObject></g></g><g class="node default home_firefox_c " id="my-svg-flowchart-home_firefox-8" data-look="classic" transform="translate(880.5, 395)"><rect class="basic label-container" style="fill:#a6e3a1 !important;stroke:#a6e3a1 !important;stroke-dasharray:3 3 !important;stroke-width:1px !important" x="-90" y="-27" width="180" height="54"/><g class="label" style="color:#1e1e2e !important" transform="translate(-60, -12)"><rect/><foreignObject width="120" height="24"><div style="color: rgb(30, 30, 46) !important; display: table-cell; white-space: nowrap; line-height: 1.5; max-width: 200px; text-align: center;" xmlns="http://www.w3.org/1999/xhtml"><span style="color:#1e1e2e !important" class="nodeLabel "><p>home-firefox</p></span></div></foreignObject></g></g><g class="node default home_git_c " id="my-svg-flowchart-home_git-9" data-look="classic" transform="translate(860.5, 484)"><rect class="basic label-container" style="fill:#fab387 !important;stroke:#fab387 !important;stroke-dasharray:3 3 !important;stroke-width:1px !important" x="-70" y="-27" width="140" height="54"/><g class="label" style="color:#1e1e2e !important" transform="translate(-40, -12)"><rect/><foreignObject width="80" height="24"><div style="color: rgb(30, 30, 46) !important; display: table-cell; white-space: nowrap; line-height: 1.5; max-width: 200px; text-align: center;" xmlns="http://www.w3.org/1999/xhtml"><span style="color:#1e1e2e !important" class="nodeLabel "><p>home-git</p></span></div></foreignObject></g></g><g class="node default home_productivity_c " id="my-svg-flowchart-home_productivity-10" data-look="classic" transform="translate(599, 395)"><rect class="basic label-container" style="fill:#fab387 !important;stroke:#fab387 !important;stroke-dasharray:3 3 !important;stroke-width:1px !important" x="-115" y="-27" width="230" height="54"/><g class="label" style="color:#1e1e2e !important" transform="translate(-85, -12)"><rect/><foreignObject width="170" height="24"><div style="color: rgb(30, 30, 46) !important; display: table-cell; white-space: nowrap; line-height: 1.5; max-width: 200px; text-align: center;" xmlns="http://www.w3.org/1999/xhtml"><span style="color:#1e1e2e !important" class="nodeLabel "><p>home-productivity</p></span></div></foreignObject></g></g><g class="node default home_slack_c " id="my-svg-flowchart-home_slack-11" data-look="classic" transform="translate(870.5, 573)"><rect class="basic label-container" style="fill:#f9e2af !important;stroke:#f9e2af !important;stroke-dasharray:3 3 !important;stroke-width:1px !important" x="-80" y="-27" width="160" height="54"/><g class="label" style="color:#1e1e2e !important" transform="translate(-50, -12)"><rect/><foreignObject width="100" height="24"><div style="color: rgb(30, 30, 46) !important; display: table-cell; white-space: nowrap; line-height: 1.5; max-width: 200px; text-align: center;" xmlns="http://www.w3.org/1999/xhtml"><span style="color:#1e1e2e !important" class="nodeLabel "><p>home-slack</p></span></div></foreignObject></g></g><g class="node default den__provides__hostname_c " id="my-svg-flowchart-den__provides__hostname-12" data-look="classic" transform="translate(259, 187)"><polygon points="-19.5,0 204.5,0 185,-39 0,-39" class="label-container" transform="translate(-92.5,19.5)" style="fill:#fab387 !important;stroke:#fab387 !important;stroke-dasharray:3 3 !important;stroke-width:1px !important"/><g class="label" style="color:#1e1e2e !important" transform="translate(-85, -12)"><rect/><foreignObject width="170" height="24"><div style="color: rgb(30, 30, 46) !important; display: table-cell; white-space: nowrap; line-height: 1.5; max-width: 200px; text-align: center;" xmlns="http://www.w3.org/1999/xhtml"><span style="color:#1e1e2e !important" class="nodeLabel "><p>provides/hostname</p></span></div></foreignObject></g></g><g class="node default hyprland_c " id="my-svg-flowchart-hyprland-13" data-look="classic" transform="translate(530, 484)"><rect class="basic label-container" style="fill:#fab387 !important;stroke:#fab387 !important;stroke-dasharray:3 3 !important;stroke-width:1px !important" x="-70" y="-27" width="140" height="54"/><g class="label" style="color:#1e1e2e !important" transform="translate(-40, -12)"><rect/><foreignObject width="80" height="24"><div style="color: rgb(30, 30, 46) !important; display: table-cell; white-space: nowrap; line-height: 1.5; max-width: 200px; text-align: center;" xmlns="http://www.w3.org/1999/xhtml"><span style="color:#1e1e2e !important" class="nodeLabel "><p>hyprland</p></span></div></foreignObject></g></g><g class="node default den__provides__mutual_provider_c " id="my-svg-flowchart-den__provides__mutual_provider-14" data-look="classic" transform="translate(286, 273)"><polygon points="-31.5,0 246.5,0 215,-63 0,-63" class="label-container" transform="translate(-107.5,31.5)" style="fill:#f9e2af !important;stroke:#f9e2af !important;stroke-dasharray:3 3 !important;stroke-width:1px !important"/><g class="label" style="color:#1e1e2e !important" transform="translate(-100, -24)"><rect/><foreignObject width="200" height="48"><div style="color: rgb(30, 30, 46) !important; display: table; white-space: break-spaces; line-height: 1.5; max-width: 200px; text-align: center; width: 200px;" xmlns="http://www.w3.org/1999/xhtml"><span style="color:#1e1e2e !important" class="nodeLabel "><p>provides/mutual-provider</p></span></div></foreignObject></g></g><g class="node default primary_user_c " id="my-svg-flowchart-primary_user-15" data-look="classic" transform="translate(550, 573)"><rect class="basic label-container" style="fill:#fab387 !important;stroke:#fab387 !important;stroke-dasharray:3 3 !important;stroke-width:1px !important" x="-90" y="-27" width="180" height="54"/><g class="label" style="color:#1e1e2e !important" transform="translate(-60, -12)"><rect/><foreignObject width="120" height="24"><div style="color: rgb(30, 30, 46) !important; display: table-cell; white-space: nowrap; line-height: 1.5; max-width: 200px; text-align: center;" xmlns="http://www.w3.org/1999/xhtml"><span style="color:#1e1e2e !important" class="nodeLabel "><p>primary-user</p></span></div></foreignObject></g></g><g class="node default den__provides__primary_user_c " id="my-svg-flowchart-den__provides__primary_user-16" data-look="classic" transform="translate(599, 666.5)"><polygon points="-31.5,0 246.5,0 215,-63 0,-63" class="label-container" transform="translate(-107.5,31.5)" style="fill:#fab387 !important;stroke:#fab387 !important;stroke-dasharray:3 3 !important;stroke-width:1px !important"/><g class="label" style="color:#1e1e2e !important" transform="translate(-100, -24)"><rect/><foreignObject width="200" height="48"><div style="color: rgb(30, 30, 46) !important; display: table; white-space: break-spaces; line-height: 1.5; max-width: 200px; text-align: center; width: 200px;" xmlns="http://www.w3.org/1999/xhtml"><span style="color:#1e1e2e !important" class="nodeLabel "><p>provides/primary-user</p></span></div></foreignObject></g></g></g><g class="edges edgePaths"><path d="M323.365,39L456,39" id="my-svg-L_alice_alice_dotfiles_0_0" class=" edge-thickness-normal edge-pattern-solid edge-thickness-normal edge-pattern-solid flowchart-link" style=";" data-edge="true" data-et="edge" data-id="L_alice_alice_dotfiles_0_0" data-points="W3sieCI6MzIzLjM2NDk4MjYwNDk4MDQ3LCJ5IjozOX0seyJ4Ijo0NjAsInkiOjM5fV0=" data-look="classic" marker-end="url(#my-svg_flowchart-v2-pointEnd)"/><path d="M323.365,39L342.387,39C361.41,39,399.455,39,418.949,39.362C438.443,39.724,439.386,40.448,440.219,41.281C441.052,42.114,441.776,43.057,442.138,56.695C442.5,70.333,442.5,96.667,442.862,110.305C443.224,123.943,443.948,124.886,444.781,125.719C445.614,126.552,446.557,127.276,448.445,127.638C450.333,128,453.167,128,454.583,128L456,128" id="my-svg-L_alice_demo_shell_0_0" class=" edge-thickness-normal edge-pattern-solid edge-thickness-normal edge-pattern-solid flowchart-link" style=";" data-edge="true" data-et="edge" data-id="L_alice_demo_shell_0_0" data-points="W3sieCI6MzIzLjM2NDk4MjYwNDk4MDQ3LCJ5IjozOX0seyJ4Ijo0NDIuNSwieSI6Mzl9LHsieCI6NDQyLjUsInkiOjEyOH0seyJ4Ijo0NjAsInkiOjEyOH1d" data-look="classic" marker-end="url(#my-svg_flowchart-v2-pointEnd)"/><path d="M323.365,39L342.387,39C361.41,39,399.455,39,418.949,39.362C438.443,39.724,439.386,40.448,440.219,41.281C441.052,42.114,441.776,43.057,442.138,71.529C442.5,100,442.5,156,442.862,184.471C443.224,212.943,443.948,213.886,444.781,214.719C445.614,215.552,446.557,216.276,448.445,216.638C450.333,217,453.167,217,454.583,217L456,217" id="my-svg-L_alice_dev_tools_0_0" class=" edge-thickness-normal edge-pattern-solid edge-thickness-normal edge-pattern-solid flowchart-link" style=";" data-edge="true" data-et="edge" data-id="L_alice_dev_tools_0_0" data-points="W3sieCI6MzIzLjM2NDk4MjYwNDk4MDQ3LCJ5IjozOX0seyJ4Ijo0NDIuNSwieSI6Mzl9LHsieCI6NDQyLjUsInkiOjIxN30seyJ4Ijo0NjAsInkiOjIxN31d" data-look="classic" marker-end="url(#my-svg_flowchart-v2-pointEnd)"/><path d="M323.365,39L342.387,39C361.41,39,399.455,39,418.949,39.362C438.443,39.724,439.386,40.448,440.219,41.281C441.052,42.114,441.776,43.057,442.138,86.362C442.5,129.667,442.5,215.333,442.862,258.638C443.224,301.943,443.948,302.886,444.781,303.719C445.614,304.552,446.557,305.276,459.945,305.638C473.333,306,499.167,306,512.083,306L525,306" id="my-svg-L_alice_home_dev_0_0" class=" edge-thickness-normal edge-pattern-solid edge-thickness-normal edge-pattern-solid flowchart-link" style=";" data-edge="true" data-et="edge" data-id="L_alice_home_dev_0_0" data-points="W3sieCI6MzIzLjM2NDk4MjYwNDk4MDQ3LCJ5IjozOX0seyJ4Ijo0NDIuNSwieSI6Mzl9LHsieCI6NDQyLjUsInkiOjMwNn0seyJ4Ijo1MjksInkiOjMwNn1d" data-look="classic" marker-end="url(#my-svg_flowchart-v2-pointEnd)"/><path d="M323.365,39L342.387,39C361.41,39,399.455,39,418.949,39.362C438.443,39.724,439.386,40.448,440.219,41.281C441.052,42.114,441.776,43.057,442.138,101.195C442.5,159.333,442.5,274.667,442.862,332.805C443.224,390.943,443.948,391.886,444.781,392.719C445.614,393.552,446.557,394.276,452.445,394.638C458.333,395,469.167,395,474.583,395L480,395" id="my-svg-L_alice_home_productivity_0_0" class=" edge-thickness-normal edge-pattern-solid edge-thickness-normal edge-pattern-solid flowchart-link" style=";" data-edge="true" data-et="edge" data-id="L_alice_home_productivity_0_0" data-points="W3sieCI6MzIzLjM2NDk4MjYwNDk4MDQ3LCJ5IjozOX0seyJ4Ijo0NDIuNSwieSI6Mzl9LHsieCI6NDQyLjUsInkiOjM5NX0seyJ4Ijo0ODQsInkiOjM5NX1d" data-look="classic" marker-end="url(#my-svg_flowchart-v2-pointEnd)"/><path d="M323.365,39L342.387,39C361.41,39,399.455,39,418.949,39.362C438.443,39.724,439.386,40.448,440.219,41.281C441.052,42.114,441.776,43.057,442.138,116.029C442.5,189,442.5,334,442.862,406.971C443.224,479.943,443.948,480.886,444.781,481.719C445.614,482.552,446.557,483.276,448.445,483.638C450.333,484,453.167,484,454.583,484L456,484" id="my-svg-L_alice_hyprland_0_0" class=" edge-thickness-normal edge-pattern-solid edge-thickness-normal edge-pattern-solid flowchart-link" style=";" data-edge="true" data-et="edge" data-id="L_alice_hyprland_0_0" data-points="W3sieCI6MzIzLjM2NDk4MjYwNDk4MDQ3LCJ5IjozOX0seyJ4Ijo0NDIuNSwieSI6Mzl9LHsieCI6NDQyLjUsInkiOjQ4NH0seyJ4Ijo0NjAsInkiOjQ4NH1d" data-look="classic" marker-end="url(#my-svg_flowchart-v2-pointEnd)"/><path d="M323.365,39L342.387,39C361.41,39,399.455,39,418.949,39.362C438.443,39.724,439.386,40.448,440.219,41.281C441.052,42.114,441.776,43.057,442.138,130.862C442.5,218.667,442.5,393.333,442.862,481.138C443.224,568.943,443.948,569.886,444.781,570.719C445.614,571.552,446.557,572.276,448.445,572.638C450.333,573,453.167,573,454.583,573L456,573" id="my-svg-L_alice_primary_user_0_0" class=" edge-thickness-normal edge-pattern-solid edge-thickness-normal edge-pattern-solid flowchart-link" style=";" data-edge="true" data-et="edge" data-id="L_alice_primary_user_0_0" data-points="W3sieCI6MzIzLjM2NDk4MjYwNDk4MDQ3LCJ5IjozOX0seyJ4Ijo0NDIuNSwieSI6Mzl9LHsieCI6NDQyLjUsInkiOjU3M30seyJ4Ijo0NjAsInkiOjU3M31d" data-look="classic" marker-end="url(#my-svg_flowchart-v2-pointEnd)"/><path d="M323.365,39L342.387,39C361.41,39,399.455,39,418.949,39.362C438.443,39.724,439.386,40.448,440.219,41.281C441.052,42.114,441.776,43.057,442.138,146.445C442.5,249.833,442.5,455.667,442.862,559.055C443.224,662.443,443.948,663.386,444.781,664.219C445.614,665.052,446.557,665.776,448.445,666.138C450.333,666.5,453.167,666.5,454.583,666.5L456,666.5" id="my-svg-L_alice_den__provides__primary_user_0_0" class=" edge-thickness-normal edge-pattern-solid edge-thickness-normal edge-pattern-solid flowchart-link" style=";" data-edge="true" data-et="edge" data-id="L_alice_den__provides__primary_user_0_0" data-points="W3sieCI6MzIzLjM2NDk4MjYwNDk4MDQ3LCJ5IjozOX0seyJ4Ijo0NDIuNSwieSI6Mzl9LHsieCI6NDQyLjUsInkiOjY2Ni41fSx7IngiOjQ2MCwieSI6NjY2LjV9XQ==" data-look="classic" marker-end="url(#my-svg_flowchart-v2-pointEnd)"/><path d="M112,39L114.083,39C116.167,39,120.333,39,122.888,39.362C125.443,39.724,126.386,40.448,127.219,41.281C128.052,42.114,128.776,43.057,129.138,54.195C129.5,65.333,129.5,86.667,129.862,97.805C130.224,108.943,130.948,109.886,131.781,110.719C132.614,111.552,133.557,112.276,135.445,112.638C137.333,113,140.167,113,141.583,113L143,113" id="my-svg-L_home_den__provides__define_user_0_0" class=" edge-thickness-normal edge-pattern-solid edge-thickness-normal edge-pattern-solid flowchart-link" style=";" data-edge="true" data-et="edge" data-id="L_home_den__provides__define_user_0_0" data-points="W3sieCI6MTEyLCJ5IjozOX0seyJ4IjoxMjkuNSwieSI6Mzl9LHsieCI6MTI5LjUsInkiOjExM30seyJ4IjoxNDcsInkiOjExM31d" data-look="classic" marker-end="url(#my-svg_flowchart-v2-pointEnd)"/><path d="M112,39L114.083,39C116.167,39,120.333,39,122.888,39.362C125.443,39.724,126.386,40.448,127.219,41.281C128.052,42.114,128.776,43.057,129.138,66.529C129.5,90,129.5,136,129.862,159.471C130.224,182.943,130.948,183.886,131.781,184.719C132.614,185.552,133.557,186.276,135.445,186.638C137.333,187,140.167,187,141.583,187L143,187" id="my-svg-L_home_den__provides__hostname_0_0" class=" edge-thickness-normal edge-pattern-solid edge-thickness-normal edge-pattern-solid flowchart-link" style=";" data-edge="true" data-et="edge" data-id="L_home_den__provides__hostname_0_0" data-points="W3sieCI6MTEyLCJ5IjozOX0seyJ4IjoxMjkuNSwieSI6Mzl9LHsieCI6MTI5LjUsInkiOjE4N30seyJ4IjoxNDcsInkiOjE4N31d" data-look="classic" marker-end="url(#my-svg_flowchart-v2-pointEnd)"/><path d="M112,39L114.083,39C116.167,39,120.333,39,122.888,39.362C125.443,39.724,126.386,40.448,127.219,41.281C128.052,42.114,128.776,43.057,129.138,80.862C129.5,118.667,129.5,193.333,129.862,231.138C130.224,268.943,130.948,269.886,131.781,270.719C132.614,271.552,133.557,272.276,135.445,272.638C137.333,273,140.167,273,141.583,273L143,273" id="my-svg-L_home_den__provides__mutual_provider_0_0" class=" edge-thickness-normal edge-pattern-solid edge-thickness-normal edge-pattern-solid flowchart-link" style=";" data-edge="true" data-et="edge" data-id="L_home_den__provides__mutual_provider_0_0" data-points="W3sieCI6MTEyLCJ5IjozOX0seyJ4IjoxMjkuNSwieSI6Mzl9LHsieCI6MTI5LjUsInkiOjI3M30seyJ4IjoxNDcsInkiOjI3M31d" data-look="classic" marker-end="url(#my-svg_flowchart-v2-pointEnd)"/><path d="M112,39L244.635,39" id="my-svg-L_home_alice_0_0" class=" edge-thickness-normal edge-pattern-solid edge-thickness-normal edge-pattern-solid flowchart-link" style=";" data-edge="true" data-et="edge" data-id="L_home_alice_0_0" data-points="W3sieCI6MTEyLCJ5IjozOX0seyJ4IjoyNDguNjM1MDE3Mzk1MDE5NTMsInkiOjM5fV0=" data-look="classic" marker-end="url(#my-svg_flowchart-v2-pointEnd)"/><path d="M669,306L786.5,306" id="my-svg-L_home_dev_home_bat_0_0" class=" edge-thickness-normal edge-pattern-solid edge-thickness-normal edge-pattern-solid flowchart-link" style=";" data-edge="true" data-et="edge" data-id="L_home_dev_home_bat_0_0" data-points="W3sieCI6NjY5LCJ5IjozMDZ9LHsieCI6NzkwLjUsInkiOjMwNn1d" data-look="classic" marker-end="url(#my-svg_flowchart-v2-pointEnd)"/><path d="M669,306L685.5,306C702,306,735,306,751.971,306.362C768.943,306.724,769.886,307.448,770.719,308.281C771.552,309.114,772.276,310.057,772.638,338.529C773,367,773,423,773.362,451.471C773.724,479.943,774.448,480.886,775.281,481.719C776.114,482.552,777.057,483.276,778.945,483.638C780.833,484,783.667,484,785.083,484L786.5,484" id="my-svg-L_home_dev_home_git_0_0" class=" edge-thickness-normal edge-pattern-solid edge-thickness-normal edge-pattern-solid flowchart-link" style=";" data-edge="true" data-et="edge" data-id="L_home_dev_home_git_0_0" data-points="W3sieCI6NjY5LCJ5IjozMDZ9LHsieCI6NzczLCJ5IjozMDZ9LHsieCI6NzczLCJ5Ijo0ODR9LHsieCI6NzkwLjUsInkiOjQ4NH1d" data-look="classic" marker-end="url(#my-svg_flowchart-v2-pointEnd)"/><path d="M714,395L786.5,395" id="my-svg-L_home_productivity_home_firefox_0_0" class=" edge-thickness-normal edge-pattern-solid edge-thickness-normal edge-pattern-solid flowchart-link" style=";" data-edge="true" data-et="edge" data-id="L_home_productivity_home_firefox_0_0" data-points="W3sieCI6NzE0LCJ5IjozOTV9LHsieCI6NzkwLjUsInkiOjM5NX1d" data-look="classic" marker-end="url(#my-svg_flowchart-v2-pointEnd)"/><path d="M714,395L720.083,395C726.167,395,738.333,395,744.888,395.362C751.443,395.724,752.386,396.448,753.219,397.281C754.052,398.114,754.776,399.057,755.138,427.529C755.5,456,755.5,512,755.862,540.471C756.224,568.943,756.948,569.886,757.781,570.719C758.614,571.552,759.557,572.276,764.362,572.638C769.167,573,777.833,573,782.167,573L786.5,573" id="my-svg-L_home_productivity_home_slack_0_0" class=" edge-thickness-normal edge-pattern-solid edge-thickness-normal edge-pattern-solid flowchart-link" style=";" data-edge="true" data-et="edge" data-id="L_home_productivity_home_slack_0_0" data-points="W3sieCI6NzE0LCJ5IjozOTV9LHsieCI6NzU1LjUsInkiOjM5NX0seyJ4Ijo3NTUuNSwieSI6NTczfSx7IngiOjc5MC41LCJ5Ijo1NzN9XQ==" data-look="classic" marker-end="url(#my-svg_flowchart-v2-pointEnd)"/></g><g class="edgeLabels"><g class="edgeLabel"><g class="label" data-id="L_alice_alice_dotfiles_0_0" transform="translate(0, 0)"><foreignObject width="0" height="0"><div xmlns="http://www.w3.org/1999/xhtml" class="labelBkg" style="display: table-cell; white-space: nowrap; line-height: 1.5; max-width: 200px; text-align: center;"><span class="edgeLabel "></span></div></foreignObject></g></g><g class="edgeLabel"><g class="label" data-id="L_alice_demo_shell_0_0" transform="translate(0, 0)"><foreignObject width="0" height="0"><div xmlns="http://www.w3.org/1999/xhtml" class="labelBkg" style="display: table-cell; white-space: nowrap; line-height: 1.5; max-width: 200px; text-align: center;"><span class="edgeLabel "></span></div></foreignObject></g></g><g class="edgeLabel"><g class="label" data-id="L_alice_dev_tools_0_0" transform="translate(0, 0)"><foreignObject width="0" height="0"><div xmlns="http://www.w3.org/1999/xhtml" class="labelBkg" style="display: table-cell; white-space: nowrap; line-height: 1.5; max-width: 200px; text-align: center;"><span class="edgeLabel "></span></div></foreignObject></g></g><g class="edgeLabel"><g class="label" data-id="L_alice_home_dev_0_0" transform="translate(0, 0)"><foreignObject width="0" height="0"><div xmlns="http://www.w3.org/1999/xhtml" class="labelBkg" style="display: table-cell; white-space: nowrap; line-height: 1.5; max-width: 200px; text-align: center;"><span class="edgeLabel "></span></div></foreignObject></g></g><g class="edgeLabel"><g class="label" data-id="L_alice_home_productivity_0_0" transform="translate(0, 0)"><foreignObject width="0" height="0"><div xmlns="http://www.w3.org/1999/xhtml" class="labelBkg" style="display: table-cell; white-space: nowrap; line-height: 1.5; max-width: 200px; text-align: center;"><span class="edgeLabel "></span></div></foreignObject></g></g><g class="edgeLabel"><g class="label" data-id="L_alice_hyprland_0_0" transform="translate(0, 0)"><foreignObject width="0" height="0"><div xmlns="http://www.w3.org/1999/xhtml" class="labelBkg" style="display: table-cell; white-space: nowrap; line-height: 1.5; max-width: 200px; text-align: center;"><span class="edgeLabel "></span></div></foreignObject></g></g><g class="edgeLabel"><g class="label" data-id="L_alice_primary_user_0_0" transform="translate(0, 0)"><foreignObject width="0" height="0"><div xmlns="http://www.w3.org/1999/xhtml" class="labelBkg" style="display: table-cell; white-space: nowrap; line-height: 1.5; max-width: 200px; text-align: center;"><span class="edgeLabel "></span></div></foreignObject></g></g><g class="edgeLabel"><g class="label" data-id="L_alice_den__provides__primary_user_0_0" transform="translate(0, 0)"><foreignObject width="0" height="0"><div xmlns="http://www.w3.org/1999/xhtml" class="labelBkg" style="display: table-cell; white-space: nowrap; line-height: 1.5; max-width: 200px; text-align: center;"><span class="edgeLabel "></span></div></foreignObject></g></g><g class="edgeLabel"><g class="label" data-id="L_home_den__provides__define_user_0_0" transform="translate(0, 0)"><foreignObject width="0" height="0"><div xmlns="http://www.w3.org/1999/xhtml" class="labelBkg" style="display: table-cell; white-space: nowrap; line-height: 1.5; max-width: 200px; text-align: center;"><span class="edgeLabel "></span></div></foreignObject></g></g><g class="edgeLabel"><g class="label" data-id="L_home_den__provides__hostname_0_0" transform="translate(0, 0)"><foreignObject width="0" height="0"><div xmlns="http://www.w3.org/1999/xhtml" class="labelBkg" style="display: table-cell; white-space: nowrap; line-height: 1.5; max-width: 200px; text-align: center;"><span class="edgeLabel "></span></div></foreignObject></g></g><g class="edgeLabel"><g class="label" data-id="L_home_den__provides__mutual_provider_0_0" transform="translate(0, 0)"><foreignObject width="0" height="0"><div xmlns="http://www.w3.org/1999/xhtml" class="labelBkg" style="display: table-cell; white-space: nowrap; line-height: 1.5; max-width: 200px; text-align: center;"><span class="edgeLabel "></span></div></foreignObject></g></g><g class="edgeLabel"><g class="label" data-id="L_home_alice_0_0" transform="translate(0, 0)"><foreignObject width="0" height="0"><div xmlns="http://www.w3.org/1999/xhtml" class="labelBkg" style="display: table-cell; white-space: nowrap; line-height: 1.5; max-width: 200px; text-align: center;"><span class="edgeLabel "></span></div></foreignObject></g></g><g class="edgeLabel"><g class="label" data-id="L_home_dev_home_bat_0_0" transform="translate(0, 0)"><foreignObject width="0" height="0"><div xmlns="http://www.w3.org/1999/xhtml" class="labelBkg" style="display: table-cell; white-space: nowrap; line-height: 1.5; max-width: 200px; text-align: center;"><span class="edgeLabel "></span></div></foreignObject></g></g><g class="edgeLabel"><g class="label" data-id="L_home_dev_home_git_0_0" transform="translate(0, 0)"><foreignObject width="0" height="0"><div xmlns="http://www.w3.org/1999/xhtml" class="labelBkg" style="display: table-cell; white-space: nowrap; line-height: 1.5; max-width: 200px; text-align: center;"><span class="edgeLabel "></span></div></foreignObject></g></g><g class="edgeLabel"><g class="label" data-id="L_home_productivity_home_firefox_0_0" transform="translate(0, 0)"><foreignObject width="0" height="0"><div xmlns="http://www.w3.org/1999/xhtml" class="labelBkg" style="display: table-cell; white-space: nowrap; line-height: 1.5; max-width: 200px; text-align: center;"><span class="edgeLabel "></span></div></foreignObject></g></g><g class="edgeLabel"><g class="label" data-id="L_home_productivity_home_slack_0_0" transform="translate(0, 0)"><foreignObject width="0" height="0"><div xmlns="http://www.w3.org/1999/xhtml" class="labelBkg" style="display: table-cell; white-space: nowrap; line-height: 1.5; max-width: 200px; text-align: center;"><span class="edgeLabel "></span></div></foreignObject></g></g></g></svg>