<?xml version="1.0" encoding="UTF-8" standalone="no"?>
<!DOCTYPE svg PUBLIC "-//W3C//DTD SVG 1.1//EN"
 "http://www.w3.org/Graphics/SVG/1.1/DTD/svg11.dtd">
<!-- Generated by graphviz version 12.2.1 (0)
 -->
<!-- Pages: 1 -->
<svg width="1789pt" height="755pt"
 viewBox="0.00 0.00 1788.55 755.00" xmlns="http://www.w3.org/2000/svg" xmlns:xlink="http://www.w3.org/1999/xlink">
<g id="graph0" class="graph" transform="scale(1 1) rotate(0) translate(4 751)">
<polygon fill="#1e1e2e" stroke="none" points="-4,4 -4,-751 1784.55,-751 1784.55,4 -4,4"/>
<g id="clust1" class="cluster">
<title>cluster_ctx_home</title>
<polygon fill="#313244" stroke="#6c7086" stroke-dasharray="5,2" points="446.69,-8 446.69,-503 1772.55,-503 1772.55,-8 446.69,-8"/>
<text text-anchor="middle" x="1109.62" y="-485.7" font-family="Times,serif" font-size="14.00" fill="#cdd6f4">home { home }</text>
</g>
<g id="clust2" class="cluster">
<title>cluster_ctx_default</title>
<polygon fill="#313244" stroke="#6c7086" stroke-dasharray="5,2" points="83,-520 83,-739 1544.3,-739 1544.3,-520 83,-520"/>
<text text-anchor="middle" x="813.65" y="-721.7" font-family="Times,serif" font-size="14.00" fill="#cdd6f4">default { home }</text>
</g>
<!-- alice -->
<g id="node1" class="node">
<title>alice</title>
<path fill="#89b4fa" stroke="#89b4fa" d="M258.68,-387C258.68,-387 228.68,-387 228.68,-387 222.68,-387 216.68,-381 216.68,-375 216.68,-375 216.68,-363 216.68,-363 216.68,-357 222.68,-351 228.68,-351 228.68,-351 258.68,-351 258.68,-351 264.68,-351 270.68,-357 270.68,-363 270.68,-363 270.68,-375 270.68,-375 270.68,-381 264.68,-387 258.68,-387"/>
<text text-anchor="middle" x="243.68" y="-364.32" font-family="Times,serif" font-size="14.00" fill="#1e1e2e">alice</text>
</g>
<!-- alice_dotfiles -->
<g id="node2" class="node">
<title>alice_dotfiles</title>
<polygon fill="#f2cdcd" stroke="#f2cdcd" points="1251.26,-416 1145.26,-416 1145.26,-380 1251.26,-380 1251.26,-416"/>
<text text-anchor="middle" x="1198.26" y="-393.32" font-family="Times,serif" font-size="14.00" fill="#1e1e2e">alice&#45;dotfiles</text>
</g>
<!-- alice&#45;&gt;alice_dotfiles -->
<g id="edge1" class="edge">
<title>alice&#45;&gt;alice_dotfiles</title>
<path fill="none" stroke="#a6adc8" d="M271.09,-371.04C307.39,-373.76 374.79,-378.52 432.37,-381 692.26,-392.19 1002.15,-396.21 1133.45,-397.48"/>
<polygon fill="#a6adc8" stroke="#a6adc8" points="1133.3,-400.98 1143.33,-397.57 1133.36,-393.98 1133.3,-400.98"/>
</g>
<!-- demo_shell -->
<g id="node3" class="node">
<title>demo_shell</title>
<polygon fill="#cba6f7" stroke="#cba6f7" points="1244.89,-362 1151.64,-362 1151.64,-326 1244.89,-326 1244.89,-362"/>
<text text-anchor="middle" x="1198.26" y="-339.32" font-family="Times,serif" font-size="14.00" fill="#1e1e2e">demo&#45;shell</text>
</g>
<!-- alice&#45;&gt;demo_shell -->
<g id="edge2" class="edge">
<title>alice&#45;&gt;demo_shell</title>
<path fill="none" stroke="#a6adc8" d="M270.98,-369.19C352.88,-369.71 610.77,-370.64 824.23,-364 936.22,-360.52 1066.94,-352.63 1140.11,-347.86"/>
<polygon fill="#a6adc8" stroke="#a6adc8" points="1140.09,-351.37 1149.84,-347.23 1139.63,-344.39 1140.09,-351.37"/>
</g>
<!-- dev_tools -->
<g id="node4" class="node">
<title>dev_tools</title>
<polygon fill="#f38ba8" stroke="#f38ba8" points="1238.51,-308 1158.01,-308 1158.01,-272 1238.51,-272 1238.51,-308"/>
<text text-anchor="middle" x="1198.26" y="-285.32" font-family="Times,serif" font-size="14.00" fill="#1e1e2e">dev&#45;tools</text>
</g>
<!-- alice&#45;&gt;dev_tools -->
<g id="edge3" class="edge">
<title>alice&#45;&gt;dev_tools</title>
<path fill="none" stroke="#a6adc8" d="M271.09,-368.34C369.74,-365.69 716.56,-354.87 824.23,-331 840.99,-327.28 843.49,-320.84 860.23,-317 959.68,-294.2 1079.45,-289.91 1146.11,-289.51"/>
<polygon fill="#a6adc8" stroke="#a6adc8" points="1146.02,-293.01 1156.01,-289.48 1146,-286.01 1146.02,-293.01"/>
</g>
<!-- home_dev -->
<g id="node6" class="node">
<title>home_dev</title>
<polygon fill="#f38ba8" stroke="#f38ba8" points="670.8,-214 585.8,-214 585.8,-178 670.8,-178 670.8,-214"/>
<text text-anchor="middle" x="628.3" y="-191.32" font-family="Times,serif" font-size="14.00" fill="#1e1e2e">home&#45;dev</text>
</g>
<!-- alice&#45;&gt;home_dev -->
<g id="edge4" class="edge">
<title>alice&#45;&gt;home_dev</title>
<path fill="none" stroke="#a6adc8" d="M271,-357.97C303.35,-343.46 358.58,-315.46 396.37,-279 417.66,-258.46 407.44,-238.93 432.37,-223 474.61,-196.01 532.45,-191.09 574.14,-191.81"/>
<polygon fill="#a6adc8" stroke="#a6adc8" points="573.84,-195.3 583.94,-192.1 574.04,-188.3 573.84,-195.3"/>
</g>
<!-- home_productivity -->
<g id="node9" class="node">
<title>home_productivity</title>
<polygon fill="#cba6f7" stroke="#cba6f7" points="701.55,-160 555.05,-160 555.05,-124 701.55,-124 701.55,-160"/>
<text text-anchor="middle" x="628.3" y="-137.32" font-family="Times,serif" font-size="14.00" fill="#1e1e2e">home&#45;productivity</text>
</g>
<!-- alice&#45;&gt;home_productivity -->
<g id="edge5" class="edge">
<title>alice&#45;&gt;home_productivity</title>
<path fill="none" stroke="#a6adc8" d="M271.15,-360.01C304.94,-347.21 363.04,-320.57 396.37,-279 428.55,-238.87 392.9,-201.98 432.37,-169 462.91,-143.48 506.03,-135.59 543.94,-134.58"/>
<polygon fill="#a6adc8" stroke="#a6adc8" points="543.52,-138.08 553.49,-134.48 543.45,-131.08 543.52,-138.08"/>
</g>
<!-- home__self_provide_home_ -->
<g id="node13" class="node">
<title>home__self_provide_home_</title>
<polygon fill="#f38ba8" stroke="#f38ba8" points="1764.55,-271 1572.3,-271 1572.3,-235 1764.55,-235 1764.55,-271"/>
<text text-anchor="middle" x="1668.43" y="-248.32" font-family="Times,serif" font-size="14.00" fill="#1e1e2e">home/self&#45;provide(home)</text>
</g>
<!-- alice&#45;&gt;home__self_provide_home_ -->
<g id="edge6" class="edge">
<title>alice&#45;&gt;home__self_provide_home_</title>
<path fill="none" stroke="#a6adc8" d="M270.93,-379.6C306.78,-393.63 373.37,-418.09 432.37,-431 619.3,-471.9 669.17,-468.32 860.23,-479 1012.01,-487.49 1413.6,-556.63 1544.3,-479 1616.85,-435.91 1649.37,-333.4 1661.43,-282.59"/>
<polygon fill="#a6adc8" stroke="#a6adc8" points="1664.83,-283.43 1663.62,-272.9 1658.01,-281.89 1664.83,-283.43"/>
</g>
<!-- hyprland -->
<g id="node14" class="node">
<title>hyprland</title>
<polygon fill="#cba6f7" stroke="#cba6f7" points="1238.14,-470 1158.39,-470 1158.39,-434 1238.14,-434 1238.14,-470"/>
<text text-anchor="middle" x="1198.26" y="-447.32" font-family="Times,serif" font-size="14.00" fill="#1e1e2e">hyprland</text>
</g>
<!-- alice&#45;&gt;hyprland -->
<g id="edge7" class="edge">
<title>alice&#45;&gt;hyprland</title>
<path fill="none" stroke="#a6adc8" d="M270.98,-374.36C307.17,-381.53 374.43,-394.15 432.37,-401 700.61,-432.73 1024.28,-446.2 1146.9,-450.42"/>
<polygon fill="#a6adc8" stroke="#a6adc8" points="1146.5,-453.91 1156.62,-450.75 1146.74,-446.92 1146.5,-453.91"/>
</g>
<!-- primary_user -->
<g id="node15" class="node">
<title>primary_user</title>
<polygon fill="#cba6f7" stroke="#cba6f7" points="682.8,-268 573.8,-268 573.8,-232 682.8,-232 682.8,-268"/>
<text text-anchor="middle" x="628.3" y="-245.32" font-family="Times,serif" font-size="14.00" fill="#1e1e2e">primary&#45;user</text>
</g>
<!-- alice&#45;&gt;primary_user -->
<g id="edge8" class="edge">
<title>alice&#45;&gt;primary_user</title>
<path fill="none" stroke="#a6adc8" d="M270.92,-352.77C306.23,-331.74 371.64,-295.57 432.37,-277 474.6,-264.09 523.87,-257.33 562.31,-253.81"/>
<polygon fill="#a6adc8" stroke="#a6adc8" points="562.19,-257.33 571.85,-252.99 561.59,-250.36 562.19,-257.33"/>
</g>
<!-- den__provides__primary_user -->
<g id="node16" class="node">
<title>den__provides__primary_user</title>
<polygon fill="#cba6f7" stroke="#cba6f7" points="729.69,-322 526.91,-322 454.69,-286 801.91,-286 729.69,-322"/>
<text text-anchor="middle" x="628.3" y="-299.32" font-family="Times,serif" font-size="14.00" fill="#1e1e2e">provides/primary&#45;user</text>
</g>
<!-- alice&#45;&gt;den__provides__primary_user -->
<g id="edge9" class="edge">
<title>alice&#45;&gt;den__provides__primary_user</title>
<path fill="none" stroke="#a6adc8" d="M271.09,-364.26C307.4,-357.76 374.8,-345.79 432.37,-336 458.26,-331.6 486.09,-326.97 512.4,-322.64"/>
<polygon fill="#a6adc8" stroke="#a6adc8" points="512.78,-326.12 522.08,-321.05 511.64,-319.22 512.78,-326.12"/>
</g>
<!-- alice_dotfiles&#45;&gt;home__self_provide_home_ -->
<g id="edge10" class="edge">
<title>alice_dotfiles&#45;&gt;home__self_provide_home_</title>
<path fill="none" stroke="#a6adc8" d="M1251.61,-404.46C1321.62,-410.8 1448.07,-414.11 1544.3,-371 1588.49,-351.21 1626.46,-308.56 1648.13,-280.33"/>
<polygon fill="#a6adc8" stroke="#a6adc8" points="1650.74,-282.67 1653.93,-272.57 1645.14,-278.48 1650.74,-282.67"/>
</g>
<!-- demo_shell&#45;&gt;home__self_provide_home_ -->
<g id="edge15" class="edge">
<title>demo_shell&#45;&gt;home__self_provide_home_</title>
<path fill="none" stroke="#a6adc8" d="M1245.23,-346.15C1312.34,-348.01 1440.47,-346.72 1544.3,-317 1574.91,-308.24 1606.72,-291.48 1630.34,-277.3"/>
<polygon fill="#a6adc8" stroke="#a6adc8" points="1631.95,-280.42 1638.64,-272.21 1628.29,-274.45 1631.95,-280.42"/>
</g>
<!-- dev_tools&#45;&gt;home__self_provide_home_ -->
<g id="edge21" class="edge">
<title>dev_tools&#45;&gt;home__self_provide_home_</title>
<path fill="none" stroke="#a6adc8" d="M1238.78,-286.88C1309.11,-281.32 1458.23,-269.53 1560.64,-261.44"/>
<polygon fill="#a6adc8" stroke="#a6adc8" points="1560.75,-264.94 1570.44,-260.67 1560.2,-257.96 1560.75,-264.94"/>
</g>
<!-- home_bat -->
<g id="node5" class="node">
<title>home_bat</title>
<polygon fill="#f2cdcd" stroke="#f2cdcd" points="1239.64,-180 1156.89,-180 1156.89,-144 1239.64,-144 1239.64,-180"/>
<text text-anchor="middle" x="1198.26" y="-157.32" font-family="Times,serif" font-size="14.00" fill="#1e1e2e">home&#45;bat</text>
</g>
<!-- home_bat&#45;&gt;home__self_provide_home_ -->
<g id="edge28" class="edge">
<title>home_bat&#45;&gt;home__self_provide_home_</title>
<path fill="none" stroke="#a6adc8" d="M1240.03,-160C1305.55,-157.94 1437.72,-158.5 1544.3,-189 1574.91,-197.76 1606.72,-214.52 1630.34,-228.7"/>
<polygon fill="#a6adc8" stroke="#a6adc8" points="1628.29,-231.55 1638.64,-233.79 1631.95,-225.58 1628.29,-231.55"/>
</g>
<!-- home_dev&#45;&gt;home_bat -->
<g id="edge29" class="edge">
<title>home_dev&#45;&gt;home_bat</title>
<path fill="none" stroke="#a6adc8" d="M671.06,-193.5C772.88,-187.4 1033.69,-171.79 1145.31,-165.11"/>
<polygon fill="#a6adc8" stroke="#a6adc8" points="1145.3,-168.62 1155.08,-164.53 1144.88,-161.63 1145.3,-168.62"/>
</g>
<!-- home_git -->
<g id="node8" class="node">
<title>home_git</title>
<polygon fill="#cba6f7" stroke="#cba6f7" points="1237.76,-234 1158.76,-234 1158.76,-198 1237.76,-198 1237.76,-234"/>
<text text-anchor="middle" x="1198.26" y="-211.32" font-family="Times,serif" font-size="14.00" fill="#1e1e2e">home&#45;git</text>
</g>
<!-- home_dev&#45;&gt;home_git -->
<g id="edge30" class="edge">
<title>home_dev&#45;&gt;home_git</title>
<path fill="none" stroke="#a6adc8" d="M671.06,-197.47C773.39,-201.07 1036.33,-210.33 1146.99,-214.23"/>
<polygon fill="#a6adc8" stroke="#a6adc8" points="1146.84,-217.73 1156.95,-214.58 1147.08,-210.73 1146.84,-217.73"/>
</g>
<!-- home_dev&#45;&gt;home__self_provide_home_ -->
<g id="edge31" class="edge">
<title>home_dev&#45;&gt;home__self_provide_home_</title>
<path fill="none" stroke="#a6adc8" d="M671,-197.34C711.17,-199.66 773.19,-205.95 824.23,-223 841.59,-228.8 842.54,-238.3 860.23,-243 925.99,-260.48 1356.51,-257.19 1560.52,-254.59"/>
<polygon fill="#a6adc8" stroke="#a6adc8" points="1560.38,-258.09 1570.34,-254.46 1560.29,-251.09 1560.38,-258.09"/>
</g>
<!-- home_firefox -->
<g id="node7" class="node">
<title>home_firefox</title>
<polygon fill="#f38ba8" stroke="#f38ba8" points="1250.89,-52 1145.64,-52 1145.64,-16 1250.89,-16 1250.89,-52"/>
<text text-anchor="middle" x="1198.26" y="-29.32" font-family="Times,serif" font-size="14.00" fill="#1e1e2e">home&#45;firefox</text>
</g>
<!-- home_firefox&#45;&gt;home__self_provide_home_ -->
<g id="edge32" class="edge">
<title>home_firefox&#45;&gt;home__self_provide_home_</title>
<path fill="none" stroke="#a6adc8" d="M1251.19,-24.57C1322.67,-14.41 1452.92,-6.3 1544.3,-61 1606.37,-98.15 1642.55,-180.05 1658.19,-223.91"/>
<polygon fill="#a6adc8" stroke="#a6adc8" points="1654.84,-224.95 1661.4,-233.27 1661.46,-222.68 1654.84,-224.95"/>
</g>
<!-- home_git&#45;&gt;home__self_provide_home_ -->
<g id="edge33" class="edge">
<title>home_git&#45;&gt;home__self_provide_home_</title>
<path fill="none" stroke="#a6adc8" d="M1237.97,-219.06C1307.97,-224.59 1457.86,-236.44 1560.66,-244.56"/>
<polygon fill="#a6adc8" stroke="#a6adc8" points="1560.26,-248.04 1570.51,-245.34 1560.81,-241.06 1560.26,-248.04"/>
</g>
<!-- home_productivity&#45;&gt;home_firefox -->
<g id="edge34" class="edge">
<title>home_productivity&#45;&gt;home_firefox</title>
<path fill="none" stroke="#a6adc8" d="M701.77,-145.85C740.73,-144.66 788.05,-137.69 824.23,-115 848.66,-99.67 835.36,-75.62 860.23,-61 944.77,-11.31 1062.51,-14.97 1134.11,-23.52"/>
<polygon fill="#a6adc8" stroke="#a6adc8" points="1133.33,-26.95 1143.69,-24.73 1134.21,-20 1133.33,-26.95"/>
</g>
<!-- home_slack -->
<g id="node10" class="node">
<title>home_slack</title>
<polygon fill="#f2cdcd" stroke="#f2cdcd" points="1246.01,-106 1150.51,-106 1150.51,-70 1246.01,-70 1246.01,-106"/>
<text text-anchor="middle" x="1198.26" y="-83.33" font-family="Times,serif" font-size="14.00" fill="#1e1e2e">home&#45;slack</text>
</g>
<!-- home_productivity&#45;&gt;home_slack -->
<g id="edge35" class="edge">
<title>home_productivity&#45;&gt;home_slack</title>
<path fill="none" stroke="#a6adc8" d="M701.84,-135.08C747.34,-130.75 807.2,-125.04 860.23,-120 957.99,-110.7 1071.71,-99.91 1138.91,-93.53"/>
<polygon fill="#a6adc8" stroke="#a6adc8" points="1138.97,-97.05 1148.59,-92.62 1138.31,-90.08 1138.97,-97.05"/>
</g>
<!-- home_productivity&#45;&gt;home__self_provide_home_ -->
<g id="edge36" class="edge">
<title>home_productivity&#45;&gt;home__self_provide_home_</title>
<path fill="none" stroke="#a6adc8" d="M701.98,-138.28C904.81,-128.36 1467.19,-104.02 1544.3,-135 1589.47,-153.15 1627.41,-196.66 1648.77,-225.47"/>
<polygon fill="#a6adc8" stroke="#a6adc8" points="1645.79,-227.32 1654.48,-233.39 1651.47,-223.23 1645.79,-227.32"/>
</g>
<!-- home_slack&#45;&gt;home__self_provide_home_ -->
<g id="edge37" class="edge">
<title>home_slack&#45;&gt;home__self_provide_home_</title>
<path fill="none" stroke="#a6adc8" d="M1246.47,-82.15C1315.69,-75.75 1447.05,-72.03 1544.3,-120 1591.92,-143.49 1630.26,-193.79 1650.86,-225.36"/>
<polygon fill="#a6adc8" stroke="#a6adc8" points="1647.79,-227.05 1656.11,-233.62 1653.7,-223.3 1647.79,-227.05"/>
</g>
<!-- home__aspect_home_ -->
<g id="node11" class="node">
<title>home__aspect_home_</title>
<polygon fill="#cba6f7" stroke="#cba6f7" points="706.05,-106 550.55,-106 550.55,-70 706.05,-70 706.05,-106"/>
<text text-anchor="middle" x="628.3" y="-83.33" font-family="Times,serif" font-size="14.00" fill="#1e1e2e">home/aspect(home)</text>
</g>
<!-- home__cross_provide__anon__ -->
<g id="node12" class="node">
<title>home__cross_provide__anon__</title>
<polygon fill="#cba6f7" stroke="#cba6f7" points="740.55,-52 516.05,-52 516.05,-16 740.55,-16 740.55,-52"/>
<text text-anchor="middle" x="628.3" y="-29.32" font-family="Times,serif" font-size="14.00" fill="#1e1e2e">home/cross&#45;provide(&lt;anon&gt;)</text>
</g>
<!-- hyprland&#45;&gt;home__self_provide_home_ -->
<g id="edge38" class="edge">
<title>hyprland&#45;&gt;home__self_provide_home_</title>
<path fill="none" stroke="#a6adc8" d="M1238.54,-459.05C1305.96,-469.06 1445.93,-480.52 1544.3,-425 1601.45,-392.75 1638.81,-321.71 1656.16,-281.75"/>
<polygon fill="#a6adc8" stroke="#a6adc8" points="1659.29,-283.34 1659.94,-272.76 1652.84,-280.63 1659.29,-283.34"/>
</g>
<!-- n_default -->
<g id="node17" class="node">
<title>n_default</title>
<polygon fill="#fab387" stroke="#fab387" points="396.37,-563 320.03,-597.7 167.34,-597.7 91,-563 167.34,-528.3 320.03,-528.3 396.37,-563"/>
<text text-anchor="middle" x="243.68" y="-566.95" font-family="Times,serif" font-size="14.00" fill="#1e1e2e">default</text>
<text text-anchor="middle" x="243.68" y="-549.7" font-family="Times,serif" font-size="14.00" fill="#1e1e2e">({ aspect&#45;chain, class })</text>
</g>
<!-- default__aspect_default_ -->
<g id="node18" class="node">
<title>default__aspect_default_</title>
<polygon fill="#a6e3a1" stroke="#a6e3a1" points="1287.26,-612 1109.26,-612 1109.26,-576 1287.26,-576 1287.26,-612"/>
<text text-anchor="middle" x="1198.26" y="-589.33" font-family="Times,serif" font-size="14.00" fill="#1e1e2e">default/aspect(default)</text>
</g>
<!-- n_default&#45;&gt;default__aspect_default_ -->
<g id="edge11" class="edge">
<title>n_default&#45;&gt;default__aspect_default_</title>
<path fill="none" stroke="#a6adc8" d="M377.43,-572.13C395.88,-573.21 414.59,-574.21 432.37,-575 670.99,-585.59 951.77,-590.68 1097.76,-592.77"/>
<polygon fill="#a6adc8" stroke="#a6adc8" points="1097.33,-596.26 1107.38,-592.9 1097.43,-589.26 1097.33,-596.26"/>
</g>
<!-- den__provides__define_user -->
<g id="node22" class="node">
<title>den__provides__define_user</title>
<polygon fill="#a6e3a1" stroke="#a6e3a1" points="721.87,-694 534.73,-694 468.08,-658 788.51,-658 721.87,-694"/>
<text text-anchor="middle" x="628.3" y="-671.33" font-family="Times,serif" font-size="14.00" fill="#1e1e2e">provides/define&#45;user</text>
</g>
<!-- n_default&#45;&gt;den__provides__define_user -->
<g id="edge12" class="edge">
<title>n_default&#45;&gt;den__provides__define_user</title>
<path fill="none" stroke="#a6adc8" d="M349.37,-584.65C365.81,-590.47 382.08,-597.79 396.37,-607 417.04,-620.31 410.79,-637.22 432.37,-649 446.26,-656.58 461.5,-662.31 477.15,-666.6"/>
<polygon fill="#a6adc8" stroke="#a6adc8" points="476.02,-669.92 486.57,-668.97 477.73,-663.13 476.02,-669.92"/>
</g>
<!-- den__provides__hostname -->
<g id="node23" class="node">
<title>den__provides__hostname</title>
<polygon fill="#fab387" stroke="#fab387" points="716.22,-566 540.38,-566 477.76,-530 778.84,-530 716.22,-566"/>
<text text-anchor="middle" x="628.3" y="-543.33" font-family="Times,serif" font-size="14.00" fill="#1e1e2e">provides/hostname</text>
</g>
<!-- n_default&#45;&gt;den__provides__hostname -->
<g id="edge13" class="edge">
<title>n_default&#45;&gt;den__provides__hostname</title>
<path fill="none" stroke="#a6adc8" d="M385.25,-557.49C424.45,-555.95 466.7,-554.3 504.77,-552.8"/>
<polygon fill="#a6adc8" stroke="#a6adc8" points="504.54,-556.32 514.4,-552.43 504.27,-549.32 504.54,-556.32"/>
</g>
<!-- den__provides__mutual_provider -->
<g id="node24" class="node">
<title>den__provides__mutual_provider</title>
<polygon fill="#f9e2af" stroke="#f9e2af" points="742.72,-640 513.87,-640 432.37,-604 824.23,-604 742.72,-640"/>
<text text-anchor="middle" x="628.3" y="-617.33" font-family="Times,serif" font-size="14.00" fill="#1e1e2e">provides/mutual&#45;provider</text>
</g>
<!-- n_default&#45;&gt;den__provides__mutual_provider -->
<g id="edge14" class="edge">
<title>n_default&#45;&gt;den__provides__mutual_provider</title>
<path fill="none" stroke="#a6adc8" d="M358.7,-580.58C401.95,-587.25 451.53,-594.9 496.23,-601.79"/>
<polygon fill="#a6adc8" stroke="#a6adc8" points="495.57,-605.23 505.98,-603.29 496.63,-598.31 495.57,-605.23"/>
</g>
<!-- den__provides__default__aspect_default__den__provides -->
<g id="node19" class="node">
<title>den__provides__default__aspect_default__den__provides</title>
<polygon fill="#a6e3a1" stroke="#a6e3a1" points="1395.69,-684 1000.84,-684 860.23,-648 1536.3,-648 1395.69,-684"/>
<text text-anchor="middle" x="1198.26" y="-661.33" font-family="Times,serif" font-size="14.00" fill="#1e1e2e">provides/default/aspect(default):den/provides</text>
</g>
<!-- default__cross_provide_home_ -->
<g id="node20" class="node">
<title>default__cross_provide_home_</title>
<polygon fill="#f9e2af" stroke="#f9e2af" points="351.81,-652 135.56,-652 135.56,-616 351.81,-616 351.81,-652"/>
<text text-anchor="middle" x="243.68" y="-629.33" font-family="Times,serif" font-size="14.00" fill="#1e1e2e">default/cross&#45;provide(home)</text>
</g>
<!-- default__self_provide_default_ -->
<g id="node21" class="node">
<title>default__self_provide_default_</title>
<polygon fill="#fab387" stroke="#fab387" points="351.06,-706 136.31,-706 136.31,-670 351.06,-670 351.06,-706"/>
<text text-anchor="middle" x="243.68" y="-683.33" font-family="Times,serif" font-size="14.00" fill="#1e1e2e">default/self&#45;provide(default)</text>
</g>
<!-- den__provides__define_user&#45;&gt;default__aspect_default_ -->
<g id="edge16" class="edge">
<title>den__provides__define_user&#45;&gt;default__aspect_default_</title>
<path fill="none" stroke="#a6adc8" d="M777.86,-657.52C793.56,-654.94 809.26,-652.1 824.23,-649 840.49,-645.63 843.96,-642.33 860.23,-639 939.53,-622.77 1030.57,-611.02 1098.02,-603.6"/>
<polygon fill="#a6adc8" stroke="#a6adc8" points="1098,-607.13 1107.56,-602.57 1097.24,-600.17 1098,-607.13"/>
</g>
<!-- den__provides__define_user&#45;&gt;den__provides__default__aspect_default__den__provides -->
<g id="edge17" class="edge">
<title>den__provides__define_user&#45;&gt;den__provides__default__aspect_default__den__provides</title>
<path fill="none" stroke="#a6adc8" d="M760.31,-673.69C812.36,-672.78 874.17,-671.69 934.68,-670.62"/>
<polygon fill="#a6adc8" stroke="#a6adc8" points="934.51,-674.13 944.45,-670.45 934.39,-667.13 934.51,-674.13"/>
</g>
<!-- den__provides__hostname&#45;&gt;default__aspect_default_ -->
<g id="edge18" class="edge">
<title>den__provides__hostname&#45;&gt;default__aspect_default_</title>
<path fill="none" stroke="#a6adc8" d="M733.8,-556.46C837.56,-564.87 995.49,-577.66 1097.55,-585.92"/>
<polygon fill="#a6adc8" stroke="#a6adc8" points="1097.02,-589.39 1107.27,-586.71 1097.59,-582.42 1097.02,-589.39"/>
</g>
<!-- den__provides__mutual_provider&#45;&gt;default__aspect_default_ -->
<g id="edge19" class="edge">
<title>den__provides__mutual_provider&#45;&gt;default__aspect_default_</title>
<path fill="none" stroke="#a6adc8" d="M803.95,-613.39C900.48,-608.63 1016.89,-602.89 1097.91,-598.9"/>
<polygon fill="#a6adc8" stroke="#a6adc8" points="1097.78,-602.41 1107.59,-598.42 1097.43,-595.42 1097.78,-602.41"/>
</g>
<!-- den__provides__mutual_provider&#45;&gt;den__provides__default__aspect_default__den__provides -->
<g id="edge20" class="edge">
<title>den__provides__mutual_provider&#45;&gt;den__provides__default__aspect_default__den__provides</title>
<path fill="none" stroke="#a6adc8" d="M761.39,-632.23C816.92,-636.54 883.44,-641.69 947.59,-646.66"/>
<polygon fill="#a6adc8" stroke="#a6adc8" points="946.95,-650.12 957.19,-647.4 947.49,-643.14 946.95,-650.12"/>
</g>
<!-- home -->
<g id="node25" class="node">
<title>home</title>
<polygon fill="#a6e3a1" stroke="#a6e3a1" points="55,-493 0,-493 0,-457 55,-457 55,-493"/>
<text text-anchor="middle" x="27.5" y="-470.32" font-family="Times,serif" font-size="14.00" fill="#1e1e2e">home</text>
</g>
<!-- home&#45;&gt;alice -->
<g id="edge22" class="edge">
<title>home&#45;&gt;alice</title>
<path fill="none" stroke="#a6adc8" d="M55.19,-461.79C93.24,-442.96 163.18,-408.35 206.05,-387.13"/>
<polygon fill="#a6adc8" stroke="#a6adc8" points="207.56,-390.29 214.97,-382.72 204.46,-384.01 207.56,-390.29"/>
</g>
<!-- home&#45;&gt;home__aspect_home_ -->
<g id="edge26" class="edge">
<title>home&#45;&gt;home__aspect_home_</title>
<path fill="none" stroke="#a6adc8" d="M32.27,-456.85C38.71,-429.44 54.03,-376.98 83,-342 201.12,-199.39 258.87,-179.7 432.37,-115 466.02,-102.45 504.9,-95.66 539.04,-92.01"/>
<polygon fill="#a6adc8" stroke="#a6adc8" points="539.31,-95.5 548.92,-91.03 538.63,-88.53 539.31,-95.5"/>
</g>
<!-- home&#45;&gt;home__cross_provide__anon__ -->
<g id="edge27" class="edge">
<title>home&#45;&gt;home__cross_provide__anon__</title>
<path fill="none" stroke="#a6adc8" d="M28.67,-456.94C29.68,-392.31 36.53,-173.84 83,-126 190.98,-14.84 379.71,-7.4 504.1,-17.01"/>
<polygon fill="#a6adc8" stroke="#a6adc8" points="503.8,-20.49 514.05,-17.83 504.37,-13.52 503.8,-20.49"/>
</g>
<!-- home&#45;&gt;n_default -->
<g id="edge23" class="edge">
<title>home&#45;&gt;n_default</title>
<path fill="none" stroke="#a6adc8" d="M55.19,-485.97C79.59,-495.99 117.1,-511.4 152.17,-525.81"/>
<polygon fill="#a6adc8" stroke="#a6adc8" points="150.49,-528.91 161.07,-529.47 153.15,-522.43 150.49,-528.91"/>
</g>
<!-- home&#45;&gt;default__cross_provide_home_ -->
<g id="edge24" class="edge">
<title>home&#45;&gt;default__cross_provide_home_</title>
<path fill="none" stroke="#a6adc8" d="M30.48,-493.23C34.65,-522.2 47.14,-578.4 83,-607 95.12,-616.66 109.42,-623.42 124.4,-628.07"/>
<polygon fill="#a6adc8" stroke="#a6adc8" points="123.38,-631.42 133.95,-630.69 125.24,-624.67 123.38,-631.42"/>
</g>
<!-- home&#45;&gt;default__self_provide_default_ -->
<g id="edge25" class="edge">
<title>home&#45;&gt;default__self_provide_default_</title>
<path fill="none" stroke="#a6adc8" d="M27.95,-493.35C27.92,-530.99 33.58,-617.07 83,-661 95.04,-671.7 109.68,-678.96 125.17,-683.79"/>
<polygon fill="#a6adc8" stroke="#a6adc8" points="123.97,-687.09 134.54,-686.36 125.82,-680.34 123.97,-687.09"/>
</g>
</g>
</svg>
