<?plantuml 1.2026.2?><svg xmlns="http://www.w3.org/2000/svg" xmlns:xlink="http://www.w3.org/1999/xlink" contentStyleType="text/css" data-diagram-type="DESCRIPTION" height="1091px" preserveAspectRatio="none" style="width:1663px;height:1091px;background:#1E1E2E;" version="1.1" viewBox="0 0 1663 1091" width="1663px" zoomAndPan="magnify"><defs/><g><rect fill="#1E1E2E" height="1091" style="stroke:none;stroke-width:1;" width="1663" x="0" y="0"/><!--cluster stage_home--><g class="cluster" data-qualified-name="stage_home" data-source-line="24" id="ent0003"><path d="M607.0999,408 L717.2994,408 A3.75,3.75 0 0 1 719.7994,410.5 L726.7994,432.4799 L1654.0899,432.4799 A2.5,2.5 0 0 1 1656.5899,434.9799 L1656.5899,1081.5 A2.5,2.5 0 0 1 1654.0899,1084 L607.0999,1084 A2.5,2.5 0 0 1 604.5999,1081.5 L604.5999,410.5 A2.5,2.5 0 0 1 607.0999,408" fill="#313244" style="stroke:#6C7086;stroke-width:1.5;"/><line style="stroke:#6C7086;stroke-width:1.5;" x1="604.5999" x2="726.7994" y1="432.4799" y2="432.4799"/><text fill="#CDD6F4" font-family="'JetBrains Mono,monospace'" font-size="14" font-weight="bold" lengthAdjust="spacing" textLength="109.1995" x="608.5999" y="424.2799">home { home }</text></g><!--cluster stage_default--><g class="cluster" data-qualified-name="stage_default" data-source-line="41" id="ent0019"><path d="M127.0999,61 L262.4993,61 A3.75,3.75 0 0 1 264.9993,63.5 L271.9993,85.4799 L1380.8999,85.4799 A2.5,2.5 0 0 1 1383.3999,87.9799 L1383.3999,305.5 A2.5,2.5 0 0 1 1380.8999,308 L127.0999,308 A2.5,2.5 0 0 1 124.5999,305.5 L124.5999,63.5 A2.5,2.5 0 0 1 127.0999,61" fill="#313244" style="stroke:#6C7086;stroke-width:1.5;"/><line style="stroke:#6C7086;stroke-width:1.5;" x1="124.5999" x2="271.9993" y1="85.4799" y2="85.4799"/><text fill="#CDD6F4" font-family="'JetBrains Mono,monospace'" font-size="14" font-weight="bold" lengthAdjust="spacing" textLength="134.3994" x="128.5999" y="77.2799">default { home }</text></g><!--entity alice_dotfiles--><g class="entity" data-qualified-name="stage_home.alice_dotfiles" data-source-line="25" id="ent0004"><rect fill="#F2CDCD" height="38.4799" rx="2.5" ry="2.5" style="stroke:#A6ADC8;stroke-width:0.5;" width="137.5995" x="1099.5999" y="517.76"/><text fill="#1E1E2E" font-family="'JetBrains Mono,monospace'" font-size="14" lengthAdjust="spacing" textLength="117.5995" x="1109.5999" y="542.0399">alice-dotfiles</text></g><!--entity demo_shell--><g class="entity" data-qualified-name="stage_home.demo_shell" data-source-line="26" id="ent0005"><rect fill="#CBA6F7" height="38.4799" rx="2.5" ry="2.5" style="stroke:#A6ADC8;stroke-width:0.5;" width="103.9996" x="1116.3999" y="590.76"/><text fill="#1E1E2E" font-family="'JetBrains Mono,monospace'" font-size="14" lengthAdjust="spacing" textLength="83.9996" x="1126.3999" y="615.0399">demo-shell</text></g><!--entity dev_tools--><g class="entity" data-qualified-name="stage_home.dev_tools" data-source-line="27" id="ent0006"><rect fill="#F38BA8" height="38.4799" rx="2.5" ry="2.5" style="stroke:#A6ADC8;stroke-width:0.5;" width="95.5997" x="1120.5999" y="663.76"/><text fill="#1E1E2E" font-family="'JetBrains Mono,monospace'" font-size="14" lengthAdjust="spacing" textLength="75.5997" x="1130.5999" y="688.0399">dev-tools</text></g><!--entity home_bat--><g class="entity" data-qualified-name="stage_home.home_bat" data-source-line="28" id="ent0007"><rect fill="#F2CDCD" height="38.4799" rx="2.5" ry="2.5" style="stroke:#A6ADC8;stroke-width:0.5;" width="87.1997" x="1124.7999" y="1029.76"/><text fill="#1E1E2E" font-family="'JetBrains Mono,monospace'" font-size="14" lengthAdjust="spacing" textLength="67.1997" x="1134.7999" y="1054.0399">home-bat</text></g><!--entity home_dev--><g class="entity" data-qualified-name="stage_home.home_dev" data-source-line="29" id="ent0008"><rect fill="#F38BA8" height="38.4799" rx="2.5" ry="2.5" style="stroke:#A6ADC8;stroke-width:0.5;" width="87.1997" x="721.3999" y="751.76"/><text fill="#1E1E2E" font-family="'JetBrains Mono,monospace'" font-size="14" lengthAdjust="spacing" textLength="67.1997" x="731.3999" y="776.0399">home-dev</text></g><!--entity home_firefox--><g class="entity" data-qualified-name="stage_home.home_firefox" data-source-line="30" id="ent0009"><rect fill="#F38BA8" height="38.4799" rx="2.5" ry="2.5" style="stroke:#A6ADC8;stroke-width:0.5;" width="120.7996" x="1107.9999" y="846.76"/><text fill="#1E1E2E" font-family="'JetBrains Mono,monospace'" font-size="14" lengthAdjust="spacing" textLength="100.7996" x="1117.9999" y="871.0399">home-firefox</text></g><!--entity home_git--><g class="entity" data-qualified-name="stage_home.home_git" data-source-line="31" id="ent0010"><rect fill="#CBA6F7" height="38.4799" rx="2.5" ry="2.5" style="stroke:#A6ADC8;stroke-width:0.5;" width="87.1997" x="1124.7999" y="956.76"/><text fill="#1E1E2E" font-family="'JetBrains Mono,monospace'" font-size="14" lengthAdjust="spacing" textLength="67.1997" x="1134.7999" y="981.0399">home-git</text></g><!--entity home_productivity--><g class="entity" data-qualified-name="stage_home.home_productivity" data-source-line="32" id="ent0011"><rect fill="#CBA6F7" height="38.4799" rx="2.5" ry="2.5" style="stroke:#A6ADC8;stroke-width:0.5;" width="162.7994" x="683.5999" y="678.76"/><text fill="#1E1E2E" font-family="'JetBrains Mono,monospace'" font-size="14" lengthAdjust="spacing" textLength="142.7994" x="693.5999" y="703.0399">home-productivity</text></g><!--entity home_slack--><g class="entity" data-qualified-name="stage_home.home_slack" data-source-line="33" id="ent0012"><rect fill="#F2CDCD" height="38.4799" rx="2.5" ry="2.5" style="stroke:#A6ADC8;stroke-width:0.5;" width="103.9996" x="1116.3999" y="773.76"/><text fill="#1E1E2E" font-family="'JetBrains Mono,monospace'" font-size="14" lengthAdjust="spacing" textLength="83.9996" x="1126.3999" y="798.0399">home-slack</text></g><!--entity home__aspect_home_--><g class="entity" data-qualified-name="stage_home.home__aspect_home_" data-source-line="34" id="ent0013"><rect fill="#CBA6F7" height="38.4799" rx="2.5" ry="2.5" style="stroke:#A6ADC8;stroke-width:0.5;" width="162.7994" x="683.5999" y="956.76"/><text fill="#1E1E2E" font-family="'JetBrains Mono,monospace'" font-size="14" lengthAdjust="spacing" textLength="142.7994" x="693.5999" y="981.0399">home/aspect(home)</text></g><!--entity home__cross_provide__anon__--><g class="entity" data-qualified-name="stage_home.home__cross_provide__anon__" data-source-line="35" id="ent0014"><rect fill="#CBA6F7" height="38.4799" rx="2.5" ry="2.5" style="stroke:#A6ADC8;stroke-width:0.5;" width="288.7988" x="620.5999" y="1029.76"/><text fill="#1E1E2E" font-family="'JetBrains Mono,monospace'" font-size="14" lengthAdjust="spacing" textLength="268.7988" x="630.5999" y="1054.0399">home/cross-provide(&amp;lt;anon&amp;gt;)</text></g><!--entity home__self_provide_home_--><g class="entity" data-qualified-name="stage_home.home__self_provide_home_" data-source-line="36" id="ent0015"><rect fill="#F38BA8" height="38.4799" rx="2.5" ry="2.5" style="stroke:#A6ADC8;stroke-width:0.5;" width="213.1992" x="1427.3999" y="718.76"/><text fill="#1E1E2E" font-family="'JetBrains Mono,monospace'" font-size="14" lengthAdjust="spacing" textLength="193.1992" x="1437.3999" y="743.0399">home/self-provide(home)</text></g><!--entity hyprland--><g class="entity" data-qualified-name="stage_home.hyprland" data-source-line="37" id="ent0016"><rect fill="#CBA6F7" height="38.4799" rx="2.5" ry="2.5" style="stroke:#A6ADC8;stroke-width:0.5;" width="87.1997" x="1124.7999" y="444.76"/><text fill="#1E1E2E" font-family="'JetBrains Mono,monospace'" font-size="14" lengthAdjust="spacing" textLength="67.1997" x="1134.7999" y="469.0399">hyprland</text></g><!--entity primary_user--><g class="entity" data-qualified-name="stage_home.primary_user" data-source-line="38" id="ent0017"><rect fill="#CBA6F7" height="38.4799" rx="2.5" ry="2.5" style="stroke:#A6ADC8;stroke-width:0.5;" width="120.7996" x="704.5999" y="883.76"/><text fill="#1E1E2E" font-family="'JetBrains Mono,monospace'" font-size="14" lengthAdjust="spacing" textLength="100.7996" x="714.5999" y="908.0399">primary-user</text></g><!--entity den__provides__primary_user--><g class="entity" data-qualified-name="stage_home.den__provides__primary_user" data-source-line="39" id="ent0018"><rect fill="#CBA6F7" height="24.4799" rx="2.5" ry="2.5" style="stroke:#A6ADC8;stroke-width:0.5;" width="196.3992" x="666.7999" y="824.76"/><text fill="#1E1E2E" font-family="'JetBrains Mono,monospace'" font-size="14" lengthAdjust="spacing" textLength="176.3992" x="676.7999" y="842.0399">provides/primary-user</text></g><!--entity n_default--><g class="entity" data-qualified-name="stage_default.n_default" data-source-line="42" id="ent0020"><polygon fill="#FAB387" points="560.5999,195,455.5999,171.52,245.5999,171.52,140.5999,195,245.5999,218.48,455.5999,218.48,560.5999,195" style="stroke:#A6ADC8;stroke-width:0.5;"/><text fill="#1E1E2E" font-family="'JetBrains Mono,monospace'" font-size="14" lengthAdjust="spacing" textLength="58.7997" x="245.5994" y="190.7999">default</text><text fill="#1E1E2E" font-family="'JetBrains Mono,monospace'" font-size="14" lengthAdjust="spacing" textLength="209.9991" x="245.5994" y="209.2799">({ aspect-chain, class })</text></g><!--entity default__aspect_default_--><g class="entity" data-qualified-name="stage_default.default__aspect_default_" data-source-line="43" id="ent0021"><rect fill="#A6E3A1" height="38.4799" rx="2.5" ry="2.5" style="stroke:#A6ADC8;stroke-width:0.5;" width="213.1992" x="1061.7999" y="201.76"/><text fill="#1E1E2E" font-family="'JetBrains Mono,monospace'" font-size="14" lengthAdjust="spacing" textLength="193.1992" x="1071.7999" y="226.0399">default/aspect(default)</text></g><!--entity den__provides__default__aspect_default__den__provides--><g class="entity" data-qualified-name="stage_default.den__provides__default__aspect_default__den__provides" data-source-line="44" id="ent0022"><rect fill="#A6E3A1" height="24.4799" rx="2.5" ry="2.5" style="stroke:#A6ADC8;stroke-width:0.5;" width="397.9984" x="969.3999" y="116.76"/><text fill="#1E1E2E" font-family="'JetBrains Mono,monospace'" font-size="14" lengthAdjust="spacing" textLength="377.9984" x="979.3999" y="134.0399">provides/default/aspect(default):den/provides</text></g><!--entity default__cross_provide_home_--><g class="entity" data-qualified-name="stage_default.default__cross_provide_home_" data-source-line="45" id="ent0023"><rect fill="#F9E2AF" height="38.4799" rx="2.5" ry="2.5" style="stroke:#A6ADC8;stroke-width:0.5;" width="246.799" x="227.1999" y="97.76"/><text fill="#1E1E2E" font-family="'JetBrains Mono,monospace'" font-size="14" lengthAdjust="spacing" textLength="226.799" x="237.1999" y="122.0399">default/cross-provide(home)</text></g><!--entity default__self_provide_default_--><g class="entity" data-qualified-name="stage_default.default__self_provide_default_" data-source-line="46" id="ent0024"><rect fill="#FAB387" height="38.4799" rx="2.5" ry="2.5" style="stroke:#A6ADC8;stroke-width:0.5;" width="263.5989" x="218.7999" y="253.76"/><text fill="#1E1E2E" font-family="'JetBrains Mono,monospace'" font-size="14" lengthAdjust="spacing" textLength="243.5989" x="228.7999" y="278.0399">default/self-provide(default)</text></g><!--entity den__provides__define_user--><g class="entity" data-qualified-name="stage_default.den__provides__define_user" data-source-line="47" id="ent0025"><rect fill="#A6E3A1" height="24.4799" rx="2.5" ry="2.5" style="stroke:#A6ADC8;stroke-width:0.5;" width="187.9993" x="670.9999" y="162.76"/><text fill="#1E1E2E" font-family="'JetBrains Mono,monospace'" font-size="14" lengthAdjust="spacing" textLength="167.9993" x="680.9999" y="180.0399">provides/define-user</text></g><!--entity den__provides__hostname--><g class="entity" data-qualified-name="stage_default.den__provides__hostname" data-source-line="48" id="ent0026"><rect fill="#FAB387" height="24.4799" rx="2.5" ry="2.5" style="stroke:#A6ADC8;stroke-width:0.5;" width="162.7994" x="683.5999" y="221.76"/><text fill="#1E1E2E" font-family="'JetBrains Mono,monospace'" font-size="14" lengthAdjust="spacing" textLength="142.7994" x="693.5999" y="239.0399">provides/hostname</text></g><!--entity den__provides__mutual_provider--><g class="entity" data-qualified-name="stage_default.den__provides__mutual_provider" data-source-line="49" id="ent0027"><rect fill="#F9E2AF" height="24.4799" rx="2.5" ry="2.5" style="stroke:#A6ADC8;stroke-width:0.5;" width="221.5991" x="654.1999" y="103.76"/><text fill="#1E1E2E" font-family="'JetBrains Mono,monospace'" font-size="14" lengthAdjust="spacing" textLength="201.5991" x="664.1999" y="121.0399">provides/mutual-provider</text></g><!--entity alice--><g class="entity" data-qualified-name="alice" data-source-line="23" id="ent0002"><rect fill="#89B4FA" height="38.4799" rx="2.5" ry="2.5" style="stroke:#A6ADC8;stroke-width:0.5;" width="61.9998" x="319.5999" y="571.76"/><text fill="#1E1E2E" font-family="'JetBrains Mono,monospace'" font-size="14" lengthAdjust="spacing" textLength="41.9998" x="329.5999" y="596.0399">alice</text></g><!--entity home--><g class="entity" data-qualified-name="home" data-source-line="51" id="ent0028"><rect fill="#A6E3A1" height="38.4799" rx="2.5" ry="2.5" style="stroke:#A6ADC8;stroke-width:0.5;" width="53.5999" x="12.7999" y="429.76"/><text fill="#1E1E2E" font-family="'JetBrains Mono,monospace'" font-size="14" lengthAdjust="spacing" textLength="33.5999" x="22.7999" y="454.0399">home</text></g><!--entity ctx_home--><g class="entity" data-qualified-name="ctx_home" data-source-line="91" id="ent0067"><ellipse cx="39.5999" cy="14" fill="#F1F1F1" rx="8" ry="8" style="stroke:#181818;stroke-width:0.5;"/><text fill="#CDD6F4" font-family="'JetBrains Mono,monospace'" font-size="14" lengthAdjust="spacing" textLength="67.1997" x="6" y="45.2799">ctx_home</text></g><!--entity ctx_default--><g class="entity" data-qualified-name="ctx_default" data-source-line="91" id="ent0068"><ellipse cx="350.5999" cy="14" fill="#F1F1F1" rx="8" ry="8" style="stroke:#181818;stroke-width:0.5;"/><text fill="#CDD6F4" font-family="'JetBrains Mono,monospace'" font-size="14" lengthAdjust="spacing" textLength="92.3996" x="304.4001" y="45.2799">ctx_default</text></g><!--link alice to alice_dotfiles--><g class="link" data-entity-1="ent0002" data-entity-2="ent0004" data-link-type="dependency" data-source-line="53" id="lnk29"><path d="M381.7599,588.32 C427.9799,584.27 519.1199,576.47 596.5999,571 C778.0599,558.19 986.2184,546.6207 1093.2784,540.8907" fill="none" id="alice-to-alice_dotfiles" style="stroke:#A6ADC8;stroke-width:1;"/><polygon fill="#A6ADC8" points="1099.2699,540.57,1090.0689,537.0567,1094.277,540.8372,1090.4965,545.0453,1099.2699,540.57" style="stroke:#A6ADC8;stroke-width:1;"/></g><!--link alice to demo_shell--><g class="link" data-entity-1="ent0002" data-entity-2="ent0005" data-link-type="dependency" data-source-line="54" id="lnk30"><path d="M381.8399,591.25 C465.6499,591.99 708.0199,594.47 909.3999,600 C981.0899,601.97 1057.9556,605.1163 1110.0156,607.4063" fill="none" id="alice-to-demo_shell" style="stroke:#A6ADC8;stroke-width:1;"/><polygon fill="#A6ADC8" points="1116.0099,607.67,1107.1943,603.2784,1111.0147,607.4503,1106.8428,611.2706,1116.0099,607.67" style="stroke:#A6ADC8;stroke-width:1;"/></g><!--link alice to dev_tools--><g class="link" data-entity-1="ent0002" data-entity-2="ent0006" data-link-type="dependency" data-source-line="55" id="lnk31"><path d="M382.0899,594.44 C505.6799,608.38 963.8877,660.0475 1114.1677,676.9975" fill="none" id="alice-to-dev_tools" style="stroke:#A6ADC8;stroke-width:1;"/><polygon fill="#A6ADC8" points="1120.1299,677.67,1111.6349,672.6865,1115.1614,677.1096,1110.7382,680.6361,1120.1299,677.67" style="stroke:#A6ADC8;stroke-width:1;"/></g><!--link alice to home_dev--><g class="link" data-entity-1="ent0002" data-entity-2="ent0008" data-link-type="dependency" data-source-line="56" id="lnk32"><path d="M381.8699,605.93 C423.2999,626.78 499.4899,666.62 560.5999,707 C577.5099,718.17 578.2299,726.43 596.5999,735 C636.4699,753.6 680.2369,761.9701 715.0869,766.3601" fill="none" id="alice-to-home_dev" style="stroke:#A6ADC8;stroke-width:1;"/><polygon fill="#A6ADC8" points="721.0399,767.11,712.6103,762.0165,716.0791,766.4851,711.6105,769.9538,721.0399,767.11" style="stroke:#A6ADC8;stroke-width:1;"/></g><!--link alice to home_productivity--><g class="link" data-entity-1="ent0002" data-entity-2="ent0011" data-link-type="dependency" data-source-line="57" id="lnk33"><path d="M381.9199,598.87 C445.9099,615.47 590.5822,653.0028 682.4422,676.8428" fill="none" id="alice-to-home_productivity" style="stroke:#A6ADC8;stroke-width:1;"/><polygon fill="#A6ADC8" points="688.2499,678.35,680.5433,672.2174,683.4102,677.094,678.5336,679.9609,688.2499,678.35" style="stroke:#A6ADC8;stroke-width:1;"/></g><!--link alice to home__self_provide_home_--><g class="link" data-entity-1="ent0002" data-entity-2="ent0015" data-link-type="dependency" data-source-line="58" id="lnk34"><path d="M381.8899,572.53 C514.0399,494.59 1048.6799,206.47 1391.3999,427 C1496.4099,494.58 1523.7651,655.3304 1530.4251,712.4604" fill="none" id="alice-to-home__self_provide_home_" style="stroke:#A6ADC8;stroke-width:1;"/><polygon fill="#A6ADC8" points="1531.1199,718.42,1534.0508,709.0174,1530.5409,713.4536,1526.1046,709.9437,1531.1199,718.42" style="stroke:#A6ADC8;stroke-width:1;"/></g><!--link alice to hyprland--><g class="link" data-entity-1="ent0002" data-entity-2="ent0016" data-link-type="dependency" data-source-line="59" id="lnk35"><path d="M381.9499,583.02 C428.0499,571.14 518.6099,548.73 596.5999,535 C792.5599,500.51 1023.2856,477.2554 1118.5956,468.3954" fill="none" id="alice-to-hyprland" style="stroke:#A6ADC8;stroke-width:1;"/><polygon fill="#A6ADC8" points="1124.5699,467.84,1115.2382,464.6902,1119.5913,468.3028,1115.9787,472.6559,1124.5699,467.84" style="stroke:#A6ADC8;stroke-width:1;"/></g><!--link alice to primary_user--><g class="link" data-entity-1="ent0002" data-entity-2="ent0017" data-link-type="dependency" data-source-line="60" id="lnk36"><path d="M381.7899,599.09 C427.8399,613.05 515.0799,646.21 560.5999,707 C604.2899,765.35 544.8099,815.7 596.5999,867 C624.5799,894.72 662.4484,903.0704 698.2584,904.9804" fill="none" id="alice-to-primary_user" style="stroke:#A6ADC8;stroke-width:1;"/><polygon fill="#A6ADC8" points="704.2499,905.3,695.4757,900.8263,699.257,905.0337,695.0496,908.815,704.2499,905.3" style="stroke:#A6ADC8;stroke-width:1;"/></g><!--link alice to den__provides__primary_user--><g class="link" data-entity-1="ent0002" data-entity-2="ent0018" data-link-type="dependency" data-source-line="61" id="lnk37"><path d="M382.0199,600.16 C427.1899,615.25 511.8899,649.55 560.5999,707 C591.4199,743.35 560.1499,777.3 596.5999,808 C616.1099,824.44 635.6331,832.0841 660.7631,836.3141" fill="none" id="alice-to-den__provides__primary_user" style="stroke:#A6ADC8;stroke-width:1;"/><polygon fill="#A6ADC8" points="666.6799,837.31,658.4687,831.8716,661.7492,836.4801,657.1407,839.7606,666.6799,837.31" style="stroke:#A6ADC8;stroke-width:1;"/></g><!--link alice_dotfiles to home__self_provide_home_--><g class="link" data-entity-1="ent0004" data-entity-2="ent0015" data-link-type="dependency" data-source-line="62" id="lnk38"><path d="M1237.4599,536.09 C1283.5599,538.24 1344.3999,546.64 1391.3999,573 C1454.2799,608.27 1499.179,677.5471 1519.439,713.0971" fill="none" id="alice_dotfiles-to-home__self_provide_home_" style="stroke:#A6ADC8;stroke-width:1;"/><polygon fill="#A6ADC8" points="1522.4099,718.31,1521.4289,708.5101,1519.9342,713.9659,1514.4784,712.4712,1522.4099,718.31" style="stroke:#A6ADC8;stroke-width:1;"/></g><!--link n_default to default__aspect_default_--><g class="link" data-entity-1="ent0020" data-entity-2="ent0021" data-link-type="dependency" data-source-line="63" id="lnk39"><path d="M486.8999,211.93 C512.0599,217.74 537.6299,225.54 560.5999,236 C579.0399,244.4 577.4299,257.42 596.5999,264 C774.4899,325.04 995.5597,274.0433 1101.7497,242.4033" fill="none" id="n_default-to-default__aspect_default_" style="stroke:#A6ADC8;stroke-width:1;"/><polygon fill="#A6ADC8" points="1107.4999,240.69,1097.7324,239.4265,1102.708,242.1178,1100.0168,247.0934,1107.4999,240.69" style="stroke:#A6ADC8;stroke-width:1;"/></g><!--link n_default to den__provides__define_user--><g class="link" data-entity-1="ent0020" data-entity-2="ent0025" data-link-type="dependency" data-source-line="64" id="lnk40"><path d="M524.9999,186.59 C574.9999,184.17 621.6569,181.9005 664.7669,179.8105" fill="none" id="n_default-to-den__provides__define_user" style="stroke:#A6ADC8;stroke-width:1;"/><polygon fill="#A6ADC8" points="670.7599,179.52,661.5767,175.9605,665.7657,179.7621,661.9641,183.9511,670.7599,179.52" style="stroke:#A6ADC8;stroke-width:1;"/></g><!--link n_default to den__provides__hostname--><g class="link" data-entity-1="ent0020" data-entity-2="ent0026" data-link-type="dependency" data-source-line="65" id="lnk41"><path d="M499.8999,209.02 C561.6699,214.87 625.0165,220.8549 677.1265,225.7849" fill="none" id="n_default-to-den__provides__hostname" style="stroke:#A6ADC8;stroke-width:1;"/><polygon fill="#A6ADC8" points="683.0999,226.35,674.5166,221.5201,678.1221,225.8791,673.7631,229.4845,683.0999,226.35" style="stroke:#A6ADC8;stroke-width:1;"/></g><!--link n_default to den__provides__mutual_provider--><g class="link" data-entity-1="ent0020" data-entity-2="ent0027" data-link-type="dependency" data-source-line="66" id="lnk42"><path d="M466.5299,173.55 C497.1599,167.54 530.1899,160.78 560.5999,154 C576.6999,150.41 580.4599,148.41 596.5999,145 C624.8799,139.02 650.1245,134.3741 677.8145,129.6741" fill="none" id="n_default-to-den__provides__mutual_provider" style="stroke:#A6ADC8;stroke-width:1;"/><polygon fill="#A6ADC8" points="683.7299,128.67,674.1874,126.2325,678.8004,129.5067,675.5261,134.1197,683.7299,128.67" style="stroke:#A6ADC8;stroke-width:1;"/></g><!--link demo_shell to home__self_provide_home_--><g class="link" data-entity-1="ent0005" data-entity-2="ent0015" data-link-type="dependency" data-source-line="67" id="lnk43"><path d="M1220.7699,612.31 C1266.8099,615.77 1335.4799,624.41 1391.3999,646 C1436.7899,663.53 1478.16,693.2676 1504.94,714.6376" fill="none" id="demo_shell-to-home__self_provide_home_" style="stroke:#A6ADC8;stroke-width:1;"/><polygon fill="#A6ADC8" points="1509.6299,718.38,1505.0901,709.6399,1505.7217,715.2613,1500.1002,715.8929,1509.6299,718.38" style="stroke:#A6ADC8;stroke-width:1;"/></g><!--link den__provides__define_user to default__aspect_default_--><g class="link" data-entity-1="ent0025" data-entity-2="ent0021" data-link-type="dependency" data-source-line="68" id="lnk44"><path d="M859.3499,185.7 C919.7999,192.63 992.7089,200.9766 1055.5089,208.1766" fill="none" id="den__provides__define_user-to-default__aspect_default_" style="stroke:#A6ADC8;stroke-width:1;"/><polygon fill="#A6ADC8" points="1061.4699,208.86,1052.984,203.8609,1056.5024,208.2905,1052.0728,211.8088,1061.4699,208.86" style="stroke:#A6ADC8;stroke-width:1;"/></g><!--link den__provides__define_user to den__provides__default__aspect_default__den__provides--><g class="link" data-entity-1="ent0025" data-entity-2="ent0022" data-link-type="dependency" data-source-line="69" id="lnk45"><path d="M859.3499,164.3 C918.1799,157.56 988.4889,149.5034 1050.4189,142.4034" fill="none" id="den__provides__define_user-to-den__provides__default__aspect_default__den__provides" style="stroke:#A6ADC8;stroke-width:1;"/><polygon fill="#A6ADC8" points="1056.3799,141.72,1046.9828,138.7711,1051.4124,142.2895,1047.894,146.7191,1056.3799,141.72" style="stroke:#A6ADC8;stroke-width:1;"/></g><!--link den__provides__hostname to default__aspect_default_--><g class="link" data-entity-1="ent0026" data-entity-2="ent0021" data-link-type="dependency" data-source-line="70" id="lnk46"><path d="M846.7399,231.38 C908.5599,229.38 988.353,226.7934 1055.643,224.6234" fill="none" id="den__provides__hostname-to-default__aspect_default_" style="stroke:#A6ADC8;stroke-width:1;"/><polygon fill="#A6ADC8" points="1061.6399,224.43,1052.5156,220.7222,1056.6425,224.5912,1052.7735,228.718,1061.6399,224.43" style="stroke:#A6ADC8;stroke-width:1;"/></g><!--link den__provides__mutual_provider to default__aspect_default_--><g class="link" data-entity-1="ent0027" data-entity-2="ent0021" data-link-type="dependency" data-source-line="71" id="lnk47"><path d="M835.1999,128.73 C858.8299,133.41 885.3599,139.04 909.3999,145 C977.2699,161.83 1048.2951,183.1736 1100.3051,199.4936" fill="none" id="den__provides__mutual_provider-to-default__aspect_default_" style="stroke:#A6ADC8;stroke-width:1;"/><polygon fill="#A6ADC8" points="1106.0299,201.29,1098.6403,194.7789,1101.2592,199.793,1096.2451,202.412,1106.0299,201.29" style="stroke:#A6ADC8;stroke-width:1;"/></g><!--link den__provides__mutual_provider to den__provides__default__aspect_default__den__provides--><g class="link" data-entity-1="ent0027" data-entity-2="ent0022" data-link-type="dependency" data-source-line="72" id="lnk48"><path d="M876.2099,119.57 C905.1099,120.51 931.173,121.3449 963.143,122.3849" fill="none" id="den__provides__mutual_provider-to-den__provides__default__aspect_default__den__provides" style="stroke:#A6ADC8;stroke-width:1;"/><polygon fill="#A6ADC8" points="969.1399,122.58,960.2747,118.2895,964.1425,122.4174,960.0146,126.2853,969.1399,122.58" style="stroke:#A6ADC8;stroke-width:1;"/></g><!--link dev_tools to home__self_provide_home_--><g class="link" data-entity-1="ent0006" data-entity-2="ent0015" data-link-type="dependency" data-source-line="73" id="lnk49"><path d="M1216.5599,690.13 C1269.5899,698.16 1351.4673,710.5426 1421.1473,721.0826" fill="none" id="dev_tools-to-home__self_provide_home_" style="stroke:#A6ADC8;stroke-width:1;"/><polygon fill="#A6ADC8" points="1427.0799,721.98,1418.7793,716.6789,1422.1361,721.2322,1417.5828,724.589,1427.0799,721.98" style="stroke:#A6ADC8;stroke-width:1;"/></g><!--link home to alice--><g class="link" data-entity-1="ent0028" data-entity-2="ent0002" data-link-type="dependency" data-source-line="74" id="lnk50"><path d="M66.6799,460.98 C123.5699,487.13 253.1179,546.6648 313.7479,574.5248" fill="none" id="home-to-alice" style="stroke:#A6ADC8;stroke-width:1;"/><polygon fill="#A6ADC8" points="319.1999,577.03,312.6921,569.6375,314.6566,574.9423,309.3518,576.9068,319.1999,577.03" style="stroke:#A6ADC8;stroke-width:1;"/></g><!--link home to n_default--><g class="link" data-entity-1="ent0028" data-entity-2="ent0020" data-link-type="dependency" data-source-line="75" id="lnk51"><path d="M41.3499,429.52 C44.0899,387.15 56.8999,286.4 116.5999,236 C134.2499,221.1 149.6801,212.5723 171.9301,205.5223" fill="none" id="home-to-n_default" style="stroke:#A6ADC8;stroke-width:1;"/><polygon fill="#A6ADC8" points="177.6499,203.71,167.862,202.6153,172.8834,205.2203,170.2785,210.2416,177.6499,203.71" style="stroke:#A6ADC8;stroke-width:1;"/></g><!--link home to default__cross_provide_home_--><g class="link" data-entity-1="ent0028" data-entity-2="ent0023" data-link-type="dependency" data-source-line="76" id="lnk52"><path d="M42.8399,429.62 C50.1099,370.11 75.0299,191.81 116.5999,154 C146.2899,126.99 181.4339,115.8785 220.8639,111.6585" fill="none" id="home-to-default__cross_provide_home_" style="stroke:#A6ADC8;stroke-width:1;"/><polygon fill="#A6ADC8" points="226.8299,111.02,217.4553,108.0005,221.8582,111.5521,218.3066,115.955,226.8299,111.02" style="stroke:#A6ADC8;stroke-width:1;"/></g><!--link home to default__self_provide_default_--><g class="link" data-entity-1="ent0028" data-entity-2="ent0024" data-link-type="dependency" data-source-line="77" id="lnk53"><path d="M66.6799,434.15 C122.3999,402.41 247.8562,330.9495 310.1662,295.4595" fill="none" id="home-to-default__self_provide_default_" style="stroke:#A6ADC8;stroke-width:1;"/><polygon fill="#A6ADC8" points="315.3799,292.49,305.5797,293.4685,311.0352,294.9646,309.5391,300.42,315.3799,292.49" style="stroke:#A6ADC8;stroke-width:1;"/></g><!--link home to home__aspect_home_--><g class="link" data-entity-1="ent0028" data-entity-2="ent0013" data-link-type="dependency" data-source-line="78" id="lnk54"><path d="M44.8599,468.48 C53.3599,503.66 75.2699,578.72 116.5999,628 C121.7099,634.09 589.2599,936.95 596.5999,940 C623.9099,951.36 649.3912,958.1695 677.5412,963.6695" fill="none" id="home-to-home__aspect_home_" style="stroke:#A6ADC8;stroke-width:1;"/><polygon fill="#A6ADC8" points="683.4299,964.82,675.3639,959.1684,678.5226,963.8612,673.8298,967.02,683.4299,964.82" style="stroke:#A6ADC8;stroke-width:1;"/></g><!--link home to home__cross_provide__anon__--><g class="link" data-entity-1="ent0028" data-entity-2="ent0014" data-link-type="dependency" data-source-line="79" id="lnk55"><path d="M40.8899,468.53 C42.4799,549.13 52.6899,854.78 116.5999,921 C246.0899,1055.17 466.5959,1070.7496 614.4259,1064.0996" fill="none" id="home-to-home__cross_provide__anon__" style="stroke:#A6ADC8;stroke-width:1;"/><polygon fill="#A6ADC8" points="620.4199,1063.83,611.2492,1060.2385,615.4249,1064.0547,611.6087,1068.2304,620.4199,1063.83" style="stroke:#A6ADC8;stroke-width:1;"/></g><!--link home_bat to home__self_provide_home_--><g class="link" data-entity-1="ent0007" data-entity-2="ent0015" data-link-type="dependency" data-source-line="80" id="lnk56"><path d="M1212.0999,1052.86 C1260.2399,1054.96 1338.6299,1051.31 1391.3999,1013 C1481.1299,947.85 1516.9732,814.7369 1527.9632,763.4269" fill="none" id="home_bat-to-home__self_provide_home_" style="stroke:#A6ADC8;stroke-width:1;"/><polygon fill="#A6ADC8" points="1529.2199,757.56,1523.4236,765.5226,1528.1727,762.4491,1531.2462,767.1981,1529.2199,757.56" style="stroke:#A6ADC8;stroke-width:1;"/></g><!--link home_dev to home_bat--><g class="link" data-entity-1="ent0008" data-entity-2="ent0007" data-link-type="dependency" data-source-line="81" id="lnk57"><path d="M809.0399,770.92 C840.7299,773.17 882.7799,781.36 909.3999,807 C978.0799,873.16 898.5699,949.15 969.3999,1013 C1011.5699,1051.01 1073.9857,1055.5349 1118.3357,1053.5749" fill="none" id="home_dev-to-home_bat" style="stroke:#A6ADC8;stroke-width:1;"/><polygon fill="#A6ADC8" points="1124.3299,1053.31,1115.162,1049.7113,1119.3347,1053.5308,1115.5152,1057.7035,1124.3299,1053.31" style="stroke:#A6ADC8;stroke-width:1;"/></g><!--link home_dev to home_git--><g class="link" data-entity-1="ent0008" data-entity-2="ent0010" data-link-type="dependency" data-source-line="82" id="lnk58"><path d="M808.8099,772.37 C839.7799,775.41 880.9899,783.96 909.3999,807 C956.6399,845.31 921.8199,892.1 969.3999,930 C1013.9799,965.51 1075.1151,974.2691 1118.6051,976.0891" fill="none" id="home_dev-to-home_git" style="stroke:#A6ADC8;stroke-width:1;"/><polygon fill="#A6ADC8" points="1124.5999,976.34,1115.775,971.9672,1119.6042,976.1309,1115.4405,979.9602,1124.5999,976.34" style="stroke:#A6ADC8;stroke-width:1;"/></g><!--link home_dev to home__self_provide_home_--><g class="link" data-entity-1="ent0008" data-entity-2="ent0015" data-link-type="dependency" data-source-line="83" id="lnk59"><path d="M809.0999,773.38 C839.5999,776.95 880.1299,785.7 909.3999,807 C950.0799,836.61 925.3899,878.61 969.3999,903 C1051.4199,948.46 1306.1899,942.16 1391.3999,903 C1457.5899,872.58 1501.6951,799.565 1520.7551,762.855" fill="none" id="home_dev-to-home__self_provide_home_" style="stroke:#A6ADC8;stroke-width:1;"/><polygon fill="#A6ADC8" points="1523.5199,757.53,1515.8227,763.6744,1521.2159,761.9675,1522.9227,767.3607,1523.5199,757.53" style="stroke:#A6ADC8;stroke-width:1;"/></g><!--link home_firefox to home__self_provide_home_--><g class="link" data-entity-1="ent0009" data-entity-2="ent0015" data-link-type="dependency" data-source-line="84" id="lnk60"><path d="M1229.0999,863.03 C1274.8199,859.17 1338.7599,850.32 1391.3999,830 C1436.7899,812.47 1478.16,782.7324 1504.94,761.3624" fill="none" id="home_firefox-to-home__self_provide_home_" style="stroke:#A6ADC8;stroke-width:1;"/><polygon fill="#A6ADC8" points="1509.6299,757.62,1500.1002,760.1071,1505.7217,760.7387,1505.0901,766.3601,1509.6299,757.62" style="stroke:#A6ADC8;stroke-width:1;"/></g><!--link home_git to home__self_provide_home_--><g class="link" data-entity-1="ent0010" data-entity-2="ent0015" data-link-type="dependency" data-source-line="85" id="lnk61"><path d="M1212.4499,975.99 C1259.8299,974.07 1336.5499,965.14 1391.3999,930 C1459.7499,886.2 1503.9338,802.3716 1522.0638,762.9316" fill="none" id="home_git-to-home__self_provide_home_" style="stroke:#A6ADC8;stroke-width:1;"/><polygon fill="#A6ADC8" points="1524.5699,757.48,1517.1764,763.9867,1522.4815,762.023,1524.4452,767.3281,1524.5699,757.48" style="stroke:#A6ADC8;stroke-width:1;"/></g><!--link home_productivity to home_firefox--><g class="link" data-entity-1="ent0011" data-entity-2="ent0009" data-link-type="dependency" data-source-line="86" id="lnk62"><path d="M846.6199,706.99 C868.4799,712.3 891.1299,720.71 909.3999,734 C950.0799,763.61 927.7599,801.76 969.3999,830 C1010.0199,857.56 1059.6951,865.46 1101.6651,867.21" fill="none" id="home_productivity-to-home_firefox" style="stroke:#A6ADC8;stroke-width:1;"/><polygon fill="#A6ADC8" points="1107.6599,867.46,1098.8343,863.0885,1102.6642,867.2517,1098.501,871.0816,1107.6599,867.46" style="stroke:#A6ADC8;stroke-width:1;"/></g><!--link home_productivity to home_slack--><g class="link" data-entity-1="ent0011" data-entity-2="ent0012" data-link-type="dependency" data-source-line="87" id="lnk63"><path d="M846.6299,717.58 C883.9699,726.61 928.9299,737.42 969.3999,747 C1019.1899,758.78 1070.2536,770.6206 1110.2436,779.8506" fill="none" id="home_productivity-to-home_slack" style="stroke:#A6ADC8;stroke-width:1;"/><polygon fill="#A6ADC8" points="1116.0899,781.2,1108.22,775.2784,1111.2179,780.0755,1106.4208,783.0735,1116.0899,781.2" style="stroke:#A6ADC8;stroke-width:1;"/></g><!--link home_productivity to home__self_provide_home_--><g class="link" data-entity-1="ent0011" data-entity-2="ent0015" data-link-type="dependency" data-source-line="88" id="lnk64"><path d="M846.5399,708.13 C883.8599,712.46 928.8299,717.16 969.3999,720 C1128.5799,731.13 1307.5405,735.3043 1420.9205,736.9243" fill="none" id="home_productivity-to-home__self_provide_home_" style="stroke:#A6ADC8;stroke-width:1;"/><polygon fill="#A6ADC8" points="1426.9199,737.01,1417.9779,732.8818,1421.9204,736.9386,1417.8636,740.881,1426.9199,737.01" style="stroke:#A6ADC8;stroke-width:1;"/></g><!--link home_slack to home__self_provide_home_--><g class="link" data-entity-1="ent0012" data-entity-2="ent0015" data-link-type="dependency" data-source-line="89" id="lnk65"><path d="M1220.7199,785.24 C1274.0599,777.17 1353.1474,765.2077 1421.0174,754.9377" fill="none" id="home_slack-to-home__self_provide_home_" style="stroke:#A6ADC8;stroke-width:1;"/><polygon fill="#A6ADC8" points="1426.9499,754.04,1417.4527,751.4316,1422.0061,754.7881,1418.6496,759.3415,1426.9499,754.04" style="stroke:#A6ADC8;stroke-width:1;"/></g><!--link hyprland to home__self_provide_home_--><g class="link" data-entity-1="ent0016" data-entity-2="ent0015" data-link-type="dependency" data-source-line="90" id="lnk66"><path d="M1212.1199,460.71 C1259.9099,459.2 1337.6499,463.43 1391.3999,500 C1471.8899,554.77 1511.9191,666.0621 1525.8491,712.5921" fill="none" id="hyprland-to-home__self_provide_home_" style="stroke:#A6ADC8;stroke-width:1;"/><polygon fill="#A6ADC8" points="1527.5699,718.34,1528.8206,708.5709,1526.1359,713.55,1521.1567,710.8653,1527.5699,718.34" style="stroke:#A6ADC8;stroke-width:1;"/></g><!--link ctx_home to ctx_default--><g class="link" data-entity-1="ent0067" data-entity-2="ent0068" data-link-type="dependency" data-source-line="91" id="lnk69"><path d="M48.5499,14 C91.8099,14 292.5699,14 335.6999,14" fill="none" id="ctx_home-to-ctx_default" style="stroke:#A6ADC8;stroke-width:1;"/><polygon fill="#A6ADC8" points="341.6999,14,332.6999,10,336.6999,14,332.6999,18,341.6999,14" style="stroke:#A6ADC8;stroke-width:1;"/></g><?plantuml-src fLPVQzim47_tfn09b1PgiYGbJLVOGmjZ35R6dWT6iMJ7L962f6Gj9TzziYp9iYqhNVUI-4w_-tyw7S651981NfLR2L35SIuhHXFnND4zv707DZ1_BZaxKFJ82EDWEiTplC0U0k427eZyogWqa1oXLN4JXZp17GQJxrW-S5XH0NumogvtwaViOOuddX3adFqn6k4AedpTFuoP_AKYWRGa-A4Vm7A-NDo4eOmZpCTCEfXdTf2CR_W5beoUDsg1KPC653Fu23awRqsZegPgHCpEJsK3bk_8fWNwrbRvxQVrQWYA5V29oNTOqwYegHenj9DmMqqmWQHIdGUW0FeBJDTtcvi29ll6IJ3PCjMpRq3_dJHGI7MGDVm4WBwo535PL0IBLcjcMM1QB7AKewuOmZkMYYqcH8lKPAP9vV46hehRFloOIiQ8CEXZfYcbUxdUm7KNNBkPRg3Ks9h8515sGqELkXQgY8ZMGasCWhsqSCE8Y9ILvuWYmW5gw9upT503wLZ9rrR6vqQ41L7bQwKqEHxq38gzubpMtrUjLDQmTQMpSMEpd3CXQd-F5SAN5qJUGyheHIdlVMKQbHcKqgqWMKohmAHmIlkUrOTEb_4lcFJNFIUGeaRK466ZUrxj87zD3m9p3JUCh6Pu8hcQ5JLQsnQpWHZ2AYvxN7y5j9pQwsLUXz0DSqVAwhOPXWx_crw-WQO-QRvLZyaro0aK0foQD54dFItWPhaUN25zQ0jlo2iJW2PS-IrTpqsyXFDX3aQqVLQfc5bGA3TZbh8EphCRYA3RV6sVE5tTlhEzSeSNi0Xhx3HUE3ETzclpup8zp4z5yMYBDCUcGyPol6L2KhK-X1JOit4FTWTvWCH65VIYWLW6Tpaw9RsRwQwXSpPfdeuq_T8Rzzv1EzGxJ3ExFPuTl7sMF_dwPu5vu4FClVTO_gti-3DwTvFUGnQrtTw-HckupGUmiQw80struwXUUHFlaOs64kdLQ6ndvJum2PAnllyNJ_fz_l-o7ul4RYtHxEjhvkvLIxfIjwpOm0kWWYEinGqNWFvPy3rFt8PrDYozN3cK4WbmrOOKu8vgjFlNUMIzUfr7TPOj1pTMOX2zRyK0eoQRJIsEisjC59NBbynLh2PCZVy2?></g></svg>