<svg id="my-svg" width="100%" xmlns="http://www.w3.org/2000/svg" xmlns:xlink="http://www.w3.org/1999/xlink" class="flowchart" style="max-width: 561px; background-color: rgb(30, 30, 46);" viewBox="4 4 561 156" role="graphics-document document" aria-roledescription="flowchart-v2"><style>#my-svg{font-family:JetBrains Mono,Fira Code,DejaVu Sans Mono,monospace;font-size:16px;fill:#cdd6f4;}@keyframes edge-animation-frame{from{stroke-dashoffset:0;}}@keyframes dash{to{stroke-dashoffset:0;}}#my-svg .edge-animation-slow{stroke-dasharray:9,5!important;stroke-dashoffset:900;animation:dash 50s linear infinite;stroke-linecap:round;}#my-svg .edge-animation-fast{stroke-dasharray:9,5!important;stroke-dashoffset:900;animation:dash 20s linear infinite;stroke-linecap:round;}#my-svg .error-icon{fill:#313244;}#my-svg .error-text{fill:#cdd6f4;stroke:#cdd6f4;}#my-svg .edge-thickness-normal{stroke-width:1px;}#my-svg .edge-thickness-thick{stroke-width:3.5px;}#my-svg .edge-pattern-solid{stroke-dasharray:0;}#my-svg .edge-thickness-invisible{stroke-width:0;fill:none;}#my-svg .edge-pattern-dashed{stroke-dasharray:3;}#my-svg .edge-pattern-dotted{stroke-dasharray:2;}#my-svg .marker{fill:#a6adc8;stroke:#a6adc8;}#my-svg .marker.cross{stroke:#a6adc8;}#my-svg svg{font-family:JetBrains Mono,Fira Code,DejaVu Sans Mono,monospace;font-size:16px;}#my-svg p{margin:0;}#my-svg .label{font-family:JetBrains Mono,Fira Code,DejaVu Sans Mono,monospace;color:#cdd6f4;}#my-svg .cluster-label text{fill:#cdd6f4;}#my-svg .cluster-label span{color:#cdd6f4;}#my-svg .cluster-label span p{background-color:transparent;}#my-svg .label text,#my-svg span{fill:#cdd6f4;color:#cdd6f4;}#my-svg .node rect,#my-svg .node circle,#my-svg .node ellipse,#my-svg .node polygon,#my-svg .node path{fill:#313244;stroke:#a6adc8;stroke-width:1px;}#my-svg .rough-node .label text,#my-svg .node .label text,#my-svg .image-shape .label,#my-svg .icon-shape .label{text-anchor:middle;}#my-svg .node .katex path{fill:#000;stroke:#000;stroke-width:1px;}#my-svg .rough-node .label,#my-svg .node .label,#my-svg .image-shape .label,#my-svg .icon-shape .label{text-align:center;}#my-svg .node.clickable{cursor:pointer;}#my-svg .root .anchor path{fill:#a6adc8!important;stroke-width:0;stroke:#a6adc8;}#my-svg .arrowheadPath{fill:#e1e1d1;}#my-svg .edgePath .path{stroke:#a6adc8;stroke-width:1px;}#my-svg .flowchart-link{stroke:#a6adc8;fill:none;}#my-svg .edgeLabel{background-color:#1e1e2e;text-align:center;}#my-svg .edgeLabel p{background-color:#1e1e2e;}#my-svg .edgeLabel rect{opacity:0.5;background-color:#1e1e2e;fill:#1e1e2e;}#my-svg .labelBkg{background-color:rgba(30, 30, 46, 0.5);}#my-svg .cluster rect{fill:#313244;stroke:#6c7086;stroke-width:1px;}#my-svg .cluster text{fill:#cdd6f4;}#my-svg .cluster span{color:#cdd6f4;}#my-svg div.mermaidTooltip{position:absolute;text-align:center;max-width:200px;padding:2px;font-family:JetBrains Mono,Fira Code,DejaVu Sans Mono,monospace;font-size:12px;background:#313244;border:1px solid #6c7086;border-radius:2px;pointer-events:none;z-index:100;}#my-svg .flowchartTitleText{text-anchor:middle;font-size:18px;fill:#cdd6f4;}#my-svg rect.text{fill:none;stroke-width:0;}#my-svg .icon-shape,#my-svg .image-shape{background-color:#1e1e2e;text-align:center;}#my-svg .icon-shape p,#my-svg .image-shape p{background-color:#1e1e2e;padding:2px;}#my-svg .icon-shape .label rect,#my-svg .image-shape .label rect{opacity:0.5;background-color:#1e1e2e;fill:#1e1e2e;}#my-svg .label-icon{display:inline-block;height:1em;overflow:visible;vertical-align:-0.125em;}#my-svg .node .label-icon path{fill:currentColor;stroke:revert;stroke-width:revert;}#my-svg .node .neo-node{stroke:#a6adc8;}#my-svg [data-look="neo"].node rect,#my-svg [data-look="neo"].cluster rect,#my-svg [data-look="neo"].node polygon{stroke:url(#my-svg-gradient);filter:drop-shadow( 1px 2px 2px rgba(185,185,185,1));}#my-svg [data-look="neo"].node path{stroke:url(#my-svg-gradient);stroke-width:1px;}#my-svg [data-look="neo"].node .outer-path{filter:drop-shadow( 1px 2px 2px rgba(185,185,185,1));}#my-svg [data-look="neo"].node .neo-line path{stroke:#a6adc8;filter:none;}#my-svg [data-look="neo"].node circle{stroke:url(#my-svg-gradient);filter:drop-shadow( 1px 2px 2px rgba(185,185,185,1));}#my-svg [data-look="neo"].node circle .state-start{fill:#000000;}#my-svg [data-look="neo"].icon-shape .icon{fill:url(#my-svg-gradient);filter:drop-shadow( 1px 2px 2px rgba(185,185,185,1));}#my-svg [data-look="neo"].icon-shape .icon-neo path{stroke:url(#my-svg-gradient);filter:drop-shadow( 1px 2px 2px rgba(185,185,185,1));}#my-svg :root{--mermaid-font-family:JetBrains Mono,Fira Code,DejaVu Sans Mono,monospace;}#my-svg .root&gt;*{fill:#89b4fa!important;stroke:#89b4fa!important;color:#1e1e2e!important;font-weight:bold!important;}#my-svg .root span{fill:#89b4fa!important;stroke:#89b4fa!important;color:#1e1e2e!important;font-weight:bold!important;}#my-svg .root tspan{fill:#1e1e2e!important;}</style><g><marker id="my-svg_flowchart-v2-pointEnd" class="marker flowchart-v2" viewBox="0 0 10 10" refX="5" refY="5" markerUnits="userSpaceOnUse" markerWidth="8" markerHeight="8" orient="auto"><path d="M 0 0 L 10 5 L 0 10 z" class="arrowMarkerPath" style="stroke-width: 1; stroke-dasharray: 1, 0;"/></marker><marker id="my-svg_flowchart-v2-pointStart" class="marker flowchart-v2" viewBox="0 0 10 10" refX="4.5" refY="5" markerUnits="userSpaceOnUse" markerWidth="8" markerHeight="8" orient="auto"><path d="M 0 5 L 10 10 L 10 0 z" class="arrowMarkerPath" style="stroke-width: 1; stroke-dasharray: 1, 0;"/></marker><marker id="my-svg_flowchart-v2-pointEnd-margin" class="marker flowchart-v2" viewBox="0 0 11.5 14" refX="11.5" refY="7" markerUnits="userSpaceOnUse" markerWidth="10.5" markerHeight="14" orient="auto"><path d="M 0 0 L 11.5 7 L 0 14 z" class="arrowMarkerPath" style="stroke-width: 0; stroke-dasharray: 1, 0;"/></marker><marker id="my-svg_flowchart-v2-pointStart-margin" class="marker flowchart-v2" viewBox="0 0 11.5 14" refX="1" refY="7" markerUnits="userSpaceOnUse" markerWidth="11.5" markerHeight="14" orient="auto"><polygon points="0,7 11.5,14 11.5,0" class="arrowMarkerPath" style="stroke-width: 0; stroke-dasharray: 1, 0;"/></marker><marker id="my-svg_flowchart-v2-circleEnd" class="marker flowchart-v2" viewBox="0 0 10 10" refX="11" refY="5" markerUnits="userSpaceOnUse" markerWidth="11" markerHeight="11" orient="auto"><circle cx="5" cy="5" r="5" class="arrowMarkerPath" style="stroke-width: 1; stroke-dasharray: 1, 0;"/></marker><marker id="my-svg_flowchart-v2-circleStart" class="marker flowchart-v2" viewBox="0 0 10 10" refX="-1" refY="5" markerUnits="userSpaceOnUse" markerWidth="11" markerHeight="11" orient="auto"><circle cx="5" cy="5" r="5" class="arrowMarkerPath" style="stroke-width: 1; stroke-dasharray: 1, 0;"/></marker><marker id="my-svg_flowchart-v2-circleEnd-margin" class="marker flowchart-v2" viewBox="0 0 10 10" refY="5" refX="12.25" markerUnits="userSpaceOnUse" markerWidth="14" markerHeight="14" orient="auto"><circle cx="5" cy="5" r="5" class="arrowMarkerPath" style="stroke-width: 0; stroke-dasharray: 1, 0;"/></marker><marker id="my-svg_flowchart-v2-circleStart-margin" class="marker flowchart-v2" viewBox="0 0 10 10" refX="-2" refY="5" markerUnits="userSpaceOnUse" markerWidth="14" markerHeight="14" orient="auto"><circle cx="5" cy="5" r="5" class="arrowMarkerPath" style="stroke-width: 0; stroke-dasharray: 1, 0;"/></marker><marker id="my-svg_flowchart-v2-crossEnd" class="marker cross flowchart-v2" viewBox="0 0 11 11" refX="12" refY="5.2" markerUnits="userSpaceOnUse" markerWidth="11" markerHeight="11" orient="auto"><path d="M 1,1 l 9,9 M 10,1 l -9,9" class="arrowMarkerPath" style="stroke-width: 2; stroke-dasharray: 1, 0;"/></marker><marker id="my-svg_flowchart-v2-crossStart" class="marker cross flowchart-v2" viewBox="0 0 11 11" refX="-1" refY="5.2" markerUnits="userSpaceOnUse" markerWidth="11" markerHeight="11" orient="auto"><path d="M 1,1 l 9,9 M 10,1 l -9,9" class="arrowMarkerPath" style="stroke-width: 2; stroke-dasharray: 1, 0;"/></marker><marker id="my-svg_flowchart-v2-crossEnd-margin" class="marker cross flowchart-v2" viewBox="0 0 15 15" refX="17.7" refY="7.5" markerUnits="userSpaceOnUse" markerWidth="12" markerHeight="12" orient="auto"><path d="M 1,1 L 14,14 M 1,14 L 14,1" class="arrowMarkerPath" style="stroke-width: 2.5;"/></marker><marker id="my-svg_flowchart-v2-crossStart-margin" class="marker cross flowchart-v2" viewBox="0 0 15 15" refX="-3.5" refY="7.5" markerUnits="userSpaceOnUse" markerWidth="12" markerHeight="12" orient="auto"><path d="M 1,1 L 14,14 M 1,14 L 14,1" class="arrowMarkerPath" style="stroke-width: 2.5; stroke-dasharray: 1, 0;"/></marker></g><defs><filter id="my-svg-drop-shadow" height="130%" width="130%"><feDropShadow dx="4" dy="4" stdDeviation="0" flood-opacity="0.06" flood-color="#000000"/></filter></defs><defs><filter id="my-svg-drop-shadow-small" height="150%" width="150%"><feDropShadow dx="2" dy="2" stdDeviation="0" flood-opacity="0.06" flood-color="#000000"/></filter></defs><linearGradient id="my-svg-gradient" gradientUnits="objectBoundingBox" x1="0%" y1="0%" x2="100%" y2="0%"><stop offset="0%" stop-color="#a6adc8" stop-opacity="1"/><stop offset="100%" stop-color="#6c7086" stop-opacity="1"/></linearGradient><g class="subgraphs"/><g class="nodes"><g class="node default root " id="my-svg-flowchart-alice-0" data-look="classic" transform="translate(137, 31.5)"><g class="basic label-container outer-path"><path d="M-17.875 -19.5 C-8.738548575856795 -19.5, 0.3979028482864102 -19.5, 17.875 -19.5 C17.875 -19.5, 17.875 -19.5, 17.875 -19.5 C18.2264856979218 -19.488728537793055, 18.5779713958436 -19.477457075586113, 19.1243692896239 -19.45993515863156 C19.524289249112975 -19.42135536111377, 19.924209208602054 -19.382775563595978, 20.368604652847864 -19.3399052695533 C20.717159136883495 -19.283553683654812, 21.065713620919123 -19.22720209775633, 21.60259325967676 -19.140403561325776 C21.940528124183622 -19.063272133733165, 22.27846298869049 -18.986140706140553, 22.82126438623539 -18.862249829261074 C23.195060190870773 -18.75130919653951, 23.56885599550616 -18.640368563817947, 24.019610251460602 -18.50658706670804 C24.369881897802966 -18.377683862978444, 24.720153544145333 -18.248780659248848, 25.192706595147794 -18.074876768247425 C25.58944241789285 -17.899253588268227, 25.986178240637905 -17.723630408289026, 26.33573291279238 -17.568892924097174 C26.639037479165793 -17.41065912609601, 26.942342045539206 -17.25242532809485, 27.443992264076783 -16.990714730406097 C27.714045635596623 -16.827006789581002, 27.984099007116466 -16.663298848755907, 28.512930573605697 -16.342718045390892 C28.82168552550334 -16.127343956733544, 29.130440477400988 -15.911969868076197, 29.538155344578712 -15.627565626425154 C29.799396842235467 -15.419232483972108, 30.060638339892222 -15.21089934151906, 30.51545370850187 -14.848196188198123 C30.848796841295453 -14.545462774770979, 31.182139974089033 -14.242729361343832, 31.440809736767985 -14.007812326905688 C31.70227164636854 -13.737831438821114, 31.963733555969096 -13.467850550736541, 32.31042094296865 -13.10986736009568 C32.50856123027542 -12.877120504123404, 32.7067015175822 -12.644373648151129, 33.12071390812658 -12.158051136245305 C33.36369458999458 -11.832479158537684, 33.60667527186258 -11.506907180830062, 33.868358964640635 -11.156274872382312 C34.099155053320004 -10.801710102743337, 34.329951141999366 -10.447145333104364, 34.55028387860425 -10.108655082055241 C34.686633210235584 -9.866553036876816, 34.822982541866914 -9.624450991698392, 35.163686474273504 -9.019496659696287 C35.35518179122562 -8.62185253670182, 35.54667710817773 -8.224208413707354, 35.70604614880834 -7.893275190886684 C35.81415482183724 -7.626244678366297, 35.922263494866144 -7.359214165845909, 36.175134229970325 -6.734618561215508 C36.30278579404529 -6.350152388736417, 36.43043735812026 -5.965686216257326, 36.56902313421488 -5.548287939305138 C36.68470180363045 -5.107155037371083, 36.80038047304603 -4.666022135437028, 36.88609428754556 -4.339158212148133 C36.975302570865885 -3.881092531475624, 37.06451085418621 -3.423026850803115, 37.125044776581774 -3.1121979531509023 C37.15991597062054 -2.8417438582824115, 37.194787164659296 -2.5712897634139207, 37.28489270250937 -1.872449005199798 C37.30371742198539 -1.5792388043206467, 37.32254214146142 -1.2860286034414956, 37.36498121591342 -0.6250057626472757 C37.36498121591342 -0.14337920682148614, 37.36498121591342 0.3382473490043034, 37.36498121591342 0.625005762647271 C37.33987293164718 1.0160875571362074, 37.31476464738094 1.4071693516251436, 37.28489270250937 1.8724490051997846 C37.24698724733825 2.1664362302282383, 37.20908179216712 2.4604234552566924, 37.125044776581774 3.1121979531508885 C37.03722218463854 3.5631484014680264, 36.94939959269531 4.014098849785164, 36.88609428754556 4.339158212148129 C36.81735534587717 4.601289588375488, 36.748616404208775 4.863420964602848, 36.56902313421489 5.548287939305125 C36.4129224548276 6.018438314353943, 36.256821775440315 6.488588689402761, 36.175134229970325 6.734618561215495 C36.052929781889745 7.036465910636805, 35.930725333809164 7.338313260058116, 35.70604614880834 7.893275190886679 C35.559916496441716 8.19671654069965, 35.41378684407509 8.500157890512625, 35.163686474273504 9.019496659696284 C34.995188400909306 9.318682051234516, 34.82669032754511 9.617867442772749, 34.55028387860425 10.108655082055236 C34.29329108010422 10.5034650327803, 34.036298281604196 10.898274983505363, 33.86835896464064 11.156274872382301 C33.60315184314497 11.511628254320701, 33.33794472164929 11.866981636259101, 33.12071390812658 12.158051136245302 C32.955218221633345 12.352451786571594, 32.7897225351401 12.546852436897886, 32.31042094296866 13.10986736009567 C32.081899834748995 13.345834166264382, 31.853378726529336 13.581800972433092, 31.44080973676799 14.007812326905684 C31.114417735449834 14.304232906643708, 30.78802573413168 14.600653486381733, 30.515453708501887 14.848196188198111 C30.228250061513272 15.077233453861508, 29.941046414524656 15.306270719524907, 29.538155344578715 15.627565626425152 C29.138670988706362 15.906228619682661, 28.739186632834013 16.18489161294017, 28.512930573605708 16.34271804539089 C28.104796377841847 16.5901313933257, 27.696662182077986 16.837544741260512, 27.443992264076787 16.990714730406093 C27.06074507808362 17.19065454185719, 26.677497892090457 17.390594353308284, 26.335732912792388 17.56889292409717 C25.919403255793483 17.753189713270107, 25.50307359879458 17.93748650244304, 25.192706595147804 18.07487676824742 C24.783673409759334 18.225404761531696, 24.37464022437086 18.37593275481597, 24.019610251460616 18.506587066708033 C23.672929015152228 18.60948023787742, 23.326247778843843 18.712373409046805, 22.821264386235413 18.86224982926107 C22.470311793351524 18.942352468407123, 22.11935920046763 19.02245510755317, 21.602593259676766 19.140403561325773 C21.351552212718854 19.180989930945533, 21.100511165760945 19.221576300565292, 20.36860465284788 19.3399052695533 C20.004623145398366 19.375018127825147, 19.640641637948857 19.41013098609699, 19.1243692896239 19.45993515863156 C18.842018518858595 19.468989598287568, 18.559667748093293 19.478044037943576, 17.875000000000004 19.5 C17.875000000000004 19.5, 17.875 19.5, 17.875 19.5 C8.451067542376487 19.5, -0.9728649152470261 19.5, -17.874999999999996 19.5 C-18.328840869929753 19.485446206649016, -18.78268173985951 19.470892413298035, -19.124369289623893 19.45993515863156 C-19.441072330748664 19.429383197145384, -19.75777537187344 19.398831235659213, -20.36860465284787 19.3399052695533 C-20.62440946957396 19.298548730581008, -20.880214286300046 19.257192191608713, -21.60259325967676 19.140403561325773 C-21.940984128964878 19.06316805361755, -22.279374998253 18.985932545909325, -22.821264386235388 18.862249829261074 C-23.142999728819717 18.766760468405323, -23.464735071404043 18.671271107549572, -24.01961025146059 18.506587066708043 C-24.411403710917817 18.362403451928746, -24.803197170375046 18.218219837149448, -25.192706595147797 18.074876768247425 C-25.43781712322873 17.966373608411473, -25.68292765130966 17.857870448575525, -26.33573291279238 17.568892924097174 C-26.67357846423716 17.392639116308835, -27.01142401568194 17.216385308520497, -27.44399226407678 16.990714730406097 C-27.833138385133484 16.754812064945074, -28.22228450619019 16.518909399484055, -28.512930573605686 16.3427180453909 C-28.765907976336322 16.16625196046127, -29.01888537906696 15.989785875531641, -29.538155344578712 15.627565626425156 C-29.91848125298421 15.324265835369244, -30.298807161389707 15.020966044313331, -30.51545370850187 14.848196188198125 C-30.822975383250586 14.568913139768982, -31.130497057999303 14.289630091339841, -31.440809736767974 14.007812326905697 C-31.63451412743349 13.807796640117317, -31.828218518099003 13.607780953328938, -32.310420942968655 13.109867360095677 C-32.59312584858801 12.777786091590343, -32.875830754207364 12.445704823085011, -33.120713908126575 12.158051136245307 C-33.29256332021702 11.927788579847624, -33.464412732307466 11.697526023449939, -33.868358964640635 11.156274872382316 C-34.072478688688534 10.842692162424177, -34.27659841273643 10.529109452466038, -34.55028387860425 10.108655082055249 C-34.786485683791476 9.689254858918972, -35.022687488978704 9.269854635782693, -35.163686474273504 9.019496659696289 C-35.33658436042202 8.660470499686761, -35.50948224657054 8.301444339677234, -35.70604614880834 7.893275190886686 C-35.872516199009404 7.482090948410589, -36.03898624921047 7.070906705934491, -36.175134229970325 6.73461856121551 C-36.28112395278559 6.415394403264937, -36.38711367560086 6.096170245314365, -36.56902313421488 5.5482879393051325 C-36.68819064913266 5.093850557395972, -36.80735816405044 4.639413175486812, -36.88609428754556 4.339158212148136 C-36.944060576945226 4.041513567260461, -37.00202686634489 3.7438689223727852, -37.125044776581774 3.112197953150904 C-37.16239429818975 2.82252243905669, -37.19974381979773 2.5328469249624757, -37.28489270250937 1.872449005199809 C-37.31282134180032 1.437437904651302, -37.34074998109128 1.0024268041027948, -37.36498121591342 0.6250057626472781 C-37.36498121591342 0.29125479675025306, -37.36498121591342 -0.04249616914677201, -37.36498121591342 -0.6250057626472687 C-37.34440789960523 -0.9454517706293203, -37.32383458329704 -1.2658977786113719, -37.28489270250937 -1.8724490051997822 C-37.240563272097795 -2.2162593136357964, -37.196233841686215 -2.560069622071811, -37.125044776581774 -3.112197953150895 C-37.04874511278715 -3.5039806007966394, -36.972445448992524 -3.8957632484423836, -36.88609428754556 -4.339158212148126 C-36.76650473608686 -4.795205002299627, -36.646915184628156 -5.251251792451129, -36.56902313421489 -5.548287939305123 C-36.48631040885866 -5.797405489594985, -36.40359768350242 -6.046523039884848, -36.17513422997033 -6.734618561215485 C-36.065569348895494 -7.005245935763199, -35.95600446782066 -7.275873310310912, -35.70604614880834 -7.893275190886676 C-35.57723322373226 -8.160757985962228, -35.44842029865618 -8.428240781037779, -35.163686474273504 -9.019496659696282 C-34.92662276094168 -9.440427288020947, -34.68955904760987 -9.861357916345613, -34.55028387860425 -10.108655082055243 C-34.36605867283574 -10.391674469510063, -34.181833467067236 -10.674693856964884, -33.86835896464064 -11.156274872382308 C-33.61470668604057 -11.496145817508443, -33.3610544074405 -11.836016762634578, -33.12071390812659 -12.158051136245302 C-32.91918105633399 -12.394783091505014, -32.7176482045414 -12.631515046764726, -32.31042094296866 -13.10986736009567 C-32.100438904325706 -13.326691054840508, -31.890456865682758 -13.543514749585347, -31.440809736767996 -14.007812326905677 C-31.142960761528037 -14.278310885566569, -30.84511178628808 -14.54880944422746, -30.515453708501887 -14.848196188198107 C-30.275799466243956 -15.039314068931587, -30.036145223986022 -15.230431949665064, -29.53815534457872 -15.627565626425149 C-29.19502894857915 -15.866915746572165, -28.85190255257958 -16.10626586671918, -28.51293057360571 -16.342718045390885 C-28.27753139468832 -16.485418411009732, -28.042132215770927 -16.628118776628583, -27.44399226407679 -16.99071473040609 C-27.014018288877477 -17.2150318778561, -26.58404431367816 -17.439349025306104, -26.335732912792388 -17.56889292409717 C-25.884024656190313 -17.76885076984556, -25.432316399588235 -17.96880861559395, -25.192706595147804 -18.07487676824742 C-24.782947375791093 -18.225671948743393, -24.37318815643438 -18.376467129239362, -24.01961025146062 -18.506587066708033 C-23.590723800767975 -18.63387831400269, -23.16183735007533 -18.761169561297347, -22.821264386235413 -18.862249829261067 C-22.47055332407264 -18.94229734059616, -22.119842261909866 -19.02234485193125, -21.602593259676766 -19.140403561325773 C-21.26573263746765 -19.1948645743314, -20.928872015258534 -19.24932558733703, -20.368604652847882 -19.3399052695533 C-19.9661908620476 -19.37872564397841, -19.563777071247323 -19.417546018403524, -19.124369289623903 -19.45993515863156 C-18.834656591947763 -19.469225680954477, -18.54494389427162 -19.478516203277394, -17.875000000000007 -19.5 C-17.875000000000004 -19.5, -17.875000000000004 -19.5, -17.875 -19.5" stroke="none" stroke-width="0" fill="#89b4fa" style="fill:#89b4fa !important;stroke:#89b4fa !important"/><path d="M-17.875 -19.5 C-8.098276425710976 -19.5, 1.6784471485780479 -19.5, 17.875 -19.5 M-17.875 -19.5 C-10.43607416695696 -19.5, -2.9971483339139215 -19.5, 17.875 -19.5 M17.875 -19.5 C17.875 -19.5, 17.875 -19.5, 17.875 -19.5 M17.875 -19.5 C17.875 -19.5, 17.875 -19.5, 17.875 -19.5 M17.875 -19.5 C18.372966881824777 -19.484031171333616, 18.870933763649553 -19.46806234266723, 19.1243692896239 -19.45993515863156 M17.875 -19.5 C18.19026893288748 -19.48988993895605, 18.50553786577496 -19.4797798779121, 19.1243692896239 -19.45993515863156 M19.1243692896239 -19.45993515863156 C19.573608136304664 -19.416597627381027, 20.022846982985428 -19.37326009613049, 20.368604652847864 -19.3399052695533 M19.1243692896239 -19.45993515863156 C19.46218553616349 -19.42734643161136, 19.800001782703077 -19.394757704591164, 20.368604652847864 -19.3399052695533 M20.368604652847864 -19.3399052695533 C20.619086550943862 -19.29940929878527, 20.869568449039857 -19.25891332801724, 21.60259325967676 -19.140403561325776 M20.368604652847864 -19.3399052695533 C20.804920472583596 -19.269365111498143, 21.241236292319325 -19.19882495344299, 21.60259325967676 -19.140403561325776 M21.60259325967676 -19.140403561325776 C22.02418875388692 -19.044177140940015, 22.445784248097084 -18.947950720554257, 22.82126438623539 -18.862249829261074 M21.60259325967676 -19.140403561325776 C22.022605097949654 -19.044538600073377, 22.44261693622255 -18.948673638820978, 22.82126438623539 -18.862249829261074 M22.82126438623539 -18.862249829261074 C23.266240831097345 -18.73018315615507, 23.711217275959296 -18.598116483049065, 24.019610251460602 -18.50658706670804 M22.82126438623539 -18.862249829261074 C23.272989100356753 -18.728180305261265, 23.724713814478115 -18.594110781261456, 24.019610251460602 -18.50658706670804 M24.019610251460602 -18.50658706670804 C24.32552989751906 -18.394005809068318, 24.631449543577524 -18.281424551428596, 25.192706595147794 -18.074876768247425 M24.019610251460602 -18.50658706670804 C24.403067292312304 -18.365471331036584, 24.786524333164003 -18.22435559536513, 25.192706595147794 -18.074876768247425 M25.192706595147794 -18.074876768247425 C25.63114501436918 -17.880793085871726, 26.06958343359057 -17.686709403496025, 26.33573291279238 -17.568892924097174 M25.192706595147794 -18.074876768247425 C25.539468605869377 -17.921375512430554, 25.886230616590957 -17.767874256613684, 26.33573291279238 -17.568892924097174 M26.33573291279238 -17.568892924097174 C26.75612209757801 -17.349576155666636, 27.176511282363645 -17.130259387236094, 27.443992264076783 -16.990714730406097 M26.33573291279238 -17.568892924097174 C26.75662593683705 -17.349313303047918, 27.17751896088172 -17.129733681998662, 27.443992264076783 -16.990714730406097 M27.443992264076783 -16.990714730406097 C27.754120093088147 -16.802713417945988, 28.06424792209951 -16.61471210548588, 28.512930573605697 -16.342718045390892 M27.443992264076783 -16.990714730406097 C27.68579786499847 -16.84413075411993, 27.927603465920154 -16.697546777833765, 28.512930573605697 -16.342718045390892 M28.512930573605697 -16.342718045390892 C28.741513436207683 -16.183268535632386, 28.970096298809672 -16.02381902587388, 29.538155344578712 -15.627565626425154 M28.512930573605697 -16.342718045390892 C28.803464292617164 -16.140054300010483, 29.093998011628635 -15.937390554630074, 29.538155344578712 -15.627565626425154 M29.538155344578712 -15.627565626425154 C29.923880994562097 -15.319959685154034, 30.309606644545486 -15.012353743882915, 30.51545370850187 -14.848196188198123 M29.538155344578712 -15.627565626425154 C29.80966111598531 -15.411046998800401, 30.081166887391912 -15.194528371175648, 30.51545370850187 -14.848196188198123 M30.51545370850187 -14.848196188198123 C30.77531356187706 -14.612198344877731, 31.03517341525225 -14.376200501557339, 31.440809736767985 -14.007812326905688 M30.51545370850187 -14.848196188198123 C30.75966531111931 -14.626409672185892, 31.00387691373675 -14.404623156173658, 31.440809736767985 -14.007812326905688 M31.440809736767985 -14.007812326905688 C31.76215201150541 -13.676000045547887, 32.08349428624284 -13.344187764190089, 32.31042094296865 -13.10986736009568 M31.440809736767985 -14.007812326905688 C31.62307653356257 -13.81960689483296, 31.805343330357157 -13.631401462760232, 32.31042094296865 -13.10986736009568 M32.31042094296865 -13.10986736009568 C32.5218655664937 -12.861492473763235, 32.73331019001876 -12.613117587430787, 33.12071390812658 -12.158051136245305 M32.31042094296865 -13.10986736009568 C32.626775871112 -12.738258860393138, 32.94313079925536 -12.366650360690594, 33.12071390812658 -12.158051136245305 M33.12071390812658 -12.158051136245305 C33.390773963044644 -11.796195265632239, 33.6608340179627 -11.43433939501917, 33.868358964640635 -11.156274872382312 M33.12071390812658 -12.158051136245305 C33.41171695516051 -11.768133564142808, 33.70272000219444 -11.378215992040309, 33.868358964640635 -11.156274872382312 M33.868358964640635 -11.156274872382312 C34.04357435416457 -10.887096982153574, 34.218789743688504 -10.617919091924835, 34.55028387860425 -10.108655082055241 M33.868358964640635 -11.156274872382312 C34.05320532235639 -10.872301228733857, 34.238051680072154 -10.588327585085402, 34.55028387860425 -10.108655082055241 M34.55028387860425 -10.108655082055241 C34.7508799471774 -9.752476449749048, 34.95147601575055 -9.396297817442857, 35.163686474273504 -9.019496659696287 M34.55028387860425 -10.108655082055241 C34.69562578905074 -9.85058580259316, 34.84096769949723 -9.592516523131078, 35.163686474273504 -9.019496659696287 M35.163686474273504 -9.019496659696287 C35.336891564233824 -8.659832584398448, 35.51009665419414 -8.300168509100606, 35.70604614880834 -7.893275190886684 M35.163686474273504 -9.019496659696287 C35.28314932583933 -8.771429492324302, 35.40261217740516 -8.523362324952314, 35.70604614880834 -7.893275190886684 M35.70604614880834 -7.893275190886684 C35.842588613099856 -7.556012664217683, 35.97913107739137 -7.218750137548681, 36.175134229970325 -6.734618561215508 M35.70604614880834 -7.893275190886684 C35.8408904868227 -7.560207068953293, 35.97573482483706 -7.227138947019902, 36.175134229970325 -6.734618561215508 M36.175134229970325 -6.734618561215508 C36.25916502859096 -6.481531184259737, 36.34319582721159 -6.2284438073039645, 36.56902313421488 -5.548287939305138 M36.175134229970325 -6.734618561215508 C36.301629047277224 -6.35363632569927, 36.42812386458412 -5.972654090183032, 36.56902313421488 -5.548287939305138 M36.56902313421488 -5.548287939305138 C36.66182924312459 -5.194378023610363, 36.754635352034306 -4.840468107915587, 36.88609428754556 -4.339158212148133 M36.56902313421488 -5.548287939305138 C36.69000200551364 -5.086943070468467, 36.8109808768124 -4.625598201631798, 36.88609428754556 -4.339158212148133 M36.88609428754556 -4.339158212148133 C36.98013512375303 -3.8562783937605305, 37.074175959960506 -3.3733985753729274, 37.125044776581774 -3.1121979531509023 M36.88609428754556 -4.339158212148133 C36.95000215486498 -4.011004820395451, 37.0139100221844 -3.6828514286427687, 37.125044776581774 -3.1121979531509023 M37.125044776581774 -3.1121979531509023 C37.157747401424345 -2.858562852735642, 37.190450026266916 -2.6049277523203824, 37.28489270250937 -1.872449005199798 M37.125044776581774 -3.1121979531509023 C37.17333198484421 -2.737691901255242, 37.22161919310665 -2.363185849359582, 37.28489270250937 -1.872449005199798 M37.28489270250937 -1.872449005199798 C37.3073957368467 -1.521946081273475, 37.329898771184034 -1.1714431573471522, 37.36498121591342 -0.6250057626472757 M37.28489270250937 -1.872449005199798 C37.31125440156638 -1.4618442636062887, 37.3376161006234 -1.0512395220127795, 37.36498121591342 -0.6250057626472757 M37.36498121591342 -0.6250057626472757 C37.36498121591342 -0.34086242478027123, 37.36498121591342 -0.05671908691326677, 37.36498121591342 0.625005762647271 M37.36498121591342 -0.6250057626472757 C37.36498121591342 -0.2522352129332064, 37.36498121591342 0.12053533678086292, 37.36498121591342 0.625005762647271 M37.36498121591342 0.625005762647271 C37.34781912260077 0.8923192189841663, 37.33065702928812 1.1596326753210615, 37.28489270250937 1.8724490051997846 M37.36498121591342 0.625005762647271 C37.34043165019861 1.007385064708186, 37.3158820844838 1.3897643667691006, 37.28489270250937 1.8724490051997846 M37.28489270250937 1.8724490051997846 C37.22192480973776 2.3608155471195387, 37.15895691696614 2.849182089039293, 37.125044776581774 3.1121979531508885 M37.28489270250937 1.8724490051997846 C37.23762058205038 2.2390822365435974, 37.190348461591405 2.6057154678874106, 37.125044776581774 3.1121979531508885 M37.125044776581774 3.1121979531508885 C37.030466630046774 3.597836746509763, 36.93588848351178 4.083475539868637, 36.88609428754556 4.339158212148129 M37.125044776581774 3.1121979531508885 C37.07591881389075 3.3644493887933944, 37.02679285119973 3.6167008244359007, 36.88609428754556 4.339158212148129 M36.88609428754556 4.339158212148129 C36.78750260961762 4.715131009990875, 36.68891093168968 5.091103807833622, 36.56902313421489 5.548287939305125 M36.88609428754556 4.339158212148129 C36.81732794468351 4.601394081002644, 36.748561601821464 4.863629949857159, 36.56902313421489 5.548287939305125 M36.56902313421489 5.548287939305125 C36.440467273685584 5.935477708624585, 36.31191141315629 6.322667477944046, 36.175134229970325 6.734618561215495 M36.56902313421489 5.548287939305125 C36.420613607227786 5.995273788743316, 36.272204080240684 6.442259638181506, 36.175134229970325 6.734618561215495 M36.175134229970325 6.734618561215495 C36.05582062162293 7.029325480605258, 35.93650701327553 7.324032399995022, 35.70604614880834 7.893275190886679 M36.175134229970325 6.734618561215495 C36.07539374430281 6.980979489165375, 35.97565325863528 7.227340417115256, 35.70604614880834 7.893275190886679 M35.70604614880834 7.893275190886679 C35.49413963518596 8.333303600496606, 35.28223312156358 8.773332010106534, 35.163686474273504 9.019496659696284 M35.70604614880834 7.893275190886679 C35.4925986219795 8.336503547392212, 35.27915109515067 8.779731903897748, 35.163686474273504 9.019496659696284 M35.163686474273504 9.019496659696284 C34.99354900935427 9.321592956946883, 34.823411544435025 9.623689254197485, 34.55028387860425 10.108655082055236 M35.163686474273504 9.019496659696284 C35.00591952240892 9.29962785836807, 34.848152570544336 9.579759057039853, 34.55028387860425 10.108655082055236 M34.55028387860425 10.108655082055236 C34.35358559987178 10.41083645907177, 34.15688732113931 10.713017836088303, 33.86835896464064 11.156274872382301 M34.55028387860425 10.108655082055236 C34.351921550092065 10.413392886393343, 34.15355922157988 10.71813069073145, 33.86835896464064 11.156274872382301 M33.86835896464064 11.156274872382301 C33.70826228298471 11.370789840693503, 33.54816560132878 11.585304809004706, 33.12071390812658 12.158051136245302 M33.86835896464064 11.156274872382301 C33.62325369727926 11.484693601097337, 33.37814842991787 11.813112329812373, 33.12071390812658 12.158051136245302 M33.12071390812658 12.158051136245302 C32.85573077119522 12.469315406852512, 32.590747634263856 12.780579677459725, 32.31042094296866 13.10986736009567 M33.12071390812658 12.158051136245302 C32.85579049440142 12.469245252576163, 32.590867080676254 12.780439368907027, 32.31042094296866 13.10986736009567 M32.31042094296866 13.10986736009567 C31.978256640220717 13.452854273879352, 31.646092337472773 13.795841187663035, 31.44080973676799 14.007812326905684 M32.31042094296866 13.10986736009567 C32.03847524257876 13.39067362290547, 31.766529542188866 13.67147988571527, 31.44080973676799 14.007812326905684 M31.44080973676799 14.007812326905684 C31.177655439174004 14.246802097299371, 30.914501141580022 14.485791867693056, 30.515453708501887 14.848196188198111 M31.44080973676799 14.007812326905684 C31.228768134243293 14.200382900005245, 31.0167265317186 14.392953473104807, 30.515453708501887 14.848196188198111 M30.515453708501887 14.848196188198111 C30.138574005776203 15.148747721931755, 29.76169430305052 15.4492992556654, 29.538155344578715 15.627565626425152 M30.515453708501887 14.848196188198111 C30.273125957534006 15.04144612098272, 30.030798206566125 15.234696053767326, 29.538155344578715 15.627565626425152 M29.538155344578715 15.627565626425152 C29.180939870710944 15.876743677386676, 28.823724396843172 16.1259217283482, 28.512930573605708 16.34271804539089 M29.538155344578715 15.627565626425152 C29.184241223076757 15.874440796889527, 28.830327101574795 16.1213159673539, 28.512930573605708 16.34271804539089 M28.512930573605708 16.34271804539089 C28.167884646731856 16.551886913976755, 27.822838719858005 16.761055782562625, 27.443992264076787 16.990714730406093 M28.512930573605708 16.34271804539089 C28.270668629443648 16.48957865963114, 28.02840668528159 16.636439273871392, 27.443992264076787 16.990714730406093 M27.443992264076787 16.990714730406093 C27.045084215075182 17.19882480405743, 26.64617616607358 17.406934877708768, 26.335732912792388 17.56889292409717 M27.443992264076787 16.990714730406093 C27.178360039618333 17.12929489176051, 26.912727815159883 17.267875053114924, 26.335732912792388 17.56889292409717 M26.335732912792388 17.56889292409717 C26.08130715118821 17.681519661487275, 25.826881389584035 17.794146398877384, 25.192706595147804 18.07487676824742 M26.335732912792388 17.56889292409717 C25.938352700262918 17.744801356318785, 25.54097248773345 17.920709788540403, 25.192706595147804 18.07487676824742 M25.192706595147804 18.07487676824742 C24.912760789540748 18.17789941250148, 24.632814983933688 18.280922056755532, 24.019610251460616 18.506587066708033 M25.192706595147804 18.07487676824742 C24.841853914663233 18.203993797912368, 24.49100123417866 18.333110827577315, 24.019610251460616 18.506587066708033 M24.019610251460616 18.506587066708033 C23.74299550089493 18.588684872695474, 23.466380750329243 18.670782678682915, 22.821264386235413 18.86224982926107 M24.019610251460616 18.506587066708033 C23.636035602282785 18.620430009159595, 23.252460953104958 18.734272951611157, 22.821264386235413 18.86224982926107 M22.821264386235413 18.86224982926107 C22.55247825403777 18.92359850994175, 22.283692121840126 18.98494719062243, 21.602593259676766 19.140403561325773 M22.821264386235413 18.86224982926107 C22.417236803105844 18.954466488584018, 22.01320921997628 19.046683147906965, 21.602593259676766 19.140403561325773 M21.602593259676766 19.140403561325773 C21.27651012444428 19.19312215381768, 20.950426989211792 19.245840746309586, 20.36860465284788 19.3399052695533 M21.602593259676766 19.140403561325773 C21.26062263534678 19.195690719845643, 20.918652011016796 19.250977878365518, 20.36860465284788 19.3399052695533 M20.36860465284788 19.3399052695533 C19.940911788416084 19.38116428580911, 19.513218923984287 19.422423302064917, 19.1243692896239 19.45993515863156 M20.36860465284788 19.3399052695533 C20.05841007349805 19.369829367559614, 19.748215494148216 19.39975346556593, 19.1243692896239 19.45993515863156 M19.1243692896239 19.45993515863156 C18.78023854527953 19.470970761792824, 18.43610780093516 19.48200636495409, 17.875000000000004 19.5 M19.1243692896239 19.45993515863156 C18.759509294979157 19.471635508502917, 18.394649300334418 19.48333585837428, 17.875000000000004 19.5 M17.875000000000004 19.5 C17.875000000000004 19.5, 17.875000000000004 19.5, 17.875 19.5 M17.875000000000004 19.5 C17.875000000000004 19.5, 17.875 19.5, 17.875 19.5 M17.875 19.5 C3.780106005430465 19.5, -10.31478798913907 19.5, -17.874999999999996 19.5 M17.875 19.5 C9.130343850641815 19.5, 0.3856877012836293 19.5, -17.874999999999996 19.5 M-17.874999999999996 19.5 C-18.359681939004474 19.48445719359229, -18.844363878008956 19.46891438718458, -19.124369289623893 19.45993515863156 M-17.874999999999996 19.5 C-18.297927762411554 19.486437529838412, -18.720855524823115 19.472875059676824, -19.124369289623893 19.45993515863156 M-19.124369289623893 19.45993515863156 C-19.448437216956055 19.42867271543053, -19.772505144288218 19.3974102722295, -20.36860465284787 19.3399052695533 M-19.124369289623893 19.45993515863156 C-19.42570862490925 19.430865315370156, -19.72704796019461 19.40179547210875, -20.36860465284787 19.3399052695533 M-20.36860465284787 19.3399052695533 C-20.67202746936958 19.290850221657152, -20.97545028589129 19.24179517376101, -21.60259325967676 19.140403561325773 M-20.36860465284787 19.3399052695533 C-20.624592215745785 19.29851918559716, -20.8805797786437 19.257133101641028, -21.60259325967676 19.140403561325773 M-21.60259325967676 19.140403561325773 C-21.946968439296157 19.06180217383571, -22.29134361891555 18.98320078634565, -22.821264386235388 18.862249829261074 M-21.60259325967676 19.140403561325773 C-22.054973698466586 19.037150678230244, -22.50735413725641 18.933897795134712, -22.821264386235388 18.862249829261074 M-22.821264386235388 18.862249829261074 C-23.23421291940484 18.739688872227465, -23.647161452574288 18.61712791519386, -24.01961025146059 18.506587066708043 M-22.821264386235388 18.862249829261074 C-23.139163351486154 18.767899085060368, -23.45706231673692 18.67354834085966, -24.01961025146059 18.506587066708043 M-24.01961025146059 18.506587066708043 C-24.406745279235466 18.36411779784992, -24.79388030701034 18.221648528991803, -25.192706595147797 18.074876768247425 M-24.01961025146059 18.506587066708043 C-24.283326519593185 18.409537042268788, -24.54704278772578 18.312487017829536, -25.192706595147797 18.074876768247425 M-25.192706595147797 18.074876768247425 C-25.553484485621713 17.915171098230495, -25.914262376095632 17.75546542821357, -26.33573291279238 17.568892924097174 M-25.192706595147797 18.074876768247425 C-25.640119870860666 17.876820183132605, -26.087533146573534 17.678763598017785, -26.33573291279238 17.568892924097174 M-26.33573291279238 17.568892924097174 C-26.697832823275053 17.379985632734424, -27.059932733757726 17.19107834137168, -27.44399226407678 16.990714730406097 M-26.33573291279238 17.568892924097174 C-26.625138601586585 17.41791016162643, -26.914544290380785 17.266927399155684, -27.44399226407678 16.990714730406097 M-27.44399226407678 16.990714730406097 C-27.69995893719913 16.835546228932188, -27.955925610321483 16.680377727458282, -28.512930573605686 16.3427180453909 M-27.44399226407678 16.990714730406097 C-27.790759414148077 16.780502446202906, -28.137526564219378 16.570290161999715, -28.512930573605686 16.3427180453909 M-28.512930573605686 16.3427180453909 C-28.796328595644884 16.145031853319004, -29.07972661768408 15.947345661247107, -29.538155344578712 15.627565626425156 M-28.512930573605686 16.3427180453909 C-28.92204396053147 16.057338256904554, -29.331157347457257 15.771958468418209, -29.538155344578712 15.627565626425156 M-29.538155344578712 15.627565626425156 C-29.824291070695203 15.399379999238711, -30.11042679681169 15.171194372052266, -30.51545370850187 14.848196188198125 M-29.538155344578712 15.627565626425156 C-29.742490375010977 15.464613877238948, -29.946825405443242 15.30166212805274, -30.51545370850187 14.848196188198125 M-30.51545370850187 14.848196188198125 C-30.85695248510676 14.53805603484806, -31.198451261711647 14.227915881497996, -31.440809736767974 14.007812326905697 M-30.51545370850187 14.848196188198125 C-30.767700782720006 14.619112069485068, -31.019947856938142 14.390027950772012, -31.440809736767974 14.007812326905697 M-31.440809736767974 14.007812326905697 C-31.702339520547046 13.737761353159234, -31.963869304326117 13.46771037941277, -32.310420942968655 13.109867360095677 M-31.440809736767974 14.007812326905697 C-31.768618271053782 13.669323101674413, -32.09642680533959 13.33083387644313, -32.310420942968655 13.109867360095677 M-32.310420942968655 13.109867360095677 C-32.58591888037126 12.786251806545849, -32.861416817773865 12.462636252996022, -33.120713908126575 12.158051136245307 M-32.310420942968655 13.109867360095677 C-32.56713882893509 12.808311923577971, -32.823856714901524 12.506756487060267, -33.120713908126575 12.158051136245307 M-33.120713908126575 12.158051136245307 C-33.37476869211877 11.817640870562727, -33.62882347611096 11.477230604880146, -33.868358964640635 11.156274872382316 M-33.120713908126575 12.158051136245307 C-33.34584529215351 11.856395591540227, -33.57097667618045 11.55474004683515, -33.868358964640635 11.156274872382316 M-33.868358964640635 11.156274872382316 C-34.051631519613906 10.874719012371527, -34.234904074587185 10.59316315236074, -34.55028387860425 10.108655082055249 M-33.868358964640635 11.156274872382316 C-34.07354406910656 10.841055452007394, -34.27872917357248 10.525836031632473, -34.55028387860425 10.108655082055249 M-34.55028387860425 10.108655082055249 C-34.725297299580404 9.797901031081503, -34.900310720556554 9.487146980107756, -35.163686474273504 9.019496659696289 M-34.55028387860425 10.108655082055249 C-34.70581305228172 9.8324972851543, -34.861342225959184 9.55633948825335, -35.163686474273504 9.019496659696289 M-35.163686474273504 9.019496659696289 C-35.334986798967186 8.663787870230069, -35.50628712366087 8.308079080763848, -35.70604614880834 7.893275190886686 M-35.163686474273504 9.019496659696289 C-35.368676007311784 8.59383150826893, -35.573665540350056 8.168166356841574, -35.70604614880834 7.893275190886686 M-35.70604614880834 7.893275190886686 C-35.862347082339355 7.507208863192104, -36.018648015870376 7.121142535497521, -36.175134229970325 6.73461856121551 M-35.70604614880834 7.893275190886686 C-35.826944266951024 7.594654501668156, -35.94784238509371 7.296033812449625, -36.175134229970325 6.73461856121551 M-36.175134229970325 6.73461856121551 C-36.259121952657445 6.481660922108253, -36.343109675344564 6.228703283000995, -36.56902313421488 5.5482879393051325 M-36.175134229970325 6.73461856121551 C-36.257896822434 6.485350819143282, -36.34065941489767 6.236083077071053, -36.56902313421488 5.5482879393051325 M-36.56902313421488 5.5482879393051325 C-36.653479745709625 5.226218275948718, -36.73793635720437 4.904148612592303, -36.88609428754556 4.339158212148136 M-36.56902313421488 5.5482879393051325 C-36.64529410398074 5.257433675540509, -36.7215650737466 4.966579411775884, -36.88609428754556 4.339158212148136 M-36.88609428754556 4.339158212148136 C-36.95930855454451 3.9632184249493143, -37.032522821543466 3.587278637750493, -37.125044776581774 3.112197953150904 M-36.88609428754556 4.339158212148136 C-36.93662800987488 4.079678228293073, -36.9871617322042 3.8201982444380094, -37.125044776581774 3.112197953150904 M-37.125044776581774 3.112197953150904 C-37.163450107915914 2.8143337873138234, -37.201855439250046 2.5164696214767424, -37.28489270250937 1.872449005199809 M-37.125044776581774 3.112197953150904 C-37.168751945173696 2.773213784508611, -37.212459113765625 2.434229615866318, -37.28489270250937 1.872449005199809 M-37.28489270250937 1.872449005199809 C-37.31191842283305 1.4515015963895752, -37.338944143156745 1.0305541875793414, -37.36498121591342 0.6250057626472781 M-37.28489270250937 1.872449005199809 C-37.31124251722915 1.4620293717516546, -37.33759233194892 1.0516097383035001, -37.36498121591342 0.6250057626472781 M-37.36498121591342 0.6250057626472781 C-37.36498121591342 0.2586671574587007, -37.36498121591342 -0.10767144772987669, -37.36498121591342 -0.6250057626472687 M-37.36498121591342 0.6250057626472781 C-37.36498121591342 0.37397667105409416, -37.36498121591342 0.12294757946091017, -37.36498121591342 -0.6250057626472687 M-37.36498121591342 -0.6250057626472687 C-37.347647108322946 -0.8949984802086168, -37.33031300073248 -1.164991197769965, -37.28489270250937 -1.8724490051997822 M-37.36498121591342 -0.6250057626472687 C-37.348038009754276 -0.8889098748856938, -37.33109480359514 -1.152813987124119, -37.28489270250937 -1.8724490051997822 M-37.28489270250937 -1.8724490051997822 C-37.22724139291302 -2.3195811778902478, -37.169590083316685 -2.7667133505807135, -37.125044776581774 -3.112197953150895 M-37.28489270250937 -1.8724490051997822 C-37.241253261177654 -2.210907894586159, -37.197613819845934 -2.5493667839725362, -37.125044776581774 -3.112197953150895 M-37.125044776581774 -3.112197953150895 C-37.046775337394024 -3.5140949811281796, -36.96850589820627 -3.9159920091054645, -36.88609428754556 -4.339158212148126 M-37.125044776581774 -3.112197953150895 C-37.04004133273136 -3.5486726718385295, -36.95503788888096 -3.9851473905261634, -36.88609428754556 -4.339158212148126 M-36.88609428754556 -4.339158212148126 C-36.784186353163314 -4.727777333125779, -36.682278418781074 -5.116396454103433, -36.56902313421489 -5.548287939305123 M-36.88609428754556 -4.339158212148126 C-36.77192160971866 -4.774548115453681, -36.65774893189176 -5.209938018759236, -36.56902313421489 -5.548287939305123 M-36.56902313421489 -5.548287939305123 C-36.41905598935886 -5.999965085591811, -36.26908884450283 -6.4516422318785, -36.17513422997033 -6.734618561215485 M-36.56902313421489 -5.548287939305123 C-36.43008131781519 -5.966758552928881, -36.29113950141549 -6.38522916655264, -36.17513422997033 -6.734618561215485 M-36.17513422997033 -6.734618561215485 C-35.99637858576713 -7.176148458402657, -35.81762294156393 -7.617678355589829, -35.70604614880834 -7.893275190886676 M-36.17513422997033 -6.734618561215485 C-35.991564489487985 -7.188039369286381, -35.80799474900563 -7.641460177357276, -35.70604614880834 -7.893275190886676 M-35.70604614880834 -7.893275190886676 C-35.54464826348381 -8.2284213531246, -35.383250378159275 -8.563567515362527, -35.163686474273504 -9.019496659696282 M-35.70604614880834 -7.893275190886676 C-35.547754851517766 -8.221970456601756, -35.389463554227184 -8.550665722316836, -35.163686474273504 -9.019496659696282 M-35.163686474273504 -9.019496659696282 C-34.94059998194377 -9.415609316784643, -34.717513489614035 -9.811721973873002, -34.55028387860425 -10.108655082055243 M-35.163686474273504 -9.019496659696282 C-35.02846357415317 -9.259598611663364, -34.89324067403284 -9.499700563630448, -34.55028387860425 -10.108655082055243 M-34.55028387860425 -10.108655082055243 C-34.32855906357622 -10.449283939387712, -34.1068342485482 -10.78991279672018, -33.86835896464064 -11.156274872382308 M-34.55028387860425 -10.108655082055243 C-34.41239311831536 -10.320492318712647, -34.27450235802647 -10.532329555370051, -33.86835896464064 -11.156274872382308 M-33.86835896464064 -11.156274872382308 C-33.69932563281736 -11.382764137772181, -33.530292300994084 -11.609253403162056, -33.12071390812659 -12.158051136245302 M-33.86835896464064 -11.156274872382308 C-33.626155199436155 -11.480805852539392, -33.38395143423166 -11.805336832696474, -33.12071390812659 -12.158051136245302 M-33.12071390812659 -12.158051136245302 C-32.94398938199287 -12.365641820552378, -32.767264855859146 -12.573232504859455, -32.31042094296866 -13.10986736009567 M-33.12071390812659 -12.158051136245302 C-32.81197001726064 -12.52071927848151, -32.5032261263947 -12.883387420717717, -32.31042094296866 -13.10986736009567 M-32.31042094296866 -13.10986736009567 C-32.00752593764865 -13.422631321231002, -31.704630932328637 -13.735395282366335, -31.440809736767996 -14.007812326905677 M-32.31042094296866 -13.10986736009567 C-32.12247347859323 -13.303938547837104, -31.934526014217795 -13.498009735578536, -31.440809736767996 -14.007812326905677 M-31.440809736767996 -14.007812326905677 C-31.247065002917143 -14.183766167984272, -31.05332026906629 -14.359720009062865, -30.515453708501887 -14.848196188198107 M-31.440809736767996 -14.007812326905677 C-31.225285700755908 -14.203545553958346, -31.009761664743824 -14.399278781011015, -30.515453708501887 -14.848196188198107 M-30.515453708501887 -14.848196188198107 C-30.31034715291536 -15.011763208163694, -30.105240597328827 -15.175330228129283, -29.53815534457872 -15.627565626425149 M-30.515453708501887 -14.848196188198107 C-30.166399007184484 -15.126558023763033, -29.81734430586708 -15.404919859327961, -29.53815534457872 -15.627565626425149 M-29.53815534457872 -15.627565626425149 C-29.138284168352094 -15.906498448816615, -28.73841299212547 -16.18543127120808, -28.51293057360571 -16.342718045390885 M-29.53815534457872 -15.627565626425149 C-29.192027283599916 -15.869009578121696, -28.845899222621114 -16.110453529818244, -28.51293057360571 -16.342718045390885 M-28.51293057360571 -16.342718045390885 C-28.160512285618214 -16.556356082608648, -27.808093997630717 -16.76999411982641, -27.44399226407679 -16.99071473040609 M-28.51293057360571 -16.342718045390885 C-28.179265331530964 -16.54498787597121, -27.845600089456216 -16.747257706551533, -27.44399226407679 -16.99071473040609 M-27.44399226407679 -16.99071473040609 C-27.213978089083728 -17.110712978168863, -26.983963914090662 -17.230711225931632, -26.335732912792388 -17.56889292409717 M-27.44399226407679 -16.99071473040609 C-27.039083050011705 -17.201955608027117, -26.63417383594662 -17.413196485648143, -26.335732912792388 -17.56889292409717 M-26.335732912792388 -17.56889292409717 C-26.04525311367095 -17.697479714391143, -25.754773314549514 -17.82606650468512, -25.192706595147804 -18.07487676824742 M-26.335732912792388 -17.56889292409717 C-26.005452226207137 -17.715098386619996, -25.67517153962189 -17.86130384914282, -25.192706595147804 -18.07487676824742 M-25.192706595147804 -18.07487676824742 C-24.770631572481445 -18.23020427820738, -24.348556549815083 -18.38553178816734, -24.01961025146062 -18.506587066708033 M-25.192706595147804 -18.07487676824742 C-24.82028080017166 -18.21193290346495, -24.44785500519551 -18.348989038682483, -24.01961025146062 -18.506587066708033 M-24.01961025146062 -18.506587066708033 C-23.57821692983491 -18.63759028764572, -23.1368236082092 -18.768593508583404, -22.821264386235413 -18.862249829261067 M-24.01961025146062 -18.506587066708033 C-23.555605039923336 -18.64430137787924, -23.091599828386048 -18.78201568905045, -22.821264386235413 -18.862249829261067 M-22.821264386235413 -18.862249829261067 C-22.340445827041798 -18.971993527762685, -21.859627267848182 -19.081737226264302, -21.602593259676766 -19.140403561325773 M-22.821264386235413 -18.862249829261067 C-22.524337920654826 -18.930021357403568, -22.22741145507424 -18.99779288554607, -21.602593259676766 -19.140403561325773 M-21.602593259676766 -19.140403561325773 C-21.240403133462216 -19.198959652105763, -20.878213007247666 -19.257515742885754, -20.368604652847882 -19.3399052695533 M-21.602593259676766 -19.140403561325773 C-21.310984086005632 -19.187548671062004, -21.0193749123345 -19.23469378079824, -20.368604652847882 -19.3399052695533 M-20.368604652847882 -19.3399052695533 C-19.88053965705369 -19.386988312713527, -19.392474661259495 -19.43407135587376, -19.124369289623903 -19.45993515863156 M-20.368604652847882 -19.3399052695533 C-19.92172518597206 -19.383015194271618, -19.474845719096244 -19.426125118989937, -19.124369289623903 -19.45993515863156 M-19.124369289623903 -19.45993515863156 C-18.648347312121643 -19.475200256929487, -18.172325334619384 -19.490465355227414, -17.875000000000007 -19.5 M-19.124369289623903 -19.45993515863156 C-18.63176886849655 -19.47573189534856, -18.139168447369197 -19.49152863206556, -17.875000000000007 -19.5 M-17.875000000000007 -19.5 C-17.875000000000004 -19.5, -17.875000000000004 -19.5, -17.875 -19.5 M-17.875000000000007 -19.5 C-17.875000000000004 -19.5, -17.875000000000004 -19.5, -17.875 -19.5" stroke="#89b4fa" stroke-width="1.3" fill="none" stroke-dasharray="0 0" style="fill:#89b4fa !important;stroke:#89b4fa !important"/></g><g class="label" style="color:#1e1e2e !important;font-weight:bold !important" transform="translate(-25, -12)"><rect/><foreignObject width="50" height="24"><div style="color: rgb(30, 30, 46) !important; font-weight: bold !important; display: table-cell; white-space: nowrap; line-height: 1.5; max-width: 200px; text-align: center;" xmlns="http://www.w3.org/1999/xhtml"><span style="color:#1e1e2e !important;font-weight:bold !important" class="nodeLabel "><p>alice</p></span></div></foreignObject></g></g><g class="node default  " id="my-svg-flowchart-ctx_user-1" data-look="classic" transform="translate(137, 113)"><rect class="basic label-container" style="fill:#313244 !important;stroke:#6c7086 !important;stroke-width:2px !important" x="-125" y="-27" width="250" height="54"/><g class="label" style="" transform="translate(-95, -12)"><rect/><foreignObject width="190" height="24"><div xmlns="http://www.w3.org/1999/xhtml" style="display: table-cell; white-space: nowrap; line-height: 1.5; max-width: 200px; text-align: center;"><span class="nodeLabel "><p>user { host, user }</p></span></div></foreignObject></g></g><g class="node default  " id="my-svg-flowchart-ctx_default-2" data-look="classic" transform="translate(427, 113)"><rect class="basic label-container" style="fill:#313244 !important;stroke:#6c7086 !important;stroke-width:2px !important" x="-130" y="-39" width="260" height="78"/><g class="label" style="" transform="translate(-100, -24)"><rect/><foreignObject width="200" height="48"><div xmlns="http://www.w3.org/1999/xhtml" style="display: table; white-space: break-spaces; line-height: 1.5; max-width: 200px; text-align: center; width: 200px;"><span class="nodeLabel "><p>default { host, user }</p></span></div></foreignObject></g></g></g><g class="edges edgePaths"><path d="M262,113L293,113" id="my-svg-L_ctx_user_ctx_default_0_0" class=" edge-thickness-normal edge-pattern-solid edge-thickness-normal edge-pattern-solid flowchart-link" style=";" data-edge="true" data-et="edge" data-id="L_ctx_user_ctx_default_0_0" data-points="W3sieCI6MjYyLCJ5IjoxMTN9LHsieCI6Mjk3LCJ5IjoxMTN9XQ==" data-look="classic" marker-end="url(#my-svg_flowchart-v2-pointEnd)"/></g><g class="edgeLabels"><g class="edgeLabel"><g class="label" data-id="L_ctx_user_ctx_default_0_0" transform="translate(0, 0)"><foreignObject width="0" height="0"><div xmlns="http://www.w3.org/1999/xhtml" class="labelBkg" style="display: table-cell; white-space: nowrap; line-height: 1.5; max-width: 200px; text-align: center;"><span class="edgeLabel "></span></div></foreignObject></g></g></g></svg>