<svg id="my-svg" width="100%" xmlns="http://www.w3.org/2000/svg" xmlns:xlink="http://www.w3.org/1999/xlink" class="flowchart" style="max-width: 1503.5px; background-color: rgb(30, 30, 46);" viewBox="4 4 1503.5 406.5" role="graphics-document document" aria-roledescription="flowchart-v2"><style>#my-svg{font-family:JetBrains Mono,Fira Code,DejaVu Sans Mono,monospace;font-size:16px;fill:#cdd6f4;}@keyframes edge-animation-frame{from{stroke-dashoffset:0;}}@keyframes dash{to{stroke-dashoffset:0;}}#my-svg .edge-animation-slow{stroke-dasharray:9,5!important;stroke-dashoffset:900;animation:dash 50s linear infinite;stroke-linecap:round;}#my-svg .edge-animation-fast{stroke-dasharray:9,5!important;stroke-dashoffset:900;animation:dash 20s linear infinite;stroke-linecap:round;}#my-svg .error-icon{fill:#313244;}#my-svg .error-text{fill:#cdd6f4;stroke:#cdd6f4;}#my-svg .edge-thickness-normal{stroke-width:1px;}#my-svg .edge-thickness-thick{stroke-width:3.5px;}#my-svg .edge-pattern-solid{stroke-dasharray:0;}#my-svg .edge-thickness-invisible{stroke-width:0;fill:none;}#my-svg .edge-pattern-dashed{stroke-dasharray:3;}#my-svg .edge-pattern-dotted{stroke-dasharray:2;}#my-svg .marker{fill:#a6adc8;stroke:#a6adc8;}#my-svg .marker.cross{stroke:#a6adc8;}#my-svg svg{font-family:JetBrains Mono,Fira Code,DejaVu Sans Mono,monospace;font-size:16px;}#my-svg p{margin:0;}#my-svg .label{font-family:JetBrains Mono,Fira Code,DejaVu Sans Mono,monospace;color:#cdd6f4;}#my-svg .cluster-label text{fill:#cdd6f4;}#my-svg .cluster-label span{color:#cdd6f4;}#my-svg .cluster-label span p{background-color:transparent;}#my-svg .label text,#my-svg span{fill:#cdd6f4;color:#cdd6f4;}#my-svg .node rect,#my-svg .node circle,#my-svg .node ellipse,#my-svg .node polygon,#my-svg .node path{fill:#313244;stroke:#a6adc8;stroke-width:1px;}#my-svg .rough-node .label text,#my-svg .node .label text,#my-svg .image-shape .label,#my-svg .icon-shape .label{text-anchor:middle;}#my-svg .node .katex path{fill:#000;stroke:#000;stroke-width:1px;}#my-svg .rough-node .label,#my-svg .node .label,#my-svg .image-shape .label,#my-svg .icon-shape .label{text-align:center;}#my-svg .node.clickable{cursor:pointer;}#my-svg .root .anchor path{fill:#a6adc8!important;stroke-width:0;stroke:#a6adc8;}#my-svg .arrowheadPath{fill:#e1e1d1;}#my-svg .edgePath .path{stroke:#a6adc8;stroke-width:1px;}#my-svg .flowchart-link{stroke:#a6adc8;fill:none;}#my-svg .edgeLabel{background-color:#1e1e2e;text-align:center;}#my-svg .edgeLabel p{background-color:#1e1e2e;}#my-svg .edgeLabel rect{opacity:0.5;background-color:#1e1e2e;fill:#1e1e2e;}#my-svg .labelBkg{background-color:rgba(30, 30, 46, 0.5);}#my-svg .cluster rect{fill:#313244;stroke:#6c7086;stroke-width:1px;}#my-svg .cluster text{fill:#cdd6f4;}#my-svg .cluster span{color:#cdd6f4;}#my-svg div.mermaidTooltip{position:absolute;text-align:center;max-width:200px;padding:2px;font-family:JetBrains Mono,Fira Code,DejaVu Sans Mono,monospace;font-size:12px;background:#313244;border:1px solid #6c7086;border-radius:2px;pointer-events:none;z-index:100;}#my-svg .flowchartTitleText{text-anchor:middle;font-size:18px;fill:#cdd6f4;}#my-svg rect.text{fill:none;stroke-width:0;}#my-svg .icon-shape,#my-svg .image-shape{background-color:#1e1e2e;text-align:center;}#my-svg .icon-shape p,#my-svg .image-shape p{background-color:#1e1e2e;padding:2px;}#my-svg .icon-shape .label rect,#my-svg .image-shape .label rect{opacity:0.5;background-color:#1e1e2e;fill:#1e1e2e;}#my-svg .label-icon{display:inline-block;height:1em;overflow:visible;vertical-align:-0.125em;}#my-svg .node .label-icon path{fill:currentColor;stroke:revert;stroke-width:revert;}#my-svg .node .neo-node{stroke:#a6adc8;}#my-svg [data-look="neo"].node rect,#my-svg [data-look="neo"].cluster rect,#my-svg [data-look="neo"].node polygon{stroke:url(#my-svg-gradient);filter:drop-shadow( 1px 2px 2px rgba(185,185,185,1));}#my-svg [data-look="neo"].node path{stroke:url(#my-svg-gradient);stroke-width:1px;}#my-svg [data-look="neo"].node .outer-path{filter:drop-shadow( 1px 2px 2px rgba(185,185,185,1));}#my-svg [data-look="neo"].node .neo-line path{stroke:#a6adc8;filter:none;}#my-svg [data-look="neo"].node circle{stroke:url(#my-svg-gradient);filter:drop-shadow( 1px 2px 2px rgba(185,185,185,1));}#my-svg [data-look="neo"].node circle .state-start{fill:#000000;}#my-svg [data-look="neo"].icon-shape .icon{fill:url(#my-svg-gradient);filter:drop-shadow( 1px 2px 2px rgba(185,185,185,1));}#my-svg [data-look="neo"].icon-shape .icon-neo path{stroke:url(#my-svg-gradient);filter:drop-shadow( 1px 2px 2px rgba(185,185,185,1));}#my-svg :root{--mermaid-font-family:JetBrains Mono,Fira Code,DejaVu Sans Mono,monospace;}#my-svg .root&gt;*{fill:#89b4fa!important;stroke:#89b4fa!important;color:#1e1e2e!important;font-weight:bold!important;}#my-svg .root span{fill:#89b4fa!important;stroke:#89b4fa!important;color:#1e1e2e!important;font-weight:bold!important;}#my-svg .root tspan{fill:#1e1e2e!important;}#my-svg .alice_c&gt;*{fill:#f2cdcd!important;stroke:#f2cdcd!important;color:#1e1e2e!important;stroke-dasharray:3 3!important;stroke-width:1px!important;}#my-svg .alice_c span{fill:#f2cdcd!important;stroke:#f2cdcd!important;color:#1e1e2e!important;stroke-dasharray:3 3!important;stroke-width:1px!important;}#my-svg .alice_c tspan{fill:#1e1e2e!important;}#my-svg .demo_shell_c&gt;*{fill:#f2cdcd!important;stroke:#f2cdcd!important;color:#1e1e2e!important;stroke-dasharray:3 3!important;stroke-width:1px!important;}#my-svg .demo_shell_c span{fill:#f2cdcd!important;stroke:#f2cdcd!important;color:#1e1e2e!important;stroke-dasharray:3 3!important;stroke-width:1px!important;}#my-svg .demo_shell_c tspan{fill:#1e1e2e!important;}#my-svg .dev_tools_c&gt;*{fill:#fab387!important;stroke:#fab387!important;color:#1e1e2e!important;stroke-dasharray:3 3!important;stroke-width:1px!important;}#my-svg .dev_tools_c span{fill:#fab387!important;stroke:#fab387!important;color:#1e1e2e!important;stroke-dasharray:3 3!important;stroke-width:1px!important;}#my-svg .dev_tools_c tspan{fill:#1e1e2e!important;}#my-svg .hyprland_c&gt;*{fill:#f2cdcd!important;stroke:#f2cdcd!important;color:#1e1e2e!important;stroke-dasharray:3 3!important;stroke-width:1px!important;}#my-svg .hyprland_c span{fill:#f2cdcd!important;stroke:#f2cdcd!important;color:#1e1e2e!important;stroke-dasharray:3 3!important;stroke-width:1px!important;}#my-svg .hyprland_c tspan{fill:#1e1e2e!important;}#my-svg .den__provides__mutual_provider_c&gt;*{fill:#f9e2af!important;stroke:#f9e2af!important;color:#1e1e2e!important;stroke-dasharray:3 3!important;stroke-width:1px!important;}#my-svg .den__provides__mutual_provider_c span{fill:#f9e2af!important;stroke:#f9e2af!important;color:#1e1e2e!important;stroke-dasharray:3 3!important;stroke-width:1px!important;}#my-svg .den__provides__mutual_provider_c tspan{fill:#1e1e2e!important;}#my-svg .alice__to_hosts_c&gt;*{fill:#a6e3a1!important;stroke:#a6e3a1!important;color:#1e1e2e!important;stroke-dasharray:3 3!important;stroke-width:1px!important;}#my-svg .alice__to_hosts_c span{fill:#a6e3a1!important;stroke:#a6e3a1!important;color:#1e1e2e!important;stroke-dasharray:3 3!important;stroke-width:1px!important;}#my-svg .alice__to_hosts_c tspan{fill:#1e1e2e!important;}</style><g><marker id="my-svg_flowchart-v2-pointEnd" class="marker flowchart-v2" viewBox="0 0 10 10" refX="5" refY="5" markerUnits="userSpaceOnUse" markerWidth="8" markerHeight="8" orient="auto"><path d="M 0 0 L 10 5 L 0 10 z" class="arrowMarkerPath" style="stroke-width: 1; stroke-dasharray: 1, 0;"/></marker><marker id="my-svg_flowchart-v2-pointStart" class="marker flowchart-v2" viewBox="0 0 10 10" refX="4.5" refY="5" markerUnits="userSpaceOnUse" markerWidth="8" markerHeight="8" orient="auto"><path d="M 0 5 L 10 10 L 10 0 z" class="arrowMarkerPath" style="stroke-width: 1; stroke-dasharray: 1, 0;"/></marker><marker id="my-svg_flowchart-v2-pointEnd-margin" class="marker flowchart-v2" viewBox="0 0 11.5 14" refX="11.5" refY="7" markerUnits="userSpaceOnUse" markerWidth="10.5" markerHeight="14" orient="auto"><path d="M 0 0 L 11.5 7 L 0 14 z" class="arrowMarkerPath" style="stroke-width: 0; stroke-dasharray: 1, 0;"/></marker><marker id="my-svg_flowchart-v2-pointStart-margin" class="marker flowchart-v2" viewBox="0 0 11.5 14" refX="1" refY="7" markerUnits="userSpaceOnUse" markerWidth="11.5" markerHeight="14" orient="auto"><polygon points="0,7 11.5,14 11.5,0" class="arrowMarkerPath" style="stroke-width: 0; stroke-dasharray: 1, 0;"/></marker><marker id="my-svg_flowchart-v2-circleEnd" class="marker flowchart-v2" viewBox="0 0 10 10" refX="11" refY="5" markerUnits="userSpaceOnUse" markerWidth="11" markerHeight="11" orient="auto"><circle cx="5" cy="5" r="5" class="arrowMarkerPath" style="stroke-width: 1; stroke-dasharray: 1, 0;"/></marker><marker id="my-svg_flowchart-v2-circleStart" class="marker flowchart-v2" viewBox="0 0 10 10" refX="-1" refY="5" markerUnits="userSpaceOnUse" markerWidth="11" markerHeight="11" orient="auto"><circle cx="5" cy="5" r="5" class="arrowMarkerPath" style="stroke-width: 1; stroke-dasharray: 1, 0;"/></marker><marker id="my-svg_flowchart-v2-circleEnd-margin" class="marker flowchart-v2" viewBox="0 0 10 10" refY="5" refX="12.25" markerUnits="userSpaceOnUse" markerWidth="14" markerHeight="14" orient="auto"><circle cx="5" cy="5" r="5" class="arrowMarkerPath" style="stroke-width: 0; stroke-dasharray: 1, 0;"/></marker><marker id="my-svg_flowchart-v2-circleStart-margin" class="marker flowchart-v2" viewBox="0 0 10 10" refX="-2" refY="5" markerUnits="userSpaceOnUse" markerWidth="14" markerHeight="14" orient="auto"><circle cx="5" cy="5" r="5" class="arrowMarkerPath" style="stroke-width: 0; stroke-dasharray: 1, 0;"/></marker><marker id="my-svg_flowchart-v2-crossEnd" class="marker cross flowchart-v2" viewBox="0 0 11 11" refX="12" refY="5.2" markerUnits="userSpaceOnUse" markerWidth="11" markerHeight="11" orient="auto"><path d="M 1,1 l 9,9 M 10,1 l -9,9" class="arrowMarkerPath" style="stroke-width: 2; stroke-dasharray: 1, 0;"/></marker><marker id="my-svg_flowchart-v2-crossStart" class="marker cross flowchart-v2" viewBox="0 0 11 11" refX="-1" refY="5.2" markerUnits="userSpaceOnUse" markerWidth="11" markerHeight="11" orient="auto"><path d="M 1,1 l 9,9 M 10,1 l -9,9" class="arrowMarkerPath" style="stroke-width: 2; stroke-dasharray: 1, 0;"/></marker><marker id="my-svg_flowchart-v2-crossEnd-margin" class="marker cross flowchart-v2" viewBox="0 0 15 15" refX="17.7" refY="7.5" markerUnits="userSpaceOnUse" markerWidth="12" markerHeight="12" orient="auto"><path d="M 1,1 L 14,14 M 1,14 L 14,1" class="arrowMarkerPath" style="stroke-width: 2.5;"/></marker><marker id="my-svg_flowchart-v2-crossStart-margin" class="marker cross flowchart-v2" viewBox="0 0 15 15" refX="-3.5" refY="7.5" markerUnits="userSpaceOnUse" markerWidth="12" markerHeight="12" orient="auto"><path d="M 1,1 L 14,14 M 1,14 L 14,1" class="arrowMarkerPath" style="stroke-width: 2.5; stroke-dasharray: 1, 0;"/></marker></g><defs><filter id="my-svg-drop-shadow" height="130%" width="130%"><feDropShadow dx="4" dy="4" stdDeviation="0" flood-opacity="0.06" flood-color="#000000"/></filter></defs><defs><filter id="my-svg-drop-shadow-small" height="150%" width="150%"><feDropShadow dx="2" dy="2" stdDeviation="0" flood-opacity="0.06" flood-color="#000000"/></filter></defs><linearGradient id="my-svg-gradient" gradientUnits="objectBoundingBox" x1="0%" y1="0%" x2="100%" y2="0%"><stop offset="0%" stop-color="#a6adc8" stop-opacity="1"/><stop offset="100%" stop-color="#6c7086" stop-opacity="1"/></linearGradient><g class="subgraphs"><g class="subgraph"><g class="cluster " id="[object Object]" data-look="classic"><rect style="fill:#313244 !important;stroke:#6c7086 !important;stroke-width:2px !important" x="1240" y="16.5" width="198" height="273"/><g class="cluster-label " transform="translate(1244, 16.5)"><foreignObject width="190" height="24"><div xmlns="http://www.w3.org/1999/xhtml" style="display: table-cell; white-space: nowrap; line-height: 1.5;"><span class="nodeLabel "><p>user { host, user }</p></span></div></foreignObject></g></g></g><g class="subgraph"><g class="cluster " id="[object Object]" data-look="classic"><rect style="fill:#313244 !important;stroke:#6c7086 !important;stroke-width:2px !important" x="237" y="12" width="942.5" height="114"/><g class="cluster-label " transform="translate(628.25, 12)"><foreignObject width="160" height="24"><div xmlns="http://www.w3.org/1999/xhtml" style="display: table-cell; white-space: nowrap; line-height: 1.5;"><span class="nodeLabel "><p>default { host }</p></span></div></foreignObject></g></g></g></g><g class="nodes"><g class="node default demo_shell_c " id="my-svg-flowchart-demo_shell-8" data-look="classic" transform="translate(1339, 82.5)"><rect class="basic label-container" style="fill:#f2cdcd !important;stroke:#f2cdcd !important;stroke-dasharray:3 3 !important;stroke-width:1px !important" x="-80" y="-27" width="160" height="54"/><g class="label" style="color:#1e1e2e !important" transform="translate(-50, -12)"><rect/><foreignObject width="100" height="24"><div style="color: rgb(30, 30, 46) !important; display: table-cell; white-space: nowrap; line-height: 1.5; max-width: 200px; text-align: center;" xmlns="http://www.w3.org/1999/xhtml"><span style="color:#1e1e2e !important" class="nodeLabel "><p>demo-shell</p></span></div></foreignObject></g></g><g class="node default dev_tools_c " id="my-svg-flowchart-dev_tools-9" data-look="classic" transform="translate(1334, 250.5)"><rect class="basic label-container" style="fill:#fab387 !important;stroke:#fab387 !important;stroke-dasharray:3 3 !important;stroke-width:1px !important" x="-75" y="-27" width="150" height="54"/><g class="label" style="color:#1e1e2e !important" transform="translate(-45, -12)"><rect/><foreignObject width="90" height="24"><div style="color: rgb(30, 30, 46) !important; display: table-cell; white-space: nowrap; line-height: 1.5; max-width: 200px; text-align: center;" xmlns="http://www.w3.org/1999/xhtml"><span style="color:#1e1e2e !important" class="nodeLabel "><p>dev-tools</p></span></div></foreignObject></g></g><g class="node default hyprland_c " id="my-svg-flowchart-hyprland-10" data-look="classic" transform="translate(1329, 166.5)"><rect class="basic label-container" style="fill:#f2cdcd !important;stroke:#f2cdcd !important;stroke-dasharray:3 3 !important;stroke-width:1px !important" x="-70" y="-27" width="140" height="54"/><g class="label" style="color:#1e1e2e !important" transform="translate(-40, -12)"><rect/><foreignObject width="80" height="24"><div style="color: rgb(30, 30, 46) !important; display: table-cell; white-space: nowrap; line-height: 1.5; max-width: 200px; text-align: center;" xmlns="http://www.w3.org/1999/xhtml"><span style="color:#1e1e2e !important" class="nodeLabel "><p>hyprland</p></span></div></foreignObject></g></g><g class="node default den__provides__mutual_provider_c " id="my-svg-flowchart-den__provides__mutual_provider-1" data-look="classic" transform="translate(388, 82.5)"><polygon points="-31.5,0 246.5,0 215,-63 0,-63" class="label-container" transform="translate(-107.5,31.5)" style="fill:#f9e2af !important;stroke:#f9e2af !important;stroke-dasharray:3 3 !important;stroke-width:1px !important"/><g class="label" style="color:#1e1e2e !important" transform="translate(-100, -24)"><rect/><foreignObject width="200" height="48"><div style="color: rgb(30, 30, 46) !important; display: table; white-space: break-spaces; line-height: 1.5; max-width: 200px; text-align: center; width: 200px;" xmlns="http://www.w3.org/1999/xhtml"><span style="color:#1e1e2e !important" class="nodeLabel "><p>provides/mutual-provider</p></span></div></foreignObject></g></g><g class="node default alice__to_hosts_c " id="my-svg-flowchart-alice__to_hosts-2" data-look="classic" transform="translate(654, 82.5)"><polygon points="-19.5,0 174.5,0 155,-39 0,-39" class="label-container" transform="translate(-77.5,19.5)" style="fill:#a6e3a1 !important;stroke:#a6e3a1 !important;stroke-dasharray:3 3 !important;stroke-width:1px !important"/><g class="label" style="color:#1e1e2e !important" transform="translate(-70, -12)"><rect/><foreignObject width="140" height="24"><div style="color: rgb(30, 30, 46) !important; display: table-cell; white-space: nowrap; line-height: 1.5; max-width: 200px; text-align: center;" xmlns="http://www.w3.org/1999/xhtml"><span style="color:#1e1e2e !important" class="nodeLabel "><p>alice/to-hosts</p></span></div></foreignObject></g></g><g class="node default alice_c " id="my-svg-flowchart-alice-6" data-look="classic" transform="translate(1044.25, 82.5)"><polygon points="15.75,0 230.75,0 246.5,-31.5 230.75,-63 15.75,-63 0,-31.5" class="label-container" transform="translate(-123.25,31.5)" style="fill:#f2cdcd !important;stroke:#f2cdcd !important;stroke-dasharray:3 3 !important;stroke-width:1px !important"/><g class="label" style="color:#1e1e2e !important" transform="translate(-100, -24)"><rect/><foreignObject width="200" height="48"><div style="color: rgb(30, 30, 46) !important; display: table; white-space: break-spaces; line-height: 1.5; max-width: 200px; text-align: center; width: 200px;" xmlns="http://www.w3.org/1999/xhtml"><span style="color:#1e1e2e !important" class="nodeLabel "><p>alice({ aspect-chain, class })</p></span></div></foreignObject></g></g><g class="node default root " id="my-svg-flowchart-laptop-0" data-look="classic" transform="translate(107, 282)"><g class="basic label-container outer-path"><path d="M-22.875 -19.5 C-7.311845588515947 -19.5, 8.251308822968106 -19.5, 22.875 -19.5 C22.875 -19.5, 22.875 -19.5, 22.875 -19.5 C23.19104742119101 -19.48986497435139, 23.507094842382013 -19.479729948702783, 24.1243692896239 -19.45993515863156 C24.53332872664535 -19.420483333587782, 24.942288163666802 -19.381031508544005, 25.368604652847864 -19.3399052695533 C25.793043054689033 -19.271285360312586, 26.217481456530198 -19.202665451071873, 26.60259325967676 -19.140403561325776 C27.022587047752282 -19.04454271991314, 27.4425808358278 -18.9486818785005, 27.82126438623539 -18.862249829261074 C28.07705581384952 -18.786332276221806, 28.332847241463643 -18.710414723182534, 29.019610251460602 -18.50658706670804 C29.413788504685403 -18.361525825777484, 29.807966757910204 -18.216464584846925, 30.192706595147794 -18.074876768247425 C30.57236734471538 -17.906812216649843, 30.95202809428297 -17.73874766505226, 31.33573291279238 -17.568892924097174 C31.567665316625963 -17.44789393757699, 31.79959772045954 -17.326894951056804, 32.44399226407678 -16.990714730406097 C32.67726760694226 -16.849301846682966, 32.910542949807734 -16.707888962959835, 33.5129305736057 -16.342718045390892 C33.731525870177634 -16.190235429340184, 33.95012116674957 -16.03775281328948, 34.53815534457871 -15.627565626425154 C34.79082892200581 -15.426065172353328, 35.0435024994329 -15.224564718281503, 35.515453708501866 -14.848196188198123 C35.76671213415119 -14.620009933957057, 36.01797055980051 -14.39182367971599, 36.44080973676799 -14.007812326905688 C36.74196254570228 -13.696847326575593, 37.04311535463657 -13.385882326245499, 37.31042094296865 -13.10986736009568 C37.515911961929945 -12.868485916453519, 37.72140298089125 -12.627104472811357, 38.12071390812658 -12.158051136245305 C38.34427046000724 -11.858505723146083, 38.567827011887886 -11.558960310046862, 38.868358964640635 -11.156274872382312 C39.12515557079217 -10.761766325789557, 39.381952176943706 -10.367257779196803, 39.55028387860425 -10.108655082055241 C39.77039467494743 -9.717826074512892, 39.99050547129062 -9.326997066970545, 40.163686474273504 -9.019496659696287 C40.31789646246171 -8.699276319658301, 40.472106450649925 -8.379055979620317, 40.70604614880834 -7.893275190886684 C40.8280105347983 -7.592020799470485, 40.94997492078827 -7.290766408054286, 41.175134229970325 -6.734618561215508 C41.26961923482374 -6.450044780738153, 41.364104239677154 -6.165471000260798, 41.56902313421488 -5.548287939305138 C41.640125381436256 -5.277144254741158, 41.71122762865763 -5.006000570177177, 41.88609428754556 -4.339158212148133 C41.95681322515099 -3.976031413997008, 42.027532162756415 -3.612904615845883, 42.125044776581774 -3.1121979531509023 C42.18247393800099 -2.6667887178541263, 42.239903099420204 -2.2213794825573503, 42.28489270250937 -1.872449005199798 C42.31248481699748 -1.4426795500934393, 42.3400769314856 -1.0129100949870808, 42.36498121591342 -0.6250057626472757 C42.36498121591342 -0.16889766245882915, 42.36498121591342 0.2872104377296174, 42.36498121591342 0.625005762647271 C42.33771969067946 1.0496260232733172, 42.310458165445496 1.4742462838993633, 42.28489270250937 1.8724490051997846 C42.24943881997464 2.1474223169780915, 42.213984937439925 2.422395628756398, 42.125044776581774 3.1121979531508885 C42.03526152995081 3.5732159489050224, 41.94547828331984 4.034233944659157, 41.88609428754556 4.339158212148129 C41.81561704512279 4.607918482536231, 41.745139802700024 4.876678752924333, 41.56902313421489 5.548287939305125 C41.475278057565426 5.8306331739237205, 41.38153298091596 6.112978408542315, 41.175134229970325 6.734618561215495 C41.06405541736217 7.008985375920387, 40.952976604754014 7.283352190625279, 40.70604614880834 7.893275190886679 C40.50621262257907 8.308233783854265, 40.306379096349794 8.72319237682185, 40.163686474273504 9.019496659696284 C39.91906749080205 9.453842435207926, 39.6744485073306 9.88818821071957, 39.55028387860425 10.108655082055236 C39.34829754126333 10.418960337136916, 39.1463112039224 10.729265592218596, 38.86835896464064 11.156274872382301 C38.60766100217938 11.505586392007434, 38.346963039718105 11.854897911632566, 38.12071390812658 12.158051136245302 C37.9550932957341 12.352598531641329, 37.78947268334162 12.547145927037356, 37.31042094296866 13.10986736009567 C37.04247824149526 13.386540197871863, 36.77453554002186 13.663213035648056, 36.44080973676799 14.007812326905684 C36.08539831465078 14.330587576801607, 35.72998689253358 14.653362826697528, 35.51545370850189 14.848196188198111 C35.23335342063108 15.07316366077114, 34.951253132760286 15.298131133344171, 34.53815534457871 15.627565626425152 C34.22393548165968 15.846751800438836, 33.90971561874065 16.06593797445252, 33.51293057360571 16.34271804539089 C33.15545407559657 16.55942239924911, 32.79797757758743 16.776126753107334, 32.44399226407678 16.990714730406093 C32.12199091799557 17.15870262640496, 31.79998957191435 17.326690522403826, 31.335732912792388 17.56889292409717 C31.098532109635105 17.673894683343075, 30.86133130647782 17.77889644258898, 30.192706595147804 18.07487676824742 C29.891523016110316 18.185715109443702, 29.59033943707283 18.29655345063998, 29.019610251460616 18.506587066708033 C28.757724222732666 18.584313465366673, 28.495838194004715 18.662039864025314, 27.821264386235413 18.86224982926107 C27.334560053806964 18.973336917095278, 26.84785572137852 19.084424004929485, 26.602593259676766 19.140403561325773 C26.291097346093416 19.19076380494704, 25.979601432510066 19.24112404856831, 25.36860465284788 19.3399052695533 C24.939012213770393 19.381347535490605, 24.509419774692912 19.422789801427914, 24.1243692896239 19.45993515863156 C23.735319543539724 19.472411226749088, 23.346269797455545 19.484887294866613, 22.875000000000004 19.5 C22.875000000000004 19.5, 22.875 19.5, 22.875 19.5 C6.2351543412461226 19.5, -10.404691317507755 19.5, -22.874999999999996 19.5 C-23.189131645028645 19.489926409564085, -23.503263290057294 19.479852819128173, -24.124369289623893 19.45993515863156 C-24.558068848887086 19.41809668374947, -24.991768408150282 19.376258208867384, -25.36860465284787 19.3399052695533 C-25.72171602185461 19.282816961831852, -26.07482739086135 19.22572865411041, -26.60259325967676 19.140403561325773 C-26.918240878934462 19.068359052023414, -27.23388849819217 18.99631454272106, -27.821264386235388 18.862249829261074 C-28.27115285764799 18.72872529245859, -28.721041329060597 18.595200755656105, -29.01961025146059 18.506587066708043 C-29.366814654530025 18.37881263685617, -29.71401905759946 18.251038207004303, -30.192706595147797 18.074876768247425 C-30.61297468603525 17.88883655122152, -31.033242776922705 17.70279633419561, -31.33573291279238 17.568892924097174 C-31.707764747144346 17.374804154413518, -32.07979658149631 17.180715384729858, -32.44399226407678 16.990714730406097 C-32.75929336817848 16.799577348184688, -33.07459447228019 16.608439965963274, -33.512930573605686 16.3427180453909 C-33.85206626260228 16.10615166969424, -34.19120195159887 15.869585293997579, -34.53815534457871 15.627565626425156 C-34.79888841948355 15.419637937587058, -35.0596214943884 15.211710248748961, -35.515453708501866 14.848196188198125 C-35.8636186952827 14.532001959144523, -36.21178368206354 14.21580773009092, -36.440809736767974 14.007812326905697 C-36.696580512831694 13.743708001448661, -36.952351288895414 13.479603675991626, -37.310420942968655 13.109867360095677 C-37.510456900135516 12.874893742439067, -37.710492857302384 12.639920124782456, -38.120713908126575 12.158051136245307 C-38.419441392252104 11.757783522150762, -38.71816887637763 11.357515908056218, -38.868358964640635 11.156274872382316 C-39.102704394118014 10.79625736214614, -39.33704982359539 10.436239851909962, -39.55028387860425 10.108655082055249 C-39.73707561046997 9.776987447413758, -39.923867342335704 9.445319812772269, -40.163686474273504 9.019496659696289 C-40.289403405309585 8.758442762488453, -40.415120336345666 8.497388865280618, -40.70604614880834 7.893275190886686 C-40.819430588560884 7.613213432558889, -40.93281502831343 7.333151674231093, -41.175134229970325 6.73461856121551 C-41.28014237841701 6.418350748870455, -41.385150526863704 6.102082936525399, -41.56902313421488 5.5482879393051325 C-41.69565269788075 5.065394531447112, -41.822282261546626 4.582501123589091, -41.88609428754556 4.339158212148136 C-41.93992009476107 4.062774068184885, -41.993745901976574 3.786389924221634, -42.125044776581774 3.112197953150904 C-42.18394490180852 2.6553802130375725, -42.242845027035266 2.1985624729242415, -42.28489270250937 1.872449005199809 C-42.30626143847344 1.5396136940261573, -42.327630174437516 1.2067783828525056, -42.36498121591342 0.6250057626472781 C-42.36498121591342 0.1735296501932631, -42.36498121591342 -0.2779464622607519, -42.36498121591342 -0.6250057626472687 C-42.34092636848821 -0.9996794280181884, -42.31687152106301 -1.3743530933891082, -42.28489270250937 -1.8724490051997822 C-42.239159367574395 -2.2271477198869527, -42.19342603263942 -2.581846434574123, -42.125044776581774 -3.112197953150895 C-42.060043549981 -3.445965513731761, -41.995042323380225 -3.7797330743126265, -41.88609428754556 -4.339158212148126 C-41.80369262088975 -4.653391480214987, -41.721290954233936 -4.967624748281848, -41.56902313421489 -5.548287939305123 C-41.41266395583118 -6.019216872144966, -41.25630477744746 -6.490145804984809, -41.17513422997033 -6.734618561215485 C-41.075034987703496 -6.981865624901765, -40.97493574543666 -7.229112688588045, -40.70604614880834 -7.893275190886676 C-40.54154827843768 -8.234858538401932, -40.37705040806703 -8.576441885917188, -40.163686474273504 -9.019496659696282 C-39.97894574837021 -9.347522525564598, -39.79420502246692 -9.675548391432915, -39.55028387860425 -10.108655082055243 C-39.41314599038091 -10.3193357050455, -39.27600810215757 -10.530016328035757, -38.86835896464064 -11.156274872382308 C-38.60358396111232 -11.511049255611214, -38.338808957584 -11.865823638840117, -38.12071390812659 -12.158051136245302 C-37.9040059932045 -12.412608584142474, -37.6872980782824 -12.667166032039644, -37.31042094296866 -13.10986736009567 C-37.01463653405552 -13.41528904665009, -36.71885212514238 -13.720710733204509, -36.440809736767996 -14.007812326905677 C-36.102999227147656 -14.314602893766569, -35.76518871752732 -14.621393460627461, -35.51545370850189 -14.848196188198107 C-35.313005185318474 -15.009643498055423, -35.11055666213506 -15.171090807912739, -34.53815534457872 -15.627565626425149 C-34.260123598652385 -15.821508536583062, -33.98209185272605 -16.015451446740975, -33.512930573605715 -16.342718045390885 C-33.22233676980026 -16.518877716976498, -32.93174296599479 -16.695037388562113, -32.44399226407679 -16.99071473040609 C-32.08560502350597 -17.177685124253905, -31.727217782935146 -17.36465551810172, -31.335732912792388 -17.56889292409717 C-30.944104660040356 -17.742255134351137, -30.552476407288324 -17.915617344605106, -30.192706595147804 -18.07487676824742 C-29.94497744427485 -18.166043385751834, -29.6972482934019 -18.25721000325625, -29.01961025146062 -18.506587066708033 C-28.632253970167344 -18.621552377721265, -28.24489768887407 -18.736517688734498, -27.821264386235413 -18.862249829261067 C-27.389930838849743 -18.9606988967374, -26.958597291464073 -19.059147964213736, -26.602593259676766 -19.140403561325773 C-26.34928713299785 -19.18135613146887, -26.095981006318933 -19.222308701611965, -25.368604652847882 -19.3399052695533 C-25.04420184249524 -19.371200018516557, -24.7197990321426 -19.402494767479816, -24.124369289623903 -19.45993515863156 C-23.782530228667042 -19.47089727196708, -23.440691167710177 -19.481859385302595, -22.875000000000007 -19.5 C-22.875000000000004 -19.5, -22.875000000000004 -19.5, -22.875 -19.5" stroke="none" stroke-width="0" fill="#89b4fa" style="fill:#89b4fa !important;stroke:#89b4fa !important"/><path d="M-22.875 -19.5 C-7.260814895153111 -19.5, 8.353370209693779 -19.5, 22.875 -19.5 M-22.875 -19.5 C-8.85281237684391 -19.5, 5.169375246312178 -19.5, 22.875 -19.5 M22.875 -19.5 C22.875 -19.5, 22.875 -19.5, 22.875 -19.5 M22.875 -19.5 C22.875 -19.5, 22.875 -19.5, 22.875 -19.5 M22.875 -19.5 C23.209229622896363 -19.48928190653221, 23.543459245792725 -19.47856381306442, 24.1243692896239 -19.45993515863156 M22.875 -19.5 C23.226383915771343 -19.488731801748514, 23.577767831542687 -19.47746360349703, 24.1243692896239 -19.45993515863156 M24.1243692896239 -19.45993515863156 C24.44840328690913 -19.42867598862135, 24.772437284194364 -19.39741681861114, 25.368604652847864 -19.3399052695533 M24.1243692896239 -19.45993515863156 C24.513669705492966 -19.42237981571492, 24.902970121362035 -19.384824472798282, 25.368604652847864 -19.3399052695533 M25.368604652847864 -19.3399052695533 C25.704337200089025 -19.28562663496014, 26.04006974733019 -19.231348000366978, 26.60259325967676 -19.140403561325776 M25.368604652847864 -19.3399052695533 C25.773507283435258 -19.274443752306727, 26.178409914022655 -19.208982235060155, 26.60259325967676 -19.140403561325776 M26.60259325967676 -19.140403561325776 C27.07867149009212 -19.03174181193426, 27.55474972050748 -18.92308006254274, 27.82126438623539 -18.862249829261074 M26.60259325967676 -19.140403561325776 C26.986498431086325 -19.05277971116691, 27.37040360249589 -18.965155861008043, 27.82126438623539 -18.862249829261074 M27.82126438623539 -18.862249829261074 C28.294987912327052 -18.7216511733426, 28.76871143841871 -18.58105251742413, 29.019610251460602 -18.50658706670804 M27.82126438623539 -18.862249829261074 C28.18123176051902 -18.755413402081, 28.541199134802643 -18.648576974900926, 29.019610251460602 -18.50658706670804 M29.019610251460602 -18.50658706670804 C29.47729304125388 -18.338155569290784, 29.934975831047158 -18.169724071873524, 30.192706595147794 -18.074876768247425 M29.019610251460602 -18.50658706670804 C29.43462452952587 -18.35385797603009, 29.849638807591134 -18.20112888535214, 30.192706595147794 -18.074876768247425 M30.192706595147794 -18.074876768247425 C30.421788427271117 -17.973469036637535, 30.650870259394445 -17.872061305027646, 31.33573291279238 -17.568892924097174 M30.192706595147794 -18.074876768247425 C30.480393335646703 -17.947526382152503, 30.76808007614561 -17.820175996057586, 31.33573291279238 -17.568892924097174 M31.33573291279238 -17.568892924097174 C31.76972876232007 -17.342477567386187, 32.20372461184776 -17.116062210675203, 32.44399226407678 -16.990714730406097 M31.33573291279238 -17.568892924097174 C31.7740576473211 -17.340219190853933, 32.21238238184982 -17.111545457610692, 32.44399226407678 -16.990714730406097 M32.44399226407678 -16.990714730406097 C32.76726753014422 -16.794743364339684, 33.09054279621165 -16.59877199827327, 33.5129305736057 -16.342718045390892 M32.44399226407678 -16.990714730406097 C32.7750895282779 -16.79000162310388, 33.106186792479015 -16.589288515801666, 33.5129305736057 -16.342718045390892 M33.5129305736057 -16.342718045390892 C33.7676750148143 -16.165019350912896, 34.02241945602291 -15.987320656434898, 34.53815534457871 -15.627565626425154 M33.5129305736057 -16.342718045390892 C33.75750579689199 -16.172112957117154, 34.00208102017828 -16.00150786884341, 34.53815534457871 -15.627565626425154 M34.53815534457871 -15.627565626425154 C34.922534609313445 -15.321033391561016, 35.306913874048185 -15.014501156696879, 35.515453708501866 -14.848196188198123 M34.53815534457871 -15.627565626425154 C34.91726295435957 -15.325237396102105, 35.296370564140425 -15.022909165779057, 35.515453708501866 -14.848196188198123 M35.515453708501866 -14.848196188198123 C35.834275393077476 -14.558650769826075, 36.153097077653086 -14.269105351454026, 36.44080973676799 -14.007812326905688 M35.515453708501866 -14.848196188198123 C35.70729172326111 -14.673973978949512, 35.89912973802034 -14.4997517697009, 36.44080973676799 -14.007812326905688 M36.44080973676799 -14.007812326905688 C36.78805808720869 -13.649249895455881, 37.1353064376494 -13.290687464006075, 37.31042094296865 -13.10986736009568 M36.44080973676799 -14.007812326905688 C36.782686228293386 -13.654796780823752, 37.12456271981879 -13.301781234741815, 37.31042094296865 -13.10986736009568 M37.31042094296865 -13.10986736009568 C37.59113908984156 -12.7801198514637, 37.87185723671447 -12.45037234283172, 38.12071390812658 -12.158051136245305 M37.31042094296865 -13.10986736009568 C37.596036859718254 -12.774366652275535, 37.88165277646785 -12.43886594445539, 38.12071390812658 -12.158051136245305 M38.12071390812658 -12.158051136245305 C38.39190659704044 -11.794677639262948, 38.663099285954296 -11.431304142280592, 38.868358964640635 -11.156274872382312 M38.12071390812658 -12.158051136245305 C38.347198616629946 -11.854582260032208, 38.5736833251333 -11.55111338381911, 38.868358964640635 -11.156274872382312 M38.868358964640635 -11.156274872382312 C39.14099114368215 -10.737438633383823, 39.41362332272367 -10.318602394385334, 39.55028387860425 -10.108655082055241 M38.868358964640635 -11.156274872382312 C39.12462836849164 -10.76257625009681, 39.38089777234265 -10.368877627811308, 39.55028387860425 -10.108655082055241 M39.55028387860425 -10.108655082055241 C39.7216873017047 -9.804310947861728, 39.893090724805155 -9.499966813668214, 40.163686474273504 -9.019496659696287 M39.55028387860425 -10.108655082055241 C39.69759418916173 -9.847090708873974, 39.844904499719206 -9.585526335692705, 40.163686474273504 -9.019496659696287 M40.163686474273504 -9.019496659696287 C40.32604476599175 -8.682356193032414, 40.488403057709995 -8.345215726368538, 40.70604614880834 -7.893275190886684 M40.163686474273504 -9.019496659696287 C40.33055584303593 -8.672988845028584, 40.49742521179836 -8.326481030360881, 40.70604614880834 -7.893275190886684 M40.70604614880834 -7.893275190886684 C40.819304744886225 -7.613524268868313, 40.932563340964116 -7.333773346849942, 41.175134229970325 -6.734618561215508 M40.70604614880834 -7.893275190886684 C40.82576853141023 -7.59755859118521, 40.945490914012126 -7.301841991483736, 41.175134229970325 -6.734618561215508 M41.175134229970325 -6.734618561215508 C41.30062451429308 -6.3566618189969315, 41.42611479861583 -5.978705076778356, 41.56902313421488 -5.548287939305138 M41.175134229970325 -6.734618561215508 C41.29248031972796 -6.381190835425886, 41.40982640948558 -6.027763109636264, 41.56902313421488 -5.548287939305138 M41.56902313421488 -5.548287939305138 C41.669558119170524 -5.16490446953116, 41.77009310412617 -4.781520999757182, 41.88609428754556 -4.339158212148133 M41.56902313421488 -5.548287939305138 C41.66853313966849 -5.16881316060136, 41.76804314512209 -4.789338381897581, 41.88609428754556 -4.339158212148133 M41.88609428754556 -4.339158212148133 C41.955929591374016 -3.980568686685691, 42.02576489520248 -3.6219791612232486, 42.125044776581774 -3.1121979531509023 M41.88609428754556 -4.339158212148133 C41.96265000091921 -3.946060804030165, 42.03920571429287 -3.5529633959121965, 42.125044776581774 -3.1121979531509023 M42.125044776581774 -3.1121979531509023 C42.17170597881952 -2.7503028828915443, 42.21836718105727 -2.3884078126321864, 42.28489270250937 -1.872449005199798 M42.125044776581774 -3.1121979531509023 C42.173225641675245 -2.7385166778738887, 42.22140650676872 -2.364835402596875, 42.28489270250937 -1.872449005199798 M42.28489270250937 -1.872449005199798 C42.30953996647779 -1.4885479739781353, 42.334187230446226 -1.1046469427564727, 42.36498121591342 -0.6250057626472757 M42.28489270250937 -1.872449005199798 C42.3036168470733 -1.5808053397591102, 42.32234099163723 -1.2891616743184224, 42.36498121591342 -0.6250057626472757 M42.36498121591342 -0.6250057626472757 C42.36498121591342 -0.14654171128114923, 42.36498121591342 0.33192234008497723, 42.36498121591342 0.625005762647271 M42.36498121591342 -0.6250057626472757 C42.36498121591342 -0.2608392818361323, 42.36498121591342 0.10332719897501108, 42.36498121591342 0.625005762647271 M42.36498121591342 0.625005762647271 C42.343083621099595 0.9660784772929671, 42.32118602628577 1.3071511919386631, 42.28489270250937 1.8724490051997846 M42.36498121591342 0.625005762647271 C42.347418371081154 0.8985612473829939, 42.329855526248885 1.1721167321187167, 42.28489270250937 1.8724490051997846 M42.28489270250937 1.8724490051997846 C42.2399634650786 2.2209112984313504, 42.19503422764783 2.569373591662916, 42.125044776581774 3.1121979531508885 M42.28489270250937 1.8724490051997846 C42.24083405926308 2.2141591418547777, 42.1967754160168 2.5558692785097703, 42.125044776581774 3.1121979531508885 M42.125044776581774 3.1121979531508885 C42.05213841708287 3.4865567004132165, 41.97923205758397 3.860915447675545, 41.88609428754556 4.339158212148129 M42.125044776581774 3.1121979531508885 C42.03953753228187 3.551259580668431, 41.954030287981965 3.9903212081859736, 41.88609428754556 4.339158212148129 M41.88609428754556 4.339158212148129 C41.76327178258907 4.807533655157596, 41.640449277632584 5.275909098167062, 41.56902313421489 5.548287939305125 M41.88609428754556 4.339158212148129 C41.77039811637055 4.7803578558762165, 41.65470194519555 5.221557499604304, 41.56902313421489 5.548287939305125 M41.56902313421489 5.548287939305125 C41.4179455508972 6.003309549313995, 41.26686796757951 6.4583311593228645, 41.175134229970325 6.734618561215495 M41.56902313421489 5.548287939305125 C41.43279365350779 5.958589429974775, 41.29656417280069 6.368890920644425, 41.175134229970325 6.734618561215495 M41.175134229970325 6.734618561215495 C41.003666481656936 7.158147214652963, 40.83219873334354 7.581675868090431, 40.70604614880834 7.893275190886679 M41.175134229970325 6.734618561215495 C41.04058975735164 7.066946009824064, 40.906045284732954 7.399273458432634, 40.70604614880834 7.893275190886679 M40.70604614880834 7.893275190886679 C40.550644253196936 8.215970552191669, 40.39524235758552 8.538665913496658, 40.163686474273504 9.019496659696284 M40.70604614880834 7.893275190886679 C40.52290528494024 8.273571113295535, 40.33976442107214 8.65386703570439, 40.163686474273504 9.019496659696284 M40.163686474273504 9.019496659696284 C39.987128666368356 9.332992926048592, 39.81057085846321 9.646489192400898, 39.55028387860425 10.108655082055236 M40.163686474273504 9.019496659696284 C39.97034881153268 9.36278725745388, 39.777011148791864 9.706077855211474, 39.55028387860425 10.108655082055236 M39.55028387860425 10.108655082055236 C39.354121933818845 10.41001250610324, 39.15795998903345 10.711369930151243, 38.86835896464064 11.156274872382301 M39.55028387860425 10.108655082055236 C39.28588313726598 10.51484562229102, 39.02148239592771 10.921036162526802, 38.86835896464064 11.156274872382301 M38.86835896464064 11.156274872382301 C38.7077588246441 11.371464429003925, 38.54715868464756 11.586653985625547, 38.12071390812658 12.158051136245302 M38.86835896464064 11.156274872382301 C38.71201242558245 11.365764991257555, 38.55566588652426 11.575255110132806, 38.12071390812658 12.158051136245302 M38.12071390812658 12.158051136245302 C37.895396927837474 12.422721282192265, 37.67007994754837 12.687391428139229, 37.31042094296866 13.10986736009567 M38.12071390812658 12.158051136245302 C37.797497451019034 12.537719578301248, 37.474280993911485 12.917388020357196, 37.31042094296866 13.10986736009567 M37.31042094296866 13.10986736009567 C37.01194872830163 13.41806442676393, 36.7134765136346 13.726261493432192, 36.44080973676799 14.007812326905684 M37.31042094296866 13.10986736009567 C37.06042935620004 13.36800419812525, 36.810437769431424 13.62614103615483, 36.44080973676799 14.007812326905684 M36.44080973676799 14.007812326905684 C36.22789798962446 14.201173142325302, 36.01498624248094 14.394533957744923, 35.51545370850189 14.848196188198111 M36.44080973676799 14.007812326905684 C36.13014114492632 14.289953322175782, 35.81947255308465 14.572094317445881, 35.51545370850189 14.848196188198111 M35.51545370850189 14.848196188198111 C35.276547005952935 15.038717925906544, 35.03764030340398 15.229239663614978, 34.53815534457871 15.627565626425152 M35.51545370850189 14.848196188198111 C35.248455522686456 15.061120136265796, 34.981457336871024 15.27404408433348, 34.53815534457871 15.627565626425152 M34.53815534457871 15.627565626425152 C34.158989091699155 15.892055590591388, 33.779822838819605 16.156545554757624, 33.51293057360571 16.34271804539089 M34.53815534457871 15.627565626425152 C34.20823136882973 15.857706309728922, 33.878307393080746 16.08784699303269, 33.51293057360571 16.34271804539089 M33.51293057360571 16.34271804539089 C33.26257159869728 16.494487127253024, 33.01221262378884 16.646256209115162, 32.44399226407678 16.990714730406093 M33.51293057360571 16.34271804539089 C33.254289791877504 16.49950760721647, 32.9956490101493 16.65629716904205, 32.44399226407678 16.990714730406093 M32.44399226407678 16.990714730406093 C32.159204435674646 17.13928835806818, 31.874416607272504 17.287861985730267, 31.335732912792388 17.56889292409717 M32.44399226407678 16.990714730406093 C32.12285263858825 17.158253067323717, 31.80171301309971 17.32579140424134, 31.335732912792388 17.56889292409717 M31.335732912792388 17.56889292409717 C31.009594374782218 17.71326478031828, 30.683455836772044 17.857636636539393, 30.192706595147804 18.07487676824742 M31.335732912792388 17.56889292409717 C30.943665867303896 17.742449374879246, 30.5515988218154 17.916005825661323, 30.192706595147804 18.07487676824742 M30.192706595147804 18.07487676824742 C29.90033792473076 18.182471141587257, 29.607969254313716 18.29006551492709, 29.019610251460616 18.506587066708033 M30.192706595147804 18.07487676824742 C29.916785042632853 18.176418450163794, 29.6408634901179 18.277960132080167, 29.019610251460616 18.506587066708033 M29.019610251460616 18.506587066708033 C28.654666873874362 18.614900345548755, 28.289723496288108 18.723213624389476, 27.821264386235413 18.86224982926107 M29.019610251460616 18.506587066708033 C28.7509596689898 18.586321149409688, 28.482309086518985 18.666055232111344, 27.821264386235413 18.86224982926107 M27.821264386235413 18.86224982926107 C27.50812463556872 18.9337219339229, 27.19498488490203 19.005194038584733, 26.602593259676766 19.140403561325773 M27.821264386235413 18.86224982926107 C27.391749276298338 18.960283850256175, 26.962234166361263 19.05831787125128, 26.602593259676766 19.140403561325773 M26.602593259676766 19.140403561325773 C26.26027224028802 19.195747369001392, 25.917951220899276 19.25109117667701, 25.36860465284788 19.3399052695533 M26.602593259676766 19.140403561325773 C26.191175704140633 19.20691836111406, 25.779758148604504 19.273433160902346, 25.36860465284788 19.3399052695533 M25.36860465284788 19.3399052695533 C25.061944410577134 19.369488414312258, 24.755284168306392 19.399071559071213, 24.1243692896239 19.45993515863156 M25.36860465284788 19.3399052695533 C24.92377210290413 19.38281773065696, 24.478939552960384 19.42573019176062, 24.1243692896239 19.45993515863156 M24.1243692896239 19.45993515863156 C23.80281243920507 19.470246860952052, 23.481255588786237 19.48055856327254, 22.875000000000004 19.5 M24.1243692896239 19.45993515863156 C23.83181127142616 19.469316924845522, 23.539253253228424 19.47869869105949, 22.875000000000004 19.5 M22.875000000000004 19.5 C22.875000000000004 19.5, 22.875 19.5, 22.875 19.5 M22.875000000000004 19.5 C22.875000000000004 19.5, 22.875000000000004 19.5, 22.875 19.5 M22.875 19.5 C13.520415617218354 19.5, 4.165831234436709 19.5, -22.874999999999996 19.5 M22.875 19.5 C11.901890420779404 19.5, 0.9287808415588081 19.5, -22.874999999999996 19.5 M-22.874999999999996 19.5 C-23.222765413584145 19.48884784007067, -23.570530827168298 19.47769568014134, -24.124369289623893 19.45993515863156 M-22.874999999999996 19.5 C-23.326152892875612 19.48553240484131, -23.777305785751224 19.471064809682627, -24.124369289623893 19.45993515863156 M-24.124369289623893 19.45993515863156 C-24.398237310336306 19.433515440047916, -24.67210533104872 19.407095721464273, -25.36860465284787 19.3399052695533 M-24.124369289623893 19.45993515863156 C-24.603404814336617 19.413723177687032, -25.082440339049345 19.3675111967425, -25.36860465284787 19.3399052695533 M-25.36860465284787 19.3399052695533 C-25.80589844439853 19.26920700059939, -26.24319223594919 19.19850873164548, -26.60259325967676 19.140403561325773 M-25.36860465284787 19.3399052695533 C-25.786199730372328 19.27239173591734, -26.20379480789678 19.204878202281375, -26.60259325967676 19.140403561325773 M-26.60259325967676 19.140403561325773 C-27.012939565388297 19.04674469480701, -27.423285871099836 18.953085828288245, -27.821264386235388 18.862249829261074 M-26.60259325967676 19.140403561325773 C-27.065660448894754 19.034711497182577, -27.52872763811275 18.929019433039382, -27.821264386235388 18.862249829261074 M-27.821264386235388 18.862249829261074 C-28.290318743184375 18.723036958235177, -28.759373100133363 18.58382408720928, -29.01961025146059 18.506587066708043 M-27.821264386235388 18.862249829261074 C-28.12734740327346 18.77140599646672, -28.433430420311534 18.68056216367236, -29.01961025146059 18.506587066708043 M-29.01961025146059 18.506587066708043 C-29.421172519616483 18.358808440025758, -29.82273478777238 18.211029813343476, -30.192706595147797 18.074876768247425 M-29.01961025146059 18.506587066708043 C-29.423382574273084 18.35799511948261, -29.827154897085574 18.209403172257176, -30.192706595147797 18.074876768247425 M-30.192706595147797 18.074876768247425 C-30.60025589988589 17.894466780560453, -31.00780520462398 17.714056792873485, -31.33573291279238 17.568892924097174 M-30.192706595147797 18.074876768247425 C-30.587985941779515 17.899898327038773, -30.983265288411232 17.72491988583012, -31.33573291279238 17.568892924097174 M-31.33573291279238 17.568892924097174 C-31.763257530036856 17.34585360512332, -32.19078214728133 17.122814286149463, -32.44399226407678 16.990714730406097 M-31.33573291279238 17.568892924097174 C-31.755352256392015 17.349977781320263, -32.17497159999165 17.13106263854335, -32.44399226407678 16.990714730406097 M-32.44399226407678 16.990714730406097 C-32.69645527876347 16.83767016726567, -32.94891829345016 16.68462560412524, -33.512930573605686 16.3427180453909 M-32.44399226407678 16.990714730406097 C-32.7794017592589 16.787387523341714, -33.11481125444102 16.58406031627733, -33.512930573605686 16.3427180453909 M-33.512930573605686 16.3427180453909 C-33.87390962641204 16.090914684684527, -34.2348886792184 15.839111323978154, -34.53815534457871 15.627565626425156 M-33.512930573605686 16.3427180453909 C-33.91417393943104 16.0628280429365, -34.31541730525638 15.782938040482094, -34.53815534457871 15.627565626425156 M-34.53815534457871 15.627565626425156 C-34.77643198995687 15.437546342543907, -35.01470863533502 15.247527058662659, -35.515453708501866 14.848196188198125 M-34.53815534457871 15.627565626425156 C-34.836034655659645 15.390014802739486, -35.13391396674058 15.152463979053817, -35.515453708501866 14.848196188198125 M-35.515453708501866 14.848196188198125 C-35.85690844815857 14.538096028039247, -36.19836318781528 14.227995867880367, -36.440809736767974 14.007812326905697 M-35.515453708501866 14.848196188198125 C-35.864237235220294 14.531440217538874, -36.213020761938715 14.214684246879623, -36.440809736767974 14.007812326905697 M-36.440809736767974 14.007812326905697 C-36.6438719400159 13.798133930335277, -36.84693414326382 13.588455533764858, -37.310420942968655 13.109867360095677 M-36.440809736767974 14.007812326905697 C-36.739343583534776 13.699551620034327, -37.037877430301585 13.391290913162958, -37.310420942968655 13.109867360095677 M-37.310420942968655 13.109867360095677 C-37.47310412928217 12.918770432516279, -37.63578731559569 12.727673504936883, -38.120713908126575 12.158051136245307 M-37.310420942968655 13.109867360095677 C-37.570428587330724 12.804447586173902, -37.830436231692794 12.499027812252129, -38.120713908126575 12.158051136245307 M-38.120713908126575 12.158051136245307 C-38.38230390171618 11.807544376173919, -38.64389389530577 11.457037616102529, -38.868358964640635 11.156274872382316 M-38.120713908126575 12.158051136245307 C-38.37085886258558 11.8228796859444, -38.62100381704459 11.487708235643494, -38.868358964640635 11.156274872382316 M-38.868358964640635 11.156274872382316 C-39.074912189418825 10.838953651816013, -39.28146541419701 10.52163243124971, -39.55028387860425 10.108655082055249 M-38.868358964640635 11.156274872382316 C-39.00972018391932 10.93910607876786, -39.15108140319801 10.721937285153405, -39.55028387860425 10.108655082055249 M-39.55028387860425 10.108655082055249 C-39.76136216996726 9.733864201745494, -39.97244046133028 9.359073321435739, -40.163686474273504 9.019496659696289 M-39.55028387860425 10.108655082055249 C-39.77014550556392 9.71826849998446, -39.990007132523594 9.327881917913672, -40.163686474273504 9.019496659696289 M-40.163686474273504 9.019496659696289 C-40.295614621470605 8.745545039231367, -40.4275427686677 8.471593418766446, -40.70604614880834 7.893275190886686 M-40.163686474273504 9.019496659696289 C-40.35877055542226 8.61440039106024, -40.55385463657102 8.20930412242419, -40.70604614880834 7.893275190886686 M-40.70604614880834 7.893275190886686 C-40.857509038110166 7.519158925975433, -41.008971927411984 7.1450426610641795, -41.175134229970325 6.73461856121551 M-40.70604614880834 7.893275190886686 C-40.84469220813041 7.550816743821963, -40.98333826745249 7.2083582967572415, -41.175134229970325 6.73461856121551 M-41.175134229970325 6.73461856121551 C-41.27455180909692 6.435188652926319, -41.373969388223514 6.135758744637129, -41.56902313421488 5.5482879393051325 M-41.175134229970325 6.73461856121551 C-41.323755047290575 6.286996338958421, -41.47237586461082 5.8393741167013316, -41.56902313421488 5.5482879393051325 M-41.56902313421488 5.5482879393051325 C-41.690132346392026 5.086446024209098, -41.81124155856917 4.624604109113064, -41.88609428754556 4.339158212148136 M-41.56902313421488 5.5482879393051325 C-41.69056363854902 5.084801320291277, -41.81210414288316 4.621314701277421, -41.88609428754556 4.339158212148136 M-41.88609428754556 4.339158212148136 C-41.940780242633274 4.058357390653432, -41.99546619772099 3.7775565691587287, -42.125044776581774 3.112197953150904 M-41.88609428754556 4.339158212148136 C-41.97785259159919 3.8679987139571894, -42.069610895652815 3.3968392157662435, -42.125044776581774 3.112197953150904 M-42.125044776581774 3.112197953150904 C-42.18131056238318 2.6758116294113514, -42.23757634818459 2.2394253056717983, -42.28489270250937 1.872449005199809 M-42.125044776581774 3.112197953150904 C-42.18557116964373 2.642767200850621, -42.24609756270568 2.173336448550338, -42.28489270250937 1.872449005199809 M-42.28489270250937 1.872449005199809 C-42.31217480218953 1.4475082809667321, -42.339456901869696 1.0225675567336554, -42.36498121591342 0.6250057626472781 M-42.28489270250937 1.872449005199809 C-42.30170071278487 1.6106506779771517, -42.318508723060376 1.3488523507544943, -42.36498121591342 0.6250057626472781 M-42.36498121591342 0.6250057626472781 C-42.36498121591342 0.35170479449299047, -42.36498121591342 0.0784038263387028, -42.36498121591342 -0.6250057626472687 M-42.36498121591342 0.6250057626472781 C-42.36498121591342 0.33369478887957715, -42.36498121591342 0.042383815111876166, -42.36498121591342 -0.6250057626472687 M-42.36498121591342 -0.6250057626472687 C-42.34738839782655 -0.8990281050174284, -42.329795579739674 -1.173050447387588, -42.28489270250937 -1.8724490051997822 M-42.36498121591342 -0.6250057626472687 C-42.3372638617525 -1.0567259267491642, -42.30954650759158 -1.4884460908510597, -42.28489270250937 -1.8724490051997822 M-42.28489270250937 -1.8724490051997822 C-42.223902399541416 -2.3454777511216034, -42.16291209657347 -2.8185064970434244, -42.125044776581774 -3.112197953150895 M-42.28489270250937 -1.8724490051997822 C-42.226879022557114 -2.322391650812591, -42.16886534260485 -2.7723342964253996, -42.125044776581774 -3.112197953150895 M-42.125044776581774 -3.112197953150895 C-42.02996715385903 -3.6004014511695113, -41.934889531136285 -4.088604949188127, -41.88609428754556 -4.339158212148126 M-42.125044776581774 -3.112197953150895 C-42.041881586528945 -3.5392233575257497, -41.95871839647611 -3.966248761900604, -41.88609428754556 -4.339158212148126 M-41.88609428754556 -4.339158212148126 C-41.761497032944355 -4.814301544734271, -41.63689977834315 -5.289444877320416, -41.56902313421489 -5.548287939305123 M-41.88609428754556 -4.339158212148126 C-41.79476996161498 -4.687417447134658, -41.7034456356844 -5.03567668212119, -41.56902313421489 -5.548287939305123 M-41.56902313421489 -5.548287939305123 C-41.427604841481795 -5.974217305072142, -41.2861865487487 -6.4001466708391614, -41.17513422997033 -6.734618561215485 M-41.56902313421489 -5.548287939305123 C-41.46054602357442 -5.87500371307376, -41.35206891293396 -6.201719486842396, -41.17513422997033 -6.734618561215485 M-41.17513422997033 -6.734618561215485 C-41.01876720293078 -7.120848141153974, -40.86240017589123 -7.507077721092464, -40.70604614880834 -7.893275190886676 M-41.17513422997033 -6.734618561215485 C-41.07568055609697 -6.9802710584886745, -40.9762268822236 -7.225923555761864, -40.70604614880834 -7.893275190886676 M-40.70604614880834 -7.893275190886676 C-40.517104151996705 -8.285617289977138, -40.328162155185076 -8.677959389067599, -40.163686474273504 -9.019496659696282 M-40.70604614880834 -7.893275190886676 C-40.56095215998133 -8.194565963199983, -40.415858171154326 -8.495856735513291, -40.163686474273504 -9.019496659696282 M-40.163686474273504 -9.019496659696282 C-39.94034357352466 -9.416064595896948, -39.71700067277581 -9.812632532097613, -39.55028387860425 -10.108655082055243 M-40.163686474273504 -9.019496659696282 C-39.950736718275294 -9.397610514972166, -39.737786962277085 -9.77572437024805, -39.55028387860425 -10.108655082055243 M-39.55028387860425 -10.108655082055243 C-39.295004946241804 -10.500832074155483, -39.03972601387936 -10.893009066255724, -38.86835896464064 -11.156274872382308 M-39.55028387860425 -10.108655082055243 C-39.40537328848387 -10.331276662422052, -39.2604626983635 -10.553898242788863, -38.86835896464064 -11.156274872382308 M-38.86835896464064 -11.156274872382308 C-38.64354156015728 -11.457509713103128, -38.418724155673914 -11.758744553823949, -38.12071390812659 -12.158051136245302 M-38.86835896464064 -11.156274872382308 C-38.61363226124242 -11.497585448855848, -38.3589055578442 -11.838896025329388, -38.12071390812659 -12.158051136245302 M-38.12071390812659 -12.158051136245302 C-37.840191642556015 -12.4875685515536, -37.55966937698543 -12.8170859668619, -37.31042094296866 -13.10986736009567 M-38.12071390812659 -12.158051136245302 C-37.87509416832043 -12.446570058780733, -37.62947442851428 -12.735088981316164, -37.31042094296866 -13.10986736009567 M-37.31042094296866 -13.10986736009567 C-37.11938198318205 -13.307130770665633, -36.92834302339545 -13.504394181235599, -36.440809736767996 -14.007812326905677 M-37.31042094296866 -13.10986736009567 C-37.08220050452812 -13.345523700031992, -36.85398006608758 -13.581180039968313, -36.440809736767996 -14.007812326905677 M-36.440809736767996 -14.007812326905677 C-36.24186750448341 -14.188486398543517, -36.042925272198815 -14.369160470181358, -35.51545370850189 -14.848196188198107 M-36.440809736767996 -14.007812326905677 C-36.201044454045096 -14.225560812832867, -35.9612791713222 -14.443309298760056, -35.51545370850189 -14.848196188198107 M-35.51545370850189 -14.848196188198107 C-35.22693598434767 -15.078281395432011, -34.93841826019345 -15.308366602665913, -34.53815534457872 -15.627565626425149 M-35.51545370850189 -14.848196188198107 C-35.199958050336726 -15.099795579892763, -34.884462392171564 -15.35139497158742, -34.53815534457872 -15.627565626425149 M-34.53815534457872 -15.627565626425149 C-34.201539627041235 -15.862374179119742, -33.86492390950376 -16.097182731814335, -33.512930573605715 -16.342718045390885 M-34.53815534457872 -15.627565626425149 C-34.16178068007115 -15.890108299388997, -33.78540601556359 -16.152650972352845, -33.512930573605715 -16.342718045390885 M-33.512930573605715 -16.342718045390885 C-33.292155818870526 -16.476552999127826, -33.07138106413534 -16.610387952864766, -32.44399226407679 -16.99071473040609 M-33.512930573605715 -16.342718045390885 C-33.20738181825135 -16.527943496490497, -32.901833062896976 -16.71316894759011, -32.44399226407679 -16.99071473040609 M-32.44399226407679 -16.99071473040609 C-32.04672399053266 -17.19796933425159, -31.64945571698853 -17.405223938097087, -31.335732912792388 -17.56889292409717 M-32.44399226407679 -16.99071473040609 C-32.03850369201845 -17.2022578587211, -31.63301511996011 -17.41380098703611, -31.335732912792388 -17.56889292409717 M-31.335732912792388 -17.56889292409717 C-30.955944722930937 -17.737013889732467, -30.576156533069483 -17.90513485536776, -30.192706595147804 -18.07487676824742 M-31.335732912792388 -17.56889292409717 C-30.88319903537566 -17.769216247689034, -30.430665157958934 -17.9695395712809, -30.192706595147804 -18.07487676824742 M-30.192706595147804 -18.07487676824742 C-29.78134451343344 -18.226261816907705, -29.36998243171907 -18.377646865567993, -29.01961025146062 -18.506587066708033 M-30.192706595147804 -18.07487676824742 C-29.79371033188735 -18.221711081408294, -29.394714068626897 -18.368545394569168, -29.01961025146062 -18.506587066708033 M-29.01961025146062 -18.506587066708033 C-28.581348298542487 -18.6366609138502, -28.143086345624354 -18.766734760992367, -27.821264386235413 -18.862249829261067 M-29.01961025146062 -18.506587066708033 C-28.70864043732775 -18.598881275228802, -28.397670623194887 -18.691175483749575, -27.821264386235413 -18.862249829261067 M-27.821264386235413 -18.862249829261067 C-27.37805331031964 -18.96340986511628, -26.934842234403867 -19.064569900971495, -26.602593259676766 -19.140403561325773 M-27.821264386235413 -18.862249829261067 C-27.430598175927802 -18.95141684242851, -27.039931965620188 -19.040583855595955, -26.602593259676766 -19.140403561325773 M-26.602593259676766 -19.140403561325773 C-26.223936599436072 -19.201621833627232, -25.845279939195375 -19.26284010592869, -25.368604652847882 -19.3399052695533 M-26.602593259676766 -19.140403561325773 C-26.16596695622848 -19.21099391597974, -25.729340652780195 -19.281584270633704, -25.368604652847882 -19.3399052695533 M-25.368604652847882 -19.3399052695533 C-24.979224220964596 -19.377468331518596, -24.58984378908131 -19.415031393483893, -24.124369289623903 -19.45993515863156 M-25.368604652847882 -19.3399052695533 C-24.987810080794148 -19.376640063946844, -24.607015508740417 -19.413374858340394, -24.124369289623903 -19.45993515863156 M-24.124369289623903 -19.45993515863156 C-23.632527824838537 -19.47570755709589, -23.140686360053166 -19.491479955560223, -22.875000000000007 -19.5 M-24.124369289623903 -19.45993515863156 C-23.624874942868246 -19.475952970125245, -23.12538059611259 -19.491970781618935, -22.875000000000007 -19.5 M-22.875000000000007 -19.5 C-22.875000000000004 -19.5, -22.875000000000004 -19.5, -22.875 -19.5 M-22.875000000000007 -19.5 C-22.875000000000004 -19.5, -22.875000000000004 -19.5, -22.875 -19.5" stroke="#89b4fa" stroke-width="1.3" fill="none" stroke-dasharray="0 0" style="fill:#89b4fa !important;stroke:#89b4fa !important"/></g><g class="label" style="color:#1e1e2e !important;font-weight:bold !important" transform="translate(-30, -12)"><rect/><foreignObject width="60" height="24"><div style="color: rgb(30, 30, 46) !important; font-weight: bold !important; display: table-cell; white-space: nowrap; line-height: 1.5; max-width: 200px; text-align: center;" xmlns="http://www.w3.org/1999/xhtml"><span style="color:#1e1e2e !important;font-weight:bold !important" class="nodeLabel "><p>laptop</p></span></div></foreignObject></g></g><g class="node default  " id="my-svg-flowchart-ctx_host-17" data-look="classic" transform="translate(107, 363.5)"><rect class="basic label-container" style="fill:#313244 !important;stroke:#6c7086 !important;stroke-width:2px !important" x="-95" y="-27" width="190" height="54"/><g class="label" style="" transform="translate(-65, -12)"><rect/><foreignObject width="130" height="24"><div xmlns="http://www.w3.org/1999/xhtml" style="display: table-cell; white-space: nowrap; line-height: 1.5; max-width: 200px; text-align: center;"><span class="nodeLabel "><p>host { host }</p></span></div></foreignObject></g></g><g class="node default  " id="my-svg-flowchart-ctx_hm_host-18" data-look="classic" transform="translate(712, 363.5)"><rect class="basic label-container" style="fill:#313244 !important;stroke:#6c7086 !important;stroke-width:2px !important" x="-110" y="-27" width="220" height="54"/><g class="label" style="" transform="translate(-80, -12)"><rect/><foreignObject width="160" height="24"><div xmlns="http://www.w3.org/1999/xhtml" style="display: table-cell; white-space: nowrap; line-height: 1.5; max-width: 200px; text-align: center;"><span class="nodeLabel "><p>hm-host { host }</p></span></div></foreignObject></g></g><g class="node default  " id="my-svg-flowchart-ctx_hm_user-19" data-look="classic" transform="translate(1369.5, 363.5)"><rect class="basic label-container" style="fill:#313244 !important;stroke:#6c7086 !important;stroke-width:2px !important" x="-130" y="-39" width="260" height="78"/><g class="label" style="" transform="translate(-100, -24)"><rect/><foreignObject width="200" height="48"><div xmlns="http://www.w3.org/1999/xhtml" style="display: table; white-space: break-spaces; line-height: 1.5; max-width: 200px; text-align: center; width: 200px;"><span class="nodeLabel "><p>hm-user { host, user }</p></span></div></foreignObject></g></g></g><g class="edges edgePaths"><path d="M527,82.5L553,82.5" id="my-svg-L_den__provides__mutual_provider_alice__to_hosts_0_0" class=" edge-thickness-normal edge-pattern-solid edge-thickness-normal edge-pattern-solid flowchart-link" style=";" data-edge="true" data-et="edge" data-id="L_den__provides__mutual_provider_alice__to_hosts_0_0" data-points="W3sieCI6NTI3LCJ5Ijo4Mi41fSx7IngiOjU1NywieSI6ODIuNX1d" data-look="classic" marker-end="url(#my-svg_flowchart-v2-pointEnd)"/><path d="M751,82.5L917,82.5" id="my-svg-L_alice__to_hosts_alice_0_0" class=" edge-thickness-normal edge-pattern-dotted edge-thickness-normal edge-pattern-solid flowchart-link" style=";" data-edge="true" data-et="edge" data-id="L_alice__to_hosts_alice_0_0" data-points="W3sieCI6NzUxLCJ5Ijo4Mi41fSx7IngiOjkyMSwieSI6ODIuNX1d" data-look="classic" marker-end="url(#my-svg_flowchart-v2-pointEnd)"/><path d="M1167.5,82.5L1170.75,82.5C1174,82.5,1180.5,82.5,1192.5,82.5C1204.5,82.5,1222,82.5,1233.333,82.5C1244.667,82.5,1249.833,82.5,1252.417,82.5L1255,82.5" id="my-svg-L_alice_demo_shell_0_0" class=" edge-thickness-normal edge-pattern-solid edge-thickness-normal edge-pattern-solid flowchart-link" style=";" data-edge="true" data-et="edge" data-id="L_alice_demo_shell_0_0" data-points="W3sieCI6MTE2Ny41LCJ5Ijo4Mi41fSx7IngiOjExODcsInkiOjgyLjV9LHsieCI6MTIzOS41LCJ5Ijo4Mi41fSx7IngiOjEyNTksInkiOjgyLjV9XQ==" data-look="classic" marker-end="url(#my-svg_flowchart-v2-pointEnd)"/><path d="M1167.5,82.5L1170.75,82.5C1174,82.5,1180.5,82.5,1188.75,82.5C1197,82.5,1207,82.5,1212.471,82.862C1217.943,83.224,1218.886,83.948,1219.719,84.781C1220.552,85.614,1221.276,86.557,1221.638,113.362C1222,140.167,1222,192.833,1222.362,219.638C1222.724,246.443,1223.448,247.386,1224.281,248.219C1225.114,249.052,1226.057,249.776,1228.612,250.138C1231.167,250.5,1235.333,250.5,1240,250.5C1244.667,250.5,1249.833,250.5,1252.417,250.5L1255,250.5" id="my-svg-L_alice_dev_tools_0_0" class=" edge-thickness-normal edge-pattern-solid edge-thickness-normal edge-pattern-solid flowchart-link" style=";" data-edge="true" data-et="edge" data-id="L_alice_dev_tools_0_0" data-points="W3sieCI6MTE2Ny41LCJ5Ijo4Mi41fSx7IngiOjExODcsInkiOjgyLjV9LHsieCI6MTIyMiwieSI6ODIuNX0seyJ4IjoxMjIyLCJ5IjoyNTAuNX0seyJ4IjoxMjM5LjUsInkiOjI1MC41fSx7IngiOjEyNTksInkiOjI1MC41fV0=" data-look="classic" marker-end="url(#my-svg_flowchart-v2-pointEnd)"/><path d="M1167.5,82.5L1170.75,82.5C1174,82.5,1180.5,82.5,1188.75,82.5C1197,82.5,1207,82.5,1212.471,82.862C1217.943,83.224,1218.886,83.948,1219.719,84.781C1220.552,85.614,1221.276,86.557,1221.638,99.362C1222,112.167,1222,136.833,1222.362,149.638C1222.724,162.443,1223.448,163.386,1224.281,164.219C1225.114,165.052,1226.057,165.776,1228.612,166.138C1231.167,166.5,1235.333,166.5,1240,166.5C1244.667,166.5,1249.833,166.5,1252.417,166.5L1255,166.5" id="my-svg-L_alice_hyprland_0_0" class=" edge-thickness-normal edge-pattern-solid edge-thickness-normal edge-pattern-solid flowchart-link" style=";" data-edge="true" data-et="edge" data-id="L_alice_hyprland_0_0" data-points="W3sieCI6MTE2Ny41LCJ5Ijo4Mi41fSx7IngiOjExODcsInkiOjgyLjV9LHsieCI6MTIyMiwieSI6ODIuNX0seyJ4IjoxMjIyLCJ5IjoxNjYuNX0seyJ4IjoxMjM5LjUsInkiOjE2Ni41fSx7IngiOjEyNTksInkiOjE2Ni41fV0=" data-look="classic" marker-end="url(#my-svg_flowchart-v2-pointEnd)"/><path d="M202,363.5L204.083,363.5C206.167,363.5,210.333,363.5,212.888,363.138C215.443,362.776,216.386,362.052,217.219,361.219C218.052,360.386,218.776,359.443,219.138,308.555C219.5,257.667,219.5,156.833,219.862,105.945C220.224,55.057,220.948,54.114,221.781,53.281C222.614,52.448,223.557,51.724,225.445,51.362C227.333,51,230.167,51,231.583,51L233,51" id="my-svg-L_ctx_host_ctx_default_0_0" class=" edge-thickness-normal edge-pattern-solid edge-thickness-normal edge-pattern-solid flowchart-link" style=";" data-edge="true" data-et="edge" data-id="L_ctx_host_ctx_default_0_0" data-points="W3sieCI6MjAyLCJ5IjozNjMuNX0seyJ4IjoyMTkuNSwieSI6MzYzLjV9LHsieCI6MjE5LjUsInkiOjUxfSx7IngiOjIzNywieSI6NTF9XQ==" data-look="classic" marker-end="url(#my-svg_flowchart-v2-pointEnd)"/><path d="M202,363.5L598,363.5" id="my-svg-L_ctx_host_ctx_hm_host_0_0" class=" edge-thickness-normal edge-pattern-solid edge-thickness-normal edge-pattern-solid flowchart-link" style=";" data-edge="true" data-et="edge" data-id="L_ctx_host_ctx_hm_host_0_0" data-points="W3sieCI6MjAyLCJ5IjozNjMuNX0seyJ4Ijo2MDIsInkiOjM2My41fV0=" data-look="classic" marker-end="url(#my-svg_flowchart-v2-pointEnd)"/><path d="M822,363.5L1235.5,363.5" id="my-svg-L_ctx_hm_host_ctx_hm_user_0_0" class=" edge-thickness-normal edge-pattern-solid edge-thickness-normal edge-pattern-solid flowchart-link" style=";" data-edge="true" data-et="edge" data-id="L_ctx_hm_host_ctx_hm_user_0_0" data-points="W3sieCI6ODIyLCJ5IjozNjMuNX0seyJ4IjoxMjM5LjUsInkiOjM2My41fV0=" data-look="classic" marker-end="url(#my-svg_flowchart-v2-pointEnd)"/><path d="M202,363.5L204.083,363.5C206.167,363.5,210.333,363.5,212.888,363.138C215.443,362.776,216.386,362.052,217.219,361.219C218.052,360.386,218.776,359.443,219.138,353.055C219.5,346.667,219.5,334.833,219.862,328.445C220.224,322.057,220.948,321.114,221.781,320.281C222.614,319.448,223.557,318.724,305.279,318.362C387,318,549.5,318,712,318C874.5,318,1037,318,1118.721,317.638C1200.443,317.276,1201.386,316.552,1202.219,315.719C1203.052,314.886,1203.776,313.943,1204.138,306.388C1204.5,298.833,1204.5,284.667,1204.862,277.112C1205.224,269.557,1205.948,268.614,1206.781,267.781C1207.614,266.948,1208.557,266.224,1213.445,265.862C1218.333,265.5,1227.167,265.5,1231.583,265.5L1236,265.5" id="my-svg-L_ctx_host_ctx_user_0_0" class=" edge-thickness-normal edge-pattern-solid edge-thickness-normal edge-pattern-solid flowchart-link" style=";" data-edge="true" data-et="edge" data-id="L_ctx_host_ctx_user_0_0" data-points="W3sieCI6MjAyLCJ5IjozNjMuNX0seyJ4IjoyMTkuNSwieSI6MzYzLjV9LHsieCI6MjE5LjUsInkiOjMxOH0seyJ4Ijo3MTIsInkiOjMxOH0seyJ4IjoxMjA0LjUsInkiOjMxOH0seyJ4IjoxMjA0LjUsInkiOjI2NS41fSx7IngiOjEyNDAsInkiOjI2NS41fV0=" data-look="classic" marker-end="url(#my-svg_flowchart-v2-pointEnd)"/><path d="M1240,265.5L1234.917,265.5C1229.833,265.5,1219.667,265.5,1214.112,265.138C1208.557,264.776,1207.614,264.052,1206.781,263.219C1205.948,262.386,1205.224,261.443,1204.862,220.388C1204.5,179.333,1204.5,98.167,1204.138,57.112C1203.776,16.057,1203.052,15.114,1202.219,14.281C1201.386,13.448,1200.443,12.724,1197.305,12.362C1194.167,12,1188.833,12,1186.167,12L1183.5,12" id="my-svg-L_ctx_user_ctx_default_0_0" class=" edge-thickness-normal edge-pattern-solid edge-thickness-normal edge-pattern-solid flowchart-link" style=";" data-edge="true" data-et="edge" data-id="L_ctx_user_ctx_default_0_0" data-points="W3sieCI6MTI0MCwieSI6MjY1LjV9LHsieCI6MTIwNC41LCJ5IjoyNjUuNX0seyJ4IjoxMjA0LjUsInkiOjEyfSx7IngiOjExNzkuNSwieSI6MTJ9XQ==" data-look="classic" marker-end="url(#my-svg_flowchart-v2-pointEnd)"/></g><g class="edgeLabels"><g class="edgeLabel"><g class="label" data-id="L_den__provides__mutual_provider_alice__to_hosts_0_0" transform="translate(0, 0)"><foreignObject width="0" height="0"><div xmlns="http://www.w3.org/1999/xhtml" class="labelBkg" style="display: table-cell; white-space: nowrap; line-height: 1.5; max-width: 200px; text-align: center;"><span class="edgeLabel "></span></div></foreignObject></g></g><g class="edgeLabel" transform="translate(836, 82)"><g class="label" data-id="L_alice__to_hosts_alice_0_0" transform="translate(-55, -12)"><foreignObject width="110" height="24"><div xmlns="http://www.w3.org/1999/xhtml" class="labelBkg" style="display: table-cell; white-space: nowrap; line-height: 1.5; max-width: 200px; text-align: center;"><span class="edgeLabel "><p>provided-by</p></span></div></foreignObject></g></g><g class="edgeLabel"><g class="label" data-id="L_alice_demo_shell_0_0" transform="translate(0, 0)"><foreignObject width="0" height="0"><div xmlns="http://www.w3.org/1999/xhtml" class="labelBkg" style="display: table-cell; white-space: nowrap; line-height: 1.5; max-width: 200px; text-align: center;"><span class="edgeLabel "></span></div></foreignObject></g></g><g class="edgeLabel"><g class="label" data-id="L_alice_dev_tools_0_0" transform="translate(0, 0)"><foreignObject width="0" height="0"><div xmlns="http://www.w3.org/1999/xhtml" class="labelBkg" style="display: table-cell; white-space: nowrap; line-height: 1.5; max-width: 200px; text-align: center;"><span class="edgeLabel "></span></div></foreignObject></g></g><g class="edgeLabel"><g class="label" data-id="L_alice_hyprland_0_0" transform="translate(0, 0)"><foreignObject width="0" height="0"><div xmlns="http://www.w3.org/1999/xhtml" class="labelBkg" style="display: table-cell; white-space: nowrap; line-height: 1.5; max-width: 200px; text-align: center;"><span class="edgeLabel "></span></div></foreignObject></g></g><g class="edgeLabel"><g class="label" data-id="L_ctx_host_ctx_default_0_0" transform="translate(0, 0)"><foreignObject width="0" height="0"><div xmlns="http://www.w3.org/1999/xhtml" class="labelBkg" style="display: table-cell; white-space: nowrap; line-height: 1.5; max-width: 200px; text-align: center;"><span class="edgeLabel "></span></div></foreignObject></g></g><g class="edgeLabel"><g class="label" data-id="L_ctx_host_ctx_hm_host_0_0" transform="translate(0, 0)"><foreignObject width="0" height="0"><div xmlns="http://www.w3.org/1999/xhtml" class="labelBkg" style="display: table-cell; white-space: nowrap; line-height: 1.5; max-width: 200px; text-align: center;"><span class="edgeLabel "></span></div></foreignObject></g></g><g class="edgeLabel"><g class="label" data-id="L_ctx_hm_host_ctx_hm_user_0_0" transform="translate(0, 0)"><foreignObject width="0" height="0"><div xmlns="http://www.w3.org/1999/xhtml" class="labelBkg" style="display: table-cell; white-space: nowrap; line-height: 1.5; max-width: 200px; text-align: center;"><span class="edgeLabel "></span></div></foreignObject></g></g><g class="edgeLabel"><g class="label" data-id="L_ctx_host_ctx_user_0_0" transform="translate(0, 0)"><foreignObject width="0" height="0"><div xmlns="http://www.w3.org/1999/xhtml" class="labelBkg" style="display: table-cell; white-space: nowrap; line-height: 1.5; max-width: 200px; text-align: center;"><span class="edgeLabel "></span></div></foreignObject></g></g><g class="edgeLabel"><g class="label" data-id="L_ctx_user_ctx_default_0_0" transform="translate(0, 0)"><foreignObject width="0" height="0"><div xmlns="http://www.w3.org/1999/xhtml" class="labelBkg" style="display: table-cell; white-space: nowrap; line-height: 1.5; max-width: 200px; text-align: center;"><span class="edgeLabel "></span></div></foreignObject></g></g></g></svg>