<?xml version="1.0" encoding="UTF-8" standalone="no"?>
<!DOCTYPE svg PUBLIC "-//W3C//DTD SVG 1.1//EN"
 "http://www.w3.org/Graphics/SVG/1.1/DTD/svg11.dtd">
<!-- Generated by graphviz version 12.2.1 (0)
 -->
<!-- Pages: 1 -->
<svg width="2360pt" height="1418pt"
 viewBox="0.00 0.00 2359.55 1418.00" xmlns="http://www.w3.org/2000/svg" xmlns:xlink="http://www.w3.org/1999/xlink">
<g id="graph0" class="graph" transform="scale(1 1) rotate(0) translate(4 1414)">
<polygon fill="#1e1e2e" stroke="none" points="-4,4 -4,-1414 2355.55,-1414 2355.55,4 -4,4"/>
<g id="clust1" class="cluster">
<title>cluster_ctx_host</title>
<polygon fill="#313244" stroke="#6c7086" stroke-dasharray="5,2" points="511.17,-722 511.17,-1121 2343.55,-1121 2343.55,-722 511.17,-722"/>
<text text-anchor="middle" x="1427.36" y="-1103.7" font-family="Times,serif" font-size="14.00" fill="#cdd6f4">host { host }</text>
</g>
<g id="clust2" class="cluster">
<title>cluster_ctx_default</title>
<polygon fill="#313244" stroke="#6c7086" stroke-dasharray="5,2" points="82,-1129 82,-1402 1543.3,-1402 1543.3,-1129 82,-1129"/>
<text text-anchor="middle" x="812.65" y="-1384.7" font-family="Times,serif" font-size="14.00" fill="#cdd6f4">default { host }</text>
</g>
<g id="clust3" class="cluster">
<title>cluster_ctx_hm_host</title>
<polygon fill="#313244" stroke="#6c7086" stroke-dasharray="5,2" points="82,-495 82,-714 731.8,-714 731.8,-495 82,-495"/>
<text text-anchor="middle" x="406.9" y="-696.7" font-family="Times,serif" font-size="14.00" fill="#cdd6f4">hm&#45;host { host }</text>
</g>
<g id="clust4" class="cluster">
<title>cluster_ctx_hm_user</title>
<polygon fill="#313244" stroke="#6c7086" stroke-dasharray="5,2" points="82,-268 82,-487 732.55,-487 732.55,-268 82,-268"/>
<text text-anchor="middle" x="407.27" y="-469.7" font-family="Times,serif" font-size="14.00" fill="#cdd6f4">hm&#45;user { host, user }</text>
</g>
<g id="clust5" class="cluster">
<title>cluster_ctx_user</title>
<polygon fill="#313244" stroke="#6c7086" stroke-dasharray="5,2" points="82,-8 82,-260 723.92,-260 723.92,-8 82,-8"/>
<text text-anchor="middle" x="402.96" y="-242.7" font-family="Times,serif" font-size="14.00" fill="#cdd6f4">user { host, user }</text>
</g>
<!-- mail_relay -->
<g id="node1" class="node">
<title>mail_relay</title>
<path fill="#89b4fa" stroke="#89b4fa" d="M274.31,-758C274.31,-758 211.06,-758 211.06,-758 205.06,-758 199.06,-752 199.06,-746 199.06,-746 199.06,-734 199.06,-734 199.06,-728 205.06,-722 211.06,-722 211.06,-722 274.31,-722 274.31,-722 280.31,-722 286.31,-728 286.31,-734 286.31,-734 286.31,-746 286.31,-746 286.31,-752 280.31,-758 274.31,-758"/>
<text text-anchor="middle" x="242.68" y="-735.33" font-family="Times,serif" font-size="14.00" fill="#1e1e2e">mail&#45;relay</text>
</g>
<!-- host__self_provide_host_ -->
<g id="node7" class="node">
<title>host__self_provide_host_</title>
<polygon fill="#f2cdcd" stroke="#f2cdcd" points="2335.55,-861 2159.8,-861 2159.8,-825 2335.55,-825 2335.55,-861"/>
<text text-anchor="middle" x="2247.68" y="-838.33" font-family="Times,serif" font-size="14.00" fill="#1e1e2e">host/self&#45;provide(host)</text>
</g>
<!-- mail_relay&#45;&gt;host__self_provide_host_ -->
<g id="edge32" class="edge">
<title>mail_relay&#45;&gt;host__self_provide_host_</title>
<path fill="none" stroke="#a6adc8" d="M286.55,-738.65C481.35,-732.66 1302.63,-709.14 1976.55,-716 2042.01,-716.67 2063.64,-693.2 2123.8,-719 2170.1,-738.86 2208.07,-785.2 2229.02,-815.27"/>
<polygon fill="#a6adc8" stroke="#a6adc8" points="2226.1,-817.2 2234.61,-823.52 2231.9,-813.28 2226.1,-817.2"/>
</g>
<!-- relay -->
<g id="node13" class="node">
<title>relay</title>
<polygon fill="#89b4fa" stroke="#89b4fa" points="654.3,-796 600.3,-796 600.3,-760 654.3,-760 654.3,-796"/>
<text text-anchor="middle" x="627.3" y="-773.33" font-family="Times,serif" font-size="14.00" fill="#1e1e2e">relay</text>
</g>
<!-- mail_relay&#45;&gt;relay -->
<g id="edge33" class="edge">
<title>mail_relay&#45;&gt;relay</title>
<path fill="none" stroke="#a6adc8" d="M286.46,-744.25C362.01,-751.75 517.81,-767.23 589.15,-774.31"/>
<polygon fill="#a6adc8" stroke="#a6adc8" points="588.45,-777.76 598.75,-775.26 589.14,-770.79 588.45,-777.76"/>
</g>
<!-- monitoring__alerting -->
<g id="node2" class="node">
<title>monitoring__alerting</title>
<polygon fill="#cba6f7" stroke="#f38ba8" stroke-dasharray="5,2" points="1864.02,-880 1683.84,-880 1619.67,-844 1928.19,-844 1864.02,-880"/>
<text text-anchor="middle" x="1773.93" y="-857.33" font-family="Times,serif" font-size="14.00" fill="#1e1e2e">monitoring/alerting</text>
</g>
<!-- monitoring -->
<g id="node9" class="node">
<title>monitoring</title>
<polygon fill="#89b4fa" stroke="#f38ba8" stroke-dasharray="5,2" points="2115.55,-928 2020.8,-928 2020.8,-892 2115.55,-892 2115.55,-928"/>
<text text-anchor="middle" x="2068.18" y="-905.33" font-family="Times,serif" font-size="14.00" fill="#1e1e2e">monitoring</text>
</g>
<!-- monitoring__alerting&#45;&gt;monitoring -->
<g id="edge54" class="edge">
<title>monitoring__alerting&#45;&gt;monitoring</title>
<path fill="none" stroke="#a6adc8" d="M1870.62,-876.84C1904.15,-882.13 1942.03,-888.21 1976.55,-894 1987.19,-895.78 1998.53,-897.74 2009.45,-899.65"/>
<polygon fill="#a6adc8" stroke="#a6adc8" points="2008.69,-903.07 2019.14,-901.36 2009.9,-896.18 2008.69,-903.07"/>
</g>
<!-- backup -->
<g id="node3" class="node">
<title>backup</title>
<polygon fill="#89b4fa" stroke="#89b4fa" points="2101.68,-861 2034.68,-861 2034.68,-825 2101.68,-825 2101.68,-861"/>
<text text-anchor="middle" x="2068.18" y="-838.33" font-family="Times,serif" font-size="14.00" fill="#1e1e2e">backup</text>
</g>
<!-- backup&#45;&gt;host__self_provide_host_ -->
<g id="edge1" class="edge">
<title>backup&#45;&gt;host__self_provide_host_</title>
<path fill="none" stroke="#a6adc8" d="M2102.15,-843C2115.43,-843 2131.5,-843 2148.05,-843"/>
<polygon fill="#a6adc8" stroke="#a6adc8" points="2148.03,-846.5 2158.03,-843 2148.03,-839.5 2148.03,-846.5"/>
</g>
<!-- virtualization__docker -->
<g id="node4" class="node">
<title>virtualization__docker</title>
<polygon fill="#cba6f7" stroke="#cba6f7" points="1868.8,-806 1679.06,-806 1611.48,-770 1936.37,-770 1868.8,-806"/>
<text text-anchor="middle" x="1773.93" y="-783.33" font-family="Times,serif" font-size="14.00" fill="#1e1e2e">virtualization/docker</text>
</g>
<!-- virtualization__docker&#45;&gt;host__self_provide_host_ -->
<g id="edge51" class="edge">
<title>virtualization__docker&#45;&gt;host__self_provide_host_</title>
<path fill="none" stroke="#a6adc8" d="M1893.27,-793.48C1961.02,-797.63 2047.48,-804.61 2123.8,-816 2135.26,-817.71 2147.25,-819.87 2159.05,-822.22"/>
<polygon fill="#a6adc8" stroke="#a6adc8" points="2158.31,-825.64 2168.8,-824.22 2159.71,-818.79 2158.31,-825.64"/>
</g>
<!-- virtualization -->
<g id="node16" class="node">
<title>virtualization</title>
<polygon fill="#89b4fa" stroke="#89b4fa" points="2123.8,-787 2012.55,-787 2012.55,-751 2123.8,-751 2123.8,-787"/>
<text text-anchor="middle" x="2068.18" y="-764.33" font-family="Times,serif" font-size="14.00" fill="#1e1e2e">virtualization</text>
</g>
<!-- virtualization__docker&#45;&gt;virtualization -->
<g id="edge55" class="edge">
<title>virtualization__docker&#45;&gt;virtualization</title>
<path fill="none" stroke="#a6adc8" d="M1921.48,-778.47C1949.26,-776.67 1977.03,-774.86 2000.75,-773.32"/>
<polygon fill="#a6adc8" stroke="#a6adc8" points="2000.79,-776.82 2010.55,-772.68 2000.34,-769.84 2000.79,-776.82"/>
</g>
<!-- host__aspect_host_ -->
<g id="node5" class="node">
<title>host__aspect_host_</title>
<polygon fill="#89b4fa" stroke="#89b4fa" points="696.8,-904 557.8,-904 557.8,-868 696.8,-868 696.8,-904"/>
<text text-anchor="middle" x="627.3" y="-881.33" font-family="Times,serif" font-size="14.00" fill="#1e1e2e">host/aspect(host)</text>
</g>
<!-- host__cross_provide__anon__ -->
<g id="node6" class="node">
<title>host__cross_provide__anon__</title>
<polygon fill="#cba6f7" stroke="#cba6f7" points="735.42,-850 519.17,-850 519.17,-814 735.42,-814 735.42,-850"/>
<text text-anchor="middle" x="627.3" y="-827.33" font-family="Times,serif" font-size="14.00" fill="#1e1e2e">host/cross&#45;provide(&lt;anon&gt;)</text>
</g>
<!-- mail -->
<g id="node8" class="node">
<title>mail</title>
<polygon fill="#f2cdcd" stroke="#f2cdcd" points="1224.26,-789 1170.26,-789 1170.26,-753 1224.26,-753 1224.26,-789"/>
<text text-anchor="middle" x="1197.26" y="-766.33" font-family="Times,serif" font-size="14.00" fill="#1e1e2e">mail</text>
</g>
<!-- mail&#45;&gt;host__self_provide_host_ -->
<g id="edge31" class="edge">
<title>mail&#45;&gt;host__self_provide_host_</title>
<path fill="none" stroke="#a6adc8" d="M1224.44,-767.79C1285.23,-760.51 1440.72,-742.94 1571.3,-737 1693.96,-731.42 2008.93,-698.64 2123.8,-742 2164.3,-757.29 2201.27,-791.72 2223.85,-816.12"/>
<polygon fill="#a6adc8" stroke="#a6adc8" points="2221.19,-818.4 2230.49,-823.48 2226.39,-813.71 2221.19,-818.4"/>
</g>
<!-- networking -->
<g id="node10" class="node">
<title>networking</title>
<polygon fill="#89b4fa" stroke="#89b4fa" points="2116.68,-1014 2019.68,-1014 2019.68,-978 2116.68,-978 2116.68,-1014"/>
<text text-anchor="middle" x="2068.18" y="-991.33" font-family="Times,serif" font-size="14.00" fill="#1e1e2e">networking</text>
</g>
<!-- networking&#45;&gt;host__self_provide_host_ -->
<g id="edge34" class="edge">
<title>networking&#45;&gt;host__self_provide_host_</title>
<path fill="none" stroke="#a6adc8" d="M2103.54,-977.63C2110.45,-973.45 2117.52,-968.81 2123.8,-964 2161.59,-935.04 2199.85,-895.37 2223.41,-869.47"/>
<polygon fill="#a6adc8" stroke="#a6adc8" points="2225.71,-872.15 2229.8,-862.37 2220.51,-867.46 2225.71,-872.15"/>
</g>
<!-- monitoring__nginx_exporter -->
<g id="node11" class="node">
<title>monitoring__nginx_exporter</title>
<polygon fill="#89b4fa" stroke="#f38ba8" stroke-dasharray="5,2" points="1892.26,-954 1655.59,-954 1571.3,-918 1976.55,-918 1892.26,-954"/>
<text text-anchor="middle" x="1773.93" y="-931.33" font-family="Times,serif" font-size="14.00" fill="#1e1e2e">monitoring/nginx&#45;exporter</text>
</g>
<!-- monitoring__nginx_exporter&#45;&gt;monitoring -->
<g id="edge53" class="edge">
<title>monitoring__nginx_exporter&#45;&gt;monitoring</title>
<path fill="none" stroke="#a6adc8" d="M1977.91,-917.94C1988.98,-916.96 1999.55,-916.02 2009.28,-915.15"/>
<polygon fill="#a6adc8" stroke="#a6adc8" points="2009.55,-918.64 2019.2,-914.27 2008.93,-911.67 2009.55,-918.64"/>
</g>
<!-- monitoring__node_exporter -->
<g id="node12" class="node">
<title>monitoring__node_exporter</title>
<polygon fill="#f2cdcd" stroke="#f38ba8" stroke-dasharray="5,2" points="1889.66,-1008 1658.2,-1008 1575.77,-972 1972.09,-972 1889.66,-1008"/>
<text text-anchor="middle" x="1773.93" y="-985.33" font-family="Times,serif" font-size="14.00" fill="#1e1e2e">monitoring/node&#45;exporter</text>
</g>
<!-- monitoring__node_exporter&#45;&gt;monitoring -->
<g id="edge52" class="edge">
<title>monitoring__node_exporter&#45;&gt;monitoring</title>
<path fill="none" stroke="#a6adc8" d="M1947.59,-971.55C1957.48,-969.05 1967.2,-966.22 1976.55,-963 1996.11,-956.28 2016.13,-945.1 2032.36,-934.74"/>
<polygon fill="#a6adc8" stroke="#a6adc8" points="2034.25,-937.7 2040.68,-929.28 2030.4,-931.85 2034.25,-937.7"/>
</g>
<!-- relay&#45;&gt;host__self_provide_host_ -->
<g id="edge35" class="edge">
<title>relay&#45;&gt;host__self_provide_host_</title>
<path fill="none" stroke="#a6adc8" d="M654.57,-773.49C695.7,-768.01 775.54,-764.04 823.23,-805 865.79,-841.56 817.64,-888.34 859.23,-926 1050.83,-1099.5 1754.1,-1072.9 2012.55,-1077 2061.99,-1077.78 2081.49,-1102.58 2123.8,-1077 2198.49,-1031.86 2230.02,-924.64 2241.3,-872.5"/>
<polygon fill="#a6adc8" stroke="#a6adc8" points="2244.7,-873.35 2243.27,-862.85 2237.84,-871.95 2244.7,-873.35"/>
</g>
<!-- relay&#45;&gt;mail -->
<g id="edge36" class="edge">
<title>relay&#45;&gt;mail</title>
<path fill="none" stroke="#a6adc8" d="M654.55,-777.68C746.13,-776.55 1051.66,-772.78 1158.77,-771.46"/>
<polygon fill="#a6adc8" stroke="#a6adc8" points="1158.49,-774.97 1168.45,-771.34 1158.41,-767.97 1158.49,-774.97"/>
</g>
<!-- server -->
<g id="node14" class="node">
<title>server</title>
<polygon fill="#89b4fa" stroke="#89b4fa" points="1228.14,-917 1166.39,-917 1166.39,-881 1228.14,-881 1228.14,-917"/>
<text text-anchor="middle" x="1197.26" y="-894.33" font-family="Times,serif" font-size="14.00" fill="#1e1e2e">server</text>
</g>
<!-- relay&#45;&gt;server -->
<g id="edge37" class="edge">
<title>relay&#45;&gt;server</title>
<path fill="none" stroke="#a6adc8" d="M654.62,-780.72C692.21,-784.82 763.37,-793.35 823.23,-805 945.25,-828.75 1087.05,-867.66 1155.35,-887.13"/>
<polygon fill="#a6adc8" stroke="#a6adc8" points="1154.02,-890.39 1164.6,-889.77 1155.95,-883.66 1154.02,-890.39"/>
</g>
<!-- server&#45;&gt;monitoring__alerting -->
<g id="edge38" class="edge">
<title>server&#45;&gt;monitoring__alerting</title>
<path fill="none" stroke="#f38ba8" stroke-dasharray="5,2" d="M1228.35,-897.06C1306.07,-892.06 1516.9,-878.48 1652.28,-869.77"/>
<polygon fill="#f38ba8" stroke="#f38ba8" points="1652.25,-873.28 1662,-869.14 1651.8,-866.29 1652.25,-873.28"/>
</g>
<!-- server&#45;&gt;backup -->
<g id="edge39" class="edge">
<title>server&#45;&gt;backup</title>
<path fill="none" stroke="#a6adc8" d="M1228.5,-892.01C1291.71,-877.8 1442.65,-845.96 1571.3,-835 1750.76,-819.72 1796.62,-827.07 1976.55,-835 1991.74,-835.67 2008.32,-836.97 2023.1,-838.32"/>
<polygon fill="#a6adc8" stroke="#a6adc8" points="2022.71,-841.8 2033,-839.27 2023.38,-834.83 2022.71,-841.8"/>
</g>
<!-- server&#45;&gt;virtualization__docker -->
<g id="edge40" class="edge">
<title>server&#45;&gt;virtualization__docker</title>
<path fill="none" stroke="#a6adc8" d="M1228.62,-892.02C1292.06,-877.55 1443.39,-843.68 1571.3,-820 1600.35,-814.62 1631.86,-809.35 1661.14,-804.69"/>
<polygon fill="#a6adc8" stroke="#a6adc8" points="1661.42,-808.19 1670.75,-803.18 1660.33,-801.28 1661.42,-808.19"/>
</g>
<!-- server&#45;&gt;host__self_provide_host_ -->
<g id="edge41" class="edge">
<title>server&#45;&gt;host__self_provide_host_</title>
<path fill="none" stroke="#a6adc8" d="M1228.45,-912.06C1290.96,-938.31 1439.73,-996.69 1571.3,-1017 1615.8,-1023.87 1936.28,-1037.14 1976.55,-1017 2000.4,-1005.07 1990.6,-984.14 2012.55,-969 2054.91,-939.79 2077.85,-960.14 2123.8,-937 2159.54,-919 2195.29,-890.12 2218.94,-869.12"/>
<polygon fill="#a6adc8" stroke="#a6adc8" points="2221.19,-871.8 2226.26,-862.51 2216.5,-866.61 2221.19,-871.8"/>
</g>
<!-- server&#45;&gt;monitoring -->
<g id="edge42" class="edge">
<title>server&#45;&gt;monitoring</title>
<path fill="none" stroke="#f38ba8" stroke-dasharray="5,2" d="M1228.43,-899.38C1354.51,-900.98 1840.58,-907.13 2009.18,-909.27"/>
<polygon fill="#f38ba8" stroke="#f38ba8" points="2008.97,-912.76 2019.02,-909.39 2009.06,-905.76 2008.97,-912.76"/>
</g>
<!-- server&#45;&gt;networking -->
<g id="edge43" class="edge">
<title>server&#45;&gt;networking</title>
<path fill="none" stroke="#a6adc8" d="M1228.25,-913.71C1290.39,-943.27 1438.51,-1009.04 1571.3,-1032 1748.78,-1062.69 1799.65,-1065.85 1976.55,-1032 1990.99,-1029.24 2006.05,-1024.21 2019.66,-1018.77"/>
<polygon fill="#a6adc8" stroke="#a6adc8" points="2020.94,-1022.03 2028.82,-1014.94 2018.24,-1015.57 2020.94,-1022.03"/>
</g>
<!-- server&#45;&gt;monitoring__nginx_exporter -->
<g id="edge44" class="edge">
<title>server&#45;&gt;monitoring__nginx_exporter</title>
<path fill="none" stroke="#f38ba8" stroke-dasharray="5,2" d="M1228.35,-900.94C1291.96,-905.03 1444.73,-914.87 1572.33,-923.08"/>
<polygon fill="#f38ba8" stroke="#f38ba8" points="1572.09,-926.58 1582.3,-923.73 1572.54,-919.59 1572.09,-926.58"/>
</g>
<!-- server&#45;&gt;monitoring__node_exporter -->
<g id="edge45" class="edge">
<title>server&#45;&gt;monitoring__node_exporter</title>
<path fill="none" stroke="#f38ba8" stroke-dasharray="5,2" d="M1228.18,-904.52C1291.41,-916.09 1443.34,-943.46 1571.3,-963 1586.69,-965.35 1602.76,-967.69 1618.81,-969.96"/>
<polygon fill="#f38ba8" stroke="#f38ba8" points="1618.03,-973.38 1628.42,-971.3 1619,-966.45 1618.03,-973.38"/>
</g>
<!-- tailscale -->
<g id="node15" class="node">
<title>tailscale</title>
<polygon fill="#f2cdcd" stroke="#f2cdcd" points="2105.8,-1068 2030.55,-1068 2030.55,-1032 2105.8,-1032 2105.8,-1068"/>
<text text-anchor="middle" x="2068.18" y="-1045.33" font-family="Times,serif" font-size="14.00" fill="#1e1e2e">tailscale</text>
</g>
<!-- server&#45;&gt;tailscale -->
<g id="edge46" class="edge">
<title>server&#45;&gt;tailscale</title>
<path fill="none" stroke="#a6adc8" d="M1228.48,-915.81C1290.44,-949.2 1437.35,-1022.94 1571.3,-1049 1732.85,-1080.43 1929.64,-1065.48 2018.96,-1055.89"/>
<polygon fill="#a6adc8" stroke="#a6adc8" points="2019.26,-1059.38 2028.82,-1054.8 2018.5,-1052.42 2019.26,-1059.38"/>
</g>
<!-- server&#45;&gt;virtualization -->
<g id="edge47" class="edge">
<title>server&#45;&gt;virtualization</title>
<path fill="none" stroke="#a6adc8" d="M1228.19,-896.55C1291.57,-890.11 1441.83,-868 1543.3,-798 1560.28,-786.29 1552.84,-770.18 1571.3,-761 1644.79,-724.45 1883.85,-746.78 2001.1,-760.56"/>
<polygon fill="#a6adc8" stroke="#a6adc8" points="2000.56,-764.02 2010.9,-761.72 2001.38,-757.07 2000.56,-764.02"/>
</g>
<!-- tailscale&#45;&gt;host__self_provide_host_ -->
<g id="edge48" class="edge">
<title>tailscale&#45;&gt;host__self_provide_host_</title>
<path fill="none" stroke="#a6adc8" d="M2106.07,-1035.03C2112.35,-1031.59 2118.53,-1027.58 2123.8,-1023 2174.32,-979.1 2213.68,-909.94 2233.19,-871.38"/>
<polygon fill="#a6adc8" stroke="#a6adc8" points="2236.18,-873.23 2237.49,-862.72 2229.91,-870.12 2236.18,-873.23"/>
</g>
<!-- virtualization&#45;&gt;host__self_provide_host_ -->
<g id="edge50" class="edge">
<title>virtualization&#45;&gt;host__self_provide_host_</title>
<path fill="none" stroke="#a6adc8" d="M2113.51,-787.48C2137.32,-797.41 2166.88,-809.73 2192.09,-820.24"/>
<polygon fill="#a6adc8" stroke="#a6adc8" points="2190.63,-823.43 2201.21,-824.04 2193.32,-816.96 2190.63,-823.43"/>
</g>
<!-- n_default -->
<g id="node17" class="node">
<title>n_default</title>
<polygon fill="#fab387" stroke="#fab387" points="395.37,-1172 319.03,-1206.7 166.34,-1206.7 90,-1172 166.34,-1137.3 319.03,-1137.3 395.37,-1172"/>
<text text-anchor="middle" x="242.68" y="-1175.95" font-family="Times,serif" font-size="14.00" fill="#1e1e2e">default</text>
<text text-anchor="middle" x="242.68" y="-1158.7" font-family="Times,serif" font-size="14.00" fill="#1e1e2e">({ aspect&#45;chain, class })</text>
</g>
<!-- default__aspect_default_ -->
<g id="node18" class="node">
<title>default__aspect_default_</title>
<polygon fill="#a6e3a1" stroke="#a6e3a1" points="1286.26,-1193 1108.26,-1193 1108.26,-1157 1286.26,-1157 1286.26,-1193"/>
<text text-anchor="middle" x="1197.26" y="-1170.33" font-family="Times,serif" font-size="14.00" fill="#1e1e2e">default/aspect(default)</text>
</g>
<!-- n_default&#45;&gt;default__aspect_default_ -->
<g id="edge2" class="edge">
<title>n_default&#45;&gt;default__aspect_default_</title>
<path fill="none" stroke="#a6adc8" d="M358.85,-1154.93C382.77,-1152.04 407.85,-1149.5 431.37,-1148 669.82,-1132.82 950.67,-1152.28 1096.71,-1165.22"/>
<polygon fill="#a6adc8" stroke="#a6adc8" points="1096.07,-1168.67 1106.34,-1166.08 1096.69,-1161.7 1096.07,-1168.67"/>
</g>
<!-- den__provides__define_user -->
<g id="node23" class="node">
<title>den__provides__define_user</title>
<polygon fill="#a6e3a1" stroke="#a6e3a1" points="720.87,-1247 533.73,-1247 467.08,-1211 787.51,-1211 720.87,-1247"/>
<text text-anchor="middle" x="627.3" y="-1224.33" font-family="Times,serif" font-size="14.00" fill="#1e1e2e">provides/define&#45;user</text>
</g>
<!-- n_default&#45;&gt;den__provides__define_user -->
<g id="edge3" class="edge">
<title>n_default&#45;&gt;den__provides__define_user</title>
<path fill="none" stroke="#a6adc8" d="M355.77,-1190.31C380.65,-1194.26 406.89,-1198.35 431.37,-1202 446.81,-1204.3 462.96,-1206.65 479.05,-1208.94"/>
<polygon fill="#a6adc8" stroke="#a6adc8" points="478.29,-1212.36 488.69,-1210.3 479.28,-1205.43 478.29,-1212.36"/>
</g>
<!-- den__provides__hostname -->
<g id="node24" class="node">
<title>den__provides__hostname</title>
<polygon fill="#fab387" stroke="#fab387" points="715.22,-1301 539.38,-1301 476.76,-1265 777.84,-1265 715.22,-1301"/>
<text text-anchor="middle" x="627.3" y="-1278.33" font-family="Times,serif" font-size="14.00" fill="#1e1e2e">provides/hostname</text>
</g>
<!-- n_default&#45;&gt;den__provides__hostname -->
<g id="edge4" class="edge">
<title>n_default&#45;&gt;den__provides__hostname</title>
<path fill="none" stroke="#a6adc8" d="M348.18,-1193.95C364.64,-1199.73 380.97,-1206.97 395.37,-1216 415.63,-1228.71 410.24,-1244.79 431.37,-1256 448.88,-1265.29 468.46,-1271.75 488.27,-1276.2"/>
<polygon fill="#a6adc8" stroke="#a6adc8" points="487.31,-1279.57 497.81,-1278.16 488.72,-1272.72 487.31,-1279.57"/>
</g>
<!-- den__provides__mutual_provider -->
<g id="node25" class="node">
<title>den__provides__mutual_provider</title>
<polygon fill="#f9e2af" stroke="#f9e2af" points="741.72,-1193 512.87,-1193 431.37,-1157 823.23,-1157 741.72,-1193"/>
<text text-anchor="middle" x="627.3" y="-1170.33" font-family="Times,serif" font-size="14.00" fill="#1e1e2e">provides/mutual&#45;provider</text>
</g>
<!-- n_default&#45;&gt;den__provides__mutual_provider -->
<g id="edge5" class="edge">
<title>n_default&#45;&gt;den__provides__mutual_provider</title>
<path fill="none" stroke="#a6adc8" d="M393.81,-1173.18C414.48,-1173.34 435.83,-1173.51 456.82,-1173.67"/>
<polygon fill="#a6adc8" stroke="#a6adc8" points="456.56,-1177.17 466.59,-1173.75 456.61,-1170.17 456.56,-1177.17"/>
</g>
<!-- den__provides__default__aspect_default__den__provides -->
<g id="node19" class="node">
<title>den__provides__default__aspect_default__den__provides</title>
<polygon fill="#a6e3a1" stroke="#a6e3a1" points="1394.69,-1247 999.84,-1247 859.23,-1211 1535.3,-1211 1394.69,-1247"/>
<text text-anchor="middle" x="1197.26" y="-1224.33" font-family="Times,serif" font-size="14.00" fill="#1e1e2e">provides/default/aspect(default):den/provides</text>
</g>
<!-- default__cross_provide_host_ -->
<g id="node20" class="node">
<title>default__cross_provide_host_</title>
<polygon fill="#f9e2af" stroke="#f9e2af" points="346.68,-1261 138.68,-1261 138.68,-1225 346.68,-1225 346.68,-1261"/>
<text text-anchor="middle" x="242.68" y="-1238.33" font-family="Times,serif" font-size="14.00" fill="#1e1e2e">default/cross&#45;provide(host)</text>
</g>
<!-- default__cross_provide_user_ -->
<g id="node21" class="node">
<title>default__cross_provide_user_</title>
<polygon fill="#f9e2af" stroke="#f9e2af" points="347.06,-1315 138.31,-1315 138.31,-1279 347.06,-1279 347.06,-1315"/>
<text text-anchor="middle" x="242.68" y="-1292.33" font-family="Times,serif" font-size="14.00" fill="#1e1e2e">default/cross&#45;provide(user)</text>
</g>
<!-- default__self_provide_default_ -->
<g id="node22" class="node">
<title>default__self_provide_default_</title>
<polygon fill="#fab387" stroke="#fab387" points="350.06,-1369 135.31,-1369 135.31,-1333 350.06,-1333 350.06,-1369"/>
<text text-anchor="middle" x="242.68" y="-1346.33" font-family="Times,serif" font-size="14.00" fill="#1e1e2e">default/self&#45;provide(default)</text>
</g>
<!-- den__provides__define_user&#45;&gt;default__aspect_default_ -->
<g id="edge6" class="edge">
<title>den__provides__define_user&#45;&gt;default__aspect_default_</title>
<path fill="none" stroke="#a6adc8" d="M779.45,-1210.53C806.02,-1207.51 833.42,-1204.54 859.23,-1202 938.89,-1194.15 1029.31,-1187.01 1096.43,-1182.04"/>
<polygon fill="#a6adc8" stroke="#a6adc8" points="1096.61,-1185.54 1106.33,-1181.31 1096.1,-1178.55 1096.61,-1185.54"/>
</g>
<!-- den__provides__define_user&#45;&gt;den__provides__default__aspect_default__den__provides -->
<g id="edge7" class="edge">
<title>den__provides__define_user&#45;&gt;den__provides__default__aspect_default__den__provides</title>
<path fill="none" stroke="#a6adc8" d="M755.05,-1229C803.02,-1229 859.73,-1229 916.23,-1229"/>
<polygon fill="#a6adc8" stroke="#a6adc8" points="916.01,-1232.5 926.01,-1229 916.01,-1225.5 916.01,-1232.5"/>
</g>
<!-- den__provides__hostname&#45;&gt;default__aspect_default_ -->
<g id="edge8" class="edge">
<title>den__provides__hostname&#45;&gt;default__aspect_default_</title>
<path fill="none" stroke="#a6adc8" d="M748.75,-1282.28C774.77,-1277.89 801.09,-1269.89 823.23,-1256 847.66,-1240.67 834.36,-1216.62 859.23,-1202 930.68,-1160 1025.84,-1156.12 1096.82,-1161.08"/>
<polygon fill="#a6adc8" stroke="#a6adc8" points="1096.25,-1164.55 1106.49,-1161.83 1096.79,-1157.57 1096.25,-1164.55"/>
</g>
<!-- den__provides__hostname&#45;&gt;den__provides__default__aspect_default__den__provides -->
<g id="edge9" class="edge">
<title>den__provides__hostname&#45;&gt;den__provides__default__aspect_default__den__provides</title>
<path fill="none" stroke="#a6adc8" d="M770.89,-1269.44C837.38,-1263.12 917.76,-1255.48 990.67,-1248.55"/>
<polygon fill="#a6adc8" stroke="#a6adc8" points="990.7,-1252.06 1000.33,-1247.63 990.04,-1245.09 990.7,-1252.06"/>
</g>
<!-- den__provides__mutual_provider&#45;&gt;default__aspect_default_ -->
<g id="edge10" class="edge">
<title>den__provides__mutual_provider&#45;&gt;default__aspect_default_</title>
<path fill="none" stroke="#a6adc8" d="M783.5,-1175C883.3,-1175 1010.02,-1175 1096.56,-1175"/>
<polygon fill="#a6adc8" stroke="#a6adc8" points="1096.45,-1178.5 1106.45,-1175 1096.45,-1171.5 1096.45,-1178.5"/>
</g>
<!-- den__provides__mutual_provider&#45;&gt;den__provides__default__aspect_default__den__provides -->
<g id="edge11" class="edge">
<title>den__provides__mutual_provider&#45;&gt;den__provides__default__aspect_default__den__provides</title>
<path fill="none" stroke="#a6adc8" d="M749.56,-1190.02C784.89,-1194.17 823.58,-1198.49 859.23,-1202 885.67,-1204.6 913.3,-1207.13 940.87,-1209.53"/>
<polygon fill="#a6adc8" stroke="#a6adc8" points="940.48,-1213.01 950.75,-1210.38 941.08,-1206.03 940.48,-1213.01"/>
</g>
<!-- hm_host -->
<g id="node26" class="node">
<title>hm_host</title>
<polygon fill="#cba6f7" stroke="#cba6f7" points="395.37,-592 319.03,-626.7 166.34,-626.7 90,-592 166.34,-557.3 319.03,-557.3 395.37,-592"/>
<text text-anchor="middle" x="242.68" y="-595.95" font-family="Times,serif" font-size="14.00" fill="#1e1e2e">hm&#45;host</text>
<text text-anchor="middle" x="242.68" y="-578.7" font-family="Times,serif" font-size="14.00" fill="#1e1e2e">({ aspect&#45;chain, class })</text>
</g>
<!-- hm_host__aspect_hm_host_ -->
<g id="node27" class="node">
<title>hm_host__aspect_hm_host_</title>
<polygon fill="#89b4fa" stroke="#89b4fa" points="723.8,-610 530.8,-610 530.8,-574 723.8,-574 723.8,-610"/>
<text text-anchor="middle" x="627.3" y="-587.33" font-family="Times,serif" font-size="14.00" fill="#1e1e2e">hm&#45;host/aspect(hm&#45;host)</text>
</g>
<!-- hm_host&#45;&gt;hm_host__aspect_hm_host_ -->
<g id="edge13" class="edge">
<title>hm_host&#45;&gt;hm_host__aspect_hm_host_</title>
<path fill="none" stroke="#a6adc8" d="M396.55,-592C437.66,-592 481.24,-592 519.27,-592"/>
<polygon fill="#a6adc8" stroke="#a6adc8" points="518.85,-595.5 528.85,-592 518.85,-588.5 518.85,-595.5"/>
</g>
<!-- hm_host__cross_provide_host_ -->
<g id="node28" class="node">
<title>hm_host__cross_provide_host_</title>
<polygon fill="#f2cdcd" stroke="#f2cdcd" points="350.43,-681 134.93,-681 134.93,-645 350.43,-645 350.43,-681"/>
<text text-anchor="middle" x="242.68" y="-658.33" font-family="Times,serif" font-size="14.00" fill="#1e1e2e">hm&#45;host/cross&#45;provide(host)</text>
</g>
<!-- hm_host__self_provide_hm_host_ -->
<g id="node29" class="node">
<title>hm_host__self_provide_hm_host_</title>
<polygon fill="#cba6f7" stroke="#cba6f7" points="357.56,-539 127.81,-539 127.81,-503 357.56,-503 357.56,-539"/>
<text text-anchor="middle" x="242.68" y="-516.33" font-family="Times,serif" font-size="14.00" fill="#1e1e2e">hm&#45;host/self&#45;provide(hm&#45;host)</text>
</g>
<!-- hm_user -->
<g id="node30" class="node">
<title>hm_user</title>
<polygon fill="#fab387" stroke="#fab387" points="395.37,-365 319.03,-399.7 166.34,-399.7 90,-365 166.34,-330.3 319.03,-330.3 395.37,-365"/>
<text text-anchor="middle" x="242.68" y="-368.95" font-family="Times,serif" font-size="14.00" fill="#1e1e2e">hm&#45;user</text>
<text text-anchor="middle" x="242.68" y="-351.7" font-family="Times,serif" font-size="14.00" fill="#1e1e2e">({ aspect&#45;chain, class })</text>
</g>
<!-- hm_user__aspect_hm_user_ -->
<g id="node31" class="node">
<title>hm_user__aspect_hm_user_</title>
<polygon fill="#a6e3a1" stroke="#a6e3a1" points="724.55,-383 530.05,-383 530.05,-347 724.55,-347 724.55,-383"/>
<text text-anchor="middle" x="627.3" y="-360.32" font-family="Times,serif" font-size="14.00" fill="#1e1e2e">hm&#45;user/aspect(hm&#45;user)</text>
</g>
<!-- hm_user&#45;&gt;hm_user__aspect_hm_user_ -->
<g id="edge14" class="edge">
<title>hm_user&#45;&gt;hm_user__aspect_hm_user_</title>
<path fill="none" stroke="#a6adc8" d="M396.55,-365C437.47,-365 480.84,-365 518.75,-365"/>
<polygon fill="#a6adc8" stroke="#a6adc8" points="518.29,-368.5 528.29,-365 518.29,-361.5 518.29,-368.5"/>
</g>
<!-- hm_user__cross_provide_hm_host_ -->
<g id="node32" class="node">
<title>hm_user__cross_provide_hm_host_</title>
<polygon fill="#a6e3a1" stroke="#a6e3a1" points="364.31,-454 121.06,-454 121.06,-418 364.31,-418 364.31,-454"/>
<text text-anchor="middle" x="242.68" y="-431.32" font-family="Times,serif" font-size="14.00" fill="#1e1e2e">hm&#45;user/cross&#45;provide(hm&#45;host)</text>
</g>
<!-- hm_user__self_provide_hm_user_ -->
<g id="node33" class="node">
<title>hm_user__self_provide_hm_user_</title>
<polygon fill="#fab387" stroke="#fab387" points="358.31,-312 127.06,-312 127.06,-276 358.31,-276 358.31,-312"/>
<text text-anchor="middle" x="242.68" y="-289.32" font-family="Times,serif" font-size="14.00" fill="#1e1e2e">hm&#45;user/self&#45;provide(hm&#45;user)</text>
</g>
<!-- deploy -->
<g id="node34" class="node">
<title>deploy</title>
<polygon fill="#f2cdcd" stroke="#f2cdcd" points="395.37,-105 319.03,-139.7 166.34,-139.7 90,-105 166.34,-70.3 319.03,-70.3 395.37,-105"/>
<text text-anchor="middle" x="242.68" y="-108.95" font-family="Times,serif" font-size="14.00" fill="#1e1e2e">deploy</text>
<text text-anchor="middle" x="242.68" y="-91.7" font-family="Times,serif" font-size="14.00" fill="#1e1e2e">({ aspect&#45;chain, class })</text>
</g>
<!-- user__self_provide_user_ -->
<g id="node38" class="node">
<title>user__self_provide_user_</title>
<polygon fill="#f2cdcd" stroke="#f2cdcd" points="715.92,-123 538.67,-123 538.67,-87 715.92,-87 715.92,-123"/>
<text text-anchor="middle" x="627.3" y="-100.33" font-family="Times,serif" font-size="14.00" fill="#1e1e2e">user/self&#45;provide(user)</text>
</g>
<!-- deploy&#45;&gt;user__self_provide_user_ -->
<g id="edge12" class="edge">
<title>deploy&#45;&gt;user__self_provide_user_</title>
<path fill="none" stroke="#a6adc8" d="M396.55,-105C440.5,-105 487.28,-105 527.07,-105"/>
<polygon fill="#a6adc8" stroke="#a6adc8" points="526.86,-108.5 536.86,-105 526.86,-101.5 526.86,-108.5"/>
</g>
<!-- user -->
<g id="node35" class="node">
<title>user</title>
<polygon fill="#f2cdcd" stroke="#f2cdcd" points="395.37,-192 319.03,-226.7 166.34,-226.7 90,-192 166.34,-157.3 319.03,-157.3 395.37,-192"/>
<text text-anchor="middle" x="242.68" y="-195.95" font-family="Times,serif" font-size="14.00" fill="#1e1e2e">user</text>
<text text-anchor="middle" x="242.68" y="-178.7" font-family="Times,serif" font-size="14.00" fill="#1e1e2e">({ aspect&#45;chain, class })</text>
</g>
<!-- user__aspect_user_ -->
<g id="node36" class="node">
<title>user__aspect_user_</title>
<polygon fill="#fab387" stroke="#fab387" points="697.55,-210 557.05,-210 557.05,-174 697.55,-174 697.55,-210"/>
<text text-anchor="middle" x="627.3" y="-187.32" font-family="Times,serif" font-size="14.00" fill="#1e1e2e">user/aspect(user)</text>
</g>
<!-- user&#45;&gt;user__aspect_user_ -->
<g id="edge49" class="edge">
<title>user&#45;&gt;user__aspect_user_</title>
<path fill="none" stroke="#a6adc8" d="M396.55,-192C447.47,-192 502.19,-192 545.44,-192"/>
<polygon fill="#a6adc8" stroke="#a6adc8" points="545.24,-195.5 555.24,-192 545.24,-188.5 545.24,-195.5"/>
</g>
<!-- user__cross_provide_host_ -->
<g id="node37" class="node">
<title>user__cross_provide_host_</title>
<polygon fill="#f38ba8" stroke="#f38ba8" points="337.31,-52 148.06,-52 148.06,-16 337.31,-16 337.31,-52"/>
<text text-anchor="middle" x="242.68" y="-29.32" font-family="Times,serif" font-size="14.00" fill="#1e1e2e">user/cross&#45;provide(host)</text>
</g>
<!-- host -->
<g id="node39" class="node">
<title>host</title>
<polygon fill="#fab387" stroke="#fab387" points="54,-645 0,-645 0,-609 54,-609 54,-645"/>
<text text-anchor="middle" x="27" y="-622.33" font-family="Times,serif" font-size="14.00" fill="#1e1e2e">host</text>
</g>
<!-- host&#45;&gt;mail_relay -->
<g id="edge28" class="edge">
<title>host&#45;&gt;mail_relay</title>
<path fill="none" stroke="#a6adc8" d="M33.51,-645.44C40.89,-666.67 56.13,-700.83 82,-718 112.87,-738.49 154.51,-743.67 187.54,-743.9"/>
<polygon fill="#a6adc8" stroke="#a6adc8" points="187.35,-747.4 197.31,-743.8 187.28,-740.4 187.35,-747.4"/>
</g>
<!-- host&#45;&gt;host__aspect_host_ -->
<g id="edge26" class="edge">
<title>host&#45;&gt;host__aspect_host_</title>
<path fill="none" stroke="#a6adc8" d="M27.36,-645.28C27.15,-682.74 32.44,-768.3 82,-811 212.44,-923.37 429.51,-914.57 546.21,-899.6"/>
<polygon fill="#a6adc8" stroke="#a6adc8" points="546.58,-903.09 556.03,-898.29 545.66,-896.15 546.58,-903.09"/>
</g>
<!-- host&#45;&gt;host__cross_provide__anon__ -->
<g id="edge27" class="edge">
<title>host&#45;&gt;host__cross_provide__anon__</title>
<path fill="none" stroke="#a6adc8" d="M29.22,-645.02C32.34,-675.53 43.33,-736.94 82,-767 146.29,-816.97 367.82,-829.18 507.66,-831.78"/>
<polygon fill="#a6adc8" stroke="#a6adc8" points="507.26,-835.28 517.32,-831.95 507.38,-828.28 507.26,-835.28"/>
</g>
<!-- host&#45;&gt;n_default -->
<g id="edge15" class="edge">
<title>host&#45;&gt;n_default</title>
<path fill="none" stroke="#a6adc8" d="M30.06,-645.3C35.21,-687.67 50.59,-795.37 82,-880 116.42,-972.75 176.23,-1072.05 212.07,-1127.65"/>
<polygon fill="#a6adc8" stroke="#a6adc8" points="209.05,-1129.43 217.43,-1135.91 214.92,-1125.62 209.05,-1129.43"/>
</g>
<!-- host&#45;&gt;default__cross_provide_host_ -->
<g id="edge16" class="edge">
<title>host&#45;&gt;default__cross_provide_host_</title>
<path fill="none" stroke="#a6adc8" d="M28.38,-645.37C30.49,-740.36 42.26,-1173.12 82,-1216 94.19,-1229.15 110.21,-1237.42 127.4,-1242.44"/>
<polygon fill="#a6adc8" stroke="#a6adc8" points="126.21,-1245.75 136.76,-1244.78 127.91,-1238.96 126.21,-1245.75"/>
</g>
<!-- host&#45;&gt;default__cross_provide_user_ -->
<g id="edge17" class="edge">
<title>host&#45;&gt;default__cross_provide_user_</title>
<path fill="none" stroke="#a6adc8" d="M28.23,-645.37C29.63,-745.52 38.59,-1222.79 82,-1270 94.14,-1283.2 110.13,-1291.49 127.32,-1296.52"/>
<polygon fill="#a6adc8" stroke="#a6adc8" points="126.12,-1299.82 136.68,-1298.86 127.83,-1293.04 126.12,-1299.82"/>
</g>
<!-- host&#45;&gt;default__self_provide_default_ -->
<g id="edge18" class="edge">
<title>host&#45;&gt;default__self_provide_default_</title>
<path fill="none" stroke="#a6adc8" d="M28.1,-645.17C28.84,-749.79 34.88,-1272.42 82,-1324 93.43,-1336.52 108.34,-1344.63 124.45,-1349.73"/>
<polygon fill="#a6adc8" stroke="#a6adc8" points="123.15,-1353.01 133.72,-1352.26 125,-1346.25 123.15,-1353.01"/>
</g>
<!-- host&#45;&gt;hm_host -->
<g id="edge20" class="edge">
<title>host&#45;&gt;hm_host</title>
<path fill="none" stroke="#a6adc8" d="M54.2,-622.71C70.92,-619.97 93.94,-616.2 118.13,-612.24"/>
<polygon fill="#a6adc8" stroke="#a6adc8" points="118.51,-615.72 127.81,-610.65 117.38,-608.81 118.51,-615.72"/>
</g>
<!-- host&#45;&gt;hm_host__cross_provide_host_ -->
<g id="edge21" class="edge">
<title>host&#45;&gt;hm_host__cross_provide_host_</title>
<path fill="none" stroke="#a6adc8" d="M54.2,-631.41C72.14,-634.44 97.34,-638.68 123.46,-643.08"/>
<polygon fill="#a6adc8" stroke="#a6adc8" points="122.75,-646.51 133.19,-644.72 123.91,-639.61 122.75,-646.51"/>
</g>
<!-- host&#45;&gt;hm_host__self_provide_hm_host_ -->
<g id="edge22" class="edge">
<title>host&#45;&gt;hm_host__self_provide_hm_host_</title>
<path fill="none" stroke="#a6adc8" d="M35.33,-608.74C43.73,-590.29 59.33,-562.51 82,-548 92.62,-541.2 104.43,-535.96 116.67,-531.93"/>
<polygon fill="#a6adc8" stroke="#a6adc8" points="117.49,-535.34 126.07,-529.13 115.49,-528.63 117.49,-535.34"/>
</g>
<!-- host&#45;&gt;hm_user -->
<g id="edge23" class="edge">
<title>host&#45;&gt;hm_user</title>
<path fill="none" stroke="#a6adc8" d="M30.17,-608.59C36.09,-561.4 53.97,-437.77 82,-409 91.33,-399.43 102.53,-391.88 114.63,-385.94"/>
<polygon fill="#a6adc8" stroke="#a6adc8" points="115.89,-389.21 123.59,-381.93 113.03,-382.81 115.89,-389.21"/>
</g>
<!-- host&#45;&gt;hm_user__cross_provide_hm_host_ -->
<g id="edge24" class="edge">
<title>host&#45;&gt;hm_user__cross_provide_hm_host_</title>
<path fill="none" stroke="#a6adc8" d="M30.31,-608.91C34.94,-580.03 48.01,-523.45 82,-491 96.85,-476.82 115.53,-466.28 134.82,-458.45"/>
<polygon fill="#a6adc8" stroke="#a6adc8" points="136.06,-461.73 144.17,-454.92 133.58,-455.18 136.06,-461.73"/>
</g>
<!-- host&#45;&gt;hm_user__self_provide_hm_user_ -->
<g id="edge25" class="edge">
<title>host&#45;&gt;hm_user__self_provide_hm_user_</title>
<path fill="none" stroke="#a6adc8" d="M28.56,-608.7C30.78,-549.05 40.94,-361.76 82,-321 91.66,-311.4 103.39,-304.47 116.05,-299.54"/>
<polygon fill="#a6adc8" stroke="#a6adc8" points="117.1,-302.88 125.44,-296.34 114.85,-296.25 117.1,-302.88"/>
</g>
<!-- host&#45;&gt;deploy -->
<g id="edge19" class="edge">
<title>host&#45;&gt;deploy</title>
<path fill="none" stroke="#a6adc8" d="M28.86,-608.65C32.94,-525.14 51.38,-183.62 82,-148 90.32,-138.32 100.57,-130.7 111.83,-124.73"/>
<polygon fill="#a6adc8" stroke="#a6adc8" points="113.08,-128.01 120.59,-120.54 110.06,-121.69 113.08,-128.01"/>
</g>
<!-- host&#45;&gt;user -->
<g id="edge29" class="edge">
<title>host&#45;&gt;user</title>
<path fill="none" stroke="#a6adc8" d="M28.46,-608.59C30.45,-542.65 40.21,-319.27 82,-264 95.57,-246.05 114.64,-232.46 134.89,-222.21"/>
<polygon fill="#a6adc8" stroke="#a6adc8" points="136.34,-225.4 143.87,-217.95 133.34,-219.08 136.34,-225.4"/>
</g>
<!-- host&#45;&gt;user__cross_provide_host_ -->
<g id="edge30" class="edge">
<title>host&#45;&gt;user__cross_provide_host_</title>
<path fill="none" stroke="#a6adc8" d="M28.45,-608.74C30.87,-516.23 43.81,-102.06 82,-61 96.37,-45.56 116.02,-36.84 136.64,-32.25"/>
<polygon fill="#a6adc8" stroke="#a6adc8" points="137.15,-35.71 146.33,-30.43 135.86,-28.83 137.15,-35.71"/>
</g>
</g>
</svg>
