<svg id="my-svg" width="100%" xmlns="http://www.w3.org/2000/svg" xmlns:xlink="http://www.w3.org/1999/xlink" class="flowchart" style="max-width: 1043.23px; background-color: rgb(30, 30, 46);" viewBox="4 4 1043.22998046875 320" role="graphics-document document" aria-roledescription="flowchart-v2"><style>#my-svg{font-family:JetBrains Mono,Fira Code,DejaVu Sans Mono,monospace;font-size:16px;fill:#cdd6f4;}@keyframes edge-animation-frame{from{stroke-dashoffset:0;}}@keyframes dash{to{stroke-dashoffset:0;}}#my-svg .edge-animation-slow{stroke-dasharray:9,5!important;stroke-dashoffset:900;animation:dash 50s linear infinite;stroke-linecap:round;}#my-svg .edge-animation-fast{stroke-dasharray:9,5!important;stroke-dashoffset:900;animation:dash 20s linear infinite;stroke-linecap:round;}#my-svg .error-icon{fill:#313244;}#my-svg .error-text{fill:#cdd6f4;stroke:#cdd6f4;}#my-svg .edge-thickness-normal{stroke-width:1px;}#my-svg .edge-thickness-thick{stroke-width:3.5px;}#my-svg .edge-pattern-solid{stroke-dasharray:0;}#my-svg .edge-thickness-invisible{stroke-width:0;fill:none;}#my-svg .edge-pattern-dashed{stroke-dasharray:3;}#my-svg .edge-pattern-dotted{stroke-dasharray:2;}#my-svg .marker{fill:#a6adc8;stroke:#a6adc8;}#my-svg .marker.cross{stroke:#a6adc8;}#my-svg svg{font-family:JetBrains Mono,Fira Code,DejaVu Sans Mono,monospace;font-size:16px;}#my-svg p{margin:0;}#my-svg .label{font-family:JetBrains Mono,Fira Code,DejaVu Sans Mono,monospace;color:#cdd6f4;}#my-svg .cluster-label text{fill:#cdd6f4;}#my-svg .cluster-label span{color:#cdd6f4;}#my-svg .cluster-label span p{background-color:transparent;}#my-svg .label text,#my-svg span{fill:#cdd6f4;color:#cdd6f4;}#my-svg .node rect,#my-svg .node circle,#my-svg .node ellipse,#my-svg .node polygon,#my-svg .node path{fill:#313244;stroke:#a6adc8;stroke-width:1px;}#my-svg .rough-node .label text,#my-svg .node .label text,#my-svg .image-shape .label,#my-svg .icon-shape .label{text-anchor:middle;}#my-svg .node .katex path{fill:#000;stroke:#000;stroke-width:1px;}#my-svg .rough-node .label,#my-svg .node .label,#my-svg .image-shape .label,#my-svg .icon-shape .label{text-align:center;}#my-svg .node.clickable{cursor:pointer;}#my-svg .root .anchor path{fill:#a6adc8!important;stroke-width:0;stroke:#a6adc8;}#my-svg .arrowheadPath{fill:#e1e1d1;}#my-svg .edgePath .path{stroke:#a6adc8;stroke-width:1px;}#my-svg .flowchart-link{stroke:#a6adc8;fill:none;}#my-svg .edgeLabel{background-color:#1e1e2e;text-align:center;}#my-svg .edgeLabel p{background-color:#1e1e2e;}#my-svg .edgeLabel rect{opacity:0.5;background-color:#1e1e2e;fill:#1e1e2e;}#my-svg .labelBkg{background-color:rgba(30, 30, 46, 0.5);}#my-svg .cluster rect{fill:#313244;stroke:#6c7086;stroke-width:1px;}#my-svg .cluster text{fill:#cdd6f4;}#my-svg .cluster span{color:#cdd6f4;}#my-svg div.mermaidTooltip{position:absolute;text-align:center;max-width:200px;padding:2px;font-family:JetBrains Mono,Fira Code,DejaVu Sans Mono,monospace;font-size:12px;background:#313244;border:1px solid #6c7086;border-radius:2px;pointer-events:none;z-index:100;}#my-svg .flowchartTitleText{text-anchor:middle;font-size:18px;fill:#cdd6f4;}#my-svg rect.text{fill:none;stroke-width:0;}#my-svg .icon-shape,#my-svg .image-shape{background-color:#1e1e2e;text-align:center;}#my-svg .icon-shape p,#my-svg .image-shape p{background-color:#1e1e2e;padding:2px;}#my-svg .icon-shape .label rect,#my-svg .image-shape .label rect{opacity:0.5;background-color:#1e1e2e;fill:#1e1e2e;}#my-svg .label-icon{display:inline-block;height:1em;overflow:visible;vertical-align:-0.125em;}#my-svg .node .label-icon path{fill:currentColor;stroke:revert;stroke-width:revert;}#my-svg .node .neo-node{stroke:#a6adc8;}#my-svg [data-look="neo"].node rect,#my-svg [data-look="neo"].cluster rect,#my-svg [data-look="neo"].node polygon{stroke:url(#my-svg-gradient);filter:drop-shadow( 1px 2px 2px rgba(185,185,185,1));}#my-svg [data-look="neo"].node path{stroke:url(#my-svg-gradient);stroke-width:1px;}#my-svg [data-look="neo"].node .outer-path{filter:drop-shadow( 1px 2px 2px rgba(185,185,185,1));}#my-svg [data-look="neo"].node .neo-line path{stroke:#a6adc8;filter:none;}#my-svg [data-look="neo"].node circle{stroke:url(#my-svg-gradient);filter:drop-shadow( 1px 2px 2px rgba(185,185,185,1));}#my-svg [data-look="neo"].node circle .state-start{fill:#000000;}#my-svg [data-look="neo"].icon-shape .icon{fill:url(#my-svg-gradient);filter:drop-shadow( 1px 2px 2px rgba(185,185,185,1));}#my-svg [data-look="neo"].icon-shape .icon-neo path{stroke:url(#my-svg-gradient);filter:drop-shadow( 1px 2px 2px rgba(185,185,185,1));}#my-svg :root{--mermaid-font-family:JetBrains Mono,Fira Code,DejaVu Sans Mono,monospace;}#my-svg .root&gt;*{fill:#89b4fa!important;stroke:#89b4fa!important;color:#1e1e2e!important;font-weight:bold!important;}#my-svg .root span{fill:#89b4fa!important;stroke:#89b4fa!important;color:#1e1e2e!important;font-weight:bold!important;}#my-svg .root tspan{fill:#1e1e2e!important;}#my-svg .ctx_host_c&gt;*{fill:#fab387!important;stroke:#fab387!important;color:#1e1e2e!important;stroke-width:2px!important;}#my-svg .ctx_host_c span{fill:#fab387!important;stroke:#fab387!important;color:#1e1e2e!important;stroke-width:2px!important;}#my-svg .ctx_host_c tspan{fill:#1e1e2e!important;}#my-svg .ctx_default_c&gt;*{fill:#f38ba8!important;stroke:#f38ba8!important;color:#1e1e2e!important;stroke-width:2px!important;}#my-svg .ctx_default_c span{fill:#f38ba8!important;stroke:#f38ba8!important;color:#1e1e2e!important;stroke-width:2px!important;}#my-svg .ctx_default_c tspan{fill:#1e1e2e!important;}#my-svg .ctx_hm_host_c&gt;*{fill:#f38ba8!important;stroke:#f38ba8!important;color:#1e1e2e!important;stroke-width:2px!important;}#my-svg .ctx_hm_host_c span{fill:#f38ba8!important;stroke:#f38ba8!important;color:#1e1e2e!important;stroke-width:2px!important;}#my-svg .ctx_hm_host_c tspan{fill:#1e1e2e!important;}#my-svg .ctx_hm_user_c&gt;*{fill:#fab387!important;stroke:#fab387!important;color:#1e1e2e!important;stroke-width:2px!important;}#my-svg .ctx_hm_user_c span{fill:#fab387!important;stroke:#fab387!important;color:#1e1e2e!important;stroke-width:2px!important;}#my-svg .ctx_hm_user_c tspan{fill:#1e1e2e!important;}#my-svg .ctx_user_c&gt;*{fill:#f9e2af!important;stroke:#f9e2af!important;color:#1e1e2e!important;stroke-width:2px!important;}#my-svg .ctx_user_c span{fill:#f9e2af!important;stroke:#f9e2af!important;color:#1e1e2e!important;stroke-width:2px!important;}#my-svg .ctx_user_c tspan{fill:#1e1e2e!important;}</style><g><marker id="my-svg_flowchart-v2-pointEnd" class="marker flowchart-v2" viewBox="0 0 10 10" refX="5" refY="5" markerUnits="userSpaceOnUse" markerWidth="8" markerHeight="8" orient="auto"><path d="M 0 0 L 10 5 L 0 10 z" class="arrowMarkerPath" style="stroke-width: 1; stroke-dasharray: 1, 0;"/></marker><marker id="my-svg_flowchart-v2-pointStart" class="marker flowchart-v2" viewBox="0 0 10 10" refX="4.5" refY="5" markerUnits="userSpaceOnUse" markerWidth="8" markerHeight="8" orient="auto"><path d="M 0 5 L 10 10 L 10 0 z" class="arrowMarkerPath" style="stroke-width: 1; stroke-dasharray: 1, 0;"/></marker><marker id="my-svg_flowchart-v2-pointEnd-margin" class="marker flowchart-v2" viewBox="0 0 11.5 14" refX="11.5" refY="7" markerUnits="userSpaceOnUse" markerWidth="10.5" markerHeight="14" orient="auto"><path d="M 0 0 L 11.5 7 L 0 14 z" class="arrowMarkerPath" style="stroke-width: 0; stroke-dasharray: 1, 0;"/></marker><marker id="my-svg_flowchart-v2-pointStart-margin" class="marker flowchart-v2" viewBox="0 0 11.5 14" refX="1" refY="7" markerUnits="userSpaceOnUse" markerWidth="11.5" markerHeight="14" orient="auto"><polygon points="0,7 11.5,14 11.5,0" class="arrowMarkerPath" style="stroke-width: 0; stroke-dasharray: 1, 0;"/></marker><marker id="my-svg_flowchart-v2-circleEnd" class="marker flowchart-v2" viewBox="0 0 10 10" refX="11" refY="5" markerUnits="userSpaceOnUse" markerWidth="11" markerHeight="11" orient="auto"><circle cx="5" cy="5" r="5" class="arrowMarkerPath" style="stroke-width: 1; stroke-dasharray: 1, 0;"/></marker><marker id="my-svg_flowchart-v2-circleStart" class="marker flowchart-v2" viewBox="0 0 10 10" refX="-1" refY="5" markerUnits="userSpaceOnUse" markerWidth="11" markerHeight="11" orient="auto"><circle cx="5" cy="5" r="5" class="arrowMarkerPath" style="stroke-width: 1; stroke-dasharray: 1, 0;"/></marker><marker id="my-svg_flowchart-v2-circleEnd-margin" class="marker flowchart-v2" viewBox="0 0 10 10" refY="5" refX="12.25" markerUnits="userSpaceOnUse" markerWidth="14" markerHeight="14" orient="auto"><circle cx="5" cy="5" r="5" class="arrowMarkerPath" style="stroke-width: 0; stroke-dasharray: 1, 0;"/></marker><marker id="my-svg_flowchart-v2-circleStart-margin" class="marker flowchart-v2" viewBox="0 0 10 10" refX="-2" refY="5" markerUnits="userSpaceOnUse" markerWidth="14" markerHeight="14" orient="auto"><circle cx="5" cy="5" r="5" class="arrowMarkerPath" style="stroke-width: 0; stroke-dasharray: 1, 0;"/></marker><marker id="my-svg_flowchart-v2-crossEnd" class="marker cross flowchart-v2" viewBox="0 0 11 11" refX="12" refY="5.2" markerUnits="userSpaceOnUse" markerWidth="11" markerHeight="11" orient="auto"><path d="M 1,1 l 9,9 M 10,1 l -9,9" class="arrowMarkerPath" style="stroke-width: 2; stroke-dasharray: 1, 0;"/></marker><marker id="my-svg_flowchart-v2-crossStart" class="marker cross flowchart-v2" viewBox="0 0 11 11" refX="-1" refY="5.2" markerUnits="userSpaceOnUse" markerWidth="11" markerHeight="11" orient="auto"><path d="M 1,1 l 9,9 M 10,1 l -9,9" class="arrowMarkerPath" style="stroke-width: 2; stroke-dasharray: 1, 0;"/></marker><marker id="my-svg_flowchart-v2-crossEnd-margin" class="marker cross flowchart-v2" viewBox="0 0 15 15" refX="17.7" refY="7.5" markerUnits="userSpaceOnUse" markerWidth="12" markerHeight="12" orient="auto"><path d="M 1,1 L 14,14 M 1,14 L 14,1" class="arrowMarkerPath" style="stroke-width: 2.5;"/></marker><marker id="my-svg_flowchart-v2-crossStart-margin" class="marker cross flowchart-v2" viewBox="0 0 15 15" refX="-3.5" refY="7.5" markerUnits="userSpaceOnUse" markerWidth="12" markerHeight="12" orient="auto"><path d="M 1,1 L 14,14 M 1,14 L 14,1" class="arrowMarkerPath" style="stroke-width: 2.5; stroke-dasharray: 1, 0;"/></marker></g><defs><filter id="my-svg-drop-shadow" height="130%" width="130%"><feDropShadow dx="4" dy="4" stdDeviation="0" flood-opacity="0.06" flood-color="#000000"/></filter></defs><defs><filter id="my-svg-drop-shadow-small" height="150%" width="150%"><feDropShadow dx="2" dy="2" stdDeviation="0" flood-opacity="0.06" flood-color="#000000"/></filter></defs><linearGradient id="my-svg-gradient" gradientUnits="objectBoundingBox" x1="0%" y1="0%" x2="100%" y2="0%"><stop offset="0%" stop-color="#a6adc8" stop-opacity="1"/><stop offset="100%" stop-color="#6c7086" stop-opacity="1"/></linearGradient><g class="subgraphs"/><g class="nodes"><g class="node default root " id="my-svg-flowchart-mail_relay-0" data-look="classic" transform="translate(74.36498260498047, 51)"><g class="basic label-container outer-path"><path d="M-42.875 -19.5 C-20.35341271644055 -19.5, 2.1681745671189034 -19.5, 42.875 -19.5 C42.875 -19.5, 42.875 -19.5, 42.875 -19.5 C43.3600343032489 -19.484445893956806, 43.84506860649781 -19.468891787913613, 44.1243692896239 -19.45993515863156 C44.46953142199426 -19.42663778283999, 44.81469355436462 -19.393340407048417, 45.368604652847864 -19.3399052695533 C45.64160876895274 -19.295768081240002, 45.91461288505762 -19.251630892926705, 46.60259325967676 -19.140403561325776 C47.015858655918976 -19.04607843144223, 47.4291240521612 -18.951753301558682, 47.82126438623539 -18.862249829261074 C48.06890579436786 -18.788751159223636, 48.316547202500324 -18.7152524891862, 49.019610251460605 -18.50658706670804 C49.46189154542911 -18.343823462124167, 49.90417283939762 -18.18105985754029, 50.1927065951478 -18.074876768247425 C50.433094689045156 -17.96846408993851, 50.673482782942514 -17.862051411629597, 51.33573291279238 -17.568892924097174 C51.64712833096551 -17.40643813389454, 51.95852374913863 -17.24398334369191, 52.44399226407678 -16.990714730406097 C52.68365958565457 -16.845426991624127, 52.92332690723235 -16.700139252842156, 53.5129305736057 -16.342718045390892 C53.735353668968465 -16.187565322606442, 53.95777676433123 -16.03241259982199, 54.53815534457871 -15.627565626425154 C54.76618772061503 -15.445715874732565, 54.99422009665135 -15.263866123039975, 55.515453708501866 -14.848196188198123 C55.772619856804695 -14.614644696552917, 56.02978600510753 -14.381093204907712, 56.44080973676799 -14.007812326905688 C56.76264970346672 -13.675486137736565, 57.08448967016546 -13.343159948567441, 57.31042094296865 -13.10986736009568 C57.47441754292102 -12.91722762212074, 57.63841414287338 -12.724587884145798, 58.12071390812658 -12.158051136245305 C58.330680506776496 -11.876715022405067, 58.5406471054264 -11.59537890856483, 58.868358964640635 -11.156274872382312 C59.039799071678054 -10.892896829858158, 59.211239178715466 -10.629518787334003, 59.55028387860425 -10.108655082055241 C59.754278248144864 -9.746442422266036, 59.95827261768547 -9.38422976247683, 60.163686474273504 -9.019496659696287 C60.37338006343249 -8.5840634350836, 60.58307365259148 -8.14863021047091, 60.70604614880834 -7.893275190886684 C60.893627954511246 -7.429944504153015, 61.08120976021415 -6.966613817419345, 61.175134229970325 -6.734618561215508 C61.29325352053808 -6.378862077778612, 61.411372811105835 -6.023105594341715, 61.56902313421488 -5.548287939305138 C61.64641224042684 -5.253169736668128, 61.7238013466388 -4.958051534031118, 61.88609428754556 -4.339158212148133 C61.950913305723354 -4.006326253309502, 62.01573232390115 -3.67349429447087, 62.125044776581774 -3.1121979531509023 C62.17916610131762 -2.692443645964116, 62.23328742605346 -2.272689338777329, 62.28489270250937 -1.872449005199798 C62.30777460957176 -1.5160448327600746, 62.33065651663416 -1.159640660320351, 62.36498121591342 -0.6250057626472757 C62.36498121591342 -0.16107362166168315, 62.36498121591342 0.3028585193239094, 62.36498121591342 0.625005762647271 C62.34224887523465 0.9790803179341996, 62.31951653455588 1.333154873221128, 62.28489270250937 1.8724490051997846 C62.229275886911395 2.3038020441951406, 62.17365907131343 2.7351550831904965, 62.125044776581774 3.1121979531508885 C62.05726823114672 3.4602161893819385, 61.98949168571167 3.808234425612989, 61.88609428754556 4.339158212148129 C61.80477456831589 4.649265545760111, 61.723454849086224 4.959372879372093, 61.56902313421489 5.548287939305125 C61.47372081247087 5.8353233480352005, 61.37841849072686 6.122358756765275, 61.175134229970325 6.734618561215495 C61.02317609604359 7.109958089925178, 60.871217962116866 7.485297618634862, 60.70604614880834 7.893275190886679 C60.51966169506342 8.280306497076458, 60.3332772413185 8.667337803266237, 60.163686474273504 9.019496659696284 C59.96990171864988 9.363581116140363, 59.776116963026254 9.707665572584443, 59.55028387860425 10.108655082055236 C59.38565797891676 10.361564672219016, 59.22103207922928 10.614474262382796, 58.86835896464064 11.156274872382301 C58.69696367063207 11.38592895192128, 58.525568376623504 11.61558303146026, 58.12071390812658 12.158051136245302 C57.941523516867136 12.368538366040758, 57.76233312560769 12.579025595836214, 57.31042094296866 13.10986736009567 C56.96851842475011 13.462909780875117, 56.62661590653155 13.815952201654566, 56.44080973676799 14.007812326905684 C56.144138017149054 14.277241733160041, 55.84746629753012 14.5466711394144, 55.51545370850189 14.848196188198111 C55.21299613232778 15.089398056462834, 54.910538556153675 15.330599924727556, 54.53815534457871 15.627565626425152 C54.15674484950441 15.893621076794762, 53.77533435443012 16.159676527164372, 53.51293057360571 16.34271804539089 C53.19332106184462 16.536467209654433, 52.87371155008353 16.730216373917976, 52.44399226407678 16.990714730406093 C52.0375267219021 17.20276754340502, 51.63106117972741 17.41482035640395, 51.33573291279239 17.56889292409717 C51.04147746527395 17.699151081935867, 50.74722201775552 17.82940923977456, 50.192706595147804 18.07487676824742 C49.7772557998964 18.22776650128499, 49.36180500464499 18.38065623432256, 49.01961025146062 18.506587066708033 C48.570260524636 18.639951706944732, 48.120910797811376 18.773316347181435, 47.82126438623541 18.86224982926107 C47.38441356176048 18.96195817922943, 46.94756273728556 19.061666529197787, 46.602593259676766 19.140403561325773 C46.25523730919253 19.196561377614437, 45.9078813587083 19.2527191939031, 45.36860465284788 19.3399052695533 C45.027249700535485 19.37283537126348, 44.685894748223085 19.405765472973663, 44.1243692896239 19.45993515863156 C43.85769381999047 19.468486921890392, 43.59101835035704 19.47703868514922, 42.87500000000001 19.5 C42.87500000000001 19.5, 42.87500000000001 19.5, 42.875 19.5 C23.512055881608966 19.5, 4.149111763217931 19.5, -42.87499999999999 19.5 C-43.203755167760754 19.48945746165303, -43.532510335521515 19.478914923306053, -44.12436928962389 19.45993515863156 C-44.47904025556038 19.42572047710191, -44.83371122149686 19.39150579557226, -45.36860465284787 19.3399052695533 C-45.83857646647906 19.263923871411254, -46.30854828011025 19.187942473269214, -46.60259325967676 19.140403561325773 C-46.91692429716062 19.068659553221796, -47.23125533464449 18.99691554511782, -47.821264386235384 18.862249829261074 C-48.071027338883894 18.78812149594749, -48.32079029153241 18.7139931626339, -49.01961025146059 18.506587066708043 C-49.39757176588999 18.367493735560085, -49.775533280319394 18.228400404412128, -50.1927065951478 18.074876768247425 C-50.62969970245465 17.881432882582633, -51.06669280976151 17.68798899691784, -51.33573291279238 17.568892924097174 C-51.63487557068031 17.41283039108706, -51.934018228568235 17.256767858076948, -52.44399226407678 16.990714730406097 C-52.824881199565596 16.75981761936094, -53.2057701350544 16.528920508315785, -53.512930573605686 16.3427180453909 C-53.86631809202776 16.096210210438777, -54.219705610449836 15.84970237548665, -54.53815534457871 15.627565626425156 C-54.79175295880294 15.42532827759727, -55.045350573027164 15.223090928769382, -55.515453708501866 14.848196188198125 C-55.75250247551457 14.632914769963874, -55.98955124252726 14.417633351729622, -56.440809736767974 14.007812326905697 C-56.7171345095564 13.722484312315887, -56.99345928234483 13.437156297726077, -57.310420942968655 13.109867360095677 C-57.52544442372146 12.857288544420772, -57.74046790447426 12.604709728745867, -58.120713908126575 12.158051136245307 C-58.31816802632153 11.893480606304296, -58.51562214451648 11.628910076363287, -58.868358964640635 11.156274872382316 C-59.117630803700756 10.77332638872486, -59.36690264276088 10.390377905067405, -59.55028387860425 10.108655082055249 C-59.730373711184335 9.788887348236308, -59.910463543764415 9.469119614417368, -60.163686474273504 9.019496659696289 C-60.30217340916373 8.731925576251015, -60.44066034405395 8.444354492805742, -60.70604614880834 7.893275190886686 C-60.8187644634685 7.614858774415737, -60.931482778128654 7.3364423579447875, -61.175134229970325 6.73461856121551 C-61.27031930643936 6.447936276573166, -61.3655043829084 6.161253991930822, -61.56902313421488 5.5482879393051325 C-61.68932041834594 5.0895422577406455, -61.809617702477006 4.630796576176158, -61.88609428754556 4.339158212148136 C-61.93691223564639 4.0782187890275114, -61.98773018374722 3.8172793659068875, -62.125044776581774 3.112197953150904 C-62.17920545355936 2.692138437748126, -62.23336613053695 2.2720789223453486, -62.28489270250937 1.872449005199809 C-62.31197765032368 1.4505790804154157, -62.33906259813801 1.0287091556310224, -62.36498121591342 0.6250057626472781 C-62.36498121591342 0.14360203537158, -62.36498121591342 -0.33780169190411813, -62.36498121591342 -0.6250057626472687 C-62.34777003654063 -0.8930837739923405, -62.330558857167844 -1.1611617853374123, -62.28489270250937 -1.8724490051997822 C-62.22314321400085 -2.351365844256135, -62.161393725492324 -2.8302826833124883, -62.125044776581774 -3.112197953150895 C-62.06713569222503 -3.4095488622334553, -62.00922660786829 -3.7068997713160154, -61.88609428754556 -4.339158212148126 C-61.795018168557604 -4.686470926488872, -61.70394204956965 -5.033783640829619, -61.56902313421489 -5.548287939305123 C-61.4562618918496 -5.887906835245238, -61.34350064948431 -6.227525731185354, -61.17513422997033 -6.734618561215485 C-61.00275705375354 -7.160393519156948, -60.83037987753674 -7.58616847709841, -60.70604614880834 -7.893275190886676 C-60.58128073138837 -8.152353249711535, -60.45651531396839 -8.411431308536395, -60.163686474273504 -9.019496659696282 C-60.035858284694875 -9.24646855430094, -59.90803009511624 -9.473440448905595, -59.55028387860425 -10.108655082055243 C-59.33671618339495 -10.436752412852785, -59.12314848818565 -10.764849743650327, -58.86835896464064 -11.156274872382308 C-58.573712820494784 -11.551073862721822, -58.279066676348926 -11.945872853061333, -58.12071390812659 -12.158051136245302 C-57.91412204405351 -12.400725695195623, -57.707530179980424 -12.643400254145947, -57.31042094296866 -13.10986736009567 C-57.02784221320255 -13.401653098724363, -56.745263483436425 -13.693438837353057, -56.440809736767996 -14.007812326905677 C-56.1037236831399 -14.313944962002473, -55.7666376295118 -14.62007759709927, -55.51545370850189 -14.848196188198107 C-55.21608795557922 -15.086932409696681, -54.91672220265655 -15.325668631195255, -54.53815534457872 -15.627565626425149 C-54.29176483596498 -15.799436979160882, -54.04537432735125 -15.971308331896614, -53.512930573605715 -16.342718045390885 C-53.166632746590444 -16.552645823199462, -52.82033491957517 -16.762573601008043, -52.44399226407679 -16.99071473040609 C-52.060874232213166 -17.190587162230532, -51.67775620034954 -17.390459594054974, -51.33573291279239 -17.56889292409717 C-51.008492165250345 -17.713752695782155, -50.6812514177083 -17.85861246746714, -50.192706595147804 -18.07487676824742 C-49.872767980563616 -18.192617135894537, -49.55282936597943 -18.31035750354165, -49.01961025146062 -18.506587066708033 C-48.663476695992735 -18.61228563658772, -48.30734314052484 -18.71798420646741, -47.82126438623541 -18.862249829261067 C-47.54416393224793 -18.925496199634257, -47.267063478260454 -18.98874257000745, -46.602593259676766 -19.140403561325773 C-46.21168267034846 -19.203602953851476, -45.82077208102015 -19.26680234637718, -45.36860465284788 -19.3399052695533 C-44.90105283338131 -19.385009431263907, -44.433501013914736 -19.430113592974514, -44.1243692896239 -19.45993515863156 C-43.7039792249214 -19.47341624976695, -43.28358916021889 -19.486897340902335, -42.87500000000001 -19.5 C-42.87500000000001 -19.5, -42.875 -19.5, -42.875 -19.5" stroke="none" stroke-width="0" fill="#89b4fa" style="fill:#89b4fa !important;stroke:#89b4fa !important"/><path d="M-42.875 -19.5 C-21.491371059836595 -19.5, -0.10774211967319047 -19.5, 42.875 -19.5 M-42.875 -19.5 C-18.50727751355264 -19.5, 5.860444972894719 -19.5, 42.875 -19.5 M42.875 -19.5 C42.875 -19.5, 42.875 -19.5, 42.875 -19.5 M42.875 -19.5 C42.875 -19.5, 42.875 -19.5, 42.875 -19.5 M42.875 -19.5 C43.24042199668951 -19.488281627816935, 43.60584399337902 -19.47656325563387, 44.1243692896239 -19.45993515863156 M42.875 -19.5 C43.35499671362529 -19.48460743965096, 43.83499342725059 -19.469214879301923, 44.1243692896239 -19.45993515863156 M44.1243692896239 -19.45993515863156 C44.582830706342556 -19.41570793714123, 45.04129212306122 -19.371480715650907, 45.368604652847864 -19.3399052695533 M44.1243692896239 -19.45993515863156 C44.3979138908538 -19.433546639936427, 44.6714584920837 -19.40715812124129, 45.368604652847864 -19.3399052695533 M45.368604652847864 -19.3399052695533 C45.76503429558789 -19.275813599272887, 46.16146393832792 -19.211721928992475, 46.60259325967676 -19.140403561325776 M45.368604652847864 -19.3399052695533 C45.84404852222345 -19.263039191874928, 46.31949239159904 -19.18617311419656, 46.60259325967676 -19.140403561325776 M46.60259325967676 -19.140403561325776 C46.986277962404344 -19.05283003170488, 47.36996266513193 -18.96525650208398, 47.82126438623539 -18.862249829261074 M46.60259325967676 -19.140403561325776 C46.86348214608977 -19.080857375461093, 47.12437103250279 -19.021311189596407, 47.82126438623539 -18.862249829261074 M47.82126438623539 -18.862249829261074 C48.21245445374469 -18.74614667062288, 48.60364452125398 -18.630043511984688, 49.019610251460605 -18.50658706670804 M47.82126438623539 -18.862249829261074 C48.24693741369378 -18.73591230911474, 48.672610441152166 -18.609574788968413, 49.019610251460605 -18.50658706670804 M49.019610251460605 -18.50658706670804 C49.28296627555157 -18.409669615406163, 49.54632229964255 -18.312752164104285, 50.1927065951478 -18.074876768247425 M49.019610251460605 -18.50658706670804 C49.32445865025715 -18.394400037963205, 49.62930704905369 -18.282213009218367, 50.1927065951478 -18.074876768247425 M50.1927065951478 -18.074876768247425 C50.532873721991045 -17.924294871893213, 50.8730408488343 -17.773712975539, 51.33573291279238 -17.568892924097174 M50.1927065951478 -18.074876768247425 C50.54673368855233 -17.918159475837832, 50.90076078195686 -17.76144218342824, 51.33573291279238 -17.568892924097174 M51.33573291279238 -17.568892924097174 C51.65868525709096 -17.400408892937456, 51.98163760138954 -17.23192486177774, 52.44399226407678 -16.990714730406097 M51.33573291279238 -17.568892924097174 C51.719463079304994 -17.36870114201845, 52.10319324581761 -17.16850935993972, 52.44399226407678 -16.990714730406097 M52.44399226407678 -16.990714730406097 C52.67522702552723 -16.850538859128545, 52.90646178697767 -16.710362987850996, 53.5129305736057 -16.342718045390892 M52.44399226407678 -16.990714730406097 C52.70290132724436 -16.833762534795365, 52.96181039041195 -16.676810339184637, 53.5129305736057 -16.342718045390892 M53.5129305736057 -16.342718045390892 C53.843556221861924 -16.112087905720987, 54.17418187011815 -15.881457766051078, 54.53815534457871 -15.627565626425154 M53.5129305736057 -16.342718045390892 C53.84779247636588 -16.10913287796353, 54.182654379126056 -15.875547710536164, 54.53815534457871 -15.627565626425154 M54.53815534457871 -15.627565626425154 C54.897863894009014 -15.340707630500996, 55.257572443439315 -15.053849634576837, 55.515453708501866 -14.848196188198123 M54.53815534457871 -15.627565626425154 C54.838724763891825 -15.387869513011108, 55.13929418320494 -15.148173399597061, 55.515453708501866 -14.848196188198123 M55.515453708501866 -14.848196188198123 C55.84729477712944 -14.546826909704105, 56.179135845757024 -14.245457631210085, 56.44080973676799 -14.007812326905688 M55.515453708501866 -14.848196188198123 C55.86814123362797 -14.527894709479154, 56.22082875875408 -14.207593230760187, 56.44080973676799 -14.007812326905688 M56.44080973676799 -14.007812326905688 C56.76093219690436 -13.677259604272114, 57.08105465704074 -13.346706881638541, 57.31042094296865 -13.10986736009568 M56.44080973676799 -14.007812326905688 C56.70532020243523 -13.734683554391152, 56.969830668102475 -13.461554781876615, 57.31042094296865 -13.10986736009568 M57.31042094296865 -13.10986736009568 C57.49111142318152 -12.897618040458052, 57.671801903394396 -12.685368720820424, 58.12071390812658 -12.158051136245305 M57.31042094296865 -13.10986736009568 C57.634290191054255 -12.729432112612049, 57.95815943913986 -12.348996865128417, 58.12071390812658 -12.158051136245305 M58.12071390812658 -12.158051136245305 C58.398014217038416 -11.786493984881286, 58.675314525950256 -11.414936833517265, 58.868358964640635 -11.156274872382312 M58.12071390812658 -12.158051136245305 C58.31718788169944 -11.89479391080489, 58.5136618552723 -11.631536685364473, 58.868358964640635 -11.156274872382312 M58.868358964640635 -11.156274872382312 C59.01281288547767 -10.934354858667579, 59.157266806314716 -10.712434844952845, 59.55028387860425 -10.108655082055241 M58.868358964640635 -11.156274872382312 C59.06041198998015 -10.861229852002543, 59.25246501531967 -10.566184831622772, 59.55028387860425 -10.108655082055241 M59.55028387860425 -10.108655082055241 C59.68427594819989 -9.870738594319846, 59.81826801779554 -9.63282210658445, 60.163686474273504 -9.019496659696287 M59.55028387860425 -10.108655082055241 C59.71012298409277 -9.82484456479585, 59.86996208958129 -9.54103404753646, 60.163686474273504 -9.019496659696287 M60.163686474273504 -9.019496659696287 C60.359715724371846 -8.612437727513052, 60.55574497447018 -8.20537879532982, 60.70604614880834 -7.893275190886684 M60.163686474273504 -9.019496659696287 C60.27270905497691 -8.793108938156136, 60.38173163568031 -8.566721216615983, 60.70604614880834 -7.893275190886684 M60.70604614880834 -7.893275190886684 C60.862211169334394 -7.507544570942066, 61.01837618986044 -7.121813950997448, 61.175134229970325 -6.734618561215508 M60.70604614880834 -7.893275190886684 C60.82032678594452 -7.610999807694509, 60.9346074230807 -7.328724424502333, 61.175134229970325 -6.734618561215508 M61.175134229970325 -6.734618561215508 C61.32245719378875 -6.290905266921045, 61.46978015760717 -5.8471919726265815, 61.56902313421488 -5.548287939305138 M61.175134229970325 -6.734618561215508 C61.27403976533587 -6.436730847151509, 61.37294530070142 -6.138843133087509, 61.56902313421488 -5.548287939305138 M61.56902313421488 -5.548287939305138 C61.642031250117356 -5.269876351451422, 61.71503936601982 -4.991464763597705, 61.88609428754556 -4.339158212148133 M61.56902313421488 -5.548287939305138 C61.642895412762314 -5.266580924755733, 61.71676769130974 -4.984873910206328, 61.88609428754556 -4.339158212148133 M61.88609428754556 -4.339158212148133 C61.95927513583332 -3.963390022968224, 62.032455984121086 -3.5876218337883157, 62.125044776581774 -3.1121979531509023 M61.88609428754556 -4.339158212148133 C61.978653634198096 -3.863885529512212, 62.071212980850625 -3.388612846876291, 62.125044776581774 -3.1121979531509023 M62.125044776581774 -3.1121979531509023 C62.18883427057013 -2.6174592344375855, 62.252623764558486 -2.122720515724269, 62.28489270250937 -1.872449005199798 M62.125044776581774 -3.1121979531509023 C62.178543554086424 -2.6972719993533736, 62.23204233159108 -2.2823460455558444, 62.28489270250937 -1.872449005199798 M62.28489270250937 -1.872449005199798 C62.31157615379302 -1.4568327129626768, 62.33825960507668 -1.0412164207255556, 62.36498121591342 -0.6250057626472757 M62.28489270250937 -1.872449005199798 C62.316635519559355 -1.3780290073054626, 62.34837833660934 -0.8836090094111273, 62.36498121591342 -0.6250057626472757 M62.36498121591342 -0.6250057626472757 C62.36498121591342 -0.2131418193775826, 62.36498121591342 0.19872212389211052, 62.36498121591342 0.625005762647271 M62.36498121591342 -0.6250057626472757 C62.36498121591342 -0.34763228474726343, 62.36498121591342 -0.07025880684725117, 62.36498121591342 0.625005762647271 M62.36498121591342 0.625005762647271 C62.34638129276152 0.9147145793257865, 62.327781369609625 1.204423396004302, 62.28489270250937 1.8724490051997846 M62.36498121591342 0.625005762647271 C62.33873317591539 1.033840172653164, 62.31248513591735 1.442674582659057, 62.28489270250937 1.8724490051997846 M62.28489270250937 1.8724490051997846 C62.23974126630807 2.2226346282174303, 62.194589830106786 2.572820251235076, 62.125044776581774 3.1121979531508885 M62.28489270250937 1.8724490051997846 C62.240366485395015 2.217785552442629, 62.195840268280655 2.563122099685474, 62.125044776581774 3.1121979531508885 M62.125044776581774 3.1121979531508885 C62.036241590024964 3.568183547559972, 61.94743840346816 4.024169141969056, 61.88609428754556 4.339158212148129 M62.125044776581774 3.1121979531508885 C62.039077000858924 3.5536243121918947, 61.953109225136075 3.9950506712329004, 61.88609428754556 4.339158212148129 M61.88609428754556 4.339158212148129 C61.76558257210152 4.798721613244128, 61.645070856657476 5.258285014340127, 61.56902313421489 5.548287939305125 M61.88609428754556 4.339158212148129 C61.765518538215645 4.798965802203432, 61.64494278888573 5.2587733922587345, 61.56902313421489 5.548287939305125 M61.56902313421489 5.548287939305125 C61.45515000224082 5.891255669591333, 61.341276870266746 6.23422339987754, 61.175134229970325 6.734618561215495 M61.56902313421489 5.548287939305125 C61.45784399697106 5.88314178669363, 61.34666485972722 6.217995634082135, 61.175134229970325 6.734618561215495 M61.175134229970325 6.734618561215495 C60.9990957145089 7.16943709787838, 60.82305719904747 7.604255634541267, 60.70604614880834 7.893275190886679 M61.175134229970325 6.734618561215495 C60.998099033705294 7.171898918732795, 60.82106383744026 7.609179276250095, 60.70604614880834 7.893275190886679 M60.70604614880834 7.893275190886679 C60.52729374712551 8.264458377669772, 60.34854134544268 8.635641564452865, 60.163686474273504 9.019496659696284 M60.70604614880834 7.893275190886679 C60.58065736830901 8.153647676483644, 60.45526858780969 8.414020162080607, 60.163686474273504 9.019496659696284 M60.163686474273504 9.019496659696284 C59.93737066456416 9.421343296795976, 59.71105485485482 9.823189933895671, 59.55028387860425 10.108655082055236 M60.163686474273504 9.019496659696284 C59.920524092167874 9.451256091986025, 59.67736171006224 9.883015524275766, 59.55028387860425 10.108655082055236 M59.55028387860425 10.108655082055236 C59.363146079420176 10.396148995137207, 59.17600828023611 10.683642908219177, 58.86835896464064 11.156274872382301 M59.55028387860425 10.108655082055236 C59.32807900469087 10.45002143874947, 59.105874130777494 10.791387795443704, 58.86835896464064 11.156274872382301 M58.86835896464064 11.156274872382301 C58.644568234818934 11.456134062588491, 58.42077750499722 11.755993252794683, 58.12071390812658 12.158051136245302 M58.86835896464064 11.156274872382301 C58.623428577186296 11.484459277953798, 58.37849818973194 11.812643683525293, 58.12071390812658 12.158051136245302 M58.12071390812658 12.158051136245302 C57.94592810224126 12.363364489432298, 57.77114229635595 12.568677842619296, 57.31042094296866 13.10986736009567 M58.12071390812658 12.158051136245302 C57.87268735542385 12.449397238160588, 57.62466080272112 12.740743340075873, 57.31042094296866 13.10986736009567 M57.31042094296866 13.10986736009567 C57.11821767039727 13.308333019207778, 56.92601439782589 13.506798678319884, 56.44080973676799 14.007812326905684 M57.31042094296866 13.10986736009567 C56.99446770001155 13.43611502369256, 56.67851445705443 13.762362687289452, 56.44080973676799 14.007812326905684 M56.44080973676799 14.007812326905684 C56.164973586155476 14.258319420667354, 55.88913743554296 14.508826514429023, 55.51545370850189 14.848196188198111 M56.44080973676799 14.007812326905684 C56.21738274028116 14.21072281356064, 55.99395574379433 14.413633300215597, 55.51545370850189 14.848196188198111 M55.51545370850189 14.848196188198111 C55.13011238178422 15.155495641892088, 54.74477105506656 15.462795095586065, 54.53815534457871 15.627565626425152 M55.51545370850189 14.848196188198111 C55.23614781841179 15.070935202903078, 54.95684192832169 15.293674217608046, 54.53815534457871 15.627565626425152 M54.53815534457871 15.627565626425152 C54.318858423949045 15.780537665045717, 54.099561503319386 15.933509703666282, 53.51293057360571 16.34271804539089 M54.53815534457871 15.627565626425152 C54.29719053065452 15.795652249419996, 54.056225716730324 15.963738872414842, 53.51293057360571 16.34271804539089 M53.51293057360571 16.34271804539089 C53.18167153704514 16.543529220048082, 52.85041250048457 16.74434039470528, 52.44399226407678 16.990714730406093 M53.51293057360571 16.34271804539089 C53.1798603723071 16.54462715875587, 52.846790171008486 16.74653627212085, 52.44399226407678 16.990714730406093 M52.44399226407678 16.990714730406093 C52.13259684228417 17.15316952249701, 51.82120142049157 17.31562431458793, 51.33573291279239 17.56889292409717 M52.44399226407678 16.990714730406093 C52.204487227542636 17.115664354555662, 51.96498219100848 17.24061397870523, 51.33573291279239 17.56889292409717 M51.33573291279239 17.56889292409717 C51.002661093216865 17.716333938398773, 50.66958927364134 17.863774952700375, 50.192706595147804 18.07487676824742 M51.33573291279239 17.56889292409717 C50.9099733058568 17.75736407237755, 50.48421369892121 17.94583522065793, 50.192706595147804 18.07487676824742 M50.192706595147804 18.07487676824742 C49.87133242780837 18.19314543257857, 49.54995826046893 18.311414096909722, 49.01961025146062 18.506587066708033 M50.192706595147804 18.07487676824742 C49.76552641418071 18.232083023653615, 49.33834623321363 18.38928927905981, 49.01961025146062 18.506587066708033 M49.01961025146062 18.506587066708033 C48.630405797548875 18.622100905653173, 48.24120134363712 18.73761474459831, 47.82126438623541 18.86224982926107 M49.01961025146062 18.506587066708033 C48.57046541429064 18.639890896770723, 48.12132057712066 18.773194726833413, 47.82126438623541 18.86224982926107 M47.82126438623541 18.86224982926107 C47.55214397088089 18.923674807890908, 47.28302355552637 18.985099786520742, 46.602593259676766 19.140403561325773 M47.82126438623541 18.86224982926107 C47.53115004388039 18.928466534730596, 47.241035701525355 18.99468324020012, 46.602593259676766 19.140403561325773 M46.602593259676766 19.140403561325773 C46.19126207537419 19.206904397282837, 45.779930891071615 19.273405233239902, 45.36860465284788 19.3399052695533 M46.602593259676766 19.140403561325773 C46.32255049941671 19.18567870304058, 46.04250773915665 19.230953844755383, 45.36860465284788 19.3399052695533 M45.36860465284788 19.3399052695533 C44.88886378194619 19.386185294396373, 44.40912291104451 19.432465319239448, 44.1243692896239 19.45993515863156 M45.36860465284788 19.3399052695533 C44.8925105043668 19.385833499470284, 44.416416355885715 19.43176172938727, 44.1243692896239 19.45993515863156 M44.1243692896239 19.45993515863156 C43.719720444819515 19.47291145948324, 43.31507160001513 19.485887760334922, 42.87500000000001 19.5 M44.1243692896239 19.45993515863156 C43.72030599240592 19.472892682111844, 43.31624269518794 19.48585020559213, 42.87500000000001 19.5 M42.87500000000001 19.5 C42.87500000000001 19.5, 42.875 19.5, 42.875 19.5 M42.87500000000001 19.5 C42.87500000000001 19.5, 42.875 19.5, 42.875 19.5 M42.875 19.5 C17.334146791531147 19.5, -8.206706416937706 19.5, -42.87499999999999 19.5 M42.875 19.5 C24.96380291092892 19.5, 7.0526058218578385 19.5, -42.87499999999999 19.5 M-42.87499999999999 19.5 C-43.35342950607891 19.48465769694659, -43.83185901215783 19.46931539389318, -44.12436928962389 19.45993515863156 M-42.87499999999999 19.5 C-43.22798194950022 19.488680555917213, -43.58096389900044 19.477361111834426, -44.12436928962389 19.45993515863156 M-44.12436928962389 19.45993515863156 C-44.58028654588364 19.415953369240903, -45.03620380214338 19.37197157985025, -45.36860465284787 19.3399052695533 M-44.12436928962389 19.45993515863156 C-44.55204663563981 19.418677639418664, -44.97972398165573 19.37742012020577, -45.36860465284787 19.3399052695533 M-45.36860465284787 19.3399052695533 C-45.723040397575105 19.28260284703605, -46.077476142302345 19.225300424518803, -46.60259325967676 19.140403561325773 M-45.36860465284787 19.3399052695533 C-45.82457148832949 19.26618808766825, -46.28053832381111 19.192470905783203, -46.60259325967676 19.140403561325773 M-46.60259325967676 19.140403561325773 C-46.874703365367935 19.07829620538615, -47.14681347105911 19.01618884944652, -47.821264386235384 18.862249829261074 M-46.60259325967676 19.140403561325773 C-47.066637071601136 19.034488589422903, -47.530680883525505 18.928573617520037, -47.821264386235384 18.862249829261074 M-47.821264386235384 18.862249829261074 C-48.078081886143 18.78602774335106, -48.33489938605063 18.70980565744104, -49.01961025146059 18.506587066708043 M-47.821264386235384 18.862249829261074 C-48.2348588548488 18.73949716197828, -48.64845332346223 18.616744494695485, -49.01961025146059 18.506587066708043 M-49.01961025146059 18.506587066708043 C-49.38492048084657 18.372149525403263, -49.750230710232536 18.237711984098482, -50.1927065951478 18.074876768247425 M-49.01961025146059 18.506587066708043 C-49.485317720033194 18.335202413320676, -49.9510251886058 18.163817759933313, -50.1927065951478 18.074876768247425 M-50.1927065951478 18.074876768247425 C-50.52851905744188 17.926222552712595, -50.86433151973596 17.77756833717776, -51.33573291279238 17.568892924097174 M-50.1927065951478 18.074876768247425 C-50.48084042006134 17.947328471144434, -50.768974244974885 17.81978017404144, -51.33573291279238 17.568892924097174 M-51.33573291279238 17.568892924097174 C-51.66843361408263 17.39532318133902, -52.00113431537288 17.22175343858087, -52.44399226407678 16.990714730406097 M-51.33573291279238 17.568892924097174 C-51.566701200056585 17.44839691657369, -51.79766948732079 17.3279009090502, -52.44399226407678 16.990714730406097 M-52.44399226407678 16.990714730406097 C-52.72491762846965 16.820416123610453, -53.00584299286251 16.65011751681481, -53.512930573605686 16.3427180453909 M-52.44399226407678 16.990714730406097 C-52.80806822594791 16.77000974277198, -53.17214418781905 16.549304755137857, -53.512930573605686 16.3427180453909 M-53.512930573605686 16.3427180453909 C-53.75848700383333 16.171428509630633, -54.004043434060975 16.00013897387037, -54.53815534457871 15.627565626425156 M-53.512930573605686 16.3427180453909 C-53.79080538847188 16.148884603547106, -54.068680203338076 15.955051161703311, -54.53815534457871 15.627565626425156 M-54.53815534457871 15.627565626425156 C-54.8535808732577 15.3760221611295, -55.169006401936684 15.124478695833844, -55.515453708501866 14.848196188198125 M-54.53815534457871 15.627565626425156 C-54.90803646254435 15.332595277797482, -55.27791758050999 15.037624929169809, -55.515453708501866 14.848196188198125 M-55.515453708501866 14.848196188198125 C-55.73376111720546 14.649935175711036, -55.952068525909056 14.451674163223945, -56.440809736767974 14.007812326905697 M-55.515453708501866 14.848196188198125 C-55.80639656487951 14.583969583962089, -56.09733942125717 14.319742979726055, -56.440809736767974 14.007812326905697 M-56.440809736767974 14.007812326905697 C-56.767483555148644 13.670494789008378, -57.094157373529306 13.333177251111062, -57.310420942968655 13.109867360095677 M-56.440809736767974 14.007812326905697 C-56.63394403527585 13.808385307075511, -56.82707833378374 13.608958287245324, -57.310420942968655 13.109867360095677 M-57.310420942968655 13.109867360095677 C-57.53687170499979 12.843865409600514, -57.76332246703093 12.577863459105352, -58.120713908126575 12.158051136245307 M-57.310420942968655 13.109867360095677 C-57.61328995682077 12.754100182689879, -57.91615897067289 12.39833300528408, -58.120713908126575 12.158051136245307 M-58.120713908126575 12.158051136245307 C-58.319102544563016 11.892228436997065, -58.51749118099946 11.626405737748824, -58.868358964640635 11.156274872382316 M-58.120713908126575 12.158051136245307 C-58.3327167322206 11.873986665813923, -58.54471955631461 11.589922195382538, -58.868358964640635 11.156274872382316 M-58.868358964640635 11.156274872382316 C-59.07583128134904 10.837541679800454, -59.28330359805745 10.518808487218593, -59.55028387860425 10.108655082055249 M-58.868358964640635 11.156274872382316 C-59.09780851283381 10.803778750526885, -59.32725806102698 10.451282628671454, -59.55028387860425 10.108655082055249 M-59.55028387860425 10.108655082055249 C-59.79034000082995 9.68241112872524, -60.030396123055645 9.256167175395234, -60.163686474273504 9.019496659696289 M-59.55028387860425 10.108655082055249 C-59.72359889829592 9.800916714543888, -59.89691391798758 9.493178347032526, -60.163686474273504 9.019496659696289 M-60.163686474273504 9.019496659696289 C-60.33270283820824 8.668530563614949, -60.50171920214298 8.317564467533611, -60.70604614880834 7.893275190886686 M-60.163686474273504 9.019496659696289 C-60.28450435193669 8.76861575164022, -60.405322229599875 8.517734843584154, -60.70604614880834 7.893275190886686 M-60.70604614880834 7.893275190886686 C-60.86774757189234 7.4938695495848755, -61.029448994976335 7.094463908283065, -61.175134229970325 6.73461856121551 M-60.70604614880834 7.893275190886686 C-60.88826617371839 7.443188206374345, -61.070486198628444 6.993101221862005, -61.175134229970325 6.73461856121551 M-61.175134229970325 6.73461856121551 C-61.309936622903145 6.328615231546428, -61.44473901583596 5.922611901877348, -61.56902313421488 5.5482879393051325 M-61.175134229970325 6.73461856121551 C-61.27619898018171 6.430227636060008, -61.37726373039309 6.1258367109045055, -61.56902313421488 5.5482879393051325 M-61.56902313421488 5.5482879393051325 C-61.654812398446715 5.221136293486845, -61.74060166267854 4.8939846476685585, -61.88609428754556 4.339158212148136 M-61.56902313421488 5.5482879393051325 C-61.66218579821876 5.193018324504367, -61.755348462222635 4.837748709703601, -61.88609428754556 4.339158212148136 M-61.88609428754556 4.339158212148136 C-61.94469956266464 4.038232510640956, -62.003304837783716 3.7373068091337767, -62.125044776581774 3.112197953150904 M-61.88609428754556 4.339158212148136 C-61.961935415873306 3.9497300472132935, -62.03777654420106 3.5603018822784516, -62.125044776581774 3.112197953150904 M-62.125044776581774 3.112197953150904 C-62.180662893965135 2.6808348177651324, -62.23628101134849 2.2494716823793603, -62.28489270250937 1.872449005199809 M-62.125044776581774 3.112197953150904 C-62.16979699173633 2.765108609736646, -62.21454920689088 2.4180192663223883, -62.28489270250937 1.872449005199809 M-62.28489270250937 1.872449005199809 C-62.316136599866695 1.3858000842394007, -62.34738049722402 0.8991511632789924, -62.36498121591342 0.6250057626472781 M-62.28489270250937 1.872449005199809 C-62.31155825090439 1.4571115649041224, -62.338223799299406 1.0417741246084358, -62.36498121591342 0.6250057626472781 M-62.36498121591342 0.6250057626472781 C-62.36498121591342 0.2845561812428808, -62.36498121591342 -0.05589340016151656, -62.36498121591342 -0.6250057626472687 M-62.36498121591342 0.6250057626472781 C-62.36498121591342 0.25250737012942687, -62.36498121591342 -0.1199910223884244, -62.36498121591342 -0.6250057626472687 M-62.36498121591342 -0.6250057626472687 C-62.334021714314694 -1.107224990107272, -62.30306221271597 -1.5894442175672752, -62.28489270250937 -1.8724490051997822 M-62.36498121591342 -0.6250057626472687 C-62.337996750292355 -1.0453105961638867, -62.31101228467129 -1.4656154296805046, -62.28489270250937 -1.8724490051997822 M-62.28489270250937 -1.8724490051997822 C-62.241788374410305 -2.2067576620237537, -62.19868404631124 -2.541066318847726, -62.125044776581774 -3.112197953150895 M-62.28489270250937 -1.8724490051997822 C-62.2475689685081 -2.161924515708667, -62.210245234506836 -2.4514000262175513, -62.125044776581774 -3.112197953150895 M-62.125044776581774 -3.112197953150895 C-62.05548178028396 -3.469389236995701, -61.98591878398614 -3.8265805208405066, -61.88609428754556 -4.339158212148126 M-62.125044776581774 -3.112197953150895 C-62.04652031720311 -3.5154044559099518, -61.967995857824455 -3.918610958669008, -61.88609428754556 -4.339158212148126 M-61.88609428754556 -4.339158212148126 C-61.80788128112278 -4.637418303369602, -61.729668274699996 -4.935678394591077, -61.56902313421489 -5.548287939305123 M-61.88609428754556 -4.339158212148126 C-61.78200793914821 -4.736084569896004, -61.67792159075085 -5.133010927643883, -61.56902313421489 -5.548287939305123 M-61.56902313421489 -5.548287939305123 C-61.41284029186996 -6.018685776091469, -61.256657449525036 -6.489083612877815, -61.17513422997033 -6.734618561215485 M-61.56902313421489 -5.548287939305123 C-61.48923533405848 -5.788596080916651, -61.409447533902075 -6.028904222528179, -61.17513422997033 -6.734618561215485 M-61.17513422997033 -6.734618561215485 C-61.024938641993636 -7.105604567352073, -60.87474305401694 -7.476590573488661, -60.70604614880834 -7.893275190886676 M-61.17513422997033 -6.734618561215485 C-61.079910820752055 -6.969822223004008, -60.98468741153378 -7.205025884792531, -60.70604614880834 -7.893275190886676 M-60.70604614880834 -7.893275190886676 C-60.543505488130094 -8.23079435059806, -60.38096482745185 -8.568313510309444, -60.163686474273504 -9.019496659696282 M-60.70604614880834 -7.893275190886676 C-60.52607914497418 -8.266980525025328, -60.34611214114002 -8.64068585916398, -60.163686474273504 -9.019496659696282 M-60.163686474273504 -9.019496659696282 C-59.928443994620515 -9.437193503204282, -59.69320151496752 -9.854890346712283, -59.55028387860425 -10.108655082055243 M-60.163686474273504 -9.019496659696282 C-59.9411161965672 -9.414692725448349, -59.71854591886089 -9.809888791200414, -59.55028387860425 -10.108655082055243 M-59.55028387860425 -10.108655082055243 C-59.39703556471616 -10.344085645121572, -59.243787250828085 -10.5795162081879, -58.86835896464064 -11.156274872382308 M-59.55028387860425 -10.108655082055243 C-59.394068395026665 -10.348644014561271, -59.237852911449075 -10.588632947067302, -58.86835896464064 -11.156274872382308 M-58.86835896464064 -11.156274872382308 C-58.65535137939912 -11.441685631215725, -58.4423437941576 -11.727096390049141, -58.12071390812659 -12.158051136245302 M-58.86835896464064 -11.156274872382308 C-58.60072604711165 -11.514878600010787, -58.333093129582664 -11.873482327639264, -58.12071390812659 -12.158051136245302 M-58.12071390812659 -12.158051136245302 C-57.841554410948504 -12.485967766256058, -57.562394913770426 -12.813884396266813, -57.31042094296866 -13.10986736009567 M-58.12071390812659 -12.158051136245302 C-57.93527286291919 -12.375880739840301, -57.7498318177118 -12.593710343435301, -57.31042094296866 -13.10986736009567 M-57.31042094296866 -13.10986736009567 C-56.98690701308109 -13.4439220536922, -56.66339308319351 -13.77797674728873, -56.440809736767996 -14.007812326905677 M-57.31042094296866 -13.10986736009567 C-57.10140011087147 -13.325698530165491, -56.892379278774264 -13.541529700235312, -56.440809736767996 -14.007812326905677 M-56.440809736767996 -14.007812326905677 C-56.1321736501626 -14.288107454697334, -55.8235375635572 -14.568402582488991, -55.51545370850189 -14.848196188198107 M-56.440809736767996 -14.007812326905677 C-56.07700990964251 -14.33820570428508, -55.71321008251703 -14.668599081664485, -55.51545370850189 -14.848196188198107 M-55.51545370850189 -14.848196188198107 C-55.295079948203394 -15.023938397644104, -55.07470618790491 -15.199680607090102, -54.53815534457872 -15.627565626425149 M-55.51545370850189 -14.848196188198107 C-55.284369817634584 -15.032479441764188, -55.05328592676728 -15.216762695330267, -54.53815534457872 -15.627565626425149 M-54.53815534457872 -15.627565626425149 C-54.26852755924541 -15.815646297474956, -53.99889977391211 -16.003726968524763, -53.512930573605715 -16.342718045390885 M-54.53815534457872 -15.627565626425149 C-54.198571711299 -15.864444468662526, -53.85898807801928 -16.101323310899904, -53.512930573605715 -16.342718045390885 M-53.512930573605715 -16.342718045390885 C-53.22628429831016 -16.51648470199554, -52.93963802301461 -16.690251358600197, -52.44399226407679 -16.99071473040609 M-53.512930573605715 -16.342718045390885 C-53.24494626319968 -16.505171709209637, -52.97696195279364 -16.66762537302839, -52.44399226407679 -16.99071473040609 M-52.44399226407679 -16.99071473040609 C-52.126997062650624 -17.156090923945005, -51.81000186122445 -17.321467117483923, -51.33573291279239 -17.56889292409717 M-52.44399226407679 -16.99071473040609 C-52.133526690135376 -17.152684421468635, -51.82306111619397 -17.314654112531176, -51.33573291279239 -17.56889292409717 M-51.33573291279239 -17.56889292409717 C-51.0840707869756 -17.680296281904543, -50.83240866115881 -17.791699639711915, -50.192706595147804 -18.07487676824742 M-51.33573291279239 -17.56889292409717 C-50.90470134709947 -17.75969781213232, -50.47366978140655 -17.95050270016747, -50.192706595147804 -18.07487676824742 M-50.192706595147804 -18.07487676824742 C-49.80303629276078 -18.218279041598635, -49.41336599037375 -18.361681314949852, -49.01961025146062 -18.506587066708033 M-50.192706595147804 -18.07487676824742 C-49.78670799504193 -18.2242880060963, -49.380709394936055 -18.37369924394518, -49.01961025146062 -18.506587066708033 M-49.01961025146062 -18.506587066708033 C-48.63895421359519 -18.619563780642174, -48.25829817572977 -18.732540494576316, -47.82126438623541 -18.862249829261067 M-49.01961025146062 -18.506587066708033 C-48.767949073549815 -18.58127878331548, -48.51628789563901 -18.655970499922926, -47.82126438623541 -18.862249829261067 M-47.82126438623541 -18.862249829261067 C-47.5290115743049 -18.928954626456377, -47.23675876237439 -18.995659423651688, -46.602593259676766 -19.140403561325773 M-47.82126438623541 -18.862249829261067 C-47.37159752435124 -18.964883356135626, -46.92193066246707 -19.067516883010185, -46.602593259676766 -19.140403561325773 M-46.602593259676766 -19.140403561325773 C-46.13181065438277 -19.216516041976075, -45.66102804908876 -19.29262852262638, -45.36860465284788 -19.3399052695533 M-46.602593259676766 -19.140403561325773 C-46.14636321629954 -19.214163296622175, -45.69013317292231 -19.287923031918577, -45.36860465284788 -19.3399052695533 M-45.36860465284788 -19.3399052695533 C-44.87584210260584 -19.387441480141476, -44.383079552363796 -19.434977690729653, -44.1243692896239 -19.45993515863156 M-45.36860465284788 -19.3399052695533 C-44.950365607997874 -19.380252287203934, -44.53212656314787 -19.420599304854573, -44.1243692896239 -19.45993515863156 M-44.1243692896239 -19.45993515863156 C-43.84031317337371 -19.469044285398013, -43.55625705712351 -19.478153412164467, -42.87500000000001 -19.5 M-44.1243692896239 -19.45993515863156 C-43.70731339289065 -19.473309329489737, -43.290257496157395 -19.486683500347915, -42.87500000000001 -19.5 M-42.87500000000001 -19.5 C-42.87500000000001 -19.5, -42.875 -19.5, -42.875 -19.5 M-42.87500000000001 -19.5 C-42.87500000000001 -19.5, -42.875 -19.5, -42.875 -19.5" stroke="#89b4fa" stroke-width="1.3" fill="none" stroke-dasharray="0 0" style="fill:#89b4fa !important;stroke:#89b4fa !important"/></g><g class="label" style="color:#1e1e2e !important;font-weight:bold !important" transform="translate(-50, -12)"><rect/><foreignObject width="100" height="24"><div style="color: rgb(30, 30, 46) !important; font-weight: bold !important; display: table-cell; white-space: nowrap; line-height: 1.5; max-width: 200px; text-align: center;" xmlns="http://www.w3.org/1999/xhtml"><span style="color:#1e1e2e !important;font-weight:bold !important" class="nodeLabel "><p>mail-relay</p></span></div></foreignObject></g></g><g class="node default ctx_host_c " id="my-svg-flowchart-ctx_host-1" data-look="classic" transform="translate(301.72996520996094, 51)"><rect class="basic label-container" style="fill:#fab387 !important;stroke:#fab387 !important;stroke-width:2px !important" x="-130" y="-39" width="260" height="78"/><g class="label" style="color:#1e1e2e !important" transform="translate(-100, -24)"><rect/><foreignObject width="200" height="48"><div style="color: rgb(30, 30, 46) !important; display: table; white-space: break-spaces; line-height: 1.5; max-width: 200px; text-align: center; width: 200px;" xmlns="http://www.w3.org/1999/xhtml"><span style="color:#1e1e2e !important" class="nodeLabel "><p>host { host } · context</p></span></div></foreignObject></g></g><g class="node default ctx_default_c " id="my-svg-flowchart-ctx_default-2" data-look="classic" transform="translate(909.2299652099609, 164)"><rect class="basic label-container" style="fill:#f38ba8 !important;stroke:#f38ba8 !important;stroke-width:2px !important" x="-130" y="-39" width="260" height="78"/><g class="label" style="color:#1e1e2e !important" transform="translate(-100, -24)"><rect/><foreignObject width="200" height="48"><div style="color: rgb(30, 30, 46) !important; display: table; white-space: break-spaces; line-height: 1.5; max-width: 200px; text-align: center; width: 200px;" xmlns="http://www.w3.org/1999/xhtml"><span style="color:#1e1e2e !important" class="nodeLabel "><p>default { host } · context</p></span></div></foreignObject></g></g><g class="node default ctx_hm_host_c " id="my-svg-flowchart-ctx_hm_host-3" data-look="classic" transform="translate(596.7299652099609, 51)"><rect class="basic label-container" style="fill:#f38ba8 !important;stroke:#f38ba8 !important;stroke-width:2px !important" x="-130" y="-39" width="260" height="78"/><g class="label" style="color:#1e1e2e !important" transform="translate(-100, -24)"><rect/><foreignObject width="200" height="48"><div style="color: rgb(30, 30, 46) !important; display: table; white-space: break-spaces; line-height: 1.5; max-width: 200px; text-align: center; width: 200px;" xmlns="http://www.w3.org/1999/xhtml"><span style="color:#1e1e2e !important" class="nodeLabel "><p>hm-host { host } · context</p></span></div></foreignObject></g></g><g class="node default ctx_hm_user_c " id="my-svg-flowchart-ctx_hm_user-4" data-look="classic" transform="translate(909.2299652099609, 277)"><rect class="basic label-container" style="fill:#fab387 !important;stroke:#fab387 !important;stroke-width:2px !important" x="-130" y="-39" width="260" height="78"/><g class="label" style="color:#1e1e2e !important" transform="translate(-100, -24)"><rect/><foreignObject width="200" height="48"><div style="color: rgb(30, 30, 46) !important; display: table; white-space: break-spaces; line-height: 1.5; max-width: 200px; text-align: center; width: 200px;" xmlns="http://www.w3.org/1999/xhtml"><span style="color:#1e1e2e !important" class="nodeLabel "><p>hm-user { host, user } · context</p></span></div></foreignObject></g></g><g class="node default ctx_user_c " id="my-svg-flowchart-ctx_user-5" data-look="classic" transform="translate(596.7299652099609, 164)"><rect class="basic label-container" style="fill:#f9e2af !important;stroke:#f9e2af !important;stroke-width:2px !important" x="-130" y="-39" width="260" height="78"/><g class="label" style="color:#1e1e2e !important" transform="translate(-100, -24)"><rect/><foreignObject width="200" height="48"><div style="color: rgb(30, 30, 46) !important; display: table; white-space: break-spaces; line-height: 1.5; max-width: 200px; text-align: center; width: 200px;" xmlns="http://www.w3.org/1999/xhtml"><span style="color:#1e1e2e !important" class="nodeLabel "><p>user { host, user } · context</p></span></div></foreignObject></g></g></g><g class="edges edgePaths"><path d="M136.73,51L167.73,51" id="my-svg-L_mail_relay_ctx_host_0_0" class=" edge-thickness-normal edge-pattern-solid edge-thickness-normal edge-pattern-solid flowchart-link" style=";" data-edge="true" data-et="edge" data-id="L_mail_relay_ctx_host_0_0" data-points="W3sieCI6MTM2LjcyOTk2NTIwOTk2MDk0LCJ5Ijo1MX0seyJ4IjoxNzEuNzI5OTY1MjA5OTYwOTQsInkiOjUxfV0=" data-look="classic" marker-end="url(#my-svg_flowchart-v2-pointEnd)"/><path d="M431.73,51L433.813,51C435.897,51,440.063,51,442.618,51.362C445.173,51.724,446.116,52.448,446.949,53.281C447.782,54.114,448.506,55.057,448.868,82.112C449.23,109.167,449.23,162.333,449.592,189.388C449.954,216.443,450.678,217.386,451.511,218.219C452.344,219.052,453.287,219.776,477.509,220.138C501.73,220.5,549.23,220.5,596.73,220.5C644.23,220.5,691.73,220.5,715.951,220.138C740.173,219.776,741.116,219.052,741.949,218.219C742.782,217.386,743.506,216.443,743.868,208.221C744.23,200,744.23,184.5,744.592,176.279C744.954,168.057,745.678,167.114,746.511,166.281C747.344,165.448,748.287,164.724,753.092,164.362C757.897,164,766.563,164,770.897,164L775.23,164" id="my-svg-L_ctx_host_ctx_default_0_0" class=" edge-thickness-normal edge-pattern-solid edge-thickness-normal edge-pattern-solid flowchart-link" style=";" data-edge="true" data-et="edge" data-id="L_ctx_host_ctx_default_0_0" data-points="W3sieCI6NDMxLjcyOTk2NTIwOTk2MDk0LCJ5Ijo1MX0seyJ4Ijo0NDkuMjI5OTY1MjA5OTYwOTQsInkiOjUxfSx7IngiOjQ0OS4yMjk5NjUyMDk5NjA5NCwieSI6MjIwLjV9LHsieCI6NTk2LjcyOTk2NTIwOTk2MDksInkiOjIyMC41fSx7IngiOjc0NC4yMjk5NjUyMDk5NjA5LCJ5IjoyMjAuNX0seyJ4Ijo3NDQuMjI5OTY1MjA5OTYwOSwieSI6MTY0fSx7IngiOjc3OS4yMjk5NjUyMDk5NjA5LCJ5IjoxNjR9XQ==" data-look="classic" marker-end="url(#my-svg_flowchart-v2-pointEnd)"/><path d="M431.73,51L462.73,51" id="my-svg-L_ctx_host_ctx_hm_host_0_0" class=" edge-thickness-normal edge-pattern-solid edge-thickness-normal edge-pattern-solid flowchart-link" style=";" data-edge="true" data-et="edge" data-id="L_ctx_host_ctx_hm_host_0_0" data-points="W3sieCI6NDMxLjcyOTk2NTIwOTk2MDk0LCJ5Ijo1MX0seyJ4Ijo0NjYuNzI5OTY1MjA5OTYwOTQsInkiOjUxfV0=" data-look="classic" marker-end="url(#my-svg_flowchart-v2-pointEnd)"/><path d="M726.73,51L731.73,51C736.73,51,746.73,51,752.201,51.362C757.673,51.724,758.616,52.448,759.449,53.281C760.282,54.114,761.006,55.057,761.368,91.529C761.73,128,761.73,200,762.092,236.471C762.454,272.943,763.178,273.886,764.011,274.719C764.844,275.552,765.787,276.276,767.675,276.638C769.563,277,772.397,277,773.813,277L775.23,277" id="my-svg-L_ctx_hm_host_ctx_hm_user_0_0" class=" edge-thickness-normal edge-pattern-solid edge-thickness-normal edge-pattern-solid flowchart-link" style=";" data-edge="true" data-et="edge" data-id="L_ctx_hm_host_ctx_hm_user_0_0" data-points="W3sieCI6NzI2LjcyOTk2NTIwOTk2MDksInkiOjUxfSx7IngiOjc2MS43Mjk5NjUyMDk5NjA5LCJ5Ijo1MX0seyJ4Ijo3NjEuNzI5OTY1MjA5OTYwOSwieSI6Mjc3fSx7IngiOjc3OS4yMjk5NjUyMDk5NjA5LCJ5IjoyNzd9XQ==" data-look="classic" marker-end="url(#my-svg_flowchart-v2-pointEnd)"/><path d="M431.73,51L433.813,51C435.897,51,440.063,51,442.618,51.362C445.173,51.724,446.116,52.448,446.949,53.281C447.782,54.114,448.506,55.057,448.868,72.695C449.23,90.333,449.23,124.667,449.592,142.305C449.954,159.943,450.678,160.886,451.511,161.719C452.344,162.552,453.287,163.276,455.175,163.638C457.063,164,459.897,164,461.313,164L462.73,164" id="my-svg-L_ctx_host_ctx_user_0_0" class=" edge-thickness-normal edge-pattern-solid edge-thickness-normal edge-pattern-solid flowchart-link" style=";" data-edge="true" data-et="edge" data-id="L_ctx_host_ctx_user_0_0" data-points="W3sieCI6NDMxLjcyOTk2NTIwOTk2MDk0LCJ5Ijo1MX0seyJ4Ijo0NDkuMjI5OTY1MjA5OTYwOTQsInkiOjUxfSx7IngiOjQ0OS4yMjk5NjUyMDk5NjA5NCwieSI6MTY0fSx7IngiOjQ2Ni43Mjk5NjUyMDk5NjA5NCwieSI6MTY0fV0=" data-look="classic" marker-end="url(#my-svg_flowchart-v2-pointEnd)"/><path d="M726.73,164L775.23,164" id="my-svg-L_ctx_user_ctx_default_0_0" class=" edge-thickness-normal edge-pattern-solid edge-thickness-normal edge-pattern-solid flowchart-link" style=";" data-edge="true" data-et="edge" data-id="L_ctx_user_ctx_default_0_0" data-points="W3sieCI6NzI2LjcyOTk2NTIwOTk2MDksInkiOjE2NH0seyJ4Ijo3NzkuMjI5OTY1MjA5OTYwOSwieSI6MTY0fV0=" data-look="classic" marker-end="url(#my-svg_flowchart-v2-pointEnd)"/></g><g class="edgeLabels"><g class="edgeLabel"><g class="label" data-id="L_mail_relay_ctx_host_0_0" transform="translate(0, 0)"><foreignObject width="0" height="0"><div xmlns="http://www.w3.org/1999/xhtml" class="labelBkg" style="display: table-cell; white-space: nowrap; line-height: 1.5; max-width: 200px; text-align: center;"><span class="edgeLabel "></span></div></foreignObject></g></g><g class="edgeLabel"><g class="label" data-id="L_ctx_host_ctx_default_0_0" transform="translate(0, 0)"><foreignObject width="0" height="0"><div xmlns="http://www.w3.org/1999/xhtml" class="labelBkg" style="display: table-cell; white-space: nowrap; line-height: 1.5; max-width: 200px; text-align: center;"><span class="edgeLabel "></span></div></foreignObject></g></g><g class="edgeLabel"><g class="label" data-id="L_ctx_host_ctx_hm_host_0_0" transform="translate(0, 0)"><foreignObject width="0" height="0"><div xmlns="http://www.w3.org/1999/xhtml" class="labelBkg" style="display: table-cell; white-space: nowrap; line-height: 1.5; max-width: 200px; text-align: center;"><span class="edgeLabel "></span></div></foreignObject></g></g><g class="edgeLabel"><g class="label" data-id="L_ctx_hm_host_ctx_hm_user_0_0" transform="translate(0, 0)"><foreignObject width="0" height="0"><div xmlns="http://www.w3.org/1999/xhtml" class="labelBkg" style="display: table-cell; white-space: nowrap; line-height: 1.5; max-width: 200px; text-align: center;"><span class="edgeLabel "></span></div></foreignObject></g></g><g class="edgeLabel"><g class="label" data-id="L_ctx_host_ctx_user_0_0" transform="translate(0, 0)"><foreignObject width="0" height="0"><div xmlns="http://www.w3.org/1999/xhtml" class="labelBkg" style="display: table-cell; white-space: nowrap; line-height: 1.5; max-width: 200px; text-align: center;"><span class="edgeLabel "></span></div></foreignObject></g></g><g class="edgeLabel"><g class="label" data-id="L_ctx_user_ctx_default_0_0" transform="translate(0, 0)"><foreignObject width="0" height="0"><div xmlns="http://www.w3.org/1999/xhtml" class="labelBkg" style="display: table-cell; white-space: nowrap; line-height: 1.5; max-width: 200px; text-align: center;"><span class="edgeLabel "></span></div></foreignObject></g></g></g></svg>