<?plantuml 1.2026.2?><svg xmlns="http://www.w3.org/2000/svg" xmlns:xlink="http://www.w3.org/1999/xlink" contentStyleType="text/css" data-diagram-type="DESCRIPTION" height="399px" preserveAspectRatio="none" style="width:2179px;height:399px;background:#1E1E2E;" version="1.1" viewBox="0 0 2179 399" width="2179px" zoomAndPan="magnify"><defs/><g><rect fill="#1E1E2E" height="399" style="stroke:none;stroke-width:1;" width="2179" x="0" y="0"/><!--cluster user { host, user }--><g class="cluster" data-qualified-name="user . host. user ." data-source-line="23" id="ent0003"><path d="M1064.5,202.24 L1225.0993,202.24 A3.75,3.75 0 0 1 1227.5993,204.74 L1234.5993,226.7199 L2143.5,226.7199 A2.5,2.5 0 0 1 2146,229.2199 L2146,389.7 A2.5,2.5 0 0 1 2143.5,392.2 L1064.5,392.2 A2.5,2.5 0 0 1 1062,389.7 L1062,204.74 A2.5,2.5 0 0 1 1064.5,202.24" fill="#313244" style="stroke:#6C7086;stroke-width:1.5;"/><line style="stroke:#6C7086;stroke-width:1.5;" x1="1062" x2="1234.5993" y1="226.7199" y2="226.7199"/><text fill="#CDD6F4" font-family="'JetBrains Mono,monospace'" font-size="14" font-weight="bold" lengthAdjust="spacing" textLength="159.5993" x="1066" y="218.5199">user { host, user }</text></g><!--cluster default { host, user }--><g class="cluster" data-qualified-name="default . host. user ." data-source-line="32" id="ent0011"><path d="M8.5,87.76 L194.2992,87.76 A3.75,3.75 0 0 1 196.7992,90.26 L203.7992,112.2399 L1035.5,112.2399 A2.5,2.5 0 0 1 1038,114.7399 L1038,389.7 A2.5,2.5 0 0 1 1035.5,392.2 L8.5,392.2 A2.5,2.5 0 0 1 6,389.7 L6,90.26 A2.5,2.5 0 0 1 8.5,87.76" fill="#313244" style="stroke:#6C7086;stroke-width:1.5;"/><line style="stroke:#6C7086;stroke-width:1.5;" x1="6" x2="203.7992" y1="112.2399" y2="112.2399"/><text fill="#CDD6F4" font-family="'JetBrains Mono,monospace'" font-size="14" font-weight="bold" lengthAdjust="spacing" textLength="184.7992" x="10" y="104.0399">default { host, user }</text></g><!--entity dev_tools--><g class="entity" data-qualified-name="user . host. user ..dev_tools" data-source-line="24" id="ent0004"><rect fill="#FAB387" height="38.4799" rx="2.5" ry="2.5" style="stroke:#A6ADC8;stroke-width:0.5;" width="95.5997" x="1937.2" y="239.24"/><text fill="#1E1E2E" font-family="'JetBrains Mono,monospace'" font-size="14" lengthAdjust="spacing" textLength="75.5997" x="1947.2" y="263.5199">dev-tools</text></g><!--entity gnome--><g class="entity" data-qualified-name="user . host. user ..gnome" data-source-line="25" id="ent0005"><rect fill="#F2CDCD" height="38.4799" rx="2.5" ry="2.5" style="stroke:#A6ADC8;stroke-width:0.5;" width="61.9998" x="2068" y="239.24"/><text fill="#1E1E2E" font-family="'JetBrains Mono,monospace'" font-size="14" lengthAdjust="spacing" textLength="41.9998" x="2078" y="263.5199">gnome</text></g><!--entity primary_user--><g class="entity" data-qualified-name="user . host. user ..primary_user" data-source-line="26" id="ent0006"><rect fill="#F2CDCD" height="38.4799" rx="2.5" ry="2.5" style="stroke:#A6ADC8;stroke-width:0.5;" width="120.7996" x="1549.6" y="239.24"/><text fill="#1E1E2E" font-family="'JetBrains Mono,monospace'" font-size="14" lengthAdjust="spacing" textLength="100.7996" x="1559.6" y="263.5199">primary-user</text></g><!--entity den__provides__primary_user--><g class="entity" data-qualified-name="user . host. user ..den__provides__primary_user" data-source-line="27" id="ent0007"><rect fill="#F2CDCD" height="24.4799" rx="2.5" ry="2.5" style="stroke:#A6ADC8;stroke-width:0.5;" width="196.3992" x="1705.8" y="246.24"/><text fill="#1E1E2E" font-family="'JetBrains Mono,monospace'" font-size="14" lengthAdjust="spacing" textLength="176.3992" x="1715.8" y="263.5199">provides/primary-user</text></g><!--entity user__aspect_user_--><g class="entity" data-qualified-name="user . host. user ..user__aspect_user_" data-source-line="28" id="ent0008"><rect fill="#FAB387" height="38.4799" rx="2.5" ry="2.5" style="stroke:#A6ADC8;stroke-width:0.5;" width="162.7994" x="1077.6" y="239.24"/><text fill="#1E1E2E" font-family="'JetBrains Mono,monospace'" font-size="14" lengthAdjust="spacing" textLength="142.7994" x="1087.6" y="263.5199">user/aspect(user)</text></g><!--entity user__cross_provide__anon__--><g class="entity" data-qualified-name="user . host. user ..user__cross_provide__anon__" data-source-line="29" id="ent0009"><rect fill="#F38BA8" height="38.4799" rx="2.5" ry="2.5" style="stroke:#A6ADC8;stroke-width:0.5;" width="238.399" x="1275.8" y="239.24"/><text fill="#1E1E2E" font-family="'JetBrains Mono,monospace'" font-size="14" lengthAdjust="spacing" textLength="218.399" x="1285.8" y="263.5199">user/cross-provide(&lt;anon&gt;)</text></g><!--entity user__self_provide_user_--><g class="entity" data-qualified-name="user . host. user ..user__self_provide_user_" data-source-line="30" id="ent0010"><rect fill="#F2CDCD" height="38.4799" rx="2.5" ry="2.5" style="stroke:#A6ADC8;stroke-width:0.5;" width="213.1992" x="1916.4" y="337.72"/><text fill="#1E1E2E" font-family="'JetBrains Mono,monospace'" font-size="14" lengthAdjust="spacing" textLength="193.1992" x="1926.4" y="361.9999">user/self-provide(user)</text></g><!--entity n_default--><g class="entity" data-qualified-name="default . host. user ..n_default" data-source-line="33" id="ent0012"><polygon fill="#FAB387" points="442,148.24,337,124.76,127,124.76,22,148.24,127,171.72,337,171.72,442,148.24" style="stroke:#A6ADC8;stroke-width:0.5;"/><text fill="#1E1E2E" font-family="'JetBrains Mono,monospace'" font-size="14" lengthAdjust="spacing" textLength="58.7997" x="126.9995" y="144.0399">default</text><text fill="#1E1E2E" font-family="'JetBrains Mono,monospace'" font-size="14" lengthAdjust="spacing" textLength="209.9991" x="126.9995" y="162.5199">({ aspect-chain, class })</text></g><!--entity default__aspect_default_--><g class="entity" data-qualified-name="default . host. user ..default__aspect_default_" data-source-line="34" id="ent0013"><rect fill="#A6E3A1" height="38.4799" rx="2.5" ry="2.5" style="stroke:#A6ADC8;stroke-width:0.5;" width="213.1992" x="85.4" y="337.72"/><text fill="#1E1E2E" font-family="'JetBrains Mono,monospace'" font-size="14" lengthAdjust="spacing" textLength="193.1992" x="95.4" y="361.9999">default/aspect(default)</text></g><!--entity den__provides__default__aspect_default__den__provides--><g class="entity" data-qualified-name="default . host. user ..den__provides__default__aspect_default__den__provides" data-source-line="35" id="ent0014"><rect fill="#A6E3A1" height="24.4799" rx="2.5" ry="2.5" style="stroke:#A6ADC8;stroke-width:0.5;" width="397.9984" x="334" y="344.72"/><text fill="#1E1E2E" font-family="'JetBrains Mono,monospace'" font-size="14" lengthAdjust="spacing" textLength="377.9984" x="344" y="361.9999">provides/default/aspect(default):den/provides</text></g><!--entity default__cross_provide_user_--><g class="entity" data-qualified-name="default . host. user ..default__cross_provide_user_" data-source-line="36" id="ent0015"><rect fill="#F9E2AF" height="38.4799" rx="2.5" ry="2.5" style="stroke:#A6ADC8;stroke-width:0.5;" width="246.799" x="476.6" y="129"/><text fill="#1E1E2E" font-family="'JetBrains Mono,monospace'" font-size="14" lengthAdjust="spacing" textLength="226.799" x="486.6" y="153.2799">default/cross-provide(user)</text></g><!--entity default__self_provide_default_--><g class="entity" data-qualified-name="default . host. user ..default__self_provide_default_" data-source-line="37" id="ent0016"><rect fill="#FAB387" height="38.4799" rx="2.5" ry="2.5" style="stroke:#A6ADC8;stroke-width:0.5;" width="263.5989" x="758.2" y="129"/><text fill="#1E1E2E" font-family="'JetBrains Mono,monospace'" font-size="14" lengthAdjust="spacing" textLength="243.5989" x="768.2" y="153.2799">default/self-provide(default)</text></g><!--entity den__provides__define_user--><g class="entity" data-qualified-name="default . host. user ..den__provides__define_user" data-source-line="38" id="ent0017"><rect fill="#A6E3A1" height="24.4799" rx="2.5" ry="2.5" style="stroke:#A6ADC8;stroke-width:0.5;" width="187.9993" x="98" y="246.24"/><text fill="#1E1E2E" font-family="'JetBrains Mono,monospace'" font-size="14" lengthAdjust="spacing" textLength="167.9993" x="108" y="263.5199">provides/define-user</text></g><!--entity den__provides__hostname--><g class="entity" data-qualified-name="default . host. user ..den__provides__hostname" data-source-line="39" id="ent0018"><rect fill="#FAB387" height="24.4799" rx="2.5" ry="2.5" style="stroke:#A6ADC8;stroke-width:0.5;" width="162.7994" x="320.6" y="246.24"/><text fill="#1E1E2E" font-family="'JetBrains Mono,monospace'" font-size="14" lengthAdjust="spacing" textLength="142.7994" x="330.6" y="263.5199">provides/hostname</text></g><!--entity den__provides__mutual_provider--><g class="entity" data-qualified-name="default . host. user ..den__provides__mutual_provider" data-source-line="40" id="ent0019"><rect fill="#F9E2AF" height="24.4799" rx="2.5" ry="2.5" style="stroke:#A6ADC8;stroke-width:0.5;" width="221.5991" x="518.2" y="246.24"/><text fill="#1E1E2E" font-family="'JetBrains Mono,monospace'" font-size="14" lengthAdjust="spacing" textLength="201.5991" x="528.2" y="263.5199">provides/mutual-provider</text></g><!--entity bob--><g class="entity" data-qualified-name="bob" data-source-line="22" id="ent0002"><rect fill="#89B4FA" height="38.4799" rx="2.5" ry="2.5" style="stroke:#A6ADC8;stroke-width:0.5;" width="45.1999" x="1871.4" y="129"/><text fill="#1E1E2E" font-family="'JetBrains Mono,monospace'" font-size="14" lengthAdjust="spacing" textLength="25.1999" x="1881.4" y="153.2799">bob</text></g><!--entity user--><g class="entity" data-qualified-name="user" data-source-line="42" id="ent0020"><rect fill="#FAB387" height="38.4799" rx="2.5" ry="2.5" style="stroke:#A6ADC8;stroke-width:0.5;" width="53.5999" x="977.2" y="7"/><text fill="#1E1E2E" font-family="'JetBrains Mono,monospace'" font-size="14" lengthAdjust="spacing" textLength="33.5999" x="987.2" y="31.2799">user</text></g><!--entity ctx_user--><g class="entity" data-qualified-name="ctx_user" data-source-line="67" id="ent0044"><ellipse cx="2006" cy="26.24" fill="#F1F1F1" rx="8" ry="8" style="stroke:#181818;stroke-width:0.5;"/><text fill="#CDD6F4" font-family="'JetBrains Mono,monospace'" font-size="14" lengthAdjust="spacing" textLength="67.1997" x="1972.4001" y="57.5199">ctx_user</text></g><!--entity ctx_default--><g class="entity" data-qualified-name="ctx_default" data-source-line="67" id="ent0045"><ellipse cx="2006" cy="148.24" fill="#F1F1F1" rx="8" ry="8" style="stroke:#181818;stroke-width:0.5;"/><text fill="#CDD6F4" font-family="'JetBrains Mono,monospace'" font-size="14" lengthAdjust="spacing" textLength="92.3996" x="1959.8002" y="179.5199">ctx_default</text></g><!--link bob to dev_tools--><g class="link" data-entity-1="ent0002" data-entity-2="ent0004" data-link-type="dependency" data-source-line="44" id="lnk21"><path d="M1909.44,167.6 C1926.17,187.51 1948.8581,214.4981 1965.6281,234.4381" fill="none" id="bob-to-dev_tools" style="stroke:#A6ADC8;stroke-width:1;"/><polygon fill="#A6ADC8" points="1969.49,239.03,1966.7584,229.5675,1966.2717,235.2034,1960.6359,234.7167,1969.49,239.03" style="stroke:#A6ADC8;stroke-width:1;"/></g><!--link bob to gnome--><g class="link" data-entity-1="ent0002" data-entity-2="ent0005" data-link-type="dependency" data-source-line="45" id="lnk22"><path d="M1915.34,167.94 C1921.34,172.31 1928.12,176.49 1935,179.24 C1982.85,198.39 2005.29,168.6 2050,194.24 C2067.95,204.53 2078.6681,219.0407 2086.9381,233.7407" fill="none" id="bob-to-gnome" style="stroke:#A6ADC8;stroke-width:1;"/><polygon fill="#A6ADC8" points="2089.88,238.97,2088.9533,229.1648,2087.4284,234.6123,2081.981,233.0874,2089.88,238.97" style="stroke:#A6ADC8;stroke-width:1;"/></g><!--link bob to primary_user--><g class="link" data-entity-1="ent0002" data-entity-2="ent0006" data-link-type="dependency" data-source-line="46" id="lnk23"><path d="M1870.93,150.79 C1831.61,154.18 1749.86,164.5 1688,194.24 C1664.9,205.34 1646.9177,220.3734 1632.1277,234.7134" fill="none" id="bob-to-primary_user" style="stroke:#A6ADC8;stroke-width:1;"/><polygon fill="#A6ADC8" points="1627.82,238.89,1637.0659,235.4969,1631.4097,235.4095,1631.4971,229.7533,1627.82,238.89" style="stroke:#A6ADC8;stroke-width:1;"/></g><!--link bob to den__provides__primary_user--><g class="link" data-entity-1="ent0002" data-entity-2="ent0007" data-link-type="dependency" data-source-line="47" id="lnk24"><path d="M1878.73,167.6 C1860.08,190.04 1832.9165,222.7068 1817.3565,241.4168" fill="none" id="bob-to-den__provides__primary_user" style="stroke:#A6ADC8;stroke-width:1;"/><polygon fill="#A6ADC8" points="1813.52,246.03,1822.3502,241.6679,1816.7171,242.1857,1816.1993,236.5526,1813.52,246.03" style="stroke:#A6ADC8;stroke-width:1;"/></g><!--link bob to user__self_provide_user_--><g class="link" data-entity-1="ent0002" data-entity-2="ent0010" data-link-type="dependency" data-source-line="48" id="lnk25"><path d="M1914.81,167.91 C1920.91,172.39 1927.88,176.63 1935,179.24 C1957.17,187.36 2130.9,176.96 2147,194.24 C2172.29,221.39 2164.92,245.23 2147,277.72 C2131.63,305.58 2107.1434,322.3449 2080.5434,334.8049" fill="none" id="bob-to-user__self_provide_user_" style="stroke:#A6ADC8;stroke-width:1;"/><polygon fill="#A6ADC8" points="2075.11,337.35,2084.9569,337.1546,2079.6379,335.2291,2081.5634,329.91,2075.11,337.35" style="stroke:#A6ADC8;stroke-width:1;"/></g><!--link n_default to default__aspect_default_--><g class="link" data-entity-1="ent0012" data-entity-2="ent0013" data-link-type="dependency" data-source-line="49" id="lnk26"><path d="M111.55,168.65 C99.7,175.04 89.09,183.38 81,194.24 C58.83,223.99 63.92,244.78 81,277.72 C95,304.72 117.7707,321.5851 142.1807,334.4351" fill="none" id="n_default-to-default__aspect_default_" style="stroke:#A6ADC8;stroke-width:1;"/><polygon fill="#A6ADC8" points="147.49,337.23,141.3894,329.4981,143.0656,334.9009,137.6628,336.5771,147.49,337.23" style="stroke:#A6ADC8;stroke-width:1;"/></g><!--link n_default to den__provides__define_user--><g class="link" data-entity-1="ent0012" data-entity-2="ent0017" data-link-type="dependency" data-source-line="50" id="lnk27"><path d="M223.52,172.2 C215.17,194.78 204.8385,222.7315 198.3685,240.2515" fill="none" id="n_default-to-den__provides__define_user" style="stroke:#A6ADC8;stroke-width:1;"/><polygon fill="#A6ADC8" points="196.29,245.88,203.1601,238.823,198.0221,241.1896,195.6555,236.0516,196.29,245.88" style="stroke:#A6ADC8;stroke-width:1;"/></g><!--link n_default to den__provides__hostname--><g class="link" data-entity-1="ent0012" data-entity-2="ent0018" data-link-type="dependency" data-source-line="51" id="lnk28"><path d="M268.14,172.11 C279.32,179.19 291.67,187.03 303,194.24 C331.22,212.2 358.8563,229.8658 378.7163,242.5758" fill="none" id="n_default-to-den__provides__hostname" style="stroke:#A6ADC8;stroke-width:1;"/><polygon fill="#A6ADC8" points="383.77,245.81,378.3457,237.5895,379.5586,243.1148,374.0333,244.3277,383.77,245.81" style="stroke:#A6ADC8;stroke-width:1;"/></g><!--link n_default to den__provides__mutual_provider--><g class="link" data-entity-1="ent0012" data-entity-2="ent0019" data-link-type="dependency" data-source-line="52" id="lnk29"><path d="M371.05,164.56 C413.4,171.33 459.66,180.89 501,194.24 C541.57,207.34 580.2405,228.3343 604.6305,242.7043" fill="none" id="n_default-to-den__provides__mutual_provider" style="stroke:#A6ADC8;stroke-width:1;"/><polygon fill="#A6ADC8" points="609.8,245.75,604.0763,237.7351,605.4921,243.2119,600.0153,244.6277,609.8,245.75" style="stroke:#A6ADC8;stroke-width:1;"/></g><!--link den__provides__define_user to default__aspect_default_--><g class="link" data-entity-1="ent0017" data-entity-2="ent0013" data-link-type="dependency" data-source-line="53" id="lnk30"><path d="M192,270.93 C192,287.3 192,311.59 192,331.25" fill="none" id="den__provides__define_user-to-default__aspect_default_" style="stroke:#A6ADC8;stroke-width:1;"/><polygon fill="#A6ADC8" points="192,337.25,196,328.25,192,332.25,188,328.25,192,337.25" style="stroke:#A6ADC8;stroke-width:1;"/></g><!--link den__provides__define_user to den__provides__default__aspect_default__den__provides--><g class="link" data-entity-1="ent0017" data-entity-2="ent0014" data-link-type="dependency" data-source-line="54" id="lnk31"><path d="M233.47,271.21 C299.06,289.77 420.2066,324.0467 485.7766,342.5967" fill="none" id="den__provides__define_user-to-den__provides__default__aspect_default__den__provides" style="stroke:#A6ADC8;stroke-width:1;"/><polygon fill="#A6ADC8" points="491.55,344.23,483.9788,337.9311,486.7388,342.8689,481.801,345.629,491.55,344.23" style="stroke:#A6ADC8;stroke-width:1;"/></g><!--link den__provides__hostname to default__aspect_default_--><g class="link" data-entity-1="ent0018" data-entity-2="ent0013" data-link-type="dependency" data-source-line="55" id="lnk32"><path d="M376.67,271.12 C340.89,287.56 280.6122,315.2452 237.9922,334.8252" fill="none" id="den__provides__hostname-to-default__aspect_default_" style="stroke:#A6ADC8;stroke-width:1;"/><polygon fill="#A6ADC8" points="232.54,337.33,242.3881,337.2076,237.0835,335.2427,239.0484,329.9381,232.54,337.33" style="stroke:#A6ADC8;stroke-width:1;"/></g><!--link den__provides__hostname to den__provides__default__aspect_default__den__provides--><g class="link" data-entity-1="ent0018" data-entity-2="ent0014" data-link-type="dependency" data-source-line="56" id="lnk33"><path d="M417.8,271.12 C442.98,289.66 487.0991,322.1515 512.3091,340.7215" fill="none" id="den__provides__hostname-to-den__provides__default__aspect_default__den__provides" style="stroke:#A6ADC8;stroke-width:1;"/><polygon fill="#A6ADC8" points="517.14,344.28,512.266,335.7217,513.1143,341.3146,507.5214,342.1629,517.14,344.28" style="stroke:#A6ADC8;stroke-width:1;"/></g><!--link den__provides__mutual_provider to default__aspect_default_--><g class="link" data-entity-1="ent0019" data-entity-2="ent0013" data-link-type="dependency" data-source-line="57" id="lnk34"><path d="M575.85,271.21 C501.36,287.66 370.969,316.4467 282.449,335.9867" fill="none" id="den__provides__mutual_provider-to-default__aspect_default_" style="stroke:#A6ADC8;stroke-width:1;"/><polygon fill="#A6ADC8" points="276.59,337.28,286.2406,339.246,281.4725,336.2022,284.5162,331.4341,276.59,337.28" style="stroke:#A6ADC8;stroke-width:1;"/></g><!--link den__provides__mutual_provider to den__provides__default__aspect_default__den__provides--><g class="link" data-entity-1="ent0019" data-entity-2="ent0014" data-link-type="dependency" data-source-line="58" id="lnk35"><path d="M617.61,270.93 C599.23,289.4 567.4624,321.3271 548.9024,339.9771" fill="none" id="den__provides__mutual_provider-to-den__provides__default__aspect_default__den__provides" style="stroke:#A6ADC8;stroke-width:1;"/><polygon fill="#A6ADC8" points="544.67,344.23,553.8538,340.6722,548.197,340.6859,548.1833,335.0291,544.67,344.23" style="stroke:#A6ADC8;stroke-width:1;"/></g><!--link dev_tools to user__self_provide_user_--><g class="link" data-entity-1="ent0004" data-entity-2="ent0010" data-link-type="dependency" data-source-line="59" id="lnk36"><path d="M1992.33,278.08 C1999.06,295.17 2006.7682,314.7686 2013.4982,331.8286" fill="none" id="dev_tools-to-user__self_provide_user_" style="stroke:#A6ADC8;stroke-width:1;"/><polygon fill="#A6ADC8" points="2015.7,337.41,2016.1182,327.57,2013.8652,332.7588,2008.6764,330.5058,2015.7,337.41" style="stroke:#A6ADC8;stroke-width:1;"/></g><!--link gnome to user__self_provide_user_--><g class="link" data-entity-1="ent0005" data-entity-2="ent0010" data-link-type="dependency" data-source-line="60" id="lnk37"><path d="M2084.35,278.08 C2070.89,295.17 2054.763,315.6369 2041.323,332.6969" fill="none" id="gnome-to-user__self_provide_user_" style="stroke:#A6ADC8;stroke-width:1;"/><polygon fill="#A6ADC8" points="2037.61,337.41,2046.3216,332.8157,2040.7042,333.4824,2040.0375,327.865,2037.61,337.41" style="stroke:#A6ADC8;stroke-width:1;"/></g><!--link user to bob--><g class="link" data-entity-1="ent0020" data-entity-2="ent0002" data-link-type="dependency" data-source-line="61" id="lnk38"><path d="M1031.12,30.9 C1164.4,48.87 1742.5038,126.8183 1865.3338,143.3783" fill="none" id="user-to-bob" style="stroke:#A6ADC8;stroke-width:1;"/><polygon fill="#A6ADC8" points="1871.28,144.18,1862.8951,139.0134,1866.3248,143.5119,1861.8262,146.9416,1871.28,144.18" style="stroke:#A6ADC8;stroke-width:1;"/></g><!--link user to n_default--><g class="link" data-entity-1="ent0020" data-entity-2="ent0012" data-link-type="dependency" data-source-line="62" id="lnk39"><path d="M976.8,28.01 C896.72,30.67 655.16,41.52 459,79.76 C403.31,90.62 347.3921,107.4826 302.4221,122.4726" fill="none" id="user-to-n_default" style="stroke:#A6ADC8;stroke-width:1;"/><polygon fill="#A6ADC8" points="296.73,124.37,306.5331,125.3187,301.4734,122.7889,304.0032,117.7292,296.73,124.37" style="stroke:#A6ADC8;stroke-width:1;"/></g><!--link user to default__cross_provide_user_--><g class="link" data-entity-1="ent0020" data-entity-2="ent0015" data-link-type="dependency" data-source-line="63" id="lnk40"><path d="M976.92,30.38 C928.6,36.49 824.71,51.86 741,79.76 C702.51,92.59 666.1674,110.5953 638.1974,125.7253" fill="none" id="user-to-default__cross_provide_user_" style="stroke:#A6ADC8;stroke-width:1;"/><polygon fill="#A6ADC8" points="632.92,128.58,642.7392,127.8162,637.3178,126.2011,638.9329,120.7797,632.92,128.58" style="stroke:#A6ADC8;stroke-width:1;"/></g><!--link user to default__self_provide_default_--><g class="link" data-entity-1="ent0020" data-entity-2="ent0016" data-link-type="dependency" data-source-line="64" id="lnk41"><path d="M986.44,45.73 C965.08,68.21 933.3524,101.5999 911.9024,124.1799" fill="none" id="user-to-default__self_provide_default_" style="stroke:#A6ADC8;stroke-width:1;"/><polygon fill="#A6ADC8" points="907.77,128.53,916.8687,124.7598,911.2137,124.9049,911.0685,119.2499,907.77,128.53" style="stroke:#A6ADC8;stroke-width:1;"/></g><!--link user to user__aspect_user_--><g class="link" data-entity-1="ent0020" data-entity-2="ent0008" data-link-type="dependency" data-source-line="65" id="lnk42"><path d="M1016.42,45.69 C1045.44,88.8 1114.0895,190.7626 1143.1695,233.9626" fill="none" id="user-to-user__aspect_user_" style="stroke:#A6ADC8;stroke-width:1;"/><polygon fill="#A6ADC8" points="1146.52,238.94,1144.8125,229.2403,1143.7279,234.7922,1138.176,233.7076,1146.52,238.94" style="stroke:#A6ADC8;stroke-width:1;"/></g><!--link user to user__cross_provide__anon__--><g class="link" data-entity-1="ent0020" data-entity-2="ent0009" data-link-type="dependency" data-source-line="66" id="lnk43"><path d="M1031.17,41.93 C1050.25,52.32 1076.3,66.68 1099,79.76 C1197.15,136.33 1306.5979,203.0988 1359.8479,235.8188" fill="none" id="user-to-user__cross_provide__anon__" style="stroke:#A6ADC8;stroke-width:1;"/><polygon fill="#A6ADC8" points="1364.96,238.96,1359.386,230.8402,1360.7,236.3424,1355.1978,237.6563,1364.96,238.96" style="stroke:#A6ADC8;stroke-width:1;"/></g><!--link ctx_user to ctx_default--><g class="link" data-entity-1="ent0044" data-entity-2="ent0045" data-link-type="dependency" data-source-line="67" id="lnk46"><path d="M2006,35.11 C2006,56.91 2006,111.85 2006,133.49" fill="none" id="ctx_user-to-ctx_default" style="stroke:#A6ADC8;stroke-width:1;"/><polygon fill="#A6ADC8" points="2006,139.49,2010,130.49,2006,134.49,2002,130.49,2006,139.49" style="stroke:#A6ADC8;stroke-width:1;"/></g><?plantuml-src hLNVQzim47xtNo6IbnHYilmWTSVeGmjZ35R6dWVcBCj9g2q5oUawGlxtIR8b_vALjkmbyUc--xxJtKaIpmTw10u5IW0_xpWxqVIHvOoZwP8ioOe4mY9Iai4fBxyoMjOGdARRREE6F451qEGxAHyu7AX0FnXbyqB-Y2DWCca50UViJyq8MqXnr7Vw97yHN0BTvUIXlu7rShtQkA6CfuIFILfOItPGZ6_a5NQCNXSrGAza3V89FW9Fhwjfb5TA8NmwFwK6xDvGJGDigstnxQTeEmJv6lZ4oZUeQPHNIY66EW4ttKIJX2KJ10B9VpIDxf9D1i6nIX1DJe9mT4Px9ievqiPbWiu1GYs2bBo49MEvq3JIYhM5fXaaw-Ys2zvHLX0Dr5yIjC8fJhkW8pyKmF-6Ib1ZwuLOPz24ODarXMOlXvI8nI0i9JIEZLjzELbQmigp076KApFrVQDfr5SSLyiwE7RlJKTZpeG8Qz7P5w2CthTfjDya9LcbFrPywoY1oC4dI9vPkdvEoccvJ6RLlYvD4-lxnzd7VNN6BEWtdPrHjTKGx-KTDKSu1o7GfTAbiM5pbg1scXhMvatT3MtOIXfR7KUoXkMmeIDidsLV5mRaQlIOKjp1jNGTE-ZsiIcyvUesqXJ_ZgmWSpDsEkckJAUVJNrifOVrEL0oEk-LknxtiHghaQ1GdyaUWV6DPr2SoXFaPbVEB2g8MU2sHfUWD-fshgrSeEwaCBnlBXMxecyFQxLFTYjezFHRpDWn2fevhwZS0pM0ZTNV3pHrzgDwXGmytVRcV3Nk0sSf69kSzsJI2_eFQVHdxptPk6C_bfHv4hqZLps8NeXjafpVnh1J4moRxxYb72ZdlTFWXWzWt-TyrG9SlZPpfOoQ-Xy0?></g></svg>