<?xml version="1.0" encoding="UTF-8" standalone="no"?>
<!DOCTYPE svg PUBLIC "-//W3C//DTD SVG 1.1//EN"
 "http://www.w3.org/Graphics/SVG/1.1/DTD/svg11.dtd">
<!-- Generated by graphviz version 12.2.1 (0)
 -->
<!-- Pages: 1 -->
<svg width="1559pt" height="603pt"
 viewBox="0.00 0.00 1559.30 603.00" xmlns="http://www.w3.org/2000/svg" xmlns:xlink="http://www.w3.org/1999/xlink">
<g id="graph0" class="graph" transform="scale(1 1) rotate(0) translate(4 599)">
<polygon fill="#1e1e2e" stroke="none" points="-4,4 -4,-599 1555.3,-599 1555.3,4 -4,4"/>
<g id="clust1" class="cluster">
<title>cluster_ctx_user</title>
<polygon fill="#313244" stroke="#6c7086" stroke-dasharray="5,2" points="445.69,-8 445.69,-355 1293.89,-355 1293.89,-8 445.69,-8"/>
<text text-anchor="middle" x="869.79" y="-337.7" font-family="Times,serif" font-size="14.00" fill="#cdd6f4">user { host, user }</text>
</g>
<g id="clust2" class="cluster">
<title>cluster_ctx_default</title>
<polygon fill="#313244" stroke="#6c7086" stroke-dasharray="5,2" points="82,-368 82,-587 1543.3,-587 1543.3,-368 82,-368"/>
<text text-anchor="middle" x="812.65" y="-569.7" font-family="Times,serif" font-size="14.00" fill="#cdd6f4">default { host, user }</text>
</g>
<!-- bob -->
<g id="node1" class="node">
<title>bob</title>
<path fill="#89b4fa" stroke="#89b4fa" d="M257.68,-295C257.68,-295 227.68,-295 227.68,-295 221.68,-295 215.68,-289 215.68,-283 215.68,-283 215.68,-271 215.68,-271 215.68,-265 221.68,-259 227.68,-259 227.68,-259 257.68,-259 257.68,-259 263.68,-259 269.68,-265 269.68,-271 269.68,-271 269.68,-283 269.68,-283 269.68,-289 263.68,-295 257.68,-295"/>
<text text-anchor="middle" x="242.68" y="-272.32" font-family="Times,serif" font-size="14.00" fill="#1e1e2e">bob</text>
</g>
<!-- dev_tools -->
<g id="node2" class="node">
<title>dev_tools</title>
<polygon fill="#fab387" stroke="#fab387" points="667.55,-214 587.05,-214 587.05,-178 667.55,-178 667.55,-214"/>
<text text-anchor="middle" x="627.3" y="-191.32" font-family="Times,serif" font-size="14.00" fill="#1e1e2e">dev&#45;tools</text>
</g>
<!-- bob&#45;&gt;dev_tools -->
<g id="edge1" class="edge">
<title>bob&#45;&gt;dev_tools</title>
<path fill="none" stroke="#a6adc8" d="M270.11,-268.1C306.17,-256.26 372.99,-235.38 431.37,-223 479.89,-212.71 536.06,-205.41 575.61,-201.02"/>
<polygon fill="#a6adc8" stroke="#a6adc8" points="575.74,-204.52 585.31,-199.96 574.99,-197.56 575.74,-204.52"/>
</g>
<!-- gnome -->
<g id="node3" class="node">
<title>gnome</title>
<polygon fill="#f2cdcd" stroke="#f2cdcd" points="659.3,-160 595.3,-160 595.3,-124 659.3,-124 659.3,-160"/>
<text text-anchor="middle" x="627.3" y="-137.32" font-family="Times,serif" font-size="14.00" fill="#1e1e2e">gnome</text>
</g>
<!-- bob&#45;&gt;gnome -->
<g id="edge2" class="edge">
<title>bob&#45;&gt;gnome</title>
<path fill="none" stroke="#a6adc8" d="M270.02,-269.84C301.9,-260.3 356.17,-241.15 395.37,-212 415.37,-197.13 409.56,-181.07 431.37,-169 478.8,-142.73 542.34,-138.66 583.79,-139.35"/>
<polygon fill="#a6adc8" stroke="#a6adc8" points="583.51,-142.85 593.61,-139.63 583.71,-135.85 583.51,-142.85"/>
</g>
<!-- primary_user -->
<g id="node4" class="node">
<title>primary_user</title>
<polygon fill="#f2cdcd" stroke="#f2cdcd" points="681.8,-268 572.8,-268 572.8,-232 681.8,-232 681.8,-268"/>
<text text-anchor="middle" x="627.3" y="-245.32" font-family="Times,serif" font-size="14.00" fill="#1e1e2e">primary&#45;user</text>
</g>
<!-- bob&#45;&gt;primary_user -->
<g id="edge3" class="edge">
<title>bob&#45;&gt;primary_user</title>
<path fill="none" stroke="#a6adc8" d="M269.98,-275.14C329.38,-270.95 475.4,-260.65 560.94,-254.61"/>
<polygon fill="#a6adc8" stroke="#a6adc8" points="561.1,-258.11 570.83,-253.91 560.61,-251.13 561.1,-258.11"/>
</g>
<!-- den__provides__primary_user -->
<g id="node5" class="node">
<title>den__provides__primary_user</title>
<polygon fill="#f2cdcd" stroke="#f2cdcd" points="728.69,-322 525.91,-322 453.69,-286 800.91,-286 728.69,-322"/>
<text text-anchor="middle" x="627.3" y="-299.32" font-family="Times,serif" font-size="14.00" fill="#1e1e2e">provides/primary&#45;user</text>
</g>
<!-- bob&#45;&gt;den__provides__primary_user -->
<g id="edge4" class="edge">
<title>bob&#45;&gt;den__provides__primary_user</title>
<path fill="none" stroke="#a6adc8" d="M269.98,-278.86C308.53,-281.58 383.53,-286.87 454.83,-291.9"/>
<polygon fill="#a6adc8" stroke="#a6adc8" points="454.5,-295.39 464.72,-292.6 454.99,-288.4 454.5,-295.39"/>
</g>
<!-- user__self_provide_user_ -->
<g id="node8" class="node">
<title>user__self_provide_user_</title>
<polygon fill="#f2cdcd" stroke="#f2cdcd" points="1285.89,-214 1108.64,-214 1108.64,-178 1285.89,-178 1285.89,-214"/>
<text text-anchor="middle" x="1197.26" y="-191.32" font-family="Times,serif" font-size="14.00" fill="#1e1e2e">user/self&#45;provide(user)</text>
</g>
<!-- bob&#45;&gt;user__self_provide_user_ -->
<g id="edge5" class="edge">
<title>bob&#45;&gt;user__self_provide_user_</title>
<path fill="none" stroke="#a6adc8" d="M269.9,-287.08C305.73,-300.27 372.28,-322.67 431.37,-331 603.82,-355.32 651.69,-361.08 823.23,-331 945.02,-309.64 1079.46,-251.84 1148.9,-219.22"/>
<polygon fill="#a6adc8" stroke="#a6adc8" points="1150.16,-222.5 1157.7,-215.05 1147.17,-216.17 1150.16,-222.5"/>
</g>
<!-- dev_tools&#45;&gt;user__self_provide_user_ -->
<g id="edge16" class="edge">
<title>dev_tools&#45;&gt;user__self_provide_user_</title>
<path fill="none" stroke="#a6adc8" d="M667.79,-196C755.76,-196 970.09,-196 1097.14,-196"/>
<polygon fill="#a6adc8" stroke="#a6adc8" points="1096.88,-199.5 1106.88,-196 1096.88,-192.5 1096.88,-199.5"/>
</g>
<!-- gnome&#45;&gt;user__self_provide_user_ -->
<g id="edge17" class="edge">
<title>gnome&#45;&gt;user__self_provide_user_</title>
<path fill="none" stroke="#a6adc8" d="M659.64,-144.98C741.78,-152.79 965.97,-174.1 1097.13,-186.57"/>
<polygon fill="#a6adc8" stroke="#a6adc8" points="1096.57,-190.04 1106.85,-187.5 1097.23,-183.07 1096.57,-190.04"/>
</g>
<!-- user__aspect_user_ -->
<g id="node6" class="node">
<title>user__aspect_user_</title>
<polygon fill="#fab387" stroke="#fab387" points="697.55,-106 557.05,-106 557.05,-70 697.55,-70 697.55,-106"/>
<text text-anchor="middle" x="627.3" y="-83.33" font-family="Times,serif" font-size="14.00" fill="#1e1e2e">user/aspect(user)</text>
</g>
<!-- user__cross_provide__anon__ -->
<g id="node7" class="node">
<title>user__cross_provide__anon__</title>
<polygon fill="#f38ba8" stroke="#f38ba8" points="735.8,-52 518.8,-52 518.8,-16 735.8,-16 735.8,-52"/>
<text text-anchor="middle" x="627.3" y="-29.32" font-family="Times,serif" font-size="14.00" fill="#1e1e2e">user/cross&#45;provide(&lt;anon&gt;)</text>
</g>
<!-- n_default -->
<g id="node9" class="node">
<title>n_default</title>
<polygon fill="#fab387" stroke="#fab387" points="395.37,-411 319.03,-445.7 166.34,-445.7 90,-411 166.34,-376.3 319.03,-376.3 395.37,-411"/>
<text text-anchor="middle" x="242.68" y="-414.95" font-family="Times,serif" font-size="14.00" fill="#1e1e2e">default</text>
<text text-anchor="middle" x="242.68" y="-397.7" font-family="Times,serif" font-size="14.00" fill="#1e1e2e">({ aspect&#45;chain, class })</text>
</g>
<!-- default__aspect_default_ -->
<g id="node10" class="node">
<title>default__aspect_default_</title>
<polygon fill="#a6e3a1" stroke="#a6e3a1" points="1286.26,-434 1108.26,-434 1108.26,-398 1286.26,-398 1286.26,-434"/>
<text text-anchor="middle" x="1197.26" y="-411.32" font-family="Times,serif" font-size="14.00" fill="#1e1e2e">default/aspect(default)</text>
</g>
<!-- n_default&#45;&gt;default__aspect_default_ -->
<g id="edge6" class="edge">
<title>n_default&#45;&gt;default__aspect_default_</title>
<path fill="none" stroke="#a6adc8" d="M361.39,-395.07C384.55,-392.54 408.69,-390.32 431.37,-389 669.9,-375.07 950.72,-394.03 1096.73,-406.55"/>
<polygon fill="#a6adc8" stroke="#a6adc8" points="1096.1,-410.01 1106.36,-407.38 1096.7,-403.03 1096.1,-410.01"/>
</g>
<!-- den__provides__define_user -->
<g id="node14" class="node">
<title>den__provides__define_user</title>
<polygon fill="#a6e3a1" stroke="#a6e3a1" points="720.87,-488 533.73,-488 467.08,-452 787.51,-452 720.87,-488"/>
<text text-anchor="middle" x="627.3" y="-465.32" font-family="Times,serif" font-size="14.00" fill="#1e1e2e">provides/define&#45;user</text>
</g>
<!-- n_default&#45;&gt;den__provides__define_user -->
<g id="edge7" class="edge">
<title>n_default&#45;&gt;den__provides__define_user</title>
<path fill="none" stroke="#a6adc8" d="M353.75,-430.36C379.21,-434.67 406.22,-439.11 431.37,-443 446.31,-445.31 461.92,-447.63 477.5,-449.88"/>
<polygon fill="#a6adc8" stroke="#a6adc8" points="476.95,-453.34 487.34,-451.29 477.94,-446.41 476.95,-453.34"/>
</g>
<!-- den__provides__hostname -->
<g id="node15" class="node">
<title>den__provides__hostname</title>
<polygon fill="#fab387" stroke="#fab387" points="715.22,-542 539.38,-542 476.76,-506 777.84,-506 715.22,-542"/>
<text text-anchor="middle" x="627.3" y="-519.33" font-family="Times,serif" font-size="14.00" fill="#1e1e2e">provides/hostname</text>
</g>
<!-- n_default&#45;&gt;den__provides__hostname -->
<g id="edge8" class="edge">
<title>n_default&#45;&gt;den__provides__hostname</title>
<path fill="none" stroke="#a6adc8" d="M348.37,-432.65C364.81,-438.47 381.08,-445.79 395.37,-455 416.04,-468.31 409.79,-485.22 431.37,-497 449.08,-506.67 468.99,-513.32 489.15,-517.82"/>
<polygon fill="#a6adc8" stroke="#a6adc8" points="488.38,-521.24 498.88,-519.8 489.78,-514.38 488.38,-521.24"/>
</g>
<!-- den__provides__mutual_provider -->
<g id="node16" class="node">
<title>den__provides__mutual_provider</title>
<polygon fill="#f9e2af" stroke="#f9e2af" points="741.72,-434 512.87,-434 431.37,-398 823.23,-398 741.72,-434"/>
<text text-anchor="middle" x="627.3" y="-411.32" font-family="Times,serif" font-size="14.00" fill="#1e1e2e">provides/mutual&#45;provider</text>
</g>
<!-- n_default&#45;&gt;den__provides__mutual_provider -->
<g id="edge9" class="edge">
<title>n_default&#45;&gt;den__provides__mutual_provider</title>
<path fill="none" stroke="#a6adc8" d="M392.16,-412.94C412.73,-413.21 433.99,-413.49 454.93,-413.76"/>
<polygon fill="#a6adc8" stroke="#a6adc8" points="454.62,-417.26 464.67,-413.89 454.71,-410.26 454.62,-417.26"/>
</g>
<!-- den__provides__default__aspect_default__den__provides -->
<g id="node11" class="node">
<title>den__provides__default__aspect_default__den__provides</title>
<polygon fill="#a6e3a1" stroke="#a6e3a1" points="1394.69,-488 999.84,-488 859.23,-452 1535.3,-452 1394.69,-488"/>
<text text-anchor="middle" x="1197.26" y="-465.32" font-family="Times,serif" font-size="14.00" fill="#1e1e2e">provides/default/aspect(default):den/provides</text>
</g>
<!-- default__cross_provide_user_ -->
<g id="node12" class="node">
<title>default__cross_provide_user_</title>
<polygon fill="#f9e2af" stroke="#f9e2af" points="347.06,-500 138.31,-500 138.31,-464 347.06,-464 347.06,-500"/>
<text text-anchor="middle" x="242.68" y="-477.32" font-family="Times,serif" font-size="14.00" fill="#1e1e2e">default/cross&#45;provide(user)</text>
</g>
<!-- default__self_provide_default_ -->
<g id="node13" class="node">
<title>default__self_provide_default_</title>
<polygon fill="#fab387" stroke="#fab387" points="350.06,-554 135.31,-554 135.31,-518 350.06,-518 350.06,-554"/>
<text text-anchor="middle" x="242.68" y="-531.33" font-family="Times,serif" font-size="14.00" fill="#1e1e2e">default/self&#45;provide(default)</text>
</g>
<!-- den__provides__define_user&#45;&gt;default__aspect_default_ -->
<g id="edge10" class="edge">
<title>den__provides__define_user&#45;&gt;default__aspect_default_</title>
<path fill="none" stroke="#a6adc8" d="M779.45,-451.53C806.02,-448.51 833.42,-445.54 859.23,-443 938.89,-435.15 1029.31,-428.01 1096.43,-423.04"/>
<polygon fill="#a6adc8" stroke="#a6adc8" points="1096.61,-426.54 1106.33,-422.31 1096.1,-419.55 1096.61,-426.54"/>
</g>
<!-- den__provides__define_user&#45;&gt;den__provides__default__aspect_default__den__provides -->
<g id="edge11" class="edge">
<title>den__provides__define_user&#45;&gt;den__provides__default__aspect_default__den__provides</title>
<path fill="none" stroke="#a6adc8" d="M755.05,-470C803.02,-470 859.73,-470 916.23,-470"/>
<polygon fill="#a6adc8" stroke="#a6adc8" points="916.01,-473.5 926.01,-470 916.01,-466.5 916.01,-473.5"/>
</g>
<!-- den__provides__hostname&#45;&gt;default__aspect_default_ -->
<g id="edge12" class="edge">
<title>den__provides__hostname&#45;&gt;default__aspect_default_</title>
<path fill="none" stroke="#a6adc8" d="M748.75,-523.28C774.77,-518.89 801.09,-510.89 823.23,-497 847.66,-481.67 834.36,-457.62 859.23,-443 930.68,-401 1025.84,-397.12 1096.82,-402.08"/>
<polygon fill="#a6adc8" stroke="#a6adc8" points="1096.25,-405.55 1106.49,-402.83 1096.79,-398.57 1096.25,-405.55"/>
</g>
<!-- den__provides__hostname&#45;&gt;den__provides__default__aspect_default__den__provides -->
<g id="edge13" class="edge">
<title>den__provides__hostname&#45;&gt;den__provides__default__aspect_default__den__provides</title>
<path fill="none" stroke="#a6adc8" d="M770.89,-510.44C837.38,-504.12 917.76,-496.48 990.67,-489.55"/>
<polygon fill="#a6adc8" stroke="#a6adc8" points="990.7,-493.06 1000.33,-488.63 990.04,-486.09 990.7,-493.06"/>
</g>
<!-- den__provides__mutual_provider&#45;&gt;default__aspect_default_ -->
<g id="edge14" class="edge">
<title>den__provides__mutual_provider&#45;&gt;default__aspect_default_</title>
<path fill="none" stroke="#a6adc8" d="M783.5,-416C883.3,-416 1010.02,-416 1096.56,-416"/>
<polygon fill="#a6adc8" stroke="#a6adc8" points="1096.45,-419.5 1106.45,-416 1096.45,-412.5 1096.45,-419.5"/>
</g>
<!-- den__provides__mutual_provider&#45;&gt;den__provides__default__aspect_default__den__provides -->
<g id="edge15" class="edge">
<title>den__provides__mutual_provider&#45;&gt;den__provides__default__aspect_default__den__provides</title>
<path fill="none" stroke="#a6adc8" d="M749.56,-431.02C784.89,-435.17 823.58,-439.49 859.23,-443 885.67,-445.6 913.3,-448.13 940.87,-450.53"/>
<polygon fill="#a6adc8" stroke="#a6adc8" points="940.48,-454.01 950.75,-451.38 941.08,-447.03 940.48,-454.01"/>
</g>
<!-- user -->
<g id="node17" class="node">
<title>user</title>
<polygon fill="#fab387" stroke="#fab387" points="54,-375 0,-375 0,-339 54,-339 54,-375"/>
<text text-anchor="middle" x="27" y="-352.32" font-family="Times,serif" font-size="14.00" fill="#1e1e2e">user</text>
</g>
<!-- user&#45;&gt;bob -->
<g id="edge18" class="edge">
<title>user&#45;&gt;bob</title>
<path fill="none" stroke="#a6adc8" d="M54.2,-347.19C91.93,-333.07 161.73,-306.93 204.7,-290.85"/>
<polygon fill="#a6adc8" stroke="#a6adc8" points="205.71,-294.2 213.85,-287.42 203.26,-287.65 205.71,-294.2"/>
</g>
<!-- user&#45;&gt;user__aspect_user_ -->
<g id="edge22" class="edge">
<title>user&#45;&gt;user__aspect_user_</title>
<path fill="none" stroke="#a6adc8" d="M32.81,-338.58C39.86,-315 55.17,-274.31 82,-250 213.53,-130.85 429.2,-99.16 545.65,-90.85"/>
<polygon fill="#a6adc8" stroke="#a6adc8" points="545.7,-94.36 555.44,-90.2 545.23,-87.37 545.7,-94.36"/>
</g>
<!-- user&#45;&gt;user__cross_provide__anon__ -->
<g id="edge23" class="edge">
<title>user&#45;&gt;user__cross_provide__anon__</title>
<path fill="none" stroke="#a6adc8" d="M29.34,-338.53C33.53,-286.48 48.12,-140.35 82,-109 195.8,-3.69 384.53,-1.88 507.16,-14.59"/>
<polygon fill="#a6adc8" stroke="#a6adc8" points="506.62,-18.05 516.94,-15.65 507.38,-11.09 506.62,-18.05"/>
</g>
<!-- user&#45;&gt;n_default -->
<g id="edge19" class="edge">
<title>user&#45;&gt;n_default</title>
<path fill="none" stroke="#a6adc8" d="M54.2,-363.62C74.25,-368.69 103.36,-376.04 132.68,-383.45"/>
<polygon fill="#a6adc8" stroke="#a6adc8" points="131.46,-386.76 142.01,-385.81 133.18,-379.97 131.46,-386.76"/>
</g>
<!-- user&#45;&gt;default__cross_provide_user_ -->
<g id="edge20" class="edge">
<title>user&#45;&gt;default__cross_provide_user_</title>
<path fill="none" stroke="#a6adc8" d="M32.83,-375.48C39.74,-398.07 54.75,-435.66 82,-455 95.32,-464.46 110.82,-471.01 126.82,-475.49"/>
<polygon fill="#a6adc8" stroke="#a6adc8" points="125.94,-478.88 136.49,-477.91 127.63,-472.09 125.94,-478.88"/>
</g>
<!-- user&#45;&gt;default__self_provide_default_ -->
<g id="edge21" class="edge">
<title>user&#45;&gt;default__self_provide_default_</title>
<path fill="none" stroke="#a6adc8" d="M28.79,-375.28C31.24,-407.63 41.25,-474.78 82,-509 94.25,-519.28 108.93,-526.33 124.37,-531.07"/>
<polygon fill="#a6adc8" stroke="#a6adc8" points="123.13,-534.36 133.7,-533.6 124.96,-527.6 123.13,-534.36"/>
</g>
</g>
</svg>
