<?plantuml 1.2026.2?><svg xmlns="http://www.w3.org/2000/svg" xmlns:xlink="http://www.w3.org/1999/xlink" contentStyleType="text/css" data-diagram-type="DESCRIPTION" height="806px" preserveAspectRatio="none" style="width:1390px;height:806px;background:#1E1E2E;" version="1.1" viewBox="0 0 1390 806" width="1390px" zoomAndPan="magnify"><defs/><g><rect fill="#1E1E2E" height="806" style="stroke:none;stroke-width:1;" width="1390" x="0" y="0"/><!--cluster stage_user--><g class="cluster" data-qualified-name="stage_user" data-source-line="24" id="ent0003"><path d="M607.0999,357 L767.6992,357 A3.75,3.75 0 0 1 770.1992,359.5 L777.1992,381.4799 L1288.4999,381.4799 A2.5,2.5 0 0 1 1290.9999,383.9799 L1290.9999,796.5 A2.5,2.5 0 0 1 1288.4999,799 L607.0999,799 A2.5,2.5 0 0 1 604.5999,796.5 L604.5999,359.5 A2.5,2.5 0 0 1 607.0999,357" fill="#313244" style="stroke:#6C7086;stroke-width:1.5;"/><line style="stroke:#6C7086;stroke-width:1.5;" x1="604.5999" x2="777.1992" y1="381.4799" y2="381.4799"/><text fill="#CDD6F4" font-family="'JetBrains Mono,monospace'" font-size="14" font-weight="bold" lengthAdjust="spacing" textLength="159.5993" x="608.5999" y="373.2799">user { host, user }</text></g><!--cluster stage_default--><g class="cluster" data-qualified-name="stage_default" data-source-line="33" id="ent0011"><path d="M127.0999,61 L312.899,61 A3.75,3.75 0 0 1 315.399,63.5 L322.399,85.4799 L1380.8999,85.4799 A2.5,2.5 0 0 1 1383.3999,87.9799 L1383.3999,304.5 A2.5,2.5 0 0 1 1380.8999,307 L127.0999,307 A2.5,2.5 0 0 1 124.5999,304.5 L124.5999,63.5 A2.5,2.5 0 0 1 127.0999,61" fill="#313244" style="stroke:#6C7086;stroke-width:1.5;"/><line style="stroke:#6C7086;stroke-width:1.5;" x1="124.5999" x2="322.399" y1="85.4799" y2="85.4799"/><text fill="#CDD6F4" font-family="'JetBrains Mono,monospace'" font-size="14" font-weight="bold" lengthAdjust="spacing" textLength="184.7992" x="128.5999" y="77.2799">default { host, user }</text></g><!--entity dev_tools--><g class="entity" data-qualified-name="stage_user.dev_tools" data-source-line="25" id="ent0004"><rect fill="#FAB387" height="38.4799" rx="2.5" ry="2.5" style="stroke:#A6ADC8;stroke-width:0.5;" width="95.5997" x="717.1999" y="466.76"/><text fill="#1E1E2E" font-family="'JetBrains Mono,monospace'" font-size="14" lengthAdjust="spacing" textLength="75.5997" x="727.1999" y="491.0399">dev-tools</text></g><!--entity gnome--><g class="entity" data-qualified-name="stage_user.gnome" data-source-line="26" id="ent0005"><rect fill="#F2CDCD" height="38.4799" rx="2.5" ry="2.5" style="stroke:#A6ADC8;stroke-width:0.5;" width="61.9998" x="733.9999" y="393.76"/><text fill="#1E1E2E" font-family="'JetBrains Mono,monospace'" font-size="14" lengthAdjust="spacing" textLength="41.9998" x="743.9999" y="418.0399">gnome</text></g><!--entity primary_user--><g class="entity" data-qualified-name="stage_user.primary_user" data-source-line="27" id="ent0006"><rect fill="#F2CDCD" height="38.4799" rx="2.5" ry="2.5" style="stroke:#A6ADC8;stroke-width:0.5;" width="120.7996" x="704.5999" y="598.76"/><text fill="#1E1E2E" font-family="'JetBrains Mono,monospace'" font-size="14" lengthAdjust="spacing" textLength="100.7996" x="714.5999" y="623.0399">primary-user</text></g><!--entity den__provides__primary_user--><g class="entity" data-qualified-name="stage_user.den__provides__primary_user" data-source-line="28" id="ent0007"><rect fill="#F2CDCD" height="24.4799" rx="2.5" ry="2.5" style="stroke:#A6ADC8;stroke-width:0.5;" width="196.3992" x="666.7999" y="539.76"/><text fill="#1E1E2E" font-family="'JetBrains Mono,monospace'" font-size="14" lengthAdjust="spacing" textLength="176.3992" x="676.7999" y="557.0399">provides/primary-user</text></g><!--entity user__aspect_user_--><g class="entity" data-qualified-name="stage_user.user__aspect_user_" data-source-line="29" id="ent0008"><rect fill="#FAB387" height="38.4799" rx="2.5" ry="2.5" style="stroke:#A6ADC8;stroke-width:0.5;" width="162.7994" x="683.5999" y="671.76"/><text fill="#1E1E2E" font-family="'JetBrains Mono,monospace'" font-size="14" lengthAdjust="spacing" textLength="142.7994" x="693.5999" y="696.0399">user/aspect(user)</text></g><!--entity user__cross_provide__anon__--><g class="entity" data-qualified-name="stage_user.user__cross_provide__anon__" data-source-line="30" id="ent0009"><rect fill="#F38BA8" height="38.4799" rx="2.5" ry="2.5" style="stroke:#A6ADC8;stroke-width:0.5;" width="288.7988" x="620.5999" y="744.76"/><text fill="#1E1E2E" font-family="'JetBrains Mono,monospace'" font-size="14" lengthAdjust="spacing" textLength="268.7988" x="630.5999" y="769.0399">user/cross-provide(&amp;lt;anon&amp;gt;)</text></g><!--entity user__self_provide_user_--><g class="entity" data-qualified-name="stage_user.user__self_provide_user_" data-source-line="31" id="ent0010"><rect fill="#F2CDCD" height="38.4799" rx="2.5" ry="2.5" style="stroke:#A6ADC8;stroke-width:0.5;" width="213.1992" x="1061.7999" y="393.76"/><text fill="#1E1E2E" font-family="'JetBrains Mono,monospace'" font-size="14" lengthAdjust="spacing" textLength="193.1992" x="1071.7999" y="418.0399">user/self-provide(user)</text></g><!--entity n_default--><g class="entity" data-qualified-name="stage_default.n_default" data-source-line="34" id="ent0012"><polygon fill="#FAB387" points="560.5999,268,455.5999,244.52,245.5999,244.52,140.5999,268,245.5999,291.48,455.5999,291.48,560.5999,268" style="stroke:#A6ADC8;stroke-width:0.5;"/><text fill="#1E1E2E" font-family="'JetBrains Mono,monospace'" font-size="14" lengthAdjust="spacing" textLength="58.7997" x="245.5994" y="263.7999">default</text><text fill="#1E1E2E" font-family="'JetBrains Mono,monospace'" font-size="14" lengthAdjust="spacing" textLength="209.9991" x="245.5994" y="282.2799">({ aspect-chain, class })</text></g><!--entity default__aspect_default_--><g class="entity" data-qualified-name="stage_default.default__aspect_default_" data-source-line="35" id="ent0013"><rect fill="#A6E3A1" height="38.4799" rx="2.5" ry="2.5" style="stroke:#A6ADC8;stroke-width:0.5;" width="213.1992" x="1061.7999" y="219.76"/><text fill="#1E1E2E" font-family="'JetBrains Mono,monospace'" font-size="14" lengthAdjust="spacing" textLength="193.1992" x="1071.7999" y="244.0399">default/aspect(default)</text></g><!--entity den__provides__default__aspect_default__den__provides--><g class="entity" data-qualified-name="stage_default.den__provides__default__aspect_default__den__provides" data-source-line="36" id="ent0014"><rect fill="#A6E3A1" height="24.4799" rx="2.5" ry="2.5" style="stroke:#A6ADC8;stroke-width:0.5;" width="397.9984" x="969.3999" y="160.76"/><text fill="#1E1E2E" font-family="'JetBrains Mono,monospace'" font-size="14" lengthAdjust="spacing" textLength="377.9984" x="979.3999" y="178.0399">provides/default/aspect(default):den/provides</text></g><!--entity default__cross_provide_user_--><g class="entity" data-qualified-name="stage_default.default__cross_provide_user_" data-source-line="37" id="ent0015"><rect fill="#F9E2AF" height="38.4799" rx="2.5" ry="2.5" style="stroke:#A6ADC8;stroke-width:0.5;" width="246.799" x="227.1999" y="170.76"/><text fill="#1E1E2E" font-family="'JetBrains Mono,monospace'" font-size="14" lengthAdjust="spacing" textLength="226.799" x="237.1999" y="195.0399">default/cross-provide(user)</text></g><!--entity default__self_provide_default_--><g class="entity" data-qualified-name="stage_default.default__self_provide_default_" data-source-line="38" id="ent0016"><rect fill="#FAB387" height="38.4799" rx="2.5" ry="2.5" style="stroke:#A6ADC8;stroke-width:0.5;" width="263.5989" x="218.7999" y="97.76"/><text fill="#1E1E2E" font-family="'JetBrains Mono,monospace'" font-size="14" lengthAdjust="spacing" textLength="243.5989" x="228.7999" y="122.0399">default/self-provide(default)</text></g><!--entity den__provides__define_user--><g class="entity" data-qualified-name="stage_default.den__provides__define_user" data-source-line="39" id="ent0017"><rect fill="#A6E3A1" height="24.4799" rx="2.5" ry="2.5" style="stroke:#A6ADC8;stroke-width:0.5;" width="187.9993" x="670.9999" y="226.76"/><text fill="#1E1E2E" font-family="'JetBrains Mono,monospace'" font-size="14" lengthAdjust="spacing" textLength="167.9993" x="680.9999" y="244.0399">provides/define-user</text></g><!--entity den__provides__hostname--><g class="entity" data-qualified-name="stage_default.den__provides__hostname" data-source-line="40" id="ent0018"><rect fill="#FAB387" height="24.4799" rx="2.5" ry="2.5" style="stroke:#A6ADC8;stroke-width:0.5;" width="162.7994" x="683.5999" y="167.76"/><text fill="#1E1E2E" font-family="'JetBrains Mono,monospace'" font-size="14" lengthAdjust="spacing" textLength="142.7994" x="693.5999" y="185.0399">provides/hostname</text></g><!--entity den__provides__mutual_provider--><g class="entity" data-qualified-name="stage_default.den__provides__mutual_provider" data-source-line="41" id="ent0019"><rect fill="#F9E2AF" height="24.4799" rx="2.5" ry="2.5" style="stroke:#A6ADC8;stroke-width:0.5;" width="221.5991" x="654.1999" y="108.76"/><text fill="#1E1E2E" font-family="'JetBrains Mono,monospace'" font-size="14" lengthAdjust="spacing" textLength="201.5991" x="664.1999" y="126.0399">provides/mutual-provider</text></g><!--entity bob--><g class="entity" data-qualified-name="bob" data-source-line="23" id="ent0002"><rect fill="#89B4FA" height="38.4799" rx="2.5" ry="2.5" style="stroke:#A6ADC8;stroke-width:0.5;" width="45.1999" x="327.9999" y="430.76"/><text fill="#1E1E2E" font-family="'JetBrains Mono,monospace'" font-size="14" lengthAdjust="spacing" textLength="25.1999" x="337.9999" y="455.0399">bob</text></g><!--entity user--><g class="entity" data-qualified-name="user" data-source-line="43" id="ent0020"><rect fill="#FAB387" height="38.4799" rx="2.5" ry="2.5" style="stroke:#A6ADC8;stroke-width:0.5;" width="53.5999" x="12.7999" y="357.76"/><text fill="#1E1E2E" font-family="'JetBrains Mono,monospace'" font-size="14" lengthAdjust="spacing" textLength="33.5999" x="22.7999" y="382.0399">user</text></g><!--entity ctx_user--><g class="entity" data-qualified-name="ctx_user" data-source-line="68" id="ent0044"><ellipse cx="39.5999" cy="14" fill="#F1F1F1" rx="8" ry="8" style="stroke:#181818;stroke-width:0.5;"/><text fill="#CDD6F4" font-family="'JetBrains Mono,monospace'" font-size="14" lengthAdjust="spacing" textLength="67.1997" x="6" y="45.2799">ctx_user</text></g><!--entity ctx_default--><g class="entity" data-qualified-name="ctx_default" data-source-line="68" id="ent0045"><ellipse cx="350.5999" cy="14" fill="#F1F1F1" rx="8" ry="8" style="stroke:#181818;stroke-width:0.5;"/><text fill="#CDD6F4" font-family="'JetBrains Mono,monospace'" font-size="14" lengthAdjust="spacing" textLength="92.3996" x="304.4001" y="45.2799">ctx_default</text></g><!--link bob to dev_tools--><g class="link" data-entity-1="ent0002" data-entity-2="ent0004" data-link-type="dependency" data-source-line="45" id="lnk21"><path d="M373.4799,451.91 C437.8399,457.53 621.5926,473.5683 710.7326,481.3483" fill="none" id="bob-to-dev_tools" style="stroke:#A6ADC8;stroke-width:1;"/><polygon fill="#A6ADC8" points="716.7099,481.87,708.0917,477.1026,711.7288,481.4353,707.3961,485.0723,716.7099,481.87" style="stroke:#A6ADC8;stroke-width:1;"/></g><!--link bob to gnome--><g class="link" data-entity-1="ent0002" data-entity-2="ent0005" data-link-type="dependency" data-source-line="46" id="lnk22"><path d="M373.4799,448.04 C442.2499,441.87 648.1938,423.386 727.5838,416.266" fill="none" id="bob-to-gnome" style="stroke:#A6ADC8;stroke-width:1;"/><polygon fill="#A6ADC8" points="733.5599,415.73,724.2385,412.5499,728.5798,416.1766,724.9531,420.5179,733.5599,415.73" style="stroke:#A6ADC8;stroke-width:1;"/></g><!--link bob to primary_user--><g class="link" data-entity-1="ent0002" data-entity-2="ent0006" data-link-type="dependency" data-source-line="47" id="lnk23"><path d="M373.5699,453.93 C414.1499,462.09 502.0699,484.07 560.5999,530 C582.7099,547.35 573.2199,566.4 596.5999,582 C628.3699,603.21 664.455,611.5411 698.465,615.2411" fill="none" id="bob-to-primary_user" style="stroke:#A6ADC8;stroke-width:1;"/><polygon fill="#A6ADC8" points="704.4299,615.89,695.9153,610.9401,699.4592,615.3492,695.05,618.8932,704.4299,615.89" style="stroke:#A6ADC8;stroke-width:1;"/></g><!--link bob to den__provides__primary_user--><g class="link" data-entity-1="ent0002" data-entity-2="ent0007" data-link-type="dependency" data-source-line="48" id="lnk24"><path d="M373.6599,457.53 C416.2999,471.87 513.2099,503.43 596.5999,523 C623.2999,529.27 646.7843,533.807 673.3843,538.317" fill="none" id="bob-to-den__provides__primary_user" style="stroke:#A6ADC8;stroke-width:1;"/><polygon fill="#A6ADC8" points="679.2999,539.32,671.0951,533.8718,674.3702,538.4842,669.7578,541.7592,679.2999,539.32" style="stroke:#A6ADC8;stroke-width:1;"/></g><!--link bob to user__self_provide_user_--><g class="link" data-entity-1="ent0002" data-entity-2="ent0010" data-link-type="dependency" data-source-line="49" id="lnk25"><path d="M373.3999,441.04 C415.5899,424.23 511.7599,388.53 596.5999,376 C758.8099,352.04 943.3295,373.4059 1058.0795,392.2859" fill="none" id="bob-to-user__self_provide_user_" style="stroke:#A6ADC8;stroke-width:1;"/><polygon fill="#A6ADC8" points="1063.9999,393.26,1055.7686,387.8519,1059.0662,392.4483,1054.4699,395.7458,1063.9999,393.26" style="stroke:#A6ADC8;stroke-width:1;"/></g><!--link n_default to default__aspect_default_--><g class="link" data-entity-1="ent0012" data-entity-2="ent0013" data-link-type="dependency" data-source-line="50" id="lnk26"><path d="M558.7799,268.91 C571.5799,268.94 584.2599,268.97 596.5999,269 C735.6199,269.28 770.6099,277.04 909.3999,269 C959.5899,266.09 1009.0579,260.7881 1055.6179,254.8581" fill="none" id="n_default-to-default__aspect_default_" style="stroke:#A6ADC8;stroke-width:1;"/><polygon fill="#A6ADC8" points="1061.5699,254.1,1052.1366,251.2691,1056.6099,254.7317,1053.1473,259.205,1061.5699,254.1" style="stroke:#A6ADC8;stroke-width:1;"/></g><!--link n_default to den__provides__define_user--><g class="link" data-entity-1="ent0012" data-entity-2="ent0017" data-link-type="dependency" data-source-line="51" id="lnk27"><path d="M512.2199,256.7 C565.8199,252.94 617.7646,249.2811 664.5246,245.9911" fill="none" id="n_default-to-den__provides__define_user" style="stroke:#A6ADC8;stroke-width:1;"/><polygon fill="#A6ADC8" points="670.5099,245.57,661.2513,242.2115,665.5222,245.9209,661.8128,250.1918,670.5099,245.57" style="stroke:#A6ADC8;stroke-width:1;"/></g><!--link n_default to den__provides__hostname--><g class="link" data-entity-1="ent0012" data-entity-2="ent0018" data-link-type="dependency" data-source-line="52" id="lnk28"><path d="M477.6499,248.98 C505.3499,243.23 534.2599,235.98 560.5999,227 C577.5299,221.23 579.5999,214.59 596.5999,209 C624.1999,199.93 649.4139,194.4795 677.2939,190.0595" fill="none" id="n_default-to-den__provides__hostname" style="stroke:#A6ADC8;stroke-width:1;"/><polygon fill="#A6ADC8" points="683.2199,189.12,673.7045,186.5786,678.2815,189.9029,674.9572,194.4799,683.2199,189.12" style="stroke:#A6ADC8;stroke-width:1;"/></g><!--link n_default to den__provides__mutual_provider--><g class="link" data-entity-1="ent0012" data-entity-2="ent0019" data-link-type="dependency" data-source-line="53" id="lnk29"><path d="M505.6399,255.21 C525.4499,248.73 544.4299,239.64 560.5999,227 C590.3599,203.73 566.5799,172.94 596.5999,150 C613.1199,137.37 627.3963,130.861 647.8763,126.091" fill="none" id="n_default-to-den__provides__mutual_provider" style="stroke:#A6ADC8;stroke-width:1;"/><polygon fill="#A6ADC8" points="653.7199,124.73,644.0471,122.8758,648.8502,125.8642,645.8618,130.6673,653.7199,124.73" style="stroke:#A6ADC8;stroke-width:1;"/></g><!--link den__provides__define_user to default__aspect_default_--><g class="link" data-entity-1="ent0017" data-entity-2="ent0013" data-link-type="dependency" data-source-line="54" id="lnk30"><path d="M859.3499,239 C919.7999,239 992.6699,239 1055.4699,239" fill="none" id="den__provides__define_user-to-default__aspect_default_" style="stroke:#A6ADC8;stroke-width:1;"/><polygon fill="#A6ADC8" points="1061.4699,239,1052.4699,235,1056.4699,239,1052.4699,243,1061.4699,239" style="stroke:#A6ADC8;stroke-width:1;"/></g><!--link den__provides__define_user to den__provides__default__aspect_default__den__provides--><g class="link" data-entity-1="ent0017" data-entity-2="ent0014" data-link-type="dependency" data-source-line="55" id="lnk31"><path d="M832.3099,226.34 C872.0199,218.91 923.5299,209.53 969.3999,202 C1004.1899,196.29 1036.5814,191.4074 1070.1714,186.5574" fill="none" id="den__provides__define_user-to-den__provides__default__aspect_default__den__provides" style="stroke:#A6ADC8;stroke-width:1;"/><polygon fill="#A6ADC8" points="1076.1099,185.7,1066.6306,183.0272,1071.1612,186.4145,1067.7739,190.9451,1076.1099,185.7" style="stroke:#A6ADC8;stroke-width:1;"/></g><!--link den__provides__hostname to default__aspect_default_--><g class="link" data-entity-1="ent0018" data-entity-2="ent0013" data-link-type="dependency" data-source-line="56" id="lnk32"><path d="M846.7399,191.87 C908.5599,200.95 988.4136,212.6875 1055.7036,222.5775" fill="none" id="den__provides__hostname-to-default__aspect_default_" style="stroke:#A6ADC8;stroke-width:1;"/><polygon fill="#A6ADC8" points="1061.6399,223.45,1053.3172,218.1838,1056.693,222.7229,1052.1539,226.0988,1061.6399,223.45" style="stroke:#A6ADC8;stroke-width:1;"/></g><!--link den__provides__hostname to den__provides__default__aspect_default__den__provides--><g class="link" data-entity-1="ent0018" data-entity-2="ent0014" data-link-type="dependency" data-source-line="57" id="lnk33"><path d="M846.7399,178.59 C882.3399,177.97 919.9008,177.3151 963.2908,176.5551" fill="none" id="den__provides__hostname-to-den__provides__default__aspect_default__den__provides" style="stroke:#A6ADC8;stroke-width:1;"/><polygon fill="#A6ADC8" points="969.2899,176.45,960.2212,172.6082,964.2906,176.5376,960.3613,180.607,969.2899,176.45" style="stroke:#A6ADC8;stroke-width:1;"/></g><!--link den__provides__mutual_provider to default__aspect_default_--><g class="link" data-entity-1="ent0019" data-entity-2="ent0013" data-link-type="dependency" data-source-line="58" id="lnk34"><path d="M864.3199,133.74 C879.8699,137.76 895.4099,143.04 909.3999,150 C941.2499,165.84 937.3799,187.47 969.3999,203 C997.7699,216.76 1024.8261,224.2865 1055.6361,229.5665" fill="none" id="den__provides__mutual_provider-to-default__aspect_default_" style="stroke:#A6ADC8;stroke-width:1;"/><polygon fill="#A6ADC8" points="1061.5499,230.58,1053.3548,225.1173,1056.6217,229.7354,1052.0035,233.0023,1061.5499,230.58" style="stroke:#A6ADC8;stroke-width:1;"/></g><!--link den__provides__mutual_provider to den__provides__default__aspect_default__den__provides--><g class="link" data-entity-1="ent0019" data-entity-2="ent0014" data-link-type="dependency" data-source-line="59" id="lnk35"><path d="M864.1899,133.72 C926.5099,141.79 1000.8997,151.4285 1063.2197,159.5085" fill="none" id="den__provides__mutual_provider-to-den__provides__default__aspect_default__den__provides" style="stroke:#A6ADC8;stroke-width:1;"/><polygon fill="#A6ADC8" points="1069.1699,160.28,1060.7589,155.156,1064.2114,159.6371,1059.7302,163.0896,1069.1699,160.28" style="stroke:#A6ADC8;stroke-width:1;"/></g><!--link dev_tools to user__self_provide_user_--><g class="link" data-entity-1="ent0004" data-entity-2="ent0010" data-link-type="dependency" data-source-line="60" id="lnk36"><path d="M813.2199,477.41 C873.8399,466.39 974.8867,448.0135 1055.4467,433.3635" fill="none" id="dev_tools-to-user__self_provide_user_" style="stroke:#A6ADC8;stroke-width:1;"/><polygon fill="#A6ADC8" points="1061.3499,432.29,1051.7794,429.9648,1056.4305,433.1846,1053.2107,437.8357,1061.3499,432.29" style="stroke:#A6ADC8;stroke-width:1;"/></g><!--link gnome to user__self_provide_user_--><g class="link" data-entity-1="ent0005" data-entity-2="ent0010" data-link-type="dependency" data-source-line="61" id="lnk37"><path d="M796.4999,413 C852.2099,413 966.8399,413 1055.4699,413" fill="none" id="gnome-to-user__self_provide_user_" style="stroke:#A6ADC8;stroke-width:1;"/><polygon fill="#A6ADC8" points="1061.4699,413,1052.4699,409,1056.4699,413,1052.4699,417,1061.4699,413" style="stroke:#A6ADC8;stroke-width:1;"/></g><!--link user to bob--><g class="link" data-entity-1="ent0020" data-entity-2="ent0002" data-link-type="dependency" data-source-line="62" id="lnk38"><path d="M66.6799,383.16 C126.4799,397.29 266.7406,430.4204 322.0606,443.4904" fill="none" id="user-to-bob" style="stroke:#A6ADC8;stroke-width:1;"/><polygon fill="#A6ADC8" points="327.8999,444.87,320.0607,438.9078,323.0338,443.7203,318.2213,446.6934,327.8999,444.87" style="stroke:#A6ADC8;stroke-width:1;"/></g><!--link user to n_default--><g class="link" data-entity-1="ent0020" data-entity-2="ent0012" data-link-type="dependency" data-source-line="63" id="lnk39"><path d="M66.6799,367.8 C113.7499,351.2 208.6215,317.7257 276.2715,293.8657" fill="none" id="user-to-n_default" style="stroke:#A6ADC8;stroke-width:1;"/><polygon fill="#A6ADC8" points="281.9299,291.87,272.1118,291.0913,277.2145,293.5331,274.7728,298.6358,281.9299,291.87" style="stroke:#A6ADC8;stroke-width:1;"/></g><!--link user to default__cross_provide_user_--><g class="link" data-entity-1="ent0020" data-entity-2="ent0015" data-link-type="dependency" data-source-line="64" id="lnk40"><path d="M44.5099,357.45 C52.1499,324.72 72.3599,259.23 116.5999,227 C148.2099,203.97 182.7153,193.7071 221.0053,188.9671" fill="none" id="user-to-default__cross_provide_user_" style="stroke:#A6ADC8;stroke-width:1;"/><polygon fill="#A6ADC8" points="226.9599,188.23,217.5366,185.366,221.9977,188.8443,218.5194,193.3054,226.9599,188.23" style="stroke:#A6ADC8;stroke-width:1;"/></g><!--link user to default__self_provide_default_--><g class="link" data-entity-1="ent0020" data-entity-2="ent0016" data-link-type="dependency" data-source-line="65" id="lnk41"><path d="M40.8799,357.45 C42.6399,313.36 53.5399,205.95 116.5999,153 C144.8099,129.31 176.0343,118.6364 212.3843,113.7064" fill="none" id="user-to-default__self_provide_default_" style="stroke:#A6ADC8;stroke-width:1;"/><polygon fill="#A6ADC8" points="218.3299,112.9,208.8739,110.1458,213.3752,113.572,209.9491,118.0733,218.3299,112.9" style="stroke:#A6ADC8;stroke-width:1;"/></g><!--link user to user__aspect_user_--><g class="link" data-entity-1="ent0020" data-entity-2="ent0008" data-link-type="dependency" data-source-line="66" id="lnk42"><path d="M49.3199,396.51 C61.1899,420.98 84.6699,462.65 116.5999,487 C290.4299,619.54 546.3149,666.376 677.3349,682.526" fill="none" id="user-to-user__aspect_user_" style="stroke:#A6ADC8;stroke-width:1;"/><polygon fill="#A6ADC8" points="683.2899,683.26,674.8468,678.189,678.3274,682.6483,673.8681,686.1289,683.2899,683.26" style="stroke:#A6ADC8;stroke-width:1;"/></g><!--link user to user__cross_provide__anon__--><g class="link" data-entity-1="ent0020" data-entity-2="ent0009" data-link-type="dependency" data-source-line="67" id="lnk43"><path d="M42.8999,396.63 C50.2699,456.01 75.2599,631.93 116.5999,669 C256.8999,794.79 481.2166,798.0158 625.9666,784.3058" fill="none" id="user-to-user__cross_provide__anon__" style="stroke:#A6ADC8;stroke-width:1;"/><polygon fill="#A6ADC8" points="631.9399,783.74,622.6028,780.6065,626.9621,784.2115,623.3571,788.5708,631.9399,783.74" style="stroke:#A6ADC8;stroke-width:1;"/></g><!--link ctx_user to ctx_default--><g class="link" data-entity-1="ent0044" data-entity-2="ent0045" data-link-type="dependency" data-source-line="68" id="lnk46"><path d="M48.5499,14 C91.8099,14 292.5699,14 335.6999,14" fill="none" id="ctx_user-to-ctx_default" style="stroke:#A6ADC8;stroke-width:1;"/><polygon fill="#A6ADC8" points="341.6999,14,332.6999,10,336.6999,14,332.6999,18,341.6999,14" style="stroke:#A6ADC8;stroke-width:1;"/></g><?plantuml-src hLNRQXin47tVhn0sX0HYNDl1SHheGmAb51fAdmlBMDAkbwmb8ybfIl2_LzAkj3UjSg4lzexcp9pHd95KqamXnP4eyfr2f10KguApH3uMx002zcWB-34N_CZ8FI-vGDC5NT0bRI48pU1Ogg-SgHg22LbdLs780-mfcdodwav0mIJwmHc_tEiVUG1C9wqW48B_gJF26WZUz9qnobzw9y3oajxrDx1Qh9PNOIWNX8enIWzhqGwQyOq-GyxPwwGE6AMiGJ72Un3aTJQBYb8PH8pdf-Q0_0tTTC0ssnfVVzgiXw2OW0zSlO7Deg9K1Z7aIOHJ4qssV3j1897-HzFDpVOgW-HG5OWcHqa5Ua4xBjKbiiR9WgNIxhJo9WYrqX7wD5ESbzBYj9LQ2qqpsAusrrrmplYUMg3zqg0b9fXqGGTHx47ydHasYwqNAlec16iD3Pe_5OJA-I2CK9Qcpcs-WbbQnCOp1tdGA-Vc-yAcCLzfMYtRu3IyDnkD1PToLfEUdvNg5XXdPxcwRIUpA5UQpgqXgScwscnX4yWgQPdvfFtAZDFdSlLLkpirmjPtqhYs7g3vTzL1z56_sVaBgZemmpjzaLqYN8AKw5GLmdnqi3ErqxMsDYzgaQpX6-niSsRf2XP3dKUoVTPopnqefFyOKzh1jNW3E-ZAsoZXStMLTMhSq2LauOmTQSETwGZSzCTtUjYVWj7HOr2vwrCmrcCp8mpgezfBu7pZ5UoFwWYbsrMmYWhY5eJlqIdfpRuVT4-Nc8jhDllIt3L-nLugtceV-5RGwANWCMFdAcdcl4eL7gW1RAp_SQ3hSnpLQsGIKJjQywjn7pXBoTZalAUINj1_AAC_U--f9XpxiQBSInaTkUgTZ4AyI7f-6yDFJJ8KFt1B1L31UwV13T_5lY_up2LOFJTpPOmwzJy0?></g></svg>