<?xml version="1.0" encoding="UTF-8" standalone="no"?>
<!DOCTYPE svg PUBLIC "-//W3C//DTD SVG 1.1//EN"
 "http://www.w3.org/Graphics/SVG/1.1/DTD/svg11.dtd">
<!-- Generated by graphviz version 12.2.1 (0)
 -->
<!-- Pages: 1 -->
<svg width="2497pt" height="1322pt"
 viewBox="0.00 0.00 2497.14 1322.00" xmlns="http://www.w3.org/2000/svg" xmlns:xlink="http://www.w3.org/1999/xlink">
<g id="graph0" class="graph" transform="scale(1 1) rotate(0) translate(4 1318)">
<polygon fill="#1e1e2e" stroke="none" points="-4,4 -4,-1318 2493.14,-1318 2493.14,4 -4,4"/>
<g id="clust1" class="cluster">
<title>cluster_ctx_host</title>
<polygon fill="#313244" stroke="#6c7086" stroke-dasharray="5,2" points="511.17,-1041 511.17,-1306 2182.16,-1306 2182.16,-1041 511.17,-1041"/>
<text text-anchor="middle" x="1346.66" y="-1288.7" font-family="Times,serif" font-size="14.00" fill="#cdd6f4">host { host }</text>
</g>
<g id="clust2" class="cluster">
<title>cluster_ctx_default</title>
<polygon fill="#313244" stroke="#6c7086" stroke-dasharray="5,2" points="82,-730 82,-1003 1820.99,-1003 1820.99,-730 82,-730"/>
<text text-anchor="middle" x="951.49" y="-985.7" font-family="Times,serif" font-size="14.00" fill="#cdd6f4">default { host }</text>
</g>
<g id="clust3" class="cluster">
<title>cluster_ctx_hm_host</title>
<polygon fill="#313244" stroke="#6c7086" stroke-dasharray="5,2" points="82,-503 82,-722 731.8,-722 731.8,-503 82,-503"/>
<text text-anchor="middle" x="406.9" y="-704.7" font-family="Times,serif" font-size="14.00" fill="#cdd6f4">hm&#45;host { host }</text>
</g>
<g id="clust4" class="cluster">
<title>cluster_ctx_hm_user</title>
<polygon fill="#313244" stroke="#6c7086" stroke-dasharray="5,2" points="82,-276 82,-495 732.55,-495 732.55,-276 82,-276"/>
<text text-anchor="middle" x="407.27" y="-477.7" font-family="Times,serif" font-size="14.00" fill="#cdd6f4">hm&#45;user { host, user }</text>
</g>
<g id="clust5" class="cluster">
<title>cluster_ctx_user</title>
<polygon fill="#313244" stroke="#6c7086" stroke-dasharray="5,2" points="1563.3,-8 1563.3,-449 2481.14,-449 2481.14,-8 1563.3,-8"/>
<text text-anchor="middle" x="2022.22" y="-431.7" font-family="Times,serif" font-size="14.00" fill="#cdd6f4">user { host, user }</text>
</g>
<!-- multi_desktop -->
<g id="node1" class="node">
<title>multi_desktop</title>
<path fill="#89b4fa" stroke="#89b4fa" d="M287.81,-1047C287.81,-1047 197.56,-1047 197.56,-1047 191.56,-1047 185.56,-1041 185.56,-1035 185.56,-1035 185.56,-1023 185.56,-1023 185.56,-1017 191.56,-1011 197.56,-1011 197.56,-1011 287.81,-1011 287.81,-1011 293.81,-1011 299.81,-1017 299.81,-1023 299.81,-1023 299.81,-1035 299.81,-1035 299.81,-1041 293.81,-1047 287.81,-1047"/>
<text text-anchor="middle" x="242.68" y="-1024.33" font-family="Times,serif" font-size="14.00" fill="#1e1e2e">multi&#45;desktop</text>
</g>
<!-- host__self_provide_host_ -->
<g id="node5" class="node">
<title>host__self_provide_host_</title>
<polygon fill="#f2cdcd" stroke="#f2cdcd" points="2174.16,-1160 1998.41,-1160 1998.41,-1124 2174.16,-1124 2174.16,-1160"/>
<text text-anchor="middle" x="2086.28" y="-1137.33" font-family="Times,serif" font-size="14.00" fill="#1e1e2e">host/self&#45;provide(host)</text>
</g>
<!-- multi_desktop&#45;&gt;host__self_provide_host_ -->
<g id="edge49" class="edge">
<title>multi_desktop&#45;&gt;host__self_provide_host_</title>
<path fill="none" stroke="#a6adc8" d="M300.17,-1027.89C569.99,-1022.8 1720.91,-1003.4 1876.67,-1040 1940.71,-1055.04 2007.86,-1092.35 2048.15,-1117.43"/>
<polygon fill="#a6adc8" stroke="#a6adc8" points="2046.19,-1120.33 2056.51,-1122.71 2049.92,-1114.41 2046.19,-1120.33"/>
</g>
<!-- workstation -->
<g id="node11" class="node">
<title>workstation</title>
<polygon fill="#f2cdcd" stroke="#f2cdcd" points="677.67,-1122 576.92,-1122 576.92,-1086 677.67,-1086 677.67,-1122"/>
<text text-anchor="middle" x="627.3" y="-1099.33" font-family="Times,serif" font-size="14.00" fill="#1e1e2e">workstation</text>
</g>
<!-- multi_desktop&#45;&gt;workstation -->
<g id="edge50" class="edge">
<title>multi_desktop&#45;&gt;workstation</title>
<path fill="none" stroke="#a6adc8" d="M300.14,-1040.07C371.08,-1053.97 492.34,-1077.74 565.33,-1092.05"/>
<polygon fill="#a6adc8" stroke="#a6adc8" points="564.65,-1095.48 575.13,-1093.97 565.99,-1088.61 564.65,-1095.48"/>
</g>
<!-- desktop -->
<g id="node2" class="node">
<title>desktop</title>
<polygon fill="#f2cdcd" stroke="#f2cdcd" points="1233.39,-1176 1161.14,-1176 1161.14,-1140 1233.39,-1140 1233.39,-1176"/>
<text text-anchor="middle" x="1197.26" y="-1153.33" font-family="Times,serif" font-size="14.00" fill="#1e1e2e">desktop</text>
</g>
<!-- desktop&#45;&gt;host__self_provide_host_ -->
<g id="edge25" class="edge">
<title>desktop&#45;&gt;host__self_provide_host_</title>
<path fill="none" stroke="#a6adc8" d="M1233.72,-1154.89C1298.91,-1149.35 1442.22,-1137.98 1563.3,-1134 1702.5,-1129.43 1737.42,-1131.33 1876.67,-1134 1912.64,-1134.69 1952.08,-1136.05 1986.89,-1137.45"/>
<polygon fill="#a6adc8" stroke="#a6adc8" points="1986.37,-1140.93 1996.5,-1137.85 1986.65,-1133.94 1986.37,-1140.93"/>
</g>
<!-- regreet -->
<g id="node8" class="node">
<title>regreet</title>
<polygon fill="#89b4fa" stroke="#89b4fa" points="1758.61,-1179 1689.36,-1179 1689.36,-1143 1758.61,-1143 1758.61,-1179"/>
<text text-anchor="middle" x="1723.99" y="-1156.33" font-family="Times,serif" font-size="14.00" fill="#1e1e2e">regreet</text>
</g>
<!-- desktop&#45;&gt;regreet -->
<g id="edge26" class="edge">
<title>desktop&#45;&gt;regreet</title>
<path fill="none" stroke="#a6adc8" d="M1233.51,-1158.2C1325.88,-1158.73 1574.96,-1160.15 1677.71,-1160.74"/>
<polygon fill="#a6adc8" stroke="#a6adc8" points="1677.39,-1164.24 1687.41,-1160.8 1677.43,-1157.24 1677.39,-1164.24"/>
</g>
<!-- host__aspect_host_ -->
<g id="node3" class="node">
<title>host__aspect_host_</title>
<polygon fill="#89b4fa" stroke="#89b4fa" points="696.8,-1176 557.8,-1176 557.8,-1140 696.8,-1140 696.8,-1176"/>
<text text-anchor="middle" x="627.3" y="-1153.33" font-family="Times,serif" font-size="14.00" fill="#1e1e2e">host/aspect(host)</text>
</g>
<!-- host__cross_provide__anon__ -->
<g id="node4" class="node">
<title>host__cross_provide__anon__</title>
<polygon fill="#cba6f7" stroke="#cba6f7" points="735.42,-1230 519.17,-1230 519.17,-1194 735.42,-1194 735.42,-1230"/>
<text text-anchor="middle" x="627.3" y="-1207.33" font-family="Times,serif" font-size="14.00" fill="#1e1e2e">host/cross&#45;provide(&lt;anon&gt;)</text>
</g>
<!-- networking -->
<g id="node6" class="node">
<title>networking</title>
<polygon fill="#89b4fa" stroke="#89b4fa" points="1772.49,-1085 1675.49,-1085 1675.49,-1049 1772.49,-1049 1772.49,-1085"/>
<text text-anchor="middle" x="1723.99" y="-1062.33" font-family="Times,serif" font-size="14.00" fill="#1e1e2e">networking</text>
</g>
<!-- networking&#45;&gt;host__self_provide_host_ -->
<g id="edge51" class="edge">
<title>networking&#45;&gt;host__self_provide_host_</title>
<path fill="none" stroke="#a6adc8" d="M1772.83,-1076.96C1827.25,-1088.29 1917.57,-1107.09 1987.14,-1121.57"/>
<polygon fill="#a6adc8" stroke="#a6adc8" points="1986.13,-1124.94 1996.64,-1123.55 1987.56,-1118.08 1986.13,-1124.94"/>
</g>
<!-- virtualization__podman -->
<g id="node7" class="node">
<title>virtualization__podman</title>
<polygon fill="#cba6f7" stroke="#cba6f7" points="1297.35,-1273 1097.18,-1273 1025.89,-1237 1368.64,-1237 1297.35,-1273"/>
<text text-anchor="middle" x="1197.26" y="-1250.33" font-family="Times,serif" font-size="14.00" fill="#1e1e2e">virtualization/podman</text>
</g>
<!-- virtualization__podman&#45;&gt;host__self_provide_host_ -->
<g id="edge56" class="edge">
<title>virtualization__podman&#45;&gt;host__self_provide_host_</title>
<path fill="none" stroke="#a6adc8" d="M1298.94,-1272.59C1433.28,-1292.36 1677.39,-1315.23 1876.67,-1262 1945.43,-1243.63 2015.05,-1196.58 2053.94,-1167.14"/>
<polygon fill="#a6adc8" stroke="#a6adc8" points="2055.68,-1170.22 2061.48,-1161.35 2051.42,-1164.67 2055.68,-1170.22"/>
</g>
<!-- virtualization -->
<g id="node10" class="node">
<title>virtualization</title>
<polygon fill="#89b4fa" stroke="#89b4fa" points="1779.61,-1253 1668.36,-1253 1668.36,-1217 1779.61,-1217 1779.61,-1253"/>
<text text-anchor="middle" x="1723.99" y="-1230.33" font-family="Times,serif" font-size="14.00" fill="#1e1e2e">virtualization</text>
</g>
<!-- virtualization__podman&#45;&gt;virtualization -->
<g id="edge63" class="edge">
<title>virtualization__podman&#45;&gt;virtualization</title>
<path fill="none" stroke="#a6adc8" d="M1345.13,-1249.4C1447.42,-1245.5 1578.99,-1240.49 1656.82,-1237.52"/>
<polygon fill="#a6adc8" stroke="#a6adc8" points="1656.54,-1241.04 1666.4,-1237.16 1656.27,-1234.04 1656.54,-1241.04"/>
</g>
<!-- regreet&#45;&gt;host__self_provide_host_ -->
<g id="edge52" class="edge">
<title>regreet&#45;&gt;host__self_provide_host_</title>
<path fill="none" stroke="#a6adc8" d="M1758.88,-1159.21C1810.45,-1156.49 1910.63,-1151.21 1986.46,-1147.21"/>
<polygon fill="#a6adc8" stroke="#a6adc8" points="1986.63,-1150.71 1996.43,-1146.69 1986.26,-1143.72 1986.63,-1150.71"/>
</g>
<!-- tailscale -->
<g id="node9" class="node">
<title>tailscale</title>
<polygon fill="#f2cdcd" stroke="#f2cdcd" points="1234.89,-1122 1159.64,-1122 1159.64,-1086 1234.89,-1086 1234.89,-1122"/>
<text text-anchor="middle" x="1197.26" y="-1099.33" font-family="Times,serif" font-size="14.00" fill="#1e1e2e">tailscale</text>
</g>
<!-- tailscale&#45;&gt;host__self_provide_host_ -->
<g id="edge53" class="edge">
<title>tailscale&#45;&gt;host__self_provide_host_</title>
<path fill="none" stroke="#a6adc8" d="M1235.06,-1104.76C1337.03,-1106.96 1631.89,-1114.05 1876.67,-1127 1912.66,-1128.9 1952.11,-1131.59 1986.91,-1134.16"/>
<polygon fill="#a6adc8" stroke="#a6adc8" points="1986.3,-1137.62 1996.53,-1134.87 1986.82,-1130.64 1986.3,-1137.62"/>
</g>
<!-- virtualization&#45;&gt;host__self_provide_host_ -->
<g id="edge55" class="edge">
<title>virtualization&#45;&gt;host__self_provide_host_</title>
<path fill="none" stroke="#a6adc8" d="M1779.98,-1224.45C1808.89,-1218.65 1844.83,-1211 1876.67,-1203 1923.44,-1191.25 1975.49,-1176.03 2015.9,-1163.73"/>
<polygon fill="#a6adc8" stroke="#a6adc8" points="2016.72,-1167.14 2025.27,-1160.87 2014.68,-1160.45 2016.72,-1167.14"/>
</g>
<!-- workstation&#45;&gt;desktop -->
<g id="edge57" class="edge">
<title>workstation&#45;&gt;desktop</title>
<path fill="none" stroke="#a6adc8" d="M677.79,-1110.32C724.52,-1116.15 796.56,-1124.83 859.23,-1131 962.83,-1141.2 1084.65,-1150.23 1149.71,-1154.81"/>
<polygon fill="#a6adc8" stroke="#a6adc8" points="1149.07,-1158.27 1159.29,-1155.48 1149.56,-1151.29 1149.07,-1158.27"/>
</g>
<!-- workstation&#45;&gt;host__self_provide_host_ -->
<g id="edge58" class="edge">
<title>workstation&#45;&gt;host__self_provide_host_</title>
<path fill="none" stroke="#a6adc8" d="M678.14,-1100.06C719.95,-1099.15 779.67,-1103.68 823.23,-1131 847.66,-1146.33 833.82,-1171.34 859.23,-1185 909.01,-1211.78 1820.48,-1194.12 1876.67,-1188 1920.73,-1183.2 1969.1,-1172.86 2008.17,-1163.2"/>
<polygon fill="#a6adc8" stroke="#a6adc8" points="2008.87,-1166.63 2017.72,-1160.8 2007.17,-1159.84 2008.87,-1166.63"/>
</g>
<!-- workstation&#45;&gt;networking -->
<g id="edge59" class="edge">
<title>workstation&#45;&gt;networking</title>
<path fill="none" stroke="#a6adc8" d="M678.16,-1096.64C724.84,-1090.11 796.59,-1081.01 859.23,-1077 1161.28,-1057.65 1523.94,-1062.59 1663.9,-1065.55"/>
<polygon fill="#a6adc8" stroke="#a6adc8" points="1663.58,-1069.05 1673.65,-1065.77 1663.73,-1062.05 1663.58,-1069.05"/>
</g>
<!-- workstation&#45;&gt;virtualization__podman -->
<g id="edge60" class="edge">
<title>workstation&#45;&gt;virtualization__podman</title>
<path fill="none" stroke="#a6adc8" d="M678.06,-1097.85C720.97,-1095.33 782.31,-1098.74 823.23,-1131 857.7,-1158.19 824.17,-1196.56 859.23,-1223 922.03,-1270.37 1011.29,-1276.96 1082.17,-1272.46"/>
<polygon fill="#a6adc8" stroke="#a6adc8" points="1082.16,-1275.97 1091.88,-1271.75 1081.65,-1268.98 1082.16,-1275.97"/>
</g>
<!-- workstation&#45;&gt;tailscale -->
<g id="edge61" class="edge">
<title>workstation&#45;&gt;tailscale</title>
<path fill="none" stroke="#a6adc8" d="M677.71,-1104C785.53,-1104 1040.83,-1104 1147.79,-1104"/>
<polygon fill="#a6adc8" stroke="#a6adc8" points="1147.67,-1107.5 1157.67,-1104 1147.67,-1100.5 1147.67,-1107.5"/>
</g>
<!-- workstation&#45;&gt;virtualization -->
<g id="edge62" class="edge">
<title>workstation&#45;&gt;virtualization</title>
<path fill="none" stroke="#a6adc8" d="M677.78,-1098.76C720.22,-1096.88 781.03,-1100.73 823.23,-1131 852.29,-1151.86 829.15,-1183.63 859.23,-1203 890.83,-1223.35 1497.74,-1226.61 1535.3,-1228 1575.58,-1229.5 1620.73,-1231.18 1656.65,-1232.52"/>
<polygon fill="#a6adc8" stroke="#a6adc8" points="1656.33,-1236.01 1666.45,-1232.89 1656.59,-1229.02 1656.33,-1236.01"/>
</g>
<!-- n_default -->
<g id="node12" class="node">
<title>n_default</title>
<polygon fill="#fab387" stroke="#fab387" points="395.37,-827 319.03,-861.7 166.34,-861.7 90,-827 166.34,-792.3 319.03,-792.3 395.37,-827"/>
<text text-anchor="middle" x="242.68" y="-830.95" font-family="Times,serif" font-size="14.00" fill="#1e1e2e">default</text>
<text text-anchor="middle" x="242.68" y="-813.7" font-family="Times,serif" font-size="14.00" fill="#1e1e2e">({ aspect&#45;chain, class })</text>
</g>
<!-- default__aspect_default_ -->
<g id="node13" class="node">
<title>default__aspect_default_</title>
<polygon fill="#a6e3a1" stroke="#a6e3a1" points="1812.99,-831 1634.99,-831 1634.99,-795 1812.99,-795 1812.99,-831"/>
<text text-anchor="middle" x="1723.99" y="-808.33" font-family="Times,serif" font-size="14.00" fill="#1e1e2e">default/aspect(default)</text>
</g>
<!-- n_default&#45;&gt;default__aspect_default_ -->
<g id="edge13" class="edge">
<title>n_default&#45;&gt;default__aspect_default_</title>
<path fill="none" stroke="#a6adc8" d="M345.63,-850.02C362.75,-855.71 379.94,-862.64 395.37,-871 413.93,-881.06 411.58,-894.65 431.37,-902 521.34,-935.4 1297.77,-947.22 1535.3,-896 1588.63,-884.5 1645.3,-857.07 1682.24,-836.87"/>
<polygon fill="#a6adc8" stroke="#a6adc8" points="1683.75,-840.04 1690.8,-832.12 1680.36,-833.92 1683.75,-840.04"/>
</g>
<!-- den__provides__define_user -->
<g id="node18" class="node">
<title>den__provides__define_user</title>
<polygon fill="#a6e3a1" stroke="#a6e3a1" points="720.87,-839 533.73,-839 467.08,-803 787.51,-803 720.87,-839"/>
<text text-anchor="middle" x="627.3" y="-816.33" font-family="Times,serif" font-size="14.00" fill="#1e1e2e">provides/define&#45;user</text>
</g>
<!-- n_default&#45;&gt;den__provides__define_user -->
<g id="edge14" class="edge">
<title>n_default&#45;&gt;den__provides__define_user</title>
<path fill="none" stroke="#a6adc8" d="M391.34,-824.68C424.37,-824.17 459.24,-823.62 491.7,-823.11"/>
<polygon fill="#a6adc8" stroke="#a6adc8" points="491.62,-826.61 501.57,-822.96 491.52,-819.61 491.62,-826.61"/>
</g>
<!-- den__provides__hostname -->
<g id="node19" class="node">
<title>den__provides__hostname</title>
<polygon fill="#fab387" stroke="#fab387" points="715.22,-893 539.38,-893 476.76,-857 777.84,-857 715.22,-893"/>
<text text-anchor="middle" x="627.3" y="-870.33" font-family="Times,serif" font-size="14.00" fill="#1e1e2e">provides/hostname</text>
</g>
<!-- n_default&#45;&gt;den__provides__hostname -->
<g id="edge15" class="edge">
<title>n_default&#45;&gt;den__provides__hostname</title>
<path fill="none" stroke="#a6adc8" d="M363.43,-842.02C396.47,-846.17 432.83,-850.73 467.69,-855.1"/>
<polygon fill="#a6adc8" stroke="#a6adc8" points="467.09,-858.55 477.45,-856.33 467.96,-851.61 467.09,-858.55"/>
</g>
<!-- den__provides__mutual_provider -->
<g id="node20" class="node">
<title>den__provides__mutual_provider</title>
<polygon fill="#f9e2af" stroke="#f9e2af" points="741.72,-785 512.87,-785 431.37,-749 823.23,-749 741.72,-785"/>
<text text-anchor="middle" x="627.3" y="-762.33" font-family="Times,serif" font-size="14.00" fill="#1e1e2e">provides/mutual&#45;provider</text>
</g>
<!-- n_default&#45;&gt;den__provides__mutual_provider -->
<g id="edge16" class="edge">
<title>n_default&#45;&gt;den__provides__mutual_provider</title>
<path fill="none" stroke="#a6adc8" d="M352.74,-807.13C378.5,-802.63 405.88,-798.01 431.37,-794 452.14,-790.74 474.18,-787.48 495.69,-784.42"/>
<polygon fill="#a6adc8" stroke="#a6adc8" points="495.96,-787.92 505.38,-783.05 494.98,-780.99 495.96,-787.92"/>
</g>
<!-- den__provides__default__aspect_default__den__provides -->
<g id="node14" class="node">
<title>den__provides__default__aspect_default__den__provides</title>
<polygon fill="#a6e3a1" stroke="#a6e3a1" points="1394.69,-868 999.84,-868 859.23,-832 1535.3,-832 1394.69,-868"/>
<text text-anchor="middle" x="1197.26" y="-845.33" font-family="Times,serif" font-size="14.00" fill="#1e1e2e">provides/default/aspect(default):den/provides</text>
</g>
<!-- default__cross_provide_host_ -->
<g id="node15" class="node">
<title>default__cross_provide_host_</title>
<polygon fill="#f9e2af" stroke="#f9e2af" points="346.68,-916 138.68,-916 138.68,-880 346.68,-880 346.68,-916"/>
<text text-anchor="middle" x="242.68" y="-893.33" font-family="Times,serif" font-size="14.00" fill="#1e1e2e">default/cross&#45;provide(host)</text>
</g>
<!-- default__cross_provide_user_ -->
<g id="node16" class="node">
<title>default__cross_provide_user_</title>
<polygon fill="#f9e2af" stroke="#f9e2af" points="347.06,-970 138.31,-970 138.31,-934 347.06,-934 347.06,-970"/>
<text text-anchor="middle" x="242.68" y="-947.33" font-family="Times,serif" font-size="14.00" fill="#1e1e2e">default/cross&#45;provide(user)</text>
</g>
<!-- default__self_provide_default_ -->
<g id="node17" class="node">
<title>default__self_provide_default_</title>
<polygon fill="#fab387" stroke="#fab387" points="350.06,-774 135.31,-774 135.31,-738 350.06,-738 350.06,-774"/>
<text text-anchor="middle" x="242.68" y="-751.33" font-family="Times,serif" font-size="14.00" fill="#1e1e2e">default/self&#45;provide(default)</text>
</g>
<!-- den__provides__define_user&#45;&gt;default__aspect_default_ -->
<g id="edge18" class="edge">
<title>den__provides__define_user&#45;&gt;default__aspect_default_</title>
<path fill="none" stroke="#a6adc8" d="M756.82,-820.06C977.64,-818.45 1424.48,-815.18 1623.48,-813.73"/>
<polygon fill="#a6adc8" stroke="#a6adc8" points="1623.3,-817.23 1633.27,-813.66 1623.25,-810.23 1623.3,-817.23"/>
</g>
<!-- den__provides__define_user&#45;&gt;den__provides__default__aspect_default__den__provides -->
<g id="edge19" class="edge">
<title>den__provides__define_user&#45;&gt;den__provides__default__aspect_default__den__provides</title>
<path fill="none" stroke="#a6adc8" d="M744.26,-826.92C775.93,-828.54 811.96,-830.38 849.52,-832.3"/>
<polygon fill="#a6adc8" stroke="#a6adc8" points="849.01,-835.77 859.18,-832.79 849.37,-828.78 849.01,-835.77"/>
</g>
<!-- den__provides__hostname&#45;&gt;default__aspect_default_ -->
<g id="edge20" class="edge">
<title>den__provides__hostname&#45;&gt;default__aspect_default_</title>
<path fill="none" stroke="#a6adc8" d="M728.15,-885.95C896.15,-901.99 1245.39,-925.07 1535.3,-877 1582.75,-869.13 1634.31,-850.79 1671.36,-835.75"/>
<polygon fill="#a6adc8" stroke="#a6adc8" points="1672.58,-839.03 1680.49,-831.98 1669.91,-832.56 1672.58,-839.03"/>
</g>
<!-- den__provides__hostname&#45;&gt;den__provides__default__aspect_default__den__provides -->
<g id="edge21" class="edge">
<title>den__provides__hostname&#45;&gt;den__provides__default__aspect_default__den__provides</title>
<path fill="none" stroke="#a6adc8" d="M757.18,-869.33C816.01,-866.74 887.65,-863.58 955.85,-860.58"/>
<polygon fill="#a6adc8" stroke="#a6adc8" points="955.86,-864.09 965.69,-860.15 955.55,-857.09 955.86,-864.09"/>
</g>
<!-- den__provides__mutual_provider&#45;&gt;default__aspect_default_ -->
<g id="edge22" class="edge">
<title>den__provides__mutual_provider&#45;&gt;default__aspect_default_</title>
<path fill="none" stroke="#a6adc8" d="M761.05,-776.98C793.18,-779.18 827.42,-781.35 859.23,-783 1135.8,-797.38 1462.56,-806.62 1623.37,-810.66"/>
<polygon fill="#a6adc8" stroke="#a6adc8" points="1623.06,-814.15 1633.15,-810.9 1623.24,-807.15 1623.06,-814.15"/>
</g>
<!-- den__provides__mutual_provider&#45;&gt;den__provides__default__aspect_default__den__provides -->
<g id="edge23" class="edge">
<title>den__provides__mutual_provider&#45;&gt;den__provides__default__aspect_default__den__provides</title>
<path fill="none" stroke="#a6adc8" d="M746.87,-783.2C772.08,-786.71 798.54,-790.44 823.23,-794 903.36,-805.56 993.11,-819.02 1064.48,-829.84"/>
<polygon fill="#a6adc8" stroke="#a6adc8" points="1063.87,-833.29 1074.28,-831.33 1064.92,-826.37 1063.87,-833.29"/>
</g>
<!-- alice__to_hosts -->
<g id="node21" class="node">
<title>alice__to_hosts</title>
<polygon fill="#a6e3a1" stroke="#a6e3a1" points="1261.29,-774 1133.24,-774 1087.64,-738 1306.89,-738 1261.29,-774"/>
<text text-anchor="middle" x="1197.26" y="-751.33" font-family="Times,serif" font-size="14.00" fill="#1e1e2e">alice/to&#45;hosts</text>
</g>
<!-- den__provides__mutual_provider&#45;&gt;alice__to_hosts -->
<g id="edge24" class="edge">
<title>den__provides__mutual_provider&#45;&gt;alice__to_hosts</title>
<path fill="none" stroke="#a6adc8" d="M790.67,-763.86C890.82,-761.92 1015.83,-759.49 1100.4,-757.86"/>
<polygon fill="#a6adc8" stroke="#a6adc8" points="1100.35,-761.36 1110.28,-757.67 1100.22,-754.36 1100.35,-761.36"/>
</g>
<!-- alice__to_hosts&#45;&gt;default__aspect_default_ -->
<g id="edge7" class="edge">
<title>alice__to_hosts&#45;&gt;default__aspect_default_</title>
<path fill="none" stroke="#a6adc8" d="M1276.33,-762.57C1344.7,-768.53 1446.68,-777.89 1535.3,-788 1563.99,-791.27 1595.09,-795.24 1623.57,-799.04"/>
<polygon fill="#a6adc8" stroke="#a6adc8" points="1622.88,-802.48 1633.26,-800.35 1623.81,-795.55 1622.88,-802.48"/>
</g>
<!-- alice -->
<g id="node30" class="node">
<title>alice</title>
<polygon fill="#f2cdcd" stroke="#f2cdcd" points="1876.67,-252 1800.33,-286.7 1647.65,-286.7 1571.3,-252 1647.65,-217.3 1800.33,-217.3 1876.67,-252"/>
<text text-anchor="middle" x="1723.99" y="-255.95" font-family="Times,serif" font-size="14.00" fill="#1e1e2e">alice</text>
<text text-anchor="middle" x="1723.99" y="-238.7" font-family="Times,serif" font-size="14.00" fill="#1e1e2e">({ aspect&#45;chain, class })</text>
</g>
<!-- alice__to_hosts&#45;&gt;alice -->
<g id="edge64" class="edge">
<title>alice__to_hosts&#45;&gt;alice</title>
<path fill="none" stroke="#a6adc8" d="M1208.71,-737.76C1247.33,-671.85 1388.83,-443.14 1563.3,-316 1580.67,-303.34 1600.89,-292.75 1620.99,-284.05"/>
<polygon fill="#a6adc8" stroke="#a6adc8" points="1622.2,-287.34 1630.08,-280.26 1619.5,-280.88 1622.2,-287.34"/>
</g>
<!-- hm_host -->
<g id="node22" class="node">
<title>hm_host</title>
<polygon fill="#cba6f7" stroke="#cba6f7" points="395.37,-546 319.03,-580.7 166.34,-580.7 90,-546 166.34,-511.3 319.03,-511.3 395.37,-546"/>
<text text-anchor="middle" x="242.68" y="-549.95" font-family="Times,serif" font-size="14.00" fill="#1e1e2e">hm&#45;host</text>
<text text-anchor="middle" x="242.68" y="-532.7" font-family="Times,serif" font-size="14.00" fill="#1e1e2e">({ aspect&#45;chain, class })</text>
</g>
<!-- hm_host__aspect_hm_host_ -->
<g id="node23" class="node">
<title>hm_host__aspect_hm_host_</title>
<polygon fill="#89b4fa" stroke="#89b4fa" points="723.8,-564 530.8,-564 530.8,-528 723.8,-528 723.8,-564"/>
<text text-anchor="middle" x="627.3" y="-541.33" font-family="Times,serif" font-size="14.00" fill="#1e1e2e">hm&#45;host/aspect(hm&#45;host)</text>
</g>
<!-- hm_host&#45;&gt;hm_host__aspect_hm_host_ -->
<g id="edge29" class="edge">
<title>hm_host&#45;&gt;hm_host__aspect_hm_host_</title>
<path fill="none" stroke="#a6adc8" d="M396.55,-546C437.66,-546 481.24,-546 519.27,-546"/>
<polygon fill="#a6adc8" stroke="#a6adc8" points="518.85,-549.5 528.85,-546 518.85,-542.5 518.85,-549.5"/>
</g>
<!-- hm_host__cross_provide_host_ -->
<g id="node24" class="node">
<title>hm_host__cross_provide_host_</title>
<polygon fill="#f2cdcd" stroke="#f2cdcd" points="350.43,-635 134.93,-635 134.93,-599 350.43,-599 350.43,-635"/>
<text text-anchor="middle" x="242.68" y="-612.33" font-family="Times,serif" font-size="14.00" fill="#1e1e2e">hm&#45;host/cross&#45;provide(host)</text>
</g>
<!-- hm_host__self_provide_hm_host_ -->
<g id="node25" class="node">
<title>hm_host__self_provide_hm_host_</title>
<polygon fill="#cba6f7" stroke="#cba6f7" points="357.56,-689 127.81,-689 127.81,-653 357.56,-653 357.56,-689"/>
<text text-anchor="middle" x="242.68" y="-666.33" font-family="Times,serif" font-size="14.00" fill="#1e1e2e">hm&#45;host/self&#45;provide(hm&#45;host)</text>
</g>
<!-- hm_user -->
<g id="node26" class="node">
<title>hm_user</title>
<polygon fill="#fab387" stroke="#fab387" points="395.37,-319 319.03,-353.7 166.34,-353.7 90,-319 166.34,-284.3 319.03,-284.3 395.37,-319"/>
<text text-anchor="middle" x="242.68" y="-322.95" font-family="Times,serif" font-size="14.00" fill="#1e1e2e">hm&#45;user</text>
<text text-anchor="middle" x="242.68" y="-305.7" font-family="Times,serif" font-size="14.00" fill="#1e1e2e">({ aspect&#45;chain, class })</text>
</g>
<!-- hm_user__aspect_hm_user_ -->
<g id="node27" class="node">
<title>hm_user__aspect_hm_user_</title>
<polygon fill="#a6e3a1" stroke="#a6e3a1" points="724.55,-337 530.05,-337 530.05,-301 724.55,-301 724.55,-337"/>
<text text-anchor="middle" x="627.3" y="-314.32" font-family="Times,serif" font-size="14.00" fill="#1e1e2e">hm&#45;user/aspect(hm&#45;user)</text>
</g>
<!-- hm_user&#45;&gt;hm_user__aspect_hm_user_ -->
<g id="edge30" class="edge">
<title>hm_user&#45;&gt;hm_user__aspect_hm_user_</title>
<path fill="none" stroke="#a6adc8" d="M396.55,-319C437.47,-319 480.84,-319 518.75,-319"/>
<polygon fill="#a6adc8" stroke="#a6adc8" points="518.29,-322.5 528.29,-319 518.29,-315.5 518.29,-322.5"/>
</g>
<!-- hm_user__cross_provide_hm_host_ -->
<g id="node28" class="node">
<title>hm_user__cross_provide_hm_host_</title>
<polygon fill="#a6e3a1" stroke="#a6e3a1" points="364.31,-408 121.06,-408 121.06,-372 364.31,-372 364.31,-408"/>
<text text-anchor="middle" x="242.68" y="-385.32" font-family="Times,serif" font-size="14.00" fill="#1e1e2e">hm&#45;user/cross&#45;provide(hm&#45;host)</text>
</g>
<!-- hm_user__self_provide_hm_user_ -->
<g id="node29" class="node">
<title>hm_user__self_provide_hm_user_</title>
<polygon fill="#fab387" stroke="#fab387" points="358.31,-462 127.06,-462 127.06,-426 358.31,-426 358.31,-462"/>
<text text-anchor="middle" x="242.68" y="-439.32" font-family="Times,serif" font-size="14.00" fill="#1e1e2e">hm&#45;user/self&#45;provide(hm&#45;user)</text>
</g>
<!-- demo_shell -->
<g id="node32" class="node">
<title>demo_shell</title>
<polygon fill="#f2cdcd" stroke="#f2cdcd" points="2132.91,-308 2039.66,-308 2039.66,-272 2132.91,-272 2132.91,-308"/>
<text text-anchor="middle" x="2086.28" y="-285.32" font-family="Times,serif" font-size="14.00" fill="#1e1e2e">demo&#45;shell</text>
</g>
<!-- alice&#45;&gt;demo_shell -->
<g id="edge1" class="edge">
<title>alice&#45;&gt;demo_shell</title>
<path fill="none" stroke="#a6adc8" d="M1848.98,-265.08C1909.72,-271.48 1979.92,-278.89 2027.93,-283.95"/>
<polygon fill="#a6adc8" stroke="#a6adc8" points="2027.51,-287.43 2037.83,-285 2028.25,-280.47 2027.51,-287.43"/>
</g>
<!-- dev_tools -->
<g id="node33" class="node">
<title>dev_tools</title>
<polygon fill="#fab387" stroke="#fab387" points="2126.53,-180 2046.03,-180 2046.03,-144 2126.53,-144 2126.53,-180"/>
<text text-anchor="middle" x="2086.28" y="-157.32" font-family="Times,serif" font-size="14.00" fill="#1e1e2e">dev&#45;tools</text>
</g>
<!-- alice&#45;&gt;dev_tools -->
<g id="edge2" class="edge">
<title>alice&#45;&gt;dev_tools</title>
<path fill="none" stroke="#a6adc8" d="M1820.93,-226.31C1839.62,-220.53 1858.92,-214.01 1876.67,-207 1893.31,-200.43 1895.63,-194.45 1912.67,-189 1952.52,-176.26 1999.52,-169.41 2034.41,-165.8"/>
<polygon fill="#a6adc8" stroke="#a6adc8" points="2034.63,-169.3 2044.25,-164.85 2033.96,-162.33 2034.63,-169.3"/>
</g>
<!-- hyprland -->
<g id="node35" class="node">
<title>hyprland</title>
<polygon fill="#f2cdcd" stroke="#f2cdcd" points="2126.16,-362 2046.41,-362 2046.41,-326 2126.16,-326 2126.16,-362"/>
<text text-anchor="middle" x="2086.28" y="-339.32" font-family="Times,serif" font-size="14.00" fill="#1e1e2e">hyprland</text>
</g>
<!-- alice&#45;&gt;hyprland -->
<g id="edge3" class="edge">
<title>alice&#45;&gt;hyprland</title>
<path fill="none" stroke="#a6adc8" d="M1807.18,-284.03C1839.65,-295.73 1877.54,-308.24 1912.67,-317 1953.26,-327.12 2000.21,-334.17 2034.89,-338.52"/>
<polygon fill="#a6adc8" stroke="#a6adc8" points="2034.3,-341.98 2044.65,-339.71 2035.15,-335.03 2034.3,-341.98"/>
</g>
<!-- primary_user -->
<g id="node36" class="node">
<title>primary_user</title>
<polygon fill="#f2cdcd" stroke="#f2cdcd" points="2140.78,-126 2031.78,-126 2031.78,-90 2140.78,-90 2140.78,-126"/>
<text text-anchor="middle" x="2086.28" y="-103.33" font-family="Times,serif" font-size="14.00" fill="#1e1e2e">primary&#45;user</text>
</g>
<!-- alice&#45;&gt;primary_user -->
<g id="edge4" class="edge">
<title>alice&#45;&gt;primary_user</title>
<path fill="none" stroke="#a6adc8" d="M1833.37,-231.88C1849,-225.69 1864.04,-217.59 1876.67,-207 1904.09,-184.01 1883.79,-156.11 1912.67,-135 1943.39,-112.55 1985.44,-105.62 2020.34,-104.39"/>
<polygon fill="#a6adc8" stroke="#a6adc8" points="2019.96,-107.9 2029.89,-104.2 2019.83,-100.9 2019.96,-107.9"/>
</g>
<!-- den__provides__primary_user -->
<g id="node37" class="node">
<title>den__provides__primary_user</title>
<polygon fill="#f2cdcd" stroke="#f2cdcd" points="2187.67,-234 1984.89,-234 1912.67,-198 2259.89,-198 2187.67,-234"/>
<text text-anchor="middle" x="2086.28" y="-211.32" font-family="Times,serif" font-size="14.00" fill="#1e1e2e">provides/primary&#45;user</text>
</g>
<!-- alice&#45;&gt;den__provides__primary_user -->
<g id="edge5" class="edge">
<title>alice&#45;&gt;den__provides__primary_user</title>
<path fill="none" stroke="#a6adc8" d="M1850.24,-239.48C1885.62,-235.95 1924.13,-232.1 1959.54,-228.56"/>
<polygon fill="#a6adc8" stroke="#a6adc8" points="1959.81,-232.05 1969.41,-227.58 1959.12,-225.09 1959.81,-232.05"/>
</g>
<!-- user__self_provide_user_ -->
<g id="node41" class="node">
<title>user__self_provide_user_</title>
<polygon fill="#f2cdcd" stroke="#f2cdcd" points="2473.14,-225 2295.89,-225 2295.89,-189 2473.14,-189 2473.14,-225"/>
<text text-anchor="middle" x="2384.51" y="-202.32" font-family="Times,serif" font-size="14.00" fill="#1e1e2e">user/self&#45;provide(user)</text>
</g>
<!-- alice&#45;&gt;user__self_provide_user_ -->
<g id="edge6" class="edge">
<title>alice&#45;&gt;user__self_provide_user_</title>
<path fill="none" stroke="#a6adc8" d="M1861.02,-259.64C1969.62,-263.35 2125.35,-263.35 2259.89,-243 2280.03,-239.95 2301.49,-234.52 2320.79,-228.77"/>
<polygon fill="#a6adc8" stroke="#a6adc8" points="2321.59,-232.19 2330.12,-225.91 2319.53,-225.5 2321.59,-232.19"/>
</g>
<!-- bob -->
<g id="node31" class="node">
<title>bob</title>
<polygon fill="#f38ba8" stroke="#f38ba8" points="1876.67,-108 1800.33,-142.7 1647.65,-142.7 1571.3,-108 1647.65,-73.3 1800.33,-73.3 1876.67,-108"/>
<text text-anchor="middle" x="1723.99" y="-111.95" font-family="Times,serif" font-size="14.00" fill="#1e1e2e">bob</text>
<text text-anchor="middle" x="1723.99" y="-94.7" font-family="Times,serif" font-size="14.00" fill="#1e1e2e">({ aspect&#45;chain, class })</text>
</g>
<!-- bob&#45;&gt;dev_tools -->
<g id="edge8" class="edge">
<title>bob&#45;&gt;dev_tools</title>
<path fill="none" stroke="#a6adc8" d="M1839.48,-125.16C1905.05,-134.99 1984.06,-146.83 2034.48,-154.39"/>
<polygon fill="#a6adc8" stroke="#a6adc8" points="2033.81,-157.83 2044.22,-155.85 2034.85,-150.9 2033.81,-157.83"/>
</g>
<!-- gnome -->
<g id="node34" class="node">
<title>gnome</title>
<polygon fill="#f2cdcd" stroke="#f2cdcd" points="2118.28,-52 2054.28,-52 2054.28,-16 2118.28,-16 2118.28,-52"/>
<text text-anchor="middle" x="2086.28" y="-29.32" font-family="Times,serif" font-size="14.00" fill="#1e1e2e">gnome</text>
</g>
<!-- bob&#45;&gt;gnome -->
<g id="edge9" class="edge">
<title>bob&#45;&gt;gnome</title>
<path fill="none" stroke="#a6adc8" d="M1826.14,-84.65C1854.13,-78.38 1884.54,-71.75 1912.67,-66 1956.94,-56.95 2007.82,-47.65 2042.81,-41.42"/>
<polygon fill="#a6adc8" stroke="#a6adc8" points="2043.3,-44.89 2052.54,-39.7 2042.08,-38 2043.3,-44.89"/>
</g>
<!-- bob&#45;&gt;primary_user -->
<g id="edge10" class="edge">
<title>bob&#45;&gt;primary_user</title>
<path fill="none" stroke="#a6adc8" d="M1877.78,-108C1927.53,-108 1980.13,-108 2019.93,-108"/>
<polygon fill="#a6adc8" stroke="#a6adc8" points="2019.81,-111.5 2029.81,-108 2019.81,-104.5 2019.81,-111.5"/>
</g>
<!-- bob&#45;&gt;den__provides__primary_user -->
<g id="edge11" class="edge">
<title>bob&#45;&gt;den__provides__primary_user</title>
<path fill="none" stroke="#a6adc8" d="M1827.48,-130.8C1844.53,-136.7 1861.57,-144.01 1876.67,-153 1896.12,-164.57 1892.5,-178.75 1912.67,-189 1915.75,-190.56 1918.9,-192.04 1922.1,-193.44"/>
<polygon fill="#a6adc8" stroke="#a6adc8" points="1920.51,-196.57 1931.09,-197.07 1923.12,-190.08 1920.51,-196.57"/>
</g>
<!-- bob&#45;&gt;user__self_provide_user_ -->
<g id="edge12" class="edge">
<title>bob&#45;&gt;user__self_provide_user_</title>
<path fill="none" stroke="#a6adc8" d="M1836.35,-89.31C1861.39,-85.85 1887.88,-82.77 1912.67,-81 1989.64,-75.49 2188.74,-51.13 2259.89,-81 2307.31,-100.91 2345.69,-148.87 2366.5,-179.54"/>
<polygon fill="#a6adc8" stroke="#a6adc8" points="2363.37,-181.15 2371.79,-187.58 2369.21,-177.3 2363.37,-181.15"/>
</g>
<!-- demo_shell&#45;&gt;user__self_provide_user_ -->
<g id="edge17" class="edge">
<title>demo_shell&#45;&gt;user__self_provide_user_</title>
<path fill="none" stroke="#a6adc8" d="M2133.32,-284.13C2168.45,-279.01 2217.8,-270.44 2259.89,-258 2285.07,-250.56 2312.13,-239.74 2334.49,-229.98"/>
<polygon fill="#a6adc8" stroke="#a6adc8" points="2335.63,-233.3 2343.35,-226.05 2332.79,-226.9 2335.63,-233.3"/>
</g>
<!-- dev_tools&#45;&gt;user__self_provide_user_ -->
<g id="edge27" class="edge">
<title>dev_tools&#45;&gt;user__self_provide_user_</title>
<path fill="none" stroke="#a6adc8" d="M2126.92,-168.02C2166.96,-174.1 2230.4,-183.74 2284.18,-191.91"/>
<polygon fill="#a6adc8" stroke="#a6adc8" points="2283.59,-195.36 2294,-193.4 2284.64,-188.44 2283.59,-195.36"/>
</g>
<!-- gnome&#45;&gt;user__self_provide_user_ -->
<g id="edge28" class="edge">
<title>gnome&#45;&gt;user__self_provide_user_</title>
<path fill="none" stroke="#a6adc8" d="M2118.67,-33.77C2154.95,-34.82 2215.38,-40.69 2259.89,-66 2308.1,-93.42 2346.9,-146.8 2367.46,-179.43"/>
<polygon fill="#a6adc8" stroke="#a6adc8" points="2364.23,-180.87 2372.45,-187.56 2370.19,-177.2 2364.23,-180.87"/>
</g>
<!-- hyprland&#45;&gt;user__self_provide_user_ -->
<g id="edge48" class="edge">
<title>hyprland&#45;&gt;user__self_provide_user_</title>
<path fill="none" stroke="#a6adc8" d="M2126.48,-344.09C2162.72,-342.77 2217.24,-337.14 2259.89,-317 2301.25,-297.47 2338.99,-259.68 2361.6,-233.9"/>
<polygon fill="#a6adc8" stroke="#a6adc8" points="2364.11,-236.35 2367.97,-226.48 2358.8,-231.79 2364.11,-236.35"/>
</g>
<!-- user -->
<g id="node38" class="node">
<title>user</title>
<polygon fill="#f2cdcd" stroke="#f2cdcd" points="1876.67,-360 1800.33,-394.7 1647.65,-394.7 1571.3,-360 1647.65,-325.3 1800.33,-325.3 1876.67,-360"/>
<text text-anchor="middle" x="1723.99" y="-363.95" font-family="Times,serif" font-size="14.00" fill="#1e1e2e">user</text>
<text text-anchor="middle" x="1723.99" y="-346.7" font-family="Times,serif" font-size="14.00" fill="#1e1e2e">({ aspect&#45;chain, class })</text>
</g>
<!-- user__aspect_user_ -->
<g id="node39" class="node">
<title>user__aspect_user_</title>
<polygon fill="#fab387" stroke="#fab387" points="2156.53,-416 2016.03,-416 2016.03,-380 2156.53,-380 2156.53,-416"/>
<text text-anchor="middle" x="2086.28" y="-393.32" font-family="Times,serif" font-size="14.00" fill="#1e1e2e">user/aspect(user)</text>
</g>
<!-- user&#45;&gt;user__aspect_user_ -->
<g id="edge54" class="edge">
<title>user&#45;&gt;user__aspect_user_</title>
<path fill="none" stroke="#a6adc8" d="M1848.98,-373.08C1900.4,-378.5 1958.59,-384.64 2004.37,-389.47"/>
<polygon fill="#a6adc8" stroke="#a6adc8" points="2003.91,-392.94 2014.22,-390.51 2004.64,-385.98 2003.91,-392.94"/>
</g>
<!-- user__cross_provide_host_ -->
<g id="node40" class="node">
<title>user__cross_provide_host_</title>
<polygon fill="#f38ba8" stroke="#f38ba8" points="1818.61,-198 1629.36,-198 1629.36,-162 1818.61,-162 1818.61,-198"/>
<text text-anchor="middle" x="1723.99" y="-175.32" font-family="Times,serif" font-size="14.00" fill="#1e1e2e">user/cross&#45;provide(host)</text>
</g>
<!-- host -->
<g id="node42" class="node">
<title>host</title>
<polygon fill="#fab387" stroke="#fab387" points="54,-635 0,-635 0,-599 54,-599 54,-635"/>
<text text-anchor="middle" x="27" y="-612.33" font-family="Times,serif" font-size="14.00" fill="#1e1e2e">host</text>
</g>
<!-- host&#45;&gt;multi_desktop -->
<g id="edge45" class="edge">
<title>host&#45;&gt;multi_desktop</title>
<path fill="none" stroke="#a6adc8" d="M27.74,-635.29C27.17,-705.16 28.94,-953.97 82,-1007 105.64,-1030.62 141.97,-1036.99 174.01,-1037.07"/>
<polygon fill="#a6adc8" stroke="#a6adc8" points="173.7,-1040.57 183.63,-1036.88 173.56,-1033.58 173.7,-1040.57"/>
</g>
<!-- host&#45;&gt;host__aspect_host_ -->
<g id="edge43" class="edge">
<title>host&#45;&gt;host__aspect_host_</title>
<path fill="none" stroke="#a6adc8" d="M27.55,-635.35C26.1,-710.44 24.6,-993.25 82,-1056 143.26,-1122.97 410.25,-1146.64 546.17,-1154.45"/>
<polygon fill="#a6adc8" stroke="#a6adc8" points="545.62,-1157.93 555.8,-1154.99 546.01,-1150.94 545.62,-1157.93"/>
</g>
<!-- host&#45;&gt;host__cross_provide__anon__ -->
<g id="edge44" class="edge">
<title>host&#45;&gt;host__cross_provide__anon__</title>
<path fill="none" stroke="#a6adc8" d="M28.74,-635.47C32.35,-721.12 49.22,-1076.95 82,-1113 188.17,-1229.74 382.24,-1237.42 507.66,-1227.93"/>
<polygon fill="#a6adc8" stroke="#a6adc8" points="507.63,-1231.45 517.32,-1227.15 507.07,-1224.47 507.63,-1231.45"/>
</g>
<!-- host&#45;&gt;n_default -->
<g id="edge33" class="edge">
<title>host&#45;&gt;n_default</title>
<path fill="none" stroke="#a6adc8" d="M28.55,-635.4C30.59,-669.53 39.93,-742.8 82,-783 91.75,-792.31 103.28,-799.69 115.61,-805.53"/>
<polygon fill="#a6adc8" stroke="#a6adc8" points="114.18,-808.72 124.75,-809.48 116.96,-802.3 114.18,-808.72"/>
</g>
<!-- host&#45;&gt;default__cross_provide_host_ -->
<g id="edge34" class="edge">
<title>host&#45;&gt;default__cross_provide_host_</title>
<path fill="none" stroke="#a6adc8" d="M29.29,-635.48C33.38,-688.31 47.83,-838.24 82,-871 94.57,-883.05 110.4,-890.85 127.19,-895.75"/>
<polygon fill="#a6adc8" stroke="#a6adc8" points="126.31,-899.14 136.86,-898.2 128.02,-892.36 126.31,-899.14"/>
</g>
<!-- host&#45;&gt;default__cross_provide_user_ -->
<g id="edge35" class="edge">
<title>host&#45;&gt;default__cross_provide_user_</title>
<path fill="none" stroke="#a6adc8" d="M28.54,-635.42C30.7,-695.46 40.71,-883.95 82,-925 94.35,-937.28 110.07,-945.19 126.81,-950.14"/>
<polygon fill="#a6adc8" stroke="#a6adc8" points="125.91,-953.52 136.46,-952.6 127.64,-946.74 125.91,-953.52"/>
</g>
<!-- host&#45;&gt;default__self_provide_default_ -->
<g id="edge36" class="edge">
<title>host&#45;&gt;default__self_provide_default_</title>
<path fill="none" stroke="#a6adc8" d="M31.74,-635.29C37.8,-659.96 52.2,-703.43 82,-726 94.39,-735.39 108.85,-742.12 123.92,-746.92"/>
<polygon fill="#a6adc8" stroke="#a6adc8" points="122.94,-750.28 133.51,-749.65 124.86,-743.54 122.94,-750.28"/>
</g>
<!-- host&#45;&gt;hm_host -->
<g id="edge37" class="edge">
<title>host&#45;&gt;hm_host</title>
<path fill="none" stroke="#a6adc8" d="M54.45,-602.49C63.08,-598.11 72.8,-593.53 82,-590 97.75,-583.96 114.66,-578.38 131.38,-573.36"/>
<polygon fill="#a6adc8" stroke="#a6adc8" points="132.26,-576.75 140.87,-570.57 130.29,-570.03 132.26,-576.75"/>
</g>
<!-- host&#45;&gt;hm_host__cross_provide_host_ -->
<g id="edge38" class="edge">
<title>host&#45;&gt;hm_host__cross_provide_host_</title>
<path fill="none" stroke="#a6adc8" d="M54.2,-617C72.14,-617 97.34,-617 123.46,-617"/>
<polygon fill="#a6adc8" stroke="#a6adc8" points="123.17,-620.5 133.17,-617 123.17,-613.5 123.17,-620.5"/>
</g>
<!-- host&#45;&gt;hm_host__self_provide_hm_host_ -->
<g id="edge39" class="edge">
<title>host&#45;&gt;hm_host__self_provide_hm_host_</title>
<path fill="none" stroke="#a6adc8" d="M54.25,-632.08C62.87,-636.49 72.63,-640.94 82,-644 93.15,-647.64 104.91,-650.81 116.78,-653.57"/>
<polygon fill="#a6adc8" stroke="#a6adc8" points="115.71,-656.92 126.23,-655.66 117.22,-650.08 115.71,-656.92"/>
</g>
<!-- host&#45;&gt;hm_user -->
<g id="edge40" class="edge">
<title>host&#45;&gt;hm_user</title>
<path fill="none" stroke="#a6adc8" d="M29.46,-598.68C34,-546.3 49.54,-397.45 82,-363 91.17,-353.27 102.27,-345.63 114.3,-339.63"/>
<polygon fill="#a6adc8" stroke="#a6adc8" points="115.56,-342.9 123.23,-335.59 112.68,-336.52 115.56,-342.9"/>
</g>
<!-- host&#45;&gt;hm_user__cross_provide_hm_host_ -->
<g id="edge41" class="edge">
<title>host&#45;&gt;hm_user__cross_provide_hm_host_</title>
<path fill="none" stroke="#a6adc8" d="M30.42,-598.65C36.68,-554.02 54.84,-441.66 82,-417 90.35,-409.42 100.01,-403.55 110.36,-399.04"/>
<polygon fill="#a6adc8" stroke="#a6adc8" points="111.42,-402.38 119.5,-395.52 108.91,-395.84 111.42,-402.38"/>
</g>
<!-- host&#45;&gt;hm_user__self_provide_hm_user_ -->
<g id="edge42" class="edge">
<title>host&#45;&gt;hm_user__self_provide_hm_user_</title>
<path fill="none" stroke="#a6adc8" d="M31.61,-598.75C37.63,-572.99 52.13,-526.09 82,-499 97.65,-484.81 117.14,-474.25 137.07,-466.4"/>
<polygon fill="#a6adc8" stroke="#a6adc8" points="138.24,-469.69 146.41,-462.95 135.82,-463.13 138.24,-469.69"/>
</g>
<!-- host&#45;&gt;alice -->
<g id="edge31" class="edge">
<title>host&#45;&gt;alice</title>
<path fill="none" stroke="#a6adc8" d="M27.57,-598.72C26.36,-528.9 26.1,-280.61 82,-232 137.7,-183.56 1178.91,-226.67 1573.29,-244.84"/>
<polygon fill="#a6adc8" stroke="#a6adc8" points="1573.11,-248.33 1583.26,-245.3 1573.43,-241.34 1573.11,-248.33"/>
</g>
<!-- host&#45;&gt;bob -->
<g id="edge32" class="edge">
<title>host&#45;&gt;bob</title>
<path fill="none" stroke="#a6adc8" d="M28.72,-598.54C32.13,-515.35 48,-178.05 82,-147 300.78,52.8 1246.83,-46.25 1594.33,-90.48"/>
<polygon fill="#a6adc8" stroke="#a6adc8" points="1593.82,-93.95 1604.19,-91.74 1594.71,-87 1593.82,-93.95"/>
</g>
<!-- host&#45;&gt;user -->
<g id="edge46" class="edge">
<title>host&#45;&gt;user</title>
<path fill="none" stroke="#a6adc8" d="M27.9,-598.85C27.95,-533.93 31.91,-314.86 82,-272 195.75,-174.67 1226.04,-296.09 1593.51,-342.99"/>
<polygon fill="#a6adc8" stroke="#a6adc8" points="1592.86,-346.43 1603.22,-344.23 1593.74,-339.49 1592.86,-346.43"/>
</g>
<!-- host&#45;&gt;user__cross_provide_host_ -->
<g id="edge47" class="edge">
<title>host&#45;&gt;user__cross_provide_host_</title>
<path fill="none" stroke="#a6adc8" d="M29.03,-598.58C33.47,-522.14 52.18,-232.58 82,-206 196.16,-104.25 1272.93,-154.87 1617.49,-173.86"/>
<polygon fill="#a6adc8" stroke="#a6adc8" points="1617.25,-177.35 1627.43,-174.41 1617.64,-170.37 1617.25,-177.35"/>
</g>
</g>
</svg>
