<?plantuml 1.2026.2?><svg xmlns="http://www.w3.org/2000/svg" xmlns:xlink="http://www.w3.org/1999/xlink" contentStyleType="text/css" data-diagram-type="DESCRIPTION" height="731px" preserveAspectRatio="none" style="width:1875px;height:731px;background:#1E1E2E;" version="1.1" viewBox="0 0 1875 731" width="1875px" zoomAndPan="magnify"><defs/><g><rect fill="#1E1E2E" height="731" style="stroke:none;stroke-width:1;" width="1875" x="0" y="0"/><!--cluster user { host, user }--><g class="cluster" data-qualified-name="user . host. user ." data-source-line="23" id="ent0003"><path d="M622.5,533.16 L783.0993,533.16 A3.75,3.75 0 0 1 785.5993,535.66 L792.5993,557.6399 L1865.5,557.6399 A2.5,2.5 0 0 1 1868,560.1399 L1868,721.62 A2.5,2.5 0 0 1 1865.5,724.12 L622.5,724.12 A2.5,2.5 0 0 1 620,721.62 L620,535.66 A2.5,2.5 0 0 1 622.5,533.16" fill="#313244" style="stroke:#6C7086;stroke-width:1.5;"/><line style="stroke:#6C7086;stroke-width:1.5;" x1="620" x2="792.5993" y1="557.6399" y2="557.6399"/><text fill="#CDD6F4" font-family="'JetBrains Mono,monospace'" font-size="14" font-weight="bold" lengthAdjust="spacing" textLength="159.5993" x="624" y="549.4399">user { host, user }</text></g><!--cluster default { host, user }--><g class="cluster" data-qualified-name="default . host. user ." data-source-line="33" id="ent0012"><path d="M8.5,104.24 L194.2992,104.24 A3.75,3.75 0 0 1 196.7992,106.74 L203.7992,128.7199 L1035.5,128.7199 A2.5,2.5 0 0 1 1038,131.2199 L1038,497.66 A2.5,2.5 0 0 1 1035.5,500.16 L8.5,500.16 A2.5,2.5 0 0 1 6,497.66 L6,106.74 A2.5,2.5 0 0 1 8.5,104.24" fill="#313244" style="stroke:#6C7086;stroke-width:1.5;"/><line style="stroke:#6C7086;stroke-width:1.5;" x1="6" x2="203.7992" y1="128.7199" y2="128.7199"/><text fill="#CDD6F4" font-family="'JetBrains Mono,monospace'" font-size="14" font-weight="bold" lengthAdjust="spacing" textLength="184.7992" x="10" y="120.5199">default { host, user }</text></g><!--entity demo_shell--><g class="entity" data-qualified-name="user . host. user ..demo_shell" data-source-line="24" id="ent0004"><rect fill="#F2CDCD" height="38.4799" rx="2.5" ry="2.5" style="stroke:#A6ADC8;stroke-width:0.5;" width="103.9996" x="1146" y="570.16"/><text fill="#1E1E2E" font-family="'JetBrains Mono,monospace'" font-size="14" lengthAdjust="spacing" textLength="83.9996" x="1156" y="594.4399">demo-shell</text></g><!--entity dev_tools--><g class="entity" data-qualified-name="user . host. user ..dev_tools" data-source-line="25" id="ent0005"><rect fill="#FAB387" height="38.4799" rx="2.5" ry="2.5" style="stroke:#A6ADC8;stroke-width:0.5;" width="95.5997" x="1285.2" y="570.16"/><text fill="#1E1E2E" font-family="'JetBrains Mono,monospace'" font-size="14" lengthAdjust="spacing" textLength="75.5997" x="1295.2" y="594.4399">dev-tools</text></g><!--entity hyprland--><g class="entity" data-qualified-name="user . host. user ..hyprland" data-source-line="26" id="ent0006"><rect fill="#F2CDCD" height="38.4799" rx="2.5" ry="2.5" style="stroke:#A6ADC8;stroke-width:0.5;" width="87.1997" x="636.4" y="570.16"/><text fill="#1E1E2E" font-family="'JetBrains Mono,monospace'" font-size="14" lengthAdjust="spacing" textLength="67.1997" x="646.4" y="594.4399">hyprland</text></g><!--entity primary_user--><g class="entity" data-qualified-name="user . host. user ..primary_user" data-source-line="27" id="ent0007"><rect fill="#F2CDCD" height="38.4799" rx="2.5" ry="2.5" style="stroke:#A6ADC8;stroke-width:0.5;" width="120.7996" x="758.6" y="570.16"/><text fill="#1E1E2E" font-family="'JetBrains Mono,monospace'" font-size="14" lengthAdjust="spacing" textLength="100.7996" x="768.6" y="594.4399">primary-user</text></g><!--entity den__provides__primary_user--><g class="entity" data-qualified-name="user . host. user ..den__provides__primary_user" data-source-line="28" id="ent0008"><rect fill="#F2CDCD" height="24.4799" rx="2.5" ry="2.5" style="stroke:#A6ADC8;stroke-width:0.5;" width="196.3992" x="914.8" y="577.16"/><text fill="#1E1E2E" font-family="'JetBrains Mono,monospace'" font-size="14" lengthAdjust="spacing" textLength="176.3992" x="924.8" y="594.4399">provides/primary-user</text></g><!--entity user__aspect_user_--><g class="entity" data-qualified-name="user . host. user ..user__aspect_user_" data-source-line="29" id="ent0009"><rect fill="#FAB387" height="38.4799" rx="2.5" ry="2.5" style="stroke:#A6ADC8;stroke-width:0.5;" width="162.7994" x="1415.6" y="570.16"/><text fill="#1E1E2E" font-family="'JetBrains Mono,monospace'" font-size="14" lengthAdjust="spacing" textLength="142.7994" x="1425.6" y="594.4399">user/aspect(user)</text></g><!--entity user__cross_provide__anon__--><g class="entity" data-qualified-name="user . host. user ..user__cross_provide__anon__" data-source-line="30" id="ent0010"><rect fill="#F38BA8" height="38.4799" rx="2.5" ry="2.5" style="stroke:#A6ADC8;stroke-width:0.5;" width="238.399" x="1613.8" y="570.16"/><text fill="#1E1E2E" font-family="'JetBrains Mono,monospace'" font-size="14" lengthAdjust="spacing" textLength="218.399" x="1623.8" y="594.4399">user/cross-provide(&lt;anon&gt;)</text></g><!--entity user__self_provide_user_--><g class="entity" data-qualified-name="user . host. user ..user__self_provide_user_" data-source-line="31" id="ent0011"><rect fill="#F2CDCD" height="38.4799" rx="2.5" ry="2.5" style="stroke:#A6ADC8;stroke-width:0.5;" width="213.1992" x="782.4" y="669.64"/><text fill="#1E1E2E" font-family="'JetBrains Mono,monospace'" font-size="14" lengthAdjust="spacing" textLength="193.1992" x="792.4" y="693.9199">user/self-provide(user)</text></g><!--entity n_default--><g class="entity" data-qualified-name="default . host. user ..n_default" data-source-line="34" id="ent0013"><polygon fill="#FAB387" points="442,164.72,337,141.24,127,141.24,22,164.72,127,188.2,337,188.2,442,164.72" style="stroke:#A6ADC8;stroke-width:0.5;"/><text fill="#1E1E2E" font-family="'JetBrains Mono,monospace'" font-size="14" lengthAdjust="spacing" textLength="58.7997" x="126.9995" y="160.5199">default</text><text fill="#1E1E2E" font-family="'JetBrains Mono,monospace'" font-size="14" lengthAdjust="spacing" textLength="209.9991" x="126.9995" y="178.9999">({ aspect-chain, class })</text></g><!--entity default__aspect_default_--><g class="entity" data-qualified-name="default . host. user ..default__aspect_default_" data-source-line="35" id="ent0014"><rect fill="#A6E3A1" height="38.4799" rx="2.5" ry="2.5" style="stroke:#A6ADC8;stroke-width:0.5;" width="213.1992" x="132.4" y="445.68"/><text fill="#1E1E2E" font-family="'JetBrains Mono,monospace'" font-size="14" lengthAdjust="spacing" textLength="193.1992" x="142.4" y="469.9599">default/aspect(default)</text></g><!--entity den__provides__default__aspect_default__den__provides--><g class="entity" data-qualified-name="default . host. user ..den__provides__default__aspect_default__den__provides" data-source-line="36" id="ent0015"><rect fill="#A6E3A1" height="24.4799" rx="2.5" ry="2.5" style="stroke:#A6ADC8;stroke-width:0.5;" width="397.9984" x="275" y="342.2"/><text fill="#1E1E2E" font-family="'JetBrains Mono,monospace'" font-size="14" lengthAdjust="spacing" textLength="377.9984" x="285" y="359.4799">provides/default/aspect(default):den/provides</text></g><!--entity default__cross_provide_user_--><g class="entity" data-qualified-name="default . host. user ..default__cross_provide_user_" data-source-line="37" id="ent0016"><rect fill="#F9E2AF" height="38.4799" rx="2.5" ry="2.5" style="stroke:#A6ADC8;stroke-width:0.5;" width="246.799" x="476.6" y="145.48"/><text fill="#1E1E2E" font-family="'JetBrains Mono,monospace'" font-size="14" lengthAdjust="spacing" textLength="226.799" x="486.6" y="169.7599">default/cross-provide(user)</text></g><!--entity default__self_provide_default_--><g class="entity" data-qualified-name="default . host. user ..default__self_provide_default_" data-source-line="38" id="ent0017"><rect fill="#FAB387" height="38.4799" rx="2.5" ry="2.5" style="stroke:#A6ADC8;stroke-width:0.5;" width="263.5989" x="758.2" y="145.48"/><text fill="#1E1E2E" font-family="'JetBrains Mono,monospace'" font-size="14" lengthAdjust="spacing" textLength="243.5989" x="768.2" y="169.7599">default/self-provide(default)</text></g><!--entity den__provides__define_user--><g class="entity" data-qualified-name="default . host. user ..den__provides__define_user" data-source-line="39" id="ent0018"><rect fill="#A6E3A1" height="24.4799" rx="2.5" ry="2.5" style="stroke:#A6ADC8;stroke-width:0.5;" width="187.9993" x="138" y="256.72"/><text fill="#1E1E2E" font-family="'JetBrains Mono,monospace'" font-size="14" lengthAdjust="spacing" textLength="167.9993" x="148" y="273.9999">provides/define-user</text></g><!--entity den__provides__hostname--><g class="entity" data-qualified-name="default . host. user ..den__provides__hostname" data-source-line="40" id="ent0019"><rect fill="#FAB387" height="24.4799" rx="2.5" ry="2.5" style="stroke:#A6ADC8;stroke-width:0.5;" width="162.7994" x="360.6" y="256.72"/><text fill="#1E1E2E" font-family="'JetBrains Mono,monospace'" font-size="14" lengthAdjust="spacing" textLength="142.7994" x="370.6" y="273.9999">provides/hostname</text></g><!--entity den__provides__mutual_provider--><g class="entity" data-qualified-name="default . host. user ..den__provides__mutual_provider" data-source-line="41" id="ent0020"><rect fill="#F9E2AF" height="24.4799" rx="2.5" ry="2.5" style="stroke:#A6ADC8;stroke-width:0.5;" width="221.5991" x="578.2" y="256.72"/><text fill="#1E1E2E" font-family="'JetBrains Mono,monospace'" font-size="14" lengthAdjust="spacing" textLength="201.5991" x="588.2" y="273.9999">provides/mutual-provider</text></g><!--entity alice__to_hosts--><g class="entity" data-qualified-name="default . host. user ..alice__to_hosts" data-source-line="42" id="ent0021"><rect fill="#A6E3A1" height="24.4799" rx="2.5" ry="2.5" style="stroke:#A6ADC8;stroke-width:0.5;" width="137.5995" x="745.2" y="342.2"/><text fill="#1E1E2E" font-family="'JetBrains Mono,monospace'" font-size="14" lengthAdjust="spacing" textLength="117.5995" x="755.2" y="359.4799">alice/to-hosts</text></g><!--entity alice--><g class="entity" data-qualified-name="alice" data-source-line="22" id="ent0002"><rect fill="#89B4FA" height="38.4799" rx="2.5" ry="2.5" style="stroke:#A6ADC8;stroke-width:0.5;" width="61.9998" x="1054" y="445.68"/><text fill="#1E1E2E" font-family="'JetBrains Mono,monospace'" font-size="14" lengthAdjust="spacing" textLength="41.9998" x="1064" y="469.9599">alice</text></g><!--entity user--><g class="entity" data-qualified-name="user" data-source-line="44" id="ent0022"><rect fill="#FAB387" height="38.4799" rx="2.5" ry="2.5" style="stroke:#A6ADC8;stroke-width:0.5;" width="53.5999" x="1033.2" y="7"/><text fill="#1E1E2E" font-family="'JetBrains Mono,monospace'" font-size="14" lengthAdjust="spacing" textLength="33.5999" x="1043.2" y="31.2799">user</text></g><!--entity ctx_user--><g class="entity" data-qualified-name="ctx_user" data-source-line="74" id="ent0051"><ellipse cx="1655" cy="26.24" fill="#F1F1F1" rx="8" ry="8" style="stroke:#181818;stroke-width:0.5;"/><text fill="#CDD6F4" font-family="'JetBrains Mono,monospace'" font-size="14" lengthAdjust="spacing" textLength="67.1997" x="1621.4001" y="57.5199">ctx_user</text></g><!--entity ctx_default--><g class="entity" data-qualified-name="ctx_default" data-source-line="74" id="ent0052"><ellipse cx="1655" cy="164.72" fill="#F1F1F1" rx="8" ry="8" style="stroke:#181818;stroke-width:0.5;"/><text fill="#CDD6F4" font-family="'JetBrains Mono,monospace'" font-size="14" lengthAdjust="spacing" textLength="92.3996" x="1608.8002" y="195.9999">ctx_default</text></g><!--link alice to demo_shell--><g class="link" data-entity-1="ent0002" data-entity-2="ent0004" data-link-type="dependency" data-source-line="46" id="lnk23"><path d="M1102.16,484.52 C1123.52,507.68 1155.7101,542.5714 1176.9801,565.6114" fill="none" id="alice-to-demo_shell" style="stroke:#A6ADC8;stroke-width:1;"/><polygon fill="#A6ADC8" points="1181.05,570.02,1177.8842,560.6938,1177.6584,566.3462,1172.0061,566.1204,1181.05,570.02" style="stroke:#A6ADC8;stroke-width:1;"/></g><!--link alice to dev_tools--><g class="link" data-entity-1="ent0002" data-entity-2="ent0005" data-link-type="dependency" data-source-line="47" id="lnk24"><path d="M1116.27,478.11 C1145.59,489.25 1190.83,505.69 1231,517.16 C1246.76,521.66 1252.55,517.43 1267,525.16 C1287.57,536.17 1302.3984,550.8048 1314.5984,565.1848" fill="none" id="alice-to-dev_tools" style="stroke:#A6ADC8;stroke-width:1;"/><polygon fill="#A6ADC8" points="1318.48,569.76,1315.7077,560.3094,1315.2453,565.9473,1309.6074,565.4849,1318.48,569.76" style="stroke:#A6ADC8;stroke-width:1;"/></g><!--link alice to hyprland--><g class="link" data-entity-1="ent0002" data-entity-2="ent0006" data-link-type="dependency" data-source-line="48" id="lnk25"><path d="M1070,484.29 C1061.61,493.18 1050.36,503.01 1038,508.16 C1007.49,520.87 771.04,511.37 741,525.16 C720.2,534.71 706.3532,549.9161 695.5332,564.8961" fill="none" id="alice-to-hyprland" style="stroke:#A6ADC8;stroke-width:1;"/><polygon fill="#A6ADC8" points="692.02,569.76,700.5324,564.8063,694.9477,565.7067,694.0472,560.122,692.02,569.76" style="stroke:#A6ADC8;stroke-width:1;"/></g><!--link alice to primary_user--><g class="link" data-entity-1="ent0002" data-entity-2="ent0007" data-link-type="dependency" data-source-line="49" id="lnk26"><path d="M1069.45,484.41 C1061.06,493.1 1049.99,502.72 1038,508.16 C980.52,534.25 955.12,500.54 897,525.16 C873.08,535.29 854.8053,550.7901 840.1753,565.5401" fill="none" id="alice-to-primary_user" style="stroke:#A6ADC8;stroke-width:1;"/><polygon fill="#A6ADC8" points="835.95,569.8,845.1279,566.227,839.4711,566.2501,839.448,560.5932,835.95,569.8" style="stroke:#A6ADC8;stroke-width:1;"/></g><!--link alice to den__provides__primary_user--><g class="link" data-entity-1="ent0002" data-entity-2="ent0008" data-link-type="dependency" data-source-line="50" id="lnk27"><path d="M1074.06,484.52 C1058.96,510.22 1035.1995,550.6268 1022.7495,571.8168" fill="none" id="alice-to-den__provides__primary_user" style="stroke:#A6ADC8;stroke-width:1;"/><polygon fill="#A6ADC8" points="1019.71,576.99,1027.718,571.2565,1022.2429,572.679,1020.8204,567.2039,1019.71,576.99" style="stroke:#A6ADC8;stroke-width:1;"/></g><!--link alice to user__self_provide_user_--><g class="link" data-entity-1="ent0002" data-entity-2="ent0011" data-link-type="dependency" data-source-line="51" id="lnk28"><path d="M1070.04,484.39 C1061.66,493.3 1050.4,503.13 1038,508.16 C994.83,525.69 651.25,491.53 619,525.16 C593.32,551.94 596.76,578.94 619,608.64 C639.13,635.53 709.6511,655.1905 776.0611,668.7405" fill="none" id="alice-to-user__self_provide_user_" style="stroke:#A6ADC8;stroke-width:1;"/><polygon fill="#A6ADC8" points="781.94,669.94,773.9214,664.2215,777.0409,668.9404,772.322,672.06,781.94,669.94" style="stroke:#A6ADC8;stroke-width:1;"/></g><!--link alice__to_hosts to default__aspect_default_--><g class="link" data-entity-1="ent0021" data-entity-2="ent0014" data-link-type="dependency" data-source-line="52" id="lnk29"><path d="M800.12,367.1 C782.34,381.28 750.01,404.7 718,415.68 C651.54,438.47 471.7706,451.7947 352.0706,458.4947" fill="none" id="alice__to_hosts-to-default__aspect_default_" style="stroke:#A6ADC8;stroke-width:1;"/><polygon fill="#A6ADC8" points="346.08,458.83,355.2895,462.3208,351.0722,458.5506,354.8424,454.3333,346.08,458.83" style="stroke:#A6ADC8;stroke-width:1;"/></g><!--link n_default to default__aspect_default_--><g class="link" data-entity-1="ent0013" data-entity-2="ent0014" data-link-type="dependency" data-source-line="53" id="lnk30"><path d="M183.89,188.55 C148.81,208.86 109.28,241.46 121,281.2 C140.81,348.39 189.8792,409.6697 217.5992,440.7897" fill="none" id="n_default-to-default__aspect_default_" style="stroke:#A6ADC8;stroke-width:1;"/><polygon fill="#A6ADC8" points="221.59,445.27,218.5906,435.889,218.2643,441.5364,212.6169,441.2101,221.59,445.27" style="stroke:#A6ADC8;stroke-width:1;"/></g><!--link n_default to den__provides__define_user--><g class="link" data-entity-1="ent0013" data-entity-2="ent0018" data-link-type="dependency" data-source-line="54" id="lnk31"><path d="M232,188.67 C232,209.74 232,234.11 232,250.48" fill="none" id="n_default-to-den__provides__define_user" style="stroke:#A6ADC8;stroke-width:1;"/><polygon fill="#A6ADC8" points="232,256.48,236,247.48,232,251.48,228,247.48,232,256.48" style="stroke:#A6ADC8;stroke-width:1;"/></g><!--link n_default to den__provides__hostname--><g class="link" data-entity-1="ent0013" data-entity-2="ent0019" data-link-type="dependency" data-source-line="55" id="lnk32"><path d="M279.13,188.67 C322.3,209.68 379.0555,237.3132 412.7355,253.7132" fill="none" id="n_default-to-den__provides__hostname" style="stroke:#A6ADC8;stroke-width:1;"/><polygon fill="#A6ADC8" points="418.13,256.34,411.7895,248.8036,413.6346,254.151,408.2871,255.9962,418.13,256.34" style="stroke:#A6ADC8;stroke-width:1;"/></g><!--link n_default to den__provides__mutual_provider--><g class="link" data-entity-1="ent0013" data-entity-2="ent0020" data-link-type="dependency" data-source-line="56" id="lnk33"><path d="M334.56,188.67 C428.38,209.65 557.5347,238.5501 630.8847,254.9601" fill="none" id="n_default-to-den__provides__mutual_provider" style="stroke:#A6ADC8;stroke-width:1;"/><polygon fill="#A6ADC8" points="636.74,256.27,628.8304,250.4016,631.8606,255.1784,627.0838,258.2086,636.74,256.27" style="stroke:#A6ADC8;stroke-width:1;"/></g><!--link demo_shell to user__self_provide_user_--><g class="link" data-entity-1="ent0004" data-entity-2="ent0011" data-link-type="dependency" data-source-line="57" id="lnk34"><path d="M1145.58,606.94 C1090.91,624.18 1011.1021,649.3652 954.0021,667.3752" fill="none" id="demo_shell-to-user__self_provide_user_" style="stroke:#A6ADC8;stroke-width:1;"/><polygon fill="#A6ADC8" points="948.28,669.18,958.0664,670.2875,953.0484,667.676,955.66,662.658,948.28,669.18" style="stroke:#A6ADC8;stroke-width:1;"/></g><!--link den__provides__define_user to default__aspect_default_--><g class="link" data-entity-1="ent0018" data-entity-2="ent0014" data-link-type="dependency" data-source-line="58" id="lnk35"><path d="M231.03,281.33 C229.11,305.91 225.39,365.8 230,415.68 C230.91,425.52 231.6189,430.4756 233.4689,439.3756" fill="none" id="den__provides__define_user-to-default__aspect_default_" style="stroke:#A6ADC8;stroke-width:1;"/><polygon fill="#A6ADC8" points="234.69,445.25,236.7747,435.6243,233.6724,440.3546,228.9421,437.2524,234.69,445.25" style="stroke:#A6ADC8;stroke-width:1;"/></g><!--link den__provides__define_user to den__provides__default__aspect_default__den__provides--><g class="link" data-entity-1="ent0018" data-entity-2="ent0015" data-link-type="dependency" data-source-line="59" id="lnk36"><path d="M265.9,281.66 C312.08,297.59 388.5977,323.9844 434.6577,339.8644" fill="none" id="den__provides__define_user-to-den__provides__default__aspect_default__den__provides" style="stroke:#A6ADC8;stroke-width:1;"/><polygon fill="#A6ADC8" points="440.33,341.82,433.1252,335.105,435.603,340.1903,430.5177,342.6681,440.33,341.82" style="stroke:#A6ADC8;stroke-width:1;"/></g><!--link den__provides__hostname to default__aspect_default_--><g class="link" data-entity-1="ent0019" data-entity-2="ent0014" data-link-type="dependency" data-source-line="60" id="lnk37"><path d="M365.53,281.65 C327.56,291.45 284.3,309.4 258,342.2 C234.05,372.07 233.7778,413.7037 236.0878,439.6437" fill="none" id="den__provides__hostname-to-default__aspect_default_" style="stroke:#A6ADC8;stroke-width:1;"/><polygon fill="#A6ADC8" points="236.62,445.62,239.8059,436.3007,236.1765,440.6397,231.8375,437.0103,236.62,445.62" style="stroke:#A6ADC8;stroke-width:1;"/></g><!--link den__provides__hostname to den__provides__default__aspect_default__den__provides--><g class="link" data-entity-1="ent0019" data-entity-2="ent0015" data-link-type="dependency" data-source-line="61" id="lnk38"><path d="M446.45,281.57 C452.56,297.52 461.3408,320.4281 467.4408,336.3281" fill="none" id="den__provides__hostname-to-den__provides__default__aspect_default__den__provides" style="stroke:#A6ADC8;stroke-width:1;"/><polygon fill="#A6ADC8" points="469.59,341.93,470.1009,332.0944,467.799,337.2618,462.6317,334.9599,469.59,341.93" style="stroke:#A6ADC8;stroke-width:1;"/></g><!--link den__provides__mutual_provider to default__aspect_default_--><g class="link" data-entity-1="ent0020" data-entity-2="ent0014" data-link-type="dependency" data-source-line="62" id="lnk39"><path d="M693.37,281.61 C700,301.47 709.83,342.12 690,366.68 C647.58,419.22 471.3334,444.1754 351.8934,455.4654" fill="none" id="den__provides__mutual_provider-to-default__aspect_default_" style="stroke:#A6ADC8;stroke-width:1;"/><polygon fill="#A6ADC8" points="345.92,456.03,355.2565,459.1653,350.8978,455.5595,354.5036,451.2008,345.92,456.03" style="stroke:#A6ADC8;stroke-width:1;"/></g><!--link den__provides__mutual_provider to den__provides__default__aspect_default__den__provides--><g class="link" data-entity-1="ent0020" data-entity-2="ent0015" data-link-type="dependency" data-source-line="63" id="lnk40"><path d="M659.11,281.57 C618.14,297.47 550.5929,323.6975 509.5829,339.6275" fill="none" id="den__provides__mutual_provider-to-den__provides__default__aspect_default__den__provides" style="stroke:#A6ADC8;stroke-width:1;"/><polygon fill="#A6ADC8" points="503.99,341.8,513.8276,342.2698,508.6507,339.9896,510.931,334.8127,503.99,341.8" style="stroke:#A6ADC8;stroke-width:1;"/></g><!--link den__provides__mutual_provider to alice__to_hosts--><g class="link" data-entity-1="ent0020" data-entity-2="ent0021" data-link-type="dependency" data-source-line="64" id="lnk41"><path d="M706.38,281.57 C730.26,297.52 767.9703,322.6979 791.7803,338.5979" fill="none" id="den__provides__mutual_provider-to-alice__to_hosts" style="stroke:#A6ADC8;stroke-width:1;"/><polygon fill="#A6ADC8" points="796.77,341.93,791.5068,333.6054,792.6119,339.1533,787.064,340.2584,796.77,341.93" style="stroke:#A6ADC8;stroke-width:1;"/></g><!--link dev_tools to user__self_provide_user_--><g class="link" data-entity-1="ent0005" data-entity-2="ent0011" data-link-type="dependency" data-source-line="65" id="lnk42"><path d="M1284.79,604.1 C1278.81,605.69 1272.78,607.24 1267,608.64 C1172.19,631.65 1068.9366,652.939 992.3766,668.039" fill="none" id="dev_tools-to-user__self_provide_user_" style="stroke:#A6ADC8;stroke-width:1;"/><polygon fill="#A6ADC8" points="986.49,669.2,996.0939,671.3829,991.3955,668.2325,994.5459,663.5341,986.49,669.2" style="stroke:#A6ADC8;stroke-width:1;"/></g><!--link hyprland to user__self_provide_user_--><g class="link" data-entity-1="ent0006" data-entity-2="ent0011" data-link-type="dependency" data-source-line="66" id="lnk43"><path d="M719.8,608.96 C756.87,626.25 806.4122,649.3641 843.5522,666.6841" fill="none" id="hyprland-to-user__self_provide_user_" style="stroke:#A6ADC8;stroke-width:1;"/><polygon fill="#A6ADC8" points="848.99,669.22,842.5239,661.791,844.4585,667.1068,839.1428,669.0414,848.99,669.22" style="stroke:#A6ADC8;stroke-width:1;"/></g><!--link user to alice--><g class="link" data-entity-1="ent0022" data-entity-2="ent0002" data-link-type="dependency" data-source-line="67" id="lnk44"><path d="M1064.44,45.66 C1070.33,71.76 1080,121.09 1080,163.72 C1080,163.72 1080,163.72 1080,355.44 C1080,387.11 1081.7395,417.9441 1083.2195,439.5241" fill="none" id="user-to-alice" style="stroke:#A6ADC8;stroke-width:1;"/><polygon fill="#A6ADC8" points="1083.63,445.51,1087.0048,436.2574,1083.2879,440.5217,1079.0236,436.8048,1083.63,445.51" style="stroke:#A6ADC8;stroke-width:1;"/></g><!--link user to n_default--><g class="link" data-entity-1="ent0022" data-entity-2="ent0013" data-link-type="dependency" data-source-line="68" id="lnk45"><path d="M1032.78,28.67 C947.42,33.51 677.66,51.55 459,96.24 C403.81,107.52 348.3784,124.1717 303.4784,138.9717" fill="none" id="user-to-n_default" style="stroke:#A6ADC8;stroke-width:1;"/><polygon fill="#A6ADC8" points="297.78,140.85,307.5798,141.8315,302.5287,139.2847,305.0754,134.2336,297.78,140.85" style="stroke:#A6ADC8;stroke-width:1;"/></g><!--link user to default__cross_provide_user_--><g class="link" data-entity-1="ent0022" data-entity-2="ent0016" data-link-type="dependency" data-source-line="69" id="lnk46"><path d="M1032.96,30.91 C977.25,38.94 846.08,60.28 741,96.24 C702.74,109.33 666.5361,127.2015 638.5461,142.2315" fill="none" id="user-to-default__cross_provide_user_" style="stroke:#A6ADC8;stroke-width:1;"/><polygon fill="#A6ADC8" points="633.26,145.07,643.0815,144.3363,637.6651,142.7046,639.2968,137.2882,633.26,145.07" style="stroke:#A6ADC8;stroke-width:1;"/></g><!--link user to default__self_provide_default_--><g class="link" data-entity-1="ent0022" data-entity-2="ent0017" data-link-type="dependency" data-source-line="70" id="lnk47"><path d="M1036.72,45.93 C1004.25,71.99 950.4087,115.2237 917.9487,141.2837" fill="none" id="user-to-default__self_provide_default_" style="stroke:#A6ADC8;stroke-width:1;"/><polygon fill="#A6ADC8" points="913.27,145.04,922.7923,142.5248,917.1689,141.9098,917.7839,136.2865,913.27,145.04" style="stroke:#A6ADC8;stroke-width:1;"/></g><!--link user to user__aspect_user_--><g class="link" data-entity-1="ent0022" data-entity-2="ent0009" data-link-type="dependency" data-source-line="71" id="lnk48"><path d="M1086.96,33.16 C1139.61,46.47 1251,84.04 1251,163.72 C1251,163.72 1251,163.72 1251,465.92 C1251,536.36 1335.38,492.9 1398,525.16 C1423.74,538.42 1446.4454,553.0314 1465.9554,566.4414" fill="none" id="user-to-user__aspect_user_" style="stroke:#A6ADC8;stroke-width:1;"/><polygon fill="#A6ADC8" points="1470.9,569.84,1465.7488,561.4456,1466.7795,567.0078,1461.2173,568.0385,1470.9,569.84" style="stroke:#A6ADC8;stroke-width:1;"/></g><!--link user to user__cross_provide__anon__--><g class="link" data-entity-1="ent0022" data-entity-2="ent0010" data-link-type="dependency" data-source-line="72" id="lnk49"><path d="M1087.28,28.91 C1190.05,35.92 1548,67.28 1548,163.72 C1548,163.72 1548,163.72 1548,465.92 C1548,499.72 1629.4922,542.2476 1684.1722,567.2176" fill="none" id="user-to-user__cross_provide__anon__" style="stroke:#A6ADC8;stroke-width:1;"/><polygon fill="#A6ADC8" points="1689.63,569.71,1683.1048,562.3329,1685.0818,567.633,1679.7816,569.61,1689.63,569.71" style="stroke:#A6ADC8;stroke-width:1;"/></g><!--link alice__to_hosts to alice--><g class="link" data-entity-1="ent0021" data-entity-2="ent0002" data-link-type="dependency" data-source-line="73" id="lnk50"><path d="M843.26,367.15 C894.72,387.75 995.3997,428.0502 1048.2097,449.1902" fill="none" id="alice__to_hosts-to-alice" style="stroke:#A6ADC8;stroke-width:1;"/><polygon fill="#A6ADC8" points="1053.78,451.42,1046.9111,444.3618,1049.1381,449.5618,1043.9381,451.7888,1053.78,451.42" style="stroke:#A6ADC8;stroke-width:1;"/><text fill="#CDD6F4" font-family="'JetBrains Mono,monospace'" font-size="13" lengthAdjust="spacing" textLength="85.8" x="958.63" y="410.94">provided-by</text></g><!--link ctx_user to ctx_default--><g class="link" data-entity-1="ent0051" data-entity-2="ent0052" data-link-type="dependency" data-source-line="74" id="lnk53"><path d="M1655,34.97 C1655,58.88 1655,125.48 1655,149.74" fill="none" id="ctx_user-to-ctx_default" style="stroke:#A6ADC8;stroke-width:1;"/><polygon fill="#A6ADC8" points="1655,155.74,1659,146.74,1655,150.74,1651,146.74,1655,155.74" style="stroke:#A6ADC8;stroke-width:1;"/></g><?plantuml-src jLNVQzim47xNNo6IbnPgiYGbJSleGmjZ35R6dWVc8Ya_g2C5oUbQIlxtMR8aoxQijcDxCJxTf-yxtPrEwd773o1XZrT07ZTI73cz5uMGU3nbKpPZI7a4PMiu5kKNmKiB8PGkrfTno0Fi6HvzO-MTX1rN-BlWuc9VVTG121i5cq1AyTiomW8eMNQTAScVZ9J0DmMxwnvWFftFBkDG8IcJGv8U5iZsal6LFSD6yBT57J0fQK4fmNkGz6qrWqfAQKHAvqUb0PjtPDC1GxK5kVgqNFH1gG8-YF8TQWQLbDA8lWwIhffu1CMkwZmC2fi_F5vUhoxNW0vra7XqL4pYLxmLghp0nZYDy2l2E22XR2yojML5OPYqcHiJZzSpGWdjmf-oKeX2MVHJRgmA3AlvygeDthuSP06S6gmpuhm7kTk3VCbqb0Pk5t8JThE5LENMQF6qeqnDUjieutdktFeloX88Qyy4rA5QETF_vuP6_-LvlMmsv_4Jcjr42gKoAths6RZWjo6DyRkWAjRAdsk--N85omYVOiNQqtLZqaxFvIAhptLgAcy7LxJus_foUj0lVlQAwwDcP5iDjmjC2b0AdsfTdZksQ0giq-NGckUs6iRmcNIsliTi3jD-GGVORggwJXmeLkWXfRo52tGZ9sZNiKcyvseNqYN_cirW7MTiLJAUcLOzc_puJFVpi-DiiDzhjstteHphbk3LSnOZSBxX2FR7yWY5ErKqYXhY5cIGevhBZAj9AJAjffe9bbV3n4JG5Eg4EhV3NmKV8QgdNvRT1jEhjMY7LB3cXb6m58wArkx1WHAWXkucwfwhfeptAcfkseTWGnsG1hfAfr6TKgBWVKYUEz6NoREzkUylRZqQwl6FHDBPz0_2wDwIZqGJt_kVWkhqC6fU_MGB-0S_YVAbDIgDwRiIzPicCeSZgEXaRN3z9xxhYxxRqHjT3u8RRB4qMxqWKZutVQiD6y8V?></g></svg>