<svg id="my-svg" width="100%" xmlns="http://www.w3.org/2000/svg" xmlns:xlink="http://www.w3.org/1999/xlink" class="flowchart" style="max-width: 863px; background-color: rgb(30, 30, 46);" viewBox="4 4 863 445.5" role="graphics-document document" aria-roledescription="flowchart-v2"><style>#my-svg{font-family:JetBrains Mono,Fira Code,DejaVu Sans Mono,monospace;font-size:16px;fill:#cdd6f4;}@keyframes edge-animation-frame{from{stroke-dashoffset:0;}}@keyframes dash{to{stroke-dashoffset:0;}}#my-svg .edge-animation-slow{stroke-dasharray:9,5!important;stroke-dashoffset:900;animation:dash 50s linear infinite;stroke-linecap:round;}#my-svg .edge-animation-fast{stroke-dasharray:9,5!important;stroke-dashoffset:900;animation:dash 20s linear infinite;stroke-linecap:round;}#my-svg .error-icon{fill:#313244;}#my-svg .error-text{fill:#cdd6f4;stroke:#cdd6f4;}#my-svg .edge-thickness-normal{stroke-width:1px;}#my-svg .edge-thickness-thick{stroke-width:3.5px;}#my-svg .edge-pattern-solid{stroke-dasharray:0;}#my-svg .edge-thickness-invisible{stroke-width:0;fill:none;}#my-svg .edge-pattern-dashed{stroke-dasharray:3;}#my-svg .edge-pattern-dotted{stroke-dasharray:2;}#my-svg .marker{fill:#a6adc8;stroke:#a6adc8;}#my-svg .marker.cross{stroke:#a6adc8;}#my-svg svg{font-family:JetBrains Mono,Fira Code,DejaVu Sans Mono,monospace;font-size:16px;}#my-svg p{margin:0;}#my-svg .label{font-family:JetBrains Mono,Fira Code,DejaVu Sans Mono,monospace;color:#cdd6f4;}#my-svg .cluster-label text{fill:#cdd6f4;}#my-svg .cluster-label span{color:#cdd6f4;}#my-svg .cluster-label span p{background-color:transparent;}#my-svg .label text,#my-svg span{fill:#cdd6f4;color:#cdd6f4;}#my-svg .node rect,#my-svg .node circle,#my-svg .node ellipse,#my-svg .node polygon,#my-svg .node path{fill:#313244;stroke:#a6adc8;stroke-width:1px;}#my-svg .rough-node .label text,#my-svg .node .label text,#my-svg .image-shape .label,#my-svg .icon-shape .label{text-anchor:middle;}#my-svg .node .katex path{fill:#000;stroke:#000;stroke-width:1px;}#my-svg .rough-node .label,#my-svg .node .label,#my-svg .image-shape .label,#my-svg .icon-shape .label{text-align:center;}#my-svg .node.clickable{cursor:pointer;}#my-svg .root .anchor path{fill:#a6adc8!important;stroke-width:0;stroke:#a6adc8;}#my-svg .arrowheadPath{fill:#e1e1d1;}#my-svg .edgePath .path{stroke:#a6adc8;stroke-width:1px;}#my-svg .flowchart-link{stroke:#a6adc8;fill:none;}#my-svg .edgeLabel{background-color:#1e1e2e;text-align:center;}#my-svg .edgeLabel p{background-color:#1e1e2e;}#my-svg .edgeLabel rect{opacity:0.5;background-color:#1e1e2e;fill:#1e1e2e;}#my-svg .labelBkg{background-color:rgba(30, 30, 46, 0.5);}#my-svg .cluster rect{fill:#313244;stroke:#6c7086;stroke-width:1px;}#my-svg .cluster text{fill:#cdd6f4;}#my-svg .cluster span{color:#cdd6f4;}#my-svg div.mermaidTooltip{position:absolute;text-align:center;max-width:200px;padding:2px;font-family:JetBrains Mono,Fira Code,DejaVu Sans Mono,monospace;font-size:12px;background:#313244;border:1px solid #6c7086;border-radius:2px;pointer-events:none;z-index:100;}#my-svg .flowchartTitleText{text-anchor:middle;font-size:18px;fill:#cdd6f4;}#my-svg rect.text{fill:none;stroke-width:0;}#my-svg .icon-shape,#my-svg .image-shape{background-color:#1e1e2e;text-align:center;}#my-svg .icon-shape p,#my-svg .image-shape p{background-color:#1e1e2e;padding:2px;}#my-svg .icon-shape .label rect,#my-svg .image-shape .label rect{opacity:0.5;background-color:#1e1e2e;fill:#1e1e2e;}#my-svg .label-icon{display:inline-block;height:1em;overflow:visible;vertical-align:-0.125em;}#my-svg .node .label-icon path{fill:currentColor;stroke:revert;stroke-width:revert;}#my-svg .node .neo-node{stroke:#a6adc8;}#my-svg [data-look="neo"].node rect,#my-svg [data-look="neo"].cluster rect,#my-svg [data-look="neo"].node polygon{stroke:url(#my-svg-gradient);filter:drop-shadow( 1px 2px 2px rgba(185,185,185,1));}#my-svg [data-look="neo"].node path{stroke:url(#my-svg-gradient);stroke-width:1px;}#my-svg [data-look="neo"].node .outer-path{filter:drop-shadow( 1px 2px 2px rgba(185,185,185,1));}#my-svg [data-look="neo"].node .neo-line path{stroke:#a6adc8;filter:none;}#my-svg [data-look="neo"].node circle{stroke:url(#my-svg-gradient);filter:drop-shadow( 1px 2px 2px rgba(185,185,185,1));}#my-svg [data-look="neo"].node circle .state-start{fill:#000000;}#my-svg [data-look="neo"].icon-shape .icon{fill:url(#my-svg-gradient);filter:drop-shadow( 1px 2px 2px rgba(185,185,185,1));}#my-svg [data-look="neo"].icon-shape .icon-neo path{stroke:url(#my-svg-gradient);filter:drop-shadow( 1px 2px 2px rgba(185,185,185,1));}#my-svg :root{--mermaid-font-family:JetBrains Mono,Fira Code,DejaVu Sans Mono,monospace;}#my-svg .root&gt;*{fill:#89b4fa!important;stroke:#89b4fa!important;color:#1e1e2e!important;font-weight:bold!important;}#my-svg .root span{fill:#89b4fa!important;stroke:#89b4fa!important;color:#1e1e2e!important;font-weight:bold!important;}#my-svg .root tspan{fill:#1e1e2e!important;}#my-svg .default__aspect_default__c&gt;*{fill:#a6e3a1!important;stroke:#a6e3a1!important;color:#1e1e2e!important;stroke-dasharray:3 3!important;stroke-width:1px!important;}#my-svg .default__aspect_default__c span{fill:#a6e3a1!important;stroke:#a6e3a1!important;color:#1e1e2e!important;stroke-dasharray:3 3!important;stroke-width:1px!important;}#my-svg .default__aspect_default__c tspan{fill:#1e1e2e!important;}#my-svg .den__provides__default__aspect_default__den__provides_c&gt;*{fill:#a6e3a1!important;stroke:#a6e3a1!important;color:#1e1e2e!important;stroke-dasharray:3 3!important;stroke-width:1px!important;}#my-svg .den__provides__default__aspect_default__den__provides_c span{fill:#a6e3a1!important;stroke:#a6e3a1!important;color:#1e1e2e!important;stroke-dasharray:3 3!important;stroke-width:1px!important;}#my-svg .den__provides__default__aspect_default__den__provides_c tspan{fill:#1e1e2e!important;}#my-svg .default__cross_provide_user__c&gt;*{fill:#f9e2af!important;stroke:#f9e2af!important;color:#1e1e2e!important;stroke-dasharray:3 3!important;stroke-width:1px!important;}#my-svg .default__cross_provide_user__c span{fill:#f9e2af!important;stroke:#f9e2af!important;color:#1e1e2e!important;stroke-dasharray:3 3!important;stroke-width:1px!important;}#my-svg .default__cross_provide_user__c tspan{fill:#1e1e2e!important;}#my-svg .default__self_provide_default__c&gt;*{fill:#fab387!important;stroke:#fab387!important;color:#1e1e2e!important;stroke-dasharray:3 3!important;stroke-width:1px!important;}#my-svg .default__self_provide_default__c span{fill:#fab387!important;stroke:#fab387!important;color:#1e1e2e!important;stroke-dasharray:3 3!important;stroke-width:1px!important;}#my-svg .default__self_provide_default__c tspan{fill:#1e1e2e!important;}#my-svg .user__aspect_user__c&gt;*{fill:#fab387!important;stroke:#fab387!important;color:#1e1e2e!important;stroke-dasharray:3 3!important;stroke-width:1px!important;}#my-svg .user__aspect_user__c span{fill:#fab387!important;stroke:#fab387!important;color:#1e1e2e!important;stroke-dasharray:3 3!important;stroke-width:1px!important;}#my-svg .user__aspect_user__c tspan{fill:#1e1e2e!important;}#my-svg .user__cross_provide__anon___c&gt;*{fill:#f38ba8!important;stroke:#f38ba8!important;color:#1e1e2e!important;stroke-dasharray:3 3!important;stroke-width:1px!important;}#my-svg .user__cross_provide__anon___c span{fill:#f38ba8!important;stroke:#f38ba8!important;color:#1e1e2e!important;stroke-dasharray:3 3!important;stroke-width:1px!important;}#my-svg .user__cross_provide__anon___c tspan{fill:#1e1e2e!important;}#my-svg .user__self_provide_user__c&gt;*{fill:#f2cdcd!important;stroke:#f2cdcd!important;color:#1e1e2e!important;stroke-dasharray:3 3!important;stroke-width:1px!important;}#my-svg .user__self_provide_user__c span{fill:#f2cdcd!important;stroke:#f2cdcd!important;color:#1e1e2e!important;stroke-dasharray:3 3!important;stroke-width:1px!important;}#my-svg .user__self_provide_user__c tspan{fill:#1e1e2e!important;}</style><g><marker id="my-svg_flowchart-v2-pointEnd" class="marker flowchart-v2" viewBox="0 0 10 10" refX="5" refY="5" markerUnits="userSpaceOnUse" markerWidth="8" markerHeight="8" orient="auto"><path d="M 0 0 L 10 5 L 0 10 z" class="arrowMarkerPath" style="stroke-width: 1; stroke-dasharray: 1, 0;"/></marker><marker id="my-svg_flowchart-v2-pointStart" class="marker flowchart-v2" viewBox="0 0 10 10" refX="4.5" refY="5" markerUnits="userSpaceOnUse" markerWidth="8" markerHeight="8" orient="auto"><path d="M 0 5 L 10 10 L 10 0 z" class="arrowMarkerPath" style="stroke-width: 1; stroke-dasharray: 1, 0;"/></marker><marker id="my-svg_flowchart-v2-pointEnd-margin" class="marker flowchart-v2" viewBox="0 0 11.5 14" refX="11.5" refY="7" markerUnits="userSpaceOnUse" markerWidth="10.5" markerHeight="14" orient="auto"><path d="M 0 0 L 11.5 7 L 0 14 z" class="arrowMarkerPath" style="stroke-width: 0; stroke-dasharray: 1, 0;"/></marker><marker id="my-svg_flowchart-v2-pointStart-margin" class="marker flowchart-v2" viewBox="0 0 11.5 14" refX="1" refY="7" markerUnits="userSpaceOnUse" markerWidth="11.5" markerHeight="14" orient="auto"><polygon points="0,7 11.5,14 11.5,0" class="arrowMarkerPath" style="stroke-width: 0; stroke-dasharray: 1, 0;"/></marker><marker id="my-svg_flowchart-v2-circleEnd" class="marker flowchart-v2" viewBox="0 0 10 10" refX="11" refY="5" markerUnits="userSpaceOnUse" markerWidth="11" markerHeight="11" orient="auto"><circle cx="5" cy="5" r="5" class="arrowMarkerPath" style="stroke-width: 1; stroke-dasharray: 1, 0;"/></marker><marker id="my-svg_flowchart-v2-circleStart" class="marker flowchart-v2" viewBox="0 0 10 10" refX="-1" refY="5" markerUnits="userSpaceOnUse" markerWidth="11" markerHeight="11" orient="auto"><circle cx="5" cy="5" r="5" class="arrowMarkerPath" style="stroke-width: 1; stroke-dasharray: 1, 0;"/></marker><marker id="my-svg_flowchart-v2-circleEnd-margin" class="marker flowchart-v2" viewBox="0 0 10 10" refY="5" refX="12.25" markerUnits="userSpaceOnUse" markerWidth="14" markerHeight="14" orient="auto"><circle cx="5" cy="5" r="5" class="arrowMarkerPath" style="stroke-width: 0; stroke-dasharray: 1, 0;"/></marker><marker id="my-svg_flowchart-v2-circleStart-margin" class="marker flowchart-v2" viewBox="0 0 10 10" refX="-2" refY="5" markerUnits="userSpaceOnUse" markerWidth="14" markerHeight="14" orient="auto"><circle cx="5" cy="5" r="5" class="arrowMarkerPath" style="stroke-width: 0; stroke-dasharray: 1, 0;"/></marker><marker id="my-svg_flowchart-v2-crossEnd" class="marker cross flowchart-v2" viewBox="0 0 11 11" refX="12" refY="5.2" markerUnits="userSpaceOnUse" markerWidth="11" markerHeight="11" orient="auto"><path d="M 1,1 l 9,9 M 10,1 l -9,9" class="arrowMarkerPath" style="stroke-width: 2; stroke-dasharray: 1, 0;"/></marker><marker id="my-svg_flowchart-v2-crossStart" class="marker cross flowchart-v2" viewBox="0 0 11 11" refX="-1" refY="5.2" markerUnits="userSpaceOnUse" markerWidth="11" markerHeight="11" orient="auto"><path d="M 1,1 l 9,9 M 10,1 l -9,9" class="arrowMarkerPath" style="stroke-width: 2; stroke-dasharray: 1, 0;"/></marker><marker id="my-svg_flowchart-v2-crossEnd-margin" class="marker cross flowchart-v2" viewBox="0 0 15 15" refX="17.7" refY="7.5" markerUnits="userSpaceOnUse" markerWidth="12" markerHeight="12" orient="auto"><path d="M 1,1 L 14,14 M 1,14 L 14,1" class="arrowMarkerPath" style="stroke-width: 2.5;"/></marker><marker id="my-svg_flowchart-v2-crossStart-margin" class="marker cross flowchart-v2" viewBox="0 0 15 15" refX="-3.5" refY="7.5" markerUnits="userSpaceOnUse" markerWidth="12" markerHeight="12" orient="auto"><path d="M 1,1 L 14,14 M 1,14 L 14,1" class="arrowMarkerPath" style="stroke-width: 2.5; stroke-dasharray: 1, 0;"/></marker></g><defs><filter id="my-svg-drop-shadow" height="130%" width="130%"><feDropShadow dx="4" dy="4" stdDeviation="0" flood-opacity="0.06" flood-color="#000000"/></filter></defs><defs><filter id="my-svg-drop-shadow-small" height="150%" width="150%"><feDropShadow dx="2" dy="2" stdDeviation="0" flood-opacity="0.06" flood-color="#000000"/></filter></defs><linearGradient id="my-svg-gradient" gradientUnits="objectBoundingBox" x1="0%" y1="0%" x2="100%" y2="0%"><stop offset="0%" stop-color="#a6adc8" stop-opacity="1"/><stop offset="100%" stop-color="#6c7086" stop-opacity="1"/></linearGradient><g class="subgraphs"><g class="subgraph"><g class="cluster " id="[object Object]" data-look="classic"><rect style="fill:#313244 !important;stroke:#6c7086 !important;stroke-width:2px !important" x="331" y="12" width="528" height="414"/><g class="cluster-label " transform="translate(485, 12)"><foreignObject width="220" height="24"><div xmlns="http://www.w3.org/1999/xhtml" style="display: table-cell; white-space: nowrap; line-height: 1.5;"><span class="nodeLabel "><p>default { host, user }</p></span></div></foreignObject></g></g></g><g class="subgraph"><g class="cluster " id="[object Object]" data-look="classic"><rect style="fill:#313244 !important;stroke:#6c7086 !important;stroke-width:2px !important" x="12" y="70.5" width="284" height="297"/><g class="cluster-label " transform="translate(59, 70.5)"><foreignObject width="190" height="24"><div xmlns="http://www.w3.org/1999/xhtml" style="display: table-cell; white-space: nowrap; line-height: 1.5;"><span class="nodeLabel "><p>user { host, user }</p></span></div></foreignObject></g></g></g></g><g class="nodes"><g class="node default default__aspect_default__c " id="my-svg-flowchart-default__aspect_default_-4" data-look="classic" transform="translate(595, 210)"><rect class="basic label-container" style="fill:#a6e3a1 !important;stroke:#a6e3a1 !important;stroke-dasharray:3 3 !important;stroke-width:1px !important" x="-145" y="-27" width="290" height="54"/><g class="label" style="color:#1e1e2e !important" transform="translate(-115, -12)"><rect/><foreignObject width="230" height="24"><div style="color: rgb(30, 30, 46) !important; display: table; white-space: break-spaces; line-height: 1.5; max-width: 200px; text-align: center; width: 200px;" xmlns="http://www.w3.org/1999/xhtml"><span style="color:#1e1e2e !important" class="nodeLabel "><p>default/aspect(default)</p></span></div></foreignObject></g></g><g class="node default den__provides__default__aspect_default__den__provides_c " id="my-svg-flowchart-den__provides__default__aspect_default__den__provides-5" data-look="classic" transform="translate(595, 286.5)"><polygon points="-19.5,0 484.5,0 465,-39 0,-39" class="label-container" transform="translate(-232.5,19.5)" style="fill:#a6e3a1 !important;stroke:#a6e3a1 !important;stroke-dasharray:3 3 !important;stroke-width:1px !important"/><g class="label" style="color:#1e1e2e !important" transform="translate(-225, -12)"><rect/><foreignObject width="450" height="24"><div style="color: rgb(30, 30, 46) !important; display: table; white-space: break-spaces; line-height: 1.5; max-width: 200px; text-align: center; width: 200px;" xmlns="http://www.w3.org/1999/xhtml"><span style="color:#1e1e2e !important" class="nodeLabel "><p>provides/default/aspect(default):den/provides</p></span></div></foreignObject></g></g><g class="node default default__cross_provide_user__c " id="my-svg-flowchart-default__cross_provide_user_-6" data-look="classic" transform="translate(595, 114)"><rect class="basic label-container" style="fill:#f9e2af !important;stroke:#f9e2af !important;stroke-dasharray:3 3 !important;stroke-width:1px !important" x="-130" y="-39" width="260" height="78"/><g class="label" style="color:#1e1e2e !important" transform="translate(-100, -24)"><rect/><foreignObject width="200" height="48"><div style="color: rgb(30, 30, 46) !important; display: table; white-space: break-spaces; line-height: 1.5; max-width: 200px; text-align: center; width: 200px;" xmlns="http://www.w3.org/1999/xhtml"><span style="color:#1e1e2e !important" class="nodeLabel "><p>default/cross-provide(user)</p></span></div></foreignObject></g></g><g class="node default default__self_provide_default__c " id="my-svg-flowchart-default__self_provide_default_-7" data-look="classic" transform="translate(595, 375)"><rect class="basic label-container" style="fill:#fab387 !important;stroke:#fab387 !important;stroke-dasharray:3 3 !important;stroke-width:1px !important" x="-130" y="-39" width="260" height="78"/><g class="label" style="color:#1e1e2e !important" transform="translate(-100, -24)"><rect/><foreignObject width="200" height="48"><div style="color: rgb(30, 30, 46) !important; display: table; white-space: break-spaces; line-height: 1.5; max-width: 200px; text-align: center; width: 200px;" xmlns="http://www.w3.org/1999/xhtml"><span style="color:#1e1e2e !important" class="nodeLabel "><p>default/self-provide(default)</p></span></div></foreignObject></g></g><g class="node default user__aspect_user__c " id="my-svg-flowchart-user__aspect_user_-1" data-look="classic" transform="translate(154, 244.5)"><rect class="basic label-container" style="fill:#fab387 !important;stroke:#fab387 !important;stroke-dasharray:3 3 !important;stroke-width:1px !important" x="-115" y="-27" width="230" height="54"/><g class="label" style="color:#1e1e2e !important" transform="translate(-85, -12)"><rect/><foreignObject width="170" height="24"><div style="color: rgb(30, 30, 46) !important; display: table-cell; white-space: nowrap; line-height: 1.5; max-width: 200px; text-align: center;" xmlns="http://www.w3.org/1999/xhtml"><span style="color:#1e1e2e !important" class="nodeLabel "><p>user/aspect(user)</p></span></div></foreignObject></g></g><g class="node default user__cross_provide__anon___c " id="my-svg-flowchart-user__cross_provide__anon__-2" data-look="classic" transform="translate(154, 328.5)"><rect class="basic label-container" style="fill:#f38ba8 !important;stroke:#f38ba8 !important;stroke-dasharray:3 3 !important;stroke-width:1px !important" x="-130" y="-27" width="260" height="54"/><g class="label" style="color:#1e1e2e !important" transform="translate(-100, -12)"><rect/><foreignObject width="200" height="24"><div style="color: rgb(30, 30, 46) !important; display: table; white-space: break-spaces; line-height: 1.5; max-width: 200px; text-align: center; width: 200px;" xmlns="http://www.w3.org/1999/xhtml"><span style="color:#1e1e2e !important" class="nodeLabel "><p>user/cross-provide()</p></span></div></foreignObject></g></g><g class="node default user__self_provide_user__c " id="my-svg-flowchart-user__self_provide_user_-3" data-look="classic" transform="translate(154, 148.5)"><rect class="basic label-container" style="fill:#f2cdcd !important;stroke:#f2cdcd !important;stroke-dasharray:3 3 !important;stroke-width:1px !important" x="-130" y="-39" width="260" height="78"/><g class="label" style="color:#1e1e2e !important" transform="translate(-100, -24)"><rect/><foreignObject width="200" height="48"><div style="color: rgb(30, 30, 46) !important; display: table; white-space: break-spaces; line-height: 1.5; max-width: 200px; text-align: center; width: 200px;" xmlns="http://www.w3.org/1999/xhtml"><span style="color:#1e1e2e !important" class="nodeLabel "><p>user/self-provide(user)</p></span></div></foreignObject></g></g><g class="node default root " id="my-svg-flowchart-bob-0" data-look="classic" transform="translate(154, 422)"><g class="basic label-container outer-path"><path d="M-7.875 -19.5 C-3.4328865892902547 -19.5, 1.0092268214194906 -19.5, 7.875 -19.5 C7.875 -19.5, 7.874999999999999 -19.5, 7.874999999999999 -19.5 C8.285957209005511 -19.486821402186877, 8.696914418011024 -19.47364280437375, 9.1243692896239 -19.45993515863156 C9.488450058742128 -19.424812724705912, 9.852530827860354 -19.389690290780262, 10.368604652847864 -19.3399052695533 C10.823294199912432 -19.266394589754, 11.277983746977 -19.192883909954706, 11.602593259676757 -19.140403561325776 C11.873521146964896 -19.078566039021947, 12.144449034253032 -19.01672851671812, 12.82126438623539 -18.862249829261074 C13.213438691440498 -18.745854554041134, 13.605612996645606 -18.629459278821194, 14.019610251460602 -18.50658706670804 C14.282559820658863 -18.40981919456391, 14.545509389857123 -18.313051322419774, 15.192706595147794 -18.074876768247425 C15.455978622067994 -17.95833405161705, 15.719250648988195 -17.84179133498668, 16.33573291279238 -17.568892924097174 C16.605598782698056 -17.428104072624723, 16.875464652603736 -17.28731522115227, 17.443992264076783 -16.990714730406097 C17.833851710544835 -16.75437964288875, 18.223711157012886 -16.518044555371404, 18.512930573605697 -16.342718045390892 C18.838831326363586 -16.115383788283197, 19.164732079121475 -15.888049531175499, 19.538155344578712 -15.627565626425154 C19.88715712825838 -15.349245991268127, 20.236158911938045 -15.070926356111098, 20.51545370850187 -14.848196188198123 C20.776960150081347 -14.610702957036931, 21.038466591660825 -14.373209725875741, 21.440809736767985 -14.007812326905688 C21.753728073002144 -13.684698453670727, 22.0666464092363 -13.361584580435766, 22.310420942968648 -13.10986736009568 C22.591832214805635 -12.77930566744097, 22.873243486642618 -12.448743974786261, 23.120713908126582 -12.158051136245305 C23.326180312695968 -11.88274487249686, 23.53164671726535 -11.607438608748412, 23.868358964640635 -11.156274872382312 C24.11742009736916 -10.773650090232762, 24.366481230097683 -10.39102530808321, 24.550283878604247 -10.108655082055241 C24.75716144997912 -9.741323005453465, 24.96403902135399 -9.373990928851688, 25.1636864742735 -9.019496659696287 C25.36498769443438 -8.601490368876103, 25.56628891459526 -8.183484078055917, 25.70604614880834 -7.893275190886684 C25.873499223390105 -7.479662859184778, 26.040952297971867 -7.06605052748287, 26.175134229970325 -6.734618561215508 C26.260043080008757 -6.478886633287811, 26.34495193004719 -6.2231547053601135, 26.56902313421488 -5.548287939305138 C26.672426480530415 -5.153966164510227, 26.77582982684595 -4.759644389715317, 26.88609428754556 -4.339158212148133 C26.93996640991255 -4.062536249670745, 26.993838532279536 -3.785914287193357, 27.125044776581777 -3.1121979531509023 C27.184649688634924 -2.6499140255879055, 27.24425460068807 -2.187630098024909, 27.284892702509367 -1.872449005199798 C27.312460305864402 -1.4430613307762024, 27.340027909219437 -1.0136736563526068, 27.364981215913414 -0.6250057626472757 C27.364981215913414 -0.14395594127973022, 27.364981215913414 0.33709388008781527, 27.364981215913414 0.625005762647271 C27.33603171288639 1.0759176399114372, 27.307082209859367 1.5268295171756034, 27.284892702509367 1.8724490051997846 C27.2421172287284 2.2042071328722512, 27.199341754947433 2.5359652605447174, 27.125044776581777 3.1121979531508885 C27.03003373366598 3.6000595779324804, 26.935022690750184 4.087921202714073, 26.88609428754556 4.339158212148129 C26.795428401468516 4.684906530603493, 26.704762515391472 5.030654849058859, 26.569023134214884 5.548287939305125 C26.441013550060372 5.933832411221053, 26.31300396590586 6.319376883136982, 26.17513422997033 6.734618561215495 C25.98847162646588 7.195678800747414, 25.801809022961432 7.6567390402793345, 25.706046148808344 7.893275190886679 C25.51685432339426 8.286136064415603, 25.327662497980178 8.678996937944525, 25.163686474273504 9.019496659696284 C25.02158004409705 9.271821016311012, 24.879473613920595 9.52414537292574, 24.55028387860425 10.108655082055236 C24.33015613143238 10.446830414287886, 24.11002838426051 10.785005746520538, 23.86835896464064 11.156274872382301 C23.607403276677775 11.5059317207003, 23.34644758871491 11.8555885690183, 23.120713908126582 12.158051136245302 C22.803762722028107 12.530360034469968, 22.486811535929633 12.902668932694636, 22.31042094296866 13.10986736009567 C22.00252102872503 13.427799300605301, 21.694621114481407 13.74573124111493, 21.44080973676799 14.007812326905684 C21.159769712878624 14.263045440690448, 20.87872968898926 14.518278554475213, 20.515453708501887 14.848196188198111 C20.232851641539476 15.073563816243798, 19.95024957457706 15.298931444289487, 19.538155344578715 15.627565626425152 C19.177929454859 15.87884361316619, 18.817703565139286 16.130121599907227, 18.512930573605708 16.34271804539089 C18.28495924869419 16.480915602260463, 18.05698792378267 16.619113159130034, 17.443992264076787 16.990714730406093 C17.094591444016654 17.172996914429557, 16.745190623956525 17.35527909845302, 16.335732912792388 17.56889292409717 C15.998097969407873 17.718353897948752, 15.660463026023358 17.867814871800338, 15.192706595147804 18.07487676824742 C14.90167090956117 18.181980590847687, 14.610635223974539 18.289084413447956, 14.019610251460616 18.506587066708033 C13.587287135267196 18.634898298283897, 13.154964019073777 18.76320952985976, 12.821264386235413 18.86224982926107 C12.353985779221514 18.968903122034114, 11.886707172207615 19.075556414807153, 11.602593259676766 19.140403561325773 C11.314081851916919 19.187047848293002, 11.025570444157074 19.23369213526023, 10.368604652847878 19.3399052695533 C10.032568518711082 19.372322271270896, 9.696532384574285 19.404739272988493, 9.1243692896239 19.45993515863156 C8.764780976012625 19.47146645595288, 8.405192662401351 19.4829977532742, 7.8750000000000036 19.5 C7.875000000000003 19.5, 7.875000000000002 19.5, 7.875 19.5 C1.5837624158136734 19.5, -4.707475168372653 19.5, -7.8749999999999964 19.5 C-8.194887874190949 19.489741818498672, -8.5147757483819 19.479483636997344, -9.124369289623893 19.45993515863156 C-9.45603567510431 19.427939701311452, -9.787702060584726 19.395944243991345, -10.368604652847871 19.3399052695533 C-10.685940324752785 19.288600899094604, -11.003275996657699 19.237296528635905, -11.602593259676759 19.140403561325773 C-12.049329083227157 19.038439024824086, -12.496064906777555 18.936474488322396, -12.821264386235388 18.862249829261074 C-13.067234648955345 18.789247146410048, -13.313204911675305 18.716244463559022, -14.019610251460593 18.506587066708043 C-14.376181491089923 18.375365554416042, -14.732752730719254 18.24414404212404, -15.192706595147797 18.074876768247425 C-15.645376018226703 17.874493442611733, -16.098045441305608 17.67411011697604, -16.33573291279238 17.568892924097174 C-16.61271567395582 17.424391195014135, -16.889698435119254 17.279889465931095, -17.44399226407678 16.990714730406097 C-17.698890003001583 16.836194223124497, -17.953787741926387 16.681673715842898, -18.512930573605686 16.3427180453909 C-18.823074592263204 16.126375003893596, -19.13321861092072 15.910031962396292, -19.538155344578712 15.627565626425156 C-19.80704435800476 15.41313379365504, -20.075933371430803 15.198701960884925, -20.51545370850187 14.848196188198125 C-20.705196462298687 14.675876839518017, -20.8949392160955 14.503557490837908, -21.440809736767974 14.007812326905697 C-21.67946663074009 13.761379489784094, -21.918123524712204 13.51494665266249, -22.310420942968655 13.109867360095677 C-22.624375100988274 12.741078941588164, -22.93832925900789 12.372290523080649, -23.12071390812658 12.158051136245307 C-23.354063854647553 11.84538346652466, -23.587413801168527 11.532715796804014, -23.868358964640635 11.156274872382316 C-24.08540057294582 10.822840678193216, -24.302442181251003 10.489406484004116, -24.550283878604244 10.108655082055249 C-24.741800704409428 9.768597564656606, -24.933317530214616 9.428540047257961, -25.1636864742735 9.019496659696289 C-25.283011253740973 8.771716201990804, -25.40233603320845 8.523935744285318, -25.70604614880834 7.893275190886686 C-25.80288967567384 7.654069807186691, -25.899733202539334 7.414864423486695, -26.175134229970325 6.73461856121551 C-26.32373502928926 6.287056629988941, -26.472335828608195 5.839494698762371, -26.56902313421488 5.5482879393051325 C-26.659826319048555 5.202016041185079, -26.75062950388223 4.855744143065025, -26.886094287545557 4.339158212148136 C-26.94268755483207 4.04856374562318, -26.999280822118582 3.757969279098223, -27.125044776581777 3.112197953150904 C-27.16097478095476 2.8335319344159227, -27.196904785327746 2.5548659156809412, -27.284892702509364 1.872449005199809 C-27.31587166590292 1.3899266445759952, -27.346850629296476 0.9074042839521816, -27.364981215913414 0.6250057626472781 C-27.364981215913414 0.13595561643652038, -27.364981215913414 -0.3530945297742374, -27.364981215913414 -0.6250057626472687 C-27.344556425850392 -0.9431383544726202, -27.324131635787374 -1.2612709462979717, -27.284892702509367 -1.8724490051997822 C-27.23980702252304 -2.22212463599921, -27.194721342536713 -2.5718002667986384, -27.125044776581777 -3.112197953150895 C-27.040500334774723 -3.546315793356006, -26.955955892967673 -3.9804336335611166, -26.88609428754556 -4.339158212148126 C-26.78493616211913 -4.724917986607997, -26.6837780366927 -5.110677761067867, -26.569023134214884 -5.548287939305123 C-26.48911052390646 -5.788971989208725, -26.40919791359804 -6.029656039112327, -26.175134229970332 -6.734618561215485 C-26.047582630694187 -7.0496734774699705, -25.920031031418045 -7.364728393724457, -25.706046148808344 -7.893275190886676 C-25.49178080985084 -8.338201751775753, -25.27751547089334 -8.78312831266483, -25.163686474273504 -9.019496659696282 C-24.95784677611035 -9.384985887314592, -24.7520070779472 -9.7504751149329, -24.550283878604247 -10.108655082055243 C-24.28613890856552 -10.514452688890723, -24.02199393852679 -10.9202502957262, -23.86835896464064 -11.156274872382308 C-23.578283468772213 -11.544949610424688, -23.28820797290378 -11.933624348467069, -23.120713908126586 -12.158051136245302 C-22.93664677297414 -12.374266866912064, -22.75257963782169 -12.590482597578827, -22.310420942968662 -13.10986736009567 C-21.99590342484546 -13.434632519926344, -21.68138590672226 -13.759397679757019, -21.440809736767996 -14.007812326905677 C-21.224712073029625 -14.204066507481999, -21.008614409291255 -14.40032068805832, -20.515453708501887 -14.848196188198107 C-20.14447052576759 -15.144045404151608, -19.773487343033292 -15.439894620105111, -19.53815534457872 -15.627565626425149 C-19.149055324297294 -15.89898495670507, -18.759955304015868 -16.17040428698499, -18.51293057360571 -16.342718045390885 C-18.16501813202502 -16.55362461203755, -17.81710569044433 -16.764531178684216, -17.44399226407679 -16.99071473040609 C-17.15550203318334 -17.141219899076393, -16.867011802289888 -17.291725067746693, -16.335732912792388 -17.56889292409717 C-16.031559273547455 -17.703541571200482, -15.72738563430252 -17.838190218303794, -15.192706595147806 -18.07487676824742 C-14.749349995328881 -18.238036095324265, -14.305993395509958 -18.401195422401113, -14.019610251460618 -18.506587066708033 C-13.669088439930084 -18.61062010044376, -13.318566628399552 -18.71465313417949, -12.821264386235413 -18.862249829261067 C-12.569483023074946 -18.9197172823755, -12.31770165991448 -18.977184735489935, -11.602593259676768 -19.140403561325773 C-11.179969874946911 -19.208730032675597, -10.757346490217055 -19.277056504025424, -10.36860465284788 -19.3399052695533 C-10.097235975476163 -19.366083879490763, -9.825867298104448 -19.39226248942823, -9.124369289623903 -19.45993515863156 C-8.871442997834547 -19.468046012518084, -8.618516706045193 -19.476156866404605, -7.875000000000006 -19.5 C-7.8750000000000036 -19.5, -7.875000000000001 -19.5, -7.875 -19.5" stroke="none" stroke-width="0" fill="#89b4fa" style="fill:#89b4fa !important;stroke:#89b4fa !important"/><path d="M-7.875 -19.5 C-3.576114479353855 -19.5, 0.7227710412922903 -19.5, 7.875 -19.5 M-7.875 -19.5 C-4.065060306934848 -19.5, -0.2551206138696962 -19.5, 7.875 -19.5 M7.875 -19.5 C7.875 -19.5, 7.874999999999999 -19.5, 7.874999999999999 -19.5 M7.875 -19.5 C7.875 -19.5, 7.874999999999999 -19.5, 7.874999999999999 -19.5 M7.874999999999999 -19.5 C8.35848556908721 -19.484495558846945, 8.84197113817442 -19.46899111769389, 9.1243692896239 -19.45993515863156 M7.874999999999999 -19.5 C8.241011249354568 -19.48826273163088, 8.607022498709137 -19.476525463261755, 9.1243692896239 -19.45993515863156 M9.1243692896239 -19.45993515863156 C9.570849797456694 -19.4168637210123, 10.017330305289489 -19.373792283393044, 10.368604652847864 -19.3399052695533 M9.1243692896239 -19.45993515863156 C9.576968234094496 -19.41627348278835, 10.029567178565092 -19.372611806945137, 10.368604652847864 -19.3399052695533 M10.368604652847864 -19.3399052695533 C10.641356914518148 -19.29580879911183, 10.914109176188433 -19.251712328670358, 11.602593259676757 -19.140403561325776 M10.368604652847864 -19.3399052695533 C10.819398767220974 -19.267024373102025, 11.270192881594086 -19.19414347665075, 11.602593259676757 -19.140403561325776 M11.602593259676757 -19.140403561325776 C11.966409182829844 -19.057364950986855, 12.330225105982931 -18.974326340647934, 12.82126438623539 -18.862249829261074 M11.602593259676757 -19.140403561325776 C11.983361202617688 -19.053495763092545, 12.364129145558621 -18.96658796485932, 12.82126438623539 -18.862249829261074 M12.82126438623539 -18.862249829261074 C13.258414118979546 -18.73250608322838, 13.695563851723703 -18.60276233719569, 14.019610251460602 -18.50658706670804 M12.82126438623539 -18.862249829261074 C13.271806973889795 -18.72853115419155, 13.7223495615442 -18.594812479122027, 14.019610251460602 -18.50658706670804 M14.019610251460602 -18.50658706670804 C14.339414249470302 -18.38889623920472, 14.65921824748 -18.2712054117014, 15.192706595147794 -18.074876768247425 M14.019610251460602 -18.50658706670804 C14.431403240186645 -18.355043440284195, 14.843196228912689 -18.20349981386035, 15.192706595147794 -18.074876768247425 M15.192706595147794 -18.074876768247425 C15.541952258796483 -17.92027607295467, 15.891197922445171 -17.765675377661918, 16.33573291279238 -17.568892924097174 M15.192706595147794 -18.074876768247425 C15.465810593565628 -17.95398172949012, 15.738914591983464 -17.833086690732816, 16.33573291279238 -17.568892924097174 M16.33573291279238 -17.568892924097174 C16.743287727161363 -17.356271838492194, 17.15084254153034 -17.143650752887215, 17.443992264076783 -16.990714730406097 M16.33573291279238 -17.568892924097174 C16.75496047588033 -17.35018217296226, 17.17418803896828 -17.13147142182735, 17.443992264076783 -16.990714730406097 M17.443992264076783 -16.990714730406097 C17.72217470309085 -16.822078901094297, 18.000357142104917 -16.6534430717825, 18.512930573605697 -16.342718045390892 M17.443992264076783 -16.990714730406097 C17.66961209573955 -16.853942662562826, 17.895231927402314 -16.717170594719555, 18.512930573605697 -16.342718045390892 M18.512930573605697 -16.342718045390892 C18.872489311855645 -16.091905434634644, 19.232048050105593 -15.841092823878395, 19.538155344578712 -15.627565626425154 M18.512930573605697 -16.342718045390892 C18.85181036601456 -16.106330172076245, 19.190690158423426 -15.8699422987616, 19.538155344578712 -15.627565626425154 M19.538155344578712 -15.627565626425154 C19.898201245037818 -15.340438602032812, 20.258247145496927 -15.053311577640471, 20.51545370850187 -14.848196188198123 M19.538155344578712 -15.627565626425154 C19.790002689963742 -15.426724070419915, 20.041850035348777 -15.225882514414677, 20.51545370850187 -14.848196188198123 M20.51545370850187 -14.848196188198123 C20.72227785054426 -14.660363974662152, 20.92910199258665 -14.47253176112618, 21.440809736767985 -14.007812326905688 M20.51545370850187 -14.848196188198123 C20.784651856845144 -14.60371755246546, 21.05385000518842 -14.359238916732796, 21.440809736767985 -14.007812326905688 M21.440809736767985 -14.007812326905688 C21.65952406545265 -13.781971825758436, 21.878238394137313 -13.556131324611185, 22.310420942968648 -13.10986736009568 M21.440809736767985 -14.007812326905688 C21.717417386898518 -13.72219221823549, 21.99402503702905 -13.43657210956529, 22.310420942968648 -13.10986736009568 M22.310420942968648 -13.10986736009568 C22.58757553183288 -12.78430580947289, 22.86473012069711 -12.458744258850102, 23.120713908126582 -12.158051136245305 M22.310420942968648 -13.10986736009568 C22.563865212307785 -12.812157299942466, 22.817309481646923 -12.51444723978925, 23.120713908126582 -12.158051136245305 M23.120713908126582 -12.158051136245305 C23.395796973439282 -11.78946488930908, 23.67088003875198 -11.420878642372855, 23.868358964640635 -11.156274872382312 M23.120713908126582 -12.158051136245305 C23.38467740385354 -11.804364099540347, 23.648640899580496 -11.450677062835389, 23.868358964640635 -11.156274872382312 M23.868358964640635 -11.156274872382312 C24.051802121277337 -10.874456922403535, 24.23524527791404 -10.59263897242476, 24.550283878604247 -10.108655082055241 M23.868358964640635 -11.156274872382312 C24.020358928668813 -10.922762109929673, 24.17235889269699 -10.689249347477034, 24.550283878604247 -10.108655082055241 M24.550283878604247 -10.108655082055241 C24.779489975981594 -9.701676446527635, 25.00869607335894 -9.294697811000031, 25.1636864742735 -9.019496659696287 M24.550283878604247 -10.108655082055241 C24.787717429901264 -9.687067768973213, 25.02515098119828 -9.265480455891183, 25.1636864742735 -9.019496659696287 M25.1636864742735 -9.019496659696287 C25.336215642988623 -8.6612361493265, 25.508744811703743 -8.302975638956713, 25.70604614880834 -7.893275190886684 M25.1636864742735 -9.019496659696287 C25.317552176169993 -8.699991237509597, 25.47141787806649 -8.380485815322906, 25.70604614880834 -7.893275190886684 M25.70604614880834 -7.893275190886684 C25.846746834910814 -7.545741775950868, 25.987447521013287 -7.198208361015051, 26.175134229970325 -6.734618561215508 M25.70604614880834 -7.893275190886684 C25.878659213484013 -7.466917583891198, 26.051272278159686 -7.040559976895713, 26.175134229970325 -6.734618561215508 M26.175134229970325 -6.734618561215508 C26.268195021195645 -6.454334285268355, 26.36125581242096 -6.174050009321202, 26.56902313421488 -5.548287939305138 M26.175134229970325 -6.734618561215508 C26.299690227922923 -6.359475740685515, 26.424246225875518 -5.984332920155523, 26.56902313421488 -5.548287939305138 M26.56902313421488 -5.548287939305138 C26.686121678885605 -5.1017404376453666, 26.803220223556334 -4.655192935985595, 26.88609428754556 -4.339158212148133 M26.56902313421488 -5.548287939305138 C26.68990525513657 -5.087312021588125, 26.810787376058258 -4.626336103871112, 26.88609428754556 -4.339158212148133 M26.88609428754556 -4.339158212148133 C26.93955568203711 -4.064645250503762, 26.993017076528655 -3.790132288859391, 27.125044776581777 -3.1121979531509023 M26.88609428754556 -4.339158212148133 C26.960436028575344 -3.957429084092721, 27.034777769605128 -3.5756999560373095, 27.125044776581777 -3.1121979531509023 M27.125044776581777 -3.1121979531509023 C27.186573287089857 -2.634994975828906, 27.24810179759794 -2.1577919985069096, 27.284892702509367 -1.872449005199798 M27.125044776581777 -3.1121979531509023 C27.16787823579298 -2.779990101932051, 27.210711695004182 -2.447782250713199, 27.284892702509367 -1.872449005199798 M27.284892702509367 -1.872449005199798 C27.30756366706703 -1.5193304325410026, 27.330234631624688 -1.1662118598822073, 27.364981215913414 -0.6250057626472757 M27.284892702509367 -1.872449005199798 C27.314688208948475 -1.4083599419107555, 27.344483715387582 -0.9442708786217133, 27.364981215913414 -0.6250057626472757 M27.364981215913414 -0.6250057626472757 C27.364981215913414 -0.3564806621087038, 27.364981215913414 -0.08795556157013196, 27.364981215913414 0.625005762647271 M27.364981215913414 -0.6250057626472757 C27.364981215913414 -0.3182702835797884, 27.364981215913414 -0.011534804512301156, 27.364981215913414 0.625005762647271 M27.364981215913414 0.625005762647271 C27.336430848171947 1.0697007856626684, 27.30788048043048 1.5143958086780656, 27.284892702509367 1.8724490051997846 M27.364981215913414 0.625005762647271 C27.340308081766782 1.009309742776507, 27.315634947620147 1.3936137229057426, 27.284892702509367 1.8724490051997846 M27.284892702509367 1.8724490051997846 C27.250046464231303 2.1427095481163967, 27.215200225953236 2.4129700910330083, 27.125044776581777 3.1121979531508885 M27.284892702509367 1.8724490051997846 C27.24235809750222 2.2023390022274185, 27.199823492495074 2.5322289992550524, 27.125044776581777 3.1121979531508885 M27.125044776581777 3.1121979531508885 C27.04527772348132 3.5217849120490943, 26.965510670380866 3.9313718709472996, 26.88609428754556 4.339158212148129 M27.125044776581777 3.1121979531508885 C27.076780192928428 3.3600263894874742, 27.02851560927508 3.6078548258240604, 26.88609428754556 4.339158212148129 M26.88609428754556 4.339158212148129 C26.793150887143646 4.6935916798051736, 26.700207486741732 5.048025147462219, 26.569023134214884 5.548287939305125 M26.88609428754556 4.339158212148129 C26.81540404729213 4.608730735578381, 26.744713807038703 4.878303259008634, 26.569023134214884 5.548287939305125 M26.569023134214884 5.548287939305125 C26.443293227914047 5.926966384743126, 26.317563321613207 6.305644830181127, 26.17513422997033 6.734618561215495 M26.569023134214884 5.548287939305125 C26.458286564922982 5.881808842536048, 26.34754999563108 6.215329745766971, 26.17513422997033 6.734618561215495 M26.17513422997033 6.734618561215495 C26.01340643274106 7.134089347166035, 25.851678635511792 7.533560133116575, 25.706046148808344 7.893275190886679 M26.17513422997033 6.734618561215495 C26.046345369539978 7.05272953644169, 25.917556509109627 7.370840511667886, 25.706046148808344 7.893275190886679 M25.706046148808344 7.893275190886679 C25.516380181806195 8.287120629568223, 25.32671421480405 8.680966068249766, 25.163686474273504 9.019496659696284 M25.706046148808344 7.893275190886679 C25.56915264059781 8.1775374897377, 25.43225913238728 8.46179978858872, 25.163686474273504 9.019496659696284 M25.163686474273504 9.019496659696284 C24.973138721042105 9.357833490610934, 24.7825909678107 9.696170321525585, 24.55028387860425 10.108655082055236 M25.163686474273504 9.019496659696284 C24.924745456526043 9.443760632108605, 24.685804438778582 9.868024604520926, 24.55028387860425 10.108655082055236 M24.55028387860425 10.108655082055236 C24.332299565468503 10.44353752401577, 24.114315252332755 10.778419965976306, 23.86835896464064 11.156274872382301 M24.55028387860425 10.108655082055236 C24.38385554753046 10.364333690848978, 24.21742721645667 10.62001229964272, 23.86835896464064 11.156274872382301 M23.86835896464064 11.156274872382301 C23.626984413360603 11.47969478142356, 23.385609862080567 11.80311469046482, 23.120713908126582 12.158051136245302 M23.86835896464064 11.156274872382301 C23.67453863532835 11.415976456265524, 23.480718306016062 11.675678040148746, 23.120713908126582 12.158051136245302 M23.120713908126582 12.158051136245302 C22.8569055377981 12.467935459154658, 22.59309716746961 12.777819782064014, 22.31042094296866 13.10986736009567 M23.120713908126582 12.158051136245302 C22.91649151280342 12.397942382375378, 22.712269117480258 12.637833628505454, 22.31042094296866 13.10986736009567 M22.31042094296866 13.10986736009567 C22.109596253087364 13.317235340411782, 21.908771563206066 13.524603320727895, 21.44080973676799 14.007812326905684 M22.31042094296866 13.10986736009567 C21.991417991546864 13.439264098068065, 21.672415040125067 13.76866083604046, 21.44080973676799 14.007812326905684 M21.44080973676799 14.007812326905684 C21.119176515688963 14.299911108340957, 20.797543294609937 14.592009889776232, 20.515453708501887 14.848196188198111 M21.44080973676799 14.007812326905684 C21.075068342671315 14.339968984037279, 20.709326948574642 14.672125641168876, 20.515453708501887 14.848196188198111 M20.515453708501887 14.848196188198111 C20.20378356401218 15.096744834537786, 19.892113419522477 15.345293480877459, 19.538155344578715 15.627565626425152 M20.515453708501887 14.848196188198111 C20.25532410491589 15.055642624718473, 19.99519450132989 15.263089061238835, 19.538155344578715 15.627565626425152 M19.538155344578715 15.627565626425152 C19.309750043075958 15.786891277247332, 19.0813447415732 15.946216928069513, 18.512930573605708 16.34271804539089 M19.538155344578715 15.627565626425152 C19.306210597231733 15.789360241448122, 19.074265849884753 15.951154856471094, 18.512930573605708 16.34271804539089 M18.512930573605708 16.34271804539089 C18.125802510226045 16.577397352428665, 17.738674446846378 16.81207665946644, 17.443992264076787 16.990714730406093 M18.512930573605708 16.34271804539089 C18.27087304074639 16.489454744298165, 18.028815507887074 16.636191443205437, 17.443992264076787 16.990714730406093 M17.443992264076787 16.990714730406093 C17.060272110484448 17.190901288750727, 16.67655195689211 17.391087847095363, 16.335732912792388 17.56889292409717 M17.443992264076787 16.990714730406093 C17.00545798088305 17.21949778505365, 16.56692369768932 17.448280839701205, 16.335732912792388 17.56889292409717 M16.335732912792388 17.56889292409717 C16.021628771359644 17.707937509941143, 15.707524629926905 17.846982095785116, 15.192706595147804 18.07487676824742 M16.335732912792388 17.56889292409717 C15.924578371570066 17.750898843030168, 15.513423830347742 17.932904761963165, 15.192706595147804 18.07487676824742 M15.192706595147804 18.07487676824742 C14.803802651708923 18.217997014421574, 14.41489870827004 18.361117260595726, 14.019610251460616 18.506587066708033 M15.192706595147804 18.07487676824742 C14.740528232572725 18.24128258556601, 14.288349869997646 18.407688402884606, 14.019610251460616 18.506587066708033 M14.019610251460616 18.506587066708033 C13.689323628060887 18.60461440282321, 13.359037004661156 18.702641738938386, 12.821264386235413 18.86224982926107 M14.019610251460616 18.506587066708033 C13.542125231026745 18.64830211440279, 13.064640210592874 18.790017162097545, 12.821264386235413 18.86224982926107 M12.821264386235413 18.86224982926107 C12.428348066166443 18.951930415298204, 12.035431746097474 19.041611001335337, 11.602593259676766 19.140403561325773 M12.821264386235413 18.86224982926107 C12.357751768925334 18.968043559459595, 11.894239151615256 19.07383728965812, 11.602593259676766 19.140403561325773 M11.602593259676766 19.140403561325773 C11.263865526010264 19.195166434432167, 10.92513779234376 19.24992930753856, 10.368604652847878 19.3399052695533 M11.602593259676766 19.140403561325773 C11.281752430613505 19.19227461841093, 10.960911601550245 19.24414567549609, 10.368604652847878 19.3399052695533 M10.368604652847878 19.3399052695533 C9.923556638887062 19.382838516211553, 9.478508624926246 19.425771762869807, 9.1243692896239 19.45993515863156 M10.368604652847878 19.3399052695533 C10.045055586987784 19.37111765881214, 9.721506521127688 19.40233004807098, 9.1243692896239 19.45993515863156 M9.1243692896239 19.45993515863156 C8.80678164692541 19.470119576186054, 8.489194004226922 19.48030399374055, 7.8750000000000036 19.5 M9.1243692896239 19.45993515863156 C8.714493883914134 19.473079065118593, 8.30461847820437 19.486222971605624, 7.8750000000000036 19.5 M7.8750000000000036 19.5 C7.875000000000003 19.5, 7.875000000000002 19.5, 7.875 19.5 M7.8750000000000036 19.5 C7.875000000000003 19.5, 7.875000000000002 19.5, 7.875 19.5 M7.875 19.5 C4.5298165418775165 19.5, 1.184633083755033 19.5, -7.8749999999999964 19.5 M7.875 19.5 C3.59901406827022 19.5, -0.6769718634595598 19.5, -7.8749999999999964 19.5 M-7.8749999999999964 19.5 C-8.213732566347387 19.48913750590018, -8.552465132694778 19.478275011800363, -9.124369289623893 19.45993515863156 M-7.8749999999999964 19.5 C-8.278308921077105 19.48706666789425, -8.681617842154212 19.474133335788498, -9.124369289623893 19.45993515863156 M-9.124369289623893 19.45993515863156 C-9.594870969367905 19.414546427447714, -10.065372649111916 19.369157696263866, -10.368604652847871 19.3399052695533 M-9.124369289623893 19.45993515863156 C-9.6163191922699 19.41247734317962, -10.108269094915906 19.36501952772768, -10.368604652847871 19.3399052695533 M-10.368604652847871 19.3399052695533 C-10.769962241627654 19.27501688717397, -11.171319830407437 19.210128504794643, -11.602593259676759 19.140403561325773 M-10.368604652847871 19.3399052695533 C-10.708068968010247 19.285023311662925, -11.047533283172623 19.230141353772556, -11.602593259676759 19.140403561325773 M-11.602593259676759 19.140403561325773 C-11.888124954001556 19.075232815364576, -12.173656648326354 19.01006206940338, -12.821264386235388 18.862249829261074 M-11.602593259676759 19.140403561325773 C-11.933025513221839 19.064984555726078, -12.263457766766921 18.989565550126382, -12.821264386235388 18.862249829261074 M-12.821264386235388 18.862249829261074 C-13.226697410700499 18.741919435761204, -13.632130435165609 18.621589042261334, -14.019610251460593 18.506587066708043 M-12.821264386235388 18.862249829261074 C-13.234568063895608 18.739583467206796, -13.64787174155583 18.61691710515252, -14.019610251460593 18.506587066708043 M-14.019610251460593 18.506587066708043 C-14.29395984424984 18.405623880501764, -14.568309437039089 18.304660694295485, -15.192706595147797 18.074876768247425 M-14.019610251460593 18.506587066708043 C-14.275550484417833 18.4123986950942, -14.531490717375075 18.318210323480358, -15.192706595147797 18.074876768247425 M-15.192706595147797 18.074876768247425 C-15.429511524578142 17.970050250557257, -15.666316454008486 17.865223732867094, -16.33573291279238 17.568892924097174 M-15.192706595147797 18.074876768247425 C-15.53385120668789 17.923862168413972, -15.874995818227983 17.77284756858052, -16.33573291279238 17.568892924097174 M-16.33573291279238 17.568892924097174 C-16.755059819583416 17.350130345415995, -17.174386726374454 17.13136776673481, -17.44399226407678 16.990714730406097 M-16.33573291279238 17.568892924097174 C-16.64764601344277 17.406168059277743, -16.95955911409316 17.243443194458308, -17.44399226407678 16.990714730406097 M-17.44399226407678 16.990714730406097 C-17.721293104692048 16.8226133312245, -17.998593945307313 16.6545119320429, -18.512930573605686 16.3427180453909 M-17.44399226407678 16.990714730406097 C-17.846917078913684 16.746459339802925, -18.249841893750588 16.502203949199753, -18.512930573605686 16.3427180453909 M-18.512930573605686 16.3427180453909 C-18.826450420788326 16.124020172051733, -19.139970267970966 15.905322298712566, -19.538155344578712 15.627565626425156 M-18.512930573605686 16.3427180453909 C-18.90650033128993 16.068180819790587, -19.300070088974174 15.793643594190277, -19.538155344578712 15.627565626425156 M-19.538155344578712 15.627565626425156 C-19.904065592568276 15.335761940934116, -20.26997584055784 15.043958255443076, -20.51545370850187 14.848196188198125 M-19.538155344578712 15.627565626425156 C-19.902584355089783 15.336943188405833, -20.26701336560085 15.046320750386508, -20.51545370850187 14.848196188198125 M-20.51545370850187 14.848196188198125 C-20.703450958216493 14.677462060141956, -20.89144820793112 14.506727932085786, -21.440809736767974 14.007812326905697 M-20.51545370850187 14.848196188198125 C-20.788965091114918 14.599800387223578, -21.06247647372797 14.35140458624903, -21.440809736767974 14.007812326905697 M-21.440809736767974 14.007812326905697 C-21.686024741718153 13.754607701768318, -21.931239746668332 13.501403076630938, -22.310420942968655 13.109867360095677 M-21.440809736767974 14.007812326905697 C-21.66148350922624 13.779948539188876, -21.882157281684506 13.552084751472055, -22.310420942968655 13.109867360095677 M-22.310420942968655 13.109867360095677 C-22.606926438034 12.7615751339513, -22.903431933099345 12.413282907806922, -23.12071390812658 12.158051136245307 M-22.310420942968655 13.109867360095677 C-22.60167958408787 12.767738387150875, -22.89293822520708 12.425609414206072, -23.12071390812658 12.158051136245307 M-23.12071390812658 12.158051136245307 C-23.4051377809683 11.776949058185268, -23.68956165381002 11.39584698012523, -23.868358964640635 11.156274872382316 M-23.12071390812658 12.158051136245307 C-23.394404668666365 11.791330450863217, -23.668095429206147 11.424609765481126, -23.868358964640635 11.156274872382316 M-23.868358964640635 11.156274872382316 C-24.109442652430754 10.785905587902063, -24.35052634022087 10.415536303421812, -24.550283878604244 10.108655082055249 M-23.868358964640635 11.156274872382316 C-24.07672122318613 10.836174490155841, -24.28508348173163 10.516074107929365, -24.550283878604244 10.108655082055249 M-24.550283878604244 10.108655082055249 C-24.72178437175737 9.804138590153807, -24.89328486491049 9.499622098252367, -25.1636864742735 9.019496659696289 M-24.550283878604244 10.108655082055249 C-24.68348761645082 9.87213835716757, -24.816691354297397 9.635621632279891, -25.1636864742735 9.019496659696289 M-25.1636864742735 9.019496659696289 C-25.346285419712274 8.64032604250113, -25.52888436515105 8.26115542530597, -25.70604614880834 7.893275190886686 M-25.1636864742735 9.019496659696289 C-25.34346023767304 8.646192593454815, -25.523234001072577 8.272888527213343, -25.70604614880834 7.893275190886686 M-25.70604614880834 7.893275190886686 C-25.81550797789618 7.622902356739228, -25.92496980698402 7.352529522591771, -26.175134229970325 6.73461856121551 M-25.70604614880834 7.893275190886686 C-25.851461440812027 7.5340966082241705, -25.996876732815714 7.174918025561654, -26.175134229970325 6.73461856121551 M-26.175134229970325 6.73461856121551 C-26.269681024788937 6.449858679207878, -26.364227819607546 6.165098797200246, -26.56902313421488 5.5482879393051325 M-26.175134229970325 6.73461856121551 C-26.298425021193232 6.363286341772025, -26.42171581241614 5.991954122328541, -26.56902313421488 5.5482879393051325 M-26.56902313421488 5.5482879393051325 C-26.64561734376357 5.256201022155572, -26.72221155331226 4.964114105006012, -26.886094287545557 4.339158212148136 M-26.56902313421488 5.5482879393051325 C-26.688925196166043 5.091049411202985, -26.8088272581172 4.633810883100838, -26.886094287545557 4.339158212148136 M-26.886094287545557 4.339158212148136 C-26.964713249299322 3.9354664596660127, -27.043332211053087 3.53177470718389, -27.125044776581777 3.112197953150904 M-26.886094287545557 4.339158212148136 C-26.949920167031284 4.011425810593347, -27.013746046517007 3.6836934090385576, -27.125044776581777 3.112197953150904 M-27.125044776581777 3.112197953150904 C-27.1751388667698 2.723678081849595, -27.22523295695782 2.335158210548286, -27.284892702509364 1.872449005199809 M-27.125044776581777 3.112197953150904 C-27.16569984747873 2.7968852515259424, -27.206354918375684 2.4815725499009806, -27.284892702509364 1.872449005199809 M-27.284892702509364 1.872449005199809 C-27.3146154712823 1.4094928897742376, -27.344338240055233 0.9465367743486659, -27.364981215913414 0.6250057626472781 M-27.284892702509364 1.872449005199809 C-27.315984500152677 1.388169160057891, -27.347076297795986 0.903889314915973, -27.364981215913414 0.6250057626472781 M-27.364981215913414 0.6250057626472781 C-27.364981215913414 0.14084099490178947, -27.364981215913414 -0.3433237728436992, -27.364981215913414 -0.6250057626472687 M-27.364981215913414 0.6250057626472781 C-27.364981215913414 0.2500423294703504, -27.364981215913414 -0.12492110370657739, -27.364981215913414 -0.6250057626472687 M-27.364981215913414 -0.6250057626472687 C-27.337022102031018 -1.0604915295561068, -27.309062988148625 -1.4959772964649447, -27.284892702509367 -1.8724490051997822 M-27.364981215913414 -0.6250057626472687 C-27.33402983025875 -1.107098577727514, -27.303078444604083 -1.589191392807759, -27.284892702509367 -1.8724490051997822 M-27.284892702509367 -1.8724490051997822 C-27.22188272329007 -2.3611419612968927, -27.158872744070774 -2.849834917394003, -27.125044776581777 -3.112197953150895 M-27.284892702509367 -1.8724490051997822 C-27.23319503311528 -2.273405920160806, -27.181497363721192 -2.67436283512183, -27.125044776581777 -3.112197953150895 M-27.125044776581777 -3.112197953150895 C-27.069109655445622 -3.3994129782930087, -27.01317453430947 -3.686628003435122, -26.88609428754556 -4.339158212148126 M-27.125044776581777 -3.112197953150895 C-27.060705829301746 -3.4425648493925363, -26.996366882021714 -3.7729317456341773, -26.88609428754556 -4.339158212148126 M-26.88609428754556 -4.339158212148126 C-26.808662613250977 -4.634438745333303, -26.73123093895639 -4.92971927851848, -26.569023134214884 -5.548287939305123 M-26.88609428754556 -4.339158212148126 C-26.76989242979633 -4.782286257949665, -26.6536905720471 -5.225414303751204, -26.569023134214884 -5.548287939305123 M-26.569023134214884 -5.548287939305123 C-26.417457909697234 -6.004778246913211, -26.265892685179583 -6.461268554521299, -26.175134229970332 -6.734618561215485 M-26.569023134214884 -5.548287939305123 C-26.438533292534586 -5.941302551713345, -26.30804345085429 -6.3343171641215665, -26.175134229970332 -6.734618561215485 M-26.175134229970332 -6.734618561215485 C-26.054979624977765 -7.031402758578383, -25.934825019985194 -7.328186955941282, -25.706046148808344 -7.893275190886676 M-26.175134229970332 -6.734618561215485 C-26.029880131479718 -7.093398992784253, -25.884626032989104 -7.452179424353021, -25.706046148808344 -7.893275190886676 M-25.706046148808344 -7.893275190886676 C-25.531517044351393 -8.255688610616145, -25.35698793989444 -8.618102030345614, -25.163686474273504 -9.019496659696282 M-25.706046148808344 -7.893275190886676 C-25.578178602202883 -8.158794887340127, -25.45031105559742 -8.424314583793578, -25.163686474273504 -9.019496659696282 M-25.163686474273504 -9.019496659696282 C-24.940323187769494 -9.416100792869521, -24.716959901265483 -9.81270492604276, -24.550283878604247 -10.108655082055243 M-25.163686474273504 -9.019496659696282 C-24.919006989347526 -9.453949861666873, -24.67432750442155 -9.888403063637464, -24.550283878604247 -10.108655082055243 M-24.550283878604247 -10.108655082055243 C-24.368815772709546 -10.387438823718922, -24.187347666814848 -10.6662225653826, -23.86835896464064 -11.156274872382308 M-24.550283878604247 -10.108655082055243 C-24.354654792190342 -10.409193892552127, -24.159025705776436 -10.70973270304901, -23.86835896464064 -11.156274872382308 M-23.86835896464064 -11.156274872382308 C-23.717706713426043 -11.358135164307443, -23.56705446221144 -11.559995456232576, -23.120713908126586 -12.158051136245302 M-23.86835896464064 -11.156274872382308 C-23.659106823326034 -11.43665367848164, -23.449854682011427 -11.717032484580972, -23.120713908126586 -12.158051136245302 M-23.120713908126586 -12.158051136245302 C-22.825143137315546 -12.505245382093255, -22.529572366504507 -12.852439627941207, -22.310420942968662 -13.10986736009567 M-23.120713908126586 -12.158051136245302 C-22.855977431190944 -12.469025665986187, -22.591240954255298 -12.780000195727075, -22.310420942968662 -13.10986736009567 M-22.310420942968662 -13.10986736009567 C-22.075763841931934 -13.35217008262238, -21.841106740895206 -13.594472805149087, -21.440809736767996 -14.007812326905677 M-22.310420942968662 -13.10986736009567 C-22.062124761699994 -13.36625355275117, -21.813828580431327 -13.62263974540667, -21.440809736767996 -14.007812326905677 M-21.440809736767996 -14.007812326905677 C-21.101049396305864 -14.31637367854739, -20.761289055843733 -14.624935030189103, -20.515453708501887 -14.848196188198107 M-21.440809736767996 -14.007812326905677 C-21.13313837597051 -14.287231316243835, -20.825467015173025 -14.566650305581993, -20.515453708501887 -14.848196188198107 M-20.515453708501887 -14.848196188198107 C-20.268250229982 -15.045334383956881, -20.021046751462112 -15.242472579715654, -19.53815534457872 -15.627565626425149 M-20.515453708501887 -14.848196188198107 C-20.311915894173097 -15.010512178756606, -20.108378079844307 -15.172828169315105, -19.53815534457872 -15.627565626425149 M-19.53815534457872 -15.627565626425149 C-19.16892039540194 -15.885127943047536, -18.79968544622516 -16.142690259669923, -18.51293057360571 -16.342718045390885 M-19.53815534457872 -15.627565626425149 C-19.248870694543253 -15.829358075359226, -18.959586044507784 -16.031150524293302, -18.51293057360571 -16.342718045390885 M-18.51293057360571 -16.342718045390885 C-18.144804995621396 -16.565877934111, -17.77667941763708 -16.789037822831116, -17.44399226407679 -16.99071473040609 M-18.51293057360571 -16.342718045390885 C-18.140352570405913 -16.56857702044198, -17.76777456720611 -16.794435995493078, -17.44399226407679 -16.99071473040609 M-17.44399226407679 -16.99071473040609 C-17.120338695512917 -17.159564589815858, -16.79668512694904 -17.32841444922563, -16.335732912792388 -17.56889292409717 M-17.44399226407679 -16.99071473040609 C-17.07182563884434 -17.18487382040576, -16.699659013611893 -17.379032910405428, -16.335732912792388 -17.56889292409717 M-16.335732912792388 -17.56889292409717 C-15.95327536171096 -17.738195536760763, -15.570817810629531 -17.907498149424352, -15.192706595147806 -18.07487676824742 M-16.335732912792388 -17.56889292409717 C-16.05469612320729 -17.69329957418633, -15.773659333622195 -17.817706224275494, -15.192706595147806 -18.07487676824742 M-15.192706595147806 -18.07487676824742 C-14.760014871780394 -18.234111322205074, -14.327323148412983 -18.393345876162726, -14.019610251460618 -18.506587066708033 M-15.192706595147806 -18.07487676824742 C-14.823084438729348 -18.210901138559173, -14.45346228231089 -18.346925508870925, -14.019610251460618 -18.506587066708033 M-14.019610251460618 -18.506587066708033 C-13.673117565318794 -18.609424277177702, -13.326624879176972 -18.71226148764737, -12.821264386235413 -18.862249829261067 M-14.019610251460618 -18.506587066708033 C-13.54593470787858 -18.647171481669517, -13.072259164296543 -18.787755896630998, -12.821264386235413 -18.862249829261067 M-12.821264386235413 -18.862249829261067 C-12.400815393704383 -18.958214568120187, -11.98036640117335 -19.05417930697931, -11.602593259676768 -19.140403561325773 M-12.821264386235413 -18.862249829261067 C-12.529082708047895 -18.928938390643733, -12.236901029860377 -18.995626952026395, -11.602593259676768 -19.140403561325773 M-11.602593259676768 -19.140403561325773 C-11.151788904964278 -19.213286113355704, -10.700984550251786 -19.286168665385635, -10.36860465284788 -19.3399052695533 M-11.602593259676768 -19.140403561325773 C-11.275129178170149 -19.193345414501884, -10.947665096663528 -19.246287267677996, -10.36860465284788 -19.3399052695533 M-10.36860465284788 -19.3399052695533 C-9.995102021749124 -19.375936619172762, -9.621599390650367 -19.411967968792222, -9.124369289623903 -19.45993515863156 M-10.36860465284788 -19.3399052695533 C-9.898677046600238 -19.385238620557374, -9.428749440352593 -19.430571971561452, -9.124369289623903 -19.45993515863156 M-9.124369289623903 -19.45993515863156 C-8.700846685482054 -19.473516704209647, -8.277324081340206 -19.48709824978774, -7.875000000000006 -19.5 M-9.124369289623903 -19.45993515863156 C-8.661289183085989 -19.474785236317484, -8.198209076548075 -19.489635314003408, -7.875000000000006 -19.5 M-7.875000000000006 -19.5 C-7.875000000000004 -19.5, -7.8750000000000036 -19.5, -7.875 -19.5 M-7.875000000000006 -19.5 C-7.875000000000004 -19.5, -7.875000000000003 -19.5, -7.875 -19.5" stroke="#89b4fa" stroke-width="1.3" fill="none" stroke-dasharray="0 0" style="fill:#89b4fa !important;stroke:#89b4fa !important"/></g><g class="label" style="color:#1e1e2e !important;font-weight:bold !important" transform="translate(-15, -12)"><rect/><foreignObject width="30" height="24"><div style="color: rgb(30, 30, 46) !important; font-weight: bold !important; display: table-cell; white-space: nowrap; line-height: 1.5; max-width: 200px; text-align: center;" xmlns="http://www.w3.org/1999/xhtml"><span style="color:#1e1e2e !important;font-weight:bold !important" class="nodeLabel "><p>bob</p></span></div></foreignObject></g></g></g><g class="edges edgePaths"><path d="M296,219L327,219" id="my-svg-L_ctx_user_ctx_default_0_0" class=" edge-thickness-normal edge-pattern-solid edge-thickness-normal edge-pattern-solid flowchart-link" style=";" data-edge="true" data-et="edge" data-id="L_ctx_user_ctx_default_0_0" data-points="W3sieCI6Mjk2LCJ5IjoyMTl9LHsieCI6MzMxLCJ5IjoyMTl9XQ==" data-look="classic" marker-end="url(#my-svg_flowchart-v2-pointEnd)"/></g><g class="edgeLabels"><g class="edgeLabel"><g class="label" data-id="L_ctx_user_ctx_default_0_0" transform="translate(0, 0)"><foreignObject width="0" height="0"><div xmlns="http://www.w3.org/1999/xhtml" class="labelBkg" style="display: table-cell; white-space: nowrap; line-height: 1.5; max-width: 200px; text-align: center;"><span class="edgeLabel "></span></div></foreignObject></g></g></g></svg>