<svg id="my-svg" width="100%" xmlns="http://www.w3.org/2000/svg" xmlns:xlink="http://www.w3.org/1999/xlink" class="flowchart" style="max-width: 1188.73px; background-color: rgb(30, 30, 46);" viewBox="4 4 1188.72998046875 657.5" role="graphics-document document" aria-roledescription="flowchart-v2"><style>#my-svg{font-family:JetBrains Mono,Fira Code,DejaVu Sans Mono,monospace;font-size:16px;fill:#cdd6f4;}@keyframes edge-animation-frame{from{stroke-dashoffset:0;}}@keyframes dash{to{stroke-dashoffset:0;}}#my-svg .edge-animation-slow{stroke-dasharray:9,5!important;stroke-dashoffset:900;animation:dash 50s linear infinite;stroke-linecap:round;}#my-svg .edge-animation-fast{stroke-dasharray:9,5!important;stroke-dashoffset:900;animation:dash 20s linear infinite;stroke-linecap:round;}#my-svg .error-icon{fill:#313244;}#my-svg .error-text{fill:#cdd6f4;stroke:#cdd6f4;}#my-svg .edge-thickness-normal{stroke-width:1px;}#my-svg .edge-thickness-thick{stroke-width:3.5px;}#my-svg .edge-pattern-solid{stroke-dasharray:0;}#my-svg .edge-thickness-invisible{stroke-width:0;fill:none;}#my-svg .edge-pattern-dashed{stroke-dasharray:3;}#my-svg .edge-pattern-dotted{stroke-dasharray:2;}#my-svg .marker{fill:#a6adc8;stroke:#a6adc8;}#my-svg .marker.cross{stroke:#a6adc8;}#my-svg svg{font-family:JetBrains Mono,Fira Code,DejaVu Sans Mono,monospace;font-size:16px;}#my-svg p{margin:0;}#my-svg .label{font-family:JetBrains Mono,Fira Code,DejaVu Sans Mono,monospace;color:#cdd6f4;}#my-svg .cluster-label text{fill:#cdd6f4;}#my-svg .cluster-label span{color:#cdd6f4;}#my-svg .cluster-label span p{background-color:transparent;}#my-svg .label text,#my-svg span{fill:#cdd6f4;color:#cdd6f4;}#my-svg .node rect,#my-svg .node circle,#my-svg .node ellipse,#my-svg .node polygon,#my-svg .node path{fill:#313244;stroke:#a6adc8;stroke-width:1px;}#my-svg .rough-node .label text,#my-svg .node .label text,#my-svg .image-shape .label,#my-svg .icon-shape .label{text-anchor:middle;}#my-svg .node .katex path{fill:#000;stroke:#000;stroke-width:1px;}#my-svg .rough-node .label,#my-svg .node .label,#my-svg .image-shape .label,#my-svg .icon-shape .label{text-align:center;}#my-svg .node.clickable{cursor:pointer;}#my-svg .root .anchor path{fill:#a6adc8!important;stroke-width:0;stroke:#a6adc8;}#my-svg .arrowheadPath{fill:#e1e1d1;}#my-svg .edgePath .path{stroke:#a6adc8;stroke-width:1px;}#my-svg .flowchart-link{stroke:#a6adc8;fill:none;}#my-svg .edgeLabel{background-color:#1e1e2e;text-align:center;}#my-svg .edgeLabel p{background-color:#1e1e2e;}#my-svg .edgeLabel rect{opacity:0.5;background-color:#1e1e2e;fill:#1e1e2e;}#my-svg .labelBkg{background-color:rgba(30, 30, 46, 0.5);}#my-svg .cluster rect{fill:#313244;stroke:#6c7086;stroke-width:1px;}#my-svg .cluster text{fill:#cdd6f4;}#my-svg .cluster span{color:#cdd6f4;}#my-svg div.mermaidTooltip{position:absolute;text-align:center;max-width:200px;padding:2px;font-family:JetBrains Mono,Fira Code,DejaVu Sans Mono,monospace;font-size:12px;background:#313244;border:1px solid #6c7086;border-radius:2px;pointer-events:none;z-index:100;}#my-svg .flowchartTitleText{text-anchor:middle;font-size:18px;fill:#cdd6f4;}#my-svg rect.text{fill:none;stroke-width:0;}#my-svg .icon-shape,#my-svg .image-shape{background-color:#1e1e2e;text-align:center;}#my-svg .icon-shape p,#my-svg .image-shape p{background-color:#1e1e2e;padding:2px;}#my-svg .icon-shape .label rect,#my-svg .image-shape .label rect{opacity:0.5;background-color:#1e1e2e;fill:#1e1e2e;}#my-svg .label-icon{display:inline-block;height:1em;overflow:visible;vertical-align:-0.125em;}#my-svg .node .label-icon path{fill:currentColor;stroke:revert;stroke-width:revert;}#my-svg .node .neo-node{stroke:#a6adc8;}#my-svg [data-look="neo"].node rect,#my-svg [data-look="neo"].cluster rect,#my-svg [data-look="neo"].node polygon{stroke:url(#my-svg-gradient);filter:drop-shadow( 1px 2px 2px rgba(185,185,185,1));}#my-svg [data-look="neo"].node path{stroke:url(#my-svg-gradient);stroke-width:1px;}#my-svg [data-look="neo"].node .outer-path{filter:drop-shadow( 1px 2px 2px rgba(185,185,185,1));}#my-svg [data-look="neo"].node .neo-line path{stroke:#a6adc8;filter:none;}#my-svg [data-look="neo"].node circle{stroke:url(#my-svg-gradient);filter:drop-shadow( 1px 2px 2px rgba(185,185,185,1));}#my-svg [data-look="neo"].node circle .state-start{fill:#000000;}#my-svg [data-look="neo"].icon-shape .icon{fill:url(#my-svg-gradient);filter:drop-shadow( 1px 2px 2px rgba(185,185,185,1));}#my-svg [data-look="neo"].icon-shape .icon-neo path{stroke:url(#my-svg-gradient);filter:drop-shadow( 1px 2px 2px rgba(185,185,185,1));}#my-svg :root{--mermaid-font-family:JetBrains Mono,Fira Code,DejaVu Sans Mono,monospace;}#my-svg .root&gt;*{fill:#89b4fa!important;stroke:#89b4fa!important;color:#1e1e2e!important;font-weight:bold!important;}#my-svg .root span{fill:#89b4fa!important;stroke:#89b4fa!important;color:#1e1e2e!important;font-weight:bold!important;}#my-svg .root tspan{fill:#1e1e2e!important;}#my-svg .monitoring__alerting_c&gt;*{fill:#cba6f7!important;stroke:#f38ba8!important;color:#1e1e2e!important;stroke-dasharray:5 5!important;stroke-width:2px!important;}#my-svg .monitoring__alerting_c span{fill:#cba6f7!important;stroke:#f38ba8!important;color:#1e1e2e!important;stroke-dasharray:5 5!important;stroke-width:2px!important;}#my-svg .monitoring__alerting_c tspan{fill:#1e1e2e!important;}#my-svg .backup_c&gt;*{fill:#89b4fa!important;stroke:#89b4fa!important;color:#1e1e2e!important;stroke-width:3px!important;}#my-svg .backup_c span{fill:#89b4fa!important;stroke:#89b4fa!important;color:#1e1e2e!important;stroke-width:3px!important;}#my-svg .backup_c tspan{fill:#1e1e2e!important;}#my-svg .virtualization__docker_c&gt;*{fill:#cba6f7!important;stroke:#cba6f7!important;color:#1e1e2e!important;stroke-width:3px!important;}#my-svg .virtualization__docker_c span{fill:#cba6f7!important;stroke:#cba6f7!important;color:#1e1e2e!important;stroke-width:3px!important;}#my-svg .virtualization__docker_c tspan{fill:#1e1e2e!important;}#my-svg .monitoring_c&gt;*{fill:#89b4fa!important;stroke:#89b4fa!important;color:#1e1e2e!important;stroke-width:3px!important;}#my-svg .monitoring_c span{fill:#89b4fa!important;stroke:#89b4fa!important;color:#1e1e2e!important;stroke-width:3px!important;}#my-svg .monitoring_c tspan{fill:#1e1e2e!important;}#my-svg .networking_c&gt;*{fill:#89b4fa!important;stroke:#89b4fa!important;color:#1e1e2e!important;stroke-width:3px!important;}#my-svg .networking_c span{fill:#89b4fa!important;stroke:#89b4fa!important;color:#1e1e2e!important;stroke-width:3px!important;}#my-svg .networking_c tspan{fill:#1e1e2e!important;}#my-svg .monitoring__nginx_exporter_c&gt;*{fill:#89b4fa!important;stroke:#f38ba8!important;color:#1e1e2e!important;stroke-dasharray:5 5!important;stroke-width:2px!important;}#my-svg .monitoring__nginx_exporter_c span{fill:#89b4fa!important;stroke:#f38ba8!important;color:#1e1e2e!important;stroke-dasharray:5 5!important;stroke-width:2px!important;}#my-svg .monitoring__nginx_exporter_c tspan{fill:#1e1e2e!important;}#my-svg .monitoring__node_exporter_c&gt;*{fill:#f2cdcd!important;stroke:#f38ba8!important;color:#1e1e2e!important;stroke-dasharray:5 5!important;stroke-width:2px!important;}#my-svg .monitoring__node_exporter_c span{fill:#f2cdcd!important;stroke:#f38ba8!important;color:#1e1e2e!important;stroke-dasharray:5 5!important;stroke-width:2px!important;}#my-svg .monitoring__node_exporter_c tspan{fill:#1e1e2e!important;}#my-svg .provider_filter_c&gt;*{fill:#89b4fa!important;stroke:#89b4fa!important;color:#1e1e2e!important;stroke-width:3px!important;}#my-svg .provider_filter_c span{fill:#89b4fa!important;stroke:#89b4fa!important;color:#1e1e2e!important;stroke-width:3px!important;}#my-svg .provider_filter_c tspan{fill:#1e1e2e!important;}#my-svg .server_c&gt;*{fill:#89b4fa!important;stroke:#89b4fa!important;color:#1e1e2e!important;stroke-width:3px!important;}#my-svg .server_c span{fill:#89b4fa!important;stroke:#89b4fa!important;color:#1e1e2e!important;stroke-width:3px!important;}#my-svg .server_c tspan{fill:#1e1e2e!important;}#my-svg .tailscale_c&gt;*{fill:#f2cdcd!important;stroke:#f2cdcd!important;color:#1e1e2e!important;stroke-width:3px!important;}#my-svg .tailscale_c span{fill:#f2cdcd!important;stroke:#f2cdcd!important;color:#1e1e2e!important;stroke-width:3px!important;}#my-svg .tailscale_c tspan{fill:#1e1e2e!important;}#my-svg .virtualization_c&gt;*{fill:#89b4fa!important;stroke:#89b4fa!important;color:#1e1e2e!important;stroke-width:3px!important;}#my-svg .virtualization_c span{fill:#89b4fa!important;stroke:#89b4fa!important;color:#1e1e2e!important;stroke-width:3px!important;}#my-svg .virtualization_c tspan{fill:#1e1e2e!important;}</style><g><marker id="my-svg_flowchart-v2-pointEnd" class="marker flowchart-v2" viewBox="0 0 10 10" refX="5" refY="5" markerUnits="userSpaceOnUse" markerWidth="8" markerHeight="8" orient="auto"><path d="M 0 0 L 10 5 L 0 10 z" class="arrowMarkerPath" style="stroke-width: 1; stroke-dasharray: 1, 0;"/></marker><marker id="my-svg_flowchart-v2-pointStart" class="marker flowchart-v2" viewBox="0 0 10 10" refX="4.5" refY="5" markerUnits="userSpaceOnUse" markerWidth="8" markerHeight="8" orient="auto"><path d="M 0 5 L 10 10 L 10 0 z" class="arrowMarkerPath" style="stroke-width: 1; stroke-dasharray: 1, 0;"/></marker><marker id="my-svg_flowchart-v2-pointEnd-margin" class="marker flowchart-v2" viewBox="0 0 11.5 14" refX="11.5" refY="7" markerUnits="userSpaceOnUse" markerWidth="10.5" markerHeight="14" orient="auto"><path d="M 0 0 L 11.5 7 L 0 14 z" class="arrowMarkerPath" style="stroke-width: 0; stroke-dasharray: 1, 0;"/></marker><marker id="my-svg_flowchart-v2-pointStart-margin" class="marker flowchart-v2" viewBox="0 0 11.5 14" refX="1" refY="7" markerUnits="userSpaceOnUse" markerWidth="11.5" markerHeight="14" orient="auto"><polygon points="0,7 11.5,14 11.5,0" class="arrowMarkerPath" style="stroke-width: 0; stroke-dasharray: 1, 0;"/></marker><marker id="my-svg_flowchart-v2-circleEnd" class="marker flowchart-v2" viewBox="0 0 10 10" refX="11" refY="5" markerUnits="userSpaceOnUse" markerWidth="11" markerHeight="11" orient="auto"><circle cx="5" cy="5" r="5" class="arrowMarkerPath" style="stroke-width: 1; stroke-dasharray: 1, 0;"/></marker><marker id="my-svg_flowchart-v2-circleStart" class="marker flowchart-v2" viewBox="0 0 10 10" refX="-1" refY="5" markerUnits="userSpaceOnUse" markerWidth="11" markerHeight="11" orient="auto"><circle cx="5" cy="5" r="5" class="arrowMarkerPath" style="stroke-width: 1; stroke-dasharray: 1, 0;"/></marker><marker id="my-svg_flowchart-v2-circleEnd-margin" class="marker flowchart-v2" viewBox="0 0 10 10" refY="5" refX="12.25" markerUnits="userSpaceOnUse" markerWidth="14" markerHeight="14" orient="auto"><circle cx="5" cy="5" r="5" class="arrowMarkerPath" style="stroke-width: 0; stroke-dasharray: 1, 0;"/></marker><marker id="my-svg_flowchart-v2-circleStart-margin" class="marker flowchart-v2" viewBox="0 0 10 10" refX="-2" refY="5" markerUnits="userSpaceOnUse" markerWidth="14" markerHeight="14" orient="auto"><circle cx="5" cy="5" r="5" class="arrowMarkerPath" style="stroke-width: 0; stroke-dasharray: 1, 0;"/></marker><marker id="my-svg_flowchart-v2-crossEnd" class="marker cross flowchart-v2" viewBox="0 0 11 11" refX="12" refY="5.2" markerUnits="userSpaceOnUse" markerWidth="11" markerHeight="11" orient="auto"><path d="M 1,1 l 9,9 M 10,1 l -9,9" class="arrowMarkerPath" style="stroke-width: 2; stroke-dasharray: 1, 0;"/></marker><marker id="my-svg_flowchart-v2-crossStart" class="marker cross flowchart-v2" viewBox="0 0 11 11" refX="-1" refY="5.2" markerUnits="userSpaceOnUse" markerWidth="11" markerHeight="11" orient="auto"><path d="M 1,1 l 9,9 M 10,1 l -9,9" class="arrowMarkerPath" style="stroke-width: 2; stroke-dasharray: 1, 0;"/></marker><marker id="my-svg_flowchart-v2-crossEnd-margin" class="marker cross flowchart-v2" viewBox="0 0 15 15" refX="17.7" refY="7.5" markerUnits="userSpaceOnUse" markerWidth="12" markerHeight="12" orient="auto"><path d="M 1,1 L 14,14 M 1,14 L 14,1" class="arrowMarkerPath" style="stroke-width: 2.5;"/></marker><marker id="my-svg_flowchart-v2-crossStart-margin" class="marker cross flowchart-v2" viewBox="0 0 15 15" refX="-3.5" refY="7.5" markerUnits="userSpaceOnUse" markerWidth="12" markerHeight="12" orient="auto"><path d="M 1,1 L 14,14 M 1,14 L 14,1" class="arrowMarkerPath" style="stroke-width: 2.5; stroke-dasharray: 1, 0;"/></marker></g><defs><filter id="my-svg-drop-shadow" height="130%" width="130%"><feDropShadow dx="4" dy="4" stdDeviation="0" flood-opacity="0.06" flood-color="#000000"/></filter></defs><defs><filter id="my-svg-drop-shadow-small" height="150%" width="150%"><feDropShadow dx="2" dy="2" stdDeviation="0" flood-opacity="0.06" flood-color="#000000"/></filter></defs><linearGradient id="my-svg-gradient" gradientUnits="objectBoundingBox" x1="0%" y1="0%" x2="100%" y2="0%"><stop offset="0%" stop-color="#a6adc8" stop-opacity="1"/><stop offset="100%" stop-color="#6c7086" stop-opacity="1"/></linearGradient><g class="subgraphs"/><g class="nodes"><g class="node default root " id="my-svg-flowchart-provider_filter-0" data-look="classic" transform="translate(99.36498260498047, 417.5)"><g class="basic label-container outer-path"><path d="M-67.875 -19.5 C-13.697914039630284 -19.5, 40.47917192073943 -19.5, 67.875 -19.5 C67.875 -19.5, 67.875 -19.5, 67.875 -19.5 C68.3103413326572 -19.48603945080218, 68.7456826653144 -19.472078901604366, 69.1243692896239 -19.45993515863156 C69.4717150788002 -19.42642712809415, 69.8190608679765 -19.392919097556742, 70.36860465284786 -19.3399052695533 C70.72552326908081 -19.282201435625964, 71.08244188531376 -19.22449760169863, 71.60259325967675 -19.140403561325776 C71.86785597051318 -19.07985907857832, 72.13311868134961 -19.019314595830863, 72.82126438623538 -18.862249829261074 C73.26900367203585 -18.729363159466967, 73.71674295783632 -18.59647648967286, 74.0196102514606 -18.50658706670804 C74.29606773224364 -18.40484815823494, 74.5725252130267 -18.303109249761842, 75.1927065951478 -18.074876768247425 C75.64330453745428 -17.875410425701386, 76.09390247976077 -17.67594408315535, 76.33573291279238 -17.568892924097174 C76.73520949233672 -17.360486248425854, 77.13468607188105 -17.152079572754538, 77.44399226407678 -16.990714730406097 C77.83731532621856 -16.75227997871288, 78.23063838836032 -16.51384522701966, 78.5129305736057 -16.342718045390892 C78.76316099218921 -16.16816813768727, 79.01339141077271 -15.993618229983653, 79.53815534457871 -15.627565626425154 C79.88650000739979 -15.349770027666134, 80.23484467022085 -15.071974428907112, 80.51545370850187 -14.848196188198123 C80.75024800067534 -14.634962224362726, 80.9850422928488 -14.421728260527326, 81.44080973676799 -14.007812326905688 C81.7672108068533 -13.670776424016376, 82.09361187693861 -13.333740521127064, 82.31042094296865 -13.10986736009568 C82.55652642896838 -12.820777852441536, 82.8026319149681 -12.53168834478739, 83.12071390812658 -12.158051136245305 C83.35427459821582 -11.8451010893423, 83.58783528830509 -11.532151042439294, 83.86835896464063 -11.156274872382312 C84.03548497247267 -10.899524444735452, 84.20261098030473 -10.642774017088591, 84.55028387860425 -10.108655082055241 C84.71044790859897 -9.82426762843292, 84.87061193859368 -9.539880174810602, 85.1636864742735 -9.019496659696287 C85.3219575757492 -8.690843331022933, 85.4802286772249 -8.362190002349578, 85.70604614880834 -7.893275190886684 C85.83767766384024 -7.568142803835666, 85.96930917887215 -7.2430104167846485, 86.17513422997033 -6.734618561215508 C86.3033731206039 -6.348383454719712, 86.43161201123745 -5.9621483482239155, 86.56902313421489 -5.548287939305138 C86.65489564448806 -5.22081884025212, 86.74076815476124 -4.893349741199101, 86.88609428754556 -4.339158212148133 C86.96144553457609 -3.9522454841380714, 87.03679678160661 -3.5653327561280093, 87.12504477658177 -3.1121979531509023 C87.177440505693 -2.705827024871204, 87.22983623480424 -2.299456096591505, 87.28489270250937 -1.872449005199798 C87.30581763104624 -1.5465263529398292, 87.3267425595831 -1.2206037006798605, 87.36498121591342 -0.6250057626472757 C87.36498121591342 -0.18056644085207035, 87.36498121591342 0.263872880943135, 87.36498121591342 0.625005762647271 C87.3377088231268 1.0497952941780133, 87.31043643034019 1.4745848257087557, 87.28489270250937 1.8724490051997846 C87.23428159179112 2.2649787856362584, 87.18367048107287 2.657508566072732, 87.12504477658177 3.1121979531508885 C87.03340597160965 3.5827438488144216, 86.94176716663755 4.053289744477954, 86.88609428754556 4.339158212148129 C86.81717358280974 4.60198272972816, 86.74825287807394 4.864807247308192, 86.56902313421489 5.548287939305125 C86.47707755133797 5.825213385391224, 86.38513196846104 6.102138831477322, 86.17513422997033 6.734618561215495 C86.01483894950933 7.1305510030526, 85.85454366904831 7.526483444889705, 85.70604614880834 7.893275190886679 C85.546816048402 8.223919901358814, 85.38758594799566 8.554564611830948, 85.1636864742735 9.019496659696284 C84.9218417576742 9.448916443451443, 84.6799970410749 9.878336227206603, 84.55028387860425 10.108655082055236 C84.31218330761942 10.474441498043538, 84.0740827366346 10.84022791403184, 83.86835896464065 11.156274872382301 C83.70634020753278 11.373365246694425, 83.54432145042492 11.590455621006548, 83.12071390812659 12.158051136245302 C82.87460192207665 12.447148279228287, 82.62848993602671 12.736245422211274, 82.31042094296866 13.10986736009567 C82.09110134638583 13.336332850041194, 81.871781749803 13.562798339986717, 81.44080973676799 14.007812326905684 C81.07124321085901 14.343442867541778, 80.70167668495003 14.679073408177873, 80.5154537085019 14.848196188198111 C80.23800358752962 15.069455276415702, 79.96055346655734 15.290714364633292, 79.53815534457871 15.627565626425152 C79.25592288135549 15.824438775123252, 78.97369041813228 16.02131192382135, 78.5129305736057 16.34271804539089 C78.12331859256591 16.578903117911352, 77.73370661152613 16.815088190431815, 77.44399226407678 16.990714730406093 C77.19651979519836 17.119820958906292, 76.94904732631991 17.248927187406487, 76.33573291279238 17.56889292409717 C76.0542547659566 17.693494949948814, 75.7727766191208 17.818096975800458, 75.1927065951478 18.07487676824742 C74.89087971034644 18.185951851911458, 74.58905282554508 18.2970269355755, 74.01961025146062 18.506587066708033 C73.71263427226128 18.597695925984603, 73.40565829306193 18.68880478526117, 72.82126438623541 18.86224982926107 C72.52719563766573 18.92936910214418, 72.23312688909606 18.996488375027283, 71.60259325967677 19.140403561325773 C71.34399986726541 19.182210935589133, 71.08540647485407 19.22401830985249, 70.36860465284788 19.3399052695533 C70.07035395593533 19.36867715558551, 69.77210325902278 19.39744904161772, 69.1243692896239 19.45993515863156 C68.6842026494022 19.474050446051077, 68.24403600918049 19.4881657334706, 67.875 19.5 C67.875 19.5, 67.875 19.5, 67.875 19.5 C15.148336796006163 19.5, -37.578326407987674 19.5, -67.875 19.5 C-68.16857659189924 19.490585570109964, -68.46215318379848 19.481171140219924, -69.1243692896239 19.45993515863156 C-69.43584867845115 19.429887116600167, -69.7473280672784 19.399839074568774, -70.36860465284786 19.3399052695533 C-70.69899169844984 19.286490854210175, -71.02937874405181 19.23307643886705, -71.60259325967675 19.140403561325773 C-72.0608721019319 19.035804406129962, -72.51915094418706 18.93120525093415, -72.82126438623538 18.862249829261074 C-73.28973459699496 18.72321032975795, -73.75820480775454 18.584170830254823, -74.01961025146059 18.506587066708043 C-74.30054442339897 18.403200694507703, -74.58147859533734 18.299814322307363, -75.1927065951478 18.074876768247425 C-75.43643505615749 17.96698540850635, -75.68016351716717 17.859094048765275, -76.33573291279238 17.568892924097174 C-76.61096825291962 17.425302823449442, -76.88620359304686 17.28171272280171, -77.44399226407678 16.990714730406097 C-77.82323389540079 16.76081622482628, -78.2024755267248 16.53091771924646, -78.51293057360569 16.3427180453909 C-78.85307484025428 16.10544812958483, -79.19321910690286 15.868178213778759, -79.53815534457871 15.627565626425156 C-79.92136893381655 15.321962986749861, -80.3045825230544 15.016360347074565, -80.51545370850187 14.848196188198125 C-80.75827270404235 14.62767440108682, -81.00109169958283 14.407152613975516, -81.44080973676797 14.007812326905697 C-81.63841014073668 13.803773686513134, -81.83601054470537 13.599735046120573, -82.31042094296865 13.109867360095677 C-82.5889921071082 12.782641819549086, -82.86756327124773 12.455416279002497, -83.12071390812658 12.158051136245307 C-83.417108082512 11.760909944633605, -83.71350225689744 11.363768753021901, -83.86835896464063 11.156274872382316 C-84.13315233914204 10.749481142171177, -84.39794571364347 10.342687411960041, -84.55028387860425 10.108655082055249 C-84.79005045853624 9.682925240387053, -85.02981703846824 9.257195398718858, -85.1636864742735 9.019496659696289 C-85.37806950290351 8.574325713684088, -85.59245253153352 8.129154767671885, -85.70604614880834 7.893275190886686 C-85.88950791549965 7.440121080167183, -86.07296968219097 6.986966969447679, -86.17513422997033 6.73461856121551 C-86.29987823139476 6.358909504182652, -86.42462223281917 5.983200447149795, -86.56902313421489 5.5482879393051325 C-86.65129458097398 5.234551256142111, -86.73356602773308 4.920814572979089, -86.88609428754556 4.339158212148136 C-86.95314829081734 3.994850077216172, -87.02020229408912 3.6505419422842085, -87.12504477658177 3.112197953150904 C-87.1694495213779 2.7678035212208165, -87.21385426617402 2.4234090892907285, -87.28489270250937 1.872449005199809 C-87.30289048618319 1.592118996930606, -87.32088826985701 1.311788988661403, -87.36498121591342 0.6250057626472781 C-87.36498121591342 0.1943696534218739, -87.36498121591342 -0.23626645580353034, -87.36498121591342 -0.6250057626472687 C-87.33714827465668 -1.0585262890667986, -87.30931533339994 -1.4920468154863287, -87.28489270250937 -1.8724490051997822 C-87.24181049079714 -2.2065861316948303, -87.19872827908492 -2.540723258189878, -87.12504477658177 -3.112197953150895 C-87.033793470018 -3.580754126385442, -86.94254216345422 -4.049310299619989, -86.88609428754556 -4.339158212148126 C-86.76891798007937 -4.78600225704965, -86.65174167261317 -5.232846301951174, -86.56902313421489 -5.548287939305123 C-86.44916459971225 -5.909282748363005, -86.32930606520961 -6.2702775574208856, -86.17513422997033 -6.734618561215485 C-86.04829888906768 -7.047904305439503, -85.92146354816505 -7.36119004966352, -85.70604614880834 -7.893275190886676 C-85.51979127450953 -8.280037422584048, -85.33353640021072 -8.66679965428142, -85.1636864742735 -9.019496659696282 C-84.99358047577552 -9.321537085129638, -84.82347447727753 -9.623577510562995, -84.55028387860425 -10.108655082055243 C-84.28802240515674 -10.511559132336957, -84.02576093170923 -10.914463182618672, -83.86835896464063 -11.156274872382308 C-83.58585972871587 -11.534798112311657, -83.30336049279111 -11.913321352241006, -83.12071390812659 -12.158051136245302 C-82.92105432609786 -12.392582642248302, -82.72139474406913 -12.627114148251302, -82.31042094296866 -13.10986736009567 C-82.0878292040555 -13.339711605645148, -81.86523746514233 -13.569555851194623, -81.44080973676799 -14.007812326905677 C-81.0843207372029 -14.331566204128633, -80.72783173763781 -14.655320081351586, -80.5154537085019 -14.848196188198107 C-80.18174793877249 -15.114317659273826, -79.84804216904308 -15.380439130349545, -79.53815534457871 -15.627565626425149 C-79.24262555910734 -15.833714411491762, -78.94709577363595 -16.039863196558375, -78.51293057360571 -16.342718045390885 C-78.12390113936026 -16.5785499746212, -77.73487170511478 -16.814381903851515, -77.44399226407678 -16.99071473040609 C-77.10939970663536 -17.165271453306524, -76.77480714919393 -17.339828176206957, -76.3357329127924 -17.56889292409717 C-75.92549430325242 -17.75049338724454, -75.51525569371246 -17.932093850391908, -75.19270659514781 -18.07487676824742 C-74.77678385170213 -18.227940182583126, -74.36086110825644 -18.381003596918827, -74.01961025146062 -18.506587066708033 C-73.5509181059702 -18.645692435274317, -73.08222596047976 -18.7847978038406, -72.82126438623541 -18.862249829261067 C-72.47870388645634 -18.94043702791947, -72.13614338667726 -19.01862422657787, -71.60259325967677 -19.140403561325773 C-71.237727698212 -19.199392195728706, -70.87286213674723 -19.258380830131642, -70.36860465284788 -19.3399052695533 C-69.90636567477084 -19.384496907844685, -69.4441266966938 -19.42908854613607, -69.1243692896239 -19.45993515863156 C-68.85066452617461 -19.468712337661376, -68.57695976272532 -19.47748951669119, -67.875 -19.5 C-67.875 -19.5, -67.875 -19.5, -67.875 -19.5" stroke="none" stroke-width="0" fill="#89b4fa" style="fill:#89b4fa !important;stroke:#89b4fa !important"/><path d="M-67.875 -19.5 C-20.243279608691154 -19.5, 27.388440782617693 -19.5, 67.875 -19.5 M-67.875 -19.5 C-23.560191999826664 -19.5, 20.754616000346672 -19.5, 67.875 -19.5 M67.875 -19.5 C67.875 -19.5, 67.875 -19.5, 67.875 -19.5 M67.875 -19.5 C67.875 -19.5, 67.875 -19.5, 67.875 -19.5 M67.875 -19.5 C68.29061775356874 -19.486671947593933, 68.70623550713749 -19.473343895187863, 69.1243692896239 -19.45993515863156 M67.875 -19.5 C68.21893218028876 -19.488970764401518, 68.56286436057752 -19.477941528803033, 69.1243692896239 -19.45993515863156 M69.1243692896239 -19.45993515863156 C69.6158834529555 -19.412519378427227, 70.1073976162871 -19.365103598222895, 70.36860465284786 -19.3399052695533 M69.1243692896239 -19.45993515863156 C69.41950548985731 -19.431463724348255, 69.71464169009072 -19.402992290064947, 70.36860465284786 -19.3399052695533 M70.36860465284786 -19.3399052695533 C70.70395807873031 -19.285687928361284, 71.03931150461274 -19.231470587169273, 71.60259325967675 -19.140403561325776 M70.36860465284786 -19.3399052695533 C70.61949504020738 -19.299343257409024, 70.87038542756692 -19.25878124526475, 71.60259325967675 -19.140403561325776 M71.60259325967675 -19.140403561325776 C71.93473647541956 -19.06459403976952, 72.26687969116237 -18.988784518213265, 72.82126438623538 -18.862249829261074 M71.60259325967675 -19.140403561325776 C71.85903158649867 -19.081873186645144, 72.1154699133206 -19.02334281196451, 72.82126438623538 -18.862249829261074 M72.82126438623538 -18.862249829261074 C73.16528746870497 -18.76014558419811, 73.50931055117456 -18.65804133913515, 74.0196102514606 -18.50658706670804 M72.82126438623538 -18.862249829261074 C73.15864583698568 -18.76211678562976, 73.49602728773598 -18.661983741998444, 74.0196102514606 -18.50658706670804 M74.0196102514606 -18.50658706670804 C74.47648403585937 -18.338453290754327, 74.93335782025814 -18.170319514800614, 75.1927065951478 -18.074876768247425 M74.0196102514606 -18.50658706670804 C74.41119491372221 -18.362480291226827, 74.80277957598383 -18.21837351574562, 75.1927065951478 -18.074876768247425 M75.1927065951478 -18.074876768247425 C75.43962405411924 -17.965573733706943, 75.68654151309069 -17.856270699166465, 76.33573291279238 -17.568892924097174 M75.1927065951478 -18.074876768247425 C75.59748483835243 -17.895693447300697, 76.00226308155706 -17.71651012635397, 76.33573291279238 -17.568892924097174 M76.33573291279238 -17.568892924097174 C76.75531265240078 -17.34999844269712, 77.17489239200918 -17.13110396129707, 77.44399226407678 -16.990714730406097 M76.33573291279238 -17.568892924097174 C76.70289253970627 -17.377345981913162, 77.07005216662016 -17.18579903972915, 77.44399226407678 -16.990714730406097 M77.44399226407678 -16.990714730406097 C77.76477480418414 -16.79625446946556, 78.08555734429152 -16.601794208525025, 78.5129305736057 -16.342718045390892 M77.44399226407678 -16.990714730406097 C77.86304588724168 -16.736681961411097, 78.28209951040658 -16.482649192416098, 78.5129305736057 -16.342718045390892 M78.5129305736057 -16.342718045390892 C78.84883448207793 -16.108406019886495, 79.18473839055018 -15.874093994382099, 79.53815534457871 -15.627565626425154 M78.5129305736057 -16.342718045390892 C78.76535230027604 -16.1666395760261, 79.01777402694637 -15.990561106661305, 79.53815534457871 -15.627565626425154 M79.53815534457871 -15.627565626425154 C79.76716691533517 -15.444934993000723, 79.99617848609162 -15.26230435957629, 80.51545370850187 -14.848196188198123 M79.53815534457871 -15.627565626425154 C79.9077652086526 -15.332811595557775, 80.27737507272651 -15.038057564690398, 80.51545370850187 -14.848196188198123 M80.51545370850187 -14.848196188198123 C80.75744854934516 -14.628422876576877, 80.99944339018843 -14.408649564955631, 81.44080973676799 -14.007812326905688 M80.51545370850187 -14.848196188198123 C80.87287873135972 -14.523592239386502, 81.23030375421757 -14.19898829057488, 81.44080973676799 -14.007812326905688 M81.44080973676799 -14.007812326905688 C81.74039747770355 -13.698463387778748, 82.03998521863912 -13.389114448651807, 82.31042094296865 -13.10986736009568 M81.44080973676799 -14.007812326905688 C81.67927485264299 -13.76157751641463, 81.91773996851799 -13.51534270592357, 82.31042094296865 -13.10986736009568 M82.31042094296865 -13.10986736009568 C82.49076667912485 -12.898022996443508, 82.67111241528106 -12.686178632791336, 83.12071390812658 -12.158051136245305 M82.31042094296865 -13.10986736009568 C82.57233716917985 -12.802205657332534, 82.83425339539106 -12.494543954569385, 83.12071390812658 -12.158051136245305 M83.12071390812658 -12.158051136245305 C83.41576393124947 -11.762710984870695, 83.71081395437237 -11.367370833496086, 83.86835896464063 -11.156274872382312 M83.12071390812658 -12.158051136245305 C83.35799471628528 -11.84011647003896, 83.59527552444399 -11.522181803832614, 83.86835896464063 -11.156274872382312 M83.86835896464063 -11.156274872382312 C84.09758423353748 -10.80412330375347, 84.32680950243432 -10.451971735124626, 84.55028387860425 -10.108655082055241 M83.86835896464063 -11.156274872382312 C84.02306066283067 -10.918611520739846, 84.17776236102071 -10.68094816909738, 84.55028387860425 -10.108655082055241 M84.55028387860425 -10.108655082055241 C84.75691715397083 -9.741756777753844, 84.9635504293374 -9.374858473452448, 85.1636864742735 -9.019496659696287 M84.55028387860425 -10.108655082055241 C84.78712178931006 -9.688125389158051, 85.02395970001587 -9.267595696260859, 85.1636864742735 -9.019496659696287 M85.1636864742735 -9.019496659696287 C85.34280168688288 -8.647560088261326, 85.52191689949224 -8.275623516826366, 85.70604614880834 -7.893275190886684 M85.1636864742735 -9.019496659696287 C85.29754266262191 -8.741541420527206, 85.43139885097031 -8.463586181358126, 85.70604614880834 -7.893275190886684 M85.70604614880834 -7.893275190886684 C85.8821609364617 -7.458268260435102, 86.05827572411506 -7.02326132998352, 86.17513422997033 -6.734618561215508 M85.70604614880834 -7.893275190886684 C85.87984596591579 -7.463986282440394, 86.05364578302326 -7.034697373994104, 86.17513422997033 -6.734618561215508 M86.17513422997033 -6.734618561215508 C86.29324819612638 -6.378878114058305, 86.41136216228244 -6.023137666901102, 86.56902313421489 -5.548287939305138 M86.17513422997033 -6.734618561215508 C86.29284313678143 -6.380098088267876, 86.41055204359253 -6.025577615320244, 86.56902313421489 -5.548287939305138 M86.56902313421489 -5.548287939305138 C86.68288312194515 -5.114090458858789, 86.79674310967542 -4.67989297841244, 86.88609428754556 -4.339158212148133 M86.56902313421489 -5.548287939305138 C86.68381428684904 -5.11053952351085, 86.7986054394832 -4.672791107716562, 86.88609428754556 -4.339158212148133 M86.88609428754556 -4.339158212148133 C86.96380102445555 -3.940150541439989, 87.04150776136554 -3.5411428707318446, 87.12504477658177 -3.1121979531509023 M86.88609428754556 -4.339158212148133 C86.93780566370607 -4.073631224767144, 86.98951703986657 -3.808104237386155, 87.12504477658177 -3.1121979531509023 M87.12504477658177 -3.1121979531509023 C87.17347409663155 -2.7365897102957293, 87.22190341668134 -2.3609814674405563, 87.28489270250937 -1.872449005199798 M87.12504477658177 -3.1121979531509023 C87.18357068373152 -2.658282574545055, 87.24209659088127 -2.2043671959392075, 87.28489270250937 -1.872449005199798 M87.28489270250937 -1.872449005199798 C87.3115919210531 -1.4565871251599802, 87.33829113959682 -1.0407252451201625, 87.36498121591342 -0.6250057626472757 M87.28489270250937 -1.872449005199798 C87.31038496136435 -1.4753864965523782, 87.33587722021934 -1.0783239879049584, 87.36498121591342 -0.6250057626472757 M87.36498121591342 -0.6250057626472757 C87.36498121591342 -0.30381322224771684, 87.36498121591342 0.017379318151842016, 87.36498121591342 0.625005762647271 M87.36498121591342 -0.6250057626472757 C87.36498121591342 -0.3379637897993846, 87.36498121591342 -0.05092181695149345, 87.36498121591342 0.625005762647271 M87.36498121591342 0.625005762647271 C87.3428360590809 0.9699344555625624, 87.32069090224839 1.3148631484778537, 87.28489270250937 1.8724490051997846 M87.36498121591342 0.625005762647271 C87.34856873317594 0.8806434292010958, 87.33215625043846 1.1362810957549208, 87.28489270250937 1.8724490051997846 M87.28489270250937 1.8724490051997846 C87.23205318093372 2.282261900196767, 87.17921365935807 2.69207479519375, 87.12504477658177 3.1121979531508885 M87.28489270250937 1.8724490051997846 C87.22824288483247 2.3118138043299874, 87.17159306715557 2.7511786034601897, 87.12504477658177 3.1121979531508885 M87.12504477658177 3.1121979531508885 C87.04656601246288 3.515169820408765, 86.96808724834398 3.9181416876666413, 86.88609428754556 4.339158212148129 M87.12504477658177 3.1121979531508885 C87.03666605556283 3.566004006733826, 86.9482873345439 4.019810060316764, 86.88609428754556 4.339158212148129 M86.88609428754556 4.339158212148129 C86.78214015004467 4.735580392447233, 86.67818601254378 5.132002572746336, 86.56902313421489 5.548287939305125 M86.88609428754556 4.339158212148129 C86.76998391956526 4.781937367808801, 86.65387355158498 5.224716523469474, 86.56902313421489 5.548287939305125 M86.56902313421489 5.548287939305125 C86.46754011462188 5.853938625195893, 86.36605709502888 6.159589311086659, 86.17513422997033 6.734618561215495 M86.56902313421489 5.548287939305125 C86.43733969314708 5.944897482894276, 86.30565625207927 6.341507026483425, 86.17513422997033 6.734618561215495 M86.17513422997033 6.734618561215495 C86.06280107432356 7.012083627476835, 85.95046791867678 7.289548693738174, 85.70604614880834 7.893275190886679 M86.17513422997033 6.734618561215495 C85.99521863395448 7.179013561806038, 85.81530303793865 7.62340856239658, 85.70604614880834 7.893275190886679 M85.70604614880834 7.893275190886679 C85.51643662026474 8.287003433901457, 85.32682709172114 8.680731676916237, 85.1636864742735 9.019496659696284 M85.70604614880834 7.893275190886679 C85.59337820800563 8.127232580671237, 85.48071026720294 8.361189970455795, 85.1636864742735 9.019496659696284 M85.1636864742735 9.019496659696284 C84.98051318040818 9.344739391261484, 84.79733988654284 9.669982122826683, 84.55028387860425 10.108655082055236 M85.1636864742735 9.019496659696284 C84.99527822274348 9.31852256347249, 84.82686997121345 9.617548467248698, 84.55028387860425 10.108655082055236 M84.55028387860425 10.108655082055236 C84.39037047208858 10.354325017225515, 84.2304570655729 10.599994952395793, 83.86835896464065 11.156274872382301 M84.55028387860425 10.108655082055236 C84.32441632689422 10.455648295411814, 84.09854877518421 10.802641508768392, 83.86835896464065 11.156274872382301 M83.86835896464065 11.156274872382301 C83.70503899453118 11.375108753573633, 83.54171902442171 11.593942634764964, 83.12071390812659 12.158051136245302 M83.86835896464065 11.156274872382301 C83.65130642748011 11.447105498284511, 83.43425389031955 11.73793612418672, 83.12071390812659 12.158051136245302 M83.12071390812659 12.158051136245302 C82.90886360278955 12.406902559518052, 82.69701329745251 12.6557539827908, 82.31042094296866 13.10986736009567 M83.12071390812659 12.158051136245302 C82.82822418209483 12.501626211579104, 82.53573445606305 12.845201286912905, 82.31042094296866 13.10986736009567 M82.31042094296866 13.10986736009567 C82.11280708435275 13.313919893516115, 81.91519322573686 13.51797242693656, 81.44080973676799 14.007812326905684 M82.31042094296866 13.10986736009567 C82.1094394800587 13.317397221435185, 81.90845801714875 13.524927082774697, 81.44080973676799 14.007812326905684 M81.44080973676799 14.007812326905684 C81.12261075559758 14.296792222520969, 80.80441177442715 14.585772118136253, 80.5154537085019 14.848196188198111 M81.44080973676799 14.007812326905684 C81.2537831638215 14.177664912003742, 81.066756590875 14.347517497101798, 80.5154537085019 14.848196188198111 M80.5154537085019 14.848196188198111 C80.2533724019457 15.057199055900202, 79.99129109538951 15.266201923602296, 79.53815534457871 15.627565626425152 M80.5154537085019 14.848196188198111 C80.29344419356664 15.025242868437658, 80.0714346786314 15.202289548677205, 79.53815534457871 15.627565626425152 M79.53815534457871 15.627565626425152 C79.30193281686272 15.792344235851417, 79.06571028914672 15.95712284527768, 78.5129305736057 16.34271804539089 M79.53815534457871 15.627565626425152 C79.16056236297358 15.890958144656166, 78.78296938136845 16.15435066288718, 78.5129305736057 16.34271804539089 M78.5129305736057 16.34271804539089 C78.26440974634153 16.493372831348918, 78.01588891907737 16.644027617306946, 77.44399226407678 16.990714730406093 M78.5129305736057 16.34271804539089 C78.12327380097635 16.578930270836175, 77.73361702834698 16.815142496281457, 77.44399226407678 16.990714730406093 M77.44399226407678 16.990714730406093 C77.05537614165672 17.193455512552127, 76.66676001923668 17.396196294698164, 76.33573291279238 17.56889292409717 M77.44399226407678 16.990714730406093 C77.16572101876362 17.13588866084473, 76.88744977345046 17.281062591283373, 76.33573291279238 17.56889292409717 M76.33573291279238 17.56889292409717 C75.92281191730194 17.75168079993466, 75.5098909218115 17.93446867577215, 75.1927065951478 18.07487676824742 M76.33573291279238 17.56889292409717 C75.92541377968425 17.75052903263952, 75.5150946465761 17.93216514118187, 75.1927065951478 18.07487676824742 M75.1927065951478 18.07487676824742 C74.78256062382096 18.225814277043497, 74.37241465249411 18.376751785839573, 74.01961025146062 18.506587066708033 M75.1927065951478 18.07487676824742 C74.82078111888394 18.211748781553936, 74.44885564262009 18.348620794860448, 74.01961025146062 18.506587066708033 M74.01961025146062 18.506587066708033 C73.73244131007931 18.591817301129474, 73.44527236869799 18.677047535550916, 72.82126438623541 18.86224982926107 M74.01961025146062 18.506587066708033 C73.57972522306837 18.637142634131223, 73.13984019467611 18.767698201554413, 72.82126438623541 18.86224982926107 M72.82126438623541 18.86224982926107 C72.53310178598952 18.928021062330494, 72.24493918574362 18.993792295399917, 71.60259325967677 19.140403561325773 M72.82126438623541 18.86224982926107 C72.54417408096538 18.92549388325573, 72.26708377569534 18.98873793725039, 71.60259325967677 19.140403561325773 M71.60259325967677 19.140403561325773 C71.31556599815923 19.18680790303827, 71.02853873664168 19.23321224475077, 70.36860465284788 19.3399052695533 M71.60259325967677 19.140403561325773 C71.205830118121 19.20454914910839, 70.80906697656523 19.268694736891014, 70.36860465284788 19.3399052695533 M70.36860465284788 19.3399052695533 C69.93237155634073 19.381988151726286, 69.49613845983356 19.424071033899278, 69.1243692896239 19.45993515863156 M70.36860465284788 19.3399052695533 C69.95554958317058 19.379752195353667, 69.54249451349328 19.419599121154032, 69.1243692896239 19.45993515863156 M69.1243692896239 19.45993515863156 C68.72438110321812 19.47276200123982, 68.32439291681234 19.485588843848078, 67.875 19.5 M69.1243692896239 19.45993515863156 C68.63777109565046 19.47553941560636, 68.15117290167703 19.49114367258116, 67.875 19.5 M67.875 19.5 C67.875 19.5, 67.875 19.5, 67.875 19.5 M67.875 19.5 C67.875 19.5, 67.875 19.5, 67.875 19.5 M67.875 19.5 C23.669221810411003 19.5, -20.536556379177995 19.5, -67.875 19.5 M67.875 19.5 C29.495980289366216 19.5, -8.883039421267569 19.5, -67.875 19.5 M-67.875 19.5 C-68.17897801714746 19.490252016647396, -68.48295603429492 19.480504033294796, -69.1243692896239 19.45993515863156 M-67.875 19.5 C-68.27356610092023 19.487218760905343, -68.67213220184045 19.47443752181068, -69.1243692896239 19.45993515863156 M-69.1243692896239 19.45993515863156 C-69.55071999763595 19.41880561859138, -69.97707070564799 19.377676078551207, -70.36860465284786 19.3399052695533 M-69.1243692896239 19.45993515863156 C-69.4985835096866 19.423835162880557, -69.8727977297493 19.387735167129552, -70.36860465284786 19.3399052695533 M-70.36860465284786 19.3399052695533 C-70.70442951543149 19.285611710131484, -71.0402543780151 19.23131815070967, -71.60259325967675 19.140403561325773 M-70.36860465284786 19.3399052695533 C-70.75969138299983 19.276677399945218, -71.15077811315179 19.213449530337137, -71.60259325967675 19.140403561325773 M-71.60259325967675 19.140403561325773 C-72.04110215705735 19.040316767036632, -72.47961105443794 18.940229972747492, -72.82126438623538 18.862249829261074 M-71.60259325967675 19.140403561325773 C-71.88959129934486 19.074898131608762, -72.17658933901298 19.00939270189175, -72.82126438623538 18.862249829261074 M-72.82126438623538 18.862249829261074 C-73.18203107982728 18.755176168306015, -73.5427977734192 18.64810250735096, -74.01961025146059 18.506587066708043 M-72.82126438623538 18.862249829261074 C-73.2335736181422 18.739878613486454, -73.64588285004902 18.617507397711833, -74.01961025146059 18.506587066708043 M-74.01961025146059 18.506587066708043 C-74.44468222394255 18.350156651512442, -74.86975419642451 18.193726236316845, -75.1927065951478 18.074876768247425 M-74.01961025146059 18.506587066708043 C-74.36080760428058 18.38102328687653, -74.70200495710057 18.25545950704502, -75.1927065951478 18.074876768247425 M-75.1927065951478 18.074876768247425 C-75.62712410837945 17.882573021677445, -76.06154162161108 17.690269275107468, -76.33573291279238 17.568892924097174 M-75.1927065951478 18.074876768247425 C-75.64668885671325 17.873912287957705, -76.10067111827871 17.67294780766799, -76.33573291279238 17.568892924097174 M-76.33573291279238 17.568892924097174 C-76.58744081990419 17.437577070183554, -76.839148727016 17.306261216269935, -77.44399226407678 16.990714730406097 M-76.33573291279238 17.568892924097174 C-76.62689701773003 17.41699279705071, -76.91806112266768 17.26509267000425, -77.44399226407678 16.990714730406097 M-77.44399226407678 16.990714730406097 C-77.70962589902388 16.829686059864656, -77.97525953397097 16.66865738932322, -78.51293057360569 16.3427180453909 M-77.44399226407678 16.990714730406097 C-77.7400720012329 16.81122945378439, -78.03615173838902 16.63174417716268, -78.51293057360569 16.3427180453909 M-78.51293057360569 16.3427180453909 C-78.86022865902612 16.100457935293417, -79.20752674444654 15.858197825195937, -79.53815534457871 15.627565626425156 M-78.51293057360569 16.3427180453909 C-78.91585094294418 16.06165823788204, -79.31877131228268 15.78059843037318, -79.53815534457871 15.627565626425156 M-79.53815534457871 15.627565626425156 C-79.79036226817166 15.426437316367874, -80.04256919176463 15.225309006310594, -80.51545370850187 14.848196188198125 M-79.53815534457871 15.627565626425156 C-79.86822791743734 15.36434153317045, -80.19830049029596 15.101117439915743, -80.51545370850187 14.848196188198125 M-80.51545370850187 14.848196188198125 C-80.83638878488557 14.556731443303251, -81.15732386126926 14.265266698408377, -81.44080973676797 14.007812326905697 M-80.51545370850187 14.848196188198125 C-80.7590990602214 14.626923926269196, -81.00274441194092 14.405651664340267, -81.44080973676797 14.007812326905697 M-81.44080973676797 14.007812326905697 C-81.7678185647697 13.670148864069839, -82.0948273927714 13.33248540123398, -82.31042094296865 13.109867360095677 M-81.44080973676797 14.007812326905697 C-81.68974800873794 13.750763122884488, -81.93868628070788 13.493713918863278, -82.31042094296865 13.109867360095677 M-82.31042094296865 13.109867360095677 C-82.48621250131032 12.90337259284452, -82.66200405965198 12.696877825593361, -83.12071390812658 12.158051136245307 M-82.31042094296865 13.109867360095677 C-82.48679082583531 12.902693259949851, -82.663160708702 12.695519159804025, -83.12071390812658 12.158051136245307 M-83.12071390812658 12.158051136245307 C-83.283884091468 11.93941795567732, -83.4470542748094 11.720784775109333, -83.86835896464063 11.156274872382316 M-83.12071390812658 12.158051136245307 C-83.3292780050279 11.87859424697763, -83.53784210192924 11.59913735770995, -83.86835896464063 11.156274872382316 M-83.86835896464063 11.156274872382316 C-84.13266435870366 10.750230811165627, -84.3969697527667 10.344186749948939, -84.55028387860425 10.108655082055249 M-83.86835896464063 11.156274872382316 C-84.01974946640733 10.923698407626848, -84.17113996817402 10.69112194287138, -84.55028387860425 10.108655082055249 M-84.55028387860425 10.108655082055249 C-84.67427186689248 9.888501853704234, -84.79825985518073 9.668348625353218, -85.1636864742735 9.019496659696289 M-84.55028387860425 10.108655082055249 C-84.73213813822491 9.785754429358153, -84.91399239784558 9.462853776661056, -85.1636864742735 9.019496659696289 M-85.1636864742735 9.019496659696289 C-85.29689244237649 8.742891616779302, -85.43009841047947 8.466286573862316, -85.70604614880834 7.893275190886686 M-85.1636864742735 9.019496659696289 C-85.32560897830076 8.683261115497121, -85.48753148232801 8.347025571297952, -85.70604614880834 7.893275190886686 M-85.70604614880834 7.893275190886686 C-85.87970471514568 7.4643351745734865, -86.05336328148302 7.035395158260286, -86.17513422997033 6.73461856121551 M-85.70604614880834 7.893275190886686 C-85.82663462874373 7.595419314026599, -85.94722310867914 7.297563437166512, -86.17513422997033 6.73461856121551 M-86.17513422997033 6.73461856121551 C-86.29624223971773 6.369860531797271, -86.41735024946512 6.0051025023790325, -86.56902313421489 5.5482879393051325 M-86.17513422997033 6.73461856121551 C-86.29717382434521 6.367054747327135, -86.41921341872009 5.999490933438761, -86.56902313421489 5.5482879393051325 M-86.56902313421489 5.5482879393051325 C-86.67349653996912 5.149885564103741, -86.77796994572337 4.75148318890235, -86.88609428754556 4.339158212148136 M-86.56902313421489 5.5482879393051325 C-86.67874252209319 5.129880360641651, -86.78846190997149 4.711472781978168, -86.88609428754556 4.339158212148136 M-86.88609428754556 4.339158212148136 C-86.93902764319557 4.067356618353969, -86.9919609988456 3.795555024559802, -87.12504477658177 3.112197953150904 M-86.88609428754556 4.339158212148136 C-86.95685233089843 3.975830614248913, -87.0276103742513 3.61250301634969, -87.12504477658177 3.112197953150904 M-87.12504477658177 3.112197953150904 C-87.18601968209217 2.639288626869326, -87.24699458760256 2.1663793005877476, -87.28489270250937 1.872449005199809 M-87.12504477658177 3.112197953150904 C-87.17990498304901 2.6867130251640727, -87.23476518951627 2.2612280971772414, -87.28489270250937 1.872449005199809 M-87.28489270250937 1.872449005199809 C-87.30479915273769 1.5623899746963672, -87.324705602966 1.2523309441929253, -87.36498121591342 0.6250057626472781 M-87.28489270250937 1.872449005199809 C-87.30105673353404 1.6206811746195768, -87.31722076455871 1.3689133440393446, -87.36498121591342 0.6250057626472781 M-87.36498121591342 0.6250057626472781 C-87.36498121591342 0.27327465338943097, -87.36498121591342 -0.07845645586841621, -87.36498121591342 -0.6250057626472687 M-87.36498121591342 0.6250057626472781 C-87.36498121591342 0.2239517084451777, -87.36498121591342 -0.17710234575692274, -87.36498121591342 -0.6250057626472687 M-87.36498121591342 -0.6250057626472687 C-87.3414389904646 -0.9916949269550193, -87.31789676501577 -1.3583840912627698, -87.28489270250937 -1.8724490051997822 M-87.36498121591342 -0.6250057626472687 C-87.33864262318684 -1.0352506044929703, -87.31230403046028 -1.445495446338672, -87.28489270250937 -1.8724490051997822 M-87.28489270250937 -1.8724490051997822 C-87.24246976189086 -2.201472955279752, -87.20004682127235 -2.5304969053597217, -87.12504477658177 -3.112197953150895 M-87.28489270250937 -1.8724490051997822 C-87.2471135384962 -2.1654567409462246, -87.209334374483 -2.458464476692667, -87.12504477658177 -3.112197953150895 M-87.12504477658177 -3.112197953150895 C-87.04189651392447 -3.5391467085046164, -86.95874825126717 -3.9660954638583372, -86.88609428754556 -4.339158212148126 M-87.12504477658177 -3.112197953150895 C-87.06879050844374 -3.401051730695886, -87.01253624030572 -3.6899055082408765, -86.88609428754556 -4.339158212148126 M-86.88609428754556 -4.339158212148126 C-86.78483930542491 -4.725287343161012, -86.68358432330426 -5.1114164741738985, -86.56902313421489 -5.548287939305123 M-86.88609428754556 -4.339158212148126 C-86.82119930086803 -4.5866309220146935, -86.7563043141905 -4.834103631881262, -86.56902313421489 -5.548287939305123 M-86.56902313421489 -5.548287939305123 C-86.41635825035462 -6.008090245646259, -86.26369336649434 -6.467892551987395, -86.17513422997033 -6.734618561215485 M-86.56902313421489 -5.548287939305123 C-86.41199543991304 -6.0212303355768375, -86.25496774561118 -6.494172731848553, -86.17513422997033 -6.734618561215485 M-86.17513422997033 -6.734618561215485 C-86.01637890474355 -7.1267472838510235, -85.85762357951678 -7.518876006486562, -85.70604614880834 -7.893275190886676 M-86.17513422997033 -6.734618561215485 C-85.99802040814129 -7.172093125396015, -85.82090658631225 -7.609567689576544, -85.70604614880834 -7.893275190886676 M-85.70604614880834 -7.893275190886676 C-85.48921604714948 -8.343527536402261, -85.27238594549061 -8.793779881917844, -85.1636864742735 -9.019496659696282 M-85.70604614880834 -7.893275190886676 C-85.52041202775264 -8.278748415192752, -85.33477790669693 -8.664221639498827, -85.1636864742735 -9.019496659696282 M-85.1636864742735 -9.019496659696282 C-85.00313364556177 -9.304574464810802, -84.84258081685003 -9.589652269925322, -84.55028387860425 -10.108655082055243 M-85.1636864742735 -9.019496659696282 C-84.98319371349965 -9.339979833324168, -84.80270095272579 -9.660463006952053, -84.55028387860425 -10.108655082055243 M-84.55028387860425 -10.108655082055243 C-84.32923200330956 -10.448250123247687, -84.10818012801487 -10.787845164440132, -83.86835896464063 -11.156274872382308 M-84.55028387860425 -10.108655082055243 C-84.40003208758685 -10.339482181313144, -84.24978029656944 -10.570309280571045, -83.86835896464063 -11.156274872382308 M-83.86835896464063 -11.156274872382308 C-83.61013038453251 -11.502277644619587, -83.3519018044244 -11.848280416856868, -83.12071390812659 -12.158051136245302 M-83.86835896464063 -11.156274872382308 C-83.67821797831056 -11.411046471864418, -83.48807699198046 -11.665818071346528, -83.12071390812659 -12.158051136245302 M-83.12071390812659 -12.158051136245302 C-82.92198284970955 -12.391491945579528, -82.7232517912925 -12.624932754913754, -82.31042094296866 -13.10986736009567 M-83.12071390812659 -12.158051136245302 C-82.90192680433104 -12.415050917702436, -82.68313970053549 -12.672050699159568, -82.31042094296866 -13.10986736009567 M-82.31042094296866 -13.10986736009567 C-82.12784176104863 -13.298395355457714, -81.9452625791286 -13.486923350819758, -81.44080973676799 -14.007812326905677 M-82.31042094296866 -13.10986736009567 C-82.11129418793254 -13.315482083281085, -81.91216743289644 -13.521096806466499, -81.44080973676799 -14.007812326905677 M-81.44080973676799 -14.007812326905677 C-81.22589052251807 -14.202996270836657, -81.01097130826815 -14.398180214767637, -80.5154537085019 -14.848196188198107 M-81.44080973676799 -14.007812326905677 C-81.21665316017888 -14.211385398905898, -80.99249658358976 -14.41495847090612, -80.5154537085019 -14.848196188198107 M-80.5154537085019 -14.848196188198107 C-80.3079364509706 -15.01368567881317, -80.10041919343931 -15.179175169428234, -79.53815534457871 -15.627565626425149 M-80.5154537085019 -14.848196188198107 C-80.15251072792562 -15.13763355688935, -79.78956774734934 -15.427070925580594, -79.53815534457871 -15.627565626425149 M-79.53815534457871 -15.627565626425149 C-79.28382073051425 -15.80497844322852, -79.0294861164498 -15.982391260031893, -78.51293057360571 -16.342718045390885 M-79.53815534457871 -15.627565626425149 C-79.18637595634178 -15.872951699374955, -78.83459656810486 -16.11833777232476, -78.51293057360571 -16.342718045390885 M-78.51293057360571 -16.342718045390885 C-78.13260147858438 -16.57327577785467, -77.75227238356304 -16.803833510318455, -77.44399226407678 -16.99071473040609 M-78.51293057360571 -16.342718045390885 C-78.28192107902265 -16.48275735856961, -78.05091158443959 -16.62279667174834, -77.44399226407678 -16.99071473040609 M-77.44399226407678 -16.99071473040609 C-77.12071699908105 -17.159367229086676, -76.79744173408533 -17.328019727767263, -76.3357329127924 -17.56889292409717 M-77.44399226407678 -16.99071473040609 C-77.18652393169027 -17.1250357944958, -76.92905559930375 -17.25935685858551, -76.3357329127924 -17.56889292409717 M-76.3357329127924 -17.56889292409717 C-76.09742924277083 -17.674382889788507, -75.85912557274926 -17.779872855479848, -75.19270659514781 -18.07487676824742 M-76.3357329127924 -17.56889292409717 C-76.07100691005878 -17.68607927268948, -75.80628090732517 -17.803265621281792, -75.19270659514781 -18.07487676824742 M-75.19270659514781 -18.07487676824742 C-74.73258979970335 -18.24420400224401, -74.2724730042589 -18.413531236240605, -74.01961025146062 -18.506587066708033 M-75.19270659514781 -18.07487676824742 C-74.88724487058927 -18.187289506542193, -74.58178314603073 -18.299702244836965, -74.01961025146062 -18.506587066708033 M-74.01961025146062 -18.506587066708033 C-73.61414313957336 -18.62692757717587, -73.2086760276861 -18.747268087643707, -72.82126438623541 -18.862249829261067 M-74.01961025146062 -18.506587066708033 C-73.58458452898408 -18.635700417642454, -73.14955880650754 -18.764813768576875, -72.82126438623541 -18.862249829261067 M-72.82126438623541 -18.862249829261067 C-72.3509868886962 -18.969587599226923, -71.88070939115698 -19.07692536919278, -71.60259325967677 -19.140403561325773 M-72.82126438623541 -18.862249829261067 C-72.47244052992409 -18.941866598175736, -72.12361667361274 -19.021483367090404, -71.60259325967677 -19.140403561325773 M-71.60259325967677 -19.140403561325773 C-71.18228236105922 -19.208356167854557, -70.76197146244168 -19.27630877438334, -70.36860465284788 -19.3399052695533 M-71.60259325967677 -19.140403561325773 C-71.2639716491569 -19.195149277264814, -70.92535003863705 -19.249894993203856, -70.36860465284788 -19.3399052695533 M-70.36860465284788 -19.3399052695533 C-69.93120602163808 -19.38210058945729, -69.49380739042827 -19.424295909361284, -69.1243692896239 -19.45993515863156 M-70.36860465284788 -19.3399052695533 C-70.10332117051422 -19.36549684804396, -69.83803768818055 -19.391088426534623, -69.1243692896239 -19.45993515863156 M-69.1243692896239 -19.45993515863156 C-68.70434073022723 -19.473404656995417, -68.28431217083055 -19.486874155359274, -67.875 -19.5 M-69.1243692896239 -19.45993515863156 C-68.83472542044022 -19.46922347375869, -68.54508155125656 -19.478511788885818, -67.875 -19.5 M-67.875 -19.5 C-67.875 -19.5, -67.875 -19.5, -67.875 -19.5 M-67.875 -19.5 C-67.875 -19.5, -67.875 -19.5, -67.875 -19.5" stroke="#89b4fa" stroke-width="1.3" fill="none" stroke-dasharray="0 0" style="fill:#89b4fa !important;stroke:#89b4fa !important"/></g><g class="label" style="color:#1e1e2e !important;font-weight:bold !important" transform="translate(-75, -12)"><rect/><foreignObject width="150" height="24"><div style="color: rgb(30, 30, 46) !important; font-weight: bold !important; display: table-cell; white-space: nowrap; line-height: 1.5; max-width: 200px; text-align: center;" xmlns="http://www.w3.org/1999/xhtml"><span style="color:#1e1e2e !important;font-weight:bold !important" class="nodeLabel "><p>provider-filter</p></span></div></foreignObject></g></g><g class="node default monitoring__alerting_c " id="my-svg-flowchart-monitoring__alerting-1" data-look="classic" transform="translate(595.7299652099609, 43.5)"><polygon points="-31.5,0 246.5,0 215,-63 0,-63" class="label-container" transform="translate(-107.5,31.5)" style="fill:#cba6f7 !important;stroke:#f38ba8 !important;stroke-dasharray:5 5 !important;stroke-width:2px !important"/><g class="label" style="color:#1e1e2e !important" transform="translate(-100, -24)"><rect/><foreignObject width="200" height="48"><div style="color: rgb(30, 30, 46) !important; display: table; white-space: break-spaces; line-height: 1.5; max-width: 200px; text-align: center; width: 200px;" xmlns="http://www.w3.org/1999/xhtml"><span style="color:#1e1e2e !important" class="nodeLabel "><p>monitoring/alerting · host</p></span></div></foreignObject></g></g><g class="node default backup_c " id="my-svg-flowchart-backup-2" data-look="classic" transform="translate(541.7299652099609, 137)"><rect class="basic label-container" style="fill:#89b4fa !important;stroke:#89b4fa !important;stroke-width:3px !important" x="-95" y="-27" width="190" height="54"/><g class="label" style="color:#1e1e2e !important" transform="translate(-65, -12)"><rect/><foreignObject width="130" height="24"><div style="color: rgb(30, 30, 46) !important; display: table-cell; white-space: nowrap; line-height: 1.5; max-width: 200px; text-align: center;" xmlns="http://www.w3.org/1999/xhtml"><span style="color:#1e1e2e !important" class="nodeLabel "><p>backup · host</p></span></div></foreignObject></g></g><g class="node default virtualization__docker_c " id="my-svg-flowchart-virtualization__docker-3" data-look="classic" transform="translate(595.7299652099609, 230.5)"><polygon points="-31.5,0 266.5,0 235,-63 0,-63" class="label-container" transform="translate(-117.5,31.5)" style="fill:#cba6f7 !important;stroke:#cba6f7 !important;stroke-width:3px !important"/><g class="label" style="color:#1e1e2e !important" transform="translate(-110, -24)"><rect/><foreignObject width="220" height="48"><div style="color: rgb(30, 30, 46) !important; display: table; white-space: break-spaces; line-height: 1.5; max-width: 200px; text-align: center; width: 200px;" xmlns="http://www.w3.org/1999/xhtml"><span style="color:#1e1e2e !important" class="nodeLabel "><p>virtualization/docker · host</p></span></div></foreignObject></g></g><g class="node default monitoring_c " id="my-svg-flowchart-monitoring-4" data-look="classic" transform="translate(1039.729965209961, 43.5)"><rect class="basic label-container" style="fill:#89b4fa !important;stroke:#89b4fa !important;stroke-width:3px !important" x="-115" y="-27" width="230" height="54"/><g class="label" style="color:#1e1e2e !important" transform="translate(-85, -12)"><rect/><foreignObject width="170" height="24"><div style="color: rgb(30, 30, 46) !important; display: table-cell; white-space: nowrap; line-height: 1.5; max-width: 200px; text-align: center;" xmlns="http://www.w3.org/1999/xhtml"><span style="color:#1e1e2e !important" class="nodeLabel "><p>monitoring · host</p></span></div></foreignObject></g></g><g class="node default networking_c " id="my-svg-flowchart-networking-5" data-look="classic" transform="translate(561.7299652099609, 324)"><rect class="basic label-container" style="fill:#89b4fa !important;stroke:#89b4fa !important;stroke-width:3px !important" x="-115" y="-27" width="230" height="54"/><g class="label" style="color:#1e1e2e !important" transform="translate(-85, -12)"><rect/><foreignObject width="170" height="24"><div style="color: rgb(30, 30, 46) !important; display: table-cell; white-space: nowrap; line-height: 1.5; max-width: 200px; text-align: center;" xmlns="http://www.w3.org/1999/xhtml"><span style="color:#1e1e2e !important" class="nodeLabel "><p>networking · host</p></span></div></foreignObject></g></g><g class="node default monitoring__nginx_exporter_c " id="my-svg-flowchart-monitoring__nginx_exporter-6" data-look="classic" transform="translate(595.7299652099609, 417.5)"><polygon points="-31.5,0 246.5,0 215,-63 0,-63" class="label-container" transform="translate(-107.5,31.5)" style="fill:#89b4fa !important;stroke:#f38ba8 !important;stroke-dasharray:5 5 !important;stroke-width:2px !important"/><g class="label" style="color:#1e1e2e !important" transform="translate(-100, -24)"><rect/><foreignObject width="200" height="48"><div style="color: rgb(30, 30, 46) !important; display: table; white-space: break-spaces; line-height: 1.5; max-width: 200px; text-align: center; width: 200px;" xmlns="http://www.w3.org/1999/xhtml"><span style="color:#1e1e2e !important" class="nodeLabel "><p>monitoring/nginx-exporter · host</p></span></div></foreignObject></g></g><g class="node default monitoring__node_exporter_c " id="my-svg-flowchart-monitoring__node_exporter-7" data-look="classic" transform="translate(595.7299652099609, 515.5)"><polygon points="-31.5,0 246.5,0 215,-63 0,-63" class="label-container" transform="translate(-107.5,31.5)" style="fill:#f2cdcd !important;stroke:#f38ba8 !important;stroke-dasharray:5 5 !important;stroke-width:2px !important"/><g class="label" style="color:#1e1e2e !important" transform="translate(-100, -24)"><rect/><foreignObject width="200" height="48"><div style="color: rgb(30, 30, 46) !important; display: table; white-space: break-spaces; line-height: 1.5; max-width: 200px; text-align: center; width: 200px;" xmlns="http://www.w3.org/1999/xhtml"><span style="color:#1e1e2e !important" class="nodeLabel "><p>monitoring/node-exporter · host</p></span></div></foreignObject></g></g><g class="node default server_c " id="my-svg-flowchart-server-8" data-look="classic" transform="translate(316.72996520996094, 417.5)"><rect class="basic label-container" style="fill:#89b4fa !important;stroke:#89b4fa !important;stroke-width:3px !important" x="-95" y="-27" width="190" height="54"/><g class="label" style="color:#1e1e2e !important" transform="translate(-65, -12)"><rect/><foreignObject width="130" height="24"><div style="color: rgb(30, 30, 46) !important; display: table-cell; white-space: nowrap; line-height: 1.5; max-width: 200px; text-align: center;" xmlns="http://www.w3.org/1999/xhtml"><span style="color:#1e1e2e !important" class="nodeLabel "><p>server · host</p></span></div></foreignObject></g></g><g class="node default tailscale_c " id="my-svg-flowchart-tailscale-9" data-look="classic" transform="translate(556.7299652099609, 609)"><rect class="basic label-container" style="fill:#f2cdcd !important;stroke:#f2cdcd !important;stroke-width:3px !important" x="-110" y="-27" width="220" height="54"/><g class="label" style="color:#1e1e2e !important" transform="translate(-80, -12)"><rect/><foreignObject width="160" height="24"><div style="color: rgb(30, 30, 46) !important; display: table-cell; white-space: nowrap; line-height: 1.5; max-width: 200px; text-align: center;" xmlns="http://www.w3.org/1999/xhtml"><span style="color:#1e1e2e !important" class="nodeLabel "><p>tailscale · host</p></span></div></foreignObject></g></g><g class="node default virtualization_c " id="my-svg-flowchart-virtualization-10" data-look="classic" transform="translate(1054.729965209961, 230.5)"><rect class="basic label-container" style="fill:#89b4fa !important;stroke:#89b4fa !important;stroke-width:3px !important" x="-130" y="-39" width="260" height="78"/><g class="label" style="color:#1e1e2e !important" transform="translate(-100, -24)"><rect/><foreignObject width="200" height="48"><div style="color: rgb(30, 30, 46) !important; display: table; white-space: break-spaces; line-height: 1.5; max-width: 200px; text-align: center; width: 200px;" xmlns="http://www.w3.org/1999/xhtml"><span style="color:#1e1e2e !important" class="nodeLabel "><p>virtualization · host</p></span></div></foreignObject></g></g></g><g class="edges edgePaths"><path d="M186.73,417.5L217.73,417.5" id="my-svg-L_provider_filter_server_0_0" class=" edge-thickness-normal edge-pattern-solid edge-thickness-normal edge-pattern-solid flowchart-link" style=";" data-edge="true" data-et="edge" data-id="L_provider_filter_server_0_0" data-points="W3sieCI6MTg2LjcyOTk2NTIwOTk2MDk0LCJ5Ijo0MTcuNX0seyJ4IjoyMjEuNzI5OTY1MjA5OTYwOTQsInkiOjQxNy41fV0=" data-look="classic" marker-end="url(#my-svg_flowchart-v2-pointEnd)"/><path d="M411.73,417.5L413.813,417.5C415.897,417.5,420.063,417.5,422.618,417.138C425.173,416.776,426.116,416.052,426.949,415.219C427.782,414.386,428.506,413.443,428.868,352.305C429.23,291.167,429.23,169.833,429.592,108.695C429.954,47.557,430.678,46.614,431.511,45.781C432.344,44.948,433.287,44.224,437.509,43.862C441.73,43.5,449.23,43.5,452.98,43.5L456.73,43.5" id="my-svg-L_server_monitoring__alerting_0_0" class=" edge-thickness-normal edge-pattern-dotted edge-thickness-normal edge-pattern-solid flowchart-link" style=";" data-edge="true" data-et="edge" data-id="L_server_monitoring__alerting_0_0" data-points="W3sieCI6NDExLjcyOTk2NTIwOTk2MDk0LCJ5Ijo0MTcuNX0seyJ4Ijo0MjkuMjI5OTY1MjA5OTYwOTQsInkiOjQxNy41fSx7IngiOjQyOS4yMjk5NjUyMDk5NjA5NCwieSI6NDMuNX0seyJ4Ijo0NTYuNzI5OTY1MjA5OTYwOTQsInkiOjQzLjV9XQ==" data-look="classic" marker-end="url(#my-svg_flowchart-v2-crossEnd)"/><path d="M411.73,417.5L413.813,417.5C415.897,417.5,420.063,417.5,422.618,417.138C425.173,416.776,426.116,416.052,426.949,415.219C427.782,414.386,428.506,413.443,428.868,367.888C429.23,322.333,429.23,232.167,429.592,186.612C429.954,141.057,430.678,140.114,431.511,139.281C432.344,138.448,433.287,137.724,435.175,137.362C437.063,137,439.897,137,441.313,137L442.73,137" id="my-svg-L_server_backup_0_0" class=" edge-thickness-normal edge-pattern-solid edge-thickness-normal edge-pattern-solid flowchart-link" style=";" data-edge="true" data-et="edge" data-id="L_server_backup_0_0" data-points="W3sieCI6NDExLjcyOTk2NTIwOTk2MDk0LCJ5Ijo0MTcuNX0seyJ4Ijo0MjkuMjI5OTY1MjA5OTYwOTQsInkiOjQxNy41fSx7IngiOjQyOS4yMjk5NjUyMDk5NjA5NCwieSI6MTM3fSx7IngiOjQ0Ni43Mjk5NjUyMDk5NjA5NCwieSI6MTM3fV0=" data-look="classic" marker-end="url(#my-svg_flowchart-v2-pointEnd)"/><path d="M411.73,417.5L413.813,417.5C415.897,417.5,420.063,417.5,422.618,417.138C425.173,416.776,426.116,416.052,426.949,415.219C427.782,414.386,428.506,413.443,428.868,383.471C429.23,353.5,429.23,294.5,429.592,264.529C429.954,234.557,430.678,233.614,431.511,232.781C432.344,231.948,433.287,231.224,435.175,230.862C437.063,230.5,439.897,230.5,441.313,230.5L442.73,230.5" id="my-svg-L_server_virtualization__docker_0_0" class=" edge-thickness-normal edge-pattern-solid edge-thickness-normal edge-pattern-solid flowchart-link" style=";" data-edge="true" data-et="edge" data-id="L_server_virtualization__docker_0_0" data-points="W3sieCI6NDExLjcyOTk2NTIwOTk2MDk0LCJ5Ijo0MTcuNX0seyJ4Ijo0MjkuMjI5OTY1MjA5OTYwOTQsInkiOjQxNy41fSx7IngiOjQyOS4yMjk5NjUyMDk5NjA5NCwieSI6MjMwLjV9LHsieCI6NDQ2LjcyOTk2NTIwOTk2MDk0LCJ5IjoyMzAuNX1d" data-look="classic" marker-end="url(#my-svg_flowchart-v2-pointEnd)"/><path d="M411.73,417.5L413.813,417.5C415.897,417.5,420.063,417.5,422.618,417.862C425.173,418.224,426.116,418.948,426.949,419.781C427.782,420.614,428.506,421.557,428.868,459.695C429.23,497.833,429.23,573.167,429.592,611.305C429.954,649.443,430.678,650.386,431.511,651.219C432.344,652.052,433.287,652.776,460.675,653.138C488.063,653.5,541.897,653.5,608.647,653.5C675.397,653.5,755.063,653.5,806.147,653.5C857.23,653.5,879.73,653.5,891.451,653.138C903.173,652.776,904.116,652.052,904.949,651.219C905.782,650.386,906.506,649.443,906.868,548.971C907.23,448.5,907.23,248.5,907.592,148.029C907.954,47.557,908.678,46.614,909.511,45.781C910.344,44.948,911.287,44.224,913.175,43.862C915.063,43.5,917.897,43.5,919.313,43.5L920.73,43.5" id="my-svg-L_server_monitoring_0_0" class=" edge-thickness-normal edge-pattern-solid edge-thickness-normal edge-pattern-solid flowchart-link" style=";" data-edge="true" data-et="edge" data-id="L_server_monitoring_0_0" data-points="W3sieCI6NDExLjcyOTk2NTIwOTk2MDk0LCJ5Ijo0MTcuNX0seyJ4Ijo0MjkuMjI5OTY1MjA5OTYwOTQsInkiOjQxNy41fSx7IngiOjQyOS4yMjk5NjUyMDk5NjA5NCwieSI6NjUzLjV9LHsieCI6NTk1LjcyOTk2NTIwOTk2MDksInkiOjY1My41fSx7IngiOjgzNC43Mjk5NjUyMDk5NjA5LCJ5Ijo2NTMuNX0seyJ4Ijo5MDcuMjI5OTY1MjA5OTYwOSwieSI6NjUzLjV9LHsieCI6OTA3LjIyOTk2NTIwOTk2MDksInkiOjQzLjV9LHsieCI6OTI0LjcyOTk2NTIwOTk2MDksInkiOjQzLjV9XQ==" data-look="classic" marker-end="url(#my-svg_flowchart-v2-pointEnd)"/><path d="M411.73,417.5L413.813,417.5C415.897,417.5,420.063,417.5,422.618,417.138C425.173,416.776,426.116,416.052,426.949,415.219C427.782,414.386,428.506,413.443,428.868,399.055C429.23,384.667,429.23,356.833,429.592,342.445C429.954,328.057,430.678,327.114,431.511,326.281C432.344,325.448,433.287,324.724,435.175,324.362C437.063,324,439.897,324,441.313,324L442.73,324" id="my-svg-L_server_networking_0_0" class=" edge-thickness-normal edge-pattern-solid edge-thickness-normal edge-pattern-solid flowchart-link" style=";" data-edge="true" data-et="edge" data-id="L_server_networking_0_0" data-points="W3sieCI6NDExLjcyOTk2NTIwOTk2MDk0LCJ5Ijo0MTcuNX0seyJ4Ijo0MjkuMjI5OTY1MjA5OTYwOTQsInkiOjQxNy41fSx7IngiOjQyOS4yMjk5NjUyMDk5NjA5NCwieSI6MzI0fSx7IngiOjQ0Ni43Mjk5NjUyMDk5NjA5NCwieSI6MzI0fV0=" data-look="classic" marker-end="url(#my-svg_flowchart-v2-pointEnd)"/><path d="M411.73,417.5L456.73,417.5" id="my-svg-L_server_monitoring__nginx_exporter_0_0" class=" edge-thickness-normal edge-pattern-dotted edge-thickness-normal edge-pattern-solid flowchart-link" style=";" data-edge="true" data-et="edge" data-id="L_server_monitoring__nginx_exporter_0_0" data-points="W3sieCI6NDExLjcyOTk2NTIwOTk2MDk0LCJ5Ijo0MTcuNX0seyJ4Ijo0NTYuNzI5OTY1MjA5OTYwOTQsInkiOjQxNy41fV0=" data-look="classic" marker-end="url(#my-svg_flowchart-v2-crossEnd)"/><path d="M411.73,417.5L413.813,417.5C415.897,417.5,420.063,417.5,422.618,417.862C425.173,418.224,426.116,418.948,426.949,419.781C427.782,420.614,428.506,421.557,428.868,436.695C429.23,451.833,429.23,481.167,429.592,496.305C429.954,511.443,430.678,512.386,431.511,513.219C432.344,514.052,433.287,514.776,437.509,515.138C441.73,515.5,449.23,515.5,452.98,515.5L456.73,515.5" id="my-svg-L_server_monitoring__node_exporter_0_0" class=" edge-thickness-normal edge-pattern-dotted edge-thickness-normal edge-pattern-solid flowchart-link" style=";" data-edge="true" data-et="edge" data-id="L_server_monitoring__node_exporter_0_0" data-points="W3sieCI6NDExLjcyOTk2NTIwOTk2MDk0LCJ5Ijo0MTcuNX0seyJ4Ijo0MjkuMjI5OTY1MjA5OTYwOTQsInkiOjQxNy41fSx7IngiOjQyOS4yMjk5NjUyMDk5NjA5NCwieSI6NTE1LjV9LHsieCI6NDU2LjcyOTk2NTIwOTk2MDk0LCJ5Ijo1MTUuNX1d" data-look="classic" marker-end="url(#my-svg_flowchart-v2-crossEnd)"/><path d="M411.73,417.5L413.813,417.5C415.897,417.5,420.063,417.5,422.618,417.862C425.173,418.224,426.116,418.948,426.949,419.781C427.782,420.614,428.506,421.557,428.868,452.279C429.23,483,429.23,543.5,429.592,574.221C429.954,604.943,430.678,605.886,431.511,606.719C432.344,607.552,433.287,608.276,435.175,608.638C437.063,609,439.897,609,441.313,609L442.73,609" id="my-svg-L_server_tailscale_0_0" class=" edge-thickness-normal edge-pattern-solid edge-thickness-normal edge-pattern-solid flowchart-link" style=";" data-edge="true" data-et="edge" data-id="L_server_tailscale_0_0" data-points="W3sieCI6NDExLjcyOTk2NTIwOTk2MDk0LCJ5Ijo0MTcuNX0seyJ4Ijo0MjkuMjI5OTY1MjA5OTYwOTQsInkiOjQxNy41fSx7IngiOjQyOS4yMjk5NjUyMDk5NjA5NCwieSI6NjA5fSx7IngiOjQ0Ni43Mjk5NjUyMDk5NjA5NCwieSI6NjA5fV0=" data-look="classic" marker-end="url(#my-svg_flowchart-v2-pointEnd)"/><path d="M411.73,417.5L413.813,417.5C415.897,417.5,420.063,417.5,422.618,417.862C425.173,418.224,426.116,418.948,426.949,419.781C427.782,420.614,428.506,421.557,428.868,459.695C429.23,497.833,429.23,573.167,429.592,611.305C429.954,649.443,430.678,650.386,431.511,651.219C432.344,652.052,433.287,652.776,460.675,653.138C488.063,653.5,541.897,653.5,608.647,653.5C675.397,653.5,755.063,653.5,806.147,653.5C857.23,653.5,879.73,653.5,891.451,653.138C903.173,652.776,904.116,652.052,904.949,651.219C905.782,650.386,906.506,649.443,906.868,580.138C907.23,510.833,907.23,373.167,907.592,303.862C907.954,234.557,908.678,233.614,909.511,232.781C910.344,231.948,911.287,231.224,913.175,230.862C915.063,230.5,917.897,230.5,919.313,230.5L920.73,230.5" id="my-svg-L_server_virtualization_0_0" class=" edge-thickness-normal edge-pattern-solid edge-thickness-normal edge-pattern-solid flowchart-link" style=";" data-edge="true" data-et="edge" data-id="L_server_virtualization_0_0" data-points="W3sieCI6NDExLjcyOTk2NTIwOTk2MDk0LCJ5Ijo0MTcuNX0seyJ4Ijo0MjkuMjI5OTY1MjA5OTYwOTQsInkiOjQxNy41fSx7IngiOjQyOS4yMjk5NjUyMDk5NjA5NCwieSI6NjUzLjV9LHsieCI6NTk1LjcyOTk2NTIwOTk2MDksInkiOjY1My41fSx7IngiOjgzNC43Mjk5NjUyMDk5NjA5LCJ5Ijo2NTMuNX0seyJ4Ijo5MDcuMjI5OTY1MjA5OTYwOSwieSI6NjUzLjV9LHsieCI6OTA3LjIyOTk2NTIwOTk2MDksInkiOjIzMC41fSx7IngiOjkyNC43Mjk5NjUyMDk5NjA5LCJ5IjoyMzAuNX1d" data-look="classic" marker-end="url(#my-svg_flowchart-v2-pointEnd)"/><path d="M734.73,515.5L762.647,515.5C790.563,515.5,846.397,515.5,874.785,515.138C903.173,514.776,904.116,514.052,904.949,513.219C905.782,512.386,906.506,511.443,906.868,433.971C907.23,356.5,907.23,202.5,907.592,125.029C907.954,47.557,908.678,46.614,909.511,45.781C910.344,44.948,911.287,44.224,913.175,43.862C915.063,43.5,917.897,43.5,919.313,43.5L920.73,43.5" id="my-svg-L_monitoring__node_exporter_monitoring_0_0" class=" edge-thickness-normal edge-pattern-dotted edge-thickness-normal edge-pattern-solid flowchart-link" style=";" data-edge="true" data-et="edge" data-id="L_monitoring__node_exporter_monitoring_0_0" data-points="W3sieCI6NzM0LjcyOTk2NTIwOTk2MDksInkiOjUxNS41fSx7IngiOjkwNy4yMjk5NjUyMDk5NjA5LCJ5Ijo1MTUuNX0seyJ4Ijo5MDcuMjI5OTY1MjA5OTYwOSwieSI6NDMuNX0seyJ4Ijo5MjQuNzI5OTY1MjA5OTYwOSwieSI6NDMuNX1d" data-look="classic" marker-end="url(#my-svg_flowchart-v2-pointEnd)"/><path d="M734.73,417.5L762.647,417.5C790.563,417.5,846.397,417.5,874.785,417.138C903.173,416.776,904.116,416.052,904.949,415.219C905.782,414.386,906.506,413.443,906.868,352.305C907.23,291.167,907.23,169.833,907.592,108.695C907.954,47.557,908.678,46.614,909.511,45.781C910.344,44.948,911.287,44.224,913.175,43.862C915.063,43.5,917.897,43.5,919.313,43.5L920.73,43.5" id="my-svg-L_monitoring__nginx_exporter_monitoring_0_0" class=" edge-thickness-normal edge-pattern-dotted edge-thickness-normal edge-pattern-solid flowchart-link" style=";" data-edge="true" data-et="edge" data-id="L_monitoring__nginx_exporter_monitoring_0_0" data-points="W3sieCI6NzM0LjcyOTk2NTIwOTk2MDksInkiOjQxNy41fSx7IngiOjkwNy4yMjk5NjUyMDk5NjA5LCJ5Ijo0MTcuNX0seyJ4Ijo5MDcuMjI5OTY1MjA5OTYwOSwieSI6NDMuNX0seyJ4Ijo5MjQuNzI5OTY1MjA5OTYwOSwieSI6NDMuNX1d" data-look="classic" marker-end="url(#my-svg_flowchart-v2-pointEnd)"/><path d="M734.73,43.5L920.73,43.5" id="my-svg-L_monitoring__alerting_monitoring_0_0" class=" edge-thickness-normal edge-pattern-dotted edge-thickness-normal edge-pattern-solid flowchart-link" style=";" data-edge="true" data-et="edge" data-id="L_monitoring__alerting_monitoring_0_0" data-points="W3sieCI6NzM0LjcyOTk2NTIwOTk2MDksInkiOjQzLjV9LHsieCI6OTI0LjcyOTk2NTIwOTk2MDksInkiOjQzLjV9XQ==" data-look="classic" marker-end="url(#my-svg_flowchart-v2-pointEnd)"/><path d="M744.73,230.5L920.73,230.5" id="my-svg-L_virtualization__docker_virtualization_0_0" class=" edge-thickness-normal edge-pattern-dotted edge-thickness-normal edge-pattern-solid flowchart-link" style=";" data-edge="true" data-et="edge" data-id="L_virtualization__docker_virtualization_0_0" data-points="W3sieCI6NzQ0LjcyOTk2NTIwOTk2MDksInkiOjIzMC41fSx7IngiOjkyNC43Mjk5NjUyMDk5NjA5LCJ5IjoyMzAuNX1d" data-look="classic" marker-end="url(#my-svg_flowchart-v2-pointEnd)"/></g><g class="edgeLabels"><g class="edgeLabel"><g class="label" data-id="L_provider_filter_server_0_0" transform="translate(0, 0)"><foreignObject width="0" height="0"><div xmlns="http://www.w3.org/1999/xhtml" class="labelBkg" style="display: table-cell; white-space: nowrap; line-height: 1.5; max-width: 200px; text-align: center;"><span class="edgeLabel "></span></div></foreignObject></g></g><g class="edgeLabel"><g class="label" data-id="L_server_monitoring__alerting_0_0" transform="translate(0, 0)"><foreignObject width="0" height="0"><div xmlns="http://www.w3.org/1999/xhtml" class="labelBkg" style="display: table-cell; white-space: nowrap; line-height: 1.5; max-width: 200px; text-align: center;"><span class="edgeLabel "></span></div></foreignObject></g></g><g class="edgeLabel"><g class="label" data-id="L_server_backup_0_0" transform="translate(0, 0)"><foreignObject width="0" height="0"><div xmlns="http://www.w3.org/1999/xhtml" class="labelBkg" style="display: table-cell; white-space: nowrap; line-height: 1.5; max-width: 200px; text-align: center;"><span class="edgeLabel "></span></div></foreignObject></g></g><g class="edgeLabel"><g class="label" data-id="L_server_virtualization__docker_0_0" transform="translate(0, 0)"><foreignObject width="0" height="0"><div xmlns="http://www.w3.org/1999/xhtml" class="labelBkg" style="display: table-cell; white-space: nowrap; line-height: 1.5; max-width: 200px; text-align: center;"><span class="edgeLabel "></span></div></foreignObject></g></g><g class="edgeLabel"><g class="label" data-id="L_server_monitoring_0_0" transform="translate(0, 0)"><foreignObject width="0" height="0"><div xmlns="http://www.w3.org/1999/xhtml" class="labelBkg" style="display: table-cell; white-space: nowrap; line-height: 1.5; max-width: 200px; text-align: center;"><span class="edgeLabel "></span></div></foreignObject></g></g><g class="edgeLabel"><g class="label" data-id="L_server_networking_0_0" transform="translate(0, 0)"><foreignObject width="0" height="0"><div xmlns="http://www.w3.org/1999/xhtml" class="labelBkg" style="display: table-cell; white-space: nowrap; line-height: 1.5; max-width: 200px; text-align: center;"><span class="edgeLabel "></span></div></foreignObject></g></g><g class="edgeLabel"><g class="label" data-id="L_server_monitoring__nginx_exporter_0_0" transform="translate(0, 0)"><foreignObject width="0" height="0"><div xmlns="http://www.w3.org/1999/xhtml" class="labelBkg" style="display: table-cell; white-space: nowrap; line-height: 1.5; max-width: 200px; text-align: center;"><span class="edgeLabel "></span></div></foreignObject></g></g><g class="edgeLabel"><g class="label" data-id="L_server_monitoring__node_exporter_0_0" transform="translate(0, 0)"><foreignObject width="0" height="0"><div xmlns="http://www.w3.org/1999/xhtml" class="labelBkg" style="display: table-cell; white-space: nowrap; line-height: 1.5; max-width: 200px; text-align: center;"><span class="edgeLabel "></span></div></foreignObject></g></g><g class="edgeLabel"><g class="label" data-id="L_server_tailscale_0_0" transform="translate(0, 0)"><foreignObject width="0" height="0"><div xmlns="http://www.w3.org/1999/xhtml" class="labelBkg" style="display: table-cell; white-space: nowrap; line-height: 1.5; max-width: 200px; text-align: center;"><span class="edgeLabel "></span></div></foreignObject></g></g><g class="edgeLabel"><g class="label" data-id="L_server_virtualization_0_0" transform="translate(0, 0)"><foreignObject width="0" height="0"><div xmlns="http://www.w3.org/1999/xhtml" class="labelBkg" style="display: table-cell; white-space: nowrap; line-height: 1.5; max-width: 200px; text-align: center;"><span class="edgeLabel "></span></div></foreignObject></g></g><g class="edgeLabel" transform="translate(834.7299652099609, 515)"><g class="label" data-id="L_monitoring__node_exporter_monitoring_0_0" transform="translate(-55, -12)"><foreignObject width="110" height="24"><div xmlns="http://www.w3.org/1999/xhtml" class="labelBkg" style="display: table-cell; white-space: nowrap; line-height: 1.5; max-width: 200px; text-align: center;"><span class="edgeLabel "><p>provided-by</p></span></div></foreignObject></g></g><g class="edgeLabel" transform="translate(834.7299652099609, 417)"><g class="label" data-id="L_monitoring__nginx_exporter_monitoring_0_0" transform="translate(-55, -12)"><foreignObject width="110" height="24"><div xmlns="http://www.w3.org/1999/xhtml" class="labelBkg" style="display: table-cell; white-space: nowrap; line-height: 1.5; max-width: 200px; text-align: center;"><span class="edgeLabel "><p>provided-by</p></span></div></foreignObject></g></g><g class="edgeLabel" transform="translate(834.7299652099609, 43)"><g class="label" data-id="L_monitoring__alerting_monitoring_0_0" transform="translate(-55, -12)"><foreignObject width="110" height="24"><div xmlns="http://www.w3.org/1999/xhtml" class="labelBkg" style="display: table-cell; white-space: nowrap; line-height: 1.5; max-width: 200px; text-align: center;"><span class="edgeLabel "><p>provided-by</p></span></div></foreignObject></g></g><g class="edgeLabel" transform="translate(834.7299652099609, 230)"><g class="label" data-id="L_virtualization__docker_virtualization_0_0" transform="translate(-55, -12)"><foreignObject width="110" height="24"><div xmlns="http://www.w3.org/1999/xhtml" class="labelBkg" style="display: table-cell; white-space: nowrap; line-height: 1.5; max-width: 200px; text-align: center;"><span class="edgeLabel "><p>provided-by</p></span></div></foreignObject></g></g></g></svg>