<?plantuml 1.2026.2?><svg xmlns="http://www.w3.org/2000/svg" xmlns:xlink="http://www.w3.org/1999/xlink" contentStyleType="text/css" data-diagram-type="DESCRIPTION" height="399px" preserveAspectRatio="none" style="width:1904px;height:399px;background:#1E1E2E;" version="1.1" viewBox="0 0 1904 399" width="1904px" zoomAndPan="magnify"><defs/><g><rect fill="#1E1E2E" height="399" style="stroke:none;stroke-width:1;" width="1904" x="0" y="0"/><!--cluster user { host, user }--><g class="cluster" data-qualified-name="user . host. user ." data-source-line="23" id="ent0003"><path d="M8.5,202.24 L169.0993,202.24 A3.75,3.75 0 0 1 171.5993,204.74 L178.5993,226.7199 L719.5,226.7199 A2.5,2.5 0 0 1 722,229.2199 L722,291.22 A2.5,2.5 0 0 1 719.5,293.72 L8.5,293.72 A2.5,2.5 0 0 1 6,291.22 L6,204.74 A2.5,2.5 0 0 1 8.5,202.24" fill="#313244" style="stroke:#6C7086;stroke-width:1.5;"/><line style="stroke:#6C7086;stroke-width:1.5;" x1="6" x2="178.5993" y1="226.7199" y2="226.7199"/><text fill="#CDD6F4" font-family="'JetBrains Mono,monospace'" font-size="14" font-weight="bold" lengthAdjust="spacing" textLength="159.5993" x="10" y="218.5199">user { host, user }</text></g><!--cluster default { host, user }--><g class="cluster" data-qualified-name="default . host. user ." data-source-line="28" id="ent0007"><path d="M748.5,87.76 L934.2992,87.76 A3.75,3.75 0 0 1 936.7992,90.26 L943.7992,112.2399 L1775.5,112.2399 A2.5,2.5 0 0 1 1778,114.7399 L1778,389.7 A2.5,2.5 0 0 1 1775.5,392.2 L748.5,392.2 A2.5,2.5 0 0 1 746,389.7 L746,90.26 A2.5,2.5 0 0 1 748.5,87.76" fill="#313244" style="stroke:#6C7086;stroke-width:1.5;"/><line style="stroke:#6C7086;stroke-width:1.5;" x1="746" x2="943.7992" y1="112.2399" y2="112.2399"/><text fill="#CDD6F4" font-family="'JetBrains Mono,monospace'" font-size="14" font-weight="bold" lengthAdjust="spacing" textLength="184.7992" x="750" y="104.0399">default { host, user }</text></g><!--entity user__aspect_user_--><g class="entity" data-qualified-name="user . host. user ..user__aspect_user_" data-source-line="24" id="ent0004"><rect fill="#FAB387" height="38.4799" rx="2.5" ry="2.5" style="stroke:#A6ADC8;stroke-width:0.5;" width="162.7994" x="543.6" y="239.24"/><text fill="#1E1E2E" font-family="'JetBrains Mono,monospace'" font-size="14" lengthAdjust="spacing" textLength="142.7994" x="553.6" y="263.5199">user/aspect(user)</text></g><!--entity user__cross_provide__anon__--><g class="entity" data-qualified-name="user . host. user ..user__cross_provide__anon__" data-source-line="25" id="ent0005"><rect fill="#F38BA8" height="38.4799" rx="2.5" ry="2.5" style="stroke:#A6ADC8;stroke-width:0.5;" width="238.399" x="21.8" y="239.24"/><text fill="#1E1E2E" font-family="'JetBrains Mono,monospace'" font-size="14" lengthAdjust="spacing" textLength="218.399" x="31.8" y="263.5199">user/cross-provide(&lt;anon&gt;)</text></g><!--entity user__self_provide_user_--><g class="entity" data-qualified-name="user . host. user ..user__self_provide_user_" data-source-line="26" id="ent0006"><rect fill="#F2CDCD" height="38.4799" rx="2.5" ry="2.5" style="stroke:#A6ADC8;stroke-width:0.5;" width="213.1992" x="295.4" y="239.24"/><text fill="#1E1E2E" font-family="'JetBrains Mono,monospace'" font-size="14" lengthAdjust="spacing" textLength="193.1992" x="305.4" y="263.5199">user/self-provide(user)</text></g><!--entity n_default--><g class="entity" data-qualified-name="default . host. user ..n_default" data-source-line="29" id="ent0008"><polygon fill="#FAB387" points="1481,148.24,1376,124.76,1166,124.76,1061,148.24,1166,171.72,1376,171.72,1481,148.24" style="stroke:#A6ADC8;stroke-width:0.5;"/><text fill="#1E1E2E" font-family="'JetBrains Mono,monospace'" font-size="14" lengthAdjust="spacing" textLength="58.7997" x="1165.9995" y="144.0399">default</text><text fill="#1E1E2E" font-family="'JetBrains Mono,monospace'" font-size="14" lengthAdjust="spacing" textLength="209.9991" x="1165.9995" y="162.5199">({ aspect-chain, class })</text></g><!--entity default__aspect_default_--><g class="entity" data-qualified-name="default . host. user ..default__aspect_default_" data-source-line="30" id="ent0009"><rect fill="#A6E3A1" height="38.4799" rx="2.5" ry="2.5" style="stroke:#A6ADC8;stroke-width:0.5;" width="213.1992" x="1015.4" y="337.72"/><text fill="#1E1E2E" font-family="'JetBrains Mono,monospace'" font-size="14" lengthAdjust="spacing" textLength="193.1992" x="1025.4" y="361.9999">default/aspect(default)</text></g><!--entity den__provides__default__aspect_default__den__provides--><g class="entity" data-qualified-name="default . host. user ..den__provides__default__aspect_default__den__provides" data-source-line="31" id="ent0010"><rect fill="#A6E3A1" height="24.4799" rx="2.5" ry="2.5" style="stroke:#A6ADC8;stroke-width:0.5;" width="397.9984" x="1264" y="344.72"/><text fill="#1E1E2E" font-family="'JetBrains Mono,monospace'" font-size="14" lengthAdjust="spacing" textLength="377.9984" x="1274" y="361.9999">provides/default/aspect(default):den/provides</text></g><!--entity default__cross_provide_user_--><g class="entity" data-qualified-name="default . host. user ..default__cross_provide_user_" data-source-line="32" id="ent0011"><rect fill="#F9E2AF" height="38.4799" rx="2.5" ry="2.5" style="stroke:#A6ADC8;stroke-width:0.5;" width="246.799" x="1515.6" y="129"/><text fill="#1E1E2E" font-family="'JetBrains Mono,monospace'" font-size="14" lengthAdjust="spacing" textLength="226.799" x="1525.6" y="153.2799">default/cross-provide(user)</text></g><!--entity default__self_provide_default_--><g class="entity" data-qualified-name="default . host. user ..default__self_provide_default_" data-source-line="33" id="ent0012"><rect fill="#FAB387" height="38.4799" rx="2.5" ry="2.5" style="stroke:#A6ADC8;stroke-width:0.5;" width="263.5989" x="762.2" y="129"/><text fill="#1E1E2E" font-family="'JetBrains Mono,monospace'" font-size="14" lengthAdjust="spacing" textLength="243.5989" x="772.2" y="153.2799">default/self-provide(default)</text></g><!--entity den__provides__define_user--><g class="entity" data-qualified-name="default . host. user ..den__provides__define_user" data-source-line="34" id="ent0013"><rect fill="#A6E3A1" height="24.4799" rx="2.5" ry="2.5" style="stroke:#A6ADC8;stroke-width:0.5;" width="187.9993" x="1495" y="246.24"/><text fill="#1E1E2E" font-family="'JetBrains Mono,monospace'" font-size="14" lengthAdjust="spacing" textLength="167.9993" x="1505" y="263.5199">provides/define-user</text></g><!--entity den__provides__hostname--><g class="entity" data-qualified-name="default . host. user ..den__provides__hostname" data-source-line="35" id="ent0014"><rect fill="#FAB387" height="24.4799" rx="2.5" ry="2.5" style="stroke:#A6ADC8;stroke-width:0.5;" width="162.7994" x="1040.6" y="246.24"/><text fill="#1E1E2E" font-family="'JetBrains Mono,monospace'" font-size="14" lengthAdjust="spacing" textLength="142.7994" x="1050.6" y="263.5199">provides/hostname</text></g><!--entity den__provides__mutual_provider--><g class="entity" data-qualified-name="default . host. user ..den__provides__mutual_provider" data-source-line="36" id="ent0015"><rect fill="#F9E2AF" height="24.4799" rx="2.5" ry="2.5" style="stroke:#A6ADC8;stroke-width:0.5;" width="221.5991" x="1238.2" y="246.24"/><text fill="#1E1E2E" font-family="'JetBrains Mono,monospace'" font-size="14" lengthAdjust="spacing" textLength="201.5991" x="1248.2" y="263.5199">provides/mutual-provider</text></g><!--entity deploy--><g class="entity" data-qualified-name="deploy" data-source-line="22" id="ent0002"><rect fill="#89B4FA" height="38.4799" rx="2.5" ry="2.5" style="stroke:#A6ADC8;stroke-width:0.5;" width="70.3998" x="454.8" y="129"/><text fill="#1E1E2E" font-family="'JetBrains Mono,monospace'" font-size="14" lengthAdjust="spacing" textLength="50.3998" x="464.8" y="153.2799">deploy</text></g><!--entity user--><g class="entity" data-qualified-name="user" data-source-line="38" id="ent0016"><rect fill="#FAB387" height="38.4799" rx="2.5" ry="2.5" style="stroke:#A6ADC8;stroke-width:0.5;" width="53.5999" x="733.2" y="7"/><text fill="#1E1E2E" font-family="'JetBrains Mono,monospace'" font-size="14" lengthAdjust="spacing" textLength="33.5999" x="743.2" y="31.2799">user</text></g><!--entity ctx_user--><g class="entity" data-qualified-name="ctx_user" data-source-line="57" id="ent0034"><ellipse cx="1851" cy="26.24" fill="#F1F1F1" rx="8" ry="8" style="stroke:#181818;stroke-width:0.5;"/><text fill="#CDD6F4" font-family="'JetBrains Mono,monospace'" font-size="14" lengthAdjust="spacing" textLength="67.1997" x="1817.4001" y="57.5199">ctx_user</text></g><!--entity ctx_default--><g class="entity" data-qualified-name="ctx_default" data-source-line="57" id="ent0035"><ellipse cx="1851" cy="148.24" fill="#F1F1F1" rx="8" ry="8" style="stroke:#181818;stroke-width:0.5;"/><text fill="#CDD6F4" font-family="'JetBrains Mono,monospace'" font-size="14" lengthAdjust="spacing" textLength="92.3996" x="1804.8002" y="179.5199">ctx_default</text></g><!--link n_default to default__aspect_default_--><g class="link" data-entity-1="ent0008" data-entity-2="ent0009" data-link-type="dependency" data-source-line="40" id="lnk17"><path d="M1116.91,161.16 C1074.5,167.81 1036.43,178.16 1023,194.24 C992.39,230.91 998.65,260.62 1023,301.72 C1032.39,317.57 1042.876,326.3818 1059.166,334.6218" fill="none" id="n_default-to-default__aspect_default_" style="stroke:#A6ADC8;stroke-width:1;"/><polygon fill="#A6ADC8" points="1064.52,337.33,1058.2945,329.6983,1060.0583,335.0731,1054.6835,336.837,1064.52,337.33" style="stroke:#A6ADC8;stroke-width:1;"/></g><!--link n_default to den__provides__define_user--><g class="link" data-entity-1="ent0008" data-entity-2="ent0013" data-link-type="dependency" data-source-line="41" id="lnk18"><path d="M1390.42,169 C1419.26,175.49 1449.64,183.8 1477,194.24 C1512.88,207.93 1546.1202,228.438 1567.3402,242.608" fill="none" id="n_default-to-den__provides__define_user" style="stroke:#A6ADC8;stroke-width:1;"/><polygon fill="#A6ADC8" points="1572.33,245.94,1567.0667,237.6155,1568.1719,243.1633,1562.624,244.2685,1572.33,245.94" style="stroke:#A6ADC8;stroke-width:1;"/></g><!--link n_default to den__provides__hostname--><g class="link" data-entity-1="ent0008" data-entity-2="ent0014" data-link-type="dependency" data-source-line="42" id="lnk19"><path d="M1239.4,172.2 C1208.31,194.78 1166.9452,224.8348 1142.8152,242.3548" fill="none" id="n_default-to-den__provides__hostname" style="stroke:#A6ADC8;stroke-width:1;"/><polygon fill="#A6ADC8" points="1137.96,245.88,1147.5929,243.829,1142.006,242.9423,1142.8927,237.3554,1137.96,245.88" style="stroke:#A6ADC8;stroke-width:1;"/></g><!--link n_default to den__provides__mutual_provider--><g class="link" data-entity-1="ent0008" data-entity-2="ent0015" data-link-type="dependency" data-source-line="43" id="lnk20"><path d="M1287.54,172.2 C1303.82,194.78 1324.5131,223.4915 1337.1331,241.0115" fill="none" id="n_default-to-den__provides__mutual_provider" style="stroke:#A6ADC8;stroke-width:1;"/><polygon fill="#A6ADC8" points="1340.64,245.88,1338.6254,236.2394,1337.7176,241.8229,1332.1341,240.9152,1340.64,245.88" style="stroke:#A6ADC8;stroke-width:1;"/></g><!--link den__provides__define_user to default__aspect_default_--><g class="link" data-entity-1="ent0013" data-entity-2="ent0009" data-link-type="dependency" data-source-line="44" id="lnk21"><path d="M1562.81,271.15 C1540.42,280.68 1507.16,293.82 1477,301.72 C1464.92,304.88 1334.7949,324.4589 1234.7049,339.3189" fill="none" id="den__provides__define_user-to-default__aspect_default_" style="stroke:#A6ADC8;stroke-width:1;"/><polygon fill="#A6ADC8" points="1228.77,340.2,1238.2598,342.8349,1233.7158,339.4657,1237.085,334.9217,1228.77,340.2" style="stroke:#A6ADC8;stroke-width:1;"/></g><!--link den__provides__define_user to den__provides__default__aspect_default__den__provides--><g class="link" data-entity-1="ent0013" data-entity-2="ent0010" data-link-type="dependency" data-source-line="45" id="lnk22"><path d="M1574.05,270.93 C1549.93,289.4 1507.4441,321.9326 1483.0841,340.5826" fill="none" id="den__provides__define_user-to-den__provides__default__aspect_default__den__provides" style="stroke:#A6ADC8;stroke-width:1;"/><polygon fill="#A6ADC8" points="1478.32,344.23,1487.8977,341.935,1482.2901,341.1905,1483.0345,335.5829,1478.32,344.23" style="stroke:#A6ADC8;stroke-width:1;"/></g><!--link den__provides__hostname to default__aspect_default_--><g class="link" data-entity-1="ent0014" data-entity-2="ent0009" data-link-type="dependency" data-source-line="46" id="lnk23"><path d="M1122,270.93 C1122,287.3 1122,311.59 1122,331.25" fill="none" id="den__provides__hostname-to-default__aspect_default_" style="stroke:#A6ADC8;stroke-width:1;"/><polygon fill="#A6ADC8" points="1122,337.25,1126,328.25,1122,332.25,1118,328.25,1122,337.25" style="stroke:#A6ADC8;stroke-width:1;"/></g><!--link den__provides__hostname to den__provides__default__aspect_default__den__provides--><g class="link" data-entity-1="ent0014" data-entity-2="ent0010" data-link-type="dependency" data-source-line="47" id="lnk24"><path d="M1145.94,271.16 C1165.7,280.44 1194.68,293.23 1221,301.72 C1278.78,320.35 1340.4358,333.7882 1389.4558,343.1182" fill="none" id="den__provides__hostname-to-den__provides__default__aspect_default__den__provides" style="stroke:#A6ADC8;stroke-width:1;"/><polygon fill="#A6ADC8" points="1395.35,344.24,1387.2566,338.6278,1390.4382,343.3051,1385.7608,346.4867,1395.35,344.24" style="stroke:#A6ADC8;stroke-width:1;"/></g><!--link den__provides__mutual_provider to default__aspect_default_--><g class="link" data-entity-1="ent0015" data-entity-2="ent0009" data-link-type="dependency" data-source-line="48" id="lnk25"><path d="M1321.62,271.12 C1282.94,287.56 1217.422,315.4031 1171.352,334.9831" fill="none" id="den__provides__mutual_provider-to-default__aspect_default_" style="stroke:#A6ADC8;stroke-width:1;"/><polygon fill="#A6ADC8" points="1165.83,337.33,1175.6775,337.491,1170.4316,335.3743,1172.5484,330.1284,1165.83,337.33" style="stroke:#A6ADC8;stroke-width:1;"/></g><!--link den__provides__mutual_provider to den__provides__default__aspect_default__den__provides--><g class="link" data-entity-1="ent0015" data-entity-2="ent0010" data-link-type="dependency" data-source-line="49" id="lnk26"><path d="M1362.52,270.93 C1384.35,289.4 1422.5198,321.7043 1444.5598,340.3543" fill="none" id="den__provides__mutual_provider-to-den__provides__default__aspect_default__den__provides" style="stroke:#A6ADC8;stroke-width:1;"/><polygon fill="#A6ADC8" points="1449.14,344.23,1444.8535,335.3629,1445.3231,341.0002,1439.6858,341.4699,1449.14,344.23" style="stroke:#A6ADC8;stroke-width:1;"/></g><!--link deploy to user__self_provide_user_--><g class="link" data-entity-1="ent0002" data-entity-2="ent0006" data-link-type="dependency" data-source-line="50" id="lnk27"><path d="M475.07,167.6 C458.89,187.51 436.9948,214.4343 420.7848,234.3743" fill="none" id="deploy-to-user__self_provide_user_" style="stroke:#A6ADC8;stroke-width:1;"/><polygon fill="#A6ADC8" points="417,239.03,425.781,234.5697,420.154,235.1503,419.5734,229.5233,417,239.03" style="stroke:#A6ADC8;stroke-width:1;"/></g><!--link user to n_default--><g class="link" data-entity-1="ent0016" data-entity-2="ent0008" data-link-type="dependency" data-source-line="51" id="lnk28"><path d="M787.12,31.31 C837.75,39.11 949.95,57.42 1043,79.76 C1096.29,92.55 1149.8952,108.4238 1194.6752,122.4738" fill="none" id="user-to-n_default" style="stroke:#A6ADC8;stroke-width:1;"/><polygon fill="#A6ADC8" points="1200.4,124.27,1193.0102,117.7591,1195.6293,122.7732,1190.6153,125.3923,1200.4,124.27" style="stroke:#A6ADC8;stroke-width:1;"/></g><!--link user to default__cross_provide_user_--><g class="link" data-entity-1="ent0016" data-entity-2="ent0011" data-link-type="dependency" data-source-line="52" id="lnk29"><path d="M787.12,27.82 C903.33,30.49 1359.7,43.16 1498,79.76 C1538.27,90.42 1575.7443,109.5592 1603.4643,125.5692" fill="none" id="user-to-default__cross_provide_user_" style="stroke:#A6ADC8;stroke-width:1;"/><polygon fill="#A6ADC8" points="1608.66,128.57,1602.867,120.605,1604.3303,126.0693,1598.8659,127.5326,1608.66,128.57" style="stroke:#A6ADC8;stroke-width:1;"/></g><!--link user to default__self_provide_default_--><g class="link" data-entity-1="ent0016" data-entity-2="ent0012" data-link-type="dependency" data-source-line="53" id="lnk30"><path d="M780.64,45.73 C805.75,68.21 843.4199,101.9478 868.6399,124.5278" fill="none" id="user-to-default__self_provide_default_" style="stroke:#A6ADC8;stroke-width:1;"/><polygon fill="#A6ADC8" points="873.11,128.53,869.0729,119.5466,869.3849,125.1948,863.7366,125.5068,873.11,128.53" style="stroke:#A6ADC8;stroke-width:1;"/></g><!--link user to deploy--><g class="link" data-entity-1="ent0016" data-entity-2="ent0002" data-link-type="dependency" data-source-line="54" id="lnk31"><path d="M733.05,39.09 C708.92,49.72 672.58,65.74 641,79.76 C601.51,97.3 561.7356,115.0869 531.1556,128.7869" fill="none" id="user-to-deploy" style="stroke:#A6ADC8;stroke-width:1;"/><polygon fill="#A6ADC8" points="525.68,131.24,535.5288,131.2108,530.243,129.1957,532.258,123.9099,525.68,131.24" style="stroke:#A6ADC8;stroke-width:1;"/></g><!--link user to user__aspect_user_--><g class="link" data-entity-1="ent0016" data-entity-2="ent0004" data-link-type="dependency" data-source-line="55" id="lnk32"><path d="M749.18,45.69 C723.9,88.8 664.2348,190.5641 638.9048,233.7641" fill="none" id="user-to-user__aspect_user_" style="stroke:#A6ADC8;stroke-width:1;"/><polygon fill="#A6ADC8" points="635.87,238.94,643.8728,233.1994,638.399,234.6268,636.9717,229.153,635.87,238.94" style="stroke:#A6ADC8;stroke-width:1;"/></g><!--link user to user__cross_provide__anon__--><g class="link" data-entity-1="ent0016" data-entity-2="ent0005" data-link-type="dependency" data-source-line="56" id="lnk33"><path d="M732.75,28.21 C676.03,30.98 541.83,41.38 437,79.76 C327.24,119.94 217.719,198.389 169.479,235.219" fill="none" id="user-to-user__cross_provide__anon__" style="stroke:#A6ADC8;stroke-width:1;"/><polygon fill="#A6ADC8" points="164.71,238.86,174.2908,236.5778,168.6841,235.8258,169.4361,230.2192,164.71,238.86" style="stroke:#A6ADC8;stroke-width:1;"/></g><!--link ctx_user to ctx_default--><g class="link" data-entity-1="ent0034" data-entity-2="ent0035" data-link-type="dependency" data-source-line="57" id="lnk36"><path d="M1851,35.11 C1851,56.91 1851,111.85 1851,133.49" fill="none" id="ctx_user-to-ctx_default" style="stroke:#A6ADC8;stroke-width:1;"/><polygon fill="#A6ADC8" points="1851,139.49,1855,130.49,1851,134.49,1847,130.49,1851,139.49" style="stroke:#A6ADC8;stroke-width:1;"/></g><?plantuml-src hLLTQzim57tNhn3EIme9MJv8tJ7wqC8OWvMnvu6vaUGar96Cv6mT8VzzbYt9ZYqhRUcBiNIFphdtt2jRFUzv3X8EU0FaUIl5aTD7aGc9HtCsPmk6b4DGbi8nAxuANXW8eNIThloG9pWm77rdnOE4FLVuX-1YSYWVAWV2ejOXa5ByDOom1ahYRZ0a-OkH0lWsOm_T0fRpvMBbXmf9cHoITB2MRC-CR-m5je9V5xN0eAG1XGGVGTBhQXKgAAKH8PsVfGPiN-6c1RRLrkJsKxpkWq8DV1B5AzGgL51A8_ewIDfkueYoF1F_8WmArwzu5DzjLYcWl4uJHqV593xXdL3515UBSuHF2ECMZTwUWShBdR5-lwaOzLkIrDj9jS2Z53RB-DPpcaYXr3INui-Uil4Nu8BVjscgU6BY9MiPJpJVCjv0xE5JB4iTNJSd7NHSDhC5eOIYSrEvkRhUudVrU3hGRpu-uRhKATcLrtk2IGPAuNEjonFBvhN01As7PdbZ6bCjd9DshIUPBM5UCf5oWd5a2bAp0RRFbF6P1HdgqaIxaoH3Iia5hgNhgU2oZutnZkkoaTRyExQ0rCzuqKc_CnVzRFnnJlVzsNCsrTe3DfJXAhLXZ_L8yFA3xYEmiU4C3iVY29cjofj53R4RqdbqHfrHTtFjv50pRTFf_U00zM13BeI1jjemgbCE2dWUpFdgkNTCD1hgtriowHpwW3Iw4_2MRFndtvTKzL_G14CVJ-JiToE0-ftqN7mFodkLspYTJRFk_sEwCU-F0v7YfHaQlJ1I_m40?></g></svg>