<?xml version="1.0" encoding="UTF-8" standalone="no"?>
<!DOCTYPE svg PUBLIC "-//W3C//DTD SVG 1.1//EN"
 "http://www.w3.org/Graphics/SVG/1.1/DTD/svg11.dtd">
<!-- Generated by graphviz version 12.2.1 (0)
 -->
<!-- Pages: 1 -->
<svg width="1918pt" height="1378pt"
 viewBox="0.00 0.00 1918.30 1378.00" xmlns="http://www.w3.org/2000/svg" xmlns:xlink="http://www.w3.org/1999/xlink">
<g id="graph0" class="graph" transform="scale(1 1) rotate(0) translate(4 1374)">
<polygon fill="#1e1e2e" stroke="none" points="-4,4 -4,-1374 1914.3,-1374 1914.3,4 -4,4"/>
<g id="clust1" class="cluster">
<title>cluster_ctx_host</title>
<polygon fill="#313244" stroke="#6c7086" stroke-dasharray="5,2" points="511.17,-722 511.17,-1081 1902.3,-1081 1902.3,-722 511.17,-722"/>
<text text-anchor="middle" x="1206.74" y="-1063.7" font-family="Times,serif" font-size="14.00" fill="#cdd6f4">host { host }</text>
</g>
<g id="clust2" class="cluster">
<title>cluster_ctx_default</title>
<polygon fill="#313244" stroke="#6c7086" stroke-dasharray="5,2" points="82,-1089 82,-1362 1543.3,-1362 1543.3,-1089 82,-1089"/>
<text text-anchor="middle" x="812.65" y="-1344.7" font-family="Times,serif" font-size="14.00" fill="#cdd6f4">default { host }</text>
</g>
<g id="clust3" class="cluster">
<title>cluster_ctx_hm_host</title>
<polygon fill="#313244" stroke="#6c7086" stroke-dasharray="5,2" points="82,-495 82,-714 731.8,-714 731.8,-495 82,-495"/>
<text text-anchor="middle" x="406.9" y="-696.7" font-family="Times,serif" font-size="14.00" fill="#cdd6f4">hm&#45;host { host }</text>
</g>
<g id="clust4" class="cluster">
<title>cluster_ctx_hm_user</title>
<polygon fill="#313244" stroke="#6c7086" stroke-dasharray="5,2" points="82,-268 82,-487 732.55,-487 732.55,-268 82,-268"/>
<text text-anchor="middle" x="407.27" y="-469.7" font-family="Times,serif" font-size="14.00" fill="#cdd6f4">hm&#45;user { host, user }</text>
</g>
<g id="clust5" class="cluster">
<title>cluster_ctx_user</title>
<polygon fill="#313244" stroke="#6c7086" stroke-dasharray="5,2" points="82,-8 82,-260 723.92,-260 723.92,-8 82,-8"/>
<text text-anchor="middle" x="402.96" y="-242.7" font-family="Times,serif" font-size="14.00" fill="#cdd6f4">user { host, user }</text>
</g>
<!-- provider_filter -->
<g id="node1" class="node">
<title>provider_filter</title>
<path fill="#89b4fa" stroke="#89b4fa" d="M288.56,-758C288.56,-758 196.81,-758 196.81,-758 190.81,-758 184.81,-752 184.81,-746 184.81,-746 184.81,-734 184.81,-734 184.81,-728 190.81,-722 196.81,-722 196.81,-722 288.56,-722 288.56,-722 294.56,-722 300.56,-728 300.56,-734 300.56,-734 300.56,-746 300.56,-746 300.56,-752 294.56,-758 288.56,-758"/>
<text text-anchor="middle" x="242.68" y="-735.33" font-family="Times,serif" font-size="14.00" fill="#1e1e2e">provider&#45;filter</text>
</g>
<!-- host__self_provide_host_ -->
<g id="node7" class="node">
<title>host__self_provide_host_</title>
<polygon fill="#f2cdcd" stroke="#f2cdcd" points="1894.3,-858 1718.55,-858 1718.55,-822 1894.3,-822 1894.3,-858"/>
<text text-anchor="middle" x="1806.43" y="-835.33" font-family="Times,serif" font-size="14.00" fill="#1e1e2e">host/self&#45;provide(host)</text>
</g>
<!-- provider_filter&#45;&gt;host__self_provide_host_ -->
<g id="edge33" class="edge">
<title>provider_filter&#45;&gt;host__self_provide_host_</title>
<path fill="none" stroke="#a6adc8" d="M300.87,-738.16C404.86,-734.75 631.88,-726.95 823.23,-718 839.23,-717.25 843.21,-716.44 859.23,-716 1163.14,-707.56 1239.32,-710.54 1543.3,-716 1605.22,-717.11 1625.58,-696.73 1682.55,-721 1727.47,-740.13 1765.38,-783.77 1786.75,-812.55"/>
<polygon fill="#a6adc8" stroke="#a6adc8" points="1783.77,-814.4 1792.46,-820.46 1789.44,-810.3 1783.77,-814.4"/>
</g>
<!-- server -->
<g id="node12" class="node">
<title>server</title>
<polygon fill="#89b4fa" stroke="#89b4fa" points="658.17,-843 596.42,-843 596.42,-807 658.17,-807 658.17,-843"/>
<text text-anchor="middle" x="627.3" y="-820.33" font-family="Times,serif" font-size="14.00" fill="#1e1e2e">server</text>
</g>
<!-- provider_filter&#45;&gt;server -->
<g id="edge34" class="edge">
<title>provider_filter&#45;&gt;server</title>
<path fill="none" stroke="#a6adc8" d="M300.97,-752.73C378.81,-770.02 516.14,-800.53 584.8,-815.78"/>
<polygon fill="#a6adc8" stroke="#a6adc8" points="584,-819.19 594.52,-817.94 585.52,-812.35 584,-819.19"/>
</g>
<!-- monitoring__alerting -->
<g id="node2" class="node">
<title>monitoring__alerting</title>
<polygon fill="#cba6f7" stroke="#f38ba8" stroke-dasharray="5,2" points="1287.36,-1028 1107.17,-1028 1043,-992 1351.53,-992 1287.36,-1028"/>
<text text-anchor="middle" x="1197.26" y="-1005.33" font-family="Times,serif" font-size="14.00" fill="#1e1e2e">monitoring/alerting</text>
</g>
<!-- monitoring -->
<g id="node8" class="node">
<title>monitoring</title>
<polygon fill="#89b4fa" stroke="#89b4fa" points="1674.3,-968 1579.55,-968 1579.55,-932 1674.3,-932 1674.3,-968"/>
<text text-anchor="middle" x="1626.93" y="-945.33" font-family="Times,serif" font-size="14.00" fill="#1e1e2e">monitoring</text>
</g>
<!-- monitoring__alerting&#45;&gt;monitoring -->
<g id="edge51" class="edge">
<title>monitoring__alerting&#45;&gt;monitoring</title>
<path fill="none" stroke="#a6adc8" d="M1321.4,-1009.34C1387.86,-1006.75 1470.89,-999.88 1543.3,-983 1554.25,-980.45 1565.64,-976.68 1576.35,-972.6"/>
<polygon fill="#a6adc8" stroke="#a6adc8" points="1577.39,-975.95 1585.38,-969 1574.8,-969.45 1577.39,-975.95"/>
</g>
<!-- backup -->
<g id="node3" class="node">
<title>backup</title>
<polygon fill="#89b4fa" stroke="#89b4fa" points="1660.43,-840 1593.43,-840 1593.43,-804 1660.43,-804 1660.43,-840"/>
<text text-anchor="middle" x="1626.93" y="-817.33" font-family="Times,serif" font-size="14.00" fill="#1e1e2e">backup</text>
</g>
<!-- backup&#45;&gt;host__self_provide_host_ -->
<g id="edge1" class="edge">
<title>backup&#45;&gt;host__self_provide_host_</title>
<path fill="none" stroke="#a6adc8" d="M1660.9,-825.34C1674.3,-826.7 1690.57,-828.35 1707.28,-830.05"/>
<polygon fill="#a6adc8" stroke="#a6adc8" points="1706.49,-833.48 1716.79,-831.01 1707.19,-826.52 1706.49,-833.48"/>
</g>
<!-- virtualization__docker -->
<g id="node4" class="node">
<title>virtualization__docker</title>
<polygon fill="#cba6f7" stroke="#cba6f7" points="1292.14,-786 1102.39,-786 1034.82,-750 1359.71,-750 1292.14,-786"/>
<text text-anchor="middle" x="1197.26" y="-763.33" font-family="Times,serif" font-size="14.00" fill="#1e1e2e">virtualization/docker</text>
</g>
<!-- virtualization__docker&#45;&gt;host__self_provide_host_ -->
<g id="edge48" class="edge">
<title>virtualization__docker&#45;&gt;host__self_provide_host_</title>
<path fill="none" stroke="#a6adc8" d="M1332.73,-764.93C1430.68,-765.24 1566.06,-770.98 1682.55,-795 1706.63,-799.97 1732.31,-808.77 1753.93,-817.29"/>
<polygon fill="#a6adc8" stroke="#a6adc8" points="1752.53,-820.5 1763.11,-820.99 1755.15,-814.01 1752.53,-820.5"/>
</g>
<!-- virtualization -->
<g id="node14" class="node">
<title>virtualization</title>
<polygon fill="#89b4fa" stroke="#89b4fa" points="1682.55,-766 1571.3,-766 1571.3,-730 1682.55,-730 1682.55,-766"/>
<text text-anchor="middle" x="1626.93" y="-743.33" font-family="Times,serif" font-size="14.00" fill="#1e1e2e">virtualization</text>
</g>
<!-- virtualization__docker&#45;&gt;virtualization -->
<g id="edge52" class="edge">
<title>virtualization__docker&#45;&gt;virtualization</title>
<path fill="none" stroke="#a6adc8" d="M1339.19,-761.41C1413.45,-757.94 1501.05,-753.84 1559.71,-751.1"/>
<polygon fill="#a6adc8" stroke="#a6adc8" points="1559.7,-754.6 1569.53,-750.64 1559.38,-747.61 1559.7,-754.6"/>
</g>
<!-- host__aspect_host_ -->
<g id="node5" class="node">
<title>host__aspect_host_</title>
<polygon fill="#89b4fa" stroke="#89b4fa" points="696.8,-951 557.8,-951 557.8,-915 696.8,-915 696.8,-951"/>
<text text-anchor="middle" x="627.3" y="-928.33" font-family="Times,serif" font-size="14.00" fill="#1e1e2e">host/aspect(host)</text>
</g>
<!-- host__cross_provide__anon__ -->
<g id="node6" class="node">
<title>host__cross_provide__anon__</title>
<polygon fill="#cba6f7" stroke="#cba6f7" points="735.42,-897 519.17,-897 519.17,-861 735.42,-861 735.42,-897"/>
<text text-anchor="middle" x="627.3" y="-874.33" font-family="Times,serif" font-size="14.00" fill="#1e1e2e">host/cross&#45;provide(&lt;anon&gt;)</text>
</g>
<!-- monitoring&#45;&gt;host__self_provide_host_ -->
<g id="edge31" class="edge">
<title>monitoring&#45;&gt;host__self_provide_host_</title>
<path fill="none" stroke="#a6adc8" d="M1666.77,-931.61C1672.13,-928.84 1677.52,-925.92 1682.55,-923 1713.6,-904.95 1747.29,-881.93 1771.53,-864.71"/>
<polygon fill="#a6adc8" stroke="#a6adc8" points="1773.32,-867.73 1779.42,-859.07 1769.25,-862.04 1773.32,-867.73"/>
</g>
<!-- networking -->
<g id="node9" class="node">
<title>networking</title>
<polygon fill="#89b4fa" stroke="#89b4fa" points="1675.43,-914 1578.43,-914 1578.43,-878 1675.43,-878 1675.43,-914"/>
<text text-anchor="middle" x="1626.93" y="-891.33" font-family="Times,serif" font-size="14.00" fill="#1e1e2e">networking</text>
</g>
<!-- networking&#45;&gt;host__self_provide_host_ -->
<g id="edge32" class="edge">
<title>networking&#45;&gt;host__self_provide_host_</title>
<path fill="none" stroke="#a6adc8" d="M1675.5,-880.99C1694.12,-875.12 1715.86,-868.26 1736.17,-861.85"/>
<polygon fill="#a6adc8" stroke="#a6adc8" points="1737.02,-865.25 1745.51,-858.9 1734.92,-858.58 1737.02,-865.25"/>
</g>
<!-- monitoring__nginx_exporter -->
<g id="node10" class="node">
<title>monitoring__nginx_exporter</title>
<polygon fill="#89b4fa" stroke="#f38ba8" stroke-dasharray="5,2" points="1315.6,-920 1078.93,-920 994.64,-884 1399.89,-884 1315.6,-920"/>
<text text-anchor="middle" x="1197.26" y="-897.33" font-family="Times,serif" font-size="14.00" fill="#1e1e2e">monitoring/nginx&#45;exporter</text>
</g>
<!-- monitoring__nginx_exporter&#45;&gt;monitoring -->
<g id="edge50" class="edge">
<title>monitoring__nginx_exporter&#45;&gt;monitoring</title>
<path fill="none" stroke="#a6adc8" d="M1344.99,-907.94C1406.54,-911.86 1478.68,-918.34 1543.3,-929 1551.53,-930.36 1560.13,-932.13 1568.55,-934.08"/>
<polygon fill="#a6adc8" stroke="#a6adc8" points="1567.45,-937.41 1578,-936.36 1569.1,-930.61 1567.45,-937.41"/>
</g>
<!-- monitoring__node_exporter -->
<g id="node11" class="node">
<title>monitoring__node_exporter</title>
<polygon fill="#f2cdcd" stroke="#f38ba8" stroke-dasharray="5,2" points="1312.99,-974 1081.54,-974 999.1,-938 1395.43,-938 1312.99,-974"/>
<text text-anchor="middle" x="1197.26" y="-951.33" font-family="Times,serif" font-size="14.00" fill="#1e1e2e">monitoring/node&#45;exporter</text>
</g>
<!-- monitoring__node_exporter&#45;&gt;monitoring -->
<g id="edge49" class="edge">
<title>monitoring__node_exporter&#45;&gt;monitoring</title>
<path fill="none" stroke="#a6adc8" d="M1360.56,-953.72C1433.42,-952.7 1514.78,-951.56 1567.97,-950.81"/>
<polygon fill="#a6adc8" stroke="#a6adc8" points="1567.74,-954.32 1577.69,-950.68 1567.65,-947.32 1567.74,-954.32"/>
</g>
<!-- server&#45;&gt;monitoring__alerting -->
<g id="edge35" class="edge">
<title>server&#45;&gt;monitoring__alerting</title>
<path fill="none" stroke="#f38ba8" stroke-dasharray="5,2" d="M658.47,-819.87C700.7,-814.52 777.38,-811.78 823.23,-852 868.62,-891.82 812.71,-944.51 859.23,-983 924.5,-1037.02 1023.32,-1038.7 1097.1,-1029.9"/>
<polygon fill="#f38ba8" stroke="#f38ba8" points="1097.28,-1033.41 1106.75,-1028.66 1096.39,-1026.46 1097.28,-1033.41"/>
</g>
<!-- server&#45;&gt;backup -->
<g id="edge36" class="edge">
<title>server&#45;&gt;backup</title>
<path fill="none" stroke="#a6adc8" d="M658.56,-824.14C702.67,-822.92 787.25,-820.78 859.23,-820 1163.24,-816.71 1239.29,-816.32 1543.3,-820 1555.7,-820.15 1569.14,-820.43 1581.5,-820.73"/>
<polygon fill="#a6adc8" stroke="#a6adc8" points="1581.36,-824.22 1591.45,-820.98 1581.54,-817.23 1581.36,-824.22"/>
</g>
<!-- server&#45;&gt;virtualization__docker -->
<g id="edge37" class="edge">
<title>server&#45;&gt;virtualization__docker</title>
<path fill="none" stroke="#a6adc8" d="M658.55,-821.6C702.65,-816.66 787.21,-807.32 859.23,-800 930.8,-792.73 1010.98,-785.09 1075.18,-779.11"/>
<polygon fill="#a6adc8" stroke="#a6adc8" points="1075.42,-782.6 1085.05,-778.19 1074.77,-775.63 1075.42,-782.6"/>
</g>
<!-- server&#45;&gt;host__self_provide_host_ -->
<g id="edge38" class="edge">
<title>server&#45;&gt;host__self_provide_host_</title>
<path fill="none" stroke="#a6adc8" d="M658.44,-824.67C811.84,-823.06 1500.18,-816.62 1543.3,-830 1557.67,-834.46 1556.93,-844.58 1571.3,-849 1614.58,-862.3 1664.48,-862.33 1707.07,-858.12"/>
<polygon fill="#a6adc8" stroke="#a6adc8" points="1707.23,-861.62 1716.8,-857.06 1706.48,-854.66 1707.23,-861.62"/>
</g>
<!-- server&#45;&gt;monitoring -->
<g id="edge39" class="edge">
<title>server&#45;&gt;monitoring</title>
<path fill="none" stroke="#a6adc8" d="M658.49,-829.15C702.53,-835.03 787,-845.68 859.23,-851 897.15,-853.8 1510.67,-855.48 1543.3,-875 1564.5,-887.67 1553.25,-906.15 1571.3,-923 1572.05,-923.69 1572.81,-924.38 1573.6,-925.04"/>
<polygon fill="#a6adc8" stroke="#a6adc8" points="1571.24,-927.65 1581.37,-930.76 1575.39,-922.01 1571.24,-927.65"/>
</g>
<!-- server&#45;&gt;networking -->
<g id="edge40" class="edge">
<title>server&#45;&gt;networking</title>
<path fill="none" stroke="#a6adc8" d="M658.66,-825.84C812.39,-830.16 1499.28,-849.94 1543.3,-860 1556.05,-862.91 1569.27,-867.75 1581.3,-872.96"/>
<polygon fill="#a6adc8" stroke="#a6adc8" points="1579.6,-876.03 1590.15,-876.96 1582.48,-869.65 1579.6,-876.03"/>
</g>
<!-- server&#45;&gt;monitoring__nginx_exporter -->
<g id="edge41" class="edge">
<title>server&#45;&gt;monitoring__nginx_exporter</title>
<path fill="none" stroke="#f38ba8" stroke-dasharray="5,2" d="M658.34,-826.14C697.2,-828.28 766.61,-834.45 823.23,-852 840.31,-857.3 842.03,-865.07 859.23,-870 908.84,-884.22 964.07,-892.45 1015.23,-897.13"/>
<polygon fill="#f38ba8" stroke="#f38ba8" points="1014.64,-900.59 1024.91,-897.97 1015.25,-893.62 1014.64,-900.59"/>
</g>
<!-- server&#45;&gt;monitoring__node_exporter -->
<g id="edge42" class="edge">
<title>server&#45;&gt;monitoring__node_exporter</title>
<path fill="none" stroke="#f38ba8" stroke-dasharray="5,2" d="M658.63,-820.87C700.01,-816.94 774.56,-816.1 823.23,-852 853.63,-874.43 828.19,-907.46 859.23,-929 919.64,-970.93 1001.64,-978.29 1069.63,-974.87"/>
<polygon fill="#f38ba8" stroke="#f38ba8" points="1069.56,-978.38 1079.33,-974.29 1069.14,-971.39 1069.56,-978.38"/>
</g>
<!-- tailscale -->
<g id="node13" class="node">
<title>tailscale</title>
<polygon fill="#f2cdcd" stroke="#f2cdcd" points="1664.55,-1035 1589.3,-1035 1589.3,-999 1664.55,-999 1664.55,-1035"/>
<text text-anchor="middle" x="1626.93" y="-1012.33" font-family="Times,serif" font-size="14.00" fill="#1e1e2e">tailscale</text>
</g>
<!-- server&#45;&gt;tailscale -->
<g id="edge43" class="edge">
<title>server&#45;&gt;tailscale</title>
<path fill="none" stroke="#a6adc8" d="M658.54,-819.45C701.21,-813.51 778.82,-809.95 823.23,-852 884.05,-909.59 794.59,-983.73 859.23,-1037 976.54,-1133.68 1392.36,-1055.01 1543.3,-1037 1554.62,-1035.65 1566.64,-1033.29 1577.89,-1030.66"/>
<polygon fill="#a6adc8" stroke="#a6adc8" points="1578.5,-1034.12 1587.37,-1028.32 1576.82,-1027.32 1578.5,-1034.12"/>
</g>
<!-- server&#45;&gt;virtualization -->
<g id="edge44" class="edge">
<title>server&#45;&gt;virtualization</title>
<path fill="none" stroke="#a6adc8" d="M658.36,-810.2C701.55,-789.84 784.23,-754.22 859.23,-741 1114.94,-695.94 1426.11,-723.61 1559.75,-739.34"/>
<polygon fill="#a6adc8" stroke="#a6adc8" points="1559.13,-742.79 1569.48,-740.5 1559.97,-735.84 1559.13,-742.79"/>
</g>
<!-- tailscale&#45;&gt;host__self_provide_host_ -->
<g id="edge45" class="edge">
<title>tailscale&#45;&gt;host__self_provide_host_</title>
<path fill="none" stroke="#a6adc8" d="M1655.47,-998.53C1664.42,-992.09 1674.19,-984.57 1682.55,-977 1721.23,-941.97 1760.57,-895.88 1783.98,-867.09"/>
<polygon fill="#a6adc8" stroke="#a6adc8" points="1786.5,-869.55 1790.06,-859.57 1781.05,-865.15 1786.5,-869.55"/>
</g>
<!-- virtualization&#45;&gt;host__self_provide_host_ -->
<g id="edge47" class="edge">
<title>virtualization&#45;&gt;host__self_provide_host_</title>
<path fill="none" stroke="#a6adc8" d="M1663.42,-766.4C1691.11,-780.75 1729.79,-800.79 1759.78,-816.34"/>
<polygon fill="#a6adc8" stroke="#a6adc8" points="1758.16,-819.44 1768.65,-820.94 1761.39,-813.23 1758.16,-819.44"/>
</g>
<!-- n_default -->
<g id="node15" class="node">
<title>n_default</title>
<polygon fill="#fab387" stroke="#fab387" points="395.37,-1132 319.03,-1166.7 166.34,-1166.7 90,-1132 166.34,-1097.3 319.03,-1097.3 395.37,-1132"/>
<text text-anchor="middle" x="242.68" y="-1135.95" font-family="Times,serif" font-size="14.00" fill="#1e1e2e">default</text>
<text text-anchor="middle" x="242.68" y="-1118.7" font-family="Times,serif" font-size="14.00" fill="#1e1e2e">({ aspect&#45;chain, class })</text>
</g>
<!-- default__aspect_default_ -->
<g id="node16" class="node">
<title>default__aspect_default_</title>
<polygon fill="#a6e3a1" stroke="#a6e3a1" points="1286.26,-1153 1108.26,-1153 1108.26,-1117 1286.26,-1117 1286.26,-1153"/>
<text text-anchor="middle" x="1197.26" y="-1130.33" font-family="Times,serif" font-size="14.00" fill="#1e1e2e">default/aspect(default)</text>
</g>
<!-- n_default&#45;&gt;default__aspect_default_ -->
<g id="edge2" class="edge">
<title>n_default&#45;&gt;default__aspect_default_</title>
<path fill="none" stroke="#a6adc8" d="M358.85,-1114.93C382.77,-1112.04 407.85,-1109.5 431.37,-1108 669.82,-1092.82 950.67,-1112.28 1096.71,-1125.22"/>
<polygon fill="#a6adc8" stroke="#a6adc8" points="1096.07,-1128.67 1106.34,-1126.08 1096.69,-1121.7 1096.07,-1128.67"/>
</g>
<!-- den__provides__define_user -->
<g id="node21" class="node">
<title>den__provides__define_user</title>
<polygon fill="#a6e3a1" stroke="#a6e3a1" points="720.87,-1207 533.73,-1207 467.08,-1171 787.51,-1171 720.87,-1207"/>
<text text-anchor="middle" x="627.3" y="-1184.33" font-family="Times,serif" font-size="14.00" fill="#1e1e2e">provides/define&#45;user</text>
</g>
<!-- n_default&#45;&gt;den__provides__define_user -->
<g id="edge3" class="edge">
<title>n_default&#45;&gt;den__provides__define_user</title>
<path fill="none" stroke="#a6adc8" d="M355.77,-1150.31C380.65,-1154.26 406.89,-1158.35 431.37,-1162 446.81,-1164.3 462.96,-1166.65 479.05,-1168.94"/>
<polygon fill="#a6adc8" stroke="#a6adc8" points="478.29,-1172.36 488.69,-1170.3 479.28,-1165.43 478.29,-1172.36"/>
</g>
<!-- den__provides__hostname -->
<g id="node22" class="node">
<title>den__provides__hostname</title>
<polygon fill="#fab387" stroke="#fab387" points="715.22,-1261 539.38,-1261 476.76,-1225 777.84,-1225 715.22,-1261"/>
<text text-anchor="middle" x="627.3" y="-1238.33" font-family="Times,serif" font-size="14.00" fill="#1e1e2e">provides/hostname</text>
</g>
<!-- n_default&#45;&gt;den__provides__hostname -->
<g id="edge4" class="edge">
<title>n_default&#45;&gt;den__provides__hostname</title>
<path fill="none" stroke="#a6adc8" d="M348.18,-1153.95C364.64,-1159.73 380.97,-1166.97 395.37,-1176 415.63,-1188.71 410.24,-1204.79 431.37,-1216 448.88,-1225.29 468.46,-1231.75 488.27,-1236.2"/>
<polygon fill="#a6adc8" stroke="#a6adc8" points="487.31,-1239.57 497.81,-1238.16 488.72,-1232.72 487.31,-1239.57"/>
</g>
<!-- den__provides__mutual_provider -->
<g id="node23" class="node">
<title>den__provides__mutual_provider</title>
<polygon fill="#f9e2af" stroke="#f9e2af" points="741.72,-1153 512.87,-1153 431.37,-1117 823.23,-1117 741.72,-1153"/>
<text text-anchor="middle" x="627.3" y="-1130.33" font-family="Times,serif" font-size="14.00" fill="#1e1e2e">provides/mutual&#45;provider</text>
</g>
<!-- n_default&#45;&gt;den__provides__mutual_provider -->
<g id="edge5" class="edge">
<title>n_default&#45;&gt;den__provides__mutual_provider</title>
<path fill="none" stroke="#a6adc8" d="M393.81,-1133.18C414.48,-1133.34 435.83,-1133.51 456.82,-1133.67"/>
<polygon fill="#a6adc8" stroke="#a6adc8" points="456.56,-1137.17 466.59,-1133.75 456.61,-1130.17 456.56,-1137.17"/>
</g>
<!-- den__provides__default__aspect_default__den__provides -->
<g id="node17" class="node">
<title>den__provides__default__aspect_default__den__provides</title>
<polygon fill="#a6e3a1" stroke="#a6e3a1" points="1394.69,-1207 999.84,-1207 859.23,-1171 1535.3,-1171 1394.69,-1207"/>
<text text-anchor="middle" x="1197.26" y="-1184.33" font-family="Times,serif" font-size="14.00" fill="#1e1e2e">provides/default/aspect(default):den/provides</text>
</g>
<!-- default__cross_provide_host_ -->
<g id="node18" class="node">
<title>default__cross_provide_host_</title>
<polygon fill="#f9e2af" stroke="#f9e2af" points="346.68,-1221 138.68,-1221 138.68,-1185 346.68,-1185 346.68,-1221"/>
<text text-anchor="middle" x="242.68" y="-1198.33" font-family="Times,serif" font-size="14.00" fill="#1e1e2e">default/cross&#45;provide(host)</text>
</g>
<!-- default__cross_provide_user_ -->
<g id="node19" class="node">
<title>default__cross_provide_user_</title>
<polygon fill="#f9e2af" stroke="#f9e2af" points="347.06,-1275 138.31,-1275 138.31,-1239 347.06,-1239 347.06,-1275"/>
<text text-anchor="middle" x="242.68" y="-1252.33" font-family="Times,serif" font-size="14.00" fill="#1e1e2e">default/cross&#45;provide(user)</text>
</g>
<!-- default__self_provide_default_ -->
<g id="node20" class="node">
<title>default__self_provide_default_</title>
<polygon fill="#fab387" stroke="#fab387" points="350.06,-1329 135.31,-1329 135.31,-1293 350.06,-1293 350.06,-1329"/>
<text text-anchor="middle" x="242.68" y="-1306.33" font-family="Times,serif" font-size="14.00" fill="#1e1e2e">default/self&#45;provide(default)</text>
</g>
<!-- den__provides__define_user&#45;&gt;default__aspect_default_ -->
<g id="edge6" class="edge">
<title>den__provides__define_user&#45;&gt;default__aspect_default_</title>
<path fill="none" stroke="#a6adc8" d="M779.45,-1170.53C806.02,-1167.51 833.42,-1164.54 859.23,-1162 938.89,-1154.15 1029.31,-1147.01 1096.43,-1142.04"/>
<polygon fill="#a6adc8" stroke="#a6adc8" points="1096.61,-1145.54 1106.33,-1141.31 1096.1,-1138.55 1096.61,-1145.54"/>
</g>
<!-- den__provides__define_user&#45;&gt;den__provides__default__aspect_default__den__provides -->
<g id="edge7" class="edge">
<title>den__provides__define_user&#45;&gt;den__provides__default__aspect_default__den__provides</title>
<path fill="none" stroke="#a6adc8" d="M755.05,-1189C803.02,-1189 859.73,-1189 916.23,-1189"/>
<polygon fill="#a6adc8" stroke="#a6adc8" points="916.01,-1192.5 926.01,-1189 916.01,-1185.5 916.01,-1192.5"/>
</g>
<!-- den__provides__hostname&#45;&gt;default__aspect_default_ -->
<g id="edge8" class="edge">
<title>den__provides__hostname&#45;&gt;default__aspect_default_</title>
<path fill="none" stroke="#a6adc8" d="M748.75,-1242.28C774.77,-1237.89 801.09,-1229.89 823.23,-1216 847.66,-1200.67 834.36,-1176.62 859.23,-1162 930.68,-1120 1025.84,-1116.12 1096.82,-1121.08"/>
<polygon fill="#a6adc8" stroke="#a6adc8" points="1096.25,-1124.55 1106.49,-1121.83 1096.79,-1117.57 1096.25,-1124.55"/>
</g>
<!-- den__provides__hostname&#45;&gt;den__provides__default__aspect_default__den__provides -->
<g id="edge9" class="edge">
<title>den__provides__hostname&#45;&gt;den__provides__default__aspect_default__den__provides</title>
<path fill="none" stroke="#a6adc8" d="M770.89,-1229.44C837.38,-1223.12 917.76,-1215.48 990.67,-1208.55"/>
<polygon fill="#a6adc8" stroke="#a6adc8" points="990.7,-1212.06 1000.33,-1207.63 990.04,-1205.09 990.7,-1212.06"/>
</g>
<!-- den__provides__mutual_provider&#45;&gt;default__aspect_default_ -->
<g id="edge10" class="edge">
<title>den__provides__mutual_provider&#45;&gt;default__aspect_default_</title>
<path fill="none" stroke="#a6adc8" d="M783.5,-1135C883.3,-1135 1010.02,-1135 1096.56,-1135"/>
<polygon fill="#a6adc8" stroke="#a6adc8" points="1096.45,-1138.5 1106.45,-1135 1096.45,-1131.5 1096.45,-1138.5"/>
</g>
<!-- den__provides__mutual_provider&#45;&gt;den__provides__default__aspect_default__den__provides -->
<g id="edge11" class="edge">
<title>den__provides__mutual_provider&#45;&gt;den__provides__default__aspect_default__den__provides</title>
<path fill="none" stroke="#a6adc8" d="M749.56,-1150.02C784.89,-1154.17 823.58,-1158.49 859.23,-1162 885.67,-1164.6 913.3,-1167.13 940.87,-1169.53"/>
<polygon fill="#a6adc8" stroke="#a6adc8" points="940.48,-1173.01 950.75,-1170.38 941.08,-1166.03 940.48,-1173.01"/>
</g>
<!-- hm_host -->
<g id="node24" class="node">
<title>hm_host</title>
<polygon fill="#cba6f7" stroke="#cba6f7" points="395.37,-592 319.03,-626.7 166.34,-626.7 90,-592 166.34,-557.3 319.03,-557.3 395.37,-592"/>
<text text-anchor="middle" x="242.68" y="-595.95" font-family="Times,serif" font-size="14.00" fill="#1e1e2e">hm&#45;host</text>
<text text-anchor="middle" x="242.68" y="-578.7" font-family="Times,serif" font-size="14.00" fill="#1e1e2e">({ aspect&#45;chain, class })</text>
</g>
<!-- hm_host__aspect_hm_host_ -->
<g id="node25" class="node">
<title>hm_host__aspect_hm_host_</title>
<polygon fill="#89b4fa" stroke="#89b4fa" points="723.8,-610 530.8,-610 530.8,-574 723.8,-574 723.8,-610"/>
<text text-anchor="middle" x="627.3" y="-587.33" font-family="Times,serif" font-size="14.00" fill="#1e1e2e">hm&#45;host/aspect(hm&#45;host)</text>
</g>
<!-- hm_host&#45;&gt;hm_host__aspect_hm_host_ -->
<g id="edge13" class="edge">
<title>hm_host&#45;&gt;hm_host__aspect_hm_host_</title>
<path fill="none" stroke="#a6adc8" d="M396.55,-592C437.66,-592 481.24,-592 519.27,-592"/>
<polygon fill="#a6adc8" stroke="#a6adc8" points="518.85,-595.5 528.85,-592 518.85,-588.5 518.85,-595.5"/>
</g>
<!-- hm_host__cross_provide_host_ -->
<g id="node26" class="node">
<title>hm_host__cross_provide_host_</title>
<polygon fill="#f2cdcd" stroke="#f2cdcd" points="350.43,-681 134.93,-681 134.93,-645 350.43,-645 350.43,-681"/>
<text text-anchor="middle" x="242.68" y="-658.33" font-family="Times,serif" font-size="14.00" fill="#1e1e2e">hm&#45;host/cross&#45;provide(host)</text>
</g>
<!-- hm_host__self_provide_hm_host_ -->
<g id="node27" class="node">
<title>hm_host__self_provide_hm_host_</title>
<polygon fill="#cba6f7" stroke="#cba6f7" points="357.56,-539 127.81,-539 127.81,-503 357.56,-503 357.56,-539"/>
<text text-anchor="middle" x="242.68" y="-516.33" font-family="Times,serif" font-size="14.00" fill="#1e1e2e">hm&#45;host/self&#45;provide(hm&#45;host)</text>
</g>
<!-- hm_user -->
<g id="node28" class="node">
<title>hm_user</title>
<polygon fill="#fab387" stroke="#fab387" points="395.37,-365 319.03,-399.7 166.34,-399.7 90,-365 166.34,-330.3 319.03,-330.3 395.37,-365"/>
<text text-anchor="middle" x="242.68" y="-368.95" font-family="Times,serif" font-size="14.00" fill="#1e1e2e">hm&#45;user</text>
<text text-anchor="middle" x="242.68" y="-351.7" font-family="Times,serif" font-size="14.00" fill="#1e1e2e">({ aspect&#45;chain, class })</text>
</g>
<!-- hm_user__aspect_hm_user_ -->
<g id="node29" class="node">
<title>hm_user__aspect_hm_user_</title>
<polygon fill="#a6e3a1" stroke="#a6e3a1" points="724.55,-383 530.05,-383 530.05,-347 724.55,-347 724.55,-383"/>
<text text-anchor="middle" x="627.3" y="-360.32" font-family="Times,serif" font-size="14.00" fill="#1e1e2e">hm&#45;user/aspect(hm&#45;user)</text>
</g>
<!-- hm_user&#45;&gt;hm_user__aspect_hm_user_ -->
<g id="edge14" class="edge">
<title>hm_user&#45;&gt;hm_user__aspect_hm_user_</title>
<path fill="none" stroke="#a6adc8" d="M396.55,-365C437.47,-365 480.84,-365 518.75,-365"/>
<polygon fill="#a6adc8" stroke="#a6adc8" points="518.29,-368.5 528.29,-365 518.29,-361.5 518.29,-368.5"/>
</g>
<!-- hm_user__cross_provide_hm_host_ -->
<g id="node30" class="node">
<title>hm_user__cross_provide_hm_host_</title>
<polygon fill="#a6e3a1" stroke="#a6e3a1" points="364.31,-454 121.06,-454 121.06,-418 364.31,-418 364.31,-454"/>
<text text-anchor="middle" x="242.68" y="-431.32" font-family="Times,serif" font-size="14.00" fill="#1e1e2e">hm&#45;user/cross&#45;provide(hm&#45;host)</text>
</g>
<!-- hm_user__self_provide_hm_user_ -->
<g id="node31" class="node">
<title>hm_user__self_provide_hm_user_</title>
<polygon fill="#fab387" stroke="#fab387" points="358.31,-312 127.06,-312 127.06,-276 358.31,-276 358.31,-312"/>
<text text-anchor="middle" x="242.68" y="-289.32" font-family="Times,serif" font-size="14.00" fill="#1e1e2e">hm&#45;user/self&#45;provide(hm&#45;user)</text>
</g>
<!-- deploy -->
<g id="node32" class="node">
<title>deploy</title>
<polygon fill="#f2cdcd" stroke="#f2cdcd" points="395.37,-105 319.03,-139.7 166.34,-139.7 90,-105 166.34,-70.3 319.03,-70.3 395.37,-105"/>
<text text-anchor="middle" x="242.68" y="-108.95" font-family="Times,serif" font-size="14.00" fill="#1e1e2e">deploy</text>
<text text-anchor="middle" x="242.68" y="-91.7" font-family="Times,serif" font-size="14.00" fill="#1e1e2e">({ aspect&#45;chain, class })</text>
</g>
<!-- user__self_provide_user_ -->
<g id="node36" class="node">
<title>user__self_provide_user_</title>
<polygon fill="#f2cdcd" stroke="#f2cdcd" points="715.92,-123 538.67,-123 538.67,-87 715.92,-87 715.92,-123"/>
<text text-anchor="middle" x="627.3" y="-100.33" font-family="Times,serif" font-size="14.00" fill="#1e1e2e">user/self&#45;provide(user)</text>
</g>
<!-- deploy&#45;&gt;user__self_provide_user_ -->
<g id="edge12" class="edge">
<title>deploy&#45;&gt;user__self_provide_user_</title>
<path fill="none" stroke="#a6adc8" d="M396.55,-105C440.5,-105 487.28,-105 527.07,-105"/>
<polygon fill="#a6adc8" stroke="#a6adc8" points="526.86,-108.5 536.86,-105 526.86,-101.5 526.86,-108.5"/>
</g>
<!-- user -->
<g id="node33" class="node">
<title>user</title>
<polygon fill="#f2cdcd" stroke="#f2cdcd" points="395.37,-192 319.03,-226.7 166.34,-226.7 90,-192 166.34,-157.3 319.03,-157.3 395.37,-192"/>
<text text-anchor="middle" x="242.68" y="-195.95" font-family="Times,serif" font-size="14.00" fill="#1e1e2e">user</text>
<text text-anchor="middle" x="242.68" y="-178.7" font-family="Times,serif" font-size="14.00" fill="#1e1e2e">({ aspect&#45;chain, class })</text>
</g>
<!-- user__aspect_user_ -->
<g id="node34" class="node">
<title>user__aspect_user_</title>
<polygon fill="#fab387" stroke="#fab387" points="697.55,-210 557.05,-210 557.05,-174 697.55,-174 697.55,-210"/>
<text text-anchor="middle" x="627.3" y="-187.32" font-family="Times,serif" font-size="14.00" fill="#1e1e2e">user/aspect(user)</text>
</g>
<!-- user&#45;&gt;user__aspect_user_ -->
<g id="edge46" class="edge">
<title>user&#45;&gt;user__aspect_user_</title>
<path fill="none" stroke="#a6adc8" d="M396.55,-192C447.47,-192 502.19,-192 545.44,-192"/>
<polygon fill="#a6adc8" stroke="#a6adc8" points="545.24,-195.5 555.24,-192 545.24,-188.5 545.24,-195.5"/>
</g>
<!-- user__cross_provide_host_ -->
<g id="node35" class="node">
<title>user__cross_provide_host_</title>
<polygon fill="#f38ba8" stroke="#f38ba8" points="337.31,-52 148.06,-52 148.06,-16 337.31,-16 337.31,-52"/>
<text text-anchor="middle" x="242.68" y="-29.32" font-family="Times,serif" font-size="14.00" fill="#1e1e2e">user/cross&#45;provide(host)</text>
</g>
<!-- host -->
<g id="node37" class="node">
<title>host</title>
<polygon fill="#fab387" stroke="#fab387" points="54,-645 0,-645 0,-609 54,-609 54,-645"/>
<text text-anchor="middle" x="27" y="-622.33" font-family="Times,serif" font-size="14.00" fill="#1e1e2e">host</text>
</g>
<!-- host&#45;&gt;provider_filter -->
<g id="edge28" class="edge">
<title>host&#45;&gt;provider_filter</title>
<path fill="none" stroke="#a6adc8" d="M33.51,-645.44C40.89,-666.67 56.13,-700.83 82,-718 108.57,-735.64 143.12,-741.93 173.28,-743.49"/>
<polygon fill="#a6adc8" stroke="#a6adc8" points="172.98,-746.98 183.09,-743.81 173.21,-739.98 172.98,-746.98"/>
</g>
<!-- host&#45;&gt;host__aspect_host_ -->
<g id="edge26" class="edge">
<title>host&#45;&gt;host__aspect_host_</title>
<path fill="none" stroke="#a6adc8" d="M30.18,-645.28C36.05,-691.52 53.74,-811.34 82,-838 208.28,-957.12 428.03,-955.3 545.99,-944"/>
<polygon fill="#a6adc8" stroke="#a6adc8" points="546.32,-947.48 555.92,-942.99 545.62,-940.52 546.32,-947.48"/>
</g>
<!-- host&#45;&gt;host__cross_provide__anon__ -->
<g id="edge27" class="edge">
<title>host&#45;&gt;host__cross_provide__anon__</title>
<path fill="none" stroke="#a6adc8" d="M29.68,-645.02C33.46,-674.97 45.4,-734.85 82,-767 199.48,-870.18 386.36,-887.6 507.68,-886.5"/>
<polygon fill="#a6adc8" stroke="#a6adc8" points="507.38,-890.01 517.33,-886.37 507.29,-883.01 507.38,-890.01"/>
</g>
<!-- host&#45;&gt;n_default -->
<g id="edge15" class="edge">
<title>host&#45;&gt;n_default</title>
<path fill="none" stroke="#a6adc8" d="M28.63,-645.35C30.81,-692.21 40.44,-819.35 82,-915 110.89,-981.49 163.32,-1047 200.2,-1088.35"/>
<polygon fill="#a6adc8" stroke="#a6adc8" points="197.52,-1090.6 206.81,-1095.68 202.71,-1085.91 197.52,-1090.6"/>
</g>
<!-- host&#45;&gt;default__cross_provide_host_ -->
<g id="edge16" class="edge">
<title>host&#45;&gt;default__cross_provide_host_</title>
<path fill="none" stroke="#a6adc8" d="M28.5,-645.31C31.17,-736.22 44.97,-1136.3 82,-1176 94.23,-1189.11 110.27,-1197.36 127.47,-1202.37"/>
<polygon fill="#a6adc8" stroke="#a6adc8" points="126.29,-1205.68 136.84,-1204.71 127.99,-1198.89 126.29,-1205.68"/>
</g>
<!-- host&#45;&gt;default__cross_provide_user_ -->
<g id="edge17" class="edge">
<title>host&#45;&gt;default__cross_provide_user_</title>
<path fill="none" stroke="#a6adc8" d="M28.34,-645.48C30.27,-742.07 41.32,-1186.01 82,-1230 94.17,-1243.16 110.19,-1251.44 127.38,-1256.46"/>
<polygon fill="#a6adc8" stroke="#a6adc8" points="126.19,-1259.77 136.74,-1258.8 127.89,-1252.98 126.19,-1259.77"/>
</g>
<!-- host&#45;&gt;default__self_provide_default_ -->
<g id="edge18" class="edge">
<title>host&#45;&gt;default__self_provide_default_</title>
<path fill="none" stroke="#a6adc8" d="M28.19,-645.44C29.43,-747.03 37.64,-1235.68 82,-1284 93.39,-1296.4 108.18,-1304.48 124.17,-1309.58"/>
<polygon fill="#a6adc8" stroke="#a6adc8" points="122.8,-1312.83 133.37,-1312.11 124.66,-1306.08 122.8,-1312.83"/>
</g>
<!-- host&#45;&gt;hm_host -->
<g id="edge20" class="edge">
<title>host&#45;&gt;hm_host</title>
<path fill="none" stroke="#a6adc8" d="M54.2,-622.71C70.92,-619.97 93.94,-616.2 118.13,-612.24"/>
<polygon fill="#a6adc8" stroke="#a6adc8" points="118.51,-615.72 127.81,-610.65 117.38,-608.81 118.51,-615.72"/>
</g>
<!-- host&#45;&gt;hm_host__cross_provide_host_ -->
<g id="edge21" class="edge">
<title>host&#45;&gt;hm_host__cross_provide_host_</title>
<path fill="none" stroke="#a6adc8" d="M54.2,-631.41C72.14,-634.44 97.34,-638.68 123.46,-643.08"/>
<polygon fill="#a6adc8" stroke="#a6adc8" points="122.75,-646.51 133.19,-644.72 123.91,-639.61 122.75,-646.51"/>
</g>
<!-- host&#45;&gt;hm_host__self_provide_hm_host_ -->
<g id="edge22" class="edge">
<title>host&#45;&gt;hm_host__self_provide_hm_host_</title>
<path fill="none" stroke="#a6adc8" d="M35.33,-608.74C43.73,-590.29 59.33,-562.51 82,-548 92.62,-541.2 104.43,-535.96 116.67,-531.93"/>
<polygon fill="#a6adc8" stroke="#a6adc8" points="117.49,-535.34 126.07,-529.13 115.49,-528.63 117.49,-535.34"/>
</g>
<!-- host&#45;&gt;hm_user -->
<g id="edge23" class="edge">
<title>host&#45;&gt;hm_user</title>
<path fill="none" stroke="#a6adc8" d="M30.17,-608.59C36.09,-561.4 53.97,-437.77 82,-409 91.33,-399.43 102.53,-391.88 114.63,-385.94"/>
<polygon fill="#a6adc8" stroke="#a6adc8" points="115.89,-389.21 123.59,-381.93 113.03,-382.81 115.89,-389.21"/>
</g>
<!-- host&#45;&gt;hm_user__cross_provide_hm_host_ -->
<g id="edge24" class="edge">
<title>host&#45;&gt;hm_user__cross_provide_hm_host_</title>
<path fill="none" stroke="#a6adc8" d="M30.31,-608.91C34.94,-580.03 48.01,-523.45 82,-491 96.85,-476.82 115.53,-466.28 134.82,-458.45"/>
<polygon fill="#a6adc8" stroke="#a6adc8" points="136.06,-461.73 144.17,-454.92 133.58,-455.18 136.06,-461.73"/>
</g>
<!-- host&#45;&gt;hm_user__self_provide_hm_user_ -->
<g id="edge25" class="edge">
<title>host&#45;&gt;hm_user__self_provide_hm_user_</title>
<path fill="none" stroke="#a6adc8" d="M28.56,-608.7C30.78,-549.05 40.94,-361.76 82,-321 91.66,-311.4 103.39,-304.47 116.05,-299.54"/>
<polygon fill="#a6adc8" stroke="#a6adc8" points="117.1,-302.88 125.44,-296.34 114.85,-296.25 117.1,-302.88"/>
</g>
<!-- host&#45;&gt;deploy -->
<g id="edge19" class="edge">
<title>host&#45;&gt;deploy</title>
<path fill="none" stroke="#a6adc8" d="M28.86,-608.65C32.94,-525.14 51.38,-183.62 82,-148 90.32,-138.32 100.57,-130.7 111.83,-124.73"/>
<polygon fill="#a6adc8" stroke="#a6adc8" points="113.08,-128.01 120.59,-120.54 110.06,-121.69 113.08,-128.01"/>
</g>
<!-- host&#45;&gt;user -->
<g id="edge29" class="edge">
<title>host&#45;&gt;user</title>
<path fill="none" stroke="#a6adc8" d="M28.46,-608.59C30.45,-542.65 40.21,-319.27 82,-264 95.57,-246.05 114.64,-232.46 134.89,-222.21"/>
<polygon fill="#a6adc8" stroke="#a6adc8" points="136.34,-225.4 143.87,-217.95 133.34,-219.08 136.34,-225.4"/>
</g>
<!-- host&#45;&gt;user__cross_provide_host_ -->
<g id="edge30" class="edge">
<title>host&#45;&gt;user__cross_provide_host_</title>
<path fill="none" stroke="#a6adc8" d="M28.45,-608.74C30.87,-516.23 43.81,-102.06 82,-61 96.37,-45.56 116.02,-36.84 136.64,-32.25"/>
<polygon fill="#a6adc8" stroke="#a6adc8" points="137.15,-35.71 146.33,-30.43 135.86,-28.83 137.15,-35.71"/>
</g>
</g>
</svg>
