<?plantuml 1.2026.2?><svg xmlns="http://www.w3.org/2000/svg" xmlns:xlink="http://www.w3.org/1999/xlink" contentStyleType="text/css" data-diagram-type="DESCRIPTION" height="576px" preserveAspectRatio="none" style="width:1390px;height:576px;background:#1E1E2E;" version="1.1" viewBox="0 0 1390 576" width="1390px" zoomAndPan="magnify"><defs/><g><rect fill="#1E1E2E" height="576" style="stroke:none;stroke-width:1;" width="1390" x="0" y="0"/><!--cluster stage_user--><g class="cluster" data-qualified-name="stage_user" data-source-line="24" id="ent0003"><path d="M607.0999,332 L767.6992,332 A3.75,3.75 0 0 1 770.1992,334.5 L777.1992,356.4799 L922.8999,356.4799 A2.5,2.5 0 0 1 925.3999,358.9799 L925.3999,566.5 A2.5,2.5 0 0 1 922.8999,569 L607.0999,569 A2.5,2.5 0 0 1 604.5999,566.5 L604.5999,334.5 A2.5,2.5 0 0 1 607.0999,332" fill="#313244" style="stroke:#6C7086;stroke-width:1.5;"/><line style="stroke:#6C7086;stroke-width:1.5;" x1="604.5999" x2="777.1992" y1="356.4799" y2="356.4799"/><text fill="#CDD6F4" font-family="'JetBrains Mono,monospace'" font-size="14" font-weight="bold" lengthAdjust="spacing" textLength="159.5993" x="608.5999" y="348.2799">user { host, user }</text></g><!--cluster stage_default--><g class="cluster" data-qualified-name="stage_default" data-source-line="29" id="ent0007"><path d="M127.0999,61 L312.899,61 A3.75,3.75 0 0 1 315.399,63.5 L322.399,85.4799 L1380.8999,85.4799 A2.5,2.5 0 0 1 1383.3999,87.9799 L1383.3999,305.5 A2.5,2.5 0 0 1 1380.8999,308 L127.0999,308 A2.5,2.5 0 0 1 124.5999,305.5 L124.5999,63.5 A2.5,2.5 0 0 1 127.0999,61" fill="#313244" style="stroke:#6C7086;stroke-width:1.5;"/><line style="stroke:#6C7086;stroke-width:1.5;" x1="124.5999" x2="322.399" y1="85.4799" y2="85.4799"/><text fill="#CDD6F4" font-family="'JetBrains Mono,monospace'" font-size="14" font-weight="bold" lengthAdjust="spacing" textLength="184.7992" x="128.5999" y="77.2799">default { host, user }</text></g><!--entity user__aspect_user_--><g class="entity" data-qualified-name="stage_user.user__aspect_user_" data-source-line="25" id="ent0004"><rect fill="#FAB387" height="38.4799" rx="2.5" ry="2.5" style="stroke:#A6ADC8;stroke-width:0.5;" width="162.7994" x="683.5999" y="368.76"/><text fill="#1E1E2E" font-family="'JetBrains Mono,monospace'" font-size="14" lengthAdjust="spacing" textLength="142.7994" x="693.5999" y="393.0399">user/aspect(user)</text></g><!--entity user__cross_provide__anon__--><g class="entity" data-qualified-name="stage_user.user__cross_provide__anon__" data-source-line="26" id="ent0005"><rect fill="#F38BA8" height="38.4799" rx="2.5" ry="2.5" style="stroke:#A6ADC8;stroke-width:0.5;" width="288.7988" x="620.5999" y="441.76"/><text fill="#1E1E2E" font-family="'JetBrains Mono,monospace'" font-size="14" lengthAdjust="spacing" textLength="268.7988" x="630.5999" y="466.0399">user/cross-provide(&amp;lt;anon&amp;gt;)</text></g><!--entity user__self_provide_user_--><g class="entity" data-qualified-name="stage_user.user__self_provide_user_" data-source-line="27" id="ent0006"><rect fill="#F2CDCD" height="38.4799" rx="2.5" ry="2.5" style="stroke:#A6ADC8;stroke-width:0.5;" width="213.1992" x="658.3999" y="514.76"/><text fill="#1E1E2E" font-family="'JetBrains Mono,monospace'" font-size="14" lengthAdjust="spacing" textLength="193.1992" x="668.3999" y="539.0399">user/self-provide(user)</text></g><!--entity n_default--><g class="entity" data-qualified-name="stage_default.n_default" data-source-line="30" id="ent0008"><polygon fill="#FAB387" points="560.5999,195,455.5999,171.52,245.5999,171.52,140.5999,195,245.5999,218.48,455.5999,218.48,560.5999,195" style="stroke:#A6ADC8;stroke-width:0.5;"/><text fill="#1E1E2E" font-family="'JetBrains Mono,monospace'" font-size="14" lengthAdjust="spacing" textLength="58.7997" x="245.5994" y="190.7999">default</text><text fill="#1E1E2E" font-family="'JetBrains Mono,monospace'" font-size="14" lengthAdjust="spacing" textLength="209.9991" x="245.5994" y="209.2799">({ aspect-chain, class })</text></g><!--entity default__aspect_default_--><g class="entity" data-qualified-name="stage_default.default__aspect_default_" data-source-line="31" id="ent0009"><rect fill="#A6E3A1" height="38.4799" rx="2.5" ry="2.5" style="stroke:#A6ADC8;stroke-width:0.5;" width="213.1992" x="1061.7999" y="216.76"/><text fill="#1E1E2E" font-family="'JetBrains Mono,monospace'" font-size="14" lengthAdjust="spacing" textLength="193.1992" x="1071.7999" y="241.0399">default/aspect(default)</text></g><!--entity den__provides__default__aspect_default__den__provides--><g class="entity" data-qualified-name="stage_default.den__provides__default__aspect_default__den__provides" data-source-line="32" id="ent0010"><rect fill="#A6E3A1" height="24.4799" rx="2.5" ry="2.5" style="stroke:#A6ADC8;stroke-width:0.5;" width="397.9984" x="969.3999" y="157.76"/><text fill="#1E1E2E" font-family="'JetBrains Mono,monospace'" font-size="14" lengthAdjust="spacing" textLength="377.9984" x="979.3999" y="175.0399">provides/default/aspect(default):den/provides</text></g><!--entity default__cross_provide_user_--><g class="entity" data-qualified-name="stage_default.default__cross_provide_user_" data-source-line="33" id="ent0011"><rect fill="#F9E2AF" height="38.4799" rx="2.5" ry="2.5" style="stroke:#A6ADC8;stroke-width:0.5;" width="246.799" x="227.1999" y="97.76"/><text fill="#1E1E2E" font-family="'JetBrains Mono,monospace'" font-size="14" lengthAdjust="spacing" textLength="226.799" x="237.1999" y="122.0399">default/cross-provide(user)</text></g><!--entity default__self_provide_default_--><g class="entity" data-qualified-name="stage_default.default__self_provide_default_" data-source-line="34" id="ent0012"><rect fill="#FAB387" height="38.4799" rx="2.5" ry="2.5" style="stroke:#A6ADC8;stroke-width:0.5;" width="263.5989" x="218.7999" y="253.76"/><text fill="#1E1E2E" font-family="'JetBrains Mono,monospace'" font-size="14" lengthAdjust="spacing" textLength="243.5989" x="228.7999" y="278.0399">default/self-provide(default)</text></g><!--entity den__provides__define_user--><g class="entity" data-qualified-name="stage_default.den__provides__define_user" data-source-line="35" id="ent0013"><rect fill="#A6E3A1" height="24.4799" rx="2.5" ry="2.5" style="stroke:#A6ADC8;stroke-width:0.5;" width="187.9993" x="670.9999" y="105.76"/><text fill="#1E1E2E" font-family="'JetBrains Mono,monospace'" font-size="14" lengthAdjust="spacing" textLength="167.9993" x="680.9999" y="123.0399">provides/define-user</text></g><!--entity den__provides__hostname--><g class="entity" data-qualified-name="stage_default.den__provides__hostname" data-source-line="36" id="ent0014"><rect fill="#FAB387" height="24.4799" rx="2.5" ry="2.5" style="stroke:#A6ADC8;stroke-width:0.5;" width="162.7994" x="683.5999" y="223.76"/><text fill="#1E1E2E" font-family="'JetBrains Mono,monospace'" font-size="14" lengthAdjust="spacing" textLength="142.7994" x="693.5999" y="241.0399">provides/hostname</text></g><!--entity den__provides__mutual_provider--><g class="entity" data-qualified-name="stage_default.den__provides__mutual_provider" data-source-line="37" id="ent0015"><rect fill="#F9E2AF" height="24.4799" rx="2.5" ry="2.5" style="stroke:#A6ADC8;stroke-width:0.5;" width="221.5991" x="654.1999" y="164.76"/><text fill="#1E1E2E" font-family="'JetBrains Mono,monospace'" font-size="14" lengthAdjust="spacing" textLength="201.5991" x="664.1999" y="182.0399">provides/mutual-provider</text></g><!--entity deploy--><g class="entity" data-qualified-name="deploy" data-source-line="23" id="ent0002"><rect fill="#89B4FA" height="38.4799" rx="2.5" ry="2.5" style="stroke:#A6ADC8;stroke-width:0.5;" width="70.3998" x="315.3999" y="502.76"/><text fill="#1E1E2E" font-family="'JetBrains Mono,monospace'" font-size="14" lengthAdjust="spacing" textLength="50.3998" x="325.3999" y="527.0399">deploy</text></g><!--entity user--><g class="entity" data-qualified-name="user" data-source-line="39" id="ent0016"><rect fill="#FAB387" height="38.4799" rx="2.5" ry="2.5" style="stroke:#A6ADC8;stroke-width:0.5;" width="53.5999" x="12.7999" y="310.76"/><text fill="#1E1E2E" font-family="'JetBrains Mono,monospace'" font-size="14" lengthAdjust="spacing" textLength="33.5999" x="22.7999" y="335.0399">user</text></g><!--entity ctx_user--><g class="entity" data-qualified-name="ctx_user" data-source-line="58" id="ent0034"><ellipse cx="39.5999" cy="14" fill="#F1F1F1" rx="8" ry="8" style="stroke:#181818;stroke-width:0.5;"/><text fill="#CDD6F4" font-family="'JetBrains Mono,monospace'" font-size="14" lengthAdjust="spacing" textLength="67.1997" x="6" y="45.2799">ctx_user</text></g><!--entity ctx_default--><g class="entity" data-qualified-name="ctx_default" data-source-line="58" id="ent0035"><ellipse cx="350.5999" cy="14" fill="#F1F1F1" rx="8" ry="8" style="stroke:#181818;stroke-width:0.5;"/><text fill="#CDD6F4" font-family="'JetBrains Mono,monospace'" font-size="14" lengthAdjust="spacing" textLength="92.3996" x="304.4001" y="45.2799">ctx_default</text></g><!--link n_default to default__aspect_default_--><g class="link" data-entity-1="ent0008" data-entity-2="ent0009" data-link-type="dependency" data-source-line="41" id="lnk17"><path d="M488.2899,211.57 C513.0699,217.41 538.1499,225.31 560.5999,236 C579.3999,244.95 577.0099,258.91 596.5999,266 C737.3499,316.96 784.0099,275.54 933.3999,266 C975.3999,263.32 1015.435,258.7715 1055.435,253.3115" fill="none" id="n_default-to-default__aspect_default_" style="stroke:#A6ADC8;stroke-width:1;"/><polygon fill="#A6ADC8" points="1061.3799,252.5,1051.9216,249.754,1056.4258,253.1762,1053.0035,257.6805,1061.3799,252.5" style="stroke:#A6ADC8;stroke-width:1;"/></g><!--link n_default to den__provides__define_user--><g class="link" data-entity-1="ent0008" data-entity-2="ent0013" data-link-type="dependency" data-source-line="42" id="lnk18"><path d="M464.1199,172.93 C526.8199,160.63 593.0499,147.66 596.5999,147 C626.6199,141.46 653.8166,136.6767 682.6066,131.7267" fill="none" id="n_default-to-den__provides__define_user" style="stroke:#A6ADC8;stroke-width:1;"/><polygon fill="#A6ADC8" points="688.5199,130.71,678.9722,128.2929,683.5922,131.5572,680.3278,136.1772,688.5199,130.71" style="stroke:#A6ADC8;stroke-width:1;"/></g><!--link n_default to den__provides__hostname--><g class="link" data-entity-1="ent0008" data-entity-2="ent0014" data-link-type="dependency" data-source-line="43" id="lnk19"><path d="M497.5799,209.51 C560.0199,215.72 624.5693,222.1363 677.3693,227.3863" fill="none" id="n_default-to-den__provides__hostname" style="stroke:#A6ADC8;stroke-width:1;"/><polygon fill="#A6ADC8" points="683.3399,227.98,674.7798,223.1091,678.3644,227.4853,673.9882,231.0699,683.3399,227.98" style="stroke:#A6ADC8;stroke-width:1;"/></g><!--link n_default to den__provides__mutual_provider--><g class="link" data-entity-1="ent0008" data-entity-2="ent0015" data-link-type="dependency" data-source-line="44" id="lnk20"><path d="M528.2899,187.29 C570.9199,185.43 609.2755,183.7511 647.8455,182.0711" fill="none" id="n_default-to-den__provides__mutual_provider" style="stroke:#A6ADC8;stroke-width:1;"/><polygon fill="#A6ADC8" points="653.8399,181.81,644.6743,178.2054,648.8446,182.0276,645.0224,186.1979,653.8399,181.81" style="stroke:#A6ADC8;stroke-width:1;"/></g><!--link den__provides__define_user to default__aspect_default_--><g class="link" data-entity-1="ent0013" data-entity-2="ent0009" data-link-type="dependency" data-source-line="45" id="lnk21"><path d="M859.4699,120.9 C884.9899,125.11 911.5799,132.93 933.3999,147 C957.3299,162.43 945.5299,184.47 969.3999,200 C996.4799,217.63 1023.9255,226.2702 1055.4855,231.3302" fill="none" id="den__provides__define_user-to-default__aspect_default_" style="stroke:#A6ADC8;stroke-width:1;"/><polygon fill="#A6ADC8" points="1061.4099,232.28,1053.1566,226.9057,1056.4729,231.4885,1051.8901,234.8048,1061.4099,232.28" style="stroke:#A6ADC8;stroke-width:1;"/></g><!--link den__provides__define_user to den__provides__default__aspect_default__den__provides--><g class="link" data-entity-1="ent0013" data-entity-2="ent0010" data-link-type="dependency" data-source-line="46" id="lnk22"><path d="M859.3499,130.09 C922.3499,138.26 999.3995,148.2398 1063.3695,156.5198" fill="none" id="den__provides__define_user-to-den__provides__default__aspect_default__den__provides" style="stroke:#A6ADC8;stroke-width:1;"/><polygon fill="#A6ADC8" points="1069.3199,157.29,1060.9078,152.1678,1064.3612,156.6482,1059.8809,160.1016,1069.3199,157.29" style="stroke:#A6ADC8;stroke-width:1;"/></g><!--link den__provides__hostname to default__aspect_default_--><g class="link" data-entity-1="ent0014" data-entity-2="ent0009" data-link-type="dependency" data-source-line="47" id="lnk23"><path d="M846.7399,236 C908.5599,236 988.3499,236 1055.6399,236" fill="none" id="den__provides__hostname-to-default__aspect_default_" style="stroke:#A6ADC8;stroke-width:1;"/><polygon fill="#A6ADC8" points="1061.6399,236,1052.6399,232,1056.6399,236,1052.6399,240,1061.6399,236" style="stroke:#A6ADC8;stroke-width:1;"/></g><!--link den__provides__hostname to den__provides__default__aspect_default__den__provides--><g class="link" data-entity-1="ent0014" data-entity-2="ent0010" data-link-type="dependency" data-source-line="48" id="lnk24"><path d="M843.6499,223.33 C871.9499,218.51 904.1699,212.78 933.3999,207 C949.4799,203.82 953.2799,201.97 969.3999,199 C1002.2799,192.95 1032.4905,188.1911 1064.8005,183.5611" fill="none" id="den__provides__hostname-to-den__provides__default__aspect_default__den__provides" style="stroke:#A6ADC8;stroke-width:1;"/><polygon fill="#A6ADC8" points="1070.7399,182.71,1061.2635,180.0271,1065.7904,183.4193,1062.3983,187.9462,1070.7399,182.71" style="stroke:#A6ADC8;stroke-width:1;"/></g><!--link den__provides__mutual_provider to default__aspect_default_--><g class="link" data-entity-1="ent0015" data-entity-2="ent0009" data-link-type="dependency" data-source-line="49" id="lnk25"><path d="M852.5999,189.73 C913.7899,198.72 990.2337,209.957 1055.3737,219.537" fill="none" id="den__provides__mutual_provider-to-default__aspect_default_" style="stroke:#A6ADC8;stroke-width:1;"/><polygon fill="#A6ADC8" points="1061.3099,220.41,1052.9876,215.143,1056.3631,219.6825,1051.8236,223.0579,1061.3099,220.41" style="stroke:#A6ADC8;stroke-width:1;"/></g><!--link den__provides__mutual_provider to den__provides__default__aspect_default__den__provides--><g class="link" data-entity-1="ent0015" data-entity-2="ent0010" data-link-type="dependency" data-source-line="50" id="lnk26"><path d="M876.2099,175.08 C905.1099,174.57 931.1707,174.1132 963.1407,173.5632" fill="none" id="den__provides__mutual_provider-to-den__provides__default__aspect_default__den__provides" style="stroke:#A6ADC8;stroke-width:1;"/><polygon fill="#A6ADC8" points="969.1399,173.46,960.0724,169.6154,964.1406,173.546,960.21,177.6142,969.1399,173.46" style="stroke:#A6ADC8;stroke-width:1;"/></g><!--link deploy to user__self_provide_user_--><g class="link" data-entity-1="ent0002" data-entity-2="ent0006" data-link-type="dependency" data-source-line="51" id="lnk27"><path d="M386.0499,523 C445.1899,524.72 562.3124,528.1355 652.0124,530.7455" fill="none" id="deploy-to-user__self_provide_user_" style="stroke:#A6ADC8;stroke-width:1;"/><polygon fill="#A6ADC8" points="658.0099,530.92,649.13,526.6599,653.012,530.7746,648.8973,534.6565,658.0099,530.92" style="stroke:#A6ADC8;stroke-width:1;"/></g><!--link user to n_default--><g class="link" data-entity-1="ent0016" data-entity-2="ent0008" data-link-type="dependency" data-source-line="52" id="lnk28"><path d="M50.8199,310.27 C63.2599,288.37 86.4099,253.79 116.5999,236 C139.4199,222.55 159.7076,214.6787 185.9976,208.3287" fill="none" id="user-to-n_default" style="stroke:#A6ADC8;stroke-width:1;"/><polygon fill="#A6ADC8" points="191.8299,206.92,182.1423,205.1449,186.9696,208.0939,184.0206,212.9213,191.8299,206.92" style="stroke:#A6ADC8;stroke-width:1;"/></g><!--link user to default__cross_provide_user_--><g class="link" data-entity-1="ent0016" data-entity-2="ent0011" data-link-type="dependency" data-source-line="53" id="lnk29"><path d="M42.9299,310.43 C48.4299,273.43 65.8699,193.4 116.5999,154 C147.6499,129.88 182.2225,119.3643 220.7525,114.7443" fill="none" id="user-to-default__cross_provide_user_" style="stroke:#A6ADC8;stroke-width:1;"/><polygon fill="#A6ADC8" points="226.7099,114.03,217.2976,111.1299,221.7454,114.6253,218.2501,119.073,226.7099,114.03" style="stroke:#A6ADC8;stroke-width:1;"/></g><!--link user to default__self_provide_default_--><g class="link" data-entity-1="ent0016" data-entity-2="ent0012" data-link-type="dependency" data-source-line="54" id="lnk30"><path d="M66.6799,325.19 C105.3099,318.06 174.0493,305.3778 236.9693,293.7778" fill="none" id="user-to-default__self_provide_default_" style="stroke:#A6ADC8;stroke-width:1;"/><polygon fill="#A6ADC8" points="242.8699,292.69,233.2938,290.388,237.9527,293.5965,234.7442,298.2555,242.8699,292.69" style="stroke:#A6ADC8;stroke-width:1;"/></g><!--link user to deploy--><g class="link" data-entity-1="ent0016" data-entity-2="ent0002" data-link-type="dependency" data-source-line="55" id="lnk31"><path d="M44.9999,349.63 C53.2199,381.5 74.0599,444.14 116.5999,476 C175.6699,520.25 260.0513,525.2422 309.0713,524.1622" fill="none" id="user-to-deploy" style="stroke:#A6ADC8;stroke-width:1;"/><polygon fill="#A6ADC8" points="315.0699,524.03,305.9839,520.2292,310.0711,524.1401,306.1601,528.2273,315.0699,524.03" style="stroke:#A6ADC8;stroke-width:1;"/></g><!--link user to user__aspect_user_--><g class="link" data-entity-1="ent0016" data-entity-2="ent0004" data-link-type="dependency" data-source-line="56" id="lnk32"><path d="M66.7699,332.1 C165.9999,340.05 515.579,368.0806 677.129,381.0306" fill="none" id="user-to-user__aspect_user_" style="stroke:#A6ADC8;stroke-width:1;"/><polygon fill="#A6ADC8" points="683.1099,381.51,674.4582,376.8036,678.1258,381.1105,673.819,384.7781,683.1099,381.51" style="stroke:#A6ADC8;stroke-width:1;"/></g><!--link user to user__cross_provide__anon__--><g class="link" data-entity-1="ent0016" data-entity-2="ent0005" data-link-type="dependency" data-source-line="57" id="lnk33"><path d="M64.7699,349.59 C79.0199,360.06 97.8699,372.18 116.5999,379 C282.3999,439.39 480.0929,456.4595 614.1929,460.7195" fill="none" id="user-to-user__cross_provide__anon__" style="stroke:#A6ADC8;stroke-width:1;"/><polygon fill="#A6ADC8" points="620.1899,460.91,611.3214,456.6263,615.1924,460.7512,611.0674,464.6222,620.1899,460.91" style="stroke:#A6ADC8;stroke-width:1;"/></g><!--link ctx_user to ctx_default--><g class="link" data-entity-1="ent0034" data-entity-2="ent0035" data-link-type="dependency" data-source-line="58" id="lnk36"><path d="M48.5499,14 C91.8099,14 292.5699,14 335.6999,14" fill="none" id="ctx_user-to-ctx_default" style="stroke:#A6ADC8;stroke-width:1;"/><polygon fill="#A6ADC8" points="341.6999,14,332.6999,10,336.6999,14,332.6999,18,341.6999,14" style="stroke:#A6ADC8;stroke-width:1;"/></g><?plantuml-src hLLTQzim57tthn0Eb1GIidoGkYlieOKn1YjZpmLp8ycEgICPITawIlxx9DkI7Ljssh8NO-cUUyxLkTToJXE554SYI_SAaKnGh3BE0lcSiG847D0Ey7Cg-96H1vvpWIPBkgGhsa8Gci0nLryvKpK44x9DDdx88nme2hzJTIyWOnBzu8pF3leX2y0qR2M14FnFpGXR83Zg1iSaV-cJ04jpUjyzm7gvNctyK2u85KEI3jQIxPdnZRv0ojbbKGiSbQn1Ou8F8CXbjH8rAcKGOpe_jGQaRt3J0jjgMtppAThsGMCDVEJg3MebQbJA8FewWR3TH26XHSx_XWWagbxH9BhTRH88YgfC51ub5UWLxRbKCrGkJYLUAXsEgsY0K8lKx2r05dfdQjwlIxnvY-DgkqoBqII1tJgwyMHZmQMS5uB_pWYTNkNg3XXdLwcwQvELgBX6QMuDYGthEjf1v66LD4ySQRSo4tHSjhuL9fW4fyQD-dCUDiG1jFw-cc6NzSIchwXoO8xt-WwO8Po3bEXK5S9SjjUPEcYjhPVNTVVAXJFOhisuqpKiDHFMOux2-eHoCS3scL2siA2QMhjgT-9uI2a-mxLqFISuRs_J2STrtbdRZLkwWiJFUDPQlpDd3MxySKxt_SaOdHlj0Hjqk9h_GO_DZ31zw_i8R6ouWiDH7I6tf_9MKK7iXd0UdOBExBj1Tt91Cstp-PV10Uh1XbmO1zhJZgCwnmb6F1-j-MBU1oOw6EhVUohf9Fs7CheJy9vg_BaVAwhyUHY2eTiqSFQx4GZwdVHy-1wKzrDkuqmrpRh_w-d6l7-I0AkNPcZCefRw1m00?></g></svg>