<svg id="my-svg" width="100%" xmlns="http://www.w3.org/2000/svg" xmlns:xlink="http://www.w3.org/1999/xlink" class="flowchart" style="max-width: 493px; background-color: rgb(30, 30, 46);" viewBox="4 4 493 292" role="graphics-document document" aria-roledescription="flowchart-v2"><style>#my-svg{font-family:JetBrains Mono,Fira Code,DejaVu Sans Mono,monospace;font-size:16px;fill:#cdd6f4;}@keyframes edge-animation-frame{from{stroke-dashoffset:0;}}@keyframes dash{to{stroke-dashoffset:0;}}#my-svg .edge-animation-slow{stroke-dasharray:9,5!important;stroke-dashoffset:900;animation:dash 50s linear infinite;stroke-linecap:round;}#my-svg .edge-animation-fast{stroke-dasharray:9,5!important;stroke-dashoffset:900;animation:dash 20s linear infinite;stroke-linecap:round;}#my-svg .error-icon{fill:#313244;}#my-svg .error-text{fill:#cdd6f4;stroke:#cdd6f4;}#my-svg .edge-thickness-normal{stroke-width:1px;}#my-svg .edge-thickness-thick{stroke-width:3.5px;}#my-svg .edge-pattern-solid{stroke-dasharray:0;}#my-svg .edge-thickness-invisible{stroke-width:0;fill:none;}#my-svg .edge-pattern-dashed{stroke-dasharray:3;}#my-svg .edge-pattern-dotted{stroke-dasharray:2;}#my-svg .marker{fill:#a6adc8;stroke:#a6adc8;}#my-svg .marker.cross{stroke:#a6adc8;}#my-svg svg{font-family:JetBrains Mono,Fira Code,DejaVu Sans Mono,monospace;font-size:16px;}#my-svg p{margin:0;}#my-svg .label{font-family:JetBrains Mono,Fira Code,DejaVu Sans Mono,monospace;color:#cdd6f4;}#my-svg .cluster-label text{fill:#cdd6f4;}#my-svg .cluster-label span{color:#cdd6f4;}#my-svg .cluster-label span p{background-color:transparent;}#my-svg .label text,#my-svg span{fill:#cdd6f4;color:#cdd6f4;}#my-svg .node rect,#my-svg .node circle,#my-svg .node ellipse,#my-svg .node polygon,#my-svg .node path{fill:#313244;stroke:#a6adc8;stroke-width:1px;}#my-svg .rough-node .label text,#my-svg .node .label text,#my-svg .image-shape .label,#my-svg .icon-shape .label{text-anchor:middle;}#my-svg .node .katex path{fill:#000;stroke:#000;stroke-width:1px;}#my-svg .rough-node .label,#my-svg .node .label,#my-svg .image-shape .label,#my-svg .icon-shape .label{text-align:center;}#my-svg .node.clickable{cursor:pointer;}#my-svg .root .anchor path{fill:#a6adc8!important;stroke-width:0;stroke:#a6adc8;}#my-svg .arrowheadPath{fill:#e1e1d1;}#my-svg .edgePath .path{stroke:#a6adc8;stroke-width:1px;}#my-svg .flowchart-link{stroke:#a6adc8;fill:none;}#my-svg .edgeLabel{background-color:#1e1e2e;text-align:center;}#my-svg .edgeLabel p{background-color:#1e1e2e;}#my-svg .edgeLabel rect{opacity:0.5;background-color:#1e1e2e;fill:#1e1e2e;}#my-svg .labelBkg{background-color:rgba(30, 30, 46, 0.5);}#my-svg .cluster rect{fill:#313244;stroke:#6c7086;stroke-width:1px;}#my-svg .cluster text{fill:#cdd6f4;}#my-svg .cluster span{color:#cdd6f4;}#my-svg div.mermaidTooltip{position:absolute;text-align:center;max-width:200px;padding:2px;font-family:JetBrains Mono,Fira Code,DejaVu Sans Mono,monospace;font-size:12px;background:#313244;border:1px solid #6c7086;border-radius:2px;pointer-events:none;z-index:100;}#my-svg .flowchartTitleText{text-anchor:middle;font-size:18px;fill:#cdd6f4;}#my-svg rect.text{fill:none;stroke-width:0;}#my-svg .icon-shape,#my-svg .image-shape{background-color:#1e1e2e;text-align:center;}#my-svg .icon-shape p,#my-svg .image-shape p{background-color:#1e1e2e;padding:2px;}#my-svg .icon-shape .label rect,#my-svg .image-shape .label rect{opacity:0.5;background-color:#1e1e2e;fill:#1e1e2e;}#my-svg .label-icon{display:inline-block;height:1em;overflow:visible;vertical-align:-0.125em;}#my-svg .node .label-icon path{fill:currentColor;stroke:revert;stroke-width:revert;}#my-svg .node .neo-node{stroke:#a6adc8;}#my-svg [data-look="neo"].node rect,#my-svg [data-look="neo"].cluster rect,#my-svg [data-look="neo"].node polygon{stroke:url(#my-svg-gradient);filter:drop-shadow( 1px 2px 2px rgba(185,185,185,1));}#my-svg [data-look="neo"].node path{stroke:url(#my-svg-gradient);stroke-width:1px;}#my-svg [data-look="neo"].node .outer-path{filter:drop-shadow( 1px 2px 2px rgba(185,185,185,1));}#my-svg [data-look="neo"].node .neo-line path{stroke:#a6adc8;filter:none;}#my-svg [data-look="neo"].node circle{stroke:url(#my-svg-gradient);filter:drop-shadow( 1px 2px 2px rgba(185,185,185,1));}#my-svg [data-look="neo"].node circle .state-start{fill:#000000;}#my-svg [data-look="neo"].icon-shape .icon{fill:url(#my-svg-gradient);filter:drop-shadow( 1px 2px 2px rgba(185,185,185,1));}#my-svg [data-look="neo"].icon-shape .icon-neo path{stroke:url(#my-svg-gradient);filter:drop-shadow( 1px 2px 2px rgba(185,185,185,1));}#my-svg :root{--mermaid-font-family:JetBrains Mono,Fira Code,DejaVu Sans Mono,monospace;}#my-svg .root&gt;*{fill:#89b4fa!important;stroke:#89b4fa!important;color:#1e1e2e!important;font-weight:bold!important;}#my-svg .root span{fill:#89b4fa!important;stroke:#89b4fa!important;color:#1e1e2e!important;font-weight:bold!important;}#my-svg .root tspan{fill:#1e1e2e!important;}#my-svg .den__provides__define_user_c&gt;*{fill:#a6e3a1!important;stroke:#a6e3a1!important;color:#1e1e2e!important;stroke-dasharray:3 3!important;stroke-width:1px!important;}#my-svg .den__provides__define_user_c span{fill:#a6e3a1!important;stroke:#a6e3a1!important;color:#1e1e2e!important;stroke-dasharray:3 3!important;stroke-width:1px!important;}#my-svg .den__provides__define_user_c tspan{fill:#1e1e2e!important;}#my-svg .deploy_c&gt;*{fill:#f2cdcd!important;stroke:#f2cdcd!important;color:#1e1e2e!important;stroke-dasharray:3 3!important;stroke-width:1px!important;}#my-svg .deploy_c span{fill:#f2cdcd!important;stroke:#f2cdcd!important;color:#1e1e2e!important;stroke-dasharray:3 3!important;stroke-width:1px!important;}#my-svg .deploy_c tspan{fill:#1e1e2e!important;}#my-svg .den__provides__hostname_c&gt;*{fill:#fab387!important;stroke:#fab387!important;color:#1e1e2e!important;stroke-dasharray:3 3!important;stroke-width:1px!important;}#my-svg .den__provides__hostname_c span{fill:#fab387!important;stroke:#fab387!important;color:#1e1e2e!important;stroke-dasharray:3 3!important;stroke-width:1px!important;}#my-svg .den__provides__hostname_c tspan{fill:#1e1e2e!important;}#my-svg .den__provides__mutual_provider_c&gt;*{fill:#f9e2af!important;stroke:#f9e2af!important;color:#1e1e2e!important;stroke-dasharray:3 3!important;stroke-width:1px!important;}#my-svg .den__provides__mutual_provider_c span{fill:#f9e2af!important;stroke:#f9e2af!important;color:#1e1e2e!important;stroke-dasharray:3 3!important;stroke-width:1px!important;}#my-svg .den__provides__mutual_provider_c tspan{fill:#1e1e2e!important;}</style><g><marker id="my-svg_flowchart-v2-pointEnd" class="marker flowchart-v2" viewBox="0 0 10 10" refX="5" refY="5" markerUnits="userSpaceOnUse" markerWidth="8" markerHeight="8" orient="auto"><path d="M 0 0 L 10 5 L 0 10 z" class="arrowMarkerPath" style="stroke-width: 1; stroke-dasharray: 1, 0;"/></marker><marker id="my-svg_flowchart-v2-pointStart" class="marker flowchart-v2" viewBox="0 0 10 10" refX="4.5" refY="5" markerUnits="userSpaceOnUse" markerWidth="8" markerHeight="8" orient="auto"><path d="M 0 5 L 10 10 L 10 0 z" class="arrowMarkerPath" style="stroke-width: 1; stroke-dasharray: 1, 0;"/></marker><marker id="my-svg_flowchart-v2-pointEnd-margin" class="marker flowchart-v2" viewBox="0 0 11.5 14" refX="11.5" refY="7" markerUnits="userSpaceOnUse" markerWidth="10.5" markerHeight="14" orient="auto"><path d="M 0 0 L 11.5 7 L 0 14 z" class="arrowMarkerPath" style="stroke-width: 0; stroke-dasharray: 1, 0;"/></marker><marker id="my-svg_flowchart-v2-pointStart-margin" class="marker flowchart-v2" viewBox="0 0 11.5 14" refX="1" refY="7" markerUnits="userSpaceOnUse" markerWidth="11.5" markerHeight="14" orient="auto"><polygon points="0,7 11.5,14 11.5,0" class="arrowMarkerPath" style="stroke-width: 0; stroke-dasharray: 1, 0;"/></marker><marker id="my-svg_flowchart-v2-circleEnd" class="marker flowchart-v2" viewBox="0 0 10 10" refX="11" refY="5" markerUnits="userSpaceOnUse" markerWidth="11" markerHeight="11" orient="auto"><circle cx="5" cy="5" r="5" class="arrowMarkerPath" style="stroke-width: 1; stroke-dasharray: 1, 0;"/></marker><marker id="my-svg_flowchart-v2-circleStart" class="marker flowchart-v2" viewBox="0 0 10 10" refX="-1" refY="5" markerUnits="userSpaceOnUse" markerWidth="11" markerHeight="11" orient="auto"><circle cx="5" cy="5" r="5" class="arrowMarkerPath" style="stroke-width: 1; stroke-dasharray: 1, 0;"/></marker><marker id="my-svg_flowchart-v2-circleEnd-margin" class="marker flowchart-v2" viewBox="0 0 10 10" refY="5" refX="12.25" markerUnits="userSpaceOnUse" markerWidth="14" markerHeight="14" orient="auto"><circle cx="5" cy="5" r="5" class="arrowMarkerPath" style="stroke-width: 0; stroke-dasharray: 1, 0;"/></marker><marker id="my-svg_flowchart-v2-circleStart-margin" class="marker flowchart-v2" viewBox="0 0 10 10" refX="-2" refY="5" markerUnits="userSpaceOnUse" markerWidth="14" markerHeight="14" orient="auto"><circle cx="5" cy="5" r="5" class="arrowMarkerPath" style="stroke-width: 0; stroke-dasharray: 1, 0;"/></marker><marker id="my-svg_flowchart-v2-crossEnd" class="marker cross flowchart-v2" viewBox="0 0 11 11" refX="12" refY="5.2" markerUnits="userSpaceOnUse" markerWidth="11" markerHeight="11" orient="auto"><path d="M 1,1 l 9,9 M 10,1 l -9,9" class="arrowMarkerPath" style="stroke-width: 2; stroke-dasharray: 1, 0;"/></marker><marker id="my-svg_flowchart-v2-crossStart" class="marker cross flowchart-v2" viewBox="0 0 11 11" refX="-1" refY="5.2" markerUnits="userSpaceOnUse" markerWidth="11" markerHeight="11" orient="auto"><path d="M 1,1 l 9,9 M 10,1 l -9,9" class="arrowMarkerPath" style="stroke-width: 2; stroke-dasharray: 1, 0;"/></marker><marker id="my-svg_flowchart-v2-crossEnd-margin" class="marker cross flowchart-v2" viewBox="0 0 15 15" refX="17.7" refY="7.5" markerUnits="userSpaceOnUse" markerWidth="12" markerHeight="12" orient="auto"><path d="M 1,1 L 14,14 M 1,14 L 14,1" class="arrowMarkerPath" style="stroke-width: 2.5;"/></marker><marker id="my-svg_flowchart-v2-crossStart-margin" class="marker cross flowchart-v2" viewBox="0 0 15 15" refX="-3.5" refY="7.5" markerUnits="userSpaceOnUse" markerWidth="12" markerHeight="12" orient="auto"><path d="M 1,1 L 14,14 M 1,14 L 14,1" class="arrowMarkerPath" style="stroke-width: 2.5; stroke-dasharray: 1, 0;"/></marker></g><defs><filter id="my-svg-drop-shadow" height="130%" width="130%"><feDropShadow dx="4" dy="4" stdDeviation="0" flood-opacity="0.06" flood-color="#000000"/></filter></defs><defs><filter id="my-svg-drop-shadow-small" height="150%" width="150%"><feDropShadow dx="2" dy="2" stdDeviation="0" flood-opacity="0.06" flood-color="#000000"/></filter></defs><linearGradient id="my-svg-gradient" gradientUnits="objectBoundingBox" x1="0%" y1="0%" x2="100%" y2="0%"><stop offset="0%" stop-color="#a6adc8" stop-opacity="1"/><stop offset="100%" stop-color="#6c7086" stop-opacity="1"/></linearGradient><g class="subgraphs"><g class="subgraph"><g class="cluster " id="[object Object]" data-look="classic"><rect style="fill:#313244 !important;stroke:#6c7086 !important;stroke-width:2px !important" x="187" y="12" width="302" height="276"/><g class="cluster-label " transform="translate(228, 12)"><foreignObject width="220" height="24"><div xmlns="http://www.w3.org/1999/xhtml" style="display: table-cell; white-space: nowrap; line-height: 1.5;"><span class="nodeLabel "><p>default { host, user }</p></span></div></foreignObject></g></g></g></g><g class="nodes"><g class="node default den__provides__define_user_c " id="my-svg-flowchart-den__provides__define_user-1" data-look="classic" transform="translate(338, 187.5)"><polygon points="-19.5,0 234.5,0 215,-39 0,-39" class="label-container" transform="translate(-107.5,19.5)" style="fill:#a6e3a1 !important;stroke:#a6e3a1 !important;stroke-dasharray:3 3 !important;stroke-width:1px !important"/><g class="label" style="color:#1e1e2e !important" transform="translate(-100, -12)"><rect/><foreignObject width="200" height="24"><div style="color: rgb(30, 30, 46) !important; display: table; white-space: break-spaces; line-height: 1.5; max-width: 200px; text-align: center; width: 200px;" xmlns="http://www.w3.org/1999/xhtml"><span style="color:#1e1e2e !important" class="nodeLabel "><p>provides/define-user</p></span></div></foreignObject></g></g><g class="node default den__provides__hostname_c " id="my-svg-flowchart-den__provides__hostname-2" data-look="classic" transform="translate(338, 256.5)"><polygon points="-19.5,0 204.5,0 185,-39 0,-39" class="label-container" transform="translate(-92.5,19.5)" style="fill:#fab387 !important;stroke:#fab387 !important;stroke-dasharray:3 3 !important;stroke-width:1px !important"/><g class="label" style="color:#1e1e2e !important" transform="translate(-85, -12)"><rect/><foreignObject width="170" height="24"><div style="color: rgb(30, 30, 46) !important; display: table-cell; white-space: nowrap; line-height: 1.5; max-width: 200px; text-align: center;" xmlns="http://www.w3.org/1999/xhtml"><span style="color:#1e1e2e !important" class="nodeLabel "><p>provides/hostname</p></span></div></foreignObject></g></g><g class="node default den__provides__mutual_provider_c " id="my-svg-flowchart-den__provides__mutual_provider-3" data-look="classic" transform="translate(338, 106.5)"><polygon points="-31.5,0 246.5,0 215,-63 0,-63" class="label-container" transform="translate(-107.5,31.5)" style="fill:#f9e2af !important;stroke:#f9e2af !important;stroke-dasharray:3 3 !important;stroke-width:1px !important"/><g class="label" style="color:#1e1e2e !important" transform="translate(-100, -24)"><rect/><foreignObject width="200" height="48"><div style="color: rgb(30, 30, 46) !important; display: table; white-space: break-spaces; line-height: 1.5; max-width: 200px; text-align: center; width: 200px;" xmlns="http://www.w3.org/1999/xhtml"><span style="color:#1e1e2e !important" class="nodeLabel "><p>provides/mutual-provider</p></span></div></foreignObject></g></g><g class="node default root " id="my-svg-flowchart-deploy-0" data-look="classic" transform="translate(82, 68.5)"><g class="basic label-container outer-path"><path d="M-22.875 -19.5 C-5.18776308883518 -19.5, 12.49947382232964 -19.5, 22.875 -19.5 C22.875 -19.5, 22.875 -19.5, 22.875 -19.5 C23.33087042187661 -19.485381122868365, 23.786740843753226 -19.47076224573673, 24.1243692896239 -19.45993515863156 C24.556121041833197 -19.41828458635338, 24.9878727940425 -19.3766340140752, 25.368604652847864 -19.3399052695533 C25.62627137965326 -19.298247711398712, 25.883938106458658 -19.256590153244126, 26.60259325967676 -19.140403561325776 C26.97336557048645 -19.05577720089891, 27.344137881296138 -18.97115084047204, 27.82126438623539 -18.862249829261074 C28.063902822519783 -18.790236015007007, 28.306541258804177 -18.718222200752944, 29.019610251460602 -18.50658706670804 C29.399711698439873 -18.36670622060041, 29.779813145419144 -18.226825374492776, 30.192706595147794 -18.074876768247425 C30.627015356557 -17.882621162883233, 31.061324117966205 -17.69036555751904, 31.33573291279238 -17.568892924097174 C31.5884399504681 -17.437055824408336, 31.841146988143816 -17.305218724719495, 32.44399226407678 -16.990714730406097 C32.7924169448117 -16.77949764137389, 33.140841625546614 -16.568280552341683, 33.5129305736057 -16.342718045390892 C33.90648721425264 -16.068189969667973, 34.300043854899585 -15.793661893945055, 34.53815534457871 -15.627565626425154 C34.82765121525704 -15.396700373367842, 35.11714708593537 -15.16583512031053, 35.515453708501866 -14.848196188198123 C35.848020528119044 -14.546167801857672, 36.180587347736214 -14.24413941551722, 36.44080973676799 -14.007812326905688 C36.739416395689325 -13.69947643550677, 37.03802305461066 -13.391140544107856, 37.31042094296865 -13.10986736009568 C37.53556562905769 -12.845399600719926, 37.760710315146746 -12.58093184134417, 38.12071390812658 -12.158051136245305 C38.399827039118435 -11.784064968445556, 38.67894017011028 -11.410078800645808, 38.868358964640635 -11.156274872382312 C39.06234725303006 -10.858256768266992, 39.25633554141949 -10.56023866415167, 39.55028387860425 -10.108655082055241 C39.78206723860639 -9.697100255761177, 40.01385059860853 -9.28554542946711, 40.163686474273504 -9.019496659696287 C40.30053472862722 -8.735328331447223, 40.437382982980935 -8.451160003198156, 40.70604614880834 -7.893275190886684 C40.85211897337587 -7.532472490078946, 40.9981917979434 -7.171669789271207, 41.175134229970325 -6.734618561215508 C41.297295825797924 -6.366687298389847, 41.419457421625516 -5.998756035564185, 41.56902313421488 -5.548287939305138 C41.679712967506845 -5.126179631685669, 41.79040280079881 -4.7040713240661995, 41.88609428754556 -4.339158212148133 C41.93609340480815 -4.082423312321913, 41.986092522070734 -3.8256884124956922, 42.125044776581774 -3.1121979531509023 C42.16076416379988 -2.8351654394780903, 42.19648355101799 -2.5581329258052783, 42.28489270250937 -1.872449005199798 C42.305294783779246 -1.5546701211578724, 42.325696865049125 -1.2368912371159468, 42.36498121591342 -0.6250057626472757 C42.36498121591342 -0.2375145927662894, 42.36498121591342 0.14997657711469692, 42.36498121591342 0.625005762647271 C42.33445446145953 1.1004846040192788, 42.30392770700564 1.5759634453912867, 42.28489270250937 1.8724490051997846 C42.23704701118382 2.2435307389203016, 42.18920131985827 2.614612472640818, 42.125044776581774 3.1121979531508885 C42.032855265988076 3.5855716057895695, 41.94066575539438 4.05894525842825, 41.88609428754556 4.339158212148129 C41.7711667834447 4.7774265951800725, 41.65623927934384 5.215694978212016, 41.56902313421489 5.548287939305125 C41.484908207241546 5.801628697455237, 41.400793280268196 6.054969455605349, 41.175134229970325 6.734618561215495 C41.02570615870771 7.103708786229372, 40.8762780874451 7.472799011243249, 40.70604614880834 7.893275190886679 C40.5672200212005 8.181550615267648, 40.428393893592656 8.469826039648618, 40.163686474273504 9.019496659696284 C39.95325559616619 9.393137992212836, 39.74282471805888 9.766779324729386, 39.55028387860425 10.108655082055236 C39.35520764078298 10.408344568653197, 39.16013140296171 10.708034055251158, 38.86835896464064 11.156274872382301 C38.704814916684704 11.375408997473981, 38.54127086872877 11.594543122565662, 38.12071390812658 12.158051136245302 C37.92983865700234 12.382264067325307, 37.7389634058781 12.606476998405313, 37.31042094296866 13.10986736009567 C37.06947410312356 13.358664754339188, 36.82852726327845 13.607462148582707, 36.44080973676799 14.007812326905684 C36.11866375010661 14.300376788475814, 35.79651776344524 14.592941250045945, 35.51545370850189 14.848196188198111 C35.3033744368003 15.017323763713687, 35.091295165098714 15.186451339229265, 34.53815534457871 15.627565626425152 C34.327064181861765 15.774813683547341, 34.11597301914481 15.92206174066953, 33.51293057360571 16.34271804539089 C33.24038341204056 16.50793773639659, 32.9678362504754 16.673157427402288, 32.44399226407678 16.990714730406093 C32.122410940560755 17.15848350090174, 31.800829617044727 17.326252271397383, 31.335732912792388 17.56889292409717 C30.94642384205882 17.741228501267653, 30.557114771325256 17.913564078438135, 30.192706595147804 18.07487676824742 C29.7280691836617 18.245867630735457, 29.26343177217559 18.416858493223494, 29.019610251460616 18.506587066708033 C28.578253114376256 18.637579548263783, 28.136895977291893 18.768572029819538, 27.821264386235413 18.86224982926107 C27.425602994822967 18.95255695991909, 27.029941603410517 19.042864090577105, 26.602593259676766 19.140403561325773 C26.24418600444564 19.198348066861765, 25.885778749214516 19.256292572397758, 25.36860465284788 19.3399052695533 C25.081165250265833 19.36763420302393, 24.793725847683792 19.39536313649456, 24.1243692896239 19.45993515863156 C23.644194506108775 19.47533342933537, 23.16401972259365 19.490731700039184, 22.875000000000004 19.5 C22.875000000000004 19.5, 22.875 19.5, 22.875 19.5 C9.840467938426924 19.5, -3.194064123146152 19.5, -22.874999999999996 19.5 C-23.328568717664584 19.485454934042448, -23.782137435329172 19.470909868084895, -24.124369289623893 19.45993515863156 C-24.6012404931189 19.413931967151928, -25.07811169661391 19.367928775672294, -25.36860465284787 19.3399052695533 C-25.801103595987108 19.269982194505943, -26.23360253912634 19.20005911945859, -26.60259325967676 19.140403561325773 C-26.901191089518097 19.072250555197428, -27.19978891935943 19.004097549069083, -27.821264386235388 18.862249829261074 C-28.066951336847325 18.789331231956574, -28.31263828745926 18.71641263465207, -29.01961025146059 18.506587066708043 C-29.334244522916222 18.39079874636505, -29.648878794371853 18.275010426022053, -30.192706595147797 18.074876768247425 C-30.52144873537717 17.929352374556988, -30.850190875606543 17.783827980866555, -31.33573291279238 17.568892924097174 C-31.699101683104722 17.37932366937403, -32.06247045341706 17.18975441465089, -32.44399226407678 16.990714730406097 C-32.76972762657399 16.793252039426825, -33.095462989071194 16.59578934844755, -33.512930573605686 16.3427180453909 C-33.77450900774718 16.16025225328171, -34.03608744188866 15.977786461172519, -34.53815534457871 15.627565626425156 C-34.80829944171836 15.412132897792624, -35.078443538858004 15.19670016916009, -35.515453708501866 14.848196188198125 C-35.77602891362336 14.611548681348912, -36.03660411874485 14.3749011744997, -36.440809736767974 14.007812326905697 C-36.77833596052345 13.659288789459836, -37.115862184278924 13.310765252013976, -37.310420942968655 13.109867360095677 C-37.54906884449401 12.829537955513706, -37.78771674601937 12.549208550931736, -38.120713908126575 12.158051136245307 C-38.38147612079925 11.808653527190206, -38.64223833347192 11.459255918135103, -38.868358964640635 11.156274872382316 C-39.085240598815574 10.82308644141634, -39.30212223299052 10.489898010450363, -39.55028387860425 10.108655082055249 C-39.77268355718089 9.713761932332934, -39.995083235757534 9.318868782610618, -40.163686474273504 9.019496659696289 C-40.27734425659705 8.783483842814498, -40.39100203892058 8.547471025932705, -40.70604614880834 7.893275190886686 C-40.870951767861285 7.485955123592659, -41.03585738691423 7.078635056298633, -41.175134229970325 6.73461856121551 C-41.27183878705759 6.443359843047424, -41.368543344144854 6.152101124879338, -41.56902313421488 5.5482879393051325 C-41.65346406005159 5.226278092161015, -41.73790498588829 4.904268245016897, -41.88609428754556 4.339158212148136 C-41.979514112463676 3.8594671554805955, -42.07293393738179 3.379776098813055, -42.125044776581774 3.112197953150904 C-42.18104143732542 2.6778989102145845, -42.237038098069064 2.243599867278265, -42.28489270250937 1.872449005199809 C-42.30579108047385 1.5469398995358594, -42.32668945843834 1.2214307938719098, -42.36498121591342 0.6250057626472781 C-42.36498121591342 0.2941102887678522, -42.36498121591342 -0.03678518511157369, -42.36498121591342 -0.6250057626472687 C-42.348524998704214 -0.8813246289000012, -42.33206878149502 -1.1376434951527337, -42.28489270250937 -1.8724490051997822 C-42.22234808815536 -2.3575326832983903, -42.15980347380135 -2.842616361396998, -42.125044776581774 -3.112197953150895 C-42.07303645411087 -3.379249697076159, -42.02102813163996 -3.646301441001423, -41.88609428754556 -4.339158212148126 C-41.78588791287 -4.721288548503546, -41.685681538194444 -5.103418884858967, -41.56902313421489 -5.548287939305123 C-41.45574627544192 -5.8894597897128484, -41.342469416668955 -6.230631640120574, -41.17513422997033 -6.734618561215485 C-41.07493795539485 -6.982105296580109, -40.97474168081937 -7.2295920319447315, -40.70604614880834 -7.893275190886676 C-40.5470030970548 -8.22353149082907, -40.387960045301256 -8.553787790771464, -40.163686474273504 -9.019496659696282 C-39.97130805753844 -9.361084019036479, -39.77892964080336 -9.702671378376676, -39.55028387860425 -10.108655082055243 C-39.29294149231821 -10.504002093497085, -39.035599106032166 -10.89934910493893, -38.86835896464064 -11.156274872382308 C-38.60375287800934 -11.510822922357852, -38.33914679137804 -11.865370972333396, -38.12071390812659 -12.158051136245302 C-37.94165892793273 -12.368379304498013, -37.76260394773887 -12.578707472750724, -37.31042094296866 -13.10986736009567 C-37.12887880689769 -13.297324520475511, -36.94733667082672 -13.484781680855352, -36.440809736767996 -14.007812326905677 C-36.19342525193725 -14.232480370594171, -35.9460407671065 -14.457148414282665, -35.51545370850189 -14.848196188198107 C-35.187475708396164 -15.109749915421293, -34.85949770829044 -15.37130364264448, -34.53815534457872 -15.627565626425149 C-34.18099284943741 -15.876706721720504, -33.823830354296106 -16.12584781701586, -33.512930573605715 -16.342718045390885 C-33.29228999622699 -16.476471660025823, -33.07164941884827 -16.61022527466076, -32.44399226407679 -16.99071473040609 C-32.0729149045928 -17.184305551162495, -31.70183754510881 -17.3778963719189, -31.335732912792388 -17.56889292409717 C-30.98263144627735 -17.72520046894053, -30.62952997976231 -17.88150801378389, -30.192706595147804 -18.07487676824742 C-29.79077390734927 -18.222791712782318, -29.388841219550734 -18.370706657317218, -29.01961025146062 -18.506587066708033 C-28.67405396350392 -18.609146359111612, -28.328497675547215 -18.711705651515192, -27.821264386235413 -18.862249829261067 C-27.33954937022002 -18.97219813818233, -26.857834354204627 -19.08214644710359, -26.602593259676766 -19.140403561325773 C-26.22430026324334 -19.201563039283126, -25.846007266809917 -19.26272251724048, -25.368604652847882 -19.3399052695533 C-25.050915477584066 -19.370552362213864, -24.73322630232025 -19.401199454874433, -24.124369289623903 -19.45993515863156 C-23.64840489458546 -19.47519841037195, -23.172440499547022 -19.490461662112338, -22.875000000000007 -19.5 C-22.875000000000004 -19.5, -22.875000000000004 -19.5, -22.875 -19.5" stroke="none" stroke-width="0" fill="#89b4fa" style="fill:#89b4fa !important;stroke:#89b4fa !important"/><path d="M-22.875 -19.5 C-10.202207632482125 -19.5, 2.47058473503575 -19.5, 22.875 -19.5 M-22.875 -19.5 C-10.946249152667416 -19.5, 0.9825016946651672 -19.5, 22.875 -19.5 M22.875 -19.5 C22.875 -19.5, 22.875 -19.5, 22.875 -19.5 M22.875 -19.5 C22.875 -19.5, 22.875 -19.5, 22.875 -19.5 M22.875 -19.5 C23.268808054532126 -19.48737134219203, 23.662616109064256 -19.474742684384065, 24.1243692896239 -19.45993515863156 M22.875 -19.5 C23.246577324093117 -19.48808423844772, 23.61815464818623 -19.476168476895438, 24.1243692896239 -19.45993515863156 M24.1243692896239 -19.45993515863156 C24.491194705290404 -19.42454795195432, 24.858020120956905 -19.389160745277078, 25.368604652847864 -19.3399052695533 M24.1243692896239 -19.45993515863156 C24.51258486696275 -19.42248446878322, 24.900800444301602 -19.385033778934883, 25.368604652847864 -19.3399052695533 M25.368604652847864 -19.3399052695533 C25.717702103090172 -19.283465901089283, 26.06679955333248 -19.227026532625267, 26.60259325967676 -19.140403561325776 M25.368604652847864 -19.3399052695533 C25.775277681304242 -19.274157528108912, 26.18195070976062 -19.20840978666452, 26.60259325967676 -19.140403561325776 M26.60259325967676 -19.140403561325776 C27.075347261681443 -19.03250054537638, 27.54810126368613 -18.92459752942698, 27.82126438623539 -18.862249829261074 M26.60259325967676 -19.140403561325776 C26.959533084268053 -19.05893437561285, 27.316472908859346 -18.97746518989992, 27.82126438623539 -18.862249829261074 M27.82126438623539 -18.862249829261074 C28.116773967438228 -18.774544136721516, 28.412283548641067 -18.686838444181962, 29.019610251460602 -18.50658706670804 M27.82126438623539 -18.862249829261074 C28.272512656770854 -18.72832171121666, 28.723760927306316 -18.59439359317224, 29.019610251460602 -18.50658706670804 M29.019610251460602 -18.50658706670804 C29.33765464120768 -18.389543791311002, 29.655699030954764 -18.27250051591397, 30.192706595147794 -18.074876768247425 M29.019610251460602 -18.50658706670804 C29.389064785257116 -18.37062438307065, 29.75851931905363 -18.23466169943326, 30.192706595147794 -18.074876768247425 M30.192706595147794 -18.074876768247425 C30.627099452149483 -17.882583936259046, 31.061492309151173 -17.690291104270667, 31.33573291279238 -17.568892924097174 M30.192706595147794 -18.074876768247425 C30.631406062603922 -17.880677527561925, 31.07010553006005 -17.68647828687643, 31.33573291279238 -17.568892924097174 M31.33573291279238 -17.568892924097174 C31.5639793781924 -17.449816889296823, 31.792225843592416 -17.330740854496472, 32.44399226407678 -16.990714730406097 M31.33573291279238 -17.568892924097174 C31.730558228799918 -17.362912809633727, 32.125383544807455 -17.15693269517028, 32.44399226407678 -16.990714730406097 M32.44399226407678 -16.990714730406097 C32.662844305180755 -16.858045336971518, 32.88169634628473 -16.725375943536942, 33.5129305736057 -16.342718045390892 M32.44399226407678 -16.990714730406097 C32.773590581023875 -16.79091029373806, 33.10318889797097 -16.591105857070026, 33.5129305736057 -16.342718045390892 M33.5129305736057 -16.342718045390892 C33.897359998542505 -16.07455672023657, 34.2817894234793 -15.806395395082243, 34.53815534457871 -15.627565626425154 M33.5129305736057 -16.342718045390892 C33.91039133060319 -16.065466627108304, 34.30785208760068 -15.788215208825715, 34.53815534457871 -15.627565626425154 M34.53815534457871 -15.627565626425154 C34.81310357609282 -15.40830172847237, 35.08805180760694 -15.189037830519586, 35.515453708501866 -14.848196188198123 M34.53815534457871 -15.627565626425154 C34.85189235494193 -15.377368709552965, 35.16562936530514 -15.127171792680777, 35.515453708501866 -14.848196188198123 M35.515453708501866 -14.848196188198123 C35.789015851569474 -14.599754287921797, 36.06257799463708 -14.351312387645473, 36.44080973676799 -14.007812326905688 M35.515453708501866 -14.848196188198123 C35.86950399628971 -14.526657084486493, 36.22355428407755 -14.20511798077486, 36.44080973676799 -14.007812326905688 M36.44080973676799 -14.007812326905688 C36.77522235541761 -13.662503842363352, 37.109634974067234 -13.317195357821017, 37.31042094296865 -13.10986736009568 M36.44080973676799 -14.007812326905688 C36.62155922353945 -13.821173642005306, 36.80230871031091 -13.634534957104925, 37.31042094296865 -13.10986736009568 M37.31042094296865 -13.10986736009568 C37.51506236033062 -12.869483906835795, 37.71970377769259 -12.629100453575907, 38.12071390812658 -12.158051136245305 M37.31042094296865 -13.10986736009568 C37.49109265332067 -12.897640088604643, 37.67176436367269 -12.685412817113603, 38.12071390812658 -12.158051136245305 M38.12071390812658 -12.158051136245305 C38.31240735955193 -11.901199374968023, 38.50410081097728 -11.644347613690739, 38.868358964640635 -11.156274872382312 M38.12071390812658 -12.158051136245305 C38.309408071596124 -11.90521814758805, 38.498102235065666 -11.652385158930796, 38.868358964640635 -11.156274872382312 M38.868358964640635 -11.156274872382312 C39.02591320546058 -10.91422924924536, 39.18346744628053 -10.672183626108408, 39.55028387860425 -10.108655082055241 M38.868358964640635 -11.156274872382312 C39.10398621332835 -10.794288143622413, 39.339613462016054 -10.432301414862515, 39.55028387860425 -10.108655082055241 M39.55028387860425 -10.108655082055241 C39.7708951146047 -9.716937493226405, 39.99150635060515 -9.325219904397569, 40.163686474273504 -9.019496659696287 M39.55028387860425 -10.108655082055241 C39.719665718807114 -9.807900473003853, 39.88904755900999 -9.507145863952465, 40.163686474273504 -9.019496659696287 M40.163686474273504 -9.019496659696287 C40.295863266464146 -8.745028722582127, 40.42804005865478 -8.470560785467969, 40.70604614880834 -7.893275190886684 M40.163686474273504 -9.019496659696287 C40.27990624458777 -8.77816381993399, 40.39612601490204 -8.536830980171693, 40.70604614880834 -7.893275190886684 M40.70604614880834 -7.893275190886684 C40.836018583444094 -7.572240764490299, 40.96599101807985 -7.251206338093915, 41.175134229970325 -6.734618561215508 M40.70604614880834 -7.893275190886684 C40.878564199614814 -7.46715226998508, 41.051082250421295 -7.041029349083476, 41.175134229970325 -6.734618561215508 M41.175134229970325 -6.734618561215508 C41.280867935945935 -6.41616548519523, 41.38660164192155 -6.097712409174953, 41.56902313421488 -5.548287939305138 M41.175134229970325 -6.734618561215508 C41.31870314320616 -6.302211869149069, 41.46227205644199 -5.86980517708263, 41.56902313421488 -5.548287939305138 M41.56902313421488 -5.548287939305138 C41.68250983793327 -5.115513952578411, 41.795996541651654 -4.682739965851684, 41.88609428754556 -4.339158212148133 M41.56902313421488 -5.548287939305138 C41.64964620545297 -5.240837226414217, 41.73026927669105 -4.933386513523297, 41.88609428754556 -4.339158212148133 M41.88609428754556 -4.339158212148133 C41.97115495000342 -3.9023896880044058, 42.05621561246127 -3.465621163860678, 42.125044776581774 -3.1121979531509023 M41.88609428754556 -4.339158212148133 C41.98036828363231 -3.855081167058795, 42.07464227971906 -3.371004121969457, 42.125044776581774 -3.1121979531509023 M42.125044776581774 -3.1121979531509023 C42.176155544069665 -2.715792933477431, 42.227266311557564 -2.3193879138039595, 42.28489270250937 -1.872449005199798 M42.125044776581774 -3.1121979531509023 C42.167161282107045 -2.7855506531416094, 42.20927778763232 -2.4589033531323166, 42.28489270250937 -1.872449005199798 M42.28489270250937 -1.872449005199798 C42.3023990327535 -1.5997737807919679, 42.31990536299764 -1.3270985563841378, 42.36498121591342 -0.6250057626472757 M42.28489270250937 -1.872449005199798 C42.313598671140774 -1.4253303727247941, 42.34230463977218 -0.9782117402497902, 42.36498121591342 -0.6250057626472757 M42.36498121591342 -0.6250057626472757 C42.36498121591342 -0.3165598554417519, 42.36498121591342 -0.00811394823622813, 42.36498121591342 0.625005762647271 M42.36498121591342 -0.6250057626472757 C42.36498121591342 -0.16055760634148147, 42.36498121591342 0.30389054996431275, 42.36498121591342 0.625005762647271 M42.36498121591342 0.625005762647271 C42.335015153521255 1.0917513725753827, 42.30504909112909 1.5584969825034942, 42.28489270250937 1.8724490051997846 M42.36498121591342 0.625005762647271 C42.345331647549784 0.9310636507568978, 42.32568207918616 1.2371215388665244, 42.28489270250937 1.8724490051997846 M42.28489270250937 1.8724490051997846 C42.244419030452825 2.186354813239779, 42.20394535839628 2.5002606212797733, 42.125044776581774 3.1121979531508885 M42.28489270250937 1.8724490051997846 C42.23501830991144 2.2592649453765032, 42.18514391731351 2.6460808855532214, 42.125044776581774 3.1121979531508885 M42.125044776581774 3.1121979531508885 C42.05251020942183 3.484647625330998, 41.97997564226189 3.8570972975111077, 41.88609428754556 4.339158212148129 M42.125044776581774 3.1121979531508885 C42.059285536675205 3.4498577518508586, 41.993526296768636 3.7875175505508283, 41.88609428754556 4.339158212148129 M41.88609428754556 4.339158212148129 C41.78940484524535 4.707876961108198, 41.69271540294515 5.0765957100682675, 41.56902313421489 5.548287939305125 M41.88609428754556 4.339158212148129 C41.76437742555171 4.803317359352375, 41.642660563557854 5.267476506556622, 41.56902313421489 5.548287939305125 M41.56902313421489 5.548287939305125 C41.441665718873466 5.931868182665001, 41.314308303532044 6.315448426024877, 41.175134229970325 6.734618561215495 M41.56902313421489 5.548287939305125 C41.467543537417484 5.853928316280886, 41.36606394062008 6.159568693256645, 41.175134229970325 6.734618561215495 M41.175134229970325 6.734618561215495 C41.054146532438104 7.033460513258085, 40.93315883490588 7.332302465300675, 40.70604614880834 7.893275190886679 M41.175134229970325 6.734618561215495 C41.009797623729725 7.1430031751956085, 40.84446101748912 7.551387789175721, 40.70604614880834 7.893275190886679 M40.70604614880834 7.893275190886679 C40.52372684784049 8.271865120354523, 40.34140754687265 8.650455049822368, 40.163686474273504 9.019496659696284 M40.70604614880834 7.893275190886679 C40.51301757113578 8.294103162573691, 40.319988993463205 8.694931134260703, 40.163686474273504 9.019496659696284 M40.163686474273504 9.019496659696284 C39.98679563027793 9.333584265350694, 39.80990478628237 9.647671871005105, 39.55028387860425 10.108655082055236 M40.163686474273504 9.019496659696284 C39.9477202416803 9.402966574617945, 39.731754009087105 9.786436489539607, 39.55028387860425 10.108655082055236 M39.55028387860425 10.108655082055236 C39.292376460285794 10.504870134431215, 39.034469041967334 10.901085186807194, 38.86835896464064 11.156274872382301 M39.55028387860425 10.108655082055236 C39.28409715718079 10.517589367304675, 39.01791043575733 10.926523652554113, 38.86835896464064 11.156274872382301 M38.86835896464064 11.156274872382301 C38.58517656106566 11.535713494725092, 38.301994157490675 11.915152117067882, 38.12071390812658 12.158051136245302 M38.86835896464064 11.156274872382301 C38.6379408344492 11.465014175315329, 38.40752270425777 11.773753478248357, 38.12071390812658 12.158051136245302 M38.12071390812658 12.158051136245302 C37.89826952785337 12.419346962758024, 37.67582514758016 12.680642789270744, 37.31042094296866 13.10986736009567 M38.12071390812658 12.158051136245302 C37.926220477868135 12.386514186416568, 37.731727047609695 12.614977236587833, 37.31042094296866 13.10986736009567 M37.31042094296866 13.10986736009567 C37.00362069468601 13.426663805216334, 36.696820446403365 13.743460250336998, 36.44080973676799 14.007812326905684 M37.31042094296866 13.10986736009567 C37.08350504807485 13.344176651714976, 36.856589153181034 13.578485943334282, 36.44080973676799 14.007812326905684 M36.44080973676799 14.007812326905684 C36.19315788452145 14.23272318660705, 35.945506032274906 14.457634046308417, 35.51545370850189 14.848196188198111 M36.44080973676799 14.007812326905684 C36.082034810718824 14.333642222079177, 35.72325988466966 14.659472117252669, 35.51545370850189 14.848196188198111 M35.51545370850189 14.848196188198111 C35.31400260889411 15.008848079296415, 35.11255150928633 15.16949997039472, 34.53815534457871 15.627565626425152 M35.51545370850189 14.848196188198111 C35.23568107399614 15.071307419153968, 34.95590843949039 15.294418650109824, 34.53815534457871 15.627565626425152 M34.53815534457871 15.627565626425152 C34.22368922088403 15.846923581295469, 33.909223097189354 16.066281536165786, 33.51293057360571 16.34271804539089 M34.53815534457871 15.627565626425152 C34.17213588062109 15.882884959754769, 33.806116416663464 16.138204293084385, 33.51293057360571 16.34271804539089 M33.51293057360571 16.34271804539089 C33.16185460201252 16.555542362522097, 32.81077863041932 16.768366679653305, 32.44399226407678 16.990714730406093 M33.51293057360571 16.34271804539089 C33.18514492690928 16.541423630700535, 32.857359280212854 16.740129216010182, 32.44399226407678 16.990714730406093 M32.44399226407678 16.990714730406093 C32.141218996947025 17.148671349932155, 31.838445729817266 17.30662796945822, 31.335732912792388 17.56889292409717 M32.44399226407678 16.990714730406093 C32.06735278096455 17.187207307496646, 31.69071329785231 17.383699884587198, 31.335732912792388 17.56889292409717 M31.335732912792388 17.56889292409717 C30.93502319048326 17.74627523153184, 30.534313468174133 17.923657538966513, 30.192706595147804 18.07487676824742 M31.335732912792388 17.56889292409717 C31.040175830209435 17.699727277167295, 30.74461874762648 17.83056163023742, 30.192706595147804 18.07487676824742 M30.192706595147804 18.07487676824742 C29.895692243730522 18.184180795139547, 29.59867789231324 18.293484822031676, 29.019610251460616 18.506587066708033 M30.192706595147804 18.07487676824742 C29.89401015165856 18.18479982057112, 29.595313708169318 18.294722872894816, 29.019610251460616 18.506587066708033 M29.019610251460616 18.506587066708033 C28.594483858003617 18.632762348752095, 28.169357464546618 18.758937630796158, 27.821264386235413 18.86224982926107 M29.019610251460616 18.506587066708033 C28.72143867250538 18.595082826207392, 28.423267093550145 18.68357858570675, 27.821264386235413 18.86224982926107 M27.821264386235413 18.86224982926107 C27.436142194535506 18.950151456359407, 27.051020002835603 19.03805308345774, 26.602593259676766 19.140403561325773 M27.821264386235413 18.86224982926107 C27.338390773326765 18.972462580362663, 26.855517160418117 19.08267533146426, 26.602593259676766 19.140403561325773 M26.602593259676766 19.140403561325773 C26.154682664130295 19.21281827281518, 25.706772068583824 19.28523298430459, 25.36860465284788 19.3399052695533 M26.602593259676766 19.140403561325773 C26.167268181894077 19.21078354390528, 25.731943104111387 19.281163526484786, 25.36860465284788 19.3399052695533 M25.36860465284788 19.3399052695533 C25.08378578825615 19.36738140287566, 24.798966923664427 19.394857536198025, 24.1243692896239 19.45993515863156 M25.36860465284788 19.3399052695533 C25.114896814277483 19.364380159611866, 24.86118897570709 19.388855049670436, 24.1243692896239 19.45993515863156 M24.1243692896239 19.45993515863156 C23.773784306676262 19.47117773666242, 23.42319932372863 19.482420314693275, 22.875000000000004 19.5 M24.1243692896239 19.45993515863156 C23.78902337625822 19.470689049361972, 23.453677462892543 19.48144294009239, 22.875000000000004 19.5 M22.875000000000004 19.5 C22.875000000000004 19.5, 22.875 19.5, 22.875 19.5 M22.875000000000004 19.5 C22.875000000000004 19.5, 22.875 19.5, 22.875 19.5 M22.875 19.5 C10.165335894670957 19.5, -2.5443282106580867 19.5, -22.874999999999996 19.5 M22.875 19.5 C4.824378308840515 19.5, -13.22624338231897 19.5, -22.874999999999996 19.5 M-22.874999999999996 19.5 C-23.295519990936526 19.48651474238317, -23.716039981873056 19.473029484766347, -24.124369289623893 19.45993515863156 M-22.874999999999996 19.5 C-23.130520102502405 19.491805967652457, -23.386040205004814 19.48361193530491, -24.124369289623893 19.45993515863156 M-24.124369289623893 19.45993515863156 C-24.39813406979502 19.43352539953877, -24.671898849966148 19.40711564044598, -25.36860465284787 19.3399052695533 M-24.124369289623893 19.45993515863156 C-24.4607758178136 19.42748242544514, -24.797182346003307 19.395029692258724, -25.36860465284787 19.3399052695533 M-25.36860465284787 19.3399052695533 C-25.76387899650946 19.27600037906841, -26.159153340171052 19.21209548858352, -26.60259325967676 19.140403561325773 M-25.36860465284787 19.3399052695533 C-25.736968904261754 19.280350994092135, -26.105333155675634 19.220796718630975, -26.60259325967676 19.140403561325773 M-26.60259325967676 19.140403561325773 C-27.06760834366652 19.034266902912123, -27.532623427656286 18.928130244498472, -27.821264386235388 18.862249829261074 M-26.60259325967676 19.140403561325773 C-26.87798740183493 19.077546645492898, -27.153381543993095 19.014689729660024, -27.821264386235388 18.862249829261074 M-27.821264386235388 18.862249829261074 C-28.271532889922874 18.728612500874235, -28.72180139361036 18.5949751724874, -29.01961025146059 18.506587066708043 M-27.821264386235388 18.862249829261074 C-28.066596175766026 18.789436641901222, -28.31192796529666 18.716623454541374, -29.01961025146059 18.506587066708043 M-29.01961025146059 18.506587066708043 C-29.473389622684827 18.339592063407, -29.92716899390906 18.172597060105957, -30.192706595147797 18.074876768247425 M-29.01961025146059 18.506587066708043 C-29.357072645311117 18.382397786302878, -29.694535039161643 18.258208505897713, -30.192706595147797 18.074876768247425 M-30.192706595147797 18.074876768247425 C-30.45088430617902 17.96058915414359, -30.709062017210243 17.846301540039757, -31.33573291279238 17.568892924097174 M-30.192706595147797 18.074876768247425 C-30.440457885457686 17.965204621308143, -30.688209175767575 17.85553247436886, -31.33573291279238 17.568892924097174 M-31.33573291279238 17.568892924097174 C-31.679613838615417 17.389490465361543, -32.02349476443845 17.210088006625913, -32.44399226407678 16.990714730406097 M-31.33573291279238 17.568892924097174 C-31.76483960174683 17.34502823932559, -32.19394629070128 17.121163554554006, -32.44399226407678 16.990714730406097 M-32.44399226407678 16.990714730406097 C-32.72805558899669 16.818513873498258, -33.012118913916595 16.64631301659042, -33.512930573605686 16.3427180453909 M-32.44399226407678 16.990714730406097 C-32.828612793439206 16.75755550522548, -33.21323332280162 16.52439628004486, -33.512930573605686 16.3427180453909 M-33.512930573605686 16.3427180453909 C-33.88378353079326 16.084027076422622, -34.25463648798083 15.825336107454344, -34.53815534457871 15.627565626425156 M-33.512930573605686 16.3427180453909 C-33.7899453110131 16.149484556350195, -34.06696004842052 15.956251067309495, -34.53815534457871 15.627565626425156 M-34.53815534457871 15.627565626425156 C-34.75697470939976 15.453063006008215, -34.97579407422082 15.278560385591273, -35.515453708501866 14.848196188198125 M-34.53815534457871 15.627565626425156 C-34.77176419584816 15.441268784130385, -35.0053730471176 15.254971941835613, -35.515453708501866 14.848196188198125 M-35.515453708501866 14.848196188198125 C-35.853137915838566 14.541520325729456, -36.19082212317527 14.234844463260785, -36.440809736767974 14.007812326905697 M-35.515453708501866 14.848196188198125 C-35.829422413289706 14.563058117666522, -36.14339111807754 14.27792004713492, -36.440809736767974 14.007812326905697 M-36.440809736767974 14.007812326905697 C-36.78721652628817 13.650118876199754, -37.13362331580837 13.29242542549381, -37.310420942968655 13.109867360095677 M-36.440809736767974 14.007812326905697 C-36.715737763008434 13.723926567801689, -36.99066578924889 13.440040808697683, -37.310420942968655 13.109867360095677 M-37.310420942968655 13.109867360095677 C-37.50260483552859 12.884117224321503, -37.69478872808852 12.65836708854733, -38.120713908126575 12.158051136245307 M-37.310420942968655 13.109867360095677 C-37.53382594478075 12.847443132862464, -37.75723094659285 12.585018905629251, -38.120713908126575 12.158051136245307 M-38.120713908126575 12.158051136245307 C-38.40315200929013 11.779609811326493, -38.68559011045368 11.401168486407679, -38.868358964640635 11.156274872382316 M-38.120713908126575 12.158051136245307 C-38.407850176911026 11.773314694726368, -38.69498644569547 11.38857825320743, -38.868358964640635 11.156274872382316 M-38.868358964640635 11.156274872382316 C-39.03595412277197 10.898803703891252, -39.2035492809033 10.641332535400188, -39.55028387860425 10.108655082055249 M-38.868358964640635 11.156274872382316 C-39.09925075796897 10.801563074702237, -39.33014255129729 10.446851277022159, -39.55028387860425 10.108655082055249 M-39.55028387860425 10.108655082055249 C-39.705385770491276 9.833255967240204, -39.860487662378304 9.557856852425159, -40.163686474273504 9.019496659696289 M-39.55028387860425 10.108655082055249 C-39.763173892894635 9.730647304231107, -39.97606390718502 9.352639526406964, -40.163686474273504 9.019496659696289 M-40.163686474273504 9.019496659696289 C-40.27970106656732 8.778589876483567, -40.395715658861135 8.537683093270843, -40.70604614880834 7.893275190886686 M-40.163686474273504 9.019496659696289 C-40.34031502374238 8.65272369747863, -40.51694357321126 8.28595073526097, -40.70604614880834 7.893275190886686 M-40.70604614880834 7.893275190886686 C-40.86918839579031 7.490310686700453, -41.03233064277228 7.087346182514219, -41.175134229970325 6.73461856121551 M-40.70604614880834 7.893275190886686 C-40.815289407788505 7.623442229130952, -40.92453266676867 7.3536092673752185, -41.175134229970325 6.73461856121551 M-41.175134229970325 6.73461856121551 C-41.262221209849166 6.47232645324636, -41.349308189728006 6.2100343452772115, -41.56902313421488 5.5482879393051325 M-41.175134229970325 6.73461856121551 C-41.26590341991644 6.461236223204227, -41.356672609862564 6.187853885192943, -41.56902313421488 5.5482879393051325 M-41.56902313421488 5.5482879393051325 C-41.68207534392633 5.117170866537748, -41.79512755363778 4.6860537937703635, -41.88609428754556 4.339158212148136 M-41.56902313421488 5.5482879393051325 C-41.68605238485638 5.102004685811021, -41.80308163549788 4.65572143231691, -41.88609428754556 4.339158212148136 M-41.88609428754556 4.339158212148136 C-41.954948285455984 3.9856074851757053, -42.023802283366415 3.632056758203275, -42.125044776581774 3.112197953150904 M-41.88609428754556 4.339158212148136 C-41.93624450934358 4.081647422468411, -41.98639473114161 3.824136632788686, -42.125044776581774 3.112197953150904 M-42.125044776581774 3.112197953150904 C-42.17096245697052 2.75606949152738, -42.21688013735927 2.399941029903855, -42.28489270250937 1.872449005199809 M-42.125044776581774 3.112197953150904 C-42.18065390314665 2.6809045487778373, -42.23626302971153 2.2496111444047706, -42.28489270250937 1.872449005199809 M-42.28489270250937 1.872449005199809 C-42.30366178452412 1.5801054026897474, -42.322430866538866 1.2877618001796858, -42.36498121591342 0.6250057626472781 M-42.28489270250937 1.872449005199809 C-42.30496286088734 1.5598400881226193, -42.32503301926531 1.2472311710454298, -42.36498121591342 0.6250057626472781 M-42.36498121591342 0.6250057626472781 C-42.36498121591342 0.2081766261734611, -42.36498121591342 -0.20865251030035592, -42.36498121591342 -0.6250057626472687 M-42.36498121591342 0.6250057626472781 C-42.36498121591342 0.3299540487820954, -42.36498121591342 0.034902334916912636, -42.36498121591342 -0.6250057626472687 M-42.36498121591342 -0.6250057626472687 C-42.34197162572627 -0.9833987028189652, -42.31896203553912 -1.3417916429906618, -42.28489270250937 -1.8724490051997822 M-42.36498121591342 -0.6250057626472687 C-42.3347288067195 -1.096211455147733, -42.304476397525576 -1.5674171476481975, -42.28489270250937 -1.8724490051997822 M-42.28489270250937 -1.8724490051997822 C-42.225538821819065 -2.332785983084315, -42.16618494112876 -2.7931229609688484, -42.125044776581774 -3.112197953150895 M-42.28489270250937 -1.8724490051997822 C-42.2474521168262 -2.1628307942785194, -42.21001153114303 -2.453212583357257, -42.125044776581774 -3.112197953150895 M-42.125044776581774 -3.112197953150895 C-42.05348019625249 -3.479666947962377, -41.9819156159232 -3.8471359427738587, -41.88609428754556 -4.339158212148126 M-42.125044776581774 -3.112197953150895 C-42.050881639683915 -3.493009986736883, -41.97671850278605 -3.873822020322871, -41.88609428754556 -4.339158212148126 M-41.88609428754556 -4.339158212148126 C-41.7682821463316 -4.788426966701962, -41.65047000511763 -5.237695721255799, -41.56902313421489 -5.548287939305123 M-41.88609428754556 -4.339158212148126 C-41.78587407873678 -4.7213413040492505, -41.68565386992801 -5.103524395950375, -41.56902313421489 -5.548287939305123 M-41.56902313421489 -5.548287939305123 C-41.44811152196153 -5.912454450763015, -41.32719990970817 -6.276620962220907, -41.17513422997033 -6.734618561215485 M-41.56902313421489 -5.548287939305123 C-41.42586751741857 -5.979449848345583, -41.28271190062225 -6.410611757386044, -41.17513422997033 -6.734618561215485 M-41.17513422997033 -6.734618561215485 C-41.06387036720232 -7.009442453392922, -40.95260650443431 -7.28426634557036, -40.70604614880834 -7.893275190886676 M-41.17513422997033 -6.734618561215485 C-41.078791774607275 -6.972586288616892, -40.98244931924422 -7.210554016018298, -40.70604614880834 -7.893275190886676 M-40.70604614880834 -7.893275190886676 C-40.58548881833254 -8.143615067133322, -40.46493148785674 -8.393954943379967, -40.163686474273504 -9.019496659696282 M-40.70604614880834 -7.893275190886676 C-40.56106308621933 -8.194335622493355, -40.41608002363031 -8.495396054100034, -40.163686474273504 -9.019496659696282 M-40.163686474273504 -9.019496659696282 C-40.02044184381103 -9.273842006174121, -39.87719721334855 -9.528187352651958, -39.55028387860425 -10.108655082055243 M-40.163686474273504 -9.019496659696282 C-39.92711136484236 -9.439559722318783, -39.690536255411224 -9.859622784941287, -39.55028387860425 -10.108655082055243 M-39.55028387860425 -10.108655082055243 C-39.31457938003426 -10.470760487378818, -39.07887488146427 -10.832865892702394, -38.86835896464064 -11.156274872382308 M-39.55028387860425 -10.108655082055243 C-39.33030488128653 -10.446601894566989, -39.110325883968805 -10.784548707078736, -38.86835896464064 -11.156274872382308 M-38.86835896464064 -11.156274872382308 C-38.595003125995355 -11.522546792937785, -38.32164728735007 -11.888818713493261, -38.12071390812659 -12.158051136245302 M-38.86835896464064 -11.156274872382308 C-38.646758084022714 -11.453199864154794, -38.425157203404794 -11.750124855927279, -38.12071390812659 -12.158051136245302 M-38.12071390812659 -12.158051136245302 C-37.817350339695764 -12.514399245600195, -37.513986771264946 -12.870747354955087, -37.31042094296866 -13.10986736009567 M-38.12071390812659 -12.158051136245302 C-37.90774365962815 -12.408218108482004, -37.69477341112972 -12.658385080718704, -37.31042094296866 -13.10986736009567 M-37.31042094296866 -13.10986736009567 C-37.057717875898724 -13.370804024153031, -36.805014808828794 -13.631740688210392, -36.440809736767996 -14.007812326905677 M-37.31042094296866 -13.10986736009567 C-37.0125863078652 -13.417406073518293, -36.71475167276174 -13.724944786940915, -36.440809736767996 -14.007812326905677 M-36.440809736767996 -14.007812326905677 C-36.09673874387905 -14.320288499027807, -35.752667750990106 -14.632764671149939, -35.51545370850189 -14.848196188198107 M-36.440809736767996 -14.007812326905677 C-36.22430590737626 -14.204435376381829, -36.00780207798453 -14.40105842585798, -35.51545370850189 -14.848196188198107 M-35.51545370850189 -14.848196188198107 C-35.13056254271119 -15.155136650532118, -34.74567137692049 -15.462077112866126, -34.53815534457872 -15.627565626425149 M-35.51545370850189 -14.848196188198107 C-35.2826482882514 -15.033852315635455, -35.049842868000916 -15.219508443072804, -34.53815534457872 -15.627565626425149 M-34.53815534457872 -15.627565626425149 C-34.17680792345789 -15.879625944921289, -33.815460502337075 -16.13168626341743, -33.512930573605715 -16.342718045390885 M-34.53815534457872 -15.627565626425149 C-34.16410469992591 -15.888487163743518, -33.7900540552731 -16.149408701061887, -33.512930573605715 -16.342718045390885 M-33.512930573605715 -16.342718045390885 C-33.17385978333942 -16.548264751051455, -32.83478899307311 -16.753811456712025, -32.44399226407679 -16.99071473040609 M-33.512930573605715 -16.342718045390885 C-33.09007856016565 -16.59905342089251, -32.66722654672559 -16.85538879639413, -32.44399226407679 -16.99071473040609 M-32.44399226407679 -16.99071473040609 C-32.141921772441606 -17.14830471240678, -31.839851280806425 -17.30589469440747, -31.335732912792388 -17.56889292409717 M-32.44399226407679 -16.99071473040609 C-32.118184647473726 -17.16068835529817, -31.792377030870668 -17.33066198019025, -31.335732912792388 -17.56889292409717 M-31.335732912792388 -17.56889292409717 C-30.90065612402392 -17.761488512390585, -30.465579335255452 -17.954084100684003, -30.192706595147804 -18.07487676824742 M-31.335732912792388 -17.56889292409717 C-31.0133983519368 -17.71158087247292, -30.69106379108121 -17.85426882084867, -30.192706595147804 -18.07487676824742 M-30.192706595147804 -18.07487676824742 C-29.842279743056285 -18.20383708912741, -29.491852890964765 -18.3327974100074, -29.01961025146062 -18.506587066708033 M-30.192706595147804 -18.07487676824742 C-29.916012983689082 -18.176702574991936, -29.639319372230357 -18.278528381736454, -29.01961025146062 -18.506587066708033 M-29.01961025146062 -18.506587066708033 C-28.587329332562934 -18.63488577434802, -28.155048413665245 -18.763184481988006, -27.821264386235413 -18.862249829261067 M-29.01961025146062 -18.506587066708033 C-28.682495438335714 -18.60664097369174, -28.345380625210808 -18.70669488067545, -27.821264386235413 -18.862249829261067 M-27.821264386235413 -18.862249829261067 C-27.418169091454843 -18.954253699852107, -27.01507379667427 -19.046257570443146, -26.602593259676766 -19.140403561325773 M-27.821264386235413 -18.862249829261067 C-27.53838364629157 -18.926815512183907, -27.255502906347726 -18.991381195106747, -26.602593259676766 -19.140403561325773 M-26.602593259676766 -19.140403561325773 C-26.111011029732655 -19.219878763986006, -25.619428799788544 -19.299353966646244, -25.368604652847882 -19.3399052695533 M-26.602593259676766 -19.140403561325773 C-26.248727548532962 -19.197613825233926, -25.894861837389158 -19.254824089142083, -25.368604652847882 -19.3399052695533 M-25.368604652847882 -19.3399052695533 C-25.090145782182177 -19.36676786191063, -24.811686911516468 -19.393630454267964, -24.124369289623903 -19.45993515863156 M-25.368604652847882 -19.3399052695533 C-24.91494462254192 -19.383669307070903, -24.46128459223596 -19.427433344588508, -24.124369289623903 -19.45993515863156 M-24.124369289623903 -19.45993515863156 C-23.8726289586853 -19.46800798106193, -23.620888627746698 -19.476080803492305, -22.875000000000007 -19.5 M-24.124369289623903 -19.45993515863156 C-23.685441892406082 -19.474010705939985, -23.24651449518826 -19.488086253248408, -22.875000000000007 -19.5 M-22.875000000000007 -19.5 C-22.875000000000007 -19.5, -22.875000000000004 -19.5, -22.875 -19.5 M-22.875000000000007 -19.5 C-22.875000000000004 -19.5, -22.875 -19.5, -22.875 -19.5" stroke="#89b4fa" stroke-width="1.3" fill="none" stroke-dasharray="0 0" style="fill:#89b4fa !important;stroke:#89b4fa !important"/></g><g class="label" style="color:#1e1e2e !important;font-weight:bold !important" transform="translate(-30, -12)"><rect/><foreignObject width="60" height="24"><div style="color: rgb(30, 30, 46) !important; font-weight: bold !important; display: table-cell; white-space: nowrap; line-height: 1.5; max-width: 200px; text-align: center;" xmlns="http://www.w3.org/1999/xhtml"><span style="color:#1e1e2e !important;font-weight:bold !important" class="nodeLabel "><p>deploy</p></span></div></foreignObject></g></g><g class="node default  " id="my-svg-flowchart-ctx_user-4" data-look="classic" transform="translate(82, 150)"><rect class="basic label-container" style="fill:#313244 !important;stroke:#6c7086 !important;stroke-width:2px !important" x="-70" y="-27" width="140" height="54"/><g class="label" style="" transform="translate(-40, -12)"><rect/><foreignObject width="80" height="24"><div xmlns="http://www.w3.org/1999/xhtml" style="display: table-cell; white-space: nowrap; line-height: 1.5; max-width: 200px; text-align: center;"><span class="nodeLabel "><p>ctx_user</p></span></div></foreignObject></g></g></g><g class="edges edgePaths"><path d="M152,150L183,150" id="my-svg-L_ctx_user_ctx_default_0_0" class=" edge-thickness-normal edge-pattern-solid edge-thickness-normal edge-pattern-solid flowchart-link" style=";" data-edge="true" data-et="edge" data-id="L_ctx_user_ctx_default_0_0" data-points="W3sieCI6MTUyLCJ5IjoxNTB9LHsieCI6MTg3LCJ5IjoxNTB9XQ==" data-look="classic" marker-end="url(#my-svg_flowchart-v2-pointEnd)"/></g><g class="edgeLabels"><g class="edgeLabel"><g class="label" data-id="L_ctx_user_ctx_default_0_0" transform="translate(0, 0)"><foreignObject width="0" height="0"><div xmlns="http://www.w3.org/1999/xhtml" class="labelBkg" style="display: table-cell; white-space: nowrap; line-height: 1.5; max-width: 200px; text-align: center;"><span class="edgeLabel "></span></div></foreignObject></g></g></g></svg>