<?xml version="1.0" encoding="UTF-8" standalone="no"?>
<!DOCTYPE svg PUBLIC "-//W3C//DTD SVG 1.1//EN"
 "http://www.w3.org/Graphics/SVG/1.1/DTD/svg11.dtd">
<!-- Generated by graphviz version 12.2.1 (0)
 -->
<!-- Pages: 1 -->
<svg width="1559pt" height="436pt"
 viewBox="0.00 0.00 1559.30 436.00" xmlns="http://www.w3.org/2000/svg" xmlns:xlink="http://www.w3.org/1999/xlink">
<g id="graph0" class="graph" transform="scale(1 1) rotate(0) translate(4 432)">
<polygon fill="#1e1e2e" stroke="none" points="-4,4 -4,-432 1555.3,-432 1555.3,4 -4,4"/>
<g id="clust1" class="cluster">
<title>cluster_ctx_user</title>
<polygon fill="#313244" stroke="#6c7086" stroke-dasharray="5,2" points="510.8,-8 510.8,-193 743.8,-193 743.8,-8 510.8,-8"/>
<text text-anchor="middle" x="627.3" y="-175.7" font-family="Times,serif" font-size="14.00" fill="#cdd6f4">user { host, user }</text>
</g>
<g id="clust2" class="cluster">
<title>cluster_ctx_default</title>
<polygon fill="#313244" stroke="#6c7086" stroke-dasharray="5,2" points="82,-201 82,-420 1543.3,-420 1543.3,-201 82,-201"/>
<text text-anchor="middle" x="812.65" y="-402.7" font-family="Times,serif" font-size="14.00" fill="#cdd6f4">default { host, user }</text>
</g>
<!-- deploy -->
<g id="node1" class="node">
<title>deploy</title>
<path fill="#89b4fa" stroke="#89b4fa" d="M262.31,-175C262.31,-175 223.06,-175 223.06,-175 217.06,-175 211.06,-169 211.06,-163 211.06,-163 211.06,-151 211.06,-151 211.06,-145 217.06,-139 223.06,-139 223.06,-139 262.31,-139 262.31,-139 268.31,-139 274.31,-145 274.31,-151 274.31,-151 274.31,-163 274.31,-163 274.31,-169 268.31,-175 262.31,-175"/>
<text text-anchor="middle" x="242.68" y="-152.32" font-family="Times,serif" font-size="14.00" fill="#1e1e2e">deploy</text>
</g>
<!-- user__self_provide_user_ -->
<g id="node4" class="node">
<title>user__self_provide_user_</title>
<polygon fill="#f2cdcd" stroke="#f2cdcd" points="715.92,-160 538.67,-160 538.67,-124 715.92,-124 715.92,-160"/>
<text text-anchor="middle" x="627.3" y="-137.32" font-family="Times,serif" font-size="14.00" fill="#1e1e2e">user/self&#45;provide(user)</text>
</g>
<!-- deploy&#45;&gt;user__self_provide_user_ -->
<g id="edge11" class="edge">
<title>deploy&#45;&gt;user__self_provide_user_</title>
<path fill="none" stroke="#a6adc8" d="M274.67,-155.79C328.93,-153.66 443.31,-149.17 526.94,-145.9"/>
<polygon fill="#a6adc8" stroke="#a6adc8" points="526.9,-149.4 536.75,-145.51 526.62,-142.41 526.9,-149.4"/>
</g>
<!-- user__aspect_user_ -->
<g id="node2" class="node">
<title>user__aspect_user_</title>
<polygon fill="#fab387" stroke="#fab387" points="697.55,-106 557.05,-106 557.05,-70 697.55,-70 697.55,-106"/>
<text text-anchor="middle" x="627.3" y="-83.33" font-family="Times,serif" font-size="14.00" fill="#1e1e2e">user/aspect(user)</text>
</g>
<!-- user__cross_provide__anon__ -->
<g id="node3" class="node">
<title>user__cross_provide__anon__</title>
<polygon fill="#f38ba8" stroke="#f38ba8" points="735.8,-52 518.8,-52 518.8,-16 735.8,-16 735.8,-52"/>
<text text-anchor="middle" x="627.3" y="-29.32" font-family="Times,serif" font-size="14.00" fill="#1e1e2e">user/cross&#45;provide(&lt;anon&gt;)</text>
</g>
<!-- n_default -->
<g id="node5" class="node">
<title>n_default</title>
<polygon fill="#fab387" stroke="#fab387" points="395.37,-244 319.03,-278.7 166.34,-278.7 90,-244 166.34,-209.3 319.03,-209.3 395.37,-244"/>
<text text-anchor="middle" x="242.68" y="-247.95" font-family="Times,serif" font-size="14.00" fill="#1e1e2e">default</text>
<text text-anchor="middle" x="242.68" y="-230.7" font-family="Times,serif" font-size="14.00" fill="#1e1e2e">({ aspect&#45;chain, class })</text>
</g>
<!-- default__aspect_default_ -->
<g id="node6" class="node">
<title>default__aspect_default_</title>
<polygon fill="#a6e3a1" stroke="#a6e3a1" points="1286.26,-265 1108.26,-265 1108.26,-229 1286.26,-229 1286.26,-265"/>
<text text-anchor="middle" x="1197.26" y="-242.32" font-family="Times,serif" font-size="14.00" fill="#1e1e2e">default/aspect(default)</text>
</g>
<!-- n_default&#45;&gt;default__aspect_default_ -->
<g id="edge1" class="edge">
<title>n_default&#45;&gt;default__aspect_default_</title>
<path fill="none" stroke="#a6adc8" d="M358.85,-226.93C382.77,-224.04 407.85,-221.5 431.37,-220 669.82,-204.82 950.67,-224.28 1096.71,-237.22"/>
<polygon fill="#a6adc8" stroke="#a6adc8" points="1096.07,-240.67 1106.34,-238.08 1096.69,-233.7 1096.07,-240.67"/>
</g>
<!-- den__provides__define_user -->
<g id="node10" class="node">
<title>den__provides__define_user</title>
<polygon fill="#a6e3a1" stroke="#a6e3a1" points="720.87,-373 533.73,-373 467.08,-337 787.51,-337 720.87,-373"/>
<text text-anchor="middle" x="627.3" y="-350.32" font-family="Times,serif" font-size="14.00" fill="#1e1e2e">provides/define&#45;user</text>
</g>
<!-- n_default&#45;&gt;den__provides__define_user -->
<g id="edge2" class="edge">
<title>n_default&#45;&gt;den__provides__define_user</title>
<path fill="none" stroke="#a6adc8" d="M348.18,-265.95C364.64,-271.73 380.97,-278.97 395.37,-288 415.63,-300.71 410.24,-316.79 431.37,-328 444.85,-335.15 459.56,-340.63 474.65,-344.8"/>
<polygon fill="#a6adc8" stroke="#a6adc8" points="473.69,-348.16 484.24,-347.24 475.41,-341.38 473.69,-348.16"/>
</g>
<!-- den__provides__hostname -->
<g id="node11" class="node">
<title>den__provides__hostname</title>
<polygon fill="#fab387" stroke="#fab387" points="715.22,-265 539.38,-265 476.76,-229 777.84,-229 715.22,-265"/>
<text text-anchor="middle" x="627.3" y="-242.32" font-family="Times,serif" font-size="14.00" fill="#1e1e2e">provides/hostname</text>
</g>
<!-- n_default&#45;&gt;den__provides__hostname -->
<g id="edge3" class="edge">
<title>n_default&#45;&gt;den__provides__hostname</title>
<path fill="none" stroke="#a6adc8" d="M393.81,-245.18C426.95,-245.44 461.83,-245.71 494.2,-245.96"/>
<polygon fill="#a6adc8" stroke="#a6adc8" points="494,-249.46 504.03,-246.04 494.06,-242.46 494,-249.46"/>
</g>
<!-- den__provides__mutual_provider -->
<g id="node12" class="node">
<title>den__provides__mutual_provider</title>
<polygon fill="#f9e2af" stroke="#f9e2af" points="741.72,-319 512.87,-319 431.37,-283 823.23,-283 741.72,-319"/>
<text text-anchor="middle" x="627.3" y="-296.32" font-family="Times,serif" font-size="14.00" fill="#1e1e2e">provides/mutual&#45;provider</text>
</g>
<!-- n_default&#45;&gt;den__provides__mutual_provider -->
<g id="edge4" class="edge">
<title>n_default&#45;&gt;den__provides__mutual_provider</title>
<path fill="none" stroke="#a6adc8" d="M355.77,-262.31C380.65,-266.26 406.89,-270.35 431.37,-274 446.81,-276.3 462.96,-278.65 479.05,-280.94"/>
<polygon fill="#a6adc8" stroke="#a6adc8" points="478.29,-284.36 488.69,-282.3 479.28,-277.43 478.29,-284.36"/>
</g>
<!-- den__provides__default__aspect_default__den__provides -->
<g id="node7" class="node">
<title>den__provides__default__aspect_default__den__provides</title>
<polygon fill="#a6e3a1" stroke="#a6e3a1" points="1394.69,-319 999.84,-319 859.23,-283 1535.3,-283 1394.69,-319"/>
<text text-anchor="middle" x="1197.26" y="-296.32" font-family="Times,serif" font-size="14.00" fill="#1e1e2e">provides/default/aspect(default):den/provides</text>
</g>
<!-- default__cross_provide_user_ -->
<g id="node8" class="node">
<title>default__cross_provide_user_</title>
<polygon fill="#f9e2af" stroke="#f9e2af" points="347.06,-333 138.31,-333 138.31,-297 347.06,-297 347.06,-333"/>
<text text-anchor="middle" x="242.68" y="-310.32" font-family="Times,serif" font-size="14.00" fill="#1e1e2e">default/cross&#45;provide(user)</text>
</g>
<!-- default__self_provide_default_ -->
<g id="node9" class="node">
<title>default__self_provide_default_</title>
<polygon fill="#fab387" stroke="#fab387" points="350.06,-387 135.31,-387 135.31,-351 350.06,-351 350.06,-387"/>
<text text-anchor="middle" x="242.68" y="-364.32" font-family="Times,serif" font-size="14.00" fill="#1e1e2e">default/self&#45;provide(default)</text>
</g>
<!-- den__provides__define_user&#45;&gt;default__aspect_default_ -->
<g id="edge5" class="edge">
<title>den__provides__define_user&#45;&gt;default__aspect_default_</title>
<path fill="none" stroke="#a6adc8" d="M760.75,-351.99C782.76,-347.29 804.49,-339.75 823.23,-328 847.66,-312.67 834.36,-288.62 859.23,-274 930.68,-232 1025.84,-228.12 1096.82,-233.08"/>
<polygon fill="#a6adc8" stroke="#a6adc8" points="1096.25,-236.55 1106.49,-233.83 1096.79,-229.57 1096.25,-236.55"/>
</g>
<!-- den__provides__define_user&#45;&gt;den__provides__default__aspect_default__den__provides -->
<g id="edge6" class="edge">
<title>den__provides__define_user&#45;&gt;den__provides__default__aspect_default__den__provides</title>
<path fill="none" stroke="#a6adc8" d="M782,-340.39C846.11,-334.29 921.52,-327.12 990.32,-320.58"/>
<polygon fill="#a6adc8" stroke="#a6adc8" points="990.61,-324.07 1000.23,-319.64 989.95,-317.1 990.61,-324.07"/>
</g>
<!-- den__provides__hostname&#45;&gt;default__aspect_default_ -->
<g id="edge7" class="edge">
<title>den__provides__hostname&#45;&gt;default__aspect_default_</title>
<path fill="none" stroke="#a6adc8" d="M747.36,-247C850.93,-247 999.29,-247 1096.67,-247"/>
<polygon fill="#a6adc8" stroke="#a6adc8" points="1096.48,-250.5 1106.48,-247 1096.48,-243.5 1096.48,-250.5"/>
</g>
<!-- den__provides__hostname&#45;&gt;den__provides__default__aspect_default__den__provides -->
<g id="edge8" class="edge">
<title>den__provides__hostname&#45;&gt;den__provides__default__aspect_default__den__provides</title>
<path fill="none" stroke="#a6adc8" d="M725.97,-259.22C767.08,-264.15 815.44,-269.69 859.23,-274 885.67,-276.6 913.3,-279.13 940.87,-281.53"/>
<polygon fill="#a6adc8" stroke="#a6adc8" points="940.48,-285.01 950.75,-282.38 941.08,-278.03 940.48,-285.01"/>
</g>
<!-- den__provides__mutual_provider&#45;&gt;default__aspect_default_ -->
<g id="edge9" class="edge">
<title>den__provides__mutual_provider&#45;&gt;default__aspect_default_</title>
<path fill="none" stroke="#a6adc8" d="M779.45,-282.53C806.02,-279.51 833.42,-276.54 859.23,-274 938.89,-266.15 1029.31,-259.01 1096.43,-254.04"/>
<polygon fill="#a6adc8" stroke="#a6adc8" points="1096.61,-257.54 1106.33,-253.31 1096.1,-250.55 1096.61,-257.54"/>
</g>
<!-- den__provides__mutual_provider&#45;&gt;den__provides__default__aspect_default__den__provides -->
<g id="edge10" class="edge">
<title>den__provides__mutual_provider&#45;&gt;den__provides__default__aspect_default__den__provides</title>
<path fill="none" stroke="#a6adc8" d="M783.5,-301C824.76,-301 870.63,-301 916.36,-301"/>
<polygon fill="#a6adc8" stroke="#a6adc8" points="916.15,-304.5 926.15,-301 916.15,-297.5 916.15,-304.5"/>
</g>
<!-- user -->
<g id="node13" class="node">
<title>user</title>
<polygon fill="#fab387" stroke="#fab387" points="54,-226 0,-226 0,-190 54,-190 54,-226"/>
<text text-anchor="middle" x="27" y="-203.32" font-family="Times,serif" font-size="14.00" fill="#1e1e2e">user</text>
</g>
<!-- user&#45;&gt;deploy -->
<g id="edge15" class="edge">
<title>user&#45;&gt;deploy</title>
<path fill="none" stroke="#a6adc8" d="M54.2,-201.75C90.52,-193.08 156.56,-177.32 199.77,-167"/>
<polygon fill="#a6adc8" stroke="#a6adc8" points="200.38,-170.46 209.3,-164.73 198.76,-163.65 200.38,-170.46"/>
</g>
<!-- user&#45;&gt;user__aspect_user_ -->
<g id="edge16" class="edge">
<title>user&#45;&gt;user__aspect_user_</title>
<path fill="none" stroke="#a6adc8" d="M35.14,-189.55C43.38,-170.99 58.86,-143.28 82,-130 158.87,-85.87 413.99,-83.81 545.84,-85.9"/>
<polygon fill="#a6adc8" stroke="#a6adc8" points="545.48,-89.39 555.53,-86.06 545.6,-82.39 545.48,-89.39"/>
</g>
<!-- user&#45;&gt;user__cross_provide__anon__ -->
<g id="edge17" class="edge">
<title>user&#45;&gt;user__cross_provide__anon__</title>
<path fill="none" stroke="#a6adc8" d="M30,-189.8C34.16,-161.54 46.54,-107.69 82,-82 210.75,11.27 404.2,2.99 522.46,-13.85"/>
<polygon fill="#a6adc8" stroke="#a6adc8" points="521.76,-17.28 532.17,-15.28 522.78,-10.36 521.76,-17.28"/>
</g>
<!-- user&#45;&gt;n_default -->
<g id="edge12" class="edge">
<title>user&#45;&gt;n_default</title>
<path fill="none" stroke="#a6adc8" d="M54.2,-212.41C71.11,-215.26 94.47,-219.2 118.97,-223.33"/>
<polygon fill="#a6adc8" stroke="#a6adc8" points="118.35,-226.77 128.79,-224.98 119.51,-219.87 118.35,-226.77"/>
</g>
<!-- user&#45;&gt;default__cross_provide_user_ -->
<g id="edge13" class="edge">
<title>user&#45;&gt;default__cross_provide_user_</title>
<path fill="none" stroke="#a6adc8" d="M35.26,-226.49C43.62,-245.17 59.18,-273.3 82,-288 95.54,-296.72 111.01,-302.89 126.88,-307.22"/>
<polygon fill="#a6adc8" stroke="#a6adc8" points="125.89,-310.58 136.44,-309.56 127.56,-303.78 125.89,-310.58"/>
</g>
<!-- user&#45;&gt;default__self_provide_default_ -->
<g id="edge14" class="edge">
<title>user&#45;&gt;default__self_provide_default_</title>
<path fill="none" stroke="#a6adc8" d="M29.82,-226.49C33.75,-255.88 45.85,-312.91 82,-342 94.37,-351.95 109.05,-358.83 124.42,-363.5"/>
<polygon fill="#a6adc8" stroke="#a6adc8" points="123.13,-366.78 133.7,-366 124.95,-360.02 123.13,-366.78"/>
</g>
</g>
</svg>
