<svg id="my-svg" width="100%" xmlns="http://www.w3.org/2000/svg" xmlns:xlink="http://www.w3.org/1999/xlink" class="flowchart" style="max-width: 1253px; background-color: rgb(30, 30, 46);" viewBox="4 4 1253 209.5" role="graphics-document document" aria-roledescription="flowchart-v2"><style>#my-svg{font-family:JetBrains Mono,Fira Code,DejaVu Sans Mono,monospace;font-size:16px;fill:#cdd6f4;}@keyframes edge-animation-frame{from{stroke-dashoffset:0;}}@keyframes dash{to{stroke-dashoffset:0;}}#my-svg .edge-animation-slow{stroke-dasharray:9,5!important;stroke-dashoffset:900;animation:dash 50s linear infinite;stroke-linecap:round;}#my-svg .edge-animation-fast{stroke-dasharray:9,5!important;stroke-dashoffset:900;animation:dash 20s linear infinite;stroke-linecap:round;}#my-svg .error-icon{fill:#313244;}#my-svg .error-text{fill:#cdd6f4;stroke:#cdd6f4;}#my-svg .edge-thickness-normal{stroke-width:1px;}#my-svg .edge-thickness-thick{stroke-width:3.5px;}#my-svg .edge-pattern-solid{stroke-dasharray:0;}#my-svg .edge-thickness-invisible{stroke-width:0;fill:none;}#my-svg .edge-pattern-dashed{stroke-dasharray:3;}#my-svg .edge-pattern-dotted{stroke-dasharray:2;}#my-svg .marker{fill:#a6adc8;stroke:#a6adc8;}#my-svg .marker.cross{stroke:#a6adc8;}#my-svg svg{font-family:JetBrains Mono,Fira Code,DejaVu Sans Mono,monospace;font-size:16px;}#my-svg p{margin:0;}#my-svg .label{font-family:JetBrains Mono,Fira Code,DejaVu Sans Mono,monospace;color:#cdd6f4;}#my-svg .cluster-label text{fill:#cdd6f4;}#my-svg .cluster-label span{color:#cdd6f4;}#my-svg .cluster-label span p{background-color:transparent;}#my-svg .label text,#my-svg span{fill:#cdd6f4;color:#cdd6f4;}#my-svg .node rect,#my-svg .node circle,#my-svg .node ellipse,#my-svg .node polygon,#my-svg .node path{fill:#313244;stroke:#a6adc8;stroke-width:1px;}#my-svg .rough-node .label text,#my-svg .node .label text,#my-svg .image-shape .label,#my-svg .icon-shape .label{text-anchor:middle;}#my-svg .node .katex path{fill:#000;stroke:#000;stroke-width:1px;}#my-svg .rough-node .label,#my-svg .node .label,#my-svg .image-shape .label,#my-svg .icon-shape .label{text-align:center;}#my-svg .node.clickable{cursor:pointer;}#my-svg .root .anchor path{fill:#a6adc8!important;stroke-width:0;stroke:#a6adc8;}#my-svg .arrowheadPath{fill:#e1e1d1;}#my-svg .edgePath .path{stroke:#a6adc8;stroke-width:1px;}#my-svg .flowchart-link{stroke:#a6adc8;fill:none;}#my-svg .edgeLabel{background-color:#1e1e2e;text-align:center;}#my-svg .edgeLabel p{background-color:#1e1e2e;}#my-svg .edgeLabel rect{opacity:0.5;background-color:#1e1e2e;fill:#1e1e2e;}#my-svg .labelBkg{background-color:rgba(30, 30, 46, 0.5);}#my-svg .cluster rect{fill:#313244;stroke:#6c7086;stroke-width:1px;}#my-svg .cluster text{fill:#cdd6f4;}#my-svg .cluster span{color:#cdd6f4;}#my-svg div.mermaidTooltip{position:absolute;text-align:center;max-width:200px;padding:2px;font-family:JetBrains Mono,Fira Code,DejaVu Sans Mono,monospace;font-size:12px;background:#313244;border:1px solid #6c7086;border-radius:2px;pointer-events:none;z-index:100;}#my-svg .flowchartTitleText{text-anchor:middle;font-size:18px;fill:#cdd6f4;}#my-svg rect.text{fill:none;stroke-width:0;}#my-svg .icon-shape,#my-svg .image-shape{background-color:#1e1e2e;text-align:center;}#my-svg .icon-shape p,#my-svg .image-shape p{background-color:#1e1e2e;padding:2px;}#my-svg .icon-shape .label rect,#my-svg .image-shape .label rect{opacity:0.5;background-color:#1e1e2e;fill:#1e1e2e;}#my-svg .label-icon{display:inline-block;height:1em;overflow:visible;vertical-align:-0.125em;}#my-svg .node .label-icon path{fill:currentColor;stroke:revert;stroke-width:revert;}#my-svg .node .neo-node{stroke:#a6adc8;}#my-svg [data-look="neo"].node rect,#my-svg [data-look="neo"].cluster rect,#my-svg [data-look="neo"].node polygon{stroke:url(#my-svg-gradient);filter:drop-shadow( 1px 2px 2px rgba(185,185,185,1));}#my-svg [data-look="neo"].node path{stroke:url(#my-svg-gradient);stroke-width:1px;}#my-svg [data-look="neo"].node .outer-path{filter:drop-shadow( 1px 2px 2px rgba(185,185,185,1));}#my-svg [data-look="neo"].node .neo-line path{stroke:#a6adc8;filter:none;}#my-svg [data-look="neo"].node circle{stroke:url(#my-svg-gradient);filter:drop-shadow( 1px 2px 2px rgba(185,185,185,1));}#my-svg [data-look="neo"].node circle .state-start{fill:#000000;}#my-svg [data-look="neo"].icon-shape .icon{fill:url(#my-svg-gradient);filter:drop-shadow( 1px 2px 2px rgba(185,185,185,1));}#my-svg [data-look="neo"].icon-shape .icon-neo path{stroke:url(#my-svg-gradient);filter:drop-shadow( 1px 2px 2px rgba(185,185,185,1));}#my-svg :root{--mermaid-font-family:JetBrains Mono,Fira Code,DejaVu Sans Mono,monospace;}#my-svg .root&gt;*{fill:#89b4fa!important;stroke:#89b4fa!important;color:#1e1e2e!important;font-weight:bold!important;}#my-svg .root span{fill:#89b4fa!important;stroke:#89b4fa!important;color:#1e1e2e!important;font-weight:bold!important;}#my-svg .root tspan{fill:#1e1e2e!important;}#my-svg .monitoring__alerting_c&gt;*{fill:#cba6f7!important;stroke:#cba6f7!important;color:#1e1e2e!important;stroke-width:3px!important;}#my-svg .monitoring__alerting_c span{fill:#cba6f7!important;stroke:#cba6f7!important;color:#1e1e2e!important;stroke-width:3px!important;}#my-svg .monitoring__alerting_c tspan{fill:#1e1e2e!important;}#my-svg .virtualization__docker_c&gt;*{fill:#cba6f7!important;stroke:#cba6f7!important;color:#1e1e2e!important;stroke-width:3px!important;}#my-svg .virtualization__docker_c span{fill:#cba6f7!important;stroke:#cba6f7!important;color:#1e1e2e!important;stroke-width:3px!important;}#my-svg .virtualization__docker_c tspan{fill:#1e1e2e!important;}#my-svg .monitoring_c&gt;*{fill:#89b4fa!important;stroke:#89b4fa!important;color:#1e1e2e!important;stroke-width:3px!important;}#my-svg .monitoring_c span{fill:#89b4fa!important;stroke:#89b4fa!important;color:#1e1e2e!important;stroke-width:3px!important;}#my-svg .monitoring_c tspan{fill:#1e1e2e!important;}#my-svg .monitoring__nginx_exporter_c&gt;*{fill:#89b4fa!important;stroke:#f38ba8!important;color:#1e1e2e!important;stroke-dasharray:5 5!important;stroke-width:2px!important;}#my-svg .monitoring__nginx_exporter_c span{fill:#89b4fa!important;stroke:#f38ba8!important;color:#1e1e2e!important;stroke-dasharray:5 5!important;stroke-width:2px!important;}#my-svg .monitoring__nginx_exporter_c tspan{fill:#1e1e2e!important;}#my-svg .monitoring__node_exporter_c&gt;*{fill:#f2cdcd!important;stroke:#f2cdcd!important;color:#1e1e2e!important;stroke-width:3px!important;}#my-svg .monitoring__node_exporter_c span{fill:#f2cdcd!important;stroke:#f2cdcd!important;color:#1e1e2e!important;stroke-width:3px!important;}#my-svg .monitoring__node_exporter_c tspan{fill:#1e1e2e!important;}#my-svg .virtualization_c&gt;*{fill:#89b4fa!important;stroke:#89b4fa!important;color:#1e1e2e!important;stroke-width:3px!important;}#my-svg .virtualization_c span{fill:#89b4fa!important;stroke:#89b4fa!important;color:#1e1e2e!important;stroke-width:3px!important;}#my-svg .virtualization_c tspan{fill:#1e1e2e!important;}</style><g><marker id="my-svg_flowchart-v2-pointEnd" class="marker flowchart-v2" viewBox="0 0 10 10" refX="5" refY="5" markerUnits="userSpaceOnUse" markerWidth="8" markerHeight="8" orient="auto"><path d="M 0 0 L 10 5 L 0 10 z" class="arrowMarkerPath" style="stroke-width: 1; stroke-dasharray: 1, 0;"/></marker><marker id="my-svg_flowchart-v2-pointStart" class="marker flowchart-v2" viewBox="0 0 10 10" refX="4.5" refY="5" markerUnits="userSpaceOnUse" markerWidth="8" markerHeight="8" orient="auto"><path d="M 0 5 L 10 10 L 10 0 z" class="arrowMarkerPath" style="stroke-width: 1; stroke-dasharray: 1, 0;"/></marker><marker id="my-svg_flowchart-v2-pointEnd-margin" class="marker flowchart-v2" viewBox="0 0 11.5 14" refX="11.5" refY="7" markerUnits="userSpaceOnUse" markerWidth="10.5" markerHeight="14" orient="auto"><path d="M 0 0 L 11.5 7 L 0 14 z" class="arrowMarkerPath" style="stroke-width: 0; stroke-dasharray: 1, 0;"/></marker><marker id="my-svg_flowchart-v2-pointStart-margin" class="marker flowchart-v2" viewBox="0 0 11.5 14" refX="1" refY="7" markerUnits="userSpaceOnUse" markerWidth="11.5" markerHeight="14" orient="auto"><polygon points="0,7 11.5,14 11.5,0" class="arrowMarkerPath" style="stroke-width: 0; stroke-dasharray: 1, 0;"/></marker><marker id="my-svg_flowchart-v2-circleEnd" class="marker flowchart-v2" viewBox="0 0 10 10" refX="11" refY="5" markerUnits="userSpaceOnUse" markerWidth="11" markerHeight="11" orient="auto"><circle cx="5" cy="5" r="5" class="arrowMarkerPath" style="stroke-width: 1; stroke-dasharray: 1, 0;"/></marker><marker id="my-svg_flowchart-v2-circleStart" class="marker flowchart-v2" viewBox="0 0 10 10" refX="-1" refY="5" markerUnits="userSpaceOnUse" markerWidth="11" markerHeight="11" orient="auto"><circle cx="5" cy="5" r="5" class="arrowMarkerPath" style="stroke-width: 1; stroke-dasharray: 1, 0;"/></marker><marker id="my-svg_flowchart-v2-circleEnd-margin" class="marker flowchart-v2" viewBox="0 0 10 10" refY="5" refX="12.25" markerUnits="userSpaceOnUse" markerWidth="14" markerHeight="14" orient="auto"><circle cx="5" cy="5" r="5" class="arrowMarkerPath" style="stroke-width: 0; stroke-dasharray: 1, 0;"/></marker><marker id="my-svg_flowchart-v2-circleStart-margin" class="marker flowchart-v2" viewBox="0 0 10 10" refX="-2" refY="5" markerUnits="userSpaceOnUse" markerWidth="14" markerHeight="14" orient="auto"><circle cx="5" cy="5" r="5" class="arrowMarkerPath" style="stroke-width: 0; stroke-dasharray: 1, 0;"/></marker><marker id="my-svg_flowchart-v2-crossEnd" class="marker cross flowchart-v2" viewBox="0 0 11 11" refX="12" refY="5.2" markerUnits="userSpaceOnUse" markerWidth="11" markerHeight="11" orient="auto"><path d="M 1,1 l 9,9 M 10,1 l -9,9" class="arrowMarkerPath" style="stroke-width: 2; stroke-dasharray: 1, 0;"/></marker><marker id="my-svg_flowchart-v2-crossStart" class="marker cross flowchart-v2" viewBox="0 0 11 11" refX="-1" refY="5.2" markerUnits="userSpaceOnUse" markerWidth="11" markerHeight="11" orient="auto"><path d="M 1,1 l 9,9 M 10,1 l -9,9" class="arrowMarkerPath" style="stroke-width: 2; stroke-dasharray: 1, 0;"/></marker><marker id="my-svg_flowchart-v2-crossEnd-margin" class="marker cross flowchart-v2" viewBox="0 0 15 15" refX="17.7" refY="7.5" markerUnits="userSpaceOnUse" markerWidth="12" markerHeight="12" orient="auto"><path d="M 1,1 L 14,14 M 1,14 L 14,1" class="arrowMarkerPath" style="stroke-width: 2.5;"/></marker><marker id="my-svg_flowchart-v2-crossStart-margin" class="marker cross flowchart-v2" viewBox="0 0 15 15" refX="-3.5" refY="7.5" markerUnits="userSpaceOnUse" markerWidth="12" markerHeight="12" orient="auto"><path d="M 1,1 L 14,14 M 1,14 L 14,1" class="arrowMarkerPath" style="stroke-width: 2.5; stroke-dasharray: 1, 0;"/></marker></g><defs><filter id="my-svg-drop-shadow" height="130%" width="130%"><feDropShadow dx="4" dy="4" stdDeviation="0" flood-opacity="0.06" flood-color="#000000"/></filter></defs><defs><filter id="my-svg-drop-shadow-small" height="150%" width="150%"><feDropShadow dx="2" dy="2" stdDeviation="0" flood-opacity="0.06" flood-color="#000000"/></filter></defs><linearGradient id="my-svg-gradient" gradientUnits="objectBoundingBox" x1="0%" y1="0%" x2="100%" y2="0%"><stop offset="0%" stop-color="#a6adc8" stop-opacity="1"/><stop offset="100%" stop-color="#6c7086" stop-opacity="1"/></linearGradient><g class="subgraphs"/><g class="nodes"><g class="node default root " id="my-svg-flowchart-web_server-0" data-look="classic" transform="translate(584.6350173950195, 51)"><g class="basic label-container outer-path"><path d="M-42.875 -19.5 C-13.756165924672235 -19.5, 15.36266815065553 -19.5, 42.875 -19.5 C42.875 -19.5, 42.875 -19.5, 42.875 -19.5 C43.35978505946792 -19.484453886719738, 43.844570118935835 -19.46890777343948, 44.1243692896239 -19.45993515863156 C44.54777345898018 -19.419089867631772, 44.97117762833646 -19.378244576631985, 45.368604652847864 -19.3399052695533 C45.764446329333985 -19.275908657097073, 46.160288005820114 -19.211912044640844, 46.60259325967676 -19.140403561325776 C47.00413682552016 -19.048753862738668, 47.405680391363575 -18.957104164151556, 47.82126438623539 -18.862249829261074 C48.13463651088619 -18.769242627588568, 48.44800863553698 -18.67623542591606, 49.019610251460605 -18.50658706670804 C49.27900350266077 -18.41112795246145, 49.53839675386093 -18.31566883821486, 50.1927065951478 -18.074876768247425 C50.427564317231095 -17.970912221487943, 50.6624220393144 -17.866947674728458, 51.33573291279238 -17.568892924097174 C51.57227727725186 -17.445487880672562, 51.80882164171133 -17.32208283724795, 52.44399226407678 -16.990714730406097 C52.8242987353213 -16.760170712608772, 53.204605206565816 -16.529626694811448, 53.5129305736057 -16.342718045390892 C53.88810098766592 -16.081015405407953, 54.263271401726136 -15.81931276542501, 54.53815534457871 -15.627565626425154 C54.778887031152685 -15.435588512521628, 55.019618717726665 -15.243611398618102, 55.515453708501866 -14.848196188198123 C55.74165196863352 -14.642768913224561, 55.96785022876517 -14.437341638250999, 56.44080973676799 -14.007812326905688 C56.78650138053128 -13.650857322908305, 57.13219302429457 -13.293902318910922, 57.31042094296865 -13.10986736009568 C57.6235664344379 -12.742028847332659, 57.936711925907154 -12.374190334569636, 58.12071390812658 -12.158051136245305 C58.383842745198216 -11.805482466099512, 58.64697158226985 -11.45291379595372, 58.868358964640635 -11.156274872382312 C59.0886703411694 -10.81781743614609, 59.30898171769816 -10.479359999909867, 59.55028387860425 -10.108655082055241 C59.67313511066674 -9.890520279492081, 59.79598634272924 -9.672385476928921, 60.163686474273504 -9.019496659696287 C60.312003133801845 -8.711513942717557, 60.46031979333018 -8.403531225738828, 60.70604614880834 -7.893275190886684 C60.885256618314365 -7.450621866408088, 61.06446708782039 -7.007968541929492, 61.175134229970325 -6.734618561215508 C61.289389079096495 -6.390501159685547, 61.40364392822266 -6.046383758155587, 61.56902313421488 -5.548287939305138 C61.68850814181502 -5.092639820195933, 61.80799314941516 -4.6369917010867265, 61.88609428754556 -4.339158212148133 C61.960678910551074 -3.956181936480456, 62.035263533556595 -3.5732056608127785, 62.125044776581774 -3.1121979531509023 C62.158986569604075 -2.848952109035112, 62.19292836262637 -2.585706264919322, 62.28489270250937 -1.872449005199798 C62.31292734775333 -1.435786776366784, 62.340961992997286 -0.99912454753377, 62.36498121591342 -0.6250057626472757 C62.36498121591342 -0.13945450377662516, 62.36498121591342 0.3460967550940254, 62.36498121591342 0.625005762647271 C62.343324232426085 0.962330761664952, 62.321667248938745 1.2996557606826329, 62.28489270250937 1.8724490051997846 C62.24296586386952 2.1976252862996546, 62.201039025229676 2.522801567399525, 62.125044776581774 3.1121979531508885 C62.05777886065259 3.4575942147908996, 61.9905129447234 3.8029904764309106, 61.88609428754556 4.339158212148129 C61.79383186579719 4.69099481306122, 61.70156944404881 5.0428314139743105, 61.56902313421489 5.548287939305125 C61.486829682314315 5.795841520681525, 61.40463623041374 6.043395102057924, 61.175134229970325 6.734618561215495 C61.03701514468982 7.075775372209196, 60.89889605940932 7.416932183202897, 60.70604614880834 7.893275190886679 C60.52922856459304 8.26044068779999, 60.35241098037773 8.6276061847133, 60.163686474273504 9.019496659696284 C60.01052401719961 9.29145211161154, 59.85736156012572 9.563407563526795, 59.55028387860425 10.108655082055236 C59.34020707236752 10.43138946995596, 59.1301302661308 10.754123857856683, 58.86835896464064 11.156274872382301 C58.57316160305114 11.551812443879355, 58.27796424146163 11.94735001537641, 58.12071390812658 12.158051136245302 C57.87090193937103 12.451494489449281, 57.62108997061548 12.744937842653263, 57.31042094296866 13.10986736009567 C57.11002627884132 13.316791303515055, 56.90963161471397 13.523715246934438, 56.44080973676799 14.007812326905684 C56.146812131930105 14.274813172869088, 55.85281452709223 14.54181401883249, 55.51545370850189 14.848196188198111 C55.27384923346041 15.040869327678589, 55.03224475841894 15.233542467159069, 54.53815534457871 15.627565626425152 C54.21654927329199 15.851904099652328, 53.89494320200527 16.076242572879504, 53.51293057360571 16.34271804539089 C53.17303821026959 16.548762793474484, 52.83314584693346 16.754807541558076, 52.44399226407678 16.990714730406093 C52.11049794030666 17.16469850550366, 51.777003616536525 17.338682280601226, 51.33573291279239 17.56889292409717 C50.96975881072057 17.73089880284835, 50.603784708648746 17.89290468159953, 50.192706595147804 18.07487676824742 C49.90560918472762 18.180531269181415, 49.61851177430745 18.28618577011541, 49.01961025146062 18.506587066708033 C48.59639833450167 18.632194142176765, 48.17318641754272 18.7578012176455, 47.82126438623541 18.86224982926107 C47.53558574798833 18.92745411421363, 47.24990710974124 18.992658399166192, 46.602593259676766 19.140403561325773 C46.22623121036305 19.20125085872753, 45.84986916104934 19.262098156129287, 45.36860465284788 19.3399052695533 C45.06945617644914 19.368763763292804, 44.770307700050395 19.39762225703231, 44.1243692896239 19.45993515863156 C43.73961694632911 19.47227341740602, 43.354864603034315 19.484611676180478, 42.87500000000001 19.5 C42.87500000000001 19.5, 42.875 19.5, 42.875 19.5 C12.617338188186537 19.5, -17.640323623626927 19.5, -42.87499999999999 19.5 C-43.21067904694145 19.489235426324214, -43.546358093882915 19.47847085264843, -44.12436928962389 19.45993515863156 C-44.39515364826447 19.433812917219342, -44.66593800690504 19.40769067580712, -45.36860465284787 19.3399052695533 C-45.75289779223259 19.277775735015382, -46.137190931617305 19.21564620047747, -46.60259325967676 19.140403561325773 C-46.96916505498736 19.056735941150645, -47.335736850297955 18.97306832097552, -47.821264386235384 18.862249829261074 C-48.18321656800468 18.75482432163772, -48.54516874977398 18.647398814014366, -49.01961025146059 18.506587066708043 C-49.35198242196265 18.38427103554862, -49.68435459246472 18.261955004389197, -50.1927065951478 18.074876768247425 C-50.62372600861213 17.884077259643387, -51.054745422076465 17.693277751039346, -51.33573291279238 17.568892924097174 C-51.63105134053911 17.414825489502185, -51.926369768285845 17.260758054907196, -52.44399226407678 16.990714730406097 C-52.66052447749763 16.85945163014585, -52.87705669091849 16.728188529885596, -53.512930573605686 16.3427180453909 C-53.9195393335328 16.05908537627527, -54.32614809345991 15.775452707159644, -54.53815534457871 15.627565626425156 C-54.90174955741477 15.337608917336757, -55.26534377025082 15.047652208248357, -55.515453708501866 14.848196188198125 C-55.87812305766287 14.518829480995253, -56.24079240682387 14.189462773792382, -56.440809736767974 14.007812326905697 C-56.65484811087882 13.786800132758925, -56.868886484989666 13.565787938612154, -57.310420942968655 13.109867360095677 C-57.61995258679091 12.746273878412568, -57.92948423061317 12.38268039672946, -58.120713908126575 12.158051136245307 C-58.33364936595264 11.872737021577665, -58.5465848237787 11.587422906910023, -58.868358964640635 11.156274872382316 C-59.04307337159003 10.887866625920717, -59.21778777853944 10.619458379459118, -59.55028387860425 10.108655082055249 C-59.74209616993817 9.7680729356912, -59.9339084612721 9.42749078932715, -60.163686474273504 9.019496659696289 C-60.307507044450816 8.720850168455868, -60.45132761462813 8.422203677215448, -60.70604614880834 7.893275190886686 C-60.87808691173591 7.468331180273718, -61.05012767466348 7.04338716966075, -61.175134229970325 6.73461856121551 C-61.29860571994651 6.362742105917585, -61.4220772099227 5.99086565061966, -61.56902313421488 5.5482879393051325 C-61.64018633287084 5.276911820504574, -61.71134953152679 5.005535701704015, -61.88609428754556 4.339158212148136 C-61.969073505616976 3.9130774650153692, -62.05205272368839 3.486996717882603, -62.125044776581774 3.112197953150904 C-62.172178635340316 2.746637052252849, -62.21931249409886 2.381076151354794, -62.28489270250937 1.872449005199809 C-62.304250120131805 1.5709416007041042, -62.32360753775424 1.269434196208399, -62.36498121591342 0.6250057626472781 C-62.36498121591342 0.25459674829181417, -62.36498121591342 -0.1158122660636498, -62.36498121591342 -0.6250057626472687 C-62.33772141098873 -1.0495992280677573, -62.310461606064045 -1.4741926934882459, -62.28489270250937 -1.8724490051997822 C-62.220960146765 -2.3682972826419713, -62.157027591020636 -2.8641455600841605, -62.125044776581774 -3.112197953150895 C-62.068649908183005 -3.4017736833189316, -62.01225503978423 -3.691349413486968, -61.88609428754556 -4.339158212148126 C-61.795612053759555 -4.684206184822344, -61.70512981997356 -5.0292541574965615, -61.56902313421489 -5.548287939305123 C-61.45175813758345 -5.901471425519088, -61.33449314095201 -6.254654911733053, -61.17513422997033 -6.734618561215485 C-61.071890086966825 -6.989633590523863, -60.96864594396332 -7.244648619832241, -60.70604614880834 -7.893275190886676 C-60.596239286706805 -8.12129148953098, -60.486432424605276 -8.349307788175285, -60.163686474273504 -9.019496659696282 C-59.94923834467444 -9.400271029027255, -59.734790215075385 -9.781045398358229, -59.55028387860425 -10.108655082055243 C-59.29384155603558 -10.502619353926253, -59.037399233466914 -10.896583625797263, -58.86835896464064 -11.156274872382308 C-58.635802548408165 -11.467879283808466, -58.40324613217569 -11.779483695234623, -58.12071390812659 -12.158051136245302 C-57.91270548723562 -12.402389663438282, -57.70469706634465 -12.64672819063126, -57.31042094296866 -13.10986736009567 C-57.10302579959655 -13.324019873085314, -56.89563065622444 -13.538172386074958, -56.440809736767996 -14.007812326905677 C-56.249784798732776 -14.181296121386366, -56.05875986069756 -14.354779915867054, -55.51545370850189 -14.848196188198107 C-55.28595722729925 -15.031213524799362, -55.05646074609661 -15.214230861400619, -54.53815534457872 -15.627565626425149 C-54.211558284735325 -15.855385597213045, -53.88496122489194 -16.083205568000942, -53.512930573605715 -16.342718045390885 C-53.08696956714407 -16.600938110732663, -52.66100856068242 -16.85915817607444, -52.44399226407679 -16.99071473040609 C-52.018222968110884 -17.212838299393255, -51.592453672144984 -17.434961868380416, -51.33573291279239 -17.56889292409717 C-50.93154830640147 -17.747813459636077, -50.52736370001055 -17.926733995174985, -50.192706595147804 -18.07487676824742 C-49.78900318934062 -18.22344335337784, -49.38529978353343 -18.37200993850826, -49.01961025146062 -18.506587066708033 C-48.7175471650627 -18.59623780518944, -48.415484078664775 -18.68588854367085, -47.82126438623541 -18.862249829261067 C-47.54108174737246 -18.926199688218947, -47.260899108509506 -18.99014954717683, -46.602593259676766 -19.140403561325773 C-46.12184763298673 -19.218126786011002, -45.64110200629669 -19.29585001069623, -45.36860465284788 -19.3399052695533 C-44.928002374073436 -19.3824096414849, -44.487400095298995 -19.424914013416505, -44.1243692896239 -19.45993515863156 C-43.65511588471018 -19.4749832019808, -43.18586247979646 -19.490031245330037, -42.87500000000001 -19.5 C-42.87500000000001 -19.5, -42.875 -19.5, -42.875 -19.5" stroke="none" stroke-width="0" fill="#89b4fa" style="fill:#89b4fa !important;stroke:#89b4fa !important"/><path d="M-42.875 -19.5 C-11.224059088411458 -19.5, 20.426881823177084 -19.5, 42.875 -19.5 M-42.875 -19.5 C-14.629811605226202 -19.5, 13.615376789547597 -19.5, 42.875 -19.5 M42.875 -19.5 C42.875 -19.5, 42.875 -19.5, 42.875 -19.5 M42.875 -19.5 C42.875 -19.5, 42.875 -19.5, 42.875 -19.5 M42.875 -19.5 C43.209228397197855 -19.489281945837973, 43.5434567943957 -19.47856389167595, 44.1243692896239 -19.45993515863156 M42.875 -19.5 C43.16755299356118 -19.49061839491635, 43.46010598712237 -19.4812367898327, 44.1243692896239 -19.45993515863156 M44.1243692896239 -19.45993515863156 C44.463491976169735 -19.427220400915182, 44.80261466271558 -19.39450564319881, 45.368604652847864 -19.3399052695533 M44.1243692896239 -19.45993515863156 C44.438769758373994 -19.42960532353312, 44.75317022712409 -19.399275488434686, 45.368604652847864 -19.3399052695533 M45.368604652847864 -19.3399052695533 C45.72387464741654 -19.282467971991395, 46.07914464198521 -19.225030674429487, 46.60259325967676 -19.140403561325776 M45.368604652847864 -19.3399052695533 C45.674701625502465 -19.290417884831978, 45.98079859815707 -19.24093050011066, 46.60259325967676 -19.140403561325776 M46.60259325967676 -19.140403561325776 C46.953624698085996 -19.06028292620308, 47.30465613649523 -18.980162291080383, 47.82126438623539 -18.862249829261074 M46.60259325967676 -19.140403561325776 C46.8991459810515 -19.072717337859352, 47.195698702426235 -19.005031114392928, 47.82126438623539 -18.862249829261074 M47.82126438623539 -18.862249829261074 C48.10115633520866 -18.77917936798863, 48.38104828418193 -18.696108906716184, 49.019610251460605 -18.50658706670804 M47.82126438623539 -18.862249829261074 C48.20799433831101 -18.747470409471976, 48.59472429038663 -18.632690989682875, 49.019610251460605 -18.50658706670804 M49.019610251460605 -18.50658706670804 C49.27131546458583 -18.41395722154047, 49.52302067771106 -18.321327376372906, 50.1927065951478 -18.074876768247425 M49.019610251460605 -18.50658706670804 C49.44481959698819 -18.350106096961788, 49.870028942515766 -18.193625127215533, 50.1927065951478 -18.074876768247425 M50.1927065951478 -18.074876768247425 C50.44184232498313 -17.96459177099817, 50.69097805481846 -17.854306773748913, 51.33573291279238 -17.568892924097174 M50.1927065951478 -18.074876768247425 C50.59275671442579 -17.89778644750821, 50.99280683370378 -17.720696126768992, 51.33573291279238 -17.568892924097174 M51.33573291279238 -17.568892924097174 C51.57420012188926 -17.444484733856868, 51.812667330986145 -17.320076543616565, 52.44399226407678 -16.990714730406097 M51.33573291279238 -17.568892924097174 C51.72219113024345 -17.367277919591253, 52.10864934769452 -17.165662915085335, 52.44399226407678 -16.990714730406097 M52.44399226407678 -16.990714730406097 C52.82881911878457 -16.757430429588617, 53.21364597349236 -16.524146128771132, 53.5129305736057 -16.342718045390892 M52.44399226407678 -16.990714730406097 C52.68222782467525 -16.84629493354375, 52.92046338527373 -16.701875136681398, 53.5129305736057 -16.342718045390892 M53.5129305736057 -16.342718045390892 C53.81845765549642 -16.129595579118135, 54.12398473738713 -15.916473112845381, 54.53815534457871 -15.627565626425154 M53.5129305736057 -16.342718045390892 C53.89179664759861 -16.078437473021445, 54.27066272159153 -15.814156900651998, 54.53815534457871 -15.627565626425154 M54.53815534457871 -15.627565626425154 C54.86101950312418 -15.370090051761228, 55.18388366166966 -15.112614477097301, 55.515453708501866 -14.848196188198123 M54.53815534457871 -15.627565626425154 C54.90430827153661 -15.33556841091483, 55.2704611984945 -15.043571195404505, 55.515453708501866 -14.848196188198123 M55.515453708501866 -14.848196188198123 C55.87952755519461 -14.51755395349789, 56.24360140188736 -14.186911718797658, 56.44080973676799 -14.007812326905688 M55.515453708501866 -14.848196188198123 C55.78636503159665 -14.60216169248426, 56.05727635469144 -14.356127196770398, 56.44080973676799 -14.007812326905688 M56.44080973676799 -14.007812326905688 C56.76219186396357 -13.675958894612894, 57.08357399115915 -13.3441054623201, 57.31042094296865 -13.10986736009568 M56.44080973676799 -14.007812326905688 C56.66485215536868 -13.776470135475824, 56.88889457396936 -13.54512794404596, 57.31042094296865 -13.10986736009568 M57.31042094296865 -13.10986736009568 C57.57177235236601 -12.802869123301061, 57.833123761763375 -12.49587088650644, 58.12071390812658 -12.158051136245305 M57.31042094296865 -13.10986736009568 C57.52584362687264 -12.856819617684081, 57.741266310776645 -12.603771875272482, 58.12071390812658 -12.158051136245305 M58.12071390812658 -12.158051136245305 C58.38972928927814 -11.79759503330762, 58.658744670429684 -11.437138930369935, 58.868358964640635 -11.156274872382312 M58.12071390812658 -12.158051136245305 C58.41038552834356 -11.769917554782037, 58.700057148560546 -11.381783973318768, 58.868358964640635 -11.156274872382312 M58.868358964640635 -11.156274872382312 C59.090590520574736 -10.81486752493912, 59.312822076508844 -10.473460177495927, 59.55028387860425 -10.108655082055241 M58.868358964640635 -11.156274872382312 C59.01658436836067 -10.928560848174348, 59.164809772080694 -10.700846823966385, 59.55028387860425 -10.108655082055241 M59.55028387860425 -10.108655082055241 C59.750854194652796 -9.75252217596421, 59.951424510701344 -9.396389269873175, 60.163686474273504 -9.019496659696287 M59.55028387860425 -10.108655082055241 C59.69748128864645 -9.84729117517126, 59.844678698688654 -9.58592726828728, 60.163686474273504 -9.019496659696287 M60.163686474273504 -9.019496659696287 C60.35184345690548 -8.628784659346506, 60.54000043953745 -8.238072658996726, 60.70604614880834 -7.893275190886684 M60.163686474273504 -9.019496659696287 C60.29441113157676 -8.748044111746497, 60.425135788880006 -8.476591563796706, 60.70604614880834 -7.893275190886684 M60.70604614880834 -7.893275190886684 C60.87699245027964 -7.47103452123069, 61.04793875175093 -7.048793851574697, 61.175134229970325 -6.734618561215508 M60.70604614880834 -7.893275190886684 C60.872337165953276 -7.482533163520597, 61.03862818309821 -7.071791136154511, 61.175134229970325 -6.734618561215508 M61.175134229970325 -6.734618561215508 C61.29422936907979 -6.375922977451341, 61.41332450818925 -6.017227393687175, 61.56902313421488 -5.548287939305138 M61.175134229970325 -6.734618561215508 C61.29899098379427 -6.361581752591594, 61.42284773761821 -5.988544943967678, 61.56902313421488 -5.548287939305138 M61.56902313421488 -5.548287939305138 C61.65115154270372 -5.2350967230597725, 61.73327995119257 -4.921905506814407, 61.88609428754556 -4.339158212148133 M61.56902313421488 -5.548287939305138 C61.66072682327464 -5.198582028290015, 61.752430512334406 -4.848876117274891, 61.88609428754556 -4.339158212148133 M61.88609428754556 -4.339158212148133 C61.936868346484516 -4.078444150597753, 61.98764240542347 -3.817730089047373, 62.125044776581774 -3.1121979531509023 M61.88609428754556 -4.339158212148133 C61.94464478666671 -4.038513773813407, 62.003195285787854 -3.737869335478681, 62.125044776581774 -3.1121979531509023 M62.125044776581774 -3.1121979531509023 C62.18094994916138 -2.678608474348481, 62.23685512174099 -2.24501899554606, 62.28489270250937 -1.872449005199798 M62.125044776581774 -3.1121979531509023 C62.163151918180404 -2.81664648801822, 62.20125905977903 -2.5210950228855378, 62.28489270250937 -1.872449005199798 M62.28489270250937 -1.872449005199798 C62.308165758781904 -1.5099523680821028, 62.33143881505445 -1.1474557309644076, 62.36498121591342 -0.6250057626472757 M62.28489270250937 -1.872449005199798 C62.31220896036881 -1.4469762397526054, 62.33952521822824 -1.0215034743054128, 62.36498121591342 -0.6250057626472757 M62.36498121591342 -0.6250057626472757 C62.36498121591342 -0.3524396121995157, 62.36498121591342 -0.07987346175175569, 62.36498121591342 0.625005762647271 M62.36498121591342 -0.6250057626472757 C62.36498121591342 -0.3377741333724304, 62.36498121591342 -0.050542504097585095, 62.36498121591342 0.625005762647271 M62.36498121591342 0.625005762647271 C62.344186719611514 0.9488968275647098, 62.32339222330961 1.2727878924821487, 62.28489270250937 1.8724490051997846 M62.36498121591342 0.625005762647271 C62.34183631325053 0.9855063038508811, 62.31869141058765 1.346006845054491, 62.28489270250937 1.8724490051997846 M62.28489270250937 1.8724490051997846 C62.24292845547213 2.1979154184427028, 62.2009642084349 2.523381831685621, 62.125044776581774 3.1121979531508885 M62.28489270250937 1.8724490051997846 C62.229726284696625 2.300308847914017, 62.17455986688388 2.728168690628249, 62.125044776581774 3.1121979531508885 M62.125044776581774 3.1121979531508885 C62.06703790701274 3.410050968631645, 62.00903103744371 3.7079039841124013, 61.88609428754556 4.339158212148129 M62.125044776581774 3.1121979531508885 C62.05245971198497 3.4849069189966366, 61.97987464738817 3.8576158848423843, 61.88609428754556 4.339158212148129 M61.88609428754556 4.339158212148129 C61.77413086875616 4.766123253244775, 61.66216744996676 5.19308829434142, 61.56902313421489 5.548287939305125 M61.88609428754556 4.339158212148129 C61.759588267604 4.821580494241153, 61.63308224766245 5.304002776334176, 61.56902313421489 5.548287939305125 M61.56902313421489 5.548287939305125 C61.41345884020222 6.016822807067012, 61.25789454618955 6.485357674828899, 61.175134229970325 6.734618561215495 M61.56902313421489 5.548287939305125 C61.47067148608482 5.844507433265819, 61.37231983795475 6.1407269272265115, 61.175134229970325 6.734618561215495 M61.175134229970325 6.734618561215495 C61.020396445050125 7.11682388161994, 60.865658660129924 7.499029202024386, 60.70604614880834 7.893275190886679 M61.175134229970325 6.734618561215495 C61.01818139860595 7.122295089162078, 60.86122856724156 7.50997161710866, 60.70604614880834 7.893275190886679 M60.70604614880834 7.893275190886679 C60.49649772773326 8.328406970867041, 60.28694930665817 8.763538750847403, 60.163686474273504 9.019496659696284 M60.70604614880834 7.893275190886679 C60.53436529470309 8.249774157818042, 60.362684440597846 8.606273124749405, 60.163686474273504 9.019496659696284 M60.163686474273504 9.019496659696284 C60.03258491894324 9.252280746657183, 59.901483363612975 9.485064833618083, 59.55028387860425 10.108655082055236 M60.163686474273504 9.019496659696284 C59.97206942779033 9.359732129057141, 59.78045238130715 9.699967598417999, 59.55028387860425 10.108655082055236 M59.55028387860425 10.108655082055236 C59.39713257853078 10.343936605850464, 59.243981278457305 10.57921812964569, 58.86835896464064 11.156274872382301 M59.55028387860425 10.108655082055236 C59.366565018692164 10.390896586301697, 59.18284615878008 10.673138090548157, 58.86835896464064 11.156274872382301 M58.86835896464064 11.156274872382301 C58.61974296120122 11.489397667607278, 58.37112695776179 11.822520462832255, 58.12071390812658 12.158051136245302 M58.86835896464064 11.156274872382301 C58.56950470430057 11.556712355054785, 58.2706504439605 11.957149837727268, 58.12071390812658 12.158051136245302 M58.12071390812658 12.158051136245302 C57.823697511175 12.5069434968164, 57.52668111422341 12.855835857387497, 57.31042094296866 13.10986736009567 M58.12071390812658 12.158051136245302 C57.92524592608217 12.387658950397931, 57.72977794403776 12.61726676455056, 57.31042094296866 13.10986736009567 M57.31042094296866 13.10986736009567 C57.066055258245775 13.362194992367879, 56.821689573522896 13.61452262464009, 56.44080973676799 14.007812326905684 M57.31042094296866 13.10986736009567 C57.136228944442855 13.289734900002614, 56.96203694591705 13.46960243990956, 56.44080973676799 14.007812326905684 M56.44080973676799 14.007812326905684 C56.09142935175335 14.325110348477555, 55.74204896673871 14.642408370049424, 55.51545370850189 14.848196188198111 M56.44080973676799 14.007812326905684 C56.162744324413964 14.260343977197959, 55.88467891205995 14.512875627490233, 55.51545370850189 14.848196188198111 M55.51545370850189 14.848196188198111 C55.18054550383236 15.11527656914044, 54.84563729916283 15.38235695008277, 54.53815534457871 15.627565626425152 M55.51545370850189 14.848196188198111 C55.2424933182777 15.065874835620857, 54.96953292805351 15.283553483043603, 54.53815534457871 15.627565626425152 M54.53815534457871 15.627565626425152 C54.164302445492446 15.88834922499657, 53.79044954640617 16.14913282356799, 53.51293057360571 16.34271804539089 M54.53815534457871 15.627565626425152 C54.17307985434525 15.88222648454876, 53.80800436411178 16.136887342672367, 53.51293057360571 16.34271804539089 M53.51293057360571 16.34271804539089 C53.225030434664134 16.517244801506283, 52.93713029572256 16.691771557621674, 52.44399226407678 16.990714730406093 M53.51293057360571 16.34271804539089 C53.29313195563332 16.475961259285803, 53.07333333766093 16.60920447318072, 52.44399226407678 16.990714730406093 M52.44399226407678 16.990714730406093 C52.05519290136075 17.19355110889717, 51.66639353864471 17.39638748738825, 51.33573291279239 17.56889292409717 M52.44399226407678 16.990714730406093 C52.05431447214773 17.19400938485494, 51.664636680218685 17.397304039303787, 51.33573291279239 17.56889292409717 M51.33573291279239 17.56889292409717 C51.08430813420171 17.680191215328197, 50.832883355611045 17.791489506559223, 50.192706595147804 18.07487676824742 M51.33573291279239 17.56889292409717 C50.96067415178763 17.73492031187113, 50.58561539078287 17.90094769964509, 50.192706595147804 18.07487676824742 M50.192706595147804 18.07487676824742 C49.73468028691331 18.243434683626493, 49.27665397867882 18.41199259900557, 49.01961025146062 18.506587066708033 M50.192706595147804 18.07487676824742 C49.90137196493418 18.182090605233835, 49.61003733472056 18.289304442220246, 49.01961025146062 18.506587066708033 M49.01961025146062 18.506587066708033 C48.562009295149096 18.64240062854486, 48.10440833883758 18.778214190381682, 47.82126438623541 18.86224982926107 M49.01961025146062 18.506587066708033 C48.749725430295854 18.5866874649754, 48.47984060913108 18.66678786324277, 47.82126438623541 18.86224982926107 M47.82126438623541 18.86224982926107 C47.57180787243102 18.919186650681038, 47.32235135862663 18.97612347210101, 46.602593259676766 19.140403561325773 M47.82126438623541 18.86224982926107 C47.355378613416086 18.968585216718292, 46.88949284059676 19.074920604175517, 46.602593259676766 19.140403561325773 M46.602593259676766 19.140403561325773 C46.247960725343034 19.197737799260473, 45.8933281910093 19.255072037195173, 45.36860465284788 19.3399052695533 M46.602593259676766 19.140403561325773 C46.28710313477602 19.191409558057266, 45.97161300987526 19.24241555478876, 45.36860465284788 19.3399052695533 M45.36860465284788 19.3399052695533 C45.06116583585279 19.36956352247954, 44.753727018857695 19.399221775405785, 44.1243692896239 19.45993515863156 M45.36860465284788 19.3399052695533 C45.03294608225657 19.37228584816975, 44.69728751166526 19.4046664267862, 44.1243692896239 19.45993515863156 M44.1243692896239 19.45993515863156 C43.675301094843164 19.474335901579963, 43.22623290006242 19.488736644528366, 42.87500000000001 19.5 M44.1243692896239 19.45993515863156 C43.77355316116531 19.471185149049056, 43.42273703270672 19.482435139466553, 42.87500000000001 19.5 M42.87500000000001 19.5 C42.87500000000001 19.5, 42.875 19.5, 42.875 19.5 M42.87500000000001 19.5 C42.87500000000001 19.5, 42.875 19.5, 42.875 19.5 M42.875 19.5 C12.387505883211325 19.5, -18.09998823357735 19.5, -42.87499999999999 19.5 M42.875 19.5 C24.145924043026227 19.5, 5.416848086052454 19.5, -42.87499999999999 19.5 M-42.87499999999999 19.5 C-43.29153089375888 19.486642664965352, -43.70806178751777 19.473285329930707, -44.12436928962389 19.45993515863156 M-42.87499999999999 19.5 C-43.14620420275709 19.491303009084536, -43.41740840551419 19.482606018169076, -44.12436928962389 19.45993515863156 M-44.12436928962389 19.45993515863156 C-44.56043638782713 19.417868290115308, -44.99650348603038 19.375801421599057, -45.36860465284787 19.3399052695533 M-44.12436928962389 19.45993515863156 C-44.539687003582586 19.419869958258595, -44.95500471754128 19.379804757885626, -45.36860465284787 19.3399052695533 M-45.36860465284787 19.3399052695533 C-45.68835953694698 19.288209779628314, -46.008114421046095 19.236514289703333, -46.60259325967676 19.140403561325773 M-45.36860465284787 19.3399052695533 C-45.78070020755249 19.273280856117413, -46.19279576225711 19.206656442681524, -46.60259325967676 19.140403561325773 M-46.60259325967676 19.140403561325773 C-46.98668840038192 19.052736351914852, -47.370783541087086 18.965069142503932, -47.821264386235384 18.862249829261074 M-46.60259325967676 19.140403561325773 C-46.98440605554549 19.053257282230074, -47.36621885141423 18.96611100313438, -47.821264386235384 18.862249829261074 M-47.821264386235384 18.862249829261074 C-48.26291156640428 18.731171264440306, -48.70455874657317 18.600092699619534, -49.01961025146059 18.506587066708043 M-47.821264386235384 18.862249829261074 C-48.06459050703116 18.79003191385376, -48.30791662782694 18.717813998446445, -49.01961025146059 18.506587066708043 M-49.01961025146059 18.506587066708043 C-49.395230507686634 18.368355340221274, -49.77085076391267 18.230123613734506, -50.1927065951478 18.074876768247425 M-49.01961025146059 18.506587066708043 C-49.466460946984334 18.342141880112756, -49.91331164250808 18.177696693517472, -50.1927065951478 18.074876768247425 M-50.1927065951478 18.074876768247425 C-50.50635799567012 17.93603259737441, -50.82000939619245 17.7971884265014, -51.33573291279238 17.568892924097174 M-50.1927065951478 18.074876768247425 C-50.585710822905504 17.90090545467529, -50.97871505066322 17.726934141103158, -51.33573291279238 17.568892924097174 M-51.33573291279238 17.568892924097174 C-51.71076210633732 17.37324043404244, -52.08579129988227 17.17758794398771, -52.44399226407678 16.990714730406097 M-51.33573291279238 17.568892924097174 C-51.59595935630812 17.433132955198005, -51.85618579982386 17.297372986298832, -52.44399226407678 16.990714730406097 M-52.44399226407678 16.990714730406097 C-52.701513054177475 16.83460411408691, -52.95903384427817 16.67849349776773, -53.512930573605686 16.3427180453909 M-52.44399226407678 16.990714730406097 C-52.84326272005463 16.74867463361868, -53.24253317603248 16.506634536831267, -53.512930573605686 16.3427180453909 M-53.512930573605686 16.3427180453909 C-53.723417881053116 16.195891211564255, -53.933905188500546 16.04906437773761, -54.53815534457871 15.627565626425156 M-53.512930573605686 16.3427180453909 C-53.78220465289889 16.15488410436298, -54.051478732192095 15.96705016333506, -54.53815534457871 15.627565626425156 M-54.53815534457871 15.627565626425156 C-54.7592804156865 15.451224266601969, -54.980405486794275 15.274882906778782, -55.515453708501866 14.848196188198125 M-54.53815534457871 15.627565626425156 C-54.85541090163503 15.374562762197678, -55.172666458691346 15.1215598979702, -55.515453708501866 14.848196188198125 M-55.515453708501866 14.848196188198125 C-55.88229853622405 14.515037421843097, -56.24914336394624 14.181878655488068, -56.440809736767974 14.007812326905697 M-55.515453708501866 14.848196188198125 C-55.72528400796242 14.657633862033544, -55.93511430742298 14.46707153586896, -56.440809736767974 14.007812326905697 M-56.440809736767974 14.007812326905697 C-56.68677656199016 13.753831385611884, -56.93274338721234 13.499850444318069, -57.310420942968655 13.109867360095677 M-56.440809736767974 14.007812326905697 C-56.67722565735309 13.763693478793506, -56.91364157793821 13.519574630681316, -57.310420942968655 13.109867360095677 M-57.310420942968655 13.109867360095677 C-57.582222717655796 12.790593529589046, -57.854024492342944 12.471319699082414, -58.120713908126575 12.158051136245307 M-57.310420942968655 13.109867360095677 C-57.550416700327325 12.827954687356726, -57.790412457685996 12.546042014617777, -58.120713908126575 12.158051136245307 M-58.120713908126575 12.158051136245307 C-58.3830009714467 11.806610366239372, -58.64528803476683 11.45516959623344, -58.868358964640635 11.156274872382316 M-58.120713908126575 12.158051136245307 C-58.39238776070033 11.794032923793598, -58.66406161327409 11.430014711341888, -58.868358964640635 11.156274872382316 M-58.868358964640635 11.156274872382316 C-59.03170226062267 10.905335705937421, -59.19504555660471 10.654396539492526, -59.55028387860425 10.108655082055249 M-58.868358964640635 11.156274872382316 C-59.09589247347453 10.806722301511346, -59.32342598230842 10.457169730640377, -59.55028387860425 10.108655082055249 M-59.55028387860425 10.108655082055249 C-59.74753879146471 9.758409010045634, -59.94479370432518 9.40816293803602, -60.163686474273504 9.019496659696289 M-59.55028387860425 10.108655082055249 C-59.72113657049944 9.805288826884262, -59.891989262394624 9.501922571713274, -60.163686474273504 9.019496659696289 M-60.163686474273504 9.019496659696289 C-60.37263790396309 8.585604545101479, -60.58158933365268 8.151712430506668, -60.70604614880834 7.893275190886686 M-60.163686474273504 9.019496659696289 C-60.305494089932324 8.725030111583846, -60.44730170559114 8.430563563471404, -60.70604614880834 7.893275190886686 M-60.70604614880834 7.893275190886686 C-60.84826419843096 7.54199385871988, -60.99048224805358 7.190712526553073, -61.175134229970325 6.73461856121551 M-60.70604614880834 7.893275190886686 C-60.88329560939657 7.455465596348577, -61.06054506998479 7.017656001810467, -61.175134229970325 6.73461856121551 M-61.175134229970325 6.73461856121551 C-61.332356325211556 6.2610906602879535, -61.48957842045278 5.787562759360396, -61.56902313421488 5.5482879393051325 M-61.175134229970325 6.73461856121551 C-61.304478775387004 6.345053398675126, -61.43382332080368 5.955488236134742, -61.56902313421488 5.5482879393051325 M-61.56902313421488 5.5482879393051325 C-61.64849394683872 5.245231287902379, -61.72796475946255 4.942174636499625, -61.88609428754556 4.339158212148136 M-61.56902313421488 5.5482879393051325 C-61.69229824168347 5.078186526757868, -61.815573349152054 4.6080851142106045, -61.88609428754556 4.339158212148136 M-61.88609428754556 4.339158212148136 C-61.97754397751443 3.869583382056792, -62.068993667483305 3.4000085519654477, -62.125044776581774 3.112197953150904 M-61.88609428754556 4.339158212148136 C-61.97765883750502 3.8689936002807985, -62.069223387464476 3.3988289884134617, -62.125044776581774 3.112197953150904 M-62.125044776581774 3.112197953150904 C-62.172164525069874 2.746746488724019, -62.21928427355797 2.3812950242971342, -62.28489270250937 1.872449005199809 M-62.125044776581774 3.112197953150904 C-62.160866494623676 2.834371781816239, -62.19668821266558 2.5565456104815736, -62.28489270250937 1.872449005199809 M-62.28489270250937 1.872449005199809 C-62.30490078065469 1.5608070378563947, -62.324908858800015 1.2491650705129804, -62.36498121591342 0.6250057626472781 M-62.28489270250937 1.872449005199809 C-62.3109000817775 1.4673630803199544, -62.336907461045634 1.0622771554400996, -62.36498121591342 0.6250057626472781 M-62.36498121591342 0.6250057626472781 C-62.36498121591342 0.2992619380265679, -62.36498121591342 -0.0264818865941423, -62.36498121591342 -0.6250057626472687 M-62.36498121591342 0.6250057626472781 C-62.36498121591342 0.27293145899878424, -62.36498121591342 -0.07914284464970966, -62.36498121591342 -0.6250057626472687 M-62.36498121591342 -0.6250057626472687 C-62.337114444101694 -1.0590532272682172, -62.30924767228997 -1.4931006918891658, -62.28489270250937 -1.8724490051997822 M-62.36498121591342 -0.6250057626472687 C-62.33902440461045 -1.0293040506519433, -62.31306759330748 -1.433602338656618, -62.28489270250937 -1.8724490051997822 M-62.28489270250937 -1.8724490051997822 C-62.23102106992332 -2.2902667493800366, -62.17714943733728 -2.708084493560291, -62.125044776581774 -3.112197953150895 M-62.28489270250937 -1.8724490051997822 C-62.222766775777984 -2.3542854247765455, -62.160640849046594 -2.836121844353309, -62.125044776581774 -3.112197953150895 M-62.125044776581774 -3.112197953150895 C-62.07488829301277 -3.369740895701195, -62.02473180944376 -3.627283838251495, -61.88609428754556 -4.339158212148126 M-62.125044776581774 -3.112197953150895 C-62.069411952578015 -3.3978607464086736, -62.013779128574264 -3.683523539666452, -61.88609428754556 -4.339158212148126 M-61.88609428754556 -4.339158212148126 C-61.81638222792964 -4.605000508861412, -61.746670168313706 -4.870842805574698, -61.56902313421489 -5.548287939305123 M-61.88609428754556 -4.339158212148126 C-61.777494707748765 -4.753295477268925, -61.66889512795197 -5.1674327423897255, -61.56902313421489 -5.548287939305123 M-61.56902313421489 -5.548287939305123 C-61.48808249835809 -5.792068238366809, -61.407141862501284 -6.035848537428497, -61.17513422997033 -6.734618561215485 M-61.56902313421489 -5.548287939305123 C-61.42292510980576 -5.988311911266383, -61.276827085396626 -6.428335883227643, -61.17513422997033 -6.734618561215485 M-61.17513422997033 -6.734618561215485 C-61.045154567703875 -7.055670839999437, -60.915174905437425 -7.3767231187833895, -60.70604614880834 -7.893275190886676 M-61.17513422997033 -6.734618561215485 C-61.03622748829778 -7.077720898725835, -60.89732074662523 -7.420823236236186, -60.70604614880834 -7.893275190886676 M-60.70604614880834 -7.893275190886676 C-60.49646790780862 -8.32846889257859, -60.286889666808904 -8.763662594270503, -60.163686474273504 -9.019496659696282 M-60.70604614880834 -7.893275190886676 C-60.51480819084023 -8.290384902444274, -60.32357023287211 -8.687494614001873, -60.163686474273504 -9.019496659696282 M-60.163686474273504 -9.019496659696282 C-59.91977516070599 -9.452585895634142, -59.67586384713847 -9.885675131572, -59.55028387860425 -10.108655082055243 M-60.163686474273504 -9.019496659696282 C-59.9509069007932 -9.397308338678773, -59.738127327312895 -9.775120017661266, -59.55028387860425 -10.108655082055243 M-59.55028387860425 -10.108655082055243 C-59.298300000755084 -10.49576998557706, -59.046316122905914 -10.882884889098877, -58.86835896464064 -11.156274872382308 M-59.55028387860425 -10.108655082055243 C-59.27845724489467 -10.526253787104665, -59.006630611185095 -10.943852492154086, -58.86835896464064 -11.156274872382308 M-58.86835896464064 -11.156274872382308 C-58.70726853872356 -11.372121367471495, -58.54617811280647 -11.587967862560681, -58.12071390812659 -12.158051136245302 M-58.86835896464064 -11.156274872382308 C-58.57887877422167 -11.54415195535586, -58.289398583802694 -11.93202903832941, -58.12071390812659 -12.158051136245302 M-58.12071390812659 -12.158051136245302 C-57.94095159717866 -12.369210175450004, -57.761189286230724 -12.580369214654706, -57.31042094296866 -13.10986736009567 M-58.12071390812659 -12.158051136245302 C-57.83383421519035 -12.495036347485172, -57.54695452225411 -12.83202155872504, -57.31042094296866 -13.10986736009567 M-57.31042094296866 -13.10986736009567 C-56.96484932037804 -13.466698432378342, -56.61927769778743 -13.823529504661012, -56.440809736767996 -14.007812326905677 M-57.31042094296866 -13.10986736009567 C-57.04388428131538 -13.385088346319577, -56.77734761966209 -13.660309332543486, -56.440809736767996 -14.007812326905677 M-56.440809736767996 -14.007812326905677 C-56.20323395078523 -14.223572369824382, -55.96565816480247 -14.439332412743086, -55.51545370850189 -14.848196188198107 M-56.440809736767996 -14.007812326905677 C-56.15672126032564 -14.265813964641435, -55.87263278388328 -14.523815602377192, -55.51545370850189 -14.848196188198107 M-55.51545370850189 -14.848196188198107 C-55.31720118559778 -15.006297299492932, -55.118948662693676 -15.164398410787758, -54.53815534457872 -15.627565626425149 M-55.51545370850189 -14.848196188198107 C-55.3006562250318 -15.019491465264412, -55.08585874156171 -15.190786742330715, -54.53815534457872 -15.627565626425149 M-54.53815534457872 -15.627565626425149 C-54.25732685565582 -15.823459423428416, -53.97649836673291 -16.019353220431682, -53.512930573605715 -16.342718045390885 M-54.53815534457872 -15.627565626425149 C-54.19449480276166 -15.86728834357165, -53.850834260944595 -16.10701106071815, -53.512930573605715 -16.342718045390885 M-53.512930573605715 -16.342718045390885 C-53.22676194265149 -16.516195151188874, -52.94059331169728 -16.689672256986864, -52.44399226407679 -16.99071473040609 M-53.512930573605715 -16.342718045390885 C-53.240247612701786 -16.508020058753793, -52.967564651797865 -16.6733220721167, -52.44399226407679 -16.99071473040609 M-52.44399226407679 -16.99071473040609 C-52.053665734649414 -17.194347830792278, -51.66333920522204 -17.39798093117847, -51.33573291279239 -17.56889292409717 M-52.44399226407679 -16.99071473040609 C-52.14560264212324 -17.146384405051585, -51.84721302016968 -17.30205407969708, -51.33573291279239 -17.56889292409717 M-51.33573291279239 -17.56889292409717 C-51.1003525774078 -17.67308881626236, -50.864972242023214 -17.77728470842755, -50.192706595147804 -18.07487676824742 M-51.33573291279239 -17.56889292409717 C-51.0904688828324 -17.677464034661508, -50.845204852872406 -17.786035145225846, -50.192706595147804 -18.07487676824742 M-50.192706595147804 -18.07487676824742 C-49.79298461377811 -18.22197815238096, -49.393262632408415 -18.369079536514498, -49.01961025146062 -18.506587066708033 M-50.192706595147804 -18.07487676824742 C-49.72775596022979 -18.245982899853804, -49.26280532531178 -18.417089031460186, -49.01961025146062 -18.506587066708033 M-49.01961025146062 -18.506587066708033 C-48.56873503147965 -18.640404465306062, -48.11785981149867 -18.77422186390409, -47.82126438623541 -18.862249829261067 M-49.01961025146062 -18.506587066708033 C-48.77711188010634 -18.57855931042606, -48.53461350875206 -18.65053155414408, -47.82126438623541 -18.862249829261067 M-47.82126438623541 -18.862249829261067 C-47.4084511313642 -18.956471760827178, -46.99563787649299 -19.050693692393292, -46.602593259676766 -19.140403561325773 M-47.82126438623541 -18.862249829261067 C-47.37426556348815 -18.96427439361321, -46.92726674074089 -19.06629895796535, -46.602593259676766 -19.140403561325773 M-46.602593259676766 -19.140403561325773 C-46.32038514458275 -19.186028780817555, -46.03817702948874 -19.231654000309337, -45.36860465284788 -19.3399052695533 M-46.602593259676766 -19.140403561325773 C-46.34479393451834 -19.18208255695376, -46.08699460935993 -19.22376155258175, -45.36860465284788 -19.3399052695533 M-45.36860465284788 -19.3399052695533 C-45.02281298208199 -19.373263376156757, -44.677021311316096 -19.40662148276021, -44.1243692896239 -19.45993515863156 M-45.36860465284788 -19.3399052695533 C-44.88160289740552 -19.38688574319552, -44.39460114196317 -19.433866216837743, -44.1243692896239 -19.45993515863156 M-44.1243692896239 -19.45993515863156 C-43.81033361077296 -19.470005671618942, -43.496297931922015 -19.48007618460632, -42.87500000000001 -19.5 M-44.1243692896239 -19.45993515863156 C-43.84292635793793 -19.468960485655295, -43.561483426251954 -19.47798581267903, -42.87500000000001 -19.5 M-42.87500000000001 -19.5 C-42.87500000000001 -19.5, -42.875 -19.5, -42.875 -19.5 M-42.87500000000001 -19.5 C-42.87500000000001 -19.5, -42.87500000000001 -19.5, -42.875 -19.5" stroke="#89b4fa" stroke-width="1.3" fill="none" stroke-dasharray="0 0" style="fill:#89b4fa !important;stroke:#89b4fa !important"/></g><g class="label" style="color:#1e1e2e !important;font-weight:bold !important" transform="translate(-50, -12)"><rect/><foreignObject width="100" height="24"><div style="color: rgb(30, 30, 46) !important; font-weight: bold !important; display: table-cell; white-space: nowrap; line-height: 1.5; max-width: 200px; text-align: center;" xmlns="http://www.w3.org/1999/xhtml"><span style="color:#1e1e2e !important;font-weight:bold !important" class="nodeLabel "><p>web-server</p></span></div></foreignObject></g></g><g class="node default monitoring__alerting_c " id="my-svg-flowchart-monitoring__alerting-1" data-look="classic" transform="translate(151, 174)"><polygon points="-31.5,0 246.5,0 215,-63 0,-63" class="label-container" transform="translate(-107.5,31.5)" style="fill:#cba6f7 !important;stroke:#cba6f7 !important;stroke-width:3px !important"/><g class="label" style="color:#1e1e2e !important" transform="translate(-100, -24)"><rect/><foreignObject width="200" height="48"><div style="color: rgb(30, 30, 46) !important; display: table; white-space: break-spaces; line-height: 1.5; max-width: 200px; text-align: center; width: 200px;" xmlns="http://www.w3.org/1999/xhtml"><span style="color:#1e1e2e !important" class="nodeLabel "><p>monitoring/alerting · host</p></span></div></foreignObject></g></g><g class="node default virtualization__docker_c " id="my-svg-flowchart-virtualization__docker-2" data-look="classic" transform="translate(474, 174)"><polygon points="-31.5,0 266.5,0 235,-63 0,-63" class="label-container" transform="translate(-117.5,31.5)" style="fill:#cba6f7 !important;stroke:#cba6f7 !important;stroke-width:3px !important"/><g class="label" style="color:#1e1e2e !important" transform="translate(-110, -24)"><rect/><foreignObject width="220" height="48"><div style="color: rgb(30, 30, 46) !important; display: table; white-space: break-spaces; line-height: 1.5; max-width: 200px; text-align: center; width: 200px;" xmlns="http://www.w3.org/1999/xhtml"><span style="color:#1e1e2e !important" class="nodeLabel "><p>virtualization/docker · host</p></span></div></foreignObject></g></g><g class="node default monitoring_c " id="my-svg-flowchart-monitoring-3" data-look="classic" transform="translate(797, 63)"><rect class="basic label-container" style="fill:#89b4fa !important;stroke:#89b4fa !important;stroke-width:3px !important" x="-115" y="-27" width="230" height="54"/><g class="label" style="color:#1e1e2e !important" transform="translate(-85, -12)"><rect/><foreignObject width="170" height="24"><div style="color: rgb(30, 30, 46) !important; display: table-cell; white-space: nowrap; line-height: 1.5; max-width: 200px; text-align: center;" xmlns="http://www.w3.org/1999/xhtml"><span style="color:#1e1e2e !important" class="nodeLabel "><p>monitoring · host</p></span></div></foreignObject></g></g><g class="node default monitoring__nginx_exporter_c " id="my-svg-flowchart-monitoring__nginx_exporter-4" data-look="classic" transform="translate(797, 174)"><polygon points="-31.5,0 246.5,0 215,-63 0,-63" class="label-container" transform="translate(-107.5,31.5)" style="fill:#89b4fa !important;stroke:#f38ba8 !important;stroke-dasharray:5 5 !important;stroke-width:2px !important"/><g class="label" style="color:#1e1e2e !important" transform="translate(-100, -24)"><rect/><foreignObject width="200" height="48"><div style="color: rgb(30, 30, 46) !important; display: table; white-space: break-spaces; line-height: 1.5; max-width: 200px; text-align: center; width: 200px;" xmlns="http://www.w3.org/1999/xhtml"><span style="color:#1e1e2e !important" class="nodeLabel "><p>monitoring/nginx-exporter · host</p></span></div></foreignObject></g></g><g class="node default monitoring__node_exporter_c " id="my-svg-flowchart-monitoring__node_exporter-5" data-look="classic" transform="translate(1110, 174)"><polygon points="-31.5,0 246.5,0 215,-63 0,-63" class="label-container" transform="translate(-107.5,31.5)" style="fill:#f2cdcd !important;stroke:#f2cdcd !important;stroke-width:3px !important"/><g class="label" style="color:#1e1e2e !important" transform="translate(-100, -24)"><rect/><foreignObject width="200" height="48"><div style="color: rgb(30, 30, 46) !important; display: table; white-space: break-spaces; line-height: 1.5; max-width: 200px; text-align: center; width: 200px;" xmlns="http://www.w3.org/1999/xhtml"><span style="color:#1e1e2e !important" class="nodeLabel "><p>monitoring/node-exporter · host</p></span></div></foreignObject></g></g><g class="node default virtualization_c " id="my-svg-flowchart-virtualization-6" data-look="classic" transform="translate(1077, 51)"><rect class="basic label-container" style="fill:#89b4fa !important;stroke:#89b4fa !important;stroke-width:3px !important" x="-130" y="-39" width="260" height="78"/><g class="label" style="color:#1e1e2e !important" transform="translate(-100, -24)"><rect/><foreignObject width="200" height="48"><div style="color: rgb(30, 30, 46) !important; display: table; white-space: break-spaces; line-height: 1.5; max-width: 200px; text-align: center; width: 200px;" xmlns="http://www.w3.org/1999/xhtml"><span style="color:#1e1e2e !important" class="nodeLabel "><p>virtualization · host</p></span></div></foreignObject></g></g></g><g class="edges edgePaths"><path d="M797,90L797,95C797,100,797,110,796.638,115.471C796.276,120.943,795.552,121.886,794.719,122.719C793.886,123.552,792.943,124.276,686.471,124.638C580,125,368,125,261.529,125.362C155.057,125.724,154.114,126.448,153.281,127.281C152.448,128.114,151.724,129.057,151.362,130.945C151,132.833,151,135.667,151,137.083L151,138.5" id="my-svg-L_monitoring_monitoring__alerting_0_0" class=" edge-thickness-normal edge-pattern-solid edge-thickness-normal edge-pattern-solid flowchart-link" style=";" data-edge="true" data-et="edge" data-id="L_monitoring_monitoring__alerting_0_0" data-points="W3sieCI6Nzk3LCJ5Ijo5MH0seyJ4Ijo3OTcsInkiOjEyNX0seyJ4IjoxNTEsInkiOjEyNX0seyJ4IjoxNTEsInkiOjE0Mi41fV0=" data-look="classic" marker-end="url(#my-svg_flowchart-v2-pointEnd)"/><path d="M1077,90L1077,92.083C1077,94.167,1077,98.333,1076.638,100.888C1076.276,103.443,1075.552,104.386,1074.719,105.219C1073.886,106.052,1072.943,106.776,973.638,107.138C874.333,107.5,676.667,107.5,577.362,107.862C478.057,108.224,477.114,108.948,476.281,109.781C475.448,110.614,474.724,111.557,474.362,116.362C474,121.167,474,129.833,474,134.167L474,138.5" id="my-svg-L_virtualization_virtualization__docker_0_0" class=" edge-thickness-normal edge-pattern-solid edge-thickness-normal edge-pattern-solid flowchart-link" style=";" data-edge="true" data-et="edge" data-id="L_virtualization_virtualization__docker_0_0" data-points="W3sieCI6MTA3NywieSI6OTB9LHsieCI6MTA3NywieSI6MTA3LjV9LHsieCI6NDc0LCJ5IjoxMDcuNX0seyJ4Ijo0NzQsInkiOjE0Mi41fV0=" data-look="classic" marker-end="url(#my-svg_flowchart-v2-pointEnd)"/><path d="M797,90L797,138.5" id="my-svg-L_monitoring_monitoring__nginx_exporter_0_0" class=" edge-thickness-normal edge-pattern-solid edge-thickness-normal edge-pattern-solid flowchart-link" style=";" data-edge="true" data-et="edge" data-id="L_monitoring_monitoring__nginx_exporter_0_0" data-points="W3sieCI6Nzk3LCJ5Ijo5MH0seyJ4Ijo3OTcsInkiOjE0Mi41fV0=" data-look="classic" marker-end="url(#my-svg_flowchart-v2-pointEnd)"/><path d="M797,90L797,95C797,100,797,110,797.362,115.471C797.724,120.943,798.448,121.886,799.281,122.719C800.114,123.552,801.057,124.276,852.029,124.638C903,125,1004,125,1054.971,125.362C1105.943,125.724,1106.886,126.448,1107.719,127.281C1108.552,128.114,1109.276,129.057,1109.638,130.945C1110,132.833,1110,135.667,1110,137.083L1110,138.5" id="my-svg-L_monitoring_monitoring__node_exporter_0_0" class=" edge-thickness-normal edge-pattern-solid edge-thickness-normal edge-pattern-solid flowchart-link" style=";" data-edge="true" data-et="edge" data-id="L_monitoring_monitoring__node_exporter_0_0" data-points="W3sieCI6Nzk3LCJ5Ijo5MH0seyJ4Ijo3OTcsInkiOjEyNX0seyJ4IjoxMTEwLCJ5IjoxMjV9LHsieCI6MTExMCwieSI6MTQyLjV9XQ==" data-look="classic" marker-end="url(#my-svg_flowchart-v2-pointEnd)"/></g><g class="edgeLabels"><g class="edgeLabel"><g class="label" data-id="L_monitoring_monitoring__alerting_0_0" transform="translate(0, 0)"><foreignObject width="0" height="0"><div xmlns="http://www.w3.org/1999/xhtml" class="labelBkg" style="display: table-cell; white-space: nowrap; line-height: 1.5; max-width: 200px; text-align: center;"><span class="edgeLabel "></span></div></foreignObject></g></g><g class="edgeLabel"><g class="label" data-id="L_virtualization_virtualization__docker_0_0" transform="translate(0, 0)"><foreignObject width="0" height="0"><div xmlns="http://www.w3.org/1999/xhtml" class="labelBkg" style="display: table-cell; white-space: nowrap; line-height: 1.5; max-width: 200px; text-align: center;"><span class="edgeLabel "></span></div></foreignObject></g></g><g class="edgeLabel"><g class="label" data-id="L_monitoring_monitoring__nginx_exporter_0_0" transform="translate(0, 0)"><foreignObject width="0" height="0"><div xmlns="http://www.w3.org/1999/xhtml" class="labelBkg" style="display: table-cell; white-space: nowrap; line-height: 1.5; max-width: 200px; text-align: center;"><span class="edgeLabel "></span></div></foreignObject></g></g><g class="edgeLabel"><g class="label" data-id="L_monitoring_monitoring__node_exporter_0_0" transform="translate(0, 0)"><foreignObject width="0" height="0"><div xmlns="http://www.w3.org/1999/xhtml" class="labelBkg" style="display: table-cell; white-space: nowrap; line-height: 1.5; max-width: 200px; text-align: center;"><span class="edgeLabel "></span></div></foreignObject></g></g></g></svg>