<?xml version="1.0" encoding="UTF-8" standalone="no"?>
<!DOCTYPE svg PUBLIC "-//W3C//DTD SVG 1.1//EN"
 "http://www.w3.org/Graphics/SVG/1.1/DTD/svg11.dtd">
<!-- Generated by graphviz version 12.2.1 (0)
 -->
<!-- Pages: 1 -->
<svg width="1918pt" height="1392pt"
 viewBox="0.00 0.00 1918.30 1392.00" xmlns="http://www.w3.org/2000/svg" xmlns:xlink="http://www.w3.org/1999/xlink">
<g id="graph0" class="graph" transform="scale(1 1) rotate(0) translate(4 1388)">
<polygon fill="#1e1e2e" stroke="none" points="-4,4 -4,-1388 1914.3,-1388 1914.3,4 -4,4"/>
<g id="clust1" class="cluster">
<title>cluster_ctx_host</title>
<polygon fill="#313244" stroke="#6c7086" stroke-dasharray="5,2" points="511.17,-722 511.17,-1095 1902.3,-1095 1902.3,-722 511.17,-722"/>
<text text-anchor="middle" x="1206.74" y="-1077.7" font-family="Times,serif" font-size="14.00" fill="#cdd6f4">host { host }</text>
</g>
<g id="clust2" class="cluster">
<title>cluster_ctx_default</title>
<polygon fill="#313244" stroke="#6c7086" stroke-dasharray="5,2" points="82,-1103 82,-1376 1543.3,-1376 1543.3,-1103 82,-1103"/>
<text text-anchor="middle" x="812.65" y="-1358.7" font-family="Times,serif" font-size="14.00" fill="#cdd6f4">default { host }</text>
</g>
<g id="clust3" class="cluster">
<title>cluster_ctx_hm_host</title>
<polygon fill="#313244" stroke="#6c7086" stroke-dasharray="5,2" points="82,-495 82,-714 731.8,-714 731.8,-495 82,-495"/>
<text text-anchor="middle" x="406.9" y="-696.7" font-family="Times,serif" font-size="14.00" fill="#cdd6f4">hm&#45;host { host }</text>
</g>
<g id="clust4" class="cluster">
<title>cluster_ctx_hm_user</title>
<polygon fill="#313244" stroke="#6c7086" stroke-dasharray="5,2" points="82,-268 82,-487 732.55,-487 732.55,-268 82,-268"/>
<text text-anchor="middle" x="407.27" y="-469.7" font-family="Times,serif" font-size="14.00" fill="#cdd6f4">hm&#45;user { host, user }</text>
</g>
<g id="clust5" class="cluster">
<title>cluster_ctx_user</title>
<polygon fill="#313244" stroke="#6c7086" stroke-dasharray="5,2" points="82,-8 82,-260 723.92,-260 723.92,-8 82,-8"/>
<text text-anchor="middle" x="402.96" y="-242.7" font-family="Times,serif" font-size="14.00" fill="#cdd6f4">user { host, user }</text>
</g>
<!-- web_server -->
<g id="node1" class="node">
<title>web_server</title>
<path fill="#89b4fa" stroke="#89b4fa" d="M278.43,-758C278.43,-758 206.93,-758 206.93,-758 200.93,-758 194.93,-752 194.93,-746 194.93,-746 194.93,-734 194.93,-734 194.93,-728 200.93,-722 206.93,-722 206.93,-722 278.43,-722 278.43,-722 284.43,-722 290.43,-728 290.43,-734 290.43,-734 290.43,-746 290.43,-746 290.43,-752 284.43,-758 278.43,-758"/>
<text text-anchor="middle" x="242.68" y="-735.33" font-family="Times,serif" font-size="14.00" fill="#1e1e2e">web&#45;server</text>
</g>
<!-- host__self_provide_host_ -->
<g id="node7" class="node">
<title>host__self_provide_host_</title>
<polygon fill="#f2cdcd" stroke="#f2cdcd" points="1894.3,-912 1718.55,-912 1718.55,-876 1894.3,-876 1894.3,-912"/>
<text text-anchor="middle" x="1806.43" y="-889.33" font-family="Times,serif" font-size="14.00" fill="#1e1e2e">host/self&#45;provide(host)</text>
</g>
<!-- web_server&#45;&gt;host__self_provide_host_ -->
<g id="edge49" class="edge">
<title>web_server&#45;&gt;host__self_provide_host_</title>
<path fill="none" stroke="#a6adc8" d="M290.78,-738.3C393.83,-734.67 647.04,-726.23 859.23,-723 1175.67,-718.19 1254.82,-721.44 1571.3,-721 1620.75,-720.93 1638.62,-698.32 1682.55,-721 1741.35,-751.36 1778.13,-824.28 1794.84,-865.09"/>
<polygon fill="#a6adc8" stroke="#a6adc8" points="1791.54,-866.27 1798.47,-874.28 1798.05,-863.7 1791.54,-866.27"/>
</g>
<!-- server -->
<g id="node12" class="node">
<title>server</title>
<polygon fill="#89b4fa" stroke="#89b4fa" points="658.17,-857 596.42,-857 596.42,-821 658.17,-821 658.17,-857"/>
<text text-anchor="middle" x="627.3" y="-834.33" font-family="Times,serif" font-size="14.00" fill="#1e1e2e">server</text>
</g>
<!-- web_server&#45;&gt;server -->
<g id="edge50" class="edge">
<title>web_server&#45;&gt;server</title>
<path fill="none" stroke="#a6adc8" d="M290.6,-752.14C366.18,-771.69 513.63,-809.85 585.27,-828.38"/>
<polygon fill="#a6adc8" stroke="#a6adc8" points="584.07,-831.69 594.63,-830.81 585.83,-824.91 584.07,-831.69"/>
</g>
<!-- monitoring__alerting -->
<g id="node2" class="node">
<title>monitoring__alerting</title>
<polygon fill="#cba6f7" stroke="#cba6f7" points="1287.36,-934 1107.17,-934 1043,-898 1351.53,-898 1287.36,-934"/>
<text text-anchor="middle" x="1197.26" y="-911.33" font-family="Times,serif" font-size="14.00" fill="#1e1e2e">monitoring/alerting</text>
</g>
<!-- monitoring__alerting&#45;&gt;host__self_provide_host_ -->
<g id="edge32" class="edge">
<title>monitoring__alerting&#45;&gt;host__self_provide_host_</title>
<path fill="none" stroke="#a6adc8" d="M1336.01,-907.09C1401.67,-908.15 1479.58,-917.4 1543.3,-948 1559.45,-955.76 1554.81,-970 1571.3,-977 1616.82,-996.32 1635.27,-991.47 1682.55,-977 1719.06,-965.82 1754.51,-939.74 1777.87,-919.77"/>
<polygon fill="#a6adc8" stroke="#a6adc8" points="1780.17,-922.42 1785.37,-913.19 1775.55,-917.15 1780.17,-922.42"/>
</g>
<!-- monitoring -->
<g id="node8" class="node">
<title>monitoring</title>
<polygon fill="#89b4fa" stroke="#89b4fa" points="1674.3,-1042 1579.55,-1042 1579.55,-1006 1674.3,-1006 1674.3,-1042"/>
<text text-anchor="middle" x="1626.93" y="-1019.33" font-family="Times,serif" font-size="14.00" fill="#1e1e2e">monitoring</text>
</g>
<!-- monitoring__alerting&#45;&gt;monitoring -->
<g id="edge53" class="edge">
<title>monitoring__alerting&#45;&gt;monitoring</title>
<path fill="none" stroke="#a6adc8" d="M1345.81,-901.63C1410.61,-902.09 1485.03,-912.41 1543.3,-948 1563.09,-960.08 1554.61,-975.91 1571.3,-992 1573.91,-994.52 1576.76,-996.92 1579.74,-999.19"/>
<polygon fill="#a6adc8" stroke="#a6adc8" points="1577.51,-1001.9 1587.71,-1004.74 1581.5,-996.15 1577.51,-1001.9"/>
</g>
<!-- backup -->
<g id="node3" class="node">
<title>backup</title>
<polygon fill="#89b4fa" stroke="#89b4fa" points="1660.43,-894 1593.43,-894 1593.43,-858 1660.43,-858 1660.43,-894"/>
<text text-anchor="middle" x="1626.93" y="-871.33" font-family="Times,serif" font-size="14.00" fill="#1e1e2e">backup</text>
</g>
<!-- backup&#45;&gt;host__self_provide_host_ -->
<g id="edge1" class="edge">
<title>backup&#45;&gt;host__self_provide_host_</title>
<path fill="none" stroke="#a6adc8" d="M1660.9,-879.34C1674.3,-880.7 1690.57,-882.35 1707.28,-884.05"/>
<polygon fill="#a6adc8" stroke="#a6adc8" points="1706.49,-887.48 1716.79,-885.01 1707.19,-880.52 1706.49,-887.48"/>
</g>
<!-- virtualization__docker -->
<g id="node4" class="node">
<title>virtualization__docker</title>
<polygon fill="#cba6f7" stroke="#cba6f7" points="1292.14,-800 1102.39,-800 1034.82,-764 1359.71,-764 1292.14,-800"/>
<text text-anchor="middle" x="1197.26" y="-777.33" font-family="Times,serif" font-size="14.00" fill="#1e1e2e">virtualization/docker</text>
</g>
<!-- virtualization__docker&#45;&gt;host__self_provide_host_ -->
<g id="edge48" class="edge">
<title>virtualization__docker&#45;&gt;host__self_provide_host_</title>
<path fill="none" stroke="#a6adc8" d="M1338.41,-775.91C1458.6,-772.48 1621.72,-772.62 1682.55,-795 1722.63,-809.74 1759.45,-843.23 1782.13,-867.17"/>
<polygon fill="#a6adc8" stroke="#a6adc8" points="1779.44,-869.42 1788.8,-874.4 1784.58,-864.68 1779.44,-869.42"/>
</g>
<!-- virtualization -->
<g id="node14" class="node">
<title>virtualization</title>
<polygon fill="#89b4fa" stroke="#89b4fa" points="1682.55,-766 1571.3,-766 1571.3,-730 1682.55,-730 1682.55,-766"/>
<text text-anchor="middle" x="1626.93" y="-743.33" font-family="Times,serif" font-size="14.00" fill="#1e1e2e">virtualization</text>
</g>
<!-- virtualization__docker&#45;&gt;virtualization -->
<g id="edge54" class="edge">
<title>virtualization__docker&#45;&gt;virtualization</title>
<path fill="none" stroke="#a6adc8" d="M1349.34,-769.99C1421.31,-764.27 1503.68,-757.72 1559.68,-753.27"/>
<polygon fill="#a6adc8" stroke="#a6adc8" points="1559.67,-756.78 1569.36,-752.5 1559.11,-749.8 1559.67,-756.78"/>
</g>
<!-- host__aspect_host_ -->
<g id="node5" class="node">
<title>host__aspect_host_</title>
<polygon fill="#89b4fa" stroke="#89b4fa" points="696.8,-965 557.8,-965 557.8,-929 696.8,-929 696.8,-965"/>
<text text-anchor="middle" x="627.3" y="-942.33" font-family="Times,serif" font-size="14.00" fill="#1e1e2e">host/aspect(host)</text>
</g>
<!-- host__cross_provide__anon__ -->
<g id="node6" class="node">
<title>host__cross_provide__anon__</title>
<polygon fill="#cba6f7" stroke="#cba6f7" points="735.42,-911 519.17,-911 519.17,-875 735.42,-875 735.42,-911"/>
<text text-anchor="middle" x="627.3" y="-888.33" font-family="Times,serif" font-size="14.00" fill="#1e1e2e">host/cross&#45;provide(&lt;anon&gt;)</text>
</g>
<!-- monitoring&#45;&gt;host__self_provide_host_ -->
<g id="edge31" class="edge">
<title>monitoring&#45;&gt;host__self_provide_host_</title>
<path fill="none" stroke="#a6adc8" d="M1661.04,-1005.63C1668.25,-1001.34 1675.76,-996.67 1682.55,-992 1715.67,-969.27 1751.32,-940.28 1775.65,-919.74"/>
<polygon fill="#a6adc8" stroke="#a6adc8" points="1777.88,-922.44 1783.24,-913.3 1773.35,-917.1 1777.88,-922.44"/>
</g>
<!-- networking -->
<g id="node9" class="node">
<title>networking</title>
<polygon fill="#89b4fa" stroke="#89b4fa" points="1675.43,-968 1578.43,-968 1578.43,-932 1675.43,-932 1675.43,-968"/>
<text text-anchor="middle" x="1626.93" y="-945.33" font-family="Times,serif" font-size="14.00" fill="#1e1e2e">networking</text>
</g>
<!-- networking&#45;&gt;host__self_provide_host_ -->
<g id="edge34" class="edge">
<title>networking&#45;&gt;host__self_provide_host_</title>
<path fill="none" stroke="#a6adc8" d="M1675.5,-934.99C1694.12,-929.12 1715.86,-922.26 1736.17,-915.85"/>
<polygon fill="#a6adc8" stroke="#a6adc8" points="1737.02,-919.25 1745.51,-912.9 1734.92,-912.58 1737.02,-919.25"/>
</g>
<!-- monitoring__nginx_exporter -->
<g id="node10" class="node">
<title>monitoring__nginx_exporter</title>
<polygon fill="#89b4fa" stroke="#f38ba8" stroke-dasharray="5,2" points="1315.6,-1008 1078.93,-1008 994.64,-972 1399.89,-972 1315.6,-1008"/>
<text text-anchor="middle" x="1197.26" y="-985.33" font-family="Times,serif" font-size="14.00" fill="#1e1e2e">monitoring/nginx&#45;exporter</text>
</g>
<!-- monitoring__nginx_exporter&#45;&gt;monitoring -->
<g id="edge52" class="edge">
<title>monitoring__nginx_exporter&#45;&gt;monitoring</title>
<path fill="none" stroke="#a6adc8" d="M1334.3,-1000.44C1397.81,-1005.37 1474.43,-1011.39 1543.3,-1017 1551.2,-1017.64 1559.53,-1018.33 1567.73,-1019.02"/>
<polygon fill="#a6adc8" stroke="#a6adc8" points="1567.41,-1022.51 1577.67,-1019.86 1568,-1015.53 1567.41,-1022.51"/>
</g>
<!-- monitoring__node_exporter -->
<g id="node11" class="node">
<title>monitoring__node_exporter</title>
<polygon fill="#f2cdcd" stroke="#f2cdcd" points="1312.99,-1062 1081.54,-1062 999.1,-1026 1395.43,-1026 1312.99,-1062"/>
<text text-anchor="middle" x="1197.26" y="-1039.33" font-family="Times,serif" font-size="14.00" fill="#1e1e2e">monitoring/node&#45;exporter</text>
</g>
<!-- monitoring__node_exporter&#45;&gt;host__self_provide_host_ -->
<g id="edge33" class="edge">
<title>monitoring__node_exporter&#45;&gt;host__self_provide_host_</title>
<path fill="none" stroke="#a6adc8" d="M1262.58,-1062.42C1359.27,-1086.39 1545.35,-1117.85 1682.55,-1051 1737.35,-1024.3 1774.91,-960.03 1793.01,-922.52"/>
<polygon fill="#a6adc8" stroke="#a6adc8" points="1796.1,-924.17 1797.16,-913.63 1789.76,-921.21 1796.1,-924.17"/>
</g>
<!-- monitoring__node_exporter&#45;&gt;monitoring -->
<g id="edge51" class="edge">
<title>monitoring__node_exporter&#45;&gt;monitoring</title>
<path fill="none" stroke="#a6adc8" d="M1374.06,-1035.78C1443.31,-1032.54 1518.06,-1029.04 1567.98,-1026.71"/>
<polygon fill="#a6adc8" stroke="#a6adc8" points="1567.85,-1030.22 1577.67,-1026.26 1567.52,-1023.23 1567.85,-1030.22"/>
</g>
<!-- server&#45;&gt;monitoring__alerting -->
<g id="edge35" class="edge">
<title>server&#45;&gt;monitoring__alerting</title>
<path fill="none" stroke="#a6adc8" d="M658.34,-840.14C697.2,-842.28 766.61,-848.45 823.23,-866 840.31,-871.3 842.03,-879.07 859.23,-884 924.25,-902.64 998.93,-910.99 1061.44,-914.53"/>
<polygon fill="#a6adc8" stroke="#a6adc8" points="1060.88,-918 1071.05,-915.04 1061.25,-911.01 1060.88,-918"/>
</g>
<!-- server&#45;&gt;backup -->
<g id="edge36" class="edge">
<title>server&#45;&gt;backup</title>
<path fill="none" stroke="#a6adc8" d="M658.43,-838.51C796.15,-836.41 1366.67,-829.41 1543.3,-854 1556.02,-855.77 1569.58,-858.86 1581.96,-862.17"/>
<polygon fill="#a6adc8" stroke="#a6adc8" points="1580.91,-865.51 1591.48,-864.83 1582.79,-858.77 1580.91,-865.51"/>
</g>
<!-- server&#45;&gt;virtualization__docker -->
<g id="edge37" class="edge">
<title>server&#45;&gt;virtualization__docker</title>
<path fill="none" stroke="#a6adc8" d="M658.55,-835.6C702.65,-830.66 787.21,-821.32 859.23,-814 930.8,-806.73 1010.98,-799.09 1075.18,-793.11"/>
<polygon fill="#a6adc8" stroke="#a6adc8" points="1075.42,-796.6 1085.05,-792.19 1074.77,-789.63 1075.42,-796.6"/>
</g>
<!-- server&#45;&gt;host__self_provide_host_ -->
<g id="edge38" class="edge">
<title>server&#45;&gt;host__self_provide_host_</title>
<path fill="none" stroke="#a6adc8" d="M658.55,-840.7C702.66,-843.13 787.22,-847.55 859.23,-850 897.22,-851.29 1509.66,-846.3 1543.3,-864 1562.19,-873.93 1552.32,-893.26 1571.3,-903 1620.49,-928.24 1683.44,-924.14 1731.68,-914.74"/>
<polygon fill="#a6adc8" stroke="#a6adc8" points="1732.11,-918.23 1741.19,-912.77 1730.68,-911.38 1732.11,-918.23"/>
</g>
<!-- server&#45;&gt;monitoring -->
<g id="edge39" class="edge">
<title>server&#45;&gt;monitoring</title>
<path fill="none" stroke="#a6adc8" d="M658.63,-834.87C700.01,-830.94 774.56,-830.1 823.23,-866 853.63,-888.43 827.65,-922.25 859.23,-943 922.78,-984.76 1472.66,-934.86 1543.3,-963 1558.8,-969.17 1558.08,-977.83 1571.3,-988 1576.2,-991.77 1581.48,-995.56 1586.76,-999.19"/>
<polygon fill="#a6adc8" stroke="#a6adc8" points="1584.67,-1002.01 1594.92,-1004.68 1588.58,-996.2 1584.67,-1002.01"/>
</g>
<!-- server&#45;&gt;networking -->
<g id="edge40" class="edge">
<title>server&#45;&gt;networking</title>
<path fill="none" stroke="#a6adc8" d="M658.5,-842.96C702.54,-848.59 787.03,-858.78 859.23,-864 935.09,-869.49 1473.85,-858 1543.3,-889 1559.66,-896.3 1557.22,-906.92 1571.3,-918 1574.56,-920.56 1578.05,-923.07 1581.62,-925.47"/>
<polygon fill="#a6adc8" stroke="#a6adc8" points="1579.6,-928.33 1589.91,-930.76 1583.37,-922.43 1579.6,-928.33"/>
</g>
<!-- server&#45;&gt;monitoring__nginx_exporter -->
<g id="edge41" class="edge">
<title>server&#45;&gt;monitoring__nginx_exporter</title>
<path fill="none" stroke="#f38ba8" stroke-dasharray="5,2" d="M658.61,-834.47C700.31,-829.99 775.61,-828.45 823.23,-866 857.7,-893.19 824.17,-931.56 859.23,-958 917.35,-1001.84 998.12,-1010.75 1066.02,-1008.27"/>
<polygon fill="#f38ba8" stroke="#f38ba8" points="1065.89,-1011.77 1075.72,-1007.82 1065.57,-1004.78 1065.89,-1011.77"/>
</g>
<!-- server&#45;&gt;monitoring__node_exporter -->
<g id="edge42" class="edge">
<title>server&#45;&gt;monitoring__node_exporter</title>
<path fill="none" stroke="#a6adc8" d="M658.66,-833.65C701.12,-828.05 778.08,-825.01 823.23,-866 874.31,-912.38 806.83,-972.12 859.23,-1017 924.74,-1073.12 1026.1,-1073.71 1100.57,-1064.02"/>
<polygon fill="#a6adc8" stroke="#a6adc8" points="1100.89,-1067.51 1110.31,-1062.67 1099.93,-1060.58 1100.89,-1067.51"/>
</g>
<!-- tailscale -->
<g id="node13" class="node">
<title>tailscale</title>
<polygon fill="#f2cdcd" stroke="#f2cdcd" points="1664.55,-840 1589.3,-840 1589.3,-804 1664.55,-804 1664.55,-840"/>
<text text-anchor="middle" x="1626.93" y="-817.33" font-family="Times,serif" font-size="14.00" fill="#1e1e2e">tailscale</text>
</g>
<!-- server&#45;&gt;tailscale -->
<g id="edge43" class="edge">
<title>server&#45;&gt;tailscale</title>
<path fill="none" stroke="#a6adc8" d="M658.56,-838.29C702.68,-837.26 787.26,-835.34 859.23,-834 1130.7,-828.94 1456.26,-824.32 1577.41,-822.66"/>
<polygon fill="#a6adc8" stroke="#a6adc8" points="1577.36,-826.16 1587.31,-822.52 1577.27,-819.16 1577.36,-826.16"/>
</g>
<!-- server&#45;&gt;virtualization -->
<g id="edge44" class="edge">
<title>server&#45;&gt;virtualization</title>
<path fill="none" stroke="#a6adc8" d="M658.37,-824.29C701.58,-804.05 784.29,-768.56 859.23,-755 1114.74,-708.77 1426.01,-728.93 1559.72,-741.14"/>
<polygon fill="#a6adc8" stroke="#a6adc8" points="1559.16,-744.61 1569.44,-742.05 1559.81,-737.64 1559.16,-744.61"/>
</g>
<!-- tailscale&#45;&gt;host__self_provide_host_ -->
<g id="edge45" class="edge">
<title>tailscale&#45;&gt;host__self_provide_host_</title>
<path fill="none" stroke="#a6adc8" d="M1664.71,-836.92C1689.2,-846.85 1721.84,-860.09 1749.52,-871.32"/>
<polygon fill="#a6adc8" stroke="#a6adc8" points="1747.88,-874.43 1758.46,-874.95 1750.51,-867.95 1747.88,-874.43"/>
</g>
<!-- virtualization&#45;&gt;host__self_provide_host_ -->
<g id="edge47" class="edge">
<title>virtualization&#45;&gt;host__self_provide_host_</title>
<path fill="none" stroke="#a6adc8" d="M1661.89,-766.34C1668.9,-770.56 1676.11,-775.22 1682.55,-780 1718.91,-807.01 1756.48,-843.32 1780.35,-867.63"/>
<polygon fill="#a6adc8" stroke="#a6adc8" points="1777.66,-869.89 1787.14,-874.61 1782.67,-865 1777.66,-869.89"/>
</g>
<!-- n_default -->
<g id="node15" class="node">
<title>n_default</title>
<polygon fill="#fab387" stroke="#fab387" points="395.37,-1146 319.03,-1180.7 166.34,-1180.7 90,-1146 166.34,-1111.3 319.03,-1111.3 395.37,-1146"/>
<text text-anchor="middle" x="242.68" y="-1149.95" font-family="Times,serif" font-size="14.00" fill="#1e1e2e">default</text>
<text text-anchor="middle" x="242.68" y="-1132.7" font-family="Times,serif" font-size="14.00" fill="#1e1e2e">({ aspect&#45;chain, class })</text>
</g>
<!-- default__aspect_default_ -->
<g id="node16" class="node">
<title>default__aspect_default_</title>
<polygon fill="#a6e3a1" stroke="#a6e3a1" points="1286.26,-1167 1108.26,-1167 1108.26,-1131 1286.26,-1131 1286.26,-1167"/>
<text text-anchor="middle" x="1197.26" y="-1144.33" font-family="Times,serif" font-size="14.00" fill="#1e1e2e">default/aspect(default)</text>
</g>
<!-- n_default&#45;&gt;default__aspect_default_ -->
<g id="edge2" class="edge">
<title>n_default&#45;&gt;default__aspect_default_</title>
<path fill="none" stroke="#a6adc8" d="M358.85,-1128.93C382.77,-1126.04 407.85,-1123.5 431.37,-1122 669.82,-1106.82 950.67,-1126.28 1096.71,-1139.22"/>
<polygon fill="#a6adc8" stroke="#a6adc8" points="1096.07,-1142.67 1106.34,-1140.08 1096.69,-1135.7 1096.07,-1142.67"/>
</g>
<!-- den__provides__define_user -->
<g id="node21" class="node">
<title>den__provides__define_user</title>
<polygon fill="#a6e3a1" stroke="#a6e3a1" points="720.87,-1221 533.73,-1221 467.08,-1185 787.51,-1185 720.87,-1221"/>
<text text-anchor="middle" x="627.3" y="-1198.33" font-family="Times,serif" font-size="14.00" fill="#1e1e2e">provides/define&#45;user</text>
</g>
<!-- n_default&#45;&gt;den__provides__define_user -->
<g id="edge3" class="edge">
<title>n_default&#45;&gt;den__provides__define_user</title>
<path fill="none" stroke="#a6adc8" d="M355.77,-1164.31C380.65,-1168.26 406.89,-1172.35 431.37,-1176 446.81,-1178.3 462.96,-1180.65 479.05,-1182.94"/>
<polygon fill="#a6adc8" stroke="#a6adc8" points="478.29,-1186.36 488.69,-1184.3 479.28,-1179.43 478.29,-1186.36"/>
</g>
<!-- den__provides__hostname -->
<g id="node22" class="node">
<title>den__provides__hostname</title>
<polygon fill="#fab387" stroke="#fab387" points="715.22,-1275 539.38,-1275 476.76,-1239 777.84,-1239 715.22,-1275"/>
<text text-anchor="middle" x="627.3" y="-1252.33" font-family="Times,serif" font-size="14.00" fill="#1e1e2e">provides/hostname</text>
</g>
<!-- n_default&#45;&gt;den__provides__hostname -->
<g id="edge4" class="edge">
<title>n_default&#45;&gt;den__provides__hostname</title>
<path fill="none" stroke="#a6adc8" d="M348.18,-1167.95C364.64,-1173.73 380.97,-1180.97 395.37,-1190 415.63,-1202.71 410.24,-1218.79 431.37,-1230 448.88,-1239.29 468.46,-1245.75 488.27,-1250.2"/>
<polygon fill="#a6adc8" stroke="#a6adc8" points="487.31,-1253.57 497.81,-1252.16 488.72,-1246.72 487.31,-1253.57"/>
</g>
<!-- den__provides__mutual_provider -->
<g id="node23" class="node">
<title>den__provides__mutual_provider</title>
<polygon fill="#f9e2af" stroke="#f9e2af" points="741.72,-1167 512.87,-1167 431.37,-1131 823.23,-1131 741.72,-1167"/>
<text text-anchor="middle" x="627.3" y="-1144.33" font-family="Times,serif" font-size="14.00" fill="#1e1e2e">provides/mutual&#45;provider</text>
</g>
<!-- n_default&#45;&gt;den__provides__mutual_provider -->
<g id="edge5" class="edge">
<title>n_default&#45;&gt;den__provides__mutual_provider</title>
<path fill="none" stroke="#a6adc8" d="M393.81,-1147.18C414.48,-1147.34 435.83,-1147.51 456.82,-1147.67"/>
<polygon fill="#a6adc8" stroke="#a6adc8" points="456.56,-1151.17 466.59,-1147.75 456.61,-1144.17 456.56,-1151.17"/>
</g>
<!-- den__provides__default__aspect_default__den__provides -->
<g id="node17" class="node">
<title>den__provides__default__aspect_default__den__provides</title>
<polygon fill="#a6e3a1" stroke="#a6e3a1" points="1394.69,-1221 999.84,-1221 859.23,-1185 1535.3,-1185 1394.69,-1221"/>
<text text-anchor="middle" x="1197.26" y="-1198.33" font-family="Times,serif" font-size="14.00" fill="#1e1e2e">provides/default/aspect(default):den/provides</text>
</g>
<!-- default__cross_provide_host_ -->
<g id="node18" class="node">
<title>default__cross_provide_host_</title>
<polygon fill="#f9e2af" stroke="#f9e2af" points="346.68,-1235 138.68,-1235 138.68,-1199 346.68,-1199 346.68,-1235"/>
<text text-anchor="middle" x="242.68" y="-1212.33" font-family="Times,serif" font-size="14.00" fill="#1e1e2e">default/cross&#45;provide(host)</text>
</g>
<!-- default__cross_provide_user_ -->
<g id="node19" class="node">
<title>default__cross_provide_user_</title>
<polygon fill="#f9e2af" stroke="#f9e2af" points="347.06,-1289 138.31,-1289 138.31,-1253 347.06,-1253 347.06,-1289"/>
<text text-anchor="middle" x="242.68" y="-1266.33" font-family="Times,serif" font-size="14.00" fill="#1e1e2e">default/cross&#45;provide(user)</text>
</g>
<!-- default__self_provide_default_ -->
<g id="node20" class="node">
<title>default__self_provide_default_</title>
<polygon fill="#fab387" stroke="#fab387" points="350.06,-1343 135.31,-1343 135.31,-1307 350.06,-1307 350.06,-1343"/>
<text text-anchor="middle" x="242.68" y="-1320.33" font-family="Times,serif" font-size="14.00" fill="#1e1e2e">default/self&#45;provide(default)</text>
</g>
<!-- den__provides__define_user&#45;&gt;default__aspect_default_ -->
<g id="edge6" class="edge">
<title>den__provides__define_user&#45;&gt;default__aspect_default_</title>
<path fill="none" stroke="#a6adc8" d="M779.45,-1184.53C806.02,-1181.51 833.42,-1178.54 859.23,-1176 938.89,-1168.15 1029.31,-1161.01 1096.43,-1156.04"/>
<polygon fill="#a6adc8" stroke="#a6adc8" points="1096.61,-1159.54 1106.33,-1155.31 1096.1,-1152.55 1096.61,-1159.54"/>
</g>
<!-- den__provides__define_user&#45;&gt;den__provides__default__aspect_default__den__provides -->
<g id="edge7" class="edge">
<title>den__provides__define_user&#45;&gt;den__provides__default__aspect_default__den__provides</title>
<path fill="none" stroke="#a6adc8" d="M755.05,-1203C803.02,-1203 859.73,-1203 916.23,-1203"/>
<polygon fill="#a6adc8" stroke="#a6adc8" points="916.01,-1206.5 926.01,-1203 916.01,-1199.5 916.01,-1206.5"/>
</g>
<!-- den__provides__hostname&#45;&gt;default__aspect_default_ -->
<g id="edge8" class="edge">
<title>den__provides__hostname&#45;&gt;default__aspect_default_</title>
<path fill="none" stroke="#a6adc8" d="M748.75,-1256.28C774.77,-1251.89 801.09,-1243.89 823.23,-1230 847.66,-1214.67 834.36,-1190.62 859.23,-1176 930.68,-1134 1025.84,-1130.12 1096.82,-1135.08"/>
<polygon fill="#a6adc8" stroke="#a6adc8" points="1096.25,-1138.55 1106.49,-1135.83 1096.79,-1131.57 1096.25,-1138.55"/>
</g>
<!-- den__provides__hostname&#45;&gt;den__provides__default__aspect_default__den__provides -->
<g id="edge9" class="edge">
<title>den__provides__hostname&#45;&gt;den__provides__default__aspect_default__den__provides</title>
<path fill="none" stroke="#a6adc8" d="M770.89,-1243.44C837.38,-1237.12 917.76,-1229.48 990.67,-1222.55"/>
<polygon fill="#a6adc8" stroke="#a6adc8" points="990.7,-1226.06 1000.33,-1221.63 990.04,-1219.09 990.7,-1226.06"/>
</g>
<!-- den__provides__mutual_provider&#45;&gt;default__aspect_default_ -->
<g id="edge10" class="edge">
<title>den__provides__mutual_provider&#45;&gt;default__aspect_default_</title>
<path fill="none" stroke="#a6adc8" d="M783.5,-1149C883.3,-1149 1010.02,-1149 1096.56,-1149"/>
<polygon fill="#a6adc8" stroke="#a6adc8" points="1096.45,-1152.5 1106.45,-1149 1096.45,-1145.5 1096.45,-1152.5"/>
</g>
<!-- den__provides__mutual_provider&#45;&gt;den__provides__default__aspect_default__den__provides -->
<g id="edge11" class="edge">
<title>den__provides__mutual_provider&#45;&gt;den__provides__default__aspect_default__den__provides</title>
<path fill="none" stroke="#a6adc8" d="M749.56,-1164.02C784.89,-1168.17 823.58,-1172.49 859.23,-1176 885.67,-1178.6 913.3,-1181.13 940.87,-1183.53"/>
<polygon fill="#a6adc8" stroke="#a6adc8" points="940.48,-1187.01 950.75,-1184.38 941.08,-1180.03 940.48,-1187.01"/>
</g>
<!-- hm_host -->
<g id="node24" class="node">
<title>hm_host</title>
<polygon fill="#cba6f7" stroke="#cba6f7" points="395.37,-592 319.03,-626.7 166.34,-626.7 90,-592 166.34,-557.3 319.03,-557.3 395.37,-592"/>
<text text-anchor="middle" x="242.68" y="-595.95" font-family="Times,serif" font-size="14.00" fill="#1e1e2e">hm&#45;host</text>
<text text-anchor="middle" x="242.68" y="-578.7" font-family="Times,serif" font-size="14.00" fill="#1e1e2e">({ aspect&#45;chain, class })</text>
</g>
<!-- hm_host__aspect_hm_host_ -->
<g id="node25" class="node">
<title>hm_host__aspect_hm_host_</title>
<polygon fill="#89b4fa" stroke="#89b4fa" points="723.8,-610 530.8,-610 530.8,-574 723.8,-574 723.8,-610"/>
<text text-anchor="middle" x="627.3" y="-587.33" font-family="Times,serif" font-size="14.00" fill="#1e1e2e">hm&#45;host/aspect(hm&#45;host)</text>
</g>
<!-- hm_host&#45;&gt;hm_host__aspect_hm_host_ -->
<g id="edge13" class="edge">
<title>hm_host&#45;&gt;hm_host__aspect_hm_host_</title>
<path fill="none" stroke="#a6adc8" d="M396.55,-592C437.66,-592 481.24,-592 519.27,-592"/>
<polygon fill="#a6adc8" stroke="#a6adc8" points="518.85,-595.5 528.85,-592 518.85,-588.5 518.85,-595.5"/>
</g>
<!-- hm_host__cross_provide_host_ -->
<g id="node26" class="node">
<title>hm_host__cross_provide_host_</title>
<polygon fill="#f2cdcd" stroke="#f2cdcd" points="350.43,-681 134.93,-681 134.93,-645 350.43,-645 350.43,-681"/>
<text text-anchor="middle" x="242.68" y="-658.33" font-family="Times,serif" font-size="14.00" fill="#1e1e2e">hm&#45;host/cross&#45;provide(host)</text>
</g>
<!-- hm_host__self_provide_hm_host_ -->
<g id="node27" class="node">
<title>hm_host__self_provide_hm_host_</title>
<polygon fill="#cba6f7" stroke="#cba6f7" points="357.56,-539 127.81,-539 127.81,-503 357.56,-503 357.56,-539"/>
<text text-anchor="middle" x="242.68" y="-516.33" font-family="Times,serif" font-size="14.00" fill="#1e1e2e">hm&#45;host/self&#45;provide(hm&#45;host)</text>
</g>
<!-- hm_user -->
<g id="node28" class="node">
<title>hm_user</title>
<polygon fill="#fab387" stroke="#fab387" points="395.37,-365 319.03,-399.7 166.34,-399.7 90,-365 166.34,-330.3 319.03,-330.3 395.37,-365"/>
<text text-anchor="middle" x="242.68" y="-368.95" font-family="Times,serif" font-size="14.00" fill="#1e1e2e">hm&#45;user</text>
<text text-anchor="middle" x="242.68" y="-351.7" font-family="Times,serif" font-size="14.00" fill="#1e1e2e">({ aspect&#45;chain, class })</text>
</g>
<!-- hm_user__aspect_hm_user_ -->
<g id="node29" class="node">
<title>hm_user__aspect_hm_user_</title>
<polygon fill="#a6e3a1" stroke="#a6e3a1" points="724.55,-383 530.05,-383 530.05,-347 724.55,-347 724.55,-383"/>
<text text-anchor="middle" x="627.3" y="-360.32" font-family="Times,serif" font-size="14.00" fill="#1e1e2e">hm&#45;user/aspect(hm&#45;user)</text>
</g>
<!-- hm_user&#45;&gt;hm_user__aspect_hm_user_ -->
<g id="edge14" class="edge">
<title>hm_user&#45;&gt;hm_user__aspect_hm_user_</title>
<path fill="none" stroke="#a6adc8" d="M396.55,-365C437.47,-365 480.84,-365 518.75,-365"/>
<polygon fill="#a6adc8" stroke="#a6adc8" points="518.29,-368.5 528.29,-365 518.29,-361.5 518.29,-368.5"/>
</g>
<!-- hm_user__cross_provide_hm_host_ -->
<g id="node30" class="node">
<title>hm_user__cross_provide_hm_host_</title>
<polygon fill="#a6e3a1" stroke="#a6e3a1" points="364.31,-454 121.06,-454 121.06,-418 364.31,-418 364.31,-454"/>
<text text-anchor="middle" x="242.68" y="-431.32" font-family="Times,serif" font-size="14.00" fill="#1e1e2e">hm&#45;user/cross&#45;provide(hm&#45;host)</text>
</g>
<!-- hm_user__self_provide_hm_user_ -->
<g id="node31" class="node">
<title>hm_user__self_provide_hm_user_</title>
<polygon fill="#fab387" stroke="#fab387" points="358.31,-312 127.06,-312 127.06,-276 358.31,-276 358.31,-312"/>
<text text-anchor="middle" x="242.68" y="-289.32" font-family="Times,serif" font-size="14.00" fill="#1e1e2e">hm&#45;user/self&#45;provide(hm&#45;user)</text>
</g>
<!-- deploy -->
<g id="node32" class="node">
<title>deploy</title>
<polygon fill="#f2cdcd" stroke="#f2cdcd" points="395.37,-105 319.03,-139.7 166.34,-139.7 90,-105 166.34,-70.3 319.03,-70.3 395.37,-105"/>
<text text-anchor="middle" x="242.68" y="-108.95" font-family="Times,serif" font-size="14.00" fill="#1e1e2e">deploy</text>
<text text-anchor="middle" x="242.68" y="-91.7" font-family="Times,serif" font-size="14.00" fill="#1e1e2e">({ aspect&#45;chain, class })</text>
</g>
<!-- user__self_provide_user_ -->
<g id="node36" class="node">
<title>user__self_provide_user_</title>
<polygon fill="#f2cdcd" stroke="#f2cdcd" points="715.92,-123 538.67,-123 538.67,-87 715.92,-87 715.92,-123"/>
<text text-anchor="middle" x="627.3" y="-100.33" font-family="Times,serif" font-size="14.00" fill="#1e1e2e">user/self&#45;provide(user)</text>
</g>
<!-- deploy&#45;&gt;user__self_provide_user_ -->
<g id="edge12" class="edge">
<title>deploy&#45;&gt;user__self_provide_user_</title>
<path fill="none" stroke="#a6adc8" d="M396.55,-105C440.5,-105 487.28,-105 527.07,-105"/>
<polygon fill="#a6adc8" stroke="#a6adc8" points="526.86,-108.5 536.86,-105 526.86,-101.5 526.86,-108.5"/>
</g>
<!-- user -->
<g id="node33" class="node">
<title>user</title>
<polygon fill="#f2cdcd" stroke="#f2cdcd" points="395.37,-192 319.03,-226.7 166.34,-226.7 90,-192 166.34,-157.3 319.03,-157.3 395.37,-192"/>
<text text-anchor="middle" x="242.68" y="-195.95" font-family="Times,serif" font-size="14.00" fill="#1e1e2e">user</text>
<text text-anchor="middle" x="242.68" y="-178.7" font-family="Times,serif" font-size="14.00" fill="#1e1e2e">({ aspect&#45;chain, class })</text>
</g>
<!-- user__aspect_user_ -->
<g id="node34" class="node">
<title>user__aspect_user_</title>
<polygon fill="#fab387" stroke="#fab387" points="697.55,-210 557.05,-210 557.05,-174 697.55,-174 697.55,-210"/>
<text text-anchor="middle" x="627.3" y="-187.32" font-family="Times,serif" font-size="14.00" fill="#1e1e2e">user/aspect(user)</text>
</g>
<!-- user&#45;&gt;user__aspect_user_ -->
<g id="edge46" class="edge">
<title>user&#45;&gt;user__aspect_user_</title>
<path fill="none" stroke="#a6adc8" d="M396.55,-192C447.47,-192 502.19,-192 545.44,-192"/>
<polygon fill="#a6adc8" stroke="#a6adc8" points="545.24,-195.5 555.24,-192 545.24,-188.5 545.24,-195.5"/>
</g>
<!-- user__cross_provide_host_ -->
<g id="node35" class="node">
<title>user__cross_provide_host_</title>
<polygon fill="#f38ba8" stroke="#f38ba8" points="337.31,-52 148.06,-52 148.06,-16 337.31,-16 337.31,-52"/>
<text text-anchor="middle" x="242.68" y="-29.32" font-family="Times,serif" font-size="14.00" fill="#1e1e2e">user/cross&#45;provide(host)</text>
</g>
<!-- host -->
<g id="node37" class="node">
<title>host</title>
<polygon fill="#fab387" stroke="#fab387" points="54,-645 0,-645 0,-609 54,-609 54,-645"/>
<text text-anchor="middle" x="27" y="-622.33" font-family="Times,serif" font-size="14.00" fill="#1e1e2e">host</text>
</g>
<!-- host&#45;&gt;web_server -->
<g id="edge30" class="edge">
<title>host&#45;&gt;web_server</title>
<path fill="none" stroke="#a6adc8" d="M33.51,-645.44C40.89,-666.67 56.13,-700.83 82,-718 111.62,-737.66 151.16,-743.23 183.48,-743.85"/>
<polygon fill="#a6adc8" stroke="#a6adc8" points="183.06,-747.34 193.07,-743.87 183.08,-740.34 183.06,-747.34"/>
</g>
<!-- host&#45;&gt;host__aspect_host_ -->
<g id="edge26" class="edge">
<title>host&#45;&gt;host__aspect_host_</title>
<path fill="none" stroke="#a6adc8" d="M30.18,-645.49C36.08,-692.26 53.82,-813.51 82,-841 206.88,-962.82 427.7,-965.29 546.06,-956.34"/>
<polygon fill="#a6adc8" stroke="#a6adc8" points="546.34,-959.82 556.03,-955.53 545.78,-952.85 546.34,-959.82"/>
</g>
<!-- host&#45;&gt;host__cross_provide__anon__ -->
<g id="edge27" class="edge">
<title>host&#45;&gt;host__cross_provide__anon__</title>
<path fill="none" stroke="#a6adc8" d="M29.87,-645.35C33.91,-675.24 46.2,-734.35 82,-767 198.32,-873.08 385.94,-895.3 507.69,-897.35"/>
<polygon fill="#a6adc8" stroke="#a6adc8" points="507.34,-900.85 517.38,-897.47 507.42,-893.85 507.34,-900.85"/>
</g>
<!-- host&#45;&gt;n_default -->
<g id="edge15" class="edge">
<title>host&#45;&gt;n_default</title>
<path fill="none" stroke="#a6adc8" d="M28.5,-645.32C30.38,-693.35 39.36,-826.05 82,-926 110.88,-993.68 163.81,-1060.52 200.78,-1102.44"/>
<polygon fill="#a6adc8" stroke="#a6adc8" points="198.14,-1104.74 207.41,-1109.87 203.37,-1100.08 198.14,-1104.74"/>
</g>
<!-- host&#45;&gt;default__cross_provide_host_ -->
<g id="edge16" class="edge">
<title>host&#45;&gt;default__cross_provide_host_</title>
<path fill="none" stroke="#a6adc8" d="M28.46,-645.47C30.94,-738.09 44.04,-1149.21 82,-1190 94.21,-1203.12 110.25,-1211.39 127.45,-1216.39"/>
<polygon fill="#a6adc8" stroke="#a6adc8" points="126.26,-1219.7 136.81,-1218.74 127.96,-1212.91 126.26,-1219.7"/>
</g>
<!-- host&#45;&gt;default__cross_provide_user_ -->
<g id="edge17" class="edge">
<title>host&#45;&gt;default__cross_provide_user_</title>
<path fill="none" stroke="#a6adc8" d="M28.29,-645.27C30.03,-742.74 40.34,-1198.86 82,-1244 94.16,-1257.18 110.17,-1265.46 127.36,-1270.48"/>
<polygon fill="#a6adc8" stroke="#a6adc8" points="126.17,-1273.79 136.72,-1272.83 127.87,-1267 126.17,-1273.79"/>
</g>
<!-- host&#45;&gt;default__self_provide_default_ -->
<g id="edge18" class="edge">
<title>host&#45;&gt;default__self_provide_default_</title>
<path fill="none" stroke="#a6adc8" d="M28.16,-645.49C29.22,-748.49 36.7,-1248.56 82,-1298 93.45,-1310.5 108.37,-1318.61 124.48,-1323.7"/>
<polygon fill="#a6adc8" stroke="#a6adc8" points="123.19,-1326.98 133.76,-1326.23 125.03,-1320.22 123.19,-1326.98"/>
</g>
<!-- host&#45;&gt;hm_host -->
<g id="edge20" class="edge">
<title>host&#45;&gt;hm_host</title>
<path fill="none" stroke="#a6adc8" d="M54.2,-622.71C70.92,-619.97 93.94,-616.2 118.13,-612.24"/>
<polygon fill="#a6adc8" stroke="#a6adc8" points="118.51,-615.72 127.81,-610.65 117.38,-608.81 118.51,-615.72"/>
</g>
<!-- host&#45;&gt;hm_host__cross_provide_host_ -->
<g id="edge21" class="edge">
<title>host&#45;&gt;hm_host__cross_provide_host_</title>
<path fill="none" stroke="#a6adc8" d="M54.2,-631.41C72.14,-634.44 97.34,-638.68 123.46,-643.08"/>
<polygon fill="#a6adc8" stroke="#a6adc8" points="122.75,-646.51 133.19,-644.72 123.91,-639.61 122.75,-646.51"/>
</g>
<!-- host&#45;&gt;hm_host__self_provide_hm_host_ -->
<g id="edge22" class="edge">
<title>host&#45;&gt;hm_host__self_provide_hm_host_</title>
<path fill="none" stroke="#a6adc8" d="M35.33,-608.74C43.73,-590.29 59.33,-562.51 82,-548 92.62,-541.2 104.43,-535.96 116.67,-531.93"/>
<polygon fill="#a6adc8" stroke="#a6adc8" points="117.49,-535.34 126.07,-529.13 115.49,-528.63 117.49,-535.34"/>
</g>
<!-- host&#45;&gt;hm_user -->
<g id="edge23" class="edge">
<title>host&#45;&gt;hm_user</title>
<path fill="none" stroke="#a6adc8" d="M30.17,-608.59C36.09,-561.4 53.97,-437.77 82,-409 91.33,-399.43 102.53,-391.88 114.63,-385.94"/>
<polygon fill="#a6adc8" stroke="#a6adc8" points="115.89,-389.21 123.59,-381.93 113.03,-382.81 115.89,-389.21"/>
</g>
<!-- host&#45;&gt;hm_user__cross_provide_hm_host_ -->
<g id="edge24" class="edge">
<title>host&#45;&gt;hm_user__cross_provide_hm_host_</title>
<path fill="none" stroke="#a6adc8" d="M30.31,-608.91C34.94,-580.03 48.01,-523.45 82,-491 96.85,-476.82 115.53,-466.28 134.82,-458.45"/>
<polygon fill="#a6adc8" stroke="#a6adc8" points="136.06,-461.73 144.17,-454.92 133.58,-455.18 136.06,-461.73"/>
</g>
<!-- host&#45;&gt;hm_user__self_provide_hm_user_ -->
<g id="edge25" class="edge">
<title>host&#45;&gt;hm_user__self_provide_hm_user_</title>
<path fill="none" stroke="#a6adc8" d="M28.56,-608.7C30.78,-549.05 40.94,-361.76 82,-321 91.66,-311.4 103.39,-304.47 116.05,-299.54"/>
<polygon fill="#a6adc8" stroke="#a6adc8" points="117.1,-302.88 125.44,-296.34 114.85,-296.25 117.1,-302.88"/>
</g>
<!-- host&#45;&gt;deploy -->
<g id="edge19" class="edge">
<title>host&#45;&gt;deploy</title>
<path fill="none" stroke="#a6adc8" d="M28.86,-608.65C32.94,-525.14 51.38,-183.62 82,-148 90.32,-138.32 100.57,-130.7 111.83,-124.73"/>
<polygon fill="#a6adc8" stroke="#a6adc8" points="113.08,-128.01 120.59,-120.54 110.06,-121.69 113.08,-128.01"/>
</g>
<!-- host&#45;&gt;user -->
<g id="edge28" class="edge">
<title>host&#45;&gt;user</title>
<path fill="none" stroke="#a6adc8" d="M28.46,-608.59C30.45,-542.65 40.21,-319.27 82,-264 95.57,-246.05 114.64,-232.46 134.89,-222.21"/>
<polygon fill="#a6adc8" stroke="#a6adc8" points="136.34,-225.4 143.87,-217.95 133.34,-219.08 136.34,-225.4"/>
</g>
<!-- host&#45;&gt;user__cross_provide_host_ -->
<g id="edge29" class="edge">
<title>host&#45;&gt;user__cross_provide_host_</title>
<path fill="none" stroke="#a6adc8" d="M28.45,-608.74C30.87,-516.23 43.81,-102.06 82,-61 96.37,-45.56 116.02,-36.84 136.64,-32.25"/>
<polygon fill="#a6adc8" stroke="#a6adc8" points="137.15,-35.71 146.33,-30.43 135.86,-28.83 137.15,-35.71"/>
</g>
</g>
</svg>
